G04 #@! TF.GenerationSoftware,KiCad,Pcbnew,5.0.0-fee4fd1~66~ubuntu16.04.1*
G04 #@! TF.CreationDate,2018-09-19T21:09:30+02:00*
G04 #@! TF.ProjectId,switch_3pole_5x,7377697463685F33706F6C655F35782E,1*
G04 #@! TF.SameCoordinates,Original*
G04 #@! TF.FileFunction,Drawing*
%FSLAX46Y46*%
G04 Gerber Fmt 4.6, Leading zero omitted, Abs format (unit mm)*
G04 Created by KiCad (PCBNEW 5.0.0-fee4fd1~66~ubuntu16.04.1) date Wed Sep 19 21:09:30 2018*
%MOMM*%
%LPD*%
G01*
G04 APERTURE LIST*
%ADD10C,0.200000*%
%ADD11C,0.300000*%
G04 APERTURE END LIST*
D10*
X119380000Y-51435000D02*
X119380000Y-116840000D01*
D11*
X204371428Y-78000000D02*
X204371428Y-77714285D01*
X204300000Y-77571428D01*
X204228571Y-77500000D01*
X204014285Y-77357142D01*
X203728571Y-77285714D01*
X203157142Y-77285714D01*
X203014285Y-77357142D01*
X202942857Y-77428571D01*
X202871428Y-77571428D01*
X202871428Y-77857142D01*
X202942857Y-78000000D01*
X203014285Y-78071428D01*
X203157142Y-78142857D01*
X203514285Y-78142857D01*
X203657142Y-78071428D01*
X203728571Y-78000000D01*
X203800000Y-77857142D01*
X203800000Y-77571428D01*
X203728571Y-77428571D01*
X203657142Y-77357142D01*
X203514285Y-77285714D01*
X204371428Y-78642857D02*
X204371428Y-79642857D01*
X202871428Y-79000000D01*
X203014285Y-80214285D02*
X202942857Y-80285714D01*
X202871428Y-80214285D01*
X202942857Y-80142857D01*
X203014285Y-80214285D01*
X202871428Y-80214285D01*
X204371428Y-81214285D02*
X204371428Y-81357142D01*
X204300000Y-81500000D01*
X204228571Y-81571428D01*
X204085714Y-81642857D01*
X203800000Y-81714285D01*
X203442857Y-81714285D01*
X203157142Y-81642857D01*
X203014285Y-81571428D01*
X202942857Y-81500000D01*
X202871428Y-81357142D01*
X202871428Y-81214285D01*
X202942857Y-81071428D01*
X203014285Y-81000000D01*
X203157142Y-80928571D01*
X203442857Y-80857142D01*
X203800000Y-80857142D01*
X204085714Y-80928571D01*
X204228571Y-81000000D01*
X204300000Y-81071428D01*
X204371428Y-81214285D01*
X204371428Y-82642857D02*
X204371428Y-82785714D01*
X204300000Y-82928571D01*
X204228571Y-83000000D01*
X204085714Y-83071428D01*
X203800000Y-83142857D01*
X203442857Y-83142857D01*
X203157142Y-83071428D01*
X203014285Y-83000000D01*
X202942857Y-82928571D01*
X202871428Y-82785714D01*
X202871428Y-82642857D01*
X202942857Y-82500000D01*
X203014285Y-82428571D01*
X203157142Y-82357142D01*
X203442857Y-82285714D01*
X203800000Y-82285714D01*
X204085714Y-82357142D01*
X204228571Y-82428571D01*
X204300000Y-82500000D01*
X204371428Y-82642857D01*
X204371428Y-84071428D02*
X204371428Y-84214285D01*
X204300000Y-84357142D01*
X204228571Y-84428571D01*
X204085714Y-84500000D01*
X203800000Y-84571428D01*
X203442857Y-84571428D01*
X203157142Y-84500000D01*
X203014285Y-84428571D01*
X202942857Y-84357142D01*
X202871428Y-84214285D01*
X202871428Y-84071428D01*
X202942857Y-83928571D01*
X203014285Y-83857142D01*
X203157142Y-83785714D01*
X203442857Y-83714285D01*
X203800000Y-83714285D01*
X204085714Y-83785714D01*
X204228571Y-83857142D01*
X204300000Y-83928571D01*
X204371428Y-84071428D01*
X202871428Y-86357142D02*
X203871428Y-86357142D01*
X203728571Y-86357142D02*
X203800000Y-86428571D01*
X203871428Y-86571428D01*
X203871428Y-86785714D01*
X203800000Y-86928571D01*
X203657142Y-87000000D01*
X202871428Y-87000000D01*
X203657142Y-87000000D02*
X203800000Y-87071428D01*
X203871428Y-87214285D01*
X203871428Y-87428571D01*
X203800000Y-87571428D01*
X203657142Y-87642857D01*
X202871428Y-87642857D01*
X202871428Y-88357142D02*
X203871428Y-88357142D01*
X203728571Y-88357142D02*
X203800000Y-88428571D01*
X203871428Y-88571428D01*
X203871428Y-88785714D01*
X203800000Y-88928571D01*
X203657142Y-89000000D01*
X202871428Y-89000000D01*
X203657142Y-89000000D02*
X203800000Y-89071428D01*
X203871428Y-89214285D01*
X203871428Y-89428571D01*
X203800000Y-89571428D01*
X203657142Y-89642857D01*
X202871428Y-89642857D01*
X202200000Y-50000000D02*
X202200000Y-117000000D01*
X194000000Y-50000000D02*
X204900000Y-50000000D01*
X194000000Y-117000000D02*
X204900000Y-117000000D01*
X202200000Y-117000000D02*
X201613579Y-115873496D01*
X202200000Y-117000000D02*
X202786421Y-115873496D01*
X202200000Y-50000000D02*
X201613579Y-51126504D01*
X202200000Y-50000000D02*
X202786421Y-51126504D01*
X140428571Y-39328571D02*
X140714285Y-39328571D01*
X140857142Y-39257142D01*
X140928571Y-39185714D01*
X141071428Y-38971428D01*
X141142857Y-38685714D01*
X141142857Y-38114285D01*
X141071428Y-37971428D01*
X141000000Y-37900000D01*
X140857142Y-37828571D01*
X140571428Y-37828571D01*
X140428571Y-37900000D01*
X140357142Y-37971428D01*
X140285714Y-38114285D01*
X140285714Y-38471428D01*
X140357142Y-38614285D01*
X140428571Y-38685714D01*
X140571428Y-38757142D01*
X140857142Y-38757142D01*
X141000000Y-38685714D01*
X141071428Y-38614285D01*
X141142857Y-38471428D01*
X141642857Y-37828571D02*
X142571428Y-37828571D01*
X142071428Y-38400000D01*
X142285714Y-38400000D01*
X142428571Y-38471428D01*
X142500000Y-38542857D01*
X142571428Y-38685714D01*
X142571428Y-39042857D01*
X142500000Y-39185714D01*
X142428571Y-39257142D01*
X142285714Y-39328571D01*
X141857142Y-39328571D01*
X141714285Y-39257142D01*
X141642857Y-39185714D01*
X143214285Y-39185714D02*
X143285714Y-39257142D01*
X143214285Y-39328571D01*
X143142857Y-39257142D01*
X143214285Y-39185714D01*
X143214285Y-39328571D01*
X144214285Y-37828571D02*
X144357142Y-37828571D01*
X144500000Y-37900000D01*
X144571428Y-37971428D01*
X144642857Y-38114285D01*
X144714285Y-38400000D01*
X144714285Y-38757142D01*
X144642857Y-39042857D01*
X144571428Y-39185714D01*
X144500000Y-39257142D01*
X144357142Y-39328571D01*
X144214285Y-39328571D01*
X144071428Y-39257142D01*
X144000000Y-39185714D01*
X143928571Y-39042857D01*
X143857142Y-38757142D01*
X143857142Y-38400000D01*
X143928571Y-38114285D01*
X144000000Y-37971428D01*
X144071428Y-37900000D01*
X144214285Y-37828571D01*
X145642857Y-37828571D02*
X145785714Y-37828571D01*
X145928571Y-37900000D01*
X146000000Y-37971428D01*
X146071428Y-38114285D01*
X146142857Y-38400000D01*
X146142857Y-38757142D01*
X146071428Y-39042857D01*
X146000000Y-39185714D01*
X145928571Y-39257142D01*
X145785714Y-39328571D01*
X145642857Y-39328571D01*
X145500000Y-39257142D01*
X145428571Y-39185714D01*
X145357142Y-39042857D01*
X145285714Y-38757142D01*
X145285714Y-38400000D01*
X145357142Y-38114285D01*
X145428571Y-37971428D01*
X145500000Y-37900000D01*
X145642857Y-37828571D01*
X147071428Y-37828571D02*
X147214285Y-37828571D01*
X147357142Y-37900000D01*
X147428571Y-37971428D01*
X147500000Y-38114285D01*
X147571428Y-38400000D01*
X147571428Y-38757142D01*
X147500000Y-39042857D01*
X147428571Y-39185714D01*
X147357142Y-39257142D01*
X147214285Y-39328571D01*
X147071428Y-39328571D01*
X146928571Y-39257142D01*
X146857142Y-39185714D01*
X146785714Y-39042857D01*
X146714285Y-38757142D01*
X146714285Y-38400000D01*
X146785714Y-38114285D01*
X146857142Y-37971428D01*
X146928571Y-37900000D01*
X147071428Y-37828571D01*
X149357142Y-39328571D02*
X149357142Y-38328571D01*
X149357142Y-38471428D02*
X149428571Y-38400000D01*
X149571428Y-38328571D01*
X149785714Y-38328571D01*
X149928571Y-38400000D01*
X150000000Y-38542857D01*
X150000000Y-39328571D01*
X150000000Y-38542857D02*
X150071428Y-38400000D01*
X150214285Y-38328571D01*
X150428571Y-38328571D01*
X150571428Y-38400000D01*
X150642857Y-38542857D01*
X150642857Y-39328571D01*
X151357142Y-39328571D02*
X151357142Y-38328571D01*
X151357142Y-38471428D02*
X151428571Y-38400000D01*
X151571428Y-38328571D01*
X151785714Y-38328571D01*
X151928571Y-38400000D01*
X152000000Y-38542857D01*
X152000000Y-39328571D01*
X152000000Y-38542857D02*
X152071428Y-38400000D01*
X152214285Y-38328571D01*
X152428571Y-38328571D01*
X152571428Y-38400000D01*
X152642857Y-38542857D01*
X152642857Y-39328571D01*
X100000000Y-40000000D02*
X193000000Y-40000000D01*
X100000000Y-49000000D02*
X100000000Y-37300000D01*
X193000000Y-49000000D02*
X193000000Y-37300000D01*
X193000000Y-40000000D02*
X191873496Y-40586421D01*
X193000000Y-40000000D02*
X191873496Y-39413579D01*
X100000000Y-40000000D02*
X101126504Y-40586421D01*
X100000000Y-40000000D02*
X101126504Y-39413579D01*
M02*
