M48
METRIC,TZ
T1C0.400
T2C0.600
T3C0.700
T4C0.900
T5C1.000
T6C1.300
%
G90
G05
T1
X151550Y-55174
X151550Y-80828
X151550Y-106482
X152820Y-63810
X153670Y-92456
X158647Y-93158
X158662Y-92258
X158662Y-94058
X158750Y-99568
X158750Y-100584
X161456Y-74732
X162560Y-97282
X162560Y-98806
X163896Y-88864
X164250Y-78542
X164250Y-81082
X165114Y-88922
X165561Y-93480
X166254Y-88899
X170092Y-97338
X172085Y-54610
X172885Y-59690
X172968Y-93279
X173140Y-91750
X173406Y-98119
X173460Y-100918
X173520Y-66040
X173568Y-94073
X174155Y-71120
X174732Y-94706
X175325Y-76200
X175728Y-94611
T2
X147486Y-81336
X149010Y-55174
X149010Y-68382
X149010Y-93528
X149010Y-106482
X156845Y-107315
X156846Y-84448
X162560Y-104775
X178220Y-102926
X182245Y-88900
X184785Y-102235
T3
X150280Y-109530
X152820Y-109530
X150280Y-96830
X152820Y-96830
X150280Y-84130
X152820Y-84130
X150280Y-58730
X152820Y-58730
X150280Y-71430
X152820Y-71430
X165100Y-111125
X167640Y-111125
X170180Y-111125
X172720Y-111125
T4
X142935Y-71120
X146685Y-71120
X182626Y-77216
X182626Y-79756
X182626Y-82296
X182626Y-84836
X187706Y-77216
X187706Y-79756
X187706Y-82296
X187706Y-84836
X142935Y-96734
X146685Y-96734
X142935Y-58420
X146685Y-58420
X142935Y-83820
X146685Y-83820
X182626Y-65786
X182626Y-68326
X182626Y-70866
X182626Y-73406
X187706Y-65786
X187706Y-68326
X187706Y-70866
X187706Y-73406
X182626Y-54356
X182626Y-56896
X182626Y-59436
X182626Y-61976
X187706Y-54356
X187706Y-56896
X187706Y-59436
X187706Y-61976
X142935Y-109220
X146685Y-109220
X161290Y-54610
X161290Y-57150
X163830Y-54610
X163830Y-57150
X166370Y-54610
X166370Y-57150
T5
X105640Y-71120
X111140Y-67620
X111140Y-74620
X105640Y-96520
X111140Y-93020
X111140Y-100020
X184150Y-93345
X184150Y-104775
X105640Y-83820
X111140Y-80320
X111140Y-87320
X184150Y-99060
X105640Y-58420
X111140Y-54920
X111140Y-61920
X105640Y-109220
X111140Y-105720
X111140Y-112720
X184150Y-110490
T6
X121685Y-109220
X126685Y-109220
X131685Y-109220
X121685Y-71120
X126685Y-71120
X131685Y-71120
X121685Y-96734
X126685Y-96734
X131685Y-96734
X121685Y-58420
X126685Y-58420
X131685Y-58420
X121685Y-83820
X126685Y-83820
X131685Y-83820
T0
M30
