G04 #@! TF.GenerationSoftware,KiCad,Pcbnew,5.0.0-fee4fd1~66~ubuntu16.04.1*
G04 #@! TF.CreationDate,2018-09-19T21:32:19+02:00*
G04 #@! TF.ProjectId,switch_3pole_5x,7377697463685F33706F6C655F35782E,1*
G04 #@! TF.SameCoordinates,Original*
G04 #@! TF.FileFunction,Soldermask,Top*
G04 #@! TF.FilePolarity,Negative*
%FSLAX46Y46*%
G04 Gerber Fmt 4.6, Leading zero omitted, Abs format (unit mm)*
G04 Created by KiCad (PCBNEW 5.0.0-fee4fd1~66~ubuntu16.04.1) date Wed Sep 19 21:32:19 2018*
%MOMM*%
%LPD*%
G01*
G04 APERTURE LIST*
%ADD10C,2.000000*%
%ADD11R,2.000000X2.000000*%
%ADD12C,3.400000*%
%ADD13C,2.400000*%
%ADD14R,2.200000X2.200000*%
%ADD15C,2.200000*%
%ADD16O,2.200000X1.400000*%
%ADD17C,2.600000*%
G04 APERTURE END LIST*
D10*
G04 #@! TO.C,U7*
X165100000Y-111125000D03*
X167640000Y-111125000D03*
X170180000Y-111125000D03*
D11*
X172720000Y-111125000D03*
G04 #@! TD*
D12*
G04 #@! TO.C,REL5*
X121685000Y-109220000D03*
X126685000Y-109220000D03*
X131685000Y-109220000D03*
D13*
X142935000Y-109220000D03*
X146685000Y-109220000D03*
G04 #@! TD*
D12*
G04 #@! TO.C,REL1*
X121685000Y-58420000D03*
X126685000Y-58420000D03*
X131685000Y-58420000D03*
D13*
X142935000Y-58420000D03*
X146685000Y-58420000D03*
G04 #@! TD*
D12*
G04 #@! TO.C,REL2*
X121685000Y-71120000D03*
X126685000Y-71120000D03*
X131685000Y-71120000D03*
D13*
X142935000Y-71120000D03*
X146685000Y-71120000D03*
G04 #@! TD*
D12*
G04 #@! TO.C,REL3*
X121685000Y-83820000D03*
X126685000Y-83820000D03*
X131685000Y-83820000D03*
D13*
X142935000Y-83820000D03*
X146685000Y-83820000D03*
G04 #@! TD*
D12*
G04 #@! TO.C,REL4*
X121685000Y-96733542D03*
X126685000Y-96733542D03*
X131685000Y-96733542D03*
D13*
X142935000Y-96733542D03*
X146685000Y-96733542D03*
G04 #@! TD*
D10*
G04 #@! TO.C,D6*
X150280000Y-58730000D03*
X152820000Y-58730000D03*
G04 #@! TD*
G04 #@! TO.C,D7*
X150280000Y-71430000D03*
X152820000Y-71430000D03*
G04 #@! TD*
G04 #@! TO.C,D8*
X150280000Y-84130000D03*
X152820000Y-84130000D03*
G04 #@! TD*
G04 #@! TO.C,D9*
X150280000Y-96830000D03*
X152820000Y-96830000D03*
G04 #@! TD*
G04 #@! TO.C,D10*
X150280000Y-109530000D03*
X152820000Y-109530000D03*
G04 #@! TD*
D13*
G04 #@! TO.C,J16*
X184150000Y-93345000D03*
G04 #@! TD*
G04 #@! TO.C,J13*
X184150000Y-110490000D03*
G04 #@! TD*
G04 #@! TO.C,J14*
X184150000Y-104775000D03*
G04 #@! TD*
G04 #@! TO.C,J15*
X184150000Y-99060000D03*
G04 #@! TD*
D14*
G04 #@! TO.C,J12*
X161290000Y-57150000D03*
D15*
X161290000Y-54610000D03*
X163830000Y-57150000D03*
X163830000Y-54610000D03*
X166370000Y-57150000D03*
X166370000Y-54610000D03*
G04 #@! TD*
D16*
G04 #@! TO.C,J7*
X182626000Y-61976000D03*
X182626000Y-59436000D03*
X182626000Y-56896000D03*
X182626000Y-54356000D03*
X187706000Y-61976000D03*
X187706000Y-59436000D03*
X187706000Y-54356000D03*
X187706000Y-56896000D03*
G04 #@! TD*
G04 #@! TO.C,J8*
X182626000Y-73406000D03*
X182626000Y-70866000D03*
X182626000Y-68326000D03*
X182626000Y-65786000D03*
X187706000Y-73406000D03*
X187706000Y-70866000D03*
X187706000Y-65786000D03*
X187706000Y-68326000D03*
G04 #@! TD*
G04 #@! TO.C,J9*
X182626000Y-84836000D03*
X182626000Y-82296000D03*
X182626000Y-79756000D03*
X182626000Y-77216000D03*
X187706000Y-84836000D03*
X187706000Y-82296000D03*
X187706000Y-77216000D03*
X187706000Y-79756000D03*
G04 #@! TD*
D17*
G04 #@! TO.C,J1*
X105640000Y-58420000D03*
X111140000Y-61920000D03*
X111140000Y-54920000D03*
G04 #@! TD*
G04 #@! TO.C,J2*
X105640000Y-71120000D03*
X111140000Y-74620000D03*
X111140000Y-67620000D03*
G04 #@! TD*
G04 #@! TO.C,J3*
X105640000Y-83820000D03*
X111140000Y-87320000D03*
X111140000Y-80320000D03*
G04 #@! TD*
G04 #@! TO.C,J4*
X105640000Y-96520000D03*
X111140000Y-100020000D03*
X111140000Y-93020000D03*
G04 #@! TD*
G04 #@! TO.C,J5*
X105640000Y-109220000D03*
X111140000Y-112720000D03*
X111140000Y-105720000D03*
G04 #@! TD*
M02*
