G04 #@! TF.GenerationSoftware,KiCad,Pcbnew,5.0.0-fee4fd1~66~ubuntu16.04.1*
G04 #@! TF.CreationDate,2018-09-19T21:09:30+02:00*
G04 #@! TF.ProjectId,switch_3pole_5x,7377697463685F33706F6C655F35782E,1*
G04 #@! TF.SameCoordinates,Original*
G04 #@! TF.FileFunction,Profile,NP*
%FSLAX46Y46*%
G04 Gerber Fmt 4.6, Leading zero omitted, Abs format (unit mm)*
G04 Created by KiCad (PCBNEW 5.0.0-fee4fd1~66~ubuntu16.04.1) date Wed Sep 19 21:09:30 2018*
%MOMM*%
%LPD*%
G01*
G04 APERTURE LIST*
%ADD10C,0.150000*%
G04 APERTURE END LIST*
D10*
X135000000Y-53500000D02*
X135000000Y-62000000D01*
X137000000Y-53500000D02*
G75*
G03X135000000Y-53500000I-1000000J0D01*
G01*
X135000000Y-62000000D02*
G75*
G03X137000000Y-62000000I1000000J0D01*
G01*
X137000000Y-62000000D02*
X137000000Y-53500000D01*
X135000000Y-66500000D02*
X135000000Y-75000000D01*
X137000000Y-66500000D02*
G75*
G03X135000000Y-66500000I-1000000J0D01*
G01*
X135000000Y-75000000D02*
G75*
G03X137000000Y-75000000I1000000J0D01*
G01*
X137000000Y-75000000D02*
X137000000Y-66500000D01*
X135000000Y-79500000D02*
X135000000Y-88000000D01*
X137000000Y-79500000D02*
G75*
G03X135000000Y-79500000I-1000000J0D01*
G01*
X135000000Y-88000000D02*
G75*
G03X137000000Y-88000000I1000000J0D01*
G01*
X137000000Y-88000000D02*
X137000000Y-79500000D01*
X135000000Y-101000000D02*
G75*
G03X137000000Y-101000000I1000000J0D01*
G01*
X135000000Y-92500000D02*
X135000000Y-101000000D01*
X137000000Y-92500000D02*
G75*
G03X135000000Y-92500000I-1000000J0D01*
G01*
X137000000Y-101000000D02*
X137000000Y-92500000D01*
X137000000Y-105500000D02*
G75*
G03X135000000Y-105500000I-1000000J0D01*
G01*
X135000000Y-114000000D02*
G75*
G03X137000000Y-114000000I1000000J0D01*
G01*
X137000000Y-114000000D02*
X137000000Y-105500000D01*
X135000000Y-105500000D02*
X135000000Y-114000000D01*
X100000000Y-117000000D02*
X100000000Y-50000000D01*
X193000000Y-117000000D02*
X100000000Y-117000000D01*
X193000000Y-50000000D02*
X193000000Y-117000000D01*
X100000000Y-50000000D02*
X193000000Y-50000000D01*
M02*
