G04 #@! TF.GenerationSoftware,KiCad,Pcbnew,5.0.0-fee4fd1~66~ubuntu16.04.1*
G04 #@! TF.CreationDate,2018-09-19T21:32:19+02:00*
G04 #@! TF.ProjectId,switch_3pole_5x,7377697463685F33706F6C655F35782E,1*
G04 #@! TF.SameCoordinates,Original*
G04 #@! TF.FileFunction,Other,Comment*
%FSLAX46Y46*%
G04 Gerber Fmt 4.6, Leading zero omitted, Abs format (unit mm)*
G04 Created by KiCad (PCBNEW 5.0.0-fee4fd1~66~ubuntu16.04.1) date Wed Sep 19 21:32:19 2018*
%MOMM*%
%LPD*%
G01*
G04 APERTURE LIST*
%ADD10C,0.300000*%
%ADD11C,0.200000*%
G04 APERTURE END LIST*
D10*
X182048571Y-92917857D02*
X182048571Y-92060714D01*
X183548571Y-92489285D02*
X182048571Y-92489285D01*
X182048571Y-91275000D02*
X182048571Y-90989285D01*
X182120000Y-90846428D01*
X182262857Y-90703571D01*
X182548571Y-90632142D01*
X183048571Y-90632142D01*
X183334285Y-90703571D01*
X183477142Y-90846428D01*
X183548571Y-90989285D01*
X183548571Y-91275000D01*
X183477142Y-91417857D01*
X183334285Y-91560714D01*
X183048571Y-91632142D01*
X182548571Y-91632142D01*
X182262857Y-91560714D01*
X182120000Y-91417857D01*
X182048571Y-91275000D01*
X183548571Y-89989285D02*
X182048571Y-89989285D01*
X182048571Y-89632142D01*
X182120000Y-89417857D01*
X182262857Y-89275000D01*
X182405714Y-89203571D01*
X182691428Y-89132142D01*
X182905714Y-89132142D01*
X183191428Y-89203571D01*
X183334285Y-89275000D01*
X183477142Y-89417857D01*
X183548571Y-89632142D01*
X183548571Y-89989285D01*
X182048571Y-88203571D02*
X182048571Y-87917857D01*
X182120000Y-87775000D01*
X182262857Y-87632142D01*
X182548571Y-87560714D01*
X183048571Y-87560714D01*
X183334285Y-87632142D01*
X183477142Y-87775000D01*
X183548571Y-87917857D01*
X183548571Y-88203571D01*
X183477142Y-88346428D01*
X183334285Y-88489285D01*
X183048571Y-88560714D01*
X182548571Y-88560714D01*
X182262857Y-88489285D01*
X182120000Y-88346428D01*
X182048571Y-88203571D01*
X183477142Y-85132142D02*
X183548571Y-85275000D01*
X183548571Y-85560714D01*
X183477142Y-85703571D01*
X183405714Y-85775000D01*
X183262857Y-85846428D01*
X182834285Y-85846428D01*
X182691428Y-85775000D01*
X182620000Y-85703571D01*
X182548571Y-85560714D01*
X182548571Y-85275000D01*
X182620000Y-85132142D01*
X183548571Y-84489285D02*
X182048571Y-84489285D01*
X183548571Y-83846428D02*
X182762857Y-83846428D01*
X182620000Y-83917857D01*
X182548571Y-84060714D01*
X182548571Y-84275000D01*
X182620000Y-84417857D01*
X182691428Y-84489285D01*
X183477142Y-82560714D02*
X183548571Y-82703571D01*
X183548571Y-82989285D01*
X183477142Y-83132142D01*
X183334285Y-83203571D01*
X182762857Y-83203571D01*
X182620000Y-83132142D01*
X182548571Y-82989285D01*
X182548571Y-82703571D01*
X182620000Y-82560714D01*
X182762857Y-82489285D01*
X182905714Y-82489285D01*
X183048571Y-83203571D01*
X183477142Y-81203571D02*
X183548571Y-81346428D01*
X183548571Y-81632142D01*
X183477142Y-81775000D01*
X183405714Y-81846428D01*
X183262857Y-81917857D01*
X182834285Y-81917857D01*
X182691428Y-81846428D01*
X182620000Y-81775000D01*
X182548571Y-81632142D01*
X182548571Y-81346428D01*
X182620000Y-81203571D01*
X183548571Y-80560714D02*
X182048571Y-80560714D01*
X182977142Y-80417857D02*
X183548571Y-79989285D01*
X182548571Y-79989285D02*
X183120000Y-80560714D01*
X182548571Y-78203571D02*
X184048571Y-78203571D01*
X182620000Y-78203571D02*
X182548571Y-78060714D01*
X182548571Y-77775000D01*
X182620000Y-77632142D01*
X182691428Y-77560714D01*
X182834285Y-77489285D01*
X183262857Y-77489285D01*
X183405714Y-77560714D01*
X183477142Y-77632142D01*
X183548571Y-77775000D01*
X183548571Y-78060714D01*
X183477142Y-78203571D01*
X183548571Y-76846428D02*
X182548571Y-76846428D01*
X182048571Y-76846428D02*
X182120000Y-76917857D01*
X182191428Y-76846428D01*
X182120000Y-76775000D01*
X182048571Y-76846428D01*
X182191428Y-76846428D01*
X182548571Y-76132142D02*
X183548571Y-76132142D01*
X182691428Y-76132142D02*
X182620000Y-76060714D01*
X182548571Y-75917857D01*
X182548571Y-75703571D01*
X182620000Y-75560714D01*
X182762857Y-75489285D01*
X183548571Y-75489285D01*
X183548571Y-74560714D02*
X183477142Y-74703571D01*
X183405714Y-74775000D01*
X183262857Y-74846428D01*
X182834285Y-74846428D01*
X182691428Y-74775000D01*
X182620000Y-74703571D01*
X182548571Y-74560714D01*
X182548571Y-74346428D01*
X182620000Y-74203571D01*
X182691428Y-74132142D01*
X182834285Y-74060714D01*
X183262857Y-74060714D01*
X183405714Y-74132142D01*
X183477142Y-74203571D01*
X183548571Y-74346428D01*
X183548571Y-74560714D01*
X182548571Y-72775000D02*
X183548571Y-72775000D01*
X182548571Y-73417857D02*
X183334285Y-73417857D01*
X183477142Y-73346428D01*
X183548571Y-73203571D01*
X183548571Y-72989285D01*
X183477142Y-72846428D01*
X183405714Y-72775000D01*
X182548571Y-72275000D02*
X182548571Y-71703571D01*
X182048571Y-72060714D02*
X183334285Y-72060714D01*
X183477142Y-71989285D01*
X183548571Y-71846428D01*
X183548571Y-71703571D01*
X183477142Y-71132142D02*
X183548571Y-71132142D01*
X183691428Y-71203571D01*
X183762857Y-71275000D01*
X183548571Y-69346428D02*
X182548571Y-69346428D01*
X182691428Y-69346428D02*
X182620000Y-69275000D01*
X182548571Y-69132142D01*
X182548571Y-68917857D01*
X182620000Y-68775000D01*
X182762857Y-68703571D01*
X183548571Y-68703571D01*
X182762857Y-68703571D02*
X182620000Y-68632142D01*
X182548571Y-68489285D01*
X182548571Y-68275000D01*
X182620000Y-68132142D01*
X182762857Y-68060714D01*
X183548571Y-68060714D01*
X183548571Y-66703571D02*
X182762857Y-66703571D01*
X182620000Y-66775000D01*
X182548571Y-66917857D01*
X182548571Y-67203571D01*
X182620000Y-67346428D01*
X183477142Y-66703571D02*
X183548571Y-66846428D01*
X183548571Y-67203571D01*
X183477142Y-67346428D01*
X183334285Y-67417857D01*
X183191428Y-67417857D01*
X183048571Y-67346428D01*
X182977142Y-67203571D01*
X182977142Y-66846428D01*
X182905714Y-66703571D01*
X183548571Y-65989285D02*
X182048571Y-65989285D01*
X182977142Y-65846428D02*
X183548571Y-65417857D01*
X182548571Y-65417857D02*
X183120000Y-65989285D01*
X183477142Y-64203571D02*
X183548571Y-64346428D01*
X183548571Y-64632142D01*
X183477142Y-64775000D01*
X183334285Y-64846428D01*
X182762857Y-64846428D01*
X182620000Y-64775000D01*
X182548571Y-64632142D01*
X182548571Y-64346428D01*
X182620000Y-64203571D01*
X182762857Y-64132142D01*
X182905714Y-64132142D01*
X183048571Y-64846428D01*
X183548571Y-62346428D02*
X182548571Y-62346428D01*
X182048571Y-62346428D02*
X182120000Y-62417857D01*
X182191428Y-62346428D01*
X182120000Y-62275000D01*
X182048571Y-62346428D01*
X182191428Y-62346428D01*
X182548571Y-61846428D02*
X182548571Y-61275000D01*
X182048571Y-61632142D02*
X183334285Y-61632142D01*
X183477142Y-61560714D01*
X183548571Y-61417857D01*
X183548571Y-61275000D01*
X183477142Y-59703571D02*
X183548571Y-59560714D01*
X183548571Y-59275000D01*
X183477142Y-59132142D01*
X183334285Y-59060714D01*
X183262857Y-59060714D01*
X183120000Y-59132142D01*
X183048571Y-59275000D01*
X183048571Y-59489285D01*
X182977142Y-59632142D01*
X182834285Y-59703571D01*
X182762857Y-59703571D01*
X182620000Y-59632142D01*
X182548571Y-59489285D01*
X182548571Y-59275000D01*
X182620000Y-59132142D01*
X183548571Y-57775000D02*
X182762857Y-57775000D01*
X182620000Y-57846428D01*
X182548571Y-57989285D01*
X182548571Y-58275000D01*
X182620000Y-58417857D01*
X183477142Y-57775000D02*
X183548571Y-57917857D01*
X183548571Y-58275000D01*
X183477142Y-58417857D01*
X183334285Y-58489285D01*
X183191428Y-58489285D01*
X183048571Y-58417857D01*
X182977142Y-58275000D01*
X182977142Y-57917857D01*
X182905714Y-57775000D01*
X183548571Y-57060714D02*
X182548571Y-57060714D01*
X182691428Y-57060714D02*
X182620000Y-56989285D01*
X182548571Y-56846428D01*
X182548571Y-56632142D01*
X182620000Y-56489285D01*
X182762857Y-56417857D01*
X183548571Y-56417857D01*
X182762857Y-56417857D02*
X182620000Y-56346428D01*
X182548571Y-56203571D01*
X182548571Y-55989285D01*
X182620000Y-55846428D01*
X182762857Y-55775000D01*
X183548571Y-55775000D01*
X183477142Y-54489285D02*
X183548571Y-54632142D01*
X183548571Y-54917857D01*
X183477142Y-55060714D01*
X183334285Y-55132142D01*
X182762857Y-55132142D01*
X182620000Y-55060714D01*
X182548571Y-54917857D01*
X182548571Y-54632142D01*
X182620000Y-54489285D01*
X182762857Y-54417857D01*
X182905714Y-54417857D01*
X183048571Y-55132142D01*
X185098571Y-86489285D02*
X186098571Y-86203571D01*
X185384285Y-85917857D01*
X186098571Y-85632142D01*
X185098571Y-85346428D01*
X186098571Y-84775000D02*
X185098571Y-84775000D01*
X184598571Y-84775000D02*
X184670000Y-84846428D01*
X184741428Y-84775000D01*
X184670000Y-84703571D01*
X184598571Y-84775000D01*
X184741428Y-84775000D01*
X185098571Y-84275000D02*
X185098571Y-83703571D01*
X184598571Y-84060714D02*
X185884285Y-84060714D01*
X186027142Y-83989285D01*
X186098571Y-83846428D01*
X186098571Y-83703571D01*
X186098571Y-83203571D02*
X184598571Y-83203571D01*
X186098571Y-82560714D02*
X185312857Y-82560714D01*
X185170000Y-82632142D01*
X185098571Y-82775000D01*
X185098571Y-82989285D01*
X185170000Y-83132142D01*
X185241428Y-83203571D01*
X186098571Y-80703571D02*
X185098571Y-80703571D01*
X184598571Y-80703571D02*
X184670000Y-80775000D01*
X184741428Y-80703571D01*
X184670000Y-80632142D01*
X184598571Y-80703571D01*
X184741428Y-80703571D01*
X186098571Y-79989285D02*
X184598571Y-79989285D01*
X185170000Y-79989285D02*
X185098571Y-79846428D01*
X185098571Y-79560714D01*
X185170000Y-79417857D01*
X185241428Y-79346428D01*
X185384285Y-79275000D01*
X185812857Y-79275000D01*
X185955714Y-79346428D01*
X186027142Y-79417857D01*
X186098571Y-79560714D01*
X186098571Y-79846428D01*
X186027142Y-79989285D01*
X186098571Y-77989285D02*
X185312857Y-77989285D01*
X185170000Y-78060714D01*
X185098571Y-78203571D01*
X185098571Y-78489285D01*
X185170000Y-78632142D01*
X186027142Y-77989285D02*
X186098571Y-78132142D01*
X186098571Y-78489285D01*
X186027142Y-78632142D01*
X185884285Y-78703571D01*
X185741428Y-78703571D01*
X185598571Y-78632142D01*
X185527142Y-78489285D01*
X185527142Y-78132142D01*
X185455714Y-77989285D01*
X186027142Y-77346428D02*
X186098571Y-77203571D01*
X186098571Y-76917857D01*
X186027142Y-76775000D01*
X185884285Y-76703571D01*
X185812857Y-76703571D01*
X185670000Y-76775000D01*
X185598571Y-76917857D01*
X185598571Y-77132142D01*
X185527142Y-77275000D01*
X185384285Y-77346428D01*
X185312857Y-77346428D01*
X185170000Y-77275000D01*
X185098571Y-77132142D01*
X185098571Y-76917857D01*
X185170000Y-76775000D01*
X186027142Y-75489285D02*
X186098571Y-75632142D01*
X186098571Y-75917857D01*
X186027142Y-76060714D01*
X185884285Y-76132142D01*
X185312857Y-76132142D01*
X185170000Y-76060714D01*
X185098571Y-75917857D01*
X185098571Y-75632142D01*
X185170000Y-75489285D01*
X185312857Y-75417857D01*
X185455714Y-75417857D01*
X185598571Y-76132142D01*
X184741428Y-74846428D02*
X184670000Y-74775000D01*
X184598571Y-74632142D01*
X184598571Y-74275000D01*
X184670000Y-74132142D01*
X184741428Y-74060714D01*
X184884285Y-73989285D01*
X185027142Y-73989285D01*
X185241428Y-74060714D01*
X186098571Y-74917857D01*
X186098571Y-73989285D01*
X186098571Y-72203571D02*
X185098571Y-72203571D01*
X184598571Y-72203571D02*
X184670000Y-72275000D01*
X184741428Y-72203571D01*
X184670000Y-72132142D01*
X184598571Y-72203571D01*
X184741428Y-72203571D01*
X185098571Y-71489285D02*
X186098571Y-71489285D01*
X185241428Y-71489285D02*
X185170000Y-71417857D01*
X185098571Y-71275000D01*
X185098571Y-71060714D01*
X185170000Y-70917857D01*
X185312857Y-70846428D01*
X186098571Y-70846428D01*
X185098571Y-70132142D02*
X186598571Y-70132142D01*
X185170000Y-70132142D02*
X185098571Y-69989285D01*
X185098571Y-69703571D01*
X185170000Y-69560714D01*
X185241428Y-69489285D01*
X185384285Y-69417857D01*
X185812857Y-69417857D01*
X185955714Y-69489285D01*
X186027142Y-69560714D01*
X186098571Y-69703571D01*
X186098571Y-69989285D01*
X186027142Y-70132142D01*
X185098571Y-68132142D02*
X186098571Y-68132142D01*
X185098571Y-68775000D02*
X185884285Y-68775000D01*
X186027142Y-68703571D01*
X186098571Y-68560714D01*
X186098571Y-68346428D01*
X186027142Y-68203571D01*
X185955714Y-68132142D01*
X185098571Y-67632142D02*
X185098571Y-67060714D01*
X184598571Y-67417857D02*
X185884285Y-67417857D01*
X186027142Y-67346428D01*
X186098571Y-67203571D01*
X186098571Y-67060714D01*
X186027142Y-66632142D02*
X186098571Y-66489285D01*
X186098571Y-66203571D01*
X186027142Y-66060714D01*
X185884285Y-65989285D01*
X185812857Y-65989285D01*
X185670000Y-66060714D01*
X185598571Y-66203571D01*
X185598571Y-66417857D01*
X185527142Y-66560714D01*
X185384285Y-66632142D01*
X185312857Y-66632142D01*
X185170000Y-66560714D01*
X185098571Y-66417857D01*
X185098571Y-66203571D01*
X185170000Y-66060714D01*
X186098571Y-63560714D02*
X185312857Y-63560714D01*
X185170000Y-63632142D01*
X185098571Y-63775000D01*
X185098571Y-64060714D01*
X185170000Y-64203571D01*
X186027142Y-63560714D02*
X186098571Y-63703571D01*
X186098571Y-64060714D01*
X186027142Y-64203571D01*
X185884285Y-64275000D01*
X185741428Y-64275000D01*
X185598571Y-64203571D01*
X185527142Y-64060714D01*
X185527142Y-63703571D01*
X185455714Y-63560714D01*
X185098571Y-62846428D02*
X186098571Y-62846428D01*
X185241428Y-62846428D02*
X185170000Y-62775000D01*
X185098571Y-62632142D01*
X185098571Y-62417857D01*
X185170000Y-62275000D01*
X185312857Y-62203571D01*
X186098571Y-62203571D01*
X186098571Y-60846428D02*
X184598571Y-60846428D01*
X186027142Y-60846428D02*
X186098571Y-60989285D01*
X186098571Y-61275000D01*
X186027142Y-61417857D01*
X185955714Y-61489285D01*
X185812857Y-61560714D01*
X185384285Y-61560714D01*
X185241428Y-61489285D01*
X185170000Y-61417857D01*
X185098571Y-61275000D01*
X185098571Y-60989285D01*
X185170000Y-60846428D01*
X188648571Y-88025000D02*
X187648571Y-88025000D01*
X187791428Y-88025000D02*
X187720000Y-87953571D01*
X187648571Y-87810714D01*
X187648571Y-87596428D01*
X187720000Y-87453571D01*
X187862857Y-87382142D01*
X188648571Y-87382142D01*
X187862857Y-87382142D02*
X187720000Y-87310714D01*
X187648571Y-87167857D01*
X187648571Y-86953571D01*
X187720000Y-86810714D01*
X187862857Y-86739285D01*
X188648571Y-86739285D01*
X188648571Y-85810714D02*
X188577142Y-85953571D01*
X188505714Y-86025000D01*
X188362857Y-86096428D01*
X187934285Y-86096428D01*
X187791428Y-86025000D01*
X187720000Y-85953571D01*
X187648571Y-85810714D01*
X187648571Y-85596428D01*
X187720000Y-85453571D01*
X187791428Y-85382142D01*
X187934285Y-85310714D01*
X188362857Y-85310714D01*
X188505714Y-85382142D01*
X188577142Y-85453571D01*
X188648571Y-85596428D01*
X188648571Y-85810714D01*
X187648571Y-84882142D02*
X187648571Y-84310714D01*
X187148571Y-84667857D02*
X188434285Y-84667857D01*
X188577142Y-84596428D01*
X188648571Y-84453571D01*
X188648571Y-84310714D01*
X188648571Y-83596428D02*
X188577142Y-83739285D01*
X188505714Y-83810714D01*
X188362857Y-83882142D01*
X187934285Y-83882142D01*
X187791428Y-83810714D01*
X187720000Y-83739285D01*
X187648571Y-83596428D01*
X187648571Y-83382142D01*
X187720000Y-83239285D01*
X187791428Y-83167857D01*
X187934285Y-83096428D01*
X188362857Y-83096428D01*
X188505714Y-83167857D01*
X188577142Y-83239285D01*
X188648571Y-83382142D01*
X188648571Y-83596428D01*
X188648571Y-82453571D02*
X187648571Y-82453571D01*
X187934285Y-82453571D02*
X187791428Y-82382142D01*
X187720000Y-82310714D01*
X187648571Y-82167857D01*
X187648571Y-82025000D01*
X188577142Y-80453571D02*
X188648571Y-80310714D01*
X188648571Y-80025000D01*
X188577142Y-79882142D01*
X188434285Y-79810714D01*
X188362857Y-79810714D01*
X188220000Y-79882142D01*
X188148571Y-80025000D01*
X188148571Y-80239285D01*
X188077142Y-80382142D01*
X187934285Y-80453571D01*
X187862857Y-80453571D01*
X187720000Y-80382142D01*
X187648571Y-80239285D01*
X187648571Y-80025000D01*
X187720000Y-79882142D01*
X187648571Y-79310714D02*
X188648571Y-79025000D01*
X187934285Y-78739285D01*
X188648571Y-78453571D01*
X187648571Y-78167857D01*
X188648571Y-77596428D02*
X187648571Y-77596428D01*
X187148571Y-77596428D02*
X187220000Y-77667857D01*
X187291428Y-77596428D01*
X187220000Y-77525000D01*
X187148571Y-77596428D01*
X187291428Y-77596428D01*
X187648571Y-77096428D02*
X187648571Y-76525000D01*
X187148571Y-76882142D02*
X188434285Y-76882142D01*
X188577142Y-76810714D01*
X188648571Y-76667857D01*
X188648571Y-76525000D01*
X188577142Y-75382142D02*
X188648571Y-75525000D01*
X188648571Y-75810714D01*
X188577142Y-75953571D01*
X188505714Y-76025000D01*
X188362857Y-76096428D01*
X187934285Y-76096428D01*
X187791428Y-76025000D01*
X187720000Y-75953571D01*
X187648571Y-75810714D01*
X187648571Y-75525000D01*
X187720000Y-75382142D01*
X188648571Y-74739285D02*
X187148571Y-74739285D01*
X188648571Y-74096428D02*
X187862857Y-74096428D01*
X187720000Y-74167857D01*
X187648571Y-74310714D01*
X187648571Y-74525000D01*
X187720000Y-74667857D01*
X187791428Y-74739285D01*
X187148571Y-72382142D02*
X187148571Y-71453571D01*
X187720000Y-71953571D01*
X187720000Y-71739285D01*
X187791428Y-71596428D01*
X187862857Y-71525000D01*
X188005714Y-71453571D01*
X188362857Y-71453571D01*
X188505714Y-71525000D01*
X188577142Y-71596428D01*
X188648571Y-71739285D01*
X188648571Y-72167857D01*
X188577142Y-72310714D01*
X188505714Y-72382142D01*
X187648571Y-70810714D02*
X189148571Y-70810714D01*
X187720000Y-70810714D02*
X187648571Y-70667857D01*
X187648571Y-70382142D01*
X187720000Y-70239285D01*
X187791428Y-70167857D01*
X187934285Y-70096428D01*
X188362857Y-70096428D01*
X188505714Y-70167857D01*
X188577142Y-70239285D01*
X188648571Y-70382142D01*
X188648571Y-70667857D01*
X188577142Y-70810714D01*
X188648571Y-69239285D02*
X188577142Y-69382142D01*
X188505714Y-69453571D01*
X188362857Y-69525000D01*
X187934285Y-69525000D01*
X187791428Y-69453571D01*
X187720000Y-69382142D01*
X187648571Y-69239285D01*
X187648571Y-69025000D01*
X187720000Y-68882142D01*
X187791428Y-68810714D01*
X187934285Y-68739285D01*
X188362857Y-68739285D01*
X188505714Y-68810714D01*
X188577142Y-68882142D01*
X188648571Y-69025000D01*
X188648571Y-69239285D01*
X188648571Y-67882142D02*
X188577142Y-68025000D01*
X188434285Y-68096428D01*
X187148571Y-68096428D01*
X188577142Y-66739285D02*
X188648571Y-66882142D01*
X188648571Y-67167857D01*
X188577142Y-67310714D01*
X188434285Y-67382142D01*
X187862857Y-67382142D01*
X187720000Y-67310714D01*
X187648571Y-67167857D01*
X187648571Y-66882142D01*
X187720000Y-66739285D01*
X187862857Y-66667857D01*
X188005714Y-66667857D01*
X188148571Y-67382142D01*
X188648571Y-64882142D02*
X187648571Y-64882142D01*
X187148571Y-64882142D02*
X187220000Y-64953571D01*
X187291428Y-64882142D01*
X187220000Y-64810714D01*
X187148571Y-64882142D01*
X187291428Y-64882142D01*
X187648571Y-64167857D02*
X188648571Y-64167857D01*
X187791428Y-64167857D02*
X187720000Y-64096428D01*
X187648571Y-63953571D01*
X187648571Y-63739285D01*
X187720000Y-63596428D01*
X187862857Y-63525000D01*
X188648571Y-63525000D01*
X187648571Y-62810714D02*
X189148571Y-62810714D01*
X187720000Y-62810714D02*
X187648571Y-62667857D01*
X187648571Y-62382142D01*
X187720000Y-62239285D01*
X187791428Y-62167857D01*
X187934285Y-62096428D01*
X188362857Y-62096428D01*
X188505714Y-62167857D01*
X188577142Y-62239285D01*
X188648571Y-62382142D01*
X188648571Y-62667857D01*
X188577142Y-62810714D01*
X187648571Y-60810714D02*
X188648571Y-60810714D01*
X187648571Y-61453571D02*
X188434285Y-61453571D01*
X188577142Y-61382142D01*
X188648571Y-61239285D01*
X188648571Y-61025000D01*
X188577142Y-60882142D01*
X188505714Y-60810714D01*
X187648571Y-60310714D02*
X187648571Y-59739285D01*
X187148571Y-60096428D02*
X188434285Y-60096428D01*
X188577142Y-60025000D01*
X188648571Y-59882142D01*
X188648571Y-59739285D01*
X188577142Y-59310714D02*
X188648571Y-59167857D01*
X188648571Y-58882142D01*
X188577142Y-58739285D01*
X188434285Y-58667857D01*
X188362857Y-58667857D01*
X188220000Y-58739285D01*
X188148571Y-58882142D01*
X188148571Y-59096428D01*
X188077142Y-59239285D01*
X187934285Y-59310714D01*
X187862857Y-59310714D01*
X187720000Y-59239285D01*
X187648571Y-59096428D01*
X187648571Y-58882142D01*
X187720000Y-58739285D01*
X188505714Y-58025000D02*
X188577142Y-57953571D01*
X188648571Y-58025000D01*
X188577142Y-58096428D01*
X188505714Y-58025000D01*
X188648571Y-58025000D01*
X188077142Y-58025000D02*
X187220000Y-58096428D01*
X187148571Y-58025000D01*
X187220000Y-57953571D01*
X188077142Y-58025000D01*
X187148571Y-58025000D01*
D11*
X180000000Y-117000000D02*
X180000000Y-50000000D01*
X178000000Y-50000000D02*
X178000000Y-117000000D01*
X113000000Y-117000000D02*
X113000000Y-50000000D01*
X115000000Y-50000000D02*
X115000000Y-117000000D01*
M02*
