G04 #@! TF.GenerationSoftware,KiCad,Pcbnew,6.0.11-2627ca5db0~126~ubuntu22.04.1*
G04 #@! TF.CreationDate,2023-12-06T10:13:38+01:00*
G04 #@! TF.ProjectId,pushbutton8,70757368-6275-4747-946f-6e382e6b6963,3*
G04 #@! TF.SameCoordinates,PX6657f38PY8eeaea0*
G04 #@! TF.FileFunction,AssemblyDrawing,Top*
%FSLAX46Y46*%
G04 Gerber Fmt 4.6, Leading zero omitted, Abs format (unit mm)*
G04 Created by KiCad (PCBNEW 6.0.11-2627ca5db0~126~ubuntu22.04.1) date 2023-12-06 10:13:38*
%MOMM*%
%LPD*%
G01*
G04 APERTURE LIST*
%ADD10C,0.100000*%
G04 APERTURE END LIST*
D10*
X13980000Y25362500D02*
X15230000Y25362500D01*
X15230000Y25362500D02*
X15230000Y23362500D01*
X13980000Y23362500D02*
X13980000Y25362500D01*
X15230000Y23362500D02*
X13980000Y23362500D01*
X14335000Y34300000D02*
X12335000Y34300000D01*
X12335000Y34300000D02*
X12335000Y35550000D01*
X14335000Y35550000D02*
X14335000Y34300000D01*
X12335000Y35550000D02*
X14335000Y35550000D01*
X9890000Y41875000D02*
X7890000Y41875000D01*
X7890000Y41875000D02*
X7890000Y40675000D01*
X9890000Y40975000D02*
X9890000Y41875000D01*
X9590000Y40675000D02*
X9890000Y40975000D01*
X7890000Y40675000D02*
X9590000Y40675000D01*
X9590000Y27975000D02*
X9890000Y28275000D01*
X7890000Y29175000D02*
X7890000Y27975000D01*
X7890000Y27975000D02*
X9590000Y27975000D01*
X9890000Y29175000D02*
X7890000Y29175000D01*
X9890000Y28275000D02*
X9890000Y29175000D01*
X9890000Y16475000D02*
X7890000Y16475000D01*
X9890000Y15575000D02*
X9890000Y16475000D01*
X9590000Y15275000D02*
X9890000Y15575000D01*
X7890000Y15275000D02*
X9590000Y15275000D01*
X7890000Y16475000D02*
X7890000Y15275000D01*
X9890000Y3775000D02*
X7890000Y3775000D01*
X7890000Y2575000D02*
X9590000Y2575000D01*
X7890000Y3775000D02*
X7890000Y2575000D01*
X9890000Y2875000D02*
X9890000Y3775000D01*
X9590000Y2575000D02*
X9890000Y2875000D01*
X30115000Y40675000D02*
X32115000Y40675000D01*
X32115000Y40675000D02*
X32115000Y41875000D01*
X30115000Y41575000D02*
X30115000Y40675000D01*
X30415000Y41875000D02*
X30115000Y41575000D01*
X32115000Y41875000D02*
X30415000Y41875000D01*
X32115000Y29175000D02*
X30415000Y29175000D01*
X30115000Y27975000D02*
X32115000Y27975000D01*
X30415000Y29175000D02*
X30115000Y28875000D01*
X30115000Y28875000D02*
X30115000Y27975000D01*
X32115000Y27975000D02*
X32115000Y29175000D01*
X30415000Y16475000D02*
X30115000Y16175000D01*
X32115000Y16475000D02*
X30415000Y16475000D01*
X32115000Y15275000D02*
X32115000Y16475000D01*
X30115000Y16175000D02*
X30115000Y15275000D01*
X30115000Y15275000D02*
X32115000Y15275000D01*
X31815000Y2575000D02*
X32115000Y2875000D01*
X32115000Y2875000D02*
X32115000Y3775000D01*
X32115000Y3775000D02*
X30115000Y3775000D01*
X30115000Y2575000D02*
X31815000Y2575000D01*
X30115000Y3775000D02*
X30115000Y2575000D01*
X8880000Y38465000D02*
X8880000Y36465000D01*
X7630000Y36465000D02*
X7630000Y38465000D01*
X8880000Y36465000D02*
X7630000Y36465000D01*
X7630000Y38465000D02*
X8880000Y38465000D01*
X8880000Y33385000D02*
X8880000Y31385000D01*
X8880000Y31385000D02*
X7630000Y31385000D01*
X7630000Y31385000D02*
X7630000Y33385000D01*
X7630000Y33385000D02*
X8880000Y33385000D01*
X7890000Y19040000D02*
X9890000Y19040000D01*
X9890000Y17790000D02*
X7890000Y17790000D01*
X7890000Y17790000D02*
X7890000Y19040000D01*
X9890000Y19040000D02*
X9890000Y17790000D01*
X7890000Y1260000D02*
X9890000Y1260000D01*
X9890000Y1260000D02*
X9890000Y10000D01*
X7890000Y10000D02*
X7890000Y1260000D01*
X9890000Y10000D02*
X7890000Y10000D01*
X32375000Y38465000D02*
X32375000Y36465000D01*
X31125000Y36465000D02*
X31125000Y38465000D01*
X31125000Y38465000D02*
X32375000Y38465000D01*
X32375000Y36465000D02*
X31125000Y36465000D01*
X30115000Y30490000D02*
X30115000Y31740000D01*
X32115000Y31740000D02*
X32115000Y30490000D01*
X30115000Y31740000D02*
X32115000Y31740000D01*
X32115000Y30490000D02*
X30115000Y30490000D01*
X30115000Y17790000D02*
X30115000Y19040000D01*
X30115000Y19040000D02*
X32115000Y19040000D01*
X32115000Y17790000D02*
X30115000Y17790000D01*
X32115000Y19040000D02*
X32115000Y17790000D01*
X30115000Y10000D02*
X30115000Y1260000D01*
X32115000Y1260000D02*
X32115000Y10000D01*
X32115000Y10000D02*
X30115000Y10000D01*
X30115000Y1260000D02*
X32115000Y1260000D01*
X15230000Y29575000D02*
X15230000Y27575000D01*
X13980000Y29575000D02*
X15230000Y29575000D01*
X13980000Y27575000D02*
X13980000Y29575000D01*
X15230000Y27575000D02*
X13980000Y27575000D01*
M02*
