G04 #@! TF.GenerationSoftware,KiCad,Pcbnew,6.0.11-2627ca5db0~126~ubuntu22.04.1*
G04 #@! TF.CreationDate,2023-12-06T10:13:38+01:00*
G04 #@! TF.ProjectId,pushbutton8,70757368-6275-4747-946f-6e382e6b6963,3*
G04 #@! TF.SameCoordinates,PX6657f38PY8eeaea0*
G04 #@! TF.FileFunction,Profile,NP*
%FSLAX46Y46*%
G04 Gerber Fmt 4.6, Leading zero omitted, Abs format (unit mm)*
G04 Created by KiCad (PCBNEW 6.0.11-2627ca5db0~126~ubuntu22.04.1) date 2023-12-06 10:13:38*
%MOMM*%
%LPD*%
G01*
G04 APERTURE LIST*
G04 #@! TA.AperFunction,Profile*
%ADD10C,0.150000*%
G04 #@! TD*
G04 APERTURE END LIST*
D10*
X-7815000Y-8640000D02*
X-7815000Y2860000D01*
X685000Y56360000D02*
X685000Y53360000D01*
X39685000Y-8640000D02*
X39685000Y-11640000D01*
X48178357Y17316203D02*
G75*
G03*
X48185000Y27360000I-28012157J5040427D01*
G01*
X51108025Y28084342D02*
X51184999Y27860000D01*
X-10795108Y16613492D02*
X-10872082Y16837834D01*
X39685000Y53360000D02*
X39685000Y56360000D01*
X48178356Y17316203D02*
G75*
G03*
X51184998Y16860000I1506644J-206203D01*
G01*
X48185000Y27610000D02*
X48185000Y27360000D01*
X15141197Y-5649278D02*
G75*
G03*
X14685000Y-8655876I-206197J-1506622D01*
G01*
X25206467Y50352162D02*
G75*
G03*
X15162834Y50360001I-5043667J-27992562D01*
G01*
X-13815000Y2860000D02*
X-7815000Y2860000D01*
X25909342Y-8578903D02*
X25685000Y-8655877D01*
X14438492Y53283026D02*
X14662834Y53360000D01*
X25435000Y-5655878D02*
X25185000Y-5655878D01*
X15141201Y-5649246D02*
G75*
G03*
X25185000Y-5655878I5040399J28011746D01*
G01*
X-7815000Y53360000D02*
X-7815000Y41860000D01*
X-10872080Y27837834D02*
G75*
G03*
X-10872082Y16837834I31000060J-5500004D01*
G01*
X-10795149Y16613478D02*
G75*
G03*
X-7872083Y17087834I1423049J474322D01*
G01*
X-7865463Y27381634D02*
G75*
G03*
X-10872081Y27837834I-1506637J206166D01*
G01*
X685000Y-11640000D02*
X685000Y-8640000D01*
X14438489Y53283034D02*
G75*
G03*
X14912834Y50360001I474311J-1423034D01*
G01*
X-7815000Y-8640000D02*
X685000Y-8640000D01*
X51184999Y16860000D02*
G75*
G03*
X51184999Y27860000I-30999999J5500000D01*
G01*
X51108025Y28084342D02*
G75*
G03*
X48185000Y27610000I-1423025J-474342D01*
G01*
X685000Y-11640000D02*
X39685000Y-11640000D01*
X-7865439Y27381631D02*
G75*
G03*
X-7872083Y17337834I28012139J-5040431D01*
G01*
X54185000Y41860000D02*
X54185000Y2860000D01*
X39685000Y-8640000D02*
X48185000Y-8640000D01*
X14685000Y-8655877D02*
G75*
G03*
X25685000Y-8655877I5500000J30999999D01*
G01*
X685000Y53360000D02*
X-7815000Y53360000D01*
X54185000Y41860000D02*
X48185000Y41860000D01*
X25206464Y50352140D02*
G75*
G03*
X25662834Y53360000I206236J1507260D01*
G01*
X-13815000Y41860000D02*
X-13815000Y2860000D01*
X-7872083Y17087834D02*
X-7872083Y17337834D01*
X48185000Y2860000D02*
X48185000Y-8640000D01*
X39685000Y53360000D02*
X48185000Y53360000D01*
X54185000Y2860000D02*
X48185000Y2860000D01*
X25662834Y53360000D02*
G75*
G03*
X14662834Y53360000I-5500000J-30999999D01*
G01*
X14912834Y50360001D02*
X15162834Y50360001D01*
X-7815000Y41860000D02*
X-13815000Y41860000D01*
X685000Y56360000D02*
X39685000Y56360000D01*
X25909356Y-8578944D02*
G75*
G03*
X25435000Y-5655878I-474356J1423044D01*
G01*
X48185000Y41860000D02*
X48185000Y53360000D01*
M02*
