M48
; DRILL file {KiCad 6.0.11-2627ca5db0~126~ubuntu22.04.1} date Mi 06 Dez 2023 10:13:35 CET
; FORMAT={-:-/ absolute / metric / decimal}
; #@! TF.CreationDate,2023-12-06T10:13:35+01:00
; #@! TF.GenerationSoftware,Kicad,Pcbnew,6.0.11-2627ca5db0~126~ubuntu22.04.1
; #@! TF.FileFunction,Plated,1,2,PTH
FMAT,2
METRIC
; #@! TA.AperFunction,Plated,PTH,ViaDrill
T1C0.500
; #@! TA.AperFunction,Plated,PTH,ComponentDrill
T2C0.900
; #@! TA.AperFunction,Plated,PTH,ComponentDrill
T3C1.000
%
G90
G05
T1
X14.605Y32.385
X15.875Y31.115
X16.51Y33.655
X16.51Y27.305
X17.145Y29.845
T2
X13.94Y5.715
X13.97Y8.255
X16.48Y5.715
X16.51Y43.815
X16.51Y41.275
X16.51Y8.255
X19.02Y5.715
X19.05Y43.815
X19.05Y41.275
X19.05Y8.255
X21.56Y5.715
X21.59Y43.815
X21.59Y41.275
X21.59Y8.255
X24.1Y5.715
X24.13Y43.815
X24.13Y41.275
X24.13Y8.255
X26.67Y43.815
X26.67Y41.275
X26.67Y8.255
X26.67Y5.715
X29.18Y5.715
X29.21Y43.815
X29.21Y8.255
X31.72Y5.715
X31.75Y43.815
X31.75Y8.255
T3
X0.0Y44.6
X0.0Y38.1
X0.0Y31.9
X0.0Y25.4
X0.0Y19.2
X0.0Y12.7
X0.0Y6.5
X0.0Y0.0
X4.5Y44.6
X4.5Y38.1
X4.5Y31.9
X4.5Y25.4
X4.5Y19.2
X4.5Y12.7
X4.5Y6.5
X4.5Y0.0
X35.505Y44.45
X35.505Y37.95
X35.505Y31.75
X35.505Y25.25
X35.505Y19.05
X35.505Y12.55
X35.505Y6.35
X35.505Y-0.15
X40.005Y44.45
X40.005Y37.95
X40.005Y31.75
X40.005Y25.25
X40.005Y19.05
X40.005Y12.55
X40.005Y6.35
X40.005Y-0.15
T0
M30
