G04 #@! TF.GenerationSoftware,KiCad,Pcbnew,6.0.11-2627ca5db0~126~ubuntu22.04.1*
G04 #@! TF.CreationDate,2023-12-06T10:13:38+01:00*
G04 #@! TF.ProjectId,pushbutton8,70757368-6275-4747-946f-6e382e6b6963,3*
G04 #@! TF.SameCoordinates,PX6657f38PY8eeaea0*
G04 #@! TF.FileFunction,Other,Comment*
%FSLAX46Y46*%
G04 Gerber Fmt 4.6, Leading zero omitted, Abs format (unit mm)*
G04 Created by KiCad (PCBNEW 6.0.11-2627ca5db0~126~ubuntu22.04.1) date 2023-12-06 10:13:38*
%MOMM*%
%LPD*%
G01*
G04 APERTURE LIST*
%ADD10C,0.200000*%
%ADD11C,0.100000*%
%ADD12C,0.150000*%
G04 APERTURE END LIST*
D10*
X50185000Y22360000D02*
G75*
G03*
X50185000Y22360000I-30000000J0D01*
G01*
X55185000Y22360000D02*
X-14815000Y22360000D01*
X20185000Y56860000D02*
X20185000Y-12140000D01*
X45185000Y22360000D02*
G75*
G03*
X45185000Y22360000I-25000000J0D01*
G01*
D11*
X2540000Y0D02*
G75*
G03*
X2540000Y0I-2540000J0D01*
G01*
X41561254Y44450000D02*
G75*
G03*
X41561254Y44450000I-1546254J0D01*
G01*
D12*
X56487380Y19645715D02*
X56487380Y19455239D01*
X56535000Y19360000D01*
X56582619Y19312381D01*
X56725476Y19217143D01*
X56915952Y19169524D01*
X57296904Y19169524D01*
X57392142Y19217143D01*
X57439761Y19264762D01*
X57487380Y19360000D01*
X57487380Y19550477D01*
X57439761Y19645715D01*
X57392142Y19693334D01*
X57296904Y19740953D01*
X57058809Y19740953D01*
X56963571Y19693334D01*
X56915952Y19645715D01*
X56868333Y19550477D01*
X56868333Y19360000D01*
X56915952Y19264762D01*
X56963571Y19217143D01*
X57058809Y19169524D01*
X56487380Y20360000D02*
X56487380Y20455239D01*
X56535000Y20550477D01*
X56582619Y20598096D01*
X56677857Y20645715D01*
X56868333Y20693334D01*
X57106428Y20693334D01*
X57296904Y20645715D01*
X57392142Y20598096D01*
X57439761Y20550477D01*
X57487380Y20455239D01*
X57487380Y20360000D01*
X57439761Y20264762D01*
X57392142Y20217143D01*
X57296904Y20169524D01*
X57106428Y20121905D01*
X56868333Y20121905D01*
X56677857Y20169524D01*
X56582619Y20217143D01*
X56535000Y20264762D01*
X56487380Y20360000D01*
X57392142Y21121905D02*
X57439761Y21169524D01*
X57487380Y21121905D01*
X57439761Y21074286D01*
X57392142Y21121905D01*
X57487380Y21121905D01*
X56487380Y21788572D02*
X56487380Y21883810D01*
X56535000Y21979048D01*
X56582619Y22026667D01*
X56677857Y22074286D01*
X56868333Y22121905D01*
X57106428Y22121905D01*
X57296904Y22074286D01*
X57392142Y22026667D01*
X57439761Y21979048D01*
X57487380Y21883810D01*
X57487380Y21788572D01*
X57439761Y21693334D01*
X57392142Y21645715D01*
X57296904Y21598096D01*
X57106428Y21550477D01*
X56868333Y21550477D01*
X56677857Y21598096D01*
X56582619Y21645715D01*
X56535000Y21693334D01*
X56487380Y21788572D01*
X57487380Y23312381D02*
X56820714Y23312381D01*
X56915952Y23312381D02*
X56868333Y23360000D01*
X56820714Y23455239D01*
X56820714Y23598096D01*
X56868333Y23693334D01*
X56963571Y23740953D01*
X57487380Y23740953D01*
X56963571Y23740953D02*
X56868333Y23788572D01*
X56820714Y23883810D01*
X56820714Y24026667D01*
X56868333Y24121905D01*
X56963571Y24169524D01*
X57487380Y24169524D01*
X57487380Y24645715D02*
X56820714Y24645715D01*
X56915952Y24645715D02*
X56868333Y24693334D01*
X56820714Y24788572D01*
X56820714Y24931429D01*
X56868333Y25026667D01*
X56963571Y25074286D01*
X57487380Y25074286D01*
X56963571Y25074286D02*
X56868333Y25121905D01*
X56820714Y25217143D01*
X56820714Y25360000D01*
X56868333Y25455239D01*
X56963571Y25502858D01*
X57487380Y25502858D01*
X20185000Y-7640000D02*
X58771420Y-7640000D01*
X20185000Y52360000D02*
X58771420Y52360000D01*
X58185000Y-7640000D02*
X58185000Y52360000D01*
X58185000Y-7640000D02*
X58185000Y52360000D01*
X58185000Y-7640000D02*
X58771421Y-6513496D01*
X58185000Y-7640000D02*
X57598579Y-6513496D01*
X58185000Y52360000D02*
X57598579Y51233496D01*
X58185000Y52360000D02*
X58771421Y51233496D01*
X17470714Y65303875D02*
X17280238Y65303875D01*
X17185000Y65256255D01*
X17137380Y65208636D01*
X17042142Y65065779D01*
X16994523Y64875303D01*
X16994523Y64494351D01*
X17042142Y64399113D01*
X17089761Y64351494D01*
X17185000Y64303875D01*
X17375476Y64303875D01*
X17470714Y64351494D01*
X17518333Y64399113D01*
X17565952Y64494351D01*
X17565952Y64732446D01*
X17518333Y64827684D01*
X17470714Y64875303D01*
X17375476Y64922922D01*
X17185000Y64922922D01*
X17089761Y64875303D01*
X17042142Y64827684D01*
X16994523Y64732446D01*
X18137380Y64875303D02*
X18042142Y64922922D01*
X17994523Y64970541D01*
X17946904Y65065779D01*
X17946904Y65113398D01*
X17994523Y65208636D01*
X18042142Y65256255D01*
X18137380Y65303875D01*
X18327857Y65303875D01*
X18423095Y65256255D01*
X18470714Y65208636D01*
X18518333Y65113398D01*
X18518333Y65065779D01*
X18470714Y64970541D01*
X18423095Y64922922D01*
X18327857Y64875303D01*
X18137380Y64875303D01*
X18042142Y64827684D01*
X17994523Y64780065D01*
X17946904Y64684827D01*
X17946904Y64494351D01*
X17994523Y64399113D01*
X18042142Y64351494D01*
X18137380Y64303875D01*
X18327857Y64303875D01*
X18423095Y64351494D01*
X18470714Y64399113D01*
X18518333Y64494351D01*
X18518333Y64684827D01*
X18470714Y64780065D01*
X18423095Y64827684D01*
X18327857Y64875303D01*
X18994523Y64351494D02*
X18994523Y64303875D01*
X18946904Y64208636D01*
X18899285Y64161017D01*
X19613571Y65303875D02*
X19708809Y65303875D01*
X19804047Y65256255D01*
X19851666Y65208636D01*
X19899285Y65113398D01*
X19946904Y64922922D01*
X19946904Y64684827D01*
X19899285Y64494351D01*
X19851666Y64399113D01*
X19804047Y64351494D01*
X19708809Y64303875D01*
X19613571Y64303875D01*
X19518333Y64351494D01*
X19470714Y64399113D01*
X19423095Y64494351D01*
X19375476Y64684827D01*
X19375476Y64922922D01*
X19423095Y65113398D01*
X19470714Y65208636D01*
X19518333Y65256255D01*
X19613571Y65303875D01*
X21137380Y64303875D02*
X21137380Y64970541D01*
X21137380Y64875303D02*
X21185000Y64922922D01*
X21280238Y64970541D01*
X21423095Y64970541D01*
X21518333Y64922922D01*
X21565952Y64827684D01*
X21565952Y64303875D01*
X21565952Y64827684D02*
X21613571Y64922922D01*
X21708809Y64970541D01*
X21851666Y64970541D01*
X21946904Y64922922D01*
X21994523Y64827684D01*
X21994523Y64303875D01*
X22470714Y64303875D02*
X22470714Y64970541D01*
X22470714Y64875303D02*
X22518333Y64922922D01*
X22613571Y64970541D01*
X22756428Y64970541D01*
X22851666Y64922922D01*
X22899285Y64827684D01*
X22899285Y64303875D01*
X22899285Y64827684D02*
X22946904Y64922922D01*
X23042142Y64970541D01*
X23185000Y64970541D01*
X23280238Y64922922D01*
X23327857Y64827684D01*
X23327857Y64303875D01*
X54185000Y54110000D02*
X54185000Y64192675D01*
X-13815000Y54110000D02*
X-13815000Y64192675D01*
X54185000Y63606255D02*
X-13815000Y63606255D01*
X54185000Y63606255D02*
X-13815000Y63606255D01*
X54185000Y63606255D02*
X53058496Y64192676D01*
X54185000Y63606255D02*
X53058496Y63019834D01*
X-13815000Y63606255D02*
X-12688496Y63019834D01*
X-13815000Y63606255D02*
X-12688496Y64192676D01*
X17518333Y-15442380D02*
X17042142Y-15442380D01*
X16994523Y-15918571D01*
X17042142Y-15870952D01*
X17137380Y-15823333D01*
X17375476Y-15823333D01*
X17470714Y-15870952D01*
X17518333Y-15918571D01*
X17565952Y-16013809D01*
X17565952Y-16251904D01*
X17518333Y-16347142D01*
X17470714Y-16394761D01*
X17375476Y-16442380D01*
X17137380Y-16442380D01*
X17042142Y-16394761D01*
X16994523Y-16347142D01*
X18185000Y-15442380D02*
X18280238Y-15442380D01*
X18375476Y-15490000D01*
X18423095Y-15537619D01*
X18470714Y-15632857D01*
X18518333Y-15823333D01*
X18518333Y-16061428D01*
X18470714Y-16251904D01*
X18423095Y-16347142D01*
X18375476Y-16394761D01*
X18280238Y-16442380D01*
X18185000Y-16442380D01*
X18089761Y-16394761D01*
X18042142Y-16347142D01*
X17994523Y-16251904D01*
X17946904Y-16061428D01*
X17946904Y-15823333D01*
X17994523Y-15632857D01*
X18042142Y-15537619D01*
X18089761Y-15490000D01*
X18185000Y-15442380D01*
X18946904Y-16347142D02*
X18994523Y-16394761D01*
X18946904Y-16442380D01*
X18899285Y-16394761D01*
X18946904Y-16347142D01*
X18946904Y-16442380D01*
X19613571Y-15442380D02*
X19708809Y-15442380D01*
X19804047Y-15490000D01*
X19851666Y-15537619D01*
X19899285Y-15632857D01*
X19946904Y-15823333D01*
X19946904Y-16061428D01*
X19899285Y-16251904D01*
X19851666Y-16347142D01*
X19804047Y-16394761D01*
X19708809Y-16442380D01*
X19613571Y-16442380D01*
X19518333Y-16394761D01*
X19470714Y-16347142D01*
X19423095Y-16251904D01*
X19375476Y-16061428D01*
X19375476Y-15823333D01*
X19423095Y-15632857D01*
X19470714Y-15537619D01*
X19518333Y-15490000D01*
X19613571Y-15442380D01*
X21137380Y-16442380D02*
X21137380Y-15775714D01*
X21137380Y-15870952D02*
X21185000Y-15823333D01*
X21280238Y-15775714D01*
X21423095Y-15775714D01*
X21518333Y-15823333D01*
X21565952Y-15918571D01*
X21565952Y-16442380D01*
X21565952Y-15918571D02*
X21613571Y-15823333D01*
X21708809Y-15775714D01*
X21851666Y-15775714D01*
X21946904Y-15823333D01*
X21994523Y-15918571D01*
X21994523Y-16442380D01*
X22470714Y-16442380D02*
X22470714Y-15775714D01*
X22470714Y-15870952D02*
X22518333Y-15823333D01*
X22613571Y-15775714D01*
X22756428Y-15775714D01*
X22851666Y-15823333D01*
X22899285Y-15918571D01*
X22899285Y-16442380D01*
X22899285Y-15918571D02*
X22946904Y-15823333D01*
X23042142Y-15775714D01*
X23185000Y-15775714D01*
X23280238Y-15823333D01*
X23327857Y-15918571D01*
X23327857Y-16442380D01*
X45185000Y22360000D02*
X45185000Y-17726420D01*
X-4815000Y22360000D02*
X-4815000Y-17726420D01*
X45185000Y-17140000D02*
X-4815000Y-17140000D01*
X45185000Y-17140000D02*
X-4815000Y-17140000D01*
X45185000Y-17140000D02*
X44058496Y-16553579D01*
X45185000Y-17140000D02*
X44058496Y-17726421D01*
X-4815000Y-17140000D02*
X-3688496Y-17726421D01*
X-4815000Y-17140000D02*
X-3688496Y-16553579D01*
X17470714Y62057620D02*
X17280238Y62057620D01*
X17185000Y62010000D01*
X17137380Y61962381D01*
X17042142Y61819524D01*
X16994523Y61629048D01*
X16994523Y61248096D01*
X17042142Y61152858D01*
X17089761Y61105239D01*
X17185000Y61057620D01*
X17375476Y61057620D01*
X17470714Y61105239D01*
X17518333Y61152858D01*
X17565952Y61248096D01*
X17565952Y61486191D01*
X17518333Y61581429D01*
X17470714Y61629048D01*
X17375476Y61676667D01*
X17185000Y61676667D01*
X17089761Y61629048D01*
X17042142Y61581429D01*
X16994523Y61486191D01*
X18185000Y62057620D02*
X18280238Y62057620D01*
X18375476Y62010000D01*
X18423095Y61962381D01*
X18470714Y61867143D01*
X18518333Y61676667D01*
X18518333Y61438572D01*
X18470714Y61248096D01*
X18423095Y61152858D01*
X18375476Y61105239D01*
X18280238Y61057620D01*
X18185000Y61057620D01*
X18089761Y61105239D01*
X18042142Y61152858D01*
X17994523Y61248096D01*
X17946904Y61438572D01*
X17946904Y61676667D01*
X17994523Y61867143D01*
X18042142Y61962381D01*
X18089761Y62010000D01*
X18185000Y62057620D01*
X18946904Y61152858D02*
X18994523Y61105239D01*
X18946904Y61057620D01*
X18899285Y61105239D01*
X18946904Y61152858D01*
X18946904Y61057620D01*
X19613571Y62057620D02*
X19708809Y62057620D01*
X19804047Y62010000D01*
X19851666Y61962381D01*
X19899285Y61867143D01*
X19946904Y61676667D01*
X19946904Y61438572D01*
X19899285Y61248096D01*
X19851666Y61152858D01*
X19804047Y61105239D01*
X19708809Y61057620D01*
X19613571Y61057620D01*
X19518333Y61105239D01*
X19470714Y61152858D01*
X19423095Y61248096D01*
X19375476Y61438572D01*
X19375476Y61676667D01*
X19423095Y61867143D01*
X19470714Y61962381D01*
X19518333Y62010000D01*
X19613571Y62057620D01*
X21137380Y61057620D02*
X21137380Y61724286D01*
X21137380Y61629048D02*
X21185000Y61676667D01*
X21280238Y61724286D01*
X21423095Y61724286D01*
X21518333Y61676667D01*
X21565952Y61581429D01*
X21565952Y61057620D01*
X21565952Y61581429D02*
X21613571Y61676667D01*
X21708809Y61724286D01*
X21851666Y61724286D01*
X21946904Y61676667D01*
X21994523Y61581429D01*
X21994523Y61057620D01*
X22470714Y61057620D02*
X22470714Y61724286D01*
X22470714Y61629048D02*
X22518333Y61676667D01*
X22613571Y61724286D01*
X22756428Y61724286D01*
X22851666Y61676667D01*
X22899285Y61581429D01*
X22899285Y61057620D01*
X22899285Y61581429D02*
X22946904Y61676667D01*
X23042142Y61724286D01*
X23185000Y61724286D01*
X23280238Y61676667D01*
X23327857Y61581429D01*
X23327857Y61057620D01*
X50185000Y22360000D02*
X50185000Y60946420D01*
X-9815000Y22360000D02*
X-9815000Y60946420D01*
X50185000Y60360000D02*
X-9815000Y60360000D01*
X50185000Y60360000D02*
X-9815000Y60360000D01*
X50185000Y60360000D02*
X49058496Y60946421D01*
X50185000Y60360000D02*
X49058496Y59773579D01*
X-9815000Y60360000D02*
X-8688496Y59773579D01*
X-9815000Y60360000D02*
X-8688496Y60946421D01*
X60487380Y19645715D02*
X60487380Y19455239D01*
X60535000Y19360000D01*
X60582619Y19312381D01*
X60725476Y19217143D01*
X60915952Y19169524D01*
X61296904Y19169524D01*
X61392142Y19217143D01*
X61439761Y19264762D01*
X61487380Y19360000D01*
X61487380Y19550477D01*
X61439761Y19645715D01*
X61392142Y19693334D01*
X61296904Y19740953D01*
X61058809Y19740953D01*
X60963571Y19693334D01*
X60915952Y19645715D01*
X60868333Y19550477D01*
X60868333Y19360000D01*
X60915952Y19264762D01*
X60963571Y19217143D01*
X61058809Y19169524D01*
X60915952Y20312381D02*
X60868333Y20217143D01*
X60820714Y20169524D01*
X60725476Y20121905D01*
X60677857Y20121905D01*
X60582619Y20169524D01*
X60535000Y20217143D01*
X60487380Y20312381D01*
X60487380Y20502858D01*
X60535000Y20598096D01*
X60582619Y20645715D01*
X60677857Y20693334D01*
X60725476Y20693334D01*
X60820714Y20645715D01*
X60868333Y20598096D01*
X60915952Y20502858D01*
X60915952Y20312381D01*
X60963571Y20217143D01*
X61011190Y20169524D01*
X61106428Y20121905D01*
X61296904Y20121905D01*
X61392142Y20169524D01*
X61439761Y20217143D01*
X61487380Y20312381D01*
X61487380Y20502858D01*
X61439761Y20598096D01*
X61392142Y20645715D01*
X61296904Y20693334D01*
X61106428Y20693334D01*
X61011190Y20645715D01*
X60963571Y20598096D01*
X60915952Y20502858D01*
X61392142Y21121905D02*
X61439761Y21169524D01*
X61487380Y21121905D01*
X61439761Y21074286D01*
X61392142Y21121905D01*
X61487380Y21121905D01*
X60487380Y21788572D02*
X60487380Y21883810D01*
X60535000Y21979048D01*
X60582619Y22026667D01*
X60677857Y22074286D01*
X60868333Y22121905D01*
X61106428Y22121905D01*
X61296904Y22074286D01*
X61392142Y22026667D01*
X61439761Y21979048D01*
X61487380Y21883810D01*
X61487380Y21788572D01*
X61439761Y21693334D01*
X61392142Y21645715D01*
X61296904Y21598096D01*
X61106428Y21550477D01*
X60868333Y21550477D01*
X60677857Y21598096D01*
X60582619Y21645715D01*
X60535000Y21693334D01*
X60487380Y21788572D01*
X61487380Y23312381D02*
X60820714Y23312381D01*
X60915952Y23312381D02*
X60868333Y23360000D01*
X60820714Y23455239D01*
X60820714Y23598096D01*
X60868333Y23693334D01*
X60963571Y23740953D01*
X61487380Y23740953D01*
X60963571Y23740953D02*
X60868333Y23788572D01*
X60820714Y23883810D01*
X60820714Y24026667D01*
X60868333Y24121905D01*
X60963571Y24169524D01*
X61487380Y24169524D01*
X61487380Y24645715D02*
X60820714Y24645715D01*
X60915952Y24645715D02*
X60868333Y24693334D01*
X60820714Y24788572D01*
X60820714Y24931429D01*
X60868333Y25026667D01*
X60963571Y25074286D01*
X61487380Y25074286D01*
X60963571Y25074286D02*
X60868333Y25121905D01*
X60820714Y25217143D01*
X60820714Y25360000D01*
X60868333Y25455239D01*
X60963571Y25502858D01*
X61487380Y25502858D01*
X54185000Y-11640000D02*
X62771420Y-11640000D01*
X54185000Y56360000D02*
X62771420Y56360000D01*
X62185000Y-11640000D02*
X62185000Y56360000D01*
X62185000Y-11640000D02*
X62185000Y56360000D01*
X62185000Y-11640000D02*
X62771421Y-10513496D01*
X62185000Y-11640000D02*
X61598579Y-10513496D01*
X62185000Y56360000D02*
X61598579Y55233496D01*
X62185000Y56360000D02*
X62771421Y55233496D01*
X22685000Y22360000D02*
G75*
G03*
X22685000Y22360000I-2500000J0D01*
G01*
M02*
