G04 #@! TF.GenerationSoftware,KiCad,Pcbnew,6.0.11-2627ca5db0~126~ubuntu22.04.1*
G04 #@! TF.CreationDate,2023-12-06T10:13:38+01:00*
G04 #@! TF.ProjectId,pushbutton8,70757368-6275-4747-946f-6e382e6b6963,3*
G04 #@! TF.SameCoordinates,PX6657f38PY8eeaea0*
G04 #@! TF.FileFunction,Soldermask,Top*
G04 #@! TF.FilePolarity,Negative*
%FSLAX46Y46*%
G04 Gerber Fmt 4.6, Leading zero omitted, Abs format (unit mm)*
G04 Created by KiCad (PCBNEW 6.0.11-2627ca5db0~126~ubuntu22.04.1) date 2023-12-06 10:13:38*
%MOMM*%
%LPD*%
G01*
G04 APERTURE LIST*
G04 Aperture macros list*
%AMRoundRect*
0 Rectangle with rounded corners*
0 $1 Rounding radius*
0 $2 $3 $4 $5 $6 $7 $8 $9 X,Y pos of 4 corners*
0 Add a 4 corners polygon primitive as box body*
4,1,4,$2,$3,$4,$5,$6,$7,$8,$9,$2,$3,0*
0 Add four circle primitives for the rounded corners*
1,1,$1+$1,$2,$3*
1,1,$1+$1,$4,$5*
1,1,$1+$1,$6,$7*
1,1,$1+$1,$8,$9*
0 Add four rect primitives between the rounded corners*
20,1,$1+$1,$2,$3,$4,$5,0*
20,1,$1+$1,$4,$5,$6,$7,0*
20,1,$1+$1,$6,$7,$8,$9,0*
20,1,$1+$1,$8,$9,$2,$3,0*%
G04 Aperture macros list end*
%ADD10RoundRect,0.450000X-0.475000X0.337500X-0.475000X-0.337500X0.475000X-0.337500X0.475000X0.337500X0*%
%ADD11RoundRect,0.450000X0.337500X0.475000X-0.337500X0.475000X-0.337500X-0.475000X0.337500X-0.475000X0*%
%ADD12RoundRect,0.450000X0.325000X0.450000X-0.325000X0.450000X-0.325000X-0.450000X0.325000X-0.450000X0*%
%ADD13RoundRect,0.450000X-0.325000X-0.450000X0.325000X-0.450000X0.325000X0.450000X-0.325000X0.450000X0*%
%ADD14RoundRect,0.450000X-0.450000X0.350000X-0.450000X-0.350000X0.450000X-0.350000X0.450000X0.350000X0*%
%ADD15RoundRect,0.450000X0.450000X-0.350000X0.450000X0.350000X-0.450000X0.350000X-0.450000X-0.350000X0*%
%ADD16RoundRect,0.450000X-0.350000X-0.450000X0.350000X-0.450000X0.350000X0.450000X-0.350000X0.450000X0*%
%ADD17RoundRect,0.450000X0.350000X0.450000X-0.350000X0.450000X-0.350000X-0.450000X0.350000X-0.450000X0*%
%ADD18C,2.400000*%
%ADD19RoundRect,0.200000X0.750000X-0.381000X0.750000X0.381000X-0.750000X0.381000X-0.750000X-0.381000X0*%
%ADD20C,2.900000*%
%ADD21RoundRect,0.200000X-0.900000X-0.900000X0.900000X-0.900000X0.900000X0.900000X-0.900000X0.900000X0*%
%ADD22C,2.200000*%
G04 APERTURE END LIST*
D10*
X14605000Y25400000D03*
X14605000Y23325000D03*
D11*
X14372500Y34925000D03*
X12297500Y34925000D03*
D12*
X9915000Y41275000D03*
X7865000Y41275000D03*
X9915000Y28575000D03*
X7865000Y28575000D03*
X9915000Y15875000D03*
X7865000Y15875000D03*
X9915000Y3175000D03*
X7865000Y3175000D03*
D13*
X30090000Y41275000D03*
X32140000Y41275000D03*
X30090000Y28575000D03*
X32140000Y28575000D03*
X30090000Y15875000D03*
X32140000Y15875000D03*
D12*
X32140000Y3175000D03*
X30090000Y3175000D03*
D14*
X8255000Y38465000D03*
X8255000Y36465000D03*
D15*
X8255000Y31385000D03*
X8255000Y33385000D03*
D16*
X7890000Y18415000D03*
X9890000Y18415000D03*
X7890000Y635000D03*
X9890000Y635000D03*
D14*
X31750000Y38465000D03*
X31750000Y36465000D03*
D17*
X32115000Y31115000D03*
X30115000Y31115000D03*
X32115000Y18415000D03*
X30115000Y18415000D03*
D16*
X30115000Y635000D03*
X32115000Y635000D03*
D15*
X14605000Y27575000D03*
X14605000Y29575000D03*
D18*
X0Y38100000D03*
X0Y44600000D03*
X4500000Y38100000D03*
X4500000Y44600000D03*
X0Y25400000D03*
X0Y31900000D03*
X4500000Y25400000D03*
X4500000Y31900000D03*
X0Y12700000D03*
X0Y19200000D03*
X4500000Y19200000D03*
X4500000Y12700000D03*
X0Y6500000D03*
X0Y0D03*
X4500000Y0D03*
X4500000Y6500000D03*
X40005000Y44450000D03*
X40005000Y37950000D03*
X35505000Y44450000D03*
X35505000Y37950000D03*
X40005000Y25250000D03*
X40005000Y31750000D03*
X35505000Y25250000D03*
X35505000Y31750000D03*
X40005000Y12550000D03*
X40005000Y19050000D03*
X35505000Y12550000D03*
X35505000Y19050000D03*
X40005000Y-150000D03*
X40005000Y6350000D03*
X35505000Y-150000D03*
X35505000Y6350000D03*
D19*
X25400000Y27305000D03*
X25400000Y28575000D03*
X25400000Y29845000D03*
X25400000Y31115000D03*
X25400000Y32385000D03*
X25400000Y33655000D03*
X25400000Y34925000D03*
X25400000Y36195000D03*
X19050000Y36195000D03*
X19050000Y34925000D03*
X19050000Y33655000D03*
X19050000Y32385000D03*
X19050000Y31115000D03*
X19050000Y29845000D03*
X19050000Y28575000D03*
X19050000Y27305000D03*
D20*
X20185000Y22360000D03*
D21*
X31750000Y8255000D03*
D22*
X31720000Y5715000D03*
X29210000Y8255000D03*
X29180000Y5715000D03*
X26670000Y8255000D03*
X26670000Y5715000D03*
X24130000Y8255000D03*
X24100000Y5715000D03*
X21590000Y8255000D03*
X21560000Y5715000D03*
X19050000Y8255000D03*
X19020000Y5715000D03*
X16510000Y8255000D03*
X16480000Y5715000D03*
X13970000Y8255000D03*
X13940000Y5715000D03*
D21*
X31750000Y43815000D03*
D22*
X29210000Y43815000D03*
X26670000Y43815000D03*
X26670000Y41275000D03*
X24130000Y43815000D03*
X24130000Y41275000D03*
X21590000Y43815000D03*
X21590000Y41275000D03*
X19050000Y43815000D03*
X19050000Y41275000D03*
X16510000Y43815000D03*
X16510000Y41275000D03*
M02*
