G04 #@! TF.GenerationSoftware,KiCad,Pcbnew,6.0.11-2627ca5db0~126~ubuntu22.04.1*
G04 #@! TF.CreationDate,2023-12-06T10:13:38+01:00*
G04 #@! TF.ProjectId,pushbutton8,70757368-6275-4747-946f-6e382e6b6963,3*
G04 #@! TF.SameCoordinates,PX6657f38PY8eeaea0*
G04 #@! TF.FileFunction,Legend,Top*
G04 #@! TF.FilePolarity,Positive*
%FSLAX46Y46*%
G04 Gerber Fmt 4.6, Leading zero omitted, Abs format (unit mm)*
G04 Created by KiCad (PCBNEW 6.0.11-2627ca5db0~126~ubuntu22.04.1) date 2023-12-06 10:13:38*
%MOMM*%
%LPD*%
G01*
G04 APERTURE LIST*
%ADD10C,0.150000*%
%ADD11C,0.120000*%
%ADD12C,0.300000*%
%ADD13C,2.000000*%
G04 APERTURE END LIST*
D10*
X33655000Y10160000D02*
X33655000Y3810000D01*
X33655000Y45720000D02*
X33655000Y39370000D01*
X6985000Y10160000D02*
X33655000Y10160000D01*
X14605000Y39370000D02*
X14605000Y45720000D01*
X14605000Y45720000D02*
X33655000Y45720000D01*
X6985000Y3810000D02*
X6985000Y10160000D01*
X33655000Y39370000D02*
X14605000Y39370000D01*
D11*
X15340000Y24623752D02*
X15340000Y24101248D01*
X13870000Y24623752D02*
X13870000Y24101248D01*
X13596252Y34190000D02*
X13073748Y34190000D01*
X13596252Y35660000D02*
X13073748Y35660000D01*
X10750000Y40315000D02*
X10750000Y42235000D01*
X10750000Y42235000D02*
X7890000Y42235000D01*
X7890000Y40315000D02*
X10750000Y40315000D01*
X10750000Y27615000D02*
X10750000Y29535000D01*
X10750000Y29535000D02*
X7890000Y29535000D01*
X7890000Y27615000D02*
X10750000Y27615000D01*
X7890000Y14915000D02*
X10750000Y14915000D01*
X10750000Y16835000D02*
X7890000Y16835000D01*
X10750000Y14915000D02*
X10750000Y16835000D01*
X10750000Y2215000D02*
X10750000Y4135000D01*
X7890000Y2215000D02*
X10750000Y2215000D01*
X10750000Y4135000D02*
X7890000Y4135000D01*
X29255000Y42235000D02*
X29255000Y40315000D01*
X32115000Y42235000D02*
X29255000Y42235000D01*
X29255000Y40315000D02*
X32115000Y40315000D01*
X29255000Y29535000D02*
X29255000Y27615000D01*
X29255000Y27615000D02*
X32115000Y27615000D01*
X32115000Y29535000D02*
X29255000Y29535000D01*
X32115000Y16835000D02*
X29255000Y16835000D01*
X29255000Y16835000D02*
X29255000Y14915000D01*
X29255000Y14915000D02*
X32115000Y14915000D01*
X32975000Y2215000D02*
X32975000Y4135000D01*
X30115000Y2215000D02*
X32975000Y2215000D01*
X32975000Y4135000D02*
X30115000Y4135000D01*
X8990000Y37692064D02*
X8990000Y37237936D01*
X7520000Y37692064D02*
X7520000Y37237936D01*
X7520000Y32157936D02*
X7520000Y32612064D01*
X8990000Y32157936D02*
X8990000Y32612064D01*
X8662936Y17680000D02*
X9117064Y17680000D01*
X8662936Y19150000D02*
X9117064Y19150000D01*
X8662936Y-100000D02*
X9117064Y-100000D01*
X8662936Y1370000D02*
X9117064Y1370000D01*
X32485000Y37692064D02*
X32485000Y37237936D01*
X31015000Y37692064D02*
X31015000Y37237936D01*
X31342064Y30380000D02*
X30887936Y30380000D01*
X31342064Y31850000D02*
X30887936Y31850000D01*
X31342064Y17680000D02*
X30887936Y17680000D01*
X31342064Y19150000D02*
X30887936Y19150000D01*
X30887936Y-100000D02*
X31342064Y-100000D01*
X30887936Y1370000D02*
X31342064Y1370000D01*
X15340000Y28347936D02*
X15340000Y28802064D01*
X13870000Y28347936D02*
X13870000Y28802064D01*
D10*
X1200000Y44400000D02*
X3200000Y44400000D01*
D12*
X1350000Y41350000D02*
X3150000Y42450000D01*
D10*
X-800000Y39200000D02*
X-800000Y43500000D01*
D12*
X3150000Y41350000D02*
X3850000Y41350000D01*
D10*
X1200000Y38400000D02*
X3200000Y38400000D01*
D12*
X700000Y41350000D02*
X1350000Y41350000D01*
D10*
X5300000Y39300000D02*
X5300000Y43500000D01*
X4508871Y41350000D02*
G75*
G03*
X4508871Y41350000I-2258871J0D01*
G01*
X-800000Y26500000D02*
X-800000Y30800000D01*
X1200000Y31700000D02*
X3200000Y31700000D01*
X5300000Y26600000D02*
X5300000Y30800000D01*
D12*
X700000Y28650000D02*
X1350000Y28650000D01*
X3150000Y28650000D02*
X3850000Y28650000D01*
X1350000Y28650000D02*
X3150000Y29750000D01*
D10*
X1200000Y25700000D02*
X3200000Y25700000D01*
X4508871Y28650000D02*
G75*
G03*
X4508871Y28650000I-2258871J0D01*
G01*
D12*
X3150000Y15950000D02*
X3850000Y15950000D01*
D10*
X-800000Y13800000D02*
X-800000Y18100000D01*
X1200000Y13000000D02*
X3200000Y13000000D01*
X1200000Y19000000D02*
X3200000Y19000000D01*
D12*
X1350000Y15950000D02*
X3150000Y17050000D01*
D10*
X5300000Y13900000D02*
X5300000Y18100000D01*
D12*
X700000Y15950000D02*
X1350000Y15950000D01*
D10*
X4508871Y15950000D02*
G75*
G03*
X4508871Y15950000I-2258871J0D01*
G01*
X1200000Y6300000D02*
X3200000Y6300000D01*
X1200000Y300000D02*
X3200000Y300000D01*
D12*
X3150000Y3250000D02*
X3850000Y3250000D01*
X700000Y3250000D02*
X1350000Y3250000D01*
D10*
X5300000Y1200000D02*
X5300000Y5400000D01*
D12*
X1350000Y3250000D02*
X3150000Y4350000D01*
D10*
X-800000Y1100000D02*
X-800000Y5400000D01*
X4508871Y3250000D02*
G75*
G03*
X4508871Y3250000I-2258871J0D01*
G01*
D12*
X38655000Y41200000D02*
X36855000Y40100000D01*
D10*
X34705000Y43250000D02*
X34705000Y39050000D01*
X38805000Y38150000D02*
X36805000Y38150000D01*
X40805000Y43350000D02*
X40805000Y39050000D01*
D12*
X36855000Y41200000D02*
X36155000Y41200000D01*
X39305000Y41200000D02*
X38655000Y41200000D01*
D10*
X38805000Y44150000D02*
X36805000Y44150000D01*
X40013871Y41200000D02*
G75*
G03*
X40013871Y41200000I-2258871J0D01*
G01*
D12*
X38655000Y28500000D02*
X36855000Y27400000D01*
D10*
X34705000Y30550000D02*
X34705000Y26350000D01*
X40805000Y30650000D02*
X40805000Y26350000D01*
X38805000Y31450000D02*
X36805000Y31450000D01*
D12*
X36855000Y28500000D02*
X36155000Y28500000D01*
D10*
X38805000Y25450000D02*
X36805000Y25450000D01*
D12*
X39305000Y28500000D02*
X38655000Y28500000D01*
D10*
X40013871Y28500000D02*
G75*
G03*
X40013871Y28500000I-2258871J0D01*
G01*
D12*
X36855000Y15800000D02*
X36155000Y15800000D01*
D10*
X38805000Y12750000D02*
X36805000Y12750000D01*
D12*
X39305000Y15800000D02*
X38655000Y15800000D01*
D10*
X40805000Y17950000D02*
X40805000Y13650000D01*
D12*
X38655000Y15800000D02*
X36855000Y14700000D01*
D10*
X34705000Y17850000D02*
X34705000Y13650000D01*
X38805000Y18750000D02*
X36805000Y18750000D01*
X40013871Y15800000D02*
G75*
G03*
X40013871Y15800000I-2258871J0D01*
G01*
X38805000Y50000D02*
X36805000Y50000D01*
X38805000Y6050000D02*
X36805000Y6050000D01*
X34705000Y5150000D02*
X34705000Y950000D01*
D12*
X36855000Y3100000D02*
X36155000Y3100000D01*
X39305000Y3100000D02*
X38655000Y3100000D01*
X38655000Y3100000D02*
X36855000Y2000000D01*
D10*
X40805000Y5250000D02*
X40805000Y950000D01*
X40013871Y3100000D02*
G75*
G03*
X40013871Y3100000I-2258871J0D01*
G01*
X21463000Y26924000D02*
X22987000Y26924000D01*
X22987000Y26924000D02*
X22987000Y26162000D01*
X24511000Y26162000D02*
X19939000Y26162000D01*
X19939000Y26162000D02*
X19939000Y37338000D01*
X19939000Y37338000D02*
X24511000Y37338000D01*
X24511000Y37338000D02*
X24511000Y26162000D01*
X21463000Y26162000D02*
X21463000Y26924000D01*
D13*
X0Y38100000D03*
X0Y44600000D03*
X4500000Y38100000D03*
X4500000Y44600000D03*
X0Y25400000D03*
X0Y31900000D03*
X4500000Y25400000D03*
X4500000Y31900000D03*
X0Y12700000D03*
X0Y19200000D03*
X4500000Y19200000D03*
X4500000Y12700000D03*
X0Y6500000D03*
X0Y0D03*
X4500000Y0D03*
X4500000Y6500000D03*
X40005000Y44450000D03*
X40005000Y37950000D03*
X35505000Y44450000D03*
X35505000Y37950000D03*
X40005000Y25250000D03*
X40005000Y31750000D03*
X35505000Y25250000D03*
X35505000Y31750000D03*
X40005000Y12550000D03*
X40005000Y19050000D03*
X35505000Y12550000D03*
X35505000Y19050000D03*
X40005000Y-150000D03*
X40005000Y6350000D03*
X35505000Y-150000D03*
X35505000Y6350000D03*
M02*
