G04 #@! TF.GenerationSoftware,KiCad,Pcbnew,5.0.0-fee4fd1~66~ubuntu16.04.1*
G04 #@! TF.CreationDate,2018-09-25T20:47:50+02:00*
G04 #@! TF.ProjectId,bus-module_attiny1634,6275732D6D6F64756C655F617474696E,B*
G04 #@! TF.SameCoordinates,Original*
G04 #@! TF.FileFunction,Soldermask,Bot*
G04 #@! TF.FilePolarity,Negative*
%FSLAX46Y46*%
G04 Gerber Fmt 4.6, Leading zero omitted, Abs format (unit mm)*
G04 Created by KiCad (PCBNEW 5.0.0-fee4fd1~66~ubuntu16.04.1) date Tue Sep 25 20:47:50 2018*
%MOMM*%
%LPD*%
G01*
G04 APERTURE LIST*
%ADD10R,1.600200X3.500120*%
%ADD11R,1.397000X0.889000*%
%ADD12R,0.914400X0.914400*%
%ADD13C,2.000000*%
%ADD14C,5.000000*%
%ADD15C,1.800000*%
%ADD16R,1.800000X1.800000*%
%ADD17R,0.508000X1.143000*%
%ADD18C,1.600000*%
%ADD19R,1.600000X1.600000*%
%ADD20C,0.700000*%
%ADD21C,1.524000*%
G04 APERTURE END LIST*
D10*
G04 #@! TO.C,C6*
X98036000Y-112443640D03*
X98036000Y-108044360D03*
G04 #@! TD*
D11*
G04 #@! TO.C,C7*
X102608000Y-101100000D03*
X102608000Y-103005000D03*
G04 #@! TD*
G04 #@! TO.C,C4*
X96004000Y-103068500D03*
X96004000Y-101163500D03*
G04 #@! TD*
D12*
G04 #@! TO.C,D1*
X100322000Y-88239980D03*
X100322000Y-90592020D03*
G04 #@! TD*
D11*
G04 #@! TO.C,R5*
X98544000Y-90368500D03*
X98544000Y-88463500D03*
G04 #@! TD*
G04 #@! TO.C,R6*
X102100000Y-90368500D03*
X102100000Y-88463500D03*
G04 #@! TD*
G04 #@! TO.C,R1*
X104640000Y-90368500D03*
X104640000Y-88463500D03*
G04 #@! TD*
G04 #@! TO.C,C1*
X96512000Y-90368500D03*
X96512000Y-88463500D03*
G04 #@! TD*
D13*
G04 #@! TO.C,J6*
X87114000Y-95156400D03*
G04 #@! TD*
G04 #@! TO.C,J5*
X87120200Y-100896800D03*
G04 #@! TD*
G04 #@! TO.C,J4*
X87114000Y-106637200D03*
G04 #@! TD*
G04 #@! TO.C,J7*
X87114000Y-89416000D03*
G04 #@! TD*
D14*
G04 #@! TO.C,HOLE_2.5mm*
X82650000Y-112070000D03*
G04 #@! TD*
G04 #@! TO.C,HOLE_2.5mm*
X82650000Y-83820000D03*
G04 #@! TD*
D15*
G04 #@! TO.C,J3*
X87368000Y-80780000D03*
X87368000Y-83320000D03*
X89908000Y-80780000D03*
X89908000Y-83320000D03*
X92448000Y-80780000D03*
D16*
X92448000Y-83320000D03*
G04 #@! TD*
D14*
G04 #@! TO.C,H1*
X104132000Y-107704000D03*
G04 #@! TD*
D15*
G04 #@! TO.C,J2*
X105656000Y-116340000D03*
X105656000Y-118880000D03*
X103116000Y-116340000D03*
X103116000Y-118880000D03*
X100576000Y-116340000D03*
X100576000Y-118880000D03*
X98036000Y-116340000D03*
X98036000Y-118880000D03*
X95496000Y-116340000D03*
D16*
X95496000Y-118880000D03*
G04 #@! TD*
D15*
G04 #@! TO.C,J1*
X105656000Y-80780000D03*
X105656000Y-83320000D03*
X103116000Y-80780000D03*
X103116000Y-83320000D03*
X100576000Y-80780000D03*
X100576000Y-83320000D03*
X98036000Y-80780000D03*
X98036000Y-83320000D03*
X95496000Y-80780000D03*
D16*
X95496000Y-83320000D03*
G04 #@! TD*
D17*
G04 #@! TO.C,U4*
X99433000Y-93861000D03*
X98163000Y-93861000D03*
X96893000Y-93861000D03*
X99433000Y-99195000D03*
X98163000Y-99195000D03*
X96893000Y-99195000D03*
X95623000Y-93861000D03*
X95623000Y-99195000D03*
G04 #@! TD*
D18*
G04 #@! TO.C,U5*
X88434800Y-111666400D03*
X88434800Y-114206400D03*
X88434800Y-116746400D03*
D19*
X88434800Y-119286400D03*
G04 #@! TD*
D17*
G04 #@! TO.C,U2*
X106037000Y-93861000D03*
X104767000Y-93861000D03*
X103497000Y-93861000D03*
X106037000Y-99195000D03*
X104767000Y-99195000D03*
X103497000Y-99195000D03*
X102227000Y-93861000D03*
X102227000Y-99195000D03*
G04 #@! TD*
D20*
G04 #@! TO.C,REF\002A\002A*
X80650000Y-85820000D03*
X81650000Y-85820000D03*
X84650000Y-85820000D03*
X83650000Y-85820000D03*
X82650000Y-85820000D03*
G04 #@! TD*
G04 #@! TO.C,REF\002A\002A*
X84650000Y-110070000D03*
X83650000Y-110070000D03*
X80650000Y-110070000D03*
X81650000Y-110070000D03*
X82650000Y-110070000D03*
G04 #@! TD*
G04 #@! TO.C,REF\002A\002A*
X84650000Y-84820000D03*
X84650000Y-83820000D03*
X84650000Y-81820000D03*
X84650000Y-82820000D03*
G04 #@! TD*
G04 #@! TO.C,REF\002A\002A*
X84650000Y-114070000D03*
X84650000Y-113070000D03*
X84650000Y-111070000D03*
X84650000Y-112070000D03*
G04 #@! TD*
D21*
G04 #@! TO.C,R7*
X92448000Y-102370000D03*
X92448000Y-92210000D03*
G04 #@! TD*
M02*
