G04 #@! TF.FileFunction,Soldermask,Bot*
%FSLAX46Y46*%
G04 Gerber Fmt 4.6, Leading zero omitted, Abs format (unit mm)*
G04 Created by KiCad (PCBNEW (2015-08-30 BZR 6133)-product) date Fr 30 Okt 2015 20:42:02 CET*
%MOMM*%
G01*
G04 APERTURE LIST*
%ADD10C,0.100000*%
%ADD11C,2.500000*%
%ADD12C,2.540000*%
%ADD13R,1.651000X1.651000*%
%ADD14C,1.600200*%
%ADD15C,3.500000*%
%ADD16R,1.397000X0.889000*%
%ADD17C,1.524000*%
%ADD18R,0.508000X1.143000*%
%ADD19R,1.524000X1.524000*%
%ADD20R,1.600200X3.500120*%
%ADD21R,0.914400X0.914400*%
%ADD22C,0.700000*%
G04 APERTURE END LIST*
D10*
D11*
X82650000Y-112070000D03*
X82650000Y-83820000D03*
D12*
X87114000Y-95156400D03*
X87120200Y-100896800D03*
X87114000Y-106637200D03*
D13*
X92448000Y-83320000D03*
D14*
X92448000Y-80780000D03*
X89908000Y-83320000D03*
X89908000Y-80780000D03*
X87368000Y-83320000D03*
X87368000Y-80780000D03*
D15*
X104132000Y-107704000D03*
D16*
X96512000Y-88463500D03*
X96512000Y-90368500D03*
D13*
X95496000Y-118880000D03*
D14*
X95496000Y-116340000D03*
X98036000Y-118880000D03*
X98036000Y-116340000D03*
X100576000Y-118880000D03*
X100576000Y-116340000D03*
X103116000Y-118880000D03*
X103116000Y-116340000D03*
X105656000Y-118880000D03*
X105656000Y-116340000D03*
D13*
X95496000Y-83320000D03*
D14*
X95496000Y-80780000D03*
X98036000Y-83320000D03*
X98036000Y-80780000D03*
X100576000Y-83320000D03*
X100576000Y-80780000D03*
X103116000Y-83320000D03*
X103116000Y-80780000D03*
X105656000Y-83320000D03*
X105656000Y-80780000D03*
D16*
X104640000Y-88463500D03*
X104640000Y-90368500D03*
X98544000Y-88463500D03*
X98544000Y-90368500D03*
X102100000Y-88463500D03*
X102100000Y-90368500D03*
D17*
X92448000Y-102370000D03*
X92448000Y-92210000D03*
D18*
X95623000Y-99195000D03*
X95623000Y-93861000D03*
X96893000Y-99195000D03*
X98163000Y-99195000D03*
X99433000Y-99195000D03*
X96893000Y-93861000D03*
X98163000Y-93861000D03*
X99433000Y-93861000D03*
D16*
X96004000Y-101163500D03*
X96004000Y-103068500D03*
X102608000Y-103005000D03*
X102608000Y-101100000D03*
D12*
X87114000Y-89416000D03*
D19*
X88434800Y-119286400D03*
D17*
X88434800Y-116746400D03*
X88434800Y-114206400D03*
X88434800Y-111666400D03*
D20*
X98036000Y-112443640D03*
X98036000Y-108044360D03*
D18*
X102227000Y-99195000D03*
X102227000Y-93861000D03*
X103497000Y-99195000D03*
X104767000Y-99195000D03*
X106037000Y-99195000D03*
X103497000Y-93861000D03*
X104767000Y-93861000D03*
X106037000Y-93861000D03*
D21*
X100322000Y-90592020D03*
X100322000Y-88239980D03*
D22*
X82650000Y-85820000D03*
X83650000Y-85820000D03*
X84650000Y-85820000D03*
X81650000Y-85820000D03*
X80650000Y-85820000D03*
X82650000Y-110070000D03*
X81650000Y-110070000D03*
X80650000Y-110070000D03*
X83650000Y-110070000D03*
X84650000Y-110070000D03*
X84650000Y-82820000D03*
X84650000Y-81820000D03*
X84650000Y-83820000D03*
X84650000Y-84820000D03*
X84650000Y-112070000D03*
X84650000Y-111070000D03*
X84650000Y-113070000D03*
X84650000Y-114070000D03*
M02*
