M48
METRIC,TZ
T1C0.300
T2C0.400
T3C0.686
T4C0.700
T5C0.900
T6C1.000
T7C2.500
%
G90
G05
T1
X96258Y-95258
X97465Y-92337
X98163Y-91639
X100076Y-100370
X100109Y-93009
X100469Y-111320
X100512Y-110371
X101338Y-104021
X101402Y-110307
X102100Y-96154
X103878Y-103958
X104386Y-85797
X105910Y-103958
T2
X91178Y-97036
X93972Y-106180
X93972Y-108720
X94480Y-100592
X97147Y-86304
X99407Y-104286
X99497Y-97163
X104640Y-87384
T3
X92448Y-92210
X92448Y-102370
T4
X88435Y-111666
X88435Y-114206
X88435Y-116746
X88435Y-119286
X84650Y-111070
X84650Y-112070
X84650Y-113070
X84650Y-114070
X84650Y-81820
X84650Y-82820
X84650Y-83820
X84650Y-84820
X80650Y-85820
X81650Y-85820
X82650Y-85820
X83650Y-85820
X84650Y-85820
X80650Y-110070
X81650Y-110070
X82650Y-110070
X83650Y-110070
X84650Y-110070
T5
X87368Y-80780
X87368Y-83320
X89908Y-80780
X89908Y-83320
X92448Y-80780
X92448Y-83320
X95496Y-80780
X95496Y-83320
X98036Y-80780
X98036Y-83320
X100576Y-80780
X100576Y-83320
X103116Y-80780
X103116Y-83320
X105656Y-80780
X105656Y-83320
X95496Y-116340
X95496Y-118880
X98036Y-116340
X98036Y-118880
X100576Y-116340
X100576Y-118880
X103116Y-116340
X103116Y-118880
X105656Y-116340
X105656Y-118880
T6
X87114Y-89416
X87114Y-95156
X87120Y-100897
X87114Y-106637
T7
X104132Y-107704
X82650Y-83820
X82650Y-112070
T0
M30
