G04 #@! TF.FileFunction,Copper,L1,Top,Signal*
%FSLAX46Y46*%
G04 Gerber Fmt 4.6, Leading zero omitted, Abs format (unit mm)*
G04 Created by KiCad (PCBNEW (2015-08-30 BZR 6133)-product) date Fr 30 Okt 2015 20:42:02 CET*
%MOMM*%
G01*
G04 APERTURE LIST*
%ADD10C,0.100000*%
%ADD11C,0.150000*%
%ADD12C,2.500000*%
%ADD13C,2.540000*%
%ADD14R,1.651000X1.651000*%
%ADD15C,1.600200*%
%ADD16C,3.500000*%
%ADD17R,1.397000X0.889000*%
%ADD18R,1.198880X2.799080*%
%ADD19R,1.000760X2.799080*%
%ADD20C,1.524000*%
%ADD21R,1.524000X1.524000*%
%ADD22R,1.998980X4.500880*%
%ADD23R,0.508000X1.270000*%
%ADD24C,0.700000*%
%ADD25C,0.800000*%
%ADD26C,0.600000*%
%ADD27C,0.600000*%
%ADD28C,0.800000*%
%ADD29C,0.300000*%
%ADD30C,0.250000*%
G04 APERTURE END LIST*
D10*
D11*
X80903809Y-87212571D02*
X81208571Y-87212571D01*
X81018095Y-86945905D02*
X81018095Y-87631619D01*
X81056190Y-87707810D01*
X81132381Y-87745905D01*
X81208571Y-87745905D01*
X81589524Y-87745905D02*
X81513333Y-87707810D01*
X81475238Y-87669714D01*
X81437143Y-87593524D01*
X81437143Y-87364952D01*
X81475238Y-87288762D01*
X81513333Y-87250667D01*
X81589524Y-87212571D01*
X81703810Y-87212571D01*
X81780000Y-87250667D01*
X81818095Y-87288762D01*
X81856191Y-87364952D01*
X81856191Y-87593524D01*
X81818095Y-87669714D01*
X81780000Y-87707810D01*
X81703810Y-87745905D01*
X81589524Y-87745905D01*
X82199048Y-87212571D02*
X82199048Y-88012571D01*
X82199048Y-87250667D02*
X82275239Y-87212571D01*
X82427620Y-87212571D01*
X82503810Y-87250667D01*
X82541905Y-87288762D01*
X82580001Y-87364952D01*
X82580001Y-87593524D01*
X82541905Y-87669714D01*
X82503810Y-87707810D01*
X82427620Y-87745905D01*
X82275239Y-87745905D01*
X82199048Y-87707810D01*
D12*
X82650000Y-112070000D03*
X82650000Y-83820000D03*
D13*
X87114000Y-95156400D03*
X87120200Y-100896800D03*
X87114000Y-106637200D03*
D14*
X92448000Y-83320000D03*
D15*
X92448000Y-80780000D03*
X89908000Y-83320000D03*
X89908000Y-80780000D03*
X87368000Y-83320000D03*
X87368000Y-80780000D03*
D16*
X104132000Y-107704000D03*
D17*
X92448000Y-104211500D03*
X92448000Y-106116500D03*
X92448000Y-110688500D03*
X92448000Y-108783500D03*
D18*
X81873980Y-96243140D03*
D19*
X83593560Y-96243140D03*
X81693640Y-99844860D03*
D10*
G36*
X84093940Y-98445320D02*
X84093940Y-101244400D01*
X83093180Y-101244400D01*
X83093180Y-98445320D01*
X84093940Y-98445320D01*
X84093940Y-98445320D01*
G37*
D14*
X95496000Y-118880000D03*
D15*
X95496000Y-116340000D03*
X98036000Y-118880000D03*
X98036000Y-116340000D03*
X100576000Y-118880000D03*
X100576000Y-116340000D03*
X103116000Y-118880000D03*
X103116000Y-116340000D03*
X105656000Y-118880000D03*
X105656000Y-116340000D03*
D14*
X95496000Y-83320000D03*
D15*
X95496000Y-80780000D03*
X98036000Y-83320000D03*
X98036000Y-80780000D03*
X100576000Y-83320000D03*
X100576000Y-80780000D03*
X103116000Y-83320000D03*
X103116000Y-80780000D03*
X105656000Y-83320000D03*
X105656000Y-80780000D03*
D17*
X105910000Y-101163500D03*
X105910000Y-103068500D03*
X103878000Y-101163500D03*
X103878000Y-103068500D03*
X101338000Y-101163500D03*
X101338000Y-103068500D03*
D20*
X92448000Y-102370000D03*
X92448000Y-92210000D03*
D17*
X92575000Y-98877500D03*
X92575000Y-96972500D03*
D13*
X87114000Y-89416000D03*
D21*
X88434800Y-119286400D03*
D20*
X88434800Y-116746400D03*
X88434800Y-114206400D03*
X88434800Y-111666400D03*
D22*
X96512000Y-102761160D03*
X96512000Y-111260000D03*
D23*
X94480000Y-98941000D03*
X95750000Y-98941000D03*
X97020000Y-98941000D03*
X98290000Y-98941000D03*
X99560000Y-98941000D03*
X100830000Y-98941000D03*
X102100000Y-98941000D03*
X103370000Y-98941000D03*
X104640000Y-98941000D03*
X105910000Y-98941000D03*
X105910000Y-89289000D03*
X104640000Y-89289000D03*
X103370000Y-89289000D03*
X102100000Y-89289000D03*
X100830000Y-89289000D03*
X99560000Y-89289000D03*
X98290000Y-89289000D03*
X97020000Y-89289000D03*
X95750000Y-89289000D03*
X94480000Y-89289000D03*
D24*
X82650000Y-85820000D03*
X83650000Y-85820000D03*
X84650000Y-85820000D03*
X81650000Y-85820000D03*
X80650000Y-85820000D03*
X82650000Y-110070000D03*
X81650000Y-110070000D03*
X80650000Y-110070000D03*
X83650000Y-110070000D03*
X84650000Y-110070000D03*
X84650000Y-82820000D03*
X84650000Y-81820000D03*
X84650000Y-83820000D03*
X84650000Y-84820000D03*
X84650000Y-112070000D03*
X84650000Y-111070000D03*
X84650000Y-113070000D03*
X84650000Y-114070000D03*
D25*
X91178000Y-97036000D03*
X93972000Y-108720000D03*
X93972000Y-106180000D03*
X94480000Y-87892000D03*
X82288000Y-93988000D03*
D26*
X103889581Y-103895030D03*
X105910000Y-103894000D03*
X101705285Y-103905908D03*
X91178000Y-93480000D03*
X91213900Y-90195803D03*
D25*
X100340160Y-104333040D03*
X94480000Y-100592000D03*
X104640000Y-87384000D03*
D26*
X100075919Y-100369780D03*
X102100000Y-96154031D03*
X100108947Y-92829980D03*
X96850904Y-92358630D03*
X98544000Y-91763980D03*
X89620116Y-103909424D03*
X87114000Y-98814000D03*
D27*
X92448000Y-92210000D02*
X89908000Y-92210000D01*
X89908000Y-92210000D02*
X87114000Y-89416000D01*
D28*
X92575000Y-96972500D02*
X91241500Y-96972500D01*
X91241500Y-96972500D02*
X91178000Y-97036000D01*
X92448000Y-108783500D02*
X93908500Y-108783500D01*
X93908500Y-108783500D02*
X93972000Y-108720000D01*
X92448000Y-106116500D02*
X93908500Y-106116500D01*
X93908500Y-106116500D02*
X93972000Y-106180000D01*
D29*
X94480000Y-89289000D02*
X94480000Y-87892000D01*
D28*
X81873980Y-96243140D02*
X81873980Y-94402020D01*
X81873980Y-94402020D02*
X82288000Y-93988000D01*
D29*
X97715999Y-88253999D02*
X97635999Y-88333999D01*
X97635999Y-88354000D02*
X97574000Y-88354000D01*
X97574000Y-88354000D02*
X97020000Y-88908000D01*
X100576000Y-80780000D02*
X101776101Y-81980101D01*
X101776101Y-81980101D02*
X101776101Y-84611639D01*
X101776101Y-84611639D02*
X98133741Y-88253999D01*
X98133741Y-88253999D02*
X97715999Y-88253999D01*
X97635999Y-88333999D02*
X97635999Y-88354000D01*
X97020000Y-88908000D02*
X97020000Y-89289000D01*
X98290000Y-88908000D02*
X98290000Y-89289000D01*
X103116000Y-83320000D02*
X103116000Y-84082000D01*
X103116000Y-84082000D02*
X98290000Y-88908000D01*
X99560000Y-88908000D02*
X99560000Y-89289000D01*
X104455899Y-82119899D02*
X104455899Y-83701035D01*
X104455899Y-83701035D02*
X100114000Y-88042934D01*
X103116000Y-80780000D02*
X104455899Y-82119899D01*
X100114000Y-88042934D02*
X100114000Y-88354000D01*
X100114000Y-88354000D02*
X99560000Y-88908000D01*
X100830000Y-88354000D02*
X100830000Y-89289000D01*
X100830000Y-88104767D02*
X100830000Y-88354000D01*
X105614767Y-83320000D02*
X100830000Y-88104767D01*
X105656000Y-83320000D02*
X105614767Y-83320000D01*
X102100000Y-87612600D02*
X102100000Y-89289000D01*
X105656000Y-80780000D02*
X106856101Y-81980101D01*
X106856101Y-81980101D02*
X106856101Y-84151899D01*
X106856101Y-84151899D02*
X106405680Y-84602320D01*
X106405680Y-84602320D02*
X105110280Y-84602320D01*
X105110280Y-84602320D02*
X102100000Y-87612600D01*
X103370000Y-98941000D02*
X103370000Y-99322000D01*
X103370000Y-99322000D02*
X102386501Y-100305499D01*
X102386501Y-100305499D02*
X102386501Y-106341497D01*
X102386501Y-106341497D02*
X102031999Y-106695999D01*
X102031999Y-106695999D02*
X102031999Y-112715999D01*
X102031999Y-112715999D02*
X104365161Y-115049161D01*
X104365161Y-115049161D02*
X104365161Y-117589161D01*
X104365161Y-117589161D02*
X104855901Y-118079901D01*
X104855901Y-118079901D02*
X105656000Y-118880000D01*
X103878000Y-103883449D02*
X103889581Y-103895030D01*
X103878000Y-103068500D02*
X103878000Y-103883449D01*
X105910000Y-103068500D02*
X105910000Y-103894000D01*
X101705285Y-103209215D02*
X101705285Y-103481644D01*
X101846000Y-103068500D02*
X101705285Y-103209215D01*
X101705285Y-103481644D02*
X101705285Y-103905908D01*
D27*
X88434800Y-116746400D02*
X86758400Y-116746400D01*
X86098000Y-107653200D02*
X87114000Y-106637200D01*
X86098000Y-116086000D02*
X86098000Y-107653200D01*
X86758400Y-116746400D02*
X86098000Y-116086000D01*
D29*
X98290000Y-98941000D02*
X98290000Y-96900882D01*
X98290000Y-96900882D02*
X94869118Y-93480000D01*
X94869118Y-93480000D02*
X91178000Y-93480000D01*
X99289481Y-117593481D02*
X99775901Y-118079901D01*
X98290000Y-99952106D02*
X99289481Y-100951587D01*
X99775901Y-118079901D02*
X100576000Y-118880000D01*
X98290000Y-98941000D02*
X98290000Y-99952106D01*
X99289481Y-100951587D02*
X99289481Y-117593481D01*
X91213900Y-89771539D02*
X91213900Y-90195803D01*
X91213900Y-87165900D02*
X91213900Y-89771539D01*
X87368000Y-83320000D02*
X91213900Y-87165900D01*
X94480000Y-103493670D02*
X93762170Y-104211500D01*
X93762170Y-104211500D02*
X92448000Y-104211500D01*
X96512000Y-102761160D02*
X95212510Y-102761160D01*
X95212510Y-102761160D02*
X94480000Y-103493670D01*
X95750000Y-98941000D02*
X95750000Y-101999160D01*
X95750000Y-101999160D02*
X96512000Y-102761160D01*
X100576000Y-83320000D02*
X100576000Y-84162460D01*
X100576000Y-84162460D02*
X95750000Y-88988460D01*
X95750000Y-88988460D02*
X95750000Y-89289000D01*
X99560000Y-98941000D02*
X99560000Y-99876000D01*
X100053780Y-100369780D02*
X100075919Y-100369780D01*
X99560000Y-99876000D02*
X100053780Y-100369780D01*
X104640000Y-100401500D02*
X104640000Y-98941000D01*
X103878000Y-101163500D02*
X104640000Y-100401500D01*
X98369895Y-95504011D02*
X104640000Y-95504011D01*
X105194000Y-98006000D02*
X104640000Y-98560000D01*
X105194000Y-96058011D02*
X105194000Y-98006000D01*
X92448000Y-83320000D02*
X92448000Y-89582116D01*
X92448000Y-89582116D02*
X98369895Y-95504011D01*
X104640000Y-95504011D02*
X105194000Y-96058011D01*
X104640000Y-98560000D02*
X104640000Y-98941000D01*
X100830000Y-100147500D02*
X100830000Y-99876000D01*
X100830000Y-99876000D02*
X100830000Y-98941000D01*
X101846000Y-101163500D02*
X100830000Y-100147500D01*
X100830000Y-98560000D02*
X100830000Y-98941000D01*
X100276000Y-98006000D02*
X100830000Y-98560000D01*
X89908000Y-83320000D02*
X91884118Y-85296118D01*
X100131756Y-98006000D02*
X100276000Y-98006000D01*
X91884118Y-85296118D02*
X91884118Y-89758362D01*
X91884118Y-89758362D02*
X100131756Y-98006000D01*
X105910000Y-101163500D02*
X105910000Y-98941000D01*
X104894000Y-95004000D02*
X105910000Y-96020000D01*
X105910000Y-96020000D02*
X105910000Y-98941000D01*
X98577006Y-95004000D02*
X104894000Y-95004000D01*
X93464000Y-86622000D02*
X93464000Y-89890994D01*
X93464000Y-89890994D02*
X98577006Y-95004000D01*
X93972000Y-86114000D02*
X93464000Y-86622000D01*
X93972000Y-82562998D02*
X93972000Y-86114000D01*
X91178000Y-82050000D02*
X93459002Y-82050000D01*
X93459002Y-82050000D02*
X93972000Y-82562998D01*
X89908000Y-80780000D02*
X91178000Y-82050000D01*
X102100000Y-98941000D02*
X102100000Y-96154031D01*
X100533211Y-92829980D02*
X100108947Y-92829980D01*
X103304020Y-92829980D02*
X100533211Y-92829980D01*
X105910000Y-90224000D02*
X103304020Y-92829980D01*
X105910000Y-89289000D02*
X105910000Y-90224000D01*
X97150903Y-92658629D02*
X96850904Y-92358630D01*
X99824018Y-92179978D02*
X99345367Y-92658629D01*
X99345367Y-92658629D02*
X97150903Y-92658629D01*
X103019237Y-92179978D02*
X99824018Y-92179978D01*
X104640000Y-90559215D02*
X103019237Y-92179978D01*
X104640000Y-89289000D02*
X104640000Y-90559215D01*
X103370000Y-91122093D02*
X102812126Y-91679967D01*
X103370000Y-89289000D02*
X103370000Y-91122093D01*
X102812126Y-91679967D02*
X99052277Y-91679967D01*
X99052277Y-91679967D02*
X98968264Y-91763980D01*
X98968264Y-91763980D02*
X98544000Y-91763980D01*
X97574000Y-99943228D02*
X97574000Y-99876000D01*
X96512000Y-111260000D02*
X96512000Y-108709560D01*
X96512000Y-108709560D02*
X97911491Y-107310069D01*
X97911491Y-107310069D02*
X97911491Y-100280719D01*
X97911491Y-100280719D02*
X97574000Y-99943228D01*
X97574000Y-99876000D02*
X97020000Y-99322000D01*
X97020000Y-99322000D02*
X97020000Y-98941000D01*
X92448000Y-110688500D02*
X95940500Y-110688500D01*
X95940500Y-110688500D02*
X96512000Y-111260000D01*
X89195852Y-103909424D02*
X89620116Y-103909424D01*
X84859044Y-103909424D02*
X89195852Y-103909424D01*
X81693640Y-100744020D02*
X84859044Y-103909424D01*
X81693640Y-99844860D02*
X81693640Y-100744020D01*
X81693640Y-99844860D02*
X81693640Y-101013640D01*
X81693640Y-101013640D02*
X83050000Y-102370000D01*
X83050000Y-102370000D02*
X85647000Y-102370000D01*
X81693640Y-99844860D02*
X81693640Y-99154360D01*
X85647000Y-102370000D02*
X87120200Y-100896800D01*
X83593560Y-99844860D02*
X83593560Y-98524440D01*
X83593560Y-98524440D02*
X84066000Y-98052000D01*
X85336000Y-98052000D02*
X87114000Y-96274000D01*
X84066000Y-98052000D02*
X85336000Y-98052000D01*
X87114000Y-96274000D02*
X87114000Y-95156400D01*
X87114000Y-98814000D02*
X84624420Y-98814000D01*
X84624420Y-98814000D02*
X83593560Y-99844860D01*
D30*
G36*
X106801000Y-81253248D02*
X106715148Y-81167396D01*
X106728746Y-81136855D01*
X106777629Y-80921695D01*
X106781148Y-80669678D01*
X106738292Y-80453237D01*
X106654211Y-80249242D01*
X106532109Y-80065463D01*
X106376636Y-79908901D01*
X106193714Y-79785519D01*
X105990311Y-79700016D01*
X105774174Y-79655649D01*
X105553536Y-79654109D01*
X105336801Y-79695453D01*
X105132223Y-79778108D01*
X104947597Y-79898924D01*
X104789953Y-80053300D01*
X104665297Y-80235356D01*
X104578376Y-80438158D01*
X104532502Y-80653979D01*
X104529421Y-80874601D01*
X104569251Y-81091620D01*
X104650476Y-81296769D01*
X104770000Y-81482235D01*
X104923272Y-81640953D01*
X105104453Y-81766877D01*
X105306643Y-81855211D01*
X105522139Y-81902591D01*
X105742734Y-81907212D01*
X105960026Y-81868898D01*
X106041532Y-81837284D01*
X106381101Y-82176853D01*
X106381101Y-82453397D01*
X106376636Y-82448901D01*
X106193714Y-82325519D01*
X105990311Y-82240016D01*
X105774174Y-82195649D01*
X105553536Y-82194109D01*
X105336801Y-82235453D01*
X105132223Y-82318108D01*
X104947597Y-82438924D01*
X104930899Y-82455276D01*
X104930899Y-82119899D01*
X104926615Y-82076208D01*
X104922793Y-82032522D01*
X104922097Y-82030126D01*
X104921853Y-82027638D01*
X104909161Y-81985602D01*
X104896929Y-81943499D01*
X104895780Y-81941282D01*
X104895058Y-81938891D01*
X104874446Y-81900125D01*
X104854267Y-81861195D01*
X104852711Y-81859245D01*
X104851537Y-81857038D01*
X104823796Y-81823025D01*
X104796431Y-81788745D01*
X104793003Y-81785269D01*
X104792945Y-81785198D01*
X104792879Y-81785143D01*
X104791774Y-81784023D01*
X104175148Y-81167397D01*
X104188746Y-81136855D01*
X104237629Y-80921695D01*
X104241148Y-80669678D01*
X104198292Y-80453237D01*
X104114211Y-80249242D01*
X103992109Y-80065463D01*
X103836636Y-79908901D01*
X103653714Y-79785519D01*
X103450311Y-79700016D01*
X103234174Y-79655649D01*
X103013536Y-79654109D01*
X102796801Y-79695453D01*
X102592223Y-79778108D01*
X102407597Y-79898924D01*
X102249953Y-80053300D01*
X102125297Y-80235356D01*
X102038376Y-80438158D01*
X101992502Y-80653979D01*
X101989421Y-80874601D01*
X102029251Y-81091620D01*
X102110476Y-81296769D01*
X102230000Y-81482235D01*
X102383272Y-81640953D01*
X102564453Y-81766877D01*
X102766643Y-81855211D01*
X102982139Y-81902591D01*
X103202734Y-81907212D01*
X103420026Y-81868898D01*
X103501532Y-81837284D01*
X103980899Y-82316650D01*
X103980899Y-82594174D01*
X103836636Y-82448901D01*
X103653714Y-82325519D01*
X103450311Y-82240016D01*
X103234174Y-82195649D01*
X103013536Y-82194109D01*
X102796801Y-82235453D01*
X102592223Y-82318108D01*
X102407597Y-82438924D01*
X102251101Y-82592176D01*
X102251101Y-81980101D01*
X102246817Y-81936410D01*
X102242995Y-81892724D01*
X102242299Y-81890328D01*
X102242055Y-81887840D01*
X102229363Y-81845804D01*
X102217131Y-81803701D01*
X102215982Y-81801484D01*
X102215260Y-81799093D01*
X102194648Y-81760327D01*
X102174469Y-81721397D01*
X102172913Y-81719447D01*
X102171739Y-81717240D01*
X102144023Y-81683257D01*
X102116634Y-81648947D01*
X102113200Y-81645465D01*
X102113147Y-81645400D01*
X102113086Y-81645350D01*
X102111977Y-81644225D01*
X101635148Y-81167396D01*
X101648746Y-81136855D01*
X101697629Y-80921695D01*
X101701148Y-80669678D01*
X101658292Y-80453237D01*
X101574211Y-80249242D01*
X101452109Y-80065463D01*
X101296636Y-79908901D01*
X101113714Y-79785519D01*
X100910311Y-79700016D01*
X100694174Y-79655649D01*
X100473536Y-79654109D01*
X100256801Y-79695453D01*
X100052223Y-79778108D01*
X99867597Y-79898924D01*
X99709953Y-80053300D01*
X99585297Y-80235356D01*
X99498376Y-80438158D01*
X99460542Y-80616153D01*
X99432407Y-80428223D01*
X99336947Y-80162556D01*
X99272152Y-80041336D01*
X99028973Y-79969460D01*
X98218434Y-80780000D01*
X99028973Y-81590540D01*
X99272152Y-81518664D01*
X99392506Y-81263310D01*
X99460730Y-80989382D01*
X99462746Y-80947202D01*
X99489251Y-81091620D01*
X99570476Y-81296769D01*
X99690000Y-81482235D01*
X99843272Y-81640953D01*
X100024453Y-81766877D01*
X100226643Y-81855211D01*
X100442139Y-81902591D01*
X100662734Y-81907212D01*
X100880026Y-81868898D01*
X100961532Y-81837284D01*
X101301101Y-82176853D01*
X101301101Y-82453397D01*
X101296636Y-82448901D01*
X101113714Y-82325519D01*
X100910311Y-82240016D01*
X100694174Y-82195649D01*
X100473536Y-82194109D01*
X100256801Y-82235453D01*
X100052223Y-82318108D01*
X99867597Y-82438924D01*
X99709953Y-82593300D01*
X99585297Y-82775356D01*
X99498376Y-82978158D01*
X99460542Y-83156153D01*
X99432407Y-82968223D01*
X99336947Y-82702556D01*
X99272152Y-82581336D01*
X99028973Y-82509460D01*
X98218434Y-83320000D01*
X99028973Y-84130540D01*
X99272152Y-84058664D01*
X99392506Y-83803310D01*
X99460730Y-83529382D01*
X99462746Y-83487202D01*
X99489251Y-83631620D01*
X99570476Y-83836769D01*
X99690000Y-84022235D01*
X99843272Y-84180953D01*
X99868336Y-84198373D01*
X95739280Y-88327428D01*
X95496000Y-88327428D01*
X95444245Y-88331555D01*
X95356463Y-88358740D01*
X95279730Y-88409303D01*
X95220121Y-88479242D01*
X95182357Y-88563019D01*
X95169428Y-88654000D01*
X95169428Y-89924000D01*
X95173555Y-89975755D01*
X95200740Y-90063537D01*
X95251303Y-90140270D01*
X95321242Y-90199879D01*
X95405019Y-90237643D01*
X95496000Y-90250572D01*
X96004000Y-90250572D01*
X96055755Y-90246445D01*
X96143537Y-90219260D01*
X96220270Y-90168697D01*
X96279879Y-90098758D01*
X96317643Y-90014981D01*
X96330572Y-89924000D01*
X96330572Y-89079640D01*
X96439428Y-88970784D01*
X96439428Y-89924000D01*
X96443555Y-89975755D01*
X96470740Y-90063537D01*
X96521303Y-90140270D01*
X96591242Y-90199879D01*
X96675019Y-90237643D01*
X96766000Y-90250572D01*
X97274000Y-90250572D01*
X97325755Y-90246445D01*
X97413537Y-90219260D01*
X97490270Y-90168697D01*
X97549879Y-90098758D01*
X97587643Y-90014981D01*
X97600572Y-89924000D01*
X97600572Y-88999180D01*
X97709428Y-88890323D01*
X97709428Y-89924000D01*
X97713555Y-89975755D01*
X97740740Y-90063537D01*
X97791303Y-90140270D01*
X97861242Y-90199879D01*
X97945019Y-90237643D01*
X98036000Y-90250572D01*
X98544000Y-90250572D01*
X98595755Y-90246445D01*
X98683537Y-90219260D01*
X98760270Y-90168697D01*
X98819879Y-90098758D01*
X98857643Y-90014981D01*
X98870572Y-89924000D01*
X98870572Y-88999180D01*
X98979428Y-88890324D01*
X98979428Y-89924000D01*
X98983555Y-89975755D01*
X99010740Y-90063537D01*
X99061303Y-90140270D01*
X99131242Y-90199879D01*
X99215019Y-90237643D01*
X99306000Y-90250572D01*
X99814000Y-90250572D01*
X99865755Y-90246445D01*
X99953537Y-90219260D01*
X100030270Y-90168697D01*
X100089879Y-90098758D01*
X100127643Y-90014981D01*
X100140572Y-89924000D01*
X100140572Y-88999180D01*
X100249428Y-88890323D01*
X100249428Y-89924000D01*
X100253555Y-89975755D01*
X100280740Y-90063537D01*
X100331303Y-90140270D01*
X100401242Y-90199879D01*
X100485019Y-90237643D01*
X100576000Y-90250572D01*
X101084000Y-90250572D01*
X101135755Y-90246445D01*
X101223537Y-90219260D01*
X101300270Y-90168697D01*
X101359879Y-90098758D01*
X101397643Y-90014981D01*
X101410572Y-89924000D01*
X101410572Y-88654000D01*
X101406445Y-88602245D01*
X101379260Y-88514463D01*
X101328697Y-88437730D01*
X101305000Y-88417533D01*
X101305000Y-88301519D01*
X101625000Y-87981519D01*
X101625000Y-88414853D01*
X101570121Y-88479242D01*
X101532357Y-88563019D01*
X101519428Y-88654000D01*
X101519428Y-89924000D01*
X101523555Y-89975755D01*
X101550740Y-90063537D01*
X101601303Y-90140270D01*
X101671242Y-90199879D01*
X101755019Y-90237643D01*
X101846000Y-90250572D01*
X102354000Y-90250572D01*
X102405755Y-90246445D01*
X102493537Y-90219260D01*
X102570270Y-90168697D01*
X102629879Y-90098758D01*
X102667643Y-90014981D01*
X102680572Y-89924000D01*
X102680572Y-88654000D01*
X102676445Y-88602245D01*
X102649260Y-88514463D01*
X102598697Y-88437730D01*
X102575000Y-88417533D01*
X102575000Y-87809352D01*
X105307032Y-85077320D01*
X106405680Y-85077320D01*
X106449371Y-85073036D01*
X106493057Y-85069214D01*
X106495453Y-85068518D01*
X106497941Y-85068274D01*
X106539977Y-85055582D01*
X106582080Y-85043350D01*
X106584297Y-85042201D01*
X106586688Y-85041479D01*
X106625454Y-85020867D01*
X106664384Y-85000688D01*
X106666334Y-84999132D01*
X106668541Y-84997958D01*
X106702524Y-84970242D01*
X106736834Y-84942853D01*
X106740316Y-84939419D01*
X106740381Y-84939366D01*
X106740431Y-84939305D01*
X106741556Y-84938196D01*
X106801000Y-84878752D01*
X106801000Y-100458243D01*
X106783258Y-100443121D01*
X106699481Y-100405357D01*
X106608500Y-100392428D01*
X106385000Y-100392428D01*
X106385000Y-99815147D01*
X106439879Y-99750758D01*
X106477643Y-99666981D01*
X106490572Y-99576000D01*
X106490572Y-98306000D01*
X106486445Y-98254245D01*
X106459260Y-98166463D01*
X106408697Y-98089730D01*
X106385000Y-98069533D01*
X106385000Y-96020000D01*
X106380716Y-95976305D01*
X106376894Y-95932623D01*
X106376198Y-95930227D01*
X106375954Y-95927739D01*
X106363253Y-95885672D01*
X106351030Y-95843600D01*
X106349881Y-95841383D01*
X106349159Y-95838992D01*
X106328536Y-95800206D01*
X106308368Y-95761297D01*
X106306813Y-95759349D01*
X106305638Y-95757139D01*
X106277904Y-95723135D01*
X106250533Y-95688846D01*
X106247099Y-95685364D01*
X106247046Y-95685299D01*
X106246985Y-95685249D01*
X106245876Y-95684124D01*
X105229876Y-94668124D01*
X105195936Y-94640245D01*
X105162359Y-94612071D01*
X105160174Y-94610870D01*
X105158241Y-94609282D01*
X105119557Y-94588541D01*
X105081122Y-94567411D01*
X105078739Y-94566655D01*
X105076540Y-94565476D01*
X105034583Y-94552648D01*
X104992758Y-94539380D01*
X104990278Y-94539102D01*
X104987888Y-94538371D01*
X104944236Y-94533937D01*
X104900632Y-94529046D01*
X104895748Y-94529012D01*
X104895658Y-94529003D01*
X104895574Y-94529011D01*
X104894000Y-94529000D01*
X98773757Y-94529000D01*
X97378386Y-93133629D01*
X99345367Y-93133629D01*
X99389058Y-93129345D01*
X99432744Y-93125523D01*
X99435140Y-93124827D01*
X99437628Y-93124583D01*
X99479664Y-93111891D01*
X99521767Y-93099659D01*
X99523984Y-93098510D01*
X99526375Y-93097788D01*
X99539899Y-93090597D01*
X99550372Y-93117048D01*
X99616769Y-93220076D01*
X99701912Y-93308244D01*
X99802559Y-93378196D01*
X99914877Y-93427266D01*
X100034586Y-93453586D01*
X100157128Y-93456153D01*
X100277835Y-93434869D01*
X100392109Y-93390545D01*
X100495597Y-93324870D01*
X100516484Y-93304980D01*
X103304020Y-93304980D01*
X103347711Y-93300696D01*
X103391397Y-93296874D01*
X103393793Y-93296178D01*
X103396281Y-93295934D01*
X103438317Y-93283242D01*
X103480420Y-93271010D01*
X103482637Y-93269861D01*
X103485028Y-93269139D01*
X103523794Y-93248527D01*
X103562724Y-93228348D01*
X103564674Y-93226792D01*
X103566881Y-93225618D01*
X103600864Y-93197902D01*
X103635174Y-93170513D01*
X103638656Y-93167079D01*
X103638721Y-93167026D01*
X103638771Y-93166965D01*
X103639896Y-93165856D01*
X106245876Y-90559876D01*
X106273733Y-90525962D01*
X106301929Y-90492359D01*
X106303132Y-90490170D01*
X106304717Y-90488241D01*
X106325448Y-90449577D01*
X106346589Y-90411122D01*
X106347344Y-90408741D01*
X106348524Y-90406541D01*
X106361357Y-90364569D01*
X106374620Y-90322758D01*
X106374898Y-90320278D01*
X106375629Y-90317888D01*
X106380063Y-90274236D01*
X106384954Y-90230632D01*
X106384988Y-90225748D01*
X106384997Y-90225658D01*
X106384989Y-90225574D01*
X106385000Y-90224000D01*
X106385000Y-90163147D01*
X106439879Y-90098758D01*
X106477643Y-90014981D01*
X106490572Y-89924000D01*
X106490572Y-88654000D01*
X106486445Y-88602245D01*
X106459260Y-88514463D01*
X106408697Y-88437730D01*
X106338758Y-88378121D01*
X106254981Y-88340357D01*
X106164000Y-88327428D01*
X105656000Y-88327428D01*
X105604245Y-88331555D01*
X105516463Y-88358740D01*
X105439730Y-88409303D01*
X105380121Y-88479242D01*
X105342357Y-88563019D01*
X105329428Y-88654000D01*
X105329428Y-89924000D01*
X105333555Y-89975755D01*
X105360740Y-90063537D01*
X105375822Y-90086426D01*
X105115000Y-90347248D01*
X105115000Y-90163147D01*
X105169879Y-90098758D01*
X105207643Y-90014981D01*
X105220572Y-89924000D01*
X105220572Y-88654000D01*
X105216445Y-88602245D01*
X105189260Y-88514463D01*
X105138697Y-88437730D01*
X105068758Y-88378121D01*
X104984981Y-88340357D01*
X104894000Y-88327428D01*
X104386000Y-88327428D01*
X104334245Y-88331555D01*
X104246463Y-88358740D01*
X104169730Y-88409303D01*
X104110121Y-88479242D01*
X104072357Y-88563019D01*
X104059428Y-88654000D01*
X104059428Y-89924000D01*
X104063555Y-89975755D01*
X104090740Y-90063537D01*
X104141303Y-90140270D01*
X104165000Y-90160467D01*
X104165000Y-90362463D01*
X103845000Y-90682463D01*
X103845000Y-90163147D01*
X103899879Y-90098758D01*
X103937643Y-90014981D01*
X103950572Y-89924000D01*
X103950572Y-88654000D01*
X103946445Y-88602245D01*
X103919260Y-88514463D01*
X103868697Y-88437730D01*
X103798758Y-88378121D01*
X103714981Y-88340357D01*
X103624000Y-88327428D01*
X103116000Y-88327428D01*
X103064245Y-88331555D01*
X102976463Y-88358740D01*
X102899730Y-88409303D01*
X102840121Y-88479242D01*
X102802357Y-88563019D01*
X102789428Y-88654000D01*
X102789428Y-89924000D01*
X102793555Y-89975755D01*
X102820740Y-90063537D01*
X102871303Y-90140270D01*
X102895000Y-90160467D01*
X102895000Y-90925341D01*
X102615374Y-91204967D01*
X99052277Y-91204967D01*
X99008586Y-91209251D01*
X98964900Y-91213073D01*
X98962504Y-91213769D01*
X98960016Y-91214013D01*
X98917980Y-91226705D01*
X98881080Y-91237425D01*
X98842703Y-91211540D01*
X98729712Y-91164042D01*
X98609646Y-91139396D01*
X98487081Y-91138541D01*
X98366683Y-91161508D01*
X98253039Y-91207423D01*
X98150478Y-91274537D01*
X98062906Y-91360294D01*
X97993658Y-91461427D01*
X97945373Y-91574084D01*
X97919890Y-91693975D01*
X97918179Y-91816532D01*
X97940305Y-91937087D01*
X97985425Y-92051048D01*
X98051822Y-92154076D01*
X98080361Y-92183629D01*
X97453415Y-92183629D01*
X97452124Y-92177111D01*
X97405416Y-92063791D01*
X97337588Y-91961700D01*
X97251222Y-91874729D01*
X97149607Y-91806190D01*
X97036616Y-91758692D01*
X96916550Y-91734046D01*
X96793985Y-91733191D01*
X96673587Y-91756158D01*
X96559943Y-91802073D01*
X96457382Y-91869187D01*
X96369810Y-91954944D01*
X96300673Y-92055915D01*
X94495330Y-90250572D01*
X94734000Y-90250572D01*
X94785755Y-90246445D01*
X94873537Y-90219260D01*
X94950270Y-90168697D01*
X95009879Y-90098758D01*
X95047643Y-90014981D01*
X95060572Y-89924000D01*
X95060572Y-88654000D01*
X95056445Y-88602245D01*
X95029260Y-88514463D01*
X94978697Y-88437730D01*
X94967921Y-88428545D01*
X95031477Y-88368022D01*
X95113434Y-88251841D01*
X95171264Y-88121953D01*
X95202763Y-87983306D01*
X95205031Y-87820910D01*
X95177415Y-87681438D01*
X95123234Y-87549986D01*
X95044553Y-87431562D01*
X94944368Y-87330675D01*
X94826496Y-87251169D01*
X94695426Y-87196072D01*
X94556150Y-87167483D01*
X94413973Y-87166490D01*
X94274312Y-87193132D01*
X94142485Y-87246394D01*
X94023514Y-87324246D01*
X93939000Y-87407008D01*
X93939000Y-86818752D01*
X94307875Y-86449876D01*
X94335708Y-86415992D01*
X94363929Y-86382359D01*
X94365132Y-86380170D01*
X94366717Y-86378241D01*
X94387448Y-86339577D01*
X94408589Y-86301122D01*
X94409344Y-86298741D01*
X94410524Y-86296541D01*
X94423357Y-86254569D01*
X94436620Y-86212758D01*
X94436898Y-86210278D01*
X94437629Y-86207888D01*
X94442063Y-86164232D01*
X94446954Y-86120632D01*
X94446988Y-86115749D01*
X94446997Y-86115659D01*
X94446989Y-86115575D01*
X94447000Y-86114000D01*
X94447000Y-84379836D01*
X94495742Y-84421379D01*
X94579519Y-84459143D01*
X94670500Y-84472072D01*
X96321500Y-84472072D01*
X96373255Y-84467945D01*
X96461037Y-84440760D01*
X96537770Y-84390197D01*
X96597379Y-84320258D01*
X96600662Y-84312973D01*
X97225460Y-84312973D01*
X97297336Y-84556152D01*
X97552690Y-84676506D01*
X97826618Y-84744730D01*
X98108592Y-84758204D01*
X98387777Y-84716407D01*
X98653444Y-84620947D01*
X98774664Y-84556152D01*
X98846540Y-84312973D01*
X98036000Y-83502434D01*
X97225460Y-84312973D01*
X96600662Y-84312973D01*
X96635143Y-84236481D01*
X96648072Y-84145500D01*
X96648072Y-83695374D01*
X96735053Y-83937444D01*
X96799848Y-84058664D01*
X97043027Y-84130540D01*
X97853566Y-83320000D01*
X97043027Y-82509460D01*
X96799848Y-82581336D01*
X96679494Y-82836690D01*
X96648072Y-82962853D01*
X96648072Y-82494500D01*
X96643945Y-82442745D01*
X96616760Y-82354963D01*
X96566197Y-82278230D01*
X96496258Y-82218621D01*
X96412481Y-82180857D01*
X96321500Y-82167928D01*
X94670500Y-82167928D01*
X94618745Y-82172055D01*
X94530963Y-82199240D01*
X94454230Y-82249803D01*
X94394621Y-82319742D01*
X94387065Y-82336505D01*
X94370369Y-82304295D01*
X94368811Y-82302344D01*
X94367638Y-82300137D01*
X94339907Y-82266136D01*
X94312533Y-82231845D01*
X94309101Y-82228364D01*
X94309046Y-82228297D01*
X94308984Y-82228246D01*
X94307876Y-82227122D01*
X93794878Y-81714124D01*
X93760938Y-81686245D01*
X93727361Y-81658071D01*
X93725176Y-81656870D01*
X93723243Y-81655282D01*
X93684559Y-81634541D01*
X93646124Y-81613411D01*
X93643741Y-81612655D01*
X93641542Y-81611476D01*
X93599585Y-81598648D01*
X93557760Y-81585380D01*
X93555280Y-81585102D01*
X93552890Y-81584371D01*
X93509238Y-81579937D01*
X93485757Y-81577303D01*
X93684152Y-81518664D01*
X93804506Y-81263310D01*
X93872730Y-80989382D01*
X93878214Y-80874601D01*
X94369421Y-80874601D01*
X94409251Y-81091620D01*
X94490476Y-81296769D01*
X94610000Y-81482235D01*
X94763272Y-81640953D01*
X94944453Y-81766877D01*
X95146643Y-81855211D01*
X95362139Y-81902591D01*
X95582734Y-81907212D01*
X95800026Y-81868898D01*
X96005737Y-81789108D01*
X96031161Y-81772973D01*
X97225460Y-81772973D01*
X97297336Y-82016152D01*
X97364639Y-82047873D01*
X97297336Y-82083848D01*
X97225460Y-82327027D01*
X98036000Y-83137566D01*
X98846540Y-82327027D01*
X98774664Y-82083848D01*
X98707361Y-82052127D01*
X98774664Y-82016152D01*
X98846540Y-81772973D01*
X98036000Y-80962434D01*
X97225460Y-81772973D01*
X96031161Y-81772973D01*
X96192032Y-81670881D01*
X96351816Y-81518721D01*
X96479002Y-81338423D01*
X96568746Y-81136855D01*
X96611910Y-80946867D01*
X96639593Y-81131777D01*
X96735053Y-81397444D01*
X96799848Y-81518664D01*
X97043027Y-81590540D01*
X97853566Y-80780000D01*
X97043027Y-79969460D01*
X96799848Y-80041336D01*
X96679494Y-80296690D01*
X96611270Y-80570618D01*
X96609377Y-80610230D01*
X96578292Y-80453237D01*
X96494211Y-80249242D01*
X96372109Y-80065463D01*
X96216636Y-79908901D01*
X96035950Y-79787027D01*
X97225460Y-79787027D01*
X98036000Y-80597566D01*
X98846540Y-79787027D01*
X98774664Y-79543848D01*
X98519310Y-79423494D01*
X98245382Y-79355270D01*
X97963408Y-79341796D01*
X97684223Y-79383593D01*
X97418556Y-79479053D01*
X97297336Y-79543848D01*
X97225460Y-79787027D01*
X96035950Y-79787027D01*
X96033714Y-79785519D01*
X95830311Y-79700016D01*
X95614174Y-79655649D01*
X95393536Y-79654109D01*
X95176801Y-79695453D01*
X94972223Y-79778108D01*
X94787597Y-79898924D01*
X94629953Y-80053300D01*
X94505297Y-80235356D01*
X94418376Y-80438158D01*
X94372502Y-80653979D01*
X94369421Y-80874601D01*
X93878214Y-80874601D01*
X93886204Y-80707408D01*
X93844407Y-80428223D01*
X93748947Y-80162556D01*
X93684152Y-80041336D01*
X93440973Y-79969460D01*
X92630434Y-80780000D01*
X92644576Y-80794142D01*
X92462142Y-80976576D01*
X92448000Y-80962434D01*
X92433858Y-80976576D01*
X92251424Y-80794142D01*
X92265566Y-80780000D01*
X91455027Y-79969460D01*
X91211848Y-80041336D01*
X91091494Y-80296690D01*
X91023270Y-80570618D01*
X91021377Y-80610230D01*
X90990292Y-80453237D01*
X90906211Y-80249242D01*
X90784109Y-80065463D01*
X90628636Y-79908901D01*
X90447950Y-79787027D01*
X91637460Y-79787027D01*
X92448000Y-80597566D01*
X93258540Y-79787027D01*
X93186664Y-79543848D01*
X92931310Y-79423494D01*
X92657382Y-79355270D01*
X92375408Y-79341796D01*
X92096223Y-79383593D01*
X91830556Y-79479053D01*
X91709336Y-79543848D01*
X91637460Y-79787027D01*
X90447950Y-79787027D01*
X90445714Y-79785519D01*
X90242311Y-79700016D01*
X90026174Y-79655649D01*
X89805536Y-79654109D01*
X89588801Y-79695453D01*
X89384223Y-79778108D01*
X89199597Y-79898924D01*
X89041953Y-80053300D01*
X88917297Y-80235356D01*
X88830376Y-80438158D01*
X88784502Y-80653979D01*
X88781421Y-80874601D01*
X88821251Y-81091620D01*
X88902476Y-81296769D01*
X89022000Y-81482235D01*
X89175272Y-81640953D01*
X89356453Y-81766877D01*
X89558643Y-81855211D01*
X89774139Y-81902591D01*
X89994734Y-81907212D01*
X90212026Y-81868898D01*
X90293532Y-81837284D01*
X90842124Y-82385876D01*
X90876038Y-82413733D01*
X90909641Y-82441929D01*
X90911830Y-82443132D01*
X90913759Y-82444717D01*
X90952404Y-82465438D01*
X90990878Y-82486589D01*
X90993261Y-82487345D01*
X90995460Y-82488524D01*
X91037417Y-82501352D01*
X91079242Y-82514620D01*
X91081722Y-82514898D01*
X91084112Y-82515629D01*
X91127764Y-82520063D01*
X91171368Y-82524954D01*
X91176252Y-82524988D01*
X91176342Y-82524997D01*
X91176426Y-82524989D01*
X91178000Y-82525000D01*
X91295928Y-82525000D01*
X91295928Y-84036176D01*
X90967148Y-83707396D01*
X90980746Y-83676855D01*
X91029629Y-83461695D01*
X91033148Y-83209678D01*
X90990292Y-82993237D01*
X90906211Y-82789242D01*
X90784109Y-82605463D01*
X90628636Y-82448901D01*
X90445714Y-82325519D01*
X90242311Y-82240016D01*
X90026174Y-82195649D01*
X89805536Y-82194109D01*
X89588801Y-82235453D01*
X89384223Y-82318108D01*
X89199597Y-82438924D01*
X89041953Y-82593300D01*
X88917297Y-82775356D01*
X88830376Y-82978158D01*
X88784502Y-83193979D01*
X88781421Y-83414601D01*
X88821251Y-83631620D01*
X88902476Y-83836769D01*
X89022000Y-84022235D01*
X89175272Y-84180953D01*
X89356453Y-84306877D01*
X89558643Y-84395211D01*
X89774139Y-84442591D01*
X89994734Y-84447212D01*
X90212026Y-84408898D01*
X90293532Y-84377284D01*
X91409118Y-85492870D01*
X91409118Y-86689366D01*
X88427148Y-83707396D01*
X88440746Y-83676855D01*
X88489629Y-83461695D01*
X88493148Y-83209678D01*
X88450292Y-82993237D01*
X88366211Y-82789242D01*
X88244109Y-82605463D01*
X88088636Y-82448901D01*
X87905714Y-82325519D01*
X87702311Y-82240016D01*
X87486174Y-82195649D01*
X87265536Y-82194109D01*
X87048801Y-82235453D01*
X86844223Y-82318108D01*
X86659597Y-82438924D01*
X86501953Y-82593300D01*
X86377297Y-82775356D01*
X86290376Y-82978158D01*
X86244502Y-83193979D01*
X86241421Y-83414601D01*
X86281251Y-83631620D01*
X86362476Y-83836769D01*
X86482000Y-84022235D01*
X86635272Y-84180953D01*
X86816453Y-84306877D01*
X87018643Y-84395211D01*
X87234139Y-84442591D01*
X87454734Y-84447212D01*
X87672026Y-84408898D01*
X87753532Y-84377284D01*
X90738900Y-87362652D01*
X90738900Y-89786149D01*
X90732806Y-89792117D01*
X90663558Y-89893250D01*
X90615273Y-90005907D01*
X90589790Y-90125798D01*
X90588079Y-90248355D01*
X90610205Y-90368910D01*
X90655325Y-90482871D01*
X90721722Y-90585899D01*
X90806865Y-90674067D01*
X90907512Y-90744019D01*
X91019830Y-90793089D01*
X91139539Y-90819409D01*
X91262081Y-90821976D01*
X91382788Y-90800692D01*
X91497062Y-90756368D01*
X91600550Y-90690693D01*
X91689311Y-90606167D01*
X91759964Y-90506010D01*
X91809817Y-90394038D01*
X91816894Y-90362890D01*
X92581746Y-91127742D01*
X92562172Y-91123724D01*
X92349006Y-91122235D01*
X92139610Y-91162180D01*
X91941960Y-91242035D01*
X91763586Y-91358760D01*
X91611280Y-91507909D01*
X91558495Y-91585000D01*
X90166884Y-91585000D01*
X88594424Y-90012540D01*
X88634781Y-89921896D01*
X88704080Y-89616874D01*
X88709069Y-89259602D01*
X88648313Y-88952764D01*
X88529116Y-88663569D01*
X88356017Y-88403035D01*
X88135611Y-88181085D01*
X87876291Y-88006171D01*
X87587937Y-87884958D01*
X87281530Y-87822062D01*
X86968742Y-87819878D01*
X86661486Y-87878490D01*
X86371467Y-87995666D01*
X86109731Y-88166941D01*
X85886247Y-88385793D01*
X85709528Y-88643885D01*
X85586304Y-88931386D01*
X85521270Y-89237347D01*
X85516903Y-89550112D01*
X85573369Y-89857769D01*
X85688516Y-90148599D01*
X85857960Y-90411525D01*
X86075247Y-90636531D01*
X86332099Y-90815048D01*
X86618733Y-90940275D01*
X86924232Y-91007444D01*
X87236959Y-91013994D01*
X87545003Y-90959678D01*
X87709853Y-90895737D01*
X89466058Y-92651942D01*
X89510688Y-92688601D01*
X89554896Y-92725696D01*
X89557775Y-92727279D01*
X89560315Y-92729365D01*
X89611147Y-92756621D01*
X89661786Y-92784460D01*
X89664924Y-92785456D01*
X89667816Y-92787006D01*
X89723010Y-92803881D01*
X89778055Y-92821342D01*
X89781317Y-92821708D01*
X89784464Y-92822670D01*
X89841937Y-92828508D01*
X89899274Y-92834939D01*
X89905699Y-92834984D01*
X89905818Y-92834996D01*
X89905929Y-92834986D01*
X89908000Y-92835000D01*
X91557554Y-92835000D01*
X91592003Y-92888455D01*
X91704549Y-93005000D01*
X91587157Y-93005000D01*
X91578318Y-92996099D01*
X91476703Y-92927560D01*
X91363712Y-92880062D01*
X91243646Y-92855416D01*
X91121081Y-92854561D01*
X91000683Y-92877528D01*
X90887039Y-92923443D01*
X90784478Y-92990557D01*
X90696906Y-93076314D01*
X90627658Y-93177447D01*
X90579373Y-93290104D01*
X90553890Y-93409995D01*
X90552179Y-93532552D01*
X90574305Y-93653107D01*
X90619425Y-93767068D01*
X90685822Y-93870096D01*
X90770965Y-93958264D01*
X90871612Y-94028216D01*
X90983930Y-94077286D01*
X91103639Y-94103606D01*
X91226181Y-94106173D01*
X91346888Y-94084889D01*
X91461162Y-94040565D01*
X91564650Y-93974890D01*
X91585537Y-93955000D01*
X94672366Y-93955000D01*
X97815000Y-97097634D01*
X97815000Y-98066853D01*
X97760121Y-98131242D01*
X97722357Y-98215019D01*
X97709428Y-98306000D01*
X97709428Y-99339677D01*
X97600572Y-99230820D01*
X97600572Y-98306000D01*
X97596445Y-98254245D01*
X97569260Y-98166463D01*
X97518697Y-98089730D01*
X97448758Y-98030121D01*
X97364981Y-97992357D01*
X97274000Y-97979428D01*
X96766000Y-97979428D01*
X96714245Y-97983555D01*
X96626463Y-98010740D01*
X96549730Y-98061303D01*
X96490121Y-98131242D01*
X96452357Y-98215019D01*
X96439428Y-98306000D01*
X96439428Y-99576000D01*
X96443555Y-99627755D01*
X96470740Y-99715537D01*
X96521303Y-99792270D01*
X96591242Y-99851879D01*
X96675019Y-99889643D01*
X96766000Y-99902572D01*
X96928820Y-99902572D01*
X97127685Y-100101436D01*
X97132970Y-100119628D01*
X97134119Y-100121845D01*
X97134841Y-100124236D01*
X97155453Y-100163002D01*
X97166414Y-100184148D01*
X96225000Y-100184148D01*
X96225000Y-99815147D01*
X96279879Y-99750758D01*
X96317643Y-99666981D01*
X96330572Y-99576000D01*
X96330572Y-98306000D01*
X96326445Y-98254245D01*
X96299260Y-98166463D01*
X96248697Y-98089730D01*
X96178758Y-98030121D01*
X96094981Y-97992357D01*
X96004000Y-97979428D01*
X95496000Y-97979428D01*
X95444245Y-97983555D01*
X95356463Y-98010740D01*
X95309635Y-98041597D01*
X95294957Y-98006162D01*
X95225683Y-97902486D01*
X95137514Y-97814317D01*
X95033838Y-97745043D01*
X94918639Y-97697326D01*
X94796345Y-97673000D01*
X94765250Y-97673000D01*
X94607000Y-97831250D01*
X94607000Y-98812000D01*
X94629000Y-98812000D01*
X94629000Y-99070000D01*
X94607000Y-99070000D01*
X94607000Y-100050750D01*
X94765250Y-100209000D01*
X94796345Y-100209000D01*
X94918639Y-100184674D01*
X95033838Y-100136957D01*
X95137514Y-100067683D01*
X95225683Y-99979514D01*
X95275000Y-99905706D01*
X95275000Y-100290944D01*
X95236631Y-100335962D01*
X95198867Y-100419739D01*
X95185938Y-100510720D01*
X95185938Y-102288765D01*
X95168860Y-102290440D01*
X95125133Y-102294266D01*
X95122737Y-102294962D01*
X95120249Y-102295206D01*
X95078259Y-102307884D01*
X95036110Y-102320129D01*
X95033889Y-102321280D01*
X95031502Y-102322001D01*
X94992791Y-102342584D01*
X94953807Y-102362791D01*
X94951856Y-102364349D01*
X94949649Y-102365522D01*
X94915648Y-102393253D01*
X94881357Y-102420627D01*
X94877880Y-102424056D01*
X94877809Y-102424114D01*
X94877754Y-102424180D01*
X94876635Y-102425284D01*
X94144124Y-103157794D01*
X93565418Y-103736500D01*
X93470640Y-103736500D01*
X93468945Y-103715245D01*
X93441760Y-103627463D01*
X93391197Y-103550730D01*
X93321258Y-103491121D01*
X93237481Y-103453357D01*
X93146500Y-103440428D01*
X92637356Y-103440428D01*
X92741730Y-103422024D01*
X92940476Y-103344936D01*
X93120462Y-103230713D01*
X93274835Y-103083705D01*
X93397715Y-102909513D01*
X93484419Y-102714771D01*
X93531647Y-102506896D01*
X93535047Y-102263414D01*
X93493642Y-102054302D01*
X93412408Y-101857215D01*
X93294441Y-101679660D01*
X93144233Y-101528399D01*
X92967505Y-101409195D01*
X92770990Y-101326588D01*
X92562172Y-101283724D01*
X92349006Y-101282235D01*
X92139610Y-101322180D01*
X91941960Y-101402035D01*
X91763586Y-101518760D01*
X91611280Y-101667909D01*
X91490845Y-101843800D01*
X91406868Y-102039733D01*
X91362547Y-102248247D01*
X91359571Y-102461398D01*
X91398052Y-102671068D01*
X91476526Y-102869270D01*
X91592003Y-103048455D01*
X91740085Y-103201798D01*
X91915130Y-103323458D01*
X92110473Y-103408801D01*
X92254319Y-103440428D01*
X91749500Y-103440428D01*
X91697745Y-103444555D01*
X91609963Y-103471740D01*
X91533230Y-103522303D01*
X91473621Y-103592242D01*
X91435857Y-103676019D01*
X91422928Y-103767000D01*
X91422928Y-104656000D01*
X91427055Y-104707755D01*
X91454240Y-104795537D01*
X91504803Y-104872270D01*
X91574742Y-104931879D01*
X91658519Y-104969643D01*
X91749500Y-104982572D01*
X93146500Y-104982572D01*
X93198255Y-104978445D01*
X93286037Y-104951260D01*
X93362770Y-104900697D01*
X93422379Y-104830758D01*
X93460143Y-104746981D01*
X93468738Y-104686500D01*
X93762170Y-104686500D01*
X93805861Y-104682216D01*
X93849547Y-104678394D01*
X93851943Y-104677698D01*
X93854431Y-104677454D01*
X93896467Y-104664762D01*
X93938570Y-104652530D01*
X93940787Y-104651381D01*
X93943178Y-104650659D01*
X93981944Y-104630047D01*
X94020874Y-104609868D01*
X94022824Y-104608312D01*
X94025031Y-104607138D01*
X94059014Y-104579422D01*
X94093324Y-104552033D01*
X94096806Y-104548599D01*
X94096871Y-104548546D01*
X94096921Y-104548485D01*
X94098046Y-104547376D01*
X94815876Y-103829546D01*
X95185938Y-103459483D01*
X95185938Y-105011600D01*
X95190065Y-105063355D01*
X95217250Y-105151137D01*
X95267813Y-105227870D01*
X95337752Y-105287479D01*
X95421529Y-105325243D01*
X95512510Y-105338172D01*
X97436491Y-105338172D01*
X97436491Y-107113317D01*
X96176124Y-108373684D01*
X96148245Y-108407624D01*
X96120071Y-108441201D01*
X96118870Y-108443386D01*
X96117282Y-108445319D01*
X96096541Y-108484003D01*
X96075411Y-108522438D01*
X96074655Y-108524821D01*
X96073476Y-108527020D01*
X96060648Y-108568977D01*
X96047380Y-108610802D01*
X96047102Y-108613282D01*
X96046371Y-108615672D01*
X96041937Y-108659324D01*
X96039283Y-108682988D01*
X95512510Y-108682988D01*
X95460755Y-108687115D01*
X95372973Y-108714300D01*
X95296240Y-108764863D01*
X95236631Y-108834802D01*
X95198867Y-108918579D01*
X95185938Y-109009560D01*
X95185938Y-110213500D01*
X93470640Y-110213500D01*
X93468945Y-110192245D01*
X93441760Y-110104463D01*
X93391197Y-110027730D01*
X93321258Y-109968121D01*
X93237481Y-109930357D01*
X93146500Y-109917428D01*
X91749500Y-109917428D01*
X91697745Y-109921555D01*
X91609963Y-109948740D01*
X91533230Y-109999303D01*
X91473621Y-110069242D01*
X91435857Y-110153019D01*
X91422928Y-110244000D01*
X91422928Y-111133000D01*
X91427055Y-111184755D01*
X91454240Y-111272537D01*
X91504803Y-111349270D01*
X91574742Y-111408879D01*
X91658519Y-111446643D01*
X91749500Y-111459572D01*
X93146500Y-111459572D01*
X93198255Y-111455445D01*
X93286037Y-111428260D01*
X93362770Y-111377697D01*
X93422379Y-111307758D01*
X93460143Y-111223981D01*
X93468738Y-111163500D01*
X95185938Y-111163500D01*
X95185938Y-113510440D01*
X95190065Y-113562195D01*
X95217250Y-113649977D01*
X95267813Y-113726710D01*
X95337752Y-113786319D01*
X95421529Y-113824083D01*
X95512510Y-113837012D01*
X97511490Y-113837012D01*
X97563245Y-113832885D01*
X97651027Y-113805700D01*
X97727760Y-113755137D01*
X97787369Y-113685198D01*
X97825133Y-113601421D01*
X97838062Y-113510440D01*
X97838062Y-109009560D01*
X97833935Y-108957805D01*
X97806750Y-108870023D01*
X97756187Y-108793290D01*
X97686248Y-108733681D01*
X97602471Y-108695917D01*
X97511490Y-108682988D01*
X97210324Y-108682988D01*
X98247367Y-107645945D01*
X98275246Y-107612005D01*
X98303420Y-107578428D01*
X98304621Y-107576243D01*
X98306209Y-107574310D01*
X98326950Y-107535626D01*
X98348080Y-107497191D01*
X98348836Y-107494808D01*
X98350015Y-107492609D01*
X98362843Y-107450652D01*
X98376111Y-107408827D01*
X98376389Y-107406347D01*
X98377120Y-107403957D01*
X98381554Y-107360305D01*
X98386445Y-107316701D01*
X98386479Y-107311817D01*
X98386488Y-107311727D01*
X98386480Y-107311643D01*
X98386491Y-107310069D01*
X98386491Y-100720349D01*
X98814481Y-101148338D01*
X98814481Y-115238561D01*
X98774664Y-115103848D01*
X98519310Y-114983494D01*
X98245382Y-114915270D01*
X97963408Y-114901796D01*
X97684223Y-114943593D01*
X97418556Y-115039053D01*
X97297336Y-115103848D01*
X97225460Y-115347027D01*
X98036000Y-116157566D01*
X98050142Y-116143424D01*
X98232576Y-116325858D01*
X98218434Y-116340000D01*
X98232576Y-116354142D01*
X98050142Y-116536576D01*
X98036000Y-116522434D01*
X97225460Y-117332973D01*
X97297336Y-117576152D01*
X97364639Y-117607873D01*
X97297336Y-117643848D01*
X97225460Y-117887027D01*
X98036000Y-118697566D01*
X98050142Y-118683424D01*
X98232576Y-118865858D01*
X98218434Y-118880000D01*
X99028973Y-119690540D01*
X99272152Y-119618664D01*
X99392506Y-119363310D01*
X99460730Y-119089382D01*
X99462746Y-119047202D01*
X99489251Y-119191620D01*
X99570476Y-119396769D01*
X99690000Y-119582235D01*
X99843272Y-119740953D01*
X100024453Y-119866877D01*
X100226643Y-119955211D01*
X100442139Y-120002591D01*
X100662734Y-120007212D01*
X100880026Y-119968898D01*
X101085737Y-119889108D01*
X101272032Y-119770881D01*
X101431816Y-119618721D01*
X101559002Y-119438423D01*
X101648746Y-119236855D01*
X101697629Y-119021695D01*
X101698286Y-118974601D01*
X101989421Y-118974601D01*
X102029251Y-119191620D01*
X102110476Y-119396769D01*
X102230000Y-119582235D01*
X102383272Y-119740953D01*
X102564453Y-119866877D01*
X102766643Y-119955211D01*
X102982139Y-120002591D01*
X103202734Y-120007212D01*
X103420026Y-119968898D01*
X103625737Y-119889108D01*
X103812032Y-119770881D01*
X103971816Y-119618721D01*
X104099002Y-119438423D01*
X104188746Y-119236855D01*
X104237629Y-119021695D01*
X104241148Y-118769678D01*
X104198292Y-118553237D01*
X104114211Y-118349242D01*
X103992109Y-118165463D01*
X103836636Y-118008901D01*
X103653714Y-117885519D01*
X103450311Y-117800016D01*
X103234174Y-117755649D01*
X103013536Y-117754109D01*
X102796801Y-117795453D01*
X102592223Y-117878108D01*
X102407597Y-117998924D01*
X102249953Y-118153300D01*
X102125297Y-118335356D01*
X102038376Y-118538158D01*
X101992502Y-118753979D01*
X101989421Y-118974601D01*
X101698286Y-118974601D01*
X101701148Y-118769678D01*
X101658292Y-118553237D01*
X101574211Y-118349242D01*
X101452109Y-118165463D01*
X101296636Y-118008901D01*
X101113714Y-117885519D01*
X100910311Y-117800016D01*
X100694174Y-117755649D01*
X100473536Y-117754109D01*
X100256801Y-117795453D01*
X100190138Y-117822386D01*
X99764481Y-117396729D01*
X99764481Y-117119362D01*
X99843272Y-117200953D01*
X100024453Y-117326877D01*
X100226643Y-117415211D01*
X100442139Y-117462591D01*
X100662734Y-117467212D01*
X100880026Y-117428898D01*
X101085737Y-117349108D01*
X101272032Y-117230881D01*
X101431816Y-117078721D01*
X101559002Y-116898423D01*
X101648746Y-116696855D01*
X101697629Y-116481695D01*
X101701148Y-116229678D01*
X101658292Y-116013237D01*
X101574211Y-115809242D01*
X101452109Y-115625463D01*
X101296636Y-115468901D01*
X101113714Y-115345519D01*
X100910311Y-115260016D01*
X100694174Y-115215649D01*
X100473536Y-115214109D01*
X100256801Y-115255453D01*
X100052223Y-115338108D01*
X99867597Y-115458924D01*
X99764481Y-115559902D01*
X99764481Y-100951587D01*
X99760577Y-100911773D01*
X99769531Y-100917996D01*
X99881849Y-100967066D01*
X100001558Y-100993386D01*
X100124100Y-100995953D01*
X100244807Y-100974669D01*
X100312928Y-100948247D01*
X100312928Y-101608000D01*
X100317055Y-101659755D01*
X100344240Y-101747537D01*
X100394803Y-101824270D01*
X100464742Y-101883879D01*
X100548519Y-101921643D01*
X100639500Y-101934572D01*
X101911501Y-101934572D01*
X101911501Y-102297428D01*
X100639500Y-102297428D01*
X100587745Y-102301555D01*
X100499963Y-102328740D01*
X100423230Y-102379303D01*
X100363621Y-102449242D01*
X100325857Y-102533019D01*
X100312928Y-102624000D01*
X100312928Y-103513000D01*
X100317055Y-103564755D01*
X100344240Y-103652537D01*
X100394803Y-103729270D01*
X100464742Y-103788879D01*
X100548519Y-103826643D01*
X100639500Y-103839572D01*
X101081124Y-103839572D01*
X101079464Y-103958460D01*
X101101590Y-104079015D01*
X101146710Y-104192976D01*
X101213107Y-104296004D01*
X101298250Y-104384172D01*
X101398897Y-104454124D01*
X101511215Y-104503194D01*
X101630924Y-104529514D01*
X101753466Y-104532081D01*
X101874173Y-104510797D01*
X101911501Y-104496318D01*
X101911501Y-106144746D01*
X101696123Y-106360123D01*
X101668244Y-106394063D01*
X101640070Y-106427640D01*
X101638869Y-106429825D01*
X101637281Y-106431758D01*
X101616540Y-106470442D01*
X101595410Y-106508877D01*
X101594654Y-106511260D01*
X101593475Y-106513459D01*
X101580647Y-106555416D01*
X101567379Y-106597241D01*
X101567101Y-106599721D01*
X101566370Y-106602111D01*
X101561936Y-106645763D01*
X101557045Y-106689367D01*
X101557011Y-106694251D01*
X101557002Y-106694341D01*
X101557010Y-106694425D01*
X101556999Y-106695999D01*
X101556999Y-112715999D01*
X101561283Y-112759690D01*
X101565105Y-112803376D01*
X101565801Y-112805772D01*
X101566045Y-112808260D01*
X101578737Y-112850296D01*
X101590969Y-112892399D01*
X101592118Y-112894616D01*
X101592840Y-112897007D01*
X101613452Y-112935773D01*
X101633631Y-112974703D01*
X101635187Y-112976653D01*
X101636361Y-112978860D01*
X101664077Y-113012843D01*
X101691466Y-113047153D01*
X101694900Y-113050635D01*
X101694953Y-113050700D01*
X101695014Y-113050750D01*
X101696123Y-113051875D01*
X103890161Y-115245912D01*
X103890161Y-115522801D01*
X103836636Y-115468901D01*
X103653714Y-115345519D01*
X103450311Y-115260016D01*
X103234174Y-115215649D01*
X103013536Y-115214109D01*
X102796801Y-115255453D01*
X102592223Y-115338108D01*
X102407597Y-115458924D01*
X102249953Y-115613300D01*
X102125297Y-115795356D01*
X102038376Y-115998158D01*
X101992502Y-116213979D01*
X101989421Y-116434601D01*
X102029251Y-116651620D01*
X102110476Y-116856769D01*
X102230000Y-117042235D01*
X102383272Y-117200953D01*
X102564453Y-117326877D01*
X102766643Y-117415211D01*
X102982139Y-117462591D01*
X103202734Y-117467212D01*
X103420026Y-117428898D01*
X103625737Y-117349108D01*
X103812032Y-117230881D01*
X103890161Y-117156480D01*
X103890161Y-117589161D01*
X103894445Y-117632852D01*
X103898267Y-117676538D01*
X103898963Y-117678934D01*
X103899207Y-117681422D01*
X103911899Y-117723458D01*
X103924131Y-117765561D01*
X103925280Y-117767778D01*
X103926002Y-117770169D01*
X103946614Y-117808935D01*
X103966793Y-117847865D01*
X103968349Y-117849815D01*
X103969523Y-117852022D01*
X103997239Y-117886005D01*
X104024628Y-117920315D01*
X104028062Y-117923797D01*
X104028115Y-117923862D01*
X104028176Y-117923912D01*
X104029285Y-117925037D01*
X104597586Y-118493338D01*
X104578376Y-118538158D01*
X104532502Y-118753979D01*
X104529421Y-118974601D01*
X104569251Y-119191620D01*
X104650476Y-119396769D01*
X104770000Y-119582235D01*
X104923272Y-119740953D01*
X105104453Y-119866877D01*
X105306643Y-119955211D01*
X105522139Y-120002591D01*
X105742734Y-120007212D01*
X105960026Y-119968898D01*
X106165737Y-119889108D01*
X106352032Y-119770881D01*
X106511816Y-119618721D01*
X106639002Y-119438423D01*
X106728746Y-119236855D01*
X106777629Y-119021695D01*
X106781148Y-118769678D01*
X106738292Y-118553237D01*
X106654211Y-118349242D01*
X106532109Y-118165463D01*
X106376636Y-118008901D01*
X106193714Y-117885519D01*
X105990311Y-117800016D01*
X105774174Y-117755649D01*
X105553536Y-117754109D01*
X105336801Y-117795453D01*
X105270138Y-117822386D01*
X104840161Y-117392409D01*
X104840161Y-117114889D01*
X104923272Y-117200953D01*
X105104453Y-117326877D01*
X105306643Y-117415211D01*
X105522139Y-117462591D01*
X105742734Y-117467212D01*
X105960026Y-117428898D01*
X106165737Y-117349108D01*
X106352032Y-117230881D01*
X106511816Y-117078721D01*
X106639002Y-116898423D01*
X106728746Y-116696855D01*
X106777629Y-116481695D01*
X106781148Y-116229678D01*
X106738292Y-116013237D01*
X106654211Y-115809242D01*
X106532109Y-115625463D01*
X106376636Y-115468901D01*
X106193714Y-115345519D01*
X105990311Y-115260016D01*
X105774174Y-115215649D01*
X105553536Y-115214109D01*
X105336801Y-115255453D01*
X105132223Y-115338108D01*
X104947597Y-115458924D01*
X104840161Y-115564133D01*
X104840161Y-115049161D01*
X104835877Y-115005470D01*
X104832055Y-114961784D01*
X104831359Y-114959388D01*
X104831115Y-114956900D01*
X104818423Y-114914864D01*
X104806191Y-114872761D01*
X104805042Y-114870544D01*
X104804320Y-114868153D01*
X104783708Y-114829387D01*
X104763529Y-114790457D01*
X104761973Y-114788507D01*
X104760799Y-114786300D01*
X104733058Y-114752287D01*
X104705693Y-114718007D01*
X104702265Y-114714531D01*
X104702207Y-114714460D01*
X104702141Y-114714405D01*
X104701036Y-114713285D01*
X102506999Y-112519247D01*
X102506999Y-109008470D01*
X102780644Y-109291838D01*
X103114793Y-109524077D01*
X103487687Y-109686991D01*
X103885123Y-109774373D01*
X104291962Y-109782895D01*
X104692709Y-109712232D01*
X105072098Y-109565077D01*
X105415679Y-109347034D01*
X105710365Y-109066408D01*
X105944932Y-108733889D01*
X106110444Y-108362141D01*
X106200599Y-107965325D01*
X106207089Y-107500536D01*
X106128049Y-107101357D01*
X105972981Y-106725133D01*
X105747790Y-106386194D01*
X105461055Y-106097449D01*
X105123696Y-105869898D01*
X104748563Y-105712206D01*
X104349946Y-105630382D01*
X103943027Y-105627541D01*
X103543307Y-105703792D01*
X103166009Y-105856230D01*
X102861501Y-106055495D01*
X102861501Y-103579111D01*
X102884240Y-103652537D01*
X102934803Y-103729270D01*
X103004742Y-103788879D01*
X103088519Y-103826643D01*
X103179500Y-103839572D01*
X103265268Y-103839572D01*
X103263760Y-103947582D01*
X103285886Y-104068137D01*
X103331006Y-104182098D01*
X103397403Y-104285126D01*
X103482546Y-104373294D01*
X103583193Y-104443246D01*
X103695511Y-104492316D01*
X103815220Y-104518636D01*
X103937762Y-104521203D01*
X104058469Y-104499919D01*
X104172743Y-104455595D01*
X104276231Y-104389920D01*
X104364992Y-104305394D01*
X104435645Y-104205237D01*
X104485498Y-104093265D01*
X104512653Y-103973742D01*
X104514527Y-103839572D01*
X104576500Y-103839572D01*
X104628255Y-103835445D01*
X104716037Y-103808260D01*
X104792770Y-103757697D01*
X104852379Y-103687758D01*
X104890143Y-103603981D01*
X104893622Y-103579501D01*
X104916240Y-103652537D01*
X104966803Y-103729270D01*
X105036742Y-103788879D01*
X105120519Y-103826643D01*
X105211500Y-103839572D01*
X105285673Y-103839572D01*
X105284179Y-103946552D01*
X105306305Y-104067107D01*
X105351425Y-104181068D01*
X105417822Y-104284096D01*
X105502965Y-104372264D01*
X105603612Y-104442216D01*
X105715930Y-104491286D01*
X105835639Y-104517606D01*
X105958181Y-104520173D01*
X106078888Y-104498889D01*
X106193162Y-104454565D01*
X106296650Y-104388890D01*
X106385411Y-104304364D01*
X106456064Y-104204207D01*
X106505917Y-104092235D01*
X106533072Y-103972712D01*
X106534931Y-103839572D01*
X106608500Y-103839572D01*
X106660255Y-103835445D01*
X106748037Y-103808260D01*
X106801000Y-103773360D01*
X106801000Y-123327000D01*
X92976283Y-123327000D01*
X91479958Y-122828225D01*
X89460202Y-121818347D01*
X86937505Y-120304729D01*
X85969000Y-119336224D01*
X85969000Y-118524400D01*
X87346228Y-118524400D01*
X87346228Y-120048400D01*
X87350355Y-120100155D01*
X87377540Y-120187937D01*
X87428103Y-120264670D01*
X87498042Y-120324279D01*
X87581819Y-120362043D01*
X87672800Y-120374972D01*
X89196800Y-120374972D01*
X89248555Y-120370845D01*
X89336337Y-120343660D01*
X89413070Y-120293097D01*
X89472679Y-120223158D01*
X89510443Y-120139381D01*
X89523372Y-120048400D01*
X89523372Y-118524400D01*
X89519245Y-118472645D01*
X89492060Y-118384863D01*
X89441497Y-118308130D01*
X89371558Y-118248521D01*
X89287781Y-118210757D01*
X89196800Y-118197828D01*
X87672800Y-118197828D01*
X87621045Y-118201955D01*
X87533263Y-118229140D01*
X87456530Y-118279703D01*
X87396921Y-118349642D01*
X87359157Y-118433419D01*
X87346228Y-118524400D01*
X85969000Y-118524400D01*
X85969000Y-118054500D01*
X94343928Y-118054500D01*
X94343928Y-119705500D01*
X94348055Y-119757255D01*
X94375240Y-119845037D01*
X94425803Y-119921770D01*
X94495742Y-119981379D01*
X94579519Y-120019143D01*
X94670500Y-120032072D01*
X96321500Y-120032072D01*
X96373255Y-120027945D01*
X96461037Y-120000760D01*
X96537770Y-119950197D01*
X96597379Y-119880258D01*
X96600662Y-119872973D01*
X97225460Y-119872973D01*
X97297336Y-120116152D01*
X97552690Y-120236506D01*
X97826618Y-120304730D01*
X98108592Y-120318204D01*
X98387777Y-120276407D01*
X98653444Y-120180947D01*
X98774664Y-120116152D01*
X98846540Y-119872973D01*
X98036000Y-119062434D01*
X97225460Y-119872973D01*
X96600662Y-119872973D01*
X96635143Y-119796481D01*
X96648072Y-119705500D01*
X96648072Y-119255374D01*
X96735053Y-119497444D01*
X96799848Y-119618664D01*
X97043027Y-119690540D01*
X97853566Y-118880000D01*
X97043027Y-118069460D01*
X96799848Y-118141336D01*
X96679494Y-118396690D01*
X96648072Y-118522853D01*
X96648072Y-118054500D01*
X96643945Y-118002745D01*
X96616760Y-117914963D01*
X96566197Y-117838230D01*
X96496258Y-117778621D01*
X96412481Y-117740857D01*
X96321500Y-117727928D01*
X94670500Y-117727928D01*
X94618745Y-117732055D01*
X94530963Y-117759240D01*
X94454230Y-117809803D01*
X94394621Y-117879742D01*
X94356857Y-117963519D01*
X94343928Y-118054500D01*
X85969000Y-118054500D01*
X85969000Y-116840884D01*
X86316459Y-117188342D01*
X86361063Y-117224980D01*
X86405296Y-117262096D01*
X86408176Y-117263679D01*
X86410715Y-117265765D01*
X86461547Y-117293021D01*
X86512186Y-117320860D01*
X86515324Y-117321856D01*
X86518216Y-117323406D01*
X86573410Y-117340281D01*
X86628455Y-117357742D01*
X86631717Y-117358108D01*
X86634864Y-117359070D01*
X86692337Y-117364908D01*
X86749674Y-117371339D01*
X86756099Y-117371384D01*
X86756218Y-117371396D01*
X86756329Y-117371386D01*
X86758400Y-117371400D01*
X87544354Y-117371400D01*
X87578803Y-117424855D01*
X87726885Y-117578198D01*
X87901930Y-117699858D01*
X88097273Y-117785201D01*
X88305472Y-117830977D01*
X88518597Y-117835441D01*
X88728530Y-117798424D01*
X88927276Y-117721336D01*
X89107262Y-117607113D01*
X89261635Y-117460105D01*
X89384515Y-117285913D01*
X89471219Y-117091171D01*
X89518447Y-116883296D01*
X89521847Y-116639814D01*
X89481215Y-116434601D01*
X94369421Y-116434601D01*
X94409251Y-116651620D01*
X94490476Y-116856769D01*
X94610000Y-117042235D01*
X94763272Y-117200953D01*
X94944453Y-117326877D01*
X95146643Y-117415211D01*
X95362139Y-117462591D01*
X95582734Y-117467212D01*
X95800026Y-117428898D01*
X96005737Y-117349108D01*
X96192032Y-117230881D01*
X96351816Y-117078721D01*
X96479002Y-116898423D01*
X96568746Y-116696855D01*
X96611910Y-116506867D01*
X96639593Y-116691777D01*
X96735053Y-116957444D01*
X96799848Y-117078664D01*
X97043027Y-117150540D01*
X97853566Y-116340000D01*
X97043027Y-115529460D01*
X96799848Y-115601336D01*
X96679494Y-115856690D01*
X96611270Y-116130618D01*
X96609377Y-116170230D01*
X96578292Y-116013237D01*
X96494211Y-115809242D01*
X96372109Y-115625463D01*
X96216636Y-115468901D01*
X96033714Y-115345519D01*
X95830311Y-115260016D01*
X95614174Y-115215649D01*
X95393536Y-115214109D01*
X95176801Y-115255453D01*
X94972223Y-115338108D01*
X94787597Y-115458924D01*
X94629953Y-115613300D01*
X94505297Y-115795356D01*
X94418376Y-115998158D01*
X94372502Y-116213979D01*
X94369421Y-116434601D01*
X89481215Y-116434601D01*
X89480442Y-116430702D01*
X89399208Y-116233615D01*
X89281241Y-116056060D01*
X89131033Y-115904799D01*
X88954305Y-115785595D01*
X88757790Y-115702988D01*
X88548972Y-115660124D01*
X88335806Y-115658635D01*
X88126410Y-115698580D01*
X87928760Y-115778435D01*
X87750386Y-115895160D01*
X87598080Y-116044309D01*
X87545295Y-116121400D01*
X87017283Y-116121400D01*
X86723000Y-115827116D01*
X86723000Y-114297798D01*
X87346371Y-114297798D01*
X87384852Y-114507468D01*
X87463326Y-114705670D01*
X87578803Y-114884855D01*
X87726885Y-115038198D01*
X87901930Y-115159858D01*
X88097273Y-115245201D01*
X88305472Y-115290977D01*
X88518597Y-115295441D01*
X88728530Y-115258424D01*
X88927276Y-115181336D01*
X89107262Y-115067113D01*
X89261635Y-114920105D01*
X89384515Y-114745913D01*
X89471219Y-114551171D01*
X89518447Y-114343296D01*
X89521847Y-114099814D01*
X89480442Y-113890702D01*
X89399208Y-113693615D01*
X89281241Y-113516060D01*
X89131033Y-113364799D01*
X88954305Y-113245595D01*
X88757790Y-113162988D01*
X88548972Y-113120124D01*
X88335806Y-113118635D01*
X88126410Y-113158580D01*
X87928760Y-113238435D01*
X87750386Y-113355160D01*
X87598080Y-113504309D01*
X87477645Y-113680200D01*
X87393668Y-113876133D01*
X87349347Y-114084647D01*
X87346371Y-114297798D01*
X86723000Y-114297798D01*
X86723000Y-112632160D01*
X87651473Y-112632160D01*
X87718731Y-112871451D01*
X87967584Y-112987995D01*
X88234393Y-113053750D01*
X88508902Y-113066190D01*
X88780564Y-113024837D01*
X89038938Y-112931280D01*
X89150869Y-112871451D01*
X89218127Y-112632160D01*
X88434800Y-111848834D01*
X87651473Y-112632160D01*
X86723000Y-112632160D01*
X86723000Y-111740502D01*
X87035010Y-111740502D01*
X87076363Y-112012164D01*
X87169920Y-112270538D01*
X87229749Y-112382469D01*
X87469040Y-112449727D01*
X88252366Y-111666400D01*
X88617234Y-111666400D01*
X89400560Y-112449727D01*
X89639851Y-112382469D01*
X89756395Y-112133616D01*
X89822150Y-111866807D01*
X89834590Y-111592298D01*
X89793237Y-111320636D01*
X89699680Y-111062262D01*
X89639851Y-110950331D01*
X89400560Y-110883073D01*
X88617234Y-111666400D01*
X88252366Y-111666400D01*
X87469040Y-110883073D01*
X87229749Y-110950331D01*
X87113205Y-111199184D01*
X87047450Y-111465993D01*
X87035010Y-111740502D01*
X86723000Y-111740502D01*
X86723000Y-110700640D01*
X87651473Y-110700640D01*
X88434800Y-111483966D01*
X89218127Y-110700640D01*
X89150869Y-110461349D01*
X88902016Y-110344805D01*
X88635207Y-110279050D01*
X88360698Y-110266610D01*
X88089036Y-110307963D01*
X87830662Y-110401520D01*
X87718731Y-110461349D01*
X87651473Y-110700640D01*
X86723000Y-110700640D01*
X86723000Y-108339000D01*
X91422928Y-108339000D01*
X91422928Y-109228000D01*
X91427055Y-109279755D01*
X91454240Y-109367537D01*
X91504803Y-109444270D01*
X91574742Y-109503879D01*
X91658519Y-109541643D01*
X91749500Y-109554572D01*
X93146500Y-109554572D01*
X93198255Y-109550445D01*
X93286037Y-109523260D01*
X93308436Y-109508500D01*
X93908500Y-109508500D01*
X93975100Y-109501970D01*
X94041865Y-109496128D01*
X94045528Y-109495064D01*
X94049320Y-109494692D01*
X94113423Y-109475338D01*
X94177742Y-109456652D01*
X94181126Y-109454898D01*
X94184776Y-109453796D01*
X94243932Y-109422342D01*
X94303363Y-109391536D01*
X94306341Y-109389159D01*
X94309709Y-109387368D01*
X94361657Y-109345000D01*
X94413944Y-109303260D01*
X94419244Y-109298034D01*
X94419360Y-109297939D01*
X94419449Y-109297831D01*
X94421152Y-109296152D01*
X94477494Y-109239810D01*
X94523477Y-109196022D01*
X94605434Y-109079841D01*
X94663264Y-108949953D01*
X94694763Y-108811306D01*
X94695845Y-108733866D01*
X94696996Y-108722530D01*
X94696131Y-108713376D01*
X94697031Y-108648910D01*
X94669415Y-108509438D01*
X94615234Y-108377986D01*
X94536553Y-108259562D01*
X94436368Y-108158675D01*
X94318496Y-108079169D01*
X94187426Y-108024072D01*
X94048150Y-107995483D01*
X93905973Y-107994490D01*
X93766312Y-108021132D01*
X93673824Y-108058500D01*
X93311007Y-108058500D01*
X93237481Y-108025357D01*
X93146500Y-108012428D01*
X91749500Y-108012428D01*
X91697745Y-108016555D01*
X91609963Y-108043740D01*
X91533230Y-108094303D01*
X91473621Y-108164242D01*
X91435857Y-108248019D01*
X91422928Y-108339000D01*
X86723000Y-108339000D01*
X86723000Y-108184400D01*
X86924232Y-108228644D01*
X87236959Y-108235194D01*
X87545003Y-108180878D01*
X87836630Y-108067763D01*
X88100732Y-107900159D01*
X88327250Y-107684449D01*
X88507555Y-107428850D01*
X88634781Y-107143096D01*
X88704080Y-106838074D01*
X88709069Y-106480802D01*
X88648313Y-106173964D01*
X88529116Y-105884769D01*
X88387753Y-105672000D01*
X91422928Y-105672000D01*
X91422928Y-106561000D01*
X91427055Y-106612755D01*
X91454240Y-106700537D01*
X91504803Y-106777270D01*
X91574742Y-106836879D01*
X91658519Y-106874643D01*
X91749500Y-106887572D01*
X93146500Y-106887572D01*
X93198255Y-106883445D01*
X93286037Y-106856260D01*
X93308436Y-106841500D01*
X93675116Y-106841500D01*
X93746879Y-106872852D01*
X93885742Y-106903383D01*
X94027890Y-106906361D01*
X94167910Y-106881672D01*
X94300468Y-106830256D01*
X94420514Y-106754072D01*
X94523477Y-106656022D01*
X94605434Y-106539841D01*
X94663264Y-106409953D01*
X94694763Y-106271306D01*
X94695780Y-106198461D01*
X94696961Y-106187593D01*
X94696074Y-106177452D01*
X94697031Y-106108910D01*
X94669415Y-105969438D01*
X94615234Y-105837986D01*
X94536553Y-105719562D01*
X94436368Y-105618675D01*
X94435174Y-105617869D01*
X94421152Y-105603848D01*
X94369451Y-105561380D01*
X94318101Y-105518293D01*
X94314758Y-105516455D01*
X94311814Y-105514037D01*
X94252832Y-105482411D01*
X94194108Y-105450127D01*
X94190472Y-105448974D01*
X94187114Y-105447173D01*
X94123066Y-105427591D01*
X94059236Y-105407343D01*
X94055450Y-105406918D01*
X94051802Y-105405803D01*
X93985119Y-105399030D01*
X93918623Y-105391571D01*
X93911176Y-105391519D01*
X93911031Y-105391504D01*
X93910896Y-105391517D01*
X93908500Y-105391500D01*
X93311007Y-105391500D01*
X93237481Y-105358357D01*
X93146500Y-105345428D01*
X91749500Y-105345428D01*
X91697745Y-105349555D01*
X91609963Y-105376740D01*
X91533230Y-105427303D01*
X91473621Y-105497242D01*
X91435857Y-105581019D01*
X91422928Y-105672000D01*
X88387753Y-105672000D01*
X88356017Y-105624235D01*
X88135611Y-105402285D01*
X87876291Y-105227371D01*
X87587937Y-105106158D01*
X87281530Y-105043262D01*
X86968742Y-105041078D01*
X86661486Y-105099690D01*
X86371467Y-105216866D01*
X86109731Y-105388141D01*
X85886247Y-105606993D01*
X85709528Y-105865085D01*
X85586304Y-106152586D01*
X85521270Y-106458547D01*
X85516903Y-106771312D01*
X85573369Y-107078969D01*
X85635604Y-107236159D01*
X85619399Y-107255888D01*
X85582304Y-107300096D01*
X85580721Y-107302975D01*
X85578635Y-107305515D01*
X85551379Y-107356347D01*
X85523540Y-107406986D01*
X85522544Y-107410124D01*
X85520994Y-107413016D01*
X85504119Y-107468210D01*
X85486658Y-107523255D01*
X85486292Y-107526517D01*
X85485330Y-107529664D01*
X85479492Y-107587137D01*
X85473061Y-107644474D01*
X85473016Y-107650899D01*
X85473004Y-107651018D01*
X85473014Y-107651129D01*
X85473000Y-107653200D01*
X85473000Y-108680224D01*
X85424388Y-108631612D01*
X85396265Y-108610487D01*
X85363369Y-108598033D01*
X85336000Y-108595000D01*
X81323776Y-108595000D01*
X80889000Y-108160224D01*
X80889000Y-101354875D01*
X80898000Y-101383937D01*
X80948563Y-101460670D01*
X81018502Y-101520279D01*
X81102279Y-101558043D01*
X81193260Y-101570972D01*
X81579220Y-101570972D01*
X82714124Y-102705876D01*
X82748064Y-102733755D01*
X82781641Y-102761929D01*
X82783826Y-102763130D01*
X82785759Y-102764718D01*
X82824443Y-102785459D01*
X82862878Y-102806589D01*
X82865261Y-102807345D01*
X82867460Y-102808524D01*
X82909404Y-102821348D01*
X82951242Y-102834620D01*
X82953723Y-102834898D01*
X82956113Y-102835629D01*
X82999759Y-102840062D01*
X83043368Y-102844954D01*
X83048252Y-102844988D01*
X83048342Y-102844997D01*
X83048426Y-102844989D01*
X83050000Y-102845000D01*
X83122868Y-102845000D01*
X84523168Y-104245300D01*
X84557082Y-104273157D01*
X84590685Y-104301353D01*
X84592874Y-104302556D01*
X84594803Y-104304141D01*
X84633467Y-104324872D01*
X84671922Y-104346013D01*
X84674303Y-104346768D01*
X84676503Y-104347948D01*
X84718475Y-104360781D01*
X84760286Y-104374044D01*
X84762766Y-104374322D01*
X84765156Y-104375053D01*
X84808808Y-104379487D01*
X84852412Y-104384378D01*
X84857296Y-104384412D01*
X84857386Y-104384421D01*
X84857470Y-104384413D01*
X84859044Y-104384424D01*
X89209929Y-104384424D01*
X89213081Y-104387688D01*
X89313728Y-104457640D01*
X89426046Y-104506710D01*
X89545755Y-104533030D01*
X89668297Y-104535597D01*
X89789004Y-104514313D01*
X89903278Y-104469989D01*
X90006766Y-104404314D01*
X90095527Y-104319788D01*
X90166180Y-104219631D01*
X90216033Y-104107659D01*
X90243188Y-103988136D01*
X90245143Y-103848140D01*
X90221336Y-103727905D01*
X90174628Y-103614585D01*
X90106800Y-103512494D01*
X90020434Y-103425523D01*
X89918819Y-103356984D01*
X89805828Y-103309486D01*
X89685762Y-103284840D01*
X89563197Y-103283985D01*
X89442799Y-103306952D01*
X89329155Y-103352867D01*
X89226594Y-103419981D01*
X89211845Y-103434424D01*
X85055796Y-103434424D01*
X84466372Y-102845000D01*
X85647000Y-102845000D01*
X85690691Y-102840716D01*
X85734377Y-102836894D01*
X85736773Y-102836198D01*
X85739261Y-102835954D01*
X85781297Y-102823262D01*
X85823400Y-102811030D01*
X85825617Y-102809881D01*
X85828008Y-102809159D01*
X85866774Y-102788547D01*
X85905704Y-102768368D01*
X85907654Y-102766812D01*
X85909861Y-102765638D01*
X85943844Y-102737922D01*
X85978154Y-102710533D01*
X85981636Y-102707099D01*
X85981701Y-102707046D01*
X85981751Y-102706985D01*
X85982876Y-102705876D01*
X86376301Y-102312451D01*
X86624933Y-102421075D01*
X86930432Y-102488244D01*
X87243159Y-102494794D01*
X87551203Y-102440478D01*
X87842830Y-102327363D01*
X88106932Y-102159759D01*
X88333450Y-101944049D01*
X88513755Y-101688450D01*
X88640981Y-101402696D01*
X88710280Y-101097674D01*
X88715269Y-100740402D01*
X88654513Y-100433564D01*
X88535316Y-100144369D01*
X88362217Y-99883835D01*
X88141811Y-99661885D01*
X87882491Y-99486971D01*
X87594137Y-99365758D01*
X87455789Y-99337359D01*
X87500650Y-99308890D01*
X87589411Y-99224364D01*
X87631464Y-99164750D01*
X91243500Y-99164750D01*
X91243500Y-99384345D01*
X91267826Y-99506639D01*
X91315543Y-99621838D01*
X91384817Y-99725514D01*
X91472986Y-99813683D01*
X91576662Y-99882957D01*
X91691861Y-99930674D01*
X91814155Y-99955000D01*
X92287750Y-99955000D01*
X92446000Y-99796750D01*
X92446000Y-99006500D01*
X92704000Y-99006500D01*
X92704000Y-99796750D01*
X92862250Y-99955000D01*
X93335845Y-99955000D01*
X93458139Y-99930674D01*
X93573338Y-99882957D01*
X93647473Y-99833421D01*
X93665043Y-99875838D01*
X93734317Y-99979514D01*
X93822486Y-100067683D01*
X93926162Y-100136957D01*
X94041361Y-100184674D01*
X94163655Y-100209000D01*
X94194750Y-100209000D01*
X94353000Y-100050750D01*
X94353000Y-99070000D01*
X93811750Y-99070000D01*
X93748250Y-99006500D01*
X92704000Y-99006500D01*
X92446000Y-99006500D01*
X91401750Y-99006500D01*
X91243500Y-99164750D01*
X87631464Y-99164750D01*
X87660064Y-99124207D01*
X87709917Y-99012235D01*
X87737072Y-98892712D01*
X87739027Y-98752716D01*
X87715220Y-98632481D01*
X87668512Y-98519161D01*
X87600684Y-98417070D01*
X87554592Y-98370655D01*
X91243500Y-98370655D01*
X91243500Y-98590250D01*
X91401750Y-98748500D01*
X92446000Y-98748500D01*
X92446000Y-97958250D01*
X92704000Y-97958250D01*
X92704000Y-98748500D01*
X93687750Y-98748500D01*
X93751250Y-98812000D01*
X94353000Y-98812000D01*
X94353000Y-97831250D01*
X94194750Y-97673000D01*
X94163655Y-97673000D01*
X94041361Y-97697326D01*
X93926162Y-97745043D01*
X93822486Y-97814317D01*
X93734317Y-97902486D01*
X93695811Y-97960114D01*
X93677014Y-97941317D01*
X93573338Y-97872043D01*
X93458139Y-97824326D01*
X93335845Y-97800000D01*
X92862250Y-97800000D01*
X92704000Y-97958250D01*
X92446000Y-97958250D01*
X92287750Y-97800000D01*
X91814155Y-97800000D01*
X91691861Y-97824326D01*
X91576662Y-97872043D01*
X91472986Y-97941317D01*
X91384817Y-98029486D01*
X91315543Y-98133162D01*
X91267826Y-98248361D01*
X91243500Y-98370655D01*
X87554592Y-98370655D01*
X87514318Y-98330099D01*
X87412703Y-98261560D01*
X87299712Y-98214062D01*
X87179646Y-98189416D01*
X87057081Y-98188561D01*
X86936683Y-98211528D01*
X86823039Y-98257443D01*
X86720478Y-98324557D01*
X86705729Y-98339000D01*
X85720752Y-98339000D01*
X86962792Y-97096960D01*
X90452047Y-97096960D01*
X90477713Y-97236804D01*
X90530053Y-97368999D01*
X90607073Y-97488511D01*
X90705839Y-97590787D01*
X90822590Y-97671931D01*
X90952879Y-97728852D01*
X91091742Y-97759383D01*
X91233890Y-97762361D01*
X91373910Y-97737672D01*
X91477479Y-97697500D01*
X91711993Y-97697500D01*
X91785519Y-97730643D01*
X91876500Y-97743572D01*
X93273500Y-97743572D01*
X93325255Y-97739445D01*
X93413037Y-97712260D01*
X93489770Y-97661697D01*
X93549379Y-97591758D01*
X93587143Y-97507981D01*
X93600072Y-97417000D01*
X93600072Y-96528000D01*
X93595945Y-96476245D01*
X93568760Y-96388463D01*
X93518197Y-96311730D01*
X93448258Y-96252121D01*
X93364481Y-96214357D01*
X93273500Y-96201428D01*
X91876500Y-96201428D01*
X91824745Y-96205555D01*
X91736963Y-96232740D01*
X91714564Y-96247500D01*
X91241500Y-96247500D01*
X91174892Y-96254031D01*
X91108136Y-96259872D01*
X91104473Y-96260936D01*
X91100680Y-96261308D01*
X91036598Y-96280655D01*
X90972259Y-96299347D01*
X90968872Y-96301103D01*
X90965224Y-96302204D01*
X90906085Y-96333649D01*
X90846637Y-96364464D01*
X90843659Y-96366841D01*
X90840291Y-96368632D01*
X90788374Y-96410975D01*
X90736056Y-96452739D01*
X90730751Y-96457971D01*
X90730640Y-96458061D01*
X90730555Y-96458163D01*
X90728848Y-96459847D01*
X90670188Y-96518508D01*
X90619930Y-96567724D01*
X90539604Y-96685039D01*
X90483593Y-96815721D01*
X90454032Y-96954794D01*
X90452047Y-97096960D01*
X86962792Y-97096960D01*
X87320000Y-96739752D01*
X87545003Y-96700078D01*
X87836630Y-96586963D01*
X88100732Y-96419359D01*
X88327250Y-96203649D01*
X88507555Y-95948050D01*
X88634781Y-95662296D01*
X88704080Y-95357274D01*
X88709069Y-95000002D01*
X88648313Y-94693164D01*
X88529116Y-94403969D01*
X88356017Y-94143435D01*
X88135611Y-93921485D01*
X87876291Y-93746571D01*
X87587937Y-93625358D01*
X87281530Y-93562462D01*
X86968742Y-93560278D01*
X86661486Y-93618890D01*
X86371467Y-93736066D01*
X86109731Y-93907341D01*
X85886247Y-94126193D01*
X85709528Y-94384285D01*
X85586304Y-94671786D01*
X85521270Y-94977747D01*
X85516903Y-95290512D01*
X85573369Y-95598169D01*
X85688516Y-95888999D01*
X85857960Y-96151925D01*
X86075247Y-96376931D01*
X86231039Y-96485209D01*
X85139248Y-97577000D01*
X84420512Y-97577000D01*
X84420512Y-94843600D01*
X84416385Y-94791845D01*
X84389200Y-94704063D01*
X84338637Y-94627330D01*
X84268698Y-94567721D01*
X84184921Y-94529957D01*
X84093940Y-94517028D01*
X83093180Y-94517028D01*
X83041425Y-94521155D01*
X82953643Y-94548340D01*
X82876910Y-94598903D01*
X82817301Y-94668842D01*
X82782015Y-94747122D01*
X82768680Y-94704063D01*
X82718117Y-94627330D01*
X82694286Y-94607019D01*
X82793496Y-94507809D01*
X82839477Y-94464022D01*
X82921434Y-94347841D01*
X82979264Y-94217953D01*
X83010763Y-94079306D01*
X83011844Y-94001867D01*
X83012996Y-93990531D01*
X83012131Y-93981377D01*
X83013031Y-93916910D01*
X82985415Y-93777438D01*
X82931234Y-93645986D01*
X82852553Y-93527562D01*
X82752368Y-93426675D01*
X82634496Y-93347169D01*
X82503426Y-93292072D01*
X82364150Y-93263483D01*
X82221973Y-93262490D01*
X82082312Y-93289132D01*
X81950485Y-93342394D01*
X81831514Y-93420246D01*
X81729930Y-93519724D01*
X81727669Y-93523026D01*
X81361328Y-93889368D01*
X81318860Y-93941069D01*
X81275773Y-93992419D01*
X81273935Y-93995762D01*
X81271517Y-93998706D01*
X81239891Y-94057688D01*
X81207607Y-94116412D01*
X81206454Y-94120048D01*
X81204653Y-94123406D01*
X81185071Y-94187454D01*
X81164823Y-94251284D01*
X81164398Y-94255070D01*
X81163283Y-94258718D01*
X81156510Y-94325401D01*
X81149051Y-94391897D01*
X81148999Y-94399344D01*
X81148984Y-94399489D01*
X81148997Y-94399624D01*
X81148980Y-94402020D01*
X81148980Y-94544011D01*
X81135003Y-94548340D01*
X81058270Y-94598903D01*
X80998661Y-94668842D01*
X80960897Y-94752619D01*
X80947968Y-94843600D01*
X80947968Y-97642680D01*
X80952095Y-97694435D01*
X80979280Y-97782217D01*
X81029843Y-97858950D01*
X81099782Y-97918559D01*
X81183559Y-97956323D01*
X81274540Y-97969252D01*
X82473420Y-97969252D01*
X82525175Y-97965125D01*
X82612957Y-97937940D01*
X82689690Y-97887377D01*
X82749299Y-97817438D01*
X82784585Y-97739158D01*
X82797920Y-97782217D01*
X82848483Y-97858950D01*
X82918422Y-97918559D01*
X83002199Y-97956323D01*
X83093180Y-97969252D01*
X83476996Y-97969252D01*
X83327500Y-98118748D01*
X83093180Y-98118748D01*
X83041425Y-98122875D01*
X82953643Y-98150060D01*
X82876910Y-98200623D01*
X82817301Y-98270562D01*
X82779537Y-98354339D01*
X82766608Y-98445320D01*
X82766608Y-101145236D01*
X82520592Y-100899220D01*
X82520592Y-98445320D01*
X82516465Y-98393565D01*
X82489280Y-98305783D01*
X82438717Y-98229050D01*
X82368778Y-98169441D01*
X82285001Y-98131677D01*
X82194020Y-98118748D01*
X81193260Y-98118748D01*
X81141505Y-98122875D01*
X81053723Y-98150060D01*
X80976990Y-98200623D01*
X80917381Y-98270562D01*
X80889000Y-98333523D01*
X80889000Y-88344000D01*
X83303810Y-88344000D01*
X83303810Y-87001000D01*
X85336000Y-87001000D01*
X85370824Y-86996051D01*
X85402891Y-86981596D01*
X85424388Y-86964388D01*
X85932388Y-86456388D01*
X85953513Y-86428265D01*
X85965967Y-86395369D01*
X85969000Y-86368000D01*
X85969000Y-80874601D01*
X86241421Y-80874601D01*
X86281251Y-81091620D01*
X86362476Y-81296769D01*
X86482000Y-81482235D01*
X86635272Y-81640953D01*
X86816453Y-81766877D01*
X87018643Y-81855211D01*
X87234139Y-81902591D01*
X87454734Y-81907212D01*
X87672026Y-81868898D01*
X87877737Y-81789108D01*
X88064032Y-81670881D01*
X88223816Y-81518721D01*
X88351002Y-81338423D01*
X88440746Y-81136855D01*
X88489629Y-80921695D01*
X88493148Y-80669678D01*
X88450292Y-80453237D01*
X88366211Y-80249242D01*
X88244109Y-80065463D01*
X88088636Y-79908901D01*
X87905714Y-79785519D01*
X87702311Y-79700016D01*
X87486174Y-79655649D01*
X87265536Y-79654109D01*
X87048801Y-79695453D01*
X86844223Y-79778108D01*
X86659597Y-79898924D01*
X86501953Y-80053300D01*
X86377297Y-80235356D01*
X86290376Y-80438158D01*
X86244502Y-80653979D01*
X86241421Y-80874601D01*
X85969000Y-80874601D01*
X85969000Y-80332079D01*
X87183044Y-79360843D01*
X90975581Y-77338157D01*
X92978666Y-76587000D01*
X106801000Y-76587000D01*
X106801000Y-81253248D01*
X106801000Y-81253248D01*
G37*
X106801000Y-81253248D02*
X106715148Y-81167396D01*
X106728746Y-81136855D01*
X106777629Y-80921695D01*
X106781148Y-80669678D01*
X106738292Y-80453237D01*
X106654211Y-80249242D01*
X106532109Y-80065463D01*
X106376636Y-79908901D01*
X106193714Y-79785519D01*
X105990311Y-79700016D01*
X105774174Y-79655649D01*
X105553536Y-79654109D01*
X105336801Y-79695453D01*
X105132223Y-79778108D01*
X104947597Y-79898924D01*
X104789953Y-80053300D01*
X104665297Y-80235356D01*
X104578376Y-80438158D01*
X104532502Y-80653979D01*
X104529421Y-80874601D01*
X104569251Y-81091620D01*
X104650476Y-81296769D01*
X104770000Y-81482235D01*
X104923272Y-81640953D01*
X105104453Y-81766877D01*
X105306643Y-81855211D01*
X105522139Y-81902591D01*
X105742734Y-81907212D01*
X105960026Y-81868898D01*
X106041532Y-81837284D01*
X106381101Y-82176853D01*
X106381101Y-82453397D01*
X106376636Y-82448901D01*
X106193714Y-82325519D01*
X105990311Y-82240016D01*
X105774174Y-82195649D01*
X105553536Y-82194109D01*
X105336801Y-82235453D01*
X105132223Y-82318108D01*
X104947597Y-82438924D01*
X104930899Y-82455276D01*
X104930899Y-82119899D01*
X104926615Y-82076208D01*
X104922793Y-82032522D01*
X104922097Y-82030126D01*
X104921853Y-82027638D01*
X104909161Y-81985602D01*
X104896929Y-81943499D01*
X104895780Y-81941282D01*
X104895058Y-81938891D01*
X104874446Y-81900125D01*
X104854267Y-81861195D01*
X104852711Y-81859245D01*
X104851537Y-81857038D01*
X104823796Y-81823025D01*
X104796431Y-81788745D01*
X104793003Y-81785269D01*
X104792945Y-81785198D01*
X104792879Y-81785143D01*
X104791774Y-81784023D01*
X104175148Y-81167397D01*
X104188746Y-81136855D01*
X104237629Y-80921695D01*
X104241148Y-80669678D01*
X104198292Y-80453237D01*
X104114211Y-80249242D01*
X103992109Y-80065463D01*
X103836636Y-79908901D01*
X103653714Y-79785519D01*
X103450311Y-79700016D01*
X103234174Y-79655649D01*
X103013536Y-79654109D01*
X102796801Y-79695453D01*
X102592223Y-79778108D01*
X102407597Y-79898924D01*
X102249953Y-80053300D01*
X102125297Y-80235356D01*
X102038376Y-80438158D01*
X101992502Y-80653979D01*
X101989421Y-80874601D01*
X102029251Y-81091620D01*
X102110476Y-81296769D01*
X102230000Y-81482235D01*
X102383272Y-81640953D01*
X102564453Y-81766877D01*
X102766643Y-81855211D01*
X102982139Y-81902591D01*
X103202734Y-81907212D01*
X103420026Y-81868898D01*
X103501532Y-81837284D01*
X103980899Y-82316650D01*
X103980899Y-82594174D01*
X103836636Y-82448901D01*
X103653714Y-82325519D01*
X103450311Y-82240016D01*
X103234174Y-82195649D01*
X103013536Y-82194109D01*
X102796801Y-82235453D01*
X102592223Y-82318108D01*
X102407597Y-82438924D01*
X102251101Y-82592176D01*
X102251101Y-81980101D01*
X102246817Y-81936410D01*
X102242995Y-81892724D01*
X102242299Y-81890328D01*
X102242055Y-81887840D01*
X102229363Y-81845804D01*
X102217131Y-81803701D01*
X102215982Y-81801484D01*
X102215260Y-81799093D01*
X102194648Y-81760327D01*
X102174469Y-81721397D01*
X102172913Y-81719447D01*
X102171739Y-81717240D01*
X102144023Y-81683257D01*
X102116634Y-81648947D01*
X102113200Y-81645465D01*
X102113147Y-81645400D01*
X102113086Y-81645350D01*
X102111977Y-81644225D01*
X101635148Y-81167396D01*
X101648746Y-81136855D01*
X101697629Y-80921695D01*
X101701148Y-80669678D01*
X101658292Y-80453237D01*
X101574211Y-80249242D01*
X101452109Y-80065463D01*
X101296636Y-79908901D01*
X101113714Y-79785519D01*
X100910311Y-79700016D01*
X100694174Y-79655649D01*
X100473536Y-79654109D01*
X100256801Y-79695453D01*
X100052223Y-79778108D01*
X99867597Y-79898924D01*
X99709953Y-80053300D01*
X99585297Y-80235356D01*
X99498376Y-80438158D01*
X99460542Y-80616153D01*
X99432407Y-80428223D01*
X99336947Y-80162556D01*
X99272152Y-80041336D01*
X99028973Y-79969460D01*
X98218434Y-80780000D01*
X99028973Y-81590540D01*
X99272152Y-81518664D01*
X99392506Y-81263310D01*
X99460730Y-80989382D01*
X99462746Y-80947202D01*
X99489251Y-81091620D01*
X99570476Y-81296769D01*
X99690000Y-81482235D01*
X99843272Y-81640953D01*
X100024453Y-81766877D01*
X100226643Y-81855211D01*
X100442139Y-81902591D01*
X100662734Y-81907212D01*
X100880026Y-81868898D01*
X100961532Y-81837284D01*
X101301101Y-82176853D01*
X101301101Y-82453397D01*
X101296636Y-82448901D01*
X101113714Y-82325519D01*
X100910311Y-82240016D01*
X100694174Y-82195649D01*
X100473536Y-82194109D01*
X100256801Y-82235453D01*
X100052223Y-82318108D01*
X99867597Y-82438924D01*
X99709953Y-82593300D01*
X99585297Y-82775356D01*
X99498376Y-82978158D01*
X99460542Y-83156153D01*
X99432407Y-82968223D01*
X99336947Y-82702556D01*
X99272152Y-82581336D01*
X99028973Y-82509460D01*
X98218434Y-83320000D01*
X99028973Y-84130540D01*
X99272152Y-84058664D01*
X99392506Y-83803310D01*
X99460730Y-83529382D01*
X99462746Y-83487202D01*
X99489251Y-83631620D01*
X99570476Y-83836769D01*
X99690000Y-84022235D01*
X99843272Y-84180953D01*
X99868336Y-84198373D01*
X95739280Y-88327428D01*
X95496000Y-88327428D01*
X95444245Y-88331555D01*
X95356463Y-88358740D01*
X95279730Y-88409303D01*
X95220121Y-88479242D01*
X95182357Y-88563019D01*
X95169428Y-88654000D01*
X95169428Y-89924000D01*
X95173555Y-89975755D01*
X95200740Y-90063537D01*
X95251303Y-90140270D01*
X95321242Y-90199879D01*
X95405019Y-90237643D01*
X95496000Y-90250572D01*
X96004000Y-90250572D01*
X96055755Y-90246445D01*
X96143537Y-90219260D01*
X96220270Y-90168697D01*
X96279879Y-90098758D01*
X96317643Y-90014981D01*
X96330572Y-89924000D01*
X96330572Y-89079640D01*
X96439428Y-88970784D01*
X96439428Y-89924000D01*
X96443555Y-89975755D01*
X96470740Y-90063537D01*
X96521303Y-90140270D01*
X96591242Y-90199879D01*
X96675019Y-90237643D01*
X96766000Y-90250572D01*
X97274000Y-90250572D01*
X97325755Y-90246445D01*
X97413537Y-90219260D01*
X97490270Y-90168697D01*
X97549879Y-90098758D01*
X97587643Y-90014981D01*
X97600572Y-89924000D01*
X97600572Y-88999180D01*
X97709428Y-88890323D01*
X97709428Y-89924000D01*
X97713555Y-89975755D01*
X97740740Y-90063537D01*
X97791303Y-90140270D01*
X97861242Y-90199879D01*
X97945019Y-90237643D01*
X98036000Y-90250572D01*
X98544000Y-90250572D01*
X98595755Y-90246445D01*
X98683537Y-90219260D01*
X98760270Y-90168697D01*
X98819879Y-90098758D01*
X98857643Y-90014981D01*
X98870572Y-89924000D01*
X98870572Y-88999180D01*
X98979428Y-88890324D01*
X98979428Y-89924000D01*
X98983555Y-89975755D01*
X99010740Y-90063537D01*
X99061303Y-90140270D01*
X99131242Y-90199879D01*
X99215019Y-90237643D01*
X99306000Y-90250572D01*
X99814000Y-90250572D01*
X99865755Y-90246445D01*
X99953537Y-90219260D01*
X100030270Y-90168697D01*
X100089879Y-90098758D01*
X100127643Y-90014981D01*
X100140572Y-89924000D01*
X100140572Y-88999180D01*
X100249428Y-88890323D01*
X100249428Y-89924000D01*
X100253555Y-89975755D01*
X100280740Y-90063537D01*
X100331303Y-90140270D01*
X100401242Y-90199879D01*
X100485019Y-90237643D01*
X100576000Y-90250572D01*
X101084000Y-90250572D01*
X101135755Y-90246445D01*
X101223537Y-90219260D01*
X101300270Y-90168697D01*
X101359879Y-90098758D01*
X101397643Y-90014981D01*
X101410572Y-89924000D01*
X101410572Y-88654000D01*
X101406445Y-88602245D01*
X101379260Y-88514463D01*
X101328697Y-88437730D01*
X101305000Y-88417533D01*
X101305000Y-88301519D01*
X101625000Y-87981519D01*
X101625000Y-88414853D01*
X101570121Y-88479242D01*
X101532357Y-88563019D01*
X101519428Y-88654000D01*
X101519428Y-89924000D01*
X101523555Y-89975755D01*
X101550740Y-90063537D01*
X101601303Y-90140270D01*
X101671242Y-90199879D01*
X101755019Y-90237643D01*
X101846000Y-90250572D01*
X102354000Y-90250572D01*
X102405755Y-90246445D01*
X102493537Y-90219260D01*
X102570270Y-90168697D01*
X102629879Y-90098758D01*
X102667643Y-90014981D01*
X102680572Y-89924000D01*
X102680572Y-88654000D01*
X102676445Y-88602245D01*
X102649260Y-88514463D01*
X102598697Y-88437730D01*
X102575000Y-88417533D01*
X102575000Y-87809352D01*
X105307032Y-85077320D01*
X106405680Y-85077320D01*
X106449371Y-85073036D01*
X106493057Y-85069214D01*
X106495453Y-85068518D01*
X106497941Y-85068274D01*
X106539977Y-85055582D01*
X106582080Y-85043350D01*
X106584297Y-85042201D01*
X106586688Y-85041479D01*
X106625454Y-85020867D01*
X106664384Y-85000688D01*
X106666334Y-84999132D01*
X106668541Y-84997958D01*
X106702524Y-84970242D01*
X106736834Y-84942853D01*
X106740316Y-84939419D01*
X106740381Y-84939366D01*
X106740431Y-84939305D01*
X106741556Y-84938196D01*
X106801000Y-84878752D01*
X106801000Y-100458243D01*
X106783258Y-100443121D01*
X106699481Y-100405357D01*
X106608500Y-100392428D01*
X106385000Y-100392428D01*
X106385000Y-99815147D01*
X106439879Y-99750758D01*
X106477643Y-99666981D01*
X106490572Y-99576000D01*
X106490572Y-98306000D01*
X106486445Y-98254245D01*
X106459260Y-98166463D01*
X106408697Y-98089730D01*
X106385000Y-98069533D01*
X106385000Y-96020000D01*
X106380716Y-95976305D01*
X106376894Y-95932623D01*
X106376198Y-95930227D01*
X106375954Y-95927739D01*
X106363253Y-95885672D01*
X106351030Y-95843600D01*
X106349881Y-95841383D01*
X106349159Y-95838992D01*
X106328536Y-95800206D01*
X106308368Y-95761297D01*
X106306813Y-95759349D01*
X106305638Y-95757139D01*
X106277904Y-95723135D01*
X106250533Y-95688846D01*
X106247099Y-95685364D01*
X106247046Y-95685299D01*
X106246985Y-95685249D01*
X106245876Y-95684124D01*
X105229876Y-94668124D01*
X105195936Y-94640245D01*
X105162359Y-94612071D01*
X105160174Y-94610870D01*
X105158241Y-94609282D01*
X105119557Y-94588541D01*
X105081122Y-94567411D01*
X105078739Y-94566655D01*
X105076540Y-94565476D01*
X105034583Y-94552648D01*
X104992758Y-94539380D01*
X104990278Y-94539102D01*
X104987888Y-94538371D01*
X104944236Y-94533937D01*
X104900632Y-94529046D01*
X104895748Y-94529012D01*
X104895658Y-94529003D01*
X104895574Y-94529011D01*
X104894000Y-94529000D01*
X98773757Y-94529000D01*
X97378386Y-93133629D01*
X99345367Y-93133629D01*
X99389058Y-93129345D01*
X99432744Y-93125523D01*
X99435140Y-93124827D01*
X99437628Y-93124583D01*
X99479664Y-93111891D01*
X99521767Y-93099659D01*
X99523984Y-93098510D01*
X99526375Y-93097788D01*
X99539899Y-93090597D01*
X99550372Y-93117048D01*
X99616769Y-93220076D01*
X99701912Y-93308244D01*
X99802559Y-93378196D01*
X99914877Y-93427266D01*
X100034586Y-93453586D01*
X100157128Y-93456153D01*
X100277835Y-93434869D01*
X100392109Y-93390545D01*
X100495597Y-93324870D01*
X100516484Y-93304980D01*
X103304020Y-93304980D01*
X103347711Y-93300696D01*
X103391397Y-93296874D01*
X103393793Y-93296178D01*
X103396281Y-93295934D01*
X103438317Y-93283242D01*
X103480420Y-93271010D01*
X103482637Y-93269861D01*
X103485028Y-93269139D01*
X103523794Y-93248527D01*
X103562724Y-93228348D01*
X103564674Y-93226792D01*
X103566881Y-93225618D01*
X103600864Y-93197902D01*
X103635174Y-93170513D01*
X103638656Y-93167079D01*
X103638721Y-93167026D01*
X103638771Y-93166965D01*
X103639896Y-93165856D01*
X106245876Y-90559876D01*
X106273733Y-90525962D01*
X106301929Y-90492359D01*
X106303132Y-90490170D01*
X106304717Y-90488241D01*
X106325448Y-90449577D01*
X106346589Y-90411122D01*
X106347344Y-90408741D01*
X106348524Y-90406541D01*
X106361357Y-90364569D01*
X106374620Y-90322758D01*
X106374898Y-90320278D01*
X106375629Y-90317888D01*
X106380063Y-90274236D01*
X106384954Y-90230632D01*
X106384988Y-90225748D01*
X106384997Y-90225658D01*
X106384989Y-90225574D01*
X106385000Y-90224000D01*
X106385000Y-90163147D01*
X106439879Y-90098758D01*
X106477643Y-90014981D01*
X106490572Y-89924000D01*
X106490572Y-88654000D01*
X106486445Y-88602245D01*
X106459260Y-88514463D01*
X106408697Y-88437730D01*
X106338758Y-88378121D01*
X106254981Y-88340357D01*
X106164000Y-88327428D01*
X105656000Y-88327428D01*
X105604245Y-88331555D01*
X105516463Y-88358740D01*
X105439730Y-88409303D01*
X105380121Y-88479242D01*
X105342357Y-88563019D01*
X105329428Y-88654000D01*
X105329428Y-89924000D01*
X105333555Y-89975755D01*
X105360740Y-90063537D01*
X105375822Y-90086426D01*
X105115000Y-90347248D01*
X105115000Y-90163147D01*
X105169879Y-90098758D01*
X105207643Y-90014981D01*
X105220572Y-89924000D01*
X105220572Y-88654000D01*
X105216445Y-88602245D01*
X105189260Y-88514463D01*
X105138697Y-88437730D01*
X105068758Y-88378121D01*
X104984981Y-88340357D01*
X104894000Y-88327428D01*
X104386000Y-88327428D01*
X104334245Y-88331555D01*
X104246463Y-88358740D01*
X104169730Y-88409303D01*
X104110121Y-88479242D01*
X104072357Y-88563019D01*
X104059428Y-88654000D01*
X104059428Y-89924000D01*
X104063555Y-89975755D01*
X104090740Y-90063537D01*
X104141303Y-90140270D01*
X104165000Y-90160467D01*
X104165000Y-90362463D01*
X103845000Y-90682463D01*
X103845000Y-90163147D01*
X103899879Y-90098758D01*
X103937643Y-90014981D01*
X103950572Y-89924000D01*
X103950572Y-88654000D01*
X103946445Y-88602245D01*
X103919260Y-88514463D01*
X103868697Y-88437730D01*
X103798758Y-88378121D01*
X103714981Y-88340357D01*
X103624000Y-88327428D01*
X103116000Y-88327428D01*
X103064245Y-88331555D01*
X102976463Y-88358740D01*
X102899730Y-88409303D01*
X102840121Y-88479242D01*
X102802357Y-88563019D01*
X102789428Y-88654000D01*
X102789428Y-89924000D01*
X102793555Y-89975755D01*
X102820740Y-90063537D01*
X102871303Y-90140270D01*
X102895000Y-90160467D01*
X102895000Y-90925341D01*
X102615374Y-91204967D01*
X99052277Y-91204967D01*
X99008586Y-91209251D01*
X98964900Y-91213073D01*
X98962504Y-91213769D01*
X98960016Y-91214013D01*
X98917980Y-91226705D01*
X98881080Y-91237425D01*
X98842703Y-91211540D01*
X98729712Y-91164042D01*
X98609646Y-91139396D01*
X98487081Y-91138541D01*
X98366683Y-91161508D01*
X98253039Y-91207423D01*
X98150478Y-91274537D01*
X98062906Y-91360294D01*
X97993658Y-91461427D01*
X97945373Y-91574084D01*
X97919890Y-91693975D01*
X97918179Y-91816532D01*
X97940305Y-91937087D01*
X97985425Y-92051048D01*
X98051822Y-92154076D01*
X98080361Y-92183629D01*
X97453415Y-92183629D01*
X97452124Y-92177111D01*
X97405416Y-92063791D01*
X97337588Y-91961700D01*
X97251222Y-91874729D01*
X97149607Y-91806190D01*
X97036616Y-91758692D01*
X96916550Y-91734046D01*
X96793985Y-91733191D01*
X96673587Y-91756158D01*
X96559943Y-91802073D01*
X96457382Y-91869187D01*
X96369810Y-91954944D01*
X96300673Y-92055915D01*
X94495330Y-90250572D01*
X94734000Y-90250572D01*
X94785755Y-90246445D01*
X94873537Y-90219260D01*
X94950270Y-90168697D01*
X95009879Y-90098758D01*
X95047643Y-90014981D01*
X95060572Y-89924000D01*
X95060572Y-88654000D01*
X95056445Y-88602245D01*
X95029260Y-88514463D01*
X94978697Y-88437730D01*
X94967921Y-88428545D01*
X95031477Y-88368022D01*
X95113434Y-88251841D01*
X95171264Y-88121953D01*
X95202763Y-87983306D01*
X95205031Y-87820910D01*
X95177415Y-87681438D01*
X95123234Y-87549986D01*
X95044553Y-87431562D01*
X94944368Y-87330675D01*
X94826496Y-87251169D01*
X94695426Y-87196072D01*
X94556150Y-87167483D01*
X94413973Y-87166490D01*
X94274312Y-87193132D01*
X94142485Y-87246394D01*
X94023514Y-87324246D01*
X93939000Y-87407008D01*
X93939000Y-86818752D01*
X94307875Y-86449876D01*
X94335708Y-86415992D01*
X94363929Y-86382359D01*
X94365132Y-86380170D01*
X94366717Y-86378241D01*
X94387448Y-86339577D01*
X94408589Y-86301122D01*
X94409344Y-86298741D01*
X94410524Y-86296541D01*
X94423357Y-86254569D01*
X94436620Y-86212758D01*
X94436898Y-86210278D01*
X94437629Y-86207888D01*
X94442063Y-86164232D01*
X94446954Y-86120632D01*
X94446988Y-86115749D01*
X94446997Y-86115659D01*
X94446989Y-86115575D01*
X94447000Y-86114000D01*
X94447000Y-84379836D01*
X94495742Y-84421379D01*
X94579519Y-84459143D01*
X94670500Y-84472072D01*
X96321500Y-84472072D01*
X96373255Y-84467945D01*
X96461037Y-84440760D01*
X96537770Y-84390197D01*
X96597379Y-84320258D01*
X96600662Y-84312973D01*
X97225460Y-84312973D01*
X97297336Y-84556152D01*
X97552690Y-84676506D01*
X97826618Y-84744730D01*
X98108592Y-84758204D01*
X98387777Y-84716407D01*
X98653444Y-84620947D01*
X98774664Y-84556152D01*
X98846540Y-84312973D01*
X98036000Y-83502434D01*
X97225460Y-84312973D01*
X96600662Y-84312973D01*
X96635143Y-84236481D01*
X96648072Y-84145500D01*
X96648072Y-83695374D01*
X96735053Y-83937444D01*
X96799848Y-84058664D01*
X97043027Y-84130540D01*
X97853566Y-83320000D01*
X97043027Y-82509460D01*
X96799848Y-82581336D01*
X96679494Y-82836690D01*
X96648072Y-82962853D01*
X96648072Y-82494500D01*
X96643945Y-82442745D01*
X96616760Y-82354963D01*
X96566197Y-82278230D01*
X96496258Y-82218621D01*
X96412481Y-82180857D01*
X96321500Y-82167928D01*
X94670500Y-82167928D01*
X94618745Y-82172055D01*
X94530963Y-82199240D01*
X94454230Y-82249803D01*
X94394621Y-82319742D01*
X94387065Y-82336505D01*
X94370369Y-82304295D01*
X94368811Y-82302344D01*
X94367638Y-82300137D01*
X94339907Y-82266136D01*
X94312533Y-82231845D01*
X94309101Y-82228364D01*
X94309046Y-82228297D01*
X94308984Y-82228246D01*
X94307876Y-82227122D01*
X93794878Y-81714124D01*
X93760938Y-81686245D01*
X93727361Y-81658071D01*
X93725176Y-81656870D01*
X93723243Y-81655282D01*
X93684559Y-81634541D01*
X93646124Y-81613411D01*
X93643741Y-81612655D01*
X93641542Y-81611476D01*
X93599585Y-81598648D01*
X93557760Y-81585380D01*
X93555280Y-81585102D01*
X93552890Y-81584371D01*
X93509238Y-81579937D01*
X93485757Y-81577303D01*
X93684152Y-81518664D01*
X93804506Y-81263310D01*
X93872730Y-80989382D01*
X93878214Y-80874601D01*
X94369421Y-80874601D01*
X94409251Y-81091620D01*
X94490476Y-81296769D01*
X94610000Y-81482235D01*
X94763272Y-81640953D01*
X94944453Y-81766877D01*
X95146643Y-81855211D01*
X95362139Y-81902591D01*
X95582734Y-81907212D01*
X95800026Y-81868898D01*
X96005737Y-81789108D01*
X96031161Y-81772973D01*
X97225460Y-81772973D01*
X97297336Y-82016152D01*
X97364639Y-82047873D01*
X97297336Y-82083848D01*
X97225460Y-82327027D01*
X98036000Y-83137566D01*
X98846540Y-82327027D01*
X98774664Y-82083848D01*
X98707361Y-82052127D01*
X98774664Y-82016152D01*
X98846540Y-81772973D01*
X98036000Y-80962434D01*
X97225460Y-81772973D01*
X96031161Y-81772973D01*
X96192032Y-81670881D01*
X96351816Y-81518721D01*
X96479002Y-81338423D01*
X96568746Y-81136855D01*
X96611910Y-80946867D01*
X96639593Y-81131777D01*
X96735053Y-81397444D01*
X96799848Y-81518664D01*
X97043027Y-81590540D01*
X97853566Y-80780000D01*
X97043027Y-79969460D01*
X96799848Y-80041336D01*
X96679494Y-80296690D01*
X96611270Y-80570618D01*
X96609377Y-80610230D01*
X96578292Y-80453237D01*
X96494211Y-80249242D01*
X96372109Y-80065463D01*
X96216636Y-79908901D01*
X96035950Y-79787027D01*
X97225460Y-79787027D01*
X98036000Y-80597566D01*
X98846540Y-79787027D01*
X98774664Y-79543848D01*
X98519310Y-79423494D01*
X98245382Y-79355270D01*
X97963408Y-79341796D01*
X97684223Y-79383593D01*
X97418556Y-79479053D01*
X97297336Y-79543848D01*
X97225460Y-79787027D01*
X96035950Y-79787027D01*
X96033714Y-79785519D01*
X95830311Y-79700016D01*
X95614174Y-79655649D01*
X95393536Y-79654109D01*
X95176801Y-79695453D01*
X94972223Y-79778108D01*
X94787597Y-79898924D01*
X94629953Y-80053300D01*
X94505297Y-80235356D01*
X94418376Y-80438158D01*
X94372502Y-80653979D01*
X94369421Y-80874601D01*
X93878214Y-80874601D01*
X93886204Y-80707408D01*
X93844407Y-80428223D01*
X93748947Y-80162556D01*
X93684152Y-80041336D01*
X93440973Y-79969460D01*
X92630434Y-80780000D01*
X92644576Y-80794142D01*
X92462142Y-80976576D01*
X92448000Y-80962434D01*
X92433858Y-80976576D01*
X92251424Y-80794142D01*
X92265566Y-80780000D01*
X91455027Y-79969460D01*
X91211848Y-80041336D01*
X91091494Y-80296690D01*
X91023270Y-80570618D01*
X91021377Y-80610230D01*
X90990292Y-80453237D01*
X90906211Y-80249242D01*
X90784109Y-80065463D01*
X90628636Y-79908901D01*
X90447950Y-79787027D01*
X91637460Y-79787027D01*
X92448000Y-80597566D01*
X93258540Y-79787027D01*
X93186664Y-79543848D01*
X92931310Y-79423494D01*
X92657382Y-79355270D01*
X92375408Y-79341796D01*
X92096223Y-79383593D01*
X91830556Y-79479053D01*
X91709336Y-79543848D01*
X91637460Y-79787027D01*
X90447950Y-79787027D01*
X90445714Y-79785519D01*
X90242311Y-79700016D01*
X90026174Y-79655649D01*
X89805536Y-79654109D01*
X89588801Y-79695453D01*
X89384223Y-79778108D01*
X89199597Y-79898924D01*
X89041953Y-80053300D01*
X88917297Y-80235356D01*
X88830376Y-80438158D01*
X88784502Y-80653979D01*
X88781421Y-80874601D01*
X88821251Y-81091620D01*
X88902476Y-81296769D01*
X89022000Y-81482235D01*
X89175272Y-81640953D01*
X89356453Y-81766877D01*
X89558643Y-81855211D01*
X89774139Y-81902591D01*
X89994734Y-81907212D01*
X90212026Y-81868898D01*
X90293532Y-81837284D01*
X90842124Y-82385876D01*
X90876038Y-82413733D01*
X90909641Y-82441929D01*
X90911830Y-82443132D01*
X90913759Y-82444717D01*
X90952404Y-82465438D01*
X90990878Y-82486589D01*
X90993261Y-82487345D01*
X90995460Y-82488524D01*
X91037417Y-82501352D01*
X91079242Y-82514620D01*
X91081722Y-82514898D01*
X91084112Y-82515629D01*
X91127764Y-82520063D01*
X91171368Y-82524954D01*
X91176252Y-82524988D01*
X91176342Y-82524997D01*
X91176426Y-82524989D01*
X91178000Y-82525000D01*
X91295928Y-82525000D01*
X91295928Y-84036176D01*
X90967148Y-83707396D01*
X90980746Y-83676855D01*
X91029629Y-83461695D01*
X91033148Y-83209678D01*
X90990292Y-82993237D01*
X90906211Y-82789242D01*
X90784109Y-82605463D01*
X90628636Y-82448901D01*
X90445714Y-82325519D01*
X90242311Y-82240016D01*
X90026174Y-82195649D01*
X89805536Y-82194109D01*
X89588801Y-82235453D01*
X89384223Y-82318108D01*
X89199597Y-82438924D01*
X89041953Y-82593300D01*
X88917297Y-82775356D01*
X88830376Y-82978158D01*
X88784502Y-83193979D01*
X88781421Y-83414601D01*
X88821251Y-83631620D01*
X88902476Y-83836769D01*
X89022000Y-84022235D01*
X89175272Y-84180953D01*
X89356453Y-84306877D01*
X89558643Y-84395211D01*
X89774139Y-84442591D01*
X89994734Y-84447212D01*
X90212026Y-84408898D01*
X90293532Y-84377284D01*
X91409118Y-85492870D01*
X91409118Y-86689366D01*
X88427148Y-83707396D01*
X88440746Y-83676855D01*
X88489629Y-83461695D01*
X88493148Y-83209678D01*
X88450292Y-82993237D01*
X88366211Y-82789242D01*
X88244109Y-82605463D01*
X88088636Y-82448901D01*
X87905714Y-82325519D01*
X87702311Y-82240016D01*
X87486174Y-82195649D01*
X87265536Y-82194109D01*
X87048801Y-82235453D01*
X86844223Y-82318108D01*
X86659597Y-82438924D01*
X86501953Y-82593300D01*
X86377297Y-82775356D01*
X86290376Y-82978158D01*
X86244502Y-83193979D01*
X86241421Y-83414601D01*
X86281251Y-83631620D01*
X86362476Y-83836769D01*
X86482000Y-84022235D01*
X86635272Y-84180953D01*
X86816453Y-84306877D01*
X87018643Y-84395211D01*
X87234139Y-84442591D01*
X87454734Y-84447212D01*
X87672026Y-84408898D01*
X87753532Y-84377284D01*
X90738900Y-87362652D01*
X90738900Y-89786149D01*
X90732806Y-89792117D01*
X90663558Y-89893250D01*
X90615273Y-90005907D01*
X90589790Y-90125798D01*
X90588079Y-90248355D01*
X90610205Y-90368910D01*
X90655325Y-90482871D01*
X90721722Y-90585899D01*
X90806865Y-90674067D01*
X90907512Y-90744019D01*
X91019830Y-90793089D01*
X91139539Y-90819409D01*
X91262081Y-90821976D01*
X91382788Y-90800692D01*
X91497062Y-90756368D01*
X91600550Y-90690693D01*
X91689311Y-90606167D01*
X91759964Y-90506010D01*
X91809817Y-90394038D01*
X91816894Y-90362890D01*
X92581746Y-91127742D01*
X92562172Y-91123724D01*
X92349006Y-91122235D01*
X92139610Y-91162180D01*
X91941960Y-91242035D01*
X91763586Y-91358760D01*
X91611280Y-91507909D01*
X91558495Y-91585000D01*
X90166884Y-91585000D01*
X88594424Y-90012540D01*
X88634781Y-89921896D01*
X88704080Y-89616874D01*
X88709069Y-89259602D01*
X88648313Y-88952764D01*
X88529116Y-88663569D01*
X88356017Y-88403035D01*
X88135611Y-88181085D01*
X87876291Y-88006171D01*
X87587937Y-87884958D01*
X87281530Y-87822062D01*
X86968742Y-87819878D01*
X86661486Y-87878490D01*
X86371467Y-87995666D01*
X86109731Y-88166941D01*
X85886247Y-88385793D01*
X85709528Y-88643885D01*
X85586304Y-88931386D01*
X85521270Y-89237347D01*
X85516903Y-89550112D01*
X85573369Y-89857769D01*
X85688516Y-90148599D01*
X85857960Y-90411525D01*
X86075247Y-90636531D01*
X86332099Y-90815048D01*
X86618733Y-90940275D01*
X86924232Y-91007444D01*
X87236959Y-91013994D01*
X87545003Y-90959678D01*
X87709853Y-90895737D01*
X89466058Y-92651942D01*
X89510688Y-92688601D01*
X89554896Y-92725696D01*
X89557775Y-92727279D01*
X89560315Y-92729365D01*
X89611147Y-92756621D01*
X89661786Y-92784460D01*
X89664924Y-92785456D01*
X89667816Y-92787006D01*
X89723010Y-92803881D01*
X89778055Y-92821342D01*
X89781317Y-92821708D01*
X89784464Y-92822670D01*
X89841937Y-92828508D01*
X89899274Y-92834939D01*
X89905699Y-92834984D01*
X89905818Y-92834996D01*
X89905929Y-92834986D01*
X89908000Y-92835000D01*
X91557554Y-92835000D01*
X91592003Y-92888455D01*
X91704549Y-93005000D01*
X91587157Y-93005000D01*
X91578318Y-92996099D01*
X91476703Y-92927560D01*
X91363712Y-92880062D01*
X91243646Y-92855416D01*
X91121081Y-92854561D01*
X91000683Y-92877528D01*
X90887039Y-92923443D01*
X90784478Y-92990557D01*
X90696906Y-93076314D01*
X90627658Y-93177447D01*
X90579373Y-93290104D01*
X90553890Y-93409995D01*
X90552179Y-93532552D01*
X90574305Y-93653107D01*
X90619425Y-93767068D01*
X90685822Y-93870096D01*
X90770965Y-93958264D01*
X90871612Y-94028216D01*
X90983930Y-94077286D01*
X91103639Y-94103606D01*
X91226181Y-94106173D01*
X91346888Y-94084889D01*
X91461162Y-94040565D01*
X91564650Y-93974890D01*
X91585537Y-93955000D01*
X94672366Y-93955000D01*
X97815000Y-97097634D01*
X97815000Y-98066853D01*
X97760121Y-98131242D01*
X97722357Y-98215019D01*
X97709428Y-98306000D01*
X97709428Y-99339677D01*
X97600572Y-99230820D01*
X97600572Y-98306000D01*
X97596445Y-98254245D01*
X97569260Y-98166463D01*
X97518697Y-98089730D01*
X97448758Y-98030121D01*
X97364981Y-97992357D01*
X97274000Y-97979428D01*
X96766000Y-97979428D01*
X96714245Y-97983555D01*
X96626463Y-98010740D01*
X96549730Y-98061303D01*
X96490121Y-98131242D01*
X96452357Y-98215019D01*
X96439428Y-98306000D01*
X96439428Y-99576000D01*
X96443555Y-99627755D01*
X96470740Y-99715537D01*
X96521303Y-99792270D01*
X96591242Y-99851879D01*
X96675019Y-99889643D01*
X96766000Y-99902572D01*
X96928820Y-99902572D01*
X97127685Y-100101436D01*
X97132970Y-100119628D01*
X97134119Y-100121845D01*
X97134841Y-100124236D01*
X97155453Y-100163002D01*
X97166414Y-100184148D01*
X96225000Y-100184148D01*
X96225000Y-99815147D01*
X96279879Y-99750758D01*
X96317643Y-99666981D01*
X96330572Y-99576000D01*
X96330572Y-98306000D01*
X96326445Y-98254245D01*
X96299260Y-98166463D01*
X96248697Y-98089730D01*
X96178758Y-98030121D01*
X96094981Y-97992357D01*
X96004000Y-97979428D01*
X95496000Y-97979428D01*
X95444245Y-97983555D01*
X95356463Y-98010740D01*
X95309635Y-98041597D01*
X95294957Y-98006162D01*
X95225683Y-97902486D01*
X95137514Y-97814317D01*
X95033838Y-97745043D01*
X94918639Y-97697326D01*
X94796345Y-97673000D01*
X94765250Y-97673000D01*
X94607000Y-97831250D01*
X94607000Y-98812000D01*
X94629000Y-98812000D01*
X94629000Y-99070000D01*
X94607000Y-99070000D01*
X94607000Y-100050750D01*
X94765250Y-100209000D01*
X94796345Y-100209000D01*
X94918639Y-100184674D01*
X95033838Y-100136957D01*
X95137514Y-100067683D01*
X95225683Y-99979514D01*
X95275000Y-99905706D01*
X95275000Y-100290944D01*
X95236631Y-100335962D01*
X95198867Y-100419739D01*
X95185938Y-100510720D01*
X95185938Y-102288765D01*
X95168860Y-102290440D01*
X95125133Y-102294266D01*
X95122737Y-102294962D01*
X95120249Y-102295206D01*
X95078259Y-102307884D01*
X95036110Y-102320129D01*
X95033889Y-102321280D01*
X95031502Y-102322001D01*
X94992791Y-102342584D01*
X94953807Y-102362791D01*
X94951856Y-102364349D01*
X94949649Y-102365522D01*
X94915648Y-102393253D01*
X94881357Y-102420627D01*
X94877880Y-102424056D01*
X94877809Y-102424114D01*
X94877754Y-102424180D01*
X94876635Y-102425284D01*
X94144124Y-103157794D01*
X93565418Y-103736500D01*
X93470640Y-103736500D01*
X93468945Y-103715245D01*
X93441760Y-103627463D01*
X93391197Y-103550730D01*
X93321258Y-103491121D01*
X93237481Y-103453357D01*
X93146500Y-103440428D01*
X92637356Y-103440428D01*
X92741730Y-103422024D01*
X92940476Y-103344936D01*
X93120462Y-103230713D01*
X93274835Y-103083705D01*
X93397715Y-102909513D01*
X93484419Y-102714771D01*
X93531647Y-102506896D01*
X93535047Y-102263414D01*
X93493642Y-102054302D01*
X93412408Y-101857215D01*
X93294441Y-101679660D01*
X93144233Y-101528399D01*
X92967505Y-101409195D01*
X92770990Y-101326588D01*
X92562172Y-101283724D01*
X92349006Y-101282235D01*
X92139610Y-101322180D01*
X91941960Y-101402035D01*
X91763586Y-101518760D01*
X91611280Y-101667909D01*
X91490845Y-101843800D01*
X91406868Y-102039733D01*
X91362547Y-102248247D01*
X91359571Y-102461398D01*
X91398052Y-102671068D01*
X91476526Y-102869270D01*
X91592003Y-103048455D01*
X91740085Y-103201798D01*
X91915130Y-103323458D01*
X92110473Y-103408801D01*
X92254319Y-103440428D01*
X91749500Y-103440428D01*
X91697745Y-103444555D01*
X91609963Y-103471740D01*
X91533230Y-103522303D01*
X91473621Y-103592242D01*
X91435857Y-103676019D01*
X91422928Y-103767000D01*
X91422928Y-104656000D01*
X91427055Y-104707755D01*
X91454240Y-104795537D01*
X91504803Y-104872270D01*
X91574742Y-104931879D01*
X91658519Y-104969643D01*
X91749500Y-104982572D01*
X93146500Y-104982572D01*
X93198255Y-104978445D01*
X93286037Y-104951260D01*
X93362770Y-104900697D01*
X93422379Y-104830758D01*
X93460143Y-104746981D01*
X93468738Y-104686500D01*
X93762170Y-104686500D01*
X93805861Y-104682216D01*
X93849547Y-104678394D01*
X93851943Y-104677698D01*
X93854431Y-104677454D01*
X93896467Y-104664762D01*
X93938570Y-104652530D01*
X93940787Y-104651381D01*
X93943178Y-104650659D01*
X93981944Y-104630047D01*
X94020874Y-104609868D01*
X94022824Y-104608312D01*
X94025031Y-104607138D01*
X94059014Y-104579422D01*
X94093324Y-104552033D01*
X94096806Y-104548599D01*
X94096871Y-104548546D01*
X94096921Y-104548485D01*
X94098046Y-104547376D01*
X94815876Y-103829546D01*
X95185938Y-103459483D01*
X95185938Y-105011600D01*
X95190065Y-105063355D01*
X95217250Y-105151137D01*
X95267813Y-105227870D01*
X95337752Y-105287479D01*
X95421529Y-105325243D01*
X95512510Y-105338172D01*
X97436491Y-105338172D01*
X97436491Y-107113317D01*
X96176124Y-108373684D01*
X96148245Y-108407624D01*
X96120071Y-108441201D01*
X96118870Y-108443386D01*
X96117282Y-108445319D01*
X96096541Y-108484003D01*
X96075411Y-108522438D01*
X96074655Y-108524821D01*
X96073476Y-108527020D01*
X96060648Y-108568977D01*
X96047380Y-108610802D01*
X96047102Y-108613282D01*
X96046371Y-108615672D01*
X96041937Y-108659324D01*
X96039283Y-108682988D01*
X95512510Y-108682988D01*
X95460755Y-108687115D01*
X95372973Y-108714300D01*
X95296240Y-108764863D01*
X95236631Y-108834802D01*
X95198867Y-108918579D01*
X95185938Y-109009560D01*
X95185938Y-110213500D01*
X93470640Y-110213500D01*
X93468945Y-110192245D01*
X93441760Y-110104463D01*
X93391197Y-110027730D01*
X93321258Y-109968121D01*
X93237481Y-109930357D01*
X93146500Y-109917428D01*
X91749500Y-109917428D01*
X91697745Y-109921555D01*
X91609963Y-109948740D01*
X91533230Y-109999303D01*
X91473621Y-110069242D01*
X91435857Y-110153019D01*
X91422928Y-110244000D01*
X91422928Y-111133000D01*
X91427055Y-111184755D01*
X91454240Y-111272537D01*
X91504803Y-111349270D01*
X91574742Y-111408879D01*
X91658519Y-111446643D01*
X91749500Y-111459572D01*
X93146500Y-111459572D01*
X93198255Y-111455445D01*
X93286037Y-111428260D01*
X93362770Y-111377697D01*
X93422379Y-111307758D01*
X93460143Y-111223981D01*
X93468738Y-111163500D01*
X95185938Y-111163500D01*
X95185938Y-113510440D01*
X95190065Y-113562195D01*
X95217250Y-113649977D01*
X95267813Y-113726710D01*
X95337752Y-113786319D01*
X95421529Y-113824083D01*
X95512510Y-113837012D01*
X97511490Y-113837012D01*
X97563245Y-113832885D01*
X97651027Y-113805700D01*
X97727760Y-113755137D01*
X97787369Y-113685198D01*
X97825133Y-113601421D01*
X97838062Y-113510440D01*
X97838062Y-109009560D01*
X97833935Y-108957805D01*
X97806750Y-108870023D01*
X97756187Y-108793290D01*
X97686248Y-108733681D01*
X97602471Y-108695917D01*
X97511490Y-108682988D01*
X97210324Y-108682988D01*
X98247367Y-107645945D01*
X98275246Y-107612005D01*
X98303420Y-107578428D01*
X98304621Y-107576243D01*
X98306209Y-107574310D01*
X98326950Y-107535626D01*
X98348080Y-107497191D01*
X98348836Y-107494808D01*
X98350015Y-107492609D01*
X98362843Y-107450652D01*
X98376111Y-107408827D01*
X98376389Y-107406347D01*
X98377120Y-107403957D01*
X98381554Y-107360305D01*
X98386445Y-107316701D01*
X98386479Y-107311817D01*
X98386488Y-107311727D01*
X98386480Y-107311643D01*
X98386491Y-107310069D01*
X98386491Y-100720349D01*
X98814481Y-101148338D01*
X98814481Y-115238561D01*
X98774664Y-115103848D01*
X98519310Y-114983494D01*
X98245382Y-114915270D01*
X97963408Y-114901796D01*
X97684223Y-114943593D01*
X97418556Y-115039053D01*
X97297336Y-115103848D01*
X97225460Y-115347027D01*
X98036000Y-116157566D01*
X98050142Y-116143424D01*
X98232576Y-116325858D01*
X98218434Y-116340000D01*
X98232576Y-116354142D01*
X98050142Y-116536576D01*
X98036000Y-116522434D01*
X97225460Y-117332973D01*
X97297336Y-117576152D01*
X97364639Y-117607873D01*
X97297336Y-117643848D01*
X97225460Y-117887027D01*
X98036000Y-118697566D01*
X98050142Y-118683424D01*
X98232576Y-118865858D01*
X98218434Y-118880000D01*
X99028973Y-119690540D01*
X99272152Y-119618664D01*
X99392506Y-119363310D01*
X99460730Y-119089382D01*
X99462746Y-119047202D01*
X99489251Y-119191620D01*
X99570476Y-119396769D01*
X99690000Y-119582235D01*
X99843272Y-119740953D01*
X100024453Y-119866877D01*
X100226643Y-119955211D01*
X100442139Y-120002591D01*
X100662734Y-120007212D01*
X100880026Y-119968898D01*
X101085737Y-119889108D01*
X101272032Y-119770881D01*
X101431816Y-119618721D01*
X101559002Y-119438423D01*
X101648746Y-119236855D01*
X101697629Y-119021695D01*
X101698286Y-118974601D01*
X101989421Y-118974601D01*
X102029251Y-119191620D01*
X102110476Y-119396769D01*
X102230000Y-119582235D01*
X102383272Y-119740953D01*
X102564453Y-119866877D01*
X102766643Y-119955211D01*
X102982139Y-120002591D01*
X103202734Y-120007212D01*
X103420026Y-119968898D01*
X103625737Y-119889108D01*
X103812032Y-119770881D01*
X103971816Y-119618721D01*
X104099002Y-119438423D01*
X104188746Y-119236855D01*
X104237629Y-119021695D01*
X104241148Y-118769678D01*
X104198292Y-118553237D01*
X104114211Y-118349242D01*
X103992109Y-118165463D01*
X103836636Y-118008901D01*
X103653714Y-117885519D01*
X103450311Y-117800016D01*
X103234174Y-117755649D01*
X103013536Y-117754109D01*
X102796801Y-117795453D01*
X102592223Y-117878108D01*
X102407597Y-117998924D01*
X102249953Y-118153300D01*
X102125297Y-118335356D01*
X102038376Y-118538158D01*
X101992502Y-118753979D01*
X101989421Y-118974601D01*
X101698286Y-118974601D01*
X101701148Y-118769678D01*
X101658292Y-118553237D01*
X101574211Y-118349242D01*
X101452109Y-118165463D01*
X101296636Y-118008901D01*
X101113714Y-117885519D01*
X100910311Y-117800016D01*
X100694174Y-117755649D01*
X100473536Y-117754109D01*
X100256801Y-117795453D01*
X100190138Y-117822386D01*
X99764481Y-117396729D01*
X99764481Y-117119362D01*
X99843272Y-117200953D01*
X100024453Y-117326877D01*
X100226643Y-117415211D01*
X100442139Y-117462591D01*
X100662734Y-117467212D01*
X100880026Y-117428898D01*
X101085737Y-117349108D01*
X101272032Y-117230881D01*
X101431816Y-117078721D01*
X101559002Y-116898423D01*
X101648746Y-116696855D01*
X101697629Y-116481695D01*
X101701148Y-116229678D01*
X101658292Y-116013237D01*
X101574211Y-115809242D01*
X101452109Y-115625463D01*
X101296636Y-115468901D01*
X101113714Y-115345519D01*
X100910311Y-115260016D01*
X100694174Y-115215649D01*
X100473536Y-115214109D01*
X100256801Y-115255453D01*
X100052223Y-115338108D01*
X99867597Y-115458924D01*
X99764481Y-115559902D01*
X99764481Y-100951587D01*
X99760577Y-100911773D01*
X99769531Y-100917996D01*
X99881849Y-100967066D01*
X100001558Y-100993386D01*
X100124100Y-100995953D01*
X100244807Y-100974669D01*
X100312928Y-100948247D01*
X100312928Y-101608000D01*
X100317055Y-101659755D01*
X100344240Y-101747537D01*
X100394803Y-101824270D01*
X100464742Y-101883879D01*
X100548519Y-101921643D01*
X100639500Y-101934572D01*
X101911501Y-101934572D01*
X101911501Y-102297428D01*
X100639500Y-102297428D01*
X100587745Y-102301555D01*
X100499963Y-102328740D01*
X100423230Y-102379303D01*
X100363621Y-102449242D01*
X100325857Y-102533019D01*
X100312928Y-102624000D01*
X100312928Y-103513000D01*
X100317055Y-103564755D01*
X100344240Y-103652537D01*
X100394803Y-103729270D01*
X100464742Y-103788879D01*
X100548519Y-103826643D01*
X100639500Y-103839572D01*
X101081124Y-103839572D01*
X101079464Y-103958460D01*
X101101590Y-104079015D01*
X101146710Y-104192976D01*
X101213107Y-104296004D01*
X101298250Y-104384172D01*
X101398897Y-104454124D01*
X101511215Y-104503194D01*
X101630924Y-104529514D01*
X101753466Y-104532081D01*
X101874173Y-104510797D01*
X101911501Y-104496318D01*
X101911501Y-106144746D01*
X101696123Y-106360123D01*
X101668244Y-106394063D01*
X101640070Y-106427640D01*
X101638869Y-106429825D01*
X101637281Y-106431758D01*
X101616540Y-106470442D01*
X101595410Y-106508877D01*
X101594654Y-106511260D01*
X101593475Y-106513459D01*
X101580647Y-106555416D01*
X101567379Y-106597241D01*
X101567101Y-106599721D01*
X101566370Y-106602111D01*
X101561936Y-106645763D01*
X101557045Y-106689367D01*
X101557011Y-106694251D01*
X101557002Y-106694341D01*
X101557010Y-106694425D01*
X101556999Y-106695999D01*
X101556999Y-112715999D01*
X101561283Y-112759690D01*
X101565105Y-112803376D01*
X101565801Y-112805772D01*
X101566045Y-112808260D01*
X101578737Y-112850296D01*
X101590969Y-112892399D01*
X101592118Y-112894616D01*
X101592840Y-112897007D01*
X101613452Y-112935773D01*
X101633631Y-112974703D01*
X101635187Y-112976653D01*
X101636361Y-112978860D01*
X101664077Y-113012843D01*
X101691466Y-113047153D01*
X101694900Y-113050635D01*
X101694953Y-113050700D01*
X101695014Y-113050750D01*
X101696123Y-113051875D01*
X103890161Y-115245912D01*
X103890161Y-115522801D01*
X103836636Y-115468901D01*
X103653714Y-115345519D01*
X103450311Y-115260016D01*
X103234174Y-115215649D01*
X103013536Y-115214109D01*
X102796801Y-115255453D01*
X102592223Y-115338108D01*
X102407597Y-115458924D01*
X102249953Y-115613300D01*
X102125297Y-115795356D01*
X102038376Y-115998158D01*
X101992502Y-116213979D01*
X101989421Y-116434601D01*
X102029251Y-116651620D01*
X102110476Y-116856769D01*
X102230000Y-117042235D01*
X102383272Y-117200953D01*
X102564453Y-117326877D01*
X102766643Y-117415211D01*
X102982139Y-117462591D01*
X103202734Y-117467212D01*
X103420026Y-117428898D01*
X103625737Y-117349108D01*
X103812032Y-117230881D01*
X103890161Y-117156480D01*
X103890161Y-117589161D01*
X103894445Y-117632852D01*
X103898267Y-117676538D01*
X103898963Y-117678934D01*
X103899207Y-117681422D01*
X103911899Y-117723458D01*
X103924131Y-117765561D01*
X103925280Y-117767778D01*
X103926002Y-117770169D01*
X103946614Y-117808935D01*
X103966793Y-117847865D01*
X103968349Y-117849815D01*
X103969523Y-117852022D01*
X103997239Y-117886005D01*
X104024628Y-117920315D01*
X104028062Y-117923797D01*
X104028115Y-117923862D01*
X104028176Y-117923912D01*
X104029285Y-117925037D01*
X104597586Y-118493338D01*
X104578376Y-118538158D01*
X104532502Y-118753979D01*
X104529421Y-118974601D01*
X104569251Y-119191620D01*
X104650476Y-119396769D01*
X104770000Y-119582235D01*
X104923272Y-119740953D01*
X105104453Y-119866877D01*
X105306643Y-119955211D01*
X105522139Y-120002591D01*
X105742734Y-120007212D01*
X105960026Y-119968898D01*
X106165737Y-119889108D01*
X106352032Y-119770881D01*
X106511816Y-119618721D01*
X106639002Y-119438423D01*
X106728746Y-119236855D01*
X106777629Y-119021695D01*
X106781148Y-118769678D01*
X106738292Y-118553237D01*
X106654211Y-118349242D01*
X106532109Y-118165463D01*
X106376636Y-118008901D01*
X106193714Y-117885519D01*
X105990311Y-117800016D01*
X105774174Y-117755649D01*
X105553536Y-117754109D01*
X105336801Y-117795453D01*
X105270138Y-117822386D01*
X104840161Y-117392409D01*
X104840161Y-117114889D01*
X104923272Y-117200953D01*
X105104453Y-117326877D01*
X105306643Y-117415211D01*
X105522139Y-117462591D01*
X105742734Y-117467212D01*
X105960026Y-117428898D01*
X106165737Y-117349108D01*
X106352032Y-117230881D01*
X106511816Y-117078721D01*
X106639002Y-116898423D01*
X106728746Y-116696855D01*
X106777629Y-116481695D01*
X106781148Y-116229678D01*
X106738292Y-116013237D01*
X106654211Y-115809242D01*
X106532109Y-115625463D01*
X106376636Y-115468901D01*
X106193714Y-115345519D01*
X105990311Y-115260016D01*
X105774174Y-115215649D01*
X105553536Y-115214109D01*
X105336801Y-115255453D01*
X105132223Y-115338108D01*
X104947597Y-115458924D01*
X104840161Y-115564133D01*
X104840161Y-115049161D01*
X104835877Y-115005470D01*
X104832055Y-114961784D01*
X104831359Y-114959388D01*
X104831115Y-114956900D01*
X104818423Y-114914864D01*
X104806191Y-114872761D01*
X104805042Y-114870544D01*
X104804320Y-114868153D01*
X104783708Y-114829387D01*
X104763529Y-114790457D01*
X104761973Y-114788507D01*
X104760799Y-114786300D01*
X104733058Y-114752287D01*
X104705693Y-114718007D01*
X104702265Y-114714531D01*
X104702207Y-114714460D01*
X104702141Y-114714405D01*
X104701036Y-114713285D01*
X102506999Y-112519247D01*
X102506999Y-109008470D01*
X102780644Y-109291838D01*
X103114793Y-109524077D01*
X103487687Y-109686991D01*
X103885123Y-109774373D01*
X104291962Y-109782895D01*
X104692709Y-109712232D01*
X105072098Y-109565077D01*
X105415679Y-109347034D01*
X105710365Y-109066408D01*
X105944932Y-108733889D01*
X106110444Y-108362141D01*
X106200599Y-107965325D01*
X106207089Y-107500536D01*
X106128049Y-107101357D01*
X105972981Y-106725133D01*
X105747790Y-106386194D01*
X105461055Y-106097449D01*
X105123696Y-105869898D01*
X104748563Y-105712206D01*
X104349946Y-105630382D01*
X103943027Y-105627541D01*
X103543307Y-105703792D01*
X103166009Y-105856230D01*
X102861501Y-106055495D01*
X102861501Y-103579111D01*
X102884240Y-103652537D01*
X102934803Y-103729270D01*
X103004742Y-103788879D01*
X103088519Y-103826643D01*
X103179500Y-103839572D01*
X103265268Y-103839572D01*
X103263760Y-103947582D01*
X103285886Y-104068137D01*
X103331006Y-104182098D01*
X103397403Y-104285126D01*
X103482546Y-104373294D01*
X103583193Y-104443246D01*
X103695511Y-104492316D01*
X103815220Y-104518636D01*
X103937762Y-104521203D01*
X104058469Y-104499919D01*
X104172743Y-104455595D01*
X104276231Y-104389920D01*
X104364992Y-104305394D01*
X104435645Y-104205237D01*
X104485498Y-104093265D01*
X104512653Y-103973742D01*
X104514527Y-103839572D01*
X104576500Y-103839572D01*
X104628255Y-103835445D01*
X104716037Y-103808260D01*
X104792770Y-103757697D01*
X104852379Y-103687758D01*
X104890143Y-103603981D01*
X104893622Y-103579501D01*
X104916240Y-103652537D01*
X104966803Y-103729270D01*
X105036742Y-103788879D01*
X105120519Y-103826643D01*
X105211500Y-103839572D01*
X105285673Y-103839572D01*
X105284179Y-103946552D01*
X105306305Y-104067107D01*
X105351425Y-104181068D01*
X105417822Y-104284096D01*
X105502965Y-104372264D01*
X105603612Y-104442216D01*
X105715930Y-104491286D01*
X105835639Y-104517606D01*
X105958181Y-104520173D01*
X106078888Y-104498889D01*
X106193162Y-104454565D01*
X106296650Y-104388890D01*
X106385411Y-104304364D01*
X106456064Y-104204207D01*
X106505917Y-104092235D01*
X106533072Y-103972712D01*
X106534931Y-103839572D01*
X106608500Y-103839572D01*
X106660255Y-103835445D01*
X106748037Y-103808260D01*
X106801000Y-103773360D01*
X106801000Y-123327000D01*
X92976283Y-123327000D01*
X91479958Y-122828225D01*
X89460202Y-121818347D01*
X86937505Y-120304729D01*
X85969000Y-119336224D01*
X85969000Y-118524400D01*
X87346228Y-118524400D01*
X87346228Y-120048400D01*
X87350355Y-120100155D01*
X87377540Y-120187937D01*
X87428103Y-120264670D01*
X87498042Y-120324279D01*
X87581819Y-120362043D01*
X87672800Y-120374972D01*
X89196800Y-120374972D01*
X89248555Y-120370845D01*
X89336337Y-120343660D01*
X89413070Y-120293097D01*
X89472679Y-120223158D01*
X89510443Y-120139381D01*
X89523372Y-120048400D01*
X89523372Y-118524400D01*
X89519245Y-118472645D01*
X89492060Y-118384863D01*
X89441497Y-118308130D01*
X89371558Y-118248521D01*
X89287781Y-118210757D01*
X89196800Y-118197828D01*
X87672800Y-118197828D01*
X87621045Y-118201955D01*
X87533263Y-118229140D01*
X87456530Y-118279703D01*
X87396921Y-118349642D01*
X87359157Y-118433419D01*
X87346228Y-118524400D01*
X85969000Y-118524400D01*
X85969000Y-118054500D01*
X94343928Y-118054500D01*
X94343928Y-119705500D01*
X94348055Y-119757255D01*
X94375240Y-119845037D01*
X94425803Y-119921770D01*
X94495742Y-119981379D01*
X94579519Y-120019143D01*
X94670500Y-120032072D01*
X96321500Y-120032072D01*
X96373255Y-120027945D01*
X96461037Y-120000760D01*
X96537770Y-119950197D01*
X96597379Y-119880258D01*
X96600662Y-119872973D01*
X97225460Y-119872973D01*
X97297336Y-120116152D01*
X97552690Y-120236506D01*
X97826618Y-120304730D01*
X98108592Y-120318204D01*
X98387777Y-120276407D01*
X98653444Y-120180947D01*
X98774664Y-120116152D01*
X98846540Y-119872973D01*
X98036000Y-119062434D01*
X97225460Y-119872973D01*
X96600662Y-119872973D01*
X96635143Y-119796481D01*
X96648072Y-119705500D01*
X96648072Y-119255374D01*
X96735053Y-119497444D01*
X96799848Y-119618664D01*
X97043027Y-119690540D01*
X97853566Y-118880000D01*
X97043027Y-118069460D01*
X96799848Y-118141336D01*
X96679494Y-118396690D01*
X96648072Y-118522853D01*
X96648072Y-118054500D01*
X96643945Y-118002745D01*
X96616760Y-117914963D01*
X96566197Y-117838230D01*
X96496258Y-117778621D01*
X96412481Y-117740857D01*
X96321500Y-117727928D01*
X94670500Y-117727928D01*
X94618745Y-117732055D01*
X94530963Y-117759240D01*
X94454230Y-117809803D01*
X94394621Y-117879742D01*
X94356857Y-117963519D01*
X94343928Y-118054500D01*
X85969000Y-118054500D01*
X85969000Y-116840884D01*
X86316459Y-117188342D01*
X86361063Y-117224980D01*
X86405296Y-117262096D01*
X86408176Y-117263679D01*
X86410715Y-117265765D01*
X86461547Y-117293021D01*
X86512186Y-117320860D01*
X86515324Y-117321856D01*
X86518216Y-117323406D01*
X86573410Y-117340281D01*
X86628455Y-117357742D01*
X86631717Y-117358108D01*
X86634864Y-117359070D01*
X86692337Y-117364908D01*
X86749674Y-117371339D01*
X86756099Y-117371384D01*
X86756218Y-117371396D01*
X86756329Y-117371386D01*
X86758400Y-117371400D01*
X87544354Y-117371400D01*
X87578803Y-117424855D01*
X87726885Y-117578198D01*
X87901930Y-117699858D01*
X88097273Y-117785201D01*
X88305472Y-117830977D01*
X88518597Y-117835441D01*
X88728530Y-117798424D01*
X88927276Y-117721336D01*
X89107262Y-117607113D01*
X89261635Y-117460105D01*
X89384515Y-117285913D01*
X89471219Y-117091171D01*
X89518447Y-116883296D01*
X89521847Y-116639814D01*
X89481215Y-116434601D01*
X94369421Y-116434601D01*
X94409251Y-116651620D01*
X94490476Y-116856769D01*
X94610000Y-117042235D01*
X94763272Y-117200953D01*
X94944453Y-117326877D01*
X95146643Y-117415211D01*
X95362139Y-117462591D01*
X95582734Y-117467212D01*
X95800026Y-117428898D01*
X96005737Y-117349108D01*
X96192032Y-117230881D01*
X96351816Y-117078721D01*
X96479002Y-116898423D01*
X96568746Y-116696855D01*
X96611910Y-116506867D01*
X96639593Y-116691777D01*
X96735053Y-116957444D01*
X96799848Y-117078664D01*
X97043027Y-117150540D01*
X97853566Y-116340000D01*
X97043027Y-115529460D01*
X96799848Y-115601336D01*
X96679494Y-115856690D01*
X96611270Y-116130618D01*
X96609377Y-116170230D01*
X96578292Y-116013237D01*
X96494211Y-115809242D01*
X96372109Y-115625463D01*
X96216636Y-115468901D01*
X96033714Y-115345519D01*
X95830311Y-115260016D01*
X95614174Y-115215649D01*
X95393536Y-115214109D01*
X95176801Y-115255453D01*
X94972223Y-115338108D01*
X94787597Y-115458924D01*
X94629953Y-115613300D01*
X94505297Y-115795356D01*
X94418376Y-115998158D01*
X94372502Y-116213979D01*
X94369421Y-116434601D01*
X89481215Y-116434601D01*
X89480442Y-116430702D01*
X89399208Y-116233615D01*
X89281241Y-116056060D01*
X89131033Y-115904799D01*
X88954305Y-115785595D01*
X88757790Y-115702988D01*
X88548972Y-115660124D01*
X88335806Y-115658635D01*
X88126410Y-115698580D01*
X87928760Y-115778435D01*
X87750386Y-115895160D01*
X87598080Y-116044309D01*
X87545295Y-116121400D01*
X87017283Y-116121400D01*
X86723000Y-115827116D01*
X86723000Y-114297798D01*
X87346371Y-114297798D01*
X87384852Y-114507468D01*
X87463326Y-114705670D01*
X87578803Y-114884855D01*
X87726885Y-115038198D01*
X87901930Y-115159858D01*
X88097273Y-115245201D01*
X88305472Y-115290977D01*
X88518597Y-115295441D01*
X88728530Y-115258424D01*
X88927276Y-115181336D01*
X89107262Y-115067113D01*
X89261635Y-114920105D01*
X89384515Y-114745913D01*
X89471219Y-114551171D01*
X89518447Y-114343296D01*
X89521847Y-114099814D01*
X89480442Y-113890702D01*
X89399208Y-113693615D01*
X89281241Y-113516060D01*
X89131033Y-113364799D01*
X88954305Y-113245595D01*
X88757790Y-113162988D01*
X88548972Y-113120124D01*
X88335806Y-113118635D01*
X88126410Y-113158580D01*
X87928760Y-113238435D01*
X87750386Y-113355160D01*
X87598080Y-113504309D01*
X87477645Y-113680200D01*
X87393668Y-113876133D01*
X87349347Y-114084647D01*
X87346371Y-114297798D01*
X86723000Y-114297798D01*
X86723000Y-112632160D01*
X87651473Y-112632160D01*
X87718731Y-112871451D01*
X87967584Y-112987995D01*
X88234393Y-113053750D01*
X88508902Y-113066190D01*
X88780564Y-113024837D01*
X89038938Y-112931280D01*
X89150869Y-112871451D01*
X89218127Y-112632160D01*
X88434800Y-111848834D01*
X87651473Y-112632160D01*
X86723000Y-112632160D01*
X86723000Y-111740502D01*
X87035010Y-111740502D01*
X87076363Y-112012164D01*
X87169920Y-112270538D01*
X87229749Y-112382469D01*
X87469040Y-112449727D01*
X88252366Y-111666400D01*
X88617234Y-111666400D01*
X89400560Y-112449727D01*
X89639851Y-112382469D01*
X89756395Y-112133616D01*
X89822150Y-111866807D01*
X89834590Y-111592298D01*
X89793237Y-111320636D01*
X89699680Y-111062262D01*
X89639851Y-110950331D01*
X89400560Y-110883073D01*
X88617234Y-111666400D01*
X88252366Y-111666400D01*
X87469040Y-110883073D01*
X87229749Y-110950331D01*
X87113205Y-111199184D01*
X87047450Y-111465993D01*
X87035010Y-111740502D01*
X86723000Y-111740502D01*
X86723000Y-110700640D01*
X87651473Y-110700640D01*
X88434800Y-111483966D01*
X89218127Y-110700640D01*
X89150869Y-110461349D01*
X88902016Y-110344805D01*
X88635207Y-110279050D01*
X88360698Y-110266610D01*
X88089036Y-110307963D01*
X87830662Y-110401520D01*
X87718731Y-110461349D01*
X87651473Y-110700640D01*
X86723000Y-110700640D01*
X86723000Y-108339000D01*
X91422928Y-108339000D01*
X91422928Y-109228000D01*
X91427055Y-109279755D01*
X91454240Y-109367537D01*
X91504803Y-109444270D01*
X91574742Y-109503879D01*
X91658519Y-109541643D01*
X91749500Y-109554572D01*
X93146500Y-109554572D01*
X93198255Y-109550445D01*
X93286037Y-109523260D01*
X93308436Y-109508500D01*
X93908500Y-109508500D01*
X93975100Y-109501970D01*
X94041865Y-109496128D01*
X94045528Y-109495064D01*
X94049320Y-109494692D01*
X94113423Y-109475338D01*
X94177742Y-109456652D01*
X94181126Y-109454898D01*
X94184776Y-109453796D01*
X94243932Y-109422342D01*
X94303363Y-109391536D01*
X94306341Y-109389159D01*
X94309709Y-109387368D01*
X94361657Y-109345000D01*
X94413944Y-109303260D01*
X94419244Y-109298034D01*
X94419360Y-109297939D01*
X94419449Y-109297831D01*
X94421152Y-109296152D01*
X94477494Y-109239810D01*
X94523477Y-109196022D01*
X94605434Y-109079841D01*
X94663264Y-108949953D01*
X94694763Y-108811306D01*
X94695845Y-108733866D01*
X94696996Y-108722530D01*
X94696131Y-108713376D01*
X94697031Y-108648910D01*
X94669415Y-108509438D01*
X94615234Y-108377986D01*
X94536553Y-108259562D01*
X94436368Y-108158675D01*
X94318496Y-108079169D01*
X94187426Y-108024072D01*
X94048150Y-107995483D01*
X93905973Y-107994490D01*
X93766312Y-108021132D01*
X93673824Y-108058500D01*
X93311007Y-108058500D01*
X93237481Y-108025357D01*
X93146500Y-108012428D01*
X91749500Y-108012428D01*
X91697745Y-108016555D01*
X91609963Y-108043740D01*
X91533230Y-108094303D01*
X91473621Y-108164242D01*
X91435857Y-108248019D01*
X91422928Y-108339000D01*
X86723000Y-108339000D01*
X86723000Y-108184400D01*
X86924232Y-108228644D01*
X87236959Y-108235194D01*
X87545003Y-108180878D01*
X87836630Y-108067763D01*
X88100732Y-107900159D01*
X88327250Y-107684449D01*
X88507555Y-107428850D01*
X88634781Y-107143096D01*
X88704080Y-106838074D01*
X88709069Y-106480802D01*
X88648313Y-106173964D01*
X88529116Y-105884769D01*
X88387753Y-105672000D01*
X91422928Y-105672000D01*
X91422928Y-106561000D01*
X91427055Y-106612755D01*
X91454240Y-106700537D01*
X91504803Y-106777270D01*
X91574742Y-106836879D01*
X91658519Y-106874643D01*
X91749500Y-106887572D01*
X93146500Y-106887572D01*
X93198255Y-106883445D01*
X93286037Y-106856260D01*
X93308436Y-106841500D01*
X93675116Y-106841500D01*
X93746879Y-106872852D01*
X93885742Y-106903383D01*
X94027890Y-106906361D01*
X94167910Y-106881672D01*
X94300468Y-106830256D01*
X94420514Y-106754072D01*
X94523477Y-106656022D01*
X94605434Y-106539841D01*
X94663264Y-106409953D01*
X94694763Y-106271306D01*
X94695780Y-106198461D01*
X94696961Y-106187593D01*
X94696074Y-106177452D01*
X94697031Y-106108910D01*
X94669415Y-105969438D01*
X94615234Y-105837986D01*
X94536553Y-105719562D01*
X94436368Y-105618675D01*
X94435174Y-105617869D01*
X94421152Y-105603848D01*
X94369451Y-105561380D01*
X94318101Y-105518293D01*
X94314758Y-105516455D01*
X94311814Y-105514037D01*
X94252832Y-105482411D01*
X94194108Y-105450127D01*
X94190472Y-105448974D01*
X94187114Y-105447173D01*
X94123066Y-105427591D01*
X94059236Y-105407343D01*
X94055450Y-105406918D01*
X94051802Y-105405803D01*
X93985119Y-105399030D01*
X93918623Y-105391571D01*
X93911176Y-105391519D01*
X93911031Y-105391504D01*
X93910896Y-105391517D01*
X93908500Y-105391500D01*
X93311007Y-105391500D01*
X93237481Y-105358357D01*
X93146500Y-105345428D01*
X91749500Y-105345428D01*
X91697745Y-105349555D01*
X91609963Y-105376740D01*
X91533230Y-105427303D01*
X91473621Y-105497242D01*
X91435857Y-105581019D01*
X91422928Y-105672000D01*
X88387753Y-105672000D01*
X88356017Y-105624235D01*
X88135611Y-105402285D01*
X87876291Y-105227371D01*
X87587937Y-105106158D01*
X87281530Y-105043262D01*
X86968742Y-105041078D01*
X86661486Y-105099690D01*
X86371467Y-105216866D01*
X86109731Y-105388141D01*
X85886247Y-105606993D01*
X85709528Y-105865085D01*
X85586304Y-106152586D01*
X85521270Y-106458547D01*
X85516903Y-106771312D01*
X85573369Y-107078969D01*
X85635604Y-107236159D01*
X85619399Y-107255888D01*
X85582304Y-107300096D01*
X85580721Y-107302975D01*
X85578635Y-107305515D01*
X85551379Y-107356347D01*
X85523540Y-107406986D01*
X85522544Y-107410124D01*
X85520994Y-107413016D01*
X85504119Y-107468210D01*
X85486658Y-107523255D01*
X85486292Y-107526517D01*
X85485330Y-107529664D01*
X85479492Y-107587137D01*
X85473061Y-107644474D01*
X85473016Y-107650899D01*
X85473004Y-107651018D01*
X85473014Y-107651129D01*
X85473000Y-107653200D01*
X85473000Y-108680224D01*
X85424388Y-108631612D01*
X85396265Y-108610487D01*
X85363369Y-108598033D01*
X85336000Y-108595000D01*
X81323776Y-108595000D01*
X80889000Y-108160224D01*
X80889000Y-101354875D01*
X80898000Y-101383937D01*
X80948563Y-101460670D01*
X81018502Y-101520279D01*
X81102279Y-101558043D01*
X81193260Y-101570972D01*
X81579220Y-101570972D01*
X82714124Y-102705876D01*
X82748064Y-102733755D01*
X82781641Y-102761929D01*
X82783826Y-102763130D01*
X82785759Y-102764718D01*
X82824443Y-102785459D01*
X82862878Y-102806589D01*
X82865261Y-102807345D01*
X82867460Y-102808524D01*
X82909404Y-102821348D01*
X82951242Y-102834620D01*
X82953723Y-102834898D01*
X82956113Y-102835629D01*
X82999759Y-102840062D01*
X83043368Y-102844954D01*
X83048252Y-102844988D01*
X83048342Y-102844997D01*
X83048426Y-102844989D01*
X83050000Y-102845000D01*
X83122868Y-102845000D01*
X84523168Y-104245300D01*
X84557082Y-104273157D01*
X84590685Y-104301353D01*
X84592874Y-104302556D01*
X84594803Y-104304141D01*
X84633467Y-104324872D01*
X84671922Y-104346013D01*
X84674303Y-104346768D01*
X84676503Y-104347948D01*
X84718475Y-104360781D01*
X84760286Y-104374044D01*
X84762766Y-104374322D01*
X84765156Y-104375053D01*
X84808808Y-104379487D01*
X84852412Y-104384378D01*
X84857296Y-104384412D01*
X84857386Y-104384421D01*
X84857470Y-104384413D01*
X84859044Y-104384424D01*
X89209929Y-104384424D01*
X89213081Y-104387688D01*
X89313728Y-104457640D01*
X89426046Y-104506710D01*
X89545755Y-104533030D01*
X89668297Y-104535597D01*
X89789004Y-104514313D01*
X89903278Y-104469989D01*
X90006766Y-104404314D01*
X90095527Y-104319788D01*
X90166180Y-104219631D01*
X90216033Y-104107659D01*
X90243188Y-103988136D01*
X90245143Y-103848140D01*
X90221336Y-103727905D01*
X90174628Y-103614585D01*
X90106800Y-103512494D01*
X90020434Y-103425523D01*
X89918819Y-103356984D01*
X89805828Y-103309486D01*
X89685762Y-103284840D01*
X89563197Y-103283985D01*
X89442799Y-103306952D01*
X89329155Y-103352867D01*
X89226594Y-103419981D01*
X89211845Y-103434424D01*
X85055796Y-103434424D01*
X84466372Y-102845000D01*
X85647000Y-102845000D01*
X85690691Y-102840716D01*
X85734377Y-102836894D01*
X85736773Y-102836198D01*
X85739261Y-102835954D01*
X85781297Y-102823262D01*
X85823400Y-102811030D01*
X85825617Y-102809881D01*
X85828008Y-102809159D01*
X85866774Y-102788547D01*
X85905704Y-102768368D01*
X85907654Y-102766812D01*
X85909861Y-102765638D01*
X85943844Y-102737922D01*
X85978154Y-102710533D01*
X85981636Y-102707099D01*
X85981701Y-102707046D01*
X85981751Y-102706985D01*
X85982876Y-102705876D01*
X86376301Y-102312451D01*
X86624933Y-102421075D01*
X86930432Y-102488244D01*
X87243159Y-102494794D01*
X87551203Y-102440478D01*
X87842830Y-102327363D01*
X88106932Y-102159759D01*
X88333450Y-101944049D01*
X88513755Y-101688450D01*
X88640981Y-101402696D01*
X88710280Y-101097674D01*
X88715269Y-100740402D01*
X88654513Y-100433564D01*
X88535316Y-100144369D01*
X88362217Y-99883835D01*
X88141811Y-99661885D01*
X87882491Y-99486971D01*
X87594137Y-99365758D01*
X87455789Y-99337359D01*
X87500650Y-99308890D01*
X87589411Y-99224364D01*
X87631464Y-99164750D01*
X91243500Y-99164750D01*
X91243500Y-99384345D01*
X91267826Y-99506639D01*
X91315543Y-99621838D01*
X91384817Y-99725514D01*
X91472986Y-99813683D01*
X91576662Y-99882957D01*
X91691861Y-99930674D01*
X91814155Y-99955000D01*
X92287750Y-99955000D01*
X92446000Y-99796750D01*
X92446000Y-99006500D01*
X92704000Y-99006500D01*
X92704000Y-99796750D01*
X92862250Y-99955000D01*
X93335845Y-99955000D01*
X93458139Y-99930674D01*
X93573338Y-99882957D01*
X93647473Y-99833421D01*
X93665043Y-99875838D01*
X93734317Y-99979514D01*
X93822486Y-100067683D01*
X93926162Y-100136957D01*
X94041361Y-100184674D01*
X94163655Y-100209000D01*
X94194750Y-100209000D01*
X94353000Y-100050750D01*
X94353000Y-99070000D01*
X93811750Y-99070000D01*
X93748250Y-99006500D01*
X92704000Y-99006500D01*
X92446000Y-99006500D01*
X91401750Y-99006500D01*
X91243500Y-99164750D01*
X87631464Y-99164750D01*
X87660064Y-99124207D01*
X87709917Y-99012235D01*
X87737072Y-98892712D01*
X87739027Y-98752716D01*
X87715220Y-98632481D01*
X87668512Y-98519161D01*
X87600684Y-98417070D01*
X87554592Y-98370655D01*
X91243500Y-98370655D01*
X91243500Y-98590250D01*
X91401750Y-98748500D01*
X92446000Y-98748500D01*
X92446000Y-97958250D01*
X92704000Y-97958250D01*
X92704000Y-98748500D01*
X93687750Y-98748500D01*
X93751250Y-98812000D01*
X94353000Y-98812000D01*
X94353000Y-97831250D01*
X94194750Y-97673000D01*
X94163655Y-97673000D01*
X94041361Y-97697326D01*
X93926162Y-97745043D01*
X93822486Y-97814317D01*
X93734317Y-97902486D01*
X93695811Y-97960114D01*
X93677014Y-97941317D01*
X93573338Y-97872043D01*
X93458139Y-97824326D01*
X93335845Y-97800000D01*
X92862250Y-97800000D01*
X92704000Y-97958250D01*
X92446000Y-97958250D01*
X92287750Y-97800000D01*
X91814155Y-97800000D01*
X91691861Y-97824326D01*
X91576662Y-97872043D01*
X91472986Y-97941317D01*
X91384817Y-98029486D01*
X91315543Y-98133162D01*
X91267826Y-98248361D01*
X91243500Y-98370655D01*
X87554592Y-98370655D01*
X87514318Y-98330099D01*
X87412703Y-98261560D01*
X87299712Y-98214062D01*
X87179646Y-98189416D01*
X87057081Y-98188561D01*
X86936683Y-98211528D01*
X86823039Y-98257443D01*
X86720478Y-98324557D01*
X86705729Y-98339000D01*
X85720752Y-98339000D01*
X86962792Y-97096960D01*
X90452047Y-97096960D01*
X90477713Y-97236804D01*
X90530053Y-97368999D01*
X90607073Y-97488511D01*
X90705839Y-97590787D01*
X90822590Y-97671931D01*
X90952879Y-97728852D01*
X91091742Y-97759383D01*
X91233890Y-97762361D01*
X91373910Y-97737672D01*
X91477479Y-97697500D01*
X91711993Y-97697500D01*
X91785519Y-97730643D01*
X91876500Y-97743572D01*
X93273500Y-97743572D01*
X93325255Y-97739445D01*
X93413037Y-97712260D01*
X93489770Y-97661697D01*
X93549379Y-97591758D01*
X93587143Y-97507981D01*
X93600072Y-97417000D01*
X93600072Y-96528000D01*
X93595945Y-96476245D01*
X93568760Y-96388463D01*
X93518197Y-96311730D01*
X93448258Y-96252121D01*
X93364481Y-96214357D01*
X93273500Y-96201428D01*
X91876500Y-96201428D01*
X91824745Y-96205555D01*
X91736963Y-96232740D01*
X91714564Y-96247500D01*
X91241500Y-96247500D01*
X91174892Y-96254031D01*
X91108136Y-96259872D01*
X91104473Y-96260936D01*
X91100680Y-96261308D01*
X91036598Y-96280655D01*
X90972259Y-96299347D01*
X90968872Y-96301103D01*
X90965224Y-96302204D01*
X90906085Y-96333649D01*
X90846637Y-96364464D01*
X90843659Y-96366841D01*
X90840291Y-96368632D01*
X90788374Y-96410975D01*
X90736056Y-96452739D01*
X90730751Y-96457971D01*
X90730640Y-96458061D01*
X90730555Y-96458163D01*
X90728848Y-96459847D01*
X90670188Y-96518508D01*
X90619930Y-96567724D01*
X90539604Y-96685039D01*
X90483593Y-96815721D01*
X90454032Y-96954794D01*
X90452047Y-97096960D01*
X86962792Y-97096960D01*
X87320000Y-96739752D01*
X87545003Y-96700078D01*
X87836630Y-96586963D01*
X88100732Y-96419359D01*
X88327250Y-96203649D01*
X88507555Y-95948050D01*
X88634781Y-95662296D01*
X88704080Y-95357274D01*
X88709069Y-95000002D01*
X88648313Y-94693164D01*
X88529116Y-94403969D01*
X88356017Y-94143435D01*
X88135611Y-93921485D01*
X87876291Y-93746571D01*
X87587937Y-93625358D01*
X87281530Y-93562462D01*
X86968742Y-93560278D01*
X86661486Y-93618890D01*
X86371467Y-93736066D01*
X86109731Y-93907341D01*
X85886247Y-94126193D01*
X85709528Y-94384285D01*
X85586304Y-94671786D01*
X85521270Y-94977747D01*
X85516903Y-95290512D01*
X85573369Y-95598169D01*
X85688516Y-95888999D01*
X85857960Y-96151925D01*
X86075247Y-96376931D01*
X86231039Y-96485209D01*
X85139248Y-97577000D01*
X84420512Y-97577000D01*
X84420512Y-94843600D01*
X84416385Y-94791845D01*
X84389200Y-94704063D01*
X84338637Y-94627330D01*
X84268698Y-94567721D01*
X84184921Y-94529957D01*
X84093940Y-94517028D01*
X83093180Y-94517028D01*
X83041425Y-94521155D01*
X82953643Y-94548340D01*
X82876910Y-94598903D01*
X82817301Y-94668842D01*
X82782015Y-94747122D01*
X82768680Y-94704063D01*
X82718117Y-94627330D01*
X82694286Y-94607019D01*
X82793496Y-94507809D01*
X82839477Y-94464022D01*
X82921434Y-94347841D01*
X82979264Y-94217953D01*
X83010763Y-94079306D01*
X83011844Y-94001867D01*
X83012996Y-93990531D01*
X83012131Y-93981377D01*
X83013031Y-93916910D01*
X82985415Y-93777438D01*
X82931234Y-93645986D01*
X82852553Y-93527562D01*
X82752368Y-93426675D01*
X82634496Y-93347169D01*
X82503426Y-93292072D01*
X82364150Y-93263483D01*
X82221973Y-93262490D01*
X82082312Y-93289132D01*
X81950485Y-93342394D01*
X81831514Y-93420246D01*
X81729930Y-93519724D01*
X81727669Y-93523026D01*
X81361328Y-93889368D01*
X81318860Y-93941069D01*
X81275773Y-93992419D01*
X81273935Y-93995762D01*
X81271517Y-93998706D01*
X81239891Y-94057688D01*
X81207607Y-94116412D01*
X81206454Y-94120048D01*
X81204653Y-94123406D01*
X81185071Y-94187454D01*
X81164823Y-94251284D01*
X81164398Y-94255070D01*
X81163283Y-94258718D01*
X81156510Y-94325401D01*
X81149051Y-94391897D01*
X81148999Y-94399344D01*
X81148984Y-94399489D01*
X81148997Y-94399624D01*
X81148980Y-94402020D01*
X81148980Y-94544011D01*
X81135003Y-94548340D01*
X81058270Y-94598903D01*
X80998661Y-94668842D01*
X80960897Y-94752619D01*
X80947968Y-94843600D01*
X80947968Y-97642680D01*
X80952095Y-97694435D01*
X80979280Y-97782217D01*
X81029843Y-97858950D01*
X81099782Y-97918559D01*
X81183559Y-97956323D01*
X81274540Y-97969252D01*
X82473420Y-97969252D01*
X82525175Y-97965125D01*
X82612957Y-97937940D01*
X82689690Y-97887377D01*
X82749299Y-97817438D01*
X82784585Y-97739158D01*
X82797920Y-97782217D01*
X82848483Y-97858950D01*
X82918422Y-97918559D01*
X83002199Y-97956323D01*
X83093180Y-97969252D01*
X83476996Y-97969252D01*
X83327500Y-98118748D01*
X83093180Y-98118748D01*
X83041425Y-98122875D01*
X82953643Y-98150060D01*
X82876910Y-98200623D01*
X82817301Y-98270562D01*
X82779537Y-98354339D01*
X82766608Y-98445320D01*
X82766608Y-101145236D01*
X82520592Y-100899220D01*
X82520592Y-98445320D01*
X82516465Y-98393565D01*
X82489280Y-98305783D01*
X82438717Y-98229050D01*
X82368778Y-98169441D01*
X82285001Y-98131677D01*
X82194020Y-98118748D01*
X81193260Y-98118748D01*
X81141505Y-98122875D01*
X81053723Y-98150060D01*
X80976990Y-98200623D01*
X80917381Y-98270562D01*
X80889000Y-98333523D01*
X80889000Y-88344000D01*
X83303810Y-88344000D01*
X83303810Y-87001000D01*
X85336000Y-87001000D01*
X85370824Y-86996051D01*
X85402891Y-86981596D01*
X85424388Y-86964388D01*
X85932388Y-86456388D01*
X85953513Y-86428265D01*
X85965967Y-86395369D01*
X85969000Y-86368000D01*
X85969000Y-80874601D01*
X86241421Y-80874601D01*
X86281251Y-81091620D01*
X86362476Y-81296769D01*
X86482000Y-81482235D01*
X86635272Y-81640953D01*
X86816453Y-81766877D01*
X87018643Y-81855211D01*
X87234139Y-81902591D01*
X87454734Y-81907212D01*
X87672026Y-81868898D01*
X87877737Y-81789108D01*
X88064032Y-81670881D01*
X88223816Y-81518721D01*
X88351002Y-81338423D01*
X88440746Y-81136855D01*
X88489629Y-80921695D01*
X88493148Y-80669678D01*
X88450292Y-80453237D01*
X88366211Y-80249242D01*
X88244109Y-80065463D01*
X88088636Y-79908901D01*
X87905714Y-79785519D01*
X87702311Y-79700016D01*
X87486174Y-79655649D01*
X87265536Y-79654109D01*
X87048801Y-79695453D01*
X86844223Y-79778108D01*
X86659597Y-79898924D01*
X86501953Y-80053300D01*
X86377297Y-80235356D01*
X86290376Y-80438158D01*
X86244502Y-80653979D01*
X86241421Y-80874601D01*
X85969000Y-80874601D01*
X85969000Y-80332079D01*
X87183044Y-79360843D01*
X90975581Y-77338157D01*
X92978666Y-76587000D01*
X106801000Y-76587000D01*
X106801000Y-81253248D01*
M02*
