G04 #@! TF.GenerationSoftware,KiCad,Pcbnew,5.0.0-fee4fd1~66~ubuntu16.04.1*
G04 #@! TF.CreationDate,2018-09-25T20:47:50+02:00*
G04 #@! TF.ProjectId,bus-module_attiny1634,6275732D6D6F64756C655F617474696E,B*
G04 #@! TF.SameCoordinates,Original*
G04 #@! TF.FileFunction,Copper,L2,Bot,Signal*
G04 #@! TF.FilePolarity,Positive*
%FSLAX46Y46*%
G04 Gerber Fmt 4.6, Leading zero omitted, Abs format (unit mm)*
G04 Created by KiCad (PCBNEW 5.0.0-fee4fd1~66~ubuntu16.04.1) date Tue Sep 25 20:47:50 2018*
%MOMM*%
%LPD*%
G01*
G04 APERTURE LIST*
G04 #@! TA.AperFunction,NonConductor*
%ADD10C,0.150000*%
G04 #@! TD*
G04 #@! TA.AperFunction,SMDPad,CuDef*
%ADD11R,1.600200X3.500120*%
G04 #@! TD*
G04 #@! TA.AperFunction,SMDPad,CuDef*
%ADD12R,1.397000X0.889000*%
G04 #@! TD*
G04 #@! TA.AperFunction,SMDPad,CuDef*
%ADD13R,0.914400X0.914400*%
G04 #@! TD*
G04 #@! TA.AperFunction,ComponentPad*
%ADD14C,2.000000*%
G04 #@! TD*
G04 #@! TA.AperFunction,ComponentPad*
%ADD15C,5.000000*%
G04 #@! TD*
G04 #@! TA.AperFunction,ComponentPad*
%ADD16C,1.800000*%
G04 #@! TD*
G04 #@! TA.AperFunction,ComponentPad*
%ADD17R,1.800000X1.800000*%
G04 #@! TD*
G04 #@! TA.AperFunction,SMDPad,CuDef*
%ADD18R,0.508000X1.143000*%
G04 #@! TD*
G04 #@! TA.AperFunction,ComponentPad*
%ADD19C,1.600000*%
G04 #@! TD*
G04 #@! TA.AperFunction,ComponentPad*
%ADD20R,1.600000X1.600000*%
G04 #@! TD*
G04 #@! TA.AperFunction,ComponentPad*
%ADD21C,0.700000*%
G04 #@! TD*
G04 #@! TA.AperFunction,ComponentPad*
%ADD22C,1.524000*%
G04 #@! TD*
G04 #@! TA.AperFunction,ViaPad*
%ADD23C,0.800000*%
G04 #@! TD*
G04 #@! TA.AperFunction,ViaPad*
%ADD24C,0.600000*%
G04 #@! TD*
G04 #@! TA.AperFunction,Conductor*
%ADD25C,0.300000*%
G04 #@! TD*
G04 #@! TA.AperFunction,Conductor*
%ADD26C,0.600000*%
G04 #@! TD*
G04 #@! TA.AperFunction,Conductor*
%ADD27C,0.800000*%
G04 #@! TD*
G04 #@! TA.AperFunction,Conductor*
%ADD28C,0.250000*%
G04 #@! TD*
G04 APERTURE END LIST*
D10*
X84681714Y-87745904D02*
X84681714Y-86945904D01*
X84681714Y-87250666D02*
X84605523Y-87212571D01*
X84453142Y-87212571D01*
X84376952Y-87250666D01*
X84338857Y-87288761D01*
X84300761Y-87364952D01*
X84300761Y-87593523D01*
X84338857Y-87669714D01*
X84376952Y-87707809D01*
X84453142Y-87745904D01*
X84605523Y-87745904D01*
X84681714Y-87707809D01*
X83843619Y-87745904D02*
X83919809Y-87707809D01*
X83957904Y-87669714D01*
X83996000Y-87593523D01*
X83996000Y-87364952D01*
X83957904Y-87288761D01*
X83919809Y-87250666D01*
X83843619Y-87212571D01*
X83729333Y-87212571D01*
X83653142Y-87250666D01*
X83615047Y-87288761D01*
X83576952Y-87364952D01*
X83576952Y-87593523D01*
X83615047Y-87669714D01*
X83653142Y-87707809D01*
X83729333Y-87745904D01*
X83843619Y-87745904D01*
X83348380Y-87212571D02*
X83043619Y-87212571D01*
X83234095Y-86945904D02*
X83234095Y-87631619D01*
X83196000Y-87707809D01*
X83119809Y-87745904D01*
X83043619Y-87745904D01*
X82891238Y-87212571D02*
X82586476Y-87212571D01*
X82776952Y-86945904D02*
X82776952Y-87631619D01*
X82738857Y-87707809D01*
X82662666Y-87745904D01*
X82586476Y-87745904D01*
X82205523Y-87745904D02*
X82281714Y-87707809D01*
X82319809Y-87669714D01*
X82357904Y-87593523D01*
X82357904Y-87364952D01*
X82319809Y-87288761D01*
X82281714Y-87250666D01*
X82205523Y-87212571D01*
X82091238Y-87212571D01*
X82015047Y-87250666D01*
X81976952Y-87288761D01*
X81938857Y-87364952D01*
X81938857Y-87593523D01*
X81976952Y-87669714D01*
X82015047Y-87707809D01*
X82091238Y-87745904D01*
X82205523Y-87745904D01*
X81596000Y-87745904D02*
X81596000Y-87212571D01*
X81596000Y-87288761D02*
X81557904Y-87250666D01*
X81481714Y-87212571D01*
X81367428Y-87212571D01*
X81291238Y-87250666D01*
X81253142Y-87326857D01*
X81253142Y-87745904D01*
X81253142Y-87326857D02*
X81215047Y-87250666D01*
X81138857Y-87212571D01*
X81024571Y-87212571D01*
X80948380Y-87250666D01*
X80910285Y-87326857D01*
X80910285Y-87745904D01*
D11*
G04 #@! TO.P,C6,1*
G04 #@! TO.N,VCC*
X98036000Y-112443640D03*
G04 #@! TO.P,C6,2*
G04 #@! TO.N,GND*
X98036000Y-108044360D03*
G04 #@! TD*
D12*
G04 #@! TO.P,C7,2*
G04 #@! TO.N,VCC*
X102608000Y-101100000D03*
G04 #@! TO.P,C7,1*
G04 #@! TO.N,GND*
X102608000Y-103005000D03*
G04 #@! TD*
G04 #@! TO.P,C4,2*
G04 #@! TO.N,GND*
X96004000Y-103068500D03*
G04 #@! TO.P,C4,1*
G04 #@! TO.N,VCC*
X96004000Y-101163500D03*
G04 #@! TD*
D13*
G04 #@! TO.P,D1,2*
G04 #@! TO.N,VCC*
X100322000Y-88239980D03*
G04 #@! TO.P,D1,1*
G04 #@! TO.N,//RESET*
X100322000Y-90592020D03*
G04 #@! TD*
D12*
G04 #@! TO.P,R5,2*
G04 #@! TO.N,//RESET*
X98544000Y-90368500D03*
G04 #@! TO.P,R5,1*
G04 #@! TO.N,VCC*
X98544000Y-88463500D03*
G04 #@! TD*
G04 #@! TO.P,R6,2*
G04 #@! TO.N,Net-(R6-Pad2)*
X102100000Y-90368500D03*
G04 #@! TO.P,R6,1*
G04 #@! TO.N,VCC*
X102100000Y-88463500D03*
G04 #@! TD*
G04 #@! TO.P,R1,2*
G04 #@! TO.N,Net-(R1-Pad2)*
X104640000Y-90368500D03*
G04 #@! TO.P,R1,1*
G04 #@! TO.N,VCC*
X104640000Y-88463500D03*
G04 #@! TD*
G04 #@! TO.P,C1,2*
G04 #@! TO.N,GND*
X96512000Y-90368500D03*
G04 #@! TO.P,C1,1*
G04 #@! TO.N,//RESET*
X96512000Y-88463500D03*
G04 #@! TD*
D14*
G04 #@! TO.P,J6,1*
G04 #@! TO.N,/B*
X87114000Y-95156400D03*
G04 #@! TD*
G04 #@! TO.P,J5,1*
G04 #@! TO.N,/A*
X87120200Y-100896800D03*
G04 #@! TD*
G04 #@! TO.P,J4,1*
G04 #@! TO.N,+24V*
X87114000Y-106637200D03*
G04 #@! TD*
G04 #@! TO.P,J7,1*
G04 #@! TO.N,GND*
X87114000Y-89416000D03*
G04 #@! TD*
D15*
G04 #@! TO.P,HOLE_2.5mm,2*
G04 #@! TO.N,N/C*
X82650000Y-112070000D03*
G04 #@! TD*
G04 #@! TO.P,HOLE_2.5mm,2*
G04 #@! TO.N,N/C*
X82650000Y-83820000D03*
G04 #@! TD*
D16*
G04 #@! TO.P,J3,6*
G04 #@! TO.N,GND*
X87368000Y-80780000D03*
G04 #@! TO.P,J3,5*
G04 #@! TO.N,//RESET*
X87368000Y-83320000D03*
G04 #@! TO.P,J3,4*
G04 #@! TO.N,/PB1_MISO*
X89908000Y-80780000D03*
G04 #@! TO.P,J3,3*
G04 #@! TO.N,/PC1_SCK*
X89908000Y-83320000D03*
G04 #@! TO.P,J3,2*
G04 #@! TO.N,VCC*
X92448000Y-80780000D03*
D17*
G04 #@! TO.P,J3,1*
G04 #@! TO.N,/PB2_MOSI*
X92448000Y-83320000D03*
G04 #@! TD*
D15*
G04 #@! TO.P,H1,2*
G04 #@! TO.N,N/C*
X104132000Y-107704000D03*
G04 #@! TD*
D16*
G04 #@! TO.P,J2,10*
G04 #@! TO.N,/SCK*
X105656000Y-116340000D03*
G04 #@! TO.P,J2,9*
G04 #@! TO.N,/PB3*
X105656000Y-118880000D03*
G04 #@! TO.P,J2,8*
G04 #@! TO.N,/MOSI*
X103116000Y-116340000D03*
G04 #@! TO.P,J2,7*
G04 #@! TO.N,/MISO*
X103116000Y-118880000D03*
G04 #@! TO.P,J2,6*
G04 #@! TO.N,/PC2_INT0*
X100576000Y-116340000D03*
G04 #@! TO.P,J2,5*
G04 #@! TO.N,//RESET*
X100576000Y-118880000D03*
G04 #@! TO.P,J2,4*
G04 #@! TO.N,VCC*
X98036000Y-116340000D03*
G04 #@! TO.P,J2,3*
X98036000Y-118880000D03*
G04 #@! TO.P,J2,2*
G04 #@! TO.N,GND*
X95496000Y-116340000D03*
D17*
G04 #@! TO.P,J2,1*
X95496000Y-118880000D03*
G04 #@! TD*
D16*
G04 #@! TO.P,J1,10*
G04 #@! TO.N,/PA5*
X105656000Y-80780000D03*
G04 #@! TO.P,J1,9*
G04 #@! TO.N,/PA4*
X105656000Y-83320000D03*
G04 #@! TO.P,J1,8*
G04 #@! TO.N,/PA3*
X103116000Y-80780000D03*
G04 #@! TO.P,J1,7*
G04 #@! TO.N,/PA2*
X103116000Y-83320000D03*
G04 #@! TO.P,J1,6*
G04 #@! TO.N,/PA1*
X100576000Y-80780000D03*
G04 #@! TO.P,J1,5*
G04 #@! TO.N,/PA0_AREF*
X100576000Y-83320000D03*
G04 #@! TO.P,J1,4*
G04 #@! TO.N,+24V*
X98036000Y-80780000D03*
G04 #@! TO.P,J1,3*
X98036000Y-83320000D03*
G04 #@! TO.P,J1,2*
G04 #@! TO.N,GND*
X95496000Y-80780000D03*
D17*
G04 #@! TO.P,J1,1*
X95496000Y-83320000D03*
G04 #@! TD*
D18*
G04 #@! TO.P,U4,4*
G04 #@! TO.N,/TXD*
X99433000Y-93861000D03*
G04 #@! TO.P,U4,3*
G04 #@! TO.N,/TXDEN*
X98163000Y-93861000D03*
G04 #@! TO.P,U4,2*
X96893000Y-93861000D03*
G04 #@! TO.P,U4,5*
G04 #@! TO.N,GND*
X99433000Y-99195000D03*
G04 #@! TO.P,U4,6*
G04 #@! TO.N,/A*
X98163000Y-99195000D03*
G04 #@! TO.P,U4,7*
G04 #@! TO.N,/B*
X96893000Y-99195000D03*
G04 #@! TO.P,U4,1*
G04 #@! TO.N,/RXD*
X95623000Y-93861000D03*
G04 #@! TO.P,U4,8*
G04 #@! TO.N,VCC*
X95623000Y-99195000D03*
G04 #@! TD*
D19*
G04 #@! TO.P,U5,4*
G04 #@! TO.N,VCC*
X88434800Y-111666400D03*
G04 #@! TO.P,U5,3*
G04 #@! TO.N,GND*
X88434800Y-114206400D03*
G04 #@! TO.P,U5,2*
G04 #@! TO.N,Net-(F1-Pad1)*
X88434800Y-116746400D03*
D20*
G04 #@! TO.P,U5,1*
G04 #@! TO.N,GND*
X88434800Y-119286400D03*
G04 #@! TD*
D18*
G04 #@! TO.P,U2,4*
G04 #@! TO.N,GND*
X106037000Y-93861000D03*
G04 #@! TO.P,U2,3*
G04 #@! TO.N,Net-(R1-Pad2)*
X104767000Y-93861000D03*
G04 #@! TO.P,U2,2*
G04 #@! TO.N,/MISO*
X103497000Y-93861000D03*
G04 #@! TO.P,U2,5*
G04 #@! TO.N,/MOSI*
X106037000Y-99195000D03*
G04 #@! TO.P,U2,6*
G04 #@! TO.N,/SCK*
X104767000Y-99195000D03*
G04 #@! TO.P,U2,7*
G04 #@! TO.N,Net-(R6-Pad2)*
X103497000Y-99195000D03*
G04 #@! TO.P,U2,1*
G04 #@! TO.N,//CSEEP*
X102227000Y-93861000D03*
G04 #@! TO.P,U2,8*
G04 #@! TO.N,VCC*
X102227000Y-99195000D03*
G04 #@! TD*
D21*
G04 #@! TO.P,REF\002A\002A,1*
G04 #@! TO.N,N/C*
X80650000Y-85820000D03*
X81650000Y-85820000D03*
X84650000Y-85820000D03*
X83650000Y-85820000D03*
X82650000Y-85820000D03*
G04 #@! TD*
G04 #@! TO.P,REF\002A\002A,1*
G04 #@! TO.N,N/C*
X84650000Y-110070000D03*
X83650000Y-110070000D03*
X80650000Y-110070000D03*
X81650000Y-110070000D03*
X82650000Y-110070000D03*
G04 #@! TD*
G04 #@! TO.P,REF\002A\002A,1*
G04 #@! TO.N,N/C*
X84650000Y-84820000D03*
X84650000Y-83820000D03*
X84650000Y-81820000D03*
X84650000Y-82820000D03*
G04 #@! TD*
G04 #@! TO.P,REF\002A\002A,1*
G04 #@! TO.N,N/C*
X84650000Y-114070000D03*
X84650000Y-113070000D03*
X84650000Y-111070000D03*
X84650000Y-112070000D03*
G04 #@! TD*
D22*
G04 #@! TO.P,R7,1*
G04 #@! TO.N,Net-(F1-Pad1)*
X92448000Y-102370000D03*
G04 #@! TO.P,R7,2*
G04 #@! TO.N,GND*
X92448000Y-92210000D03*
G04 #@! TD*
D23*
G04 #@! TO.N,GND*
X91178000Y-97036000D03*
X93972000Y-108720000D03*
X93972000Y-106180000D03*
D24*
G04 #@! TO.N,/PA5*
X104386002Y-85796500D03*
G04 #@! TO.N,/PB3*
X101401502Y-110307500D03*
G04 #@! TO.N,/MOSI*
X103878000Y-103957500D03*
G04 #@! TO.N,/MISO*
X100468967Y-111319722D03*
X105910000Y-103957500D03*
G04 #@! TO.N,/SCK*
X100512500Y-110371000D03*
X101338000Y-104021000D03*
G04 #@! TO.N,//RESET*
X96258000Y-95258000D03*
G04 #@! TO.N,/PC2_INT0*
X100075919Y-100369780D03*
G04 #@! TO.N,//CSEEP*
X102100000Y-96154031D03*
G04 #@! TO.N,/TXD*
X100108947Y-93008640D03*
G04 #@! TO.N,/RXD*
X97464500Y-92337002D03*
G04 #@! TO.N,/TXDEN*
X98163000Y-91638500D03*
D23*
G04 #@! TO.N,VCC*
X94480000Y-100592000D03*
X104640000Y-87384000D03*
X97147000Y-86304500D03*
X99496500Y-97163000D03*
X99406980Y-104285959D03*
G04 #@! TD*
D25*
G04 #@! TO.N,GND*
X96512000Y-90368500D02*
X96639000Y-90368500D01*
G04 #@! TO.N,/PA5*
X105656000Y-80780000D02*
X104386002Y-82049998D01*
X104386002Y-82049998D02*
X104386002Y-85796500D01*
G04 #@! TO.N,/PB3*
X106906001Y-115811999D02*
X101401502Y-110307500D01*
X106906001Y-117629999D02*
X106906001Y-115811999D01*
X105656000Y-118880000D02*
X106906001Y-117629999D01*
G04 #@! TO.N,/MOSI*
X106037000Y-101798500D02*
X103878000Y-103957500D01*
X99798998Y-113022998D02*
X99798998Y-107612238D01*
X99798998Y-107612238D02*
X103453736Y-103957500D01*
X106037000Y-99195000D02*
X106037000Y-101798500D01*
X103453736Y-103957500D02*
X103878000Y-103957500D01*
X103116000Y-116340000D02*
X99798998Y-113022998D01*
G04 #@! TO.N,/MISO*
X104366001Y-115216756D02*
X100468967Y-111319722D01*
X103116000Y-118880000D02*
X104366001Y-117629999D01*
X104366001Y-117629999D02*
X104366001Y-115216756D01*
X103497000Y-94178500D02*
X106641001Y-97322501D01*
X106641001Y-103226499D02*
X105910000Y-103957500D01*
X103497000Y-93861000D02*
X103497000Y-94178500D01*
X106641001Y-97322501D02*
X106641001Y-103226499D01*
G04 #@! TO.N,/SCK*
X105656000Y-115587502D02*
X100512500Y-110444002D01*
X105656000Y-116340000D02*
X105656000Y-115587502D01*
X100512500Y-110444002D02*
X100512500Y-110371000D01*
X104767000Y-99195000D02*
X104767000Y-100714002D01*
X101338000Y-102501998D02*
X101338000Y-104021000D01*
X103365002Y-102116000D02*
X101723998Y-102116000D01*
X104767000Y-100714002D02*
X103365002Y-102116000D01*
X101723998Y-102116000D02*
X101338000Y-102501998D01*
D26*
G04 #@! TO.N,+24V*
X98036000Y-83320000D02*
X98036000Y-80780000D01*
X98036000Y-83828000D02*
X98036000Y-83320000D01*
X83685000Y-94623000D02*
X85082000Y-93226000D01*
X83685000Y-103640000D02*
X83685000Y-94623000D01*
X89146000Y-93226000D02*
X89654000Y-93734000D01*
X86682200Y-106637200D02*
X83685000Y-103640000D01*
X87114000Y-106637200D02*
X86682200Y-106637200D01*
X94480000Y-87384000D02*
X98036000Y-83828000D01*
X85082000Y-93226000D02*
X89146000Y-93226000D01*
X89654000Y-93734000D02*
X93210000Y-93734000D01*
X93210000Y-93734000D02*
X94480000Y-92464000D01*
X94480000Y-92464000D02*
X94480000Y-87384000D01*
D25*
G04 #@! TO.N,//RESET*
X101084000Y-93988000D02*
X101084000Y-91354020D01*
X99814000Y-95258000D02*
X101084000Y-93988000D01*
X96258000Y-95258000D02*
X99814000Y-95258000D01*
X101084000Y-91354020D02*
X100322000Y-90592020D01*
X98544000Y-90368500D02*
X98417000Y-90368500D01*
X98417000Y-90368500D02*
X96512000Y-88463500D01*
X100322000Y-90592020D02*
X98767520Y-90592020D01*
X98767520Y-90592020D02*
X98544000Y-90368500D01*
G04 #@! TO.N,/PC2_INT0*
X98670977Y-103911958D02*
X98670977Y-101774722D01*
X98670977Y-101774722D02*
X100075919Y-100369780D01*
X98656978Y-104645961D02*
X98656978Y-103925957D01*
X99298987Y-115062987D02*
X99298987Y-105287970D01*
X98656978Y-103925957D02*
X98670977Y-103911958D01*
X99298987Y-105287970D02*
X98656978Y-104645961D01*
X100576000Y-116340000D02*
X99298987Y-115062987D01*
G04 #@! TO.N,Net-(R6-Pad2)*
X103497000Y-96020000D02*
X103497000Y-95639000D01*
X103497000Y-95639000D02*
X102903041Y-95045041D01*
X102903041Y-95045041D02*
X102903041Y-94722543D01*
X102903041Y-94722543D02*
X102892999Y-94712501D01*
X102892999Y-94712501D02*
X102892999Y-93009499D01*
X102892999Y-93009499D02*
X102903041Y-92999457D01*
X102903041Y-92999457D02*
X102903041Y-91930241D01*
X102903041Y-91930241D02*
X102100000Y-91127200D01*
X102100000Y-91127200D02*
X102100000Y-90368500D01*
X103497000Y-99195000D02*
X103497000Y-96020000D01*
X103497000Y-96020000D02*
X103497000Y-95893000D01*
G04 #@! TO.N,//CSEEP*
X102227000Y-96027031D02*
X102100000Y-96154031D01*
X102227000Y-93861000D02*
X102227000Y-96027031D01*
G04 #@! TO.N,/TXD*
X99433000Y-93861000D02*
X99987000Y-93861000D01*
X100108947Y-93739053D02*
X100108947Y-93008640D01*
X99987000Y-93861000D02*
X100108947Y-93739053D01*
G04 #@! TO.N,/RXD*
X96257998Y-92337002D02*
X97040236Y-92337002D01*
X95623000Y-92972000D02*
X96257998Y-92337002D01*
X97040236Y-92337002D02*
X97464500Y-92337002D01*
X95623000Y-93861000D02*
X95623000Y-92972000D01*
G04 #@! TO.N,/TXDEN*
X98163000Y-93861000D02*
X96893000Y-93861000D01*
X98163000Y-93861000D02*
X98163000Y-91638500D01*
G04 #@! TO.N,Net-(R1-Pad2)*
X104767000Y-93861000D02*
X104767000Y-90495500D01*
X104767000Y-90495500D02*
X104640000Y-90368500D01*
G04 #@! TO.N,/A*
X87120200Y-100896800D02*
X93083000Y-100896800D01*
X98163000Y-103767000D02*
X98163000Y-99195000D01*
X97528000Y-104402000D02*
X98163000Y-103767000D01*
X94861000Y-104402000D02*
X97528000Y-104402000D01*
X94099000Y-103640000D02*
X94861000Y-104402000D01*
X94099000Y-101912800D02*
X94099000Y-103640000D01*
X93083000Y-100896800D02*
X94099000Y-101912800D01*
G04 #@! TO.N,/B*
X96258000Y-97163000D02*
X96258000Y-97798000D01*
X96258000Y-97798000D02*
X96893000Y-98433000D01*
X96893000Y-98433000D02*
X97020000Y-98433000D01*
X96893000Y-99195000D02*
X96893000Y-98433000D01*
X94353000Y-95258000D02*
X87114000Y-95258000D01*
X96258000Y-97163000D02*
X94353000Y-95258000D01*
X87114000Y-95258000D02*
X87114000Y-95156400D01*
D26*
G04 #@! TO.N,VCC*
X102227000Y-99195000D02*
X102227000Y-101100000D01*
X102227000Y-101100000D02*
X102608000Y-101100000D01*
X96004000Y-101163500D02*
X95051500Y-101163500D01*
X95051500Y-101163500D02*
X94480000Y-100592000D01*
X102100000Y-88463500D02*
X100545520Y-88463500D01*
X100545520Y-88463500D02*
X100322000Y-88239980D01*
X98544000Y-88463500D02*
X100098480Y-88463500D01*
X100098480Y-88463500D02*
X100322000Y-88239980D01*
X104640000Y-88463500D02*
X104640000Y-87384000D01*
X104640000Y-88463500D02*
X102100000Y-88463500D01*
D25*
X95750000Y-100165000D02*
X95721500Y-100165000D01*
X95721500Y-100165000D02*
X95623000Y-100066500D01*
X95623000Y-100066500D02*
X95623000Y-99195000D01*
X96004000Y-101163500D02*
X96004000Y-100419000D01*
X96004000Y-100419000D02*
X95750000Y-100165000D01*
D26*
X98036000Y-118880000D02*
X98036000Y-116340000D01*
X98036000Y-116340000D02*
X98036000Y-113343650D01*
X88434800Y-111666400D02*
X93362400Y-111666400D01*
X94139640Y-112443640D02*
X98036000Y-112443640D01*
X93362400Y-111666400D02*
X94139640Y-112443640D01*
X98544000Y-87701500D02*
X97147000Y-86304500D01*
X98544000Y-88463500D02*
X98544000Y-87701500D01*
X99560000Y-97163000D02*
X99496500Y-97163000D01*
X101592000Y-99195000D02*
X99560000Y-97163000D01*
X102227000Y-99195000D02*
X101592000Y-99195000D01*
D27*
X101109500Y-101100000D02*
X99420988Y-102788512D01*
X99420988Y-102788512D02*
X99420988Y-104271951D01*
X102608000Y-101100000D02*
X101109500Y-101100000D01*
X99420988Y-104271951D02*
X99406980Y-104285959D01*
G04 #@! TD*
D28*
G04 #@! TO.N,GND*
G36*
X106801000Y-80343195D02*
X106694505Y-80086093D01*
X106349907Y-79741495D01*
X105899668Y-79555000D01*
X105412332Y-79555000D01*
X104962093Y-79741495D01*
X104617495Y-80086093D01*
X104431000Y-80536332D01*
X104431000Y-81023668D01*
X104521674Y-81242575D01*
X104083206Y-81681043D01*
X104043547Y-81707543D01*
X103938563Y-81864664D01*
X103911002Y-82003220D01*
X103911002Y-82003224D01*
X103901698Y-82049998D01*
X103911002Y-82096772D01*
X103911002Y-82382590D01*
X103809907Y-82281495D01*
X103359668Y-82095000D01*
X102872332Y-82095000D01*
X102422093Y-82281495D01*
X102077495Y-82626093D01*
X101891000Y-83076332D01*
X101891000Y-83563668D01*
X102077495Y-84013907D01*
X102422093Y-84358505D01*
X102872332Y-84545000D01*
X103359668Y-84545000D01*
X103809907Y-84358505D01*
X103911003Y-84257409D01*
X103911003Y-85387616D01*
X103856153Y-85442466D01*
X103761002Y-85672180D01*
X103761002Y-85920820D01*
X103856153Y-86150534D01*
X104031968Y-86326349D01*
X104261682Y-86421500D01*
X104510322Y-86421500D01*
X104740036Y-86326349D01*
X104915851Y-86150534D01*
X105011002Y-85920820D01*
X105011002Y-85672180D01*
X104915851Y-85442466D01*
X104861002Y-85387617D01*
X104861002Y-84257414D01*
X104962093Y-84358505D01*
X105412332Y-84545000D01*
X105899668Y-84545000D01*
X106349907Y-84358505D01*
X106694505Y-84013907D01*
X106801000Y-83756805D01*
X106801000Y-92904303D01*
X106649565Y-92752868D01*
X106416911Y-92656500D01*
X106322250Y-92656500D01*
X106164000Y-92814750D01*
X106164000Y-93732000D01*
X106186000Y-93732000D01*
X106186000Y-93990000D01*
X106164000Y-93990000D01*
X106164000Y-94907250D01*
X106322250Y-95065500D01*
X106416911Y-95065500D01*
X106649565Y-94969132D01*
X106801000Y-94817697D01*
X106801000Y-96810749D01*
X104754117Y-94763867D01*
X105021000Y-94763867D01*
X105147809Y-94738643D01*
X105207996Y-94698427D01*
X105246369Y-94791066D01*
X105424435Y-94969132D01*
X105657089Y-95065500D01*
X105751750Y-95065500D01*
X105910000Y-94907250D01*
X105910000Y-93990000D01*
X105888000Y-93990000D01*
X105888000Y-93732000D01*
X105910000Y-93732000D01*
X105910000Y-92814750D01*
X105751750Y-92656500D01*
X105657089Y-92656500D01*
X105424435Y-92752868D01*
X105246369Y-92930934D01*
X105242000Y-92941482D01*
X105242000Y-91144367D01*
X105338500Y-91144367D01*
X105465309Y-91119143D01*
X105572812Y-91047312D01*
X105644643Y-90939809D01*
X105669867Y-90813000D01*
X105669867Y-89924000D01*
X105644643Y-89797191D01*
X105572812Y-89689688D01*
X105465309Y-89617857D01*
X105338500Y-89592633D01*
X103941500Y-89592633D01*
X103814691Y-89617857D01*
X103707188Y-89689688D01*
X103635357Y-89797191D01*
X103610133Y-89924000D01*
X103610133Y-90813000D01*
X103635357Y-90939809D01*
X103707188Y-91047312D01*
X103814691Y-91119143D01*
X103941500Y-91144367D01*
X104292001Y-91144367D01*
X104292000Y-93046293D01*
X104278688Y-93055188D01*
X104206857Y-93162691D01*
X104181633Y-93289500D01*
X104181633Y-94191383D01*
X104082367Y-94092117D01*
X104082367Y-93289500D01*
X104057143Y-93162691D01*
X103985312Y-93055188D01*
X103877809Y-92983357D01*
X103751000Y-92958133D01*
X103379125Y-92958133D01*
X103378041Y-92952682D01*
X103378041Y-91977014D01*
X103387345Y-91930240D01*
X103378041Y-91883466D01*
X103378041Y-91883462D01*
X103350480Y-91744906D01*
X103318120Y-91696475D01*
X103271994Y-91627442D01*
X103271992Y-91627440D01*
X103245496Y-91587786D01*
X103205842Y-91561290D01*
X102788918Y-91144367D01*
X102798500Y-91144367D01*
X102925309Y-91119143D01*
X103032812Y-91047312D01*
X103104643Y-90939809D01*
X103129867Y-90813000D01*
X103129867Y-89924000D01*
X103104643Y-89797191D01*
X103032812Y-89689688D01*
X102925309Y-89617857D01*
X102798500Y-89592633D01*
X101401500Y-89592633D01*
X101274691Y-89617857D01*
X101167188Y-89689688D01*
X101095357Y-89797191D01*
X101070133Y-89924000D01*
X101070133Y-89985248D01*
X101013512Y-89900508D01*
X100906009Y-89828677D01*
X100779200Y-89803453D01*
X99864800Y-89803453D01*
X99737991Y-89828677D01*
X99630488Y-89900508D01*
X99573867Y-89985248D01*
X99573867Y-89924000D01*
X99548643Y-89797191D01*
X99476812Y-89689688D01*
X99369309Y-89617857D01*
X99242500Y-89592633D01*
X98312884Y-89592633D01*
X97959618Y-89239367D01*
X99242500Y-89239367D01*
X99369309Y-89214143D01*
X99476812Y-89142312D01*
X99512768Y-89088500D01*
X100036925Y-89088500D01*
X100098480Y-89100744D01*
X100160035Y-89088500D01*
X100322000Y-89056283D01*
X100408571Y-89073503D01*
X100545519Y-89100744D01*
X100607074Y-89088500D01*
X101131232Y-89088500D01*
X101167188Y-89142312D01*
X101274691Y-89214143D01*
X101401500Y-89239367D01*
X102798500Y-89239367D01*
X102925309Y-89214143D01*
X103032812Y-89142312D01*
X103068768Y-89088500D01*
X103671232Y-89088500D01*
X103707188Y-89142312D01*
X103814691Y-89214143D01*
X103941500Y-89239367D01*
X105338500Y-89239367D01*
X105465309Y-89214143D01*
X105572812Y-89142312D01*
X105644643Y-89034809D01*
X105669867Y-88908000D01*
X105669867Y-88019000D01*
X105644643Y-87892191D01*
X105572812Y-87784688D01*
X105465309Y-87712857D01*
X105338500Y-87687633D01*
X105298966Y-87687633D01*
X105365000Y-87528212D01*
X105365000Y-87239788D01*
X105254626Y-86973320D01*
X105050680Y-86769374D01*
X104784212Y-86659000D01*
X104495788Y-86659000D01*
X104229320Y-86769374D01*
X104025374Y-86973320D01*
X103915000Y-87239788D01*
X103915000Y-87528212D01*
X103981034Y-87687633D01*
X103941500Y-87687633D01*
X103814691Y-87712857D01*
X103707188Y-87784688D01*
X103671232Y-87838500D01*
X103068768Y-87838500D01*
X103032812Y-87784688D01*
X102925309Y-87712857D01*
X102798500Y-87687633D01*
X101401500Y-87687633D01*
X101274691Y-87712857D01*
X101167188Y-87784688D01*
X101131232Y-87838500D01*
X101110567Y-87838500D01*
X101110567Y-87782780D01*
X101085343Y-87655971D01*
X101013512Y-87548468D01*
X100906009Y-87476637D01*
X100779200Y-87451413D01*
X99864800Y-87451413D01*
X99737991Y-87476637D01*
X99630488Y-87548468D01*
X99558657Y-87655971D01*
X99533433Y-87782780D01*
X99533433Y-87838500D01*
X99512768Y-87838500D01*
X99476812Y-87784688D01*
X99369309Y-87712857D01*
X99242500Y-87687633D01*
X99178486Y-87687633D01*
X99169000Y-87639945D01*
X99132737Y-87457637D01*
X98994600Y-87250900D01*
X98942415Y-87216031D01*
X97861627Y-86135244D01*
X97761626Y-85893820D01*
X97557680Y-85689874D01*
X97291212Y-85579500D01*
X97168383Y-85579500D01*
X98202884Y-84545000D01*
X98279668Y-84545000D01*
X98729907Y-84358505D01*
X99074505Y-84013907D01*
X99261000Y-83563668D01*
X99261000Y-83076332D01*
X99351000Y-83076332D01*
X99351000Y-83563668D01*
X99537495Y-84013907D01*
X99882093Y-84358505D01*
X100332332Y-84545000D01*
X100819668Y-84545000D01*
X101269907Y-84358505D01*
X101614505Y-84013907D01*
X101801000Y-83563668D01*
X101801000Y-83076332D01*
X101614505Y-82626093D01*
X101269907Y-82281495D01*
X100819668Y-82095000D01*
X100332332Y-82095000D01*
X99882093Y-82281495D01*
X99537495Y-82626093D01*
X99351000Y-83076332D01*
X99261000Y-83076332D01*
X99074505Y-82626093D01*
X98729907Y-82281495D01*
X98661000Y-82252953D01*
X98661000Y-81847047D01*
X98729907Y-81818505D01*
X99074505Y-81473907D01*
X99261000Y-81023668D01*
X99261000Y-80536332D01*
X99351000Y-80536332D01*
X99351000Y-81023668D01*
X99537495Y-81473907D01*
X99882093Y-81818505D01*
X100332332Y-82005000D01*
X100819668Y-82005000D01*
X101269907Y-81818505D01*
X101614505Y-81473907D01*
X101801000Y-81023668D01*
X101801000Y-80536332D01*
X101891000Y-80536332D01*
X101891000Y-81023668D01*
X102077495Y-81473907D01*
X102422093Y-81818505D01*
X102872332Y-82005000D01*
X103359668Y-82005000D01*
X103809907Y-81818505D01*
X104154505Y-81473907D01*
X104341000Y-81023668D01*
X104341000Y-80536332D01*
X104154505Y-80086093D01*
X103809907Y-79741495D01*
X103359668Y-79555000D01*
X102872332Y-79555000D01*
X102422093Y-79741495D01*
X102077495Y-80086093D01*
X101891000Y-80536332D01*
X101801000Y-80536332D01*
X101614505Y-80086093D01*
X101269907Y-79741495D01*
X100819668Y-79555000D01*
X100332332Y-79555000D01*
X99882093Y-79741495D01*
X99537495Y-80086093D01*
X99351000Y-80536332D01*
X99261000Y-80536332D01*
X99074505Y-80086093D01*
X98729907Y-79741495D01*
X98279668Y-79555000D01*
X97792332Y-79555000D01*
X97342093Y-79741495D01*
X96997495Y-80086093D01*
X96939061Y-80227164D01*
X96832031Y-79968770D01*
X96576351Y-79882083D01*
X95678434Y-80780000D01*
X95692576Y-80794142D01*
X95510142Y-80976576D01*
X95496000Y-80962434D01*
X95481858Y-80976576D01*
X95299424Y-80794142D01*
X95313566Y-80780000D01*
X94415649Y-79882083D01*
X94159969Y-79968770D01*
X93951224Y-80541798D01*
X93977657Y-81151090D01*
X94159969Y-81591230D01*
X94415647Y-81677916D01*
X94301282Y-81792281D01*
X94346990Y-81837989D01*
X94237435Y-81883368D01*
X94059369Y-82061434D01*
X93963000Y-82294088D01*
X93963000Y-83032750D01*
X94121250Y-83191000D01*
X95367000Y-83191000D01*
X95367000Y-83171000D01*
X95625000Y-83171000D01*
X95625000Y-83191000D01*
X95645000Y-83191000D01*
X95645000Y-83449000D01*
X95625000Y-83449000D01*
X95625000Y-84694750D01*
X95783250Y-84853000D01*
X96127117Y-84853000D01*
X94081588Y-86898530D01*
X94029401Y-86933400D01*
X93941966Y-87064256D01*
X93891263Y-87140138D01*
X93842756Y-87384000D01*
X93855001Y-87445560D01*
X93855000Y-92205117D01*
X93845114Y-92215003D01*
X93826849Y-91861004D01*
X93669771Y-91481784D01*
X93428390Y-91412043D01*
X92630434Y-92210000D01*
X92644576Y-92224142D01*
X92462142Y-92406576D01*
X92448000Y-92392434D01*
X92433858Y-92406576D01*
X92251424Y-92224142D01*
X92265566Y-92210000D01*
X91467610Y-91412043D01*
X91226229Y-91481784D01*
X91040555Y-92004768D01*
X91069151Y-92558996D01*
X91226229Y-92938216D01*
X91467607Y-93007956D01*
X91366563Y-93109000D01*
X89912883Y-93109000D01*
X89631472Y-92827590D01*
X89596600Y-92775400D01*
X89389863Y-92637263D01*
X89207555Y-92601000D01*
X89146000Y-92588756D01*
X89084445Y-92601000D01*
X85143553Y-92601000D01*
X85081999Y-92588756D01*
X85020445Y-92601000D01*
X84838137Y-92637263D01*
X84631400Y-92775400D01*
X84596531Y-92827585D01*
X83286588Y-94137530D01*
X83234401Y-94172400D01*
X83143503Y-94308439D01*
X83096263Y-94379138D01*
X83047756Y-94623000D01*
X83060001Y-94684560D01*
X83060000Y-103578445D01*
X83047756Y-103640000D01*
X83082323Y-103813779D01*
X83096263Y-103883862D01*
X83234400Y-104090600D01*
X83286590Y-104125472D01*
X85789000Y-106627883D01*
X85789000Y-106900759D01*
X85990719Y-107387752D01*
X86363448Y-107760481D01*
X86850441Y-107962200D01*
X87377559Y-107962200D01*
X87864552Y-107760481D01*
X88237281Y-107387752D01*
X88439000Y-106900759D01*
X88439000Y-106373641D01*
X88353982Y-106168388D01*
X96602900Y-106168388D01*
X96602900Y-107757110D01*
X96761150Y-107915360D01*
X97907000Y-107915360D01*
X97907000Y-105819550D01*
X97748750Y-105661300D01*
X97109989Y-105661300D01*
X96877335Y-105757668D01*
X96699269Y-105935734D01*
X96602900Y-106168388D01*
X88353982Y-106168388D01*
X88237281Y-105886648D01*
X87864552Y-105513919D01*
X87377559Y-105312200D01*
X86850441Y-105312200D01*
X86419560Y-105490677D01*
X84310000Y-103381118D01*
X84310000Y-94881882D01*
X85340884Y-93851000D01*
X86803122Y-93851000D01*
X86363448Y-94033119D01*
X85990719Y-94405848D01*
X85789000Y-94892841D01*
X85789000Y-95419959D01*
X85990719Y-95906952D01*
X86363448Y-96279681D01*
X86850441Y-96481400D01*
X87377559Y-96481400D01*
X87864552Y-96279681D01*
X88237281Y-95906952D01*
X88309334Y-95733000D01*
X94156250Y-95733000D01*
X95783000Y-97359751D01*
X95783001Y-97751222D01*
X95773696Y-97798000D01*
X95783001Y-97844779D01*
X95810562Y-97983335D01*
X95915546Y-98140455D01*
X95955202Y-98166953D01*
X96324907Y-98536658D01*
X96307633Y-98623500D01*
X96307633Y-99766500D01*
X96332857Y-99893309D01*
X96404688Y-100000812D01*
X96512191Y-100072643D01*
X96639000Y-100097867D01*
X97147000Y-100097867D01*
X97273809Y-100072643D01*
X97381312Y-100000812D01*
X97453143Y-99893309D01*
X97478367Y-99766500D01*
X97478367Y-98623500D01*
X97472389Y-98593448D01*
X97504305Y-98433000D01*
X97467439Y-98247665D01*
X97362455Y-98090545D01*
X97205335Y-97985561D01*
X97095455Y-97963704D01*
X96733000Y-97601250D01*
X96733000Y-97209774D01*
X96742304Y-97163000D01*
X96733000Y-97116226D01*
X96733000Y-97116221D01*
X96705439Y-96977665D01*
X96600455Y-96820545D01*
X96560799Y-96794048D01*
X94721955Y-94955205D01*
X94695455Y-94915545D01*
X94538335Y-94810561D01*
X94399779Y-94783000D01*
X94399774Y-94783000D01*
X94353000Y-94773696D01*
X94306226Y-94783000D01*
X88393502Y-94783000D01*
X88237281Y-94405848D01*
X87864552Y-94033119D01*
X87424878Y-93851000D01*
X88887117Y-93851000D01*
X89168531Y-94132415D01*
X89203400Y-94184600D01*
X89410137Y-94322737D01*
X89592445Y-94359000D01*
X89653999Y-94371244D01*
X89715553Y-94359000D01*
X93148445Y-94359000D01*
X93210000Y-94371244D01*
X93271555Y-94359000D01*
X93453863Y-94322737D01*
X93660600Y-94184600D01*
X93695472Y-94132410D01*
X94878413Y-92949470D01*
X94930600Y-92914600D01*
X95068737Y-92707863D01*
X95105000Y-92525555D01*
X95105000Y-92525554D01*
X95117244Y-92464001D01*
X95105000Y-92402447D01*
X95105000Y-90655750D01*
X95180500Y-90655750D01*
X95180500Y-90938911D01*
X95276868Y-91171565D01*
X95454934Y-91349631D01*
X95687588Y-91446000D01*
X96224750Y-91446000D01*
X96383000Y-91287750D01*
X96383000Y-90497500D01*
X95338750Y-90497500D01*
X95180500Y-90655750D01*
X95105000Y-90655750D01*
X95105000Y-89798089D01*
X95180500Y-89798089D01*
X95180500Y-90081250D01*
X95338750Y-90239500D01*
X96383000Y-90239500D01*
X96383000Y-89449250D01*
X96224750Y-89291000D01*
X95687588Y-89291000D01*
X95454934Y-89387369D01*
X95276868Y-89565435D01*
X95180500Y-89798089D01*
X95105000Y-89798089D01*
X95105000Y-87642882D01*
X96422000Y-86325883D01*
X96422000Y-86448712D01*
X96532374Y-86715180D01*
X96736320Y-86919126D01*
X96977744Y-87019127D01*
X97690386Y-87731770D01*
X97611188Y-87784688D01*
X97539357Y-87892191D01*
X97528000Y-87949286D01*
X97516643Y-87892191D01*
X97444812Y-87784688D01*
X97337309Y-87712857D01*
X97210500Y-87687633D01*
X95813500Y-87687633D01*
X95686691Y-87712857D01*
X95579188Y-87784688D01*
X95507357Y-87892191D01*
X95482133Y-88019000D01*
X95482133Y-88908000D01*
X95507357Y-89034809D01*
X95579188Y-89142312D01*
X95686691Y-89214143D01*
X95813500Y-89239367D01*
X96616117Y-89239367D01*
X96733500Y-89356750D01*
X96641000Y-89449250D01*
X96641000Y-90239500D01*
X96661000Y-90239500D01*
X96661000Y-90497500D01*
X96641000Y-90497500D01*
X96641000Y-91287750D01*
X96799250Y-91446000D01*
X97336412Y-91446000D01*
X97569066Y-91349631D01*
X97632387Y-91286310D01*
X97538000Y-91514180D01*
X97538000Y-91712002D01*
X97340180Y-91712002D01*
X97110466Y-91807153D01*
X97055617Y-91862002D01*
X96304772Y-91862002D01*
X96257998Y-91852698D01*
X96211224Y-91862002D01*
X96211219Y-91862002D01*
X96072663Y-91889563D01*
X95915543Y-91994547D01*
X95889045Y-92034204D01*
X95320202Y-92603047D01*
X95280546Y-92629545D01*
X95254048Y-92669202D01*
X95254047Y-92669203D01*
X95175562Y-92786665D01*
X95138696Y-92972000D01*
X95148001Y-93018778D01*
X95148001Y-93046293D01*
X95134688Y-93055188D01*
X95062857Y-93162691D01*
X95037633Y-93289500D01*
X95037633Y-94432500D01*
X95062857Y-94559309D01*
X95134688Y-94666812D01*
X95242191Y-94738643D01*
X95369000Y-94763867D01*
X95868250Y-94763867D01*
X95728151Y-94903966D01*
X95633000Y-95133680D01*
X95633000Y-95382320D01*
X95728151Y-95612034D01*
X95903966Y-95787849D01*
X96133680Y-95883000D01*
X96382320Y-95883000D01*
X96612034Y-95787849D01*
X96666883Y-95733000D01*
X99767226Y-95733000D01*
X99814000Y-95742304D01*
X99860774Y-95733000D01*
X99860779Y-95733000D01*
X99999335Y-95705439D01*
X100156455Y-95600455D01*
X100182955Y-95560796D01*
X101386802Y-94356950D01*
X101426455Y-94330455D01*
X101452951Y-94290801D01*
X101452953Y-94290799D01*
X101507702Y-94208860D01*
X101531439Y-94173335D01*
X101559000Y-94034779D01*
X101559000Y-94034775D01*
X101568304Y-93988001D01*
X101559000Y-93941227D01*
X101559000Y-91400794D01*
X101568304Y-91354020D01*
X101559000Y-91307246D01*
X101559000Y-91307241D01*
X101531439Y-91168685D01*
X101515190Y-91144367D01*
X101619111Y-91144367D01*
X101625000Y-91173974D01*
X101625000Y-91173978D01*
X101652561Y-91312534D01*
X101757545Y-91469655D01*
X101797204Y-91496154D01*
X102428042Y-92126993D01*
X102428041Y-92912241D01*
X102418912Y-92958133D01*
X101973000Y-92958133D01*
X101846191Y-92983357D01*
X101738688Y-93055188D01*
X101666857Y-93162691D01*
X101641633Y-93289500D01*
X101641633Y-94432500D01*
X101666857Y-94559309D01*
X101738688Y-94666812D01*
X101752000Y-94675707D01*
X101752001Y-95621682D01*
X101745966Y-95624182D01*
X101570151Y-95799997D01*
X101475000Y-96029711D01*
X101475000Y-96278351D01*
X101570151Y-96508065D01*
X101745966Y-96683880D01*
X101975680Y-96779031D01*
X102224320Y-96779031D01*
X102454034Y-96683880D01*
X102629849Y-96508065D01*
X102725000Y-96278351D01*
X102725000Y-96029711D01*
X102702000Y-95974184D01*
X102702000Y-95515750D01*
X103022000Y-95835751D01*
X103022000Y-96066778D01*
X103022001Y-96066783D01*
X103022000Y-98380293D01*
X103008688Y-98389188D01*
X102936857Y-98496691D01*
X102911633Y-98623500D01*
X102911633Y-99766500D01*
X102936857Y-99893309D01*
X103008688Y-100000812D01*
X103116191Y-100072643D01*
X103243000Y-100097867D01*
X103751000Y-100097867D01*
X103877809Y-100072643D01*
X103985312Y-100000812D01*
X104057143Y-99893309D01*
X104082367Y-99766500D01*
X104082367Y-98623500D01*
X104057143Y-98496691D01*
X103985312Y-98389188D01*
X103972000Y-98380293D01*
X103972000Y-95685774D01*
X103981304Y-95639000D01*
X103972000Y-95592226D01*
X103972000Y-95592221D01*
X103944439Y-95453665D01*
X103839455Y-95296545D01*
X103799798Y-95270047D01*
X103378041Y-94848291D01*
X103378041Y-94769318D01*
X103379125Y-94763867D01*
X103410617Y-94763867D01*
X106166001Y-97519252D01*
X106166001Y-98292133D01*
X105783000Y-98292133D01*
X105656191Y-98317357D01*
X105548688Y-98389188D01*
X105476857Y-98496691D01*
X105451633Y-98623500D01*
X105451633Y-99766500D01*
X105476857Y-99893309D01*
X105548688Y-100000812D01*
X105562000Y-100009707D01*
X105562001Y-101601747D01*
X103905500Y-103258250D01*
X103781250Y-103134000D01*
X102737000Y-103134000D01*
X102737000Y-103924250D01*
X102776117Y-103963367D01*
X99773987Y-106965499D01*
X99773987Y-105334744D01*
X99783291Y-105287970D01*
X99773987Y-105241196D01*
X99773987Y-105241191D01*
X99746426Y-105102635D01*
X99685170Y-105010959D01*
X99667940Y-104985172D01*
X99660911Y-104974652D01*
X99689860Y-104968894D01*
X99750390Y-104928449D01*
X99817660Y-104900585D01*
X99883155Y-104835090D01*
X99943683Y-104794646D01*
X99984127Y-104734118D01*
X100021606Y-104696639D01*
X100041889Y-104647672D01*
X100103923Y-104554832D01*
X100125707Y-104445315D01*
X100131980Y-104430171D01*
X100131980Y-104413779D01*
X100145988Y-104343355D01*
X100145988Y-104343351D01*
X100160190Y-104271952D01*
X100145988Y-104200553D01*
X100145988Y-103088816D01*
X100883713Y-102351091D01*
X100863000Y-102455220D01*
X100863000Y-102455224D01*
X100853696Y-102501998D01*
X100863000Y-102548772D01*
X100863001Y-103612116D01*
X100808151Y-103666966D01*
X100713000Y-103896680D01*
X100713000Y-104145320D01*
X100808151Y-104375034D01*
X100983966Y-104550849D01*
X101213680Y-104646000D01*
X101462320Y-104646000D01*
X101692034Y-104550849D01*
X101867849Y-104375034D01*
X101963000Y-104145320D01*
X101963000Y-104082500D01*
X102320750Y-104082500D01*
X102479000Y-103924250D01*
X102479000Y-103134000D01*
X102459000Y-103134000D01*
X102459000Y-102876000D01*
X102479000Y-102876000D01*
X102479000Y-102856000D01*
X102737000Y-102856000D01*
X102737000Y-102876000D01*
X103781250Y-102876000D01*
X103939500Y-102717750D01*
X103939500Y-102434589D01*
X103874672Y-102278080D01*
X105069798Y-101082955D01*
X105109455Y-101056457D01*
X105153583Y-100990415D01*
X105214439Y-100899338D01*
X105230793Y-100817119D01*
X105242000Y-100760781D01*
X105242000Y-100760777D01*
X105251304Y-100714002D01*
X105242000Y-100667227D01*
X105242000Y-100009707D01*
X105255312Y-100000812D01*
X105327143Y-99893309D01*
X105352367Y-99766500D01*
X105352367Y-98623500D01*
X105327143Y-98496691D01*
X105255312Y-98389188D01*
X105147809Y-98317357D01*
X105021000Y-98292133D01*
X104513000Y-98292133D01*
X104386191Y-98317357D01*
X104278688Y-98389188D01*
X104206857Y-98496691D01*
X104181633Y-98623500D01*
X104181633Y-99766500D01*
X104206857Y-99893309D01*
X104278688Y-100000812D01*
X104292001Y-100009707D01*
X104292001Y-100517250D01*
X103637867Y-101171385D01*
X103637867Y-100655500D01*
X103612643Y-100528691D01*
X103540812Y-100421188D01*
X103433309Y-100349357D01*
X103306500Y-100324133D01*
X102852000Y-100324133D01*
X102852000Y-99256555D01*
X102864244Y-99195000D01*
X102815737Y-98951137D01*
X102812367Y-98946093D01*
X102812367Y-98623500D01*
X102787143Y-98496691D01*
X102715312Y-98389188D01*
X102607809Y-98317357D01*
X102481000Y-98292133D01*
X101973000Y-98292133D01*
X101846191Y-98317357D01*
X101738688Y-98389188D01*
X101711204Y-98430321D01*
X100166226Y-96885344D01*
X100111126Y-96752320D01*
X99907180Y-96548374D01*
X99640712Y-96438000D01*
X99352288Y-96438000D01*
X99085820Y-96548374D01*
X98881874Y-96752320D01*
X98771500Y-97018788D01*
X98771500Y-97307212D01*
X98881874Y-97573680D01*
X99085820Y-97777626D01*
X99352288Y-97888000D01*
X99401118Y-97888000D01*
X99610934Y-98097816D01*
X99560000Y-98148750D01*
X99560000Y-99066000D01*
X100161750Y-99066000D01*
X100320000Y-98907750D01*
X100320000Y-98806883D01*
X101106529Y-99593412D01*
X101141400Y-99645600D01*
X101289834Y-99744780D01*
X101348137Y-99783737D01*
X101592000Y-99832244D01*
X101602000Y-99830255D01*
X101602001Y-100375000D01*
X101180900Y-100375000D01*
X101109500Y-100360798D01*
X101038100Y-100375000D01*
X101038096Y-100375000D01*
X100826619Y-100417065D01*
X100696935Y-100503718D01*
X100700919Y-100494100D01*
X100700919Y-100245460D01*
X100605768Y-100015746D01*
X100429953Y-99839931D01*
X100320000Y-99794387D01*
X100320000Y-99482250D01*
X100161750Y-99324000D01*
X99560000Y-99324000D01*
X99560000Y-99344000D01*
X99306000Y-99344000D01*
X99306000Y-99324000D01*
X99284000Y-99324000D01*
X99284000Y-99066000D01*
X99306000Y-99066000D01*
X99306000Y-98148750D01*
X99147750Y-97990500D01*
X99053089Y-97990500D01*
X98820435Y-98086868D01*
X98642369Y-98264934D01*
X98603996Y-98357573D01*
X98543809Y-98317357D01*
X98417000Y-98292133D01*
X97909000Y-98292133D01*
X97782191Y-98317357D01*
X97674688Y-98389188D01*
X97602857Y-98496691D01*
X97577633Y-98623500D01*
X97577633Y-99766500D01*
X97602857Y-99893309D01*
X97674688Y-100000812D01*
X97688001Y-100009707D01*
X97688000Y-103570249D01*
X97331250Y-103927000D01*
X97183697Y-103927000D01*
X97239132Y-103871565D01*
X97335500Y-103638911D01*
X97335500Y-103355750D01*
X97177250Y-103197500D01*
X96133000Y-103197500D01*
X96133000Y-103217500D01*
X95875000Y-103217500D01*
X95875000Y-103197500D01*
X94830750Y-103197500D01*
X94672500Y-103355750D01*
X94672500Y-103541750D01*
X94574000Y-103443250D01*
X94574000Y-102498089D01*
X94672500Y-102498089D01*
X94672500Y-102781250D01*
X94830750Y-102939500D01*
X95875000Y-102939500D01*
X95875000Y-102149250D01*
X96133000Y-102149250D01*
X96133000Y-102939500D01*
X97177250Y-102939500D01*
X97335500Y-102781250D01*
X97335500Y-102498089D01*
X97239132Y-102265435D01*
X97061066Y-102087369D01*
X96828412Y-101991000D01*
X96291250Y-101991000D01*
X96133000Y-102149250D01*
X95875000Y-102149250D01*
X95716750Y-101991000D01*
X95179588Y-101991000D01*
X94946934Y-102087369D01*
X94768868Y-102265435D01*
X94672500Y-102498089D01*
X94574000Y-102498089D01*
X94574000Y-101959574D01*
X94583304Y-101912800D01*
X94574000Y-101866026D01*
X94574000Y-101866021D01*
X94546439Y-101727465D01*
X94470691Y-101614100D01*
X94467953Y-101610002D01*
X94441455Y-101570345D01*
X94401799Y-101543848D01*
X93451955Y-100594005D01*
X93425455Y-100554345D01*
X93268335Y-100449361D01*
X93260428Y-100447788D01*
X93755000Y-100447788D01*
X93755000Y-100736212D01*
X93865374Y-101002680D01*
X94069320Y-101206626D01*
X94310744Y-101306627D01*
X94566029Y-101561912D01*
X94600900Y-101614100D01*
X94799870Y-101747047D01*
X94807637Y-101752237D01*
X95042174Y-101798889D01*
X95071188Y-101842312D01*
X95178691Y-101914143D01*
X95305500Y-101939367D01*
X96702500Y-101939367D01*
X96829309Y-101914143D01*
X96936812Y-101842312D01*
X97008643Y-101734809D01*
X97033867Y-101608000D01*
X97033867Y-100719000D01*
X97008643Y-100592191D01*
X96936812Y-100484688D01*
X96829309Y-100412857D01*
X96702500Y-100387633D01*
X96482065Y-100387633D01*
X96479000Y-100372225D01*
X96479000Y-100372221D01*
X96451439Y-100233665D01*
X96346455Y-100076545D01*
X96306798Y-100050047D01*
X96169892Y-99913141D01*
X96183143Y-99893309D01*
X96208367Y-99766500D01*
X96208367Y-98623500D01*
X96183143Y-98496691D01*
X96111312Y-98389188D01*
X96003809Y-98317357D01*
X95877000Y-98292133D01*
X95369000Y-98292133D01*
X95242191Y-98317357D01*
X95134688Y-98389188D01*
X95062857Y-98496691D01*
X95037633Y-98623500D01*
X95037633Y-99766500D01*
X95062857Y-99893309D01*
X95134688Y-100000812D01*
X95148000Y-100009707D01*
X95148000Y-100019726D01*
X95138696Y-100066500D01*
X95148000Y-100113274D01*
X95148000Y-100113278D01*
X95175561Y-100251834D01*
X95270897Y-100394516D01*
X95189630Y-100410681D01*
X95094626Y-100181320D01*
X94890680Y-99977374D01*
X94624212Y-99867000D01*
X94335788Y-99867000D01*
X94069320Y-99977374D01*
X93865374Y-100181320D01*
X93755000Y-100447788D01*
X93260428Y-100447788D01*
X93129779Y-100421800D01*
X93129774Y-100421800D01*
X93083000Y-100412496D01*
X93036226Y-100421800D01*
X88357618Y-100421800D01*
X88243481Y-100146248D01*
X87870752Y-99773519D01*
X87383759Y-99571800D01*
X86856641Y-99571800D01*
X86369648Y-99773519D01*
X85996919Y-100146248D01*
X85795200Y-100633241D01*
X85795200Y-101160359D01*
X85996919Y-101647352D01*
X86369648Y-102020081D01*
X86856641Y-102221800D01*
X87383759Y-102221800D01*
X87870752Y-102020081D01*
X88243481Y-101647352D01*
X88357618Y-101371800D01*
X92017400Y-101371800D01*
X91832264Y-101448486D01*
X91526486Y-101754264D01*
X91361000Y-102153782D01*
X91361000Y-102586218D01*
X91526486Y-102985736D01*
X91832264Y-103291514D01*
X92231782Y-103457000D01*
X92664218Y-103457000D01*
X93063736Y-103291514D01*
X93369514Y-102985736D01*
X93535000Y-102586218D01*
X93535000Y-102153782D01*
X93440791Y-101926342D01*
X93624000Y-102109551D01*
X93624001Y-103593222D01*
X93614696Y-103640000D01*
X93651562Y-103825335D01*
X93717655Y-103924250D01*
X93756546Y-103982455D01*
X93796202Y-104008953D01*
X94492047Y-104704798D01*
X94518545Y-104744455D01*
X94675665Y-104849439D01*
X94814221Y-104877000D01*
X94814226Y-104877000D01*
X94861000Y-104886304D01*
X94907774Y-104877000D01*
X97481226Y-104877000D01*
X97528000Y-104886304D01*
X97574774Y-104877000D01*
X97574779Y-104877000D01*
X97713335Y-104849439D01*
X97870455Y-104744455D01*
X97896955Y-104704796D01*
X98181978Y-104419772D01*
X98181978Y-104599187D01*
X98172674Y-104645961D01*
X98181978Y-104692735D01*
X98181978Y-104692739D01*
X98209539Y-104831295D01*
X98314523Y-104988416D01*
X98354182Y-105014916D01*
X98823988Y-105484722D01*
X98823988Y-105661300D01*
X98323250Y-105661300D01*
X98165000Y-105819550D01*
X98165000Y-107915360D01*
X98185000Y-107915360D01*
X98185000Y-108173360D01*
X98165000Y-108173360D01*
X98165000Y-108193360D01*
X97907000Y-108193360D01*
X97907000Y-108173360D01*
X96761150Y-108173360D01*
X96602900Y-108331610D01*
X96602900Y-109920332D01*
X96699269Y-110152986D01*
X96877335Y-110331052D01*
X97072495Y-110411890D01*
X97001588Y-110459268D01*
X96929757Y-110566771D01*
X96904533Y-110693580D01*
X96904533Y-111818640D01*
X94398523Y-111818640D01*
X93847872Y-111267990D01*
X93813000Y-111215800D01*
X93606263Y-111077663D01*
X93423955Y-111041400D01*
X93362400Y-111029156D01*
X93300845Y-111041400D01*
X89393608Y-111041400D01*
X89388529Y-111029139D01*
X89072061Y-110712671D01*
X88658576Y-110541400D01*
X88211024Y-110541400D01*
X87797539Y-110712671D01*
X87481071Y-111029139D01*
X87309800Y-111442624D01*
X87309800Y-111890176D01*
X87481071Y-112303661D01*
X87797539Y-112620129D01*
X88192191Y-112783599D01*
X88079718Y-112789130D01*
X87683720Y-112953158D01*
X87609308Y-113198474D01*
X88434800Y-114023966D01*
X89260292Y-113198474D01*
X89185880Y-112953158D01*
X88693404Y-112776974D01*
X89072061Y-112620129D01*
X89388529Y-112303661D01*
X89393608Y-112291400D01*
X93103517Y-112291400D01*
X93654171Y-112842055D01*
X93689040Y-112894240D01*
X93895777Y-113032377D01*
X94078085Y-113068640D01*
X94139639Y-113080884D01*
X94201193Y-113068640D01*
X96904533Y-113068640D01*
X96904533Y-114193700D01*
X96929757Y-114320509D01*
X97001588Y-114428012D01*
X97109091Y-114499843D01*
X97235900Y-114525067D01*
X97411001Y-114525067D01*
X97411000Y-115272953D01*
X97342093Y-115301495D01*
X96997495Y-115646093D01*
X96939061Y-115787164D01*
X96832031Y-115528770D01*
X96576351Y-115442083D01*
X95678434Y-116340000D01*
X95692576Y-116354142D01*
X95510142Y-116536576D01*
X95496000Y-116522434D01*
X95481858Y-116536576D01*
X95299424Y-116354142D01*
X95313566Y-116340000D01*
X94415649Y-115442083D01*
X94159969Y-115528770D01*
X93951224Y-116101798D01*
X93977657Y-116711090D01*
X94159969Y-117151230D01*
X94415647Y-117237916D01*
X94301282Y-117352281D01*
X94346990Y-117397989D01*
X94237435Y-117443368D01*
X94059369Y-117621434D01*
X93963000Y-117854088D01*
X93963000Y-118592750D01*
X94121250Y-118751000D01*
X95367000Y-118751000D01*
X95367000Y-118731000D01*
X95625000Y-118731000D01*
X95625000Y-118751000D01*
X95645000Y-118751000D01*
X95645000Y-119009000D01*
X95625000Y-119009000D01*
X95625000Y-120254750D01*
X95783250Y-120413000D01*
X96521911Y-120413000D01*
X96754565Y-120316632D01*
X96932631Y-120138566D01*
X97029000Y-119905912D01*
X97029000Y-119605412D01*
X97342093Y-119918505D01*
X97792332Y-120105000D01*
X98279668Y-120105000D01*
X98729907Y-119918505D01*
X99074505Y-119573907D01*
X99261000Y-119123668D01*
X99261000Y-118636332D01*
X99351000Y-118636332D01*
X99351000Y-119123668D01*
X99537495Y-119573907D01*
X99882093Y-119918505D01*
X100332332Y-120105000D01*
X100819668Y-120105000D01*
X101269907Y-119918505D01*
X101614505Y-119573907D01*
X101801000Y-119123668D01*
X101801000Y-118636332D01*
X101614505Y-118186093D01*
X101269907Y-117841495D01*
X100819668Y-117655000D01*
X100332332Y-117655000D01*
X99882093Y-117841495D01*
X99537495Y-118186093D01*
X99351000Y-118636332D01*
X99261000Y-118636332D01*
X99074505Y-118186093D01*
X98729907Y-117841495D01*
X98661000Y-117812953D01*
X98661000Y-117407047D01*
X98729907Y-117378505D01*
X99074505Y-117033907D01*
X99261000Y-116583668D01*
X99261000Y-116096332D01*
X99074505Y-115646093D01*
X98729907Y-115301495D01*
X98661000Y-115272953D01*
X98661000Y-114525067D01*
X98823987Y-114525067D01*
X98823987Y-115016213D01*
X98814683Y-115062987D01*
X98823987Y-115109761D01*
X98823987Y-115109765D01*
X98851548Y-115248321D01*
X98956532Y-115405442D01*
X98996191Y-115431942D01*
X99441674Y-115877425D01*
X99351000Y-116096332D01*
X99351000Y-116583668D01*
X99537495Y-117033907D01*
X99882093Y-117378505D01*
X100332332Y-117565000D01*
X100819668Y-117565000D01*
X101269907Y-117378505D01*
X101614505Y-117033907D01*
X101801000Y-116583668D01*
X101801000Y-116096332D01*
X101614505Y-115646093D01*
X101269907Y-115301495D01*
X100819668Y-115115000D01*
X100332332Y-115115000D01*
X100113425Y-115205674D01*
X99773987Y-114866237D01*
X99773987Y-113669737D01*
X101981674Y-115877426D01*
X101891000Y-116096332D01*
X101891000Y-116583668D01*
X102077495Y-117033907D01*
X102422093Y-117378505D01*
X102872332Y-117565000D01*
X103359668Y-117565000D01*
X103809907Y-117378505D01*
X103891001Y-117297411D01*
X103891001Y-117433247D01*
X103578575Y-117745674D01*
X103359668Y-117655000D01*
X102872332Y-117655000D01*
X102422093Y-117841495D01*
X102077495Y-118186093D01*
X101891000Y-118636332D01*
X101891000Y-119123668D01*
X102077495Y-119573907D01*
X102422093Y-119918505D01*
X102872332Y-120105000D01*
X103359668Y-120105000D01*
X103809907Y-119918505D01*
X104154505Y-119573907D01*
X104341000Y-119123668D01*
X104341000Y-118636332D01*
X104250326Y-118417425D01*
X104668803Y-117998949D01*
X104708456Y-117972454D01*
X104734952Y-117932800D01*
X104734954Y-117932798D01*
X104813439Y-117815335D01*
X104813440Y-117815334D01*
X104841001Y-117676778D01*
X104841001Y-117676774D01*
X104850305Y-117630000D01*
X104841001Y-117583226D01*
X104841001Y-117257413D01*
X104962093Y-117378505D01*
X105412332Y-117565000D01*
X105899668Y-117565000D01*
X106349907Y-117378505D01*
X106431001Y-117297411D01*
X106431001Y-117433247D01*
X106118575Y-117745674D01*
X105899668Y-117655000D01*
X105412332Y-117655000D01*
X104962093Y-117841495D01*
X104617495Y-118186093D01*
X104431000Y-118636332D01*
X104431000Y-119123668D01*
X104617495Y-119573907D01*
X104962093Y-119918505D01*
X105412332Y-120105000D01*
X105899668Y-120105000D01*
X106349907Y-119918505D01*
X106694505Y-119573907D01*
X106801000Y-119316805D01*
X106801000Y-123327000D01*
X92976283Y-123327000D01*
X91479958Y-122828225D01*
X89460202Y-121818347D01*
X87628623Y-120719400D01*
X88147550Y-120719400D01*
X88305800Y-120561150D01*
X88305800Y-119415400D01*
X88563800Y-119415400D01*
X88563800Y-120561150D01*
X88722050Y-120719400D01*
X89360712Y-120719400D01*
X89593366Y-120623031D01*
X89771432Y-120444965D01*
X89867800Y-120212311D01*
X89867800Y-119573650D01*
X89709550Y-119415400D01*
X88563800Y-119415400D01*
X88305800Y-119415400D01*
X87160050Y-119415400D01*
X87001800Y-119573650D01*
X87001800Y-120212311D01*
X87074004Y-120386629D01*
X86937505Y-120304729D01*
X85969000Y-119336224D01*
X85969000Y-119167250D01*
X93963000Y-119167250D01*
X93963000Y-119905912D01*
X94059369Y-120138566D01*
X94237435Y-120316632D01*
X94470089Y-120413000D01*
X95208750Y-120413000D01*
X95367000Y-120254750D01*
X95367000Y-119009000D01*
X94121250Y-119009000D01*
X93963000Y-119167250D01*
X85969000Y-119167250D01*
X85969000Y-118360489D01*
X87001800Y-118360489D01*
X87001800Y-118999150D01*
X87160050Y-119157400D01*
X88305800Y-119157400D01*
X88305800Y-119137400D01*
X88563800Y-119137400D01*
X88563800Y-119157400D01*
X89709550Y-119157400D01*
X89867800Y-118999150D01*
X89867800Y-118360489D01*
X89771432Y-118127835D01*
X89593366Y-117949769D01*
X89360712Y-117853400D01*
X88722050Y-117853400D01*
X88563802Y-118011648D01*
X88563802Y-117871400D01*
X88658576Y-117871400D01*
X89072061Y-117700129D01*
X89388529Y-117383661D01*
X89559800Y-116970176D01*
X89559800Y-116522624D01*
X89388529Y-116109139D01*
X89072061Y-115792671D01*
X88677409Y-115629201D01*
X88789882Y-115623670D01*
X89185880Y-115459642D01*
X89246544Y-115259649D01*
X94598083Y-115259649D01*
X95496000Y-116157566D01*
X96393917Y-115259649D01*
X96307230Y-115003969D01*
X95734202Y-114795224D01*
X95124910Y-114821657D01*
X94684770Y-115003969D01*
X94598083Y-115259649D01*
X89246544Y-115259649D01*
X89260292Y-115214326D01*
X88434800Y-114388834D01*
X87609308Y-115214326D01*
X87683720Y-115459642D01*
X88176196Y-115635826D01*
X87797539Y-115792671D01*
X87481071Y-116109139D01*
X87309800Y-116522624D01*
X87309800Y-116970176D01*
X87481071Y-117383661D01*
X87797539Y-117700129D01*
X88211024Y-117871400D01*
X88305798Y-117871400D01*
X88305798Y-118011648D01*
X88147550Y-117853400D01*
X87508888Y-117853400D01*
X87276234Y-117949769D01*
X87098168Y-118127835D01*
X87001800Y-118360489D01*
X85969000Y-118360489D01*
X85969000Y-113992087D01*
X86989529Y-113992087D01*
X87017530Y-114561482D01*
X87181558Y-114957480D01*
X87426874Y-115031892D01*
X88252366Y-114206400D01*
X88617234Y-114206400D01*
X89442726Y-115031892D01*
X89688042Y-114957480D01*
X89880071Y-114420713D01*
X89852070Y-113851318D01*
X89688042Y-113455320D01*
X89442726Y-113380908D01*
X88617234Y-114206400D01*
X88252366Y-114206400D01*
X87426874Y-113380908D01*
X87181558Y-113455320D01*
X86989529Y-113992087D01*
X85969000Y-113992087D01*
X85969000Y-109228000D01*
X85959485Y-109180165D01*
X85932388Y-109139612D01*
X85424388Y-108631612D01*
X85383835Y-108604515D01*
X85336000Y-108595000D01*
X81323776Y-108595000D01*
X80889000Y-108160224D01*
X80889000Y-91229610D01*
X91650043Y-91229610D01*
X92448000Y-92027566D01*
X93245957Y-91229610D01*
X93176216Y-90988229D01*
X92653232Y-90802555D01*
X92099004Y-90831151D01*
X91719784Y-90988229D01*
X91650043Y-91229610D01*
X80889000Y-91229610D01*
X80889000Y-90568733D01*
X86143701Y-90568733D01*
X86242647Y-90834782D01*
X86851920Y-91060236D01*
X87501091Y-91035369D01*
X87985353Y-90834782D01*
X88084299Y-90568733D01*
X87114000Y-89598434D01*
X86143701Y-90568733D01*
X80889000Y-90568733D01*
X80889000Y-89153920D01*
X85469764Y-89153920D01*
X85494631Y-89803091D01*
X85695218Y-90287353D01*
X85961267Y-90386299D01*
X86931566Y-89416000D01*
X87296434Y-89416000D01*
X88266733Y-90386299D01*
X88532782Y-90287353D01*
X88758236Y-89678080D01*
X88733369Y-89028909D01*
X88532782Y-88544647D01*
X88266733Y-88445701D01*
X87296434Y-89416000D01*
X86931566Y-89416000D01*
X85961267Y-88445701D01*
X85695218Y-88544647D01*
X85469764Y-89153920D01*
X80889000Y-89153920D01*
X80889000Y-88445500D01*
X85272191Y-88445500D01*
X85272191Y-88263267D01*
X86143701Y-88263267D01*
X87114000Y-89233566D01*
X88084299Y-88263267D01*
X87985353Y-87997218D01*
X87376080Y-87771764D01*
X86726909Y-87796631D01*
X86242647Y-87997218D01*
X86143701Y-88263267D01*
X85272191Y-88263267D01*
X85272191Y-87001000D01*
X85336000Y-87001000D01*
X85383835Y-86991485D01*
X85424388Y-86964388D01*
X85932388Y-86456388D01*
X85959485Y-86415835D01*
X85969000Y-86368000D01*
X85969000Y-83076332D01*
X86143000Y-83076332D01*
X86143000Y-83563668D01*
X86329495Y-84013907D01*
X86674093Y-84358505D01*
X87124332Y-84545000D01*
X87611668Y-84545000D01*
X88061907Y-84358505D01*
X88406505Y-84013907D01*
X88593000Y-83563668D01*
X88593000Y-83076332D01*
X88683000Y-83076332D01*
X88683000Y-83563668D01*
X88869495Y-84013907D01*
X89214093Y-84358505D01*
X89664332Y-84545000D01*
X90151668Y-84545000D01*
X90601907Y-84358505D01*
X90946505Y-84013907D01*
X91133000Y-83563668D01*
X91133000Y-83076332D01*
X90946505Y-82626093D01*
X90740412Y-82420000D01*
X91216633Y-82420000D01*
X91216633Y-84220000D01*
X91241857Y-84346809D01*
X91313688Y-84454312D01*
X91421191Y-84526143D01*
X91548000Y-84551367D01*
X93348000Y-84551367D01*
X93474809Y-84526143D01*
X93582312Y-84454312D01*
X93654143Y-84346809D01*
X93679367Y-84220000D01*
X93679367Y-83607250D01*
X93963000Y-83607250D01*
X93963000Y-84345912D01*
X94059369Y-84578566D01*
X94237435Y-84756632D01*
X94470089Y-84853000D01*
X95208750Y-84853000D01*
X95367000Y-84694750D01*
X95367000Y-83449000D01*
X94121250Y-83449000D01*
X93963000Y-83607250D01*
X93679367Y-83607250D01*
X93679367Y-82420000D01*
X93654143Y-82293191D01*
X93582312Y-82185688D01*
X93474809Y-82113857D01*
X93348000Y-82088633D01*
X91548000Y-82088633D01*
X91421191Y-82113857D01*
X91313688Y-82185688D01*
X91241857Y-82293191D01*
X91216633Y-82420000D01*
X90740412Y-82420000D01*
X90601907Y-82281495D01*
X90151668Y-82095000D01*
X89664332Y-82095000D01*
X89214093Y-82281495D01*
X88869495Y-82626093D01*
X88683000Y-83076332D01*
X88593000Y-83076332D01*
X88406505Y-82626093D01*
X88061907Y-82281495D01*
X87920836Y-82223061D01*
X88179230Y-82116031D01*
X88265917Y-81860351D01*
X87368000Y-80962434D01*
X86470083Y-81860351D01*
X86556770Y-82116031D01*
X86831737Y-82216197D01*
X86674093Y-82281495D01*
X86329495Y-82626093D01*
X86143000Y-83076332D01*
X85969000Y-83076332D01*
X85969000Y-81439209D01*
X86031969Y-81591230D01*
X86287649Y-81677917D01*
X87185566Y-80780000D01*
X87550434Y-80780000D01*
X88448351Y-81677917D01*
X88704031Y-81591230D01*
X88804197Y-81316263D01*
X88869495Y-81473907D01*
X89214093Y-81818505D01*
X89664332Y-82005000D01*
X90151668Y-82005000D01*
X90601907Y-81818505D01*
X90946505Y-81473907D01*
X91133000Y-81023668D01*
X91133000Y-80536332D01*
X91223000Y-80536332D01*
X91223000Y-81023668D01*
X91409495Y-81473907D01*
X91754093Y-81818505D01*
X92204332Y-82005000D01*
X92691668Y-82005000D01*
X93141907Y-81818505D01*
X93486505Y-81473907D01*
X93673000Y-81023668D01*
X93673000Y-80536332D01*
X93486505Y-80086093D01*
X93141907Y-79741495D01*
X93040882Y-79699649D01*
X94598083Y-79699649D01*
X95496000Y-80597566D01*
X96393917Y-79699649D01*
X96307230Y-79443969D01*
X95734202Y-79235224D01*
X95124910Y-79261657D01*
X94684770Y-79443969D01*
X94598083Y-79699649D01*
X93040882Y-79699649D01*
X92691668Y-79555000D01*
X92204332Y-79555000D01*
X91754093Y-79741495D01*
X91409495Y-80086093D01*
X91223000Y-80536332D01*
X91133000Y-80536332D01*
X90946505Y-80086093D01*
X90601907Y-79741495D01*
X90151668Y-79555000D01*
X89664332Y-79555000D01*
X89214093Y-79741495D01*
X88869495Y-80086093D01*
X88811061Y-80227164D01*
X88704031Y-79968770D01*
X88448351Y-79882083D01*
X87550434Y-80780000D01*
X87185566Y-80780000D01*
X87171424Y-80765858D01*
X87353858Y-80583424D01*
X87368000Y-80597566D01*
X88265917Y-79699649D01*
X88179230Y-79443969D01*
X87606202Y-79235224D01*
X87418801Y-79243354D01*
X89201902Y-78351803D01*
X89208017Y-78348530D01*
X90977294Y-77337514D01*
X92978666Y-76587000D01*
X106801000Y-76587000D01*
X106801000Y-80343195D01*
X106801000Y-80343195D01*
G37*
X106801000Y-80343195D02*
X106694505Y-80086093D01*
X106349907Y-79741495D01*
X105899668Y-79555000D01*
X105412332Y-79555000D01*
X104962093Y-79741495D01*
X104617495Y-80086093D01*
X104431000Y-80536332D01*
X104431000Y-81023668D01*
X104521674Y-81242575D01*
X104083206Y-81681043D01*
X104043547Y-81707543D01*
X103938563Y-81864664D01*
X103911002Y-82003220D01*
X103911002Y-82003224D01*
X103901698Y-82049998D01*
X103911002Y-82096772D01*
X103911002Y-82382590D01*
X103809907Y-82281495D01*
X103359668Y-82095000D01*
X102872332Y-82095000D01*
X102422093Y-82281495D01*
X102077495Y-82626093D01*
X101891000Y-83076332D01*
X101891000Y-83563668D01*
X102077495Y-84013907D01*
X102422093Y-84358505D01*
X102872332Y-84545000D01*
X103359668Y-84545000D01*
X103809907Y-84358505D01*
X103911003Y-84257409D01*
X103911003Y-85387616D01*
X103856153Y-85442466D01*
X103761002Y-85672180D01*
X103761002Y-85920820D01*
X103856153Y-86150534D01*
X104031968Y-86326349D01*
X104261682Y-86421500D01*
X104510322Y-86421500D01*
X104740036Y-86326349D01*
X104915851Y-86150534D01*
X105011002Y-85920820D01*
X105011002Y-85672180D01*
X104915851Y-85442466D01*
X104861002Y-85387617D01*
X104861002Y-84257414D01*
X104962093Y-84358505D01*
X105412332Y-84545000D01*
X105899668Y-84545000D01*
X106349907Y-84358505D01*
X106694505Y-84013907D01*
X106801000Y-83756805D01*
X106801000Y-92904303D01*
X106649565Y-92752868D01*
X106416911Y-92656500D01*
X106322250Y-92656500D01*
X106164000Y-92814750D01*
X106164000Y-93732000D01*
X106186000Y-93732000D01*
X106186000Y-93990000D01*
X106164000Y-93990000D01*
X106164000Y-94907250D01*
X106322250Y-95065500D01*
X106416911Y-95065500D01*
X106649565Y-94969132D01*
X106801000Y-94817697D01*
X106801000Y-96810749D01*
X104754117Y-94763867D01*
X105021000Y-94763867D01*
X105147809Y-94738643D01*
X105207996Y-94698427D01*
X105246369Y-94791066D01*
X105424435Y-94969132D01*
X105657089Y-95065500D01*
X105751750Y-95065500D01*
X105910000Y-94907250D01*
X105910000Y-93990000D01*
X105888000Y-93990000D01*
X105888000Y-93732000D01*
X105910000Y-93732000D01*
X105910000Y-92814750D01*
X105751750Y-92656500D01*
X105657089Y-92656500D01*
X105424435Y-92752868D01*
X105246369Y-92930934D01*
X105242000Y-92941482D01*
X105242000Y-91144367D01*
X105338500Y-91144367D01*
X105465309Y-91119143D01*
X105572812Y-91047312D01*
X105644643Y-90939809D01*
X105669867Y-90813000D01*
X105669867Y-89924000D01*
X105644643Y-89797191D01*
X105572812Y-89689688D01*
X105465309Y-89617857D01*
X105338500Y-89592633D01*
X103941500Y-89592633D01*
X103814691Y-89617857D01*
X103707188Y-89689688D01*
X103635357Y-89797191D01*
X103610133Y-89924000D01*
X103610133Y-90813000D01*
X103635357Y-90939809D01*
X103707188Y-91047312D01*
X103814691Y-91119143D01*
X103941500Y-91144367D01*
X104292001Y-91144367D01*
X104292000Y-93046293D01*
X104278688Y-93055188D01*
X104206857Y-93162691D01*
X104181633Y-93289500D01*
X104181633Y-94191383D01*
X104082367Y-94092117D01*
X104082367Y-93289500D01*
X104057143Y-93162691D01*
X103985312Y-93055188D01*
X103877809Y-92983357D01*
X103751000Y-92958133D01*
X103379125Y-92958133D01*
X103378041Y-92952682D01*
X103378041Y-91977014D01*
X103387345Y-91930240D01*
X103378041Y-91883466D01*
X103378041Y-91883462D01*
X103350480Y-91744906D01*
X103318120Y-91696475D01*
X103271994Y-91627442D01*
X103271992Y-91627440D01*
X103245496Y-91587786D01*
X103205842Y-91561290D01*
X102788918Y-91144367D01*
X102798500Y-91144367D01*
X102925309Y-91119143D01*
X103032812Y-91047312D01*
X103104643Y-90939809D01*
X103129867Y-90813000D01*
X103129867Y-89924000D01*
X103104643Y-89797191D01*
X103032812Y-89689688D01*
X102925309Y-89617857D01*
X102798500Y-89592633D01*
X101401500Y-89592633D01*
X101274691Y-89617857D01*
X101167188Y-89689688D01*
X101095357Y-89797191D01*
X101070133Y-89924000D01*
X101070133Y-89985248D01*
X101013512Y-89900508D01*
X100906009Y-89828677D01*
X100779200Y-89803453D01*
X99864800Y-89803453D01*
X99737991Y-89828677D01*
X99630488Y-89900508D01*
X99573867Y-89985248D01*
X99573867Y-89924000D01*
X99548643Y-89797191D01*
X99476812Y-89689688D01*
X99369309Y-89617857D01*
X99242500Y-89592633D01*
X98312884Y-89592633D01*
X97959618Y-89239367D01*
X99242500Y-89239367D01*
X99369309Y-89214143D01*
X99476812Y-89142312D01*
X99512768Y-89088500D01*
X100036925Y-89088500D01*
X100098480Y-89100744D01*
X100160035Y-89088500D01*
X100322000Y-89056283D01*
X100408571Y-89073503D01*
X100545519Y-89100744D01*
X100607074Y-89088500D01*
X101131232Y-89088500D01*
X101167188Y-89142312D01*
X101274691Y-89214143D01*
X101401500Y-89239367D01*
X102798500Y-89239367D01*
X102925309Y-89214143D01*
X103032812Y-89142312D01*
X103068768Y-89088500D01*
X103671232Y-89088500D01*
X103707188Y-89142312D01*
X103814691Y-89214143D01*
X103941500Y-89239367D01*
X105338500Y-89239367D01*
X105465309Y-89214143D01*
X105572812Y-89142312D01*
X105644643Y-89034809D01*
X105669867Y-88908000D01*
X105669867Y-88019000D01*
X105644643Y-87892191D01*
X105572812Y-87784688D01*
X105465309Y-87712857D01*
X105338500Y-87687633D01*
X105298966Y-87687633D01*
X105365000Y-87528212D01*
X105365000Y-87239788D01*
X105254626Y-86973320D01*
X105050680Y-86769374D01*
X104784212Y-86659000D01*
X104495788Y-86659000D01*
X104229320Y-86769374D01*
X104025374Y-86973320D01*
X103915000Y-87239788D01*
X103915000Y-87528212D01*
X103981034Y-87687633D01*
X103941500Y-87687633D01*
X103814691Y-87712857D01*
X103707188Y-87784688D01*
X103671232Y-87838500D01*
X103068768Y-87838500D01*
X103032812Y-87784688D01*
X102925309Y-87712857D01*
X102798500Y-87687633D01*
X101401500Y-87687633D01*
X101274691Y-87712857D01*
X101167188Y-87784688D01*
X101131232Y-87838500D01*
X101110567Y-87838500D01*
X101110567Y-87782780D01*
X101085343Y-87655971D01*
X101013512Y-87548468D01*
X100906009Y-87476637D01*
X100779200Y-87451413D01*
X99864800Y-87451413D01*
X99737991Y-87476637D01*
X99630488Y-87548468D01*
X99558657Y-87655971D01*
X99533433Y-87782780D01*
X99533433Y-87838500D01*
X99512768Y-87838500D01*
X99476812Y-87784688D01*
X99369309Y-87712857D01*
X99242500Y-87687633D01*
X99178486Y-87687633D01*
X99169000Y-87639945D01*
X99132737Y-87457637D01*
X98994600Y-87250900D01*
X98942415Y-87216031D01*
X97861627Y-86135244D01*
X97761626Y-85893820D01*
X97557680Y-85689874D01*
X97291212Y-85579500D01*
X97168383Y-85579500D01*
X98202884Y-84545000D01*
X98279668Y-84545000D01*
X98729907Y-84358505D01*
X99074505Y-84013907D01*
X99261000Y-83563668D01*
X99261000Y-83076332D01*
X99351000Y-83076332D01*
X99351000Y-83563668D01*
X99537495Y-84013907D01*
X99882093Y-84358505D01*
X100332332Y-84545000D01*
X100819668Y-84545000D01*
X101269907Y-84358505D01*
X101614505Y-84013907D01*
X101801000Y-83563668D01*
X101801000Y-83076332D01*
X101614505Y-82626093D01*
X101269907Y-82281495D01*
X100819668Y-82095000D01*
X100332332Y-82095000D01*
X99882093Y-82281495D01*
X99537495Y-82626093D01*
X99351000Y-83076332D01*
X99261000Y-83076332D01*
X99074505Y-82626093D01*
X98729907Y-82281495D01*
X98661000Y-82252953D01*
X98661000Y-81847047D01*
X98729907Y-81818505D01*
X99074505Y-81473907D01*
X99261000Y-81023668D01*
X99261000Y-80536332D01*
X99351000Y-80536332D01*
X99351000Y-81023668D01*
X99537495Y-81473907D01*
X99882093Y-81818505D01*
X100332332Y-82005000D01*
X100819668Y-82005000D01*
X101269907Y-81818505D01*
X101614505Y-81473907D01*
X101801000Y-81023668D01*
X101801000Y-80536332D01*
X101891000Y-80536332D01*
X101891000Y-81023668D01*
X102077495Y-81473907D01*
X102422093Y-81818505D01*
X102872332Y-82005000D01*
X103359668Y-82005000D01*
X103809907Y-81818505D01*
X104154505Y-81473907D01*
X104341000Y-81023668D01*
X104341000Y-80536332D01*
X104154505Y-80086093D01*
X103809907Y-79741495D01*
X103359668Y-79555000D01*
X102872332Y-79555000D01*
X102422093Y-79741495D01*
X102077495Y-80086093D01*
X101891000Y-80536332D01*
X101801000Y-80536332D01*
X101614505Y-80086093D01*
X101269907Y-79741495D01*
X100819668Y-79555000D01*
X100332332Y-79555000D01*
X99882093Y-79741495D01*
X99537495Y-80086093D01*
X99351000Y-80536332D01*
X99261000Y-80536332D01*
X99074505Y-80086093D01*
X98729907Y-79741495D01*
X98279668Y-79555000D01*
X97792332Y-79555000D01*
X97342093Y-79741495D01*
X96997495Y-80086093D01*
X96939061Y-80227164D01*
X96832031Y-79968770D01*
X96576351Y-79882083D01*
X95678434Y-80780000D01*
X95692576Y-80794142D01*
X95510142Y-80976576D01*
X95496000Y-80962434D01*
X95481858Y-80976576D01*
X95299424Y-80794142D01*
X95313566Y-80780000D01*
X94415649Y-79882083D01*
X94159969Y-79968770D01*
X93951224Y-80541798D01*
X93977657Y-81151090D01*
X94159969Y-81591230D01*
X94415647Y-81677916D01*
X94301282Y-81792281D01*
X94346990Y-81837989D01*
X94237435Y-81883368D01*
X94059369Y-82061434D01*
X93963000Y-82294088D01*
X93963000Y-83032750D01*
X94121250Y-83191000D01*
X95367000Y-83191000D01*
X95367000Y-83171000D01*
X95625000Y-83171000D01*
X95625000Y-83191000D01*
X95645000Y-83191000D01*
X95645000Y-83449000D01*
X95625000Y-83449000D01*
X95625000Y-84694750D01*
X95783250Y-84853000D01*
X96127117Y-84853000D01*
X94081588Y-86898530D01*
X94029401Y-86933400D01*
X93941966Y-87064256D01*
X93891263Y-87140138D01*
X93842756Y-87384000D01*
X93855001Y-87445560D01*
X93855000Y-92205117D01*
X93845114Y-92215003D01*
X93826849Y-91861004D01*
X93669771Y-91481784D01*
X93428390Y-91412043D01*
X92630434Y-92210000D01*
X92644576Y-92224142D01*
X92462142Y-92406576D01*
X92448000Y-92392434D01*
X92433858Y-92406576D01*
X92251424Y-92224142D01*
X92265566Y-92210000D01*
X91467610Y-91412043D01*
X91226229Y-91481784D01*
X91040555Y-92004768D01*
X91069151Y-92558996D01*
X91226229Y-92938216D01*
X91467607Y-93007956D01*
X91366563Y-93109000D01*
X89912883Y-93109000D01*
X89631472Y-92827590D01*
X89596600Y-92775400D01*
X89389863Y-92637263D01*
X89207555Y-92601000D01*
X89146000Y-92588756D01*
X89084445Y-92601000D01*
X85143553Y-92601000D01*
X85081999Y-92588756D01*
X85020445Y-92601000D01*
X84838137Y-92637263D01*
X84631400Y-92775400D01*
X84596531Y-92827585D01*
X83286588Y-94137530D01*
X83234401Y-94172400D01*
X83143503Y-94308439D01*
X83096263Y-94379138D01*
X83047756Y-94623000D01*
X83060001Y-94684560D01*
X83060000Y-103578445D01*
X83047756Y-103640000D01*
X83082323Y-103813779D01*
X83096263Y-103883862D01*
X83234400Y-104090600D01*
X83286590Y-104125472D01*
X85789000Y-106627883D01*
X85789000Y-106900759D01*
X85990719Y-107387752D01*
X86363448Y-107760481D01*
X86850441Y-107962200D01*
X87377559Y-107962200D01*
X87864552Y-107760481D01*
X88237281Y-107387752D01*
X88439000Y-106900759D01*
X88439000Y-106373641D01*
X88353982Y-106168388D01*
X96602900Y-106168388D01*
X96602900Y-107757110D01*
X96761150Y-107915360D01*
X97907000Y-107915360D01*
X97907000Y-105819550D01*
X97748750Y-105661300D01*
X97109989Y-105661300D01*
X96877335Y-105757668D01*
X96699269Y-105935734D01*
X96602900Y-106168388D01*
X88353982Y-106168388D01*
X88237281Y-105886648D01*
X87864552Y-105513919D01*
X87377559Y-105312200D01*
X86850441Y-105312200D01*
X86419560Y-105490677D01*
X84310000Y-103381118D01*
X84310000Y-94881882D01*
X85340884Y-93851000D01*
X86803122Y-93851000D01*
X86363448Y-94033119D01*
X85990719Y-94405848D01*
X85789000Y-94892841D01*
X85789000Y-95419959D01*
X85990719Y-95906952D01*
X86363448Y-96279681D01*
X86850441Y-96481400D01*
X87377559Y-96481400D01*
X87864552Y-96279681D01*
X88237281Y-95906952D01*
X88309334Y-95733000D01*
X94156250Y-95733000D01*
X95783000Y-97359751D01*
X95783001Y-97751222D01*
X95773696Y-97798000D01*
X95783001Y-97844779D01*
X95810562Y-97983335D01*
X95915546Y-98140455D01*
X95955202Y-98166953D01*
X96324907Y-98536658D01*
X96307633Y-98623500D01*
X96307633Y-99766500D01*
X96332857Y-99893309D01*
X96404688Y-100000812D01*
X96512191Y-100072643D01*
X96639000Y-100097867D01*
X97147000Y-100097867D01*
X97273809Y-100072643D01*
X97381312Y-100000812D01*
X97453143Y-99893309D01*
X97478367Y-99766500D01*
X97478367Y-98623500D01*
X97472389Y-98593448D01*
X97504305Y-98433000D01*
X97467439Y-98247665D01*
X97362455Y-98090545D01*
X97205335Y-97985561D01*
X97095455Y-97963704D01*
X96733000Y-97601250D01*
X96733000Y-97209774D01*
X96742304Y-97163000D01*
X96733000Y-97116226D01*
X96733000Y-97116221D01*
X96705439Y-96977665D01*
X96600455Y-96820545D01*
X96560799Y-96794048D01*
X94721955Y-94955205D01*
X94695455Y-94915545D01*
X94538335Y-94810561D01*
X94399779Y-94783000D01*
X94399774Y-94783000D01*
X94353000Y-94773696D01*
X94306226Y-94783000D01*
X88393502Y-94783000D01*
X88237281Y-94405848D01*
X87864552Y-94033119D01*
X87424878Y-93851000D01*
X88887117Y-93851000D01*
X89168531Y-94132415D01*
X89203400Y-94184600D01*
X89410137Y-94322737D01*
X89592445Y-94359000D01*
X89653999Y-94371244D01*
X89715553Y-94359000D01*
X93148445Y-94359000D01*
X93210000Y-94371244D01*
X93271555Y-94359000D01*
X93453863Y-94322737D01*
X93660600Y-94184600D01*
X93695472Y-94132410D01*
X94878413Y-92949470D01*
X94930600Y-92914600D01*
X95068737Y-92707863D01*
X95105000Y-92525555D01*
X95105000Y-92525554D01*
X95117244Y-92464001D01*
X95105000Y-92402447D01*
X95105000Y-90655750D01*
X95180500Y-90655750D01*
X95180500Y-90938911D01*
X95276868Y-91171565D01*
X95454934Y-91349631D01*
X95687588Y-91446000D01*
X96224750Y-91446000D01*
X96383000Y-91287750D01*
X96383000Y-90497500D01*
X95338750Y-90497500D01*
X95180500Y-90655750D01*
X95105000Y-90655750D01*
X95105000Y-89798089D01*
X95180500Y-89798089D01*
X95180500Y-90081250D01*
X95338750Y-90239500D01*
X96383000Y-90239500D01*
X96383000Y-89449250D01*
X96224750Y-89291000D01*
X95687588Y-89291000D01*
X95454934Y-89387369D01*
X95276868Y-89565435D01*
X95180500Y-89798089D01*
X95105000Y-89798089D01*
X95105000Y-87642882D01*
X96422000Y-86325883D01*
X96422000Y-86448712D01*
X96532374Y-86715180D01*
X96736320Y-86919126D01*
X96977744Y-87019127D01*
X97690386Y-87731770D01*
X97611188Y-87784688D01*
X97539357Y-87892191D01*
X97528000Y-87949286D01*
X97516643Y-87892191D01*
X97444812Y-87784688D01*
X97337309Y-87712857D01*
X97210500Y-87687633D01*
X95813500Y-87687633D01*
X95686691Y-87712857D01*
X95579188Y-87784688D01*
X95507357Y-87892191D01*
X95482133Y-88019000D01*
X95482133Y-88908000D01*
X95507357Y-89034809D01*
X95579188Y-89142312D01*
X95686691Y-89214143D01*
X95813500Y-89239367D01*
X96616117Y-89239367D01*
X96733500Y-89356750D01*
X96641000Y-89449250D01*
X96641000Y-90239500D01*
X96661000Y-90239500D01*
X96661000Y-90497500D01*
X96641000Y-90497500D01*
X96641000Y-91287750D01*
X96799250Y-91446000D01*
X97336412Y-91446000D01*
X97569066Y-91349631D01*
X97632387Y-91286310D01*
X97538000Y-91514180D01*
X97538000Y-91712002D01*
X97340180Y-91712002D01*
X97110466Y-91807153D01*
X97055617Y-91862002D01*
X96304772Y-91862002D01*
X96257998Y-91852698D01*
X96211224Y-91862002D01*
X96211219Y-91862002D01*
X96072663Y-91889563D01*
X95915543Y-91994547D01*
X95889045Y-92034204D01*
X95320202Y-92603047D01*
X95280546Y-92629545D01*
X95254048Y-92669202D01*
X95254047Y-92669203D01*
X95175562Y-92786665D01*
X95138696Y-92972000D01*
X95148001Y-93018778D01*
X95148001Y-93046293D01*
X95134688Y-93055188D01*
X95062857Y-93162691D01*
X95037633Y-93289500D01*
X95037633Y-94432500D01*
X95062857Y-94559309D01*
X95134688Y-94666812D01*
X95242191Y-94738643D01*
X95369000Y-94763867D01*
X95868250Y-94763867D01*
X95728151Y-94903966D01*
X95633000Y-95133680D01*
X95633000Y-95382320D01*
X95728151Y-95612034D01*
X95903966Y-95787849D01*
X96133680Y-95883000D01*
X96382320Y-95883000D01*
X96612034Y-95787849D01*
X96666883Y-95733000D01*
X99767226Y-95733000D01*
X99814000Y-95742304D01*
X99860774Y-95733000D01*
X99860779Y-95733000D01*
X99999335Y-95705439D01*
X100156455Y-95600455D01*
X100182955Y-95560796D01*
X101386802Y-94356950D01*
X101426455Y-94330455D01*
X101452951Y-94290801D01*
X101452953Y-94290799D01*
X101507702Y-94208860D01*
X101531439Y-94173335D01*
X101559000Y-94034779D01*
X101559000Y-94034775D01*
X101568304Y-93988001D01*
X101559000Y-93941227D01*
X101559000Y-91400794D01*
X101568304Y-91354020D01*
X101559000Y-91307246D01*
X101559000Y-91307241D01*
X101531439Y-91168685D01*
X101515190Y-91144367D01*
X101619111Y-91144367D01*
X101625000Y-91173974D01*
X101625000Y-91173978D01*
X101652561Y-91312534D01*
X101757545Y-91469655D01*
X101797204Y-91496154D01*
X102428042Y-92126993D01*
X102428041Y-92912241D01*
X102418912Y-92958133D01*
X101973000Y-92958133D01*
X101846191Y-92983357D01*
X101738688Y-93055188D01*
X101666857Y-93162691D01*
X101641633Y-93289500D01*
X101641633Y-94432500D01*
X101666857Y-94559309D01*
X101738688Y-94666812D01*
X101752000Y-94675707D01*
X101752001Y-95621682D01*
X101745966Y-95624182D01*
X101570151Y-95799997D01*
X101475000Y-96029711D01*
X101475000Y-96278351D01*
X101570151Y-96508065D01*
X101745966Y-96683880D01*
X101975680Y-96779031D01*
X102224320Y-96779031D01*
X102454034Y-96683880D01*
X102629849Y-96508065D01*
X102725000Y-96278351D01*
X102725000Y-96029711D01*
X102702000Y-95974184D01*
X102702000Y-95515750D01*
X103022000Y-95835751D01*
X103022000Y-96066778D01*
X103022001Y-96066783D01*
X103022000Y-98380293D01*
X103008688Y-98389188D01*
X102936857Y-98496691D01*
X102911633Y-98623500D01*
X102911633Y-99766500D01*
X102936857Y-99893309D01*
X103008688Y-100000812D01*
X103116191Y-100072643D01*
X103243000Y-100097867D01*
X103751000Y-100097867D01*
X103877809Y-100072643D01*
X103985312Y-100000812D01*
X104057143Y-99893309D01*
X104082367Y-99766500D01*
X104082367Y-98623500D01*
X104057143Y-98496691D01*
X103985312Y-98389188D01*
X103972000Y-98380293D01*
X103972000Y-95685774D01*
X103981304Y-95639000D01*
X103972000Y-95592226D01*
X103972000Y-95592221D01*
X103944439Y-95453665D01*
X103839455Y-95296545D01*
X103799798Y-95270047D01*
X103378041Y-94848291D01*
X103378041Y-94769318D01*
X103379125Y-94763867D01*
X103410617Y-94763867D01*
X106166001Y-97519252D01*
X106166001Y-98292133D01*
X105783000Y-98292133D01*
X105656191Y-98317357D01*
X105548688Y-98389188D01*
X105476857Y-98496691D01*
X105451633Y-98623500D01*
X105451633Y-99766500D01*
X105476857Y-99893309D01*
X105548688Y-100000812D01*
X105562000Y-100009707D01*
X105562001Y-101601747D01*
X103905500Y-103258250D01*
X103781250Y-103134000D01*
X102737000Y-103134000D01*
X102737000Y-103924250D01*
X102776117Y-103963367D01*
X99773987Y-106965499D01*
X99773987Y-105334744D01*
X99783291Y-105287970D01*
X99773987Y-105241196D01*
X99773987Y-105241191D01*
X99746426Y-105102635D01*
X99685170Y-105010959D01*
X99667940Y-104985172D01*
X99660911Y-104974652D01*
X99689860Y-104968894D01*
X99750390Y-104928449D01*
X99817660Y-104900585D01*
X99883155Y-104835090D01*
X99943683Y-104794646D01*
X99984127Y-104734118D01*
X100021606Y-104696639D01*
X100041889Y-104647672D01*
X100103923Y-104554832D01*
X100125707Y-104445315D01*
X100131980Y-104430171D01*
X100131980Y-104413779D01*
X100145988Y-104343355D01*
X100145988Y-104343351D01*
X100160190Y-104271952D01*
X100145988Y-104200553D01*
X100145988Y-103088816D01*
X100883713Y-102351091D01*
X100863000Y-102455220D01*
X100863000Y-102455224D01*
X100853696Y-102501998D01*
X100863000Y-102548772D01*
X100863001Y-103612116D01*
X100808151Y-103666966D01*
X100713000Y-103896680D01*
X100713000Y-104145320D01*
X100808151Y-104375034D01*
X100983966Y-104550849D01*
X101213680Y-104646000D01*
X101462320Y-104646000D01*
X101692034Y-104550849D01*
X101867849Y-104375034D01*
X101963000Y-104145320D01*
X101963000Y-104082500D01*
X102320750Y-104082500D01*
X102479000Y-103924250D01*
X102479000Y-103134000D01*
X102459000Y-103134000D01*
X102459000Y-102876000D01*
X102479000Y-102876000D01*
X102479000Y-102856000D01*
X102737000Y-102856000D01*
X102737000Y-102876000D01*
X103781250Y-102876000D01*
X103939500Y-102717750D01*
X103939500Y-102434589D01*
X103874672Y-102278080D01*
X105069798Y-101082955D01*
X105109455Y-101056457D01*
X105153583Y-100990415D01*
X105214439Y-100899338D01*
X105230793Y-100817119D01*
X105242000Y-100760781D01*
X105242000Y-100760777D01*
X105251304Y-100714002D01*
X105242000Y-100667227D01*
X105242000Y-100009707D01*
X105255312Y-100000812D01*
X105327143Y-99893309D01*
X105352367Y-99766500D01*
X105352367Y-98623500D01*
X105327143Y-98496691D01*
X105255312Y-98389188D01*
X105147809Y-98317357D01*
X105021000Y-98292133D01*
X104513000Y-98292133D01*
X104386191Y-98317357D01*
X104278688Y-98389188D01*
X104206857Y-98496691D01*
X104181633Y-98623500D01*
X104181633Y-99766500D01*
X104206857Y-99893309D01*
X104278688Y-100000812D01*
X104292001Y-100009707D01*
X104292001Y-100517250D01*
X103637867Y-101171385D01*
X103637867Y-100655500D01*
X103612643Y-100528691D01*
X103540812Y-100421188D01*
X103433309Y-100349357D01*
X103306500Y-100324133D01*
X102852000Y-100324133D01*
X102852000Y-99256555D01*
X102864244Y-99195000D01*
X102815737Y-98951137D01*
X102812367Y-98946093D01*
X102812367Y-98623500D01*
X102787143Y-98496691D01*
X102715312Y-98389188D01*
X102607809Y-98317357D01*
X102481000Y-98292133D01*
X101973000Y-98292133D01*
X101846191Y-98317357D01*
X101738688Y-98389188D01*
X101711204Y-98430321D01*
X100166226Y-96885344D01*
X100111126Y-96752320D01*
X99907180Y-96548374D01*
X99640712Y-96438000D01*
X99352288Y-96438000D01*
X99085820Y-96548374D01*
X98881874Y-96752320D01*
X98771500Y-97018788D01*
X98771500Y-97307212D01*
X98881874Y-97573680D01*
X99085820Y-97777626D01*
X99352288Y-97888000D01*
X99401118Y-97888000D01*
X99610934Y-98097816D01*
X99560000Y-98148750D01*
X99560000Y-99066000D01*
X100161750Y-99066000D01*
X100320000Y-98907750D01*
X100320000Y-98806883D01*
X101106529Y-99593412D01*
X101141400Y-99645600D01*
X101289834Y-99744780D01*
X101348137Y-99783737D01*
X101592000Y-99832244D01*
X101602000Y-99830255D01*
X101602001Y-100375000D01*
X101180900Y-100375000D01*
X101109500Y-100360798D01*
X101038100Y-100375000D01*
X101038096Y-100375000D01*
X100826619Y-100417065D01*
X100696935Y-100503718D01*
X100700919Y-100494100D01*
X100700919Y-100245460D01*
X100605768Y-100015746D01*
X100429953Y-99839931D01*
X100320000Y-99794387D01*
X100320000Y-99482250D01*
X100161750Y-99324000D01*
X99560000Y-99324000D01*
X99560000Y-99344000D01*
X99306000Y-99344000D01*
X99306000Y-99324000D01*
X99284000Y-99324000D01*
X99284000Y-99066000D01*
X99306000Y-99066000D01*
X99306000Y-98148750D01*
X99147750Y-97990500D01*
X99053089Y-97990500D01*
X98820435Y-98086868D01*
X98642369Y-98264934D01*
X98603996Y-98357573D01*
X98543809Y-98317357D01*
X98417000Y-98292133D01*
X97909000Y-98292133D01*
X97782191Y-98317357D01*
X97674688Y-98389188D01*
X97602857Y-98496691D01*
X97577633Y-98623500D01*
X97577633Y-99766500D01*
X97602857Y-99893309D01*
X97674688Y-100000812D01*
X97688001Y-100009707D01*
X97688000Y-103570249D01*
X97331250Y-103927000D01*
X97183697Y-103927000D01*
X97239132Y-103871565D01*
X97335500Y-103638911D01*
X97335500Y-103355750D01*
X97177250Y-103197500D01*
X96133000Y-103197500D01*
X96133000Y-103217500D01*
X95875000Y-103217500D01*
X95875000Y-103197500D01*
X94830750Y-103197500D01*
X94672500Y-103355750D01*
X94672500Y-103541750D01*
X94574000Y-103443250D01*
X94574000Y-102498089D01*
X94672500Y-102498089D01*
X94672500Y-102781250D01*
X94830750Y-102939500D01*
X95875000Y-102939500D01*
X95875000Y-102149250D01*
X96133000Y-102149250D01*
X96133000Y-102939500D01*
X97177250Y-102939500D01*
X97335500Y-102781250D01*
X97335500Y-102498089D01*
X97239132Y-102265435D01*
X97061066Y-102087369D01*
X96828412Y-101991000D01*
X96291250Y-101991000D01*
X96133000Y-102149250D01*
X95875000Y-102149250D01*
X95716750Y-101991000D01*
X95179588Y-101991000D01*
X94946934Y-102087369D01*
X94768868Y-102265435D01*
X94672500Y-102498089D01*
X94574000Y-102498089D01*
X94574000Y-101959574D01*
X94583304Y-101912800D01*
X94574000Y-101866026D01*
X94574000Y-101866021D01*
X94546439Y-101727465D01*
X94470691Y-101614100D01*
X94467953Y-101610002D01*
X94441455Y-101570345D01*
X94401799Y-101543848D01*
X93451955Y-100594005D01*
X93425455Y-100554345D01*
X93268335Y-100449361D01*
X93260428Y-100447788D01*
X93755000Y-100447788D01*
X93755000Y-100736212D01*
X93865374Y-101002680D01*
X94069320Y-101206626D01*
X94310744Y-101306627D01*
X94566029Y-101561912D01*
X94600900Y-101614100D01*
X94799870Y-101747047D01*
X94807637Y-101752237D01*
X95042174Y-101798889D01*
X95071188Y-101842312D01*
X95178691Y-101914143D01*
X95305500Y-101939367D01*
X96702500Y-101939367D01*
X96829309Y-101914143D01*
X96936812Y-101842312D01*
X97008643Y-101734809D01*
X97033867Y-101608000D01*
X97033867Y-100719000D01*
X97008643Y-100592191D01*
X96936812Y-100484688D01*
X96829309Y-100412857D01*
X96702500Y-100387633D01*
X96482065Y-100387633D01*
X96479000Y-100372225D01*
X96479000Y-100372221D01*
X96451439Y-100233665D01*
X96346455Y-100076545D01*
X96306798Y-100050047D01*
X96169892Y-99913141D01*
X96183143Y-99893309D01*
X96208367Y-99766500D01*
X96208367Y-98623500D01*
X96183143Y-98496691D01*
X96111312Y-98389188D01*
X96003809Y-98317357D01*
X95877000Y-98292133D01*
X95369000Y-98292133D01*
X95242191Y-98317357D01*
X95134688Y-98389188D01*
X95062857Y-98496691D01*
X95037633Y-98623500D01*
X95037633Y-99766500D01*
X95062857Y-99893309D01*
X95134688Y-100000812D01*
X95148000Y-100009707D01*
X95148000Y-100019726D01*
X95138696Y-100066500D01*
X95148000Y-100113274D01*
X95148000Y-100113278D01*
X95175561Y-100251834D01*
X95270897Y-100394516D01*
X95189630Y-100410681D01*
X95094626Y-100181320D01*
X94890680Y-99977374D01*
X94624212Y-99867000D01*
X94335788Y-99867000D01*
X94069320Y-99977374D01*
X93865374Y-100181320D01*
X93755000Y-100447788D01*
X93260428Y-100447788D01*
X93129779Y-100421800D01*
X93129774Y-100421800D01*
X93083000Y-100412496D01*
X93036226Y-100421800D01*
X88357618Y-100421800D01*
X88243481Y-100146248D01*
X87870752Y-99773519D01*
X87383759Y-99571800D01*
X86856641Y-99571800D01*
X86369648Y-99773519D01*
X85996919Y-100146248D01*
X85795200Y-100633241D01*
X85795200Y-101160359D01*
X85996919Y-101647352D01*
X86369648Y-102020081D01*
X86856641Y-102221800D01*
X87383759Y-102221800D01*
X87870752Y-102020081D01*
X88243481Y-101647352D01*
X88357618Y-101371800D01*
X92017400Y-101371800D01*
X91832264Y-101448486D01*
X91526486Y-101754264D01*
X91361000Y-102153782D01*
X91361000Y-102586218D01*
X91526486Y-102985736D01*
X91832264Y-103291514D01*
X92231782Y-103457000D01*
X92664218Y-103457000D01*
X93063736Y-103291514D01*
X93369514Y-102985736D01*
X93535000Y-102586218D01*
X93535000Y-102153782D01*
X93440791Y-101926342D01*
X93624000Y-102109551D01*
X93624001Y-103593222D01*
X93614696Y-103640000D01*
X93651562Y-103825335D01*
X93717655Y-103924250D01*
X93756546Y-103982455D01*
X93796202Y-104008953D01*
X94492047Y-104704798D01*
X94518545Y-104744455D01*
X94675665Y-104849439D01*
X94814221Y-104877000D01*
X94814226Y-104877000D01*
X94861000Y-104886304D01*
X94907774Y-104877000D01*
X97481226Y-104877000D01*
X97528000Y-104886304D01*
X97574774Y-104877000D01*
X97574779Y-104877000D01*
X97713335Y-104849439D01*
X97870455Y-104744455D01*
X97896955Y-104704796D01*
X98181978Y-104419772D01*
X98181978Y-104599187D01*
X98172674Y-104645961D01*
X98181978Y-104692735D01*
X98181978Y-104692739D01*
X98209539Y-104831295D01*
X98314523Y-104988416D01*
X98354182Y-105014916D01*
X98823988Y-105484722D01*
X98823988Y-105661300D01*
X98323250Y-105661300D01*
X98165000Y-105819550D01*
X98165000Y-107915360D01*
X98185000Y-107915360D01*
X98185000Y-108173360D01*
X98165000Y-108173360D01*
X98165000Y-108193360D01*
X97907000Y-108193360D01*
X97907000Y-108173360D01*
X96761150Y-108173360D01*
X96602900Y-108331610D01*
X96602900Y-109920332D01*
X96699269Y-110152986D01*
X96877335Y-110331052D01*
X97072495Y-110411890D01*
X97001588Y-110459268D01*
X96929757Y-110566771D01*
X96904533Y-110693580D01*
X96904533Y-111818640D01*
X94398523Y-111818640D01*
X93847872Y-111267990D01*
X93813000Y-111215800D01*
X93606263Y-111077663D01*
X93423955Y-111041400D01*
X93362400Y-111029156D01*
X93300845Y-111041400D01*
X89393608Y-111041400D01*
X89388529Y-111029139D01*
X89072061Y-110712671D01*
X88658576Y-110541400D01*
X88211024Y-110541400D01*
X87797539Y-110712671D01*
X87481071Y-111029139D01*
X87309800Y-111442624D01*
X87309800Y-111890176D01*
X87481071Y-112303661D01*
X87797539Y-112620129D01*
X88192191Y-112783599D01*
X88079718Y-112789130D01*
X87683720Y-112953158D01*
X87609308Y-113198474D01*
X88434800Y-114023966D01*
X89260292Y-113198474D01*
X89185880Y-112953158D01*
X88693404Y-112776974D01*
X89072061Y-112620129D01*
X89388529Y-112303661D01*
X89393608Y-112291400D01*
X93103517Y-112291400D01*
X93654171Y-112842055D01*
X93689040Y-112894240D01*
X93895777Y-113032377D01*
X94078085Y-113068640D01*
X94139639Y-113080884D01*
X94201193Y-113068640D01*
X96904533Y-113068640D01*
X96904533Y-114193700D01*
X96929757Y-114320509D01*
X97001588Y-114428012D01*
X97109091Y-114499843D01*
X97235900Y-114525067D01*
X97411001Y-114525067D01*
X97411000Y-115272953D01*
X97342093Y-115301495D01*
X96997495Y-115646093D01*
X96939061Y-115787164D01*
X96832031Y-115528770D01*
X96576351Y-115442083D01*
X95678434Y-116340000D01*
X95692576Y-116354142D01*
X95510142Y-116536576D01*
X95496000Y-116522434D01*
X95481858Y-116536576D01*
X95299424Y-116354142D01*
X95313566Y-116340000D01*
X94415649Y-115442083D01*
X94159969Y-115528770D01*
X93951224Y-116101798D01*
X93977657Y-116711090D01*
X94159969Y-117151230D01*
X94415647Y-117237916D01*
X94301282Y-117352281D01*
X94346990Y-117397989D01*
X94237435Y-117443368D01*
X94059369Y-117621434D01*
X93963000Y-117854088D01*
X93963000Y-118592750D01*
X94121250Y-118751000D01*
X95367000Y-118751000D01*
X95367000Y-118731000D01*
X95625000Y-118731000D01*
X95625000Y-118751000D01*
X95645000Y-118751000D01*
X95645000Y-119009000D01*
X95625000Y-119009000D01*
X95625000Y-120254750D01*
X95783250Y-120413000D01*
X96521911Y-120413000D01*
X96754565Y-120316632D01*
X96932631Y-120138566D01*
X97029000Y-119905912D01*
X97029000Y-119605412D01*
X97342093Y-119918505D01*
X97792332Y-120105000D01*
X98279668Y-120105000D01*
X98729907Y-119918505D01*
X99074505Y-119573907D01*
X99261000Y-119123668D01*
X99261000Y-118636332D01*
X99351000Y-118636332D01*
X99351000Y-119123668D01*
X99537495Y-119573907D01*
X99882093Y-119918505D01*
X100332332Y-120105000D01*
X100819668Y-120105000D01*
X101269907Y-119918505D01*
X101614505Y-119573907D01*
X101801000Y-119123668D01*
X101801000Y-118636332D01*
X101614505Y-118186093D01*
X101269907Y-117841495D01*
X100819668Y-117655000D01*
X100332332Y-117655000D01*
X99882093Y-117841495D01*
X99537495Y-118186093D01*
X99351000Y-118636332D01*
X99261000Y-118636332D01*
X99074505Y-118186093D01*
X98729907Y-117841495D01*
X98661000Y-117812953D01*
X98661000Y-117407047D01*
X98729907Y-117378505D01*
X99074505Y-117033907D01*
X99261000Y-116583668D01*
X99261000Y-116096332D01*
X99074505Y-115646093D01*
X98729907Y-115301495D01*
X98661000Y-115272953D01*
X98661000Y-114525067D01*
X98823987Y-114525067D01*
X98823987Y-115016213D01*
X98814683Y-115062987D01*
X98823987Y-115109761D01*
X98823987Y-115109765D01*
X98851548Y-115248321D01*
X98956532Y-115405442D01*
X98996191Y-115431942D01*
X99441674Y-115877425D01*
X99351000Y-116096332D01*
X99351000Y-116583668D01*
X99537495Y-117033907D01*
X99882093Y-117378505D01*
X100332332Y-117565000D01*
X100819668Y-117565000D01*
X101269907Y-117378505D01*
X101614505Y-117033907D01*
X101801000Y-116583668D01*
X101801000Y-116096332D01*
X101614505Y-115646093D01*
X101269907Y-115301495D01*
X100819668Y-115115000D01*
X100332332Y-115115000D01*
X100113425Y-115205674D01*
X99773987Y-114866237D01*
X99773987Y-113669737D01*
X101981674Y-115877426D01*
X101891000Y-116096332D01*
X101891000Y-116583668D01*
X102077495Y-117033907D01*
X102422093Y-117378505D01*
X102872332Y-117565000D01*
X103359668Y-117565000D01*
X103809907Y-117378505D01*
X103891001Y-117297411D01*
X103891001Y-117433247D01*
X103578575Y-117745674D01*
X103359668Y-117655000D01*
X102872332Y-117655000D01*
X102422093Y-117841495D01*
X102077495Y-118186093D01*
X101891000Y-118636332D01*
X101891000Y-119123668D01*
X102077495Y-119573907D01*
X102422093Y-119918505D01*
X102872332Y-120105000D01*
X103359668Y-120105000D01*
X103809907Y-119918505D01*
X104154505Y-119573907D01*
X104341000Y-119123668D01*
X104341000Y-118636332D01*
X104250326Y-118417425D01*
X104668803Y-117998949D01*
X104708456Y-117972454D01*
X104734952Y-117932800D01*
X104734954Y-117932798D01*
X104813439Y-117815335D01*
X104813440Y-117815334D01*
X104841001Y-117676778D01*
X104841001Y-117676774D01*
X104850305Y-117630000D01*
X104841001Y-117583226D01*
X104841001Y-117257413D01*
X104962093Y-117378505D01*
X105412332Y-117565000D01*
X105899668Y-117565000D01*
X106349907Y-117378505D01*
X106431001Y-117297411D01*
X106431001Y-117433247D01*
X106118575Y-117745674D01*
X105899668Y-117655000D01*
X105412332Y-117655000D01*
X104962093Y-117841495D01*
X104617495Y-118186093D01*
X104431000Y-118636332D01*
X104431000Y-119123668D01*
X104617495Y-119573907D01*
X104962093Y-119918505D01*
X105412332Y-120105000D01*
X105899668Y-120105000D01*
X106349907Y-119918505D01*
X106694505Y-119573907D01*
X106801000Y-119316805D01*
X106801000Y-123327000D01*
X92976283Y-123327000D01*
X91479958Y-122828225D01*
X89460202Y-121818347D01*
X87628623Y-120719400D01*
X88147550Y-120719400D01*
X88305800Y-120561150D01*
X88305800Y-119415400D01*
X88563800Y-119415400D01*
X88563800Y-120561150D01*
X88722050Y-120719400D01*
X89360712Y-120719400D01*
X89593366Y-120623031D01*
X89771432Y-120444965D01*
X89867800Y-120212311D01*
X89867800Y-119573650D01*
X89709550Y-119415400D01*
X88563800Y-119415400D01*
X88305800Y-119415400D01*
X87160050Y-119415400D01*
X87001800Y-119573650D01*
X87001800Y-120212311D01*
X87074004Y-120386629D01*
X86937505Y-120304729D01*
X85969000Y-119336224D01*
X85969000Y-119167250D01*
X93963000Y-119167250D01*
X93963000Y-119905912D01*
X94059369Y-120138566D01*
X94237435Y-120316632D01*
X94470089Y-120413000D01*
X95208750Y-120413000D01*
X95367000Y-120254750D01*
X95367000Y-119009000D01*
X94121250Y-119009000D01*
X93963000Y-119167250D01*
X85969000Y-119167250D01*
X85969000Y-118360489D01*
X87001800Y-118360489D01*
X87001800Y-118999150D01*
X87160050Y-119157400D01*
X88305800Y-119157400D01*
X88305800Y-119137400D01*
X88563800Y-119137400D01*
X88563800Y-119157400D01*
X89709550Y-119157400D01*
X89867800Y-118999150D01*
X89867800Y-118360489D01*
X89771432Y-118127835D01*
X89593366Y-117949769D01*
X89360712Y-117853400D01*
X88722050Y-117853400D01*
X88563802Y-118011648D01*
X88563802Y-117871400D01*
X88658576Y-117871400D01*
X89072061Y-117700129D01*
X89388529Y-117383661D01*
X89559800Y-116970176D01*
X89559800Y-116522624D01*
X89388529Y-116109139D01*
X89072061Y-115792671D01*
X88677409Y-115629201D01*
X88789882Y-115623670D01*
X89185880Y-115459642D01*
X89246544Y-115259649D01*
X94598083Y-115259649D01*
X95496000Y-116157566D01*
X96393917Y-115259649D01*
X96307230Y-115003969D01*
X95734202Y-114795224D01*
X95124910Y-114821657D01*
X94684770Y-115003969D01*
X94598083Y-115259649D01*
X89246544Y-115259649D01*
X89260292Y-115214326D01*
X88434800Y-114388834D01*
X87609308Y-115214326D01*
X87683720Y-115459642D01*
X88176196Y-115635826D01*
X87797539Y-115792671D01*
X87481071Y-116109139D01*
X87309800Y-116522624D01*
X87309800Y-116970176D01*
X87481071Y-117383661D01*
X87797539Y-117700129D01*
X88211024Y-117871400D01*
X88305798Y-117871400D01*
X88305798Y-118011648D01*
X88147550Y-117853400D01*
X87508888Y-117853400D01*
X87276234Y-117949769D01*
X87098168Y-118127835D01*
X87001800Y-118360489D01*
X85969000Y-118360489D01*
X85969000Y-113992087D01*
X86989529Y-113992087D01*
X87017530Y-114561482D01*
X87181558Y-114957480D01*
X87426874Y-115031892D01*
X88252366Y-114206400D01*
X88617234Y-114206400D01*
X89442726Y-115031892D01*
X89688042Y-114957480D01*
X89880071Y-114420713D01*
X89852070Y-113851318D01*
X89688042Y-113455320D01*
X89442726Y-113380908D01*
X88617234Y-114206400D01*
X88252366Y-114206400D01*
X87426874Y-113380908D01*
X87181558Y-113455320D01*
X86989529Y-113992087D01*
X85969000Y-113992087D01*
X85969000Y-109228000D01*
X85959485Y-109180165D01*
X85932388Y-109139612D01*
X85424388Y-108631612D01*
X85383835Y-108604515D01*
X85336000Y-108595000D01*
X81323776Y-108595000D01*
X80889000Y-108160224D01*
X80889000Y-91229610D01*
X91650043Y-91229610D01*
X92448000Y-92027566D01*
X93245957Y-91229610D01*
X93176216Y-90988229D01*
X92653232Y-90802555D01*
X92099004Y-90831151D01*
X91719784Y-90988229D01*
X91650043Y-91229610D01*
X80889000Y-91229610D01*
X80889000Y-90568733D01*
X86143701Y-90568733D01*
X86242647Y-90834782D01*
X86851920Y-91060236D01*
X87501091Y-91035369D01*
X87985353Y-90834782D01*
X88084299Y-90568733D01*
X87114000Y-89598434D01*
X86143701Y-90568733D01*
X80889000Y-90568733D01*
X80889000Y-89153920D01*
X85469764Y-89153920D01*
X85494631Y-89803091D01*
X85695218Y-90287353D01*
X85961267Y-90386299D01*
X86931566Y-89416000D01*
X87296434Y-89416000D01*
X88266733Y-90386299D01*
X88532782Y-90287353D01*
X88758236Y-89678080D01*
X88733369Y-89028909D01*
X88532782Y-88544647D01*
X88266733Y-88445701D01*
X87296434Y-89416000D01*
X86931566Y-89416000D01*
X85961267Y-88445701D01*
X85695218Y-88544647D01*
X85469764Y-89153920D01*
X80889000Y-89153920D01*
X80889000Y-88445500D01*
X85272191Y-88445500D01*
X85272191Y-88263267D01*
X86143701Y-88263267D01*
X87114000Y-89233566D01*
X88084299Y-88263267D01*
X87985353Y-87997218D01*
X87376080Y-87771764D01*
X86726909Y-87796631D01*
X86242647Y-87997218D01*
X86143701Y-88263267D01*
X85272191Y-88263267D01*
X85272191Y-87001000D01*
X85336000Y-87001000D01*
X85383835Y-86991485D01*
X85424388Y-86964388D01*
X85932388Y-86456388D01*
X85959485Y-86415835D01*
X85969000Y-86368000D01*
X85969000Y-83076332D01*
X86143000Y-83076332D01*
X86143000Y-83563668D01*
X86329495Y-84013907D01*
X86674093Y-84358505D01*
X87124332Y-84545000D01*
X87611668Y-84545000D01*
X88061907Y-84358505D01*
X88406505Y-84013907D01*
X88593000Y-83563668D01*
X88593000Y-83076332D01*
X88683000Y-83076332D01*
X88683000Y-83563668D01*
X88869495Y-84013907D01*
X89214093Y-84358505D01*
X89664332Y-84545000D01*
X90151668Y-84545000D01*
X90601907Y-84358505D01*
X90946505Y-84013907D01*
X91133000Y-83563668D01*
X91133000Y-83076332D01*
X90946505Y-82626093D01*
X90740412Y-82420000D01*
X91216633Y-82420000D01*
X91216633Y-84220000D01*
X91241857Y-84346809D01*
X91313688Y-84454312D01*
X91421191Y-84526143D01*
X91548000Y-84551367D01*
X93348000Y-84551367D01*
X93474809Y-84526143D01*
X93582312Y-84454312D01*
X93654143Y-84346809D01*
X93679367Y-84220000D01*
X93679367Y-83607250D01*
X93963000Y-83607250D01*
X93963000Y-84345912D01*
X94059369Y-84578566D01*
X94237435Y-84756632D01*
X94470089Y-84853000D01*
X95208750Y-84853000D01*
X95367000Y-84694750D01*
X95367000Y-83449000D01*
X94121250Y-83449000D01*
X93963000Y-83607250D01*
X93679367Y-83607250D01*
X93679367Y-82420000D01*
X93654143Y-82293191D01*
X93582312Y-82185688D01*
X93474809Y-82113857D01*
X93348000Y-82088633D01*
X91548000Y-82088633D01*
X91421191Y-82113857D01*
X91313688Y-82185688D01*
X91241857Y-82293191D01*
X91216633Y-82420000D01*
X90740412Y-82420000D01*
X90601907Y-82281495D01*
X90151668Y-82095000D01*
X89664332Y-82095000D01*
X89214093Y-82281495D01*
X88869495Y-82626093D01*
X88683000Y-83076332D01*
X88593000Y-83076332D01*
X88406505Y-82626093D01*
X88061907Y-82281495D01*
X87920836Y-82223061D01*
X88179230Y-82116031D01*
X88265917Y-81860351D01*
X87368000Y-80962434D01*
X86470083Y-81860351D01*
X86556770Y-82116031D01*
X86831737Y-82216197D01*
X86674093Y-82281495D01*
X86329495Y-82626093D01*
X86143000Y-83076332D01*
X85969000Y-83076332D01*
X85969000Y-81439209D01*
X86031969Y-81591230D01*
X86287649Y-81677917D01*
X87185566Y-80780000D01*
X87550434Y-80780000D01*
X88448351Y-81677917D01*
X88704031Y-81591230D01*
X88804197Y-81316263D01*
X88869495Y-81473907D01*
X89214093Y-81818505D01*
X89664332Y-82005000D01*
X90151668Y-82005000D01*
X90601907Y-81818505D01*
X90946505Y-81473907D01*
X91133000Y-81023668D01*
X91133000Y-80536332D01*
X91223000Y-80536332D01*
X91223000Y-81023668D01*
X91409495Y-81473907D01*
X91754093Y-81818505D01*
X92204332Y-82005000D01*
X92691668Y-82005000D01*
X93141907Y-81818505D01*
X93486505Y-81473907D01*
X93673000Y-81023668D01*
X93673000Y-80536332D01*
X93486505Y-80086093D01*
X93141907Y-79741495D01*
X93040882Y-79699649D01*
X94598083Y-79699649D01*
X95496000Y-80597566D01*
X96393917Y-79699649D01*
X96307230Y-79443969D01*
X95734202Y-79235224D01*
X95124910Y-79261657D01*
X94684770Y-79443969D01*
X94598083Y-79699649D01*
X93040882Y-79699649D01*
X92691668Y-79555000D01*
X92204332Y-79555000D01*
X91754093Y-79741495D01*
X91409495Y-80086093D01*
X91223000Y-80536332D01*
X91133000Y-80536332D01*
X90946505Y-80086093D01*
X90601907Y-79741495D01*
X90151668Y-79555000D01*
X89664332Y-79555000D01*
X89214093Y-79741495D01*
X88869495Y-80086093D01*
X88811061Y-80227164D01*
X88704031Y-79968770D01*
X88448351Y-79882083D01*
X87550434Y-80780000D01*
X87185566Y-80780000D01*
X87171424Y-80765858D01*
X87353858Y-80583424D01*
X87368000Y-80597566D01*
X88265917Y-79699649D01*
X88179230Y-79443969D01*
X87606202Y-79235224D01*
X87418801Y-79243354D01*
X89201902Y-78351803D01*
X89208017Y-78348530D01*
X90977294Y-77337514D01*
X92978666Y-76587000D01*
X106801000Y-76587000D01*
X106801000Y-80343195D01*
G04 #@! TD*
M02*
