G04 #@! TF.GenerationSoftware,KiCad,Pcbnew,6.0.11-2627ca5db0~126~ubuntu22.04.1*
G04 #@! TF.CreationDate,2023-12-06T10:38:33+01:00*
G04 #@! TF.ProjectId,bus-module_attiny1634,6275732d-6d6f-4647-956c-655f61747469,C*
G04 #@! TF.SameCoordinates,Original*
G04 #@! TF.FileFunction,Soldermask,Bot*
G04 #@! TF.FilePolarity,Negative*
%FSLAX46Y46*%
G04 Gerber Fmt 4.6, Leading zero omitted, Abs format (unit mm)*
G04 Created by KiCad (PCBNEW 6.0.11-2627ca5db0~126~ubuntu22.04.1) date 2023-12-06 10:38:33*
%MOMM*%
%LPD*%
G01*
G04 APERTURE LIST*
%ADD10C,5.000000*%
%ADD11R,1.800000X1.800000*%
%ADD12C,1.800000*%
%ADD13C,0.700000*%
%ADD14C,2.200000*%
%ADD15R,1.397000X0.889000*%
%ADD16C,1.524000*%
%ADD17R,0.508000X1.143000*%
%ADD18R,1.600000X1.600000*%
%ADD19C,1.600000*%
%ADD20R,0.914400X0.914400*%
G04 APERTURE END LIST*
D10*
X104132000Y-107704000D03*
D11*
X95496000Y-118880000D03*
D12*
X95496000Y-116340000D03*
X98036000Y-118880000D03*
X98036000Y-116340000D03*
X100576000Y-118880000D03*
X100576000Y-116340000D03*
X103116000Y-118880000D03*
X103116000Y-116340000D03*
X105656000Y-118880000D03*
X105656000Y-116340000D03*
D11*
X95496000Y-83320000D03*
D12*
X95496000Y-80780000D03*
X98036000Y-83320000D03*
X98036000Y-80780000D03*
X100576000Y-83320000D03*
X100576000Y-80780000D03*
X103116000Y-83320000D03*
X103116000Y-80780000D03*
X105656000Y-83320000D03*
X105656000Y-80780000D03*
D10*
X82650000Y-83820000D03*
X82650000Y-112070000D03*
D13*
X84650000Y-85820000D03*
X82650000Y-85820000D03*
X83650000Y-85820000D03*
X80650000Y-85820000D03*
X81650000Y-85820000D03*
X81650000Y-110070000D03*
X84650000Y-110070000D03*
X83650000Y-110070000D03*
X80650000Y-110070000D03*
X82650000Y-110070000D03*
X84650000Y-83820000D03*
X84650000Y-82820000D03*
X84650000Y-81820000D03*
X84650000Y-84820000D03*
X84650000Y-113070000D03*
X84650000Y-112070000D03*
X84650000Y-111070000D03*
X84650000Y-114070000D03*
D14*
X87114000Y-95156400D03*
X87120200Y-100896800D03*
X87114000Y-106637200D03*
D11*
X92448000Y-83320000D03*
D12*
X92448000Y-80780000D03*
X89908000Y-83320000D03*
X89908000Y-80780000D03*
X87368000Y-83320000D03*
X87368000Y-80780000D03*
D15*
X96512000Y-88463500D03*
X96512000Y-90368500D03*
X104640000Y-88463500D03*
X104640000Y-90368500D03*
X98544000Y-88463500D03*
X98544000Y-90368500D03*
X102100000Y-88463500D03*
X102100000Y-90368500D03*
D16*
X92448000Y-102370000D03*
X92448000Y-92210000D03*
D17*
X95623000Y-93861000D03*
X96893000Y-93861000D03*
X98163000Y-93861000D03*
X99433000Y-93861000D03*
X99433000Y-99195000D03*
X98163000Y-99195000D03*
X96893000Y-99195000D03*
X95623000Y-99195000D03*
D15*
X96004000Y-101163500D03*
X96004000Y-103068500D03*
X102608000Y-103005000D03*
X102608000Y-101100000D03*
D14*
X87114000Y-89416000D03*
D18*
X88434800Y-119286400D03*
D19*
X88434800Y-116746400D03*
X88434800Y-114206400D03*
X88434800Y-111666400D03*
D17*
X102227000Y-93861000D03*
X103497000Y-93861000D03*
X104767000Y-93861000D03*
X106037000Y-93861000D03*
X106037000Y-99195000D03*
X104767000Y-99195000D03*
X103497000Y-99195000D03*
X102227000Y-99195000D03*
D20*
X100322000Y-90592020D03*
X100322000Y-88239980D03*
G36*
X84352928Y-113894952D02*
G01*
X84352763Y-113896317D01*
X84319055Y-113962471D01*
X84302025Y-114070000D01*
X84317239Y-114166064D01*
X84316523Y-114167931D01*
X84314547Y-114168244D01*
X84313433Y-114167182D01*
X84305887Y-114150030D01*
X84305249Y-114150311D01*
X84303261Y-114150094D01*
X84302613Y-114149289D01*
X84285320Y-114110109D01*
X84227539Y-114071926D01*
X84158180Y-114071042D01*
X84117153Y-114091356D01*
X84034554Y-114153712D01*
X84034354Y-114153845D01*
X84013038Y-114166226D01*
X84011038Y-114166232D01*
X84010033Y-114164502D01*
X84010857Y-114162879D01*
X84242284Y-113994738D01*
X84349612Y-113893951D01*
X84351559Y-113893494D01*
X84352928Y-113894952D01*
G37*
G36*
X84674301Y-113538906D02*
G01*
X84674270Y-113540378D01*
X84648563Y-113601572D01*
X84660520Y-113669788D01*
X84707578Y-113720840D01*
X84729925Y-113730701D01*
X84731106Y-113732315D01*
X84730299Y-113734145D01*
X84728805Y-113734506D01*
X84650000Y-113722025D01*
X84542471Y-113739055D01*
X84486008Y-113767824D01*
X84484011Y-113767719D01*
X84483103Y-113765937D01*
X84483559Y-113764767D01*
X84670885Y-113538328D01*
X84672760Y-113537631D01*
X84674301Y-113538906D01*
G37*
G36*
X80815989Y-110372281D02*
G01*
X80816897Y-110374063D01*
X80816441Y-110375233D01*
X80632724Y-110597310D01*
X80630849Y-110598007D01*
X80629308Y-110596732D01*
X80629331Y-110595280D01*
X80652790Y-110537754D01*
X80640121Y-110469665D01*
X80592526Y-110419101D01*
X80570520Y-110409369D01*
X80569340Y-110407754D01*
X80570149Y-110405925D01*
X80571642Y-110405565D01*
X80650000Y-110417975D01*
X80757529Y-110400945D01*
X80813992Y-110372176D01*
X80815989Y-110372281D01*
G37*
G36*
X84486008Y-110372176D02*
G01*
X84542471Y-110400945D01*
X84650000Y-110417975D01*
X84730668Y-110405199D01*
X84732535Y-110405915D01*
X84732848Y-110407891D01*
X84732029Y-110408877D01*
X84676775Y-110442888D01*
X84646785Y-110505317D01*
X84655329Y-110574216D01*
X84660399Y-110582758D01*
X84660423Y-110584758D01*
X84658703Y-110585779D01*
X84657138Y-110585054D01*
X84483559Y-110375233D01*
X84483225Y-110373261D01*
X84484766Y-110371986D01*
X84486008Y-110372176D01*
G37*
G36*
X84317221Y-109969564D02*
G01*
X84317676Y-109971177D01*
X84302025Y-110070000D01*
X84319055Y-110177529D01*
X84352763Y-110243683D01*
X84352658Y-110245680D01*
X84350876Y-110246588D01*
X84349612Y-110246049D01*
X84242284Y-110145262D01*
X84031680Y-109992249D01*
X84030867Y-109990422D01*
X84032043Y-109988804D01*
X84033897Y-109988923D01*
X84077699Y-110015608D01*
X84077896Y-110015745D01*
X84116481Y-110046163D01*
X84181027Y-110072093D01*
X84249048Y-110059067D01*
X84299308Y-110011260D01*
X84313815Y-109970198D01*
X84315335Y-109968898D01*
X84317221Y-109969564D01*
G37*
G36*
X80986207Y-109970587D02*
G01*
X80993309Y-109986207D01*
X80994350Y-109986308D01*
X80995007Y-109987105D01*
X81014929Y-110030790D01*
X81073170Y-110068264D01*
X81142536Y-110068303D01*
X81183141Y-110047621D01*
X81243699Y-110000901D01*
X81243898Y-110000766D01*
X81276513Y-109981362D01*
X81278513Y-109981336D01*
X81279536Y-109983055D01*
X81278712Y-109984699D01*
X81057716Y-110145262D01*
X80950388Y-110246049D01*
X80948441Y-110246506D01*
X80947072Y-110245048D01*
X80947237Y-110243683D01*
X80980945Y-110177529D01*
X80997975Y-110070000D01*
X80982411Y-109971728D01*
X80983127Y-109969861D01*
X80985103Y-109969548D01*
X80986207Y-109970587D01*
G37*
G36*
X84352928Y-85644952D02*
G01*
X84352763Y-85646317D01*
X84319055Y-85712471D01*
X84302025Y-85820000D01*
X84317239Y-85916064D01*
X84316523Y-85917931D01*
X84314547Y-85918244D01*
X84313433Y-85917182D01*
X84305887Y-85900030D01*
X84305249Y-85900311D01*
X84303261Y-85900094D01*
X84302613Y-85899289D01*
X84285320Y-85860109D01*
X84227539Y-85821926D01*
X84158180Y-85821042D01*
X84117153Y-85841356D01*
X84034554Y-85903712D01*
X84034354Y-85903845D01*
X84013042Y-85916224D01*
X84012652Y-85916225D01*
X84012543Y-85916552D01*
X83964617Y-85968217D01*
X83962706Y-85968807D01*
X83961240Y-85967447D01*
X83961369Y-85965949D01*
X83976597Y-85936063D01*
X83977415Y-85935218D01*
X83988495Y-85929126D01*
X84009901Y-85913574D01*
X84010541Y-85913507D01*
X84010861Y-85912877D01*
X84242284Y-85744738D01*
X84349612Y-85643951D01*
X84351559Y-85643494D01*
X84352928Y-85644952D01*
G37*
G36*
X80950388Y-85643951D02*
G01*
X81057716Y-85744738D01*
X81257991Y-85890246D01*
X81258804Y-85892073D01*
X81257628Y-85893691D01*
X81255757Y-85893561D01*
X81200866Y-85859328D01*
X81200669Y-85859189D01*
X81183794Y-85845597D01*
X81119526Y-85818995D01*
X81051371Y-85831308D01*
X81000615Y-85878587D01*
X80986680Y-85916648D01*
X80985146Y-85917930D01*
X80983267Y-85917243D01*
X80982827Y-85915647D01*
X80997975Y-85820000D01*
X80980945Y-85712471D01*
X80947237Y-85646317D01*
X80947342Y-85644320D01*
X80949124Y-85643412D01*
X80950388Y-85643951D01*
G37*
G36*
X80646716Y-85309605D02*
G01*
X80816441Y-85514767D01*
X80816775Y-85516739D01*
X80815234Y-85518014D01*
X80813992Y-85517824D01*
X80757529Y-85489055D01*
X80650000Y-85472025D01*
X80570557Y-85484607D01*
X80568690Y-85483891D01*
X80568377Y-85481915D01*
X80569175Y-85480942D01*
X80624920Y-85445683D01*
X80654144Y-85382893D01*
X80644758Y-85314091D01*
X80643456Y-85311903D01*
X80643430Y-85309903D01*
X80645149Y-85308880D01*
X80646716Y-85309605D01*
G37*
G36*
X84674301Y-85288906D02*
G01*
X84674270Y-85290378D01*
X84648563Y-85351572D01*
X84660520Y-85419788D01*
X84707578Y-85470840D01*
X84729925Y-85480701D01*
X84731106Y-85482315D01*
X84730299Y-85484145D01*
X84728805Y-85484506D01*
X84650000Y-85472025D01*
X84542471Y-85489055D01*
X84486008Y-85517824D01*
X84484011Y-85517719D01*
X84483103Y-85515937D01*
X84483559Y-85514767D01*
X84670885Y-85288328D01*
X84672760Y-85287631D01*
X84674301Y-85288906D01*
G37*
G36*
X84486008Y-82122176D02*
G01*
X84542471Y-82150945D01*
X84650000Y-82167975D01*
X84730668Y-82155199D01*
X84732535Y-82155915D01*
X84732848Y-82157891D01*
X84732029Y-82158877D01*
X84676775Y-82192888D01*
X84646785Y-82255317D01*
X84655329Y-82324216D01*
X84660399Y-82332758D01*
X84660423Y-82334758D01*
X84658703Y-82335779D01*
X84657138Y-82335054D01*
X84483559Y-82125233D01*
X84483225Y-82123261D01*
X84484766Y-82121986D01*
X84486008Y-82122176D01*
G37*
G36*
X84317221Y-81719564D02*
G01*
X84317676Y-81721177D01*
X84302025Y-81820000D01*
X84319055Y-81927529D01*
X84352763Y-81993683D01*
X84352658Y-81995680D01*
X84350876Y-81996588D01*
X84349612Y-81996049D01*
X84242284Y-81895262D01*
X84031673Y-81742244D01*
X84030860Y-81740417D01*
X84032036Y-81738799D01*
X84033890Y-81738918D01*
X84077696Y-81765605D01*
X84077893Y-81765742D01*
X84116481Y-81796163D01*
X84181027Y-81822093D01*
X84249048Y-81809067D01*
X84299308Y-81761260D01*
X84313815Y-81720198D01*
X84315335Y-81718898D01*
X84317221Y-81719564D01*
G37*
M02*
