G04 #@! TF.GenerationSoftware,KiCad,Pcbnew,6.0.11-2627ca5db0~126~ubuntu22.04.1*
G04 #@! TF.CreationDate,2023-12-06T10:38:32+01:00*
G04 #@! TF.ProjectId,bus-module_attiny1634,6275732d-6d6f-4647-956c-655f61747469,C*
G04 #@! TF.SameCoordinates,Original*
G04 #@! TF.FileFunction,Copper,L2,Bot*
G04 #@! TF.FilePolarity,Positive*
%FSLAX46Y46*%
G04 Gerber Fmt 4.6, Leading zero omitted, Abs format (unit mm)*
G04 Created by KiCad (PCBNEW 6.0.11-2627ca5db0~126~ubuntu22.04.1) date 2023-12-06 10:38:32*
%MOMM*%
%LPD*%
G01*
G04 APERTURE LIST*
%ADD10C,0.150000*%
G04 #@! TA.AperFunction,NonConductor*
%ADD11C,0.150000*%
G04 #@! TD*
G04 #@! TA.AperFunction,ComponentPad*
%ADD12C,5.000000*%
G04 #@! TD*
G04 #@! TA.AperFunction,ComponentPad*
%ADD13R,1.800000X1.800000*%
G04 #@! TD*
G04 #@! TA.AperFunction,ComponentPad*
%ADD14C,1.800000*%
G04 #@! TD*
G04 #@! TA.AperFunction,ComponentPad*
%ADD15C,0.700000*%
G04 #@! TD*
G04 #@! TA.AperFunction,ComponentPad*
%ADD16C,2.200000*%
G04 #@! TD*
G04 #@! TA.AperFunction,SMDPad,CuDef*
%ADD17R,1.397000X0.889000*%
G04 #@! TD*
G04 #@! TA.AperFunction,ComponentPad*
%ADD18C,1.524000*%
G04 #@! TD*
G04 #@! TA.AperFunction,SMDPad,CuDef*
%ADD19R,0.508000X1.143000*%
G04 #@! TD*
G04 #@! TA.AperFunction,ComponentPad*
%ADD20R,1.600000X1.600000*%
G04 #@! TD*
G04 #@! TA.AperFunction,ComponentPad*
%ADD21C,1.600000*%
G04 #@! TD*
G04 #@! TA.AperFunction,SMDPad,CuDef*
%ADD22R,0.914400X0.914400*%
G04 #@! TD*
G04 #@! TA.AperFunction,ViaPad*
%ADD23C,0.800000*%
G04 #@! TD*
G04 #@! TA.AperFunction,ViaPad*
%ADD24C,0.600000*%
G04 #@! TD*
G04 #@! TA.AperFunction,Conductor*
%ADD25C,0.300000*%
G04 #@! TD*
G04 #@! TA.AperFunction,Conductor*
%ADD26C,0.600000*%
G04 #@! TD*
G04 #@! TA.AperFunction,Conductor*
%ADD27C,0.800000*%
G04 #@! TD*
G04 APERTURE END LIST*
D10*
D11*
X84681714Y-87745904D02*
X84681714Y-86945904D01*
X84681714Y-87250666D02*
X84605523Y-87212571D01*
X84453142Y-87212571D01*
X84376952Y-87250666D01*
X84338857Y-87288761D01*
X84300761Y-87364952D01*
X84300761Y-87593523D01*
X84338857Y-87669714D01*
X84376952Y-87707809D01*
X84453142Y-87745904D01*
X84605523Y-87745904D01*
X84681714Y-87707809D01*
X83843619Y-87745904D02*
X83919809Y-87707809D01*
X83957904Y-87669714D01*
X83996000Y-87593523D01*
X83996000Y-87364952D01*
X83957904Y-87288761D01*
X83919809Y-87250666D01*
X83843619Y-87212571D01*
X83729333Y-87212571D01*
X83653142Y-87250666D01*
X83615047Y-87288761D01*
X83576952Y-87364952D01*
X83576952Y-87593523D01*
X83615047Y-87669714D01*
X83653142Y-87707809D01*
X83729333Y-87745904D01*
X83843619Y-87745904D01*
X83348380Y-87212571D02*
X83043619Y-87212571D01*
X83234095Y-86945904D02*
X83234095Y-87631619D01*
X83196000Y-87707809D01*
X83119809Y-87745904D01*
X83043619Y-87745904D01*
X82891238Y-87212571D02*
X82586476Y-87212571D01*
X82776952Y-86945904D02*
X82776952Y-87631619D01*
X82738857Y-87707809D01*
X82662666Y-87745904D01*
X82586476Y-87745904D01*
X82205523Y-87745904D02*
X82281714Y-87707809D01*
X82319809Y-87669714D01*
X82357904Y-87593523D01*
X82357904Y-87364952D01*
X82319809Y-87288761D01*
X82281714Y-87250666D01*
X82205523Y-87212571D01*
X82091238Y-87212571D01*
X82015047Y-87250666D01*
X81976952Y-87288761D01*
X81938857Y-87364952D01*
X81938857Y-87593523D01*
X81976952Y-87669714D01*
X82015047Y-87707809D01*
X82091238Y-87745904D01*
X82205523Y-87745904D01*
X81596000Y-87745904D02*
X81596000Y-87212571D01*
X81596000Y-87288761D02*
X81557904Y-87250666D01*
X81481714Y-87212571D01*
X81367428Y-87212571D01*
X81291238Y-87250666D01*
X81253142Y-87326857D01*
X81253142Y-87745904D01*
X81253142Y-87326857D02*
X81215047Y-87250666D01*
X81138857Y-87212571D01*
X81024571Y-87212571D01*
X80948380Y-87250666D01*
X80910285Y-87326857D01*
X80910285Y-87745904D01*
D12*
X104132000Y-107704000D03*
D13*
X95496000Y-118880000D03*
D14*
X95496000Y-116340000D03*
X98036000Y-118880000D03*
X98036000Y-116340000D03*
X100576000Y-118880000D03*
X100576000Y-116340000D03*
X103116000Y-118880000D03*
X103116000Y-116340000D03*
X105656000Y-118880000D03*
X105656000Y-116340000D03*
D13*
X95496000Y-83320000D03*
D14*
X95496000Y-80780000D03*
X98036000Y-83320000D03*
X98036000Y-80780000D03*
X100576000Y-83320000D03*
X100576000Y-80780000D03*
X103116000Y-83320000D03*
X103116000Y-80780000D03*
X105656000Y-83320000D03*
X105656000Y-80780000D03*
D12*
X82650000Y-83820000D03*
X82650000Y-112070000D03*
D15*
X84650000Y-85820000D03*
X82650000Y-85820000D03*
X83650000Y-85820000D03*
X80650000Y-85820000D03*
X81650000Y-85820000D03*
X81650000Y-110070000D03*
X84650000Y-110070000D03*
X83650000Y-110070000D03*
X80650000Y-110070000D03*
X82650000Y-110070000D03*
X84650000Y-83820000D03*
X84650000Y-82820000D03*
X84650000Y-81820000D03*
X84650000Y-84820000D03*
X84650000Y-113070000D03*
X84650000Y-112070000D03*
X84650000Y-111070000D03*
X84650000Y-114070000D03*
D16*
X87114000Y-95156400D03*
X87120200Y-100896800D03*
X87114000Y-106637200D03*
D13*
X92448000Y-83320000D03*
D14*
X92448000Y-80780000D03*
X89908000Y-83320000D03*
X89908000Y-80780000D03*
X87368000Y-83320000D03*
X87368000Y-80780000D03*
D17*
X96512000Y-88463500D03*
X96512000Y-90368500D03*
X104640000Y-88463500D03*
X104640000Y-90368500D03*
X98544000Y-88463500D03*
X98544000Y-90368500D03*
X102100000Y-88463500D03*
X102100000Y-90368500D03*
D18*
X92448000Y-102370000D03*
X92448000Y-92210000D03*
D19*
X95623000Y-93861000D03*
X96893000Y-93861000D03*
X98163000Y-93861000D03*
X99433000Y-93861000D03*
X99433000Y-99195000D03*
X98163000Y-99195000D03*
X96893000Y-99195000D03*
X95623000Y-99195000D03*
D17*
X96004000Y-101163500D03*
X96004000Y-103068500D03*
X102608000Y-103005000D03*
X102608000Y-101100000D03*
D16*
X87114000Y-89416000D03*
D20*
X88434800Y-119286400D03*
D21*
X88434800Y-116746400D03*
X88434800Y-114206400D03*
X88434800Y-111666400D03*
D19*
X102227000Y-93861000D03*
X103497000Y-93861000D03*
X104767000Y-93861000D03*
X106037000Y-93861000D03*
X106037000Y-99195000D03*
X104767000Y-99195000D03*
X103497000Y-99195000D03*
X102227000Y-99195000D03*
D22*
X100322000Y-90592020D03*
X100322000Y-88239980D03*
D23*
X91178000Y-97036000D03*
X93972000Y-106180000D03*
X93972000Y-108720000D03*
D24*
X104386002Y-85796500D03*
X101401502Y-110307500D03*
X103878000Y-103957500D03*
X105910000Y-103957500D03*
X100468967Y-111319722D03*
X100512500Y-110371000D03*
X101338000Y-104021000D03*
X96258000Y-95258000D03*
X100075919Y-100369780D03*
X102100000Y-96154031D03*
X100108947Y-93008640D03*
X97464500Y-92337002D03*
X98163000Y-91638500D03*
D23*
X94480000Y-100592000D03*
X99406980Y-104285959D03*
X104640000Y-87384000D03*
X97147000Y-86304500D03*
X99496500Y-97163000D03*
D25*
X96512000Y-90368500D02*
X96639000Y-90368500D01*
X104386002Y-82049998D02*
X104386002Y-85796500D01*
X105656000Y-80780000D02*
X104386002Y-82049998D01*
X106906001Y-115811999D02*
X101401502Y-110307500D01*
X105656000Y-118880000D02*
X106906001Y-117629999D01*
X106906001Y-117629999D02*
X106906001Y-115811999D01*
X99798998Y-107612238D02*
X103453736Y-103957500D01*
X106037000Y-101798500D02*
X103878000Y-103957500D01*
X103116000Y-116340000D02*
X99798998Y-113022998D01*
X99798998Y-113022998D02*
X99798998Y-107612238D01*
X103453736Y-103957500D02*
X103878000Y-103957500D01*
X106037000Y-99195000D02*
X106037000Y-101798500D01*
X104366001Y-117629999D02*
X104366001Y-115216756D01*
X103497000Y-93861000D02*
X103497000Y-94178500D01*
X103497000Y-94178500D02*
X106641001Y-97322501D01*
X103116000Y-118880000D02*
X104366001Y-117629999D01*
X106641001Y-97322501D02*
X106641001Y-103226499D01*
X104366001Y-115216756D02*
X100468967Y-111319722D01*
X106641001Y-103226499D02*
X105910000Y-103957500D01*
X104767000Y-100714002D02*
X103365002Y-102116000D01*
X101723998Y-102116000D02*
X101338000Y-102501998D01*
X101338000Y-102501998D02*
X101338000Y-104021000D01*
X103365002Y-102116000D02*
X101723998Y-102116000D01*
X105656000Y-115587502D02*
X100512500Y-110444002D01*
X100512500Y-110444002D02*
X100512500Y-110371000D01*
X105656000Y-116340000D02*
X105656000Y-115587502D01*
X104767000Y-99195000D02*
X104767000Y-100714002D01*
D26*
X89146000Y-93226000D02*
X89654000Y-93734000D01*
X93210000Y-93734000D02*
X94480000Y-92464000D01*
X94480000Y-92464000D02*
X94480000Y-87384000D01*
X86682200Y-106637200D02*
X83685000Y-103640000D01*
X83685000Y-103640000D02*
X83685000Y-94623000D01*
X85082000Y-93226000D02*
X89146000Y-93226000D01*
X94480000Y-87384000D02*
X98036000Y-83828000D01*
X89654000Y-93734000D02*
X93210000Y-93734000D01*
X87114000Y-106637200D02*
X86682200Y-106637200D01*
X83685000Y-94623000D02*
X85082000Y-93226000D01*
X98036000Y-83828000D02*
X98036000Y-83320000D01*
X98036000Y-83320000D02*
X98036000Y-80780000D01*
D25*
X98767520Y-90592020D02*
X98544000Y-90368500D01*
X98417000Y-90368500D02*
X96512000Y-88463500D01*
X101084000Y-91354020D02*
X100322000Y-90592020D01*
X96258000Y-95258000D02*
X99814000Y-95258000D01*
X99814000Y-95258000D02*
X101084000Y-93988000D01*
X101084000Y-93988000D02*
X101084000Y-91354020D01*
X98544000Y-90368500D02*
X98417000Y-90368500D01*
X100322000Y-90592020D02*
X98767520Y-90592020D01*
X98670977Y-103911958D02*
X98670977Y-101774722D01*
X98656978Y-103925957D02*
X98670977Y-103911958D01*
X98670977Y-101774722D02*
X100075919Y-100369780D01*
X99298987Y-115062987D02*
X99298987Y-105287970D01*
X98656978Y-104645961D02*
X98656978Y-103925957D01*
X99298987Y-105287970D02*
X98656978Y-104645961D01*
X100576000Y-116340000D02*
X99298987Y-115062987D01*
X103497000Y-96020000D02*
X103497000Y-95893000D01*
X102892999Y-94712501D02*
X102892999Y-93009499D01*
X103497000Y-99195000D02*
X103497000Y-96020000D01*
X103497000Y-95639000D02*
X102903041Y-95045041D01*
X102903041Y-92999457D02*
X102903041Y-91930241D01*
X102903041Y-91930241D02*
X102100000Y-91127200D01*
X102100000Y-91127200D02*
X102100000Y-90368500D01*
X102903041Y-94722543D02*
X102892999Y-94712501D01*
X102903041Y-95045041D02*
X102903041Y-94722543D01*
X102892999Y-93009499D02*
X102903041Y-92999457D01*
X103497000Y-96020000D02*
X103497000Y-95639000D01*
X102227000Y-96027031D02*
X102100000Y-96154031D01*
X102227000Y-93861000D02*
X102227000Y-96027031D01*
X100108947Y-93739053D02*
X100108947Y-93008640D01*
X99987000Y-93861000D02*
X100108947Y-93739053D01*
X99433000Y-93861000D02*
X99987000Y-93861000D01*
X96257998Y-92337002D02*
X97464500Y-92337002D01*
X95623000Y-92972000D02*
X96257998Y-92337002D01*
X95623000Y-93861000D02*
X95623000Y-92972000D01*
X98163000Y-93861000D02*
X96893000Y-93861000D01*
X98163000Y-93861000D02*
X98163000Y-91638500D01*
X104767000Y-90495500D02*
X104640000Y-90368500D01*
X104767000Y-93861000D02*
X104767000Y-90495500D01*
X93083000Y-100896800D02*
X94099000Y-101912800D01*
X94099000Y-101912800D02*
X94099000Y-103640000D01*
X94099000Y-103640000D02*
X94861000Y-104402000D01*
X94861000Y-104402000D02*
X97528000Y-104402000D01*
X97528000Y-104402000D02*
X98163000Y-103767000D01*
X98163000Y-103767000D02*
X98163000Y-99195000D01*
X87120200Y-100896800D02*
X93083000Y-100896800D01*
X94353000Y-95258000D02*
X87114000Y-95258000D01*
X87114000Y-95258000D02*
X87114000Y-95156400D01*
X96258000Y-97163000D02*
X94353000Y-95258000D01*
X96258000Y-97798000D02*
X96893000Y-98433000D01*
X96893000Y-98433000D02*
X97020000Y-98433000D01*
X96893000Y-99195000D02*
X96893000Y-98433000D01*
X96258000Y-97163000D02*
X96258000Y-97798000D01*
D26*
X100098480Y-88463500D02*
X100322000Y-88239980D01*
X100545520Y-88463500D02*
X100322000Y-88239980D01*
X95051500Y-101163500D02*
X94480000Y-100592000D01*
X102227000Y-101100000D02*
X102608000Y-101100000D01*
X102100000Y-88463500D02*
X100545520Y-88463500D01*
D25*
X95750000Y-100165000D02*
X95721500Y-100165000D01*
X96004000Y-100419000D02*
X95750000Y-100165000D01*
D26*
X99560000Y-97163000D02*
X99496500Y-97163000D01*
D25*
X95721500Y-100165000D02*
X95623000Y-100066500D01*
D27*
X102608000Y-101100000D02*
X101109500Y-101100000D01*
D26*
X98544000Y-88463500D02*
X100098480Y-88463500D01*
D25*
X96004000Y-101163500D02*
X96004000Y-100419000D01*
D26*
X96004000Y-101163500D02*
X95051500Y-101163500D01*
X98544000Y-87701500D02*
X97147000Y-86304500D01*
D27*
X99420988Y-104271951D02*
X99406980Y-104285959D01*
X101109500Y-101100000D02*
X99420988Y-102788512D01*
D26*
X102227000Y-99195000D02*
X101592000Y-99195000D01*
X104640000Y-88463500D02*
X104640000Y-87384000D01*
X102227000Y-99195000D02*
X102227000Y-101100000D01*
D27*
X99420988Y-102788512D02*
X99420988Y-104271951D01*
D26*
X98544000Y-88463500D02*
X98544000Y-87701500D01*
X101592000Y-99195000D02*
X99560000Y-97163000D01*
X104640000Y-88463500D02*
X102100000Y-88463500D01*
D25*
X95623000Y-100066500D02*
X95623000Y-99195000D01*
G04 #@! TA.AperFunction,Conductor*
G36*
X106869039Y-76481685D02*
G01*
X106914794Y-76534489D01*
X106926000Y-76586000D01*
X106926000Y-80336848D01*
X106906315Y-80403887D01*
X106853511Y-80449642D01*
X106784353Y-80459586D01*
X106720797Y-80430561D01*
X106688017Y-80383823D01*
X106687807Y-80383926D01*
X106687139Y-80382572D01*
X106598351Y-80202527D01*
X106477335Y-80040467D01*
X106335703Y-79909544D01*
X106332988Y-79907034D01*
X106332986Y-79907033D01*
X106328812Y-79903174D01*
X106225759Y-79838152D01*
X106162566Y-79798280D01*
X106162564Y-79798279D01*
X106157757Y-79795246D01*
X105969898Y-79720298D01*
X105964317Y-79719188D01*
X105964314Y-79719187D01*
X105896373Y-79705673D01*
X105771526Y-79680839D01*
X105765839Y-79680765D01*
X105765834Y-79680764D01*
X105574975Y-79678266D01*
X105574970Y-79678266D01*
X105569286Y-79678192D01*
X105563682Y-79679155D01*
X105563681Y-79679155D01*
X105375546Y-79711482D01*
X105375543Y-79711483D01*
X105369949Y-79712444D01*
X105348660Y-79720298D01*
X105185521Y-79780483D01*
X105185517Y-79780485D01*
X105180193Y-79782449D01*
X105175310Y-79785354D01*
X105175308Y-79785355D01*
X105011262Y-79882952D01*
X105006371Y-79885862D01*
X104854305Y-80019220D01*
X104729089Y-80178057D01*
X104634914Y-80357053D01*
X104633229Y-80362479D01*
X104633228Y-80362482D01*
X104615123Y-80420790D01*
X104574937Y-80550213D01*
X104551164Y-80751069D01*
X104551535Y-80756731D01*
X104551535Y-80756735D01*
X104556851Y-80837842D01*
X104564392Y-80952894D01*
X104614178Y-81148928D01*
X104616554Y-81154082D01*
X104616556Y-81154087D01*
X104633913Y-81191737D01*
X104644104Y-81260860D01*
X104615307Y-81324519D01*
X104608985Y-81331333D01*
X104173951Y-81766367D01*
X104158502Y-81778844D01*
X104155454Y-81781617D01*
X104146850Y-81787173D01*
X104140508Y-81795218D01*
X104127929Y-81811174D01*
X104124403Y-81815142D01*
X104124499Y-81815223D01*
X104121193Y-81819125D01*
X104117574Y-81822744D01*
X104109675Y-81833798D01*
X104107315Y-81837101D01*
X104103823Y-81841753D01*
X104074610Y-81878809D01*
X104071809Y-81886785D01*
X104066891Y-81893667D01*
X104063956Y-81903481D01*
X104063955Y-81903483D01*
X104053381Y-81938842D01*
X104051575Y-81944401D01*
X104035947Y-81988904D01*
X104035502Y-81994042D01*
X104035502Y-81996724D01*
X104035406Y-81998948D01*
X104035275Y-81999386D01*
X104035221Y-81999384D01*
X104035206Y-81999615D01*
X104033458Y-82005462D01*
X104033860Y-82015703D01*
X104033860Y-82015706D01*
X104035406Y-82055043D01*
X104035502Y-82059911D01*
X104035502Y-82387725D01*
X104015817Y-82454764D01*
X103963013Y-82500519D01*
X103893855Y-82510463D01*
X103827333Y-82478782D01*
X103788812Y-82443174D01*
X103720785Y-82400252D01*
X103622566Y-82338280D01*
X103622564Y-82338279D01*
X103617757Y-82335246D01*
X103429898Y-82260298D01*
X103424317Y-82259188D01*
X103424314Y-82259187D01*
X103356373Y-82245673D01*
X103231526Y-82220839D01*
X103225839Y-82220765D01*
X103225834Y-82220764D01*
X103034975Y-82218266D01*
X103034970Y-82218266D01*
X103029286Y-82218192D01*
X103023682Y-82219155D01*
X103023681Y-82219155D01*
X102835546Y-82251482D01*
X102835543Y-82251483D01*
X102829949Y-82252444D01*
X102793009Y-82266072D01*
X102645521Y-82320483D01*
X102645517Y-82320485D01*
X102640193Y-82322449D01*
X102635310Y-82325354D01*
X102635308Y-82325355D01*
X102499171Y-82406348D01*
X102466371Y-82425862D01*
X102314305Y-82559220D01*
X102189089Y-82718057D01*
X102186442Y-82723088D01*
X102176215Y-82742527D01*
X102094914Y-82897053D01*
X102093229Y-82902479D01*
X102093228Y-82902482D01*
X102088152Y-82918831D01*
X102034937Y-83090213D01*
X102011164Y-83291069D01*
X102011535Y-83296731D01*
X102011535Y-83296735D01*
X102016851Y-83377842D01*
X102024392Y-83492894D01*
X102074178Y-83688928D01*
X102076554Y-83694082D01*
X102104022Y-83753663D01*
X102158856Y-83872607D01*
X102275588Y-84037780D01*
X102420466Y-84178913D01*
X102588637Y-84291282D01*
X102774470Y-84371122D01*
X102870502Y-84392852D01*
X102966193Y-84414505D01*
X102966195Y-84414505D01*
X102971740Y-84415760D01*
X103089135Y-84420372D01*
X103168161Y-84423477D01*
X103168163Y-84423477D01*
X103173842Y-84423700D01*
X103179462Y-84422885D01*
X103179465Y-84422885D01*
X103368387Y-84395493D01*
X103368389Y-84395493D01*
X103374007Y-84394678D01*
X103379384Y-84392853D01*
X103379387Y-84392852D01*
X103542482Y-84337488D01*
X103565531Y-84329664D01*
X103699490Y-84254644D01*
X103737048Y-84233611D01*
X103737050Y-84233610D01*
X103742001Y-84230837D01*
X103800633Y-84182073D01*
X103832211Y-84155810D01*
X103896341Y-84128076D01*
X103965284Y-84139417D01*
X104017152Y-84186230D01*
X104035502Y-84251146D01*
X104035502Y-85390307D01*
X104015817Y-85457346D01*
X104004446Y-85472388D01*
X103963379Y-85518888D01*
X103902449Y-85648663D01*
X103901090Y-85657388D01*
X103901090Y-85657390D01*
X103882490Y-85776854D01*
X103880393Y-85790323D01*
X103898982Y-85932479D01*
X103956722Y-86063703D01*
X103969794Y-86079254D01*
X104027361Y-86147738D01*
X104048972Y-86173448D01*
X104168315Y-86252890D01*
X104264811Y-86283037D01*
X104296724Y-86293007D01*
X104296725Y-86293007D01*
X104305159Y-86295642D01*
X104313994Y-86295804D01*
X104333801Y-86296167D01*
X104448501Y-86298270D01*
X104457017Y-86295948D01*
X104457019Y-86295948D01*
X104578300Y-86262883D01*
X104578303Y-86262882D01*
X104586819Y-86260560D01*
X104708993Y-86185545D01*
X104805202Y-86079254D01*
X104867712Y-85950233D01*
X104891498Y-85808854D01*
X104891649Y-85796500D01*
X104890765Y-85790323D01*
X104872577Y-85663324D01*
X104871325Y-85654582D01*
X104811986Y-85524072D01*
X104766564Y-85471357D01*
X104737716Y-85407721D01*
X104736502Y-85390415D01*
X104736502Y-84254644D01*
X104756187Y-84187605D01*
X104808991Y-84141850D01*
X104878149Y-84131906D01*
X104941705Y-84160931D01*
X104947023Y-84165817D01*
X104960466Y-84178913D01*
X105128637Y-84291282D01*
X105314470Y-84371122D01*
X105410502Y-84392852D01*
X105506193Y-84414505D01*
X105506195Y-84414505D01*
X105511740Y-84415760D01*
X105629135Y-84420372D01*
X105708161Y-84423477D01*
X105708163Y-84423477D01*
X105713842Y-84423700D01*
X105719462Y-84422885D01*
X105719465Y-84422885D01*
X105908387Y-84395493D01*
X105908389Y-84395493D01*
X105914007Y-84394678D01*
X105919384Y-84392853D01*
X105919387Y-84392852D01*
X106082482Y-84337488D01*
X106105531Y-84329664D01*
X106239490Y-84254644D01*
X106277048Y-84233611D01*
X106277050Y-84233610D01*
X106282001Y-84230837D01*
X106344433Y-84178913D01*
X106433138Y-84105137D01*
X106437505Y-84101505D01*
X106566837Y-83946001D01*
X106665664Y-83769531D01*
X106684581Y-83713804D01*
X106724770Y-83656650D01*
X106789479Y-83630297D01*
X106858164Y-83643111D01*
X106909017Y-83691026D01*
X106926000Y-83753663D01*
X106926000Y-92917438D01*
X106906315Y-92984477D01*
X106853511Y-93030232D01*
X106784353Y-93040176D01*
X106720797Y-93011151D01*
X106702774Y-92991804D01*
X106659199Y-92933662D01*
X106646835Y-92921298D01*
X106544532Y-92844626D01*
X106529190Y-92836227D01*
X106408485Y-92790976D01*
X106393482Y-92787409D01*
X106342427Y-92781863D01*
X106335729Y-92781500D01*
X106308830Y-92781500D01*
X106293831Y-92785904D01*
X106292644Y-92787274D01*
X106291000Y-92794832D01*
X106291000Y-94922669D01*
X106295404Y-94937668D01*
X106296774Y-94938855D01*
X106304332Y-94940499D01*
X106335726Y-94940499D01*
X106342431Y-94940136D01*
X106393477Y-94934592D01*
X106408488Y-94931022D01*
X106529190Y-94885773D01*
X106544532Y-94877374D01*
X106646835Y-94800702D01*
X106659199Y-94788338D01*
X106702774Y-94730196D01*
X106758731Y-94688356D01*
X106828426Y-94683410D01*
X106889730Y-94716930D01*
X106923181Y-94778271D01*
X106926000Y-94804562D01*
X106926000Y-96812456D01*
X106906315Y-96879495D01*
X106853511Y-96925250D01*
X106784353Y-96935194D01*
X106720797Y-96906169D01*
X106714319Y-96900137D01*
X104658863Y-94844681D01*
X104625378Y-94783358D01*
X104630362Y-94713666D01*
X104672234Y-94657733D01*
X104737698Y-94633316D01*
X104746544Y-94633000D01*
X105040748Y-94633000D01*
X105068674Y-94627445D01*
X105087253Y-94623750D01*
X105087255Y-94623749D01*
X105099231Y-94621367D01*
X105138687Y-94595003D01*
X105205364Y-94574125D01*
X105272744Y-94592609D01*
X105319435Y-94644588D01*
X105323688Y-94654580D01*
X105329727Y-94670690D01*
X105338126Y-94686032D01*
X105414798Y-94788335D01*
X105427165Y-94800702D01*
X105529468Y-94877374D01*
X105544810Y-94885773D01*
X105665515Y-94931024D01*
X105680518Y-94934591D01*
X105731573Y-94940137D01*
X105738271Y-94940500D01*
X105765170Y-94940500D01*
X105780169Y-94936096D01*
X105781356Y-94934726D01*
X105783000Y-94927168D01*
X105783000Y-92799331D01*
X105778596Y-92784332D01*
X105777226Y-92783145D01*
X105769668Y-92781501D01*
X105738274Y-92781501D01*
X105731569Y-92781864D01*
X105680523Y-92787408D01*
X105665512Y-92790978D01*
X105544810Y-92836227D01*
X105529468Y-92844626D01*
X105427165Y-92921298D01*
X105414798Y-92933665D01*
X105340726Y-93032500D01*
X105284769Y-93074341D01*
X105215075Y-93079287D01*
X105153770Y-93045768D01*
X105120319Y-92984426D01*
X105117500Y-92958135D01*
X105117500Y-91137500D01*
X105137185Y-91070461D01*
X105189989Y-91024706D01*
X105241500Y-91013500D01*
X105358248Y-91013500D01*
X105386174Y-91007945D01*
X105404753Y-91004250D01*
X105404755Y-91004249D01*
X105416731Y-91001867D01*
X105483052Y-90957552D01*
X105527367Y-90891231D01*
X105539000Y-90832748D01*
X105539000Y-89904252D01*
X105527367Y-89845769D01*
X105483052Y-89779448D01*
X105416731Y-89735133D01*
X105404755Y-89732751D01*
X105404753Y-89732750D01*
X105386174Y-89729055D01*
X105358248Y-89723500D01*
X103921752Y-89723500D01*
X103893826Y-89729055D01*
X103875247Y-89732750D01*
X103875245Y-89732751D01*
X103863269Y-89735133D01*
X103796948Y-89779448D01*
X103752633Y-89845769D01*
X103741000Y-89904252D01*
X103741000Y-90832748D01*
X103752633Y-90891231D01*
X103796948Y-90957552D01*
X103863269Y-91001867D01*
X103875245Y-91004249D01*
X103875247Y-91004250D01*
X103893826Y-91007945D01*
X103921752Y-91013500D01*
X104292500Y-91013500D01*
X104359539Y-91033185D01*
X104405294Y-91085989D01*
X104416500Y-91137500D01*
X104416500Y-93048902D01*
X104396815Y-93115941D01*
X104380183Y-93136582D01*
X104378601Y-93138164D01*
X104368448Y-93144948D01*
X104361664Y-93155101D01*
X104361662Y-93155103D01*
X104356523Y-93162794D01*
X104324133Y-93211269D01*
X104312500Y-93269752D01*
X104312500Y-94198956D01*
X104292815Y-94265995D01*
X104240011Y-94311750D01*
X104170853Y-94321694D01*
X104107297Y-94292669D01*
X104100819Y-94286637D01*
X103987819Y-94173637D01*
X103954334Y-94112314D01*
X103951500Y-94085956D01*
X103951500Y-93269752D01*
X103939867Y-93211269D01*
X103895552Y-93144948D01*
X103829231Y-93100633D01*
X103817255Y-93098251D01*
X103817253Y-93098250D01*
X103794889Y-93093802D01*
X103770748Y-93089000D01*
X103377541Y-93089000D01*
X103310502Y-93069315D01*
X103264747Y-93016511D01*
X103253541Y-92965000D01*
X103253541Y-91980850D01*
X103255641Y-91961118D01*
X103255835Y-91956998D01*
X103257992Y-91946980D01*
X103254401Y-91916640D01*
X103254088Y-91911332D01*
X103253963Y-91911342D01*
X103253541Y-91906235D01*
X103253541Y-91901126D01*
X103250644Y-91883720D01*
X103249820Y-91877936D01*
X103245987Y-91845546D01*
X103244277Y-91831102D01*
X103240618Y-91823481D01*
X103239229Y-91815138D01*
X103216827Y-91773620D01*
X103214189Y-91768443D01*
X103211926Y-91763730D01*
X103193767Y-91725914D01*
X103190448Y-91721967D01*
X103188561Y-91720080D01*
X103187047Y-91718430D01*
X103186834Y-91718035D01*
X103186876Y-91717996D01*
X103186714Y-91717812D01*
X103183819Y-91712447D01*
X103147352Y-91678737D01*
X103143843Y-91675362D01*
X102693663Y-91225181D01*
X102660178Y-91163858D01*
X102665162Y-91094166D01*
X102707034Y-91038233D01*
X102772498Y-91013816D01*
X102781344Y-91013500D01*
X102818248Y-91013500D01*
X102846174Y-91007945D01*
X102864753Y-91004250D01*
X102864755Y-91004249D01*
X102876731Y-91001867D01*
X102943052Y-90957552D01*
X102987367Y-90891231D01*
X102999000Y-90832748D01*
X102999000Y-89904252D01*
X102987367Y-89845769D01*
X102943052Y-89779448D01*
X102876731Y-89735133D01*
X102864755Y-89732751D01*
X102864753Y-89732750D01*
X102846174Y-89729055D01*
X102818248Y-89723500D01*
X101381752Y-89723500D01*
X101353826Y-89729055D01*
X101335247Y-89732750D01*
X101335245Y-89732751D01*
X101323269Y-89735133D01*
X101256948Y-89779448D01*
X101212633Y-89845769D01*
X101201000Y-89904252D01*
X101201000Y-90001776D01*
X101181315Y-90068815D01*
X101128511Y-90114570D01*
X101059353Y-90124514D01*
X100995797Y-90095489D01*
X100968189Y-90057202D01*
X100968067Y-90056589D01*
X100923752Y-89990268D01*
X100857431Y-89945953D01*
X100845455Y-89943571D01*
X100845453Y-89943570D01*
X100826874Y-89939875D01*
X100798948Y-89934320D01*
X99845052Y-89934320D01*
X99817126Y-89939875D01*
X99798547Y-89943570D01*
X99798545Y-89943571D01*
X99786569Y-89945953D01*
X99720248Y-89990268D01*
X99675933Y-90056589D01*
X99675736Y-90056457D01*
X99637722Y-90103631D01*
X99571428Y-90125697D01*
X99503728Y-90108419D01*
X99456117Y-90057283D01*
X99443000Y-90001776D01*
X99443000Y-89904252D01*
X99431367Y-89845769D01*
X99387052Y-89779448D01*
X99320731Y-89735133D01*
X99308755Y-89732751D01*
X99308753Y-89732750D01*
X99290174Y-89729055D01*
X99262248Y-89723500D01*
X98319044Y-89723500D01*
X98252005Y-89703815D01*
X98231363Y-89687181D01*
X97864363Y-89320181D01*
X97830878Y-89258858D01*
X97835862Y-89189166D01*
X97877734Y-89133233D01*
X97943198Y-89108816D01*
X97952044Y-89108500D01*
X99262248Y-89108500D01*
X99290174Y-89102945D01*
X99308753Y-89099250D01*
X99308755Y-89099249D01*
X99320731Y-89096867D01*
X99387052Y-89052552D01*
X99409399Y-89019109D01*
X99463010Y-88974304D01*
X99512500Y-88964000D01*
X100028519Y-88964000D01*
X100040465Y-88965335D01*
X100040503Y-88964861D01*
X100049312Y-88965570D01*
X100057927Y-88967519D01*
X100066744Y-88966972D01*
X100066745Y-88966972D01*
X100110808Y-88964238D01*
X100118487Y-88964000D01*
X100134420Y-88964000D01*
X100138788Y-88963374D01*
X100138794Y-88963374D01*
X100144610Y-88962541D01*
X100154509Y-88961527D01*
X100186932Y-88959515D01*
X100192202Y-88959188D01*
X100201018Y-88958641D01*
X100209329Y-88955640D01*
X100212161Y-88955054D01*
X100228864Y-88950890D01*
X100231647Y-88950076D01*
X100240398Y-88948823D01*
X100270059Y-88935337D01*
X100339233Y-88925507D01*
X100374078Y-88935971D01*
X100397683Y-88947053D01*
X100406417Y-88948413D01*
X100409195Y-88949262D01*
X100425842Y-88953630D01*
X100428672Y-88954252D01*
X100436940Y-88957352D01*
X100445744Y-88958006D01*
X100445747Y-88958007D01*
X100473918Y-88960100D01*
X100483423Y-88960806D01*
X100493293Y-88961939D01*
X100506529Y-88964000D01*
X100521805Y-88964000D01*
X100530994Y-88964341D01*
X100579912Y-88967976D01*
X100588552Y-88966132D01*
X100596674Y-88965578D01*
X100611626Y-88964000D01*
X101131500Y-88964000D01*
X101198539Y-88983685D01*
X101234601Y-89019108D01*
X101256948Y-89052552D01*
X101323269Y-89096867D01*
X101335245Y-89099249D01*
X101335247Y-89099250D01*
X101353826Y-89102945D01*
X101381752Y-89108500D01*
X102818248Y-89108500D01*
X102846174Y-89102945D01*
X102864753Y-89099250D01*
X102864755Y-89099249D01*
X102876731Y-89096867D01*
X102943052Y-89052552D01*
X102965399Y-89019109D01*
X103019010Y-88974304D01*
X103068500Y-88964000D01*
X103671500Y-88964000D01*
X103738539Y-88983685D01*
X103774601Y-89019108D01*
X103796948Y-89052552D01*
X103863269Y-89096867D01*
X103875245Y-89099249D01*
X103875247Y-89099250D01*
X103893826Y-89102945D01*
X103921752Y-89108500D01*
X105358248Y-89108500D01*
X105386174Y-89102945D01*
X105404753Y-89099250D01*
X105404755Y-89099249D01*
X105416731Y-89096867D01*
X105483052Y-89052552D01*
X105527367Y-88986231D01*
X105531129Y-88967321D01*
X105534536Y-88950191D01*
X105539000Y-88927748D01*
X105539000Y-87999252D01*
X105527367Y-87940769D01*
X105483052Y-87874448D01*
X105416731Y-87830133D01*
X105404755Y-87827751D01*
X105404753Y-87827750D01*
X105378377Y-87822504D01*
X105358248Y-87818500D01*
X105295580Y-87818500D01*
X105228541Y-87798815D01*
X105182786Y-87746011D01*
X105172842Y-87676853D01*
X105181019Y-87647047D01*
X105182213Y-87644166D01*
X105212478Y-87571100D01*
X105221934Y-87548271D01*
X105221935Y-87548269D01*
X105225044Y-87540762D01*
X105245682Y-87384000D01*
X105225044Y-87227238D01*
X105185418Y-87131571D01*
X105167646Y-87088667D01*
X105164536Y-87081159D01*
X105068282Y-86955718D01*
X104942841Y-86859464D01*
X104876890Y-86832146D01*
X104804271Y-86802066D01*
X104804269Y-86802065D01*
X104796762Y-86798956D01*
X104640000Y-86778318D01*
X104483238Y-86798956D01*
X104475731Y-86802065D01*
X104475729Y-86802066D01*
X104403110Y-86832146D01*
X104337159Y-86859464D01*
X104211718Y-86955718D01*
X104115464Y-87081159D01*
X104112354Y-87088667D01*
X104094583Y-87131571D01*
X104054956Y-87227238D01*
X104034318Y-87384000D01*
X104054956Y-87540762D01*
X104058065Y-87548269D01*
X104058066Y-87548271D01*
X104067522Y-87571100D01*
X104097788Y-87644166D01*
X104098981Y-87647047D01*
X104106450Y-87716516D01*
X104075175Y-87778996D01*
X104015086Y-87814648D01*
X103984420Y-87818500D01*
X103921752Y-87818500D01*
X103901623Y-87822504D01*
X103875247Y-87827750D01*
X103875245Y-87827751D01*
X103863269Y-87830133D01*
X103796948Y-87874448D01*
X103790164Y-87884601D01*
X103774602Y-87907891D01*
X103720990Y-87952696D01*
X103671500Y-87963000D01*
X103068500Y-87963000D01*
X103001461Y-87943315D01*
X102965398Y-87907891D01*
X102949836Y-87884601D01*
X102943052Y-87874448D01*
X102876731Y-87830133D01*
X102864755Y-87827751D01*
X102864753Y-87827750D01*
X102838377Y-87822504D01*
X102818248Y-87818500D01*
X101381752Y-87818500D01*
X101361623Y-87822504D01*
X101335247Y-87827750D01*
X101335245Y-87827751D01*
X101323269Y-87830133D01*
X101256948Y-87874448D01*
X101250164Y-87884601D01*
X101234602Y-87907891D01*
X101180990Y-87952696D01*
X101131500Y-87963000D01*
X101103700Y-87963000D01*
X101036661Y-87943315D01*
X100990906Y-87890511D01*
X100979700Y-87839000D01*
X100979700Y-87763032D01*
X100974145Y-87735106D01*
X100970450Y-87716527D01*
X100970449Y-87716525D01*
X100968067Y-87704549D01*
X100923752Y-87638228D01*
X100857431Y-87593913D01*
X100845455Y-87591531D01*
X100845453Y-87591530D01*
X100826724Y-87587805D01*
X100798948Y-87582280D01*
X99845052Y-87582280D01*
X99817276Y-87587805D01*
X99798547Y-87591530D01*
X99798545Y-87591531D01*
X99786569Y-87593913D01*
X99720248Y-87638228D01*
X99675933Y-87704549D01*
X99673551Y-87716525D01*
X99673550Y-87716527D01*
X99669855Y-87735106D01*
X99664300Y-87763032D01*
X99664300Y-87839000D01*
X99644615Y-87906039D01*
X99591811Y-87951794D01*
X99540300Y-87963000D01*
X99512500Y-87963000D01*
X99445461Y-87943315D01*
X99409398Y-87907891D01*
X99393836Y-87884601D01*
X99387052Y-87874448D01*
X99320731Y-87830133D01*
X99308755Y-87827751D01*
X99308753Y-87827750D01*
X99282377Y-87822504D01*
X99262248Y-87818500D01*
X99169306Y-87818500D01*
X99102267Y-87798815D01*
X99056512Y-87746011D01*
X99045544Y-87702174D01*
X99044738Y-87689176D01*
X99044500Y-87681502D01*
X99044500Y-87665560D01*
X99043041Y-87655367D01*
X99042027Y-87645473D01*
X99039688Y-87607779D01*
X99039141Y-87598961D01*
X99036142Y-87590652D01*
X99035552Y-87587805D01*
X99031387Y-87571100D01*
X99030575Y-87568323D01*
X99029323Y-87559582D01*
X99025668Y-87551543D01*
X99025667Y-87551540D01*
X99010034Y-87517157D01*
X99006281Y-87507939D01*
X98990460Y-87464113D01*
X98985247Y-87456977D01*
X98983889Y-87454423D01*
X98975200Y-87439552D01*
X98973640Y-87437113D01*
X98969984Y-87429072D01*
X98939540Y-87393740D01*
X98933381Y-87385983D01*
X98925477Y-87375164D01*
X98914684Y-87364371D01*
X98908427Y-87357632D01*
X98897550Y-87345009D01*
X98876400Y-87320463D01*
X98868987Y-87315658D01*
X98862856Y-87310309D01*
X98851159Y-87300846D01*
X97766480Y-86216166D01*
X97734386Y-86160578D01*
X97733105Y-86155797D01*
X97732044Y-86147738D01*
X97721732Y-86122841D01*
X97674646Y-86009167D01*
X97671536Y-86001659D01*
X97575282Y-85876218D01*
X97449841Y-85779964D01*
X97442333Y-85776854D01*
X97311271Y-85722566D01*
X97311269Y-85722565D01*
X97303762Y-85719456D01*
X97154167Y-85699762D01*
X97090271Y-85671496D01*
X97051800Y-85613171D01*
X97050968Y-85543307D01*
X97082672Y-85489142D01*
X98128191Y-84443623D01*
X98189514Y-84410138D01*
X98198079Y-84408587D01*
X98288386Y-84395493D01*
X98294007Y-84394678D01*
X98299384Y-84392853D01*
X98299387Y-84392852D01*
X98462482Y-84337488D01*
X98485531Y-84329664D01*
X98619490Y-84254644D01*
X98657048Y-84233611D01*
X98657050Y-84233610D01*
X98662001Y-84230837D01*
X98724433Y-84178913D01*
X98813138Y-84105137D01*
X98817505Y-84101505D01*
X98946837Y-83946001D01*
X99045664Y-83769531D01*
X99110678Y-83578007D01*
X99139700Y-83377842D01*
X99141215Y-83320000D01*
X99138557Y-83291069D01*
X99471164Y-83291069D01*
X99471535Y-83296731D01*
X99471535Y-83296735D01*
X99476851Y-83377842D01*
X99484392Y-83492894D01*
X99534178Y-83688928D01*
X99536554Y-83694082D01*
X99564022Y-83753663D01*
X99618856Y-83872607D01*
X99735588Y-84037780D01*
X99880466Y-84178913D01*
X100048637Y-84291282D01*
X100234470Y-84371122D01*
X100330502Y-84392852D01*
X100426193Y-84414505D01*
X100426195Y-84414505D01*
X100431740Y-84415760D01*
X100549135Y-84420372D01*
X100628161Y-84423477D01*
X100628163Y-84423477D01*
X100633842Y-84423700D01*
X100639462Y-84422885D01*
X100639465Y-84422885D01*
X100828387Y-84395493D01*
X100828389Y-84395493D01*
X100834007Y-84394678D01*
X100839384Y-84392853D01*
X100839387Y-84392852D01*
X101002482Y-84337488D01*
X101025531Y-84329664D01*
X101159490Y-84254644D01*
X101197048Y-84233611D01*
X101197050Y-84233610D01*
X101202001Y-84230837D01*
X101264433Y-84178913D01*
X101353138Y-84105137D01*
X101357505Y-84101505D01*
X101486837Y-83946001D01*
X101585664Y-83769531D01*
X101650678Y-83578007D01*
X101679700Y-83377842D01*
X101681215Y-83320000D01*
X101662708Y-83118591D01*
X101622708Y-82976762D01*
X101609352Y-82929403D01*
X101609351Y-82929400D01*
X101607807Y-82923926D01*
X101518351Y-82742527D01*
X101397335Y-82580467D01*
X101287332Y-82478781D01*
X101252988Y-82447034D01*
X101252986Y-82447033D01*
X101248812Y-82443174D01*
X101180785Y-82400252D01*
X101082566Y-82338280D01*
X101082564Y-82338279D01*
X101077757Y-82335246D01*
X100889898Y-82260298D01*
X100884317Y-82259188D01*
X100884314Y-82259187D01*
X100816373Y-82245673D01*
X100691526Y-82220839D01*
X100685839Y-82220765D01*
X100685834Y-82220764D01*
X100494975Y-82218266D01*
X100494970Y-82218266D01*
X100489286Y-82218192D01*
X100483682Y-82219155D01*
X100483681Y-82219155D01*
X100295546Y-82251482D01*
X100295543Y-82251483D01*
X100289949Y-82252444D01*
X100253009Y-82266072D01*
X100105521Y-82320483D01*
X100105517Y-82320485D01*
X100100193Y-82322449D01*
X100095310Y-82325354D01*
X100095308Y-82325355D01*
X99959171Y-82406348D01*
X99926371Y-82425862D01*
X99774305Y-82559220D01*
X99649089Y-82718057D01*
X99646442Y-82723088D01*
X99636215Y-82742527D01*
X99554914Y-82897053D01*
X99553229Y-82902479D01*
X99553228Y-82902482D01*
X99548152Y-82918831D01*
X99494937Y-83090213D01*
X99471164Y-83291069D01*
X99138557Y-83291069D01*
X99122708Y-83118591D01*
X99082708Y-82976762D01*
X99069352Y-82929403D01*
X99069351Y-82929400D01*
X99067807Y-82923926D01*
X98978351Y-82742527D01*
X98857335Y-82580467D01*
X98747332Y-82478781D01*
X98712988Y-82447034D01*
X98712986Y-82447033D01*
X98708812Y-82443174D01*
X98594330Y-82370941D01*
X98548138Y-82318521D01*
X98536500Y-82266072D01*
X98536500Y-81833798D01*
X98556185Y-81766759D01*
X98599912Y-81725608D01*
X98657039Y-81693616D01*
X98657040Y-81693615D01*
X98662001Y-81690837D01*
X98724433Y-81638913D01*
X98813138Y-81565137D01*
X98817505Y-81561505D01*
X98874364Y-81493140D01*
X98943206Y-81410367D01*
X98943207Y-81410366D01*
X98946837Y-81406001D01*
X98973830Y-81357802D01*
X99042886Y-81234491D01*
X99045664Y-81229531D01*
X99110678Y-81038007D01*
X99111493Y-81032387D01*
X99139176Y-80841458D01*
X99139176Y-80841453D01*
X99139700Y-80837842D01*
X99141215Y-80780000D01*
X99138557Y-80751069D01*
X99471164Y-80751069D01*
X99471535Y-80756731D01*
X99471535Y-80756735D01*
X99476851Y-80837842D01*
X99484392Y-80952894D01*
X99534178Y-81148928D01*
X99536554Y-81154082D01*
X99610999Y-81315563D01*
X99618856Y-81332607D01*
X99735588Y-81497780D01*
X99880466Y-81638913D01*
X100048637Y-81751282D01*
X100234470Y-81831122D01*
X100271429Y-81839485D01*
X100426193Y-81874505D01*
X100426195Y-81874505D01*
X100431740Y-81875760D01*
X100549135Y-81880372D01*
X100628161Y-81883477D01*
X100628163Y-81883477D01*
X100633842Y-81883700D01*
X100639462Y-81882885D01*
X100639465Y-81882885D01*
X100828387Y-81855493D01*
X100828389Y-81855493D01*
X100834007Y-81854678D01*
X100839384Y-81852853D01*
X100839387Y-81852852D01*
X100928081Y-81822744D01*
X101025531Y-81789664D01*
X101202001Y-81690837D01*
X101264433Y-81638913D01*
X101353138Y-81565137D01*
X101357505Y-81561505D01*
X101414364Y-81493140D01*
X101483206Y-81410367D01*
X101483207Y-81410366D01*
X101486837Y-81406001D01*
X101513830Y-81357802D01*
X101582886Y-81234491D01*
X101585664Y-81229531D01*
X101650678Y-81038007D01*
X101651493Y-81032387D01*
X101679176Y-80841458D01*
X101679176Y-80841453D01*
X101679700Y-80837842D01*
X101681215Y-80780000D01*
X101678557Y-80751069D01*
X102011164Y-80751069D01*
X102011535Y-80756731D01*
X102011535Y-80756735D01*
X102016851Y-80837842D01*
X102024392Y-80952894D01*
X102074178Y-81148928D01*
X102076554Y-81154082D01*
X102150999Y-81315563D01*
X102158856Y-81332607D01*
X102275588Y-81497780D01*
X102420466Y-81638913D01*
X102588637Y-81751282D01*
X102774470Y-81831122D01*
X102811429Y-81839485D01*
X102966193Y-81874505D01*
X102966195Y-81874505D01*
X102971740Y-81875760D01*
X103089135Y-81880372D01*
X103168161Y-81883477D01*
X103168163Y-81883477D01*
X103173842Y-81883700D01*
X103179462Y-81882885D01*
X103179465Y-81882885D01*
X103368387Y-81855493D01*
X103368389Y-81855493D01*
X103374007Y-81854678D01*
X103379384Y-81852853D01*
X103379387Y-81852852D01*
X103468081Y-81822744D01*
X103565531Y-81789664D01*
X103742001Y-81690837D01*
X103804433Y-81638913D01*
X103893138Y-81565137D01*
X103897505Y-81561505D01*
X103954364Y-81493140D01*
X104023206Y-81410367D01*
X104023207Y-81410366D01*
X104026837Y-81406001D01*
X104053830Y-81357802D01*
X104122886Y-81234491D01*
X104125664Y-81229531D01*
X104190678Y-81038007D01*
X104191493Y-81032387D01*
X104219176Y-80841458D01*
X104219176Y-80841453D01*
X104219700Y-80837842D01*
X104221215Y-80780000D01*
X104202708Y-80578591D01*
X104166341Y-80449642D01*
X104149352Y-80389403D01*
X104149351Y-80389400D01*
X104147807Y-80383926D01*
X104058351Y-80202527D01*
X103937335Y-80040467D01*
X103795703Y-79909544D01*
X103792988Y-79907034D01*
X103792986Y-79907033D01*
X103788812Y-79903174D01*
X103685759Y-79838152D01*
X103622566Y-79798280D01*
X103622564Y-79798279D01*
X103617757Y-79795246D01*
X103429898Y-79720298D01*
X103424317Y-79719188D01*
X103424314Y-79719187D01*
X103356373Y-79705673D01*
X103231526Y-79680839D01*
X103225839Y-79680765D01*
X103225834Y-79680764D01*
X103034975Y-79678266D01*
X103034970Y-79678266D01*
X103029286Y-79678192D01*
X103023682Y-79679155D01*
X103023681Y-79679155D01*
X102835546Y-79711482D01*
X102835543Y-79711483D01*
X102829949Y-79712444D01*
X102808660Y-79720298D01*
X102645521Y-79780483D01*
X102645517Y-79780485D01*
X102640193Y-79782449D01*
X102635310Y-79785354D01*
X102635308Y-79785355D01*
X102471262Y-79882952D01*
X102466371Y-79885862D01*
X102314305Y-80019220D01*
X102189089Y-80178057D01*
X102094914Y-80357053D01*
X102093229Y-80362479D01*
X102093228Y-80362482D01*
X102075123Y-80420790D01*
X102034937Y-80550213D01*
X102011164Y-80751069D01*
X101678557Y-80751069D01*
X101662708Y-80578591D01*
X101626341Y-80449642D01*
X101609352Y-80389403D01*
X101609351Y-80389400D01*
X101607807Y-80383926D01*
X101518351Y-80202527D01*
X101397335Y-80040467D01*
X101255703Y-79909544D01*
X101252988Y-79907034D01*
X101252986Y-79907033D01*
X101248812Y-79903174D01*
X101145759Y-79838152D01*
X101082566Y-79798280D01*
X101082564Y-79798279D01*
X101077757Y-79795246D01*
X100889898Y-79720298D01*
X100884317Y-79719188D01*
X100884314Y-79719187D01*
X100816373Y-79705673D01*
X100691526Y-79680839D01*
X100685839Y-79680765D01*
X100685834Y-79680764D01*
X100494975Y-79678266D01*
X100494970Y-79678266D01*
X100489286Y-79678192D01*
X100483682Y-79679155D01*
X100483681Y-79679155D01*
X100295546Y-79711482D01*
X100295543Y-79711483D01*
X100289949Y-79712444D01*
X100268660Y-79720298D01*
X100105521Y-79780483D01*
X100105517Y-79780485D01*
X100100193Y-79782449D01*
X100095310Y-79785354D01*
X100095308Y-79785355D01*
X99931262Y-79882952D01*
X99926371Y-79885862D01*
X99774305Y-80019220D01*
X99649089Y-80178057D01*
X99554914Y-80357053D01*
X99553229Y-80362479D01*
X99553228Y-80362482D01*
X99535123Y-80420790D01*
X99494937Y-80550213D01*
X99471164Y-80751069D01*
X99138557Y-80751069D01*
X99122708Y-80578591D01*
X99086341Y-80449642D01*
X99069352Y-80389403D01*
X99069351Y-80389400D01*
X99067807Y-80383926D01*
X98978351Y-80202527D01*
X98857335Y-80040467D01*
X98715703Y-79909544D01*
X98712988Y-79907034D01*
X98712986Y-79907033D01*
X98708812Y-79903174D01*
X98605759Y-79838152D01*
X98542566Y-79798280D01*
X98542564Y-79798279D01*
X98537757Y-79795246D01*
X98349898Y-79720298D01*
X98344317Y-79719188D01*
X98344314Y-79719187D01*
X98276373Y-79705673D01*
X98151526Y-79680839D01*
X98145839Y-79680765D01*
X98145834Y-79680764D01*
X97954975Y-79678266D01*
X97954970Y-79678266D01*
X97949286Y-79678192D01*
X97943682Y-79679155D01*
X97943681Y-79679155D01*
X97755546Y-79711482D01*
X97755543Y-79711483D01*
X97749949Y-79712444D01*
X97728660Y-79720298D01*
X97565521Y-79780483D01*
X97565517Y-79780485D01*
X97560193Y-79782449D01*
X97555310Y-79785354D01*
X97555308Y-79785355D01*
X97391262Y-79882952D01*
X97386371Y-79885862D01*
X97234305Y-80019220D01*
X97109089Y-80178057D01*
X97106442Y-80183088D01*
X97043633Y-80302467D01*
X96994998Y-80352630D01*
X96926963Y-80368536D01*
X96861129Y-80345134D01*
X96820180Y-80294175D01*
X96743157Y-80117035D01*
X96738364Y-80108096D01*
X96665068Y-79994796D01*
X96654552Y-79985739D01*
X96645138Y-79990073D01*
X95867817Y-80767393D01*
X95860325Y-80781113D01*
X95860454Y-80782918D01*
X95864637Y-80789427D01*
X96642508Y-81567297D01*
X96654326Y-81573750D01*
X96665879Y-81564925D01*
X96704061Y-81511789D01*
X96709283Y-81503097D01*
X96807355Y-81304663D01*
X96811094Y-81295220D01*
X96815843Y-81279588D01*
X96854166Y-81221165D01*
X96917990Y-81192736D01*
X96987053Y-81203327D01*
X97039426Y-81249573D01*
X97047097Y-81263719D01*
X97076475Y-81327444D01*
X97076478Y-81327449D01*
X97078856Y-81332607D01*
X97195588Y-81497780D01*
X97340466Y-81638913D01*
X97376871Y-81663238D01*
X97480391Y-81732409D01*
X97525196Y-81786022D01*
X97535500Y-81835511D01*
X97535500Y-82266626D01*
X97515815Y-82333665D01*
X97474900Y-82373193D01*
X97391255Y-82422956D01*
X97391252Y-82422958D01*
X97386371Y-82425862D01*
X97234305Y-82559220D01*
X97135259Y-82684860D01*
X97125379Y-82697393D01*
X97068416Y-82737854D01*
X96998622Y-82741096D01*
X96938155Y-82706089D01*
X96906212Y-82643949D01*
X96903999Y-82620626D01*
X96903999Y-82375274D01*
X96903636Y-82368569D01*
X96898092Y-82317523D01*
X96894522Y-82302512D01*
X96849273Y-82181810D01*
X96840874Y-82166468D01*
X96764202Y-82064165D01*
X96751835Y-82051798D01*
X96649532Y-81975126D01*
X96634190Y-81966727D01*
X96513485Y-81921476D01*
X96498482Y-81917909D01*
X96447427Y-81912363D01*
X96440729Y-81912000D01*
X96429611Y-81912000D01*
X96379678Y-81926662D01*
X96378734Y-81923447D01*
X96355266Y-81933165D01*
X96286508Y-81920752D01*
X96254344Y-81897555D01*
X95508607Y-81151817D01*
X95494887Y-81144325D01*
X95493082Y-81144454D01*
X95486573Y-81148637D01*
X94734643Y-81900568D01*
X94673320Y-81934053D01*
X94603629Y-81929069D01*
X94587534Y-81921718D01*
X94569739Y-81912001D01*
X94551274Y-81912001D01*
X94544569Y-81912364D01*
X94493523Y-81917908D01*
X94478512Y-81921478D01*
X94357810Y-81966727D01*
X94342468Y-81975126D01*
X94240165Y-82051798D01*
X94227798Y-82064165D01*
X94151126Y-82166468D01*
X94142727Y-82181810D01*
X94097476Y-82302515D01*
X94093909Y-82317518D01*
X94088363Y-82368573D01*
X94088000Y-82375271D01*
X94088000Y-83048170D01*
X94092404Y-83063169D01*
X94093774Y-83064356D01*
X94101332Y-83066000D01*
X95626000Y-83066000D01*
X95693039Y-83085685D01*
X95738794Y-83138489D01*
X95750000Y-83190000D01*
X95750000Y-84710169D01*
X95754404Y-84725168D01*
X95755774Y-84726355D01*
X95763332Y-84727999D01*
X96128826Y-84727999D01*
X96195865Y-84747684D01*
X96241620Y-84800488D01*
X96251564Y-84869646D01*
X96222539Y-84933202D01*
X96216511Y-84939675D01*
X94175561Y-86980625D01*
X94166171Y-86988128D01*
X94166479Y-86988490D01*
X94159748Y-86994218D01*
X94152280Y-86998930D01*
X94146437Y-87005546D01*
X94146430Y-87005552D01*
X94117206Y-87038643D01*
X94111945Y-87044241D01*
X94100680Y-87055506D01*
X94098033Y-87059038D01*
X94098032Y-87059039D01*
X94094512Y-87063736D01*
X94088231Y-87071453D01*
X94057377Y-87106388D01*
X94053623Y-87114384D01*
X94052043Y-87116789D01*
X94043160Y-87131571D01*
X94041771Y-87134108D01*
X94036474Y-87141176D01*
X94033373Y-87149449D01*
X94033372Y-87149450D01*
X94020115Y-87184813D01*
X94016258Y-87193968D01*
X93996447Y-87236163D01*
X93995087Y-87244897D01*
X93994238Y-87247675D01*
X93989870Y-87264322D01*
X93989248Y-87267152D01*
X93986148Y-87275420D01*
X93985494Y-87284224D01*
X93985493Y-87284227D01*
X93982694Y-87321899D01*
X93981561Y-87331773D01*
X93979500Y-87345009D01*
X93979500Y-87360285D01*
X93979159Y-87369474D01*
X93975524Y-87418392D01*
X93977368Y-87427032D01*
X93977922Y-87435154D01*
X93979500Y-87450106D01*
X93979500Y-92205324D01*
X93959815Y-92272363D01*
X93943181Y-92293005D01*
X93934060Y-92302126D01*
X93872737Y-92335611D01*
X93803045Y-92330627D01*
X93747112Y-92288755D01*
X93722695Y-92223291D01*
X93722379Y-92214445D01*
X93722379Y-92204605D01*
X93703955Y-91994023D01*
X93702081Y-91983392D01*
X93647369Y-91779202D01*
X93643680Y-91769069D01*
X93554342Y-91577483D01*
X93548947Y-91568139D01*
X93518042Y-91524001D01*
X93507729Y-91515758D01*
X93494497Y-91522713D01*
X92535681Y-92481529D01*
X92474358Y-92515014D01*
X92404666Y-92510030D01*
X92360319Y-92481529D01*
X91400792Y-91522002D01*
X91389206Y-91515676D01*
X91377382Y-91524823D01*
X91347053Y-91568139D01*
X91341658Y-91577483D01*
X91252320Y-91769069D01*
X91248631Y-91779202D01*
X91193919Y-91983392D01*
X91192045Y-91994023D01*
X91173621Y-92204605D01*
X91173621Y-92215395D01*
X91192045Y-92425977D01*
X91193919Y-92436608D01*
X91248631Y-92640798D01*
X91252320Y-92650931D01*
X91341657Y-92842514D01*
X91347055Y-92851864D01*
X91468302Y-93025023D01*
X91472305Y-93029794D01*
X91500318Y-93093802D01*
X91489279Y-93162794D01*
X91442692Y-93214866D01*
X91377316Y-93233500D01*
X89912675Y-93233500D01*
X89845636Y-93213815D01*
X89824994Y-93197181D01*
X89549376Y-92921563D01*
X89541874Y-92912172D01*
X89541511Y-92912481D01*
X89535783Y-92905751D01*
X89531070Y-92898280D01*
X89524449Y-92892433D01*
X89524446Y-92892429D01*
X89491357Y-92863206D01*
X89485759Y-92857945D01*
X89474494Y-92846680D01*
X89470788Y-92843902D01*
X89466264Y-92840512D01*
X89458543Y-92834227D01*
X89457939Y-92833693D01*
X89432811Y-92811501D01*
X89430233Y-92809224D01*
X89430231Y-92809223D01*
X89423612Y-92803377D01*
X89415616Y-92799623D01*
X89413211Y-92798043D01*
X89398429Y-92789160D01*
X89395892Y-92787771D01*
X89388824Y-92782474D01*
X89373004Y-92776543D01*
X89345187Y-92766115D01*
X89336032Y-92762258D01*
X89293837Y-92742447D01*
X89285103Y-92741087D01*
X89282325Y-92740238D01*
X89265678Y-92735870D01*
X89262848Y-92735248D01*
X89254580Y-92732148D01*
X89245776Y-92731494D01*
X89245773Y-92731493D01*
X89217602Y-92729400D01*
X89208097Y-92728694D01*
X89198227Y-92727561D01*
X89184991Y-92725500D01*
X89169715Y-92725500D01*
X89160526Y-92725159D01*
X89160476Y-92725155D01*
X89111608Y-92721524D01*
X89102968Y-92723368D01*
X89094846Y-92723922D01*
X89079894Y-92725500D01*
X85151952Y-92725500D01*
X85140011Y-92724166D01*
X85139973Y-92724640D01*
X85131167Y-92723931D01*
X85122552Y-92721982D01*
X85079707Y-92724640D01*
X85069680Y-92725262D01*
X85062002Y-92725500D01*
X85046060Y-92725500D01*
X85041681Y-92726127D01*
X85035867Y-92726959D01*
X85025973Y-92727973D01*
X85007196Y-92729138D01*
X84979461Y-92730859D01*
X84971152Y-92733858D01*
X84968305Y-92734448D01*
X84951600Y-92738613D01*
X84948823Y-92739425D01*
X84940082Y-92740677D01*
X84932043Y-92744332D01*
X84932040Y-92744333D01*
X84897657Y-92759966D01*
X84888439Y-92763719D01*
X84844613Y-92779540D01*
X84837477Y-92784753D01*
X84834923Y-92786111D01*
X84820052Y-92794800D01*
X84817613Y-92796360D01*
X84809572Y-92800016D01*
X84774240Y-92830460D01*
X84766483Y-92836619D01*
X84755664Y-92844523D01*
X84744871Y-92855316D01*
X84738132Y-92861573D01*
X84700963Y-92893600D01*
X84696158Y-92901013D01*
X84690809Y-92907144D01*
X84681346Y-92918841D01*
X83380561Y-94219625D01*
X83371171Y-94227128D01*
X83371479Y-94227490D01*
X83364748Y-94233218D01*
X83357280Y-94237930D01*
X83351437Y-94244546D01*
X83351430Y-94244552D01*
X83322206Y-94277643D01*
X83316945Y-94283241D01*
X83305680Y-94294506D01*
X83303033Y-94298038D01*
X83303032Y-94298039D01*
X83299512Y-94302736D01*
X83293231Y-94310453D01*
X83287218Y-94317261D01*
X83271110Y-94335500D01*
X83262377Y-94345388D01*
X83258623Y-94353384D01*
X83257043Y-94355789D01*
X83248160Y-94370571D01*
X83246771Y-94373108D01*
X83241474Y-94380176D01*
X83238373Y-94388449D01*
X83238372Y-94388450D01*
X83225115Y-94423813D01*
X83221258Y-94432968D01*
X83201447Y-94475163D01*
X83200087Y-94483897D01*
X83199238Y-94486675D01*
X83194870Y-94503322D01*
X83194248Y-94506152D01*
X83191148Y-94514420D01*
X83190494Y-94523224D01*
X83190493Y-94523227D01*
X83187694Y-94560899D01*
X83186561Y-94570773D01*
X83184500Y-94584009D01*
X83184500Y-94599285D01*
X83184159Y-94608474D01*
X83180524Y-94657392D01*
X83182368Y-94666032D01*
X83182922Y-94674154D01*
X83184500Y-94689106D01*
X83184500Y-103570039D01*
X83183165Y-103581985D01*
X83183639Y-103582023D01*
X83182930Y-103590832D01*
X83180981Y-103599447D01*
X83181528Y-103608264D01*
X83181528Y-103608265D01*
X83184262Y-103652328D01*
X83184500Y-103660007D01*
X83184500Y-103675940D01*
X83185126Y-103680308D01*
X83185126Y-103680314D01*
X83185959Y-103686130D01*
X83186973Y-103696029D01*
X83189859Y-103742538D01*
X83192860Y-103750849D01*
X83193446Y-103753681D01*
X83197610Y-103770384D01*
X83198424Y-103773168D01*
X83199677Y-103781918D01*
X83218969Y-103824348D01*
X83222716Y-103833554D01*
X83229785Y-103853134D01*
X83238540Y-103877387D01*
X83243755Y-103884525D01*
X83245116Y-103887085D01*
X83253805Y-103901955D01*
X83255359Y-103904385D01*
X83259016Y-103912428D01*
X83264781Y-103919118D01*
X83289444Y-103947741D01*
X83295629Y-103955531D01*
X83303522Y-103966336D01*
X83314322Y-103977136D01*
X83320579Y-103983875D01*
X83346833Y-104014345D01*
X83346836Y-104014348D01*
X83352600Y-104021037D01*
X83360015Y-104025843D01*
X83366139Y-104031185D01*
X83377837Y-104040651D01*
X84593687Y-105256500D01*
X85780989Y-106443802D01*
X85814474Y-106505125D01*
X85816836Y-106542287D01*
X85808532Y-106637200D01*
X85809004Y-106642595D01*
X85818512Y-106751267D01*
X85828365Y-106863892D01*
X85887261Y-107083696D01*
X85889548Y-107088600D01*
X85889550Y-107088606D01*
X85972303Y-107266067D01*
X85983432Y-107289934D01*
X85986539Y-107294371D01*
X85986540Y-107294373D01*
X86110847Y-107471904D01*
X86110851Y-107471908D01*
X86113953Y-107476339D01*
X86274861Y-107637247D01*
X86279292Y-107640349D01*
X86279296Y-107640353D01*
X86456827Y-107764660D01*
X86461266Y-107767768D01*
X86466177Y-107770058D01*
X86662594Y-107861650D01*
X86662600Y-107861652D01*
X86667504Y-107863939D01*
X86887308Y-107922835D01*
X86892693Y-107923306D01*
X86892698Y-107923307D01*
X87108605Y-107942196D01*
X87114000Y-107942668D01*
X87119395Y-107942196D01*
X87335302Y-107923307D01*
X87335307Y-107923306D01*
X87340692Y-107922835D01*
X87560496Y-107863939D01*
X87565400Y-107861652D01*
X87565406Y-107861650D01*
X87761823Y-107770058D01*
X87766734Y-107767768D01*
X87771173Y-107764660D01*
X87948704Y-107640353D01*
X87948708Y-107640349D01*
X87953139Y-107637247D01*
X88114047Y-107476339D01*
X88117149Y-107471908D01*
X88117153Y-107471904D01*
X88241460Y-107294373D01*
X88241461Y-107294371D01*
X88244568Y-107289934D01*
X88255697Y-107266067D01*
X88338450Y-107088606D01*
X88338452Y-107088600D01*
X88340739Y-107083696D01*
X88399635Y-106863892D01*
X88409489Y-106751267D01*
X88418996Y-106642595D01*
X88419468Y-106637200D01*
X88407913Y-106505125D01*
X88400107Y-106415898D01*
X88400106Y-106415893D01*
X88399635Y-106410508D01*
X88340739Y-106190704D01*
X88338452Y-106185800D01*
X88338450Y-106185794D01*
X88246858Y-105989377D01*
X88244568Y-105984466D01*
X88241460Y-105980027D01*
X88117153Y-105802496D01*
X88117149Y-105802492D01*
X88114047Y-105798061D01*
X87953139Y-105637153D01*
X87948708Y-105634051D01*
X87948704Y-105634047D01*
X87771173Y-105509740D01*
X87771171Y-105509739D01*
X87766734Y-105506632D01*
X87745761Y-105496852D01*
X87565406Y-105412750D01*
X87565400Y-105412748D01*
X87560496Y-105410461D01*
X87340692Y-105351565D01*
X87335307Y-105351094D01*
X87335302Y-105351093D01*
X87119395Y-105332204D01*
X87114000Y-105331732D01*
X87108605Y-105332204D01*
X86892698Y-105351093D01*
X86892693Y-105351094D01*
X86887308Y-105351565D01*
X86667504Y-105410461D01*
X86662600Y-105412748D01*
X86662594Y-105412750D01*
X86482239Y-105496852D01*
X86461266Y-105506632D01*
X86456823Y-105509743D01*
X86427791Y-105530070D01*
X86361585Y-105552397D01*
X86293818Y-105535385D01*
X86268989Y-105516175D01*
X84221819Y-103469005D01*
X84188334Y-103407682D01*
X84185500Y-103381324D01*
X84185500Y-94881676D01*
X84205185Y-94814637D01*
X84221819Y-94793995D01*
X85252995Y-93762819D01*
X85314318Y-93729334D01*
X85340676Y-93726500D01*
X86543857Y-93726500D01*
X86610896Y-93746185D01*
X86656651Y-93798989D01*
X86666595Y-93868147D01*
X86637570Y-93931703D01*
X86596262Y-93962882D01*
X86461266Y-94025832D01*
X86456829Y-94028939D01*
X86456827Y-94028940D01*
X86279296Y-94153247D01*
X86279292Y-94153251D01*
X86274861Y-94156353D01*
X86113953Y-94317261D01*
X86110849Y-94321694D01*
X85989277Y-94495319D01*
X85983432Y-94503666D01*
X85981142Y-94508577D01*
X85889550Y-94704994D01*
X85889548Y-94705000D01*
X85887261Y-94709904D01*
X85869913Y-94774647D01*
X85834300Y-94907560D01*
X85828365Y-94929708D01*
X85827894Y-94935093D01*
X85827893Y-94935098D01*
X85821121Y-95012506D01*
X85808532Y-95156400D01*
X85809004Y-95161795D01*
X85816666Y-95249367D01*
X85828365Y-95383092D01*
X85829765Y-95388317D01*
X85885300Y-95595577D01*
X85887261Y-95602896D01*
X85889548Y-95607800D01*
X85889550Y-95607806D01*
X85959263Y-95757304D01*
X85983432Y-95809134D01*
X85986539Y-95813571D01*
X85986540Y-95813573D01*
X86110847Y-95991104D01*
X86110851Y-95991108D01*
X86113953Y-95995539D01*
X86274861Y-96156447D01*
X86279292Y-96159549D01*
X86279296Y-96159553D01*
X86453097Y-96281248D01*
X86461266Y-96286968D01*
X86466177Y-96289258D01*
X86662594Y-96380850D01*
X86662600Y-96380852D01*
X86667504Y-96383139D01*
X86887308Y-96442035D01*
X86892693Y-96442506D01*
X86892698Y-96442507D01*
X87108605Y-96461396D01*
X87114000Y-96461868D01*
X87119395Y-96461396D01*
X87335302Y-96442507D01*
X87335307Y-96442506D01*
X87340692Y-96442035D01*
X87560496Y-96383139D01*
X87565400Y-96380852D01*
X87565406Y-96380850D01*
X87761823Y-96289258D01*
X87766734Y-96286968D01*
X87774903Y-96281248D01*
X87948704Y-96159553D01*
X87948708Y-96159549D01*
X87953139Y-96156447D01*
X88114047Y-95995539D01*
X88117149Y-95991108D01*
X88117153Y-95991104D01*
X88241460Y-95813573D01*
X88241461Y-95813571D01*
X88244568Y-95809134D01*
X88304741Y-95680094D01*
X88350912Y-95627656D01*
X88417122Y-95608500D01*
X94156456Y-95608500D01*
X94223495Y-95628185D01*
X94244137Y-95644819D01*
X95871181Y-97271862D01*
X95904666Y-97333185D01*
X95907500Y-97359543D01*
X95907500Y-97747391D01*
X95905400Y-97767123D01*
X95905206Y-97771243D01*
X95903049Y-97781261D01*
X95904254Y-97791440D01*
X95906640Y-97811601D01*
X95906953Y-97816909D01*
X95907078Y-97816899D01*
X95907500Y-97822004D01*
X95907500Y-97827115D01*
X95908339Y-97832155D01*
X95910400Y-97844539D01*
X95911222Y-97850318D01*
X95916764Y-97897138D01*
X95920423Y-97904758D01*
X95921812Y-97913103D01*
X95926676Y-97922118D01*
X95926678Y-97922123D01*
X95944215Y-97954623D01*
X95946845Y-97959784D01*
X95967274Y-98002326D01*
X95970592Y-98006274D01*
X95972498Y-98008180D01*
X95973994Y-98009811D01*
X95974214Y-98010220D01*
X95974175Y-98010256D01*
X95974326Y-98010428D01*
X95977222Y-98015794D01*
X95984744Y-98022747D01*
X96013676Y-98049492D01*
X96017185Y-98052867D01*
X96413131Y-98448813D01*
X96446616Y-98510136D01*
X96447067Y-98560683D01*
X96438500Y-98603752D01*
X96438500Y-99786248D01*
X96450133Y-99844731D01*
X96494448Y-99911052D01*
X96560769Y-99955367D01*
X96572745Y-99957749D01*
X96572747Y-99957750D01*
X96591326Y-99961445D01*
X96619252Y-99967000D01*
X97166748Y-99967000D01*
X97194674Y-99961445D01*
X97213253Y-99957750D01*
X97213255Y-99957749D01*
X97225231Y-99955367D01*
X97291552Y-99911052D01*
X97335867Y-99844731D01*
X97347500Y-99786248D01*
X97347500Y-98603752D01*
X97346746Y-98599962D01*
X97356600Y-98538520D01*
X97364182Y-98521371D01*
X97365156Y-98510136D01*
X97370369Y-98449941D01*
X97374251Y-98405120D01*
X97346120Y-98291875D01*
X97282825Y-98193848D01*
X97191189Y-98121608D01*
X97081094Y-98082945D01*
X97075956Y-98082500D01*
X97074380Y-98082500D01*
X97065691Y-98080629D01*
X97066337Y-98077629D01*
X97014554Y-98057438D01*
X97002643Y-98046961D01*
X96644819Y-97689137D01*
X96611334Y-97627814D01*
X96608500Y-97601456D01*
X96608500Y-97213609D01*
X96610600Y-97193877D01*
X96610794Y-97189757D01*
X96612951Y-97179739D01*
X96609360Y-97149399D01*
X96609047Y-97144091D01*
X96608922Y-97144101D01*
X96608500Y-97138996D01*
X96608500Y-97133885D01*
X96605600Y-97116461D01*
X96604778Y-97110682D01*
X96600441Y-97074040D01*
X96600440Y-97074038D01*
X96599236Y-97063862D01*
X96595577Y-97056242D01*
X96594188Y-97047897D01*
X96589324Y-97038882D01*
X96589322Y-97038877D01*
X96571785Y-97006377D01*
X96569155Y-97001216D01*
X96548726Y-96958674D01*
X96545408Y-96954726D01*
X96543502Y-96952820D01*
X96542006Y-96951189D01*
X96541786Y-96950780D01*
X96541825Y-96950744D01*
X96541674Y-96950572D01*
X96538778Y-96945206D01*
X96502324Y-96911508D01*
X96498815Y-96908133D01*
X94636631Y-95045949D01*
X94624154Y-95030500D01*
X94621381Y-95027452D01*
X94615825Y-95018848D01*
X94591824Y-94999927D01*
X94587856Y-94996401D01*
X94587775Y-94996497D01*
X94583873Y-94993191D01*
X94580254Y-94989572D01*
X94565886Y-94979304D01*
X94561245Y-94975821D01*
X94524189Y-94946608D01*
X94516213Y-94943807D01*
X94509331Y-94938889D01*
X94499517Y-94935954D01*
X94499515Y-94935953D01*
X94464156Y-94925379D01*
X94458597Y-94923573D01*
X94421453Y-94910529D01*
X94421451Y-94910529D01*
X94414094Y-94907945D01*
X94408956Y-94907500D01*
X94406274Y-94907500D01*
X94404050Y-94907404D01*
X94403612Y-94907273D01*
X94403614Y-94907219D01*
X94403383Y-94907204D01*
X94397536Y-94905456D01*
X94387295Y-94905858D01*
X94387292Y-94905858D01*
X94347955Y-94907404D01*
X94343087Y-94907500D01*
X88488833Y-94907500D01*
X88421794Y-94887815D01*
X88376039Y-94835011D01*
X88369058Y-94815593D01*
X88346176Y-94730196D01*
X88340739Y-94709904D01*
X88338452Y-94705000D01*
X88338450Y-94704994D01*
X88246858Y-94508577D01*
X88244568Y-94503666D01*
X88238724Y-94495319D01*
X88117151Y-94321694D01*
X88114047Y-94317261D01*
X87953139Y-94156353D01*
X87948708Y-94153251D01*
X87948704Y-94153247D01*
X87771173Y-94028940D01*
X87771171Y-94028939D01*
X87766734Y-94025832D01*
X87631738Y-93962882D01*
X87579299Y-93916710D01*
X87560147Y-93849516D01*
X87580363Y-93782635D01*
X87633528Y-93737300D01*
X87684143Y-93726500D01*
X88887324Y-93726500D01*
X88954363Y-93746185D01*
X88975005Y-93762819D01*
X89250625Y-94038439D01*
X89258128Y-94047828D01*
X89258490Y-94047520D01*
X89264215Y-94054246D01*
X89268930Y-94061720D01*
X89275553Y-94067569D01*
X89308643Y-94096793D01*
X89314241Y-94102055D01*
X89325506Y-94113320D01*
X89329038Y-94115967D01*
X89329039Y-94115968D01*
X89333736Y-94119488D01*
X89341457Y-94125773D01*
X89367193Y-94148502D01*
X89376388Y-94156623D01*
X89384384Y-94160377D01*
X89386789Y-94161957D01*
X89401561Y-94170834D01*
X89404105Y-94172227D01*
X89411176Y-94177526D01*
X89419452Y-94180628D01*
X89419451Y-94180628D01*
X89454806Y-94193882D01*
X89463977Y-94197747D01*
X89498166Y-94213799D01*
X89498170Y-94213800D01*
X89506163Y-94217553D01*
X89514891Y-94218912D01*
X89517652Y-94219756D01*
X89534321Y-94224129D01*
X89537144Y-94224750D01*
X89545419Y-94227852D01*
X89554228Y-94228507D01*
X89554230Y-94228507D01*
X89587146Y-94230953D01*
X89590270Y-94231185D01*
X89591898Y-94231306D01*
X89601779Y-94232440D01*
X89615009Y-94234500D01*
X89630284Y-94234500D01*
X89639473Y-94234841D01*
X89688391Y-94238476D01*
X89697031Y-94236632D01*
X89705153Y-94236078D01*
X89720105Y-94234500D01*
X93140039Y-94234500D01*
X93151985Y-94235835D01*
X93152023Y-94235361D01*
X93160832Y-94236070D01*
X93169447Y-94238019D01*
X93178264Y-94237472D01*
X93178265Y-94237472D01*
X93222328Y-94234738D01*
X93230007Y-94234500D01*
X93245940Y-94234500D01*
X93250308Y-94233874D01*
X93250314Y-94233874D01*
X93256130Y-94233041D01*
X93266029Y-94232027D01*
X93298452Y-94230015D01*
X93303722Y-94229688D01*
X93312538Y-94229141D01*
X93320849Y-94226140D01*
X93323681Y-94225554D01*
X93340384Y-94221390D01*
X93343168Y-94220576D01*
X93351918Y-94219323D01*
X93394348Y-94200031D01*
X93403554Y-94196284D01*
X93439075Y-94183461D01*
X93439077Y-94183460D01*
X93447387Y-94180460D01*
X93454525Y-94175245D01*
X93457085Y-94173884D01*
X93471955Y-94165195D01*
X93474385Y-94163641D01*
X93482428Y-94159984D01*
X93517743Y-94129554D01*
X93525531Y-94123371D01*
X93536336Y-94115478D01*
X93547136Y-94104678D01*
X93553875Y-94098421D01*
X93584345Y-94072167D01*
X93584348Y-94072164D01*
X93591037Y-94066400D01*
X93595843Y-94058985D01*
X93601185Y-94052861D01*
X93610651Y-94041163D01*
X94784439Y-92867375D01*
X94793828Y-92859872D01*
X94793520Y-92859510D01*
X94800246Y-92853785D01*
X94807720Y-92849070D01*
X94842793Y-92809357D01*
X94848055Y-92803759D01*
X94859320Y-92792494D01*
X94865490Y-92784262D01*
X94871773Y-92776543D01*
X94896776Y-92748233D01*
X94896777Y-92748231D01*
X94902623Y-92741612D01*
X94906377Y-92733616D01*
X94907957Y-92731211D01*
X94916834Y-92716439D01*
X94918227Y-92713895D01*
X94923526Y-92706824D01*
X94939883Y-92663193D01*
X94943747Y-92654023D01*
X94959799Y-92619834D01*
X94959800Y-92619830D01*
X94963553Y-92611837D01*
X94964912Y-92603109D01*
X94965756Y-92600348D01*
X94970129Y-92583679D01*
X94970750Y-92580856D01*
X94973852Y-92572581D01*
X94977306Y-92526101D01*
X94978441Y-92516215D01*
X94978628Y-92515014D01*
X94980500Y-92502991D01*
X94980500Y-92487716D01*
X94980841Y-92478527D01*
X94983821Y-92438419D01*
X94984476Y-92429609D01*
X94982632Y-92420969D01*
X94982078Y-92412847D01*
X94980500Y-92397895D01*
X94980500Y-90857726D01*
X95305501Y-90857726D01*
X95305864Y-90864431D01*
X95311408Y-90915477D01*
X95314978Y-90930488D01*
X95360227Y-91051190D01*
X95368626Y-91066532D01*
X95445298Y-91168835D01*
X95457665Y-91181202D01*
X95559968Y-91257874D01*
X95575310Y-91266273D01*
X95696015Y-91311524D01*
X95711018Y-91315091D01*
X95762073Y-91320637D01*
X95768771Y-91321000D01*
X96240170Y-91321000D01*
X96255169Y-91316596D01*
X96256356Y-91315226D01*
X96258000Y-91307668D01*
X96258000Y-90640330D01*
X96253596Y-90625331D01*
X96252226Y-90624144D01*
X96244668Y-90622500D01*
X95323331Y-90622500D01*
X95308332Y-90626904D01*
X95307145Y-90628274D01*
X95305501Y-90635832D01*
X95305501Y-90857726D01*
X94980500Y-90857726D01*
X94980500Y-90096670D01*
X95305500Y-90096670D01*
X95309904Y-90111669D01*
X95311274Y-90112856D01*
X95318832Y-90114500D01*
X96240170Y-90114500D01*
X96255169Y-90110096D01*
X96256356Y-90108726D01*
X96258000Y-90101168D01*
X96258000Y-89433831D01*
X96253596Y-89418832D01*
X96252226Y-89417645D01*
X96244668Y-89416001D01*
X95768774Y-89416001D01*
X95762069Y-89416364D01*
X95711023Y-89421908D01*
X95696012Y-89425478D01*
X95575310Y-89470727D01*
X95559968Y-89479126D01*
X95457665Y-89555798D01*
X95445298Y-89568165D01*
X95368626Y-89670468D01*
X95360227Y-89685810D01*
X95314976Y-89806515D01*
X95311409Y-89821518D01*
X95305863Y-89872573D01*
X95305500Y-89879271D01*
X95305500Y-90096670D01*
X94980500Y-90096670D01*
X94980500Y-87642676D01*
X95000185Y-87575637D01*
X95016819Y-87554995D01*
X96331642Y-86240172D01*
X96392965Y-86206687D01*
X96462657Y-86211671D01*
X96518590Y-86253543D01*
X96542262Y-86311667D01*
X96561956Y-86461262D01*
X96622464Y-86607341D01*
X96718718Y-86732782D01*
X96844159Y-86829036D01*
X96851667Y-86832146D01*
X96982729Y-86886434D01*
X96982731Y-86886435D01*
X96990238Y-86889544D01*
X96998297Y-86890605D01*
X97003078Y-86891886D01*
X97058666Y-86923980D01*
X97778852Y-87644166D01*
X97812337Y-87705489D01*
X97807353Y-87775181D01*
X97760063Y-87834948D01*
X97700948Y-87874448D01*
X97656633Y-87940769D01*
X97654251Y-87952745D01*
X97654250Y-87952747D01*
X97649617Y-87976041D01*
X97617232Y-88037952D01*
X97556517Y-88072526D01*
X97486747Y-88068787D01*
X97430075Y-88027921D01*
X97406383Y-87976041D01*
X97401750Y-87952747D01*
X97401749Y-87952745D01*
X97399367Y-87940769D01*
X97355052Y-87874448D01*
X97288731Y-87830133D01*
X97276755Y-87827751D01*
X97276753Y-87827750D01*
X97250377Y-87822504D01*
X97230248Y-87818500D01*
X95793752Y-87818500D01*
X95773623Y-87822504D01*
X95747247Y-87827750D01*
X95747245Y-87827751D01*
X95735269Y-87830133D01*
X95668948Y-87874448D01*
X95624633Y-87940769D01*
X95613000Y-87999252D01*
X95613000Y-88927748D01*
X95617464Y-88950191D01*
X95620872Y-88967321D01*
X95624633Y-88986231D01*
X95668948Y-89052552D01*
X95735269Y-89096867D01*
X95747245Y-89099249D01*
X95747247Y-89099250D01*
X95765826Y-89102945D01*
X95793752Y-89108500D01*
X96609956Y-89108500D01*
X96676995Y-89128185D01*
X96697637Y-89144819D01*
X96782083Y-89229265D01*
X96815568Y-89290588D01*
X96810584Y-89360280D01*
X96788115Y-89398148D01*
X96767645Y-89421772D01*
X96766000Y-89429332D01*
X96766000Y-91303169D01*
X96770404Y-91318168D01*
X96771774Y-91319355D01*
X96779332Y-91320999D01*
X97255226Y-91320999D01*
X97261931Y-91320636D01*
X97312977Y-91315092D01*
X97327988Y-91311522D01*
X97448690Y-91266273D01*
X97464032Y-91257874D01*
X97566335Y-91181202D01*
X97578702Y-91168835D01*
X97660672Y-91059462D01*
X97662065Y-91060506D01*
X97704052Y-91018616D01*
X97772342Y-91003843D01*
X97787543Y-91005900D01*
X97805623Y-91009496D01*
X97817281Y-91011815D01*
X97879192Y-91044200D01*
X97913766Y-91104916D01*
X97910026Y-91174685D01*
X97869159Y-91231357D01*
X97859265Y-91238297D01*
X97835280Y-91253430D01*
X97829435Y-91260048D01*
X97829433Y-91260050D01*
X97746223Y-91354268D01*
X97746221Y-91354270D01*
X97740377Y-91360888D01*
X97679447Y-91490663D01*
X97678088Y-91499388D01*
X97678088Y-91499390D01*
X97667384Y-91568139D01*
X97657391Y-91632323D01*
X97658537Y-91641085D01*
X97665884Y-91697272D01*
X97655058Y-91766298D01*
X97608633Y-91818513D01*
X97541347Y-91837340D01*
X97540433Y-91837266D01*
X97539239Y-91836909D01*
X97395876Y-91836033D01*
X97258029Y-91875430D01*
X97136780Y-91951932D01*
X97132055Y-91957282D01*
X97069026Y-91985392D01*
X97052470Y-91986502D01*
X96308607Y-91986502D01*
X96288875Y-91984402D01*
X96284755Y-91984208D01*
X96274737Y-91982051D01*
X96246509Y-91985392D01*
X96244397Y-91985642D01*
X96239089Y-91985955D01*
X96239099Y-91986080D01*
X96233994Y-91986502D01*
X96228883Y-91986502D01*
X96211459Y-91989402D01*
X96205680Y-91990224D01*
X96169038Y-91994561D01*
X96169036Y-91994562D01*
X96158860Y-91995766D01*
X96151240Y-91999425D01*
X96142895Y-92000814D01*
X96133880Y-92005678D01*
X96133875Y-92005680D01*
X96101375Y-92023217D01*
X96096214Y-92025847D01*
X96053672Y-92046276D01*
X96049724Y-92049594D01*
X96047818Y-92051500D01*
X96046187Y-92052996D01*
X96045778Y-92053216D01*
X96045742Y-92053177D01*
X96045570Y-92053328D01*
X96040204Y-92056224D01*
X96033251Y-92063746D01*
X96006506Y-92092678D01*
X96003131Y-92096187D01*
X95410949Y-92688369D01*
X95395500Y-92700846D01*
X95392452Y-92703619D01*
X95383848Y-92709175D01*
X95373321Y-92722529D01*
X95364927Y-92733176D01*
X95361401Y-92737144D01*
X95361497Y-92737225D01*
X95358191Y-92741127D01*
X95354572Y-92744746D01*
X95346867Y-92755529D01*
X95344313Y-92759103D01*
X95340821Y-92763755D01*
X95311608Y-92800811D01*
X95308807Y-92808787D01*
X95303889Y-92815669D01*
X95300954Y-92825483D01*
X95300953Y-92825485D01*
X95290379Y-92860844D01*
X95288573Y-92866403D01*
X95275529Y-92903547D01*
X95272945Y-92910906D01*
X95272500Y-92916044D01*
X95272500Y-92918726D01*
X95272404Y-92920950D01*
X95272273Y-92921388D01*
X95272219Y-92921386D01*
X95272204Y-92921617D01*
X95270456Y-92927464D01*
X95270858Y-92937705D01*
X95270858Y-92937708D01*
X95272404Y-92977045D01*
X95272500Y-92981913D01*
X95272500Y-93048902D01*
X95252815Y-93115941D01*
X95236183Y-93136582D01*
X95234601Y-93138164D01*
X95224448Y-93144948D01*
X95217664Y-93155101D01*
X95217662Y-93155103D01*
X95212523Y-93162794D01*
X95180133Y-93211269D01*
X95168500Y-93269752D01*
X95168500Y-94452248D01*
X95180133Y-94510731D01*
X95224448Y-94577052D01*
X95290769Y-94621367D01*
X95302745Y-94623749D01*
X95302747Y-94623750D01*
X95321326Y-94627445D01*
X95349252Y-94633000D01*
X95881641Y-94633000D01*
X95948680Y-94652685D01*
X95994435Y-94705489D01*
X96004379Y-94774647D01*
X95975354Y-94838203D01*
X95947809Y-94861870D01*
X95930280Y-94872930D01*
X95924435Y-94879548D01*
X95924433Y-94879550D01*
X95841223Y-94973768D01*
X95841221Y-94973770D01*
X95835377Y-94980388D01*
X95774447Y-95110163D01*
X95773088Y-95118888D01*
X95773088Y-95118890D01*
X95753750Y-95243093D01*
X95752391Y-95251823D01*
X95753537Y-95260585D01*
X95768852Y-95377702D01*
X95770980Y-95393979D01*
X95828720Y-95525203D01*
X95845704Y-95545408D01*
X95906836Y-95618133D01*
X95920970Y-95634948D01*
X96040313Y-95714390D01*
X96121302Y-95739692D01*
X96168722Y-95754507D01*
X96168723Y-95754507D01*
X96177157Y-95757142D01*
X96185992Y-95757304D01*
X96205799Y-95757667D01*
X96320499Y-95759770D01*
X96329015Y-95757448D01*
X96329017Y-95757448D01*
X96450298Y-95724383D01*
X96450301Y-95724382D01*
X96458817Y-95722060D01*
X96580991Y-95647045D01*
X96586920Y-95640495D01*
X96591015Y-95637095D01*
X96655169Y-95609417D01*
X96670223Y-95608500D01*
X99763391Y-95608500D01*
X99783123Y-95610600D01*
X99787243Y-95610794D01*
X99797261Y-95612951D01*
X99827601Y-95609360D01*
X99832909Y-95609047D01*
X99832899Y-95608922D01*
X99838004Y-95608500D01*
X99843115Y-95608500D01*
X99860539Y-95605600D01*
X99866318Y-95604778D01*
X99902960Y-95600441D01*
X99902962Y-95600440D01*
X99913138Y-95599236D01*
X99920758Y-95595577D01*
X99929103Y-95594188D01*
X99938118Y-95589324D01*
X99938123Y-95589322D01*
X99970623Y-95571785D01*
X99975784Y-95569155D01*
X100018326Y-95548726D01*
X100022274Y-95545408D01*
X100024180Y-95543502D01*
X100025811Y-95542006D01*
X100026220Y-95541786D01*
X100026256Y-95541825D01*
X100026428Y-95541674D01*
X100031794Y-95538778D01*
X100065492Y-95502324D01*
X100068867Y-95498815D01*
X101296051Y-94271631D01*
X101311500Y-94259154D01*
X101314548Y-94256381D01*
X101323152Y-94250825D01*
X101342073Y-94226824D01*
X101345599Y-94222856D01*
X101345503Y-94222775D01*
X101348809Y-94218873D01*
X101352428Y-94215254D01*
X101362696Y-94200886D01*
X101366179Y-94196245D01*
X101395392Y-94159189D01*
X101398193Y-94151213D01*
X101403111Y-94144331D01*
X101410541Y-94119488D01*
X101416618Y-94099166D01*
X101418423Y-94093610D01*
X101431471Y-94056452D01*
X101434055Y-94049094D01*
X101434500Y-94043956D01*
X101434500Y-94041274D01*
X101434596Y-94039048D01*
X101434726Y-94038612D01*
X101434781Y-94038614D01*
X101434796Y-94038380D01*
X101436543Y-94032537D01*
X101435790Y-94013350D01*
X101434596Y-93982971D01*
X101434500Y-93978104D01*
X101434500Y-91404634D01*
X101436601Y-91384899D01*
X101436795Y-91380777D01*
X101438952Y-91370760D01*
X101435360Y-91340413D01*
X101435047Y-91335110D01*
X101434921Y-91335120D01*
X101434500Y-91330028D01*
X101434500Y-91324905D01*
X101431600Y-91307481D01*
X101430778Y-91301702D01*
X101426441Y-91265060D01*
X101426440Y-91265058D01*
X101425236Y-91254882D01*
X101421577Y-91247262D01*
X101420188Y-91238917D01*
X101415324Y-91229902D01*
X101415322Y-91229897D01*
X101397785Y-91197397D01*
X101395156Y-91192239D01*
X101394647Y-91191180D01*
X101383369Y-91122231D01*
X101411159Y-91058125D01*
X101469195Y-91019221D01*
X101506425Y-91013500D01*
X101623384Y-91013500D01*
X101690423Y-91033185D01*
X101736178Y-91085989D01*
X101746524Y-91122924D01*
X101748640Y-91140800D01*
X101748953Y-91146109D01*
X101749078Y-91146099D01*
X101749500Y-91151204D01*
X101749500Y-91156315D01*
X101751584Y-91168835D01*
X101752400Y-91173739D01*
X101753222Y-91179518D01*
X101755712Y-91200556D01*
X101758764Y-91226338D01*
X101762423Y-91233958D01*
X101763812Y-91242303D01*
X101768676Y-91251318D01*
X101768678Y-91251323D01*
X101786215Y-91283823D01*
X101788845Y-91288984D01*
X101809274Y-91331526D01*
X101812592Y-91335474D01*
X101814498Y-91337380D01*
X101815994Y-91339011D01*
X101816214Y-91339420D01*
X101816175Y-91339456D01*
X101816326Y-91339628D01*
X101819222Y-91344994D01*
X101834786Y-91359381D01*
X101855676Y-91378692D01*
X101859185Y-91382067D01*
X102516222Y-92039104D01*
X102549707Y-92100427D01*
X102552541Y-92126785D01*
X102552541Y-92899938D01*
X102546845Y-92933352D01*
X102547171Y-92933422D01*
X102545548Y-92940959D01*
X102545538Y-92941019D01*
X102542944Y-92948405D01*
X102542499Y-92953543D01*
X102542499Y-92956230D01*
X102542403Y-92958448D01*
X102542272Y-92958887D01*
X102542217Y-92958885D01*
X102542202Y-92959121D01*
X102540455Y-92964963D01*
X102540857Y-92975202D01*
X102540183Y-92980540D01*
X102512252Y-93044584D01*
X102454130Y-93083361D01*
X102417161Y-93089000D01*
X101953252Y-93089000D01*
X101929111Y-93093802D01*
X101906747Y-93098250D01*
X101906745Y-93098251D01*
X101894769Y-93100633D01*
X101828448Y-93144948D01*
X101784133Y-93211269D01*
X101772500Y-93269752D01*
X101772500Y-94452248D01*
X101784133Y-94510731D01*
X101790918Y-94520885D01*
X101821662Y-94566897D01*
X101821664Y-94566899D01*
X101828448Y-94577052D01*
X101838601Y-94583836D01*
X101840183Y-94585418D01*
X101873667Y-94646742D01*
X101876500Y-94673098D01*
X101876500Y-95634822D01*
X101856815Y-95701861D01*
X101818670Y-95739691D01*
X101772280Y-95768961D01*
X101766435Y-95775579D01*
X101766433Y-95775581D01*
X101683223Y-95869799D01*
X101683221Y-95869801D01*
X101677377Y-95876419D01*
X101616447Y-96006194D01*
X101615088Y-96014919D01*
X101615088Y-96014921D01*
X101595750Y-96139124D01*
X101594391Y-96147854D01*
X101612980Y-96290010D01*
X101670720Y-96421234D01*
X101762970Y-96530979D01*
X101882313Y-96610421D01*
X101962121Y-96635354D01*
X102010722Y-96650538D01*
X102010723Y-96650538D01*
X102019157Y-96653173D01*
X102027992Y-96653335D01*
X102047799Y-96653698D01*
X102162499Y-96655801D01*
X102171015Y-96653479D01*
X102171017Y-96653479D01*
X102292298Y-96620414D01*
X102292301Y-96620413D01*
X102300817Y-96618091D01*
X102422991Y-96543076D01*
X102519200Y-96436785D01*
X102581710Y-96307764D01*
X102605496Y-96166385D01*
X102605647Y-96154031D01*
X102604763Y-96147854D01*
X102586575Y-96020853D01*
X102586574Y-96020851D01*
X102585323Y-96012113D01*
X102582277Y-96005413D01*
X102577500Y-95972064D01*
X102577500Y-95514544D01*
X102597185Y-95447505D01*
X102649989Y-95401750D01*
X102719147Y-95391806D01*
X102782703Y-95420831D01*
X102789181Y-95426863D01*
X103110181Y-95747862D01*
X103143666Y-95809185D01*
X103146500Y-95835543D01*
X103146500Y-98382902D01*
X103126815Y-98449941D01*
X103110183Y-98470582D01*
X103108601Y-98472164D01*
X103098448Y-98478948D01*
X103091664Y-98489101D01*
X103091662Y-98489103D01*
X103076925Y-98511159D01*
X103054133Y-98545269D01*
X103042500Y-98603752D01*
X103042500Y-99786248D01*
X103054133Y-99844731D01*
X103098448Y-99911052D01*
X103164769Y-99955367D01*
X103176745Y-99957749D01*
X103176747Y-99957750D01*
X103195326Y-99961445D01*
X103223252Y-99967000D01*
X103770748Y-99967000D01*
X103798674Y-99961445D01*
X103817253Y-99957750D01*
X103817255Y-99957749D01*
X103829231Y-99955367D01*
X103895552Y-99911052D01*
X103939867Y-99844731D01*
X103951500Y-99786248D01*
X103951500Y-98603752D01*
X103939867Y-98545269D01*
X103917075Y-98511159D01*
X103902338Y-98489103D01*
X103902336Y-98489101D01*
X103895552Y-98478948D01*
X103885399Y-98472164D01*
X103883817Y-98470582D01*
X103850333Y-98409258D01*
X103847500Y-98382902D01*
X103847500Y-95689609D01*
X103849600Y-95669877D01*
X103849794Y-95665757D01*
X103851951Y-95655739D01*
X103848360Y-95625399D01*
X103848047Y-95620091D01*
X103847922Y-95620101D01*
X103847500Y-95614996D01*
X103847500Y-95609885D01*
X103844600Y-95592461D01*
X103843778Y-95586682D01*
X103839441Y-95550040D01*
X103839440Y-95550038D01*
X103838236Y-95539862D01*
X103834577Y-95532242D01*
X103833188Y-95523897D01*
X103828324Y-95514882D01*
X103828322Y-95514877D01*
X103810785Y-95482377D01*
X103808155Y-95477216D01*
X103787726Y-95434674D01*
X103784408Y-95430726D01*
X103782502Y-95428820D01*
X103781006Y-95427189D01*
X103780786Y-95426780D01*
X103780825Y-95426744D01*
X103780674Y-95426572D01*
X103777778Y-95421206D01*
X103741324Y-95387508D01*
X103737815Y-95384133D01*
X103289860Y-94936178D01*
X103256375Y-94874855D01*
X103253541Y-94848497D01*
X103253541Y-94773157D01*
X103255640Y-94753439D01*
X103255747Y-94751163D01*
X103255942Y-94750599D01*
X103256319Y-94747057D01*
X103257993Y-94739282D01*
X103259724Y-94739655D01*
X103278566Y-94685124D01*
X103333465Y-94641906D01*
X103379610Y-94633000D01*
X103404456Y-94633000D01*
X103471495Y-94652685D01*
X103492137Y-94669319D01*
X106254182Y-97431363D01*
X106287667Y-97492686D01*
X106290501Y-97519044D01*
X106290501Y-98299000D01*
X106270816Y-98366039D01*
X106218012Y-98411794D01*
X106166501Y-98423000D01*
X105763252Y-98423000D01*
X105735326Y-98428555D01*
X105716747Y-98432250D01*
X105716745Y-98432251D01*
X105704769Y-98434633D01*
X105638448Y-98478948D01*
X105594133Y-98545269D01*
X105582500Y-98603752D01*
X105582500Y-99786248D01*
X105594133Y-99844731D01*
X105600918Y-99854885D01*
X105631662Y-99900897D01*
X105631664Y-99900899D01*
X105638448Y-99911052D01*
X105648601Y-99917836D01*
X105650183Y-99919418D01*
X105683667Y-99980742D01*
X105686500Y-100007098D01*
X105686500Y-101601956D01*
X105666815Y-101668995D01*
X105650181Y-101689637D01*
X104018681Y-103321137D01*
X103957358Y-103354622D01*
X103887666Y-103349638D01*
X103831733Y-103307766D01*
X103812024Y-103268393D01*
X103810098Y-103261833D01*
X103808726Y-103260644D01*
X103801168Y-103259000D01*
X102879830Y-103259000D01*
X102864831Y-103263404D01*
X102863644Y-103264774D01*
X102862000Y-103272332D01*
X102862000Y-103939671D01*
X102867121Y-103957110D01*
X102867123Y-104026979D01*
X102835826Y-104079728D01*
X99861168Y-107054386D01*
X99799845Y-107087871D01*
X99730153Y-107082887D01*
X99674220Y-107041015D01*
X99649803Y-106975551D01*
X99649487Y-106966705D01*
X99649487Y-105338579D01*
X99651587Y-105318847D01*
X99651781Y-105314727D01*
X99653938Y-105304709D01*
X99650347Y-105274369D01*
X99650034Y-105269061D01*
X99649909Y-105269071D01*
X99649487Y-105263966D01*
X99649487Y-105258855D01*
X99646587Y-105241431D01*
X99645765Y-105235652D01*
X99641428Y-105199010D01*
X99641427Y-105199008D01*
X99640223Y-105188832D01*
X99636564Y-105181212D01*
X99635175Y-105172867D01*
X99630311Y-105163852D01*
X99630309Y-105163847D01*
X99612772Y-105131347D01*
X99610142Y-105126186D01*
X99589713Y-105083644D01*
X99586395Y-105079696D01*
X99584489Y-105077790D01*
X99582993Y-105076159D01*
X99582773Y-105075750D01*
X99582812Y-105075714D01*
X99582661Y-105075542D01*
X99579765Y-105070176D01*
X99572243Y-105063223D01*
X99572241Y-105063220D01*
X99568260Y-105059540D01*
X99532393Y-104999579D01*
X99534637Y-104929745D01*
X99574280Y-104872211D01*
X99604978Y-104853923D01*
X99702313Y-104813605D01*
X99709821Y-104810495D01*
X99835262Y-104714241D01*
X99840207Y-104707796D01*
X99842826Y-104705178D01*
X99849270Y-104700233D01*
X99868436Y-104675256D01*
X99903545Y-104629500D01*
X99945524Y-104574792D01*
X99967072Y-104522770D01*
X100002922Y-104436222D01*
X100002923Y-104436220D01*
X100006032Y-104428713D01*
X100009375Y-104403324D01*
X100021488Y-104311312D01*
X100025609Y-104280010D01*
X100026670Y-104271951D01*
X100022549Y-104240649D01*
X100021488Y-104224464D01*
X100021488Y-103088609D01*
X100041173Y-103021570D01*
X100057807Y-103000928D01*
X100802222Y-102256513D01*
X100863545Y-102223028D01*
X100933237Y-102228012D01*
X100989170Y-102269884D01*
X101013587Y-102335348D01*
X101008706Y-102379717D01*
X101005374Y-102390858D01*
X101003573Y-102396401D01*
X100999947Y-102406726D01*
X100987945Y-102440904D01*
X100987500Y-102446042D01*
X100987500Y-102448724D01*
X100987404Y-102450948D01*
X100987273Y-102451386D01*
X100987219Y-102451384D01*
X100987204Y-102451615D01*
X100985456Y-102457462D01*
X100985858Y-102467703D01*
X100985858Y-102467706D01*
X100987404Y-102507043D01*
X100987500Y-102511911D01*
X100987500Y-103614807D01*
X100967815Y-103681846D01*
X100956444Y-103696888D01*
X100915377Y-103743388D01*
X100854447Y-103873163D01*
X100853088Y-103881888D01*
X100853088Y-103881890D01*
X100834997Y-103998083D01*
X100832391Y-104014823D01*
X100850980Y-104156979D01*
X100908720Y-104288203D01*
X101000970Y-104397948D01*
X101036442Y-104421560D01*
X101092849Y-104459108D01*
X101120313Y-104477390D01*
X101216809Y-104507537D01*
X101248722Y-104517507D01*
X101248723Y-104517507D01*
X101257157Y-104520142D01*
X101265992Y-104520304D01*
X101285798Y-104520667D01*
X101400499Y-104522770D01*
X101409015Y-104520448D01*
X101409017Y-104520448D01*
X101530298Y-104487383D01*
X101530301Y-104487382D01*
X101538817Y-104485060D01*
X101649763Y-104416939D01*
X101653462Y-104414668D01*
X101653463Y-104414667D01*
X101660991Y-104410045D01*
X101667075Y-104403324D01*
X101714283Y-104351168D01*
X101757200Y-104303754D01*
X101819710Y-104174733D01*
X101838857Y-104060927D01*
X101869391Y-103998083D01*
X101929054Y-103961723D01*
X101961138Y-103957500D01*
X102336170Y-103957500D01*
X102351169Y-103953096D01*
X102352356Y-103951726D01*
X102354000Y-103944168D01*
X102354000Y-102875000D01*
X102373685Y-102807961D01*
X102426489Y-102762206D01*
X102478000Y-102751000D01*
X103796669Y-102751000D01*
X103811668Y-102746596D01*
X103812855Y-102745226D01*
X103814499Y-102737668D01*
X103814499Y-102515774D01*
X103814136Y-102509069D01*
X103808592Y-102458023D01*
X103805022Y-102443012D01*
X103759059Y-102320406D01*
X103753958Y-102250723D01*
X103787487Y-102189197D01*
X104979051Y-100997633D01*
X104994500Y-100985156D01*
X104997548Y-100982383D01*
X105006152Y-100976827D01*
X105025073Y-100952826D01*
X105028600Y-100948857D01*
X105028504Y-100948776D01*
X105031810Y-100944874D01*
X105035429Y-100941255D01*
X105045697Y-100926887D01*
X105049198Y-100922223D01*
X105072046Y-100893241D01*
X105072046Y-100893240D01*
X105078392Y-100885191D01*
X105081194Y-100877213D01*
X105086111Y-100870332D01*
X105099620Y-100825160D01*
X105101426Y-100819603D01*
X105114471Y-100782458D01*
X105114473Y-100782448D01*
X105117055Y-100775096D01*
X105117500Y-100769958D01*
X105117500Y-100767276D01*
X105117596Y-100765052D01*
X105117727Y-100764614D01*
X105117781Y-100764616D01*
X105117796Y-100764385D01*
X105119544Y-100758538D01*
X105118844Y-100740703D01*
X105117596Y-100708957D01*
X105117500Y-100704089D01*
X105117500Y-100007098D01*
X105137185Y-99940059D01*
X105153817Y-99919418D01*
X105155399Y-99917836D01*
X105165552Y-99911052D01*
X105172336Y-99900899D01*
X105172338Y-99900897D01*
X105203082Y-99854885D01*
X105209867Y-99844731D01*
X105221500Y-99786248D01*
X105221500Y-98603752D01*
X105209867Y-98545269D01*
X105165552Y-98478948D01*
X105099231Y-98434633D01*
X105087255Y-98432251D01*
X105087253Y-98432250D01*
X105068674Y-98428555D01*
X105040748Y-98423000D01*
X104493252Y-98423000D01*
X104465326Y-98428555D01*
X104446747Y-98432250D01*
X104446745Y-98432251D01*
X104434769Y-98434633D01*
X104368448Y-98478948D01*
X104324133Y-98545269D01*
X104312500Y-98603752D01*
X104312500Y-99786248D01*
X104324133Y-99844731D01*
X104330918Y-99854885D01*
X104361662Y-99900897D01*
X104361664Y-99900899D01*
X104368448Y-99911052D01*
X104378601Y-99917836D01*
X104380183Y-99919418D01*
X104413667Y-99980742D01*
X104416500Y-100007098D01*
X104416500Y-100517458D01*
X104396815Y-100584497D01*
X104380181Y-100605139D01*
X103718681Y-101266639D01*
X103657358Y-101300124D01*
X103587666Y-101295140D01*
X103531733Y-101253268D01*
X103507316Y-101187804D01*
X103507000Y-101178958D01*
X103507000Y-100635752D01*
X103499900Y-100600059D01*
X103497750Y-100589247D01*
X103497749Y-100589245D01*
X103495367Y-100577269D01*
X103451052Y-100510948D01*
X103384731Y-100466633D01*
X103372755Y-100464251D01*
X103372753Y-100464250D01*
X103354174Y-100460555D01*
X103326248Y-100455000D01*
X102851500Y-100455000D01*
X102784461Y-100435315D01*
X102738706Y-100382511D01*
X102727500Y-100331000D01*
X102727500Y-99203562D01*
X102727502Y-99202804D01*
X102727915Y-99135211D01*
X102727969Y-99126376D01*
X102719970Y-99098388D01*
X102716448Y-99081889D01*
X102713576Y-99061829D01*
X102713575Y-99061826D01*
X102712323Y-99053082D01*
X102708665Y-99045036D01*
X102701862Y-99030072D01*
X102695518Y-99012829D01*
X102688573Y-98988531D01*
X102689797Y-98988181D01*
X102681500Y-98949316D01*
X102681500Y-98603752D01*
X102669867Y-98545269D01*
X102625552Y-98478948D01*
X102559231Y-98434633D01*
X102547255Y-98432251D01*
X102547253Y-98432250D01*
X102528674Y-98428555D01*
X102500748Y-98423000D01*
X101953252Y-98423000D01*
X101925326Y-98428555D01*
X101906747Y-98432250D01*
X101906745Y-98432251D01*
X101894769Y-98434633D01*
X101828448Y-98478948D01*
X101821664Y-98489101D01*
X101814385Y-98499995D01*
X101760774Y-98544801D01*
X101691449Y-98553510D01*
X101623601Y-98518787D01*
X100078120Y-96973306D01*
X100051240Y-96933078D01*
X100024146Y-96867666D01*
X100024144Y-96867663D01*
X100021036Y-96860159D01*
X99924782Y-96734718D01*
X99799341Y-96638464D01*
X99755765Y-96620414D01*
X99660771Y-96581066D01*
X99660769Y-96581065D01*
X99653262Y-96577956D01*
X99496500Y-96557318D01*
X99339738Y-96577956D01*
X99332231Y-96581065D01*
X99332229Y-96581066D01*
X99237235Y-96620414D01*
X99193659Y-96638464D01*
X99068218Y-96734718D01*
X98971964Y-96860159D01*
X98968854Y-96867667D01*
X98931158Y-96958674D01*
X98911456Y-97006238D01*
X98890818Y-97163000D01*
X98911456Y-97319762D01*
X98914565Y-97327269D01*
X98914566Y-97327271D01*
X98957683Y-97431363D01*
X98971964Y-97465841D01*
X99068218Y-97591282D01*
X99193659Y-97687536D01*
X99201167Y-97690646D01*
X99332229Y-97744934D01*
X99332231Y-97744935D01*
X99339738Y-97748044D01*
X99379491Y-97753278D01*
X99410279Y-97757331D01*
X99474176Y-97785598D01*
X99481775Y-97792589D01*
X99663562Y-97974376D01*
X99697047Y-98035699D01*
X99693173Y-98089870D01*
X99695372Y-98090348D01*
X99687000Y-98128832D01*
X99687000Y-98923170D01*
X99691404Y-98938169D01*
X99692774Y-98939356D01*
X99700332Y-98941000D01*
X100177169Y-98941000D01*
X100192168Y-98936596D01*
X100193355Y-98935226D01*
X100194999Y-98927668D01*
X100194999Y-98805174D01*
X100214684Y-98738135D01*
X100267488Y-98692380D01*
X100336646Y-98682436D01*
X100400202Y-98711461D01*
X100406680Y-98717493D01*
X101188625Y-99499438D01*
X101196129Y-99508830D01*
X101196491Y-99508522D01*
X101202217Y-99515250D01*
X101206930Y-99522720D01*
X101213548Y-99528565D01*
X101213550Y-99528567D01*
X101246652Y-99557801D01*
X101252250Y-99563063D01*
X101263507Y-99574320D01*
X101267031Y-99576961D01*
X101267038Y-99576967D01*
X101271738Y-99580489D01*
X101279457Y-99586773D01*
X101307767Y-99611776D01*
X101307769Y-99611777D01*
X101314388Y-99617623D01*
X101322383Y-99621377D01*
X101324809Y-99622970D01*
X101339566Y-99631837D01*
X101342109Y-99633229D01*
X101349176Y-99638526D01*
X101357448Y-99641627D01*
X101392813Y-99654885D01*
X101401968Y-99658742D01*
X101444163Y-99678553D01*
X101452897Y-99679913D01*
X101455675Y-99680762D01*
X101472322Y-99685130D01*
X101475152Y-99685752D01*
X101483420Y-99688852D01*
X101492224Y-99689506D01*
X101492227Y-99689507D01*
X101520398Y-99691600D01*
X101529903Y-99692306D01*
X101539773Y-99693439D01*
X101553009Y-99695500D01*
X101568285Y-99695500D01*
X101577472Y-99695841D01*
X101588820Y-99696684D01*
X101611688Y-99698383D01*
X101677084Y-99722980D01*
X101718801Y-99779029D01*
X101726500Y-99822042D01*
X101726500Y-100375500D01*
X101706815Y-100442539D01*
X101654011Y-100488294D01*
X101602500Y-100499500D01*
X101156994Y-100499500D01*
X101140808Y-100498439D01*
X101117559Y-100495378D01*
X101109500Y-100494317D01*
X101101441Y-100495378D01*
X101075336Y-100498815D01*
X100967876Y-100512963D01*
X100952738Y-100514956D01*
X100945228Y-100518067D01*
X100945227Y-100518067D01*
X100833903Y-100564179D01*
X100806659Y-100575464D01*
X100760738Y-100610700D01*
X100695571Y-100635893D01*
X100627127Y-100621855D01*
X100577137Y-100573041D01*
X100561473Y-100504950D01*
X100562973Y-100491750D01*
X100577501Y-100405396D01*
X100581415Y-100382134D01*
X100581474Y-100377343D01*
X100581508Y-100374566D01*
X100581508Y-100374560D01*
X100581566Y-100369780D01*
X100580743Y-100364028D01*
X100562494Y-100236604D01*
X100561242Y-100227862D01*
X100501903Y-100097352D01*
X100493300Y-100087367D01*
X100467703Y-100057661D01*
X100408319Y-99988743D01*
X100288014Y-99910765D01*
X100279549Y-99908234D01*
X100271532Y-99904529D01*
X100272555Y-99902315D01*
X100224877Y-99871332D01*
X100196174Y-99807630D01*
X100195000Y-99790605D01*
X100195000Y-99466830D01*
X100190596Y-99451831D01*
X100189226Y-99450644D01*
X100181668Y-99449000D01*
X99704830Y-99449000D01*
X99689831Y-99453404D01*
X99688644Y-99454774D01*
X99687000Y-99462332D01*
X99687000Y-100007088D01*
X99667315Y-100074127D01*
X99662200Y-100080893D01*
X99659142Y-100085549D01*
X99653296Y-100092168D01*
X99592366Y-100221943D01*
X99591007Y-100230668D01*
X99591007Y-100230670D01*
X99573566Y-100342690D01*
X99543802Y-100405903D01*
X99538723Y-100411294D01*
X98725181Y-101224836D01*
X98663858Y-101258321D01*
X98594166Y-101253337D01*
X98538233Y-101211465D01*
X98513816Y-101146001D01*
X98513500Y-101137155D01*
X98513500Y-100097865D01*
X98533185Y-100030826D01*
X98585989Y-99985071D01*
X98655147Y-99975127D01*
X98718703Y-100004152D01*
X98736726Y-100023500D01*
X98810798Y-100122335D01*
X98823165Y-100134702D01*
X98925468Y-100211374D01*
X98940810Y-100219773D01*
X99061515Y-100265024D01*
X99076518Y-100268591D01*
X99127573Y-100274137D01*
X99134271Y-100274500D01*
X99161170Y-100274500D01*
X99176169Y-100270096D01*
X99177356Y-100268726D01*
X99179000Y-100261168D01*
X99179000Y-98133331D01*
X99174596Y-98118332D01*
X99173226Y-98117145D01*
X99165668Y-98115501D01*
X99134274Y-98115501D01*
X99127569Y-98115864D01*
X99076523Y-98121408D01*
X99061512Y-98124978D01*
X98940810Y-98170227D01*
X98925468Y-98178626D01*
X98823165Y-98255298D01*
X98810798Y-98267665D01*
X98734126Y-98369968D01*
X98725727Y-98385310D01*
X98719688Y-98401420D01*
X98677725Y-98457285D01*
X98612220Y-98481593D01*
X98543972Y-98466629D01*
X98534687Y-98460997D01*
X98518141Y-98449941D01*
X98495231Y-98434633D01*
X98483255Y-98432251D01*
X98483253Y-98432250D01*
X98464674Y-98428555D01*
X98436748Y-98423000D01*
X97889252Y-98423000D01*
X97861326Y-98428555D01*
X97842747Y-98432250D01*
X97842745Y-98432251D01*
X97830769Y-98434633D01*
X97764448Y-98478948D01*
X97720133Y-98545269D01*
X97708500Y-98603752D01*
X97708500Y-99786248D01*
X97720133Y-99844731D01*
X97726918Y-99854885D01*
X97757662Y-99900897D01*
X97757664Y-99900899D01*
X97764448Y-99911052D01*
X97774601Y-99917836D01*
X97776183Y-99919418D01*
X97809667Y-99980742D01*
X97812500Y-100007098D01*
X97812500Y-103570456D01*
X97792815Y-103637495D01*
X97776181Y-103658137D01*
X97419137Y-104015181D01*
X97357814Y-104048666D01*
X97331456Y-104051500D01*
X97181694Y-104051500D01*
X97114655Y-104031815D01*
X97068900Y-103979011D01*
X97058956Y-103909853D01*
X97082468Y-103853134D01*
X97147376Y-103766528D01*
X97155773Y-103751190D01*
X97201024Y-103630485D01*
X97204591Y-103615482D01*
X97210137Y-103564427D01*
X97210500Y-103557729D01*
X97210500Y-103340330D01*
X97206096Y-103325331D01*
X97204726Y-103324144D01*
X97197168Y-103322500D01*
X94815331Y-103322500D01*
X94800332Y-103326904D01*
X94799145Y-103328274D01*
X94797501Y-103335832D01*
X94797501Y-103543457D01*
X94777816Y-103610496D01*
X94725012Y-103656251D01*
X94655854Y-103666195D01*
X94592298Y-103637170D01*
X94585820Y-103631138D01*
X94485819Y-103531137D01*
X94452334Y-103469814D01*
X94449500Y-103443456D01*
X94449500Y-102796670D01*
X94797500Y-102796670D01*
X94801904Y-102811669D01*
X94803274Y-102812856D01*
X94810832Y-102814500D01*
X95732170Y-102814500D01*
X95747169Y-102810096D01*
X95748356Y-102808726D01*
X95750000Y-102801168D01*
X95750000Y-102796670D01*
X96258000Y-102796670D01*
X96262404Y-102811669D01*
X96263774Y-102812856D01*
X96271332Y-102814500D01*
X97192669Y-102814500D01*
X97207668Y-102810096D01*
X97208855Y-102808726D01*
X97210499Y-102801168D01*
X97210499Y-102579274D01*
X97210136Y-102572569D01*
X97204592Y-102521523D01*
X97201022Y-102506512D01*
X97155773Y-102385810D01*
X97147374Y-102370468D01*
X97070702Y-102268165D01*
X97058335Y-102255798D01*
X96956032Y-102179126D01*
X96940690Y-102170727D01*
X96819985Y-102125476D01*
X96804982Y-102121909D01*
X96753927Y-102116363D01*
X96747229Y-102116000D01*
X96275830Y-102116000D01*
X96260831Y-102120404D01*
X96259644Y-102121774D01*
X96258000Y-102129332D01*
X96258000Y-102796670D01*
X95750000Y-102796670D01*
X95750000Y-102133831D01*
X95745596Y-102118832D01*
X95744226Y-102117645D01*
X95736668Y-102116001D01*
X95260774Y-102116001D01*
X95254069Y-102116364D01*
X95203023Y-102121908D01*
X95188012Y-102125478D01*
X95067310Y-102170727D01*
X95051968Y-102179126D01*
X94949665Y-102255798D01*
X94937298Y-102268165D01*
X94860626Y-102370468D01*
X94852227Y-102385810D01*
X94806976Y-102506515D01*
X94803409Y-102521518D01*
X94797863Y-102572573D01*
X94797500Y-102579271D01*
X94797500Y-102796670D01*
X94449500Y-102796670D01*
X94449500Y-101963409D01*
X94451600Y-101943677D01*
X94451794Y-101939557D01*
X94453951Y-101929539D01*
X94450360Y-101899199D01*
X94450047Y-101893891D01*
X94449922Y-101893901D01*
X94449500Y-101888796D01*
X94449500Y-101883685D01*
X94446600Y-101866261D01*
X94445778Y-101860482D01*
X94441441Y-101823840D01*
X94441440Y-101823838D01*
X94440236Y-101813662D01*
X94436577Y-101806042D01*
X94435188Y-101797697D01*
X94430324Y-101788682D01*
X94430322Y-101788677D01*
X94412785Y-101756177D01*
X94410155Y-101751016D01*
X94389726Y-101708474D01*
X94386408Y-101704526D01*
X94384502Y-101702620D01*
X94383006Y-101700989D01*
X94382786Y-101700580D01*
X94382825Y-101700544D01*
X94382674Y-101700372D01*
X94379778Y-101695006D01*
X94343324Y-101661308D01*
X94339815Y-101657933D01*
X93366631Y-100684749D01*
X93354154Y-100669300D01*
X93351381Y-100666252D01*
X93345825Y-100657648D01*
X93321824Y-100638727D01*
X93317856Y-100635201D01*
X93317775Y-100635297D01*
X93313873Y-100631991D01*
X93310254Y-100628372D01*
X93295886Y-100618104D01*
X93291245Y-100614621D01*
X93262551Y-100592000D01*
X93874318Y-100592000D01*
X93894956Y-100748762D01*
X93898065Y-100756269D01*
X93898066Y-100756271D01*
X93946131Y-100872309D01*
X93955464Y-100894841D01*
X94051718Y-101020282D01*
X94177159Y-101116536D01*
X94184667Y-101119646D01*
X94315729Y-101173934D01*
X94315731Y-101173935D01*
X94323238Y-101177044D01*
X94331297Y-101178105D01*
X94336078Y-101179386D01*
X94391666Y-101211480D01*
X94648125Y-101467939D01*
X94655628Y-101477328D01*
X94655990Y-101477020D01*
X94661715Y-101483746D01*
X94666430Y-101491220D01*
X94673053Y-101497069D01*
X94706143Y-101526293D01*
X94711741Y-101531555D01*
X94723006Y-101542820D01*
X94726538Y-101545467D01*
X94726539Y-101545468D01*
X94731236Y-101548988D01*
X94738953Y-101555269D01*
X94773888Y-101586123D01*
X94781884Y-101589877D01*
X94784289Y-101591457D01*
X94799061Y-101600334D01*
X94801605Y-101601727D01*
X94808676Y-101607026D01*
X94816952Y-101610128D01*
X94816951Y-101610128D01*
X94852306Y-101623382D01*
X94861477Y-101627247D01*
X94895666Y-101643299D01*
X94895670Y-101643300D01*
X94903663Y-101647053D01*
X94912391Y-101648412D01*
X94915152Y-101649256D01*
X94931821Y-101653629D01*
X94934644Y-101654250D01*
X94942919Y-101657352D01*
X94951728Y-101658007D01*
X94951730Y-101658007D01*
X94989398Y-101660806D01*
X94999279Y-101661940D01*
X95012509Y-101664000D01*
X95027785Y-101664000D01*
X95036970Y-101664341D01*
X95045088Y-101664944D01*
X95110485Y-101689540D01*
X95139004Y-101719711D01*
X95160948Y-101752552D01*
X95227269Y-101796867D01*
X95239245Y-101799249D01*
X95239247Y-101799250D01*
X95257826Y-101802945D01*
X95285752Y-101808500D01*
X96722248Y-101808500D01*
X96750174Y-101802945D01*
X96768753Y-101799250D01*
X96768755Y-101799249D01*
X96780731Y-101796867D01*
X96847052Y-101752552D01*
X96891367Y-101686231D01*
X96894796Y-101668995D01*
X96899160Y-101647053D01*
X96903000Y-101627748D01*
X96903000Y-100699252D01*
X96896164Y-100664883D01*
X96893750Y-100652747D01*
X96893749Y-100652745D01*
X96891367Y-100640769D01*
X96847052Y-100574448D01*
X96780731Y-100530133D01*
X96768755Y-100527751D01*
X96768753Y-100527750D01*
X96747450Y-100523513D01*
X96722248Y-100518500D01*
X96478935Y-100518500D01*
X96411896Y-100498815D01*
X96366141Y-100446011D01*
X96355795Y-100409076D01*
X96355358Y-100405385D01*
X96355046Y-100400091D01*
X96354922Y-100400101D01*
X96354500Y-100394995D01*
X96354500Y-100389885D01*
X96351601Y-100372467D01*
X96350779Y-100366696D01*
X96345236Y-100319861D01*
X96341577Y-100312241D01*
X96340188Y-100303897D01*
X96335323Y-100294881D01*
X96335322Y-100294878D01*
X96321137Y-100268591D01*
X96317785Y-100262379D01*
X96315136Y-100257179D01*
X96298101Y-100221702D01*
X96298100Y-100221700D01*
X96294726Y-100214674D01*
X96291408Y-100210726D01*
X96289511Y-100208829D01*
X96288006Y-100207188D01*
X96287786Y-100206780D01*
X96287825Y-100206744D01*
X96287674Y-100206572D01*
X96284778Y-100201206D01*
X96248324Y-100167508D01*
X96244815Y-100164133D01*
X96081492Y-100000810D01*
X96048007Y-99939487D01*
X96054612Y-99865677D01*
X96059082Y-99854885D01*
X96065867Y-99844731D01*
X96077500Y-99786248D01*
X96077500Y-98603752D01*
X96065867Y-98545269D01*
X96021552Y-98478948D01*
X95955231Y-98434633D01*
X95943255Y-98432251D01*
X95943253Y-98432250D01*
X95924674Y-98428555D01*
X95896748Y-98423000D01*
X95349252Y-98423000D01*
X95321326Y-98428555D01*
X95302747Y-98432250D01*
X95302745Y-98432251D01*
X95290769Y-98434633D01*
X95224448Y-98478948D01*
X95180133Y-98545269D01*
X95168500Y-98603752D01*
X95168500Y-99786248D01*
X95180133Y-99844731D01*
X95186918Y-99854885D01*
X95217662Y-99900897D01*
X95217664Y-99900899D01*
X95224448Y-99911052D01*
X95234601Y-99917836D01*
X95236183Y-99919418D01*
X95269667Y-99980742D01*
X95272500Y-100007098D01*
X95272500Y-100015891D01*
X95270400Y-100035623D01*
X95270206Y-100039743D01*
X95268049Y-100049761D01*
X95269254Y-100059940D01*
X95271640Y-100080101D01*
X95271953Y-100085409D01*
X95272078Y-100085399D01*
X95272500Y-100090504D01*
X95272500Y-100095615D01*
X95275400Y-100113039D01*
X95276222Y-100118818D01*
X95278102Y-100134702D01*
X95281764Y-100165638D01*
X95285423Y-100173258D01*
X95286812Y-100181603D01*
X95291676Y-100190618D01*
X95291678Y-100190623D01*
X95309215Y-100223123D01*
X95311845Y-100228284D01*
X95332274Y-100270826D01*
X95335592Y-100274774D01*
X95337498Y-100276680D01*
X95338994Y-100278311D01*
X95339214Y-100278720D01*
X95339175Y-100278756D01*
X95339326Y-100278928D01*
X95342222Y-100284294D01*
X95349744Y-100291247D01*
X95363611Y-100304066D01*
X95399477Y-100364028D01*
X95397232Y-100433862D01*
X95357589Y-100491396D01*
X95291655Y-100518500D01*
X95285752Y-100518500D01*
X95279777Y-100519689D01*
X95279772Y-100519689D01*
X95239247Y-100527750D01*
X95239245Y-100527751D01*
X95227269Y-100530133D01*
X95226571Y-100530600D01*
X95164931Y-100537225D01*
X95102452Y-100505949D01*
X95067175Y-100447291D01*
X95066105Y-100443297D01*
X95065044Y-100435238D01*
X95004536Y-100289159D01*
X94941297Y-100206744D01*
X94913229Y-100170165D01*
X94908282Y-100163718D01*
X94782841Y-100067464D01*
X94769882Y-100062096D01*
X94644271Y-100010066D01*
X94644269Y-100010065D01*
X94636762Y-100006956D01*
X94615464Y-100004152D01*
X94488059Y-99987379D01*
X94480000Y-99986318D01*
X94471941Y-99987379D01*
X94344537Y-100004152D01*
X94323238Y-100006956D01*
X94315731Y-100010065D01*
X94315729Y-100010066D01*
X94190118Y-100062096D01*
X94177159Y-100067464D01*
X94051718Y-100163718D01*
X94046771Y-100170165D01*
X94018703Y-100206744D01*
X93955464Y-100289159D01*
X93952354Y-100296667D01*
X93898068Y-100427726D01*
X93894956Y-100435238D01*
X93874318Y-100592000D01*
X93262551Y-100592000D01*
X93254189Y-100585408D01*
X93246213Y-100582607D01*
X93239331Y-100577689D01*
X93229517Y-100574754D01*
X93229515Y-100574753D01*
X93194156Y-100564179D01*
X93188597Y-100562373D01*
X93151453Y-100549329D01*
X93151451Y-100549329D01*
X93144094Y-100546745D01*
X93138956Y-100546300D01*
X93136274Y-100546300D01*
X93134050Y-100546204D01*
X93133612Y-100546073D01*
X93133614Y-100546019D01*
X93133383Y-100546004D01*
X93127536Y-100544256D01*
X93117295Y-100544658D01*
X93117292Y-100544658D01*
X93077955Y-100546204D01*
X93073087Y-100546300D01*
X88467810Y-100546300D01*
X88400771Y-100526615D01*
X88355016Y-100473811D01*
X88350265Y-100460597D01*
X88350193Y-100460623D01*
X88348340Y-100455532D01*
X88346939Y-100450304D01*
X88250768Y-100244066D01*
X88239422Y-100227862D01*
X88123353Y-100062096D01*
X88123349Y-100062092D01*
X88120247Y-100057661D01*
X87959339Y-99896753D01*
X87954908Y-99893651D01*
X87954904Y-99893647D01*
X87777373Y-99769340D01*
X87777371Y-99769339D01*
X87772934Y-99766232D01*
X87751961Y-99756452D01*
X87571606Y-99672350D01*
X87571600Y-99672348D01*
X87566696Y-99670061D01*
X87346892Y-99611165D01*
X87341507Y-99610694D01*
X87341502Y-99610693D01*
X87125595Y-99591804D01*
X87120200Y-99591332D01*
X87114805Y-99591804D01*
X86898898Y-99610693D01*
X86898893Y-99610694D01*
X86893508Y-99611165D01*
X86673704Y-99670061D01*
X86668800Y-99672348D01*
X86668794Y-99672350D01*
X86488439Y-99756452D01*
X86467466Y-99766232D01*
X86463029Y-99769339D01*
X86463027Y-99769340D01*
X86285496Y-99893647D01*
X86285492Y-99893651D01*
X86281061Y-99896753D01*
X86120153Y-100057661D01*
X86117051Y-100062092D01*
X86117047Y-100062096D01*
X86000978Y-100227862D01*
X85989632Y-100244066D01*
X85987342Y-100248977D01*
X85895750Y-100445394D01*
X85895749Y-100445398D01*
X85893461Y-100450304D01*
X85834565Y-100670108D01*
X85834094Y-100675493D01*
X85834093Y-100675498D01*
X85816682Y-100874509D01*
X85814732Y-100896800D01*
X85815204Y-100902195D01*
X85833524Y-101111589D01*
X85834565Y-101123492D01*
X85893461Y-101343296D01*
X85895748Y-101348200D01*
X85895750Y-101348206D01*
X85965167Y-101497069D01*
X85989632Y-101549534D01*
X85992739Y-101553971D01*
X85992740Y-101553973D01*
X86117047Y-101731504D01*
X86117051Y-101731508D01*
X86120153Y-101735939D01*
X86281061Y-101896847D01*
X86285492Y-101899949D01*
X86285496Y-101899953D01*
X86459317Y-102021662D01*
X86467466Y-102027368D01*
X86472377Y-102029658D01*
X86668794Y-102121250D01*
X86668800Y-102121252D01*
X86673704Y-102123539D01*
X86893508Y-102182435D01*
X86898893Y-102182906D01*
X86898898Y-102182907D01*
X87114805Y-102201796D01*
X87120200Y-102202268D01*
X87125595Y-102201796D01*
X87341502Y-102182907D01*
X87341507Y-102182906D01*
X87346892Y-102182435D01*
X87566696Y-102123539D01*
X87571600Y-102121252D01*
X87571606Y-102121250D01*
X87768023Y-102029658D01*
X87772934Y-102027368D01*
X87781083Y-102021662D01*
X87954904Y-101899953D01*
X87954908Y-101899949D01*
X87959339Y-101896847D01*
X88120247Y-101735939D01*
X88123349Y-101731508D01*
X88123353Y-101731504D01*
X88247660Y-101553973D01*
X88247661Y-101553971D01*
X88250768Y-101549534D01*
X88346939Y-101343296D01*
X88348340Y-101338068D01*
X88350193Y-101332977D01*
X88351534Y-101333465D01*
X88384402Y-101279544D01*
X88447250Y-101249016D01*
X88467810Y-101247300D01*
X92013096Y-101247300D01*
X92080135Y-101266985D01*
X92125890Y-101319789D01*
X92135834Y-101388947D01*
X92106809Y-101452503D01*
X92070545Y-101481189D01*
X91918420Y-101560718D01*
X91771316Y-101678993D01*
X91649986Y-101823588D01*
X91597335Y-101919360D01*
X91573119Y-101963409D01*
X91559052Y-101988996D01*
X91501978Y-102168917D01*
X91501302Y-102174946D01*
X91482152Y-102345667D01*
X91480937Y-102356496D01*
X91496732Y-102544590D01*
X91548760Y-102726034D01*
X91551532Y-102731429D01*
X91551533Y-102731430D01*
X91567350Y-102762206D01*
X91635040Y-102893917D01*
X91638808Y-102898671D01*
X91719856Y-103000928D01*
X91752285Y-103041844D01*
X91756904Y-103045775D01*
X91891416Y-103160254D01*
X91891421Y-103160258D01*
X91896030Y-103164180D01*
X92060800Y-103256267D01*
X92127288Y-103277870D01*
X92157213Y-103287593D01*
X92240317Y-103314595D01*
X92427745Y-103336945D01*
X92433789Y-103336480D01*
X92433790Y-103336480D01*
X92489254Y-103332212D01*
X92615945Y-103322464D01*
X92797748Y-103271703D01*
X92966229Y-103186598D01*
X93114970Y-103070388D01*
X93238307Y-102927501D01*
X93257386Y-102893917D01*
X93278265Y-102857163D01*
X93331542Y-102763378D01*
X93391123Y-102584272D01*
X93392602Y-102572569D01*
X93414345Y-102400449D01*
X93414345Y-102400448D01*
X93414780Y-102397005D01*
X93415157Y-102370000D01*
X93398665Y-102201796D01*
X93397330Y-102188181D01*
X93397330Y-102188179D01*
X93396738Y-102182145D01*
X93394986Y-102176342D01*
X93343934Y-102007251D01*
X93342181Y-102001445D01*
X93338633Y-101994771D01*
X93334552Y-101987097D01*
X93320458Y-101918664D01*
X93345599Y-101853474D01*
X93401993Y-101812225D01*
X93471735Y-101808013D01*
X93531717Y-101841199D01*
X93712181Y-102021662D01*
X93745666Y-102082985D01*
X93748500Y-102109343D01*
X93748500Y-103589391D01*
X93746400Y-103609123D01*
X93746206Y-103613243D01*
X93744049Y-103623261D01*
X93747079Y-103648863D01*
X93747640Y-103653601D01*
X93747953Y-103658909D01*
X93748078Y-103658899D01*
X93748500Y-103664004D01*
X93748500Y-103669115D01*
X93749339Y-103674155D01*
X93751400Y-103686539D01*
X93752222Y-103692318D01*
X93754901Y-103714948D01*
X93757764Y-103739138D01*
X93761423Y-103746758D01*
X93762812Y-103755103D01*
X93767676Y-103764118D01*
X93767678Y-103764123D01*
X93785215Y-103796623D01*
X93787845Y-103801784D01*
X93808274Y-103844326D01*
X93811592Y-103848274D01*
X93813498Y-103850180D01*
X93814994Y-103851811D01*
X93815214Y-103852220D01*
X93815175Y-103852256D01*
X93815326Y-103852428D01*
X93818222Y-103857794D01*
X93841251Y-103879082D01*
X93854676Y-103891492D01*
X93858185Y-103894867D01*
X94577369Y-104614051D01*
X94589846Y-104629500D01*
X94592619Y-104632548D01*
X94598175Y-104641152D01*
X94606220Y-104647494D01*
X94622176Y-104660073D01*
X94626147Y-104663602D01*
X94626229Y-104663506D01*
X94630127Y-104666809D01*
X94633747Y-104670429D01*
X94648122Y-104680702D01*
X94652772Y-104684193D01*
X94689811Y-104713392D01*
X94697787Y-104716193D01*
X94704669Y-104721111D01*
X94714483Y-104724046D01*
X94714485Y-104724047D01*
X94749844Y-104734621D01*
X94755403Y-104736427D01*
X94792547Y-104749471D01*
X94792549Y-104749471D01*
X94799906Y-104752055D01*
X94805044Y-104752500D01*
X94807726Y-104752500D01*
X94809950Y-104752596D01*
X94810388Y-104752727D01*
X94810386Y-104752781D01*
X94810617Y-104752796D01*
X94816464Y-104754544D01*
X94826705Y-104754142D01*
X94826708Y-104754142D01*
X94866045Y-104752596D01*
X94870913Y-104752500D01*
X97477391Y-104752500D01*
X97497123Y-104754600D01*
X97501243Y-104754794D01*
X97511261Y-104756951D01*
X97541601Y-104753360D01*
X97546909Y-104753047D01*
X97546899Y-104752922D01*
X97552004Y-104752500D01*
X97557115Y-104752500D01*
X97574539Y-104749600D01*
X97580318Y-104748778D01*
X97616960Y-104744441D01*
X97616962Y-104744440D01*
X97627138Y-104743236D01*
X97634758Y-104739577D01*
X97643103Y-104738188D01*
X97652118Y-104733324D01*
X97652123Y-104733322D01*
X97684623Y-104715785D01*
X97689784Y-104713155D01*
X97732326Y-104692726D01*
X97736274Y-104689408D01*
X97738180Y-104687502D01*
X97739811Y-104686006D01*
X97740220Y-104685786D01*
X97740256Y-104685825D01*
X97740428Y-104685674D01*
X97745794Y-104682778D01*
X97779492Y-104646324D01*
X97782867Y-104642815D01*
X98094797Y-104330885D01*
X98156120Y-104297400D01*
X98225812Y-104302384D01*
X98281745Y-104344256D01*
X98306162Y-104409720D01*
X98306478Y-104418566D01*
X98306478Y-104595352D01*
X98304378Y-104615084D01*
X98304184Y-104619204D01*
X98302027Y-104629222D01*
X98304051Y-104646324D01*
X98305618Y-104659562D01*
X98305931Y-104664870D01*
X98306056Y-104664860D01*
X98306478Y-104669965D01*
X98306478Y-104675076D01*
X98307317Y-104680116D01*
X98309378Y-104692500D01*
X98310200Y-104698279D01*
X98314537Y-104734921D01*
X98315742Y-104745099D01*
X98319401Y-104752719D01*
X98320790Y-104761064D01*
X98325654Y-104770079D01*
X98325656Y-104770084D01*
X98343193Y-104802584D01*
X98345823Y-104807745D01*
X98366252Y-104850287D01*
X98369570Y-104854235D01*
X98371476Y-104856141D01*
X98372972Y-104857772D01*
X98373192Y-104858181D01*
X98373153Y-104858217D01*
X98373304Y-104858389D01*
X98376200Y-104863755D01*
X98406367Y-104891641D01*
X98412655Y-104897454D01*
X98416164Y-104900829D01*
X98679183Y-105163847D01*
X98912168Y-105396832D01*
X98945653Y-105458155D01*
X98948487Y-105484513D01*
X98948487Y-115012378D01*
X98946387Y-115032110D01*
X98946193Y-115036230D01*
X98944036Y-115046248D01*
X98945241Y-115056427D01*
X98947627Y-115076588D01*
X98947940Y-115081896D01*
X98948065Y-115081886D01*
X98948487Y-115086991D01*
X98948487Y-115092102D01*
X98949326Y-115097142D01*
X98951387Y-115109526D01*
X98952209Y-115115305D01*
X98956024Y-115147533D01*
X98957751Y-115162125D01*
X98961410Y-115169745D01*
X98962799Y-115178090D01*
X98967663Y-115187105D01*
X98967665Y-115187110D01*
X98985202Y-115219610D01*
X98987832Y-115224771D01*
X99008261Y-115267313D01*
X99011579Y-115271261D01*
X99013485Y-115273167D01*
X99014981Y-115274798D01*
X99015201Y-115275207D01*
X99015162Y-115275243D01*
X99015313Y-115275415D01*
X99018209Y-115280781D01*
X99031875Y-115293414D01*
X99054663Y-115314479D01*
X99058172Y-115317854D01*
X99526734Y-115786416D01*
X99560219Y-115847739D01*
X99554040Y-115916782D01*
X99554914Y-115917053D01*
X99494937Y-116110213D01*
X99471164Y-116311069D01*
X99471535Y-116316731D01*
X99471535Y-116316735D01*
X99476851Y-116397842D01*
X99484392Y-116512894D01*
X99534178Y-116708928D01*
X99536554Y-116714082D01*
X99605974Y-116864663D01*
X99618856Y-116892607D01*
X99735588Y-117057780D01*
X99880466Y-117198913D01*
X100048637Y-117311282D01*
X100234470Y-117391122D01*
X100330502Y-117412852D01*
X100426193Y-117434505D01*
X100426195Y-117434505D01*
X100431740Y-117435760D01*
X100540020Y-117440014D01*
X100628161Y-117443477D01*
X100628163Y-117443477D01*
X100633842Y-117443700D01*
X100639462Y-117442885D01*
X100639465Y-117442885D01*
X100828387Y-117415493D01*
X100828389Y-117415493D01*
X100834007Y-117414678D01*
X100839384Y-117412853D01*
X100839387Y-117412852D01*
X100924090Y-117384099D01*
X101025531Y-117349664D01*
X101202001Y-117250837D01*
X101264433Y-117198913D01*
X101353138Y-117125137D01*
X101357505Y-117121505D01*
X101475501Y-116979631D01*
X101483206Y-116970367D01*
X101483207Y-116970366D01*
X101486837Y-116966001D01*
X101585664Y-116789531D01*
X101650678Y-116598007D01*
X101658595Y-116543406D01*
X101679176Y-116401458D01*
X101679176Y-116401453D01*
X101679700Y-116397842D01*
X101681215Y-116340000D01*
X101662708Y-116138591D01*
X101607807Y-115943926D01*
X101518351Y-115762527D01*
X101397335Y-115600467D01*
X101288565Y-115499921D01*
X101252988Y-115467034D01*
X101252986Y-115467033D01*
X101248812Y-115463174D01*
X101189870Y-115425984D01*
X101082566Y-115358280D01*
X101082564Y-115358279D01*
X101077757Y-115355246D01*
X100889898Y-115280298D01*
X100884317Y-115279188D01*
X100884314Y-115279187D01*
X100816373Y-115265673D01*
X100691526Y-115240839D01*
X100685839Y-115240765D01*
X100685834Y-115240764D01*
X100494975Y-115238266D01*
X100494970Y-115238266D01*
X100489286Y-115238192D01*
X100483682Y-115239155D01*
X100483681Y-115239155D01*
X100295546Y-115271482D01*
X100295543Y-115271483D01*
X100289949Y-115272444D01*
X100155625Y-115321999D01*
X100085917Y-115326734D01*
X100025026Y-115293344D01*
X99685806Y-114954124D01*
X99652321Y-114892801D01*
X99649487Y-114866443D01*
X99649487Y-113668531D01*
X99669172Y-113601492D01*
X99721976Y-113555737D01*
X99791134Y-113545793D01*
X99854690Y-113574818D01*
X99861168Y-113580850D01*
X102066734Y-115786416D01*
X102100219Y-115847739D01*
X102094040Y-115916782D01*
X102094914Y-115917053D01*
X102034937Y-116110213D01*
X102011164Y-116311069D01*
X102011535Y-116316731D01*
X102011535Y-116316735D01*
X102016851Y-116397842D01*
X102024392Y-116512894D01*
X102074178Y-116708928D01*
X102076554Y-116714082D01*
X102145974Y-116864663D01*
X102158856Y-116892607D01*
X102275588Y-117057780D01*
X102420466Y-117198913D01*
X102588637Y-117311282D01*
X102774470Y-117391122D01*
X102870502Y-117412852D01*
X102966193Y-117434505D01*
X102966195Y-117434505D01*
X102971740Y-117435760D01*
X103080020Y-117440014D01*
X103168161Y-117443477D01*
X103168163Y-117443477D01*
X103173842Y-117443700D01*
X103179462Y-117442885D01*
X103179465Y-117442885D01*
X103368387Y-117415493D01*
X103368389Y-117415493D01*
X103374007Y-117414678D01*
X103379384Y-117412853D01*
X103379387Y-117412852D01*
X103464090Y-117384099D01*
X103565531Y-117349664D01*
X103742001Y-117250837D01*
X103812211Y-117192443D01*
X103876340Y-117164710D01*
X103945283Y-117176050D01*
X103997151Y-117222864D01*
X104015501Y-117287780D01*
X104015501Y-117433455D01*
X103995816Y-117500494D01*
X103979182Y-117521136D01*
X103666451Y-117833867D01*
X103605128Y-117867352D01*
X103532822Y-117861359D01*
X103435179Y-117822404D01*
X103435170Y-117822401D01*
X103429898Y-117820298D01*
X103231526Y-117780839D01*
X103225839Y-117780765D01*
X103225834Y-117780764D01*
X103034975Y-117778266D01*
X103034970Y-117778266D01*
X103029286Y-117778192D01*
X103023682Y-117779155D01*
X103023681Y-117779155D01*
X102835546Y-117811482D01*
X102835543Y-117811483D01*
X102829949Y-117812444D01*
X102802941Y-117822408D01*
X102645521Y-117880483D01*
X102645517Y-117880485D01*
X102640193Y-117882449D01*
X102635310Y-117885354D01*
X102635308Y-117885355D01*
X102471262Y-117982952D01*
X102466371Y-117985862D01*
X102314305Y-118119220D01*
X102189089Y-118278057D01*
X102186442Y-118283088D01*
X102176215Y-118302527D01*
X102094914Y-118457053D01*
X102093229Y-118462479D01*
X102093228Y-118462482D01*
X102088153Y-118478826D01*
X102034937Y-118650213D01*
X102011164Y-118851069D01*
X102011535Y-118856731D01*
X102011535Y-118856735D01*
X102016851Y-118937842D01*
X102024392Y-119052894D01*
X102074178Y-119248928D01*
X102076554Y-119254082D01*
X102126765Y-119362996D01*
X102158856Y-119432607D01*
X102275588Y-119597780D01*
X102420466Y-119738913D01*
X102588637Y-119851282D01*
X102774470Y-119931122D01*
X102870502Y-119952852D01*
X102966193Y-119974505D01*
X102966195Y-119974505D01*
X102971740Y-119975760D01*
X103089135Y-119980372D01*
X103168161Y-119983477D01*
X103168163Y-119983477D01*
X103173842Y-119983700D01*
X103179462Y-119982885D01*
X103179465Y-119982885D01*
X103368387Y-119955493D01*
X103368389Y-119955493D01*
X103374007Y-119954678D01*
X103379384Y-119952853D01*
X103379387Y-119952852D01*
X103542482Y-119897488D01*
X103565531Y-119889664D01*
X103742001Y-119790837D01*
X103804433Y-119738913D01*
X103893138Y-119665137D01*
X103897505Y-119661505D01*
X104026837Y-119506001D01*
X104125664Y-119329531D01*
X104190678Y-119138007D01*
X104205990Y-119032400D01*
X104219176Y-118941458D01*
X104219176Y-118941453D01*
X104219700Y-118937842D01*
X104221215Y-118880000D01*
X104202708Y-118678591D01*
X104147807Y-118483926D01*
X104145292Y-118478825D01*
X104145046Y-118478327D01*
X104140854Y-118469826D01*
X104128855Y-118400996D01*
X104155974Y-118336604D01*
X104164383Y-118327299D01*
X104578052Y-117913630D01*
X104593501Y-117901153D01*
X104596549Y-117898380D01*
X104605153Y-117892824D01*
X104624074Y-117868823D01*
X104627600Y-117864855D01*
X104627504Y-117864774D01*
X104630810Y-117860872D01*
X104634429Y-117857253D01*
X104644697Y-117842885D01*
X104648180Y-117838244D01*
X104677393Y-117801188D01*
X104680194Y-117793212D01*
X104685112Y-117786330D01*
X104698619Y-117741165D01*
X104700424Y-117735609D01*
X104713472Y-117698451D01*
X104716056Y-117691093D01*
X104716501Y-117685955D01*
X104716501Y-117683273D01*
X104716597Y-117681047D01*
X104716727Y-117680611D01*
X104716782Y-117680613D01*
X104716797Y-117680379D01*
X104718544Y-117674536D01*
X104716597Y-117624970D01*
X104716501Y-117620103D01*
X104716501Y-117255160D01*
X104736186Y-117188121D01*
X104788990Y-117142366D01*
X104858148Y-117132422D01*
X104921704Y-117161447D01*
X104927027Y-117166339D01*
X104956387Y-117194941D01*
X104956396Y-117194949D01*
X104960466Y-117198913D01*
X105128637Y-117311282D01*
X105314470Y-117391122D01*
X105410502Y-117412852D01*
X105506193Y-117434505D01*
X105506195Y-117434505D01*
X105511740Y-117435760D01*
X105620020Y-117440014D01*
X105708161Y-117443477D01*
X105708163Y-117443477D01*
X105713842Y-117443700D01*
X105719462Y-117442885D01*
X105719465Y-117442885D01*
X105908387Y-117415493D01*
X105908389Y-117415493D01*
X105914007Y-117414678D01*
X105919384Y-117412853D01*
X105919387Y-117412852D01*
X106004090Y-117384099D01*
X106105531Y-117349664D01*
X106282001Y-117250837D01*
X106352211Y-117192443D01*
X106416340Y-117164710D01*
X106485283Y-117176050D01*
X106537151Y-117222864D01*
X106555501Y-117287780D01*
X106555501Y-117433455D01*
X106535816Y-117500494D01*
X106519182Y-117521136D01*
X106206451Y-117833867D01*
X106145128Y-117867352D01*
X106072822Y-117861359D01*
X105975179Y-117822404D01*
X105975170Y-117822401D01*
X105969898Y-117820298D01*
X105771526Y-117780839D01*
X105765839Y-117780765D01*
X105765834Y-117780764D01*
X105574975Y-117778266D01*
X105574970Y-117778266D01*
X105569286Y-117778192D01*
X105563682Y-117779155D01*
X105563681Y-117779155D01*
X105375546Y-117811482D01*
X105375543Y-117811483D01*
X105369949Y-117812444D01*
X105342941Y-117822408D01*
X105185521Y-117880483D01*
X105185517Y-117880485D01*
X105180193Y-117882449D01*
X105175310Y-117885354D01*
X105175308Y-117885355D01*
X105011262Y-117982952D01*
X105006371Y-117985862D01*
X104854305Y-118119220D01*
X104729089Y-118278057D01*
X104726442Y-118283088D01*
X104716215Y-118302527D01*
X104634914Y-118457053D01*
X104633229Y-118462479D01*
X104633228Y-118462482D01*
X104628153Y-118478826D01*
X104574937Y-118650213D01*
X104551164Y-118851069D01*
X104551535Y-118856731D01*
X104551535Y-118856735D01*
X104556851Y-118937842D01*
X104564392Y-119052894D01*
X104614178Y-119248928D01*
X104616554Y-119254082D01*
X104666765Y-119362996D01*
X104698856Y-119432607D01*
X104815588Y-119597780D01*
X104960466Y-119738913D01*
X105128637Y-119851282D01*
X105314470Y-119931122D01*
X105410502Y-119952852D01*
X105506193Y-119974505D01*
X105506195Y-119974505D01*
X105511740Y-119975760D01*
X105629135Y-119980372D01*
X105708161Y-119983477D01*
X105708163Y-119983477D01*
X105713842Y-119983700D01*
X105719462Y-119982885D01*
X105719465Y-119982885D01*
X105908387Y-119955493D01*
X105908389Y-119955493D01*
X105914007Y-119954678D01*
X105919384Y-119952853D01*
X105919387Y-119952852D01*
X106082482Y-119897488D01*
X106105531Y-119889664D01*
X106282001Y-119790837D01*
X106344433Y-119738913D01*
X106433138Y-119665137D01*
X106437505Y-119661505D01*
X106566837Y-119506001D01*
X106665664Y-119329531D01*
X106684581Y-119273804D01*
X106724770Y-119216650D01*
X106789479Y-119190297D01*
X106858164Y-119203111D01*
X106909017Y-119251026D01*
X106926000Y-119313663D01*
X106926000Y-123328000D01*
X106906315Y-123395039D01*
X106853511Y-123440794D01*
X106802000Y-123452000D01*
X92976123Y-123452000D01*
X92936911Y-123445637D01*
X91440358Y-122946786D01*
X91424116Y-122940058D01*
X89404258Y-121930129D01*
X89395915Y-121925549D01*
X87561215Y-120824729D01*
X87513856Y-120773358D01*
X87501789Y-120704538D01*
X87528844Y-120640120D01*
X87586432Y-120600554D01*
X87625012Y-120594400D01*
X88162970Y-120594400D01*
X88177969Y-120589996D01*
X88179156Y-120588626D01*
X88180800Y-120581068D01*
X88180800Y-120576569D01*
X88688800Y-120576569D01*
X88693204Y-120591568D01*
X88694574Y-120592755D01*
X88702132Y-120594399D01*
X89279526Y-120594399D01*
X89286231Y-120594036D01*
X89337277Y-120588492D01*
X89352288Y-120584922D01*
X89472990Y-120539673D01*
X89488332Y-120531274D01*
X89590635Y-120454602D01*
X89603002Y-120442235D01*
X89679674Y-120339932D01*
X89688073Y-120324590D01*
X89733324Y-120203885D01*
X89736891Y-120188882D01*
X89742437Y-120137827D01*
X89742800Y-120131129D01*
X89742800Y-119824726D01*
X94088001Y-119824726D01*
X94088364Y-119831431D01*
X94093908Y-119882477D01*
X94097478Y-119897488D01*
X94142727Y-120018190D01*
X94151126Y-120033532D01*
X94227798Y-120135835D01*
X94240165Y-120148202D01*
X94342468Y-120224874D01*
X94357810Y-120233273D01*
X94478515Y-120278524D01*
X94493518Y-120282091D01*
X94544573Y-120287637D01*
X94551271Y-120288000D01*
X95224170Y-120288000D01*
X95239169Y-120283596D01*
X95240356Y-120282226D01*
X95242000Y-120274668D01*
X95242000Y-119151830D01*
X95237596Y-119136831D01*
X95236226Y-119135644D01*
X95228668Y-119134000D01*
X94105831Y-119134000D01*
X94090832Y-119138404D01*
X94089645Y-119139774D01*
X94088001Y-119147332D01*
X94088001Y-119824726D01*
X89742800Y-119824726D01*
X89742800Y-119558230D01*
X89738396Y-119543231D01*
X89737026Y-119542044D01*
X89729468Y-119540400D01*
X88706630Y-119540400D01*
X88691631Y-119544804D01*
X88690444Y-119546174D01*
X88688800Y-119553732D01*
X88688800Y-120576569D01*
X88180800Y-120576569D01*
X88180800Y-119558230D01*
X88176396Y-119543231D01*
X88175026Y-119542044D01*
X88167468Y-119540400D01*
X87144631Y-119540400D01*
X87129632Y-119544804D01*
X87128445Y-119546174D01*
X87126801Y-119553732D01*
X87126801Y-120131126D01*
X87127164Y-120137831D01*
X87132708Y-120188877D01*
X87136278Y-120203888D01*
X87181528Y-120324592D01*
X87183900Y-120328925D01*
X87198829Y-120397181D01*
X87174486Y-120462673D01*
X87118599Y-120504607D01*
X87048913Y-120509670D01*
X87011341Y-120494805D01*
X86873086Y-120411851D01*
X86849206Y-120393206D01*
X85880319Y-119424319D01*
X85846834Y-119362996D01*
X85844000Y-119336638D01*
X85844000Y-119014570D01*
X87126800Y-119014570D01*
X87131204Y-119029569D01*
X87132574Y-119030756D01*
X87140132Y-119032400D01*
X89724969Y-119032400D01*
X89739968Y-119027996D01*
X89741155Y-119026626D01*
X89742799Y-119019068D01*
X89742799Y-118608170D01*
X94088000Y-118608170D01*
X94092404Y-118623169D01*
X94093774Y-118624356D01*
X94101332Y-118626000D01*
X95626000Y-118626000D01*
X95693039Y-118645685D01*
X95738794Y-118698489D01*
X95750000Y-118750000D01*
X95750000Y-120270169D01*
X95754404Y-120285168D01*
X95755774Y-120286355D01*
X95763332Y-120287999D01*
X96440726Y-120287999D01*
X96447431Y-120287636D01*
X96498477Y-120282092D01*
X96513488Y-120278522D01*
X96634190Y-120233273D01*
X96649532Y-120224874D01*
X96751835Y-120148202D01*
X96764202Y-120135835D01*
X96840874Y-120033532D01*
X96849273Y-120018190D01*
X96894524Y-119897485D01*
X96898091Y-119882482D01*
X96903637Y-119831427D01*
X96904000Y-119824729D01*
X96904000Y-119575499D01*
X96923685Y-119508460D01*
X96976489Y-119462705D01*
X97045647Y-119452761D01*
X97109203Y-119481786D01*
X97129264Y-119503933D01*
X97195588Y-119597780D01*
X97340466Y-119738913D01*
X97508637Y-119851282D01*
X97694470Y-119931122D01*
X97790502Y-119952852D01*
X97886193Y-119974505D01*
X97886195Y-119974505D01*
X97891740Y-119975760D01*
X98009135Y-119980372D01*
X98088161Y-119983477D01*
X98088163Y-119983477D01*
X98093842Y-119983700D01*
X98099462Y-119982885D01*
X98099465Y-119982885D01*
X98288387Y-119955493D01*
X98288389Y-119955493D01*
X98294007Y-119954678D01*
X98299384Y-119952853D01*
X98299387Y-119952852D01*
X98462482Y-119897488D01*
X98485531Y-119889664D01*
X98662001Y-119790837D01*
X98724433Y-119738913D01*
X98813138Y-119665137D01*
X98817505Y-119661505D01*
X98946837Y-119506001D01*
X99045664Y-119329531D01*
X99110678Y-119138007D01*
X99125990Y-119032400D01*
X99139176Y-118941458D01*
X99139176Y-118941453D01*
X99139700Y-118937842D01*
X99141215Y-118880000D01*
X99138557Y-118851069D01*
X99471164Y-118851069D01*
X99471535Y-118856731D01*
X99471535Y-118856735D01*
X99476851Y-118937842D01*
X99484392Y-119052894D01*
X99534178Y-119248928D01*
X99536554Y-119254082D01*
X99586765Y-119362996D01*
X99618856Y-119432607D01*
X99735588Y-119597780D01*
X99880466Y-119738913D01*
X100048637Y-119851282D01*
X100234470Y-119931122D01*
X100330502Y-119952852D01*
X100426193Y-119974505D01*
X100426195Y-119974505D01*
X100431740Y-119975760D01*
X100549135Y-119980372D01*
X100628161Y-119983477D01*
X100628163Y-119983477D01*
X100633842Y-119983700D01*
X100639462Y-119982885D01*
X100639465Y-119982885D01*
X100828387Y-119955493D01*
X100828389Y-119955493D01*
X100834007Y-119954678D01*
X100839384Y-119952853D01*
X100839387Y-119952852D01*
X101002482Y-119897488D01*
X101025531Y-119889664D01*
X101202001Y-119790837D01*
X101264433Y-119738913D01*
X101353138Y-119665137D01*
X101357505Y-119661505D01*
X101486837Y-119506001D01*
X101585664Y-119329531D01*
X101650678Y-119138007D01*
X101665990Y-119032400D01*
X101679176Y-118941458D01*
X101679176Y-118941453D01*
X101679700Y-118937842D01*
X101681215Y-118880000D01*
X101662708Y-118678591D01*
X101607807Y-118483926D01*
X101518351Y-118302527D01*
X101397335Y-118140467D01*
X101248812Y-118003174D01*
X101227319Y-117989613D01*
X101082566Y-117898280D01*
X101082564Y-117898279D01*
X101077757Y-117895246D01*
X100889898Y-117820298D01*
X100884317Y-117819188D01*
X100884314Y-117819187D01*
X100777598Y-117797960D01*
X100691526Y-117780839D01*
X100685839Y-117780765D01*
X100685834Y-117780764D01*
X100494975Y-117778266D01*
X100494970Y-117778266D01*
X100489286Y-117778192D01*
X100483682Y-117779155D01*
X100483681Y-117779155D01*
X100295546Y-117811482D01*
X100295543Y-117811483D01*
X100289949Y-117812444D01*
X100262941Y-117822408D01*
X100105521Y-117880483D01*
X100105517Y-117880485D01*
X100100193Y-117882449D01*
X100095310Y-117885354D01*
X100095308Y-117885355D01*
X99931262Y-117982952D01*
X99926371Y-117985862D01*
X99774305Y-118119220D01*
X99649089Y-118278057D01*
X99646442Y-118283088D01*
X99636215Y-118302527D01*
X99554914Y-118457053D01*
X99553229Y-118462479D01*
X99553228Y-118462482D01*
X99548153Y-118478826D01*
X99494937Y-118650213D01*
X99471164Y-118851069D01*
X99138557Y-118851069D01*
X99122708Y-118678591D01*
X99067807Y-118483926D01*
X98978351Y-118302527D01*
X98857335Y-118140467D01*
X98708812Y-118003174D01*
X98687319Y-117989613D01*
X98542566Y-117898280D01*
X98542564Y-117898279D01*
X98537757Y-117895246D01*
X98349898Y-117820298D01*
X98344317Y-117819188D01*
X98344314Y-117819187D01*
X98237598Y-117797960D01*
X98151526Y-117780839D01*
X98145839Y-117780765D01*
X98145834Y-117780764D01*
X97954975Y-117778266D01*
X97954970Y-117778266D01*
X97949286Y-117778192D01*
X97943682Y-117779155D01*
X97943681Y-117779155D01*
X97755546Y-117811482D01*
X97755543Y-117811483D01*
X97749949Y-117812444D01*
X97722941Y-117822408D01*
X97565521Y-117880483D01*
X97565517Y-117880485D01*
X97560193Y-117882449D01*
X97555310Y-117885354D01*
X97555308Y-117885355D01*
X97391262Y-117982952D01*
X97386371Y-117985862D01*
X97234305Y-118119220D01*
X97185897Y-118180626D01*
X97125379Y-118257393D01*
X97068416Y-118297854D01*
X96998622Y-118301096D01*
X96938155Y-118266089D01*
X96906212Y-118203949D01*
X96903999Y-118180626D01*
X96903999Y-117935274D01*
X96903636Y-117928569D01*
X96898092Y-117877523D01*
X96894522Y-117862512D01*
X96849273Y-117741810D01*
X96840874Y-117726468D01*
X96764202Y-117624165D01*
X96751835Y-117611798D01*
X96649532Y-117535126D01*
X96634190Y-117526727D01*
X96513485Y-117481476D01*
X96498482Y-117477909D01*
X96447427Y-117472363D01*
X96440729Y-117472000D01*
X96429611Y-117472000D01*
X96379678Y-117486662D01*
X96378734Y-117483447D01*
X96355266Y-117493165D01*
X96286508Y-117480752D01*
X96254344Y-117457555D01*
X95508607Y-116711817D01*
X95494887Y-116704325D01*
X95493082Y-116704454D01*
X95486573Y-116708637D01*
X94734643Y-117460568D01*
X94673320Y-117494053D01*
X94603629Y-117489069D01*
X94587534Y-117481718D01*
X94569739Y-117472001D01*
X94551274Y-117472001D01*
X94544569Y-117472364D01*
X94493523Y-117477908D01*
X94478512Y-117481478D01*
X94357810Y-117526727D01*
X94342468Y-117535126D01*
X94240165Y-117611798D01*
X94227798Y-117624165D01*
X94151126Y-117726468D01*
X94142727Y-117741810D01*
X94097476Y-117862515D01*
X94093909Y-117877518D01*
X94088363Y-117928573D01*
X94088000Y-117935271D01*
X94088000Y-118608170D01*
X89742799Y-118608170D01*
X89742799Y-118441674D01*
X89742436Y-118434969D01*
X89736892Y-118383923D01*
X89733322Y-118368912D01*
X89688073Y-118248210D01*
X89679674Y-118232868D01*
X89603002Y-118130565D01*
X89590635Y-118118198D01*
X89488332Y-118041526D01*
X89472990Y-118033127D01*
X89352285Y-117987876D01*
X89337282Y-117984309D01*
X89286227Y-117978763D01*
X89279529Y-117978400D01*
X88648094Y-117978400D01*
X88581055Y-117958715D01*
X88535300Y-117905911D01*
X88525356Y-117836753D01*
X88554381Y-117773197D01*
X88614748Y-117734968D01*
X88627979Y-117731274D01*
X88654667Y-117723822D01*
X88792512Y-117685335D01*
X88792515Y-117685334D01*
X88798356Y-117683703D01*
X88973489Y-117595237D01*
X89128103Y-117474440D01*
X89132059Y-117469856D01*
X89132063Y-117469853D01*
X89252347Y-117330501D01*
X89256309Y-117325911D01*
X89264620Y-117311282D01*
X89330708Y-117194945D01*
X89353225Y-117155309D01*
X89411094Y-116981350D01*
X89413246Y-116974880D01*
X89413246Y-116974879D01*
X89415158Y-116969132D01*
X89416180Y-116961048D01*
X89439314Y-116777915D01*
X89439314Y-116777914D01*
X89439749Y-116774471D01*
X89440141Y-116746400D01*
X89420994Y-116551128D01*
X89364284Y-116363294D01*
X89360475Y-116356129D01*
X89336248Y-116310565D01*
X94083889Y-116310565D01*
X94096631Y-116531544D01*
X94098043Y-116541594D01*
X94146703Y-116757521D01*
X94149741Y-116767215D01*
X94233016Y-116972295D01*
X94237590Y-116981350D01*
X94326246Y-117126025D01*
X94336538Y-117135336D01*
X94345176Y-117131613D01*
X95124183Y-116352607D01*
X95130459Y-116341113D01*
X95860325Y-116341113D01*
X95860454Y-116342918D01*
X95864637Y-116349427D01*
X96642508Y-117127297D01*
X96654326Y-117133750D01*
X96665879Y-117124925D01*
X96704061Y-117071789D01*
X96709283Y-117063097D01*
X96807355Y-116864663D01*
X96811094Y-116855220D01*
X96815843Y-116839588D01*
X96854166Y-116781165D01*
X96917990Y-116752736D01*
X96987053Y-116763327D01*
X97039426Y-116809573D01*
X97047097Y-116823719D01*
X97076475Y-116887444D01*
X97076478Y-116887449D01*
X97078856Y-116892607D01*
X97195588Y-117057780D01*
X97340466Y-117198913D01*
X97508637Y-117311282D01*
X97694470Y-117391122D01*
X97790502Y-117412852D01*
X97886193Y-117434505D01*
X97886195Y-117434505D01*
X97891740Y-117435760D01*
X98000020Y-117440014D01*
X98088161Y-117443477D01*
X98088163Y-117443477D01*
X98093842Y-117443700D01*
X98099462Y-117442885D01*
X98099465Y-117442885D01*
X98288387Y-117415493D01*
X98288389Y-117415493D01*
X98294007Y-117414678D01*
X98299384Y-117412853D01*
X98299387Y-117412852D01*
X98384090Y-117384099D01*
X98485531Y-117349664D01*
X98662001Y-117250837D01*
X98724433Y-117198913D01*
X98813138Y-117125137D01*
X98817505Y-117121505D01*
X98935501Y-116979631D01*
X98943206Y-116970367D01*
X98943207Y-116970366D01*
X98946837Y-116966001D01*
X99045664Y-116789531D01*
X99110678Y-116598007D01*
X99118595Y-116543406D01*
X99139176Y-116401458D01*
X99139176Y-116401453D01*
X99139700Y-116397842D01*
X99141215Y-116340000D01*
X99122708Y-116138591D01*
X99067807Y-115943926D01*
X98978351Y-115762527D01*
X98857335Y-115600467D01*
X98748565Y-115499921D01*
X98712988Y-115467034D01*
X98712986Y-115467033D01*
X98708812Y-115463174D01*
X98649870Y-115425984D01*
X98542566Y-115358280D01*
X98542564Y-115358279D01*
X98537757Y-115355246D01*
X98349898Y-115280298D01*
X98344317Y-115279188D01*
X98344314Y-115279187D01*
X98276373Y-115265673D01*
X98151526Y-115240839D01*
X98145839Y-115240765D01*
X98145834Y-115240764D01*
X97954975Y-115238266D01*
X97954970Y-115238266D01*
X97949286Y-115238192D01*
X97943682Y-115239155D01*
X97943681Y-115239155D01*
X97755546Y-115271482D01*
X97755543Y-115271483D01*
X97749949Y-115272444D01*
X97728977Y-115280181D01*
X97565521Y-115340483D01*
X97565517Y-115340485D01*
X97560193Y-115342449D01*
X97555310Y-115345354D01*
X97555308Y-115345355D01*
X97399712Y-115437925D01*
X97386371Y-115445862D01*
X97234305Y-115579220D01*
X97109089Y-115738057D01*
X97106442Y-115743088D01*
X97043633Y-115862467D01*
X96994998Y-115912630D01*
X96926963Y-115928536D01*
X96861129Y-115905134D01*
X96820180Y-115854175D01*
X96743157Y-115677035D01*
X96738364Y-115668096D01*
X96665068Y-115554796D01*
X96654552Y-115545739D01*
X96645138Y-115550073D01*
X95867817Y-116327393D01*
X95860325Y-116341113D01*
X95130459Y-116341113D01*
X95131675Y-116338887D01*
X95131546Y-116337082D01*
X95127363Y-116330573D01*
X94349661Y-115552872D01*
X94338309Y-115546673D01*
X94326223Y-115556142D01*
X94270419Y-115637947D01*
X94265415Y-115646756D01*
X94172215Y-115847540D01*
X94168713Y-115857058D01*
X94109558Y-116070362D01*
X94107659Y-116080318D01*
X94084137Y-116300422D01*
X94083889Y-116310565D01*
X89336248Y-116310565D01*
X89275017Y-116195408D01*
X89272170Y-116190053D01*
X89148161Y-116038002D01*
X89028276Y-115938825D01*
X89001656Y-115916803D01*
X89001654Y-115916802D01*
X88996980Y-115912935D01*
X88824385Y-115819613D01*
X88636952Y-115761593D01*
X88568299Y-115754377D01*
X88503684Y-115727792D01*
X88463700Y-115670495D01*
X88461040Y-115600676D01*
X88496550Y-115540502D01*
X88558955Y-115509079D01*
X88570454Y-115507528D01*
X88657400Y-115499921D01*
X88668031Y-115498047D01*
X88878644Y-115441614D01*
X88888777Y-115437925D01*
X89086395Y-115345774D01*
X89095727Y-115340387D01*
X89148085Y-115303725D01*
X89156327Y-115293414D01*
X89149371Y-115280181D01*
X89049895Y-115180705D01*
X94701412Y-115180705D01*
X94708048Y-115192837D01*
X95483393Y-115968183D01*
X95497113Y-115975675D01*
X95498918Y-115975546D01*
X95505427Y-115971363D01*
X96285195Y-115191594D01*
X96292103Y-115178943D01*
X96284454Y-115168445D01*
X96281838Y-115166379D01*
X96273394Y-115160769D01*
X96079605Y-115053792D01*
X96070354Y-115049635D01*
X95861691Y-114975744D01*
X95851892Y-114973155D01*
X95633967Y-114934336D01*
X95623876Y-114933382D01*
X95402537Y-114930678D01*
X95392411Y-114931387D01*
X95173615Y-114964867D01*
X95163742Y-114967219D01*
X94953343Y-115035988D01*
X94943994Y-115039918D01*
X94747657Y-115142124D01*
X94739068Y-115147533D01*
X94709731Y-115169559D01*
X94701412Y-115180705D01*
X89049895Y-115180705D01*
X88447407Y-114578217D01*
X88433687Y-114570725D01*
X88431881Y-114570854D01*
X88425374Y-114575036D01*
X87719518Y-115280892D01*
X87713191Y-115292478D01*
X87722338Y-115304301D01*
X87773873Y-115340387D01*
X87783205Y-115345774D01*
X87980823Y-115437925D01*
X87990956Y-115441614D01*
X88201569Y-115498047D01*
X88212200Y-115499921D01*
X88296244Y-115507274D01*
X88361313Y-115532726D01*
X88402292Y-115589317D01*
X88406170Y-115659079D01*
X88371716Y-115719863D01*
X88309870Y-115752371D01*
X88296676Y-115754292D01*
X88264405Y-115757229D01*
X88246418Y-115758866D01*
X88164812Y-115782884D01*
X88064008Y-115812552D01*
X88064003Y-115812554D01*
X88058193Y-115814264D01*
X88052823Y-115817071D01*
X88052819Y-115817073D01*
X87994542Y-115847540D01*
X87884312Y-115905167D01*
X87879589Y-115908964D01*
X87879588Y-115908965D01*
X87801981Y-115971363D01*
X87731400Y-116028111D01*
X87605280Y-116178416D01*
X87595939Y-116195408D01*
X87514436Y-116343661D01*
X87510756Y-116350354D01*
X87508924Y-116356129D01*
X87453279Y-116531544D01*
X87451428Y-116537378D01*
X87450752Y-116543406D01*
X87431608Y-116714082D01*
X87429557Y-116732363D01*
X87445975Y-116927883D01*
X87500058Y-117116491D01*
X87502830Y-117121886D01*
X87502831Y-117121887D01*
X87507830Y-117131613D01*
X87589744Y-117291001D01*
X87593509Y-117295751D01*
X87593512Y-117295756D01*
X87704654Y-117435983D01*
X87711618Y-117444769D01*
X87861038Y-117571935D01*
X87866336Y-117574896D01*
X87932365Y-117611798D01*
X88032313Y-117667657D01*
X88218918Y-117728289D01*
X88224936Y-117729007D01*
X88224947Y-117729009D01*
X88243941Y-117731274D01*
X88308178Y-117758758D01*
X88347358Y-117816609D01*
X88349041Y-117886459D01*
X88312694Y-117946130D01*
X88249857Y-117976678D01*
X88229257Y-117978401D01*
X87590074Y-117978401D01*
X87583369Y-117978764D01*
X87532323Y-117984308D01*
X87517312Y-117987878D01*
X87396610Y-118033127D01*
X87381268Y-118041526D01*
X87278965Y-118118198D01*
X87266598Y-118130565D01*
X87189926Y-118232868D01*
X87181527Y-118248210D01*
X87136276Y-118368915D01*
X87132709Y-118383918D01*
X87127163Y-118434973D01*
X87126800Y-118441671D01*
X87126800Y-119014570D01*
X85844000Y-119014570D01*
X85844000Y-114211795D01*
X87122276Y-114211795D01*
X87141279Y-114429000D01*
X87143153Y-114439631D01*
X87199586Y-114650244D01*
X87203275Y-114660377D01*
X87295426Y-114857995D01*
X87300813Y-114867327D01*
X87337475Y-114919685D01*
X87347786Y-114927927D01*
X87361019Y-114920971D01*
X88062983Y-114219007D01*
X88069259Y-114207513D01*
X88799125Y-114207513D01*
X88799254Y-114209319D01*
X88803436Y-114215826D01*
X89509292Y-114921682D01*
X89520878Y-114928009D01*
X89532701Y-114918862D01*
X89568787Y-114867327D01*
X89574174Y-114857995D01*
X89666325Y-114660377D01*
X89670014Y-114650244D01*
X89726447Y-114439631D01*
X89728321Y-114429000D01*
X89747324Y-114211795D01*
X89747324Y-114201005D01*
X89728321Y-113983800D01*
X89726447Y-113973169D01*
X89670014Y-113762556D01*
X89666325Y-113752423D01*
X89574174Y-113554805D01*
X89568787Y-113545473D01*
X89532125Y-113493115D01*
X89521814Y-113484873D01*
X89508581Y-113491829D01*
X88806617Y-114193793D01*
X88799125Y-114207513D01*
X88069259Y-114207513D01*
X88070475Y-114205287D01*
X88070346Y-114203481D01*
X88066164Y-114196974D01*
X87360308Y-113491118D01*
X87348722Y-113484791D01*
X87336899Y-113493938D01*
X87300813Y-113545473D01*
X87295426Y-113554805D01*
X87203275Y-113752423D01*
X87199586Y-113762556D01*
X87143153Y-113973169D01*
X87141279Y-113983800D01*
X87122276Y-114201005D01*
X87122276Y-114211795D01*
X85844000Y-114211795D01*
X85844000Y-111652363D01*
X87429557Y-111652363D01*
X87445975Y-111847883D01*
X87500058Y-112036491D01*
X87589744Y-112211001D01*
X87593509Y-112215751D01*
X87593512Y-112215756D01*
X87707849Y-112360014D01*
X87711618Y-112364769D01*
X87861038Y-112491935D01*
X87866336Y-112494896D01*
X88027013Y-112584695D01*
X88032313Y-112587657D01*
X88218918Y-112648289D01*
X88224939Y-112649007D01*
X88304464Y-112658490D01*
X88368702Y-112685974D01*
X88407882Y-112743825D01*
X88409567Y-112813674D01*
X88373221Y-112873346D01*
X88310383Y-112903895D01*
X88300589Y-112905146D01*
X88212200Y-112912879D01*
X88201569Y-112914753D01*
X87990956Y-112971186D01*
X87980823Y-112974875D01*
X87783205Y-113067026D01*
X87773873Y-113072413D01*
X87721515Y-113109075D01*
X87713273Y-113119386D01*
X87720229Y-113132619D01*
X88422193Y-113834583D01*
X88435913Y-113842075D01*
X88437719Y-113841946D01*
X88444226Y-113837764D01*
X89150082Y-113131908D01*
X89156409Y-113120322D01*
X89147262Y-113108499D01*
X89095727Y-113072413D01*
X89086395Y-113067026D01*
X88888777Y-112974875D01*
X88878644Y-112971186D01*
X88668031Y-112914753D01*
X88657401Y-112912879D01*
X88578081Y-112905939D01*
X88513013Y-112880486D01*
X88472034Y-112823895D01*
X88468156Y-112754133D01*
X88502610Y-112693349D01*
X88564457Y-112660842D01*
X88579372Y-112658777D01*
X88609376Y-112656468D01*
X88798356Y-112603703D01*
X88973489Y-112515237D01*
X89128103Y-112394440D01*
X89132059Y-112389856D01*
X89132063Y-112389853D01*
X89252347Y-112250501D01*
X89256309Y-112245911D01*
X89353225Y-112075309D01*
X89383921Y-111983033D01*
X89413246Y-111894880D01*
X89413246Y-111894879D01*
X89415158Y-111889132D01*
X89419367Y-111855819D01*
X89439314Y-111697915D01*
X89439314Y-111697914D01*
X89439749Y-111694471D01*
X89440141Y-111666400D01*
X89420994Y-111471128D01*
X89364284Y-111283294D01*
X89360475Y-111276129D01*
X89275017Y-111115408D01*
X89272170Y-111110053D01*
X89148161Y-110958002D01*
X89027460Y-110858150D01*
X89001656Y-110836803D01*
X89001654Y-110836802D01*
X88996980Y-110832935D01*
X88824385Y-110739613D01*
X88636952Y-110681593D01*
X88441819Y-110661083D01*
X88435786Y-110661632D01*
X88435782Y-110661632D01*
X88272078Y-110676531D01*
X88246418Y-110678866D01*
X88163017Y-110703412D01*
X88064008Y-110732552D01*
X88064003Y-110732554D01*
X88058193Y-110734264D01*
X88052823Y-110737071D01*
X88052819Y-110737073D01*
X87995271Y-110767159D01*
X87884312Y-110825167D01*
X87879589Y-110828964D01*
X87879588Y-110828965D01*
X87754615Y-110929446D01*
X87731400Y-110948111D01*
X87605280Y-111098416D01*
X87595939Y-111115408D01*
X87520193Y-111253189D01*
X87510756Y-111270354D01*
X87508924Y-111276129D01*
X87470523Y-111397185D01*
X87451428Y-111457378D01*
X87429557Y-111652363D01*
X85844000Y-111652363D01*
X85844000Y-109228000D01*
X85336000Y-108720000D01*
X81323362Y-108720000D01*
X81256323Y-108700315D01*
X81235681Y-108683681D01*
X80800319Y-108248319D01*
X80766834Y-108186996D01*
X80764000Y-108160638D01*
X80764000Y-91150271D01*
X91753758Y-91150271D01*
X91760713Y-91163503D01*
X92435393Y-91838183D01*
X92449113Y-91845675D01*
X92450919Y-91845546D01*
X92457426Y-91841364D01*
X93135998Y-91162792D01*
X93142324Y-91151206D01*
X93133177Y-91139382D01*
X93089865Y-91109055D01*
X93080515Y-91103657D01*
X92888931Y-91014320D01*
X92878798Y-91010631D01*
X92674608Y-90955919D01*
X92663977Y-90954045D01*
X92453395Y-90935621D01*
X92442605Y-90935621D01*
X92232023Y-90954045D01*
X92221392Y-90955919D01*
X92017202Y-91010631D01*
X92007069Y-91014320D01*
X91815483Y-91103658D01*
X91806139Y-91109053D01*
X91762001Y-91139958D01*
X91753758Y-91150271D01*
X80764000Y-91150271D01*
X80764000Y-90721396D01*
X86173344Y-90721396D01*
X86178981Y-90728926D01*
X86377567Y-90850620D01*
X86386231Y-90855035D01*
X86611064Y-90948164D01*
X86620300Y-90951165D01*
X86856942Y-91007978D01*
X86866528Y-91009496D01*
X87109146Y-91028590D01*
X87118854Y-91028590D01*
X87361472Y-91009496D01*
X87371058Y-91007978D01*
X87607700Y-90951165D01*
X87616936Y-90948164D01*
X87841769Y-90855035D01*
X87850433Y-90850620D01*
X88045409Y-90731139D01*
X88054721Y-90720845D01*
X88050999Y-90712209D01*
X87126607Y-89787817D01*
X87112887Y-89780325D01*
X87111081Y-89780454D01*
X87104574Y-89784636D01*
X86179995Y-90709215D01*
X86173344Y-90721396D01*
X80764000Y-90721396D01*
X80764000Y-89420854D01*
X85501410Y-89420854D01*
X85520504Y-89663472D01*
X85522022Y-89673058D01*
X85578835Y-89909700D01*
X85581836Y-89918936D01*
X85674965Y-90143769D01*
X85679380Y-90152433D01*
X85798861Y-90347409D01*
X85809155Y-90356721D01*
X85817791Y-90352999D01*
X86742183Y-89428607D01*
X86748459Y-89417113D01*
X87478325Y-89417113D01*
X87478454Y-89418919D01*
X87482636Y-89425426D01*
X88407215Y-90350005D01*
X88419396Y-90356656D01*
X88426926Y-90351019D01*
X88548620Y-90152433D01*
X88553035Y-90143769D01*
X88646164Y-89918936D01*
X88649165Y-89909700D01*
X88705978Y-89673058D01*
X88707496Y-89663472D01*
X88726590Y-89420854D01*
X88726590Y-89411146D01*
X88707496Y-89168528D01*
X88705978Y-89158942D01*
X88649165Y-88922300D01*
X88646164Y-88913064D01*
X88553035Y-88688231D01*
X88548620Y-88679567D01*
X88429139Y-88484591D01*
X88418845Y-88475279D01*
X88410209Y-88479001D01*
X87485817Y-89403393D01*
X87478325Y-89417113D01*
X86748459Y-89417113D01*
X86749675Y-89414887D01*
X86749546Y-89413081D01*
X86745364Y-89406574D01*
X85820785Y-88481995D01*
X85808604Y-88475344D01*
X85801074Y-88480981D01*
X85679380Y-88679567D01*
X85674965Y-88688231D01*
X85581836Y-88913064D01*
X85578835Y-88922300D01*
X85522022Y-89158942D01*
X85520504Y-89168528D01*
X85501410Y-89411146D01*
X85501410Y-89420854D01*
X80764000Y-89420854D01*
X80764000Y-88465000D01*
X80783685Y-88397961D01*
X80836489Y-88352206D01*
X80888000Y-88341000D01*
X85147691Y-88341000D01*
X85147691Y-88111155D01*
X86173279Y-88111155D01*
X86177001Y-88119791D01*
X87101393Y-89044183D01*
X87115113Y-89051675D01*
X87116919Y-89051546D01*
X87123426Y-89047364D01*
X88048005Y-88122785D01*
X88054656Y-88110604D01*
X88049019Y-88103074D01*
X87850433Y-87981380D01*
X87841769Y-87976965D01*
X87616936Y-87883836D01*
X87607700Y-87880835D01*
X87371058Y-87824022D01*
X87361472Y-87822504D01*
X87118854Y-87803410D01*
X87109146Y-87803410D01*
X86866528Y-87822504D01*
X86856942Y-87824022D01*
X86620300Y-87880835D01*
X86611064Y-87883836D01*
X86386231Y-87976965D01*
X86377567Y-87981380D01*
X86182591Y-88100861D01*
X86173279Y-88111155D01*
X85147691Y-88111155D01*
X85147691Y-87000000D01*
X85167376Y-86932961D01*
X85220180Y-86887206D01*
X85271691Y-86876000D01*
X85336000Y-86876000D01*
X85844000Y-86368000D01*
X85844000Y-83291069D01*
X86263164Y-83291069D01*
X86263535Y-83296731D01*
X86263535Y-83296735D01*
X86268851Y-83377842D01*
X86276392Y-83492894D01*
X86326178Y-83688928D01*
X86328554Y-83694082D01*
X86356022Y-83753663D01*
X86410856Y-83872607D01*
X86527588Y-84037780D01*
X86672466Y-84178913D01*
X86840637Y-84291282D01*
X87026470Y-84371122D01*
X87122502Y-84392852D01*
X87218193Y-84414505D01*
X87218195Y-84414505D01*
X87223740Y-84415760D01*
X87341135Y-84420372D01*
X87420161Y-84423477D01*
X87420163Y-84423477D01*
X87425842Y-84423700D01*
X87431462Y-84422885D01*
X87431465Y-84422885D01*
X87620387Y-84395493D01*
X87620389Y-84395493D01*
X87626007Y-84394678D01*
X87631384Y-84392853D01*
X87631387Y-84392852D01*
X87794482Y-84337488D01*
X87817531Y-84329664D01*
X87951490Y-84254644D01*
X87989048Y-84233611D01*
X87989050Y-84233610D01*
X87994001Y-84230837D01*
X88056433Y-84178913D01*
X88145138Y-84105137D01*
X88149505Y-84101505D01*
X88278837Y-83946001D01*
X88377664Y-83769531D01*
X88442678Y-83578007D01*
X88471700Y-83377842D01*
X88473215Y-83320000D01*
X88470557Y-83291069D01*
X88803164Y-83291069D01*
X88803535Y-83296731D01*
X88803535Y-83296735D01*
X88808851Y-83377842D01*
X88816392Y-83492894D01*
X88866178Y-83688928D01*
X88868554Y-83694082D01*
X88896022Y-83753663D01*
X88950856Y-83872607D01*
X89067588Y-84037780D01*
X89212466Y-84178913D01*
X89380637Y-84291282D01*
X89566470Y-84371122D01*
X89662502Y-84392852D01*
X89758193Y-84414505D01*
X89758195Y-84414505D01*
X89763740Y-84415760D01*
X89881135Y-84420372D01*
X89960161Y-84423477D01*
X89960163Y-84423477D01*
X89965842Y-84423700D01*
X89971462Y-84422885D01*
X89971465Y-84422885D01*
X90160387Y-84395493D01*
X90160389Y-84395493D01*
X90166007Y-84394678D01*
X90171384Y-84392853D01*
X90171387Y-84392852D01*
X90334482Y-84337488D01*
X90357531Y-84329664D01*
X90491490Y-84254644D01*
X90518089Y-84239748D01*
X91347500Y-84239748D01*
X91359133Y-84298231D01*
X91403448Y-84364552D01*
X91469769Y-84408867D01*
X91481745Y-84411249D01*
X91481747Y-84411250D01*
X91498073Y-84414497D01*
X91528252Y-84420500D01*
X93367748Y-84420500D01*
X93397927Y-84414497D01*
X93414253Y-84411250D01*
X93414255Y-84411249D01*
X93426231Y-84408867D01*
X93492552Y-84364552D01*
X93536867Y-84298231D01*
X93543532Y-84264726D01*
X94088001Y-84264726D01*
X94088364Y-84271431D01*
X94093908Y-84322477D01*
X94097478Y-84337488D01*
X94142727Y-84458190D01*
X94151126Y-84473532D01*
X94227798Y-84575835D01*
X94240165Y-84588202D01*
X94342468Y-84664874D01*
X94357810Y-84673273D01*
X94478515Y-84718524D01*
X94493518Y-84722091D01*
X94544573Y-84727637D01*
X94551271Y-84728000D01*
X95224170Y-84728000D01*
X95239169Y-84723596D01*
X95240356Y-84722226D01*
X95242000Y-84714668D01*
X95242000Y-83591830D01*
X95237596Y-83576831D01*
X95236226Y-83575644D01*
X95228668Y-83574000D01*
X94105831Y-83574000D01*
X94090832Y-83578404D01*
X94089645Y-83579774D01*
X94088001Y-83587332D01*
X94088001Y-84264726D01*
X93543532Y-84264726D01*
X93548500Y-84239748D01*
X93548500Y-82400252D01*
X93536867Y-82341769D01*
X93492552Y-82275448D01*
X93426231Y-82231133D01*
X93414255Y-82228751D01*
X93414253Y-82228750D01*
X93395674Y-82225055D01*
X93367748Y-82219500D01*
X91528252Y-82219500D01*
X91500326Y-82225055D01*
X91481747Y-82228750D01*
X91481745Y-82228751D01*
X91469769Y-82231133D01*
X91403448Y-82275448D01*
X91359133Y-82341769D01*
X91347500Y-82400252D01*
X91347500Y-84239748D01*
X90518089Y-84239748D01*
X90529048Y-84233611D01*
X90529050Y-84233610D01*
X90534001Y-84230837D01*
X90596433Y-84178913D01*
X90685138Y-84105137D01*
X90689505Y-84101505D01*
X90818837Y-83946001D01*
X90917664Y-83769531D01*
X90982678Y-83578007D01*
X91011700Y-83377842D01*
X91013215Y-83320000D01*
X90994708Y-83118591D01*
X90954708Y-82976762D01*
X90941352Y-82929403D01*
X90941351Y-82929400D01*
X90939807Y-82923926D01*
X90850351Y-82742527D01*
X90729335Y-82580467D01*
X90619332Y-82478781D01*
X90584988Y-82447034D01*
X90584986Y-82447033D01*
X90580812Y-82443174D01*
X90512785Y-82400252D01*
X90414566Y-82338280D01*
X90414564Y-82338279D01*
X90409757Y-82335246D01*
X90221898Y-82260298D01*
X90216317Y-82259188D01*
X90216314Y-82259187D01*
X90148373Y-82245673D01*
X90023526Y-82220839D01*
X90017839Y-82220765D01*
X90017834Y-82220764D01*
X89826975Y-82218266D01*
X89826970Y-82218266D01*
X89821286Y-82218192D01*
X89815682Y-82219155D01*
X89815681Y-82219155D01*
X89627546Y-82251482D01*
X89627543Y-82251483D01*
X89621949Y-82252444D01*
X89585009Y-82266072D01*
X89437521Y-82320483D01*
X89437517Y-82320485D01*
X89432193Y-82322449D01*
X89427310Y-82325354D01*
X89427308Y-82325355D01*
X89291171Y-82406348D01*
X89258371Y-82425862D01*
X89106305Y-82559220D01*
X88981089Y-82718057D01*
X88978442Y-82723088D01*
X88968215Y-82742527D01*
X88886914Y-82897053D01*
X88885229Y-82902479D01*
X88885228Y-82902482D01*
X88880152Y-82918831D01*
X88826937Y-83090213D01*
X88803164Y-83291069D01*
X88470557Y-83291069D01*
X88454708Y-83118591D01*
X88414708Y-82976762D01*
X88401352Y-82929403D01*
X88401351Y-82929400D01*
X88399807Y-82923926D01*
X88310351Y-82742527D01*
X88189335Y-82580467D01*
X88079332Y-82478781D01*
X88044988Y-82447034D01*
X88044986Y-82447033D01*
X88040812Y-82443174D01*
X87972785Y-82400252D01*
X87874566Y-82338280D01*
X87874564Y-82338279D01*
X87869757Y-82335246D01*
X87862814Y-82332476D01*
X87862147Y-82331952D01*
X87859412Y-82330559D01*
X87859686Y-82330022D01*
X87807844Y-82289356D01*
X87784910Y-82223357D01*
X87801298Y-82155437D01*
X87851806Y-82107159D01*
X87873125Y-82098535D01*
X87878635Y-82096882D01*
X87888079Y-82093180D01*
X88086850Y-81995803D01*
X88095576Y-81990602D01*
X88153328Y-81949408D01*
X88161597Y-81938875D01*
X88154721Y-81925932D01*
X87380607Y-81151817D01*
X87366887Y-81144325D01*
X87365082Y-81144454D01*
X87358573Y-81148637D01*
X86577979Y-81929232D01*
X86571328Y-81941413D01*
X86576526Y-81948357D01*
X86753146Y-82051565D01*
X86762292Y-82055948D01*
X86875134Y-82099038D01*
X86930740Y-82141343D01*
X86954647Y-82206995D01*
X86939265Y-82275151D01*
X86891017Y-82320472D01*
X86892193Y-82322449D01*
X86761418Y-82400252D01*
X86718371Y-82425862D01*
X86566305Y-82559220D01*
X86441089Y-82718057D01*
X86438442Y-82723088D01*
X86428215Y-82742527D01*
X86346914Y-82897053D01*
X86345229Y-82902479D01*
X86345228Y-82902482D01*
X86340152Y-82918831D01*
X86286937Y-83090213D01*
X86263164Y-83291069D01*
X85844000Y-83291069D01*
X85844000Y-81404454D01*
X85863685Y-81337415D01*
X85916489Y-81291660D01*
X85985647Y-81281716D01*
X86049203Y-81310741D01*
X86082889Y-81357802D01*
X86105016Y-81412295D01*
X86109590Y-81421350D01*
X86198246Y-81566025D01*
X86208538Y-81575336D01*
X86217176Y-81571613D01*
X87007677Y-80781113D01*
X87732325Y-80781113D01*
X87732454Y-80782918D01*
X87736637Y-80789427D01*
X88514508Y-81567297D01*
X88526326Y-81573750D01*
X88537879Y-81564925D01*
X88576061Y-81511789D01*
X88581283Y-81503097D01*
X88679355Y-81304663D01*
X88683094Y-81295220D01*
X88687843Y-81279588D01*
X88726166Y-81221165D01*
X88789990Y-81192736D01*
X88859053Y-81203327D01*
X88911426Y-81249573D01*
X88919097Y-81263719D01*
X88948475Y-81327444D01*
X88948478Y-81327449D01*
X88950856Y-81332607D01*
X89067588Y-81497780D01*
X89212466Y-81638913D01*
X89380637Y-81751282D01*
X89566470Y-81831122D01*
X89603429Y-81839485D01*
X89758193Y-81874505D01*
X89758195Y-81874505D01*
X89763740Y-81875760D01*
X89881135Y-81880372D01*
X89960161Y-81883477D01*
X89960163Y-81883477D01*
X89965842Y-81883700D01*
X89971462Y-81882885D01*
X89971465Y-81882885D01*
X90160387Y-81855493D01*
X90160389Y-81855493D01*
X90166007Y-81854678D01*
X90171384Y-81852853D01*
X90171387Y-81852852D01*
X90260081Y-81822744D01*
X90357531Y-81789664D01*
X90534001Y-81690837D01*
X90596433Y-81638913D01*
X90685138Y-81565137D01*
X90689505Y-81561505D01*
X90746364Y-81493140D01*
X90815206Y-81410367D01*
X90815207Y-81410366D01*
X90818837Y-81406001D01*
X90845830Y-81357802D01*
X90914886Y-81234491D01*
X90917664Y-81229531D01*
X90982678Y-81038007D01*
X90983493Y-81032387D01*
X91011176Y-80841458D01*
X91011176Y-80841453D01*
X91011700Y-80837842D01*
X91013215Y-80780000D01*
X91010557Y-80751069D01*
X91343164Y-80751069D01*
X91343535Y-80756731D01*
X91343535Y-80756735D01*
X91348851Y-80837842D01*
X91356392Y-80952894D01*
X91406178Y-81148928D01*
X91408554Y-81154082D01*
X91482999Y-81315563D01*
X91490856Y-81332607D01*
X91607588Y-81497780D01*
X91752466Y-81638913D01*
X91920637Y-81751282D01*
X92106470Y-81831122D01*
X92143429Y-81839485D01*
X92298193Y-81874505D01*
X92298195Y-81874505D01*
X92303740Y-81875760D01*
X92421135Y-81880372D01*
X92500161Y-81883477D01*
X92500163Y-81883477D01*
X92505842Y-81883700D01*
X92511462Y-81882885D01*
X92511465Y-81882885D01*
X92700387Y-81855493D01*
X92700389Y-81855493D01*
X92706007Y-81854678D01*
X92711384Y-81852853D01*
X92711387Y-81852852D01*
X92800081Y-81822744D01*
X92897531Y-81789664D01*
X93074001Y-81690837D01*
X93136433Y-81638913D01*
X93225138Y-81565137D01*
X93229505Y-81561505D01*
X93286364Y-81493140D01*
X93355206Y-81410367D01*
X93355207Y-81410366D01*
X93358837Y-81406001D01*
X93385830Y-81357802D01*
X93454886Y-81234491D01*
X93457664Y-81229531D01*
X93522678Y-81038007D01*
X93523493Y-81032387D01*
X93551176Y-80841458D01*
X93551176Y-80841453D01*
X93551700Y-80837842D01*
X93553215Y-80780000D01*
X93550510Y-80750565D01*
X94083889Y-80750565D01*
X94096631Y-80971544D01*
X94098043Y-80981594D01*
X94146703Y-81197521D01*
X94149741Y-81207215D01*
X94233016Y-81412295D01*
X94237590Y-81421350D01*
X94326246Y-81566025D01*
X94336538Y-81575336D01*
X94345176Y-81571613D01*
X95124183Y-80792607D01*
X95131675Y-80778887D01*
X95131546Y-80777082D01*
X95127363Y-80770573D01*
X94349661Y-79992872D01*
X94338309Y-79986673D01*
X94326223Y-79996142D01*
X94270419Y-80077947D01*
X94265415Y-80086756D01*
X94172215Y-80287540D01*
X94168713Y-80297058D01*
X94109558Y-80510362D01*
X94107659Y-80520318D01*
X94084137Y-80740422D01*
X94083889Y-80750565D01*
X93550510Y-80750565D01*
X93534708Y-80578591D01*
X93498341Y-80449642D01*
X93481352Y-80389403D01*
X93481351Y-80389400D01*
X93479807Y-80383926D01*
X93390351Y-80202527D01*
X93269335Y-80040467D01*
X93127703Y-79909544D01*
X93124988Y-79907034D01*
X93124986Y-79907033D01*
X93120812Y-79903174D01*
X93017759Y-79838152D01*
X92954566Y-79798280D01*
X92954564Y-79798279D01*
X92949757Y-79795246D01*
X92761898Y-79720298D01*
X92756317Y-79719188D01*
X92756314Y-79719187D01*
X92688373Y-79705673D01*
X92563526Y-79680839D01*
X92557839Y-79680765D01*
X92557834Y-79680764D01*
X92366975Y-79678266D01*
X92366970Y-79678266D01*
X92361286Y-79678192D01*
X92355682Y-79679155D01*
X92355681Y-79679155D01*
X92167546Y-79711482D01*
X92167543Y-79711483D01*
X92161949Y-79712444D01*
X92140660Y-79720298D01*
X91977521Y-79780483D01*
X91977517Y-79780485D01*
X91972193Y-79782449D01*
X91967310Y-79785354D01*
X91967308Y-79785355D01*
X91803262Y-79882952D01*
X91798371Y-79885862D01*
X91646305Y-80019220D01*
X91521089Y-80178057D01*
X91426914Y-80357053D01*
X91425229Y-80362479D01*
X91425228Y-80362482D01*
X91407123Y-80420790D01*
X91366937Y-80550213D01*
X91343164Y-80751069D01*
X91010557Y-80751069D01*
X90994708Y-80578591D01*
X90958341Y-80449642D01*
X90941352Y-80389403D01*
X90941351Y-80389400D01*
X90939807Y-80383926D01*
X90850351Y-80202527D01*
X90729335Y-80040467D01*
X90587703Y-79909544D01*
X90584988Y-79907034D01*
X90584986Y-79907033D01*
X90580812Y-79903174D01*
X90477759Y-79838152D01*
X90414566Y-79798280D01*
X90414564Y-79798279D01*
X90409757Y-79795246D01*
X90221898Y-79720298D01*
X90216317Y-79719188D01*
X90216314Y-79719187D01*
X90148373Y-79705673D01*
X90023526Y-79680839D01*
X90017839Y-79680765D01*
X90017834Y-79680764D01*
X89826975Y-79678266D01*
X89826970Y-79678266D01*
X89821286Y-79678192D01*
X89815682Y-79679155D01*
X89815681Y-79679155D01*
X89627546Y-79711482D01*
X89627543Y-79711483D01*
X89621949Y-79712444D01*
X89600660Y-79720298D01*
X89437521Y-79780483D01*
X89437517Y-79780485D01*
X89432193Y-79782449D01*
X89427310Y-79785354D01*
X89427308Y-79785355D01*
X89263262Y-79882952D01*
X89258371Y-79885862D01*
X89106305Y-80019220D01*
X88981089Y-80178057D01*
X88978442Y-80183088D01*
X88915633Y-80302467D01*
X88866998Y-80352630D01*
X88798963Y-80368536D01*
X88733129Y-80345134D01*
X88692180Y-80294175D01*
X88615157Y-80117035D01*
X88610364Y-80108096D01*
X88537068Y-79994796D01*
X88526552Y-79985739D01*
X88517138Y-79990073D01*
X87739817Y-80767393D01*
X87732325Y-80781113D01*
X87007677Y-80781113D01*
X87368000Y-80420790D01*
X88157195Y-79631594D01*
X88163141Y-79620705D01*
X94701412Y-79620705D01*
X94708048Y-79632837D01*
X95483393Y-80408183D01*
X95497113Y-80415675D01*
X95498918Y-80415546D01*
X95505427Y-80411363D01*
X96285195Y-79631594D01*
X96292103Y-79618943D01*
X96284454Y-79608445D01*
X96281838Y-79606379D01*
X96273394Y-79600769D01*
X96079605Y-79493792D01*
X96070354Y-79489635D01*
X95861691Y-79415744D01*
X95851892Y-79413155D01*
X95633967Y-79374336D01*
X95623876Y-79373382D01*
X95402537Y-79370678D01*
X95392411Y-79371387D01*
X95173615Y-79404867D01*
X95163742Y-79407219D01*
X94953343Y-79475988D01*
X94943994Y-79479918D01*
X94747657Y-79582124D01*
X94739068Y-79587533D01*
X94709731Y-79609559D01*
X94701412Y-79620705D01*
X88163141Y-79620705D01*
X88164103Y-79618943D01*
X88156454Y-79608445D01*
X88153838Y-79606379D01*
X88145394Y-79600769D01*
X87951605Y-79493792D01*
X87942354Y-79489635D01*
X87733691Y-79415744D01*
X87723892Y-79413155D01*
X87505967Y-79374336D01*
X87495876Y-79373382D01*
X87405191Y-79372274D01*
X87338397Y-79351772D01*
X87293291Y-79298413D01*
X87284193Y-79229138D01*
X87313992Y-79165942D01*
X87351252Y-79137374D01*
X89146000Y-78240000D01*
X90031420Y-77734046D01*
X90915347Y-77228945D01*
X90933329Y-77220502D01*
X92934947Y-76469895D01*
X92978486Y-76462000D01*
X106802000Y-76462000D01*
X106869039Y-76481685D01*
G37*
G04 #@! TD.AperFunction*
M02*
