G04 #@! TF.GenerationSoftware,KiCad,Pcbnew,6.0.11-2627ca5db0~126~ubuntu22.04.1*
G04 #@! TF.CreationDate,2023-12-06T10:38:33+01:00*
G04 #@! TF.ProjectId,bus-module_attiny1634,6275732d-6d6f-4647-956c-655f61747469,C*
G04 #@! TF.SameCoordinates,Original*
G04 #@! TF.FileFunction,Legend,Bot*
G04 #@! TF.FilePolarity,Positive*
%FSLAX46Y46*%
G04 Gerber Fmt 4.6, Leading zero omitted, Abs format (unit mm)*
G04 Created by KiCad (PCBNEW 6.0.11-2627ca5db0~126~ubuntu22.04.1) date 2023-12-06 10:38:33*
%MOMM*%
%LPD*%
G01*
G04 APERTURE LIST*
%ADD10C,0.150000*%
%ADD11C,0.254000*%
%ADD12C,2.200000*%
%ADD13R,1.800000X1.800000*%
%ADD14C,1.800000*%
%ADD15C,1.524000*%
%ADD16R,1.600000X1.600000*%
%ADD17C,1.600000*%
G04 APERTURE END LIST*
D10*
X103713904Y-112055976D02*
X102913904Y-112055976D01*
X102913904Y-112360738D01*
X102952000Y-112436928D01*
X102990095Y-112475023D01*
X103066285Y-112513119D01*
X103180571Y-112513119D01*
X103256761Y-112475023D01*
X103294857Y-112436928D01*
X103332952Y-112360738D01*
X103332952Y-112055976D01*
X103637714Y-113313119D02*
X103675809Y-113275023D01*
X103713904Y-113160738D01*
X103713904Y-113084547D01*
X103675809Y-112970261D01*
X103599619Y-112894071D01*
X103523428Y-112855976D01*
X103371047Y-112817880D01*
X103256761Y-112817880D01*
X103104380Y-112855976D01*
X103028190Y-112894071D01*
X102952000Y-112970261D01*
X102913904Y-113084547D01*
X102913904Y-113160738D01*
X102952000Y-113275023D01*
X102990095Y-113313119D01*
X102990095Y-113617880D02*
X102952000Y-113655976D01*
X102913904Y-113732166D01*
X102913904Y-113922642D01*
X102952000Y-113998833D01*
X102990095Y-114036928D01*
X103066285Y-114075023D01*
X103142476Y-114075023D01*
X103256761Y-114036928D01*
X103713904Y-113579785D01*
X103713904Y-114075023D01*
X105001904Y-112055976D02*
X104201904Y-112055976D01*
X104773333Y-112322642D01*
X104201904Y-112589309D01*
X105001904Y-112589309D01*
X104201904Y-113122642D02*
X104201904Y-113275023D01*
X104240000Y-113351214D01*
X104316190Y-113427404D01*
X104468571Y-113465500D01*
X104735238Y-113465500D01*
X104887619Y-113427404D01*
X104963809Y-113351214D01*
X105001904Y-113275023D01*
X105001904Y-113122642D01*
X104963809Y-113046452D01*
X104887619Y-112970261D01*
X104735238Y-112932166D01*
X104468571Y-112932166D01*
X104316190Y-112970261D01*
X104240000Y-113046452D01*
X104201904Y-113122642D01*
X104963809Y-113770261D02*
X105001904Y-113884547D01*
X105001904Y-114075023D01*
X104963809Y-114151214D01*
X104925714Y-114189309D01*
X104849523Y-114227404D01*
X104773333Y-114227404D01*
X104697142Y-114189309D01*
X104659047Y-114151214D01*
X104620952Y-114075023D01*
X104582857Y-113922642D01*
X104544761Y-113846452D01*
X104506666Y-113808357D01*
X104430476Y-113770261D01*
X104354285Y-113770261D01*
X104278095Y-113808357D01*
X104240000Y-113846452D01*
X104201904Y-113922642D01*
X104201904Y-114113119D01*
X104240000Y-114227404D01*
X105001904Y-114570261D02*
X104201904Y-114570261D01*
X106251809Y-112017880D02*
X106289904Y-112132166D01*
X106289904Y-112322642D01*
X106251809Y-112398833D01*
X106213714Y-112436928D01*
X106137523Y-112475023D01*
X106061333Y-112475023D01*
X105985142Y-112436928D01*
X105947047Y-112398833D01*
X105908952Y-112322642D01*
X105870857Y-112170261D01*
X105832761Y-112094071D01*
X105794666Y-112055976D01*
X105718476Y-112017880D01*
X105642285Y-112017880D01*
X105566095Y-112055976D01*
X105528000Y-112094071D01*
X105489904Y-112170261D01*
X105489904Y-112360738D01*
X105528000Y-112475023D01*
X106213714Y-113275023D02*
X106251809Y-113236928D01*
X106289904Y-113122642D01*
X106289904Y-113046452D01*
X106251809Y-112932166D01*
X106175619Y-112855976D01*
X106099428Y-112817880D01*
X105947047Y-112779785D01*
X105832761Y-112779785D01*
X105680380Y-112817880D01*
X105604190Y-112855976D01*
X105528000Y-112932166D01*
X105489904Y-113046452D01*
X105489904Y-113122642D01*
X105528000Y-113236928D01*
X105566095Y-113275023D01*
X106289904Y-113617880D02*
X105489904Y-113617880D01*
X106289904Y-114075023D02*
X105832761Y-113732166D01*
X105489904Y-114075023D02*
X105947047Y-113617880D01*
X100394000Y-121111023D02*
X100355904Y-121034833D01*
X100355904Y-120920547D01*
X100394000Y-120806261D01*
X100470190Y-120730071D01*
X100546380Y-120691976D01*
X100698761Y-120653880D01*
X100813047Y-120653880D01*
X100965428Y-120691976D01*
X101041619Y-120730071D01*
X101117809Y-120806261D01*
X101155904Y-120920547D01*
X101155904Y-120996738D01*
X101117809Y-121111023D01*
X101079714Y-121149119D01*
X100813047Y-121149119D01*
X100813047Y-120996738D01*
X101155904Y-121491976D02*
X100355904Y-121491976D01*
X101155904Y-121949119D01*
X100355904Y-121949119D01*
X101155904Y-122330071D02*
X100355904Y-122330071D01*
X100355904Y-122520547D01*
X100394000Y-122634833D01*
X100470190Y-122711023D01*
X100546380Y-122749119D01*
X100698761Y-122787214D01*
X100813047Y-122787214D01*
X100965428Y-122749119D01*
X101041619Y-122711023D01*
X101117809Y-122634833D01*
X101155904Y-122520547D01*
X101155904Y-122330071D01*
X102139142Y-120691976D02*
X102139142Y-121301500D01*
X102443904Y-120996738D02*
X101834380Y-120996738D01*
X101643904Y-122063404D02*
X101643904Y-121682452D01*
X102024857Y-121644357D01*
X101986761Y-121682452D01*
X101948666Y-121758642D01*
X101948666Y-121949119D01*
X101986761Y-122025309D01*
X102024857Y-122063404D01*
X102101047Y-122101500D01*
X102291523Y-122101500D01*
X102367714Y-122063404D01*
X102405809Y-122025309D01*
X102443904Y-121949119D01*
X102443904Y-121758642D01*
X102405809Y-121682452D01*
X102367714Y-121644357D01*
X101643904Y-122330071D02*
X102443904Y-122596738D01*
X101643904Y-122863404D01*
X103731904Y-121149119D02*
X103350952Y-120882452D01*
X103731904Y-120691976D02*
X102931904Y-120691976D01*
X102931904Y-120996738D01*
X102970000Y-121072928D01*
X103008095Y-121111023D01*
X103084285Y-121149119D01*
X103198571Y-121149119D01*
X103274761Y-121111023D01*
X103312857Y-121072928D01*
X103350952Y-120996738D01*
X103350952Y-120691976D01*
X103312857Y-121491976D02*
X103312857Y-121758642D01*
X103731904Y-121872928D02*
X103731904Y-121491976D01*
X102931904Y-121491976D01*
X102931904Y-121872928D01*
X103693809Y-122177690D02*
X103731904Y-122291976D01*
X103731904Y-122482452D01*
X103693809Y-122558642D01*
X103655714Y-122596738D01*
X103579523Y-122634833D01*
X103503333Y-122634833D01*
X103427142Y-122596738D01*
X103389047Y-122558642D01*
X103350952Y-122482452D01*
X103312857Y-122330071D01*
X103274761Y-122253880D01*
X103236666Y-122215785D01*
X103160476Y-122177690D01*
X103084285Y-122177690D01*
X103008095Y-122215785D01*
X102970000Y-122253880D01*
X102931904Y-122330071D01*
X102931904Y-122520547D01*
X102970000Y-122634833D01*
X105019904Y-120691976D02*
X104219904Y-120691976D01*
X104791333Y-120958642D01*
X104219904Y-121225309D01*
X105019904Y-121225309D01*
X105019904Y-121606261D02*
X104219904Y-121606261D01*
X104981809Y-121949119D02*
X105019904Y-122063404D01*
X105019904Y-122253880D01*
X104981809Y-122330071D01*
X104943714Y-122368166D01*
X104867523Y-122406261D01*
X104791333Y-122406261D01*
X104715142Y-122368166D01*
X104677047Y-122330071D01*
X104638952Y-122253880D01*
X104600857Y-122101500D01*
X104562761Y-122025309D01*
X104524666Y-121987214D01*
X104448476Y-121949119D01*
X104372285Y-121949119D01*
X104296095Y-121987214D01*
X104258000Y-122025309D01*
X104219904Y-122101500D01*
X104219904Y-122291976D01*
X104258000Y-122406261D01*
X104219904Y-122901500D02*
X104219904Y-123053880D01*
X104258000Y-123130071D01*
X104334190Y-123206261D01*
X104486571Y-123244357D01*
X104753238Y-123244357D01*
X104905619Y-123206261D01*
X104981809Y-123130071D01*
X105019904Y-123053880D01*
X105019904Y-122901500D01*
X104981809Y-122825309D01*
X104905619Y-122749119D01*
X104753238Y-122711023D01*
X104486571Y-122711023D01*
X104334190Y-122749119D01*
X104258000Y-122825309D01*
X104219904Y-122901500D01*
X106307904Y-120691976D02*
X105507904Y-120691976D01*
X105507904Y-120996738D01*
X105546000Y-121072928D01*
X105584095Y-121111023D01*
X105660285Y-121149119D01*
X105774571Y-121149119D01*
X105850761Y-121111023D01*
X105888857Y-121072928D01*
X105926952Y-120996738D01*
X105926952Y-120691976D01*
X105888857Y-121758642D02*
X105926952Y-121872928D01*
X105965047Y-121911023D01*
X106041238Y-121949119D01*
X106155523Y-121949119D01*
X106231714Y-121911023D01*
X106269809Y-121872928D01*
X106307904Y-121796738D01*
X106307904Y-121491976D01*
X105507904Y-121491976D01*
X105507904Y-121758642D01*
X105546000Y-121834833D01*
X105584095Y-121872928D01*
X105660285Y-121911023D01*
X105736476Y-121911023D01*
X105812666Y-121872928D01*
X105850761Y-121834833D01*
X105888857Y-121758642D01*
X105888857Y-121491976D01*
X105507904Y-122215785D02*
X105507904Y-122711023D01*
X105812666Y-122444357D01*
X105812666Y-122558642D01*
X105850761Y-122634833D01*
X105888857Y-122672928D01*
X105965047Y-122711023D01*
X106155523Y-122711023D01*
X106231714Y-122672928D01*
X106269809Y-122634833D01*
X106307904Y-122558642D01*
X106307904Y-122330071D01*
X106269809Y-122253880D01*
X106231714Y-122215785D01*
X81764095Y-102028666D02*
X81287904Y-102028666D01*
X81859333Y-102314380D02*
X81526000Y-101314380D01*
X81192666Y-102314380D01*
X100394000Y-85805023D02*
X100355904Y-85728833D01*
X100355904Y-85614547D01*
X100394000Y-85500261D01*
X100470190Y-85424071D01*
X100546380Y-85385976D01*
X100698761Y-85347880D01*
X100813047Y-85347880D01*
X100965428Y-85385976D01*
X101041619Y-85424071D01*
X101117809Y-85500261D01*
X101155904Y-85614547D01*
X101155904Y-85690738D01*
X101117809Y-85805023D01*
X101079714Y-85843119D01*
X100813047Y-85843119D01*
X100813047Y-85690738D01*
X101155904Y-86185976D02*
X100355904Y-86185976D01*
X101155904Y-86643119D01*
X100355904Y-86643119D01*
X101155904Y-87024071D02*
X100355904Y-87024071D01*
X100355904Y-87214547D01*
X100394000Y-87328833D01*
X100470190Y-87405023D01*
X100546380Y-87443119D01*
X100698761Y-87481214D01*
X100813047Y-87481214D01*
X100965428Y-87443119D01*
X101041619Y-87405023D01*
X101117809Y-87328833D01*
X101155904Y-87214547D01*
X101155904Y-87024071D01*
X101720095Y-85347880D02*
X101682000Y-85385976D01*
X101643904Y-85462166D01*
X101643904Y-85652642D01*
X101682000Y-85728833D01*
X101720095Y-85766928D01*
X101796285Y-85805023D01*
X101872476Y-85805023D01*
X101986761Y-85766928D01*
X102443904Y-85309785D01*
X102443904Y-85805023D01*
X101910571Y-86490738D02*
X102443904Y-86490738D01*
X101605809Y-86300261D02*
X102177238Y-86109785D01*
X102177238Y-86605023D01*
X101643904Y-86795500D02*
X102443904Y-87062166D01*
X101643904Y-87328833D01*
X103731904Y-85385976D02*
X102931904Y-85385976D01*
X102931904Y-85690738D01*
X102970000Y-85766928D01*
X103008095Y-85805023D01*
X103084285Y-85843119D01*
X103198571Y-85843119D01*
X103274761Y-85805023D01*
X103312857Y-85766928D01*
X103350952Y-85690738D01*
X103350952Y-85385976D01*
X103503333Y-86147880D02*
X103503333Y-86528833D01*
X103731904Y-86071690D02*
X102931904Y-86338357D01*
X103731904Y-86605023D01*
X102931904Y-87024071D02*
X102931904Y-87100261D01*
X102970000Y-87176452D01*
X103008095Y-87214547D01*
X103084285Y-87252642D01*
X103236666Y-87290738D01*
X103427142Y-87290738D01*
X103579523Y-87252642D01*
X103655714Y-87214547D01*
X103693809Y-87176452D01*
X103731904Y-87100261D01*
X103731904Y-87024071D01*
X103693809Y-86947880D01*
X103655714Y-86909785D01*
X103579523Y-86871690D01*
X103427142Y-86833595D01*
X103236666Y-86833595D01*
X103084285Y-86871690D01*
X103008095Y-86909785D01*
X102970000Y-86947880D01*
X102931904Y-87024071D01*
X105019904Y-85385976D02*
X104219904Y-85385976D01*
X104219904Y-85690738D01*
X104258000Y-85766928D01*
X104296095Y-85805023D01*
X104372285Y-85843119D01*
X104486571Y-85843119D01*
X104562761Y-85805023D01*
X104600857Y-85766928D01*
X104638952Y-85690738D01*
X104638952Y-85385976D01*
X104791333Y-86147880D02*
X104791333Y-86528833D01*
X105019904Y-86071690D02*
X104219904Y-86338357D01*
X105019904Y-86605023D01*
X104296095Y-86833595D02*
X104258000Y-86871690D01*
X104219904Y-86947880D01*
X104219904Y-87138357D01*
X104258000Y-87214547D01*
X104296095Y-87252642D01*
X104372285Y-87290738D01*
X104448476Y-87290738D01*
X104562761Y-87252642D01*
X105019904Y-86795500D01*
X105019904Y-87290738D01*
X106307904Y-85385976D02*
X105507904Y-85385976D01*
X105507904Y-85690738D01*
X105546000Y-85766928D01*
X105584095Y-85805023D01*
X105660285Y-85843119D01*
X105774571Y-85843119D01*
X105850761Y-85805023D01*
X105888857Y-85766928D01*
X105926952Y-85690738D01*
X105926952Y-85385976D01*
X106079333Y-86147880D02*
X106079333Y-86528833D01*
X106307904Y-86071690D02*
X105507904Y-86338357D01*
X106307904Y-86605023D01*
X105774571Y-87214547D02*
X106307904Y-87214547D01*
X105469809Y-87024071D02*
X106041238Y-86833595D01*
X106041238Y-87328833D01*
X84811904Y-107775428D02*
X84050000Y-107775428D01*
X84430952Y-108156380D02*
X84430952Y-107394476D01*
X83621428Y-107251619D02*
X83573809Y-107204000D01*
X83478571Y-107156380D01*
X83240476Y-107156380D01*
X83145238Y-107204000D01*
X83097619Y-107251619D01*
X83050000Y-107346857D01*
X83050000Y-107442095D01*
X83097619Y-107584952D01*
X83669047Y-108156380D01*
X83050000Y-108156380D01*
X82192857Y-107489714D02*
X82192857Y-108156380D01*
X82430952Y-107108761D02*
X82669047Y-107823047D01*
X82050000Y-107823047D01*
X81811904Y-107156380D02*
X81478571Y-108156380D01*
X81145238Y-107156380D01*
X100258000Y-77423023D02*
X100219904Y-77346833D01*
X100219904Y-77232547D01*
X100258000Y-77118261D01*
X100334190Y-77042071D01*
X100410380Y-77003976D01*
X100562761Y-76965880D01*
X100677047Y-76965880D01*
X100829428Y-77003976D01*
X100905619Y-77042071D01*
X100981809Y-77118261D01*
X101019904Y-77232547D01*
X101019904Y-77308738D01*
X100981809Y-77423023D01*
X100943714Y-77461119D01*
X100677047Y-77461119D01*
X100677047Y-77308738D01*
X101019904Y-77803976D02*
X100219904Y-77803976D01*
X101019904Y-78261119D01*
X100219904Y-78261119D01*
X101019904Y-78642071D02*
X100219904Y-78642071D01*
X100219904Y-78832547D01*
X100258000Y-78946833D01*
X100334190Y-79023023D01*
X100410380Y-79061119D01*
X100562761Y-79099214D01*
X100677047Y-79099214D01*
X100829428Y-79061119D01*
X100905619Y-79023023D01*
X100981809Y-78946833D01*
X101019904Y-78832547D01*
X101019904Y-78642071D01*
X101584095Y-76965880D02*
X101546000Y-77003976D01*
X101507904Y-77080166D01*
X101507904Y-77270642D01*
X101546000Y-77346833D01*
X101584095Y-77384928D01*
X101660285Y-77423023D01*
X101736476Y-77423023D01*
X101850761Y-77384928D01*
X102307904Y-76927785D01*
X102307904Y-77423023D01*
X101774571Y-78108738D02*
X102307904Y-78108738D01*
X101469809Y-77918261D02*
X102041238Y-77727785D01*
X102041238Y-78223023D01*
X101507904Y-78413500D02*
X102307904Y-78680166D01*
X101507904Y-78946833D01*
X103595904Y-77003976D02*
X102795904Y-77003976D01*
X102795904Y-77308738D01*
X102834000Y-77384928D01*
X102872095Y-77423023D01*
X102948285Y-77461119D01*
X103062571Y-77461119D01*
X103138761Y-77423023D01*
X103176857Y-77384928D01*
X103214952Y-77308738D01*
X103214952Y-77003976D01*
X103367333Y-77765880D02*
X103367333Y-78146833D01*
X103595904Y-77689690D02*
X102795904Y-77956357D01*
X103595904Y-78223023D01*
X103595904Y-78908738D02*
X103595904Y-78451595D01*
X103595904Y-78680166D02*
X102795904Y-78680166D01*
X102910190Y-78603976D01*
X102986380Y-78527785D01*
X103024476Y-78451595D01*
X104883904Y-77003976D02*
X104083904Y-77003976D01*
X104083904Y-77308738D01*
X104122000Y-77384928D01*
X104160095Y-77423023D01*
X104236285Y-77461119D01*
X104350571Y-77461119D01*
X104426761Y-77423023D01*
X104464857Y-77384928D01*
X104502952Y-77308738D01*
X104502952Y-77003976D01*
X104655333Y-77765880D02*
X104655333Y-78146833D01*
X104883904Y-77689690D02*
X104083904Y-77956357D01*
X104883904Y-78223023D01*
X104083904Y-78413500D02*
X104083904Y-78908738D01*
X104388666Y-78642071D01*
X104388666Y-78756357D01*
X104426761Y-78832547D01*
X104464857Y-78870642D01*
X104541047Y-78908738D01*
X104731523Y-78908738D01*
X104807714Y-78870642D01*
X104845809Y-78832547D01*
X104883904Y-78756357D01*
X104883904Y-78527785D01*
X104845809Y-78451595D01*
X104807714Y-78413500D01*
X106171904Y-77003976D02*
X105371904Y-77003976D01*
X105371904Y-77308738D01*
X105410000Y-77384928D01*
X105448095Y-77423023D01*
X105524285Y-77461119D01*
X105638571Y-77461119D01*
X105714761Y-77423023D01*
X105752857Y-77384928D01*
X105790952Y-77308738D01*
X105790952Y-77003976D01*
X105943333Y-77765880D02*
X105943333Y-78146833D01*
X106171904Y-77689690D02*
X105371904Y-77956357D01*
X106171904Y-78223023D01*
X105371904Y-78870642D02*
X105371904Y-78489690D01*
X105752857Y-78451595D01*
X105714761Y-78489690D01*
X105676666Y-78565880D01*
X105676666Y-78756357D01*
X105714761Y-78832547D01*
X105752857Y-78870642D01*
X105829047Y-78908738D01*
X106019523Y-78908738D01*
X106095714Y-78870642D01*
X106133809Y-78832547D01*
X106171904Y-78756357D01*
X106171904Y-78565880D01*
X106133809Y-78489690D01*
X106095714Y-78451595D01*
X81454571Y-96202571D02*
X81311714Y-96250190D01*
X81264095Y-96297809D01*
X81216476Y-96393047D01*
X81216476Y-96535904D01*
X81264095Y-96631142D01*
X81311714Y-96678761D01*
X81406952Y-96726380D01*
X81787904Y-96726380D01*
X81787904Y-95726380D01*
X81454571Y-95726380D01*
X81359333Y-95774000D01*
X81311714Y-95821619D01*
X81264095Y-95916857D01*
X81264095Y-96012095D01*
X81311714Y-96107333D01*
X81359333Y-96154952D01*
X81454571Y-96202571D01*
X81787904Y-96202571D01*
X99095357Y-77368857D02*
X98981071Y-77406952D01*
X98942976Y-77445047D01*
X98904880Y-77521238D01*
X98904880Y-77635523D01*
X98942976Y-77711714D01*
X98981071Y-77749809D01*
X99057261Y-77787904D01*
X99362023Y-77787904D01*
X99362023Y-76987904D01*
X99095357Y-76987904D01*
X99019166Y-77026000D01*
X98981071Y-77064095D01*
X98942976Y-77140285D01*
X98942976Y-77216476D01*
X98981071Y-77292666D01*
X99019166Y-77330761D01*
X99095357Y-77368857D01*
X99362023Y-77368857D01*
X98562023Y-76987904D02*
X98562023Y-77635523D01*
X98523928Y-77711714D01*
X98485833Y-77749809D01*
X98409642Y-77787904D01*
X98257261Y-77787904D01*
X98181071Y-77749809D01*
X98142976Y-77711714D01*
X98104880Y-77635523D01*
X98104880Y-76987904D01*
X97762023Y-77749809D02*
X97647738Y-77787904D01*
X97457261Y-77787904D01*
X97381071Y-77749809D01*
X97342976Y-77711714D01*
X97304880Y-77635523D01*
X97304880Y-77559333D01*
X97342976Y-77483142D01*
X97381071Y-77445047D01*
X97457261Y-77406952D01*
X97609642Y-77368857D01*
X97685833Y-77330761D01*
X97723928Y-77292666D01*
X97762023Y-77216476D01*
X97762023Y-77140285D01*
X97723928Y-77064095D01*
X97685833Y-77026000D01*
X97609642Y-76987904D01*
X97419166Y-76987904D01*
X97304880Y-77026000D01*
X96962023Y-77483142D02*
X96352500Y-77483142D01*
X95971547Y-77787904D02*
X95971547Y-76987904D01*
X95704880Y-77559333D01*
X95438214Y-76987904D01*
X95438214Y-77787904D01*
X94904880Y-76987904D02*
X94752500Y-76987904D01*
X94676309Y-77026000D01*
X94600119Y-77102190D01*
X94562023Y-77254571D01*
X94562023Y-77521238D01*
X94600119Y-77673619D01*
X94676309Y-77749809D01*
X94752500Y-77787904D01*
X94904880Y-77787904D01*
X94981071Y-77749809D01*
X95057261Y-77673619D01*
X95095357Y-77521238D01*
X95095357Y-77254571D01*
X95057261Y-77102190D01*
X94981071Y-77026000D01*
X94904880Y-76987904D01*
X94219166Y-77787904D02*
X94219166Y-76987904D01*
X94028690Y-76987904D01*
X93914404Y-77026000D01*
X93838214Y-77102190D01*
X93800119Y-77178380D01*
X93762023Y-77330761D01*
X93762023Y-77445047D01*
X93800119Y-77597428D01*
X93838214Y-77673619D01*
X93914404Y-77749809D01*
X94028690Y-77787904D01*
X94219166Y-77787904D01*
X93419166Y-76987904D02*
X93419166Y-77635523D01*
X93381071Y-77711714D01*
X93342976Y-77749809D01*
X93266785Y-77787904D01*
X93114404Y-77787904D01*
X93038214Y-77749809D01*
X93000119Y-77711714D01*
X92962023Y-77635523D01*
X92962023Y-76987904D01*
X92200119Y-77787904D02*
X92581071Y-77787904D01*
X92581071Y-76987904D01*
X91933452Y-77368857D02*
X91666785Y-77368857D01*
X91552500Y-77787904D02*
X91933452Y-77787904D01*
X91933452Y-76987904D01*
X91552500Y-76987904D01*
X99400119Y-78847333D02*
X99019166Y-78847333D01*
X99476309Y-79075904D02*
X99209642Y-78275904D01*
X98942976Y-79075904D01*
X98790595Y-78275904D02*
X98333452Y-78275904D01*
X98562023Y-79075904D02*
X98562023Y-78275904D01*
X98181071Y-78275904D02*
X97723928Y-78275904D01*
X97952500Y-79075904D02*
X97952500Y-78275904D01*
X97457261Y-79075904D02*
X97457261Y-78275904D01*
X97076309Y-79075904D02*
X97076309Y-78275904D01*
X96619166Y-79075904D01*
X96619166Y-78275904D01*
X96085833Y-78694952D02*
X96085833Y-79075904D01*
X96352500Y-78275904D02*
X96085833Y-78694952D01*
X95819166Y-78275904D01*
X95133452Y-79075904D02*
X95590595Y-79075904D01*
X95362023Y-79075904D02*
X95362023Y-78275904D01*
X95438214Y-78390190D01*
X95514404Y-78466380D01*
X95590595Y-78504476D01*
X94447738Y-78275904D02*
X94600119Y-78275904D01*
X94676309Y-78314000D01*
X94714404Y-78352095D01*
X94790595Y-78466380D01*
X94828690Y-78618761D01*
X94828690Y-78923523D01*
X94790595Y-78999714D01*
X94752500Y-79037809D01*
X94676309Y-79075904D01*
X94523928Y-79075904D01*
X94447738Y-79037809D01*
X94409642Y-78999714D01*
X94371547Y-78923523D01*
X94371547Y-78733047D01*
X94409642Y-78656857D01*
X94447738Y-78618761D01*
X94523928Y-78580666D01*
X94676309Y-78580666D01*
X94752500Y-78618761D01*
X94790595Y-78656857D01*
X94828690Y-78733047D01*
X94104880Y-78275904D02*
X93609642Y-78275904D01*
X93876309Y-78580666D01*
X93762023Y-78580666D01*
X93685833Y-78618761D01*
X93647738Y-78656857D01*
X93609642Y-78733047D01*
X93609642Y-78923523D01*
X93647738Y-78999714D01*
X93685833Y-79037809D01*
X93762023Y-79075904D01*
X93990595Y-79075904D01*
X94066785Y-79037809D01*
X94104880Y-78999714D01*
X92923928Y-78542571D02*
X92923928Y-79075904D01*
X93114404Y-78237809D02*
X93304880Y-78809238D01*
X92809642Y-78809238D01*
X91438214Y-79075904D02*
X91704880Y-78694952D01*
X91895357Y-79075904D02*
X91895357Y-78275904D01*
X91590595Y-78275904D01*
X91514404Y-78314000D01*
X91476309Y-78352095D01*
X91438214Y-78428285D01*
X91438214Y-78542571D01*
X91476309Y-78618761D01*
X91514404Y-78656857D01*
X91590595Y-78694952D01*
X91895357Y-78694952D01*
X90790595Y-79037809D02*
X90866785Y-79075904D01*
X91019166Y-79075904D01*
X91095357Y-79037809D01*
X91133452Y-78961619D01*
X91133452Y-78656857D01*
X91095357Y-78580666D01*
X91019166Y-78542571D01*
X90866785Y-78542571D01*
X90790595Y-78580666D01*
X90752500Y-78656857D01*
X90752500Y-78733047D01*
X91133452Y-78809238D01*
X90485833Y-78542571D02*
X90295357Y-79075904D01*
X90104880Y-78542571D01*
X89342976Y-78999714D02*
X89381071Y-79037809D01*
X89495357Y-79075904D01*
X89571547Y-79075904D01*
X89685833Y-79037809D01*
X89762023Y-78961619D01*
X89800119Y-78885428D01*
X89838214Y-78733047D01*
X89838214Y-78618761D01*
X89800119Y-78466380D01*
X89762023Y-78390190D01*
X89685833Y-78314000D01*
X89571547Y-78275904D01*
X89495357Y-78275904D01*
X89381071Y-78314000D01*
X89342976Y-78352095D01*
X83303904Y-90186000D02*
X83399142Y-90138380D01*
X83542000Y-90138380D01*
X83684857Y-90186000D01*
X83780095Y-90281238D01*
X83827714Y-90376476D01*
X83875333Y-90566952D01*
X83875333Y-90709809D01*
X83827714Y-90900285D01*
X83780095Y-90995523D01*
X83684857Y-91090761D01*
X83542000Y-91138380D01*
X83446761Y-91138380D01*
X83303904Y-91090761D01*
X83256285Y-91043142D01*
X83256285Y-90709809D01*
X83446761Y-90709809D01*
X82827714Y-91138380D02*
X82827714Y-90138380D01*
X82256285Y-91138380D01*
X82256285Y-90138380D01*
X81780095Y-91138380D02*
X81780095Y-90138380D01*
X81542000Y-90138380D01*
X81399142Y-90186000D01*
X81303904Y-90281238D01*
X81256285Y-90376476D01*
X81208666Y-90566952D01*
X81208666Y-90709809D01*
X81256285Y-90900285D01*
X81303904Y-90995523D01*
X81399142Y-91090761D01*
X81542000Y-91138380D01*
X81780095Y-91138380D01*
X98780952Y-123181904D02*
X98780952Y-122381904D01*
X98323809Y-123181904D02*
X98666666Y-122724761D01*
X98323809Y-122381904D02*
X98780952Y-122839047D01*
X97828571Y-122381904D02*
X97676190Y-122381904D01*
X97600000Y-122420000D01*
X97523809Y-122496190D01*
X97485714Y-122648571D01*
X97485714Y-122915238D01*
X97523809Y-123067619D01*
X97600000Y-123143809D01*
X97676190Y-123181904D01*
X97828571Y-123181904D01*
X97904761Y-123143809D01*
X97980952Y-123067619D01*
X98019047Y-122915238D01*
X98019047Y-122648571D01*
X97980952Y-122496190D01*
X97904761Y-122420000D01*
X97828571Y-122381904D01*
X97142857Y-122762857D02*
X96876190Y-122762857D01*
X96761904Y-123181904D02*
X97142857Y-123181904D01*
X97142857Y-122381904D01*
X96761904Y-122381904D01*
X96495238Y-122381904D02*
X96304761Y-123181904D01*
X96152380Y-122610476D01*
X96000000Y-123181904D01*
X95809523Y-122381904D01*
X95504761Y-123181904D02*
X95504761Y-122381904D01*
X94857142Y-122762857D02*
X94742857Y-122800952D01*
X94704761Y-122839047D01*
X94666666Y-122915238D01*
X94666666Y-123029523D01*
X94704761Y-123105714D01*
X94742857Y-123143809D01*
X94819047Y-123181904D01*
X95123809Y-123181904D01*
X95123809Y-122381904D01*
X94857142Y-122381904D01*
X94780952Y-122420000D01*
X94742857Y-122458095D01*
X94704761Y-122534285D01*
X94704761Y-122610476D01*
X94742857Y-122686666D01*
X94780952Y-122724761D01*
X94857142Y-122762857D01*
X95123809Y-122762857D01*
X94361904Y-122953333D02*
X93980952Y-122953333D01*
X94438095Y-123181904D02*
X94171428Y-122381904D01*
X93904761Y-123181904D01*
X88971333Y-92678380D02*
X88971333Y-93392666D01*
X89018952Y-93535523D01*
X89114190Y-93630761D01*
X89257047Y-93678380D01*
X89352285Y-93678380D01*
X88066571Y-92678380D02*
X88257047Y-92678380D01*
X88352285Y-92726000D01*
X88399904Y-92773619D01*
X88495142Y-92916476D01*
X88542761Y-93106952D01*
X88542761Y-93487904D01*
X88495142Y-93583142D01*
X88447523Y-93630761D01*
X88352285Y-93678380D01*
X88161809Y-93678380D01*
X88066571Y-93630761D01*
X88018952Y-93583142D01*
X87971333Y-93487904D01*
X87971333Y-93249809D01*
X88018952Y-93154571D01*
X88066571Y-93106952D01*
X88161809Y-93059333D01*
X88352285Y-93059333D01*
X88447523Y-93106952D01*
X88495142Y-93154571D01*
X88542761Y-93249809D01*
X88971333Y-98266380D02*
X88971333Y-98980666D01*
X89018952Y-99123523D01*
X89114190Y-99218761D01*
X89257047Y-99266380D01*
X89352285Y-99266380D01*
X88018952Y-98266380D02*
X88495142Y-98266380D01*
X88542761Y-98742571D01*
X88495142Y-98694952D01*
X88399904Y-98647333D01*
X88161809Y-98647333D01*
X88066571Y-98694952D01*
X88018952Y-98742571D01*
X87971333Y-98837809D01*
X87971333Y-99075904D01*
X88018952Y-99171142D01*
X88066571Y-99218761D01*
X88161809Y-99266380D01*
X88399904Y-99266380D01*
X88495142Y-99218761D01*
X88542761Y-99171142D01*
X88971333Y-104108380D02*
X88971333Y-104822666D01*
X89018952Y-104965523D01*
X89114190Y-105060761D01*
X89257047Y-105108380D01*
X89352285Y-105108380D01*
X88066571Y-104441714D02*
X88066571Y-105108380D01*
X88304666Y-104060761D02*
X88542761Y-104775047D01*
X87923714Y-104775047D01*
X91892333Y-84931380D02*
X91892333Y-85645666D01*
X91939952Y-85788523D01*
X92035190Y-85883761D01*
X92178047Y-85931380D01*
X92273285Y-85931380D01*
X91511380Y-84931380D02*
X90892333Y-84931380D01*
X91225666Y-85312333D01*
X91082809Y-85312333D01*
X90987571Y-85359952D01*
X90939952Y-85407571D01*
X90892333Y-85502809D01*
X90892333Y-85740904D01*
X90939952Y-85836142D01*
X90987571Y-85883761D01*
X91082809Y-85931380D01*
X91368523Y-85931380D01*
X91463761Y-85883761D01*
X91511380Y-85836142D01*
X94003714Y-85980666D02*
X94041809Y-85942571D01*
X94079904Y-85828285D01*
X94079904Y-85752095D01*
X94041809Y-85637809D01*
X93965619Y-85561619D01*
X93889428Y-85523523D01*
X93737047Y-85485428D01*
X93622761Y-85485428D01*
X93470380Y-85523523D01*
X93394190Y-85561619D01*
X93318000Y-85637809D01*
X93279904Y-85752095D01*
X93279904Y-85828285D01*
X93318000Y-85942571D01*
X93356095Y-85980666D01*
X94079904Y-86742571D02*
X94079904Y-86285428D01*
X94079904Y-86514000D02*
X93279904Y-86514000D01*
X93394190Y-86437809D01*
X93470380Y-86361619D01*
X93508476Y-86285428D01*
X99159904Y-85980666D02*
X98778952Y-85714000D01*
X99159904Y-85523523D02*
X98359904Y-85523523D01*
X98359904Y-85828285D01*
X98398000Y-85904476D01*
X98436095Y-85942571D01*
X98512285Y-85980666D01*
X98626571Y-85980666D01*
X98702761Y-85942571D01*
X98740857Y-85904476D01*
X98778952Y-85828285D01*
X98778952Y-85523523D01*
X99159904Y-86742571D02*
X99159904Y-86285428D01*
X99159904Y-86514000D02*
X98359904Y-86514000D01*
X98474190Y-86437809D01*
X98550380Y-86361619D01*
X98588476Y-86285428D01*
X95349904Y-85980666D02*
X94968952Y-85714000D01*
X95349904Y-85523523D02*
X94549904Y-85523523D01*
X94549904Y-85828285D01*
X94588000Y-85904476D01*
X94626095Y-85942571D01*
X94702285Y-85980666D01*
X94816571Y-85980666D01*
X94892761Y-85942571D01*
X94930857Y-85904476D01*
X94968952Y-85828285D01*
X94968952Y-85523523D01*
X94549904Y-86704476D02*
X94549904Y-86323523D01*
X94930857Y-86285428D01*
X94892761Y-86323523D01*
X94854666Y-86399714D01*
X94854666Y-86590190D01*
X94892761Y-86666380D01*
X94930857Y-86704476D01*
X95007047Y-86742571D01*
X95197523Y-86742571D01*
X95273714Y-86704476D01*
X95311809Y-86666380D01*
X95349904Y-86590190D01*
X95349904Y-86399714D01*
X95311809Y-86323523D01*
X95273714Y-86285428D01*
X97889904Y-85980666D02*
X97508952Y-85714000D01*
X97889904Y-85523523D02*
X97089904Y-85523523D01*
X97089904Y-85828285D01*
X97128000Y-85904476D01*
X97166095Y-85942571D01*
X97242285Y-85980666D01*
X97356571Y-85980666D01*
X97432761Y-85942571D01*
X97470857Y-85904476D01*
X97508952Y-85828285D01*
X97508952Y-85523523D01*
X97089904Y-86666380D02*
X97089904Y-86514000D01*
X97128000Y-86437809D01*
X97166095Y-86399714D01*
X97280380Y-86323523D01*
X97432761Y-86285428D01*
X97737523Y-86285428D01*
X97813714Y-86323523D01*
X97851809Y-86361619D01*
X97889904Y-86437809D01*
X97889904Y-86590190D01*
X97851809Y-86666380D01*
X97813714Y-86704476D01*
X97737523Y-86742571D01*
X97547047Y-86742571D01*
X97470857Y-86704476D01*
X97432761Y-86666380D01*
X97394666Y-86590190D01*
X97394666Y-86437809D01*
X97432761Y-86361619D01*
X97470857Y-86323523D01*
X97547047Y-86285428D01*
X92614666Y-90630380D02*
X92948000Y-90154190D01*
X93186095Y-90630380D02*
X93186095Y-89630380D01*
X92805142Y-89630380D01*
X92709904Y-89678000D01*
X92662285Y-89725619D01*
X92614666Y-89820857D01*
X92614666Y-89963714D01*
X92662285Y-90058952D01*
X92709904Y-90106571D01*
X92805142Y-90154190D01*
X93186095Y-90154190D01*
X92281333Y-89630380D02*
X91614666Y-89630380D01*
X92043238Y-90630380D01*
X98289904Y-91916380D02*
X98289904Y-92725904D01*
X98242285Y-92821142D01*
X98194666Y-92868761D01*
X98099428Y-92916380D01*
X97908952Y-92916380D01*
X97813714Y-92868761D01*
X97766095Y-92821142D01*
X97718476Y-92725904D01*
X97718476Y-91916380D01*
X96813714Y-92249714D02*
X96813714Y-92916380D01*
X97051809Y-91868761D02*
X97289904Y-92583047D01*
X96670857Y-92583047D01*
X94892714Y-101982666D02*
X94930809Y-101944571D01*
X94968904Y-101830285D01*
X94968904Y-101754095D01*
X94930809Y-101639809D01*
X94854619Y-101563619D01*
X94778428Y-101525523D01*
X94626047Y-101487428D01*
X94511761Y-101487428D01*
X94359380Y-101525523D01*
X94283190Y-101563619D01*
X94207000Y-101639809D01*
X94168904Y-101754095D01*
X94168904Y-101830285D01*
X94207000Y-101944571D01*
X94245095Y-101982666D01*
X94435571Y-102668380D02*
X94968904Y-102668380D01*
X94130809Y-102477904D02*
X94702238Y-102287428D01*
X94702238Y-102782666D01*
X104417714Y-101919166D02*
X104455809Y-101881071D01*
X104493904Y-101766785D01*
X104493904Y-101690595D01*
X104455809Y-101576309D01*
X104379619Y-101500119D01*
X104303428Y-101462023D01*
X104151047Y-101423928D01*
X104036761Y-101423928D01*
X103884380Y-101462023D01*
X103808190Y-101500119D01*
X103732000Y-101576309D01*
X103693904Y-101690595D01*
X103693904Y-101766785D01*
X103732000Y-101881071D01*
X103770095Y-101919166D01*
X103693904Y-102185833D02*
X103693904Y-102719166D01*
X104493904Y-102376309D01*
X88971333Y-86836380D02*
X88971333Y-87550666D01*
X89018952Y-87693523D01*
X89114190Y-87788761D01*
X89257047Y-87836380D01*
X89352285Y-87836380D01*
X88590380Y-86836380D02*
X87923714Y-86836380D01*
X88352285Y-87836380D01*
X92955904Y-108172380D02*
X92955904Y-108981904D01*
X92908285Y-109077142D01*
X92860666Y-109124761D01*
X92765428Y-109172380D01*
X92574952Y-109172380D01*
X92479714Y-109124761D01*
X92432095Y-109077142D01*
X92384476Y-108981904D01*
X92384476Y-108172380D01*
X91432095Y-108172380D02*
X91908285Y-108172380D01*
X91955904Y-108648571D01*
X91908285Y-108600952D01*
X91813047Y-108553333D01*
X91574952Y-108553333D01*
X91479714Y-108600952D01*
X91432095Y-108648571D01*
X91384476Y-108743809D01*
X91384476Y-108981904D01*
X91432095Y-109077142D01*
X91479714Y-109124761D01*
X91574952Y-109172380D01*
X91813047Y-109172380D01*
X91908285Y-109124761D01*
X91955904Y-109077142D01*
X104893904Y-91916380D02*
X104893904Y-92725904D01*
X104846285Y-92821142D01*
X104798666Y-92868761D01*
X104703428Y-92916380D01*
X104512952Y-92916380D01*
X104417714Y-92868761D01*
X104370095Y-92821142D01*
X104322476Y-92725904D01*
X104322476Y-91916380D01*
X103893904Y-92011619D02*
X103846285Y-91964000D01*
X103751047Y-91916380D01*
X103512952Y-91916380D01*
X103417714Y-91964000D01*
X103370095Y-92011619D01*
X103322476Y-92106857D01*
X103322476Y-92202095D01*
X103370095Y-92344952D01*
X103941523Y-92916380D01*
X103322476Y-92916380D01*
X96619904Y-85523523D02*
X95819904Y-85523523D01*
X95819904Y-85714000D01*
X95858000Y-85828285D01*
X95934190Y-85904476D01*
X96010380Y-85942571D01*
X96162761Y-85980666D01*
X96277047Y-85980666D01*
X96429428Y-85942571D01*
X96505619Y-85904476D01*
X96581809Y-85828285D01*
X96619904Y-85714000D01*
X96619904Y-85523523D01*
X96619904Y-86742571D02*
X96619904Y-86285428D01*
X96619904Y-86514000D02*
X95819904Y-86514000D01*
X95934190Y-86437809D01*
X96010380Y-86361619D01*
X96048476Y-86285428D01*
X86072600Y-96680400D02*
X86580600Y-97696400D01*
X89095200Y-97696400D02*
X89603200Y-96680400D01*
X90593800Y-97696400D02*
X90593800Y-91956000D01*
X90593800Y-91956000D02*
X89095200Y-91956000D01*
X80129000Y-97696400D02*
X86580600Y-97696400D01*
X89603200Y-96680400D02*
X86072600Y-96680400D01*
X80129000Y-91956000D02*
X86580600Y-91956000D01*
X89603200Y-90940000D02*
X86072600Y-90940000D01*
X86072600Y-90940000D02*
X86580600Y-91956000D01*
X90593800Y-97696400D02*
X89095200Y-97696400D01*
X89095200Y-91956000D02*
X89603200Y-90940000D01*
X80129000Y-91956000D02*
X80129000Y-97696400D01*
X80135200Y-97696400D02*
X80135200Y-103436800D01*
X90600000Y-103436800D02*
X89101400Y-103436800D01*
X90600000Y-103436800D02*
X90600000Y-97696400D01*
X89101400Y-103436800D02*
X89609400Y-102420800D01*
X89609400Y-102420800D02*
X86078800Y-102420800D01*
X86078800Y-102420800D02*
X86586800Y-103436800D01*
X89609400Y-96680400D02*
X86078800Y-96680400D01*
X90600000Y-97696400D02*
X89101400Y-97696400D01*
X80135200Y-97696400D02*
X86586800Y-97696400D01*
X86078800Y-96680400D02*
X86586800Y-97696400D01*
X80135200Y-103436800D02*
X86586800Y-103436800D01*
X89101400Y-97696400D02*
X89609400Y-96680400D01*
X89095200Y-109177200D02*
X89603200Y-108161200D01*
X80129000Y-103436800D02*
X86580600Y-103436800D01*
X89603200Y-108161200D02*
X86072600Y-108161200D01*
X89603200Y-102420800D02*
X86072600Y-102420800D01*
X89095200Y-103436800D02*
X89603200Y-102420800D01*
X80129000Y-103436800D02*
X80129000Y-109177200D01*
X80129000Y-109177200D02*
X86580600Y-109177200D01*
X90593800Y-103436800D02*
X89095200Y-103436800D01*
X86072600Y-102420800D02*
X86580600Y-103436800D01*
X86072600Y-108161200D02*
X86580600Y-109177200D01*
X90593800Y-109177200D02*
X90593800Y-103436800D01*
X90593800Y-109177200D02*
X89095200Y-109177200D01*
X93718000Y-79510000D02*
X86098000Y-79510000D01*
X93718000Y-84590000D02*
X93718000Y-79510000D01*
X86098000Y-84590000D02*
X93718000Y-84590000D01*
X86098000Y-79510000D02*
X86098000Y-84590000D01*
X95750000Y-89924000D02*
X95750000Y-90940000D01*
X97274000Y-87892000D02*
X95750000Y-87892000D01*
X97274000Y-88908000D02*
X97274000Y-87892000D01*
X95750000Y-90940000D02*
X97274000Y-90940000D01*
X97274000Y-90940000D02*
X97274000Y-89924000D01*
X95750000Y-87892000D02*
X95750000Y-88908000D01*
X103878000Y-89924000D02*
X103878000Y-90940000D01*
X105402000Y-88908000D02*
X105402000Y-87892000D01*
X105402000Y-87892000D02*
X103878000Y-87892000D01*
X103878000Y-87892000D02*
X103878000Y-88908000D01*
X105402000Y-90940000D02*
X105402000Y-89924000D01*
X103878000Y-90940000D02*
X105402000Y-90940000D01*
X99306000Y-88908000D02*
X99306000Y-87892000D01*
X99306000Y-87892000D02*
X97782000Y-87892000D01*
X97782000Y-89924000D02*
X97782000Y-90940000D01*
X97782000Y-87892000D02*
X97782000Y-88908000D01*
X97782000Y-90940000D02*
X99306000Y-90940000D01*
X99306000Y-90940000D02*
X99306000Y-89924000D01*
X101338000Y-90940000D02*
X102862000Y-90940000D01*
X102862000Y-87892000D02*
X101338000Y-87892000D01*
X102862000Y-88908000D02*
X102862000Y-87892000D01*
X102862000Y-90940000D02*
X102862000Y-89924000D01*
X101338000Y-89924000D02*
X101338000Y-90940000D01*
X101338000Y-87892000D02*
X101338000Y-88908000D01*
D11*
X92448000Y-94750000D02*
X92448000Y-93480000D01*
X93718000Y-99830000D02*
X93718000Y-94750000D01*
X91178000Y-94750000D02*
X91178000Y-99830000D01*
X91178000Y-99830000D02*
X93718000Y-99830000D01*
X93718000Y-94750000D02*
X91178000Y-94750000D01*
X93718000Y-94750000D02*
X92448000Y-94750000D01*
X92448000Y-99830000D02*
X92448000Y-101100000D01*
D10*
X94861000Y-94623000D02*
X100195000Y-94623000D01*
X94861000Y-97036000D02*
X95369000Y-97036000D01*
X100195000Y-98433000D02*
X100195000Y-94623000D01*
X94861000Y-98433000D02*
X94861000Y-94750000D01*
X95369000Y-97036000D02*
X95369000Y-96020000D01*
X94861000Y-94750000D02*
X94861000Y-94623000D01*
X95369000Y-96020000D02*
X94861000Y-96020000D01*
X100195000Y-98433000D02*
X94861000Y-98433000D01*
X95242000Y-100592000D02*
X95242000Y-101608000D01*
X96766000Y-101608000D02*
X96766000Y-100592000D01*
X95242000Y-103640000D02*
X96766000Y-103640000D01*
X96766000Y-103640000D02*
X96766000Y-102624000D01*
X95242000Y-102624000D02*
X95242000Y-103640000D01*
X96766000Y-100592000D02*
X95242000Y-100592000D01*
X101846000Y-103576500D02*
X103370000Y-103576500D01*
X103370000Y-103576500D02*
X103370000Y-102560500D01*
X101846000Y-100528500D02*
X101846000Y-101544500D01*
X101846000Y-102560500D02*
X101846000Y-103576500D01*
X103370000Y-100528500D02*
X101846000Y-100528500D01*
X103370000Y-101544500D02*
X103370000Y-100528500D01*
X89095200Y-86215600D02*
X89603200Y-85199600D01*
X80129000Y-91956000D02*
X86580600Y-91956000D01*
X80129000Y-86215600D02*
X86580600Y-86215600D01*
X89603200Y-85199600D02*
X86072600Y-85199600D01*
X90593800Y-91956000D02*
X89095200Y-91956000D01*
X89603200Y-90940000D02*
X86072600Y-90940000D01*
X89095200Y-91956000D02*
X89603200Y-90940000D01*
X80129000Y-86215600D02*
X80129000Y-91956000D01*
X90593800Y-91956000D02*
X90593800Y-86215600D01*
X86072600Y-90940000D02*
X86580600Y-91956000D01*
X90593800Y-86215600D02*
X89095200Y-86215600D01*
X86072600Y-85199600D02*
X86580600Y-86215600D01*
X87164800Y-121318400D02*
X87164800Y-109634400D01*
X93260800Y-109634400D02*
X93260800Y-121318400D01*
X87164800Y-109634400D02*
X93260800Y-109634400D01*
X93260800Y-121318400D02*
X87164800Y-121318400D01*
X101465000Y-94623000D02*
X106799000Y-94623000D01*
X106799000Y-98433000D02*
X106799000Y-94623000D01*
X101465000Y-98433000D02*
X101465000Y-94750000D01*
X101973000Y-96020000D02*
X101465000Y-96020000D01*
X101465000Y-97036000D02*
X101973000Y-97036000D01*
X101973000Y-97036000D02*
X101973000Y-96020000D01*
X106799000Y-98433000D02*
X101465000Y-98433000D01*
X101465000Y-94750000D02*
X101465000Y-94623000D01*
X99646360Y-88516840D02*
X99646360Y-90315160D01*
X100997640Y-89065480D02*
X99646360Y-89065480D01*
X100997640Y-90315160D02*
X100997640Y-88516840D01*
D12*
X87114000Y-95156400D03*
X87120200Y-100896800D03*
X87114000Y-106637200D03*
D13*
X92448000Y-83320000D03*
D14*
X92448000Y-80780000D03*
X89908000Y-83320000D03*
X89908000Y-80780000D03*
X87368000Y-83320000D03*
X87368000Y-80780000D03*
D15*
X92448000Y-102370000D03*
X92448000Y-92210000D03*
D12*
X87114000Y-89416000D03*
D16*
X88434800Y-119286400D03*
D17*
X88434800Y-116746400D03*
X88434800Y-114206400D03*
X88434800Y-111666400D03*
M02*
