G04 #@! TF.GenerationSoftware,KiCad,Pcbnew,6.0.11-2627ca5db0~126~ubuntu22.04.1*
G04 #@! TF.CreationDate,2023-12-06T10:38:33+01:00*
G04 #@! TF.ProjectId,bus-module_attiny1634,6275732d-6d6f-4647-956c-655f61747469,C*
G04 #@! TF.SameCoordinates,Original*
G04 #@! TF.FileFunction,Other,Comment*
%FSLAX46Y46*%
G04 Gerber Fmt 4.6, Leading zero omitted, Abs format (unit mm)*
G04 Created by KiCad (PCBNEW 6.0.11-2627ca5db0~126~ubuntu22.04.1) date 2023-12-06 10:38:33*
%MOMM*%
%LPD*%
G01*
G04 APERTURE LIST*
%ADD10C,0.100000*%
%ADD11C,0.200000*%
%ADD12C,0.300000*%
G04 APERTURE END LIST*
D10*
X85000000Y-86000000D02*
X80000000Y-86000000D01*
X80000000Y-109500000D02*
X85000000Y-109500000D01*
D11*
X100492000Y-100254000D02*
G75*
G03*
X100492000Y-100254000I-1000000J0D01*
G01*
X99492000Y-75254000D02*
X99492000Y-125254000D01*
D10*
X85000000Y-120000000D02*
X85000000Y-109500000D01*
X85000000Y-80000000D02*
X85000000Y-86000000D01*
D12*
X69521428Y-102535714D02*
X69450000Y-102464285D01*
X69378571Y-102321428D01*
X69378571Y-101964285D01*
X69450000Y-101821428D01*
X69521428Y-101750000D01*
X69664285Y-101678571D01*
X69807142Y-101678571D01*
X70021428Y-101750000D01*
X70878571Y-102607142D01*
X70878571Y-101678571D01*
X69378571Y-101178571D02*
X69378571Y-100250000D01*
X69950000Y-100750000D01*
X69950000Y-100535714D01*
X70021428Y-100392857D01*
X70092857Y-100321428D01*
X70235714Y-100250000D01*
X70592857Y-100250000D01*
X70735714Y-100321428D01*
X70807142Y-100392857D01*
X70878571Y-100535714D01*
X70878571Y-100964285D01*
X70807142Y-101107142D01*
X70735714Y-101178571D01*
X70735714Y-99607142D02*
X70807142Y-99535714D01*
X70878571Y-99607142D01*
X70807142Y-99678571D01*
X70735714Y-99607142D01*
X70878571Y-99607142D01*
X69378571Y-98178571D02*
X69378571Y-98892857D01*
X70092857Y-98964285D01*
X70021428Y-98892857D01*
X69950000Y-98750000D01*
X69950000Y-98392857D01*
X70021428Y-98250000D01*
X70092857Y-98178571D01*
X70235714Y-98107142D01*
X70592857Y-98107142D01*
X70735714Y-98178571D01*
X70807142Y-98250000D01*
X70878571Y-98392857D01*
X70878571Y-98750000D01*
X70807142Y-98892857D01*
X70735714Y-98964285D01*
X70878571Y-96321428D02*
X69878571Y-96321428D01*
X70021428Y-96321428D02*
X69950000Y-96250000D01*
X69878571Y-96107142D01*
X69878571Y-95892857D01*
X69950000Y-95750000D01*
X70092857Y-95678571D01*
X70878571Y-95678571D01*
X70092857Y-95678571D02*
X69950000Y-95607142D01*
X69878571Y-95464285D01*
X69878571Y-95250000D01*
X69950000Y-95107142D01*
X70092857Y-95035714D01*
X70878571Y-95035714D01*
X70878571Y-94321428D02*
X69878571Y-94321428D01*
X70021428Y-94321428D02*
X69950000Y-94250000D01*
X69878571Y-94107142D01*
X69878571Y-93892857D01*
X69950000Y-93750000D01*
X70092857Y-93678571D01*
X70878571Y-93678571D01*
X70092857Y-93678571D02*
X69950000Y-93607142D01*
X69878571Y-93464285D01*
X69878571Y-93250000D01*
X69950000Y-93107142D01*
X70092857Y-93035714D01*
X70878571Y-93035714D01*
X80000000Y-109500000D02*
X71413580Y-109500000D01*
X80000000Y-86000000D02*
X71413580Y-86000000D01*
X72000000Y-109500000D02*
X72000000Y-86000000D01*
X72000000Y-109500000D02*
X72000000Y-86000000D01*
X72000000Y-109500000D02*
X72586421Y-108373496D01*
X72000000Y-109500000D02*
X71413579Y-108373496D01*
X72000000Y-86000000D02*
X71413579Y-87126504D01*
X72000000Y-86000000D02*
X72586421Y-87126504D01*
X69378571Y-83785714D02*
X69378571Y-84071428D01*
X69450000Y-84214285D01*
X69521428Y-84285714D01*
X69735714Y-84428571D01*
X70021428Y-84500000D01*
X70592857Y-84500000D01*
X70735714Y-84428571D01*
X70807142Y-84357142D01*
X70878571Y-84214285D01*
X70878571Y-83928571D01*
X70807142Y-83785714D01*
X70735714Y-83714285D01*
X70592857Y-83642857D01*
X70235714Y-83642857D01*
X70092857Y-83714285D01*
X70021428Y-83785714D01*
X69950000Y-83928571D01*
X69950000Y-84214285D01*
X70021428Y-84357142D01*
X70092857Y-84428571D01*
X70235714Y-84500000D01*
X70735714Y-83000000D02*
X70807142Y-82928571D01*
X70878571Y-83000000D01*
X70807142Y-83071428D01*
X70735714Y-83000000D01*
X70878571Y-83000000D01*
X69378571Y-82000000D02*
X69378571Y-81857142D01*
X69450000Y-81714285D01*
X69521428Y-81642857D01*
X69664285Y-81571428D01*
X69950000Y-81500000D01*
X70307142Y-81500000D01*
X70592857Y-81571428D01*
X70735714Y-81642857D01*
X70807142Y-81714285D01*
X70878571Y-81857142D01*
X70878571Y-82000000D01*
X70807142Y-82142857D01*
X70735714Y-82214285D01*
X70592857Y-82285714D01*
X70307142Y-82357142D01*
X69950000Y-82357142D01*
X69664285Y-82285714D01*
X69521428Y-82214285D01*
X69450000Y-82142857D01*
X69378571Y-82000000D01*
X85000000Y-86000000D02*
X71413580Y-86000000D01*
X85000000Y-80000000D02*
X71413580Y-80000000D01*
X72000000Y-86000000D02*
X72000000Y-80000000D01*
X72000000Y-86000000D02*
X72000000Y-80000000D01*
X72000000Y-86000000D02*
X72586421Y-84873496D01*
X72000000Y-86000000D02*
X71413579Y-84873496D01*
X72000000Y-80000000D02*
X71413579Y-81126504D01*
X72000000Y-80000000D02*
X72586421Y-81126504D01*
X108884571Y-106663428D02*
X108884571Y-105734857D01*
X109456000Y-106234857D01*
X109456000Y-106020571D01*
X109527428Y-105877714D01*
X109598857Y-105806285D01*
X109741714Y-105734857D01*
X110098857Y-105734857D01*
X110241714Y-105806285D01*
X110313142Y-105877714D01*
X110384571Y-106020571D01*
X110384571Y-106449142D01*
X110313142Y-106592000D01*
X110241714Y-106663428D01*
X108884571Y-104377714D02*
X108884571Y-105092000D01*
X109598857Y-105163428D01*
X109527428Y-105092000D01*
X109456000Y-104949142D01*
X109456000Y-104592000D01*
X109527428Y-104449142D01*
X109598857Y-104377714D01*
X109741714Y-104306285D01*
X110098857Y-104306285D01*
X110241714Y-104377714D01*
X110313142Y-104449142D01*
X110384571Y-104592000D01*
X110384571Y-104949142D01*
X110313142Y-105092000D01*
X110241714Y-105163428D01*
X110241714Y-103663428D02*
X110313142Y-103592000D01*
X110384571Y-103663428D01*
X110313142Y-103734857D01*
X110241714Y-103663428D01*
X110384571Y-103663428D01*
X108884571Y-102234857D02*
X108884571Y-102949142D01*
X109598857Y-103020571D01*
X109527428Y-102949142D01*
X109456000Y-102806285D01*
X109456000Y-102449142D01*
X109527428Y-102306285D01*
X109598857Y-102234857D01*
X109741714Y-102163428D01*
X110098857Y-102163428D01*
X110241714Y-102234857D01*
X110313142Y-102306285D01*
X110384571Y-102449142D01*
X110384571Y-102806285D01*
X110313142Y-102949142D01*
X110241714Y-103020571D01*
X108884571Y-100877714D02*
X108884571Y-101163428D01*
X108956000Y-101306285D01*
X109027428Y-101377714D01*
X109241714Y-101520571D01*
X109527428Y-101592000D01*
X110098857Y-101592000D01*
X110241714Y-101520571D01*
X110313142Y-101449142D01*
X110384571Y-101306285D01*
X110384571Y-101020571D01*
X110313142Y-100877714D01*
X110241714Y-100806285D01*
X110098857Y-100734857D01*
X109741714Y-100734857D01*
X109598857Y-100806285D01*
X109527428Y-100877714D01*
X109456000Y-101020571D01*
X109456000Y-101306285D01*
X109527428Y-101449142D01*
X109598857Y-101520571D01*
X109741714Y-101592000D01*
X110384571Y-98949142D02*
X109384571Y-98949142D01*
X109527428Y-98949142D02*
X109456000Y-98877714D01*
X109384571Y-98734857D01*
X109384571Y-98520571D01*
X109456000Y-98377714D01*
X109598857Y-98306285D01*
X110384571Y-98306285D01*
X109598857Y-98306285D02*
X109456000Y-98234857D01*
X109384571Y-98092000D01*
X109384571Y-97877714D01*
X109456000Y-97734857D01*
X109598857Y-97663428D01*
X110384571Y-97663428D01*
X110384571Y-96949142D02*
X109384571Y-96949142D01*
X109527428Y-96949142D02*
X109456000Y-96877714D01*
X109384571Y-96734857D01*
X109384571Y-96520571D01*
X109456000Y-96377714D01*
X109598857Y-96306285D01*
X110384571Y-96306285D01*
X109598857Y-96306285D02*
X109456000Y-96234857D01*
X109384571Y-96092000D01*
X109384571Y-95877714D01*
X109456000Y-95734857D01*
X109598857Y-95663428D01*
X110384571Y-95663428D01*
X105664000Y-118872000D02*
X112092420Y-118872000D01*
X105664000Y-83312000D02*
X112092420Y-83312000D01*
X111506000Y-118872000D02*
X111506000Y-83312000D01*
X111506000Y-118872000D02*
X111506000Y-83312000D01*
X111506000Y-118872000D02*
X112092421Y-117745496D01*
X111506000Y-118872000D02*
X110919579Y-117745496D01*
X111506000Y-83312000D02*
X110919579Y-84438504D01*
X111506000Y-83312000D02*
X112092421Y-84438504D01*
X76400000Y-84066428D02*
X76471428Y-83995000D01*
X76614285Y-83923571D01*
X76971428Y-83923571D01*
X77114285Y-83995000D01*
X77185714Y-84066428D01*
X77257142Y-84209285D01*
X77257142Y-84352142D01*
X77185714Y-84566428D01*
X76328571Y-85423571D01*
X77257142Y-85423571D01*
X77900000Y-85280714D02*
X77971428Y-85352142D01*
X77900000Y-85423571D01*
X77828571Y-85352142D01*
X77900000Y-85280714D01*
X77900000Y-85423571D01*
X79328571Y-83923571D02*
X78614285Y-83923571D01*
X78542857Y-84637857D01*
X78614285Y-84566428D01*
X78757142Y-84495000D01*
X79114285Y-84495000D01*
X79257142Y-84566428D01*
X79328571Y-84637857D01*
X79400000Y-84780714D01*
X79400000Y-85137857D01*
X79328571Y-85280714D01*
X79257142Y-85352142D01*
X79114285Y-85423571D01*
X78757142Y-85423571D01*
X78614285Y-85352142D01*
X78542857Y-85280714D01*
X78025000Y-83495000D02*
X83111420Y-83495000D01*
X78025000Y-85995000D02*
X83111420Y-85995000D01*
X82525000Y-83495000D02*
X82525000Y-85995000D01*
X82525000Y-83495000D02*
X82525000Y-85995000D01*
X82525000Y-83495000D02*
X81938579Y-84621504D01*
X82525000Y-83495000D02*
X83111421Y-84621504D01*
X82525000Y-85995000D02*
X83111421Y-84868496D01*
X82525000Y-85995000D02*
X81938579Y-84868496D01*
X96071428Y-72378571D02*
X95214285Y-72378571D01*
X95642857Y-72378571D02*
X95642857Y-70878571D01*
X95500000Y-71092857D01*
X95357142Y-71235714D01*
X95214285Y-71307142D01*
X97357142Y-71378571D02*
X97357142Y-72378571D01*
X97000000Y-70807142D02*
X96642857Y-71878571D01*
X97571428Y-71878571D01*
X98142857Y-72235714D02*
X98214285Y-72307142D01*
X98142857Y-72378571D01*
X98071428Y-72307142D01*
X98142857Y-72235714D01*
X98142857Y-72378571D01*
X99142857Y-70878571D02*
X99285714Y-70878571D01*
X99428571Y-70950000D01*
X99500000Y-71021428D01*
X99571428Y-71164285D01*
X99642857Y-71450000D01*
X99642857Y-71807142D01*
X99571428Y-72092857D01*
X99500000Y-72235714D01*
X99428571Y-72307142D01*
X99285714Y-72378571D01*
X99142857Y-72378571D01*
X99000000Y-72307142D01*
X98928571Y-72235714D01*
X98857142Y-72092857D01*
X98785714Y-71807142D01*
X98785714Y-71450000D01*
X98857142Y-71164285D01*
X98928571Y-71021428D01*
X99000000Y-70950000D01*
X99142857Y-70878571D01*
X101428571Y-72378571D02*
X101428571Y-71378571D01*
X101428571Y-71521428D02*
X101500000Y-71450000D01*
X101642857Y-71378571D01*
X101857142Y-71378571D01*
X102000000Y-71450000D01*
X102071428Y-71592857D01*
X102071428Y-72378571D01*
X102071428Y-71592857D02*
X102142857Y-71450000D01*
X102285714Y-71378571D01*
X102500000Y-71378571D01*
X102642857Y-71450000D01*
X102714285Y-71592857D01*
X102714285Y-72378571D01*
X103428571Y-72378571D02*
X103428571Y-71378571D01*
X103428571Y-71521428D02*
X103500000Y-71450000D01*
X103642857Y-71378571D01*
X103857142Y-71378571D01*
X104000000Y-71450000D01*
X104071428Y-71592857D01*
X104071428Y-72378571D01*
X104071428Y-71592857D02*
X104142857Y-71450000D01*
X104285714Y-71378571D01*
X104500000Y-71378571D01*
X104642857Y-71450000D01*
X104714285Y-71592857D01*
X104714285Y-72378571D01*
X107000000Y-76000000D02*
X107000000Y-72913580D01*
X93000000Y-76000000D02*
X93000000Y-72913580D01*
X107000000Y-73500000D02*
X93000000Y-73500000D01*
X107000000Y-73500000D02*
X93000000Y-73500000D01*
X107000000Y-73500000D02*
X105873496Y-72913579D01*
X107000000Y-73500000D02*
X105873496Y-74086421D01*
X93000000Y-73500000D02*
X94126504Y-74086421D01*
X93000000Y-73500000D02*
X94126504Y-72913579D01*
X63378571Y-104071428D02*
X64378571Y-104071428D01*
X62807142Y-104428571D02*
X63878571Y-104785714D01*
X63878571Y-103857142D01*
X62878571Y-103000000D02*
X62878571Y-102857142D01*
X62950000Y-102714285D01*
X63021428Y-102642857D01*
X63164285Y-102571428D01*
X63450000Y-102500000D01*
X63807142Y-102500000D01*
X64092857Y-102571428D01*
X64235714Y-102642857D01*
X64307142Y-102714285D01*
X64378571Y-102857142D01*
X64378571Y-103000000D01*
X64307142Y-103142857D01*
X64235714Y-103214285D01*
X64092857Y-103285714D01*
X63807142Y-103357142D01*
X63450000Y-103357142D01*
X63164285Y-103285714D01*
X63021428Y-103214285D01*
X62950000Y-103142857D01*
X62878571Y-103000000D01*
X64235714Y-101857142D02*
X64307142Y-101785714D01*
X64378571Y-101857142D01*
X64307142Y-101928571D01*
X64235714Y-101857142D01*
X64378571Y-101857142D01*
X62878571Y-100857142D02*
X62878571Y-100714285D01*
X62950000Y-100571428D01*
X63021428Y-100500000D01*
X63164285Y-100428571D01*
X63450000Y-100357142D01*
X63807142Y-100357142D01*
X64092857Y-100428571D01*
X64235714Y-100500000D01*
X64307142Y-100571428D01*
X64378571Y-100714285D01*
X64378571Y-100857142D01*
X64307142Y-101000000D01*
X64235714Y-101071428D01*
X64092857Y-101142857D01*
X63807142Y-101214285D01*
X63450000Y-101214285D01*
X63164285Y-101142857D01*
X63021428Y-101071428D01*
X62950000Y-101000000D01*
X62878571Y-100857142D01*
X64378571Y-98571428D02*
X63378571Y-98571428D01*
X63521428Y-98571428D02*
X63450000Y-98500000D01*
X63378571Y-98357142D01*
X63378571Y-98142857D01*
X63450000Y-98000000D01*
X63592857Y-97928571D01*
X64378571Y-97928571D01*
X63592857Y-97928571D02*
X63450000Y-97857142D01*
X63378571Y-97714285D01*
X63378571Y-97500000D01*
X63450000Y-97357142D01*
X63592857Y-97285714D01*
X64378571Y-97285714D01*
X64378571Y-96571428D02*
X63378571Y-96571428D01*
X63521428Y-96571428D02*
X63450000Y-96500000D01*
X63378571Y-96357142D01*
X63378571Y-96142857D01*
X63450000Y-96000000D01*
X63592857Y-95928571D01*
X64378571Y-95928571D01*
X63592857Y-95928571D02*
X63450000Y-95857142D01*
X63378571Y-95714285D01*
X63378571Y-95500000D01*
X63450000Y-95357142D01*
X63592857Y-95285714D01*
X64378571Y-95285714D01*
X85000000Y-120000000D02*
X64913580Y-120000000D01*
X85000000Y-80000000D02*
X64913580Y-80000000D01*
X65500000Y-120000000D02*
X65500000Y-80000000D01*
X65500000Y-120000000D02*
X65500000Y-80000000D01*
X65500000Y-120000000D02*
X66086421Y-118873496D01*
X65500000Y-120000000D02*
X64913579Y-118873496D01*
X65500000Y-80000000D02*
X64913579Y-81126504D01*
X65500000Y-80000000D02*
X66086421Y-81126504D01*
X91364285Y-66541428D02*
X91435714Y-66470000D01*
X91578571Y-66398571D01*
X91935714Y-66398571D01*
X92078571Y-66470000D01*
X92150000Y-66541428D01*
X92221428Y-66684285D01*
X92221428Y-66827142D01*
X92150000Y-67041428D01*
X91292857Y-67898571D01*
X92221428Y-67898571D01*
X92792857Y-66541428D02*
X92864285Y-66470000D01*
X93007142Y-66398571D01*
X93364285Y-66398571D01*
X93507142Y-66470000D01*
X93578571Y-66541428D01*
X93650000Y-66684285D01*
X93650000Y-66827142D01*
X93578571Y-67041428D01*
X92721428Y-67898571D01*
X93650000Y-67898571D01*
X94292857Y-67755714D02*
X94364285Y-67827142D01*
X94292857Y-67898571D01*
X94221428Y-67827142D01*
X94292857Y-67755714D01*
X94292857Y-67898571D01*
X94864285Y-66398571D02*
X95792857Y-66398571D01*
X95292857Y-66970000D01*
X95507142Y-66970000D01*
X95650000Y-67041428D01*
X95721428Y-67112857D01*
X95792857Y-67255714D01*
X95792857Y-67612857D01*
X95721428Y-67755714D01*
X95650000Y-67827142D01*
X95507142Y-67898571D01*
X95078571Y-67898571D01*
X94935714Y-67827142D01*
X94864285Y-67755714D01*
X97578571Y-67898571D02*
X97578571Y-66898571D01*
X97578571Y-67041428D02*
X97650000Y-66970000D01*
X97792857Y-66898571D01*
X98007142Y-66898571D01*
X98150000Y-66970000D01*
X98221428Y-67112857D01*
X98221428Y-67898571D01*
X98221428Y-67112857D02*
X98292857Y-66970000D01*
X98435714Y-66898571D01*
X98650000Y-66898571D01*
X98792857Y-66970000D01*
X98864285Y-67112857D01*
X98864285Y-67898571D01*
X99578571Y-67898571D02*
X99578571Y-66898571D01*
X99578571Y-67041428D02*
X99650000Y-66970000D01*
X99792857Y-66898571D01*
X100007142Y-66898571D01*
X100150000Y-66970000D01*
X100221428Y-67112857D01*
X100221428Y-67898571D01*
X100221428Y-67112857D02*
X100292857Y-66970000D01*
X100435714Y-66898571D01*
X100650000Y-66898571D01*
X100792857Y-66970000D01*
X100864285Y-67112857D01*
X100864285Y-67898571D01*
X85000000Y-76020000D02*
X85000000Y-68433580D01*
X107300000Y-76020000D02*
X107300000Y-68433580D01*
X85000000Y-69020000D02*
X107300000Y-69020000D01*
X85000000Y-69020000D02*
X107300000Y-69020000D01*
X85000000Y-69020000D02*
X86126504Y-69606421D01*
X85000000Y-69020000D02*
X86126504Y-68433579D01*
X107300000Y-69020000D02*
X106173496Y-68433579D01*
X107300000Y-69020000D02*
X106173496Y-69606421D01*
X57128571Y-104071428D02*
X58128571Y-104071428D01*
X56557142Y-104428571D02*
X57628571Y-104785714D01*
X57628571Y-103857142D01*
X57271428Y-103071428D02*
X57200000Y-103214285D01*
X57128571Y-103285714D01*
X56985714Y-103357142D01*
X56914285Y-103357142D01*
X56771428Y-103285714D01*
X56700000Y-103214285D01*
X56628571Y-103071428D01*
X56628571Y-102785714D01*
X56700000Y-102642857D01*
X56771428Y-102571428D01*
X56914285Y-102500000D01*
X56985714Y-102500000D01*
X57128571Y-102571428D01*
X57200000Y-102642857D01*
X57271428Y-102785714D01*
X57271428Y-103071428D01*
X57342857Y-103214285D01*
X57414285Y-103285714D01*
X57557142Y-103357142D01*
X57842857Y-103357142D01*
X57985714Y-103285714D01*
X58057142Y-103214285D01*
X58128571Y-103071428D01*
X58128571Y-102785714D01*
X58057142Y-102642857D01*
X57985714Y-102571428D01*
X57842857Y-102500000D01*
X57557142Y-102500000D01*
X57414285Y-102571428D01*
X57342857Y-102642857D01*
X57271428Y-102785714D01*
X57985714Y-101857142D02*
X58057142Y-101785714D01*
X58128571Y-101857142D01*
X58057142Y-101928571D01*
X57985714Y-101857142D01*
X58128571Y-101857142D01*
X56628571Y-100857142D02*
X56628571Y-100714285D01*
X56700000Y-100571428D01*
X56771428Y-100500000D01*
X56914285Y-100428571D01*
X57200000Y-100357142D01*
X57557142Y-100357142D01*
X57842857Y-100428571D01*
X57985714Y-100500000D01*
X58057142Y-100571428D01*
X58128571Y-100714285D01*
X58128571Y-100857142D01*
X58057142Y-101000000D01*
X57985714Y-101071428D01*
X57842857Y-101142857D01*
X57557142Y-101214285D01*
X57200000Y-101214285D01*
X56914285Y-101142857D01*
X56771428Y-101071428D01*
X56700000Y-101000000D01*
X56628571Y-100857142D01*
X58128571Y-98571428D02*
X57128571Y-98571428D01*
X57271428Y-98571428D02*
X57200000Y-98500000D01*
X57128571Y-98357142D01*
X57128571Y-98142857D01*
X57200000Y-98000000D01*
X57342857Y-97928571D01*
X58128571Y-97928571D01*
X57342857Y-97928571D02*
X57200000Y-97857142D01*
X57128571Y-97714285D01*
X57128571Y-97500000D01*
X57200000Y-97357142D01*
X57342857Y-97285714D01*
X58128571Y-97285714D01*
X58128571Y-96571428D02*
X57128571Y-96571428D01*
X57271428Y-96571428D02*
X57200000Y-96500000D01*
X57128571Y-96357142D01*
X57128571Y-96142857D01*
X57200000Y-96000000D01*
X57342857Y-95928571D01*
X58128571Y-95928571D01*
X57342857Y-95928571D02*
X57200000Y-95857142D01*
X57128571Y-95714285D01*
X57128571Y-95500000D01*
X57200000Y-95357142D01*
X57342857Y-95285714D01*
X58128571Y-95285714D01*
X93000000Y-124000000D02*
X58663580Y-124000000D01*
X93000000Y-76000000D02*
X58663580Y-76000000D01*
X59250000Y-124000000D02*
X59250000Y-76000000D01*
X59250000Y-124000000D02*
X59250000Y-76000000D01*
X59250000Y-124000000D02*
X59836421Y-122873496D01*
X59250000Y-124000000D02*
X58663579Y-122873496D01*
X59250000Y-76000000D02*
X58663579Y-77126504D01*
X59250000Y-76000000D02*
X59836421Y-77126504D01*
X81785714Y-70878571D02*
X81071428Y-70878571D01*
X81000000Y-71592857D01*
X81071428Y-71521428D01*
X81214285Y-71450000D01*
X81571428Y-71450000D01*
X81714285Y-71521428D01*
X81785714Y-71592857D01*
X81857142Y-71735714D01*
X81857142Y-72092857D01*
X81785714Y-72235714D01*
X81714285Y-72307142D01*
X81571428Y-72378571D01*
X81214285Y-72378571D01*
X81071428Y-72307142D01*
X81000000Y-72235714D01*
X82500000Y-72235714D02*
X82571428Y-72307142D01*
X82500000Y-72378571D01*
X82428571Y-72307142D01*
X82500000Y-72235714D01*
X82500000Y-72378571D01*
X83500000Y-70878571D02*
X83642857Y-70878571D01*
X83785714Y-70950000D01*
X83857142Y-71021428D01*
X83928571Y-71164285D01*
X84000000Y-71450000D01*
X84000000Y-71807142D01*
X83928571Y-72092857D01*
X83857142Y-72235714D01*
X83785714Y-72307142D01*
X83642857Y-72378571D01*
X83500000Y-72378571D01*
X83357142Y-72307142D01*
X83285714Y-72235714D01*
X83214285Y-72092857D01*
X83142857Y-71807142D01*
X83142857Y-71450000D01*
X83214285Y-71164285D01*
X83285714Y-71021428D01*
X83357142Y-70950000D01*
X83500000Y-70878571D01*
X80000000Y-86000000D02*
X80000000Y-72913580D01*
X85000000Y-86000000D02*
X85000000Y-72913580D01*
X80000000Y-73500000D02*
X85000000Y-73500000D01*
X80000000Y-73500000D02*
X85000000Y-73500000D01*
X80000000Y-73500000D02*
X81126504Y-74086421D01*
X80000000Y-73500000D02*
X81126504Y-72913579D01*
X85000000Y-73500000D02*
X83873496Y-72913579D01*
X85000000Y-73500000D02*
X83873496Y-74086421D01*
M02*
