M48
; DRILL file {KiCad 6.0.11-2627ca5db0~126~ubuntu22.04.1} date Mi 06 Dez 2023 10:38:30 CET
; FORMAT={-:-/ absolute / metric / decimal}
; #@! TF.CreationDate,2023-12-06T10:38:30+01:00
; #@! TF.GenerationSoftware,Kicad,Pcbnew,6.0.11-2627ca5db0~126~ubuntu22.04.1
; #@! TF.FileFunction,Plated,1,2,PTH
FMAT,2
METRIC
; #@! TA.AperFunction,Plated,PTH,ViaDrill
T1C0.300
; #@! TA.AperFunction,Plated,PTH,ViaDrill
T2C0.400
; #@! TA.AperFunction,Plated,PTH,ComponentDrill
T3C0.686
; #@! TA.AperFunction,Plated,PTH,ComponentDrill
T4C0.700
; #@! TA.AperFunction,Plated,PTH,ComponentDrill
T5C0.900
; #@! TA.AperFunction,Plated,PTH,ComponentDrill
T6C1.100
; #@! TA.AperFunction,Plated,PTH,ComponentDrill
T7C2.500
%
G90
G05
T1
X96.258Y-95.258
X97.465Y-92.337
X98.163Y-91.638
X100.076Y-100.37
X100.109Y-93.009
X100.469Y-111.32
X100.512Y-110.371
X101.338Y-104.021
X101.402Y-110.307
X102.1Y-96.154
X103.878Y-103.957
X104.386Y-85.796
X105.91Y-103.957
T2
X91.178Y-97.036
X93.972Y-106.18
X93.972Y-108.72
X94.48Y-100.592
X97.147Y-86.304
X99.407Y-104.286
X99.496Y-97.163
X104.64Y-87.384
T3
X92.448Y-92.21
X92.448Y-102.37
T4
X80.65Y-85.82
X80.65Y-110.07
X81.65Y-85.82
X81.65Y-110.07
X82.65Y-85.82
X82.65Y-110.07
X83.65Y-85.82
X83.65Y-110.07
X84.65Y-81.82
X84.65Y-82.82
X84.65Y-83.82
X84.65Y-84.82
X84.65Y-85.82
X84.65Y-110.07
X84.65Y-111.07
X84.65Y-112.07
X84.65Y-113.07
X84.65Y-114.07
X88.435Y-111.666
X88.435Y-114.206
X88.435Y-116.746
X88.435Y-119.286
T5
X87.368Y-80.78
X87.368Y-83.32
X89.908Y-80.78
X89.908Y-83.32
X92.448Y-80.78
X92.448Y-83.32
X95.496Y-80.78
X95.496Y-83.32
X95.496Y-116.34
X95.496Y-118.88
X98.036Y-80.78
X98.036Y-83.32
X98.036Y-116.34
X98.036Y-118.88
X100.576Y-80.78
X100.576Y-83.32
X100.576Y-116.34
X100.576Y-118.88
X103.116Y-80.78
X103.116Y-83.32
X103.116Y-116.34
X103.116Y-118.88
X105.656Y-80.78
X105.656Y-83.32
X105.656Y-116.34
X105.656Y-118.88
T6
X87.114Y-89.416
X87.114Y-95.156
X87.114Y-106.637
X87.12Y-100.897
T7
X82.65Y-83.82
X82.65Y-112.07
X104.132Y-107.704
T0
M30
