G04 #@! TF.GenerationSoftware,KiCad,Pcbnew,5.0.0-fee4fd1~66~ubuntu16.04.1*
G04 #@! TF.CreationDate,2018-09-25T20:47:50+02:00*
G04 #@! TF.ProjectId,bus-module_attiny1634,6275732D6D6F64756C655F617474696E,B*
G04 #@! TF.SameCoordinates,Original*
G04 #@! TF.FileFunction,Soldermask,Top*
G04 #@! TF.FilePolarity,Negative*
%FSLAX46Y46*%
G04 Gerber Fmt 4.6, Leading zero omitted, Abs format (unit mm)*
G04 Created by KiCad (PCBNEW 5.0.0-fee4fd1~66~ubuntu16.04.1) date Tue Sep 25 20:47:50 2018*
%MOMM*%
%LPD*%
G01*
G04 APERTURE LIST*
%ADD10R,0.508000X1.270000*%
%ADD11C,0.850000*%
%ADD12C,0.100000*%
%ADD13R,0.850000X0.850000*%
%ADD14R,0.850000X1.200000*%
%ADD15R,1.998980X4.500880*%
%ADD16R,1.397000X0.889000*%
%ADD17R,3.200400X1.780540*%
%ADD18C,2.000000*%
%ADD19C,5.000000*%
%ADD20C,1.800000*%
%ADD21R,1.800000X1.800000*%
%ADD22C,1.600000*%
%ADD23R,1.600000X1.600000*%
%ADD24C,0.700000*%
%ADD25C,1.524000*%
G04 APERTURE END LIST*
D10*
G04 #@! TO.C,U3*
X94480000Y-89289000D03*
X95750000Y-89289000D03*
X97020000Y-89289000D03*
X98290000Y-89289000D03*
X99560000Y-89289000D03*
X100830000Y-89289000D03*
X102100000Y-89289000D03*
X103370000Y-89289000D03*
X104640000Y-89289000D03*
X105910000Y-89289000D03*
X105910000Y-98941000D03*
X104640000Y-98941000D03*
X103370000Y-98941000D03*
X102100000Y-98941000D03*
X100830000Y-98941000D03*
X99560000Y-98941000D03*
X98290000Y-98941000D03*
X97020000Y-98941000D03*
X95750000Y-98941000D03*
X94480000Y-98941000D03*
G04 #@! TD*
D11*
G04 #@! TO.C,D2*
X82354000Y-98240000D03*
D12*
G36*
X82779000Y-98665000D02*
X81929000Y-98665000D01*
X81929000Y-97815000D01*
X82779000Y-97815000D01*
X82779000Y-98665000D01*
X82779000Y-98665000D01*
G37*
D13*
X82354000Y-96340000D03*
X84254000Y-96340000D03*
D14*
X84254000Y-98059620D03*
G04 #@! TD*
D15*
G04 #@! TO.C,U1*
X96512000Y-111260000D03*
X96512000Y-102761160D03*
G04 #@! TD*
D16*
G04 #@! TO.C,R2*
X105910000Y-103068500D03*
X105910000Y-101163500D03*
G04 #@! TD*
G04 #@! TO.C,R3*
X103878000Y-103068500D03*
X103878000Y-101163500D03*
G04 #@! TD*
G04 #@! TO.C,R4*
X101338000Y-103068500D03*
X101338000Y-101163500D03*
G04 #@! TD*
G04 #@! TO.C,C5*
X92575000Y-96972500D03*
X92575000Y-98877500D03*
G04 #@! TD*
D17*
G04 #@! TO.C,F1*
X82923000Y-107018200D03*
X82923000Y-102014400D03*
G04 #@! TD*
D16*
G04 #@! TO.C,C2*
X92448000Y-106116500D03*
X92448000Y-104211500D03*
G04 #@! TD*
G04 #@! TO.C,C3*
X92448000Y-108783500D03*
X92448000Y-110688500D03*
G04 #@! TD*
D18*
G04 #@! TO.C,J6*
X87114000Y-95156400D03*
G04 #@! TD*
G04 #@! TO.C,J5*
X87120200Y-100896800D03*
G04 #@! TD*
G04 #@! TO.C,J4*
X87114000Y-106637200D03*
G04 #@! TD*
G04 #@! TO.C,J7*
X87114000Y-89416000D03*
G04 #@! TD*
D19*
G04 #@! TO.C,HOLE_2.5mm*
X82650000Y-112070000D03*
G04 #@! TD*
G04 #@! TO.C,HOLE_2.5mm*
X82650000Y-83820000D03*
G04 #@! TD*
D20*
G04 #@! TO.C,J3*
X87368000Y-80780000D03*
X87368000Y-83320000D03*
X89908000Y-80780000D03*
X89908000Y-83320000D03*
X92448000Y-80780000D03*
D21*
X92448000Y-83320000D03*
G04 #@! TD*
D19*
G04 #@! TO.C,H1*
X104132000Y-107704000D03*
G04 #@! TD*
D20*
G04 #@! TO.C,J2*
X105656000Y-116340000D03*
X105656000Y-118880000D03*
X103116000Y-116340000D03*
X103116000Y-118880000D03*
X100576000Y-116340000D03*
X100576000Y-118880000D03*
X98036000Y-116340000D03*
X98036000Y-118880000D03*
X95496000Y-116340000D03*
D21*
X95496000Y-118880000D03*
G04 #@! TD*
D20*
G04 #@! TO.C,J1*
X105656000Y-80780000D03*
X105656000Y-83320000D03*
X103116000Y-80780000D03*
X103116000Y-83320000D03*
X100576000Y-80780000D03*
X100576000Y-83320000D03*
X98036000Y-80780000D03*
X98036000Y-83320000D03*
X95496000Y-80780000D03*
D21*
X95496000Y-83320000D03*
G04 #@! TD*
D22*
G04 #@! TO.C,U5*
X88434800Y-111666400D03*
X88434800Y-114206400D03*
X88434800Y-116746400D03*
D23*
X88434800Y-119286400D03*
G04 #@! TD*
D24*
G04 #@! TO.C,REF\002A\002A*
X80650000Y-85820000D03*
X81650000Y-85820000D03*
X84650000Y-85820000D03*
X83650000Y-85820000D03*
X82650000Y-85820000D03*
G04 #@! TD*
G04 #@! TO.C,REF\002A\002A*
X84650000Y-110070000D03*
X83650000Y-110070000D03*
X80650000Y-110070000D03*
X81650000Y-110070000D03*
X82650000Y-110070000D03*
G04 #@! TD*
G04 #@! TO.C,REF\002A\002A*
X84650000Y-84820000D03*
X84650000Y-83820000D03*
X84650000Y-81820000D03*
X84650000Y-82820000D03*
G04 #@! TD*
G04 #@! TO.C,REF\002A\002A*
X84650000Y-114070000D03*
X84650000Y-113070000D03*
X84650000Y-111070000D03*
X84650000Y-112070000D03*
G04 #@! TD*
D25*
G04 #@! TO.C,R7*
X92448000Y-102370000D03*
X92448000Y-92210000D03*
G04 #@! TD*
M02*
