G04 #@! TF.GenerationSoftware,KiCad,Pcbnew,5.0.0-fee4fd1~66~ubuntu16.04.1*
G04 #@! TF.CreationDate,2018-09-25T20:47:50+02:00*
G04 #@! TF.ProjectId,bus-module_attiny1634,6275732D6D6F64756C655F617474696E,B*
G04 #@! TF.SameCoordinates,Original*
G04 #@! TF.FileFunction,Legend,Top*
G04 #@! TF.FilePolarity,Positive*
%FSLAX46Y46*%
G04 Gerber Fmt 4.6, Leading zero omitted, Abs format (unit mm)*
G04 Created by KiCad (PCBNEW 5.0.0-fee4fd1~66~ubuntu16.04.1) date Tue Sep 25 20:47:50 2018*
%MOMM*%
%LPD*%
G01*
G04 APERTURE LIST*
%ADD10C,0.150000*%
G04 APERTURE END LIST*
D10*
G04 #@! TO.C,U3*
X105275000Y-93480000D02*
X106545000Y-93480000D01*
X105275000Y-94750000D02*
X105275000Y-93480000D01*
X106545000Y-94750000D02*
X105275000Y-94750000D01*
X106545000Y-97798000D02*
X93845000Y-97798000D01*
X93845000Y-90432000D02*
X106545000Y-90432000D01*
X106545000Y-97798000D02*
X106545000Y-90432000D01*
X93845000Y-90432000D02*
X93845000Y-97798000D01*
G04 #@! TO.C,D2*
X82654000Y-98790000D02*
X83954000Y-98790000D01*
X82654000Y-95790000D02*
X83954000Y-95790000D01*
G04 #@! TO.C,U1*
X98912300Y-112911000D02*
X98912300Y-101110160D01*
X94111700Y-101110160D02*
X94111700Y-112911000D01*
X94111700Y-112911000D02*
X95112460Y-112911000D01*
X98912300Y-112911000D02*
X97911540Y-112911000D01*
X98912300Y-101110160D02*
X97911540Y-101110160D01*
X94111700Y-101110160D02*
X95112460Y-101110160D01*
G04 #@! TO.C,R2*
X105148000Y-103640000D02*
X105148000Y-102624000D01*
X106672000Y-103640000D02*
X105148000Y-103640000D01*
X106672000Y-102624000D02*
X106672000Y-103640000D01*
X106672000Y-100592000D02*
X106672000Y-101608000D01*
X105148000Y-100592000D02*
X106672000Y-100592000D01*
X105148000Y-101608000D02*
X105148000Y-100592000D01*
G04 #@! TO.C,R3*
X103116000Y-103640000D02*
X103116000Y-102624000D01*
X104640000Y-103640000D02*
X103116000Y-103640000D01*
X104640000Y-102624000D02*
X104640000Y-103640000D01*
X104640000Y-100592000D02*
X104640000Y-101608000D01*
X103116000Y-100592000D02*
X104640000Y-100592000D01*
X103116000Y-101608000D02*
X103116000Y-100592000D01*
G04 #@! TO.C,R4*
X100576000Y-103640000D02*
X100576000Y-102624000D01*
X102100000Y-103640000D02*
X100576000Y-103640000D01*
X102100000Y-102624000D02*
X102100000Y-103640000D01*
X102100000Y-100592000D02*
X102100000Y-101608000D01*
X100576000Y-100592000D02*
X102100000Y-100592000D01*
X100576000Y-101608000D02*
X100576000Y-100592000D01*
G04 #@! TO.C,C5*
X93337000Y-96401000D02*
X93337000Y-97417000D01*
X91813000Y-96401000D02*
X93337000Y-96401000D01*
X91813000Y-97417000D02*
X91813000Y-96401000D01*
X91813000Y-99449000D02*
X91813000Y-98433000D01*
X93337000Y-99449000D02*
X91813000Y-99449000D01*
X93337000Y-98433000D02*
X93337000Y-99449000D01*
G04 #@! TO.C,F1*
X84675600Y-108059600D02*
X84675600Y-105976800D01*
X81195800Y-108059600D02*
X84675600Y-108059600D01*
X81195800Y-105976800D02*
X81195800Y-108059600D01*
X84675600Y-100973000D02*
X84675600Y-103055800D01*
X81195800Y-100973000D02*
X84675600Y-100973000D01*
X81195800Y-103055800D02*
X81195800Y-100973000D01*
G04 #@! TO.C,C2*
X91686000Y-106688000D02*
X91686000Y-105672000D01*
X93210000Y-106688000D02*
X91686000Y-106688000D01*
X93210000Y-105672000D02*
X93210000Y-106688000D01*
X93210000Y-103640000D02*
X93210000Y-104656000D01*
X91686000Y-103640000D02*
X93210000Y-103640000D01*
X91686000Y-104656000D02*
X91686000Y-103640000D01*
G04 #@! TO.C,C3*
X93210000Y-108212000D02*
X93210000Y-109228000D01*
X91686000Y-108212000D02*
X93210000Y-108212000D01*
X91686000Y-109228000D02*
X91686000Y-108212000D01*
X91686000Y-111260000D02*
X91686000Y-110244000D01*
X93210000Y-111260000D02*
X91686000Y-111260000D01*
X93210000Y-110244000D02*
X93210000Y-111260000D01*
G04 #@! TO.C,HOLE_2.5mm*
X85190000Y-114610000D02*
X85190000Y-109530000D01*
X80110000Y-114610000D02*
X85190000Y-114610000D01*
X80110000Y-109530000D02*
X80110000Y-114610000D01*
X85190000Y-109530000D02*
X80110000Y-109530000D01*
X85190000Y-86360000D02*
X85190000Y-81280000D01*
X80110000Y-86360000D02*
X85190000Y-86360000D01*
X80110000Y-81280000D02*
X80110000Y-86360000D01*
X85190000Y-81280000D02*
X80110000Y-81280000D01*
G04 #@! TO.C,LOGO1*
X83908520Y-90569160D02*
X84307300Y-91569920D01*
X83207480Y-90569160D02*
X82856960Y-91569920D01*
X82856960Y-90371040D02*
X83207480Y-90569160D01*
X82608040Y-90068780D02*
X82856960Y-90371040D01*
X82557240Y-89570940D02*
X82608040Y-90068780D01*
X82707100Y-89118820D02*
X82557240Y-89570940D01*
X83108420Y-88770840D02*
X82707100Y-89118820D01*
X83507200Y-88669240D02*
X83108420Y-88770840D01*
X83956780Y-88720040D02*
X83507200Y-88669240D01*
X84408900Y-89070560D02*
X83956780Y-88720040D01*
X84558760Y-89421080D02*
X84408900Y-89070560D01*
X84558760Y-89819860D02*
X84558760Y-89421080D01*
X84408900Y-90221180D02*
X84558760Y-89819860D01*
X84208240Y-90419300D02*
X84408900Y-90221180D01*
X83908520Y-90569160D02*
X84208240Y-90419300D01*
X81627600Y-90190700D02*
X81767300Y-90589480D01*
X81068800Y-89990040D02*
X81627600Y-90190700D01*
X81078960Y-89289000D02*
X81068800Y-89990040D01*
X81627600Y-89189940D02*
X81078960Y-89289000D01*
X81797780Y-88709880D02*
X81627600Y-89189940D01*
X81548860Y-88168860D02*
X81797780Y-88709880D01*
X82067020Y-87640540D02*
X81548860Y-88168860D01*
X82618200Y-87909780D02*
X82067020Y-87640540D01*
X83037300Y-87739600D02*
X82618200Y-87909780D01*
X83248120Y-87190960D02*
X83037300Y-87739600D01*
X83939000Y-87208740D02*
X83248120Y-87190960D01*
X84109180Y-87749760D02*
X83939000Y-87208740D01*
X84579080Y-87950420D02*
X84109180Y-87749760D01*
X85097240Y-87688800D02*
X84579080Y-87950420D01*
X85567140Y-88199340D02*
X85097240Y-87688800D01*
X85297900Y-88669240D02*
X85567140Y-88199340D01*
X85498560Y-89240740D02*
X85297900Y-88669240D01*
X86057360Y-89380440D02*
X85498560Y-89240740D01*
X86057360Y-90061160D02*
X86057360Y-89380440D01*
X85447760Y-90249120D02*
X86057360Y-90061160D01*
X85257260Y-90719020D02*
X85447760Y-90249120D01*
X85539200Y-91199080D02*
X85257260Y-90719020D01*
X85066760Y-91689300D02*
X85539200Y-91199080D01*
X84627340Y-91359100D02*
X85066760Y-91689300D01*
X84297140Y-91549600D02*
X84627340Y-91359100D01*
X82577560Y-91409900D02*
X82856960Y-91569920D01*
X82056860Y-91679140D02*
X82577560Y-91409900D01*
X81518380Y-91160980D02*
X82056860Y-91679140D01*
X81777460Y-90599640D02*
X81518380Y-91160980D01*
X81518380Y-92458920D02*
X81157700Y-92329380D01*
X81627600Y-92740860D02*
X81518380Y-92458920D01*
X81678400Y-93149800D02*
X81627600Y-92740860D01*
X81607280Y-93609540D02*
X81678400Y-93149800D01*
X81388840Y-93789880D02*
X81607280Y-93609540D01*
X81078960Y-93861000D02*
X81388840Y-93789880D01*
X80827500Y-93739080D02*
X81078960Y-93861000D01*
X80626840Y-93419040D02*
X80827500Y-93739080D01*
X80598900Y-93071060D02*
X80626840Y-93419040D01*
X80687800Y-92580840D02*
X80598900Y-93071060D01*
X80929100Y-92339540D02*
X80687800Y-92580840D01*
X81178020Y-92319220D02*
X80929100Y-92339540D01*
X82567400Y-93878780D02*
X82216880Y-93769560D01*
X82887440Y-93850840D02*
X82567400Y-93878780D01*
X83118580Y-93629860D02*
X82887440Y-93850840D01*
X83077940Y-93330140D02*
X83118580Y-93629860D01*
X82897600Y-93170120D02*
X83077940Y-93330140D01*
X82508980Y-93040580D02*
X82897600Y-93170120D01*
X82267680Y-92799280D02*
X82508980Y-93040580D01*
X82298160Y-92530040D02*
X82267680Y-92799280D01*
X82536920Y-92329380D02*
X82298160Y-92530040D01*
X82856960Y-92339540D02*
X82536920Y-92329380D01*
X83207480Y-92420820D02*
X82856960Y-92339540D01*
X83758660Y-93888940D02*
X83768820Y-93878780D01*
X83758660Y-92319220D02*
X83758660Y-93888940D01*
X84647660Y-92329380D02*
X84647660Y-93871160D01*
X84607020Y-93050740D02*
X84607020Y-93040580D01*
X84596860Y-93040580D02*
X84607020Y-93050740D01*
X83806920Y-93050740D02*
X84596860Y-93040580D01*
X86176740Y-93840680D02*
X86517100Y-92390340D01*
X85866860Y-92768800D02*
X86176740Y-93840680D01*
X85587460Y-93830520D02*
X85866860Y-92768800D01*
X85226780Y-92359860D02*
X85587460Y-93830520D01*
G04 #@! TO.C,H1*
X106672000Y-110244000D02*
X106672000Y-105164000D01*
X101592000Y-110244000D02*
X106672000Y-110244000D01*
X101592000Y-105164000D02*
X101592000Y-110244000D01*
X106672000Y-105164000D02*
X101592000Y-105164000D01*
G04 #@! TO.C,J2*
X94226000Y-120150000D02*
X94226000Y-115070000D01*
X106926000Y-120150000D02*
X94226000Y-120150000D01*
X106926000Y-115070000D02*
X106926000Y-120150000D01*
X94226000Y-115070000D02*
X106926000Y-115070000D01*
G04 #@! TO.C,J1*
X94226000Y-84590000D02*
X94226000Y-79510000D01*
X106926000Y-84590000D02*
X94226000Y-84590000D01*
X106926000Y-79510000D02*
X106926000Y-84590000D01*
X94226000Y-79510000D02*
X106926000Y-79510000D01*
G04 #@! TO.C,U3*
X99433095Y-87090380D02*
X99433095Y-87899904D01*
X99480714Y-87995142D01*
X99528333Y-88042761D01*
X99623571Y-88090380D01*
X99814047Y-88090380D01*
X99909285Y-88042761D01*
X99956904Y-87995142D01*
X100004523Y-87899904D01*
X100004523Y-87090380D01*
X100385476Y-87090380D02*
X101004523Y-87090380D01*
X100671190Y-87471333D01*
X100814047Y-87471333D01*
X100909285Y-87518952D01*
X100956904Y-87566571D01*
X101004523Y-87661809D01*
X101004523Y-87899904D01*
X100956904Y-87995142D01*
X100909285Y-88042761D01*
X100814047Y-88090380D01*
X100528333Y-88090380D01*
X100433095Y-88042761D01*
X100385476Y-87995142D01*
G04 #@! TO.C,D2*
X81665904Y-97880476D02*
X80865904Y-97880476D01*
X80865904Y-97690000D01*
X80904000Y-97575714D01*
X80980190Y-97499523D01*
X81056380Y-97461428D01*
X81208761Y-97423333D01*
X81323047Y-97423333D01*
X81475428Y-97461428D01*
X81551619Y-97499523D01*
X81627809Y-97575714D01*
X81665904Y-97690000D01*
X81665904Y-97880476D01*
X80942095Y-97118571D02*
X80904000Y-97080476D01*
X80865904Y-97004285D01*
X80865904Y-96813809D01*
X80904000Y-96737619D01*
X80942095Y-96699523D01*
X81018285Y-96661428D01*
X81094476Y-96661428D01*
X81208761Y-96699523D01*
X81665904Y-97156666D01*
X81665904Y-96661428D01*
G04 #@! TO.C,U1*
X92073404Y-107620103D02*
X92721023Y-107620103D01*
X92797214Y-107582008D01*
X92835309Y-107543913D01*
X92873404Y-107467722D01*
X92873404Y-107315341D01*
X92835309Y-107239151D01*
X92797214Y-107201056D01*
X92721023Y-107162960D01*
X92073404Y-107162960D01*
X92873404Y-106362960D02*
X92873404Y-106820103D01*
X92873404Y-106591532D02*
X92073404Y-106591532D01*
X92187690Y-106667722D01*
X92263880Y-106743913D01*
X92301976Y-106820103D01*
G04 #@! TO.C,R2*
X105776666Y-105017904D02*
X105510000Y-104636952D01*
X105319523Y-105017904D02*
X105319523Y-104217904D01*
X105624285Y-104217904D01*
X105700476Y-104256000D01*
X105738571Y-104294095D01*
X105776666Y-104370285D01*
X105776666Y-104484571D01*
X105738571Y-104560761D01*
X105700476Y-104598857D01*
X105624285Y-104636952D01*
X105319523Y-104636952D01*
X106081428Y-104294095D02*
X106119523Y-104256000D01*
X106195714Y-104217904D01*
X106386190Y-104217904D01*
X106462380Y-104256000D01*
X106500476Y-104294095D01*
X106538571Y-104370285D01*
X106538571Y-104446476D01*
X106500476Y-104560761D01*
X106043333Y-105017904D01*
X106538571Y-105017904D01*
G04 #@! TO.C,R3*
X103744666Y-105017904D02*
X103478000Y-104636952D01*
X103287523Y-105017904D02*
X103287523Y-104217904D01*
X103592285Y-104217904D01*
X103668476Y-104256000D01*
X103706571Y-104294095D01*
X103744666Y-104370285D01*
X103744666Y-104484571D01*
X103706571Y-104560761D01*
X103668476Y-104598857D01*
X103592285Y-104636952D01*
X103287523Y-104636952D01*
X104011333Y-104217904D02*
X104506571Y-104217904D01*
X104239904Y-104522666D01*
X104354190Y-104522666D01*
X104430380Y-104560761D01*
X104468476Y-104598857D01*
X104506571Y-104675047D01*
X104506571Y-104865523D01*
X104468476Y-104941714D01*
X104430380Y-104979809D01*
X104354190Y-105017904D01*
X104125619Y-105017904D01*
X104049428Y-104979809D01*
X104011333Y-104941714D01*
G04 #@! TO.C,R4*
X101204666Y-105017904D02*
X100938000Y-104636952D01*
X100747523Y-105017904D02*
X100747523Y-104217904D01*
X101052285Y-104217904D01*
X101128476Y-104256000D01*
X101166571Y-104294095D01*
X101204666Y-104370285D01*
X101204666Y-104484571D01*
X101166571Y-104560761D01*
X101128476Y-104598857D01*
X101052285Y-104636952D01*
X100747523Y-104636952D01*
X101890380Y-104484571D02*
X101890380Y-105017904D01*
X101699904Y-104179809D02*
X101509428Y-104751238D01*
X102004666Y-104751238D01*
G04 #@! TO.C,C5*
X91209714Y-98439333D02*
X91247809Y-98477428D01*
X91285904Y-98591714D01*
X91285904Y-98667904D01*
X91247809Y-98782190D01*
X91171619Y-98858380D01*
X91095428Y-98896476D01*
X90943047Y-98934571D01*
X90828761Y-98934571D01*
X90676380Y-98896476D01*
X90600190Y-98858380D01*
X90524000Y-98782190D01*
X90485904Y-98667904D01*
X90485904Y-98591714D01*
X90524000Y-98477428D01*
X90562095Y-98439333D01*
X90485904Y-97715523D02*
X90485904Y-98096476D01*
X90866857Y-98134571D01*
X90828761Y-98096476D01*
X90790666Y-98020285D01*
X90790666Y-97829809D01*
X90828761Y-97753619D01*
X90866857Y-97715523D01*
X90943047Y-97677428D01*
X91133523Y-97677428D01*
X91209714Y-97715523D01*
X91247809Y-97753619D01*
X91285904Y-97829809D01*
X91285904Y-98020285D01*
X91247809Y-98096476D01*
X91209714Y-98134571D01*
G04 #@! TO.C,F1*
X85202657Y-104846466D02*
X85202657Y-105113133D01*
X85621704Y-105113133D02*
X84821704Y-105113133D01*
X84821704Y-104732180D01*
X85621704Y-104008371D02*
X85621704Y-104465514D01*
X85621704Y-104236942D02*
X84821704Y-104236942D01*
X84935990Y-104313133D01*
X85012180Y-104389323D01*
X85050276Y-104465514D01*
G04 #@! TO.C,C2*
X91209714Y-105297333D02*
X91247809Y-105335428D01*
X91285904Y-105449714D01*
X91285904Y-105525904D01*
X91247809Y-105640190D01*
X91171619Y-105716380D01*
X91095428Y-105754476D01*
X90943047Y-105792571D01*
X90828761Y-105792571D01*
X90676380Y-105754476D01*
X90600190Y-105716380D01*
X90524000Y-105640190D01*
X90485904Y-105525904D01*
X90485904Y-105449714D01*
X90524000Y-105335428D01*
X90562095Y-105297333D01*
X90562095Y-104992571D02*
X90524000Y-104954476D01*
X90485904Y-104878285D01*
X90485904Y-104687809D01*
X90524000Y-104611619D01*
X90562095Y-104573523D01*
X90638285Y-104535428D01*
X90714476Y-104535428D01*
X90828761Y-104573523D01*
X91285904Y-105030666D01*
X91285904Y-104535428D01*
G04 #@! TO.C,C3*
X91209714Y-109869333D02*
X91247809Y-109907428D01*
X91285904Y-110021714D01*
X91285904Y-110097904D01*
X91247809Y-110212190D01*
X91171619Y-110288380D01*
X91095428Y-110326476D01*
X90943047Y-110364571D01*
X90828761Y-110364571D01*
X90676380Y-110326476D01*
X90600190Y-110288380D01*
X90524000Y-110212190D01*
X90485904Y-110097904D01*
X90485904Y-110021714D01*
X90524000Y-109907428D01*
X90562095Y-109869333D01*
X90485904Y-109602666D02*
X90485904Y-109107428D01*
X90790666Y-109374095D01*
X90790666Y-109259809D01*
X90828761Y-109183619D01*
X90866857Y-109145523D01*
X90943047Y-109107428D01*
X91133523Y-109107428D01*
X91209714Y-109145523D01*
X91247809Y-109183619D01*
X91285904Y-109259809D01*
X91285904Y-109488380D01*
X91247809Y-109564571D01*
X91209714Y-109602666D01*
G04 #@! TO.C,J2*
X100242666Y-113252380D02*
X100242666Y-113966666D01*
X100195047Y-114109523D01*
X100099809Y-114204761D01*
X99956952Y-114252380D01*
X99861714Y-114252380D01*
X100671238Y-113347619D02*
X100718857Y-113300000D01*
X100814095Y-113252380D01*
X101052190Y-113252380D01*
X101147428Y-113300000D01*
X101195047Y-113347619D01*
X101242666Y-113442857D01*
X101242666Y-113538095D01*
X101195047Y-113680952D01*
X100623619Y-114252380D01*
X101242666Y-114252380D01*
G04 #@! TO.C,J1*
X100242666Y-77692380D02*
X100242666Y-78406666D01*
X100195047Y-78549523D01*
X100099809Y-78644761D01*
X99956952Y-78692380D01*
X99861714Y-78692380D01*
X101242666Y-78692380D02*
X100671238Y-78692380D01*
X100956952Y-78692380D02*
X100956952Y-77692380D01*
X100861714Y-77835238D01*
X100766476Y-77930476D01*
X100671238Y-77978095D01*
G04 #@! TD*
M02*
