M48
;DRILL file {KiCad no-vcs-found} date Sun Dec 11 09:55:09 2016
;FORMAT={-:-/ absolute / inch / decimal}
FMAT,2
INCH,TZ
T1C0.016
T2C0.024
T3C0.028
T4C0.035
T5C0.039
T6C0.043
T7C0.055
T8C0.059
T9C0.098
T10C0.108
T11C0.138
%
G90
G05
M72
T1
X4.775Y-1.675
X4.775Y-1.775
X4.775Y-1.875
X4.7957Y-4.4826
X4.8Y-1.975
X4.8Y-2.075
X4.8322Y-4.4678
X4.86Y-4.44
X5.175Y-1.775
X5.175Y-1.875
X5.175Y-1.975
X5.25Y-1.875
X5.32Y-5.34
X5.35Y-5.825
X5.4754Y-4.4709
X5.4817Y-4.5098
X5.625Y-5.75
X5.625Y-5.85
X5.8Y-4.64
X5.82Y-4.6
X6.5Y-4.4663
X6.5Y-4.5056
X6.5Y-4.545
X6.5Y-4.5844
X6.7202Y-4.4753
X6.8102Y-4.4102
X7.175Y-3.225
T2
X4.77Y-3.67
X4.77Y-3.89
X4.77Y-4.09
X4.77Y-4.29
X5.3059Y-1.9382
X5.4Y-3.2
X7.06Y-2.6
X7.3058Y-2.2296
T3
X5.05Y-1.55
X5.05Y-2.2
X5.25Y-1.55
X5.25Y-2.2
X5.25Y-5.2
X5.25Y-5.9
X5.35Y-5.2
X5.35Y-5.9
T4
X4.Y-3.65
X4.Y-3.75
X4.Y-3.85
X4.Y-3.95
X4.Y-4.05
X4.Y-4.15
X4.Y-4.25
X4.Y-4.35
X4.2Y-3.65
X4.2Y-3.75
X4.2Y-3.85
X4.2Y-3.95
X4.2Y-4.05
X4.2Y-4.15
X4.2Y-4.25
X4.2Y-4.35
X4.2492Y-1.4
X4.3492Y-1.4
X4.4992Y-1.4
X4.5992Y-1.4
X4.9Y-3.2
X4.9Y-3.4
X4.9Y-3.75
X4.9Y-3.95
X4.9Y-4.15
X4.9Y-4.35
X5.Y-3.2
X5.Y-3.4
X5.Y-3.75
X5.Y-3.95
X5.Y-4.15
X5.Y-4.35
X5.1Y-3.75
X5.1Y-3.95
X5.1Y-4.15
X5.1Y-4.35
X5.4Y-4.85
X5.4Y-5.35
X5.4Y-5.55
X5.5Y-4.85
X5.5Y-5.35
X5.5Y-5.55
X5.6Y-4.85
X5.6Y-5.55
X5.9Y-4.9457
X5.9Y-5.0457
X5.9Y-5.1457
X5.9Y-5.2457
X5.9Y-5.3457
X5.9Y-5.4457
X5.9Y-5.5457
X5.9Y-5.6457
X5.9Y-5.7457
X5.9Y-5.8457
X6.Y-4.9457
X6.Y-5.0457
X6.Y-5.1457
X6.Y-5.2457
X6.Y-5.3457
X6.Y-5.4457
X6.Y-5.5457
X6.Y-5.6457
X6.Y-5.7457
X6.Y-5.8457
X7.3Y-4.9457
X7.3Y-5.0457
X7.3Y-5.1457
X7.3Y-5.2457
X7.3Y-5.3457
X7.3Y-5.4457
X7.3Y-5.5457
X7.3Y-5.6457
X7.3Y-5.7457
X7.3Y-5.8457
X7.4Y-4.9445
X7.4Y-5.0445
X7.4Y-5.1445
X7.4Y-5.2445
X7.4Y-5.3445
X7.4Y-5.4445
X7.4Y-5.5445
X7.4Y-5.6457
X7.4Y-5.7445
X7.4Y-5.8445
X7.5087Y-1.6291
X7.5087Y-1.7291
X7.5087Y-1.8291
X7.5087Y-1.9291
X7.5087Y-2.0291
X7.5087Y-2.1291
X7.5087Y-2.2291
X7.5087Y-2.3291
X7.5087Y-2.4291
X7.5087Y-2.5291
X7.5087Y-2.6291
X7.5087Y-2.7291
X7.5087Y-2.8291
X7.5087Y-2.9291
X7.5087Y-3.0291
X7.5087Y-3.1291
X7.5087Y-3.2291
X7.5087Y-3.3291
X7.5087Y-3.4291
X7.5087Y-3.5291
X7.6087Y-1.6291
X7.6087Y-1.7291
X7.6087Y-1.8291
X7.6087Y-1.9291
X7.6087Y-2.0291
X7.6087Y-2.1291
X7.6087Y-2.2291
X7.6087Y-2.3291
X7.6087Y-2.4291
X7.6087Y-2.5291
X7.6087Y-2.6291
X7.6087Y-2.7291
X7.6087Y-2.8291
X7.6087Y-2.9291
X7.6087Y-3.0291
X7.6087Y-3.1291
X7.6087Y-3.2291
X7.6087Y-3.3291
X7.6087Y-3.4291
X7.6087Y-3.5291
T5
X3.95Y-4.9244
X3.95Y-5.2
X3.95Y-5.3994
X3.95Y-5.675
X3.9535Y-1.7433
X4.1055Y-2.6413
X4.1055Y-2.8663
X4.1055Y-3.0913
X4.1055Y-3.3163
X4.1665Y-5.0622
X4.1665Y-5.5372
X4.1701Y-1.6055
T6
X6.55Y-2.4488
X6.55Y-3.2559
T7
X3.9Y-2.
X3.9Y-2.35
X4.1Y-2.
X4.1Y-2.35
X4.5Y-2.
X4.5Y-2.35
X4.5Y-2.75
X4.7Y-2.
X4.7Y-2.35
X4.7Y-2.75
X5.1Y-2.75
X5.3Y-2.75
T8
X4.5098Y-4.7138
X4.5098Y-5.1862
X4.5098Y-5.4138
X4.5098Y-5.8862
X4.9902Y-4.7138
X4.9902Y-5.1862
X4.9902Y-5.4138
X4.9902Y-5.8862
X5.0689Y-4.95
X5.0689Y-5.65
T9
X6.45Y-4.9819
T10
X5.6295Y-1.4374
X5.6295Y-3.7209
X7.5587Y-1.4374
X7.5587Y-3.7209
T11
X3.8984Y-1.3969
X3.8984Y-6.0819
X7.3236Y-1.3969
X7.5992Y-6.0819
T0
M30
