G04 #@! TF.FileFunction,Copper,L1,Top,Signal*
%FSLAX46Y46*%
G04 Gerber Fmt 4.6, Leading zero omitted, Abs format (unit mm)*
G04 Created by KiCad (PCBNEW no-vcs-found) date Sun Dec 11 09:55:06 2016*
%MOMM*%
%LPD*%
G01*
G04 APERTURE LIST*
%ADD10C,0.100000*%
%ADD11C,0.150000*%
%ADD12C,3.000000*%
%ADD13C,1.800000*%
%ADD14R,1.800000X1.800000*%
%ADD15C,2.800000*%
%ADD16C,3.500000*%
%ADD17C,2.200000*%
%ADD18C,2.900000*%
%ADD19C,1.600000*%
%ADD20C,2.000000*%
%ADD21O,2.000000X1.200000*%
%ADD22C,5.000000*%
%ADD23R,1.600000X1.600000*%
%ADD24C,0.800000*%
%ADD25C,1.200000*%
%ADD26C,1.000000*%
%ADD27C,0.250000*%
%ADD28C,1.000000*%
%ADD29C,2.000000*%
%ADD30C,0.200000*%
G04 APERTURE END LIST*
D10*
D11*
X186643809Y-156308571D02*
X186948571Y-156308571D01*
X186758095Y-156041904D02*
X186758095Y-156727619D01*
X186796190Y-156803809D01*
X186872380Y-156841904D01*
X186948571Y-156841904D01*
X187329523Y-156841904D02*
X187253333Y-156803809D01*
X187215238Y-156765714D01*
X187177142Y-156689523D01*
X187177142Y-156460952D01*
X187215238Y-156384761D01*
X187253333Y-156346666D01*
X187329523Y-156308571D01*
X187443809Y-156308571D01*
X187520000Y-156346666D01*
X187558095Y-156384761D01*
X187596190Y-156460952D01*
X187596190Y-156689523D01*
X187558095Y-156765714D01*
X187520000Y-156803809D01*
X187443809Y-156841904D01*
X187329523Y-156841904D01*
X187939047Y-156308571D02*
X187939047Y-157108571D01*
X187939047Y-156346666D02*
X188015238Y-156308571D01*
X188167619Y-156308571D01*
X188243809Y-156346666D01*
X188281904Y-156384761D01*
X188320000Y-156460952D01*
X188320000Y-156689523D01*
X188281904Y-156765714D01*
X188243809Y-156803809D01*
X188167619Y-156841904D01*
X188015238Y-156841904D01*
X187939047Y-156803809D01*
D12*
X191990000Y-36510000D03*
X191990000Y-94510000D03*
X142990000Y-36510000D03*
X142990000Y-94510000D03*
D13*
X193260000Y-89640000D03*
X190720000Y-89640000D03*
X193260000Y-87100000D03*
X190720000Y-87100000D03*
X193260000Y-84560000D03*
X190720000Y-84560000D03*
X193260000Y-82020000D03*
X190720000Y-82020000D03*
X193260000Y-79480000D03*
X190720000Y-79480000D03*
X193260000Y-76940000D03*
X190720000Y-76940000D03*
X193260000Y-74400000D03*
X190720000Y-74400000D03*
D14*
X190720000Y-41380000D03*
D13*
X193260000Y-41380000D03*
X190720000Y-43920000D03*
X193260000Y-43920000D03*
X190720000Y-46460000D03*
X193260000Y-46460000D03*
X190720000Y-49000000D03*
X193260000Y-49000000D03*
X190720000Y-51540000D03*
X193260000Y-51540000D03*
X190720000Y-54080000D03*
X193260000Y-54080000D03*
X190720000Y-56620000D03*
X193260000Y-56620000D03*
X190720000Y-59160000D03*
X193260000Y-59160000D03*
X190720000Y-61700000D03*
X193260000Y-61700000D03*
X190720000Y-64240000D03*
X193260000Y-64240000D03*
X190720000Y-66780000D03*
X193260000Y-66780000D03*
X190720000Y-69320000D03*
X193260000Y-69320000D03*
X190720000Y-71860000D03*
X193260000Y-71860000D03*
D15*
X166370000Y-82699860D03*
X166370000Y-62199520D03*
D13*
X152400000Y-125620000D03*
X149860000Y-125620000D03*
X152400000Y-128160000D03*
X149860000Y-128160000D03*
X152400000Y-130700000D03*
X149860000Y-130700000D03*
X152400000Y-133240000D03*
X149860000Y-133240000D03*
X152400000Y-135780000D03*
X149860000Y-135780000D03*
X152400000Y-138320000D03*
X149860000Y-138320000D03*
X152400000Y-140860000D03*
X149860000Y-140860000D03*
X152400000Y-143400000D03*
X149860000Y-143400000D03*
X152400000Y-145940000D03*
X149860000Y-145940000D03*
X152400000Y-148480000D03*
D14*
X149860000Y-148480000D03*
D13*
X187960000Y-125590000D03*
X185420000Y-125620000D03*
X187960000Y-128130000D03*
X185420000Y-128160000D03*
X187960000Y-130670000D03*
X185420000Y-130700000D03*
X187960000Y-133210000D03*
X185420000Y-133240000D03*
X187960000Y-135750000D03*
X185420000Y-135780000D03*
X187960000Y-138290000D03*
X185420000Y-138320000D03*
X187960000Y-140830000D03*
X185420000Y-140860000D03*
X187960000Y-143400000D03*
X185420000Y-143400000D03*
X187960000Y-145910000D03*
X185420000Y-145940000D03*
X187960000Y-148450000D03*
D14*
X185420000Y-148480000D03*
D16*
X163830000Y-126540000D03*
D17*
X105830000Y-140645000D03*
X100330000Y-137145000D03*
X100330000Y-144145000D03*
D18*
X126751080Y-119730520D03*
X114548920Y-119730520D03*
X114548920Y-131729480D03*
X126751080Y-131729480D03*
X128750060Y-125730000D03*
D19*
X135890000Y-132080000D03*
X133350000Y-132080000D03*
X133350000Y-149860000D03*
X135890000Y-149860000D03*
D15*
X119380000Y-59690000D03*
X114300000Y-59690000D03*
X104140000Y-59690000D03*
X99060000Y-59690000D03*
X99060000Y-50800000D03*
X104140000Y-50800000D03*
X114300000Y-50800000D03*
X119380000Y-50800000D03*
X114300000Y-69850000D03*
X119380000Y-69850000D03*
X129540000Y-69850000D03*
X134620000Y-69850000D03*
D17*
X100420000Y-44280000D03*
X105920000Y-40780000D03*
D20*
X104280200Y-67090000D03*
X104280200Y-72805000D03*
X104280200Y-78520000D03*
X104280200Y-84235000D03*
D17*
X100330000Y-132080000D03*
X100330000Y-125080000D03*
X105830000Y-128580000D03*
D21*
X101600000Y-107950000D03*
X101600000Y-110490000D03*
X101600000Y-105410000D03*
X101600000Y-102870000D03*
X101600000Y-100330000D03*
X101600000Y-97790000D03*
X106680000Y-110490000D03*
X106680000Y-107950000D03*
X106680000Y-105410000D03*
X106680000Y-102870000D03*
X106680000Y-100330000D03*
X106680000Y-97790000D03*
X101600000Y-92710000D03*
X101600000Y-95250000D03*
X106680000Y-92710000D03*
X106680000Y-95250000D03*
D14*
X124460000Y-81280000D03*
D13*
X127000000Y-81280000D03*
X127000000Y-86360000D03*
D14*
X124460000Y-86360000D03*
D13*
X139700000Y-135890000D03*
D14*
X137160000Y-135890000D03*
D18*
X128750060Y-143510000D03*
X126751080Y-149509480D03*
X114548920Y-149509480D03*
X114548920Y-137510520D03*
X126751080Y-137510520D03*
D13*
X116819680Y-35560000D03*
X114279680Y-35560000D03*
X107929680Y-35560000D03*
X110469680Y-35560000D03*
D14*
X137160000Y-123190000D03*
D13*
X139700000Y-123190000D03*
X142240000Y-123190000D03*
X142240000Y-140970000D03*
X139700000Y-140970000D03*
D14*
X137160000Y-140970000D03*
D13*
X129540000Y-110490000D03*
X127000000Y-110490000D03*
D14*
X124460000Y-110490000D03*
X124460000Y-105410000D03*
D13*
X127000000Y-105410000D03*
X129540000Y-105410000D03*
D14*
X124460000Y-100330000D03*
D13*
X127000000Y-100330000D03*
X129540000Y-100330000D03*
X129540000Y-95250000D03*
X127000000Y-95250000D03*
D14*
X124460000Y-95250000D03*
D22*
X99020000Y-35480000D03*
X99020000Y-154480000D03*
X186020000Y-35480000D03*
X193020000Y-154480000D03*
D23*
X128270000Y-39370000D03*
D19*
X133350000Y-39370000D03*
D23*
X133350000Y-55880000D03*
D19*
X128270000Y-55880000D03*
D24*
X131445000Y-50165000D03*
X133350000Y-47625000D03*
X131445000Y-47625000D03*
X131445000Y-45085000D03*
X121920000Y-52705000D03*
X121920000Y-50165000D03*
X121285000Y-47625000D03*
X121285000Y-45085000D03*
X121285000Y-42545000D03*
D25*
X179324000Y-66040000D03*
X137160000Y-81280000D03*
X121158000Y-103886000D03*
X121158000Y-98806000D03*
X121158000Y-93218000D03*
X121158000Y-108966000D03*
D26*
X134770000Y-49230000D03*
D24*
X165100000Y-115443047D03*
X139074366Y-113560918D03*
X165100000Y-116443060D03*
X139234733Y-114547987D03*
X135128000Y-135636000D03*
X135890000Y-147955000D03*
X147828000Y-116840000D03*
X123444000Y-112776000D03*
X147320000Y-117856000D03*
X122736885Y-113483115D03*
X121810219Y-113859032D03*
D25*
X185568501Y-56630999D03*
D24*
X182245000Y-81915000D03*
X165100000Y-114443034D03*
X165100000Y-113443021D03*
X170692034Y-113671697D03*
X172980070Y-112020070D03*
X142875000Y-148590000D03*
X142875000Y-146050000D03*
D27*
X131445000Y-47625000D02*
X131445000Y-50165000D01*
X131445000Y-47625000D02*
X133350000Y-47625000D01*
X121920000Y-52705000D02*
X123825000Y-54610000D01*
X121285000Y-47625000D02*
X121285000Y-49530000D01*
X121285000Y-49530000D02*
X121920000Y-50165000D01*
X121285000Y-42545000D02*
X121285000Y-45085000D01*
D28*
X139700000Y-135890000D02*
X144145000Y-135890000D01*
X145415000Y-134620000D02*
X145415000Y-116205000D01*
X144145000Y-135890000D02*
X145415000Y-134620000D01*
X121158000Y-108966000D02*
X121158000Y-103886000D01*
X121158000Y-103886000D02*
X121158000Y-98806000D01*
X121158000Y-98806000D02*
X121158000Y-93218000D01*
X111999999Y-53100001D02*
X111999999Y-85964999D01*
X111999999Y-85964999D02*
X118745000Y-92710000D01*
X118745000Y-113775049D02*
X124700471Y-119730520D01*
X124700471Y-119730520D02*
X126751080Y-119730520D01*
X118745000Y-92710000D02*
X118745000Y-113775049D01*
X114300000Y-50800000D02*
X111999999Y-53100001D01*
X126751080Y-119730520D02*
X132430520Y-119730520D01*
X132430520Y-119730520D02*
X133350000Y-120650000D01*
X133350000Y-120650000D02*
X133350000Y-129540000D01*
X133350000Y-129540000D02*
X131649999Y-131240001D01*
X131649999Y-131240001D02*
X131649999Y-136320001D01*
X131649999Y-136320001D02*
X130459480Y-137510520D01*
X130459480Y-137510520D02*
X127059478Y-137510520D01*
X134770000Y-49230000D02*
X133770000Y-49230000D01*
X133770000Y-49230000D02*
X133350000Y-49650000D01*
X133350000Y-49650000D02*
X133350000Y-55880000D01*
D29*
X128750060Y-125730000D02*
X113268002Y-125730000D01*
X113268002Y-125730000D02*
X106918002Y-132080000D01*
X106918002Y-132080000D02*
X101885634Y-132080000D01*
X101885634Y-132080000D02*
X100330000Y-132080000D01*
X128750060Y-143510000D02*
X126699451Y-143510000D01*
X126699451Y-143510000D02*
X126064451Y-144145000D01*
X101885634Y-144145000D02*
X100330000Y-144145000D01*
X126064451Y-144145000D02*
X101885634Y-144145000D01*
D27*
X194056000Y-112268000D02*
X190880953Y-115443047D01*
X194056000Y-92964000D02*
X194056000Y-112268000D01*
X192034999Y-88325001D02*
X192034999Y-90942999D01*
X190880953Y-115443047D02*
X165665685Y-115443047D01*
X192034999Y-90942999D02*
X194056000Y-92964000D01*
X137160000Y-115475284D02*
X138674367Y-113960917D01*
X138674367Y-113960917D02*
X139074366Y-113560918D01*
X137160000Y-123190000D02*
X137160000Y-115475284D01*
X193260000Y-87100000D02*
X192034999Y-88325001D01*
X165665685Y-115443047D02*
X165100000Y-115443047D01*
X135128000Y-135636000D02*
X135128000Y-134747000D01*
X135128000Y-134747000D02*
X135890000Y-133985000D01*
X135890000Y-133985000D02*
X143510000Y-133985000D01*
X143510000Y-133985000D02*
X144145000Y-133350000D01*
X144145000Y-133350000D02*
X144145000Y-118110000D01*
X143510000Y-117475000D02*
X139700000Y-117475000D01*
X144145000Y-118110000D02*
X143510000Y-117475000D01*
X139700000Y-117475000D02*
X139234733Y-117009733D01*
X139234733Y-117009733D02*
X139234733Y-114547987D01*
X165665685Y-116443060D02*
X165100000Y-116443060D01*
X190896940Y-116443060D02*
X165665685Y-116443060D01*
X194159999Y-90539999D02*
X194159999Y-91716590D01*
X194159999Y-91716590D02*
X194506011Y-92062602D01*
X194506011Y-92062602D02*
X194506011Y-112833989D01*
X194506011Y-112833989D02*
X190896940Y-116443060D01*
X193260000Y-89640000D02*
X194159999Y-90539999D01*
X135890000Y-147955000D02*
X135890000Y-137160000D01*
X135890000Y-137160000D02*
X137160000Y-135890000D01*
X147828000Y-116840000D02*
X151130000Y-120142000D01*
X151130000Y-120142000D02*
X151130000Y-126238000D01*
X153299999Y-134880001D02*
X152400000Y-135780000D01*
X151130000Y-126238000D02*
X151765000Y-126873000D01*
X151765000Y-126873000D02*
X152926002Y-126873000D01*
X153797000Y-134383000D02*
X153299999Y-134880001D01*
X152926002Y-126873000D02*
X153797000Y-127743998D01*
X153797000Y-127743998D02*
X153797000Y-134383000D01*
X123444000Y-112210315D02*
X123444000Y-112776000D01*
X124460000Y-107188000D02*
X123234999Y-108413001D01*
X123234999Y-112001314D02*
X123444000Y-112210315D01*
X124460000Y-105410000D02*
X124460000Y-107188000D01*
X123234999Y-108413001D02*
X123234999Y-112001314D01*
X147320000Y-117856000D02*
X147828000Y-118364000D01*
X147828000Y-118364000D02*
X147828000Y-128397000D01*
X147828000Y-128397000D02*
X148844000Y-129413000D01*
X148844000Y-129413000D02*
X150622000Y-129413000D01*
X150622000Y-129413000D02*
X151130000Y-129921000D01*
X151130000Y-129921000D02*
X151130000Y-134510000D01*
X151130000Y-134510000D02*
X150759999Y-134880001D01*
X150759999Y-134880001D02*
X149860000Y-135780000D01*
X122784988Y-111854008D02*
X122336886Y-112302110D01*
X122936000Y-108075589D02*
X122784988Y-108226601D01*
X122936000Y-103004000D02*
X122936000Y-108075589D01*
X122336886Y-113083116D02*
X122736885Y-113483115D01*
X124460000Y-100330000D02*
X124460000Y-101480000D01*
X124460000Y-101480000D02*
X122936000Y-103004000D01*
X122784988Y-108226601D02*
X122784988Y-111854008D01*
X122336886Y-112302110D02*
X122336886Y-113083116D01*
X122428000Y-107947178D02*
X122334977Y-108040201D01*
X124460000Y-96400000D02*
X122428000Y-98432000D01*
X122334977Y-111667608D02*
X121810219Y-112192366D01*
X121810219Y-112192366D02*
X121810219Y-113293347D01*
X124460000Y-95250000D02*
X124460000Y-96400000D01*
X122428000Y-98432000D02*
X122428000Y-107947178D01*
X122334977Y-108040201D02*
X122334977Y-111667608D01*
X121810219Y-113293347D02*
X121810219Y-113859032D01*
X142240000Y-140970000D02*
X147066000Y-140970000D01*
X147066000Y-140970000D02*
X147828000Y-140208000D01*
X147828000Y-140208000D02*
X147828000Y-132732000D01*
X147828000Y-132732000D02*
X149860000Y-130700000D01*
X193260000Y-49000000D02*
X195395011Y-51135011D01*
X195395011Y-51135011D02*
X195395011Y-72576400D01*
X195395011Y-72576400D02*
X194945000Y-73026410D01*
X194945000Y-73026410D02*
X194945000Y-91865180D01*
X194945000Y-91865180D02*
X194956022Y-91876202D01*
X194945000Y-131445000D02*
X193180000Y-133210000D01*
X194956022Y-91876202D02*
X194956022Y-113020389D01*
X194945000Y-113031411D02*
X194945000Y-131445000D01*
X193180000Y-133210000D02*
X187960000Y-133210000D01*
X194956022Y-113020389D02*
X194945000Y-113031411D01*
D28*
X190720000Y-41380000D02*
X188820000Y-41380000D01*
X188820000Y-41380000D02*
X185568501Y-44631499D01*
X185568501Y-44631499D02*
X185568501Y-56630999D01*
D27*
X193260000Y-51540000D02*
X194945000Y-53225000D01*
X194945000Y-53225000D02*
X194945000Y-72390000D01*
X194183000Y-73152000D02*
X188468000Y-73152000D01*
X194945000Y-72390000D02*
X194183000Y-73152000D01*
X188468000Y-73152000D02*
X182245000Y-79375000D01*
X182245000Y-79375000D02*
X182245000Y-81915000D01*
X165665685Y-114443034D02*
X165100000Y-114443034D01*
X168895377Y-114443034D02*
X165665685Y-114443034D01*
X176784000Y-106554411D02*
X168895377Y-114443034D01*
X188918011Y-68766400D02*
X176784000Y-80900410D01*
X176784000Y-80900410D02*
X176784000Y-106554411D01*
X188918011Y-60961989D02*
X188918011Y-68766400D01*
X190720000Y-59160000D02*
X188918011Y-60961989D01*
X193260000Y-59160000D02*
X192034999Y-57934999D01*
X192034999Y-57934999D02*
X189962003Y-57934999D01*
X189962003Y-57934999D02*
X188468000Y-59429002D01*
X176276000Y-106426000D02*
X169258979Y-113443021D01*
X188468000Y-59429002D02*
X188468000Y-68326000D01*
X188468000Y-68326000D02*
X176276000Y-80518000D01*
X176276000Y-80518000D02*
X176276000Y-106426000D01*
X165665685Y-113443021D02*
X165100000Y-113443021D01*
X169258979Y-113443021D02*
X165665685Y-113443021D01*
X193260000Y-61700000D02*
X191945001Y-63014999D01*
X191945001Y-63014999D02*
X191945001Y-67368001D01*
X172212000Y-111762821D02*
X172212000Y-112151731D01*
X191945001Y-67368001D02*
X191308001Y-68005001D01*
X189368022Y-68952800D02*
X177292000Y-81028820D01*
X177292000Y-106682821D02*
X172212000Y-111762821D01*
X172212000Y-112151731D02*
X170692034Y-113671697D01*
X191308001Y-68005001D02*
X190187410Y-68005001D01*
X190187410Y-68005001D02*
X189368022Y-68824389D01*
X189368022Y-68824389D02*
X189368022Y-68952800D01*
X177292000Y-81028820D02*
X177292000Y-106682821D01*
X177800000Y-81157232D02*
X177800000Y-107200140D01*
X188412231Y-70545001D02*
X177800000Y-81157232D01*
X191945001Y-69908001D02*
X191308001Y-70545001D01*
X191945001Y-68094999D02*
X191945001Y-69908001D01*
X193260000Y-66780000D02*
X191945001Y-68094999D01*
X191308001Y-70545001D02*
X188412231Y-70545001D01*
X177800000Y-107200140D02*
X173380069Y-111620071D01*
X173380069Y-111620071D02*
X172980070Y-112020070D01*
X142875000Y-146050000D02*
X142875000Y-148590000D01*
D30*
G36*
X185460602Y-38279513D02*
X186574511Y-38280485D01*
X186769299Y-38200000D01*
X191366232Y-38200000D01*
X191630387Y-38309687D01*
X192346471Y-38310312D01*
X192613446Y-38200000D01*
X194268578Y-38200000D01*
X195480000Y-39411422D01*
X195480000Y-50618959D01*
X194354456Y-49493416D01*
X194459791Y-49239742D01*
X194460207Y-48762353D01*
X194277903Y-48321143D01*
X193940633Y-47983283D01*
X193499742Y-47800209D01*
X193022353Y-47799793D01*
X192581143Y-47982097D01*
X192243283Y-48319367D01*
X192060209Y-48760258D01*
X192059793Y-49237647D01*
X192242097Y-49678857D01*
X192579367Y-50016717D01*
X193020258Y-50199791D01*
X193497647Y-50200207D01*
X193753465Y-50094505D01*
X194970011Y-51311052D01*
X194970011Y-52648971D01*
X194354456Y-52033416D01*
X194459791Y-51779742D01*
X194460207Y-51302353D01*
X194277903Y-50861143D01*
X193940633Y-50523283D01*
X193499742Y-50340209D01*
X193022353Y-50339793D01*
X192581143Y-50522097D01*
X192243283Y-50859367D01*
X192060209Y-51300258D01*
X192059793Y-51777647D01*
X192242097Y-52218857D01*
X192579367Y-52556717D01*
X193020258Y-52739791D01*
X193497647Y-52740207D01*
X193753465Y-52634505D01*
X194520000Y-53401040D01*
X194520000Y-72213959D01*
X194335932Y-72398027D01*
X194459791Y-72099742D01*
X194460207Y-71622353D01*
X194277903Y-71181143D01*
X193940633Y-70843283D01*
X193499742Y-70660209D01*
X193022353Y-70659793D01*
X192581143Y-70842097D01*
X192243283Y-71179367D01*
X192060209Y-71620258D01*
X192059793Y-72097647D01*
X192242097Y-72538857D01*
X192429911Y-72727000D01*
X191550024Y-72727000D01*
X191736717Y-72540633D01*
X191919791Y-72099742D01*
X191920207Y-71622353D01*
X191737903Y-71181143D01*
X191485155Y-70927953D01*
X191608521Y-70845521D01*
X192245521Y-70208521D01*
X192328070Y-70084980D01*
X192579367Y-70336717D01*
X193020258Y-70519791D01*
X193497647Y-70520207D01*
X193938857Y-70337903D01*
X194276717Y-70000633D01*
X194459791Y-69559742D01*
X194460207Y-69082353D01*
X194277903Y-68641143D01*
X193940633Y-68303283D01*
X193499742Y-68120209D01*
X193022353Y-68119793D01*
X192581143Y-68302097D01*
X192370001Y-68512870D01*
X192370001Y-68271039D01*
X192766584Y-67874456D01*
X193020258Y-67979791D01*
X193497647Y-67980207D01*
X193938857Y-67797903D01*
X194276717Y-67460633D01*
X194459791Y-67019742D01*
X194460207Y-66542353D01*
X194277903Y-66101143D01*
X193940633Y-65763283D01*
X193499742Y-65580209D01*
X193022353Y-65579793D01*
X192581143Y-65762097D01*
X192370001Y-65972870D01*
X192370001Y-65046985D01*
X192579367Y-65256717D01*
X193020258Y-65439791D01*
X193497647Y-65440207D01*
X193938857Y-65257903D01*
X194276717Y-64920633D01*
X194459791Y-64479742D01*
X194460207Y-64002353D01*
X194277903Y-63561143D01*
X193940633Y-63223283D01*
X193499742Y-63040209D01*
X193022353Y-63039793D01*
X192581143Y-63222097D01*
X192370001Y-63432870D01*
X192370001Y-63191039D01*
X192766584Y-62794456D01*
X193020258Y-62899791D01*
X193497647Y-62900207D01*
X193938857Y-62717903D01*
X194276717Y-62380633D01*
X194459791Y-61939742D01*
X194460207Y-61462353D01*
X194277903Y-61021143D01*
X193940633Y-60683283D01*
X193499742Y-60500209D01*
X193022353Y-60499793D01*
X192581143Y-60682097D01*
X192243283Y-61019367D01*
X192098069Y-61369080D01*
X191907555Y-60908000D01*
X191514072Y-60513830D01*
X191051108Y-60321590D01*
X191398857Y-60177903D01*
X191736717Y-59840633D01*
X191919791Y-59399742D01*
X191920207Y-58922353D01*
X191737903Y-58481143D01*
X191616971Y-58359999D01*
X191858959Y-58359999D01*
X192165544Y-58666584D01*
X192060209Y-58920258D01*
X192059793Y-59397647D01*
X192242097Y-59838857D01*
X192579367Y-60176717D01*
X193020258Y-60359791D01*
X193497647Y-60360207D01*
X193938857Y-60177903D01*
X194276717Y-59840633D01*
X194459791Y-59399742D01*
X194460207Y-58922353D01*
X194277903Y-58481143D01*
X193940633Y-58143283D01*
X193499742Y-57960209D01*
X193022353Y-57959793D01*
X192766535Y-58065495D01*
X192335519Y-57634479D01*
X192197640Y-57542350D01*
X192170656Y-57536983D01*
X192034999Y-57509999D01*
X191526985Y-57509999D01*
X191736717Y-57300633D01*
X191919791Y-56859742D01*
X191919792Y-56857647D01*
X192059793Y-56857647D01*
X192242097Y-57298857D01*
X192579367Y-57636717D01*
X193020258Y-57819791D01*
X193497647Y-57820207D01*
X193938857Y-57637903D01*
X194276717Y-57300633D01*
X194459791Y-56859742D01*
X194460207Y-56382353D01*
X194277903Y-55941143D01*
X193940633Y-55603283D01*
X193499742Y-55420209D01*
X193022353Y-55419793D01*
X192581143Y-55602097D01*
X192243283Y-55939367D01*
X192060209Y-56380258D01*
X192059793Y-56857647D01*
X191919792Y-56857647D01*
X191920207Y-56382353D01*
X191737903Y-55941143D01*
X191400633Y-55603283D01*
X190959742Y-55420209D01*
X190482353Y-55419793D01*
X190041143Y-55602097D01*
X189703283Y-55939367D01*
X189520209Y-56380258D01*
X189519793Y-56857647D01*
X189702097Y-57298857D01*
X189921010Y-57518153D01*
X189799363Y-57542350D01*
X189753611Y-57572921D01*
X189661482Y-57634479D01*
X188167480Y-59128482D01*
X188075351Y-59266361D01*
X188075351Y-59266362D01*
X188043000Y-59429002D01*
X188043000Y-68149959D01*
X175975480Y-80217480D01*
X175883351Y-80355359D01*
X175883351Y-80355360D01*
X175851000Y-80518000D01*
X175851000Y-105310000D01*
X147955000Y-105310000D01*
X147916732Y-105317612D01*
X147884289Y-105339289D01*
X146614289Y-106609289D01*
X146592612Y-106641732D01*
X146585000Y-106680000D01*
X146585000Y-116163578D01*
X145373578Y-117375000D01*
X144011040Y-117375000D01*
X143810520Y-117174480D01*
X143672641Y-117082351D01*
X143645657Y-117076984D01*
X143510000Y-117050000D01*
X139876040Y-117050000D01*
X139659733Y-116833693D01*
X139659733Y-115112815D01*
X139827818Y-114945023D01*
X139934611Y-114687837D01*
X139934854Y-114409359D01*
X139828510Y-114151987D01*
X139651105Y-113974272D01*
X139667451Y-113957954D01*
X139774244Y-113700768D01*
X139774487Y-113422290D01*
X139668143Y-113164918D01*
X139471402Y-112967833D01*
X139214216Y-112861040D01*
X138935738Y-112860797D01*
X138678366Y-112967141D01*
X138481281Y-113163882D01*
X138374488Y-113421068D01*
X138374280Y-113659964D01*
X138373849Y-113660395D01*
X138373846Y-113660397D01*
X136859480Y-115174764D01*
X136767351Y-115312643D01*
X136767351Y-115312644D01*
X136735000Y-115475284D01*
X136735000Y-117375000D01*
X123759165Y-117375000D01*
X120381825Y-113997660D01*
X121110098Y-113997660D01*
X121216442Y-114255032D01*
X121413183Y-114452117D01*
X121670369Y-114558910D01*
X121948847Y-114559153D01*
X122206219Y-114452809D01*
X122403304Y-114256068D01*
X122457676Y-114125126D01*
X122597035Y-114182993D01*
X122875513Y-114183236D01*
X123132885Y-114076892D01*
X123329970Y-113880151D01*
X123436763Y-113622965D01*
X123436891Y-113475994D01*
X123582628Y-113476121D01*
X123840000Y-113369777D01*
X124037085Y-113173036D01*
X124143878Y-112915850D01*
X124144121Y-112637372D01*
X124037777Y-112380000D01*
X123869000Y-112210928D01*
X123869000Y-112210315D01*
X123836649Y-112047675D01*
X123836649Y-112047674D01*
X123744520Y-111909795D01*
X123659999Y-111825274D01*
X123659999Y-111695877D01*
X125360000Y-111695877D01*
X125477054Y-111672593D01*
X125576288Y-111606288D01*
X125642593Y-111507054D01*
X125665877Y-111390000D01*
X125665877Y-110727647D01*
X125799793Y-110727647D01*
X125982097Y-111168857D01*
X126319367Y-111506717D01*
X126760258Y-111689791D01*
X127237647Y-111690207D01*
X127678857Y-111507903D01*
X128016717Y-111170633D01*
X128199791Y-110729742D01*
X128199792Y-110727647D01*
X128339793Y-110727647D01*
X128522097Y-111168857D01*
X128859367Y-111506717D01*
X129300258Y-111689791D01*
X129777647Y-111690207D01*
X130218857Y-111507903D01*
X130556717Y-111170633D01*
X130739791Y-110729742D01*
X130740207Y-110252353D01*
X130557903Y-109811143D01*
X130220633Y-109473283D01*
X129779742Y-109290209D01*
X129302353Y-109289793D01*
X128861143Y-109472097D01*
X128523283Y-109809367D01*
X128340209Y-110250258D01*
X128339793Y-110727647D01*
X128199792Y-110727647D01*
X128200207Y-110252353D01*
X128017903Y-109811143D01*
X127680633Y-109473283D01*
X127239742Y-109290209D01*
X126762353Y-109289793D01*
X126321143Y-109472097D01*
X125983283Y-109809367D01*
X125800209Y-110250258D01*
X125799793Y-110727647D01*
X125665877Y-110727647D01*
X125665877Y-109590000D01*
X125642593Y-109472946D01*
X125576288Y-109373712D01*
X125477054Y-109307407D01*
X125360000Y-109284123D01*
X123659999Y-109284123D01*
X123659999Y-108589041D01*
X124760520Y-107488520D01*
X124852649Y-107350641D01*
X124858016Y-107323657D01*
X124885000Y-107188000D01*
X124885000Y-106615877D01*
X125360000Y-106615877D01*
X125477054Y-106592593D01*
X125576288Y-106526288D01*
X125642593Y-106427054D01*
X125665877Y-106310000D01*
X125665877Y-105647647D01*
X125799793Y-105647647D01*
X125982097Y-106088857D01*
X126319367Y-106426717D01*
X126760258Y-106609791D01*
X127237647Y-106610207D01*
X127678857Y-106427903D01*
X128016717Y-106090633D01*
X128199791Y-105649742D01*
X128199792Y-105647647D01*
X128339793Y-105647647D01*
X128522097Y-106088857D01*
X128859367Y-106426717D01*
X129300258Y-106609791D01*
X129777647Y-106610207D01*
X130218857Y-106427903D01*
X130556717Y-106090633D01*
X130739791Y-105649742D01*
X130740207Y-105172353D01*
X130557903Y-104731143D01*
X130220633Y-104393283D01*
X129779742Y-104210209D01*
X129302353Y-104209793D01*
X128861143Y-104392097D01*
X128523283Y-104729367D01*
X128340209Y-105170258D01*
X128339793Y-105647647D01*
X128199792Y-105647647D01*
X128200207Y-105172353D01*
X128017903Y-104731143D01*
X127680633Y-104393283D01*
X127239742Y-104210209D01*
X126762353Y-104209793D01*
X126321143Y-104392097D01*
X125983283Y-104729367D01*
X125800209Y-105170258D01*
X125799793Y-105647647D01*
X125665877Y-105647647D01*
X125665877Y-104510000D01*
X125642593Y-104392946D01*
X125576288Y-104293712D01*
X125477054Y-104227407D01*
X125360000Y-104204123D01*
X123560000Y-104204123D01*
X123442946Y-104227407D01*
X123361000Y-104282161D01*
X123361000Y-103180040D01*
X124760520Y-101780521D01*
X124852648Y-101642641D01*
X124852649Y-101642640D01*
X124873885Y-101535877D01*
X125360000Y-101535877D01*
X125477054Y-101512593D01*
X125576288Y-101446288D01*
X125642593Y-101347054D01*
X125665877Y-101230000D01*
X125665877Y-100567647D01*
X125799793Y-100567647D01*
X125982097Y-101008857D01*
X126319367Y-101346717D01*
X126760258Y-101529791D01*
X127237647Y-101530207D01*
X127678857Y-101347903D01*
X128016717Y-101010633D01*
X128199791Y-100569742D01*
X128199792Y-100567647D01*
X128339793Y-100567647D01*
X128522097Y-101008857D01*
X128859367Y-101346717D01*
X129300258Y-101529791D01*
X129777647Y-101530207D01*
X130218857Y-101347903D01*
X130556717Y-101010633D01*
X130739791Y-100569742D01*
X130740207Y-100092353D01*
X130557903Y-99651143D01*
X130220633Y-99313283D01*
X129779742Y-99130209D01*
X129302353Y-99129793D01*
X128861143Y-99312097D01*
X128523283Y-99649367D01*
X128340209Y-100090258D01*
X128339793Y-100567647D01*
X128199792Y-100567647D01*
X128200207Y-100092353D01*
X128017903Y-99651143D01*
X127680633Y-99313283D01*
X127239742Y-99130209D01*
X126762353Y-99129793D01*
X126321143Y-99312097D01*
X125983283Y-99649367D01*
X125800209Y-100090258D01*
X125799793Y-100567647D01*
X125665877Y-100567647D01*
X125665877Y-99430000D01*
X125642593Y-99312946D01*
X125576288Y-99213712D01*
X125477054Y-99147407D01*
X125360000Y-99124123D01*
X123560000Y-99124123D01*
X123442946Y-99147407D01*
X123343712Y-99213712D01*
X123277407Y-99312946D01*
X123254123Y-99430000D01*
X123254123Y-101230000D01*
X123277407Y-101347054D01*
X123343712Y-101446288D01*
X123442946Y-101512593D01*
X123560000Y-101535877D01*
X123803082Y-101535877D01*
X122853000Y-102485960D01*
X122853000Y-98608040D01*
X124760520Y-96700520D01*
X124852649Y-96562641D01*
X124873885Y-96455877D01*
X125360000Y-96455877D01*
X125477054Y-96432593D01*
X125576288Y-96366288D01*
X125642593Y-96267054D01*
X125665877Y-96150000D01*
X125665877Y-95487647D01*
X125799793Y-95487647D01*
X125982097Y-95928857D01*
X126319367Y-96266717D01*
X126760258Y-96449791D01*
X127237647Y-96450207D01*
X127678857Y-96267903D01*
X128016717Y-95930633D01*
X128199791Y-95489742D01*
X128199792Y-95487647D01*
X128339793Y-95487647D01*
X128522097Y-95928857D01*
X128859367Y-96266717D01*
X129300258Y-96449791D01*
X129777647Y-96450207D01*
X130218857Y-96267903D01*
X130556717Y-95930633D01*
X130739791Y-95489742D01*
X130740207Y-95012353D01*
X130679930Y-94866471D01*
X141189688Y-94866471D01*
X141463145Y-95528286D01*
X141969051Y-96035076D01*
X142630387Y-96309687D01*
X143346471Y-96310312D01*
X144008286Y-96036855D01*
X144515076Y-95530949D01*
X144789687Y-94869613D01*
X144790312Y-94153529D01*
X144516855Y-93491714D01*
X144010949Y-92984924D01*
X143349613Y-92710313D01*
X142633529Y-92709688D01*
X141971714Y-92983145D01*
X141464924Y-93489051D01*
X141190313Y-94150387D01*
X141189688Y-94866471D01*
X130679930Y-94866471D01*
X130557903Y-94571143D01*
X130220633Y-94233283D01*
X129779742Y-94050209D01*
X129302353Y-94049793D01*
X128861143Y-94232097D01*
X128523283Y-94569367D01*
X128340209Y-95010258D01*
X128339793Y-95487647D01*
X128199792Y-95487647D01*
X128200207Y-95012353D01*
X128017903Y-94571143D01*
X127680633Y-94233283D01*
X127239742Y-94050209D01*
X126762353Y-94049793D01*
X126321143Y-94232097D01*
X125983283Y-94569367D01*
X125800209Y-95010258D01*
X125799793Y-95487647D01*
X125665877Y-95487647D01*
X125665877Y-94350000D01*
X125642593Y-94232946D01*
X125576288Y-94133712D01*
X125477054Y-94067407D01*
X125360000Y-94044123D01*
X123560000Y-94044123D01*
X123442946Y-94067407D01*
X123343712Y-94133712D01*
X123277407Y-94232946D01*
X123254123Y-94350000D01*
X123254123Y-96150000D01*
X123277407Y-96267054D01*
X123343712Y-96366288D01*
X123442946Y-96432593D01*
X123560000Y-96455877D01*
X123803083Y-96455877D01*
X122127480Y-98131480D01*
X122035351Y-98269359D01*
X122035351Y-98269360D01*
X122003000Y-98432000D01*
X122003000Y-107786759D01*
X121942328Y-107877560D01*
X121942328Y-107877561D01*
X121909977Y-108040201D01*
X121909977Y-111491568D01*
X121509699Y-111891846D01*
X121417570Y-112029725D01*
X121417570Y-112029726D01*
X121385219Y-112192366D01*
X121385219Y-113294204D01*
X121217134Y-113461996D01*
X121110341Y-113719182D01*
X121110098Y-113997660D01*
X120381825Y-113997660D01*
X119745000Y-113360835D01*
X119745000Y-92710000D01*
X119668880Y-92327317D01*
X119668880Y-92327316D01*
X119452107Y-92002893D01*
X115670000Y-88220786D01*
X115670000Y-85460000D01*
X123254123Y-85460000D01*
X123254123Y-87260000D01*
X123277407Y-87377054D01*
X123343712Y-87476288D01*
X123442946Y-87542593D01*
X123560000Y-87565877D01*
X125360000Y-87565877D01*
X125477054Y-87542593D01*
X125576288Y-87476288D01*
X125642593Y-87377054D01*
X125665877Y-87260000D01*
X125665877Y-86597647D01*
X125799793Y-86597647D01*
X125982097Y-87038857D01*
X126319367Y-87376717D01*
X126760258Y-87559791D01*
X127237647Y-87560207D01*
X127678857Y-87377903D01*
X128016717Y-87040633D01*
X128199791Y-86599742D01*
X128200207Y-86122353D01*
X128017903Y-85681143D01*
X127680633Y-85343283D01*
X127239742Y-85160209D01*
X126762353Y-85159793D01*
X126321143Y-85342097D01*
X125983283Y-85679367D01*
X125800209Y-86120258D01*
X125799793Y-86597647D01*
X125665877Y-86597647D01*
X125665877Y-85460000D01*
X125642593Y-85342946D01*
X125576288Y-85243712D01*
X125477054Y-85177407D01*
X125360000Y-85154123D01*
X123560000Y-85154123D01*
X123442946Y-85177407D01*
X123343712Y-85243712D01*
X123277407Y-85342946D01*
X123254123Y-85460000D01*
X115670000Y-85460000D01*
X115670000Y-83036527D01*
X164669706Y-83036527D01*
X164927970Y-83661575D01*
X165405770Y-84140210D01*
X166030366Y-84399564D01*
X166706667Y-84400154D01*
X167331715Y-84141890D01*
X167810350Y-83664090D01*
X168069704Y-83039494D01*
X168070294Y-82363193D01*
X167812030Y-81738145D01*
X167334230Y-81259510D01*
X166709634Y-81000156D01*
X166033333Y-80999566D01*
X165408285Y-81257830D01*
X164929650Y-81735630D01*
X164670296Y-82360226D01*
X164669706Y-83036527D01*
X115670000Y-83036527D01*
X115670000Y-80380000D01*
X123254123Y-80380000D01*
X123254123Y-82180000D01*
X123277407Y-82297054D01*
X123343712Y-82396288D01*
X123442946Y-82462593D01*
X123560000Y-82485877D01*
X125360000Y-82485877D01*
X125477054Y-82462593D01*
X125576288Y-82396288D01*
X125642593Y-82297054D01*
X125665877Y-82180000D01*
X125665877Y-81517647D01*
X125799793Y-81517647D01*
X125982097Y-81958857D01*
X126319367Y-82296717D01*
X126760258Y-82479791D01*
X127237647Y-82480207D01*
X127678857Y-82297903D01*
X128016717Y-81960633D01*
X128199791Y-81519742D01*
X128200207Y-81042353D01*
X128017903Y-80601143D01*
X127680633Y-80263283D01*
X127239742Y-80080209D01*
X126762353Y-80079793D01*
X126321143Y-80262097D01*
X125983283Y-80599367D01*
X125800209Y-81040258D01*
X125799793Y-81517647D01*
X125665877Y-81517647D01*
X125665877Y-80380000D01*
X125642593Y-80262946D01*
X125576288Y-80163712D01*
X125477054Y-80097407D01*
X125360000Y-80074123D01*
X123560000Y-80074123D01*
X123442946Y-80097407D01*
X123343712Y-80163712D01*
X123277407Y-80262946D01*
X123254123Y-80380000D01*
X115670000Y-80380000D01*
X115670000Y-75565000D01*
X115662388Y-75526732D01*
X115640711Y-75494289D01*
X114370711Y-74224289D01*
X114338268Y-74202612D01*
X114300000Y-74195000D01*
X112999999Y-74195000D01*
X112999999Y-71362136D01*
X113074431Y-71287704D01*
X113225998Y-71583431D01*
X113971107Y-71862485D01*
X114766287Y-71835155D01*
X115374002Y-71583431D01*
X115525570Y-71287702D01*
X118154430Y-71287702D01*
X118305998Y-71583431D01*
X119051107Y-71862485D01*
X119846287Y-71835155D01*
X120454002Y-71583431D01*
X120605570Y-71287702D01*
X119380000Y-70062132D01*
X118154430Y-71287702D01*
X115525570Y-71287702D01*
X114300000Y-70062132D01*
X114285858Y-70076275D01*
X114073726Y-69864143D01*
X114087868Y-69850000D01*
X114512132Y-69850000D01*
X115737702Y-71075570D01*
X116033431Y-70924002D01*
X116312485Y-70178893D01*
X116289878Y-69521107D01*
X117367515Y-69521107D01*
X117394845Y-70316287D01*
X117646569Y-70924002D01*
X117942298Y-71075570D01*
X119167868Y-69850000D01*
X119592132Y-69850000D01*
X120817702Y-71075570D01*
X121113431Y-70924002D01*
X121392485Y-70178893D01*
X121365155Y-69383713D01*
X121113431Y-68775998D01*
X120817702Y-68624430D01*
X119592132Y-69850000D01*
X119167868Y-69850000D01*
X117942298Y-68624430D01*
X117646569Y-68775998D01*
X117367515Y-69521107D01*
X116289878Y-69521107D01*
X116285155Y-69383713D01*
X116033431Y-68775998D01*
X115737702Y-68624430D01*
X114512132Y-69850000D01*
X114087868Y-69850000D01*
X114073726Y-69835858D01*
X114285858Y-69623726D01*
X114300000Y-69637868D01*
X115525570Y-68412298D01*
X118154430Y-68412298D01*
X119380000Y-69637868D01*
X120605570Y-68412298D01*
X120454002Y-68116569D01*
X119708893Y-67837515D01*
X118913713Y-67864845D01*
X118305998Y-68116569D01*
X118154430Y-68412298D01*
X115525570Y-68412298D01*
X115374002Y-68116569D01*
X114628893Y-67837515D01*
X113833713Y-67864845D01*
X113225998Y-68116569D01*
X113074431Y-68412296D01*
X112999999Y-68337864D01*
X112999999Y-65505000D01*
X124418578Y-65505000D01*
X125630000Y-66716422D01*
X125630000Y-73025000D01*
X125637612Y-73063268D01*
X125659289Y-73095711D01*
X126929289Y-74365711D01*
X126961732Y-74387388D01*
X127000000Y-74395000D01*
X149860000Y-74395000D01*
X149898268Y-74387388D01*
X149930711Y-74365711D01*
X151200711Y-73095711D01*
X151222388Y-73063268D01*
X151230000Y-73025000D01*
X151230000Y-64176422D01*
X152441422Y-62965000D01*
X164846888Y-62965000D01*
X164927970Y-63161235D01*
X165405770Y-63639870D01*
X166030366Y-63899224D01*
X166706667Y-63899814D01*
X167331715Y-63641550D01*
X167810350Y-63163750D01*
X167892878Y-62965000D01*
X172720000Y-62965000D01*
X172758268Y-62957388D01*
X172790711Y-62935711D01*
X174060711Y-61665711D01*
X174082388Y-61633268D01*
X174090000Y-61595000D01*
X174090000Y-56848843D01*
X184468311Y-56848843D01*
X184635423Y-57253285D01*
X184944588Y-57562990D01*
X185348738Y-57730807D01*
X185786345Y-57731189D01*
X186190787Y-57564077D01*
X186500492Y-57254912D01*
X186668309Y-56850762D01*
X186668691Y-56413155D01*
X186568501Y-56170677D01*
X186568501Y-54317647D01*
X189519793Y-54317647D01*
X189702097Y-54758857D01*
X190039367Y-55096717D01*
X190480258Y-55279791D01*
X190957647Y-55280207D01*
X191398857Y-55097903D01*
X191736717Y-54760633D01*
X191919791Y-54319742D01*
X191919792Y-54317647D01*
X192059793Y-54317647D01*
X192242097Y-54758857D01*
X192579367Y-55096717D01*
X193020258Y-55279791D01*
X193497647Y-55280207D01*
X193938857Y-55097903D01*
X194276717Y-54760633D01*
X194459791Y-54319742D01*
X194460207Y-53842353D01*
X194277903Y-53401143D01*
X193940633Y-53063283D01*
X193499742Y-52880209D01*
X193022353Y-52879793D01*
X192581143Y-53062097D01*
X192243283Y-53399367D01*
X192060209Y-53840258D01*
X192059793Y-54317647D01*
X191919792Y-54317647D01*
X191920207Y-53842353D01*
X191737903Y-53401143D01*
X191400633Y-53063283D01*
X190959742Y-52880209D01*
X190482353Y-52879793D01*
X190041143Y-53062097D01*
X189703283Y-53399367D01*
X189520209Y-53840258D01*
X189519793Y-54317647D01*
X186568501Y-54317647D01*
X186568501Y-51777647D01*
X189519793Y-51777647D01*
X189702097Y-52218857D01*
X190039367Y-52556717D01*
X190480258Y-52739791D01*
X190957647Y-52740207D01*
X191398857Y-52557903D01*
X191736717Y-52220633D01*
X191919791Y-51779742D01*
X191920207Y-51302353D01*
X191737903Y-50861143D01*
X191400633Y-50523283D01*
X190959742Y-50340209D01*
X190482353Y-50339793D01*
X190041143Y-50522097D01*
X189703283Y-50859367D01*
X189520209Y-51300258D01*
X189519793Y-51777647D01*
X186568501Y-51777647D01*
X186568501Y-49237647D01*
X189519793Y-49237647D01*
X189702097Y-49678857D01*
X190039367Y-50016717D01*
X190480258Y-50199791D01*
X190957647Y-50200207D01*
X191398857Y-50017903D01*
X191736717Y-49680633D01*
X191919791Y-49239742D01*
X191920207Y-48762353D01*
X191737903Y-48321143D01*
X191400633Y-47983283D01*
X190959742Y-47800209D01*
X190482353Y-47799793D01*
X190041143Y-47982097D01*
X189703283Y-48319367D01*
X189520209Y-48760258D01*
X189519793Y-49237647D01*
X186568501Y-49237647D01*
X186568501Y-46697647D01*
X189519793Y-46697647D01*
X189702097Y-47138857D01*
X190039367Y-47476717D01*
X190480258Y-47659791D01*
X190957647Y-47660207D01*
X191398857Y-47477903D01*
X191736717Y-47140633D01*
X191919791Y-46699742D01*
X191919792Y-46697647D01*
X192059793Y-46697647D01*
X192242097Y-47138857D01*
X192579367Y-47476717D01*
X193020258Y-47659791D01*
X193497647Y-47660207D01*
X193938857Y-47477903D01*
X194276717Y-47140633D01*
X194459791Y-46699742D01*
X194460207Y-46222353D01*
X194277903Y-45781143D01*
X193940633Y-45443283D01*
X193741209Y-45360475D01*
X194033264Y-45239502D01*
X194123524Y-44995656D01*
X193260000Y-44132132D01*
X192396476Y-44995656D01*
X192486736Y-45239502D01*
X192804680Y-45349733D01*
X192581143Y-45442097D01*
X192243283Y-45779367D01*
X192060209Y-46220258D01*
X192059793Y-46697647D01*
X191919792Y-46697647D01*
X191920207Y-46222353D01*
X191737903Y-45781143D01*
X191400633Y-45443283D01*
X190959742Y-45260209D01*
X190482353Y-45259793D01*
X190041143Y-45442097D01*
X189703283Y-45779367D01*
X189520209Y-46220258D01*
X189519793Y-46697647D01*
X186568501Y-46697647D01*
X186568501Y-45045713D01*
X189234214Y-42380000D01*
X189330096Y-42380000D01*
X189349011Y-42475090D01*
X189459520Y-42640480D01*
X189624910Y-42750989D01*
X189820000Y-42789795D01*
X190312935Y-42789795D01*
X190041143Y-42902097D01*
X189703283Y-43239367D01*
X189520209Y-43680258D01*
X189519793Y-44157647D01*
X189702097Y-44598857D01*
X190039367Y-44936717D01*
X190480258Y-45119791D01*
X190957647Y-45120207D01*
X191398857Y-44937903D01*
X191736717Y-44600633D01*
X191819525Y-44401209D01*
X191940498Y-44693264D01*
X192184344Y-44783524D01*
X193047868Y-43920000D01*
X193472132Y-43920000D01*
X194335656Y-44783524D01*
X194579502Y-44693264D01*
X194774976Y-44129451D01*
X194739809Y-43533751D01*
X194579502Y-43146736D01*
X194335656Y-43056476D01*
X193472132Y-43920000D01*
X193047868Y-43920000D01*
X192184344Y-43056476D01*
X191940498Y-43146736D01*
X191830267Y-43464680D01*
X191737903Y-43241143D01*
X191400633Y-42903283D01*
X191127324Y-42789795D01*
X191620000Y-42789795D01*
X191815090Y-42750989D01*
X191980480Y-42640480D01*
X192090989Y-42475090D01*
X192094854Y-42455656D01*
X192396476Y-42455656D01*
X192468413Y-42650000D01*
X192396476Y-42844344D01*
X193260000Y-43707868D01*
X194123524Y-42844344D01*
X194051587Y-42650000D01*
X194123524Y-42455656D01*
X193260000Y-41592132D01*
X192396476Y-42455656D01*
X192094854Y-42455656D01*
X192129795Y-42280000D01*
X192129795Y-42223333D01*
X192184344Y-42243524D01*
X193047868Y-41380000D01*
X193472132Y-41380000D01*
X194335656Y-42243524D01*
X194579502Y-42153264D01*
X194774976Y-41589451D01*
X194739809Y-40993751D01*
X194579502Y-40606736D01*
X194335656Y-40516476D01*
X193472132Y-41380000D01*
X193047868Y-41380000D01*
X192184344Y-40516476D01*
X192129795Y-40536667D01*
X192129795Y-40480000D01*
X192094855Y-40304344D01*
X192396476Y-40304344D01*
X193260000Y-41167868D01*
X194123524Y-40304344D01*
X194033264Y-40060498D01*
X193469451Y-39865024D01*
X192873751Y-39900191D01*
X192486736Y-40060498D01*
X192396476Y-40304344D01*
X192094855Y-40304344D01*
X192090989Y-40284910D01*
X191980480Y-40119520D01*
X191815090Y-40009011D01*
X191620000Y-39970205D01*
X189820000Y-39970205D01*
X189624910Y-40009011D01*
X189459520Y-40119520D01*
X189349011Y-40284910D01*
X189330096Y-40380000D01*
X188820000Y-40380000D01*
X188437316Y-40456120D01*
X188112893Y-40672893D01*
X184861394Y-43924392D01*
X184644621Y-44248815D01*
X184617508Y-44385122D01*
X184568501Y-44631499D01*
X184568501Y-56170871D01*
X184468693Y-56411236D01*
X184468311Y-56848843D01*
X174090000Y-56848843D01*
X174090000Y-39411422D01*
X175301422Y-38200000D01*
X185269114Y-38200000D01*
X185460602Y-38279513D01*
X185460602Y-38279513D01*
G37*
X185460602Y-38279513D02*
X186574511Y-38280485D01*
X186769299Y-38200000D01*
X191366232Y-38200000D01*
X191630387Y-38309687D01*
X192346471Y-38310312D01*
X192613446Y-38200000D01*
X194268578Y-38200000D01*
X195480000Y-39411422D01*
X195480000Y-50618959D01*
X194354456Y-49493416D01*
X194459791Y-49239742D01*
X194460207Y-48762353D01*
X194277903Y-48321143D01*
X193940633Y-47983283D01*
X193499742Y-47800209D01*
X193022353Y-47799793D01*
X192581143Y-47982097D01*
X192243283Y-48319367D01*
X192060209Y-48760258D01*
X192059793Y-49237647D01*
X192242097Y-49678857D01*
X192579367Y-50016717D01*
X193020258Y-50199791D01*
X193497647Y-50200207D01*
X193753465Y-50094505D01*
X194970011Y-51311052D01*
X194970011Y-52648971D01*
X194354456Y-52033416D01*
X194459791Y-51779742D01*
X194460207Y-51302353D01*
X194277903Y-50861143D01*
X193940633Y-50523283D01*
X193499742Y-50340209D01*
X193022353Y-50339793D01*
X192581143Y-50522097D01*
X192243283Y-50859367D01*
X192060209Y-51300258D01*
X192059793Y-51777647D01*
X192242097Y-52218857D01*
X192579367Y-52556717D01*
X193020258Y-52739791D01*
X193497647Y-52740207D01*
X193753465Y-52634505D01*
X194520000Y-53401040D01*
X194520000Y-72213959D01*
X194335932Y-72398027D01*
X194459791Y-72099742D01*
X194460207Y-71622353D01*
X194277903Y-71181143D01*
X193940633Y-70843283D01*
X193499742Y-70660209D01*
X193022353Y-70659793D01*
X192581143Y-70842097D01*
X192243283Y-71179367D01*
X192060209Y-71620258D01*
X192059793Y-72097647D01*
X192242097Y-72538857D01*
X192429911Y-72727000D01*
X191550024Y-72727000D01*
X191736717Y-72540633D01*
X191919791Y-72099742D01*
X191920207Y-71622353D01*
X191737903Y-71181143D01*
X191485155Y-70927953D01*
X191608521Y-70845521D01*
X192245521Y-70208521D01*
X192328070Y-70084980D01*
X192579367Y-70336717D01*
X193020258Y-70519791D01*
X193497647Y-70520207D01*
X193938857Y-70337903D01*
X194276717Y-70000633D01*
X194459791Y-69559742D01*
X194460207Y-69082353D01*
X194277903Y-68641143D01*
X193940633Y-68303283D01*
X193499742Y-68120209D01*
X193022353Y-68119793D01*
X192581143Y-68302097D01*
X192370001Y-68512870D01*
X192370001Y-68271039D01*
X192766584Y-67874456D01*
X193020258Y-67979791D01*
X193497647Y-67980207D01*
X193938857Y-67797903D01*
X194276717Y-67460633D01*
X194459791Y-67019742D01*
X194460207Y-66542353D01*
X194277903Y-66101143D01*
X193940633Y-65763283D01*
X193499742Y-65580209D01*
X193022353Y-65579793D01*
X192581143Y-65762097D01*
X192370001Y-65972870D01*
X192370001Y-65046985D01*
X192579367Y-65256717D01*
X193020258Y-65439791D01*
X193497647Y-65440207D01*
X193938857Y-65257903D01*
X194276717Y-64920633D01*
X194459791Y-64479742D01*
X194460207Y-64002353D01*
X194277903Y-63561143D01*
X193940633Y-63223283D01*
X193499742Y-63040209D01*
X193022353Y-63039793D01*
X192581143Y-63222097D01*
X192370001Y-63432870D01*
X192370001Y-63191039D01*
X192766584Y-62794456D01*
X193020258Y-62899791D01*
X193497647Y-62900207D01*
X193938857Y-62717903D01*
X194276717Y-62380633D01*
X194459791Y-61939742D01*
X194460207Y-61462353D01*
X194277903Y-61021143D01*
X193940633Y-60683283D01*
X193499742Y-60500209D01*
X193022353Y-60499793D01*
X192581143Y-60682097D01*
X192243283Y-61019367D01*
X192098069Y-61369080D01*
X191907555Y-60908000D01*
X191514072Y-60513830D01*
X191051108Y-60321590D01*
X191398857Y-60177903D01*
X191736717Y-59840633D01*
X191919791Y-59399742D01*
X191920207Y-58922353D01*
X191737903Y-58481143D01*
X191616971Y-58359999D01*
X191858959Y-58359999D01*
X192165544Y-58666584D01*
X192060209Y-58920258D01*
X192059793Y-59397647D01*
X192242097Y-59838857D01*
X192579367Y-60176717D01*
X193020258Y-60359791D01*
X193497647Y-60360207D01*
X193938857Y-60177903D01*
X194276717Y-59840633D01*
X194459791Y-59399742D01*
X194460207Y-58922353D01*
X194277903Y-58481143D01*
X193940633Y-58143283D01*
X193499742Y-57960209D01*
X193022353Y-57959793D01*
X192766535Y-58065495D01*
X192335519Y-57634479D01*
X192197640Y-57542350D01*
X192170656Y-57536983D01*
X192034999Y-57509999D01*
X191526985Y-57509999D01*
X191736717Y-57300633D01*
X191919791Y-56859742D01*
X191919792Y-56857647D01*
X192059793Y-56857647D01*
X192242097Y-57298857D01*
X192579367Y-57636717D01*
X193020258Y-57819791D01*
X193497647Y-57820207D01*
X193938857Y-57637903D01*
X194276717Y-57300633D01*
X194459791Y-56859742D01*
X194460207Y-56382353D01*
X194277903Y-55941143D01*
X193940633Y-55603283D01*
X193499742Y-55420209D01*
X193022353Y-55419793D01*
X192581143Y-55602097D01*
X192243283Y-55939367D01*
X192060209Y-56380258D01*
X192059793Y-56857647D01*
X191919792Y-56857647D01*
X191920207Y-56382353D01*
X191737903Y-55941143D01*
X191400633Y-55603283D01*
X190959742Y-55420209D01*
X190482353Y-55419793D01*
X190041143Y-55602097D01*
X189703283Y-55939367D01*
X189520209Y-56380258D01*
X189519793Y-56857647D01*
X189702097Y-57298857D01*
X189921010Y-57518153D01*
X189799363Y-57542350D01*
X189753611Y-57572921D01*
X189661482Y-57634479D01*
X188167480Y-59128482D01*
X188075351Y-59266361D01*
X188075351Y-59266362D01*
X188043000Y-59429002D01*
X188043000Y-68149959D01*
X175975480Y-80217480D01*
X175883351Y-80355359D01*
X175883351Y-80355360D01*
X175851000Y-80518000D01*
X175851000Y-105310000D01*
X147955000Y-105310000D01*
X147916732Y-105317612D01*
X147884289Y-105339289D01*
X146614289Y-106609289D01*
X146592612Y-106641732D01*
X146585000Y-106680000D01*
X146585000Y-116163578D01*
X145373578Y-117375000D01*
X144011040Y-117375000D01*
X143810520Y-117174480D01*
X143672641Y-117082351D01*
X143645657Y-117076984D01*
X143510000Y-117050000D01*
X139876040Y-117050000D01*
X139659733Y-116833693D01*
X139659733Y-115112815D01*
X139827818Y-114945023D01*
X139934611Y-114687837D01*
X139934854Y-114409359D01*
X139828510Y-114151987D01*
X139651105Y-113974272D01*
X139667451Y-113957954D01*
X139774244Y-113700768D01*
X139774487Y-113422290D01*
X139668143Y-113164918D01*
X139471402Y-112967833D01*
X139214216Y-112861040D01*
X138935738Y-112860797D01*
X138678366Y-112967141D01*
X138481281Y-113163882D01*
X138374488Y-113421068D01*
X138374280Y-113659964D01*
X138373849Y-113660395D01*
X138373846Y-113660397D01*
X136859480Y-115174764D01*
X136767351Y-115312643D01*
X136767351Y-115312644D01*
X136735000Y-115475284D01*
X136735000Y-117375000D01*
X123759165Y-117375000D01*
X120381825Y-113997660D01*
X121110098Y-113997660D01*
X121216442Y-114255032D01*
X121413183Y-114452117D01*
X121670369Y-114558910D01*
X121948847Y-114559153D01*
X122206219Y-114452809D01*
X122403304Y-114256068D01*
X122457676Y-114125126D01*
X122597035Y-114182993D01*
X122875513Y-114183236D01*
X123132885Y-114076892D01*
X123329970Y-113880151D01*
X123436763Y-113622965D01*
X123436891Y-113475994D01*
X123582628Y-113476121D01*
X123840000Y-113369777D01*
X124037085Y-113173036D01*
X124143878Y-112915850D01*
X124144121Y-112637372D01*
X124037777Y-112380000D01*
X123869000Y-112210928D01*
X123869000Y-112210315D01*
X123836649Y-112047675D01*
X123836649Y-112047674D01*
X123744520Y-111909795D01*
X123659999Y-111825274D01*
X123659999Y-111695877D01*
X125360000Y-111695877D01*
X125477054Y-111672593D01*
X125576288Y-111606288D01*
X125642593Y-111507054D01*
X125665877Y-111390000D01*
X125665877Y-110727647D01*
X125799793Y-110727647D01*
X125982097Y-111168857D01*
X126319367Y-111506717D01*
X126760258Y-111689791D01*
X127237647Y-111690207D01*
X127678857Y-111507903D01*
X128016717Y-111170633D01*
X128199791Y-110729742D01*
X128199792Y-110727647D01*
X128339793Y-110727647D01*
X128522097Y-111168857D01*
X128859367Y-111506717D01*
X129300258Y-111689791D01*
X129777647Y-111690207D01*
X130218857Y-111507903D01*
X130556717Y-111170633D01*
X130739791Y-110729742D01*
X130740207Y-110252353D01*
X130557903Y-109811143D01*
X130220633Y-109473283D01*
X129779742Y-109290209D01*
X129302353Y-109289793D01*
X128861143Y-109472097D01*
X128523283Y-109809367D01*
X128340209Y-110250258D01*
X128339793Y-110727647D01*
X128199792Y-110727647D01*
X128200207Y-110252353D01*
X128017903Y-109811143D01*
X127680633Y-109473283D01*
X127239742Y-109290209D01*
X126762353Y-109289793D01*
X126321143Y-109472097D01*
X125983283Y-109809367D01*
X125800209Y-110250258D01*
X125799793Y-110727647D01*
X125665877Y-110727647D01*
X125665877Y-109590000D01*
X125642593Y-109472946D01*
X125576288Y-109373712D01*
X125477054Y-109307407D01*
X125360000Y-109284123D01*
X123659999Y-109284123D01*
X123659999Y-108589041D01*
X124760520Y-107488520D01*
X124852649Y-107350641D01*
X124858016Y-107323657D01*
X124885000Y-107188000D01*
X124885000Y-106615877D01*
X125360000Y-106615877D01*
X125477054Y-106592593D01*
X125576288Y-106526288D01*
X125642593Y-106427054D01*
X125665877Y-106310000D01*
X125665877Y-105647647D01*
X125799793Y-105647647D01*
X125982097Y-106088857D01*
X126319367Y-106426717D01*
X126760258Y-106609791D01*
X127237647Y-106610207D01*
X127678857Y-106427903D01*
X128016717Y-106090633D01*
X128199791Y-105649742D01*
X128199792Y-105647647D01*
X128339793Y-105647647D01*
X128522097Y-106088857D01*
X128859367Y-106426717D01*
X129300258Y-106609791D01*
X129777647Y-106610207D01*
X130218857Y-106427903D01*
X130556717Y-106090633D01*
X130739791Y-105649742D01*
X130740207Y-105172353D01*
X130557903Y-104731143D01*
X130220633Y-104393283D01*
X129779742Y-104210209D01*
X129302353Y-104209793D01*
X128861143Y-104392097D01*
X128523283Y-104729367D01*
X128340209Y-105170258D01*
X128339793Y-105647647D01*
X128199792Y-105647647D01*
X128200207Y-105172353D01*
X128017903Y-104731143D01*
X127680633Y-104393283D01*
X127239742Y-104210209D01*
X126762353Y-104209793D01*
X126321143Y-104392097D01*
X125983283Y-104729367D01*
X125800209Y-105170258D01*
X125799793Y-105647647D01*
X125665877Y-105647647D01*
X125665877Y-104510000D01*
X125642593Y-104392946D01*
X125576288Y-104293712D01*
X125477054Y-104227407D01*
X125360000Y-104204123D01*
X123560000Y-104204123D01*
X123442946Y-104227407D01*
X123361000Y-104282161D01*
X123361000Y-103180040D01*
X124760520Y-101780521D01*
X124852648Y-101642641D01*
X124852649Y-101642640D01*
X124873885Y-101535877D01*
X125360000Y-101535877D01*
X125477054Y-101512593D01*
X125576288Y-101446288D01*
X125642593Y-101347054D01*
X125665877Y-101230000D01*
X125665877Y-100567647D01*
X125799793Y-100567647D01*
X125982097Y-101008857D01*
X126319367Y-101346717D01*
X126760258Y-101529791D01*
X127237647Y-101530207D01*
X127678857Y-101347903D01*
X128016717Y-101010633D01*
X128199791Y-100569742D01*
X128199792Y-100567647D01*
X128339793Y-100567647D01*
X128522097Y-101008857D01*
X128859367Y-101346717D01*
X129300258Y-101529791D01*
X129777647Y-101530207D01*
X130218857Y-101347903D01*
X130556717Y-101010633D01*
X130739791Y-100569742D01*
X130740207Y-100092353D01*
X130557903Y-99651143D01*
X130220633Y-99313283D01*
X129779742Y-99130209D01*
X129302353Y-99129793D01*
X128861143Y-99312097D01*
X128523283Y-99649367D01*
X128340209Y-100090258D01*
X128339793Y-100567647D01*
X128199792Y-100567647D01*
X128200207Y-100092353D01*
X128017903Y-99651143D01*
X127680633Y-99313283D01*
X127239742Y-99130209D01*
X126762353Y-99129793D01*
X126321143Y-99312097D01*
X125983283Y-99649367D01*
X125800209Y-100090258D01*
X125799793Y-100567647D01*
X125665877Y-100567647D01*
X125665877Y-99430000D01*
X125642593Y-99312946D01*
X125576288Y-99213712D01*
X125477054Y-99147407D01*
X125360000Y-99124123D01*
X123560000Y-99124123D01*
X123442946Y-99147407D01*
X123343712Y-99213712D01*
X123277407Y-99312946D01*
X123254123Y-99430000D01*
X123254123Y-101230000D01*
X123277407Y-101347054D01*
X123343712Y-101446288D01*
X123442946Y-101512593D01*
X123560000Y-101535877D01*
X123803082Y-101535877D01*
X122853000Y-102485960D01*
X122853000Y-98608040D01*
X124760520Y-96700520D01*
X124852649Y-96562641D01*
X124873885Y-96455877D01*
X125360000Y-96455877D01*
X125477054Y-96432593D01*
X125576288Y-96366288D01*
X125642593Y-96267054D01*
X125665877Y-96150000D01*
X125665877Y-95487647D01*
X125799793Y-95487647D01*
X125982097Y-95928857D01*
X126319367Y-96266717D01*
X126760258Y-96449791D01*
X127237647Y-96450207D01*
X127678857Y-96267903D01*
X128016717Y-95930633D01*
X128199791Y-95489742D01*
X128199792Y-95487647D01*
X128339793Y-95487647D01*
X128522097Y-95928857D01*
X128859367Y-96266717D01*
X129300258Y-96449791D01*
X129777647Y-96450207D01*
X130218857Y-96267903D01*
X130556717Y-95930633D01*
X130739791Y-95489742D01*
X130740207Y-95012353D01*
X130679930Y-94866471D01*
X141189688Y-94866471D01*
X141463145Y-95528286D01*
X141969051Y-96035076D01*
X142630387Y-96309687D01*
X143346471Y-96310312D01*
X144008286Y-96036855D01*
X144515076Y-95530949D01*
X144789687Y-94869613D01*
X144790312Y-94153529D01*
X144516855Y-93491714D01*
X144010949Y-92984924D01*
X143349613Y-92710313D01*
X142633529Y-92709688D01*
X141971714Y-92983145D01*
X141464924Y-93489051D01*
X141190313Y-94150387D01*
X141189688Y-94866471D01*
X130679930Y-94866471D01*
X130557903Y-94571143D01*
X130220633Y-94233283D01*
X129779742Y-94050209D01*
X129302353Y-94049793D01*
X128861143Y-94232097D01*
X128523283Y-94569367D01*
X128340209Y-95010258D01*
X128339793Y-95487647D01*
X128199792Y-95487647D01*
X128200207Y-95012353D01*
X128017903Y-94571143D01*
X127680633Y-94233283D01*
X127239742Y-94050209D01*
X126762353Y-94049793D01*
X126321143Y-94232097D01*
X125983283Y-94569367D01*
X125800209Y-95010258D01*
X125799793Y-95487647D01*
X125665877Y-95487647D01*
X125665877Y-94350000D01*
X125642593Y-94232946D01*
X125576288Y-94133712D01*
X125477054Y-94067407D01*
X125360000Y-94044123D01*
X123560000Y-94044123D01*
X123442946Y-94067407D01*
X123343712Y-94133712D01*
X123277407Y-94232946D01*
X123254123Y-94350000D01*
X123254123Y-96150000D01*
X123277407Y-96267054D01*
X123343712Y-96366288D01*
X123442946Y-96432593D01*
X123560000Y-96455877D01*
X123803083Y-96455877D01*
X122127480Y-98131480D01*
X122035351Y-98269359D01*
X122035351Y-98269360D01*
X122003000Y-98432000D01*
X122003000Y-107786759D01*
X121942328Y-107877560D01*
X121942328Y-107877561D01*
X121909977Y-108040201D01*
X121909977Y-111491568D01*
X121509699Y-111891846D01*
X121417570Y-112029725D01*
X121417570Y-112029726D01*
X121385219Y-112192366D01*
X121385219Y-113294204D01*
X121217134Y-113461996D01*
X121110341Y-113719182D01*
X121110098Y-113997660D01*
X120381825Y-113997660D01*
X119745000Y-113360835D01*
X119745000Y-92710000D01*
X119668880Y-92327317D01*
X119668880Y-92327316D01*
X119452107Y-92002893D01*
X115670000Y-88220786D01*
X115670000Y-85460000D01*
X123254123Y-85460000D01*
X123254123Y-87260000D01*
X123277407Y-87377054D01*
X123343712Y-87476288D01*
X123442946Y-87542593D01*
X123560000Y-87565877D01*
X125360000Y-87565877D01*
X125477054Y-87542593D01*
X125576288Y-87476288D01*
X125642593Y-87377054D01*
X125665877Y-87260000D01*
X125665877Y-86597647D01*
X125799793Y-86597647D01*
X125982097Y-87038857D01*
X126319367Y-87376717D01*
X126760258Y-87559791D01*
X127237647Y-87560207D01*
X127678857Y-87377903D01*
X128016717Y-87040633D01*
X128199791Y-86599742D01*
X128200207Y-86122353D01*
X128017903Y-85681143D01*
X127680633Y-85343283D01*
X127239742Y-85160209D01*
X126762353Y-85159793D01*
X126321143Y-85342097D01*
X125983283Y-85679367D01*
X125800209Y-86120258D01*
X125799793Y-86597647D01*
X125665877Y-86597647D01*
X125665877Y-85460000D01*
X125642593Y-85342946D01*
X125576288Y-85243712D01*
X125477054Y-85177407D01*
X125360000Y-85154123D01*
X123560000Y-85154123D01*
X123442946Y-85177407D01*
X123343712Y-85243712D01*
X123277407Y-85342946D01*
X123254123Y-85460000D01*
X115670000Y-85460000D01*
X115670000Y-83036527D01*
X164669706Y-83036527D01*
X164927970Y-83661575D01*
X165405770Y-84140210D01*
X166030366Y-84399564D01*
X166706667Y-84400154D01*
X167331715Y-84141890D01*
X167810350Y-83664090D01*
X168069704Y-83039494D01*
X168070294Y-82363193D01*
X167812030Y-81738145D01*
X167334230Y-81259510D01*
X166709634Y-81000156D01*
X166033333Y-80999566D01*
X165408285Y-81257830D01*
X164929650Y-81735630D01*
X164670296Y-82360226D01*
X164669706Y-83036527D01*
X115670000Y-83036527D01*
X115670000Y-80380000D01*
X123254123Y-80380000D01*
X123254123Y-82180000D01*
X123277407Y-82297054D01*
X123343712Y-82396288D01*
X123442946Y-82462593D01*
X123560000Y-82485877D01*
X125360000Y-82485877D01*
X125477054Y-82462593D01*
X125576288Y-82396288D01*
X125642593Y-82297054D01*
X125665877Y-82180000D01*
X125665877Y-81517647D01*
X125799793Y-81517647D01*
X125982097Y-81958857D01*
X126319367Y-82296717D01*
X126760258Y-82479791D01*
X127237647Y-82480207D01*
X127678857Y-82297903D01*
X128016717Y-81960633D01*
X128199791Y-81519742D01*
X128200207Y-81042353D01*
X128017903Y-80601143D01*
X127680633Y-80263283D01*
X127239742Y-80080209D01*
X126762353Y-80079793D01*
X126321143Y-80262097D01*
X125983283Y-80599367D01*
X125800209Y-81040258D01*
X125799793Y-81517647D01*
X125665877Y-81517647D01*
X125665877Y-80380000D01*
X125642593Y-80262946D01*
X125576288Y-80163712D01*
X125477054Y-80097407D01*
X125360000Y-80074123D01*
X123560000Y-80074123D01*
X123442946Y-80097407D01*
X123343712Y-80163712D01*
X123277407Y-80262946D01*
X123254123Y-80380000D01*
X115670000Y-80380000D01*
X115670000Y-75565000D01*
X115662388Y-75526732D01*
X115640711Y-75494289D01*
X114370711Y-74224289D01*
X114338268Y-74202612D01*
X114300000Y-74195000D01*
X112999999Y-74195000D01*
X112999999Y-71362136D01*
X113074431Y-71287704D01*
X113225998Y-71583431D01*
X113971107Y-71862485D01*
X114766287Y-71835155D01*
X115374002Y-71583431D01*
X115525570Y-71287702D01*
X118154430Y-71287702D01*
X118305998Y-71583431D01*
X119051107Y-71862485D01*
X119846287Y-71835155D01*
X120454002Y-71583431D01*
X120605570Y-71287702D01*
X119380000Y-70062132D01*
X118154430Y-71287702D01*
X115525570Y-71287702D01*
X114300000Y-70062132D01*
X114285858Y-70076275D01*
X114073726Y-69864143D01*
X114087868Y-69850000D01*
X114512132Y-69850000D01*
X115737702Y-71075570D01*
X116033431Y-70924002D01*
X116312485Y-70178893D01*
X116289878Y-69521107D01*
X117367515Y-69521107D01*
X117394845Y-70316287D01*
X117646569Y-70924002D01*
X117942298Y-71075570D01*
X119167868Y-69850000D01*
X119592132Y-69850000D01*
X120817702Y-71075570D01*
X121113431Y-70924002D01*
X121392485Y-70178893D01*
X121365155Y-69383713D01*
X121113431Y-68775998D01*
X120817702Y-68624430D01*
X119592132Y-69850000D01*
X119167868Y-69850000D01*
X117942298Y-68624430D01*
X117646569Y-68775998D01*
X117367515Y-69521107D01*
X116289878Y-69521107D01*
X116285155Y-69383713D01*
X116033431Y-68775998D01*
X115737702Y-68624430D01*
X114512132Y-69850000D01*
X114087868Y-69850000D01*
X114073726Y-69835858D01*
X114285858Y-69623726D01*
X114300000Y-69637868D01*
X115525570Y-68412298D01*
X118154430Y-68412298D01*
X119380000Y-69637868D01*
X120605570Y-68412298D01*
X120454002Y-68116569D01*
X119708893Y-67837515D01*
X118913713Y-67864845D01*
X118305998Y-68116569D01*
X118154430Y-68412298D01*
X115525570Y-68412298D01*
X115374002Y-68116569D01*
X114628893Y-67837515D01*
X113833713Y-67864845D01*
X113225998Y-68116569D01*
X113074431Y-68412296D01*
X112999999Y-68337864D01*
X112999999Y-65505000D01*
X124418578Y-65505000D01*
X125630000Y-66716422D01*
X125630000Y-73025000D01*
X125637612Y-73063268D01*
X125659289Y-73095711D01*
X126929289Y-74365711D01*
X126961732Y-74387388D01*
X127000000Y-74395000D01*
X149860000Y-74395000D01*
X149898268Y-74387388D01*
X149930711Y-74365711D01*
X151200711Y-73095711D01*
X151222388Y-73063268D01*
X151230000Y-73025000D01*
X151230000Y-64176422D01*
X152441422Y-62965000D01*
X164846888Y-62965000D01*
X164927970Y-63161235D01*
X165405770Y-63639870D01*
X166030366Y-63899224D01*
X166706667Y-63899814D01*
X167331715Y-63641550D01*
X167810350Y-63163750D01*
X167892878Y-62965000D01*
X172720000Y-62965000D01*
X172758268Y-62957388D01*
X172790711Y-62935711D01*
X174060711Y-61665711D01*
X174082388Y-61633268D01*
X174090000Y-61595000D01*
X174090000Y-56848843D01*
X184468311Y-56848843D01*
X184635423Y-57253285D01*
X184944588Y-57562990D01*
X185348738Y-57730807D01*
X185786345Y-57731189D01*
X186190787Y-57564077D01*
X186500492Y-57254912D01*
X186668309Y-56850762D01*
X186668691Y-56413155D01*
X186568501Y-56170677D01*
X186568501Y-54317647D01*
X189519793Y-54317647D01*
X189702097Y-54758857D01*
X190039367Y-55096717D01*
X190480258Y-55279791D01*
X190957647Y-55280207D01*
X191398857Y-55097903D01*
X191736717Y-54760633D01*
X191919791Y-54319742D01*
X191919792Y-54317647D01*
X192059793Y-54317647D01*
X192242097Y-54758857D01*
X192579367Y-55096717D01*
X193020258Y-55279791D01*
X193497647Y-55280207D01*
X193938857Y-55097903D01*
X194276717Y-54760633D01*
X194459791Y-54319742D01*
X194460207Y-53842353D01*
X194277903Y-53401143D01*
X193940633Y-53063283D01*
X193499742Y-52880209D01*
X193022353Y-52879793D01*
X192581143Y-53062097D01*
X192243283Y-53399367D01*
X192060209Y-53840258D01*
X192059793Y-54317647D01*
X191919792Y-54317647D01*
X191920207Y-53842353D01*
X191737903Y-53401143D01*
X191400633Y-53063283D01*
X190959742Y-52880209D01*
X190482353Y-52879793D01*
X190041143Y-53062097D01*
X189703283Y-53399367D01*
X189520209Y-53840258D01*
X189519793Y-54317647D01*
X186568501Y-54317647D01*
X186568501Y-51777647D01*
X189519793Y-51777647D01*
X189702097Y-52218857D01*
X190039367Y-52556717D01*
X190480258Y-52739791D01*
X190957647Y-52740207D01*
X191398857Y-52557903D01*
X191736717Y-52220633D01*
X191919791Y-51779742D01*
X191920207Y-51302353D01*
X191737903Y-50861143D01*
X191400633Y-50523283D01*
X190959742Y-50340209D01*
X190482353Y-50339793D01*
X190041143Y-50522097D01*
X189703283Y-50859367D01*
X189520209Y-51300258D01*
X189519793Y-51777647D01*
X186568501Y-51777647D01*
X186568501Y-49237647D01*
X189519793Y-49237647D01*
X189702097Y-49678857D01*
X190039367Y-50016717D01*
X190480258Y-50199791D01*
X190957647Y-50200207D01*
X191398857Y-50017903D01*
X191736717Y-49680633D01*
X191919791Y-49239742D01*
X191920207Y-48762353D01*
X191737903Y-48321143D01*
X191400633Y-47983283D01*
X190959742Y-47800209D01*
X190482353Y-47799793D01*
X190041143Y-47982097D01*
X189703283Y-48319367D01*
X189520209Y-48760258D01*
X189519793Y-49237647D01*
X186568501Y-49237647D01*
X186568501Y-46697647D01*
X189519793Y-46697647D01*
X189702097Y-47138857D01*
X190039367Y-47476717D01*
X190480258Y-47659791D01*
X190957647Y-47660207D01*
X191398857Y-47477903D01*
X191736717Y-47140633D01*
X191919791Y-46699742D01*
X191919792Y-46697647D01*
X192059793Y-46697647D01*
X192242097Y-47138857D01*
X192579367Y-47476717D01*
X193020258Y-47659791D01*
X193497647Y-47660207D01*
X193938857Y-47477903D01*
X194276717Y-47140633D01*
X194459791Y-46699742D01*
X194460207Y-46222353D01*
X194277903Y-45781143D01*
X193940633Y-45443283D01*
X193741209Y-45360475D01*
X194033264Y-45239502D01*
X194123524Y-44995656D01*
X193260000Y-44132132D01*
X192396476Y-44995656D01*
X192486736Y-45239502D01*
X192804680Y-45349733D01*
X192581143Y-45442097D01*
X192243283Y-45779367D01*
X192060209Y-46220258D01*
X192059793Y-46697647D01*
X191919792Y-46697647D01*
X191920207Y-46222353D01*
X191737903Y-45781143D01*
X191400633Y-45443283D01*
X190959742Y-45260209D01*
X190482353Y-45259793D01*
X190041143Y-45442097D01*
X189703283Y-45779367D01*
X189520209Y-46220258D01*
X189519793Y-46697647D01*
X186568501Y-46697647D01*
X186568501Y-45045713D01*
X189234214Y-42380000D01*
X189330096Y-42380000D01*
X189349011Y-42475090D01*
X189459520Y-42640480D01*
X189624910Y-42750989D01*
X189820000Y-42789795D01*
X190312935Y-42789795D01*
X190041143Y-42902097D01*
X189703283Y-43239367D01*
X189520209Y-43680258D01*
X189519793Y-44157647D01*
X189702097Y-44598857D01*
X190039367Y-44936717D01*
X190480258Y-45119791D01*
X190957647Y-45120207D01*
X191398857Y-44937903D01*
X191736717Y-44600633D01*
X191819525Y-44401209D01*
X191940498Y-44693264D01*
X192184344Y-44783524D01*
X193047868Y-43920000D01*
X193472132Y-43920000D01*
X194335656Y-44783524D01*
X194579502Y-44693264D01*
X194774976Y-44129451D01*
X194739809Y-43533751D01*
X194579502Y-43146736D01*
X194335656Y-43056476D01*
X193472132Y-43920000D01*
X193047868Y-43920000D01*
X192184344Y-43056476D01*
X191940498Y-43146736D01*
X191830267Y-43464680D01*
X191737903Y-43241143D01*
X191400633Y-42903283D01*
X191127324Y-42789795D01*
X191620000Y-42789795D01*
X191815090Y-42750989D01*
X191980480Y-42640480D01*
X192090989Y-42475090D01*
X192094854Y-42455656D01*
X192396476Y-42455656D01*
X192468413Y-42650000D01*
X192396476Y-42844344D01*
X193260000Y-43707868D01*
X194123524Y-42844344D01*
X194051587Y-42650000D01*
X194123524Y-42455656D01*
X193260000Y-41592132D01*
X192396476Y-42455656D01*
X192094854Y-42455656D01*
X192129795Y-42280000D01*
X192129795Y-42223333D01*
X192184344Y-42243524D01*
X193047868Y-41380000D01*
X193472132Y-41380000D01*
X194335656Y-42243524D01*
X194579502Y-42153264D01*
X194774976Y-41589451D01*
X194739809Y-40993751D01*
X194579502Y-40606736D01*
X194335656Y-40516476D01*
X193472132Y-41380000D01*
X193047868Y-41380000D01*
X192184344Y-40516476D01*
X192129795Y-40536667D01*
X192129795Y-40480000D01*
X192094855Y-40304344D01*
X192396476Y-40304344D01*
X193260000Y-41167868D01*
X194123524Y-40304344D01*
X194033264Y-40060498D01*
X193469451Y-39865024D01*
X192873751Y-39900191D01*
X192486736Y-40060498D01*
X192396476Y-40304344D01*
X192094855Y-40304344D01*
X192090989Y-40284910D01*
X191980480Y-40119520D01*
X191815090Y-40009011D01*
X191620000Y-39970205D01*
X189820000Y-39970205D01*
X189624910Y-40009011D01*
X189459520Y-40119520D01*
X189349011Y-40284910D01*
X189330096Y-40380000D01*
X188820000Y-40380000D01*
X188437316Y-40456120D01*
X188112893Y-40672893D01*
X184861394Y-43924392D01*
X184644621Y-44248815D01*
X184617508Y-44385122D01*
X184568501Y-44631499D01*
X184568501Y-56170871D01*
X184468693Y-56411236D01*
X184468311Y-56848843D01*
X174090000Y-56848843D01*
X174090000Y-39411422D01*
X175301422Y-38200000D01*
X185269114Y-38200000D01*
X185460602Y-38279513D01*
G36*
X173255000Y-34331422D02*
X173255000Y-60918578D01*
X172043578Y-62130000D01*
X168070061Y-62130000D01*
X168070294Y-61862853D01*
X167812030Y-61237805D01*
X167334230Y-60759170D01*
X166709634Y-60499816D01*
X166033333Y-60499226D01*
X165408285Y-60757490D01*
X164929650Y-61235290D01*
X164670296Y-61859886D01*
X164670060Y-62130000D01*
X151765000Y-62130000D01*
X151726732Y-62137612D01*
X151694289Y-62159289D01*
X150424289Y-63429289D01*
X150402612Y-63461732D01*
X150395000Y-63500000D01*
X150395000Y-72348578D01*
X149183578Y-73560000D01*
X127676422Y-73560000D01*
X126465000Y-72348578D01*
X126465000Y-70226275D01*
X127639671Y-70226275D01*
X127928319Y-70924857D01*
X128462331Y-71459802D01*
X129160409Y-71749669D01*
X129916275Y-71750329D01*
X130614857Y-71461681D01*
X131149802Y-70927669D01*
X131439669Y-70229591D01*
X131439671Y-70226275D01*
X132719671Y-70226275D01*
X133008319Y-70924857D01*
X133542331Y-71459802D01*
X134240409Y-71749669D01*
X134996275Y-71750329D01*
X135694857Y-71461681D01*
X136229802Y-70927669D01*
X136519669Y-70229591D01*
X136520329Y-69473725D01*
X136231681Y-68775143D01*
X135697669Y-68240198D01*
X134999591Y-67950331D01*
X134243725Y-67949671D01*
X133545143Y-68238319D01*
X133010198Y-68772331D01*
X132720331Y-69470409D01*
X132719671Y-70226275D01*
X131439671Y-70226275D01*
X131440329Y-69473725D01*
X131151681Y-68775143D01*
X130617669Y-68240198D01*
X129919591Y-67950331D01*
X129163725Y-67949671D01*
X128465143Y-68238319D01*
X127930198Y-68772331D01*
X127640331Y-69470409D01*
X127639671Y-70226275D01*
X126465000Y-70226275D01*
X126465000Y-65405000D01*
X126457388Y-65366732D01*
X126435711Y-65334289D01*
X125165711Y-64064289D01*
X125133268Y-64042612D01*
X125095000Y-64035000D01*
X112999999Y-64035000D01*
X112999999Y-61077082D01*
X113222331Y-61299802D01*
X113920409Y-61589669D01*
X114676275Y-61590329D01*
X115374857Y-61301681D01*
X115909802Y-60767669D01*
X116199669Y-60069591D01*
X116199671Y-60066275D01*
X117479671Y-60066275D01*
X117768319Y-60764857D01*
X118302331Y-61299802D01*
X119000409Y-61589669D01*
X119756275Y-61590329D01*
X120454857Y-61301681D01*
X120989802Y-60767669D01*
X121279669Y-60069591D01*
X121280329Y-59313725D01*
X120991681Y-58615143D01*
X120457669Y-58080198D01*
X119759591Y-57790331D01*
X119003725Y-57789671D01*
X118305143Y-58078319D01*
X117770198Y-58612331D01*
X117480331Y-59310409D01*
X117479671Y-60066275D01*
X116199671Y-60066275D01*
X116200329Y-59313725D01*
X115911681Y-58615143D01*
X115377669Y-58080198D01*
X114679591Y-57790331D01*
X113923725Y-57789671D01*
X113225143Y-58078319D01*
X112999999Y-58303070D01*
X112999999Y-56883095D01*
X127479037Y-56883095D01*
X127556977Y-57116588D01*
X128084474Y-57295320D01*
X128640216Y-57258583D01*
X128983023Y-57116588D01*
X129060963Y-56883095D01*
X128270000Y-56092132D01*
X127479037Y-56883095D01*
X112999999Y-56883095D01*
X112999999Y-55694474D01*
X126854680Y-55694474D01*
X126891417Y-56250216D01*
X127033412Y-56593023D01*
X127266905Y-56670963D01*
X128057868Y-55880000D01*
X128482132Y-55880000D01*
X129273095Y-56670963D01*
X129506588Y-56593023D01*
X129685320Y-56065526D01*
X129648583Y-55509784D01*
X129506588Y-55166977D01*
X129273095Y-55089037D01*
X128482132Y-55880000D01*
X128057868Y-55880000D01*
X127266905Y-55089037D01*
X127033412Y-55166977D01*
X126854680Y-55694474D01*
X112999999Y-55694474D01*
X112999999Y-54876905D01*
X127479037Y-54876905D01*
X128270000Y-55667868D01*
X128857868Y-55080000D01*
X132040205Y-55080000D01*
X132040205Y-56680000D01*
X132079011Y-56875090D01*
X132189520Y-57040480D01*
X132354910Y-57150989D01*
X132550000Y-57189795D01*
X134150000Y-57189795D01*
X134345090Y-57150989D01*
X134510480Y-57040480D01*
X134620989Y-56875090D01*
X134659795Y-56680000D01*
X134659795Y-55080000D01*
X134620989Y-54884910D01*
X134510480Y-54719520D01*
X134350000Y-54612292D01*
X134350000Y-50230000D01*
X134769701Y-50230000D01*
X134968040Y-50230173D01*
X135335714Y-50078253D01*
X135617264Y-49797194D01*
X135769826Y-49429785D01*
X135770173Y-49031960D01*
X135618253Y-48664286D01*
X135337194Y-48382736D01*
X134969785Y-48230174D01*
X134571960Y-48229827D01*
X134571541Y-48230000D01*
X133770005Y-48230000D01*
X133770000Y-48229999D01*
X133387316Y-48306120D01*
X133062893Y-48522893D01*
X132642893Y-48942893D01*
X132426120Y-49267316D01*
X132426120Y-49267317D01*
X132350000Y-49650000D01*
X132350000Y-54612292D01*
X132189520Y-54719520D01*
X132079011Y-54884910D01*
X132040205Y-55080000D01*
X128857868Y-55080000D01*
X129060963Y-54876905D01*
X128983023Y-54643412D01*
X128455526Y-54464680D01*
X127899784Y-54501417D01*
X127556977Y-54643412D01*
X127479037Y-54876905D01*
X112999999Y-54876905D01*
X112999999Y-53514215D01*
X113845606Y-52668608D01*
X113920409Y-52699669D01*
X114676275Y-52700329D01*
X115374857Y-52411681D01*
X115909802Y-51877669D01*
X116199669Y-51179591D01*
X116199671Y-51176275D01*
X117479671Y-51176275D01*
X117768319Y-51874857D01*
X118302331Y-52409802D01*
X119000409Y-52699669D01*
X119756275Y-52700329D01*
X120454857Y-52411681D01*
X120989802Y-51877669D01*
X121279669Y-51179591D01*
X121280329Y-50423725D01*
X120991681Y-49725143D01*
X120457669Y-49190198D01*
X119759591Y-48900331D01*
X119003725Y-48899671D01*
X118305143Y-49188319D01*
X117770198Y-49722331D01*
X117480331Y-50420409D01*
X117479671Y-51176275D01*
X116199671Y-51176275D01*
X116200329Y-50423725D01*
X115911681Y-49725143D01*
X115377669Y-49190198D01*
X114679591Y-48900331D01*
X113923725Y-48899671D01*
X113225143Y-49188319D01*
X112690198Y-49722331D01*
X112400331Y-50420409D01*
X112399671Y-51176275D01*
X112431786Y-51254000D01*
X111292892Y-52392894D01*
X111076119Y-52717317D01*
X111076119Y-52717318D01*
X110999999Y-53100001D01*
X110999999Y-64753579D01*
X110419289Y-65334289D01*
X110397612Y-65366732D01*
X110390000Y-65405000D01*
X110390000Y-73660000D01*
X110397612Y-73698268D01*
X110419289Y-73730711D01*
X110999999Y-74311421D01*
X110999999Y-85964999D01*
X111076119Y-86347683D01*
X111292892Y-86672106D01*
X114835000Y-90214214D01*
X114835000Y-115528578D01*
X113623578Y-116740000D01*
X97831422Y-116740000D01*
X96620000Y-115528578D01*
X96620000Y-110490000D01*
X100274531Y-110490000D01*
X100343039Y-110834415D01*
X100538135Y-111126396D01*
X100830116Y-111321492D01*
X101174531Y-111390000D01*
X102025469Y-111390000D01*
X102369884Y-111321492D01*
X102661865Y-111126396D01*
X102856961Y-110834415D01*
X102925469Y-110490000D01*
X105354531Y-110490000D01*
X105423039Y-110834415D01*
X105618135Y-111126396D01*
X105910116Y-111321492D01*
X106254531Y-111390000D01*
X107105469Y-111390000D01*
X107449884Y-111321492D01*
X107741865Y-111126396D01*
X107936961Y-110834415D01*
X108005469Y-110490000D01*
X107936961Y-110145585D01*
X107741865Y-109853604D01*
X107449884Y-109658508D01*
X107105469Y-109590000D01*
X106254531Y-109590000D01*
X105910116Y-109658508D01*
X105618135Y-109853604D01*
X105423039Y-110145585D01*
X105354531Y-110490000D01*
X102925469Y-110490000D01*
X102856961Y-110145585D01*
X102661865Y-109853604D01*
X102369884Y-109658508D01*
X102025469Y-109590000D01*
X101174531Y-109590000D01*
X100830116Y-109658508D01*
X100538135Y-109853604D01*
X100343039Y-110145585D01*
X100274531Y-110490000D01*
X96620000Y-110490000D01*
X96620000Y-108284402D01*
X100047535Y-108284402D01*
X100245406Y-108692462D01*
X100602198Y-109001253D01*
X101050000Y-109150000D01*
X101450000Y-109150000D01*
X101450000Y-108100000D01*
X101750000Y-108100000D01*
X101750000Y-109150000D01*
X102150000Y-109150000D01*
X102597802Y-109001253D01*
X102954594Y-108692462D01*
X103152465Y-108284402D01*
X105127535Y-108284402D01*
X105325406Y-108692462D01*
X105682198Y-109001253D01*
X106130000Y-109150000D01*
X106530000Y-109150000D01*
X106530000Y-108100000D01*
X106830000Y-108100000D01*
X106830000Y-109150000D01*
X107230000Y-109150000D01*
X107677802Y-109001253D01*
X108034594Y-108692462D01*
X108232465Y-108284402D01*
X108119230Y-108100000D01*
X106830000Y-108100000D01*
X106530000Y-108100000D01*
X105240770Y-108100000D01*
X105127535Y-108284402D01*
X103152465Y-108284402D01*
X103039230Y-108100000D01*
X101750000Y-108100000D01*
X101450000Y-108100000D01*
X100160770Y-108100000D01*
X100047535Y-108284402D01*
X96620000Y-108284402D01*
X96620000Y-107615598D01*
X100047535Y-107615598D01*
X100160770Y-107800000D01*
X101450000Y-107800000D01*
X101450000Y-106750000D01*
X101750000Y-106750000D01*
X101750000Y-107800000D01*
X103039230Y-107800000D01*
X103152465Y-107615598D01*
X105127535Y-107615598D01*
X105240770Y-107800000D01*
X106530000Y-107800000D01*
X106530000Y-106750000D01*
X106830000Y-106750000D01*
X106830000Y-107800000D01*
X108119230Y-107800000D01*
X108232465Y-107615598D01*
X108034594Y-107207538D01*
X107677802Y-106898747D01*
X107230000Y-106750000D01*
X106830000Y-106750000D01*
X106530000Y-106750000D01*
X106130000Y-106750000D01*
X105682198Y-106898747D01*
X105325406Y-107207538D01*
X105127535Y-107615598D01*
X103152465Y-107615598D01*
X102954594Y-107207538D01*
X102597802Y-106898747D01*
X102150000Y-106750000D01*
X101750000Y-106750000D01*
X101450000Y-106750000D01*
X101050000Y-106750000D01*
X100602198Y-106898747D01*
X100245406Y-107207538D01*
X100047535Y-107615598D01*
X96620000Y-107615598D01*
X96620000Y-105410000D01*
X100274531Y-105410000D01*
X100343039Y-105754415D01*
X100538135Y-106046396D01*
X100830116Y-106241492D01*
X101174531Y-106310000D01*
X102025469Y-106310000D01*
X102369884Y-106241492D01*
X102661865Y-106046396D01*
X102856961Y-105754415D01*
X102925469Y-105410000D01*
X105354531Y-105410000D01*
X105423039Y-105754415D01*
X105618135Y-106046396D01*
X105910116Y-106241492D01*
X106254531Y-106310000D01*
X107105469Y-106310000D01*
X107449884Y-106241492D01*
X107741865Y-106046396D01*
X107936961Y-105754415D01*
X108005469Y-105410000D01*
X107936961Y-105065585D01*
X107741865Y-104773604D01*
X107449884Y-104578508D01*
X107105469Y-104510000D01*
X106254531Y-104510000D01*
X105910116Y-104578508D01*
X105618135Y-104773604D01*
X105423039Y-105065585D01*
X105354531Y-105410000D01*
X102925469Y-105410000D01*
X102856961Y-105065585D01*
X102661865Y-104773604D01*
X102369884Y-104578508D01*
X102025469Y-104510000D01*
X101174531Y-104510000D01*
X100830116Y-104578508D01*
X100538135Y-104773604D01*
X100343039Y-105065585D01*
X100274531Y-105410000D01*
X96620000Y-105410000D01*
X96620000Y-103204402D01*
X100047535Y-103204402D01*
X100245406Y-103612462D01*
X100602198Y-103921253D01*
X101050000Y-104070000D01*
X101450000Y-104070000D01*
X101450000Y-103020000D01*
X101750000Y-103020000D01*
X101750000Y-104070000D01*
X102150000Y-104070000D01*
X102597802Y-103921253D01*
X102954594Y-103612462D01*
X103152465Y-103204402D01*
X105127535Y-103204402D01*
X105325406Y-103612462D01*
X105682198Y-103921253D01*
X106130000Y-104070000D01*
X106530000Y-104070000D01*
X106530000Y-103020000D01*
X106830000Y-103020000D01*
X106830000Y-104070000D01*
X107230000Y-104070000D01*
X107677802Y-103921253D01*
X108034594Y-103612462D01*
X108232465Y-103204402D01*
X108119230Y-103020000D01*
X106830000Y-103020000D01*
X106530000Y-103020000D01*
X105240770Y-103020000D01*
X105127535Y-103204402D01*
X103152465Y-103204402D01*
X103039230Y-103020000D01*
X101750000Y-103020000D01*
X101450000Y-103020000D01*
X100160770Y-103020000D01*
X100047535Y-103204402D01*
X96620000Y-103204402D01*
X96620000Y-102535598D01*
X100047535Y-102535598D01*
X100160770Y-102720000D01*
X101450000Y-102720000D01*
X101450000Y-101670000D01*
X101750000Y-101670000D01*
X101750000Y-102720000D01*
X103039230Y-102720000D01*
X103152465Y-102535598D01*
X105127535Y-102535598D01*
X105240770Y-102720000D01*
X106530000Y-102720000D01*
X106530000Y-101670000D01*
X106830000Y-101670000D01*
X106830000Y-102720000D01*
X108119230Y-102720000D01*
X108232465Y-102535598D01*
X108034594Y-102127538D01*
X107677802Y-101818747D01*
X107230000Y-101670000D01*
X106830000Y-101670000D01*
X106530000Y-101670000D01*
X106130000Y-101670000D01*
X105682198Y-101818747D01*
X105325406Y-102127538D01*
X105127535Y-102535598D01*
X103152465Y-102535598D01*
X102954594Y-102127538D01*
X102597802Y-101818747D01*
X102150000Y-101670000D01*
X101750000Y-101670000D01*
X101450000Y-101670000D01*
X101050000Y-101670000D01*
X100602198Y-101818747D01*
X100245406Y-102127538D01*
X100047535Y-102535598D01*
X96620000Y-102535598D01*
X96620000Y-100330000D01*
X100274531Y-100330000D01*
X100343039Y-100674415D01*
X100538135Y-100966396D01*
X100830116Y-101161492D01*
X101174531Y-101230000D01*
X102025469Y-101230000D01*
X102369884Y-101161492D01*
X102661865Y-100966396D01*
X102856961Y-100674415D01*
X102925469Y-100330000D01*
X105354531Y-100330000D01*
X105423039Y-100674415D01*
X105618135Y-100966396D01*
X105910116Y-101161492D01*
X106254531Y-101230000D01*
X107105469Y-101230000D01*
X107449884Y-101161492D01*
X107741865Y-100966396D01*
X107936961Y-100674415D01*
X108005469Y-100330000D01*
X107936961Y-99985585D01*
X107741865Y-99693604D01*
X107449884Y-99498508D01*
X107105469Y-99430000D01*
X106254531Y-99430000D01*
X105910116Y-99498508D01*
X105618135Y-99693604D01*
X105423039Y-99985585D01*
X105354531Y-100330000D01*
X102925469Y-100330000D01*
X102856961Y-99985585D01*
X102661865Y-99693604D01*
X102369884Y-99498508D01*
X102025469Y-99430000D01*
X101174531Y-99430000D01*
X100830116Y-99498508D01*
X100538135Y-99693604D01*
X100343039Y-99985585D01*
X100274531Y-100330000D01*
X96620000Y-100330000D01*
X96620000Y-98124402D01*
X100047535Y-98124402D01*
X100245406Y-98532462D01*
X100602198Y-98841253D01*
X101050000Y-98990000D01*
X101450000Y-98990000D01*
X101450000Y-97940000D01*
X101750000Y-97940000D01*
X101750000Y-98990000D01*
X102150000Y-98990000D01*
X102597802Y-98841253D01*
X102954594Y-98532462D01*
X103152465Y-98124402D01*
X105127535Y-98124402D01*
X105325406Y-98532462D01*
X105682198Y-98841253D01*
X106130000Y-98990000D01*
X106530000Y-98990000D01*
X106530000Y-97940000D01*
X106830000Y-97940000D01*
X106830000Y-98990000D01*
X107230000Y-98990000D01*
X107677802Y-98841253D01*
X108034594Y-98532462D01*
X108232465Y-98124402D01*
X108119230Y-97940000D01*
X106830000Y-97940000D01*
X106530000Y-97940000D01*
X105240770Y-97940000D01*
X105127535Y-98124402D01*
X103152465Y-98124402D01*
X103039230Y-97940000D01*
X101750000Y-97940000D01*
X101450000Y-97940000D01*
X100160770Y-97940000D01*
X100047535Y-98124402D01*
X96620000Y-98124402D01*
X96620000Y-97455598D01*
X100047535Y-97455598D01*
X100160770Y-97640000D01*
X101450000Y-97640000D01*
X101450000Y-96590000D01*
X101750000Y-96590000D01*
X101750000Y-97640000D01*
X103039230Y-97640000D01*
X103152465Y-97455598D01*
X105127535Y-97455598D01*
X105240770Y-97640000D01*
X106530000Y-97640000D01*
X106530000Y-96590000D01*
X106830000Y-96590000D01*
X106830000Y-97640000D01*
X108119230Y-97640000D01*
X108232465Y-97455598D01*
X108034594Y-97047538D01*
X107677802Y-96738747D01*
X107230000Y-96590000D01*
X106830000Y-96590000D01*
X106530000Y-96590000D01*
X106130000Y-96590000D01*
X105682198Y-96738747D01*
X105325406Y-97047538D01*
X105127535Y-97455598D01*
X103152465Y-97455598D01*
X102954594Y-97047538D01*
X102597802Y-96738747D01*
X102150000Y-96590000D01*
X101750000Y-96590000D01*
X101450000Y-96590000D01*
X101050000Y-96590000D01*
X100602198Y-96738747D01*
X100245406Y-97047538D01*
X100047535Y-97455598D01*
X96620000Y-97455598D01*
X96620000Y-95250000D01*
X100274531Y-95250000D01*
X100343039Y-95594415D01*
X100538135Y-95886396D01*
X100830116Y-96081492D01*
X101174531Y-96150000D01*
X102025469Y-96150000D01*
X102369884Y-96081492D01*
X102661865Y-95886396D01*
X102856961Y-95594415D01*
X102925469Y-95250000D01*
X105354531Y-95250000D01*
X105423039Y-95594415D01*
X105618135Y-95886396D01*
X105910116Y-96081492D01*
X106254531Y-96150000D01*
X107105469Y-96150000D01*
X107449884Y-96081492D01*
X107741865Y-95886396D01*
X107936961Y-95594415D01*
X108005469Y-95250000D01*
X107936961Y-94905585D01*
X107741865Y-94613604D01*
X107449884Y-94418508D01*
X107105469Y-94350000D01*
X106254531Y-94350000D01*
X105910116Y-94418508D01*
X105618135Y-94613604D01*
X105423039Y-94905585D01*
X105354531Y-95250000D01*
X102925469Y-95250000D01*
X102856961Y-94905585D01*
X102661865Y-94613604D01*
X102369884Y-94418508D01*
X102025469Y-94350000D01*
X101174531Y-94350000D01*
X100830116Y-94418508D01*
X100538135Y-94613604D01*
X100343039Y-94905585D01*
X100274531Y-95250000D01*
X96620000Y-95250000D01*
X96620000Y-93044402D01*
X100047535Y-93044402D01*
X100245406Y-93452462D01*
X100602198Y-93761253D01*
X101050000Y-93910000D01*
X101450000Y-93910000D01*
X101450000Y-92860000D01*
X101750000Y-92860000D01*
X101750000Y-93910000D01*
X102150000Y-93910000D01*
X102597802Y-93761253D01*
X102954594Y-93452462D01*
X103152465Y-93044402D01*
X105127535Y-93044402D01*
X105325406Y-93452462D01*
X105682198Y-93761253D01*
X106130000Y-93910000D01*
X106530000Y-93910000D01*
X106530000Y-92860000D01*
X106830000Y-92860000D01*
X106830000Y-93910000D01*
X107230000Y-93910000D01*
X107677802Y-93761253D01*
X108034594Y-93452462D01*
X108232465Y-93044402D01*
X108119230Y-92860000D01*
X106830000Y-92860000D01*
X106530000Y-92860000D01*
X105240770Y-92860000D01*
X105127535Y-93044402D01*
X103152465Y-93044402D01*
X103039230Y-92860000D01*
X101750000Y-92860000D01*
X101450000Y-92860000D01*
X100160770Y-92860000D01*
X100047535Y-93044402D01*
X96620000Y-93044402D01*
X96620000Y-92375598D01*
X100047535Y-92375598D01*
X100160770Y-92560000D01*
X101450000Y-92560000D01*
X101450000Y-91510000D01*
X101750000Y-91510000D01*
X101750000Y-92560000D01*
X103039230Y-92560000D01*
X103152465Y-92375598D01*
X105127535Y-92375598D01*
X105240770Y-92560000D01*
X106530000Y-92560000D01*
X106530000Y-91510000D01*
X106830000Y-91510000D01*
X106830000Y-92560000D01*
X108119230Y-92560000D01*
X108232465Y-92375598D01*
X108034594Y-91967538D01*
X107677802Y-91658747D01*
X107230000Y-91510000D01*
X106830000Y-91510000D01*
X106530000Y-91510000D01*
X106130000Y-91510000D01*
X105682198Y-91658747D01*
X105325406Y-91967538D01*
X105127535Y-92375598D01*
X103152465Y-92375598D01*
X102954594Y-91967538D01*
X102597802Y-91658747D01*
X102150000Y-91510000D01*
X101750000Y-91510000D01*
X101450000Y-91510000D01*
X101050000Y-91510000D01*
X100602198Y-91658747D01*
X100245406Y-91967538D01*
X100047535Y-92375598D01*
X96620000Y-92375598D01*
X96620000Y-85383152D01*
X103344180Y-85383152D01*
X103446734Y-85637363D01*
X104046839Y-85849568D01*
X104682471Y-85815970D01*
X105113666Y-85637363D01*
X105216220Y-85383152D01*
X104280200Y-84447132D01*
X103344180Y-85383152D01*
X96620000Y-85383152D01*
X96620000Y-84001639D01*
X102665632Y-84001639D01*
X102699230Y-84637271D01*
X102877837Y-85068466D01*
X103132048Y-85171020D01*
X104068068Y-84235000D01*
X104492332Y-84235000D01*
X105428352Y-85171020D01*
X105682563Y-85068466D01*
X105894768Y-84468361D01*
X105861170Y-83832729D01*
X105682563Y-83401534D01*
X105428352Y-83298980D01*
X104492332Y-84235000D01*
X104068068Y-84235000D01*
X103132048Y-83298980D01*
X102877837Y-83401534D01*
X102665632Y-84001639D01*
X96620000Y-84001639D01*
X96620000Y-83086848D01*
X103344180Y-83086848D01*
X104280200Y-84022868D01*
X105216220Y-83086848D01*
X105113666Y-82832637D01*
X104513561Y-82620432D01*
X103877929Y-82654030D01*
X103446734Y-82832637D01*
X103344180Y-83086848D01*
X96620000Y-83086848D01*
X96620000Y-78777452D01*
X102979974Y-78777452D01*
X103177471Y-79255429D01*
X103542847Y-79621444D01*
X104020479Y-79819774D01*
X104537652Y-79820226D01*
X105015629Y-79622729D01*
X105381644Y-79257353D01*
X105579974Y-78779721D01*
X105580426Y-78262548D01*
X105382929Y-77784571D01*
X105017553Y-77418556D01*
X104539921Y-77220226D01*
X104022748Y-77219774D01*
X103544771Y-77417271D01*
X103178756Y-77782647D01*
X102980426Y-78260279D01*
X102979974Y-78777452D01*
X96620000Y-78777452D01*
X96620000Y-73062452D01*
X102979974Y-73062452D01*
X103177471Y-73540429D01*
X103542847Y-73906444D01*
X104020479Y-74104774D01*
X104537652Y-74105226D01*
X105015629Y-73907729D01*
X105381644Y-73542353D01*
X105579974Y-73064721D01*
X105580426Y-72547548D01*
X105382929Y-72069571D01*
X105017553Y-71703556D01*
X104539921Y-71505226D01*
X104022748Y-71504774D01*
X103544771Y-71702271D01*
X103178756Y-72067647D01*
X102980426Y-72545279D01*
X102979974Y-73062452D01*
X96620000Y-73062452D01*
X96620000Y-67387059D01*
X102779940Y-67387059D01*
X103007820Y-67938572D01*
X103429409Y-68360897D01*
X103980523Y-68589739D01*
X104577259Y-68590260D01*
X105128772Y-68362380D01*
X105551097Y-67940791D01*
X105779939Y-67389677D01*
X105780460Y-66792941D01*
X105552580Y-66241428D01*
X105130991Y-65819103D01*
X104579877Y-65590261D01*
X103983141Y-65589740D01*
X103431628Y-65817620D01*
X103009303Y-66239209D01*
X102780461Y-66790323D01*
X102779940Y-67387059D01*
X96620000Y-67387059D01*
X96620000Y-60066275D01*
X97159671Y-60066275D01*
X97448319Y-60764857D01*
X97982331Y-61299802D01*
X98680409Y-61589669D01*
X99436275Y-61590329D01*
X100134857Y-61301681D01*
X100669802Y-60767669D01*
X100959669Y-60069591D01*
X100959671Y-60066275D01*
X102239671Y-60066275D01*
X102528319Y-60764857D01*
X103062331Y-61299802D01*
X103760409Y-61589669D01*
X104516275Y-61590329D01*
X105214857Y-61301681D01*
X105749802Y-60767669D01*
X106039669Y-60069591D01*
X106040329Y-59313725D01*
X105751681Y-58615143D01*
X105217669Y-58080198D01*
X104519591Y-57790331D01*
X103763725Y-57789671D01*
X103065143Y-58078319D01*
X102530198Y-58612331D01*
X102240331Y-59310409D01*
X102239671Y-60066275D01*
X100959671Y-60066275D01*
X100960329Y-59313725D01*
X100671681Y-58615143D01*
X100137669Y-58080198D01*
X99439591Y-57790331D01*
X98683725Y-57789671D01*
X97985143Y-58078319D01*
X97450198Y-58612331D01*
X97160331Y-59310409D01*
X97159671Y-60066275D01*
X96620000Y-60066275D01*
X96620000Y-51176275D01*
X97159671Y-51176275D01*
X97448319Y-51874857D01*
X97982331Y-52409802D01*
X98680409Y-52699669D01*
X99436275Y-52700329D01*
X100134857Y-52411681D01*
X100669802Y-51877669D01*
X100959669Y-51179591D01*
X100959671Y-51176275D01*
X102239671Y-51176275D01*
X102528319Y-51874857D01*
X103062331Y-52409802D01*
X103760409Y-52699669D01*
X104516275Y-52700329D01*
X105214857Y-52411681D01*
X105749802Y-51877669D01*
X106039669Y-51179591D01*
X106040329Y-50423725D01*
X105751681Y-49725143D01*
X105217669Y-49190198D01*
X104519591Y-48900331D01*
X103763725Y-48899671D01*
X103065143Y-49188319D01*
X102530198Y-49722331D01*
X102240331Y-50420409D01*
X102239671Y-51176275D01*
X100959671Y-51176275D01*
X100960329Y-50423725D01*
X100671681Y-49725143D01*
X100137669Y-49190198D01*
X99439591Y-48900331D01*
X98683725Y-48899671D01*
X97985143Y-49188319D01*
X97450198Y-49722331D01*
X97160331Y-50420409D01*
X97159671Y-51176275D01*
X96620000Y-51176275D01*
X96620000Y-44596863D01*
X98819723Y-44596863D01*
X99062795Y-45185143D01*
X99512489Y-45635623D01*
X100100344Y-45879722D01*
X100736863Y-45880277D01*
X101325143Y-45637205D01*
X101775623Y-45187511D01*
X102019722Y-44599656D01*
X102020277Y-43963137D01*
X101777205Y-43374857D01*
X101327511Y-42924377D01*
X100739656Y-42680278D01*
X100103137Y-42679723D01*
X99514857Y-42922795D01*
X99064377Y-43372489D01*
X98820278Y-43960344D01*
X98819723Y-44596863D01*
X96620000Y-44596863D01*
X96620000Y-42000596D01*
X104911536Y-42000596D01*
X105026364Y-42265180D01*
X105662742Y-42494107D01*
X106338285Y-42462077D01*
X106813636Y-42265180D01*
X106928464Y-42000596D01*
X105920000Y-40992132D01*
X104911536Y-42000596D01*
X96620000Y-42000596D01*
X96620000Y-40522742D01*
X104205893Y-40522742D01*
X104237923Y-41198285D01*
X104434820Y-41673636D01*
X104699404Y-41788464D01*
X105707868Y-40780000D01*
X106132132Y-40780000D01*
X107140596Y-41788464D01*
X107405180Y-41673636D01*
X107634107Y-41037258D01*
X107602077Y-40361715D01*
X107405180Y-39886364D01*
X107140596Y-39771536D01*
X106132132Y-40780000D01*
X105707868Y-40780000D01*
X104699404Y-39771536D01*
X104434820Y-39886364D01*
X104205893Y-40522742D01*
X96620000Y-40522742D01*
X96620000Y-40046422D01*
X97107018Y-39559404D01*
X104911536Y-39559404D01*
X105920000Y-40567868D01*
X106928464Y-39559404D01*
X106813636Y-39294820D01*
X106177258Y-39065893D01*
X105501715Y-39097923D01*
X105026364Y-39294820D01*
X104911536Y-39559404D01*
X97107018Y-39559404D01*
X97831422Y-38835000D01*
X100965000Y-38835000D01*
X101003268Y-38827388D01*
X101035711Y-38805711D01*
X101271422Y-38570000D01*
X126960205Y-38570000D01*
X126960205Y-40170000D01*
X126999011Y-40365090D01*
X127109520Y-40530480D01*
X127274910Y-40640989D01*
X127470000Y-40679795D01*
X129070000Y-40679795D01*
X129265090Y-40640989D01*
X129430480Y-40530480D01*
X129535640Y-40373095D01*
X132559037Y-40373095D01*
X132636977Y-40606588D01*
X133164474Y-40785320D01*
X133720216Y-40748583D01*
X134063023Y-40606588D01*
X134140963Y-40373095D01*
X133350000Y-39582132D01*
X132559037Y-40373095D01*
X129535640Y-40373095D01*
X129540989Y-40365090D01*
X129579795Y-40170000D01*
X129579795Y-39184474D01*
X131934680Y-39184474D01*
X131971417Y-39740216D01*
X132113412Y-40083023D01*
X132346905Y-40160963D01*
X133137868Y-39370000D01*
X133562132Y-39370000D01*
X134353095Y-40160963D01*
X134586588Y-40083023D01*
X134765320Y-39555526D01*
X134728583Y-38999784D01*
X134586588Y-38656977D01*
X134353095Y-38579037D01*
X133562132Y-39370000D01*
X133137868Y-39370000D01*
X132346905Y-38579037D01*
X132113412Y-38656977D01*
X131934680Y-39184474D01*
X129579795Y-39184474D01*
X129579795Y-38570000D01*
X129540989Y-38374910D01*
X129535641Y-38366905D01*
X132559037Y-38366905D01*
X133350000Y-39157868D01*
X134140963Y-38366905D01*
X134063023Y-38133412D01*
X133535526Y-37954680D01*
X132979784Y-37991417D01*
X132636977Y-38133412D01*
X132559037Y-38366905D01*
X129535641Y-38366905D01*
X129430480Y-38209520D01*
X129265090Y-38099011D01*
X129070000Y-38060205D01*
X127470000Y-38060205D01*
X127274910Y-38099011D01*
X127109520Y-38209520D01*
X126999011Y-38374910D01*
X126960205Y-38570000D01*
X101271422Y-38570000D01*
X102305711Y-37535711D01*
X102327388Y-37503268D01*
X102335000Y-37465000D01*
X102335000Y-35837256D01*
X106529437Y-35837256D01*
X106742125Y-36352000D01*
X107135608Y-36746170D01*
X107649981Y-36959757D01*
X108206936Y-36960243D01*
X108721680Y-36747555D01*
X109115850Y-36354072D01*
X109199622Y-36152327D01*
X109282125Y-36352000D01*
X109675608Y-36746170D01*
X110189981Y-36959757D01*
X110746936Y-36960243D01*
X111261680Y-36747555D01*
X111655850Y-36354072D01*
X111869437Y-35839699D01*
X111869439Y-35837256D01*
X112879437Y-35837256D01*
X113092125Y-36352000D01*
X113485608Y-36746170D01*
X113999981Y-36959757D01*
X114556936Y-36960243D01*
X115071680Y-36747555D01*
X115465850Y-36354072D01*
X115549622Y-36152327D01*
X115632125Y-36352000D01*
X116025608Y-36746170D01*
X116539981Y-36959757D01*
X117096936Y-36960243D01*
X117323881Y-36866471D01*
X141189688Y-36866471D01*
X141463145Y-37528286D01*
X141969051Y-38035076D01*
X142630387Y-38309687D01*
X143346471Y-38310312D01*
X144008286Y-38036855D01*
X144515076Y-37530949D01*
X144789687Y-36869613D01*
X144790312Y-36153529D01*
X144516855Y-35491714D01*
X144010949Y-34984924D01*
X143349613Y-34710313D01*
X142633529Y-34709688D01*
X141971714Y-34983145D01*
X141464924Y-35489051D01*
X141190313Y-36150387D01*
X141189688Y-36866471D01*
X117323881Y-36866471D01*
X117611680Y-36747555D01*
X118005850Y-36354072D01*
X118219437Y-35839699D01*
X118219923Y-35282744D01*
X118007235Y-34768000D01*
X117613752Y-34373830D01*
X117099379Y-34160243D01*
X116542424Y-34159757D01*
X116027680Y-34372445D01*
X115633510Y-34765928D01*
X115549738Y-34967673D01*
X115467235Y-34768000D01*
X115073752Y-34373830D01*
X114559379Y-34160243D01*
X114002424Y-34159757D01*
X113487680Y-34372445D01*
X113093510Y-34765928D01*
X112879923Y-35280301D01*
X112879437Y-35837256D01*
X111869439Y-35837256D01*
X111869923Y-35282744D01*
X111657235Y-34768000D01*
X111263752Y-34373830D01*
X110749379Y-34160243D01*
X110192424Y-34159757D01*
X109677680Y-34372445D01*
X109283510Y-34765928D01*
X109199738Y-34967673D01*
X109117235Y-34768000D01*
X108723752Y-34373830D01*
X108209379Y-34160243D01*
X107652424Y-34159757D01*
X107137680Y-34372445D01*
X106743510Y-34765928D01*
X106529923Y-35280301D01*
X106529437Y-35837256D01*
X102335000Y-35837256D01*
X102335000Y-34331422D01*
X103546422Y-33120000D01*
X172043578Y-33120000D01*
X173255000Y-34331422D01*
X173255000Y-34331422D01*
G37*
X173255000Y-34331422D02*
X173255000Y-60918578D01*
X172043578Y-62130000D01*
X168070061Y-62130000D01*
X168070294Y-61862853D01*
X167812030Y-61237805D01*
X167334230Y-60759170D01*
X166709634Y-60499816D01*
X166033333Y-60499226D01*
X165408285Y-60757490D01*
X164929650Y-61235290D01*
X164670296Y-61859886D01*
X164670060Y-62130000D01*
X151765000Y-62130000D01*
X151726732Y-62137612D01*
X151694289Y-62159289D01*
X150424289Y-63429289D01*
X150402612Y-63461732D01*
X150395000Y-63500000D01*
X150395000Y-72348578D01*
X149183578Y-73560000D01*
X127676422Y-73560000D01*
X126465000Y-72348578D01*
X126465000Y-70226275D01*
X127639671Y-70226275D01*
X127928319Y-70924857D01*
X128462331Y-71459802D01*
X129160409Y-71749669D01*
X129916275Y-71750329D01*
X130614857Y-71461681D01*
X131149802Y-70927669D01*
X131439669Y-70229591D01*
X131439671Y-70226275D01*
X132719671Y-70226275D01*
X133008319Y-70924857D01*
X133542331Y-71459802D01*
X134240409Y-71749669D01*
X134996275Y-71750329D01*
X135694857Y-71461681D01*
X136229802Y-70927669D01*
X136519669Y-70229591D01*
X136520329Y-69473725D01*
X136231681Y-68775143D01*
X135697669Y-68240198D01*
X134999591Y-67950331D01*
X134243725Y-67949671D01*
X133545143Y-68238319D01*
X133010198Y-68772331D01*
X132720331Y-69470409D01*
X132719671Y-70226275D01*
X131439671Y-70226275D01*
X131440329Y-69473725D01*
X131151681Y-68775143D01*
X130617669Y-68240198D01*
X129919591Y-67950331D01*
X129163725Y-67949671D01*
X128465143Y-68238319D01*
X127930198Y-68772331D01*
X127640331Y-69470409D01*
X127639671Y-70226275D01*
X126465000Y-70226275D01*
X126465000Y-65405000D01*
X126457388Y-65366732D01*
X126435711Y-65334289D01*
X125165711Y-64064289D01*
X125133268Y-64042612D01*
X125095000Y-64035000D01*
X112999999Y-64035000D01*
X112999999Y-61077082D01*
X113222331Y-61299802D01*
X113920409Y-61589669D01*
X114676275Y-61590329D01*
X115374857Y-61301681D01*
X115909802Y-60767669D01*
X116199669Y-60069591D01*
X116199671Y-60066275D01*
X117479671Y-60066275D01*
X117768319Y-60764857D01*
X118302331Y-61299802D01*
X119000409Y-61589669D01*
X119756275Y-61590329D01*
X120454857Y-61301681D01*
X120989802Y-60767669D01*
X121279669Y-60069591D01*
X121280329Y-59313725D01*
X120991681Y-58615143D01*
X120457669Y-58080198D01*
X119759591Y-57790331D01*
X119003725Y-57789671D01*
X118305143Y-58078319D01*
X117770198Y-58612331D01*
X117480331Y-59310409D01*
X117479671Y-60066275D01*
X116199671Y-60066275D01*
X116200329Y-59313725D01*
X115911681Y-58615143D01*
X115377669Y-58080198D01*
X114679591Y-57790331D01*
X113923725Y-57789671D01*
X113225143Y-58078319D01*
X112999999Y-58303070D01*
X112999999Y-56883095D01*
X127479037Y-56883095D01*
X127556977Y-57116588D01*
X128084474Y-57295320D01*
X128640216Y-57258583D01*
X128983023Y-57116588D01*
X129060963Y-56883095D01*
X128270000Y-56092132D01*
X127479037Y-56883095D01*
X112999999Y-56883095D01*
X112999999Y-55694474D01*
X126854680Y-55694474D01*
X126891417Y-56250216D01*
X127033412Y-56593023D01*
X127266905Y-56670963D01*
X128057868Y-55880000D01*
X128482132Y-55880000D01*
X129273095Y-56670963D01*
X129506588Y-56593023D01*
X129685320Y-56065526D01*
X129648583Y-55509784D01*
X129506588Y-55166977D01*
X129273095Y-55089037D01*
X128482132Y-55880000D01*
X128057868Y-55880000D01*
X127266905Y-55089037D01*
X127033412Y-55166977D01*
X126854680Y-55694474D01*
X112999999Y-55694474D01*
X112999999Y-54876905D01*
X127479037Y-54876905D01*
X128270000Y-55667868D01*
X128857868Y-55080000D01*
X132040205Y-55080000D01*
X132040205Y-56680000D01*
X132079011Y-56875090D01*
X132189520Y-57040480D01*
X132354910Y-57150989D01*
X132550000Y-57189795D01*
X134150000Y-57189795D01*
X134345090Y-57150989D01*
X134510480Y-57040480D01*
X134620989Y-56875090D01*
X134659795Y-56680000D01*
X134659795Y-55080000D01*
X134620989Y-54884910D01*
X134510480Y-54719520D01*
X134350000Y-54612292D01*
X134350000Y-50230000D01*
X134769701Y-50230000D01*
X134968040Y-50230173D01*
X135335714Y-50078253D01*
X135617264Y-49797194D01*
X135769826Y-49429785D01*
X135770173Y-49031960D01*
X135618253Y-48664286D01*
X135337194Y-48382736D01*
X134969785Y-48230174D01*
X134571960Y-48229827D01*
X134571541Y-48230000D01*
X133770005Y-48230000D01*
X133770000Y-48229999D01*
X133387316Y-48306120D01*
X133062893Y-48522893D01*
X132642893Y-48942893D01*
X132426120Y-49267316D01*
X132426120Y-49267317D01*
X132350000Y-49650000D01*
X132350000Y-54612292D01*
X132189520Y-54719520D01*
X132079011Y-54884910D01*
X132040205Y-55080000D01*
X128857868Y-55080000D01*
X129060963Y-54876905D01*
X128983023Y-54643412D01*
X128455526Y-54464680D01*
X127899784Y-54501417D01*
X127556977Y-54643412D01*
X127479037Y-54876905D01*
X112999999Y-54876905D01*
X112999999Y-53514215D01*
X113845606Y-52668608D01*
X113920409Y-52699669D01*
X114676275Y-52700329D01*
X115374857Y-52411681D01*
X115909802Y-51877669D01*
X116199669Y-51179591D01*
X116199671Y-51176275D01*
X117479671Y-51176275D01*
X117768319Y-51874857D01*
X118302331Y-52409802D01*
X119000409Y-52699669D01*
X119756275Y-52700329D01*
X120454857Y-52411681D01*
X120989802Y-51877669D01*
X121279669Y-51179591D01*
X121280329Y-50423725D01*
X120991681Y-49725143D01*
X120457669Y-49190198D01*
X119759591Y-48900331D01*
X119003725Y-48899671D01*
X118305143Y-49188319D01*
X117770198Y-49722331D01*
X117480331Y-50420409D01*
X117479671Y-51176275D01*
X116199671Y-51176275D01*
X116200329Y-50423725D01*
X115911681Y-49725143D01*
X115377669Y-49190198D01*
X114679591Y-48900331D01*
X113923725Y-48899671D01*
X113225143Y-49188319D01*
X112690198Y-49722331D01*
X112400331Y-50420409D01*
X112399671Y-51176275D01*
X112431786Y-51254000D01*
X111292892Y-52392894D01*
X111076119Y-52717317D01*
X111076119Y-52717318D01*
X110999999Y-53100001D01*
X110999999Y-64753579D01*
X110419289Y-65334289D01*
X110397612Y-65366732D01*
X110390000Y-65405000D01*
X110390000Y-73660000D01*
X110397612Y-73698268D01*
X110419289Y-73730711D01*
X110999999Y-74311421D01*
X110999999Y-85964999D01*
X111076119Y-86347683D01*
X111292892Y-86672106D01*
X114835000Y-90214214D01*
X114835000Y-115528578D01*
X113623578Y-116740000D01*
X97831422Y-116740000D01*
X96620000Y-115528578D01*
X96620000Y-110490000D01*
X100274531Y-110490000D01*
X100343039Y-110834415D01*
X100538135Y-111126396D01*
X100830116Y-111321492D01*
X101174531Y-111390000D01*
X102025469Y-111390000D01*
X102369884Y-111321492D01*
X102661865Y-111126396D01*
X102856961Y-110834415D01*
X102925469Y-110490000D01*
X105354531Y-110490000D01*
X105423039Y-110834415D01*
X105618135Y-111126396D01*
X105910116Y-111321492D01*
X106254531Y-111390000D01*
X107105469Y-111390000D01*
X107449884Y-111321492D01*
X107741865Y-111126396D01*
X107936961Y-110834415D01*
X108005469Y-110490000D01*
X107936961Y-110145585D01*
X107741865Y-109853604D01*
X107449884Y-109658508D01*
X107105469Y-109590000D01*
X106254531Y-109590000D01*
X105910116Y-109658508D01*
X105618135Y-109853604D01*
X105423039Y-110145585D01*
X105354531Y-110490000D01*
X102925469Y-110490000D01*
X102856961Y-110145585D01*
X102661865Y-109853604D01*
X102369884Y-109658508D01*
X102025469Y-109590000D01*
X101174531Y-109590000D01*
X100830116Y-109658508D01*
X100538135Y-109853604D01*
X100343039Y-110145585D01*
X100274531Y-110490000D01*
X96620000Y-110490000D01*
X96620000Y-108284402D01*
X100047535Y-108284402D01*
X100245406Y-108692462D01*
X100602198Y-109001253D01*
X101050000Y-109150000D01*
X101450000Y-109150000D01*
X101450000Y-108100000D01*
X101750000Y-108100000D01*
X101750000Y-109150000D01*
X102150000Y-109150000D01*
X102597802Y-109001253D01*
X102954594Y-108692462D01*
X103152465Y-108284402D01*
X105127535Y-108284402D01*
X105325406Y-108692462D01*
X105682198Y-109001253D01*
X106130000Y-109150000D01*
X106530000Y-109150000D01*
X106530000Y-108100000D01*
X106830000Y-108100000D01*
X106830000Y-109150000D01*
X107230000Y-109150000D01*
X107677802Y-109001253D01*
X108034594Y-108692462D01*
X108232465Y-108284402D01*
X108119230Y-108100000D01*
X106830000Y-108100000D01*
X106530000Y-108100000D01*
X105240770Y-108100000D01*
X105127535Y-108284402D01*
X103152465Y-108284402D01*
X103039230Y-108100000D01*
X101750000Y-108100000D01*
X101450000Y-108100000D01*
X100160770Y-108100000D01*
X100047535Y-108284402D01*
X96620000Y-108284402D01*
X96620000Y-107615598D01*
X100047535Y-107615598D01*
X100160770Y-107800000D01*
X101450000Y-107800000D01*
X101450000Y-106750000D01*
X101750000Y-106750000D01*
X101750000Y-107800000D01*
X103039230Y-107800000D01*
X103152465Y-107615598D01*
X105127535Y-107615598D01*
X105240770Y-107800000D01*
X106530000Y-107800000D01*
X106530000Y-106750000D01*
X106830000Y-106750000D01*
X106830000Y-107800000D01*
X108119230Y-107800000D01*
X108232465Y-107615598D01*
X108034594Y-107207538D01*
X107677802Y-106898747D01*
X107230000Y-106750000D01*
X106830000Y-106750000D01*
X106530000Y-106750000D01*
X106130000Y-106750000D01*
X105682198Y-106898747D01*
X105325406Y-107207538D01*
X105127535Y-107615598D01*
X103152465Y-107615598D01*
X102954594Y-107207538D01*
X102597802Y-106898747D01*
X102150000Y-106750000D01*
X101750000Y-106750000D01*
X101450000Y-106750000D01*
X101050000Y-106750000D01*
X100602198Y-106898747D01*
X100245406Y-107207538D01*
X100047535Y-107615598D01*
X96620000Y-107615598D01*
X96620000Y-105410000D01*
X100274531Y-105410000D01*
X100343039Y-105754415D01*
X100538135Y-106046396D01*
X100830116Y-106241492D01*
X101174531Y-106310000D01*
X102025469Y-106310000D01*
X102369884Y-106241492D01*
X102661865Y-106046396D01*
X102856961Y-105754415D01*
X102925469Y-105410000D01*
X105354531Y-105410000D01*
X105423039Y-105754415D01*
X105618135Y-106046396D01*
X105910116Y-106241492D01*
X106254531Y-106310000D01*
X107105469Y-106310000D01*
X107449884Y-106241492D01*
X107741865Y-106046396D01*
X107936961Y-105754415D01*
X108005469Y-105410000D01*
X107936961Y-105065585D01*
X107741865Y-104773604D01*
X107449884Y-104578508D01*
X107105469Y-104510000D01*
X106254531Y-104510000D01*
X105910116Y-104578508D01*
X105618135Y-104773604D01*
X105423039Y-105065585D01*
X105354531Y-105410000D01*
X102925469Y-105410000D01*
X102856961Y-105065585D01*
X102661865Y-104773604D01*
X102369884Y-104578508D01*
X102025469Y-104510000D01*
X101174531Y-104510000D01*
X100830116Y-104578508D01*
X100538135Y-104773604D01*
X100343039Y-105065585D01*
X100274531Y-105410000D01*
X96620000Y-105410000D01*
X96620000Y-103204402D01*
X100047535Y-103204402D01*
X100245406Y-103612462D01*
X100602198Y-103921253D01*
X101050000Y-104070000D01*
X101450000Y-104070000D01*
X101450000Y-103020000D01*
X101750000Y-103020000D01*
X101750000Y-104070000D01*
X102150000Y-104070000D01*
X102597802Y-103921253D01*
X102954594Y-103612462D01*
X103152465Y-103204402D01*
X105127535Y-103204402D01*
X105325406Y-103612462D01*
X105682198Y-103921253D01*
X106130000Y-104070000D01*
X106530000Y-104070000D01*
X106530000Y-103020000D01*
X106830000Y-103020000D01*
X106830000Y-104070000D01*
X107230000Y-104070000D01*
X107677802Y-103921253D01*
X108034594Y-103612462D01*
X108232465Y-103204402D01*
X108119230Y-103020000D01*
X106830000Y-103020000D01*
X106530000Y-103020000D01*
X105240770Y-103020000D01*
X105127535Y-103204402D01*
X103152465Y-103204402D01*
X103039230Y-103020000D01*
X101750000Y-103020000D01*
X101450000Y-103020000D01*
X100160770Y-103020000D01*
X100047535Y-103204402D01*
X96620000Y-103204402D01*
X96620000Y-102535598D01*
X100047535Y-102535598D01*
X100160770Y-102720000D01*
X101450000Y-102720000D01*
X101450000Y-101670000D01*
X101750000Y-101670000D01*
X101750000Y-102720000D01*
X103039230Y-102720000D01*
X103152465Y-102535598D01*
X105127535Y-102535598D01*
X105240770Y-102720000D01*
X106530000Y-102720000D01*
X106530000Y-101670000D01*
X106830000Y-101670000D01*
X106830000Y-102720000D01*
X108119230Y-102720000D01*
X108232465Y-102535598D01*
X108034594Y-102127538D01*
X107677802Y-101818747D01*
X107230000Y-101670000D01*
X106830000Y-101670000D01*
X106530000Y-101670000D01*
X106130000Y-101670000D01*
X105682198Y-101818747D01*
X105325406Y-102127538D01*
X105127535Y-102535598D01*
X103152465Y-102535598D01*
X102954594Y-102127538D01*
X102597802Y-101818747D01*
X102150000Y-101670000D01*
X101750000Y-101670000D01*
X101450000Y-101670000D01*
X101050000Y-101670000D01*
X100602198Y-101818747D01*
X100245406Y-102127538D01*
X100047535Y-102535598D01*
X96620000Y-102535598D01*
X96620000Y-100330000D01*
X100274531Y-100330000D01*
X100343039Y-100674415D01*
X100538135Y-100966396D01*
X100830116Y-101161492D01*
X101174531Y-101230000D01*
X102025469Y-101230000D01*
X102369884Y-101161492D01*
X102661865Y-100966396D01*
X102856961Y-100674415D01*
X102925469Y-100330000D01*
X105354531Y-100330000D01*
X105423039Y-100674415D01*
X105618135Y-100966396D01*
X105910116Y-101161492D01*
X106254531Y-101230000D01*
X107105469Y-101230000D01*
X107449884Y-101161492D01*
X107741865Y-100966396D01*
X107936961Y-100674415D01*
X108005469Y-100330000D01*
X107936961Y-99985585D01*
X107741865Y-99693604D01*
X107449884Y-99498508D01*
X107105469Y-99430000D01*
X106254531Y-99430000D01*
X105910116Y-99498508D01*
X105618135Y-99693604D01*
X105423039Y-99985585D01*
X105354531Y-100330000D01*
X102925469Y-100330000D01*
X102856961Y-99985585D01*
X102661865Y-99693604D01*
X102369884Y-99498508D01*
X102025469Y-99430000D01*
X101174531Y-99430000D01*
X100830116Y-99498508D01*
X100538135Y-99693604D01*
X100343039Y-99985585D01*
X100274531Y-100330000D01*
X96620000Y-100330000D01*
X96620000Y-98124402D01*
X100047535Y-98124402D01*
X100245406Y-98532462D01*
X100602198Y-98841253D01*
X101050000Y-98990000D01*
X101450000Y-98990000D01*
X101450000Y-97940000D01*
X101750000Y-97940000D01*
X101750000Y-98990000D01*
X102150000Y-98990000D01*
X102597802Y-98841253D01*
X102954594Y-98532462D01*
X103152465Y-98124402D01*
X105127535Y-98124402D01*
X105325406Y-98532462D01*
X105682198Y-98841253D01*
X106130000Y-98990000D01*
X106530000Y-98990000D01*
X106530000Y-97940000D01*
X106830000Y-97940000D01*
X106830000Y-98990000D01*
X107230000Y-98990000D01*
X107677802Y-98841253D01*
X108034594Y-98532462D01*
X108232465Y-98124402D01*
X108119230Y-97940000D01*
X106830000Y-97940000D01*
X106530000Y-97940000D01*
X105240770Y-97940000D01*
X105127535Y-98124402D01*
X103152465Y-98124402D01*
X103039230Y-97940000D01*
X101750000Y-97940000D01*
X101450000Y-97940000D01*
X100160770Y-97940000D01*
X100047535Y-98124402D01*
X96620000Y-98124402D01*
X96620000Y-97455598D01*
X100047535Y-97455598D01*
X100160770Y-97640000D01*
X101450000Y-97640000D01*
X101450000Y-96590000D01*
X101750000Y-96590000D01*
X101750000Y-97640000D01*
X103039230Y-97640000D01*
X103152465Y-97455598D01*
X105127535Y-97455598D01*
X105240770Y-97640000D01*
X106530000Y-97640000D01*
X106530000Y-96590000D01*
X106830000Y-96590000D01*
X106830000Y-97640000D01*
X108119230Y-97640000D01*
X108232465Y-97455598D01*
X108034594Y-97047538D01*
X107677802Y-96738747D01*
X107230000Y-96590000D01*
X106830000Y-96590000D01*
X106530000Y-96590000D01*
X106130000Y-96590000D01*
X105682198Y-96738747D01*
X105325406Y-97047538D01*
X105127535Y-97455598D01*
X103152465Y-97455598D01*
X102954594Y-97047538D01*
X102597802Y-96738747D01*
X102150000Y-96590000D01*
X101750000Y-96590000D01*
X101450000Y-96590000D01*
X101050000Y-96590000D01*
X100602198Y-96738747D01*
X100245406Y-97047538D01*
X100047535Y-97455598D01*
X96620000Y-97455598D01*
X96620000Y-95250000D01*
X100274531Y-95250000D01*
X100343039Y-95594415D01*
X100538135Y-95886396D01*
X100830116Y-96081492D01*
X101174531Y-96150000D01*
X102025469Y-96150000D01*
X102369884Y-96081492D01*
X102661865Y-95886396D01*
X102856961Y-95594415D01*
X102925469Y-95250000D01*
X105354531Y-95250000D01*
X105423039Y-95594415D01*
X105618135Y-95886396D01*
X105910116Y-96081492D01*
X106254531Y-96150000D01*
X107105469Y-96150000D01*
X107449884Y-96081492D01*
X107741865Y-95886396D01*
X107936961Y-95594415D01*
X108005469Y-95250000D01*
X107936961Y-94905585D01*
X107741865Y-94613604D01*
X107449884Y-94418508D01*
X107105469Y-94350000D01*
X106254531Y-94350000D01*
X105910116Y-94418508D01*
X105618135Y-94613604D01*
X105423039Y-94905585D01*
X105354531Y-95250000D01*
X102925469Y-95250000D01*
X102856961Y-94905585D01*
X102661865Y-94613604D01*
X102369884Y-94418508D01*
X102025469Y-94350000D01*
X101174531Y-94350000D01*
X100830116Y-94418508D01*
X100538135Y-94613604D01*
X100343039Y-94905585D01*
X100274531Y-95250000D01*
X96620000Y-95250000D01*
X96620000Y-93044402D01*
X100047535Y-93044402D01*
X100245406Y-93452462D01*
X100602198Y-93761253D01*
X101050000Y-93910000D01*
X101450000Y-93910000D01*
X101450000Y-92860000D01*
X101750000Y-92860000D01*
X101750000Y-93910000D01*
X102150000Y-93910000D01*
X102597802Y-93761253D01*
X102954594Y-93452462D01*
X103152465Y-93044402D01*
X105127535Y-93044402D01*
X105325406Y-93452462D01*
X105682198Y-93761253D01*
X106130000Y-93910000D01*
X106530000Y-93910000D01*
X106530000Y-92860000D01*
X106830000Y-92860000D01*
X106830000Y-93910000D01*
X107230000Y-93910000D01*
X107677802Y-93761253D01*
X108034594Y-93452462D01*
X108232465Y-93044402D01*
X108119230Y-92860000D01*
X106830000Y-92860000D01*
X106530000Y-92860000D01*
X105240770Y-92860000D01*
X105127535Y-93044402D01*
X103152465Y-93044402D01*
X103039230Y-92860000D01*
X101750000Y-92860000D01*
X101450000Y-92860000D01*
X100160770Y-92860000D01*
X100047535Y-93044402D01*
X96620000Y-93044402D01*
X96620000Y-92375598D01*
X100047535Y-92375598D01*
X100160770Y-92560000D01*
X101450000Y-92560000D01*
X101450000Y-91510000D01*
X101750000Y-91510000D01*
X101750000Y-92560000D01*
X103039230Y-92560000D01*
X103152465Y-92375598D01*
X105127535Y-92375598D01*
X105240770Y-92560000D01*
X106530000Y-92560000D01*
X106530000Y-91510000D01*
X106830000Y-91510000D01*
X106830000Y-92560000D01*
X108119230Y-92560000D01*
X108232465Y-92375598D01*
X108034594Y-91967538D01*
X107677802Y-91658747D01*
X107230000Y-91510000D01*
X106830000Y-91510000D01*
X106530000Y-91510000D01*
X106130000Y-91510000D01*
X105682198Y-91658747D01*
X105325406Y-91967538D01*
X105127535Y-92375598D01*
X103152465Y-92375598D01*
X102954594Y-91967538D01*
X102597802Y-91658747D01*
X102150000Y-91510000D01*
X101750000Y-91510000D01*
X101450000Y-91510000D01*
X101050000Y-91510000D01*
X100602198Y-91658747D01*
X100245406Y-91967538D01*
X100047535Y-92375598D01*
X96620000Y-92375598D01*
X96620000Y-85383152D01*
X103344180Y-85383152D01*
X103446734Y-85637363D01*
X104046839Y-85849568D01*
X104682471Y-85815970D01*
X105113666Y-85637363D01*
X105216220Y-85383152D01*
X104280200Y-84447132D01*
X103344180Y-85383152D01*
X96620000Y-85383152D01*
X96620000Y-84001639D01*
X102665632Y-84001639D01*
X102699230Y-84637271D01*
X102877837Y-85068466D01*
X103132048Y-85171020D01*
X104068068Y-84235000D01*
X104492332Y-84235000D01*
X105428352Y-85171020D01*
X105682563Y-85068466D01*
X105894768Y-84468361D01*
X105861170Y-83832729D01*
X105682563Y-83401534D01*
X105428352Y-83298980D01*
X104492332Y-84235000D01*
X104068068Y-84235000D01*
X103132048Y-83298980D01*
X102877837Y-83401534D01*
X102665632Y-84001639D01*
X96620000Y-84001639D01*
X96620000Y-83086848D01*
X103344180Y-83086848D01*
X104280200Y-84022868D01*
X105216220Y-83086848D01*
X105113666Y-82832637D01*
X104513561Y-82620432D01*
X103877929Y-82654030D01*
X103446734Y-82832637D01*
X103344180Y-83086848D01*
X96620000Y-83086848D01*
X96620000Y-78777452D01*
X102979974Y-78777452D01*
X103177471Y-79255429D01*
X103542847Y-79621444D01*
X104020479Y-79819774D01*
X104537652Y-79820226D01*
X105015629Y-79622729D01*
X105381644Y-79257353D01*
X105579974Y-78779721D01*
X105580426Y-78262548D01*
X105382929Y-77784571D01*
X105017553Y-77418556D01*
X104539921Y-77220226D01*
X104022748Y-77219774D01*
X103544771Y-77417271D01*
X103178756Y-77782647D01*
X102980426Y-78260279D01*
X102979974Y-78777452D01*
X96620000Y-78777452D01*
X96620000Y-73062452D01*
X102979974Y-73062452D01*
X103177471Y-73540429D01*
X103542847Y-73906444D01*
X104020479Y-74104774D01*
X104537652Y-74105226D01*
X105015629Y-73907729D01*
X105381644Y-73542353D01*
X105579974Y-73064721D01*
X105580426Y-72547548D01*
X105382929Y-72069571D01*
X105017553Y-71703556D01*
X104539921Y-71505226D01*
X104022748Y-71504774D01*
X103544771Y-71702271D01*
X103178756Y-72067647D01*
X102980426Y-72545279D01*
X102979974Y-73062452D01*
X96620000Y-73062452D01*
X96620000Y-67387059D01*
X102779940Y-67387059D01*
X103007820Y-67938572D01*
X103429409Y-68360897D01*
X103980523Y-68589739D01*
X104577259Y-68590260D01*
X105128772Y-68362380D01*
X105551097Y-67940791D01*
X105779939Y-67389677D01*
X105780460Y-66792941D01*
X105552580Y-66241428D01*
X105130991Y-65819103D01*
X104579877Y-65590261D01*
X103983141Y-65589740D01*
X103431628Y-65817620D01*
X103009303Y-66239209D01*
X102780461Y-66790323D01*
X102779940Y-67387059D01*
X96620000Y-67387059D01*
X96620000Y-60066275D01*
X97159671Y-60066275D01*
X97448319Y-60764857D01*
X97982331Y-61299802D01*
X98680409Y-61589669D01*
X99436275Y-61590329D01*
X100134857Y-61301681D01*
X100669802Y-60767669D01*
X100959669Y-60069591D01*
X100959671Y-60066275D01*
X102239671Y-60066275D01*
X102528319Y-60764857D01*
X103062331Y-61299802D01*
X103760409Y-61589669D01*
X104516275Y-61590329D01*
X105214857Y-61301681D01*
X105749802Y-60767669D01*
X106039669Y-60069591D01*
X106040329Y-59313725D01*
X105751681Y-58615143D01*
X105217669Y-58080198D01*
X104519591Y-57790331D01*
X103763725Y-57789671D01*
X103065143Y-58078319D01*
X102530198Y-58612331D01*
X102240331Y-59310409D01*
X102239671Y-60066275D01*
X100959671Y-60066275D01*
X100960329Y-59313725D01*
X100671681Y-58615143D01*
X100137669Y-58080198D01*
X99439591Y-57790331D01*
X98683725Y-57789671D01*
X97985143Y-58078319D01*
X97450198Y-58612331D01*
X97160331Y-59310409D01*
X97159671Y-60066275D01*
X96620000Y-60066275D01*
X96620000Y-51176275D01*
X97159671Y-51176275D01*
X97448319Y-51874857D01*
X97982331Y-52409802D01*
X98680409Y-52699669D01*
X99436275Y-52700329D01*
X100134857Y-52411681D01*
X100669802Y-51877669D01*
X100959669Y-51179591D01*
X100959671Y-51176275D01*
X102239671Y-51176275D01*
X102528319Y-51874857D01*
X103062331Y-52409802D01*
X103760409Y-52699669D01*
X104516275Y-52700329D01*
X105214857Y-52411681D01*
X105749802Y-51877669D01*
X106039669Y-51179591D01*
X106040329Y-50423725D01*
X105751681Y-49725143D01*
X105217669Y-49190198D01*
X104519591Y-48900331D01*
X103763725Y-48899671D01*
X103065143Y-49188319D01*
X102530198Y-49722331D01*
X102240331Y-50420409D01*
X102239671Y-51176275D01*
X100959671Y-51176275D01*
X100960329Y-50423725D01*
X100671681Y-49725143D01*
X100137669Y-49190198D01*
X99439591Y-48900331D01*
X98683725Y-48899671D01*
X97985143Y-49188319D01*
X97450198Y-49722331D01*
X97160331Y-50420409D01*
X97159671Y-51176275D01*
X96620000Y-51176275D01*
X96620000Y-44596863D01*
X98819723Y-44596863D01*
X99062795Y-45185143D01*
X99512489Y-45635623D01*
X100100344Y-45879722D01*
X100736863Y-45880277D01*
X101325143Y-45637205D01*
X101775623Y-45187511D01*
X102019722Y-44599656D01*
X102020277Y-43963137D01*
X101777205Y-43374857D01*
X101327511Y-42924377D01*
X100739656Y-42680278D01*
X100103137Y-42679723D01*
X99514857Y-42922795D01*
X99064377Y-43372489D01*
X98820278Y-43960344D01*
X98819723Y-44596863D01*
X96620000Y-44596863D01*
X96620000Y-42000596D01*
X104911536Y-42000596D01*
X105026364Y-42265180D01*
X105662742Y-42494107D01*
X106338285Y-42462077D01*
X106813636Y-42265180D01*
X106928464Y-42000596D01*
X105920000Y-40992132D01*
X104911536Y-42000596D01*
X96620000Y-42000596D01*
X96620000Y-40522742D01*
X104205893Y-40522742D01*
X104237923Y-41198285D01*
X104434820Y-41673636D01*
X104699404Y-41788464D01*
X105707868Y-40780000D01*
X106132132Y-40780000D01*
X107140596Y-41788464D01*
X107405180Y-41673636D01*
X107634107Y-41037258D01*
X107602077Y-40361715D01*
X107405180Y-39886364D01*
X107140596Y-39771536D01*
X106132132Y-40780000D01*
X105707868Y-40780000D01*
X104699404Y-39771536D01*
X104434820Y-39886364D01*
X104205893Y-40522742D01*
X96620000Y-40522742D01*
X96620000Y-40046422D01*
X97107018Y-39559404D01*
X104911536Y-39559404D01*
X105920000Y-40567868D01*
X106928464Y-39559404D01*
X106813636Y-39294820D01*
X106177258Y-39065893D01*
X105501715Y-39097923D01*
X105026364Y-39294820D01*
X104911536Y-39559404D01*
X97107018Y-39559404D01*
X97831422Y-38835000D01*
X100965000Y-38835000D01*
X101003268Y-38827388D01*
X101035711Y-38805711D01*
X101271422Y-38570000D01*
X126960205Y-38570000D01*
X126960205Y-40170000D01*
X126999011Y-40365090D01*
X127109520Y-40530480D01*
X127274910Y-40640989D01*
X127470000Y-40679795D01*
X129070000Y-40679795D01*
X129265090Y-40640989D01*
X129430480Y-40530480D01*
X129535640Y-40373095D01*
X132559037Y-40373095D01*
X132636977Y-40606588D01*
X133164474Y-40785320D01*
X133720216Y-40748583D01*
X134063023Y-40606588D01*
X134140963Y-40373095D01*
X133350000Y-39582132D01*
X132559037Y-40373095D01*
X129535640Y-40373095D01*
X129540989Y-40365090D01*
X129579795Y-40170000D01*
X129579795Y-39184474D01*
X131934680Y-39184474D01*
X131971417Y-39740216D01*
X132113412Y-40083023D01*
X132346905Y-40160963D01*
X133137868Y-39370000D01*
X133562132Y-39370000D01*
X134353095Y-40160963D01*
X134586588Y-40083023D01*
X134765320Y-39555526D01*
X134728583Y-38999784D01*
X134586588Y-38656977D01*
X134353095Y-38579037D01*
X133562132Y-39370000D01*
X133137868Y-39370000D01*
X132346905Y-38579037D01*
X132113412Y-38656977D01*
X131934680Y-39184474D01*
X129579795Y-39184474D01*
X129579795Y-38570000D01*
X129540989Y-38374910D01*
X129535641Y-38366905D01*
X132559037Y-38366905D01*
X133350000Y-39157868D01*
X134140963Y-38366905D01*
X134063023Y-38133412D01*
X133535526Y-37954680D01*
X132979784Y-37991417D01*
X132636977Y-38133412D01*
X132559037Y-38366905D01*
X129535641Y-38366905D01*
X129430480Y-38209520D01*
X129265090Y-38099011D01*
X129070000Y-38060205D01*
X127470000Y-38060205D01*
X127274910Y-38099011D01*
X127109520Y-38209520D01*
X126999011Y-38374910D01*
X126960205Y-38570000D01*
X101271422Y-38570000D01*
X102305711Y-37535711D01*
X102327388Y-37503268D01*
X102335000Y-37465000D01*
X102335000Y-35837256D01*
X106529437Y-35837256D01*
X106742125Y-36352000D01*
X107135608Y-36746170D01*
X107649981Y-36959757D01*
X108206936Y-36960243D01*
X108721680Y-36747555D01*
X109115850Y-36354072D01*
X109199622Y-36152327D01*
X109282125Y-36352000D01*
X109675608Y-36746170D01*
X110189981Y-36959757D01*
X110746936Y-36960243D01*
X111261680Y-36747555D01*
X111655850Y-36354072D01*
X111869437Y-35839699D01*
X111869439Y-35837256D01*
X112879437Y-35837256D01*
X113092125Y-36352000D01*
X113485608Y-36746170D01*
X113999981Y-36959757D01*
X114556936Y-36960243D01*
X115071680Y-36747555D01*
X115465850Y-36354072D01*
X115549622Y-36152327D01*
X115632125Y-36352000D01*
X116025608Y-36746170D01*
X116539981Y-36959757D01*
X117096936Y-36960243D01*
X117323881Y-36866471D01*
X141189688Y-36866471D01*
X141463145Y-37528286D01*
X141969051Y-38035076D01*
X142630387Y-38309687D01*
X143346471Y-38310312D01*
X144008286Y-38036855D01*
X144515076Y-37530949D01*
X144789687Y-36869613D01*
X144790312Y-36153529D01*
X144516855Y-35491714D01*
X144010949Y-34984924D01*
X143349613Y-34710313D01*
X142633529Y-34709688D01*
X141971714Y-34983145D01*
X141464924Y-35489051D01*
X141190313Y-36150387D01*
X141189688Y-36866471D01*
X117323881Y-36866471D01*
X117611680Y-36747555D01*
X118005850Y-36354072D01*
X118219437Y-35839699D01*
X118219923Y-35282744D01*
X118007235Y-34768000D01*
X117613752Y-34373830D01*
X117099379Y-34160243D01*
X116542424Y-34159757D01*
X116027680Y-34372445D01*
X115633510Y-34765928D01*
X115549738Y-34967673D01*
X115467235Y-34768000D01*
X115073752Y-34373830D01*
X114559379Y-34160243D01*
X114002424Y-34159757D01*
X113487680Y-34372445D01*
X113093510Y-34765928D01*
X112879923Y-35280301D01*
X112879437Y-35837256D01*
X111869439Y-35837256D01*
X111869923Y-35282744D01*
X111657235Y-34768000D01*
X111263752Y-34373830D01*
X110749379Y-34160243D01*
X110192424Y-34159757D01*
X109677680Y-34372445D01*
X109283510Y-34765928D01*
X109199738Y-34967673D01*
X109117235Y-34768000D01*
X108723752Y-34373830D01*
X108209379Y-34160243D01*
X107652424Y-34159757D01*
X107137680Y-34372445D01*
X106743510Y-34765928D01*
X106529923Y-35280301D01*
X106529437Y-35837256D01*
X102335000Y-35837256D01*
X102335000Y-34331422D01*
X103546422Y-33120000D01*
X172043578Y-33120000D01*
X173255000Y-34331422D01*
G36*
X175851000Y-106249959D02*
X169082939Y-113018021D01*
X165664828Y-113018021D01*
X165497036Y-112849936D01*
X165239850Y-112743143D01*
X164961372Y-112742900D01*
X164704000Y-112849244D01*
X164506915Y-113045985D01*
X164400122Y-113303171D01*
X164399879Y-113581649D01*
X164506223Y-113839021D01*
X164610057Y-113943036D01*
X164506915Y-114045998D01*
X164400122Y-114303184D01*
X164399879Y-114581662D01*
X164506223Y-114839034D01*
X164610057Y-114943049D01*
X164506915Y-115046011D01*
X164400122Y-115303197D01*
X164399879Y-115581675D01*
X164506223Y-115839047D01*
X164610057Y-115943062D01*
X164506915Y-116046024D01*
X164400122Y-116303210D01*
X164399879Y-116581688D01*
X164506223Y-116839060D01*
X164702964Y-117036145D01*
X164960150Y-117142938D01*
X165238628Y-117143181D01*
X165496000Y-117036837D01*
X165665072Y-116868060D01*
X190896940Y-116868060D01*
X191038008Y-116840000D01*
X191059581Y-116835709D01*
X191197460Y-116743580D01*
X194520000Y-113421040D01*
X194520000Y-131268960D01*
X193003960Y-132785000D01*
X189082794Y-132785000D01*
X188977903Y-132531143D01*
X188640633Y-132193283D01*
X188199742Y-132010209D01*
X187722353Y-132009793D01*
X187281143Y-132192097D01*
X186943283Y-132529367D01*
X186760209Y-132970258D01*
X186759793Y-133447647D01*
X186942097Y-133888857D01*
X187279367Y-134226717D01*
X187720258Y-134409791D01*
X188197647Y-134410207D01*
X188638857Y-134227903D01*
X188976717Y-133890633D01*
X189082865Y-133635000D01*
X193180000Y-133635000D01*
X193315657Y-133608016D01*
X193342641Y-133602649D01*
X193480520Y-133510520D01*
X195245520Y-131745520D01*
X195337649Y-131607641D01*
X195370000Y-131445000D01*
X195370000Y-113075801D01*
X195381022Y-113020389D01*
X195381022Y-107257444D01*
X195480000Y-107356422D01*
X195480000Y-149818578D01*
X194268578Y-151030000D01*
X191135000Y-151030000D01*
X191096732Y-151037612D01*
X191064289Y-151059289D01*
X189794289Y-152329289D01*
X189772612Y-152361732D01*
X189765000Y-152400000D01*
X189765000Y-155533578D01*
X188847381Y-156451197D01*
X188847381Y-155566500D01*
X186192619Y-155566500D01*
X186192619Y-156745000D01*
X133391422Y-156745000D01*
X132180000Y-155533578D01*
X132180000Y-150077844D01*
X132249810Y-150077844D01*
X132416922Y-150482286D01*
X132726087Y-150791991D01*
X133130237Y-150959808D01*
X133567844Y-150960190D01*
X133972286Y-150793078D01*
X134281991Y-150483913D01*
X134449808Y-150079763D01*
X134449809Y-150077844D01*
X134789810Y-150077844D01*
X134956922Y-150482286D01*
X135266087Y-150791991D01*
X135670237Y-150959808D01*
X136107844Y-150960190D01*
X136512286Y-150793078D01*
X136821991Y-150483913D01*
X136989808Y-150079763D01*
X136990190Y-149642156D01*
X136823078Y-149237714D01*
X136513913Y-148928009D01*
X136109763Y-148760192D01*
X135672156Y-148759810D01*
X135267714Y-148926922D01*
X134958009Y-149236087D01*
X134790192Y-149640237D01*
X134789810Y-150077844D01*
X134449809Y-150077844D01*
X134450190Y-149642156D01*
X134283078Y-149237714D01*
X133973913Y-148928009D01*
X133569763Y-148760192D01*
X133132156Y-148759810D01*
X132727714Y-148926922D01*
X132418009Y-149236087D01*
X132250192Y-149640237D01*
X132249810Y-150077844D01*
X132180000Y-150077844D01*
X132180000Y-137204214D01*
X132357106Y-137027108D01*
X132388722Y-136979791D01*
X132573879Y-136702684D01*
X132649999Y-136320001D01*
X132649999Y-132935770D01*
X132726087Y-133011991D01*
X133130237Y-133179808D01*
X133567844Y-133180190D01*
X133972286Y-133013078D01*
X134281991Y-132703913D01*
X134449808Y-132299763D01*
X134449809Y-132297844D01*
X134789810Y-132297844D01*
X134956922Y-132702286D01*
X135266087Y-133011991D01*
X135670237Y-133179808D01*
X136107844Y-133180190D01*
X136512286Y-133013078D01*
X136821991Y-132703913D01*
X136989808Y-132299763D01*
X136990190Y-131862156D01*
X136823078Y-131457714D01*
X136513913Y-131148009D01*
X136109763Y-130980192D01*
X135672156Y-130979810D01*
X135267714Y-131146922D01*
X134958009Y-131456087D01*
X134790192Y-131860237D01*
X134789810Y-132297844D01*
X134449809Y-132297844D01*
X134450190Y-131862156D01*
X134283078Y-131457714D01*
X133973913Y-131148009D01*
X133569763Y-130980192D01*
X133324236Y-130979978D01*
X134057104Y-130247109D01*
X134057107Y-130247107D01*
X134273880Y-129922683D01*
X134350000Y-129540000D01*
X134350000Y-120650000D01*
X134273880Y-120267317D01*
X134057107Y-119942893D01*
X133137627Y-119023413D01*
X132813204Y-118806640D01*
X132797838Y-118803584D01*
X133391422Y-118210000D01*
X136735000Y-118210000D01*
X136735000Y-121984123D01*
X136260000Y-121984123D01*
X136142946Y-122007407D01*
X136043712Y-122073712D01*
X135977407Y-122172946D01*
X135954123Y-122290000D01*
X135954123Y-124090000D01*
X135977407Y-124207054D01*
X136043712Y-124306288D01*
X136142946Y-124372593D01*
X136260000Y-124395877D01*
X138060000Y-124395877D01*
X138177054Y-124372593D01*
X138276288Y-124306288D01*
X138342593Y-124207054D01*
X138365877Y-124090000D01*
X138365877Y-123427647D01*
X138499793Y-123427647D01*
X138682097Y-123868857D01*
X139019367Y-124206717D01*
X139460258Y-124389791D01*
X139937647Y-124390207D01*
X140378857Y-124207903D01*
X140716717Y-123870633D01*
X140899791Y-123429742D01*
X140899792Y-123427647D01*
X141039793Y-123427647D01*
X141222097Y-123868857D01*
X141559367Y-124206717D01*
X142000258Y-124389791D01*
X142477647Y-124390207D01*
X142918857Y-124207903D01*
X143256717Y-123870633D01*
X143439791Y-123429742D01*
X143440207Y-122952353D01*
X143257903Y-122511143D01*
X142920633Y-122173283D01*
X142479742Y-121990209D01*
X142002353Y-121989793D01*
X141561143Y-122172097D01*
X141223283Y-122509367D01*
X141040209Y-122950258D01*
X141039793Y-123427647D01*
X140899792Y-123427647D01*
X140900207Y-122952353D01*
X140717903Y-122511143D01*
X140380633Y-122173283D01*
X139939742Y-121990209D01*
X139462353Y-121989793D01*
X139021143Y-122172097D01*
X138683283Y-122509367D01*
X138500209Y-122950258D01*
X138499793Y-123427647D01*
X138365877Y-123427647D01*
X138365877Y-122290000D01*
X138342593Y-122172946D01*
X138276288Y-122073712D01*
X138177054Y-122007407D01*
X138060000Y-121984123D01*
X137585000Y-121984123D01*
X137585000Y-118210000D01*
X143643959Y-118210000D01*
X143720000Y-118286041D01*
X143720000Y-133173959D01*
X143333960Y-133560000D01*
X135890000Y-133560000D01*
X135727359Y-133592351D01*
X135589480Y-133684479D01*
X134827480Y-134446480D01*
X134735351Y-134584359D01*
X134735351Y-134584360D01*
X134703000Y-134747000D01*
X134703000Y-135071172D01*
X134534915Y-135238964D01*
X134428122Y-135496150D01*
X134427879Y-135774628D01*
X134534223Y-136032000D01*
X134730964Y-136229085D01*
X134988150Y-136335878D01*
X135266628Y-136336121D01*
X135524000Y-136229777D01*
X135721085Y-136033036D01*
X135827878Y-135775850D01*
X135828121Y-135497372D01*
X135721777Y-135240000D01*
X135553000Y-135070928D01*
X135553000Y-134923040D01*
X136066041Y-134410000D01*
X143510000Y-134410000D01*
X143645739Y-134383000D01*
X143672641Y-134377649D01*
X143810520Y-134285520D01*
X144415000Y-133681041D01*
X144415000Y-134205786D01*
X143730786Y-134890000D01*
X140679918Y-134890000D01*
X140494072Y-134703830D01*
X139979699Y-134490243D01*
X139422744Y-134489757D01*
X138908000Y-134702445D01*
X138513830Y-135095928D01*
X138365877Y-135452237D01*
X138365877Y-134990000D01*
X138342593Y-134872946D01*
X138276288Y-134773712D01*
X138177054Y-134707407D01*
X138060000Y-134684123D01*
X136260000Y-134684123D01*
X136142946Y-134707407D01*
X136043712Y-134773712D01*
X135977407Y-134872946D01*
X135954123Y-134990000D01*
X135954123Y-136494837D01*
X135589480Y-136859480D01*
X135497351Y-136997359D01*
X135497351Y-136997360D01*
X135465000Y-137160000D01*
X135465000Y-147390172D01*
X135296915Y-147557964D01*
X135190122Y-147815150D01*
X135189879Y-148093628D01*
X135296223Y-148351000D01*
X135492964Y-148548085D01*
X135750150Y-148654878D01*
X136028628Y-148655121D01*
X136286000Y-148548777D01*
X136483085Y-148352036D01*
X136589878Y-148094850D01*
X136590121Y-147816372D01*
X136483777Y-147559000D01*
X136315000Y-147389928D01*
X136315000Y-146188628D01*
X142174879Y-146188628D01*
X142281223Y-146446000D01*
X142450000Y-146615072D01*
X142450000Y-148025172D01*
X142281915Y-148192964D01*
X142175122Y-148450150D01*
X142174879Y-148728628D01*
X142281223Y-148986000D01*
X142477964Y-149183085D01*
X142735150Y-149289878D01*
X143013628Y-149290121D01*
X143271000Y-149183777D01*
X143468085Y-148987036D01*
X143554053Y-148780000D01*
X148360000Y-148780000D01*
X148360000Y-149499347D01*
X148451344Y-149719872D01*
X148620127Y-149888655D01*
X148840652Y-149980000D01*
X149560000Y-149980000D01*
X149710000Y-149830000D01*
X149710000Y-148630000D01*
X148510000Y-148630000D01*
X148360000Y-148780000D01*
X143554053Y-148780000D01*
X143574878Y-148729850D01*
X143575121Y-148451372D01*
X143468777Y-148194000D01*
X143300000Y-148024928D01*
X143300000Y-147460653D01*
X148360000Y-147460653D01*
X148360000Y-148180000D01*
X148510000Y-148330000D01*
X149710000Y-148330000D01*
X149710000Y-148310000D01*
X150010000Y-148310000D01*
X150010000Y-148330000D01*
X150030000Y-148330000D01*
X150030000Y-148630000D01*
X150010000Y-148630000D01*
X150010000Y-149830000D01*
X150160000Y-149980000D01*
X150879348Y-149980000D01*
X151099873Y-149888655D01*
X151268656Y-149719872D01*
X151330488Y-149570597D01*
X151426013Y-149666122D01*
X151536477Y-149555658D01*
X151626736Y-149799502D01*
X152190549Y-149994976D01*
X152786249Y-149959809D01*
X153173264Y-149799502D01*
X153263524Y-149555656D01*
X152400000Y-148692132D01*
X152385858Y-148706275D01*
X152173726Y-148494143D01*
X152187868Y-148480000D01*
X152612132Y-148480000D01*
X153475656Y-149343524D01*
X153719502Y-149253264D01*
X153883582Y-148780000D01*
X183920000Y-148780000D01*
X183920000Y-149499347D01*
X184011344Y-149719872D01*
X184180127Y-149888655D01*
X184400652Y-149980000D01*
X185120000Y-149980000D01*
X185270000Y-149830000D01*
X185270000Y-148630000D01*
X184070000Y-148630000D01*
X183920000Y-148780000D01*
X153883582Y-148780000D01*
X153914976Y-148689451D01*
X153879809Y-148093751D01*
X153719502Y-147706736D01*
X153475656Y-147616476D01*
X152612132Y-148480000D01*
X152187868Y-148480000D01*
X152173726Y-148465858D01*
X152385858Y-148253726D01*
X152400000Y-148267868D01*
X153207215Y-147460653D01*
X183920000Y-147460653D01*
X183920000Y-148180000D01*
X184070000Y-148330000D01*
X185270000Y-148330000D01*
X185270000Y-148310000D01*
X185570000Y-148310000D01*
X185570000Y-148330000D01*
X185590000Y-148330000D01*
X185590000Y-148630000D01*
X185570000Y-148630000D01*
X185570000Y-149830000D01*
X185720000Y-149980000D01*
X186439348Y-149980000D01*
X186659873Y-149888655D01*
X186828656Y-149719872D01*
X186899274Y-149549383D01*
X186986013Y-149636122D01*
X187096477Y-149525658D01*
X187186736Y-149769502D01*
X187750549Y-149964976D01*
X188346249Y-149929809D01*
X188733264Y-149769502D01*
X188823524Y-149525656D01*
X187960000Y-148662132D01*
X187945858Y-148676275D01*
X187733726Y-148464143D01*
X187747868Y-148450000D01*
X188172132Y-148450000D01*
X189035656Y-149313524D01*
X189279502Y-149223264D01*
X189474976Y-148659451D01*
X189439809Y-148063751D01*
X189279502Y-147676736D01*
X189035656Y-147586476D01*
X188172132Y-148450000D01*
X187747868Y-148450000D01*
X187733726Y-148435858D01*
X187945858Y-148223726D01*
X187960000Y-148237868D01*
X188823524Y-147374344D01*
X188733264Y-147130498D01*
X188415320Y-147020267D01*
X188638857Y-146927903D01*
X188976717Y-146590633D01*
X189159791Y-146149742D01*
X189160207Y-145672353D01*
X188977903Y-145231143D01*
X188640633Y-144893283D01*
X188199742Y-144710209D01*
X187722353Y-144709793D01*
X187281143Y-144892097D01*
X186943283Y-145229367D01*
X186760209Y-145670258D01*
X186759793Y-146147647D01*
X186942097Y-146588857D01*
X187279367Y-146926717D01*
X187478791Y-147009525D01*
X187186736Y-147130498D01*
X187096477Y-147374342D01*
X186986013Y-147263878D01*
X186881701Y-147368190D01*
X186828656Y-147240128D01*
X186659873Y-147071345D01*
X186439348Y-146980000D01*
X186045378Y-146980000D01*
X186098857Y-146957903D01*
X186436717Y-146620633D01*
X186619791Y-146179742D01*
X186620207Y-145702353D01*
X186437903Y-145261143D01*
X186100633Y-144923283D01*
X185659742Y-144740209D01*
X185182353Y-144739793D01*
X184741143Y-144922097D01*
X184403283Y-145259367D01*
X184220209Y-145700258D01*
X184219793Y-146177647D01*
X184402097Y-146618857D01*
X184739367Y-146956717D01*
X184795439Y-146980000D01*
X184400652Y-146980000D01*
X184180127Y-147071345D01*
X184011344Y-147240128D01*
X183920000Y-147460653D01*
X153207215Y-147460653D01*
X153263524Y-147404344D01*
X153173264Y-147160498D01*
X152855320Y-147050267D01*
X153078857Y-146957903D01*
X153416717Y-146620633D01*
X153599791Y-146179742D01*
X153600207Y-145702353D01*
X153417903Y-145261143D01*
X153080633Y-144923283D01*
X152639742Y-144740209D01*
X152162353Y-144739793D01*
X151721143Y-144922097D01*
X151383283Y-145259367D01*
X151200209Y-145700258D01*
X151199793Y-146177647D01*
X151382097Y-146618857D01*
X151719367Y-146956717D01*
X151918791Y-147039525D01*
X151626736Y-147160498D01*
X151536477Y-147404342D01*
X151426013Y-147293878D01*
X151330488Y-147389403D01*
X151268656Y-147240128D01*
X151099873Y-147071345D01*
X150879348Y-146980000D01*
X150485378Y-146980000D01*
X150538857Y-146957903D01*
X150876717Y-146620633D01*
X151059791Y-146179742D01*
X151060207Y-145702353D01*
X150877903Y-145261143D01*
X150540633Y-144923283D01*
X150099742Y-144740209D01*
X149622353Y-144739793D01*
X149181143Y-144922097D01*
X148843283Y-145259367D01*
X148660209Y-145700258D01*
X148659793Y-146177647D01*
X148842097Y-146618857D01*
X149179367Y-146956717D01*
X149235439Y-146980000D01*
X148840652Y-146980000D01*
X148620127Y-147071345D01*
X148451344Y-147240128D01*
X148360000Y-147460653D01*
X143300000Y-147460653D01*
X143300000Y-146614828D01*
X143468085Y-146447036D01*
X143574878Y-146189850D01*
X143575121Y-145911372D01*
X143468777Y-145654000D01*
X143272036Y-145456915D01*
X143014850Y-145350122D01*
X142736372Y-145349879D01*
X142479000Y-145456223D01*
X142281915Y-145652964D01*
X142175122Y-145910150D01*
X142174879Y-146188628D01*
X136315000Y-146188628D01*
X136315000Y-143637647D01*
X148659793Y-143637647D01*
X148842097Y-144078857D01*
X149179367Y-144416717D01*
X149620258Y-144599791D01*
X150097647Y-144600207D01*
X150538857Y-144417903D01*
X150876717Y-144080633D01*
X151059791Y-143639742D01*
X151059792Y-143637647D01*
X151199793Y-143637647D01*
X151382097Y-144078857D01*
X151719367Y-144416717D01*
X152160258Y-144599791D01*
X152637647Y-144600207D01*
X153078857Y-144417903D01*
X153416717Y-144080633D01*
X153599791Y-143639742D01*
X153599792Y-143637647D01*
X184219793Y-143637647D01*
X184402097Y-144078857D01*
X184739367Y-144416717D01*
X185180258Y-144599791D01*
X185657647Y-144600207D01*
X186098857Y-144417903D01*
X186436717Y-144080633D01*
X186619791Y-143639742D01*
X186619792Y-143637647D01*
X186759793Y-143637647D01*
X186942097Y-144078857D01*
X187279367Y-144416717D01*
X187720258Y-144599791D01*
X188197647Y-144600207D01*
X188638857Y-144417903D01*
X188976717Y-144080633D01*
X189159791Y-143639742D01*
X189160207Y-143162353D01*
X188977903Y-142721143D01*
X188640633Y-142383283D01*
X188199742Y-142200209D01*
X187722353Y-142199793D01*
X187281143Y-142382097D01*
X186943283Y-142719367D01*
X186760209Y-143160258D01*
X186759793Y-143637647D01*
X186619792Y-143637647D01*
X186620207Y-143162353D01*
X186437903Y-142721143D01*
X186100633Y-142383283D01*
X185659742Y-142200209D01*
X185182353Y-142199793D01*
X184741143Y-142382097D01*
X184403283Y-142719367D01*
X184220209Y-143160258D01*
X184219793Y-143637647D01*
X153599792Y-143637647D01*
X153600207Y-143162353D01*
X153417903Y-142721143D01*
X153080633Y-142383283D01*
X152639742Y-142200209D01*
X152162353Y-142199793D01*
X151721143Y-142382097D01*
X151383283Y-142719367D01*
X151200209Y-143160258D01*
X151199793Y-143637647D01*
X151059792Y-143637647D01*
X151060207Y-143162353D01*
X150877903Y-142721143D01*
X150540633Y-142383283D01*
X150099742Y-142200209D01*
X149622353Y-142199793D01*
X149181143Y-142382097D01*
X148843283Y-142719367D01*
X148660209Y-143160258D01*
X148659793Y-143637647D01*
X136315000Y-143637647D01*
X136315000Y-142175877D01*
X138060000Y-142175877D01*
X138177054Y-142152593D01*
X138276288Y-142086288D01*
X138342593Y-141987054D01*
X138365877Y-141870000D01*
X138365877Y-141207647D01*
X138499793Y-141207647D01*
X138682097Y-141648857D01*
X139019367Y-141986717D01*
X139460258Y-142169791D01*
X139937647Y-142170207D01*
X140378857Y-141987903D01*
X140716717Y-141650633D01*
X140899791Y-141209742D01*
X140900207Y-140732353D01*
X140717903Y-140291143D01*
X140380633Y-139953283D01*
X139939742Y-139770209D01*
X139462353Y-139769793D01*
X139021143Y-139952097D01*
X138683283Y-140289367D01*
X138500209Y-140730258D01*
X138499793Y-141207647D01*
X138365877Y-141207647D01*
X138365877Y-140070000D01*
X138342593Y-139952946D01*
X138276288Y-139853712D01*
X138177054Y-139787407D01*
X138060000Y-139764123D01*
X136315000Y-139764123D01*
X136315000Y-137336040D01*
X136555163Y-137095877D01*
X138060000Y-137095877D01*
X138177054Y-137072593D01*
X138276288Y-137006288D01*
X138342593Y-136907054D01*
X138365877Y-136790000D01*
X138365877Y-136327279D01*
X138512445Y-136682000D01*
X138905928Y-137076170D01*
X139420301Y-137289757D01*
X139977256Y-137290243D01*
X140492000Y-137077555D01*
X140679882Y-136890000D01*
X144145000Y-136890000D01*
X144527684Y-136813880D01*
X144852107Y-136597107D01*
X146122107Y-135327107D01*
X146181002Y-135238964D01*
X146338880Y-135002683D01*
X146415000Y-134620000D01*
X146415000Y-117886422D01*
X146644869Y-117656553D01*
X146620122Y-117716150D01*
X146619879Y-117994628D01*
X146726223Y-118252000D01*
X146922964Y-118449085D01*
X147180150Y-118555878D01*
X147403000Y-118556072D01*
X147403000Y-128397000D01*
X147429984Y-128532657D01*
X147435351Y-128559641D01*
X147527480Y-128697520D01*
X148543480Y-129713520D01*
X148681359Y-129805649D01*
X148708343Y-129811016D01*
X148844000Y-129838000D01*
X149024967Y-129838000D01*
X148843283Y-130019367D01*
X148660209Y-130460258D01*
X148659793Y-130937647D01*
X148765495Y-131193465D01*
X147527480Y-132431480D01*
X147435351Y-132569359D01*
X147435351Y-132569360D01*
X147403000Y-132732000D01*
X147403000Y-140031959D01*
X146889960Y-140545000D01*
X143362794Y-140545000D01*
X143257903Y-140291143D01*
X142920633Y-139953283D01*
X142479742Y-139770209D01*
X142002353Y-139769793D01*
X141561143Y-139952097D01*
X141223283Y-140289367D01*
X141040209Y-140730258D01*
X141039793Y-141207647D01*
X141222097Y-141648857D01*
X141559367Y-141986717D01*
X142000258Y-142169791D01*
X142477647Y-142170207D01*
X142918857Y-141987903D01*
X143256717Y-141650633D01*
X143362865Y-141395000D01*
X147066000Y-141395000D01*
X147201657Y-141368016D01*
X147228641Y-141362649D01*
X147366520Y-141270520D01*
X147539393Y-141097647D01*
X148659793Y-141097647D01*
X148842097Y-141538857D01*
X149179367Y-141876717D01*
X149620258Y-142059791D01*
X150097647Y-142060207D01*
X150538857Y-141877903D01*
X150876717Y-141540633D01*
X151059791Y-141099742D01*
X151059792Y-141097647D01*
X151199793Y-141097647D01*
X151382097Y-141538857D01*
X151719367Y-141876717D01*
X152160258Y-142059791D01*
X152637647Y-142060207D01*
X153078857Y-141877903D01*
X153416717Y-141540633D01*
X153599791Y-141099742D01*
X153599792Y-141097647D01*
X184219793Y-141097647D01*
X184402097Y-141538857D01*
X184739367Y-141876717D01*
X185180258Y-142059791D01*
X185657647Y-142060207D01*
X186098857Y-141877903D01*
X186436717Y-141540633D01*
X186619791Y-141099742D01*
X186619818Y-141067647D01*
X186759793Y-141067647D01*
X186942097Y-141508857D01*
X187279367Y-141846717D01*
X187720258Y-142029791D01*
X188197647Y-142030207D01*
X188638857Y-141847903D01*
X188976717Y-141510633D01*
X189159791Y-141069742D01*
X189160207Y-140592353D01*
X188977903Y-140151143D01*
X188640633Y-139813283D01*
X188199742Y-139630209D01*
X187722353Y-139629793D01*
X187281143Y-139812097D01*
X186943283Y-140149367D01*
X186760209Y-140590258D01*
X186759793Y-141067647D01*
X186619818Y-141067647D01*
X186620207Y-140622353D01*
X186437903Y-140181143D01*
X186100633Y-139843283D01*
X185659742Y-139660209D01*
X185182353Y-139659793D01*
X184741143Y-139842097D01*
X184403283Y-140179367D01*
X184220209Y-140620258D01*
X184219793Y-141097647D01*
X153599792Y-141097647D01*
X153600207Y-140622353D01*
X153417903Y-140181143D01*
X153080633Y-139843283D01*
X152639742Y-139660209D01*
X152162353Y-139659793D01*
X151721143Y-139842097D01*
X151383283Y-140179367D01*
X151200209Y-140620258D01*
X151199793Y-141097647D01*
X151059792Y-141097647D01*
X151060207Y-140622353D01*
X150877903Y-140181143D01*
X150540633Y-139843283D01*
X150099742Y-139660209D01*
X149622353Y-139659793D01*
X149181143Y-139842097D01*
X148843283Y-140179367D01*
X148660209Y-140620258D01*
X148659793Y-141097647D01*
X147539393Y-141097647D01*
X148128521Y-140508520D01*
X148220649Y-140370641D01*
X148253000Y-140208000D01*
X148253000Y-138557647D01*
X148659793Y-138557647D01*
X148842097Y-138998857D01*
X149179367Y-139336717D01*
X149620258Y-139519791D01*
X150097647Y-139520207D01*
X150538857Y-139337903D01*
X150876717Y-139000633D01*
X151059791Y-138559742D01*
X151059792Y-138557647D01*
X151199793Y-138557647D01*
X151382097Y-138998857D01*
X151719367Y-139336717D01*
X152160258Y-139519791D01*
X152637647Y-139520207D01*
X153078857Y-139337903D01*
X153416717Y-139000633D01*
X153599791Y-138559742D01*
X153599792Y-138557647D01*
X184219793Y-138557647D01*
X184402097Y-138998857D01*
X184739367Y-139336717D01*
X185180258Y-139519791D01*
X185657647Y-139520207D01*
X186098857Y-139337903D01*
X186436717Y-139000633D01*
X186619791Y-138559742D01*
X186619818Y-138527647D01*
X186759793Y-138527647D01*
X186942097Y-138968857D01*
X187279367Y-139306717D01*
X187720258Y-139489791D01*
X188197647Y-139490207D01*
X188638857Y-139307903D01*
X188976717Y-138970633D01*
X189159791Y-138529742D01*
X189160207Y-138052353D01*
X188977903Y-137611143D01*
X188640633Y-137273283D01*
X188199742Y-137090209D01*
X187722353Y-137089793D01*
X187281143Y-137272097D01*
X186943283Y-137609367D01*
X186760209Y-138050258D01*
X186759793Y-138527647D01*
X186619818Y-138527647D01*
X186620207Y-138082353D01*
X186437903Y-137641143D01*
X186100633Y-137303283D01*
X185659742Y-137120209D01*
X185182353Y-137119793D01*
X184741143Y-137302097D01*
X184403283Y-137639367D01*
X184220209Y-138080258D01*
X184219793Y-138557647D01*
X153599792Y-138557647D01*
X153600207Y-138082353D01*
X153417903Y-137641143D01*
X153080633Y-137303283D01*
X152639742Y-137120209D01*
X152162353Y-137119793D01*
X151721143Y-137302097D01*
X151383283Y-137639367D01*
X151200209Y-138080258D01*
X151199793Y-138557647D01*
X151059792Y-138557647D01*
X151060207Y-138082353D01*
X150877903Y-137641143D01*
X150540633Y-137303283D01*
X150099742Y-137120209D01*
X149622353Y-137119793D01*
X149181143Y-137302097D01*
X148843283Y-137639367D01*
X148660209Y-138080258D01*
X148659793Y-138557647D01*
X148253000Y-138557647D01*
X148253000Y-132908040D01*
X149366584Y-131794456D01*
X149620258Y-131899791D01*
X150097647Y-131900207D01*
X150538857Y-131717903D01*
X150705000Y-131552050D01*
X150705000Y-132387938D01*
X150540633Y-132223283D01*
X150099742Y-132040209D01*
X149622353Y-132039793D01*
X149181143Y-132222097D01*
X148843283Y-132559367D01*
X148660209Y-133000258D01*
X148659793Y-133477647D01*
X148842097Y-133918857D01*
X149179367Y-134256717D01*
X149620258Y-134439791D01*
X150097647Y-134440207D01*
X150538857Y-134257903D01*
X150705000Y-134092050D01*
X150705000Y-134333959D01*
X150459482Y-134579478D01*
X150459479Y-134579480D01*
X150353416Y-134685544D01*
X150099742Y-134580209D01*
X149622353Y-134579793D01*
X149181143Y-134762097D01*
X148843283Y-135099367D01*
X148660209Y-135540258D01*
X148659793Y-136017647D01*
X148842097Y-136458857D01*
X149179367Y-136796717D01*
X149620258Y-136979791D01*
X150097647Y-136980207D01*
X150538857Y-136797903D01*
X150876717Y-136460633D01*
X151059791Y-136019742D01*
X151060207Y-135542353D01*
X150954505Y-135286535D01*
X151060520Y-135180521D01*
X151060522Y-135180518D01*
X151430520Y-134810521D01*
X151522648Y-134672641D01*
X151522649Y-134672640D01*
X151555000Y-134510000D01*
X151555000Y-134092062D01*
X151719367Y-134256717D01*
X152160258Y-134439791D01*
X152637647Y-134440207D01*
X153078857Y-134257903D01*
X153372000Y-133965272D01*
X153372000Y-134206959D01*
X152999482Y-134579478D01*
X152999479Y-134579480D01*
X152893416Y-134685544D01*
X152639742Y-134580209D01*
X152162353Y-134579793D01*
X151721143Y-134762097D01*
X151383283Y-135099367D01*
X151200209Y-135540258D01*
X151199793Y-136017647D01*
X151382097Y-136458857D01*
X151719367Y-136796717D01*
X152160258Y-136979791D01*
X152637647Y-136980207D01*
X153078857Y-136797903D01*
X153416717Y-136460633D01*
X153599791Y-136019742D01*
X153599792Y-136017647D01*
X184219793Y-136017647D01*
X184402097Y-136458857D01*
X184739367Y-136796717D01*
X185180258Y-136979791D01*
X185657647Y-136980207D01*
X186098857Y-136797903D01*
X186436717Y-136460633D01*
X186619791Y-136019742D01*
X186619818Y-135987647D01*
X186759793Y-135987647D01*
X186942097Y-136428857D01*
X187279367Y-136766717D01*
X187720258Y-136949791D01*
X188197647Y-136950207D01*
X188638857Y-136767903D01*
X188976717Y-136430633D01*
X189159791Y-135989742D01*
X189160207Y-135512353D01*
X188977903Y-135071143D01*
X188640633Y-134733283D01*
X188199742Y-134550209D01*
X187722353Y-134549793D01*
X187281143Y-134732097D01*
X186943283Y-135069367D01*
X186760209Y-135510258D01*
X186759793Y-135987647D01*
X186619818Y-135987647D01*
X186620207Y-135542353D01*
X186437903Y-135101143D01*
X186100633Y-134763283D01*
X185659742Y-134580209D01*
X185182353Y-134579793D01*
X184741143Y-134762097D01*
X184403283Y-135099367D01*
X184220209Y-135540258D01*
X184219793Y-136017647D01*
X153599792Y-136017647D01*
X153600207Y-135542353D01*
X153494505Y-135286535D01*
X153600520Y-135180521D01*
X153600522Y-135180518D01*
X154097521Y-134683520D01*
X154189649Y-134545641D01*
X154222000Y-134383000D01*
X154222000Y-133477647D01*
X184219793Y-133477647D01*
X184402097Y-133918857D01*
X184739367Y-134256717D01*
X185180258Y-134439791D01*
X185657647Y-134440207D01*
X186098857Y-134257903D01*
X186436717Y-133920633D01*
X186619791Y-133479742D01*
X186620207Y-133002353D01*
X186437903Y-132561143D01*
X186100633Y-132223283D01*
X185659742Y-132040209D01*
X185182353Y-132039793D01*
X184741143Y-132222097D01*
X184403283Y-132559367D01*
X184220209Y-133000258D01*
X184219793Y-133477647D01*
X154222000Y-133477647D01*
X154222000Y-130937647D01*
X184219793Y-130937647D01*
X184402097Y-131378857D01*
X184739367Y-131716717D01*
X185180258Y-131899791D01*
X185657647Y-131900207D01*
X186098857Y-131717903D01*
X186436717Y-131380633D01*
X186619791Y-130939742D01*
X186619818Y-130907647D01*
X186759793Y-130907647D01*
X186942097Y-131348857D01*
X187279367Y-131686717D01*
X187720258Y-131869791D01*
X188197647Y-131870207D01*
X188638857Y-131687903D01*
X188976717Y-131350633D01*
X189159791Y-130909742D01*
X189160207Y-130432353D01*
X188977903Y-129991143D01*
X188640633Y-129653283D01*
X188199742Y-129470209D01*
X187722353Y-129469793D01*
X187281143Y-129652097D01*
X186943283Y-129989367D01*
X186760209Y-130430258D01*
X186759793Y-130907647D01*
X186619818Y-130907647D01*
X186620207Y-130462353D01*
X186437903Y-130021143D01*
X186100633Y-129683283D01*
X185659742Y-129500209D01*
X185182353Y-129499793D01*
X184741143Y-129682097D01*
X184403283Y-130019367D01*
X184220209Y-130460258D01*
X184219793Y-130937647D01*
X154222000Y-130937647D01*
X154222000Y-127743998D01*
X154189649Y-127581358D01*
X154122687Y-127481143D01*
X154097520Y-127443477D01*
X153600024Y-126945981D01*
X161779645Y-126945981D01*
X162091081Y-127699715D01*
X162667252Y-128276892D01*
X163420441Y-128589643D01*
X164235981Y-128590355D01*
X164702370Y-128397647D01*
X184219793Y-128397647D01*
X184402097Y-128838857D01*
X184739367Y-129176717D01*
X185180258Y-129359791D01*
X185657647Y-129360207D01*
X186098857Y-129177903D01*
X186436717Y-128840633D01*
X186619791Y-128399742D01*
X186619818Y-128367647D01*
X186759793Y-128367647D01*
X186942097Y-128808857D01*
X187279367Y-129146717D01*
X187720258Y-129329791D01*
X188197647Y-129330207D01*
X188638857Y-129147903D01*
X188976717Y-128810633D01*
X189159791Y-128369742D01*
X189160207Y-127892353D01*
X188977903Y-127451143D01*
X188640633Y-127113283D01*
X188199742Y-126930209D01*
X187722353Y-126929793D01*
X187281143Y-127112097D01*
X186943283Y-127449367D01*
X186760209Y-127890258D01*
X186759793Y-128367647D01*
X186619818Y-128367647D01*
X186620207Y-127922353D01*
X186437903Y-127481143D01*
X186100633Y-127143283D01*
X185659742Y-126960209D01*
X185182353Y-126959793D01*
X184741143Y-127142097D01*
X184403283Y-127479367D01*
X184220209Y-127920258D01*
X184219793Y-128397647D01*
X164702370Y-128397647D01*
X164989715Y-128278919D01*
X165566892Y-127702748D01*
X165879643Y-126949559D01*
X165880355Y-126134019D01*
X165766161Y-125857647D01*
X184219793Y-125857647D01*
X184402097Y-126298857D01*
X184739367Y-126636717D01*
X185180258Y-126819791D01*
X185657647Y-126820207D01*
X186098857Y-126637903D01*
X186436717Y-126300633D01*
X186619791Y-125859742D01*
X186619818Y-125827647D01*
X186759793Y-125827647D01*
X186942097Y-126268857D01*
X187279367Y-126606717D01*
X187720258Y-126789791D01*
X188197647Y-126790207D01*
X188638857Y-126607903D01*
X188976717Y-126270633D01*
X189159791Y-125829742D01*
X189160207Y-125352353D01*
X188977903Y-124911143D01*
X188640633Y-124573283D01*
X188199742Y-124390209D01*
X187722353Y-124389793D01*
X187281143Y-124572097D01*
X186943283Y-124909367D01*
X186760209Y-125350258D01*
X186759793Y-125827647D01*
X186619818Y-125827647D01*
X186620207Y-125382353D01*
X186437903Y-124941143D01*
X186100633Y-124603283D01*
X185659742Y-124420209D01*
X185182353Y-124419793D01*
X184741143Y-124602097D01*
X184403283Y-124939367D01*
X184220209Y-125380258D01*
X184219793Y-125857647D01*
X165766161Y-125857647D01*
X165568919Y-125380285D01*
X164992748Y-124803108D01*
X164239559Y-124490357D01*
X163424019Y-124489645D01*
X162670285Y-124801081D01*
X162093108Y-125377252D01*
X161780357Y-126130441D01*
X161779645Y-126945981D01*
X153600024Y-126945981D01*
X153226522Y-126572480D01*
X153177325Y-126539607D01*
X153416717Y-126300633D01*
X153599791Y-125859742D01*
X153600207Y-125382353D01*
X153417903Y-124941143D01*
X153080633Y-124603283D01*
X152639742Y-124420209D01*
X152162353Y-124419793D01*
X151721143Y-124602097D01*
X151555000Y-124767950D01*
X151555000Y-120142000D01*
X151522649Y-119979360D01*
X151492078Y-119933608D01*
X151430520Y-119841479D01*
X148527914Y-116938874D01*
X148528121Y-116701372D01*
X148421777Y-116444000D01*
X148225036Y-116246915D01*
X147967850Y-116140122D01*
X147689372Y-116139879D01*
X147432000Y-116246223D01*
X147420000Y-116258202D01*
X147420000Y-107356422D01*
X148631422Y-106145000D01*
X175851000Y-106145000D01*
X175851000Y-106249959D01*
X175851000Y-106249959D01*
G37*
X175851000Y-106249959D02*
X169082939Y-113018021D01*
X165664828Y-113018021D01*
X165497036Y-112849936D01*
X165239850Y-112743143D01*
X164961372Y-112742900D01*
X164704000Y-112849244D01*
X164506915Y-113045985D01*
X164400122Y-113303171D01*
X164399879Y-113581649D01*
X164506223Y-113839021D01*
X164610057Y-113943036D01*
X164506915Y-114045998D01*
X164400122Y-114303184D01*
X164399879Y-114581662D01*
X164506223Y-114839034D01*
X164610057Y-114943049D01*
X164506915Y-115046011D01*
X164400122Y-115303197D01*
X164399879Y-115581675D01*
X164506223Y-115839047D01*
X164610057Y-115943062D01*
X164506915Y-116046024D01*
X164400122Y-116303210D01*
X164399879Y-116581688D01*
X164506223Y-116839060D01*
X164702964Y-117036145D01*
X164960150Y-117142938D01*
X165238628Y-117143181D01*
X165496000Y-117036837D01*
X165665072Y-116868060D01*
X190896940Y-116868060D01*
X191038008Y-116840000D01*
X191059581Y-116835709D01*
X191197460Y-116743580D01*
X194520000Y-113421040D01*
X194520000Y-131268960D01*
X193003960Y-132785000D01*
X189082794Y-132785000D01*
X188977903Y-132531143D01*
X188640633Y-132193283D01*
X188199742Y-132010209D01*
X187722353Y-132009793D01*
X187281143Y-132192097D01*
X186943283Y-132529367D01*
X186760209Y-132970258D01*
X186759793Y-133447647D01*
X186942097Y-133888857D01*
X187279367Y-134226717D01*
X187720258Y-134409791D01*
X188197647Y-134410207D01*
X188638857Y-134227903D01*
X188976717Y-133890633D01*
X189082865Y-133635000D01*
X193180000Y-133635000D01*
X193315657Y-133608016D01*
X193342641Y-133602649D01*
X193480520Y-133510520D01*
X195245520Y-131745520D01*
X195337649Y-131607641D01*
X195370000Y-131445000D01*
X195370000Y-113075801D01*
X195381022Y-113020389D01*
X195381022Y-107257444D01*
X195480000Y-107356422D01*
X195480000Y-149818578D01*
X194268578Y-151030000D01*
X191135000Y-151030000D01*
X191096732Y-151037612D01*
X191064289Y-151059289D01*
X189794289Y-152329289D01*
X189772612Y-152361732D01*
X189765000Y-152400000D01*
X189765000Y-155533578D01*
X188847381Y-156451197D01*
X188847381Y-155566500D01*
X186192619Y-155566500D01*
X186192619Y-156745000D01*
X133391422Y-156745000D01*
X132180000Y-155533578D01*
X132180000Y-150077844D01*
X132249810Y-150077844D01*
X132416922Y-150482286D01*
X132726087Y-150791991D01*
X133130237Y-150959808D01*
X133567844Y-150960190D01*
X133972286Y-150793078D01*
X134281991Y-150483913D01*
X134449808Y-150079763D01*
X134449809Y-150077844D01*
X134789810Y-150077844D01*
X134956922Y-150482286D01*
X135266087Y-150791991D01*
X135670237Y-150959808D01*
X136107844Y-150960190D01*
X136512286Y-150793078D01*
X136821991Y-150483913D01*
X136989808Y-150079763D01*
X136990190Y-149642156D01*
X136823078Y-149237714D01*
X136513913Y-148928009D01*
X136109763Y-148760192D01*
X135672156Y-148759810D01*
X135267714Y-148926922D01*
X134958009Y-149236087D01*
X134790192Y-149640237D01*
X134789810Y-150077844D01*
X134449809Y-150077844D01*
X134450190Y-149642156D01*
X134283078Y-149237714D01*
X133973913Y-148928009D01*
X133569763Y-148760192D01*
X133132156Y-148759810D01*
X132727714Y-148926922D01*
X132418009Y-149236087D01*
X132250192Y-149640237D01*
X132249810Y-150077844D01*
X132180000Y-150077844D01*
X132180000Y-137204214D01*
X132357106Y-137027108D01*
X132388722Y-136979791D01*
X132573879Y-136702684D01*
X132649999Y-136320001D01*
X132649999Y-132935770D01*
X132726087Y-133011991D01*
X133130237Y-133179808D01*
X133567844Y-133180190D01*
X133972286Y-133013078D01*
X134281991Y-132703913D01*
X134449808Y-132299763D01*
X134449809Y-132297844D01*
X134789810Y-132297844D01*
X134956922Y-132702286D01*
X135266087Y-133011991D01*
X135670237Y-133179808D01*
X136107844Y-133180190D01*
X136512286Y-133013078D01*
X136821991Y-132703913D01*
X136989808Y-132299763D01*
X136990190Y-131862156D01*
X136823078Y-131457714D01*
X136513913Y-131148009D01*
X136109763Y-130980192D01*
X135672156Y-130979810D01*
X135267714Y-131146922D01*
X134958009Y-131456087D01*
X134790192Y-131860237D01*
X134789810Y-132297844D01*
X134449809Y-132297844D01*
X134450190Y-131862156D01*
X134283078Y-131457714D01*
X133973913Y-131148009D01*
X133569763Y-130980192D01*
X133324236Y-130979978D01*
X134057104Y-130247109D01*
X134057107Y-130247107D01*
X134273880Y-129922683D01*
X134350000Y-129540000D01*
X134350000Y-120650000D01*
X134273880Y-120267317D01*
X134057107Y-119942893D01*
X133137627Y-119023413D01*
X132813204Y-118806640D01*
X132797838Y-118803584D01*
X133391422Y-118210000D01*
X136735000Y-118210000D01*
X136735000Y-121984123D01*
X136260000Y-121984123D01*
X136142946Y-122007407D01*
X136043712Y-122073712D01*
X135977407Y-122172946D01*
X135954123Y-122290000D01*
X135954123Y-124090000D01*
X135977407Y-124207054D01*
X136043712Y-124306288D01*
X136142946Y-124372593D01*
X136260000Y-124395877D01*
X138060000Y-124395877D01*
X138177054Y-124372593D01*
X138276288Y-124306288D01*
X138342593Y-124207054D01*
X138365877Y-124090000D01*
X138365877Y-123427647D01*
X138499793Y-123427647D01*
X138682097Y-123868857D01*
X139019367Y-124206717D01*
X139460258Y-124389791D01*
X139937647Y-124390207D01*
X140378857Y-124207903D01*
X140716717Y-123870633D01*
X140899791Y-123429742D01*
X140899792Y-123427647D01*
X141039793Y-123427647D01*
X141222097Y-123868857D01*
X141559367Y-124206717D01*
X142000258Y-124389791D01*
X142477647Y-124390207D01*
X142918857Y-124207903D01*
X143256717Y-123870633D01*
X143439791Y-123429742D01*
X143440207Y-122952353D01*
X143257903Y-122511143D01*
X142920633Y-122173283D01*
X142479742Y-121990209D01*
X142002353Y-121989793D01*
X141561143Y-122172097D01*
X141223283Y-122509367D01*
X141040209Y-122950258D01*
X141039793Y-123427647D01*
X140899792Y-123427647D01*
X140900207Y-122952353D01*
X140717903Y-122511143D01*
X140380633Y-122173283D01*
X139939742Y-121990209D01*
X139462353Y-121989793D01*
X139021143Y-122172097D01*
X138683283Y-122509367D01*
X138500209Y-122950258D01*
X138499793Y-123427647D01*
X138365877Y-123427647D01*
X138365877Y-122290000D01*
X138342593Y-122172946D01*
X138276288Y-122073712D01*
X138177054Y-122007407D01*
X138060000Y-121984123D01*
X137585000Y-121984123D01*
X137585000Y-118210000D01*
X143643959Y-118210000D01*
X143720000Y-118286041D01*
X143720000Y-133173959D01*
X143333960Y-133560000D01*
X135890000Y-133560000D01*
X135727359Y-133592351D01*
X135589480Y-133684479D01*
X134827480Y-134446480D01*
X134735351Y-134584359D01*
X134735351Y-134584360D01*
X134703000Y-134747000D01*
X134703000Y-135071172D01*
X134534915Y-135238964D01*
X134428122Y-135496150D01*
X134427879Y-135774628D01*
X134534223Y-136032000D01*
X134730964Y-136229085D01*
X134988150Y-136335878D01*
X135266628Y-136336121D01*
X135524000Y-136229777D01*
X135721085Y-136033036D01*
X135827878Y-135775850D01*
X135828121Y-135497372D01*
X135721777Y-135240000D01*
X135553000Y-135070928D01*
X135553000Y-134923040D01*
X136066041Y-134410000D01*
X143510000Y-134410000D01*
X143645739Y-134383000D01*
X143672641Y-134377649D01*
X143810520Y-134285520D01*
X144415000Y-133681041D01*
X144415000Y-134205786D01*
X143730786Y-134890000D01*
X140679918Y-134890000D01*
X140494072Y-134703830D01*
X139979699Y-134490243D01*
X139422744Y-134489757D01*
X138908000Y-134702445D01*
X138513830Y-135095928D01*
X138365877Y-135452237D01*
X138365877Y-134990000D01*
X138342593Y-134872946D01*
X138276288Y-134773712D01*
X138177054Y-134707407D01*
X138060000Y-134684123D01*
X136260000Y-134684123D01*
X136142946Y-134707407D01*
X136043712Y-134773712D01*
X135977407Y-134872946D01*
X135954123Y-134990000D01*
X135954123Y-136494837D01*
X135589480Y-136859480D01*
X135497351Y-136997359D01*
X135497351Y-136997360D01*
X135465000Y-137160000D01*
X135465000Y-147390172D01*
X135296915Y-147557964D01*
X135190122Y-147815150D01*
X135189879Y-148093628D01*
X135296223Y-148351000D01*
X135492964Y-148548085D01*
X135750150Y-148654878D01*
X136028628Y-148655121D01*
X136286000Y-148548777D01*
X136483085Y-148352036D01*
X136589878Y-148094850D01*
X136590121Y-147816372D01*
X136483777Y-147559000D01*
X136315000Y-147389928D01*
X136315000Y-146188628D01*
X142174879Y-146188628D01*
X142281223Y-146446000D01*
X142450000Y-146615072D01*
X142450000Y-148025172D01*
X142281915Y-148192964D01*
X142175122Y-148450150D01*
X142174879Y-148728628D01*
X142281223Y-148986000D01*
X142477964Y-149183085D01*
X142735150Y-149289878D01*
X143013628Y-149290121D01*
X143271000Y-149183777D01*
X143468085Y-148987036D01*
X143554053Y-148780000D01*
X148360000Y-148780000D01*
X148360000Y-149499347D01*
X148451344Y-149719872D01*
X148620127Y-149888655D01*
X148840652Y-149980000D01*
X149560000Y-149980000D01*
X149710000Y-149830000D01*
X149710000Y-148630000D01*
X148510000Y-148630000D01*
X148360000Y-148780000D01*
X143554053Y-148780000D01*
X143574878Y-148729850D01*
X143575121Y-148451372D01*
X143468777Y-148194000D01*
X143300000Y-148024928D01*
X143300000Y-147460653D01*
X148360000Y-147460653D01*
X148360000Y-148180000D01*
X148510000Y-148330000D01*
X149710000Y-148330000D01*
X149710000Y-148310000D01*
X150010000Y-148310000D01*
X150010000Y-148330000D01*
X150030000Y-148330000D01*
X150030000Y-148630000D01*
X150010000Y-148630000D01*
X150010000Y-149830000D01*
X150160000Y-149980000D01*
X150879348Y-149980000D01*
X151099873Y-149888655D01*
X151268656Y-149719872D01*
X151330488Y-149570597D01*
X151426013Y-149666122D01*
X151536477Y-149555658D01*
X151626736Y-149799502D01*
X152190549Y-149994976D01*
X152786249Y-149959809D01*
X153173264Y-149799502D01*
X153263524Y-149555656D01*
X152400000Y-148692132D01*
X152385858Y-148706275D01*
X152173726Y-148494143D01*
X152187868Y-148480000D01*
X152612132Y-148480000D01*
X153475656Y-149343524D01*
X153719502Y-149253264D01*
X153883582Y-148780000D01*
X183920000Y-148780000D01*
X183920000Y-149499347D01*
X184011344Y-149719872D01*
X184180127Y-149888655D01*
X184400652Y-149980000D01*
X185120000Y-149980000D01*
X185270000Y-149830000D01*
X185270000Y-148630000D01*
X184070000Y-148630000D01*
X183920000Y-148780000D01*
X153883582Y-148780000D01*
X153914976Y-148689451D01*
X153879809Y-148093751D01*
X153719502Y-147706736D01*
X153475656Y-147616476D01*
X152612132Y-148480000D01*
X152187868Y-148480000D01*
X152173726Y-148465858D01*
X152385858Y-148253726D01*
X152400000Y-148267868D01*
X153207215Y-147460653D01*
X183920000Y-147460653D01*
X183920000Y-148180000D01*
X184070000Y-148330000D01*
X185270000Y-148330000D01*
X185270000Y-148310000D01*
X185570000Y-148310000D01*
X185570000Y-148330000D01*
X185590000Y-148330000D01*
X185590000Y-148630000D01*
X185570000Y-148630000D01*
X185570000Y-149830000D01*
X185720000Y-149980000D01*
X186439348Y-149980000D01*
X186659873Y-149888655D01*
X186828656Y-149719872D01*
X186899274Y-149549383D01*
X186986013Y-149636122D01*
X187096477Y-149525658D01*
X187186736Y-149769502D01*
X187750549Y-149964976D01*
X188346249Y-149929809D01*
X188733264Y-149769502D01*
X188823524Y-149525656D01*
X187960000Y-148662132D01*
X187945858Y-148676275D01*
X187733726Y-148464143D01*
X187747868Y-148450000D01*
X188172132Y-148450000D01*
X189035656Y-149313524D01*
X189279502Y-149223264D01*
X189474976Y-148659451D01*
X189439809Y-148063751D01*
X189279502Y-147676736D01*
X189035656Y-147586476D01*
X188172132Y-148450000D01*
X187747868Y-148450000D01*
X187733726Y-148435858D01*
X187945858Y-148223726D01*
X187960000Y-148237868D01*
X188823524Y-147374344D01*
X188733264Y-147130498D01*
X188415320Y-147020267D01*
X188638857Y-146927903D01*
X188976717Y-146590633D01*
X189159791Y-146149742D01*
X189160207Y-145672353D01*
X188977903Y-145231143D01*
X188640633Y-144893283D01*
X188199742Y-144710209D01*
X187722353Y-144709793D01*
X187281143Y-144892097D01*
X186943283Y-145229367D01*
X186760209Y-145670258D01*
X186759793Y-146147647D01*
X186942097Y-146588857D01*
X187279367Y-146926717D01*
X187478791Y-147009525D01*
X187186736Y-147130498D01*
X187096477Y-147374342D01*
X186986013Y-147263878D01*
X186881701Y-147368190D01*
X186828656Y-147240128D01*
X186659873Y-147071345D01*
X186439348Y-146980000D01*
X186045378Y-146980000D01*
X186098857Y-146957903D01*
X186436717Y-146620633D01*
X186619791Y-146179742D01*
X186620207Y-145702353D01*
X186437903Y-145261143D01*
X186100633Y-144923283D01*
X185659742Y-144740209D01*
X185182353Y-144739793D01*
X184741143Y-144922097D01*
X184403283Y-145259367D01*
X184220209Y-145700258D01*
X184219793Y-146177647D01*
X184402097Y-146618857D01*
X184739367Y-146956717D01*
X184795439Y-146980000D01*
X184400652Y-146980000D01*
X184180127Y-147071345D01*
X184011344Y-147240128D01*
X183920000Y-147460653D01*
X153207215Y-147460653D01*
X153263524Y-147404344D01*
X153173264Y-147160498D01*
X152855320Y-147050267D01*
X153078857Y-146957903D01*
X153416717Y-146620633D01*
X153599791Y-146179742D01*
X153600207Y-145702353D01*
X153417903Y-145261143D01*
X153080633Y-144923283D01*
X152639742Y-144740209D01*
X152162353Y-144739793D01*
X151721143Y-144922097D01*
X151383283Y-145259367D01*
X151200209Y-145700258D01*
X151199793Y-146177647D01*
X151382097Y-146618857D01*
X151719367Y-146956717D01*
X151918791Y-147039525D01*
X151626736Y-147160498D01*
X151536477Y-147404342D01*
X151426013Y-147293878D01*
X151330488Y-147389403D01*
X151268656Y-147240128D01*
X151099873Y-147071345D01*
X150879348Y-146980000D01*
X150485378Y-146980000D01*
X150538857Y-146957903D01*
X150876717Y-146620633D01*
X151059791Y-146179742D01*
X151060207Y-145702353D01*
X150877903Y-145261143D01*
X150540633Y-144923283D01*
X150099742Y-144740209D01*
X149622353Y-144739793D01*
X149181143Y-144922097D01*
X148843283Y-145259367D01*
X148660209Y-145700258D01*
X148659793Y-146177647D01*
X148842097Y-146618857D01*
X149179367Y-146956717D01*
X149235439Y-146980000D01*
X148840652Y-146980000D01*
X148620127Y-147071345D01*
X148451344Y-147240128D01*
X148360000Y-147460653D01*
X143300000Y-147460653D01*
X143300000Y-146614828D01*
X143468085Y-146447036D01*
X143574878Y-146189850D01*
X143575121Y-145911372D01*
X143468777Y-145654000D01*
X143272036Y-145456915D01*
X143014850Y-145350122D01*
X142736372Y-145349879D01*
X142479000Y-145456223D01*
X142281915Y-145652964D01*
X142175122Y-145910150D01*
X142174879Y-146188628D01*
X136315000Y-146188628D01*
X136315000Y-143637647D01*
X148659793Y-143637647D01*
X148842097Y-144078857D01*
X149179367Y-144416717D01*
X149620258Y-144599791D01*
X150097647Y-144600207D01*
X150538857Y-144417903D01*
X150876717Y-144080633D01*
X151059791Y-143639742D01*
X151059792Y-143637647D01*
X151199793Y-143637647D01*
X151382097Y-144078857D01*
X151719367Y-144416717D01*
X152160258Y-144599791D01*
X152637647Y-144600207D01*
X153078857Y-144417903D01*
X153416717Y-144080633D01*
X153599791Y-143639742D01*
X153599792Y-143637647D01*
X184219793Y-143637647D01*
X184402097Y-144078857D01*
X184739367Y-144416717D01*
X185180258Y-144599791D01*
X185657647Y-144600207D01*
X186098857Y-144417903D01*
X186436717Y-144080633D01*
X186619791Y-143639742D01*
X186619792Y-143637647D01*
X186759793Y-143637647D01*
X186942097Y-144078857D01*
X187279367Y-144416717D01*
X187720258Y-144599791D01*
X188197647Y-144600207D01*
X188638857Y-144417903D01*
X188976717Y-144080633D01*
X189159791Y-143639742D01*
X189160207Y-143162353D01*
X188977903Y-142721143D01*
X188640633Y-142383283D01*
X188199742Y-142200209D01*
X187722353Y-142199793D01*
X187281143Y-142382097D01*
X186943283Y-142719367D01*
X186760209Y-143160258D01*
X186759793Y-143637647D01*
X186619792Y-143637647D01*
X186620207Y-143162353D01*
X186437903Y-142721143D01*
X186100633Y-142383283D01*
X185659742Y-142200209D01*
X185182353Y-142199793D01*
X184741143Y-142382097D01*
X184403283Y-142719367D01*
X184220209Y-143160258D01*
X184219793Y-143637647D01*
X153599792Y-143637647D01*
X153600207Y-143162353D01*
X153417903Y-142721143D01*
X153080633Y-142383283D01*
X152639742Y-142200209D01*
X152162353Y-142199793D01*
X151721143Y-142382097D01*
X151383283Y-142719367D01*
X151200209Y-143160258D01*
X151199793Y-143637647D01*
X151059792Y-143637647D01*
X151060207Y-143162353D01*
X150877903Y-142721143D01*
X150540633Y-142383283D01*
X150099742Y-142200209D01*
X149622353Y-142199793D01*
X149181143Y-142382097D01*
X148843283Y-142719367D01*
X148660209Y-143160258D01*
X148659793Y-143637647D01*
X136315000Y-143637647D01*
X136315000Y-142175877D01*
X138060000Y-142175877D01*
X138177054Y-142152593D01*
X138276288Y-142086288D01*
X138342593Y-141987054D01*
X138365877Y-141870000D01*
X138365877Y-141207647D01*
X138499793Y-141207647D01*
X138682097Y-141648857D01*
X139019367Y-141986717D01*
X139460258Y-142169791D01*
X139937647Y-142170207D01*
X140378857Y-141987903D01*
X140716717Y-141650633D01*
X140899791Y-141209742D01*
X140900207Y-140732353D01*
X140717903Y-140291143D01*
X140380633Y-139953283D01*
X139939742Y-139770209D01*
X139462353Y-139769793D01*
X139021143Y-139952097D01*
X138683283Y-140289367D01*
X138500209Y-140730258D01*
X138499793Y-141207647D01*
X138365877Y-141207647D01*
X138365877Y-140070000D01*
X138342593Y-139952946D01*
X138276288Y-139853712D01*
X138177054Y-139787407D01*
X138060000Y-139764123D01*
X136315000Y-139764123D01*
X136315000Y-137336040D01*
X136555163Y-137095877D01*
X138060000Y-137095877D01*
X138177054Y-137072593D01*
X138276288Y-137006288D01*
X138342593Y-136907054D01*
X138365877Y-136790000D01*
X138365877Y-136327279D01*
X138512445Y-136682000D01*
X138905928Y-137076170D01*
X139420301Y-137289757D01*
X139977256Y-137290243D01*
X140492000Y-137077555D01*
X140679882Y-136890000D01*
X144145000Y-136890000D01*
X144527684Y-136813880D01*
X144852107Y-136597107D01*
X146122107Y-135327107D01*
X146181002Y-135238964D01*
X146338880Y-135002683D01*
X146415000Y-134620000D01*
X146415000Y-117886422D01*
X146644869Y-117656553D01*
X146620122Y-117716150D01*
X146619879Y-117994628D01*
X146726223Y-118252000D01*
X146922964Y-118449085D01*
X147180150Y-118555878D01*
X147403000Y-118556072D01*
X147403000Y-128397000D01*
X147429984Y-128532657D01*
X147435351Y-128559641D01*
X147527480Y-128697520D01*
X148543480Y-129713520D01*
X148681359Y-129805649D01*
X148708343Y-129811016D01*
X148844000Y-129838000D01*
X149024967Y-129838000D01*
X148843283Y-130019367D01*
X148660209Y-130460258D01*
X148659793Y-130937647D01*
X148765495Y-131193465D01*
X147527480Y-132431480D01*
X147435351Y-132569359D01*
X147435351Y-132569360D01*
X147403000Y-132732000D01*
X147403000Y-140031959D01*
X146889960Y-140545000D01*
X143362794Y-140545000D01*
X143257903Y-140291143D01*
X142920633Y-139953283D01*
X142479742Y-139770209D01*
X142002353Y-139769793D01*
X141561143Y-139952097D01*
X141223283Y-140289367D01*
X141040209Y-140730258D01*
X141039793Y-141207647D01*
X141222097Y-141648857D01*
X141559367Y-141986717D01*
X142000258Y-142169791D01*
X142477647Y-142170207D01*
X142918857Y-141987903D01*
X143256717Y-141650633D01*
X143362865Y-141395000D01*
X147066000Y-141395000D01*
X147201657Y-141368016D01*
X147228641Y-141362649D01*
X147366520Y-141270520D01*
X147539393Y-141097647D01*
X148659793Y-141097647D01*
X148842097Y-141538857D01*
X149179367Y-141876717D01*
X149620258Y-142059791D01*
X150097647Y-142060207D01*
X150538857Y-141877903D01*
X150876717Y-141540633D01*
X151059791Y-141099742D01*
X151059792Y-141097647D01*
X151199793Y-141097647D01*
X151382097Y-141538857D01*
X151719367Y-141876717D01*
X152160258Y-142059791D01*
X152637647Y-142060207D01*
X153078857Y-141877903D01*
X153416717Y-141540633D01*
X153599791Y-141099742D01*
X153599792Y-141097647D01*
X184219793Y-141097647D01*
X184402097Y-141538857D01*
X184739367Y-141876717D01*
X185180258Y-142059791D01*
X185657647Y-142060207D01*
X186098857Y-141877903D01*
X186436717Y-141540633D01*
X186619791Y-141099742D01*
X186619818Y-141067647D01*
X186759793Y-141067647D01*
X186942097Y-141508857D01*
X187279367Y-141846717D01*
X187720258Y-142029791D01*
X188197647Y-142030207D01*
X188638857Y-141847903D01*
X188976717Y-141510633D01*
X189159791Y-141069742D01*
X189160207Y-140592353D01*
X188977903Y-140151143D01*
X188640633Y-139813283D01*
X188199742Y-139630209D01*
X187722353Y-139629793D01*
X187281143Y-139812097D01*
X186943283Y-140149367D01*
X186760209Y-140590258D01*
X186759793Y-141067647D01*
X186619818Y-141067647D01*
X186620207Y-140622353D01*
X186437903Y-140181143D01*
X186100633Y-139843283D01*
X185659742Y-139660209D01*
X185182353Y-139659793D01*
X184741143Y-139842097D01*
X184403283Y-140179367D01*
X184220209Y-140620258D01*
X184219793Y-141097647D01*
X153599792Y-141097647D01*
X153600207Y-140622353D01*
X153417903Y-140181143D01*
X153080633Y-139843283D01*
X152639742Y-139660209D01*
X152162353Y-139659793D01*
X151721143Y-139842097D01*
X151383283Y-140179367D01*
X151200209Y-140620258D01*
X151199793Y-141097647D01*
X151059792Y-141097647D01*
X151060207Y-140622353D01*
X150877903Y-140181143D01*
X150540633Y-139843283D01*
X150099742Y-139660209D01*
X149622353Y-139659793D01*
X149181143Y-139842097D01*
X148843283Y-140179367D01*
X148660209Y-140620258D01*
X148659793Y-141097647D01*
X147539393Y-141097647D01*
X148128521Y-140508520D01*
X148220649Y-140370641D01*
X148253000Y-140208000D01*
X148253000Y-138557647D01*
X148659793Y-138557647D01*
X148842097Y-138998857D01*
X149179367Y-139336717D01*
X149620258Y-139519791D01*
X150097647Y-139520207D01*
X150538857Y-139337903D01*
X150876717Y-139000633D01*
X151059791Y-138559742D01*
X151059792Y-138557647D01*
X151199793Y-138557647D01*
X151382097Y-138998857D01*
X151719367Y-139336717D01*
X152160258Y-139519791D01*
X152637647Y-139520207D01*
X153078857Y-139337903D01*
X153416717Y-139000633D01*
X153599791Y-138559742D01*
X153599792Y-138557647D01*
X184219793Y-138557647D01*
X184402097Y-138998857D01*
X184739367Y-139336717D01*
X185180258Y-139519791D01*
X185657647Y-139520207D01*
X186098857Y-139337903D01*
X186436717Y-139000633D01*
X186619791Y-138559742D01*
X186619818Y-138527647D01*
X186759793Y-138527647D01*
X186942097Y-138968857D01*
X187279367Y-139306717D01*
X187720258Y-139489791D01*
X188197647Y-139490207D01*
X188638857Y-139307903D01*
X188976717Y-138970633D01*
X189159791Y-138529742D01*
X189160207Y-138052353D01*
X188977903Y-137611143D01*
X188640633Y-137273283D01*
X188199742Y-137090209D01*
X187722353Y-137089793D01*
X187281143Y-137272097D01*
X186943283Y-137609367D01*
X186760209Y-138050258D01*
X186759793Y-138527647D01*
X186619818Y-138527647D01*
X186620207Y-138082353D01*
X186437903Y-137641143D01*
X186100633Y-137303283D01*
X185659742Y-137120209D01*
X185182353Y-137119793D01*
X184741143Y-137302097D01*
X184403283Y-137639367D01*
X184220209Y-138080258D01*
X184219793Y-138557647D01*
X153599792Y-138557647D01*
X153600207Y-138082353D01*
X153417903Y-137641143D01*
X153080633Y-137303283D01*
X152639742Y-137120209D01*
X152162353Y-137119793D01*
X151721143Y-137302097D01*
X151383283Y-137639367D01*
X151200209Y-138080258D01*
X151199793Y-138557647D01*
X151059792Y-138557647D01*
X151060207Y-138082353D01*
X150877903Y-137641143D01*
X150540633Y-137303283D01*
X150099742Y-137120209D01*
X149622353Y-137119793D01*
X149181143Y-137302097D01*
X148843283Y-137639367D01*
X148660209Y-138080258D01*
X148659793Y-138557647D01*
X148253000Y-138557647D01*
X148253000Y-132908040D01*
X149366584Y-131794456D01*
X149620258Y-131899791D01*
X150097647Y-131900207D01*
X150538857Y-131717903D01*
X150705000Y-131552050D01*
X150705000Y-132387938D01*
X150540633Y-132223283D01*
X150099742Y-132040209D01*
X149622353Y-132039793D01*
X149181143Y-132222097D01*
X148843283Y-132559367D01*
X148660209Y-133000258D01*
X148659793Y-133477647D01*
X148842097Y-133918857D01*
X149179367Y-134256717D01*
X149620258Y-134439791D01*
X150097647Y-134440207D01*
X150538857Y-134257903D01*
X150705000Y-134092050D01*
X150705000Y-134333959D01*
X150459482Y-134579478D01*
X150459479Y-134579480D01*
X150353416Y-134685544D01*
X150099742Y-134580209D01*
X149622353Y-134579793D01*
X149181143Y-134762097D01*
X148843283Y-135099367D01*
X148660209Y-135540258D01*
X148659793Y-136017647D01*
X148842097Y-136458857D01*
X149179367Y-136796717D01*
X149620258Y-136979791D01*
X150097647Y-136980207D01*
X150538857Y-136797903D01*
X150876717Y-136460633D01*
X151059791Y-136019742D01*
X151060207Y-135542353D01*
X150954505Y-135286535D01*
X151060520Y-135180521D01*
X151060522Y-135180518D01*
X151430520Y-134810521D01*
X151522648Y-134672641D01*
X151522649Y-134672640D01*
X151555000Y-134510000D01*
X151555000Y-134092062D01*
X151719367Y-134256717D01*
X152160258Y-134439791D01*
X152637647Y-134440207D01*
X153078857Y-134257903D01*
X153372000Y-133965272D01*
X153372000Y-134206959D01*
X152999482Y-134579478D01*
X152999479Y-134579480D01*
X152893416Y-134685544D01*
X152639742Y-134580209D01*
X152162353Y-134579793D01*
X151721143Y-134762097D01*
X151383283Y-135099367D01*
X151200209Y-135540258D01*
X151199793Y-136017647D01*
X151382097Y-136458857D01*
X151719367Y-136796717D01*
X152160258Y-136979791D01*
X152637647Y-136980207D01*
X153078857Y-136797903D01*
X153416717Y-136460633D01*
X153599791Y-136019742D01*
X153599792Y-136017647D01*
X184219793Y-136017647D01*
X184402097Y-136458857D01*
X184739367Y-136796717D01*
X185180258Y-136979791D01*
X185657647Y-136980207D01*
X186098857Y-136797903D01*
X186436717Y-136460633D01*
X186619791Y-136019742D01*
X186619818Y-135987647D01*
X186759793Y-135987647D01*
X186942097Y-136428857D01*
X187279367Y-136766717D01*
X187720258Y-136949791D01*
X188197647Y-136950207D01*
X188638857Y-136767903D01*
X188976717Y-136430633D01*
X189159791Y-135989742D01*
X189160207Y-135512353D01*
X188977903Y-135071143D01*
X188640633Y-134733283D01*
X188199742Y-134550209D01*
X187722353Y-134549793D01*
X187281143Y-134732097D01*
X186943283Y-135069367D01*
X186760209Y-135510258D01*
X186759793Y-135987647D01*
X186619818Y-135987647D01*
X186620207Y-135542353D01*
X186437903Y-135101143D01*
X186100633Y-134763283D01*
X185659742Y-134580209D01*
X185182353Y-134579793D01*
X184741143Y-134762097D01*
X184403283Y-135099367D01*
X184220209Y-135540258D01*
X184219793Y-136017647D01*
X153599792Y-136017647D01*
X153600207Y-135542353D01*
X153494505Y-135286535D01*
X153600520Y-135180521D01*
X153600522Y-135180518D01*
X154097521Y-134683520D01*
X154189649Y-134545641D01*
X154222000Y-134383000D01*
X154222000Y-133477647D01*
X184219793Y-133477647D01*
X184402097Y-133918857D01*
X184739367Y-134256717D01*
X185180258Y-134439791D01*
X185657647Y-134440207D01*
X186098857Y-134257903D01*
X186436717Y-133920633D01*
X186619791Y-133479742D01*
X186620207Y-133002353D01*
X186437903Y-132561143D01*
X186100633Y-132223283D01*
X185659742Y-132040209D01*
X185182353Y-132039793D01*
X184741143Y-132222097D01*
X184403283Y-132559367D01*
X184220209Y-133000258D01*
X184219793Y-133477647D01*
X154222000Y-133477647D01*
X154222000Y-130937647D01*
X184219793Y-130937647D01*
X184402097Y-131378857D01*
X184739367Y-131716717D01*
X185180258Y-131899791D01*
X185657647Y-131900207D01*
X186098857Y-131717903D01*
X186436717Y-131380633D01*
X186619791Y-130939742D01*
X186619818Y-130907647D01*
X186759793Y-130907647D01*
X186942097Y-131348857D01*
X187279367Y-131686717D01*
X187720258Y-131869791D01*
X188197647Y-131870207D01*
X188638857Y-131687903D01*
X188976717Y-131350633D01*
X189159791Y-130909742D01*
X189160207Y-130432353D01*
X188977903Y-129991143D01*
X188640633Y-129653283D01*
X188199742Y-129470209D01*
X187722353Y-129469793D01*
X187281143Y-129652097D01*
X186943283Y-129989367D01*
X186760209Y-130430258D01*
X186759793Y-130907647D01*
X186619818Y-130907647D01*
X186620207Y-130462353D01*
X186437903Y-130021143D01*
X186100633Y-129683283D01*
X185659742Y-129500209D01*
X185182353Y-129499793D01*
X184741143Y-129682097D01*
X184403283Y-130019367D01*
X184220209Y-130460258D01*
X184219793Y-130937647D01*
X154222000Y-130937647D01*
X154222000Y-127743998D01*
X154189649Y-127581358D01*
X154122687Y-127481143D01*
X154097520Y-127443477D01*
X153600024Y-126945981D01*
X161779645Y-126945981D01*
X162091081Y-127699715D01*
X162667252Y-128276892D01*
X163420441Y-128589643D01*
X164235981Y-128590355D01*
X164702370Y-128397647D01*
X184219793Y-128397647D01*
X184402097Y-128838857D01*
X184739367Y-129176717D01*
X185180258Y-129359791D01*
X185657647Y-129360207D01*
X186098857Y-129177903D01*
X186436717Y-128840633D01*
X186619791Y-128399742D01*
X186619818Y-128367647D01*
X186759793Y-128367647D01*
X186942097Y-128808857D01*
X187279367Y-129146717D01*
X187720258Y-129329791D01*
X188197647Y-129330207D01*
X188638857Y-129147903D01*
X188976717Y-128810633D01*
X189159791Y-128369742D01*
X189160207Y-127892353D01*
X188977903Y-127451143D01*
X188640633Y-127113283D01*
X188199742Y-126930209D01*
X187722353Y-126929793D01*
X187281143Y-127112097D01*
X186943283Y-127449367D01*
X186760209Y-127890258D01*
X186759793Y-128367647D01*
X186619818Y-128367647D01*
X186620207Y-127922353D01*
X186437903Y-127481143D01*
X186100633Y-127143283D01*
X185659742Y-126960209D01*
X185182353Y-126959793D01*
X184741143Y-127142097D01*
X184403283Y-127479367D01*
X184220209Y-127920258D01*
X184219793Y-128397647D01*
X164702370Y-128397647D01*
X164989715Y-128278919D01*
X165566892Y-127702748D01*
X165879643Y-126949559D01*
X165880355Y-126134019D01*
X165766161Y-125857647D01*
X184219793Y-125857647D01*
X184402097Y-126298857D01*
X184739367Y-126636717D01*
X185180258Y-126819791D01*
X185657647Y-126820207D01*
X186098857Y-126637903D01*
X186436717Y-126300633D01*
X186619791Y-125859742D01*
X186619818Y-125827647D01*
X186759793Y-125827647D01*
X186942097Y-126268857D01*
X187279367Y-126606717D01*
X187720258Y-126789791D01*
X188197647Y-126790207D01*
X188638857Y-126607903D01*
X188976717Y-126270633D01*
X189159791Y-125829742D01*
X189160207Y-125352353D01*
X188977903Y-124911143D01*
X188640633Y-124573283D01*
X188199742Y-124390209D01*
X187722353Y-124389793D01*
X187281143Y-124572097D01*
X186943283Y-124909367D01*
X186760209Y-125350258D01*
X186759793Y-125827647D01*
X186619818Y-125827647D01*
X186620207Y-125382353D01*
X186437903Y-124941143D01*
X186100633Y-124603283D01*
X185659742Y-124420209D01*
X185182353Y-124419793D01*
X184741143Y-124602097D01*
X184403283Y-124939367D01*
X184220209Y-125380258D01*
X184219793Y-125857647D01*
X165766161Y-125857647D01*
X165568919Y-125380285D01*
X164992748Y-124803108D01*
X164239559Y-124490357D01*
X163424019Y-124489645D01*
X162670285Y-124801081D01*
X162093108Y-125377252D01*
X161780357Y-126130441D01*
X161779645Y-126945981D01*
X153600024Y-126945981D01*
X153226522Y-126572480D01*
X153177325Y-126539607D01*
X153416717Y-126300633D01*
X153599791Y-125859742D01*
X153600207Y-125382353D01*
X153417903Y-124941143D01*
X153080633Y-124603283D01*
X152639742Y-124420209D01*
X152162353Y-124419793D01*
X151721143Y-124602097D01*
X151555000Y-124767950D01*
X151555000Y-120142000D01*
X151522649Y-119979360D01*
X151492078Y-119933608D01*
X151430520Y-119841479D01*
X148527914Y-116938874D01*
X148528121Y-116701372D01*
X148421777Y-116444000D01*
X148225036Y-116246915D01*
X147967850Y-116140122D01*
X147689372Y-116139879D01*
X147432000Y-116246223D01*
X147420000Y-116258202D01*
X147420000Y-107356422D01*
X148631422Y-106145000D01*
X175851000Y-106145000D01*
X175851000Y-106249959D01*
M02*
