G04 #@! TF.FileFunction,Copper,L2,Bot,Signal*
%FSLAX46Y46*%
G04 Gerber Fmt 4.6, Leading zero omitted, Abs format (unit mm)*
G04 Created by KiCad (PCBNEW (2015-08-30 BZR 6133)-product) date Fr 30 Okt 2015 20:41:11 CET*
%MOMM*%
G01*
G04 APERTURE LIST*
%ADD10C,0.100000*%
%ADD11C,0.150000*%
%ADD12R,1.143000X0.508000*%
%ADD13R,1.651000X1.651000*%
%ADD14C,1.600200*%
%ADD15C,1.524000*%
%ADD16R,1.524000X1.524000*%
%ADD17C,2.540000*%
%ADD18R,3.500120X1.600200*%
%ADD19R,0.889000X1.397000*%
%ADD20R,1.397000X0.889000*%
%ADD21C,3.500000*%
%ADD22C,0.800000*%
%ADD23C,0.600000*%
%ADD24C,0.600000*%
%ADD25C,0.300000*%
%ADD26C,0.254000*%
G04 APERTURE END LIST*
D10*
D11*
X113608095Y-84338215D02*
X114408095Y-84338215D01*
X114103333Y-84338215D02*
X114141429Y-84262024D01*
X114141429Y-84109643D01*
X114103333Y-84033453D01*
X114065238Y-83995358D01*
X113989048Y-83957262D01*
X113760476Y-83957262D01*
X113684286Y-83995358D01*
X113646190Y-84033453D01*
X113608095Y-84109643D01*
X113608095Y-84262024D01*
X113646190Y-84338215D01*
X113608095Y-83500119D02*
X113646190Y-83576310D01*
X113684286Y-83614405D01*
X113760476Y-83652500D01*
X113989048Y-83652500D01*
X114065238Y-83614405D01*
X114103333Y-83576310D01*
X114141429Y-83500119D01*
X114141429Y-83385833D01*
X114103333Y-83309643D01*
X114065238Y-83271548D01*
X113989048Y-83233452D01*
X113760476Y-83233452D01*
X113684286Y-83271548D01*
X113646190Y-83309643D01*
X113608095Y-83385833D01*
X113608095Y-83500119D01*
X114141429Y-83004881D02*
X114141429Y-82700119D01*
X114408095Y-82890595D02*
X113722381Y-82890595D01*
X113646190Y-82852500D01*
X113608095Y-82776309D01*
X113608095Y-82700119D01*
X114141429Y-82547738D02*
X114141429Y-82242976D01*
X114408095Y-82433452D02*
X113722381Y-82433452D01*
X113646190Y-82395357D01*
X113608095Y-82319166D01*
X113608095Y-82242976D01*
X113608095Y-81862023D02*
X113646190Y-81938214D01*
X113684286Y-81976309D01*
X113760476Y-82014404D01*
X113989048Y-82014404D01*
X114065238Y-81976309D01*
X114103333Y-81938214D01*
X114141429Y-81862023D01*
X114141429Y-81747737D01*
X114103333Y-81671547D01*
X114065238Y-81633452D01*
X113989048Y-81595356D01*
X113760476Y-81595356D01*
X113684286Y-81633452D01*
X113646190Y-81671547D01*
X113608095Y-81747737D01*
X113608095Y-81862023D01*
X113608095Y-81252499D02*
X114141429Y-81252499D01*
X114065238Y-81252499D02*
X114103333Y-81214404D01*
X114141429Y-81138213D01*
X114141429Y-81023927D01*
X114103333Y-80947737D01*
X114027143Y-80909642D01*
X113608095Y-80909642D01*
X114027143Y-80909642D02*
X114103333Y-80871546D01*
X114141429Y-80795356D01*
X114141429Y-80681070D01*
X114103333Y-80604880D01*
X114027143Y-80566785D01*
X113608095Y-80566785D01*
D12*
X92533000Y-102495000D03*
X97867000Y-102495000D03*
X92533000Y-103765000D03*
X92533000Y-105035000D03*
X92533000Y-106305000D03*
X97867000Y-103765000D03*
X97867000Y-105035000D03*
X97867000Y-106305000D03*
D13*
X88570000Y-83387500D03*
D14*
X88570000Y-80847500D03*
X91110000Y-83387500D03*
X91110000Y-80847500D03*
X93650000Y-83387500D03*
X93650000Y-80847500D03*
X96190000Y-83387500D03*
X96190000Y-80847500D03*
X98730000Y-83387500D03*
X98730000Y-80847500D03*
X101270000Y-83387500D03*
X101270000Y-80847500D03*
D15*
X103810000Y-83387500D03*
X103810000Y-80847500D03*
X106350000Y-83387500D03*
X106350000Y-80847500D03*
X108890000Y-83387500D03*
X108890000Y-80847500D03*
X111430000Y-83387500D03*
X111430000Y-80847500D03*
D16*
X93142000Y-109803500D03*
D15*
X95682000Y-109803500D03*
X98222000Y-109803500D03*
X100762000Y-109803500D03*
D17*
X87170000Y-89352500D03*
D18*
X109565640Y-111327500D03*
X105166360Y-111327500D03*
D19*
X102222500Y-95071500D03*
X100317500Y-95071500D03*
D20*
X92126000Y-98945000D03*
X92126000Y-100850000D03*
D13*
X88570000Y-118947500D03*
D14*
X88570000Y-116407500D03*
X91110000Y-118947500D03*
X91110000Y-116407500D03*
X93650000Y-118947500D03*
X93650000Y-116407500D03*
X96190000Y-118947500D03*
X96190000Y-116407500D03*
X98730000Y-118947500D03*
X98730000Y-116407500D03*
X101270000Y-118947500D03*
X101270000Y-116407500D03*
D15*
X103810000Y-118947500D03*
X103810000Y-116407500D03*
X106350000Y-118947500D03*
X106350000Y-116407500D03*
X108890000Y-118947500D03*
X108890000Y-116407500D03*
X111430000Y-118947500D03*
X111430000Y-116407500D03*
D17*
X87170000Y-95152500D03*
X87170000Y-100952500D03*
X87170000Y-106652500D03*
D12*
X100333000Y-97345000D03*
X105667000Y-97345000D03*
X100333000Y-98615000D03*
X100333000Y-99885000D03*
X100333000Y-101155000D03*
X105667000Y-98615000D03*
X105667000Y-99885000D03*
X105667000Y-101155000D03*
D13*
X110750000Y-91342500D03*
D14*
X113290000Y-91342500D03*
X110750000Y-88802500D03*
X113290000Y-88802500D03*
X110750000Y-86262500D03*
X113290000Y-86262500D03*
D21*
X110500000Y-105000000D03*
D22*
X104577561Y-109750000D03*
X88023500Y-108787500D03*
X99238000Y-87451500D03*
X89000000Y-92400000D03*
X102600000Y-103800000D03*
X94000000Y-106200000D03*
X104500000Y-95750000D03*
X101263851Y-113328273D03*
X109144000Y-112343500D03*
X108128000Y-112343500D03*
X88062000Y-113359500D03*
X98477812Y-96409113D03*
X91500000Y-101750000D03*
D23*
X105767337Y-105448502D03*
X106604000Y-105231500D03*
X106858000Y-104469500D03*
X107112000Y-103707500D03*
X113011957Y-97446698D03*
X111349980Y-95858766D03*
X113442106Y-107607515D03*
X110017980Y-94561432D03*
X90591592Y-95209802D03*
X90136050Y-94448450D03*
X91757407Y-97852986D03*
X90919248Y-96183783D03*
X95091496Y-99691856D03*
X94339784Y-100058048D03*
X96641317Y-99175356D03*
X95875842Y-99534311D03*
X98455102Y-92341896D03*
X101400000Y-91737011D03*
X96858495Y-92817388D03*
X97677415Y-92529569D03*
X95987488Y-92981273D03*
X99500000Y-103750000D03*
X101250000Y-102500000D03*
X100000000Y-106250000D03*
X85014000Y-97357500D03*
X82982000Y-97357500D03*
D24*
X101232624Y-113359500D02*
X101263851Y-113328273D01*
X88062000Y-113359500D02*
X101232624Y-113359500D01*
X109144000Y-112343500D02*
X108128000Y-112343500D01*
X109565640Y-111327500D02*
X109144000Y-111327500D01*
X109144000Y-111327500D02*
X108128000Y-112343500D01*
X100317500Y-95948525D02*
X100317500Y-96409113D01*
X100317500Y-96409113D02*
X99043497Y-96409113D01*
X99043497Y-96409113D02*
X98477812Y-96409113D01*
X100317500Y-94817500D02*
X100317500Y-95948525D01*
X100317500Y-95948525D02*
X100317500Y-97329500D01*
X100317500Y-97329500D02*
X100333000Y-97345000D01*
X91500000Y-100952500D02*
X91500000Y-101750000D01*
X91500000Y-101750000D02*
X92245000Y-102495000D01*
X91500000Y-100952500D02*
X91750000Y-100702500D01*
X92533000Y-102495000D02*
X92245000Y-102495000D01*
D25*
X103810000Y-116407500D02*
X107303146Y-112914354D01*
X107303146Y-112914354D02*
X107303146Y-107130321D01*
X107303146Y-107130321D02*
X105872750Y-105699925D01*
X105872750Y-105699925D02*
X105872750Y-105553915D01*
X105872750Y-105553915D02*
X105767337Y-105448502D01*
X103810000Y-116407500D02*
X103827541Y-116389959D01*
X105237999Y-115873739D02*
X107866329Y-113245409D01*
X111850208Y-112568499D02*
X111850208Y-110431906D01*
X105237999Y-117835499D02*
X105237999Y-115873739D01*
X111173298Y-113245409D02*
X111850208Y-112568499D01*
X106350000Y-118947500D02*
X105237999Y-117835499D01*
X107866329Y-113245409D02*
X111173298Y-113245409D01*
X111850208Y-110431906D02*
X111166347Y-109748045D01*
X111166347Y-109748045D02*
X110696281Y-109748045D01*
X110696281Y-109748045D02*
X106604000Y-105655764D01*
X106604000Y-105655764D02*
X106604000Y-105231500D01*
X106295049Y-118892549D02*
X106350000Y-118947500D01*
X107157999Y-104769499D02*
X106858000Y-104469500D01*
X107288742Y-105603866D02*
X107288742Y-104900242D01*
X107288742Y-104900242D02*
X107157999Y-104769499D01*
X112350218Y-110224794D02*
X111373458Y-109248034D01*
X111380410Y-113745419D02*
X112350219Y-112775610D01*
X109012080Y-113745420D02*
X111380410Y-113745419D01*
X111373458Y-109248034D02*
X110932910Y-109248034D01*
X106350000Y-116407500D02*
X109012080Y-113745420D01*
X112350219Y-112775610D02*
X112350218Y-110224794D01*
X110932910Y-109248034D02*
X107288742Y-105603866D01*
X108890000Y-118947500D02*
X107777999Y-117835499D01*
X112850228Y-110017682D02*
X109932547Y-107100001D01*
X112850229Y-112982720D02*
X112850228Y-110017682D01*
X107777999Y-117835499D02*
X107777999Y-115940623D01*
X107788753Y-105396755D02*
X107788753Y-104384253D01*
X109491999Y-107100001D02*
X107788753Y-105396755D01*
X109932547Y-107100001D02*
X109491999Y-107100001D01*
X107777999Y-115940623D02*
X109473193Y-114245429D01*
X111587522Y-114245429D02*
X112850229Y-112982720D01*
X107788753Y-104384253D02*
X107411999Y-104007499D01*
X107411999Y-104007499D02*
X107112000Y-103707500D01*
X109473193Y-114245429D02*
X111587522Y-114245429D01*
X113350240Y-109810568D02*
X113350240Y-108257516D01*
X108890000Y-116407500D02*
X110552060Y-114745440D01*
X110552060Y-114745440D02*
X111794629Y-114745440D01*
X113350239Y-113189830D02*
X113350238Y-109810570D01*
X113384987Y-106957514D02*
X113589468Y-106753033D01*
X111794629Y-114745440D02*
X113350239Y-113189830D01*
X113350238Y-109810570D02*
X113350240Y-109810568D01*
X113130105Y-106957514D02*
X113384987Y-106957514D01*
X112792105Y-107295514D02*
X113130105Y-106957514D01*
X112792105Y-107919516D02*
X112792105Y-107295514D01*
X113350240Y-108257516D02*
X113130105Y-108257516D01*
X113130105Y-108257516D02*
X112792105Y-107919516D01*
X113589468Y-106753033D02*
X113589468Y-98024209D01*
X113589468Y-98024209D02*
X113011957Y-97446698D01*
X111774244Y-95858766D02*
X111349980Y-95858766D01*
X114089478Y-106960143D02*
X114089478Y-97409531D01*
X113442106Y-107607515D02*
X114089478Y-106960143D01*
X112538713Y-95858766D02*
X111774244Y-95858766D01*
X114089478Y-97409531D02*
X112538713Y-95858766D01*
X113508616Y-107607515D02*
X113442106Y-107607515D01*
X112001739Y-115245451D02*
X113850250Y-113396940D01*
X110949217Y-115245451D02*
X112001739Y-115245451D01*
X110317999Y-115876669D02*
X110949217Y-115245451D01*
X110317999Y-117835499D02*
X110317999Y-115876669D01*
X111430000Y-118947500D02*
X110317999Y-117835499D01*
X113850250Y-113396940D02*
X113850250Y-107949149D01*
X113850250Y-107949149D02*
X113508616Y-107607515D01*
X110442244Y-94561432D02*
X110017980Y-94561432D01*
X114589488Y-96389488D02*
X112761432Y-94561432D01*
X112507630Y-116407500D02*
X114589488Y-114325642D01*
X112761432Y-94561432D02*
X110442244Y-94561432D01*
X114589488Y-114325642D02*
X114589488Y-96389488D01*
X111430000Y-116407500D02*
X112507630Y-116407500D01*
X93650000Y-87963403D02*
X90863238Y-90750165D01*
X93650000Y-83387500D02*
X93650000Y-87963403D01*
X90863238Y-90750165D02*
X90863238Y-94938156D01*
X90863238Y-94938156D02*
X90591592Y-95209802D01*
X93650000Y-83036398D02*
X93650000Y-83450291D01*
X93650000Y-82770000D02*
X93650000Y-83036398D01*
X93650000Y-80847500D02*
X92380000Y-82117500D01*
X92380000Y-82117500D02*
X92380000Y-88418840D01*
X92380000Y-88418840D02*
X90136050Y-90662790D01*
X90136050Y-90662790D02*
X90136050Y-94024186D01*
X90136050Y-94024186D02*
X90136050Y-94448450D01*
X91879989Y-97306140D02*
X91757407Y-97428722D01*
X91757407Y-97428722D02*
X91757407Y-97852986D01*
X96190000Y-86837647D02*
X91879989Y-91147658D01*
X96190000Y-83387500D02*
X96190000Y-86837647D01*
X91879989Y-91147658D02*
X91879989Y-97306140D01*
X96190000Y-82770000D02*
X96190000Y-83901512D01*
X96190000Y-80847500D02*
X94920000Y-82117500D01*
X91379978Y-95723053D02*
X91219247Y-95883784D01*
X91379978Y-90940547D02*
X91379978Y-95723053D01*
X94920000Y-87400525D02*
X91379978Y-90940547D01*
X94920000Y-82117500D02*
X94920000Y-87400525D01*
X91219247Y-95883784D02*
X90919248Y-96183783D01*
X95091496Y-99267592D02*
X95091496Y-99691856D01*
X95091496Y-96004996D02*
X95091496Y-99267592D01*
X92888001Y-93801501D02*
X95091496Y-96004996D01*
X98730000Y-83387500D02*
X98730000Y-85435254D01*
X98730000Y-85435254D02*
X97487977Y-86677277D01*
X92888001Y-91553890D02*
X92888001Y-93801501D01*
X97487977Y-86953914D02*
X92888001Y-91553890D01*
X97487977Y-86677277D02*
X97487977Y-86953914D01*
X94339784Y-99633784D02*
X94339784Y-100058048D01*
X94339784Y-95960406D02*
X94339784Y-99633784D01*
X97460000Y-82117500D02*
X97460000Y-85998132D01*
X98730000Y-80847500D02*
X97460000Y-82117500D01*
X97460000Y-85998132D02*
X96987966Y-86470166D01*
X96987966Y-86470166D02*
X96987966Y-86746803D01*
X92387990Y-91346779D02*
X92387991Y-94008613D01*
X92387991Y-94008613D02*
X94339784Y-95960406D01*
X96987966Y-86746803D02*
X92387990Y-91346779D01*
X98487999Y-87368136D02*
X94070012Y-91786123D01*
X94070012Y-93569266D02*
X96641317Y-96140571D01*
X96641317Y-96140571D02*
X96641317Y-98751092D01*
X96641317Y-98751092D02*
X96641317Y-99175356D01*
X94070012Y-91786123D02*
X94070012Y-93569266D01*
X101270000Y-83387500D02*
X101270000Y-84309498D01*
X101270000Y-84309498D02*
X98487999Y-87091499D01*
X98487999Y-87091499D02*
X98487999Y-87368136D01*
X95875842Y-96082218D02*
X95875842Y-99110047D01*
X95875842Y-99110047D02*
X95875842Y-99534311D01*
X93570002Y-93776378D02*
X95875842Y-96082218D01*
X93570001Y-91579012D02*
X93570002Y-93776378D01*
X97987988Y-86884388D02*
X97987988Y-87161025D01*
X100119899Y-84752477D02*
X97987988Y-86884388D01*
X100119899Y-81997601D02*
X100119899Y-84752477D01*
X101270000Y-80847500D02*
X100119899Y-81997601D01*
X97987988Y-87161025D02*
X93570001Y-91579012D01*
X103810000Y-82770000D02*
X103810000Y-91689559D01*
X103810000Y-91689559D02*
X103250000Y-92249559D01*
X102990458Y-92509542D02*
X98619860Y-92509542D01*
X103250000Y-92249559D02*
X103250000Y-92250000D01*
X103250000Y-92250000D02*
X102990458Y-92509542D01*
X98619860Y-92509542D02*
X98455102Y-92344784D01*
X98455102Y-92344784D02*
X98455102Y-92341896D01*
X102600000Y-90537011D02*
X102600000Y-82057500D01*
X102600000Y-82057500D02*
X103810000Y-80847500D01*
X101699999Y-91437012D02*
X101400000Y-91737011D01*
X102600000Y-90537011D02*
X101699999Y-91437012D01*
X97550671Y-93509564D02*
X97158494Y-93117387D01*
X105250000Y-84487500D02*
X105250000Y-92500000D01*
X105250000Y-92500000D02*
X104240436Y-93509564D01*
X106350000Y-83387500D02*
X105250000Y-84487500D01*
X97158494Y-93117387D02*
X96858495Y-92817388D01*
X104240436Y-93509564D02*
X97550671Y-93509564D01*
X106350000Y-82770000D02*
X106350000Y-83900000D01*
X98157399Y-93009553D02*
X97977414Y-92829568D01*
X103197569Y-93009553D02*
X98157399Y-93009553D01*
X105237999Y-81959501D02*
X105237999Y-83605263D01*
X105237999Y-83605263D02*
X104500000Y-84343262D01*
X97977414Y-92829568D02*
X97677415Y-92529569D01*
X104500000Y-91707122D02*
X103197569Y-93009553D01*
X106350000Y-80847500D02*
X105237999Y-81959501D01*
X104500000Y-84343262D02*
X104500000Y-91707122D01*
X108890000Y-82770000D02*
X108890000Y-83610000D01*
X108890000Y-83610000D02*
X106750000Y-85750000D01*
X106750000Y-96262000D02*
X105667000Y-97345000D01*
X106750000Y-85750000D02*
X106750000Y-96262000D01*
X96287487Y-93281272D02*
X95987488Y-92981273D01*
X106000000Y-93000000D02*
X104990425Y-94009575D01*
X97015790Y-94009575D02*
X96287487Y-93281272D01*
X106000000Y-85500000D02*
X106000000Y-93000000D01*
X107500000Y-82250000D02*
X107500000Y-84000000D01*
X108890000Y-80860000D02*
X107500000Y-82250000D01*
X104990425Y-94009575D02*
X97015790Y-94009575D01*
X107500000Y-84000000D02*
X106000000Y-85500000D01*
X105667000Y-101155000D02*
X106345000Y-101155000D01*
X106345000Y-101155000D02*
X107500000Y-100000000D01*
X110183190Y-83823976D02*
X110183190Y-82094310D01*
X107500000Y-100000000D02*
X107500000Y-86507166D01*
X107500000Y-86507166D02*
X110183190Y-83823976D01*
X110183190Y-82094310D02*
X110668001Y-81609499D01*
X110668001Y-81609499D02*
X111430000Y-80847500D01*
X111430000Y-80230000D02*
X111430000Y-80320000D01*
D24*
X88439999Y-107922499D02*
X87170000Y-106652500D01*
X93800999Y-107922499D02*
X88439999Y-107922499D01*
X95682000Y-109803500D02*
X93800999Y-107922499D01*
D25*
X97867000Y-103765000D02*
X97867000Y-105035000D01*
X99500000Y-103750000D02*
X99485000Y-103765000D01*
X99485000Y-103765000D02*
X97867000Y-103765000D01*
X101250000Y-102500000D02*
X101245000Y-102495000D01*
X101245000Y-102495000D02*
X97867000Y-102495000D01*
X97867000Y-106305000D02*
X99945000Y-106305000D01*
X99945000Y-106305000D02*
X100000000Y-106250000D01*
X111430000Y-83387500D02*
X111430000Y-83880350D01*
X111430000Y-83880350D02*
X108250000Y-87060350D01*
X108250000Y-87060350D02*
X108250000Y-100500000D01*
X111430000Y-82770000D02*
X111430000Y-83070000D01*
X104500000Y-100500000D02*
X105115000Y-99885000D01*
X104500000Y-102000000D02*
X104500000Y-100500000D01*
X104750000Y-102250000D02*
X104500000Y-102000000D01*
X106500000Y-102250000D02*
X104750000Y-102250000D01*
X108250000Y-100500000D02*
X106500000Y-102250000D01*
X105115000Y-99885000D02*
X105667000Y-99885000D01*
X105667000Y-99885000D02*
X105667000Y-98615000D01*
X85014000Y-97357500D02*
X87107500Y-97357500D01*
X89750000Y-102500000D02*
X92285000Y-105035000D01*
X87107500Y-97357500D02*
X89750000Y-100000000D01*
X89750000Y-100000000D02*
X89750000Y-102500000D01*
X92285000Y-105035000D02*
X92533000Y-105035000D01*
X100015500Y-99885000D02*
X100333000Y-99885000D01*
X97229818Y-101520182D02*
X98380318Y-101520182D01*
X93715000Y-105035000D02*
X97229818Y-101520182D01*
X92533000Y-105035000D02*
X93715000Y-105035000D01*
X98380318Y-101520182D02*
X100015500Y-99885000D01*
X83281999Y-97057501D02*
X82982000Y-97357500D01*
X90500000Y-99500000D02*
X87707499Y-96707499D01*
X87707499Y-96707499D02*
X83632001Y-96707499D01*
X90500000Y-102049500D02*
X90500000Y-99500000D01*
X92215500Y-103765000D02*
X90500000Y-102049500D01*
X92533000Y-103765000D02*
X92215500Y-103765000D01*
X83632001Y-96707499D02*
X83281999Y-97057501D01*
X92533000Y-103765000D02*
X92985000Y-103765000D01*
X92985000Y-103765000D02*
X95729829Y-101020171D01*
X95729829Y-101020171D02*
X96676012Y-101020171D01*
X100316025Y-98631975D02*
X100333000Y-98615000D01*
X96676012Y-101020171D02*
X99064208Y-98631975D01*
X99064208Y-98631975D02*
X100316025Y-98631975D01*
D26*
G36*
X109722718Y-77844156D02*
X111162162Y-78563616D01*
X113332871Y-79920309D01*
X112954000Y-79920309D01*
X112954000Y-84984692D01*
X114373000Y-84984692D01*
X114373000Y-85636986D01*
X114371615Y-85633642D01*
X114184010Y-85548095D01*
X113469605Y-86262500D01*
X114184010Y-86976905D01*
X114371615Y-86891358D01*
X114373000Y-86887318D01*
X114373000Y-88330680D01*
X114291872Y-88134335D01*
X113959913Y-87801796D01*
X113525966Y-87621606D01*
X113056095Y-87621196D01*
X112621835Y-87800628D01*
X112289296Y-88132587D01*
X112109106Y-88566534D01*
X112108696Y-89036405D01*
X112288128Y-89470665D01*
X112620087Y-89803204D01*
X113054034Y-89983394D01*
X113523905Y-89983804D01*
X113958165Y-89804372D01*
X114290704Y-89472413D01*
X114373000Y-89274222D01*
X114373000Y-90870680D01*
X114291872Y-90674335D01*
X113959913Y-90341796D01*
X113525966Y-90161606D01*
X113056095Y-90161196D01*
X112621835Y-90340628D01*
X112289296Y-90672587D01*
X112109106Y-91106534D01*
X112108696Y-91576405D01*
X112288128Y-92010665D01*
X112620087Y-92343204D01*
X113054034Y-92523394D01*
X113523905Y-92523804D01*
X113958165Y-92344372D01*
X114290704Y-92012413D01*
X114373000Y-91814222D01*
X114373000Y-95422053D01*
X113136906Y-94185958D01*
X112964637Y-94070852D01*
X112761432Y-94030432D01*
X110450146Y-94030432D01*
X110404239Y-93984445D01*
X110154034Y-93880550D01*
X109883115Y-93880314D01*
X109632728Y-93983771D01*
X109440993Y-94175173D01*
X109337098Y-94425378D01*
X109336862Y-94696297D01*
X109440319Y-94946684D01*
X109631721Y-95138419D01*
X109881926Y-95242314D01*
X110152845Y-95242550D01*
X110403232Y-95139093D01*
X110449974Y-95092432D01*
X112541484Y-95092432D01*
X114058488Y-96609435D01*
X114058488Y-96627593D01*
X112914187Y-95483292D01*
X112741918Y-95368186D01*
X112538713Y-95327766D01*
X111782146Y-95327766D01*
X111736239Y-95281779D01*
X111486034Y-95177884D01*
X111215115Y-95177648D01*
X110964728Y-95281105D01*
X110772993Y-95472507D01*
X110669098Y-95722712D01*
X110668862Y-95993631D01*
X110772319Y-96244018D01*
X110963721Y-96435753D01*
X111213926Y-96539648D01*
X111484845Y-96539884D01*
X111735232Y-96436427D01*
X111781974Y-96389766D01*
X112318765Y-96389766D01*
X112747942Y-96818943D01*
X112626705Y-96869037D01*
X112434970Y-97060439D01*
X112331075Y-97310644D01*
X112330839Y-97581563D01*
X112434296Y-97831950D01*
X112625698Y-98023685D01*
X112875903Y-98127580D01*
X112941949Y-98127638D01*
X113058468Y-98244157D01*
X113058468Y-106440763D01*
X112926900Y-106466934D01*
X112754631Y-106582040D01*
X112416631Y-106920040D01*
X112301525Y-107092309D01*
X112261105Y-107295514D01*
X112261105Y-107919516D01*
X112301525Y-108122721D01*
X112416631Y-108294990D01*
X112754631Y-108632990D01*
X112819240Y-108676160D01*
X112819240Y-109235746D01*
X110714682Y-107131188D01*
X110922022Y-107131369D01*
X111705538Y-106807627D01*
X112305521Y-106208691D01*
X112630630Y-105425742D01*
X112631369Y-104577978D01*
X112307627Y-103794462D01*
X111708691Y-103194479D01*
X110925742Y-102869370D01*
X110077978Y-102868631D01*
X109294462Y-103192373D01*
X108694479Y-103791309D01*
X108369370Y-104574258D01*
X108368802Y-105225856D01*
X108319753Y-105176807D01*
X108319753Y-104384258D01*
X108319754Y-104384253D01*
X108279333Y-104181048D01*
X108164227Y-104008779D01*
X108164224Y-104008777D01*
X107793061Y-103637613D01*
X107793118Y-103572635D01*
X107689661Y-103322248D01*
X107498259Y-103130513D01*
X107248054Y-103026618D01*
X106977135Y-103026382D01*
X106726748Y-103129839D01*
X106535013Y-103321241D01*
X106431118Y-103571446D01*
X106430882Y-103842365D01*
X106457580Y-103906980D01*
X106281013Y-104083241D01*
X106177118Y-104333446D01*
X106176882Y-104604365D01*
X106203580Y-104668980D01*
X106045611Y-104826675D01*
X105903391Y-104767620D01*
X105632472Y-104767384D01*
X105382085Y-104870841D01*
X105190350Y-105062243D01*
X105086455Y-105312448D01*
X105086219Y-105583367D01*
X105189676Y-105833754D01*
X105381078Y-106025489D01*
X105495741Y-106073102D01*
X105497276Y-106075399D01*
X106772146Y-107350268D01*
X106772146Y-110100400D01*
X105400110Y-110100400D01*
X105293360Y-110207150D01*
X105293360Y-111200500D01*
X105313360Y-111200500D01*
X105313360Y-111454500D01*
X105293360Y-111454500D01*
X105293360Y-112447850D01*
X105400110Y-112554600D01*
X106772146Y-112554600D01*
X106772146Y-112694407D01*
X104153882Y-115312670D01*
X104038354Y-115264699D01*
X103583641Y-115264302D01*
X103163388Y-115437946D01*
X102841577Y-115759197D01*
X102667199Y-116179146D01*
X102666802Y-116633859D01*
X102840446Y-117054112D01*
X103161697Y-117375923D01*
X103581646Y-117550301D01*
X104036359Y-117550698D01*
X104456612Y-117377054D01*
X104706999Y-117127103D01*
X104706999Y-117835499D01*
X104747419Y-118038704D01*
X104862525Y-118210973D01*
X105255170Y-118603618D01*
X105207199Y-118719146D01*
X105206802Y-119173859D01*
X105380446Y-119594112D01*
X105701697Y-119915923D01*
X106121646Y-120090301D01*
X106576359Y-120090698D01*
X106996612Y-119917054D01*
X107318423Y-119595803D01*
X107492801Y-119175854D01*
X107493198Y-118721141D01*
X107319554Y-118300888D01*
X106998303Y-117979077D01*
X106578354Y-117804699D01*
X106123641Y-117804302D01*
X106006253Y-117852805D01*
X105768999Y-117615551D01*
X105768999Y-117403869D01*
X106121646Y-117550301D01*
X106576359Y-117550698D01*
X106996612Y-117377054D01*
X107246999Y-117127103D01*
X107246999Y-117835499D01*
X107287419Y-118038704D01*
X107402525Y-118210973D01*
X107795170Y-118603618D01*
X107747199Y-118719146D01*
X107746802Y-119173859D01*
X107920446Y-119594112D01*
X108241697Y-119915923D01*
X108661646Y-120090301D01*
X109116359Y-120090698D01*
X109536612Y-119917054D01*
X109858423Y-119595803D01*
X110032801Y-119175854D01*
X110033198Y-118721141D01*
X109859554Y-118300888D01*
X109538303Y-117979077D01*
X109118354Y-117804699D01*
X108663641Y-117804302D01*
X108546253Y-117852805D01*
X108308999Y-117615551D01*
X108308999Y-117403869D01*
X108661646Y-117550301D01*
X109116359Y-117550698D01*
X109536612Y-117377054D01*
X109786999Y-117127103D01*
X109786999Y-117835499D01*
X109827419Y-118038704D01*
X109942525Y-118210973D01*
X110335170Y-118603618D01*
X110287199Y-118719146D01*
X110286802Y-119173859D01*
X110460446Y-119594112D01*
X110781697Y-119915923D01*
X111201646Y-120090301D01*
X111656359Y-120090698D01*
X112076612Y-119917054D01*
X112398423Y-119595803D01*
X112572801Y-119175854D01*
X112573198Y-118721141D01*
X112399554Y-118300888D01*
X112078303Y-117979077D01*
X111658354Y-117804699D01*
X111203641Y-117804302D01*
X111086253Y-117852805D01*
X110848999Y-117615551D01*
X110848999Y-117403869D01*
X111201646Y-117550301D01*
X111656359Y-117550698D01*
X112076612Y-117377054D01*
X112398423Y-117055803D01*
X112447131Y-116938500D01*
X112507630Y-116938500D01*
X112710835Y-116898080D01*
X112883104Y-116782974D01*
X114373000Y-115293078D01*
X114373000Y-119830628D01*
X108228606Y-122903636D01*
X106976970Y-123373000D01*
X93026951Y-123373000D01*
X90163531Y-122100369D01*
X88026199Y-121031498D01*
X85627000Y-119432032D01*
X85627000Y-119181250D01*
X87317500Y-119181250D01*
X87317500Y-119857936D01*
X87382507Y-120014876D01*
X87502624Y-120134993D01*
X87659565Y-120200000D01*
X88336250Y-120200000D01*
X88443000Y-120093250D01*
X88443000Y-119074500D01*
X88697000Y-119074500D01*
X88697000Y-120093250D01*
X88803750Y-120200000D01*
X89480435Y-120200000D01*
X89637376Y-120134993D01*
X89757493Y-120014876D01*
X89822500Y-119857936D01*
X89822500Y-119181405D01*
X89928696Y-119181405D01*
X90108128Y-119615665D01*
X90440087Y-119948204D01*
X90874034Y-120128394D01*
X91343905Y-120128804D01*
X91778165Y-119949372D01*
X92110704Y-119617413D01*
X92290894Y-119183466D01*
X92290895Y-119181405D01*
X92468696Y-119181405D01*
X92648128Y-119615665D01*
X92980087Y-119948204D01*
X93414034Y-120128394D01*
X93883905Y-120128804D01*
X94318165Y-119949372D01*
X94650704Y-119617413D01*
X94830894Y-119183466D01*
X94830895Y-119181405D01*
X95008696Y-119181405D01*
X95188128Y-119615665D01*
X95520087Y-119948204D01*
X95954034Y-120128394D01*
X96423905Y-120128804D01*
X96858165Y-119949372D01*
X97190704Y-119617413D01*
X97370894Y-119183466D01*
X97370895Y-119181405D01*
X97548696Y-119181405D01*
X97728128Y-119615665D01*
X98060087Y-119948204D01*
X98494034Y-120128394D01*
X98963905Y-120128804D01*
X99398165Y-119949372D01*
X99730704Y-119617413D01*
X99910894Y-119183466D01*
X99910895Y-119181405D01*
X100088696Y-119181405D01*
X100268128Y-119615665D01*
X100600087Y-119948204D01*
X101034034Y-120128394D01*
X101503905Y-120128804D01*
X101938165Y-119949372D01*
X102270704Y-119617413D01*
X102450894Y-119183466D01*
X102450902Y-119173859D01*
X102666802Y-119173859D01*
X102840446Y-119594112D01*
X103161697Y-119915923D01*
X103581646Y-120090301D01*
X104036359Y-120090698D01*
X104456612Y-119917054D01*
X104778423Y-119595803D01*
X104952801Y-119175854D01*
X104953198Y-118721141D01*
X104779554Y-118300888D01*
X104458303Y-117979077D01*
X104038354Y-117804699D01*
X103583641Y-117804302D01*
X103163388Y-117977946D01*
X102841577Y-118299197D01*
X102667199Y-118719146D01*
X102666802Y-119173859D01*
X102450902Y-119173859D01*
X102451304Y-118713595D01*
X102271872Y-118279335D01*
X101939913Y-117946796D01*
X101505966Y-117766606D01*
X101036095Y-117766196D01*
X100601835Y-117945628D01*
X100269296Y-118277587D01*
X100089106Y-118711534D01*
X100088696Y-119181405D01*
X99910895Y-119181405D01*
X99911304Y-118713595D01*
X99731872Y-118279335D01*
X99399913Y-117946796D01*
X98965966Y-117766606D01*
X98496095Y-117766196D01*
X98061835Y-117945628D01*
X97729296Y-118277587D01*
X97549106Y-118711534D01*
X97548696Y-119181405D01*
X97370895Y-119181405D01*
X97371304Y-118713595D01*
X97191872Y-118279335D01*
X96859913Y-117946796D01*
X96425966Y-117766606D01*
X95956095Y-117766196D01*
X95521835Y-117945628D01*
X95189296Y-118277587D01*
X95009106Y-118711534D01*
X95008696Y-119181405D01*
X94830895Y-119181405D01*
X94831304Y-118713595D01*
X94651872Y-118279335D01*
X94319913Y-117946796D01*
X93885966Y-117766606D01*
X93416095Y-117766196D01*
X92981835Y-117945628D01*
X92649296Y-118277587D01*
X92469106Y-118711534D01*
X92468696Y-119181405D01*
X92290895Y-119181405D01*
X92291304Y-118713595D01*
X92111872Y-118279335D01*
X91779913Y-117946796D01*
X91345966Y-117766606D01*
X90876095Y-117766196D01*
X90441835Y-117945628D01*
X90109296Y-118277587D01*
X89929106Y-118711534D01*
X89928696Y-119181405D01*
X89822500Y-119181405D01*
X89822500Y-119181250D01*
X89715750Y-119074500D01*
X88697000Y-119074500D01*
X88443000Y-119074500D01*
X87424250Y-119074500D01*
X87317500Y-119181250D01*
X85627000Y-119181250D01*
X85627000Y-118037064D01*
X87317500Y-118037064D01*
X87317500Y-118713750D01*
X87424250Y-118820500D01*
X88443000Y-118820500D01*
X88443000Y-117801750D01*
X88697000Y-117801750D01*
X88697000Y-118820500D01*
X89715750Y-118820500D01*
X89822500Y-118713750D01*
X89822500Y-118037064D01*
X89757493Y-117880124D01*
X89637376Y-117760007D01*
X89480435Y-117695000D01*
X88803750Y-117695000D01*
X88697000Y-117801750D01*
X88443000Y-117801750D01*
X88336250Y-117695000D01*
X87659565Y-117695000D01*
X87502624Y-117760007D01*
X87382507Y-117880124D01*
X87317500Y-118037064D01*
X85627000Y-118037064D01*
X85627000Y-117301510D01*
X87855595Y-117301510D01*
X87941142Y-117489115D01*
X88402927Y-117647435D01*
X88890148Y-117616987D01*
X89198858Y-117489115D01*
X89284405Y-117301510D01*
X88570000Y-116587105D01*
X87855595Y-117301510D01*
X85627000Y-117301510D01*
X85627000Y-116240427D01*
X87330065Y-116240427D01*
X87360513Y-116727648D01*
X87488385Y-117036358D01*
X87675990Y-117121905D01*
X88390395Y-116407500D01*
X88749605Y-116407500D01*
X89464010Y-117121905D01*
X89651615Y-117036358D01*
X89787022Y-116641405D01*
X89928696Y-116641405D01*
X90108128Y-117075665D01*
X90440087Y-117408204D01*
X90874034Y-117588394D01*
X91343905Y-117588804D01*
X91778165Y-117409372D01*
X92110704Y-117077413D01*
X92290894Y-116643466D01*
X92290895Y-116641405D01*
X92468696Y-116641405D01*
X92648128Y-117075665D01*
X92980087Y-117408204D01*
X93414034Y-117588394D01*
X93883905Y-117588804D01*
X94318165Y-117409372D01*
X94650704Y-117077413D01*
X94830894Y-116643466D01*
X94830895Y-116641405D01*
X95008696Y-116641405D01*
X95188128Y-117075665D01*
X95520087Y-117408204D01*
X95954034Y-117588394D01*
X96423905Y-117588804D01*
X96858165Y-117409372D01*
X97190704Y-117077413D01*
X97370894Y-116643466D01*
X97370895Y-116641405D01*
X97548696Y-116641405D01*
X97728128Y-117075665D01*
X98060087Y-117408204D01*
X98494034Y-117588394D01*
X98963905Y-117588804D01*
X99398165Y-117409372D01*
X99730704Y-117077413D01*
X99910894Y-116643466D01*
X99910895Y-116641405D01*
X100088696Y-116641405D01*
X100268128Y-117075665D01*
X100600087Y-117408204D01*
X101034034Y-117588394D01*
X101503905Y-117588804D01*
X101938165Y-117409372D01*
X102270704Y-117077413D01*
X102450894Y-116643466D01*
X102451304Y-116173595D01*
X102271872Y-115739335D01*
X101939913Y-115406796D01*
X101505966Y-115226606D01*
X101036095Y-115226196D01*
X100601835Y-115405628D01*
X100269296Y-115737587D01*
X100089106Y-116171534D01*
X100088696Y-116641405D01*
X99910895Y-116641405D01*
X99911304Y-116173595D01*
X99731872Y-115739335D01*
X99399913Y-115406796D01*
X98965966Y-115226606D01*
X98496095Y-115226196D01*
X98061835Y-115405628D01*
X97729296Y-115737587D01*
X97549106Y-116171534D01*
X97548696Y-116641405D01*
X97370895Y-116641405D01*
X97371304Y-116173595D01*
X97191872Y-115739335D01*
X96859913Y-115406796D01*
X96425966Y-115226606D01*
X95956095Y-115226196D01*
X95521835Y-115405628D01*
X95189296Y-115737587D01*
X95009106Y-116171534D01*
X95008696Y-116641405D01*
X94830895Y-116641405D01*
X94831304Y-116173595D01*
X94651872Y-115739335D01*
X94319913Y-115406796D01*
X93885966Y-115226606D01*
X93416095Y-115226196D01*
X92981835Y-115405628D01*
X92649296Y-115737587D01*
X92469106Y-116171534D01*
X92468696Y-116641405D01*
X92290895Y-116641405D01*
X92291304Y-116173595D01*
X92111872Y-115739335D01*
X91779913Y-115406796D01*
X91345966Y-115226606D01*
X90876095Y-115226196D01*
X90441835Y-115405628D01*
X90109296Y-115737587D01*
X89929106Y-116171534D01*
X89928696Y-116641405D01*
X89787022Y-116641405D01*
X89809935Y-116574573D01*
X89779487Y-116087352D01*
X89651615Y-115778642D01*
X89464010Y-115693095D01*
X88749605Y-116407500D01*
X88390395Y-116407500D01*
X87675990Y-115693095D01*
X87488385Y-115778642D01*
X87330065Y-116240427D01*
X85627000Y-116240427D01*
X85627000Y-115513490D01*
X87855595Y-115513490D01*
X88570000Y-116227895D01*
X89284405Y-115513490D01*
X89198858Y-115325885D01*
X88737073Y-115167565D01*
X88249852Y-115198013D01*
X87941142Y-115325885D01*
X87855595Y-115513490D01*
X85627000Y-115513490D01*
X85627000Y-113514169D01*
X87280864Y-113514169D01*
X87399514Y-113801323D01*
X87619021Y-114021214D01*
X87905968Y-114140364D01*
X88216669Y-114140636D01*
X88459016Y-114040500D01*
X100942522Y-114040500D01*
X101107819Y-114109137D01*
X101418520Y-114109409D01*
X101705674Y-113990759D01*
X101925565Y-113771252D01*
X102044715Y-113484305D01*
X102044987Y-113173604D01*
X101926337Y-112886450D01*
X101706830Y-112666559D01*
X101419883Y-112547409D01*
X101109182Y-112547137D01*
X100822028Y-112665787D01*
X100809293Y-112678500D01*
X88458533Y-112678500D01*
X88218032Y-112578636D01*
X87907331Y-112578364D01*
X87620177Y-112697014D01*
X87400286Y-112916521D01*
X87281136Y-113203468D01*
X87280864Y-113514169D01*
X85627000Y-113514169D01*
X85627000Y-111561250D01*
X102989300Y-111561250D01*
X102989300Y-112212535D01*
X103054307Y-112369476D01*
X103174424Y-112489593D01*
X103331364Y-112554600D01*
X104932610Y-112554600D01*
X105039360Y-112447850D01*
X105039360Y-111454500D01*
X103096050Y-111454500D01*
X102989300Y-111561250D01*
X85627000Y-111561250D01*
X85627000Y-110037250D01*
X91953000Y-110037250D01*
X91953000Y-110650436D01*
X92018007Y-110807376D01*
X92138124Y-110927493D01*
X92295065Y-110992500D01*
X92908250Y-110992500D01*
X93015000Y-110885750D01*
X93015000Y-109930500D01*
X93269000Y-109930500D01*
X93269000Y-110885750D01*
X93375750Y-110992500D01*
X93988935Y-110992500D01*
X94145876Y-110927493D01*
X94265993Y-110807376D01*
X94331000Y-110650436D01*
X94331000Y-110037250D01*
X94224250Y-109930500D01*
X93269000Y-109930500D01*
X93015000Y-109930500D01*
X92059750Y-109930500D01*
X91953000Y-110037250D01*
X85627000Y-110037250D01*
X85627000Y-109500000D01*
X85616994Y-109450590D01*
X85589803Y-109410197D01*
X85136170Y-108956564D01*
X91953000Y-108956564D01*
X91953000Y-109569750D01*
X92059750Y-109676500D01*
X93015000Y-109676500D01*
X93015000Y-108721250D01*
X92908250Y-108614500D01*
X92295065Y-108614500D01*
X92138124Y-108679507D01*
X92018007Y-108799624D01*
X91953000Y-108956564D01*
X85136170Y-108956564D01*
X85089803Y-108910197D01*
X85047789Y-108882334D01*
X85000000Y-108873000D01*
X81052606Y-108873000D01*
X80627000Y-108447394D01*
X80627000Y-106979463D01*
X85518714Y-106979463D01*
X85769534Y-107586495D01*
X86233563Y-108051334D01*
X86840155Y-108303213D01*
X87496963Y-108303786D01*
X87752585Y-108198165D01*
X87958459Y-108404039D01*
X88179391Y-108551661D01*
X88439999Y-108603500D01*
X88440004Y-108603499D01*
X93518919Y-108603499D01*
X93529920Y-108614500D01*
X93375750Y-108614500D01*
X93269000Y-108721250D01*
X93269000Y-109676500D01*
X94224250Y-109676500D01*
X94331000Y-109569750D01*
X94331000Y-109415580D01*
X94539157Y-109623737D01*
X94538802Y-110029859D01*
X94712446Y-110450112D01*
X95033697Y-110771923D01*
X95453646Y-110946301D01*
X95908359Y-110946698D01*
X96328612Y-110773054D01*
X96431980Y-110669865D01*
X97535240Y-110669865D01*
X97616097Y-110853518D01*
X98064043Y-111005459D01*
X98536037Y-110974413D01*
X98827903Y-110853518D01*
X98908760Y-110669865D01*
X98222000Y-109983105D01*
X97535240Y-110669865D01*
X96431980Y-110669865D01*
X96650423Y-110451803D01*
X96824801Y-110031854D01*
X96825138Y-109645543D01*
X97020041Y-109645543D01*
X97051087Y-110117537D01*
X97171982Y-110409403D01*
X97355635Y-110490260D01*
X98042395Y-109803500D01*
X98401605Y-109803500D01*
X99088365Y-110490260D01*
X99272018Y-110409403D01*
X99400757Y-110029859D01*
X99618802Y-110029859D01*
X99792446Y-110450112D01*
X100113697Y-110771923D01*
X100533646Y-110946301D01*
X100988359Y-110946698D01*
X101408612Y-110773054D01*
X101730423Y-110451803D01*
X101734300Y-110442465D01*
X102989300Y-110442465D01*
X102989300Y-111093750D01*
X103096050Y-111200500D01*
X105039360Y-111200500D01*
X105039360Y-110207150D01*
X104932610Y-110100400D01*
X103331364Y-110100400D01*
X103174424Y-110165407D01*
X103054307Y-110285524D01*
X102989300Y-110442465D01*
X101734300Y-110442465D01*
X101904801Y-110031854D01*
X101905198Y-109577141D01*
X101731554Y-109156888D01*
X101410303Y-108835077D01*
X100990354Y-108660699D01*
X100535641Y-108660302D01*
X100115388Y-108833946D01*
X99793577Y-109155197D01*
X99619199Y-109575146D01*
X99618802Y-110029859D01*
X99400757Y-110029859D01*
X99423959Y-109961457D01*
X99392913Y-109489463D01*
X99272018Y-109197597D01*
X99088365Y-109116740D01*
X98401605Y-109803500D01*
X98042395Y-109803500D01*
X97355635Y-109116740D01*
X97171982Y-109197597D01*
X97020041Y-109645543D01*
X96825138Y-109645543D01*
X96825198Y-109577141D01*
X96651554Y-109156888D01*
X96432184Y-108937135D01*
X97535240Y-108937135D01*
X98222000Y-109623895D01*
X98908760Y-108937135D01*
X98827903Y-108753482D01*
X98379957Y-108601541D01*
X97907963Y-108632587D01*
X97616097Y-108753482D01*
X97535240Y-108937135D01*
X96432184Y-108937135D01*
X96330303Y-108835077D01*
X95910354Y-108660699D01*
X95501922Y-108660342D01*
X94282539Y-107440959D01*
X94061607Y-107293337D01*
X93800999Y-107241499D01*
X88722079Y-107241499D01*
X88715736Y-107235156D01*
X88820713Y-106982345D01*
X88821099Y-106538750D01*
X91534500Y-106538750D01*
X91534500Y-106643935D01*
X91599507Y-106800876D01*
X91719624Y-106920993D01*
X91876564Y-106986000D01*
X92299250Y-106986000D01*
X92406000Y-106879250D01*
X92406000Y-106432000D01*
X92660000Y-106432000D01*
X92660000Y-106879250D01*
X92766750Y-106986000D01*
X93189436Y-106986000D01*
X93346376Y-106920993D01*
X93466493Y-106800876D01*
X93531500Y-106643935D01*
X93531500Y-106538750D01*
X93424750Y-106432000D01*
X92660000Y-106432000D01*
X92406000Y-106432000D01*
X91641250Y-106432000D01*
X91534500Y-106538750D01*
X88821099Y-106538750D01*
X88821286Y-106325537D01*
X88570466Y-105718505D01*
X88106437Y-105253666D01*
X87499845Y-105001787D01*
X86843037Y-105001214D01*
X86236005Y-105252034D01*
X85771166Y-105716063D01*
X85519287Y-106322655D01*
X85518714Y-106979463D01*
X80627000Y-106979463D01*
X80627000Y-101279463D01*
X85518714Y-101279463D01*
X85769534Y-101886495D01*
X86233563Y-102351334D01*
X86840155Y-102603213D01*
X87496963Y-102603786D01*
X88103995Y-102352966D01*
X88568834Y-101888937D01*
X88820713Y-101282345D01*
X88821286Y-100625537D01*
X88570466Y-100018505D01*
X88106437Y-99553666D01*
X87499845Y-99301787D01*
X86843037Y-99301214D01*
X86236005Y-99552034D01*
X85771166Y-100016063D01*
X85519287Y-100622655D01*
X85518714Y-101279463D01*
X80627000Y-101279463D01*
X80627000Y-97492365D01*
X82300882Y-97492365D01*
X82404339Y-97742752D01*
X82595741Y-97934487D01*
X82845946Y-98038382D01*
X83116865Y-98038618D01*
X83367252Y-97935161D01*
X83558987Y-97743759D01*
X83662882Y-97493554D01*
X83662940Y-97427508D01*
X83851948Y-97238499D01*
X84333103Y-97238499D01*
X84332882Y-97492365D01*
X84436339Y-97742752D01*
X84627741Y-97934487D01*
X84877946Y-98038382D01*
X85148865Y-98038618D01*
X85399252Y-97935161D01*
X85445994Y-97888500D01*
X86887552Y-97888500D01*
X89219000Y-100219947D01*
X89219000Y-102500000D01*
X89259420Y-102703205D01*
X89374526Y-102875474D01*
X91573036Y-105073983D01*
X91573036Y-105289000D01*
X91599603Y-105430190D01*
X91683046Y-105559865D01*
X91810366Y-105646859D01*
X91817762Y-105648357D01*
X91719624Y-105689007D01*
X91599507Y-105809124D01*
X91534500Y-105966065D01*
X91534500Y-106071250D01*
X91641250Y-106178000D01*
X92406000Y-106178000D01*
X92406000Y-106158000D01*
X92660000Y-106158000D01*
X92660000Y-106178000D01*
X93424750Y-106178000D01*
X93531500Y-106071250D01*
X93531500Y-105966065D01*
X93466493Y-105809124D01*
X93346376Y-105689007D01*
X93249090Y-105648709D01*
X93375365Y-105567454D01*
X93376358Y-105566000D01*
X93715000Y-105566000D01*
X93918205Y-105525580D01*
X94090474Y-105410474D01*
X94090475Y-105410473D01*
X96907036Y-102593911D01*
X96907036Y-102749000D01*
X96933603Y-102890190D01*
X97017046Y-103019865D01*
X97144366Y-103106859D01*
X97257288Y-103129726D01*
X97154310Y-103149103D01*
X97024635Y-103232546D01*
X96937641Y-103359866D01*
X96907036Y-103511000D01*
X96907036Y-104019000D01*
X96933603Y-104160190D01*
X97017046Y-104289865D01*
X97144366Y-104376859D01*
X97257288Y-104399726D01*
X97154310Y-104419103D01*
X97024635Y-104502546D01*
X96937641Y-104629866D01*
X96907036Y-104781000D01*
X96907036Y-105289000D01*
X96933603Y-105430190D01*
X97017046Y-105559865D01*
X97144366Y-105646859D01*
X97257288Y-105669726D01*
X97154310Y-105689103D01*
X97024635Y-105772546D01*
X96937641Y-105899866D01*
X96907036Y-106051000D01*
X96907036Y-106559000D01*
X96933603Y-106700190D01*
X97017046Y-106829865D01*
X97144366Y-106916859D01*
X97295500Y-106947464D01*
X98438500Y-106947464D01*
X98579690Y-106920897D01*
X98709365Y-106837454D01*
X98710358Y-106836000D01*
X99635447Y-106836000D01*
X99863946Y-106930882D01*
X100134865Y-106931118D01*
X100385252Y-106827661D01*
X100576987Y-106636259D01*
X100680882Y-106386054D01*
X100681118Y-106115135D01*
X100577661Y-105864748D01*
X100386259Y-105673013D01*
X100136054Y-105569118D01*
X99865135Y-105568882D01*
X99614748Y-105672339D01*
X99512910Y-105774000D01*
X98707975Y-105774000D01*
X98589634Y-105693141D01*
X98476712Y-105670274D01*
X98579690Y-105650897D01*
X98709365Y-105567454D01*
X98796359Y-105440134D01*
X98826964Y-105289000D01*
X98826964Y-104781000D01*
X98800397Y-104639810D01*
X98716954Y-104510135D01*
X98589634Y-104423141D01*
X98476712Y-104400274D01*
X98579690Y-104380897D01*
X98709365Y-104297454D01*
X98710358Y-104296000D01*
X99082808Y-104296000D01*
X99113741Y-104326987D01*
X99363946Y-104430882D01*
X99634865Y-104431118D01*
X99885252Y-104327661D01*
X100076987Y-104136259D01*
X100180882Y-103886054D01*
X100181118Y-103615135D01*
X100077661Y-103364748D01*
X99886259Y-103173013D01*
X99636054Y-103069118D01*
X99365135Y-103068882D01*
X99114748Y-103172339D01*
X99052980Y-103234000D01*
X98707975Y-103234000D01*
X98589634Y-103153141D01*
X98476712Y-103130274D01*
X98579690Y-103110897D01*
X98709365Y-103027454D01*
X98710358Y-103026000D01*
X100812843Y-103026000D01*
X100863741Y-103076987D01*
X101113946Y-103180882D01*
X101384865Y-103181118D01*
X101635252Y-103077661D01*
X101826987Y-102886259D01*
X101930882Y-102636054D01*
X101931118Y-102365135D01*
X101827661Y-102114748D01*
X101636259Y-101923013D01*
X101386054Y-101819118D01*
X101115135Y-101818882D01*
X100864748Y-101922339D01*
X100823015Y-101964000D01*
X98707975Y-101964000D01*
X98681046Y-101945600D01*
X98755792Y-101895656D01*
X99369445Y-101282002D01*
X99441248Y-101282002D01*
X99334500Y-101388750D01*
X99334500Y-101493935D01*
X99399507Y-101650876D01*
X99519624Y-101770993D01*
X99676564Y-101836000D01*
X100099250Y-101836000D01*
X100206000Y-101729250D01*
X100206000Y-101282000D01*
X100460000Y-101282000D01*
X100460000Y-101729250D01*
X100566750Y-101836000D01*
X100989436Y-101836000D01*
X101146376Y-101770993D01*
X101266493Y-101650876D01*
X101331500Y-101493935D01*
X101331500Y-101388750D01*
X101224750Y-101282000D01*
X100460000Y-101282000D01*
X100206000Y-101282000D01*
X100186000Y-101282000D01*
X100186000Y-101028000D01*
X100206000Y-101028000D01*
X100206000Y-101008000D01*
X100460000Y-101008000D01*
X100460000Y-101028000D01*
X101224750Y-101028000D01*
X101331500Y-100921250D01*
X101331500Y-100816065D01*
X101266493Y-100659124D01*
X101146376Y-100539007D01*
X101049090Y-100498709D01*
X101175365Y-100417454D01*
X101262359Y-100290134D01*
X101292964Y-100139000D01*
X101292964Y-99631000D01*
X101266397Y-99489810D01*
X101182954Y-99360135D01*
X101055634Y-99273141D01*
X100942712Y-99250274D01*
X101045690Y-99230897D01*
X101175365Y-99147454D01*
X101262359Y-99020134D01*
X101292964Y-98869000D01*
X101292964Y-98361000D01*
X101266397Y-98219810D01*
X101182954Y-98090135D01*
X101055634Y-98003141D01*
X100942712Y-97980274D01*
X101045690Y-97960897D01*
X101175365Y-97877454D01*
X101262359Y-97750134D01*
X101292964Y-97599000D01*
X101292964Y-97091000D01*
X101266397Y-96949810D01*
X101182954Y-96820135D01*
X101055634Y-96733141D01*
X100998500Y-96721571D01*
X100998500Y-96070567D01*
X101032865Y-96048454D01*
X101119859Y-95921134D01*
X101150464Y-95770000D01*
X101150464Y-95305250D01*
X101351000Y-95305250D01*
X101351000Y-95854936D01*
X101416007Y-96011876D01*
X101536124Y-96131993D01*
X101693065Y-96197000D01*
X101988750Y-96197000D01*
X102095500Y-96090250D01*
X102095500Y-95198500D01*
X102349500Y-95198500D01*
X102349500Y-96090250D01*
X102456250Y-96197000D01*
X102751935Y-96197000D01*
X102908876Y-96131993D01*
X103028993Y-96011876D01*
X103094000Y-95854936D01*
X103094000Y-95305250D01*
X102987250Y-95198500D01*
X102349500Y-95198500D01*
X102095500Y-95198500D01*
X101457750Y-95198500D01*
X101351000Y-95305250D01*
X101150464Y-95305250D01*
X101150464Y-94540575D01*
X101351000Y-94540575D01*
X101351000Y-94837750D01*
X101457750Y-94944500D01*
X102095500Y-94944500D01*
X102095500Y-94924500D01*
X102349500Y-94924500D01*
X102349500Y-94944500D01*
X102987250Y-94944500D01*
X103094000Y-94837750D01*
X103094000Y-94540575D01*
X104990425Y-94540575D01*
X105193630Y-94500155D01*
X105365899Y-94385049D01*
X106219000Y-93531947D01*
X106219000Y-96042053D01*
X105558516Y-96702536D01*
X105095500Y-96702536D01*
X104954310Y-96729103D01*
X104824635Y-96812546D01*
X104737641Y-96939866D01*
X104707036Y-97091000D01*
X104707036Y-97599000D01*
X104733603Y-97740190D01*
X104817046Y-97869865D01*
X104944366Y-97956859D01*
X105057288Y-97979726D01*
X104954310Y-97999103D01*
X104824635Y-98082546D01*
X104737641Y-98209866D01*
X104707036Y-98361000D01*
X104707036Y-98869000D01*
X104733603Y-99010190D01*
X104817046Y-99139865D01*
X104944366Y-99226859D01*
X105057288Y-99249726D01*
X104954310Y-99269103D01*
X104824635Y-99352546D01*
X104737641Y-99479866D01*
X104729631Y-99519422D01*
X104124526Y-100124526D01*
X104009420Y-100296795D01*
X103969000Y-100500000D01*
X103969000Y-102000000D01*
X104009420Y-102203205D01*
X104124526Y-102375474D01*
X104374524Y-102625471D01*
X104374526Y-102625474D01*
X104546795Y-102740580D01*
X104750000Y-102781000D01*
X106500000Y-102781000D01*
X106703205Y-102740580D01*
X106875474Y-102625474D01*
X108625474Y-100875474D01*
X108740580Y-100703205D01*
X108781001Y-100500000D01*
X108781000Y-100499995D01*
X108781000Y-90517000D01*
X109536036Y-90517000D01*
X109536036Y-92168000D01*
X109562603Y-92309190D01*
X109646046Y-92438865D01*
X109773366Y-92525859D01*
X109924500Y-92556464D01*
X111575500Y-92556464D01*
X111716690Y-92529897D01*
X111846365Y-92446454D01*
X111933359Y-92319134D01*
X111963964Y-92168000D01*
X111963964Y-90517000D01*
X111937397Y-90375810D01*
X111853954Y-90246135D01*
X111726634Y-90159141D01*
X111575500Y-90128536D01*
X109924500Y-90128536D01*
X109783310Y-90155103D01*
X109653635Y-90238546D01*
X109566641Y-90365866D01*
X109536036Y-90517000D01*
X108781000Y-90517000D01*
X108781000Y-89036405D01*
X109568696Y-89036405D01*
X109748128Y-89470665D01*
X110080087Y-89803204D01*
X110514034Y-89983394D01*
X110983905Y-89983804D01*
X111418165Y-89804372D01*
X111750704Y-89472413D01*
X111930894Y-89038466D01*
X111931304Y-88568595D01*
X111751872Y-88134335D01*
X111419913Y-87801796D01*
X110985966Y-87621606D01*
X110516095Y-87621196D01*
X110081835Y-87800628D01*
X109749296Y-88132587D01*
X109569106Y-88566534D01*
X109568696Y-89036405D01*
X108781000Y-89036405D01*
X108781000Y-87280298D01*
X109568699Y-86492599D01*
X109568696Y-86496405D01*
X109748128Y-86930665D01*
X110080087Y-87263204D01*
X110514034Y-87443394D01*
X110983905Y-87443804D01*
X111418165Y-87264372D01*
X111526215Y-87156510D01*
X112575595Y-87156510D01*
X112661142Y-87344115D01*
X113122927Y-87502435D01*
X113610148Y-87471987D01*
X113918858Y-87344115D01*
X114004405Y-87156510D01*
X113290000Y-86442105D01*
X112575595Y-87156510D01*
X111526215Y-87156510D01*
X111750704Y-86932413D01*
X111930894Y-86498466D01*
X111931245Y-86095427D01*
X112050065Y-86095427D01*
X112080513Y-86582648D01*
X112208385Y-86891358D01*
X112395990Y-86976905D01*
X113110395Y-86262500D01*
X112395990Y-85548095D01*
X112208385Y-85633642D01*
X112050065Y-86095427D01*
X111931245Y-86095427D01*
X111931304Y-86028595D01*
X111751872Y-85594335D01*
X111526421Y-85368490D01*
X112575595Y-85368490D01*
X113290000Y-86082895D01*
X114004405Y-85368490D01*
X113918858Y-85180885D01*
X113457073Y-85022565D01*
X112969852Y-85053013D01*
X112661142Y-85180885D01*
X112575595Y-85368490D01*
X111526421Y-85368490D01*
X111419913Y-85261796D01*
X110985966Y-85081606D01*
X110979697Y-85081601D01*
X111530710Y-84530588D01*
X111656359Y-84530698D01*
X112076612Y-84357054D01*
X112398423Y-84035803D01*
X112572801Y-83615854D01*
X112573198Y-83161141D01*
X112399554Y-82740888D01*
X112078303Y-82419077D01*
X111658354Y-82244699D01*
X111457770Y-82244524D01*
X111430000Y-82239000D01*
X111402472Y-82244476D01*
X111203641Y-82244302D01*
X110783388Y-82417946D01*
X110714190Y-82487024D01*
X110714190Y-82314258D01*
X111043472Y-81984975D01*
X111043475Y-81984973D01*
X111086118Y-81942330D01*
X111201646Y-81990301D01*
X111656359Y-81990698D01*
X112076612Y-81817054D01*
X112398423Y-81495803D01*
X112572801Y-81075854D01*
X112573198Y-80621141D01*
X112399554Y-80200888D01*
X112078303Y-79879077D01*
X111658354Y-79704699D01*
X111457770Y-79704524D01*
X111430000Y-79699000D01*
X111402472Y-79704476D01*
X111203641Y-79704302D01*
X110783388Y-79877946D01*
X110461577Y-80199197D01*
X110287199Y-80619146D01*
X110286802Y-81073859D01*
X110335305Y-81191247D01*
X110292527Y-81234025D01*
X110292525Y-81234028D01*
X109807716Y-81718836D01*
X109692610Y-81891105D01*
X109652190Y-82094310D01*
X109652190Y-82533163D01*
X109538303Y-82419077D01*
X109118354Y-82244699D01*
X108917770Y-82244524D01*
X108890000Y-82239000D01*
X108862472Y-82244476D01*
X108663641Y-82244302D01*
X108243388Y-82417946D01*
X108031000Y-82629964D01*
X108031000Y-82469948D01*
X108554951Y-81945997D01*
X108661646Y-81990301D01*
X109116359Y-81990698D01*
X109536612Y-81817054D01*
X109858423Y-81495803D01*
X110032801Y-81075854D01*
X110033198Y-80621141D01*
X109859554Y-80200888D01*
X109538303Y-79879077D01*
X109118354Y-79704699D01*
X108663641Y-79704302D01*
X108243388Y-79877946D01*
X107921577Y-80199197D01*
X107747199Y-80619146D01*
X107746802Y-81073859D01*
X107798960Y-81200092D01*
X107124526Y-81874526D01*
X107009420Y-82046795D01*
X106969000Y-82250000D01*
X106969000Y-82406909D01*
X106578354Y-82244699D01*
X106377770Y-82244524D01*
X106350000Y-82239000D01*
X106322472Y-82244476D01*
X106123641Y-82244302D01*
X105768999Y-82390836D01*
X105768999Y-82179449D01*
X106006118Y-81942330D01*
X106121646Y-81990301D01*
X106576359Y-81990698D01*
X106996612Y-81817054D01*
X107318423Y-81495803D01*
X107492801Y-81075854D01*
X107493198Y-80621141D01*
X107319554Y-80200888D01*
X106998303Y-79879077D01*
X106578354Y-79704699D01*
X106123641Y-79704302D01*
X105703388Y-79877946D01*
X105381577Y-80199197D01*
X105207199Y-80619146D01*
X105206802Y-81073859D01*
X105255305Y-81191247D01*
X104862525Y-81584027D01*
X104747419Y-81756296D01*
X104706999Y-81959501D01*
X104706999Y-82668207D01*
X104458303Y-82419077D01*
X104038354Y-82244699D01*
X103837770Y-82244524D01*
X103810000Y-82239000D01*
X103782472Y-82244476D01*
X103583641Y-82244302D01*
X103163388Y-82417946D01*
X103131000Y-82450278D01*
X103131000Y-82277448D01*
X103466118Y-81942330D01*
X103581646Y-81990301D01*
X104036359Y-81990698D01*
X104456612Y-81817054D01*
X104778423Y-81495803D01*
X104952801Y-81075854D01*
X104953198Y-80621141D01*
X104779554Y-80200888D01*
X104458303Y-79879077D01*
X104038354Y-79704699D01*
X103583641Y-79704302D01*
X103163388Y-79877946D01*
X102841577Y-80199197D01*
X102667199Y-80619146D01*
X102666802Y-81073859D01*
X102715305Y-81191247D01*
X102224526Y-81682026D01*
X102109420Y-81854295D01*
X102069000Y-82057500D01*
X102069000Y-82516109D01*
X101939913Y-82386796D01*
X101505966Y-82206606D01*
X101036095Y-82206196D01*
X100650899Y-82365355D01*
X100650899Y-82217549D01*
X100896968Y-81971479D01*
X101034034Y-82028394D01*
X101503905Y-82028804D01*
X101938165Y-81849372D01*
X102270704Y-81517413D01*
X102450894Y-81083466D01*
X102451304Y-80613595D01*
X102271872Y-80179335D01*
X101939913Y-79846796D01*
X101505966Y-79666606D01*
X101036095Y-79666196D01*
X100601835Y-79845628D01*
X100269296Y-80177587D01*
X100089106Y-80611534D01*
X100088696Y-81081405D01*
X100146135Y-81220418D01*
X99744425Y-81622127D01*
X99629319Y-81794396D01*
X99588899Y-81997601D01*
X99588899Y-82576112D01*
X99399913Y-82386796D01*
X98965966Y-82206606D01*
X98496095Y-82206196D01*
X98061835Y-82385628D01*
X97991000Y-82456339D01*
X97991000Y-82337448D01*
X98356968Y-81971480D01*
X98494034Y-82028394D01*
X98963905Y-82028804D01*
X99398165Y-81849372D01*
X99730704Y-81517413D01*
X99910894Y-81083466D01*
X99911304Y-80613595D01*
X99731872Y-80179335D01*
X99399913Y-79846796D01*
X98965966Y-79666606D01*
X98496095Y-79666196D01*
X98061835Y-79845628D01*
X97729296Y-80177587D01*
X97549106Y-80611534D01*
X97548696Y-81081405D01*
X97606135Y-81220417D01*
X97084526Y-81742026D01*
X96969420Y-81914295D01*
X96929000Y-82117500D01*
X96929000Y-82456004D01*
X96859913Y-82386796D01*
X96425966Y-82206606D01*
X95956095Y-82206196D01*
X95521835Y-82385628D01*
X95451000Y-82456339D01*
X95451000Y-82337448D01*
X95816968Y-81971480D01*
X95954034Y-82028394D01*
X96423905Y-82028804D01*
X96858165Y-81849372D01*
X97190704Y-81517413D01*
X97370894Y-81083466D01*
X97371304Y-80613595D01*
X97191872Y-80179335D01*
X96859913Y-79846796D01*
X96425966Y-79666606D01*
X95956095Y-79666196D01*
X95521835Y-79845628D01*
X95189296Y-80177587D01*
X95009106Y-80611534D01*
X95008696Y-81081405D01*
X95066135Y-81220417D01*
X94544526Y-81742026D01*
X94429420Y-81914295D01*
X94389000Y-82117500D01*
X94389000Y-82456004D01*
X94319913Y-82386796D01*
X93885966Y-82206606D01*
X93416095Y-82206196D01*
X92981835Y-82385628D01*
X92911000Y-82456339D01*
X92911000Y-82337448D01*
X93276968Y-81971480D01*
X93414034Y-82028394D01*
X93883905Y-82028804D01*
X94318165Y-81849372D01*
X94650704Y-81517413D01*
X94830894Y-81083466D01*
X94831304Y-80613595D01*
X94651872Y-80179335D01*
X94319913Y-79846796D01*
X93885966Y-79666606D01*
X93416095Y-79666196D01*
X92981835Y-79845628D01*
X92649296Y-80177587D01*
X92469106Y-80611534D01*
X92468696Y-81081405D01*
X92526135Y-81220417D01*
X92004526Y-81742026D01*
X91889420Y-81914295D01*
X91849000Y-82117500D01*
X91849000Y-82456004D01*
X91779913Y-82386796D01*
X91345966Y-82206606D01*
X90876095Y-82206196D01*
X90441835Y-82385628D01*
X90109296Y-82717587D01*
X89929106Y-83151534D01*
X89928696Y-83621405D01*
X90108128Y-84055665D01*
X90440087Y-84388204D01*
X90874034Y-84568394D01*
X91343905Y-84568804D01*
X91778165Y-84389372D01*
X91849000Y-84318661D01*
X91849000Y-88198893D01*
X89760576Y-90287316D01*
X89645470Y-90459585D01*
X89605050Y-90662790D01*
X89605050Y-94016284D01*
X89559063Y-94062191D01*
X89455168Y-94312396D01*
X89454932Y-94583315D01*
X89558389Y-94833702D01*
X89749791Y-95025437D01*
X89910694Y-95092250D01*
X89910474Y-95344667D01*
X90013931Y-95595054D01*
X90205333Y-95786789D01*
X90325926Y-95836864D01*
X90238366Y-96047729D01*
X90238130Y-96318648D01*
X90341587Y-96569035D01*
X90532989Y-96760770D01*
X90783194Y-96864665D01*
X91054113Y-96864901D01*
X91304500Y-96761444D01*
X91348989Y-96717032D01*
X91348989Y-97102552D01*
X91266827Y-97225517D01*
X91228368Y-97418862D01*
X91180420Y-97466727D01*
X91076525Y-97716932D01*
X91076289Y-97987851D01*
X91152305Y-98171826D01*
X91065507Y-98258624D01*
X91000500Y-98415565D01*
X91000500Y-98711250D01*
X91107250Y-98818000D01*
X91999000Y-98818000D01*
X91999000Y-98798000D01*
X92253000Y-98798000D01*
X92253000Y-98818000D01*
X93144750Y-98818000D01*
X93251500Y-98711250D01*
X93251500Y-98415565D01*
X93186493Y-98258624D01*
X93066376Y-98138507D01*
X92909436Y-98073500D01*
X92403218Y-98073500D01*
X92438289Y-97989040D01*
X92438525Y-97718121D01*
X92359257Y-97526275D01*
X92370569Y-97509345D01*
X92410989Y-97306140D01*
X92410989Y-94782559D01*
X93808784Y-96180354D01*
X93808784Y-99625882D01*
X93762797Y-99671789D01*
X93658902Y-99921994D01*
X93658666Y-100192913D01*
X93762123Y-100443300D01*
X93953525Y-100635035D01*
X94203730Y-100738930D01*
X94474649Y-100739166D01*
X94725036Y-100635709D01*
X94916771Y-100444307D01*
X94947806Y-100369567D01*
X94955442Y-100372738D01*
X95226361Y-100372974D01*
X95476748Y-100269517D01*
X95592452Y-100154013D01*
X95739788Y-100215193D01*
X96010707Y-100215429D01*
X96261094Y-100111972D01*
X96452829Y-99920570D01*
X96483325Y-99847128D01*
X96505263Y-99856238D01*
X96776182Y-99856474D01*
X97026569Y-99753017D01*
X97218304Y-99561615D01*
X97322199Y-99311410D01*
X97322435Y-99040491D01*
X97218978Y-98790104D01*
X97172317Y-98743362D01*
X97172317Y-96140571D01*
X97131897Y-95937366D01*
X97016791Y-95765097D01*
X97016788Y-95765095D01*
X94601012Y-93349318D01*
X94601012Y-92006071D01*
X98863473Y-87743610D01*
X98978579Y-87571341D01*
X99018999Y-87368136D01*
X99018999Y-87311447D01*
X101645471Y-84684974D01*
X101645474Y-84684972D01*
X101760580Y-84512703D01*
X101771406Y-84458275D01*
X101938165Y-84389372D01*
X102069000Y-84258765D01*
X102069000Y-90317064D01*
X101330113Y-91055950D01*
X101265135Y-91055893D01*
X101014748Y-91159350D01*
X100823013Y-91350752D01*
X100719118Y-91600957D01*
X100718882Y-91871876D01*
X100762955Y-91978542D01*
X99041811Y-91978542D01*
X99032763Y-91956644D01*
X98841361Y-91764909D01*
X98591156Y-91661014D01*
X98320237Y-91660778D01*
X98069850Y-91764235D01*
X97934787Y-91899063D01*
X97813469Y-91848687D01*
X97542550Y-91848451D01*
X97292163Y-91951908D01*
X97100428Y-92143310D01*
X97087267Y-92175006D01*
X96994549Y-92136506D01*
X96723630Y-92136270D01*
X96473243Y-92239727D01*
X96327595Y-92385122D01*
X96123542Y-92300391D01*
X95852623Y-92300155D01*
X95602236Y-92403612D01*
X95410501Y-92595014D01*
X95306606Y-92845219D01*
X95306370Y-93116138D01*
X95409827Y-93366525D01*
X95601229Y-93558260D01*
X95851434Y-93662155D01*
X95917480Y-93662213D01*
X96640316Y-94385049D01*
X96812585Y-94500155D01*
X97015790Y-94540575D01*
X99484536Y-94540575D01*
X99484536Y-95728113D01*
X98874345Y-95728113D01*
X98633844Y-95628249D01*
X98323143Y-95627977D01*
X98035989Y-95746627D01*
X97816098Y-95966134D01*
X97696948Y-96253081D01*
X97696676Y-96563782D01*
X97815326Y-96850936D01*
X98034833Y-97070827D01*
X98321780Y-97189977D01*
X98632481Y-97190249D01*
X98874828Y-97090113D01*
X99373216Y-97090113D01*
X99373036Y-97091000D01*
X99373036Y-97599000D01*
X99399603Y-97740190D01*
X99483046Y-97869865D01*
X99610366Y-97956859D01*
X99723288Y-97979726D01*
X99620310Y-97999103D01*
X99490635Y-98082546D01*
X99478043Y-98100975D01*
X99064208Y-98100975D01*
X98861003Y-98141395D01*
X98688734Y-98256501D01*
X96456064Y-100489171D01*
X95729829Y-100489171D01*
X95526624Y-100529591D01*
X95354355Y-100644697D01*
X95354353Y-100644700D01*
X93492964Y-102506088D01*
X93492964Y-102241000D01*
X93466397Y-102099810D01*
X93382954Y-101970135D01*
X93255634Y-101883141D01*
X93104500Y-101852536D01*
X92726733Y-101852536D01*
X92533000Y-101814000D01*
X92527080Y-101814000D01*
X92396044Y-101682964D01*
X92824500Y-101682964D01*
X92965690Y-101656397D01*
X93095365Y-101572954D01*
X93182359Y-101445634D01*
X93212964Y-101294500D01*
X93212964Y-100405500D01*
X93186397Y-100264310D01*
X93102954Y-100134635D01*
X92975634Y-100047641D01*
X92824500Y-100017036D01*
X91427500Y-100017036D01*
X91286310Y-100043603D01*
X91156635Y-100127046D01*
X91069641Y-100254366D01*
X91039036Y-100405500D01*
X91039036Y-100450384D01*
X91031000Y-100458420D01*
X91031000Y-99548069D01*
X91065507Y-99631376D01*
X91185624Y-99751493D01*
X91342564Y-99816500D01*
X91892250Y-99816500D01*
X91999000Y-99709750D01*
X91999000Y-99072000D01*
X92253000Y-99072000D01*
X92253000Y-99709750D01*
X92359750Y-99816500D01*
X92909436Y-99816500D01*
X93066376Y-99751493D01*
X93186493Y-99631376D01*
X93251500Y-99474435D01*
X93251500Y-99178750D01*
X93144750Y-99072000D01*
X92253000Y-99072000D01*
X91999000Y-99072000D01*
X91107250Y-99072000D01*
X91000500Y-99178750D01*
X91000500Y-99346665D01*
X90990580Y-99296795D01*
X90875474Y-99124526D01*
X88204042Y-96453094D01*
X88568834Y-96088937D01*
X88820713Y-95482345D01*
X88821286Y-94825537D01*
X88570466Y-94218505D01*
X88106437Y-93753666D01*
X87499845Y-93501787D01*
X86843037Y-93501214D01*
X86236005Y-93752034D01*
X85771166Y-94216063D01*
X85519287Y-94822655D01*
X85518714Y-95479463D01*
X85769534Y-96086495D01*
X85859381Y-96176499D01*
X83632006Y-96176499D01*
X83632001Y-96176498D01*
X83428796Y-96216919D01*
X83256527Y-96332025D01*
X83256525Y-96332028D01*
X82912113Y-96676439D01*
X82847135Y-96676382D01*
X82596748Y-96779839D01*
X82405013Y-96971241D01*
X82301118Y-97221446D01*
X82300882Y-97492365D01*
X80627000Y-97492365D01*
X80627000Y-90586770D01*
X86115335Y-90586770D01*
X86258475Y-90823171D01*
X86890662Y-91060048D01*
X87565376Y-91036967D01*
X88081525Y-90823171D01*
X88224665Y-90586770D01*
X87170000Y-89532105D01*
X86115335Y-90586770D01*
X80627000Y-90586770D01*
X80627000Y-89073162D01*
X85462452Y-89073162D01*
X85485533Y-89747876D01*
X85699329Y-90264025D01*
X85935730Y-90407165D01*
X86990395Y-89352500D01*
X87349605Y-89352500D01*
X88404270Y-90407165D01*
X88640671Y-90264025D01*
X88877548Y-89631838D01*
X88854467Y-88957124D01*
X88640671Y-88440975D01*
X88404270Y-88297835D01*
X87349605Y-89352500D01*
X86990395Y-89352500D01*
X85935730Y-88297835D01*
X85699329Y-88440975D01*
X85462452Y-89073162D01*
X80627000Y-89073162D01*
X80627000Y-88118230D01*
X86115335Y-88118230D01*
X87170000Y-89172895D01*
X88224665Y-88118230D01*
X88081525Y-87881829D01*
X87449338Y-87644952D01*
X86774624Y-87668033D01*
X86258475Y-87881829D01*
X86115335Y-88118230D01*
X80627000Y-88118230D01*
X80627000Y-87052606D01*
X81052606Y-86627000D01*
X85000000Y-86627000D01*
X85049410Y-86616994D01*
X85089803Y-86589803D01*
X85589803Y-86089803D01*
X85617666Y-86047789D01*
X85627000Y-86000000D01*
X85627000Y-83621250D01*
X87317500Y-83621250D01*
X87317500Y-84297936D01*
X87382507Y-84454876D01*
X87502624Y-84574993D01*
X87659565Y-84640000D01*
X88336250Y-84640000D01*
X88443000Y-84533250D01*
X88443000Y-83514500D01*
X88697000Y-83514500D01*
X88697000Y-84533250D01*
X88803750Y-84640000D01*
X89480435Y-84640000D01*
X89637376Y-84574993D01*
X89757493Y-84454876D01*
X89822500Y-84297936D01*
X89822500Y-83621250D01*
X89715750Y-83514500D01*
X88697000Y-83514500D01*
X88443000Y-83514500D01*
X87424250Y-83514500D01*
X87317500Y-83621250D01*
X85627000Y-83621250D01*
X85627000Y-82477064D01*
X87317500Y-82477064D01*
X87317500Y-83153750D01*
X87424250Y-83260500D01*
X88443000Y-83260500D01*
X88443000Y-82241750D01*
X88697000Y-82241750D01*
X88697000Y-83260500D01*
X89715750Y-83260500D01*
X89822500Y-83153750D01*
X89822500Y-82477064D01*
X89757493Y-82320124D01*
X89637376Y-82200007D01*
X89480435Y-82135000D01*
X88803750Y-82135000D01*
X88697000Y-82241750D01*
X88443000Y-82241750D01*
X88336250Y-82135000D01*
X87659565Y-82135000D01*
X87502624Y-82200007D01*
X87382507Y-82320124D01*
X87317500Y-82477064D01*
X85627000Y-82477064D01*
X85627000Y-81741510D01*
X87855595Y-81741510D01*
X87941142Y-81929115D01*
X88402927Y-82087435D01*
X88890148Y-82056987D01*
X89198858Y-81929115D01*
X89284405Y-81741510D01*
X88570000Y-81027105D01*
X87855595Y-81741510D01*
X85627000Y-81741510D01*
X85627000Y-80680427D01*
X87330065Y-80680427D01*
X87360513Y-81167648D01*
X87488385Y-81476358D01*
X87675990Y-81561905D01*
X88390395Y-80847500D01*
X88749605Y-80847500D01*
X89464010Y-81561905D01*
X89651615Y-81476358D01*
X89787022Y-81081405D01*
X89928696Y-81081405D01*
X90108128Y-81515665D01*
X90440087Y-81848204D01*
X90874034Y-82028394D01*
X91343905Y-82028804D01*
X91778165Y-81849372D01*
X92110704Y-81517413D01*
X92290894Y-81083466D01*
X92291304Y-80613595D01*
X92111872Y-80179335D01*
X91779913Y-79846796D01*
X91345966Y-79666606D01*
X90876095Y-79666196D01*
X90441835Y-79845628D01*
X90109296Y-80177587D01*
X89929106Y-80611534D01*
X89928696Y-81081405D01*
X89787022Y-81081405D01*
X89809935Y-81014573D01*
X89779487Y-80527352D01*
X89651615Y-80218642D01*
X89464010Y-80133095D01*
X88749605Y-80847500D01*
X88390395Y-80847500D01*
X87675990Y-80133095D01*
X87488385Y-80218642D01*
X87330065Y-80680427D01*
X85627000Y-80680427D01*
X85627000Y-80570390D01*
X86614040Y-79953490D01*
X87855595Y-79953490D01*
X88570000Y-80667895D01*
X89284405Y-79953490D01*
X89198858Y-79765885D01*
X88737073Y-79607565D01*
X88249852Y-79638013D01*
X87941142Y-79765885D01*
X87855595Y-79953490D01*
X86614040Y-79953490D01*
X88844296Y-78559580D01*
X90269111Y-77847220D01*
X93523030Y-76627000D01*
X106476970Y-76627000D01*
X109722718Y-77844156D01*
X109722718Y-77844156D01*
G37*
X109722718Y-77844156D02*
X111162162Y-78563616D01*
X113332871Y-79920309D01*
X112954000Y-79920309D01*
X112954000Y-84984692D01*
X114373000Y-84984692D01*
X114373000Y-85636986D01*
X114371615Y-85633642D01*
X114184010Y-85548095D01*
X113469605Y-86262500D01*
X114184010Y-86976905D01*
X114371615Y-86891358D01*
X114373000Y-86887318D01*
X114373000Y-88330680D01*
X114291872Y-88134335D01*
X113959913Y-87801796D01*
X113525966Y-87621606D01*
X113056095Y-87621196D01*
X112621835Y-87800628D01*
X112289296Y-88132587D01*
X112109106Y-88566534D01*
X112108696Y-89036405D01*
X112288128Y-89470665D01*
X112620087Y-89803204D01*
X113054034Y-89983394D01*
X113523905Y-89983804D01*
X113958165Y-89804372D01*
X114290704Y-89472413D01*
X114373000Y-89274222D01*
X114373000Y-90870680D01*
X114291872Y-90674335D01*
X113959913Y-90341796D01*
X113525966Y-90161606D01*
X113056095Y-90161196D01*
X112621835Y-90340628D01*
X112289296Y-90672587D01*
X112109106Y-91106534D01*
X112108696Y-91576405D01*
X112288128Y-92010665D01*
X112620087Y-92343204D01*
X113054034Y-92523394D01*
X113523905Y-92523804D01*
X113958165Y-92344372D01*
X114290704Y-92012413D01*
X114373000Y-91814222D01*
X114373000Y-95422053D01*
X113136906Y-94185958D01*
X112964637Y-94070852D01*
X112761432Y-94030432D01*
X110450146Y-94030432D01*
X110404239Y-93984445D01*
X110154034Y-93880550D01*
X109883115Y-93880314D01*
X109632728Y-93983771D01*
X109440993Y-94175173D01*
X109337098Y-94425378D01*
X109336862Y-94696297D01*
X109440319Y-94946684D01*
X109631721Y-95138419D01*
X109881926Y-95242314D01*
X110152845Y-95242550D01*
X110403232Y-95139093D01*
X110449974Y-95092432D01*
X112541484Y-95092432D01*
X114058488Y-96609435D01*
X114058488Y-96627593D01*
X112914187Y-95483292D01*
X112741918Y-95368186D01*
X112538713Y-95327766D01*
X111782146Y-95327766D01*
X111736239Y-95281779D01*
X111486034Y-95177884D01*
X111215115Y-95177648D01*
X110964728Y-95281105D01*
X110772993Y-95472507D01*
X110669098Y-95722712D01*
X110668862Y-95993631D01*
X110772319Y-96244018D01*
X110963721Y-96435753D01*
X111213926Y-96539648D01*
X111484845Y-96539884D01*
X111735232Y-96436427D01*
X111781974Y-96389766D01*
X112318765Y-96389766D01*
X112747942Y-96818943D01*
X112626705Y-96869037D01*
X112434970Y-97060439D01*
X112331075Y-97310644D01*
X112330839Y-97581563D01*
X112434296Y-97831950D01*
X112625698Y-98023685D01*
X112875903Y-98127580D01*
X112941949Y-98127638D01*
X113058468Y-98244157D01*
X113058468Y-106440763D01*
X112926900Y-106466934D01*
X112754631Y-106582040D01*
X112416631Y-106920040D01*
X112301525Y-107092309D01*
X112261105Y-107295514D01*
X112261105Y-107919516D01*
X112301525Y-108122721D01*
X112416631Y-108294990D01*
X112754631Y-108632990D01*
X112819240Y-108676160D01*
X112819240Y-109235746D01*
X110714682Y-107131188D01*
X110922022Y-107131369D01*
X111705538Y-106807627D01*
X112305521Y-106208691D01*
X112630630Y-105425742D01*
X112631369Y-104577978D01*
X112307627Y-103794462D01*
X111708691Y-103194479D01*
X110925742Y-102869370D01*
X110077978Y-102868631D01*
X109294462Y-103192373D01*
X108694479Y-103791309D01*
X108369370Y-104574258D01*
X108368802Y-105225856D01*
X108319753Y-105176807D01*
X108319753Y-104384258D01*
X108319754Y-104384253D01*
X108279333Y-104181048D01*
X108164227Y-104008779D01*
X108164224Y-104008777D01*
X107793061Y-103637613D01*
X107793118Y-103572635D01*
X107689661Y-103322248D01*
X107498259Y-103130513D01*
X107248054Y-103026618D01*
X106977135Y-103026382D01*
X106726748Y-103129839D01*
X106535013Y-103321241D01*
X106431118Y-103571446D01*
X106430882Y-103842365D01*
X106457580Y-103906980D01*
X106281013Y-104083241D01*
X106177118Y-104333446D01*
X106176882Y-104604365D01*
X106203580Y-104668980D01*
X106045611Y-104826675D01*
X105903391Y-104767620D01*
X105632472Y-104767384D01*
X105382085Y-104870841D01*
X105190350Y-105062243D01*
X105086455Y-105312448D01*
X105086219Y-105583367D01*
X105189676Y-105833754D01*
X105381078Y-106025489D01*
X105495741Y-106073102D01*
X105497276Y-106075399D01*
X106772146Y-107350268D01*
X106772146Y-110100400D01*
X105400110Y-110100400D01*
X105293360Y-110207150D01*
X105293360Y-111200500D01*
X105313360Y-111200500D01*
X105313360Y-111454500D01*
X105293360Y-111454500D01*
X105293360Y-112447850D01*
X105400110Y-112554600D01*
X106772146Y-112554600D01*
X106772146Y-112694407D01*
X104153882Y-115312670D01*
X104038354Y-115264699D01*
X103583641Y-115264302D01*
X103163388Y-115437946D01*
X102841577Y-115759197D01*
X102667199Y-116179146D01*
X102666802Y-116633859D01*
X102840446Y-117054112D01*
X103161697Y-117375923D01*
X103581646Y-117550301D01*
X104036359Y-117550698D01*
X104456612Y-117377054D01*
X104706999Y-117127103D01*
X104706999Y-117835499D01*
X104747419Y-118038704D01*
X104862525Y-118210973D01*
X105255170Y-118603618D01*
X105207199Y-118719146D01*
X105206802Y-119173859D01*
X105380446Y-119594112D01*
X105701697Y-119915923D01*
X106121646Y-120090301D01*
X106576359Y-120090698D01*
X106996612Y-119917054D01*
X107318423Y-119595803D01*
X107492801Y-119175854D01*
X107493198Y-118721141D01*
X107319554Y-118300888D01*
X106998303Y-117979077D01*
X106578354Y-117804699D01*
X106123641Y-117804302D01*
X106006253Y-117852805D01*
X105768999Y-117615551D01*
X105768999Y-117403869D01*
X106121646Y-117550301D01*
X106576359Y-117550698D01*
X106996612Y-117377054D01*
X107246999Y-117127103D01*
X107246999Y-117835499D01*
X107287419Y-118038704D01*
X107402525Y-118210973D01*
X107795170Y-118603618D01*
X107747199Y-118719146D01*
X107746802Y-119173859D01*
X107920446Y-119594112D01*
X108241697Y-119915923D01*
X108661646Y-120090301D01*
X109116359Y-120090698D01*
X109536612Y-119917054D01*
X109858423Y-119595803D01*
X110032801Y-119175854D01*
X110033198Y-118721141D01*
X109859554Y-118300888D01*
X109538303Y-117979077D01*
X109118354Y-117804699D01*
X108663641Y-117804302D01*
X108546253Y-117852805D01*
X108308999Y-117615551D01*
X108308999Y-117403869D01*
X108661646Y-117550301D01*
X109116359Y-117550698D01*
X109536612Y-117377054D01*
X109786999Y-117127103D01*
X109786999Y-117835499D01*
X109827419Y-118038704D01*
X109942525Y-118210973D01*
X110335170Y-118603618D01*
X110287199Y-118719146D01*
X110286802Y-119173859D01*
X110460446Y-119594112D01*
X110781697Y-119915923D01*
X111201646Y-120090301D01*
X111656359Y-120090698D01*
X112076612Y-119917054D01*
X112398423Y-119595803D01*
X112572801Y-119175854D01*
X112573198Y-118721141D01*
X112399554Y-118300888D01*
X112078303Y-117979077D01*
X111658354Y-117804699D01*
X111203641Y-117804302D01*
X111086253Y-117852805D01*
X110848999Y-117615551D01*
X110848999Y-117403869D01*
X111201646Y-117550301D01*
X111656359Y-117550698D01*
X112076612Y-117377054D01*
X112398423Y-117055803D01*
X112447131Y-116938500D01*
X112507630Y-116938500D01*
X112710835Y-116898080D01*
X112883104Y-116782974D01*
X114373000Y-115293078D01*
X114373000Y-119830628D01*
X108228606Y-122903636D01*
X106976970Y-123373000D01*
X93026951Y-123373000D01*
X90163531Y-122100369D01*
X88026199Y-121031498D01*
X85627000Y-119432032D01*
X85627000Y-119181250D01*
X87317500Y-119181250D01*
X87317500Y-119857936D01*
X87382507Y-120014876D01*
X87502624Y-120134993D01*
X87659565Y-120200000D01*
X88336250Y-120200000D01*
X88443000Y-120093250D01*
X88443000Y-119074500D01*
X88697000Y-119074500D01*
X88697000Y-120093250D01*
X88803750Y-120200000D01*
X89480435Y-120200000D01*
X89637376Y-120134993D01*
X89757493Y-120014876D01*
X89822500Y-119857936D01*
X89822500Y-119181405D01*
X89928696Y-119181405D01*
X90108128Y-119615665D01*
X90440087Y-119948204D01*
X90874034Y-120128394D01*
X91343905Y-120128804D01*
X91778165Y-119949372D01*
X92110704Y-119617413D01*
X92290894Y-119183466D01*
X92290895Y-119181405D01*
X92468696Y-119181405D01*
X92648128Y-119615665D01*
X92980087Y-119948204D01*
X93414034Y-120128394D01*
X93883905Y-120128804D01*
X94318165Y-119949372D01*
X94650704Y-119617413D01*
X94830894Y-119183466D01*
X94830895Y-119181405D01*
X95008696Y-119181405D01*
X95188128Y-119615665D01*
X95520087Y-119948204D01*
X95954034Y-120128394D01*
X96423905Y-120128804D01*
X96858165Y-119949372D01*
X97190704Y-119617413D01*
X97370894Y-119183466D01*
X97370895Y-119181405D01*
X97548696Y-119181405D01*
X97728128Y-119615665D01*
X98060087Y-119948204D01*
X98494034Y-120128394D01*
X98963905Y-120128804D01*
X99398165Y-119949372D01*
X99730704Y-119617413D01*
X99910894Y-119183466D01*
X99910895Y-119181405D01*
X100088696Y-119181405D01*
X100268128Y-119615665D01*
X100600087Y-119948204D01*
X101034034Y-120128394D01*
X101503905Y-120128804D01*
X101938165Y-119949372D01*
X102270704Y-119617413D01*
X102450894Y-119183466D01*
X102450902Y-119173859D01*
X102666802Y-119173859D01*
X102840446Y-119594112D01*
X103161697Y-119915923D01*
X103581646Y-120090301D01*
X104036359Y-120090698D01*
X104456612Y-119917054D01*
X104778423Y-119595803D01*
X104952801Y-119175854D01*
X104953198Y-118721141D01*
X104779554Y-118300888D01*
X104458303Y-117979077D01*
X104038354Y-117804699D01*
X103583641Y-117804302D01*
X103163388Y-117977946D01*
X102841577Y-118299197D01*
X102667199Y-118719146D01*
X102666802Y-119173859D01*
X102450902Y-119173859D01*
X102451304Y-118713595D01*
X102271872Y-118279335D01*
X101939913Y-117946796D01*
X101505966Y-117766606D01*
X101036095Y-117766196D01*
X100601835Y-117945628D01*
X100269296Y-118277587D01*
X100089106Y-118711534D01*
X100088696Y-119181405D01*
X99910895Y-119181405D01*
X99911304Y-118713595D01*
X99731872Y-118279335D01*
X99399913Y-117946796D01*
X98965966Y-117766606D01*
X98496095Y-117766196D01*
X98061835Y-117945628D01*
X97729296Y-118277587D01*
X97549106Y-118711534D01*
X97548696Y-119181405D01*
X97370895Y-119181405D01*
X97371304Y-118713595D01*
X97191872Y-118279335D01*
X96859913Y-117946796D01*
X96425966Y-117766606D01*
X95956095Y-117766196D01*
X95521835Y-117945628D01*
X95189296Y-118277587D01*
X95009106Y-118711534D01*
X95008696Y-119181405D01*
X94830895Y-119181405D01*
X94831304Y-118713595D01*
X94651872Y-118279335D01*
X94319913Y-117946796D01*
X93885966Y-117766606D01*
X93416095Y-117766196D01*
X92981835Y-117945628D01*
X92649296Y-118277587D01*
X92469106Y-118711534D01*
X92468696Y-119181405D01*
X92290895Y-119181405D01*
X92291304Y-118713595D01*
X92111872Y-118279335D01*
X91779913Y-117946796D01*
X91345966Y-117766606D01*
X90876095Y-117766196D01*
X90441835Y-117945628D01*
X90109296Y-118277587D01*
X89929106Y-118711534D01*
X89928696Y-119181405D01*
X89822500Y-119181405D01*
X89822500Y-119181250D01*
X89715750Y-119074500D01*
X88697000Y-119074500D01*
X88443000Y-119074500D01*
X87424250Y-119074500D01*
X87317500Y-119181250D01*
X85627000Y-119181250D01*
X85627000Y-118037064D01*
X87317500Y-118037064D01*
X87317500Y-118713750D01*
X87424250Y-118820500D01*
X88443000Y-118820500D01*
X88443000Y-117801750D01*
X88697000Y-117801750D01*
X88697000Y-118820500D01*
X89715750Y-118820500D01*
X89822500Y-118713750D01*
X89822500Y-118037064D01*
X89757493Y-117880124D01*
X89637376Y-117760007D01*
X89480435Y-117695000D01*
X88803750Y-117695000D01*
X88697000Y-117801750D01*
X88443000Y-117801750D01*
X88336250Y-117695000D01*
X87659565Y-117695000D01*
X87502624Y-117760007D01*
X87382507Y-117880124D01*
X87317500Y-118037064D01*
X85627000Y-118037064D01*
X85627000Y-117301510D01*
X87855595Y-117301510D01*
X87941142Y-117489115D01*
X88402927Y-117647435D01*
X88890148Y-117616987D01*
X89198858Y-117489115D01*
X89284405Y-117301510D01*
X88570000Y-116587105D01*
X87855595Y-117301510D01*
X85627000Y-117301510D01*
X85627000Y-116240427D01*
X87330065Y-116240427D01*
X87360513Y-116727648D01*
X87488385Y-117036358D01*
X87675990Y-117121905D01*
X88390395Y-116407500D01*
X88749605Y-116407500D01*
X89464010Y-117121905D01*
X89651615Y-117036358D01*
X89787022Y-116641405D01*
X89928696Y-116641405D01*
X90108128Y-117075665D01*
X90440087Y-117408204D01*
X90874034Y-117588394D01*
X91343905Y-117588804D01*
X91778165Y-117409372D01*
X92110704Y-117077413D01*
X92290894Y-116643466D01*
X92290895Y-116641405D01*
X92468696Y-116641405D01*
X92648128Y-117075665D01*
X92980087Y-117408204D01*
X93414034Y-117588394D01*
X93883905Y-117588804D01*
X94318165Y-117409372D01*
X94650704Y-117077413D01*
X94830894Y-116643466D01*
X94830895Y-116641405D01*
X95008696Y-116641405D01*
X95188128Y-117075665D01*
X95520087Y-117408204D01*
X95954034Y-117588394D01*
X96423905Y-117588804D01*
X96858165Y-117409372D01*
X97190704Y-117077413D01*
X97370894Y-116643466D01*
X97370895Y-116641405D01*
X97548696Y-116641405D01*
X97728128Y-117075665D01*
X98060087Y-117408204D01*
X98494034Y-117588394D01*
X98963905Y-117588804D01*
X99398165Y-117409372D01*
X99730704Y-117077413D01*
X99910894Y-116643466D01*
X99910895Y-116641405D01*
X100088696Y-116641405D01*
X100268128Y-117075665D01*
X100600087Y-117408204D01*
X101034034Y-117588394D01*
X101503905Y-117588804D01*
X101938165Y-117409372D01*
X102270704Y-117077413D01*
X102450894Y-116643466D01*
X102451304Y-116173595D01*
X102271872Y-115739335D01*
X101939913Y-115406796D01*
X101505966Y-115226606D01*
X101036095Y-115226196D01*
X100601835Y-115405628D01*
X100269296Y-115737587D01*
X100089106Y-116171534D01*
X100088696Y-116641405D01*
X99910895Y-116641405D01*
X99911304Y-116173595D01*
X99731872Y-115739335D01*
X99399913Y-115406796D01*
X98965966Y-115226606D01*
X98496095Y-115226196D01*
X98061835Y-115405628D01*
X97729296Y-115737587D01*
X97549106Y-116171534D01*
X97548696Y-116641405D01*
X97370895Y-116641405D01*
X97371304Y-116173595D01*
X97191872Y-115739335D01*
X96859913Y-115406796D01*
X96425966Y-115226606D01*
X95956095Y-115226196D01*
X95521835Y-115405628D01*
X95189296Y-115737587D01*
X95009106Y-116171534D01*
X95008696Y-116641405D01*
X94830895Y-116641405D01*
X94831304Y-116173595D01*
X94651872Y-115739335D01*
X94319913Y-115406796D01*
X93885966Y-115226606D01*
X93416095Y-115226196D01*
X92981835Y-115405628D01*
X92649296Y-115737587D01*
X92469106Y-116171534D01*
X92468696Y-116641405D01*
X92290895Y-116641405D01*
X92291304Y-116173595D01*
X92111872Y-115739335D01*
X91779913Y-115406796D01*
X91345966Y-115226606D01*
X90876095Y-115226196D01*
X90441835Y-115405628D01*
X90109296Y-115737587D01*
X89929106Y-116171534D01*
X89928696Y-116641405D01*
X89787022Y-116641405D01*
X89809935Y-116574573D01*
X89779487Y-116087352D01*
X89651615Y-115778642D01*
X89464010Y-115693095D01*
X88749605Y-116407500D01*
X88390395Y-116407500D01*
X87675990Y-115693095D01*
X87488385Y-115778642D01*
X87330065Y-116240427D01*
X85627000Y-116240427D01*
X85627000Y-115513490D01*
X87855595Y-115513490D01*
X88570000Y-116227895D01*
X89284405Y-115513490D01*
X89198858Y-115325885D01*
X88737073Y-115167565D01*
X88249852Y-115198013D01*
X87941142Y-115325885D01*
X87855595Y-115513490D01*
X85627000Y-115513490D01*
X85627000Y-113514169D01*
X87280864Y-113514169D01*
X87399514Y-113801323D01*
X87619021Y-114021214D01*
X87905968Y-114140364D01*
X88216669Y-114140636D01*
X88459016Y-114040500D01*
X100942522Y-114040500D01*
X101107819Y-114109137D01*
X101418520Y-114109409D01*
X101705674Y-113990759D01*
X101925565Y-113771252D01*
X102044715Y-113484305D01*
X102044987Y-113173604D01*
X101926337Y-112886450D01*
X101706830Y-112666559D01*
X101419883Y-112547409D01*
X101109182Y-112547137D01*
X100822028Y-112665787D01*
X100809293Y-112678500D01*
X88458533Y-112678500D01*
X88218032Y-112578636D01*
X87907331Y-112578364D01*
X87620177Y-112697014D01*
X87400286Y-112916521D01*
X87281136Y-113203468D01*
X87280864Y-113514169D01*
X85627000Y-113514169D01*
X85627000Y-111561250D01*
X102989300Y-111561250D01*
X102989300Y-112212535D01*
X103054307Y-112369476D01*
X103174424Y-112489593D01*
X103331364Y-112554600D01*
X104932610Y-112554600D01*
X105039360Y-112447850D01*
X105039360Y-111454500D01*
X103096050Y-111454500D01*
X102989300Y-111561250D01*
X85627000Y-111561250D01*
X85627000Y-110037250D01*
X91953000Y-110037250D01*
X91953000Y-110650436D01*
X92018007Y-110807376D01*
X92138124Y-110927493D01*
X92295065Y-110992500D01*
X92908250Y-110992500D01*
X93015000Y-110885750D01*
X93015000Y-109930500D01*
X93269000Y-109930500D01*
X93269000Y-110885750D01*
X93375750Y-110992500D01*
X93988935Y-110992500D01*
X94145876Y-110927493D01*
X94265993Y-110807376D01*
X94331000Y-110650436D01*
X94331000Y-110037250D01*
X94224250Y-109930500D01*
X93269000Y-109930500D01*
X93015000Y-109930500D01*
X92059750Y-109930500D01*
X91953000Y-110037250D01*
X85627000Y-110037250D01*
X85627000Y-109500000D01*
X85616994Y-109450590D01*
X85589803Y-109410197D01*
X85136170Y-108956564D01*
X91953000Y-108956564D01*
X91953000Y-109569750D01*
X92059750Y-109676500D01*
X93015000Y-109676500D01*
X93015000Y-108721250D01*
X92908250Y-108614500D01*
X92295065Y-108614500D01*
X92138124Y-108679507D01*
X92018007Y-108799624D01*
X91953000Y-108956564D01*
X85136170Y-108956564D01*
X85089803Y-108910197D01*
X85047789Y-108882334D01*
X85000000Y-108873000D01*
X81052606Y-108873000D01*
X80627000Y-108447394D01*
X80627000Y-106979463D01*
X85518714Y-106979463D01*
X85769534Y-107586495D01*
X86233563Y-108051334D01*
X86840155Y-108303213D01*
X87496963Y-108303786D01*
X87752585Y-108198165D01*
X87958459Y-108404039D01*
X88179391Y-108551661D01*
X88439999Y-108603500D01*
X88440004Y-108603499D01*
X93518919Y-108603499D01*
X93529920Y-108614500D01*
X93375750Y-108614500D01*
X93269000Y-108721250D01*
X93269000Y-109676500D01*
X94224250Y-109676500D01*
X94331000Y-109569750D01*
X94331000Y-109415580D01*
X94539157Y-109623737D01*
X94538802Y-110029859D01*
X94712446Y-110450112D01*
X95033697Y-110771923D01*
X95453646Y-110946301D01*
X95908359Y-110946698D01*
X96328612Y-110773054D01*
X96431980Y-110669865D01*
X97535240Y-110669865D01*
X97616097Y-110853518D01*
X98064043Y-111005459D01*
X98536037Y-110974413D01*
X98827903Y-110853518D01*
X98908760Y-110669865D01*
X98222000Y-109983105D01*
X97535240Y-110669865D01*
X96431980Y-110669865D01*
X96650423Y-110451803D01*
X96824801Y-110031854D01*
X96825138Y-109645543D01*
X97020041Y-109645543D01*
X97051087Y-110117537D01*
X97171982Y-110409403D01*
X97355635Y-110490260D01*
X98042395Y-109803500D01*
X98401605Y-109803500D01*
X99088365Y-110490260D01*
X99272018Y-110409403D01*
X99400757Y-110029859D01*
X99618802Y-110029859D01*
X99792446Y-110450112D01*
X100113697Y-110771923D01*
X100533646Y-110946301D01*
X100988359Y-110946698D01*
X101408612Y-110773054D01*
X101730423Y-110451803D01*
X101734300Y-110442465D01*
X102989300Y-110442465D01*
X102989300Y-111093750D01*
X103096050Y-111200500D01*
X105039360Y-111200500D01*
X105039360Y-110207150D01*
X104932610Y-110100400D01*
X103331364Y-110100400D01*
X103174424Y-110165407D01*
X103054307Y-110285524D01*
X102989300Y-110442465D01*
X101734300Y-110442465D01*
X101904801Y-110031854D01*
X101905198Y-109577141D01*
X101731554Y-109156888D01*
X101410303Y-108835077D01*
X100990354Y-108660699D01*
X100535641Y-108660302D01*
X100115388Y-108833946D01*
X99793577Y-109155197D01*
X99619199Y-109575146D01*
X99618802Y-110029859D01*
X99400757Y-110029859D01*
X99423959Y-109961457D01*
X99392913Y-109489463D01*
X99272018Y-109197597D01*
X99088365Y-109116740D01*
X98401605Y-109803500D01*
X98042395Y-109803500D01*
X97355635Y-109116740D01*
X97171982Y-109197597D01*
X97020041Y-109645543D01*
X96825138Y-109645543D01*
X96825198Y-109577141D01*
X96651554Y-109156888D01*
X96432184Y-108937135D01*
X97535240Y-108937135D01*
X98222000Y-109623895D01*
X98908760Y-108937135D01*
X98827903Y-108753482D01*
X98379957Y-108601541D01*
X97907963Y-108632587D01*
X97616097Y-108753482D01*
X97535240Y-108937135D01*
X96432184Y-108937135D01*
X96330303Y-108835077D01*
X95910354Y-108660699D01*
X95501922Y-108660342D01*
X94282539Y-107440959D01*
X94061607Y-107293337D01*
X93800999Y-107241499D01*
X88722079Y-107241499D01*
X88715736Y-107235156D01*
X88820713Y-106982345D01*
X88821099Y-106538750D01*
X91534500Y-106538750D01*
X91534500Y-106643935D01*
X91599507Y-106800876D01*
X91719624Y-106920993D01*
X91876564Y-106986000D01*
X92299250Y-106986000D01*
X92406000Y-106879250D01*
X92406000Y-106432000D01*
X92660000Y-106432000D01*
X92660000Y-106879250D01*
X92766750Y-106986000D01*
X93189436Y-106986000D01*
X93346376Y-106920993D01*
X93466493Y-106800876D01*
X93531500Y-106643935D01*
X93531500Y-106538750D01*
X93424750Y-106432000D01*
X92660000Y-106432000D01*
X92406000Y-106432000D01*
X91641250Y-106432000D01*
X91534500Y-106538750D01*
X88821099Y-106538750D01*
X88821286Y-106325537D01*
X88570466Y-105718505D01*
X88106437Y-105253666D01*
X87499845Y-105001787D01*
X86843037Y-105001214D01*
X86236005Y-105252034D01*
X85771166Y-105716063D01*
X85519287Y-106322655D01*
X85518714Y-106979463D01*
X80627000Y-106979463D01*
X80627000Y-101279463D01*
X85518714Y-101279463D01*
X85769534Y-101886495D01*
X86233563Y-102351334D01*
X86840155Y-102603213D01*
X87496963Y-102603786D01*
X88103995Y-102352966D01*
X88568834Y-101888937D01*
X88820713Y-101282345D01*
X88821286Y-100625537D01*
X88570466Y-100018505D01*
X88106437Y-99553666D01*
X87499845Y-99301787D01*
X86843037Y-99301214D01*
X86236005Y-99552034D01*
X85771166Y-100016063D01*
X85519287Y-100622655D01*
X85518714Y-101279463D01*
X80627000Y-101279463D01*
X80627000Y-97492365D01*
X82300882Y-97492365D01*
X82404339Y-97742752D01*
X82595741Y-97934487D01*
X82845946Y-98038382D01*
X83116865Y-98038618D01*
X83367252Y-97935161D01*
X83558987Y-97743759D01*
X83662882Y-97493554D01*
X83662940Y-97427508D01*
X83851948Y-97238499D01*
X84333103Y-97238499D01*
X84332882Y-97492365D01*
X84436339Y-97742752D01*
X84627741Y-97934487D01*
X84877946Y-98038382D01*
X85148865Y-98038618D01*
X85399252Y-97935161D01*
X85445994Y-97888500D01*
X86887552Y-97888500D01*
X89219000Y-100219947D01*
X89219000Y-102500000D01*
X89259420Y-102703205D01*
X89374526Y-102875474D01*
X91573036Y-105073983D01*
X91573036Y-105289000D01*
X91599603Y-105430190D01*
X91683046Y-105559865D01*
X91810366Y-105646859D01*
X91817762Y-105648357D01*
X91719624Y-105689007D01*
X91599507Y-105809124D01*
X91534500Y-105966065D01*
X91534500Y-106071250D01*
X91641250Y-106178000D01*
X92406000Y-106178000D01*
X92406000Y-106158000D01*
X92660000Y-106158000D01*
X92660000Y-106178000D01*
X93424750Y-106178000D01*
X93531500Y-106071250D01*
X93531500Y-105966065D01*
X93466493Y-105809124D01*
X93346376Y-105689007D01*
X93249090Y-105648709D01*
X93375365Y-105567454D01*
X93376358Y-105566000D01*
X93715000Y-105566000D01*
X93918205Y-105525580D01*
X94090474Y-105410474D01*
X94090475Y-105410473D01*
X96907036Y-102593911D01*
X96907036Y-102749000D01*
X96933603Y-102890190D01*
X97017046Y-103019865D01*
X97144366Y-103106859D01*
X97257288Y-103129726D01*
X97154310Y-103149103D01*
X97024635Y-103232546D01*
X96937641Y-103359866D01*
X96907036Y-103511000D01*
X96907036Y-104019000D01*
X96933603Y-104160190D01*
X97017046Y-104289865D01*
X97144366Y-104376859D01*
X97257288Y-104399726D01*
X97154310Y-104419103D01*
X97024635Y-104502546D01*
X96937641Y-104629866D01*
X96907036Y-104781000D01*
X96907036Y-105289000D01*
X96933603Y-105430190D01*
X97017046Y-105559865D01*
X97144366Y-105646859D01*
X97257288Y-105669726D01*
X97154310Y-105689103D01*
X97024635Y-105772546D01*
X96937641Y-105899866D01*
X96907036Y-106051000D01*
X96907036Y-106559000D01*
X96933603Y-106700190D01*
X97017046Y-106829865D01*
X97144366Y-106916859D01*
X97295500Y-106947464D01*
X98438500Y-106947464D01*
X98579690Y-106920897D01*
X98709365Y-106837454D01*
X98710358Y-106836000D01*
X99635447Y-106836000D01*
X99863946Y-106930882D01*
X100134865Y-106931118D01*
X100385252Y-106827661D01*
X100576987Y-106636259D01*
X100680882Y-106386054D01*
X100681118Y-106115135D01*
X100577661Y-105864748D01*
X100386259Y-105673013D01*
X100136054Y-105569118D01*
X99865135Y-105568882D01*
X99614748Y-105672339D01*
X99512910Y-105774000D01*
X98707975Y-105774000D01*
X98589634Y-105693141D01*
X98476712Y-105670274D01*
X98579690Y-105650897D01*
X98709365Y-105567454D01*
X98796359Y-105440134D01*
X98826964Y-105289000D01*
X98826964Y-104781000D01*
X98800397Y-104639810D01*
X98716954Y-104510135D01*
X98589634Y-104423141D01*
X98476712Y-104400274D01*
X98579690Y-104380897D01*
X98709365Y-104297454D01*
X98710358Y-104296000D01*
X99082808Y-104296000D01*
X99113741Y-104326987D01*
X99363946Y-104430882D01*
X99634865Y-104431118D01*
X99885252Y-104327661D01*
X100076987Y-104136259D01*
X100180882Y-103886054D01*
X100181118Y-103615135D01*
X100077661Y-103364748D01*
X99886259Y-103173013D01*
X99636054Y-103069118D01*
X99365135Y-103068882D01*
X99114748Y-103172339D01*
X99052980Y-103234000D01*
X98707975Y-103234000D01*
X98589634Y-103153141D01*
X98476712Y-103130274D01*
X98579690Y-103110897D01*
X98709365Y-103027454D01*
X98710358Y-103026000D01*
X100812843Y-103026000D01*
X100863741Y-103076987D01*
X101113946Y-103180882D01*
X101384865Y-103181118D01*
X101635252Y-103077661D01*
X101826987Y-102886259D01*
X101930882Y-102636054D01*
X101931118Y-102365135D01*
X101827661Y-102114748D01*
X101636259Y-101923013D01*
X101386054Y-101819118D01*
X101115135Y-101818882D01*
X100864748Y-101922339D01*
X100823015Y-101964000D01*
X98707975Y-101964000D01*
X98681046Y-101945600D01*
X98755792Y-101895656D01*
X99369445Y-101282002D01*
X99441248Y-101282002D01*
X99334500Y-101388750D01*
X99334500Y-101493935D01*
X99399507Y-101650876D01*
X99519624Y-101770993D01*
X99676564Y-101836000D01*
X100099250Y-101836000D01*
X100206000Y-101729250D01*
X100206000Y-101282000D01*
X100460000Y-101282000D01*
X100460000Y-101729250D01*
X100566750Y-101836000D01*
X100989436Y-101836000D01*
X101146376Y-101770993D01*
X101266493Y-101650876D01*
X101331500Y-101493935D01*
X101331500Y-101388750D01*
X101224750Y-101282000D01*
X100460000Y-101282000D01*
X100206000Y-101282000D01*
X100186000Y-101282000D01*
X100186000Y-101028000D01*
X100206000Y-101028000D01*
X100206000Y-101008000D01*
X100460000Y-101008000D01*
X100460000Y-101028000D01*
X101224750Y-101028000D01*
X101331500Y-100921250D01*
X101331500Y-100816065D01*
X101266493Y-100659124D01*
X101146376Y-100539007D01*
X101049090Y-100498709D01*
X101175365Y-100417454D01*
X101262359Y-100290134D01*
X101292964Y-100139000D01*
X101292964Y-99631000D01*
X101266397Y-99489810D01*
X101182954Y-99360135D01*
X101055634Y-99273141D01*
X100942712Y-99250274D01*
X101045690Y-99230897D01*
X101175365Y-99147454D01*
X101262359Y-99020134D01*
X101292964Y-98869000D01*
X101292964Y-98361000D01*
X101266397Y-98219810D01*
X101182954Y-98090135D01*
X101055634Y-98003141D01*
X100942712Y-97980274D01*
X101045690Y-97960897D01*
X101175365Y-97877454D01*
X101262359Y-97750134D01*
X101292964Y-97599000D01*
X101292964Y-97091000D01*
X101266397Y-96949810D01*
X101182954Y-96820135D01*
X101055634Y-96733141D01*
X100998500Y-96721571D01*
X100998500Y-96070567D01*
X101032865Y-96048454D01*
X101119859Y-95921134D01*
X101150464Y-95770000D01*
X101150464Y-95305250D01*
X101351000Y-95305250D01*
X101351000Y-95854936D01*
X101416007Y-96011876D01*
X101536124Y-96131993D01*
X101693065Y-96197000D01*
X101988750Y-96197000D01*
X102095500Y-96090250D01*
X102095500Y-95198500D01*
X102349500Y-95198500D01*
X102349500Y-96090250D01*
X102456250Y-96197000D01*
X102751935Y-96197000D01*
X102908876Y-96131993D01*
X103028993Y-96011876D01*
X103094000Y-95854936D01*
X103094000Y-95305250D01*
X102987250Y-95198500D01*
X102349500Y-95198500D01*
X102095500Y-95198500D01*
X101457750Y-95198500D01*
X101351000Y-95305250D01*
X101150464Y-95305250D01*
X101150464Y-94540575D01*
X101351000Y-94540575D01*
X101351000Y-94837750D01*
X101457750Y-94944500D01*
X102095500Y-94944500D01*
X102095500Y-94924500D01*
X102349500Y-94924500D01*
X102349500Y-94944500D01*
X102987250Y-94944500D01*
X103094000Y-94837750D01*
X103094000Y-94540575D01*
X104990425Y-94540575D01*
X105193630Y-94500155D01*
X105365899Y-94385049D01*
X106219000Y-93531947D01*
X106219000Y-96042053D01*
X105558516Y-96702536D01*
X105095500Y-96702536D01*
X104954310Y-96729103D01*
X104824635Y-96812546D01*
X104737641Y-96939866D01*
X104707036Y-97091000D01*
X104707036Y-97599000D01*
X104733603Y-97740190D01*
X104817046Y-97869865D01*
X104944366Y-97956859D01*
X105057288Y-97979726D01*
X104954310Y-97999103D01*
X104824635Y-98082546D01*
X104737641Y-98209866D01*
X104707036Y-98361000D01*
X104707036Y-98869000D01*
X104733603Y-99010190D01*
X104817046Y-99139865D01*
X104944366Y-99226859D01*
X105057288Y-99249726D01*
X104954310Y-99269103D01*
X104824635Y-99352546D01*
X104737641Y-99479866D01*
X104729631Y-99519422D01*
X104124526Y-100124526D01*
X104009420Y-100296795D01*
X103969000Y-100500000D01*
X103969000Y-102000000D01*
X104009420Y-102203205D01*
X104124526Y-102375474D01*
X104374524Y-102625471D01*
X104374526Y-102625474D01*
X104546795Y-102740580D01*
X104750000Y-102781000D01*
X106500000Y-102781000D01*
X106703205Y-102740580D01*
X106875474Y-102625474D01*
X108625474Y-100875474D01*
X108740580Y-100703205D01*
X108781001Y-100500000D01*
X108781000Y-100499995D01*
X108781000Y-90517000D01*
X109536036Y-90517000D01*
X109536036Y-92168000D01*
X109562603Y-92309190D01*
X109646046Y-92438865D01*
X109773366Y-92525859D01*
X109924500Y-92556464D01*
X111575500Y-92556464D01*
X111716690Y-92529897D01*
X111846365Y-92446454D01*
X111933359Y-92319134D01*
X111963964Y-92168000D01*
X111963964Y-90517000D01*
X111937397Y-90375810D01*
X111853954Y-90246135D01*
X111726634Y-90159141D01*
X111575500Y-90128536D01*
X109924500Y-90128536D01*
X109783310Y-90155103D01*
X109653635Y-90238546D01*
X109566641Y-90365866D01*
X109536036Y-90517000D01*
X108781000Y-90517000D01*
X108781000Y-89036405D01*
X109568696Y-89036405D01*
X109748128Y-89470665D01*
X110080087Y-89803204D01*
X110514034Y-89983394D01*
X110983905Y-89983804D01*
X111418165Y-89804372D01*
X111750704Y-89472413D01*
X111930894Y-89038466D01*
X111931304Y-88568595D01*
X111751872Y-88134335D01*
X111419913Y-87801796D01*
X110985966Y-87621606D01*
X110516095Y-87621196D01*
X110081835Y-87800628D01*
X109749296Y-88132587D01*
X109569106Y-88566534D01*
X109568696Y-89036405D01*
X108781000Y-89036405D01*
X108781000Y-87280298D01*
X109568699Y-86492599D01*
X109568696Y-86496405D01*
X109748128Y-86930665D01*
X110080087Y-87263204D01*
X110514034Y-87443394D01*
X110983905Y-87443804D01*
X111418165Y-87264372D01*
X111526215Y-87156510D01*
X112575595Y-87156510D01*
X112661142Y-87344115D01*
X113122927Y-87502435D01*
X113610148Y-87471987D01*
X113918858Y-87344115D01*
X114004405Y-87156510D01*
X113290000Y-86442105D01*
X112575595Y-87156510D01*
X111526215Y-87156510D01*
X111750704Y-86932413D01*
X111930894Y-86498466D01*
X111931245Y-86095427D01*
X112050065Y-86095427D01*
X112080513Y-86582648D01*
X112208385Y-86891358D01*
X112395990Y-86976905D01*
X113110395Y-86262500D01*
X112395990Y-85548095D01*
X112208385Y-85633642D01*
X112050065Y-86095427D01*
X111931245Y-86095427D01*
X111931304Y-86028595D01*
X111751872Y-85594335D01*
X111526421Y-85368490D01*
X112575595Y-85368490D01*
X113290000Y-86082895D01*
X114004405Y-85368490D01*
X113918858Y-85180885D01*
X113457073Y-85022565D01*
X112969852Y-85053013D01*
X112661142Y-85180885D01*
X112575595Y-85368490D01*
X111526421Y-85368490D01*
X111419913Y-85261796D01*
X110985966Y-85081606D01*
X110979697Y-85081601D01*
X111530710Y-84530588D01*
X111656359Y-84530698D01*
X112076612Y-84357054D01*
X112398423Y-84035803D01*
X112572801Y-83615854D01*
X112573198Y-83161141D01*
X112399554Y-82740888D01*
X112078303Y-82419077D01*
X111658354Y-82244699D01*
X111457770Y-82244524D01*
X111430000Y-82239000D01*
X111402472Y-82244476D01*
X111203641Y-82244302D01*
X110783388Y-82417946D01*
X110714190Y-82487024D01*
X110714190Y-82314258D01*
X111043472Y-81984975D01*
X111043475Y-81984973D01*
X111086118Y-81942330D01*
X111201646Y-81990301D01*
X111656359Y-81990698D01*
X112076612Y-81817054D01*
X112398423Y-81495803D01*
X112572801Y-81075854D01*
X112573198Y-80621141D01*
X112399554Y-80200888D01*
X112078303Y-79879077D01*
X111658354Y-79704699D01*
X111457770Y-79704524D01*
X111430000Y-79699000D01*
X111402472Y-79704476D01*
X111203641Y-79704302D01*
X110783388Y-79877946D01*
X110461577Y-80199197D01*
X110287199Y-80619146D01*
X110286802Y-81073859D01*
X110335305Y-81191247D01*
X110292527Y-81234025D01*
X110292525Y-81234028D01*
X109807716Y-81718836D01*
X109692610Y-81891105D01*
X109652190Y-82094310D01*
X109652190Y-82533163D01*
X109538303Y-82419077D01*
X109118354Y-82244699D01*
X108917770Y-82244524D01*
X108890000Y-82239000D01*
X108862472Y-82244476D01*
X108663641Y-82244302D01*
X108243388Y-82417946D01*
X108031000Y-82629964D01*
X108031000Y-82469948D01*
X108554951Y-81945997D01*
X108661646Y-81990301D01*
X109116359Y-81990698D01*
X109536612Y-81817054D01*
X109858423Y-81495803D01*
X110032801Y-81075854D01*
X110033198Y-80621141D01*
X109859554Y-80200888D01*
X109538303Y-79879077D01*
X109118354Y-79704699D01*
X108663641Y-79704302D01*
X108243388Y-79877946D01*
X107921577Y-80199197D01*
X107747199Y-80619146D01*
X107746802Y-81073859D01*
X107798960Y-81200092D01*
X107124526Y-81874526D01*
X107009420Y-82046795D01*
X106969000Y-82250000D01*
X106969000Y-82406909D01*
X106578354Y-82244699D01*
X106377770Y-82244524D01*
X106350000Y-82239000D01*
X106322472Y-82244476D01*
X106123641Y-82244302D01*
X105768999Y-82390836D01*
X105768999Y-82179449D01*
X106006118Y-81942330D01*
X106121646Y-81990301D01*
X106576359Y-81990698D01*
X106996612Y-81817054D01*
X107318423Y-81495803D01*
X107492801Y-81075854D01*
X107493198Y-80621141D01*
X107319554Y-80200888D01*
X106998303Y-79879077D01*
X106578354Y-79704699D01*
X106123641Y-79704302D01*
X105703388Y-79877946D01*
X105381577Y-80199197D01*
X105207199Y-80619146D01*
X105206802Y-81073859D01*
X105255305Y-81191247D01*
X104862525Y-81584027D01*
X104747419Y-81756296D01*
X104706999Y-81959501D01*
X104706999Y-82668207D01*
X104458303Y-82419077D01*
X104038354Y-82244699D01*
X103837770Y-82244524D01*
X103810000Y-82239000D01*
X103782472Y-82244476D01*
X103583641Y-82244302D01*
X103163388Y-82417946D01*
X103131000Y-82450278D01*
X103131000Y-82277448D01*
X103466118Y-81942330D01*
X103581646Y-81990301D01*
X104036359Y-81990698D01*
X104456612Y-81817054D01*
X104778423Y-81495803D01*
X104952801Y-81075854D01*
X104953198Y-80621141D01*
X104779554Y-80200888D01*
X104458303Y-79879077D01*
X104038354Y-79704699D01*
X103583641Y-79704302D01*
X103163388Y-79877946D01*
X102841577Y-80199197D01*
X102667199Y-80619146D01*
X102666802Y-81073859D01*
X102715305Y-81191247D01*
X102224526Y-81682026D01*
X102109420Y-81854295D01*
X102069000Y-82057500D01*
X102069000Y-82516109D01*
X101939913Y-82386796D01*
X101505966Y-82206606D01*
X101036095Y-82206196D01*
X100650899Y-82365355D01*
X100650899Y-82217549D01*
X100896968Y-81971479D01*
X101034034Y-82028394D01*
X101503905Y-82028804D01*
X101938165Y-81849372D01*
X102270704Y-81517413D01*
X102450894Y-81083466D01*
X102451304Y-80613595D01*
X102271872Y-80179335D01*
X101939913Y-79846796D01*
X101505966Y-79666606D01*
X101036095Y-79666196D01*
X100601835Y-79845628D01*
X100269296Y-80177587D01*
X100089106Y-80611534D01*
X100088696Y-81081405D01*
X100146135Y-81220418D01*
X99744425Y-81622127D01*
X99629319Y-81794396D01*
X99588899Y-81997601D01*
X99588899Y-82576112D01*
X99399913Y-82386796D01*
X98965966Y-82206606D01*
X98496095Y-82206196D01*
X98061835Y-82385628D01*
X97991000Y-82456339D01*
X97991000Y-82337448D01*
X98356968Y-81971480D01*
X98494034Y-82028394D01*
X98963905Y-82028804D01*
X99398165Y-81849372D01*
X99730704Y-81517413D01*
X99910894Y-81083466D01*
X99911304Y-80613595D01*
X99731872Y-80179335D01*
X99399913Y-79846796D01*
X98965966Y-79666606D01*
X98496095Y-79666196D01*
X98061835Y-79845628D01*
X97729296Y-80177587D01*
X97549106Y-80611534D01*
X97548696Y-81081405D01*
X97606135Y-81220417D01*
X97084526Y-81742026D01*
X96969420Y-81914295D01*
X96929000Y-82117500D01*
X96929000Y-82456004D01*
X96859913Y-82386796D01*
X96425966Y-82206606D01*
X95956095Y-82206196D01*
X95521835Y-82385628D01*
X95451000Y-82456339D01*
X95451000Y-82337448D01*
X95816968Y-81971480D01*
X95954034Y-82028394D01*
X96423905Y-82028804D01*
X96858165Y-81849372D01*
X97190704Y-81517413D01*
X97370894Y-81083466D01*
X97371304Y-80613595D01*
X97191872Y-80179335D01*
X96859913Y-79846796D01*
X96425966Y-79666606D01*
X95956095Y-79666196D01*
X95521835Y-79845628D01*
X95189296Y-80177587D01*
X95009106Y-80611534D01*
X95008696Y-81081405D01*
X95066135Y-81220417D01*
X94544526Y-81742026D01*
X94429420Y-81914295D01*
X94389000Y-82117500D01*
X94389000Y-82456004D01*
X94319913Y-82386796D01*
X93885966Y-82206606D01*
X93416095Y-82206196D01*
X92981835Y-82385628D01*
X92911000Y-82456339D01*
X92911000Y-82337448D01*
X93276968Y-81971480D01*
X93414034Y-82028394D01*
X93883905Y-82028804D01*
X94318165Y-81849372D01*
X94650704Y-81517413D01*
X94830894Y-81083466D01*
X94831304Y-80613595D01*
X94651872Y-80179335D01*
X94319913Y-79846796D01*
X93885966Y-79666606D01*
X93416095Y-79666196D01*
X92981835Y-79845628D01*
X92649296Y-80177587D01*
X92469106Y-80611534D01*
X92468696Y-81081405D01*
X92526135Y-81220417D01*
X92004526Y-81742026D01*
X91889420Y-81914295D01*
X91849000Y-82117500D01*
X91849000Y-82456004D01*
X91779913Y-82386796D01*
X91345966Y-82206606D01*
X90876095Y-82206196D01*
X90441835Y-82385628D01*
X90109296Y-82717587D01*
X89929106Y-83151534D01*
X89928696Y-83621405D01*
X90108128Y-84055665D01*
X90440087Y-84388204D01*
X90874034Y-84568394D01*
X91343905Y-84568804D01*
X91778165Y-84389372D01*
X91849000Y-84318661D01*
X91849000Y-88198893D01*
X89760576Y-90287316D01*
X89645470Y-90459585D01*
X89605050Y-90662790D01*
X89605050Y-94016284D01*
X89559063Y-94062191D01*
X89455168Y-94312396D01*
X89454932Y-94583315D01*
X89558389Y-94833702D01*
X89749791Y-95025437D01*
X89910694Y-95092250D01*
X89910474Y-95344667D01*
X90013931Y-95595054D01*
X90205333Y-95786789D01*
X90325926Y-95836864D01*
X90238366Y-96047729D01*
X90238130Y-96318648D01*
X90341587Y-96569035D01*
X90532989Y-96760770D01*
X90783194Y-96864665D01*
X91054113Y-96864901D01*
X91304500Y-96761444D01*
X91348989Y-96717032D01*
X91348989Y-97102552D01*
X91266827Y-97225517D01*
X91228368Y-97418862D01*
X91180420Y-97466727D01*
X91076525Y-97716932D01*
X91076289Y-97987851D01*
X91152305Y-98171826D01*
X91065507Y-98258624D01*
X91000500Y-98415565D01*
X91000500Y-98711250D01*
X91107250Y-98818000D01*
X91999000Y-98818000D01*
X91999000Y-98798000D01*
X92253000Y-98798000D01*
X92253000Y-98818000D01*
X93144750Y-98818000D01*
X93251500Y-98711250D01*
X93251500Y-98415565D01*
X93186493Y-98258624D01*
X93066376Y-98138507D01*
X92909436Y-98073500D01*
X92403218Y-98073500D01*
X92438289Y-97989040D01*
X92438525Y-97718121D01*
X92359257Y-97526275D01*
X92370569Y-97509345D01*
X92410989Y-97306140D01*
X92410989Y-94782559D01*
X93808784Y-96180354D01*
X93808784Y-99625882D01*
X93762797Y-99671789D01*
X93658902Y-99921994D01*
X93658666Y-100192913D01*
X93762123Y-100443300D01*
X93953525Y-100635035D01*
X94203730Y-100738930D01*
X94474649Y-100739166D01*
X94725036Y-100635709D01*
X94916771Y-100444307D01*
X94947806Y-100369567D01*
X94955442Y-100372738D01*
X95226361Y-100372974D01*
X95476748Y-100269517D01*
X95592452Y-100154013D01*
X95739788Y-100215193D01*
X96010707Y-100215429D01*
X96261094Y-100111972D01*
X96452829Y-99920570D01*
X96483325Y-99847128D01*
X96505263Y-99856238D01*
X96776182Y-99856474D01*
X97026569Y-99753017D01*
X97218304Y-99561615D01*
X97322199Y-99311410D01*
X97322435Y-99040491D01*
X97218978Y-98790104D01*
X97172317Y-98743362D01*
X97172317Y-96140571D01*
X97131897Y-95937366D01*
X97016791Y-95765097D01*
X97016788Y-95765095D01*
X94601012Y-93349318D01*
X94601012Y-92006071D01*
X98863473Y-87743610D01*
X98978579Y-87571341D01*
X99018999Y-87368136D01*
X99018999Y-87311447D01*
X101645471Y-84684974D01*
X101645474Y-84684972D01*
X101760580Y-84512703D01*
X101771406Y-84458275D01*
X101938165Y-84389372D01*
X102069000Y-84258765D01*
X102069000Y-90317064D01*
X101330113Y-91055950D01*
X101265135Y-91055893D01*
X101014748Y-91159350D01*
X100823013Y-91350752D01*
X100719118Y-91600957D01*
X100718882Y-91871876D01*
X100762955Y-91978542D01*
X99041811Y-91978542D01*
X99032763Y-91956644D01*
X98841361Y-91764909D01*
X98591156Y-91661014D01*
X98320237Y-91660778D01*
X98069850Y-91764235D01*
X97934787Y-91899063D01*
X97813469Y-91848687D01*
X97542550Y-91848451D01*
X97292163Y-91951908D01*
X97100428Y-92143310D01*
X97087267Y-92175006D01*
X96994549Y-92136506D01*
X96723630Y-92136270D01*
X96473243Y-92239727D01*
X96327595Y-92385122D01*
X96123542Y-92300391D01*
X95852623Y-92300155D01*
X95602236Y-92403612D01*
X95410501Y-92595014D01*
X95306606Y-92845219D01*
X95306370Y-93116138D01*
X95409827Y-93366525D01*
X95601229Y-93558260D01*
X95851434Y-93662155D01*
X95917480Y-93662213D01*
X96640316Y-94385049D01*
X96812585Y-94500155D01*
X97015790Y-94540575D01*
X99484536Y-94540575D01*
X99484536Y-95728113D01*
X98874345Y-95728113D01*
X98633844Y-95628249D01*
X98323143Y-95627977D01*
X98035989Y-95746627D01*
X97816098Y-95966134D01*
X97696948Y-96253081D01*
X97696676Y-96563782D01*
X97815326Y-96850936D01*
X98034833Y-97070827D01*
X98321780Y-97189977D01*
X98632481Y-97190249D01*
X98874828Y-97090113D01*
X99373216Y-97090113D01*
X99373036Y-97091000D01*
X99373036Y-97599000D01*
X99399603Y-97740190D01*
X99483046Y-97869865D01*
X99610366Y-97956859D01*
X99723288Y-97979726D01*
X99620310Y-97999103D01*
X99490635Y-98082546D01*
X99478043Y-98100975D01*
X99064208Y-98100975D01*
X98861003Y-98141395D01*
X98688734Y-98256501D01*
X96456064Y-100489171D01*
X95729829Y-100489171D01*
X95526624Y-100529591D01*
X95354355Y-100644697D01*
X95354353Y-100644700D01*
X93492964Y-102506088D01*
X93492964Y-102241000D01*
X93466397Y-102099810D01*
X93382954Y-101970135D01*
X93255634Y-101883141D01*
X93104500Y-101852536D01*
X92726733Y-101852536D01*
X92533000Y-101814000D01*
X92527080Y-101814000D01*
X92396044Y-101682964D01*
X92824500Y-101682964D01*
X92965690Y-101656397D01*
X93095365Y-101572954D01*
X93182359Y-101445634D01*
X93212964Y-101294500D01*
X93212964Y-100405500D01*
X93186397Y-100264310D01*
X93102954Y-100134635D01*
X92975634Y-100047641D01*
X92824500Y-100017036D01*
X91427500Y-100017036D01*
X91286310Y-100043603D01*
X91156635Y-100127046D01*
X91069641Y-100254366D01*
X91039036Y-100405500D01*
X91039036Y-100450384D01*
X91031000Y-100458420D01*
X91031000Y-99548069D01*
X91065507Y-99631376D01*
X91185624Y-99751493D01*
X91342564Y-99816500D01*
X91892250Y-99816500D01*
X91999000Y-99709750D01*
X91999000Y-99072000D01*
X92253000Y-99072000D01*
X92253000Y-99709750D01*
X92359750Y-99816500D01*
X92909436Y-99816500D01*
X93066376Y-99751493D01*
X93186493Y-99631376D01*
X93251500Y-99474435D01*
X93251500Y-99178750D01*
X93144750Y-99072000D01*
X92253000Y-99072000D01*
X91999000Y-99072000D01*
X91107250Y-99072000D01*
X91000500Y-99178750D01*
X91000500Y-99346665D01*
X90990580Y-99296795D01*
X90875474Y-99124526D01*
X88204042Y-96453094D01*
X88568834Y-96088937D01*
X88820713Y-95482345D01*
X88821286Y-94825537D01*
X88570466Y-94218505D01*
X88106437Y-93753666D01*
X87499845Y-93501787D01*
X86843037Y-93501214D01*
X86236005Y-93752034D01*
X85771166Y-94216063D01*
X85519287Y-94822655D01*
X85518714Y-95479463D01*
X85769534Y-96086495D01*
X85859381Y-96176499D01*
X83632006Y-96176499D01*
X83632001Y-96176498D01*
X83428796Y-96216919D01*
X83256527Y-96332025D01*
X83256525Y-96332028D01*
X82912113Y-96676439D01*
X82847135Y-96676382D01*
X82596748Y-96779839D01*
X82405013Y-96971241D01*
X82301118Y-97221446D01*
X82300882Y-97492365D01*
X80627000Y-97492365D01*
X80627000Y-90586770D01*
X86115335Y-90586770D01*
X86258475Y-90823171D01*
X86890662Y-91060048D01*
X87565376Y-91036967D01*
X88081525Y-90823171D01*
X88224665Y-90586770D01*
X87170000Y-89532105D01*
X86115335Y-90586770D01*
X80627000Y-90586770D01*
X80627000Y-89073162D01*
X85462452Y-89073162D01*
X85485533Y-89747876D01*
X85699329Y-90264025D01*
X85935730Y-90407165D01*
X86990395Y-89352500D01*
X87349605Y-89352500D01*
X88404270Y-90407165D01*
X88640671Y-90264025D01*
X88877548Y-89631838D01*
X88854467Y-88957124D01*
X88640671Y-88440975D01*
X88404270Y-88297835D01*
X87349605Y-89352500D01*
X86990395Y-89352500D01*
X85935730Y-88297835D01*
X85699329Y-88440975D01*
X85462452Y-89073162D01*
X80627000Y-89073162D01*
X80627000Y-88118230D01*
X86115335Y-88118230D01*
X87170000Y-89172895D01*
X88224665Y-88118230D01*
X88081525Y-87881829D01*
X87449338Y-87644952D01*
X86774624Y-87668033D01*
X86258475Y-87881829D01*
X86115335Y-88118230D01*
X80627000Y-88118230D01*
X80627000Y-87052606D01*
X81052606Y-86627000D01*
X85000000Y-86627000D01*
X85049410Y-86616994D01*
X85089803Y-86589803D01*
X85589803Y-86089803D01*
X85617666Y-86047789D01*
X85627000Y-86000000D01*
X85627000Y-83621250D01*
X87317500Y-83621250D01*
X87317500Y-84297936D01*
X87382507Y-84454876D01*
X87502624Y-84574993D01*
X87659565Y-84640000D01*
X88336250Y-84640000D01*
X88443000Y-84533250D01*
X88443000Y-83514500D01*
X88697000Y-83514500D01*
X88697000Y-84533250D01*
X88803750Y-84640000D01*
X89480435Y-84640000D01*
X89637376Y-84574993D01*
X89757493Y-84454876D01*
X89822500Y-84297936D01*
X89822500Y-83621250D01*
X89715750Y-83514500D01*
X88697000Y-83514500D01*
X88443000Y-83514500D01*
X87424250Y-83514500D01*
X87317500Y-83621250D01*
X85627000Y-83621250D01*
X85627000Y-82477064D01*
X87317500Y-82477064D01*
X87317500Y-83153750D01*
X87424250Y-83260500D01*
X88443000Y-83260500D01*
X88443000Y-82241750D01*
X88697000Y-82241750D01*
X88697000Y-83260500D01*
X89715750Y-83260500D01*
X89822500Y-83153750D01*
X89822500Y-82477064D01*
X89757493Y-82320124D01*
X89637376Y-82200007D01*
X89480435Y-82135000D01*
X88803750Y-82135000D01*
X88697000Y-82241750D01*
X88443000Y-82241750D01*
X88336250Y-82135000D01*
X87659565Y-82135000D01*
X87502624Y-82200007D01*
X87382507Y-82320124D01*
X87317500Y-82477064D01*
X85627000Y-82477064D01*
X85627000Y-81741510D01*
X87855595Y-81741510D01*
X87941142Y-81929115D01*
X88402927Y-82087435D01*
X88890148Y-82056987D01*
X89198858Y-81929115D01*
X89284405Y-81741510D01*
X88570000Y-81027105D01*
X87855595Y-81741510D01*
X85627000Y-81741510D01*
X85627000Y-80680427D01*
X87330065Y-80680427D01*
X87360513Y-81167648D01*
X87488385Y-81476358D01*
X87675990Y-81561905D01*
X88390395Y-80847500D01*
X88749605Y-80847500D01*
X89464010Y-81561905D01*
X89651615Y-81476358D01*
X89787022Y-81081405D01*
X89928696Y-81081405D01*
X90108128Y-81515665D01*
X90440087Y-81848204D01*
X90874034Y-82028394D01*
X91343905Y-82028804D01*
X91778165Y-81849372D01*
X92110704Y-81517413D01*
X92290894Y-81083466D01*
X92291304Y-80613595D01*
X92111872Y-80179335D01*
X91779913Y-79846796D01*
X91345966Y-79666606D01*
X90876095Y-79666196D01*
X90441835Y-79845628D01*
X90109296Y-80177587D01*
X89929106Y-80611534D01*
X89928696Y-81081405D01*
X89787022Y-81081405D01*
X89809935Y-81014573D01*
X89779487Y-80527352D01*
X89651615Y-80218642D01*
X89464010Y-80133095D01*
X88749605Y-80847500D01*
X88390395Y-80847500D01*
X87675990Y-80133095D01*
X87488385Y-80218642D01*
X87330065Y-80680427D01*
X85627000Y-80680427D01*
X85627000Y-80570390D01*
X86614040Y-79953490D01*
X87855595Y-79953490D01*
X88570000Y-80667895D01*
X89284405Y-79953490D01*
X89198858Y-79765885D01*
X88737073Y-79607565D01*
X88249852Y-79638013D01*
X87941142Y-79765885D01*
X87855595Y-79953490D01*
X86614040Y-79953490D01*
X88844296Y-78559580D01*
X90269111Y-77847220D01*
X93523030Y-76627000D01*
X106476970Y-76627000D01*
X109722718Y-77844156D01*
M02*
