G04 #@! TF.GenerationSoftware,KiCad,Pcbnew,6.0.11-2627ca5db0~126~ubuntu22.04.1*
G04 #@! TF.CreationDate,2023-12-06T10:34:05+01:00*
G04 #@! TF.ProjectId,bus-module_atmega324,6275732d-6d6f-4647-956c-655f61746d65,C*
G04 #@! TF.SameCoordinates,Original*
G04 #@! TF.FileFunction,Soldermask,Top*
G04 #@! TF.FilePolarity,Negative*
%FSLAX46Y46*%
G04 Gerber Fmt 4.6, Leading zero omitted, Abs format (unit mm)*
G04 Created by KiCad (PCBNEW 6.0.11-2627ca5db0~126~ubuntu22.04.1) date 2023-12-06 10:34:05*
%MOMM*%
%LPD*%
G01*
G04 APERTURE LIST*
G04 Aperture macros list*
%AMRotRect*
0 Rectangle, with rotation*
0 The origin of the aperture is its center*
0 $1 length*
0 $2 width*
0 $3 Rotation angle, in degrees counterclockwise*
0 Add horizontal line*
21,1,$1,$2,0,0,$3*%
%AMOutline4P*
0 Free polygon, 4 corners , with rotation*
0 The origin of the aperture is its center*
0 number of corners: always 4*
0 $1 to $8 corner X, Y*
0 $9 Rotation angle, in degrees counterclockwise*
0 create outline with 4 corners*
4,1,4,$1,$2,$3,$4,$5,$6,$7,$8,$1,$2,$9*%
G04 Aperture macros list end*
%ADD10R,0.889000X1.397000*%
%ADD11RotRect,0.889000X1.397000X225.000000*%
%ADD12R,1.397000X0.889000*%
%ADD13R,1.651000X1.651000*%
%ADD14C,1.600200*%
%ADD15C,1.524000*%
%ADD16RotRect,0.889000X1.397000X45.000000*%
%ADD17R,0.914400X0.914400*%
%ADD18R,4.500880X1.998980*%
%ADD19C,3.500000*%
%ADD20RotRect,1.500000X0.550000X225.000000*%
%ADD21RotRect,1.500000X0.550000X315.000000*%
%ADD22R,0.850000X1.200000*%
%ADD23R,0.850000X0.850000*%
%ADD24Outline4P,-0.425000X-0.425000X0.425000X-0.425000X0.425000X0.425000X-0.425000X0.425000X90.000000*%
%ADD25R,3.200400X1.780540*%
%ADD26R,1.524000X2.032000*%
%ADD27R,0.508000X1.143000*%
%ADD28C,2.200000*%
%ADD29R,1.600000X1.600000*%
%ADD30C,1.600000*%
%ADD31R,1.800000X1.800000*%
%ADD32C,1.800000*%
G04 APERTURE END LIST*
D10*
X100317500Y-85927500D03*
X102222500Y-85927500D03*
X95555000Y-85927500D03*
X93650000Y-85927500D03*
D11*
X107531519Y-93889981D03*
X106184481Y-95237019D03*
X94323519Y-94143981D03*
X92976481Y-95491019D03*
D10*
X110547500Y-113613500D03*
X112452500Y-113613500D03*
X90157500Y-106247500D03*
X92062500Y-106247500D03*
D12*
X108250000Y-88150000D03*
X108250000Y-86245000D03*
D13*
X88570000Y-118947500D03*
D14*
X88570000Y-116407500D03*
X91110000Y-118947500D03*
X91110000Y-116407500D03*
X93650000Y-118947500D03*
X93650000Y-116407500D03*
X96190000Y-118947500D03*
X96190000Y-116407500D03*
X98730000Y-118947500D03*
X98730000Y-116407500D03*
X101270000Y-118947500D03*
X101270000Y-116407500D03*
D15*
X103810000Y-118947500D03*
X103810000Y-116407500D03*
X106350000Y-118947500D03*
X106350000Y-116407500D03*
X108890000Y-118947500D03*
X108890000Y-116407500D03*
X111430000Y-118947500D03*
X111430000Y-116407500D03*
D13*
X88570000Y-83387500D03*
D14*
X88570000Y-80847500D03*
X91110000Y-83387500D03*
X91110000Y-80847500D03*
X93650000Y-83387500D03*
X93650000Y-80847500D03*
X96190000Y-83387500D03*
X96190000Y-80847500D03*
X98730000Y-83387500D03*
X98730000Y-80847500D03*
X101270000Y-83387500D03*
X101270000Y-80847500D03*
D15*
X103810000Y-83387500D03*
X103810000Y-80847500D03*
X106350000Y-83387500D03*
X106350000Y-80847500D03*
X108890000Y-83387500D03*
X108890000Y-80847500D03*
X111430000Y-83387500D03*
X111430000Y-80847500D03*
D10*
X112452500Y-109041500D03*
X110547500Y-109041500D03*
D16*
X109232481Y-98285019D03*
X110579519Y-96937981D03*
X110756481Y-99809019D03*
X112103519Y-98461981D03*
X107708481Y-96761019D03*
X109055519Y-95413981D03*
D10*
X112452500Y-111327500D03*
X110547500Y-111327500D03*
D12*
X106350000Y-86245000D03*
X106350000Y-88150000D03*
D17*
X106250000Y-89577480D03*
X106250000Y-91929520D03*
D18*
X102344420Y-89737500D03*
X93845580Y-89737500D03*
D19*
X110500000Y-105000000D03*
D20*
X106358936Y-99547918D03*
X105793250Y-98982233D03*
X105227565Y-98416548D03*
X104661880Y-97850862D03*
X104096194Y-97285177D03*
X103530509Y-96719491D03*
X102964823Y-96153806D03*
X102399138Y-95588120D03*
X101833452Y-95022435D03*
X101267767Y-94456750D03*
X100702082Y-93891064D03*
D21*
X98297918Y-93891064D03*
X97732233Y-94456750D03*
X97166548Y-95022435D03*
X96600862Y-95588120D03*
X96035177Y-96153806D03*
X95469491Y-96719491D03*
X94903806Y-97285177D03*
X94338120Y-97850862D03*
X93772435Y-98416548D03*
X93206750Y-98982233D03*
X92641064Y-99547918D03*
D20*
X92641064Y-101952082D03*
X93206750Y-102517767D03*
X93772435Y-103083452D03*
X94338120Y-103649138D03*
X94903806Y-104214823D03*
X95469491Y-104780509D03*
X96035177Y-105346194D03*
X96600862Y-105911880D03*
X97166548Y-106477565D03*
X97732233Y-107043250D03*
X98297918Y-107608936D03*
D21*
X100702082Y-107608936D03*
X101267767Y-107043250D03*
X101833452Y-106477565D03*
X102399138Y-105911880D03*
X102964823Y-105346194D03*
X103530509Y-104780509D03*
X104096194Y-104214823D03*
X104661880Y-103649138D03*
X105227565Y-103083452D03*
X105793250Y-102517767D03*
X106358936Y-101952082D03*
D22*
X84440000Y-98127120D03*
D23*
X84440000Y-96407500D03*
X82540000Y-96407500D03*
D24*
X82540000Y-98307500D03*
D25*
X83109000Y-101827900D03*
X83109000Y-106831700D03*
D26*
X100762000Y-112597500D03*
X97460000Y-112597500D03*
D10*
X90157500Y-104342500D03*
X92062500Y-104342500D03*
X104447500Y-106800000D03*
X106352500Y-106800000D03*
D27*
X108128000Y-108533500D03*
X106858000Y-108533500D03*
X105588000Y-108533500D03*
X104318000Y-108533500D03*
X104318000Y-113867500D03*
X105588000Y-113867500D03*
X106858000Y-113867500D03*
X108128000Y-113867500D03*
D28*
X87170000Y-89352500D03*
X87170000Y-95152500D03*
X87170000Y-100952500D03*
X87170000Y-106652500D03*
D29*
X93142000Y-109803500D03*
D30*
X95682000Y-109803500D03*
X98222000Y-109803500D03*
X100762000Y-109803500D03*
D31*
X110750000Y-91342500D03*
D32*
X113290000Y-91342500D03*
X110750000Y-88802500D03*
X113290000Y-88802500D03*
X110750000Y-86262500D03*
X113290000Y-86262500D03*
M02*
