G04 #@! TF.GenerationSoftware,KiCad,Pcbnew,6.0.11-2627ca5db0~126~ubuntu22.04.1*
G04 #@! TF.CreationDate,2023-12-06T10:34:05+01:00*
G04 #@! TF.ProjectId,bus-module_atmega324,6275732d-6d6f-4647-956c-655f61746d65,C*
G04 #@! TF.SameCoordinates,Original*
G04 #@! TF.FileFunction,Soldermask,Bot*
G04 #@! TF.FilePolarity,Negative*
%FSLAX46Y46*%
G04 Gerber Fmt 4.6, Leading zero omitted, Abs format (unit mm)*
G04 Created by KiCad (PCBNEW 6.0.11-2627ca5db0~126~ubuntu22.04.1) date 2023-12-06 10:34:05*
%MOMM*%
%LPD*%
G01*
G04 APERTURE LIST*
%ADD10R,1.651000X1.651000*%
%ADD11C,1.600200*%
%ADD12C,1.524000*%
%ADD13C,3.500000*%
%ADD14R,0.889000X1.397000*%
%ADD15R,1.397000X0.889000*%
%ADD16C,2.200000*%
%ADD17R,1.143000X0.508000*%
%ADD18R,1.600000X1.600000*%
%ADD19C,1.600000*%
%ADD20R,1.800000X1.800000*%
%ADD21C,1.800000*%
G04 APERTURE END LIST*
D10*
X88570000Y-118947500D03*
D11*
X88570000Y-116407500D03*
X91110000Y-118947500D03*
X91110000Y-116407500D03*
X93650000Y-118947500D03*
X93650000Y-116407500D03*
X96190000Y-118947500D03*
X96190000Y-116407500D03*
X98730000Y-118947500D03*
X98730000Y-116407500D03*
X101270000Y-118947500D03*
X101270000Y-116407500D03*
D12*
X103810000Y-118947500D03*
X103810000Y-116407500D03*
X106350000Y-118947500D03*
X106350000Y-116407500D03*
X108890000Y-118947500D03*
X108890000Y-116407500D03*
X111430000Y-118947500D03*
X111430000Y-116407500D03*
D10*
X88570000Y-83387500D03*
D11*
X88570000Y-80847500D03*
X91110000Y-83387500D03*
X91110000Y-80847500D03*
X93650000Y-83387500D03*
X93650000Y-80847500D03*
X96190000Y-83387500D03*
X96190000Y-80847500D03*
X98730000Y-83387500D03*
X98730000Y-80847500D03*
X101270000Y-83387500D03*
X101270000Y-80847500D03*
D12*
X103810000Y-83387500D03*
X103810000Y-80847500D03*
X106350000Y-83387500D03*
X106350000Y-80847500D03*
X108890000Y-83387500D03*
X108890000Y-80847500D03*
X111430000Y-83387500D03*
X111430000Y-80847500D03*
D13*
X110500000Y-105000000D03*
D14*
X102222500Y-95071500D03*
X100317500Y-95071500D03*
D15*
X92126000Y-98945000D03*
X92126000Y-100850000D03*
D16*
X87170000Y-89352500D03*
X87170000Y-95152500D03*
X87170000Y-100952500D03*
X87170000Y-106652500D03*
D17*
X97867000Y-102495000D03*
X97867000Y-103765000D03*
X97867000Y-105035000D03*
X97867000Y-106305000D03*
X92533000Y-106305000D03*
X92533000Y-105035000D03*
X92533000Y-103765000D03*
X92533000Y-102495000D03*
X105667000Y-97345000D03*
X105667000Y-98615000D03*
X105667000Y-99885000D03*
X105667000Y-101155000D03*
X100333000Y-101155000D03*
X100333000Y-99885000D03*
X100333000Y-98615000D03*
X100333000Y-97345000D03*
D18*
X93142000Y-109803500D03*
D19*
X95682000Y-109803500D03*
X98222000Y-109803500D03*
X100762000Y-109803500D03*
D20*
X110750000Y-91342500D03*
D21*
X113290000Y-91342500D03*
X110750000Y-88802500D03*
X113290000Y-88802500D03*
X110750000Y-86262500D03*
X113290000Y-86262500D03*
D14*
X102032000Y-103199500D03*
X103937000Y-103199500D03*
M02*
