G04 #@! TF.GenerationSoftware,KiCad,Pcbnew,5.0.0-fee4fd1~66~ubuntu16.04.1*
G04 #@! TF.CreationDate,2018-09-24T17:33:27+02:00*
G04 #@! TF.ProjectId,bus-module_atmega324,6275732D6D6F64756C655F61746D6567,B*
G04 #@! TF.SameCoordinates,Original*
G04 #@! TF.FileFunction,Legend,Bot*
G04 #@! TF.FilePolarity,Positive*
%FSLAX46Y46*%
G04 Gerber Fmt 4.6, Leading zero omitted, Abs format (unit mm)*
G04 Created by KiCad (PCBNEW 5.0.0-fee4fd1~66~ubuntu16.04.1) date Mon Sep 24 17:33:27 2018*
%MOMM*%
%LPD*%
G01*
G04 APERTURE LIST*
%ADD10C,0.200000*%
%ADD11C,0.150000*%
G04 APERTURE END LIST*
D10*
X105080000Y-103707500D02*
X106858000Y-101675500D01*
D11*
X103873047Y-89513357D02*
X103758761Y-89551452D01*
X103720666Y-89589547D01*
X103682571Y-89665738D01*
X103682571Y-89780023D01*
X103720666Y-89856214D01*
X103758761Y-89894309D01*
X103834952Y-89932404D01*
X104139714Y-89932404D01*
X104139714Y-89132404D01*
X103873047Y-89132404D01*
X103796857Y-89170500D01*
X103758761Y-89208595D01*
X103720666Y-89284785D01*
X103720666Y-89360976D01*
X103758761Y-89437166D01*
X103796857Y-89475261D01*
X103873047Y-89513357D01*
X104139714Y-89513357D01*
X103339714Y-89132404D02*
X103339714Y-89780023D01*
X103301619Y-89856214D01*
X103263523Y-89894309D01*
X103187333Y-89932404D01*
X103034952Y-89932404D01*
X102958761Y-89894309D01*
X102920666Y-89856214D01*
X102882571Y-89780023D01*
X102882571Y-89132404D01*
X102539714Y-89894309D02*
X102425428Y-89932404D01*
X102234952Y-89932404D01*
X102158761Y-89894309D01*
X102120666Y-89856214D01*
X102082571Y-89780023D01*
X102082571Y-89703833D01*
X102120666Y-89627642D01*
X102158761Y-89589547D01*
X102234952Y-89551452D01*
X102387333Y-89513357D01*
X102463523Y-89475261D01*
X102501619Y-89437166D01*
X102539714Y-89360976D01*
X102539714Y-89284785D01*
X102501619Y-89208595D01*
X102463523Y-89170500D01*
X102387333Y-89132404D01*
X102196857Y-89132404D01*
X102082571Y-89170500D01*
X101739714Y-89627642D02*
X101130190Y-89627642D01*
X100749238Y-89932404D02*
X100749238Y-89132404D01*
X100482571Y-89703833D01*
X100215904Y-89132404D01*
X100215904Y-89932404D01*
X99682571Y-89132404D02*
X99530190Y-89132404D01*
X99454000Y-89170500D01*
X99377809Y-89246690D01*
X99339714Y-89399071D01*
X99339714Y-89665738D01*
X99377809Y-89818119D01*
X99454000Y-89894309D01*
X99530190Y-89932404D01*
X99682571Y-89932404D01*
X99758761Y-89894309D01*
X99834952Y-89818119D01*
X99873047Y-89665738D01*
X99873047Y-89399071D01*
X99834952Y-89246690D01*
X99758761Y-89170500D01*
X99682571Y-89132404D01*
X98996857Y-89932404D02*
X98996857Y-89132404D01*
X98806380Y-89132404D01*
X98692095Y-89170500D01*
X98615904Y-89246690D01*
X98577809Y-89322880D01*
X98539714Y-89475261D01*
X98539714Y-89589547D01*
X98577809Y-89741928D01*
X98615904Y-89818119D01*
X98692095Y-89894309D01*
X98806380Y-89932404D01*
X98996857Y-89932404D01*
X98196857Y-89132404D02*
X98196857Y-89780023D01*
X98158761Y-89856214D01*
X98120666Y-89894309D01*
X98044476Y-89932404D01*
X97892095Y-89932404D01*
X97815904Y-89894309D01*
X97777809Y-89856214D01*
X97739714Y-89780023D01*
X97739714Y-89132404D01*
X96977809Y-89932404D02*
X97358761Y-89932404D01*
X97358761Y-89132404D01*
X96711142Y-89513357D02*
X96444476Y-89513357D01*
X96330190Y-89932404D02*
X96711142Y-89932404D01*
X96711142Y-89132404D01*
X96330190Y-89132404D01*
X103454000Y-91053833D02*
X103073047Y-91053833D01*
X103530190Y-91282404D02*
X103263523Y-90482404D01*
X102996857Y-91282404D01*
X102844476Y-90482404D02*
X102387333Y-90482404D01*
X102615904Y-91282404D02*
X102615904Y-90482404D01*
X102120666Y-91282404D02*
X102120666Y-90482404D01*
X101854000Y-91053833D01*
X101587333Y-90482404D01*
X101587333Y-91282404D01*
X101206380Y-90863357D02*
X100939714Y-90863357D01*
X100825428Y-91282404D02*
X101206380Y-91282404D01*
X101206380Y-90482404D01*
X100825428Y-90482404D01*
X100063523Y-90520500D02*
X100139714Y-90482404D01*
X100254000Y-90482404D01*
X100368285Y-90520500D01*
X100444476Y-90596690D01*
X100482571Y-90672880D01*
X100520666Y-90825261D01*
X100520666Y-90939547D01*
X100482571Y-91091928D01*
X100444476Y-91168119D01*
X100368285Y-91244309D01*
X100254000Y-91282404D01*
X100177809Y-91282404D01*
X100063523Y-91244309D01*
X100025428Y-91206214D01*
X100025428Y-90939547D01*
X100177809Y-90939547D01*
X99720666Y-91053833D02*
X99339714Y-91053833D01*
X99796857Y-91282404D02*
X99530190Y-90482404D01*
X99263523Y-91282404D01*
X99073047Y-90482404D02*
X98577809Y-90482404D01*
X98844476Y-90787166D01*
X98730190Y-90787166D01*
X98654000Y-90825261D01*
X98615904Y-90863357D01*
X98577809Y-90939547D01*
X98577809Y-91130023D01*
X98615904Y-91206214D01*
X98654000Y-91244309D01*
X98730190Y-91282404D01*
X98958761Y-91282404D01*
X99034952Y-91244309D01*
X99073047Y-91206214D01*
X98273047Y-90558595D02*
X98234952Y-90520500D01*
X98158761Y-90482404D01*
X97968285Y-90482404D01*
X97892095Y-90520500D01*
X97854000Y-90558595D01*
X97815904Y-90634785D01*
X97815904Y-90710976D01*
X97854000Y-90825261D01*
X98311142Y-91282404D01*
X97815904Y-91282404D01*
X97130190Y-90749071D02*
X97130190Y-91282404D01*
X97320666Y-90444309D02*
X97511142Y-91015738D01*
X97015904Y-91015738D01*
X107821904Y-100028857D02*
X107021904Y-100028857D01*
X107021904Y-100333619D01*
X107060000Y-100409809D01*
X107098095Y-100447904D01*
X107174285Y-100486000D01*
X107288571Y-100486000D01*
X107364761Y-100447904D01*
X107402857Y-100409809D01*
X107440952Y-100333619D01*
X107440952Y-100028857D01*
X107593333Y-100790761D02*
X107593333Y-101171714D01*
X107821904Y-100714571D02*
X107021904Y-100981238D01*
X107821904Y-101247904D01*
X107821904Y-101933619D02*
X107821904Y-101476476D01*
X107821904Y-101705047D02*
X107021904Y-101705047D01*
X107136190Y-101628857D01*
X107212380Y-101552666D01*
X107250476Y-101476476D01*
X109171904Y-99914571D02*
X108371904Y-99914571D01*
X108371904Y-100219333D01*
X108410000Y-100295523D01*
X108448095Y-100333619D01*
X108524285Y-100371714D01*
X108638571Y-100371714D01*
X108714761Y-100333619D01*
X108752857Y-100295523D01*
X108790952Y-100219333D01*
X108790952Y-99914571D01*
X108752857Y-100981238D02*
X108790952Y-101095523D01*
X108829047Y-101133619D01*
X108905238Y-101171714D01*
X109019523Y-101171714D01*
X109095714Y-101133619D01*
X109133809Y-101095523D01*
X109171904Y-101019333D01*
X109171904Y-100714571D01*
X108371904Y-100714571D01*
X108371904Y-100981238D01*
X108410000Y-101057428D01*
X108448095Y-101095523D01*
X108524285Y-101133619D01*
X108600476Y-101133619D01*
X108676666Y-101095523D01*
X108714761Y-101057428D01*
X108752857Y-100981238D01*
X108752857Y-100714571D01*
X108371904Y-101666952D02*
X108371904Y-101743142D01*
X108410000Y-101819333D01*
X108448095Y-101857428D01*
X108524285Y-101895523D01*
X108676666Y-101933619D01*
X108867142Y-101933619D01*
X109019523Y-101895523D01*
X109095714Y-101857428D01*
X109133809Y-101819333D01*
X109171904Y-101743142D01*
X109171904Y-101666952D01*
X109133809Y-101590761D01*
X109095714Y-101552666D01*
X109019523Y-101514571D01*
X108867142Y-101476476D01*
X108676666Y-101476476D01*
X108524285Y-101514571D01*
X108448095Y-101552666D01*
X108410000Y-101590761D01*
X108371904Y-101666952D01*
X110521904Y-99914571D02*
X109721904Y-99914571D01*
X109721904Y-100219333D01*
X109760000Y-100295523D01*
X109798095Y-100333619D01*
X109874285Y-100371714D01*
X109988571Y-100371714D01*
X110064761Y-100333619D01*
X110102857Y-100295523D01*
X110140952Y-100219333D01*
X110140952Y-99914571D01*
X110102857Y-100981238D02*
X110140952Y-101095523D01*
X110179047Y-101133619D01*
X110255238Y-101171714D01*
X110369523Y-101171714D01*
X110445714Y-101133619D01*
X110483809Y-101095523D01*
X110521904Y-101019333D01*
X110521904Y-100714571D01*
X109721904Y-100714571D01*
X109721904Y-100981238D01*
X109760000Y-101057428D01*
X109798095Y-101095523D01*
X109874285Y-101133619D01*
X109950476Y-101133619D01*
X110026666Y-101095523D01*
X110064761Y-101057428D01*
X110102857Y-100981238D01*
X110102857Y-100714571D01*
X109798095Y-101476476D02*
X109760000Y-101514571D01*
X109721904Y-101590761D01*
X109721904Y-101781238D01*
X109760000Y-101857428D01*
X109798095Y-101895523D01*
X109874285Y-101933619D01*
X109950476Y-101933619D01*
X110064761Y-101895523D01*
X110521904Y-101438380D01*
X110521904Y-101933619D01*
X111871904Y-99381238D02*
X111071904Y-99381238D01*
X111643333Y-99647904D01*
X111071904Y-99914571D01*
X111871904Y-99914571D01*
X111071904Y-100447904D02*
X111071904Y-100600285D01*
X111110000Y-100676476D01*
X111186190Y-100752666D01*
X111338571Y-100790761D01*
X111605238Y-100790761D01*
X111757619Y-100752666D01*
X111833809Y-100676476D01*
X111871904Y-100600285D01*
X111871904Y-100447904D01*
X111833809Y-100371714D01*
X111757619Y-100295523D01*
X111605238Y-100257428D01*
X111338571Y-100257428D01*
X111186190Y-100295523D01*
X111110000Y-100371714D01*
X111071904Y-100447904D01*
X111833809Y-101095523D02*
X111871904Y-101209809D01*
X111871904Y-101400285D01*
X111833809Y-101476476D01*
X111795714Y-101514571D01*
X111719523Y-101552666D01*
X111643333Y-101552666D01*
X111567142Y-101514571D01*
X111529047Y-101476476D01*
X111490952Y-101400285D01*
X111452857Y-101247904D01*
X111414761Y-101171714D01*
X111376666Y-101133619D01*
X111300476Y-101095523D01*
X111224285Y-101095523D01*
X111148095Y-101133619D01*
X111110000Y-101171714D01*
X111071904Y-101247904D01*
X111071904Y-101438380D01*
X111110000Y-101552666D01*
X111871904Y-101895523D02*
X111071904Y-101895523D01*
X113183809Y-99876476D02*
X113221904Y-99990761D01*
X113221904Y-100181238D01*
X113183809Y-100257428D01*
X113145714Y-100295523D01*
X113069523Y-100333619D01*
X112993333Y-100333619D01*
X112917142Y-100295523D01*
X112879047Y-100257428D01*
X112840952Y-100181238D01*
X112802857Y-100028857D01*
X112764761Y-99952666D01*
X112726666Y-99914571D01*
X112650476Y-99876476D01*
X112574285Y-99876476D01*
X112498095Y-99914571D01*
X112460000Y-99952666D01*
X112421904Y-100028857D01*
X112421904Y-100219333D01*
X112460000Y-100333619D01*
X113145714Y-101133619D02*
X113183809Y-101095523D01*
X113221904Y-100981238D01*
X113221904Y-100905047D01*
X113183809Y-100790761D01*
X113107619Y-100714571D01*
X113031428Y-100676476D01*
X112879047Y-100638380D01*
X112764761Y-100638380D01*
X112612380Y-100676476D01*
X112536190Y-100714571D01*
X112460000Y-100790761D01*
X112421904Y-100905047D01*
X112421904Y-100981238D01*
X112460000Y-101095523D01*
X112498095Y-101133619D01*
X113221904Y-101476476D02*
X112421904Y-101476476D01*
X113221904Y-101933619D02*
X112764761Y-101590761D01*
X112421904Y-101933619D02*
X112879047Y-101476476D01*
X98932000Y-104575428D02*
X98893904Y-104499238D01*
X98893904Y-104384952D01*
X98932000Y-104270666D01*
X99008190Y-104194476D01*
X99084380Y-104156380D01*
X99236761Y-104118285D01*
X99351047Y-104118285D01*
X99503428Y-104156380D01*
X99579619Y-104194476D01*
X99655809Y-104270666D01*
X99693904Y-104384952D01*
X99693904Y-104461142D01*
X99655809Y-104575428D01*
X99617714Y-104613523D01*
X99351047Y-104613523D01*
X99351047Y-104461142D01*
X99693904Y-104956380D02*
X98893904Y-104956380D01*
X99693904Y-105413523D01*
X98893904Y-105413523D01*
X99693904Y-105794476D02*
X98893904Y-105794476D01*
X98893904Y-105984952D01*
X98932000Y-106099238D01*
X99008190Y-106175428D01*
X99084380Y-106213523D01*
X99236761Y-106251619D01*
X99351047Y-106251619D01*
X99503428Y-106213523D01*
X99579619Y-106175428D01*
X99655809Y-106099238D01*
X99693904Y-105984952D01*
X99693904Y-105794476D01*
X100815333Y-103584952D02*
X100815333Y-103965904D01*
X101043904Y-103508761D02*
X100243904Y-103775428D01*
X101043904Y-104042095D01*
X100243904Y-104194476D02*
X101043904Y-104461142D01*
X100243904Y-104727809D01*
X100967714Y-105451619D02*
X101005809Y-105413523D01*
X101043904Y-105299238D01*
X101043904Y-105223047D01*
X101005809Y-105108761D01*
X100929619Y-105032571D01*
X100853428Y-104994476D01*
X100701047Y-104956380D01*
X100586761Y-104956380D01*
X100434380Y-104994476D01*
X100358190Y-105032571D01*
X100282000Y-105108761D01*
X100243904Y-105223047D01*
X100243904Y-105299238D01*
X100282000Y-105413523D01*
X100320095Y-105451619D01*
X100967714Y-106251619D02*
X101005809Y-106213523D01*
X101043904Y-106099238D01*
X101043904Y-106023047D01*
X101005809Y-105908761D01*
X100929619Y-105832571D01*
X100853428Y-105794476D01*
X100701047Y-105756380D01*
X100586761Y-105756380D01*
X100434380Y-105794476D01*
X100358190Y-105832571D01*
X100282000Y-105908761D01*
X100243904Y-106023047D01*
X100243904Y-106099238D01*
X100282000Y-106213523D01*
X100320095Y-106251619D01*
X102393904Y-104346857D02*
X101593904Y-104346857D01*
X101593904Y-104651619D01*
X101632000Y-104727809D01*
X101670095Y-104765904D01*
X101746285Y-104804000D01*
X101860571Y-104804000D01*
X101936761Y-104765904D01*
X101974857Y-104727809D01*
X102012952Y-104651619D01*
X102012952Y-104346857D01*
X102165333Y-105108761D02*
X102165333Y-105489714D01*
X102393904Y-105032571D02*
X101593904Y-105299238D01*
X102393904Y-105565904D01*
X101593904Y-105756380D02*
X101593904Y-106289714D01*
X102393904Y-105946857D01*
X103743904Y-104346857D02*
X102943904Y-104346857D01*
X102943904Y-104651619D01*
X102982000Y-104727809D01*
X103020095Y-104765904D01*
X103096285Y-104804000D01*
X103210571Y-104804000D01*
X103286761Y-104765904D01*
X103324857Y-104727809D01*
X103362952Y-104651619D01*
X103362952Y-104346857D01*
X103515333Y-105108761D02*
X103515333Y-105489714D01*
X103743904Y-105032571D02*
X102943904Y-105299238D01*
X103743904Y-105565904D01*
X102943904Y-106213523D02*
X102943904Y-105832571D01*
X103324857Y-105794476D01*
X103286761Y-105832571D01*
X103248666Y-105908761D01*
X103248666Y-106099238D01*
X103286761Y-106175428D01*
X103324857Y-106213523D01*
X103401047Y-106251619D01*
X103591523Y-106251619D01*
X103667714Y-106213523D01*
X103705809Y-106175428D01*
X103743904Y-106099238D01*
X103743904Y-105908761D01*
X103705809Y-105832571D01*
X103667714Y-105794476D01*
X105093904Y-104346857D02*
X104293904Y-104346857D01*
X104293904Y-104651619D01*
X104332000Y-104727809D01*
X104370095Y-104765904D01*
X104446285Y-104804000D01*
X104560571Y-104804000D01*
X104636761Y-104765904D01*
X104674857Y-104727809D01*
X104712952Y-104651619D01*
X104712952Y-104346857D01*
X104865333Y-105108761D02*
X104865333Y-105489714D01*
X105093904Y-105032571D02*
X104293904Y-105299238D01*
X105093904Y-105565904D01*
X104293904Y-105756380D02*
X104293904Y-106251619D01*
X104598666Y-105984952D01*
X104598666Y-106099238D01*
X104636761Y-106175428D01*
X104674857Y-106213523D01*
X104751047Y-106251619D01*
X104941523Y-106251619D01*
X105017714Y-106213523D01*
X105055809Y-106175428D01*
X105093904Y-106099238D01*
X105093904Y-105870666D01*
X105055809Y-105794476D01*
X105017714Y-105756380D01*
X93925000Y-121559523D02*
X93886904Y-121483333D01*
X93886904Y-121369047D01*
X93925000Y-121254761D01*
X94001190Y-121178571D01*
X94077380Y-121140476D01*
X94229761Y-121102380D01*
X94344047Y-121102380D01*
X94496428Y-121140476D01*
X94572619Y-121178571D01*
X94648809Y-121254761D01*
X94686904Y-121369047D01*
X94686904Y-121445238D01*
X94648809Y-121559523D01*
X94610714Y-121597619D01*
X94344047Y-121597619D01*
X94344047Y-121445238D01*
X94686904Y-121940476D02*
X93886904Y-121940476D01*
X94686904Y-122397619D01*
X93886904Y-122397619D01*
X94686904Y-122778571D02*
X93886904Y-122778571D01*
X93886904Y-122969047D01*
X93925000Y-123083333D01*
X94001190Y-123159523D01*
X94077380Y-123197619D01*
X94229761Y-123235714D01*
X94344047Y-123235714D01*
X94496428Y-123197619D01*
X94572619Y-123159523D01*
X94648809Y-123083333D01*
X94686904Y-122969047D01*
X94686904Y-122778571D01*
X95236904Y-121026190D02*
X96036904Y-121292857D01*
X95236904Y-121559523D01*
X95960714Y-122283333D02*
X95998809Y-122245238D01*
X96036904Y-122130952D01*
X96036904Y-122054761D01*
X95998809Y-121940476D01*
X95922619Y-121864285D01*
X95846428Y-121826190D01*
X95694047Y-121788095D01*
X95579761Y-121788095D01*
X95427380Y-121826190D01*
X95351190Y-121864285D01*
X95275000Y-121940476D01*
X95236904Y-122054761D01*
X95236904Y-122130952D01*
X95275000Y-122245238D01*
X95313095Y-122283333D01*
X95960714Y-123083333D02*
X95998809Y-123045238D01*
X96036904Y-122930952D01*
X96036904Y-122854761D01*
X95998809Y-122740476D01*
X95922619Y-122664285D01*
X95846428Y-122626190D01*
X95694047Y-122588095D01*
X95579761Y-122588095D01*
X95427380Y-122626190D01*
X95351190Y-122664285D01*
X95275000Y-122740476D01*
X95236904Y-122854761D01*
X95236904Y-122930952D01*
X95275000Y-123045238D01*
X95313095Y-123083333D01*
X97158333Y-121102380D02*
X97158333Y-121483333D01*
X97386904Y-121026190D02*
X96586904Y-121292857D01*
X97386904Y-121559523D01*
X97386904Y-122283333D02*
X97005952Y-122016666D01*
X97386904Y-121826190D02*
X96586904Y-121826190D01*
X96586904Y-122130952D01*
X96625000Y-122207142D01*
X96663095Y-122245238D01*
X96739285Y-122283333D01*
X96853571Y-122283333D01*
X96929761Y-122245238D01*
X96967857Y-122207142D01*
X97005952Y-122130952D01*
X97005952Y-121826190D01*
X96967857Y-122626190D02*
X96967857Y-122892857D01*
X97386904Y-123007142D02*
X97386904Y-122626190D01*
X96586904Y-122626190D01*
X96586904Y-123007142D01*
X96967857Y-123616666D02*
X96967857Y-123350000D01*
X97386904Y-123350000D02*
X96586904Y-123350000D01*
X96586904Y-123730952D01*
X98736904Y-121140476D02*
X97936904Y-121140476D01*
X97936904Y-121445238D01*
X97975000Y-121521428D01*
X98013095Y-121559523D01*
X98089285Y-121597619D01*
X98203571Y-121597619D01*
X98279761Y-121559523D01*
X98317857Y-121521428D01*
X98355952Y-121445238D01*
X98355952Y-121140476D01*
X98508333Y-121902380D02*
X98508333Y-122283333D01*
X98736904Y-121826190D02*
X97936904Y-122092857D01*
X98736904Y-122359523D01*
X97936904Y-122969047D02*
X97936904Y-122816666D01*
X97975000Y-122740476D01*
X98013095Y-122702380D01*
X98127380Y-122626190D01*
X98279761Y-122588095D01*
X98584523Y-122588095D01*
X98660714Y-122626190D01*
X98698809Y-122664285D01*
X98736904Y-122740476D01*
X98736904Y-122892857D01*
X98698809Y-122969047D01*
X98660714Y-123007142D01*
X98584523Y-123045238D01*
X98394047Y-123045238D01*
X98317857Y-123007142D01*
X98279761Y-122969047D01*
X98241666Y-122892857D01*
X98241666Y-122740476D01*
X98279761Y-122664285D01*
X98317857Y-122626190D01*
X98394047Y-122588095D01*
X100086904Y-121140476D02*
X99286904Y-121140476D01*
X99286904Y-121445238D01*
X99325000Y-121521428D01*
X99363095Y-121559523D01*
X99439285Y-121597619D01*
X99553571Y-121597619D01*
X99629761Y-121559523D01*
X99667857Y-121521428D01*
X99705952Y-121445238D01*
X99705952Y-121140476D01*
X99858333Y-121902380D02*
X99858333Y-122283333D01*
X100086904Y-121826190D02*
X99286904Y-122092857D01*
X100086904Y-122359523D01*
X99553571Y-122969047D02*
X100086904Y-122969047D01*
X99248809Y-122778571D02*
X99820238Y-122588095D01*
X99820238Y-123083333D01*
X101436904Y-121140476D02*
X100636904Y-121140476D01*
X100636904Y-121445238D01*
X100675000Y-121521428D01*
X100713095Y-121559523D01*
X100789285Y-121597619D01*
X100903571Y-121597619D01*
X100979761Y-121559523D01*
X101017857Y-121521428D01*
X101055952Y-121445238D01*
X101055952Y-121140476D01*
X101208333Y-121902380D02*
X101208333Y-122283333D01*
X101436904Y-121826190D02*
X100636904Y-122092857D01*
X101436904Y-122359523D01*
X100713095Y-122588095D02*
X100675000Y-122626190D01*
X100636904Y-122702380D01*
X100636904Y-122892857D01*
X100675000Y-122969047D01*
X100713095Y-123007142D01*
X100789285Y-123045238D01*
X100865476Y-123045238D01*
X100979761Y-123007142D01*
X101436904Y-122550000D01*
X101436904Y-123045238D01*
X102786904Y-121140476D02*
X101986904Y-121140476D01*
X101986904Y-121445238D01*
X102025000Y-121521428D01*
X102063095Y-121559523D01*
X102139285Y-121597619D01*
X102253571Y-121597619D01*
X102329761Y-121559523D01*
X102367857Y-121521428D01*
X102405952Y-121445238D01*
X102405952Y-121140476D01*
X102558333Y-121902380D02*
X102558333Y-122283333D01*
X102786904Y-121826190D02*
X101986904Y-122092857D01*
X102786904Y-122359523D01*
X101986904Y-122778571D02*
X101986904Y-122854761D01*
X102025000Y-122930952D01*
X102063095Y-122969047D01*
X102139285Y-123007142D01*
X102291666Y-123045238D01*
X102482142Y-123045238D01*
X102634523Y-123007142D01*
X102710714Y-122969047D01*
X102748809Y-122930952D01*
X102786904Y-122854761D01*
X102786904Y-122778571D01*
X102748809Y-122702380D01*
X102710714Y-122664285D01*
X102634523Y-122626190D01*
X102482142Y-122588095D01*
X102291666Y-122588095D01*
X102139285Y-122626190D01*
X102063095Y-122664285D01*
X102025000Y-122702380D01*
X101986904Y-122778571D01*
X104136904Y-121140476D02*
X103336904Y-121140476D01*
X103336904Y-121445238D01*
X103375000Y-121521428D01*
X103413095Y-121559523D01*
X103489285Y-121597619D01*
X103603571Y-121597619D01*
X103679761Y-121559523D01*
X103717857Y-121521428D01*
X103755952Y-121445238D01*
X103755952Y-121140476D01*
X103717857Y-122207142D02*
X103755952Y-122321428D01*
X103794047Y-122359523D01*
X103870238Y-122397619D01*
X103984523Y-122397619D01*
X104060714Y-122359523D01*
X104098809Y-122321428D01*
X104136904Y-122245238D01*
X104136904Y-121940476D01*
X103336904Y-121940476D01*
X103336904Y-122207142D01*
X103375000Y-122283333D01*
X103413095Y-122321428D01*
X103489285Y-122359523D01*
X103565476Y-122359523D01*
X103641666Y-122321428D01*
X103679761Y-122283333D01*
X103717857Y-122207142D01*
X103717857Y-121940476D01*
X104136904Y-123159523D02*
X104136904Y-122702380D01*
X104136904Y-122930952D02*
X103336904Y-122930952D01*
X103451190Y-122854761D01*
X103527380Y-122778571D01*
X103565476Y-122702380D01*
X105486904Y-121140476D02*
X104686904Y-121140476D01*
X104686904Y-121445238D01*
X104725000Y-121521428D01*
X104763095Y-121559523D01*
X104839285Y-121597619D01*
X104953571Y-121597619D01*
X105029761Y-121559523D01*
X105067857Y-121521428D01*
X105105952Y-121445238D01*
X105105952Y-121140476D01*
X105067857Y-122207142D02*
X105105952Y-122321428D01*
X105144047Y-122359523D01*
X105220238Y-122397619D01*
X105334523Y-122397619D01*
X105410714Y-122359523D01*
X105448809Y-122321428D01*
X105486904Y-122245238D01*
X105486904Y-121940476D01*
X104686904Y-121940476D01*
X104686904Y-122207142D01*
X104725000Y-122283333D01*
X104763095Y-122321428D01*
X104839285Y-122359523D01*
X104915476Y-122359523D01*
X104991666Y-122321428D01*
X105029761Y-122283333D01*
X105067857Y-122207142D01*
X105067857Y-121940476D01*
X104686904Y-122664285D02*
X104686904Y-123159523D01*
X104991666Y-122892857D01*
X104991666Y-123007142D01*
X105029761Y-123083333D01*
X105067857Y-123121428D01*
X105144047Y-123159523D01*
X105334523Y-123159523D01*
X105410714Y-123121428D01*
X105448809Y-123083333D01*
X105486904Y-123007142D01*
X105486904Y-122778571D01*
X105448809Y-122702380D01*
X105410714Y-122664285D01*
X106836904Y-121140476D02*
X106036904Y-121140476D01*
X106608333Y-121407142D01*
X106036904Y-121673809D01*
X106836904Y-121673809D01*
X106836904Y-122054761D02*
X106036904Y-122054761D01*
X106798809Y-122397619D02*
X106836904Y-122511904D01*
X106836904Y-122702380D01*
X106798809Y-122778571D01*
X106760714Y-122816666D01*
X106684523Y-122854761D01*
X106608333Y-122854761D01*
X106532142Y-122816666D01*
X106494047Y-122778571D01*
X106455952Y-122702380D01*
X106417857Y-122550000D01*
X106379761Y-122473809D01*
X106341666Y-122435714D01*
X106265476Y-122397619D01*
X106189285Y-122397619D01*
X106113095Y-122435714D01*
X106075000Y-122473809D01*
X106036904Y-122550000D01*
X106036904Y-122740476D01*
X106075000Y-122854761D01*
X106036904Y-123350000D02*
X106036904Y-123502380D01*
X106075000Y-123578571D01*
X106151190Y-123654761D01*
X106303571Y-123692857D01*
X106570238Y-123692857D01*
X106722619Y-123654761D01*
X106798809Y-123578571D01*
X106836904Y-123502380D01*
X106836904Y-123350000D01*
X106798809Y-123273809D01*
X106722619Y-123197619D01*
X106570238Y-123159523D01*
X106303571Y-123159523D01*
X106151190Y-123197619D01*
X106075000Y-123273809D01*
X106036904Y-123350000D01*
X93525000Y-86126523D02*
X93486904Y-86050333D01*
X93486904Y-85936047D01*
X93525000Y-85821761D01*
X93601190Y-85745571D01*
X93677380Y-85707476D01*
X93829761Y-85669380D01*
X93944047Y-85669380D01*
X94096428Y-85707476D01*
X94172619Y-85745571D01*
X94248809Y-85821761D01*
X94286904Y-85936047D01*
X94286904Y-86012238D01*
X94248809Y-86126523D01*
X94210714Y-86164619D01*
X93944047Y-86164619D01*
X93944047Y-86012238D01*
X94286904Y-86507476D02*
X93486904Y-86507476D01*
X94286904Y-86964619D01*
X93486904Y-86964619D01*
X94286904Y-87345571D02*
X93486904Y-87345571D01*
X93486904Y-87536047D01*
X93525000Y-87650333D01*
X93601190Y-87726523D01*
X93677380Y-87764619D01*
X93829761Y-87802714D01*
X93944047Y-87802714D01*
X94096428Y-87764619D01*
X94172619Y-87726523D01*
X94248809Y-87650333D01*
X94286904Y-87536047D01*
X94286904Y-87345571D01*
X94913095Y-85669380D02*
X94875000Y-85707476D01*
X94836904Y-85783666D01*
X94836904Y-85974142D01*
X94875000Y-86050333D01*
X94913095Y-86088428D01*
X94989285Y-86126523D01*
X95065476Y-86126523D01*
X95179761Y-86088428D01*
X95636904Y-85631285D01*
X95636904Y-86126523D01*
X95103571Y-86812238D02*
X95636904Y-86812238D01*
X94798809Y-86621761D02*
X95370238Y-86431285D01*
X95370238Y-86926523D01*
X94836904Y-87117000D02*
X95636904Y-87383666D01*
X94836904Y-87650333D01*
X96986904Y-85707476D02*
X96186904Y-85707476D01*
X96186904Y-86012238D01*
X96225000Y-86088428D01*
X96263095Y-86126523D01*
X96339285Y-86164619D01*
X96453571Y-86164619D01*
X96529761Y-86126523D01*
X96567857Y-86088428D01*
X96605952Y-86012238D01*
X96605952Y-85707476D01*
X96910714Y-86964619D02*
X96948809Y-86926523D01*
X96986904Y-86812238D01*
X96986904Y-86736047D01*
X96948809Y-86621761D01*
X96872619Y-86545571D01*
X96796428Y-86507476D01*
X96644047Y-86469380D01*
X96529761Y-86469380D01*
X96377380Y-86507476D01*
X96301190Y-86545571D01*
X96225000Y-86621761D01*
X96186904Y-86736047D01*
X96186904Y-86812238D01*
X96225000Y-86926523D01*
X96263095Y-86964619D01*
X96986904Y-87726523D02*
X96986904Y-87269380D01*
X96986904Y-87497952D02*
X96186904Y-87497952D01*
X96301190Y-87421761D01*
X96377380Y-87345571D01*
X96415476Y-87269380D01*
X98336904Y-85707476D02*
X97536904Y-85707476D01*
X97536904Y-86012238D01*
X97575000Y-86088428D01*
X97613095Y-86126523D01*
X97689285Y-86164619D01*
X97803571Y-86164619D01*
X97879761Y-86126523D01*
X97917857Y-86088428D01*
X97955952Y-86012238D01*
X97955952Y-85707476D01*
X98260714Y-86964619D02*
X98298809Y-86926523D01*
X98336904Y-86812238D01*
X98336904Y-86736047D01*
X98298809Y-86621761D01*
X98222619Y-86545571D01*
X98146428Y-86507476D01*
X97994047Y-86469380D01*
X97879761Y-86469380D01*
X97727380Y-86507476D01*
X97651190Y-86545571D01*
X97575000Y-86621761D01*
X97536904Y-86736047D01*
X97536904Y-86812238D01*
X97575000Y-86926523D01*
X97613095Y-86964619D01*
X97536904Y-87231285D02*
X97536904Y-87726523D01*
X97841666Y-87459857D01*
X97841666Y-87574142D01*
X97879761Y-87650333D01*
X97917857Y-87688428D01*
X97994047Y-87726523D01*
X98184523Y-87726523D01*
X98260714Y-87688428D01*
X98298809Y-87650333D01*
X98336904Y-87574142D01*
X98336904Y-87345571D01*
X98298809Y-87269380D01*
X98260714Y-87231285D01*
X99686904Y-85707476D02*
X98886904Y-85707476D01*
X98886904Y-86012238D01*
X98925000Y-86088428D01*
X98963095Y-86126523D01*
X99039285Y-86164619D01*
X99153571Y-86164619D01*
X99229761Y-86126523D01*
X99267857Y-86088428D01*
X99305952Y-86012238D01*
X99305952Y-85707476D01*
X99610714Y-86964619D02*
X99648809Y-86926523D01*
X99686904Y-86812238D01*
X99686904Y-86736047D01*
X99648809Y-86621761D01*
X99572619Y-86545571D01*
X99496428Y-86507476D01*
X99344047Y-86469380D01*
X99229761Y-86469380D01*
X99077380Y-86507476D01*
X99001190Y-86545571D01*
X98925000Y-86621761D01*
X98886904Y-86736047D01*
X98886904Y-86812238D01*
X98925000Y-86926523D01*
X98963095Y-86964619D01*
X98886904Y-87688428D02*
X98886904Y-87307476D01*
X99267857Y-87269380D01*
X99229761Y-87307476D01*
X99191666Y-87383666D01*
X99191666Y-87574142D01*
X99229761Y-87650333D01*
X99267857Y-87688428D01*
X99344047Y-87726523D01*
X99534523Y-87726523D01*
X99610714Y-87688428D01*
X99648809Y-87650333D01*
X99686904Y-87574142D01*
X99686904Y-87383666D01*
X99648809Y-87307476D01*
X99610714Y-87269380D01*
X101036904Y-85707476D02*
X100236904Y-85707476D01*
X100236904Y-86012238D01*
X100275000Y-86088428D01*
X100313095Y-86126523D01*
X100389285Y-86164619D01*
X100503571Y-86164619D01*
X100579761Y-86126523D01*
X100617857Y-86088428D01*
X100655952Y-86012238D01*
X100655952Y-85707476D01*
X100960714Y-86964619D02*
X100998809Y-86926523D01*
X101036904Y-86812238D01*
X101036904Y-86736047D01*
X100998809Y-86621761D01*
X100922619Y-86545571D01*
X100846428Y-86507476D01*
X100694047Y-86469380D01*
X100579761Y-86469380D01*
X100427380Y-86507476D01*
X100351190Y-86545571D01*
X100275000Y-86621761D01*
X100236904Y-86736047D01*
X100236904Y-86812238D01*
X100275000Y-86926523D01*
X100313095Y-86964619D01*
X100236904Y-87231285D02*
X100236904Y-87764619D01*
X101036904Y-87421761D01*
X102386904Y-85707476D02*
X101586904Y-85707476D01*
X101586904Y-86012238D01*
X101625000Y-86088428D01*
X101663095Y-86126523D01*
X101739285Y-86164619D01*
X101853571Y-86164619D01*
X101929761Y-86126523D01*
X101967857Y-86088428D01*
X102005952Y-86012238D01*
X102005952Y-85707476D01*
X102386904Y-86507476D02*
X101586904Y-86507476D01*
X101586904Y-86697952D01*
X101625000Y-86812238D01*
X101701190Y-86888428D01*
X101777380Y-86926523D01*
X101929761Y-86964619D01*
X102044047Y-86964619D01*
X102196428Y-86926523D01*
X102272619Y-86888428D01*
X102348809Y-86812238D01*
X102386904Y-86697952D01*
X102386904Y-86507476D01*
X101586904Y-87231285D02*
X101586904Y-87726523D01*
X101891666Y-87459857D01*
X101891666Y-87574142D01*
X101929761Y-87650333D01*
X101967857Y-87688428D01*
X102044047Y-87726523D01*
X102234523Y-87726523D01*
X102310714Y-87688428D01*
X102348809Y-87650333D01*
X102386904Y-87574142D01*
X102386904Y-87345571D01*
X102348809Y-87269380D01*
X102310714Y-87231285D01*
X103736904Y-85707476D02*
X102936904Y-85707476D01*
X102936904Y-86012238D01*
X102975000Y-86088428D01*
X103013095Y-86126523D01*
X103089285Y-86164619D01*
X103203571Y-86164619D01*
X103279761Y-86126523D01*
X103317857Y-86088428D01*
X103355952Y-86012238D01*
X103355952Y-85707476D01*
X103736904Y-86507476D02*
X102936904Y-86507476D01*
X102936904Y-86697952D01*
X102975000Y-86812238D01*
X103051190Y-86888428D01*
X103127380Y-86926523D01*
X103279761Y-86964619D01*
X103394047Y-86964619D01*
X103546428Y-86926523D01*
X103622619Y-86888428D01*
X103698809Y-86812238D01*
X103736904Y-86697952D01*
X103736904Y-86507476D01*
X102936904Y-87650333D02*
X102936904Y-87497952D01*
X102975000Y-87421761D01*
X103013095Y-87383666D01*
X103127380Y-87307476D01*
X103279761Y-87269380D01*
X103584523Y-87269380D01*
X103660714Y-87307476D01*
X103698809Y-87345571D01*
X103736904Y-87421761D01*
X103736904Y-87574142D01*
X103698809Y-87650333D01*
X103660714Y-87688428D01*
X103584523Y-87726523D01*
X103394047Y-87726523D01*
X103317857Y-87688428D01*
X103279761Y-87650333D01*
X103241666Y-87574142D01*
X103241666Y-87421761D01*
X103279761Y-87345571D01*
X103317857Y-87307476D01*
X103394047Y-87269380D01*
X104667857Y-85974142D02*
X104705952Y-86088428D01*
X104744047Y-86126523D01*
X104820238Y-86164619D01*
X104934523Y-86164619D01*
X105010714Y-86126523D01*
X105048809Y-86088428D01*
X105086904Y-86012238D01*
X105086904Y-85707476D01*
X104286904Y-85707476D01*
X104286904Y-85974142D01*
X104325000Y-86050333D01*
X104363095Y-86088428D01*
X104439285Y-86126523D01*
X104515476Y-86126523D01*
X104591666Y-86088428D01*
X104629761Y-86050333D01*
X104667857Y-85974142D01*
X104667857Y-85707476D01*
X105086904Y-86964619D02*
X104705952Y-86697952D01*
X105086904Y-86507476D02*
X104286904Y-86507476D01*
X104286904Y-86812238D01*
X104325000Y-86888428D01*
X104363095Y-86926523D01*
X104439285Y-86964619D01*
X104553571Y-86964619D01*
X104629761Y-86926523D01*
X104667857Y-86888428D01*
X104705952Y-86812238D01*
X104705952Y-86507476D01*
X104286904Y-87231285D02*
X105086904Y-87764619D01*
X104286904Y-87764619D02*
X105086904Y-87231285D01*
X106017857Y-85974142D02*
X106055952Y-86088428D01*
X106094047Y-86126523D01*
X106170238Y-86164619D01*
X106284523Y-86164619D01*
X106360714Y-86126523D01*
X106398809Y-86088428D01*
X106436904Y-86012238D01*
X106436904Y-85707476D01*
X105636904Y-85707476D01*
X105636904Y-85974142D01*
X105675000Y-86050333D01*
X105713095Y-86088428D01*
X105789285Y-86126523D01*
X105865476Y-86126523D01*
X105941666Y-86088428D01*
X105979761Y-86050333D01*
X106017857Y-85974142D01*
X106017857Y-85707476D01*
X105636904Y-86393190D02*
X105636904Y-86850333D01*
X106436904Y-86621761D02*
X105636904Y-86621761D01*
X106017857Y-87117000D02*
X106017857Y-87383666D01*
X106436904Y-87497952D02*
X106436904Y-87117000D01*
X105636904Y-87117000D01*
X105636904Y-87497952D01*
X106436904Y-87840809D02*
X105636904Y-87840809D01*
X106436904Y-88297952D01*
X105636904Y-88297952D01*
X93725000Y-76873928D02*
X93686904Y-76797738D01*
X93686904Y-76683452D01*
X93725000Y-76569166D01*
X93801190Y-76492976D01*
X93877380Y-76454880D01*
X94029761Y-76416785D01*
X94144047Y-76416785D01*
X94296428Y-76454880D01*
X94372619Y-76492976D01*
X94448809Y-76569166D01*
X94486904Y-76683452D01*
X94486904Y-76759642D01*
X94448809Y-76873928D01*
X94410714Y-76912023D01*
X94144047Y-76912023D01*
X94144047Y-76759642D01*
X94486904Y-77254880D02*
X93686904Y-77254880D01*
X94486904Y-77712023D01*
X93686904Y-77712023D01*
X94486904Y-78092976D02*
X93686904Y-78092976D01*
X93686904Y-78283452D01*
X93725000Y-78397738D01*
X93801190Y-78473928D01*
X93877380Y-78512023D01*
X94029761Y-78550119D01*
X94144047Y-78550119D01*
X94296428Y-78512023D01*
X94372619Y-78473928D01*
X94448809Y-78397738D01*
X94486904Y-78283452D01*
X94486904Y-78092976D01*
X95113095Y-76645357D02*
X95075000Y-76683452D01*
X95036904Y-76759642D01*
X95036904Y-76950119D01*
X95075000Y-77026309D01*
X95113095Y-77064404D01*
X95189285Y-77102500D01*
X95265476Y-77102500D01*
X95379761Y-77064404D01*
X95836904Y-76607261D01*
X95836904Y-77102500D01*
X95303571Y-77788214D02*
X95836904Y-77788214D01*
X94998809Y-77597738D02*
X95570238Y-77407261D01*
X95570238Y-77902500D01*
X95036904Y-78092976D02*
X95836904Y-78359642D01*
X95036904Y-78626309D01*
X97186904Y-76531071D02*
X96386904Y-76531071D01*
X96386904Y-76835833D01*
X96425000Y-76912023D01*
X96463095Y-76950119D01*
X96539285Y-76988214D01*
X96653571Y-76988214D01*
X96729761Y-76950119D01*
X96767857Y-76912023D01*
X96805952Y-76835833D01*
X96805952Y-76531071D01*
X97110714Y-77788214D02*
X97148809Y-77750119D01*
X97186904Y-77635833D01*
X97186904Y-77559642D01*
X97148809Y-77445357D01*
X97072619Y-77369166D01*
X96996428Y-77331071D01*
X96844047Y-77292976D01*
X96729761Y-77292976D01*
X96577380Y-77331071D01*
X96501190Y-77369166D01*
X96425000Y-77445357D01*
X96386904Y-77559642D01*
X96386904Y-77635833D01*
X96425000Y-77750119D01*
X96463095Y-77788214D01*
X96386904Y-78283452D02*
X96386904Y-78359642D01*
X96425000Y-78435833D01*
X96463095Y-78473928D01*
X96539285Y-78512023D01*
X96691666Y-78550119D01*
X96882142Y-78550119D01*
X97034523Y-78512023D01*
X97110714Y-78473928D01*
X97148809Y-78435833D01*
X97186904Y-78359642D01*
X97186904Y-78283452D01*
X97148809Y-78207261D01*
X97110714Y-78169166D01*
X97034523Y-78131071D01*
X96882142Y-78092976D01*
X96691666Y-78092976D01*
X96539285Y-78131071D01*
X96463095Y-78169166D01*
X96425000Y-78207261D01*
X96386904Y-78283452D01*
X98536904Y-76531071D02*
X97736904Y-76531071D01*
X97736904Y-76835833D01*
X97775000Y-76912023D01*
X97813095Y-76950119D01*
X97889285Y-76988214D01*
X98003571Y-76988214D01*
X98079761Y-76950119D01*
X98117857Y-76912023D01*
X98155952Y-76835833D01*
X98155952Y-76531071D01*
X98460714Y-77788214D02*
X98498809Y-77750119D01*
X98536904Y-77635833D01*
X98536904Y-77559642D01*
X98498809Y-77445357D01*
X98422619Y-77369166D01*
X98346428Y-77331071D01*
X98194047Y-77292976D01*
X98079761Y-77292976D01*
X97927380Y-77331071D01*
X97851190Y-77369166D01*
X97775000Y-77445357D01*
X97736904Y-77559642D01*
X97736904Y-77635833D01*
X97775000Y-77750119D01*
X97813095Y-77788214D01*
X97813095Y-78092976D02*
X97775000Y-78131071D01*
X97736904Y-78207261D01*
X97736904Y-78397738D01*
X97775000Y-78473928D01*
X97813095Y-78512023D01*
X97889285Y-78550119D01*
X97965476Y-78550119D01*
X98079761Y-78512023D01*
X98536904Y-78054880D01*
X98536904Y-78550119D01*
X99886904Y-76531071D02*
X99086904Y-76531071D01*
X99086904Y-76835833D01*
X99125000Y-76912023D01*
X99163095Y-76950119D01*
X99239285Y-76988214D01*
X99353571Y-76988214D01*
X99429761Y-76950119D01*
X99467857Y-76912023D01*
X99505952Y-76835833D01*
X99505952Y-76531071D01*
X99810714Y-77788214D02*
X99848809Y-77750119D01*
X99886904Y-77635833D01*
X99886904Y-77559642D01*
X99848809Y-77445357D01*
X99772619Y-77369166D01*
X99696428Y-77331071D01*
X99544047Y-77292976D01*
X99429761Y-77292976D01*
X99277380Y-77331071D01*
X99201190Y-77369166D01*
X99125000Y-77445357D01*
X99086904Y-77559642D01*
X99086904Y-77635833D01*
X99125000Y-77750119D01*
X99163095Y-77788214D01*
X99353571Y-78473928D02*
X99886904Y-78473928D01*
X99048809Y-78283452D02*
X99620238Y-78092976D01*
X99620238Y-78588214D01*
X101236904Y-76531071D02*
X100436904Y-76531071D01*
X100436904Y-76835833D01*
X100475000Y-76912023D01*
X100513095Y-76950119D01*
X100589285Y-76988214D01*
X100703571Y-76988214D01*
X100779761Y-76950119D01*
X100817857Y-76912023D01*
X100855952Y-76835833D01*
X100855952Y-76531071D01*
X101160714Y-77788214D02*
X101198809Y-77750119D01*
X101236904Y-77635833D01*
X101236904Y-77559642D01*
X101198809Y-77445357D01*
X101122619Y-77369166D01*
X101046428Y-77331071D01*
X100894047Y-77292976D01*
X100779761Y-77292976D01*
X100627380Y-77331071D01*
X100551190Y-77369166D01*
X100475000Y-77445357D01*
X100436904Y-77559642D01*
X100436904Y-77635833D01*
X100475000Y-77750119D01*
X100513095Y-77788214D01*
X100436904Y-78473928D02*
X100436904Y-78321547D01*
X100475000Y-78245357D01*
X100513095Y-78207261D01*
X100627380Y-78131071D01*
X100779761Y-78092976D01*
X101084523Y-78092976D01*
X101160714Y-78131071D01*
X101198809Y-78169166D01*
X101236904Y-78245357D01*
X101236904Y-78397738D01*
X101198809Y-78473928D01*
X101160714Y-78512023D01*
X101084523Y-78550119D01*
X100894047Y-78550119D01*
X100817857Y-78512023D01*
X100779761Y-78473928D01*
X100741666Y-78397738D01*
X100741666Y-78245357D01*
X100779761Y-78169166D01*
X100817857Y-78131071D01*
X100894047Y-78092976D01*
X102586904Y-76531071D02*
X101786904Y-76531071D01*
X101786904Y-76835833D01*
X101825000Y-76912023D01*
X101863095Y-76950119D01*
X101939285Y-76988214D01*
X102053571Y-76988214D01*
X102129761Y-76950119D01*
X102167857Y-76912023D01*
X102205952Y-76835833D01*
X102205952Y-76531071D01*
X102586904Y-77331071D02*
X101786904Y-77331071D01*
X101786904Y-77521547D01*
X101825000Y-77635833D01*
X101901190Y-77712023D01*
X101977380Y-77750119D01*
X102129761Y-77788214D01*
X102244047Y-77788214D01*
X102396428Y-77750119D01*
X102472619Y-77712023D01*
X102548809Y-77635833D01*
X102586904Y-77521547D01*
X102586904Y-77331071D01*
X101863095Y-78092976D02*
X101825000Y-78131071D01*
X101786904Y-78207261D01*
X101786904Y-78397738D01*
X101825000Y-78473928D01*
X101863095Y-78512023D01*
X101939285Y-78550119D01*
X102015476Y-78550119D01*
X102129761Y-78512023D01*
X102586904Y-78054880D01*
X102586904Y-78550119D01*
X103936904Y-76531071D02*
X103136904Y-76531071D01*
X103136904Y-76835833D01*
X103175000Y-76912023D01*
X103213095Y-76950119D01*
X103289285Y-76988214D01*
X103403571Y-76988214D01*
X103479761Y-76950119D01*
X103517857Y-76912023D01*
X103555952Y-76835833D01*
X103555952Y-76531071D01*
X103936904Y-77331071D02*
X103136904Y-77331071D01*
X103136904Y-77521547D01*
X103175000Y-77635833D01*
X103251190Y-77712023D01*
X103327380Y-77750119D01*
X103479761Y-77788214D01*
X103594047Y-77788214D01*
X103746428Y-77750119D01*
X103822619Y-77712023D01*
X103898809Y-77635833D01*
X103936904Y-77521547D01*
X103936904Y-77331071D01*
X103136904Y-78512023D02*
X103136904Y-78131071D01*
X103517857Y-78092976D01*
X103479761Y-78131071D01*
X103441666Y-78207261D01*
X103441666Y-78397738D01*
X103479761Y-78473928D01*
X103517857Y-78512023D01*
X103594047Y-78550119D01*
X103784523Y-78550119D01*
X103860714Y-78512023D01*
X103898809Y-78473928D01*
X103936904Y-78397738D01*
X103936904Y-78207261D01*
X103898809Y-78131071D01*
X103860714Y-78092976D01*
X105286904Y-76531071D02*
X104486904Y-76531071D01*
X104486904Y-76835833D01*
X104525000Y-76912023D01*
X104563095Y-76950119D01*
X104639285Y-76988214D01*
X104753571Y-76988214D01*
X104829761Y-76950119D01*
X104867857Y-76912023D01*
X104905952Y-76835833D01*
X104905952Y-76531071D01*
X105286904Y-77331071D02*
X104486904Y-77331071D01*
X104486904Y-77521547D01*
X104525000Y-77635833D01*
X104601190Y-77712023D01*
X104677380Y-77750119D01*
X104829761Y-77788214D01*
X104944047Y-77788214D01*
X105096428Y-77750119D01*
X105172619Y-77712023D01*
X105248809Y-77635833D01*
X105286904Y-77521547D01*
X105286904Y-77331071D01*
X104486904Y-78054880D02*
X104486904Y-78588214D01*
X105286904Y-78245357D01*
X106217857Y-76988214D02*
X106255952Y-77102500D01*
X106294047Y-77140595D01*
X106370238Y-77178690D01*
X106484523Y-77178690D01*
X106560714Y-77140595D01*
X106598809Y-77102500D01*
X106636904Y-77026309D01*
X106636904Y-76721547D01*
X105836904Y-76721547D01*
X105836904Y-76988214D01*
X105875000Y-77064404D01*
X105913095Y-77102500D01*
X105989285Y-77140595D01*
X106065476Y-77140595D01*
X106141666Y-77102500D01*
X106179761Y-77064404D01*
X106217857Y-76988214D01*
X106217857Y-76721547D01*
X105836904Y-77407261D02*
X105836904Y-77864404D01*
X106636904Y-77635833D02*
X105836904Y-77635833D01*
X105836904Y-78054880D02*
X106636904Y-78588214D01*
X105836904Y-78588214D02*
X106636904Y-78054880D01*
D10*
X83365714Y-89745500D02*
X83460952Y-89697880D01*
X83603809Y-89697880D01*
X83746666Y-89745500D01*
X83841904Y-89840738D01*
X83889523Y-89935976D01*
X83937142Y-90126452D01*
X83937142Y-90269309D01*
X83889523Y-90459785D01*
X83841904Y-90555023D01*
X83746666Y-90650261D01*
X83603809Y-90697880D01*
X83508571Y-90697880D01*
X83365714Y-90650261D01*
X83318095Y-90602642D01*
X83318095Y-90269309D01*
X83508571Y-90269309D01*
X82889523Y-90697880D02*
X82889523Y-89697880D01*
X82318095Y-90697880D01*
X82318095Y-89697880D01*
X81841904Y-90697880D02*
X81841904Y-89697880D01*
X81603809Y-89697880D01*
X81460952Y-89745500D01*
X81365714Y-89840738D01*
X81318095Y-89935976D01*
X81270476Y-90126452D01*
X81270476Y-90269309D01*
X81318095Y-90459785D01*
X81365714Y-90555023D01*
X81460952Y-90650261D01*
X81603809Y-90697880D01*
X81841904Y-90697880D01*
X81508571Y-96270071D02*
X81365714Y-96317690D01*
X81318095Y-96365309D01*
X81270476Y-96460547D01*
X81270476Y-96603404D01*
X81318095Y-96698642D01*
X81365714Y-96746261D01*
X81460952Y-96793880D01*
X81841904Y-96793880D01*
X81841904Y-95793880D01*
X81508571Y-95793880D01*
X81413333Y-95841500D01*
X81365714Y-95889119D01*
X81318095Y-95984357D01*
X81318095Y-96079595D01*
X81365714Y-96174833D01*
X81413333Y-96222452D01*
X81508571Y-96270071D01*
X81841904Y-96270071D01*
X82000666Y-102096166D02*
X81524476Y-102096166D01*
X82095904Y-102381880D02*
X81762571Y-101381880D01*
X81429238Y-102381880D01*
X83905428Y-107319119D02*
X83857809Y-107271500D01*
X83762571Y-107223880D01*
X83524476Y-107223880D01*
X83429238Y-107271500D01*
X83381619Y-107319119D01*
X83334000Y-107414357D01*
X83334000Y-107509595D01*
X83381619Y-107652452D01*
X83953047Y-108223880D01*
X83334000Y-108223880D01*
X82476857Y-107557214D02*
X82476857Y-108223880D01*
X82714952Y-107176261D02*
X82953047Y-107890547D01*
X82334000Y-107890547D01*
X82095904Y-107223880D02*
X81762571Y-108223880D01*
X81429238Y-107223880D01*
D11*
G04 #@! TO.C,J3*
X109480000Y-92612500D02*
X114560000Y-92612500D01*
X109480000Y-84992500D02*
X109480000Y-92612500D01*
X114560000Y-84992500D02*
X109480000Y-84992500D01*
X114560000Y-92612500D02*
X114560000Y-84992500D01*
G04 #@! TO.C,U4*
X93295000Y-107067000D02*
X97105000Y-107067000D01*
X95708000Y-102241000D02*
X95708000Y-101733000D01*
X94692000Y-102241000D02*
X95708000Y-102241000D01*
X94692000Y-101733000D02*
X94692000Y-102241000D01*
X93295000Y-101733000D02*
X96978000Y-101733000D01*
X93295000Y-107067000D02*
X93295000Y-101733000D01*
X97105000Y-101733000D02*
X97105000Y-107067000D01*
X96978000Y-101733000D02*
X97105000Y-101733000D01*
G04 #@! TO.C,U5*
X101095000Y-101917000D02*
X104905000Y-101917000D01*
X103508000Y-97091000D02*
X103508000Y-96583000D01*
X102492000Y-97091000D02*
X103508000Y-97091000D01*
X102492000Y-96583000D02*
X102492000Y-97091000D01*
X101095000Y-96583000D02*
X104778000Y-96583000D01*
X101095000Y-101917000D02*
X101095000Y-96583000D01*
X104905000Y-96583000D02*
X104905000Y-101917000D01*
X104778000Y-96583000D02*
X104905000Y-96583000D01*
G04 #@! TO.C,J8*
X80185000Y-86152100D02*
X80185000Y-91892500D01*
X90649800Y-91892500D02*
X90649800Y-86152100D01*
X86128600Y-90876500D02*
X86636600Y-91892500D01*
X89659200Y-90876500D02*
X86128600Y-90876500D01*
X89151200Y-91892500D02*
X89659200Y-90876500D01*
X86128600Y-85136100D02*
X86636600Y-86152100D01*
X89659200Y-85136100D02*
X86128600Y-85136100D01*
X89151200Y-86152100D02*
X89659200Y-85136100D01*
X90649800Y-91892500D02*
X89151200Y-91892500D01*
X80185000Y-91892500D02*
X86636600Y-91892500D01*
X90649800Y-86152100D02*
X89151200Y-86152100D01*
X80185000Y-86152100D02*
X86636600Y-86152100D01*
G04 #@! TO.C,J7*
X80185000Y-91952100D02*
X80185000Y-97692500D01*
X90649800Y-97692500D02*
X90649800Y-91952100D01*
X86128600Y-96676500D02*
X86636600Y-97692500D01*
X89659200Y-96676500D02*
X86128600Y-96676500D01*
X89151200Y-97692500D02*
X89659200Y-96676500D01*
X86128600Y-90936100D02*
X86636600Y-91952100D01*
X89659200Y-90936100D02*
X86128600Y-90936100D01*
X89151200Y-91952100D02*
X89659200Y-90936100D01*
X90649800Y-97692500D02*
X89151200Y-97692500D01*
X80185000Y-97692500D02*
X86636600Y-97692500D01*
X90649800Y-91952100D02*
X89151200Y-91952100D01*
X80185000Y-91952100D02*
X86636600Y-91952100D01*
G04 #@! TO.C,J6*
X80185000Y-97752100D02*
X80185000Y-103492500D01*
X90649800Y-103492500D02*
X90649800Y-97752100D01*
X86128600Y-102476500D02*
X86636600Y-103492500D01*
X89659200Y-102476500D02*
X86128600Y-102476500D01*
X89151200Y-103492500D02*
X89659200Y-102476500D01*
X86128600Y-96736100D02*
X86636600Y-97752100D01*
X89659200Y-96736100D02*
X86128600Y-96736100D01*
X89151200Y-97752100D02*
X89659200Y-96736100D01*
X90649800Y-103492500D02*
X89151200Y-103492500D01*
X80185000Y-103492500D02*
X86636600Y-103492500D01*
X90649800Y-97752100D02*
X89151200Y-97752100D01*
X80185000Y-97752100D02*
X86636600Y-97752100D01*
G04 #@! TO.C,J5*
X80185000Y-103452100D02*
X80185000Y-109192500D01*
X90649800Y-109192500D02*
X90649800Y-103452100D01*
X86128600Y-108176500D02*
X86636600Y-109192500D01*
X89659200Y-108176500D02*
X86128600Y-108176500D01*
X89151200Y-109192500D02*
X89659200Y-108176500D01*
X86128600Y-102436100D02*
X86636600Y-103452100D01*
X89659200Y-102436100D02*
X86128600Y-102436100D01*
X89151200Y-103452100D02*
X89659200Y-102436100D01*
X90649800Y-109192500D02*
X89151200Y-109192500D01*
X80185000Y-109192500D02*
X86636600Y-109192500D01*
X90649800Y-103452100D02*
X89151200Y-103452100D01*
X80185000Y-103452100D02*
X86636600Y-103452100D01*
G04 #@! TO.C,U6*
X91110000Y-114629500D02*
X91110000Y-108533500D01*
X102794000Y-114629500D02*
X91110000Y-114629500D01*
X102794000Y-108533500D02*
X102794000Y-114629500D01*
X91110000Y-108533500D02*
X102794000Y-108533500D01*
G04 #@! TO.C,C9*
X103964940Y-107926440D02*
X103964940Y-109927960D01*
X103964940Y-112727040D02*
X103964940Y-114728560D01*
X110767060Y-113727800D02*
X109766300Y-114728560D01*
X109766300Y-114728560D02*
X103964940Y-114728560D01*
X110767060Y-113727800D02*
X110767060Y-112727040D01*
X109766300Y-107926440D02*
X103964940Y-107926440D01*
X110767060Y-108927200D02*
X109766300Y-107926440D01*
X110767060Y-109927960D02*
X110767060Y-108927200D01*
X111866880Y-109927960D02*
X111866880Y-108927200D01*
X111366500Y-109427580D02*
X112367260Y-109427580D01*
G04 #@! TO.C,C10*
X99746000Y-95833500D02*
X100762000Y-95833500D01*
X99746000Y-94309500D02*
X99746000Y-95833500D01*
X100762000Y-94309500D02*
X99746000Y-94309500D01*
X102794000Y-94309500D02*
X101778000Y-94309500D01*
X102794000Y-95833500D02*
X102794000Y-94309500D01*
X101778000Y-95833500D02*
X102794000Y-95833500D01*
G04 #@! TO.C,C11*
X92888000Y-101421500D02*
X92888000Y-100405500D01*
X91364000Y-101421500D02*
X92888000Y-101421500D01*
X91364000Y-100405500D02*
X91364000Y-101421500D01*
X91364000Y-98373500D02*
X91364000Y-99389500D01*
X92888000Y-98373500D02*
X91364000Y-98373500D01*
X92888000Y-99389500D02*
X92888000Y-98373500D01*
G04 #@! TO.C,LOGO1*
X96446540Y-94985140D02*
X96705620Y-95546480D01*
X96705620Y-95546480D02*
X96167140Y-96064640D01*
X96167140Y-96064640D02*
X95646440Y-95795400D01*
X95646440Y-95795400D02*
X95367040Y-95955420D01*
X93926860Y-95935100D02*
X93596660Y-95744600D01*
X93596660Y-95744600D02*
X93157240Y-96074800D01*
X93157240Y-96074800D02*
X92684800Y-95584580D01*
X92684800Y-95584580D02*
X92966740Y-95104520D01*
X92966740Y-95104520D02*
X92776240Y-94634620D01*
X92776240Y-94634620D02*
X92166640Y-94446660D01*
X92166640Y-94446660D02*
X92166640Y-93765940D01*
X92166640Y-93765940D02*
X92725440Y-93626240D01*
X92725440Y-93626240D02*
X92926100Y-93054740D01*
X92926100Y-93054740D02*
X92656860Y-92584840D01*
X92656860Y-92584840D02*
X93126760Y-92074300D01*
X93126760Y-92074300D02*
X93644920Y-92335920D01*
X93644920Y-92335920D02*
X94114820Y-92135260D01*
X94114820Y-92135260D02*
X94285000Y-91594240D01*
X94285000Y-91594240D02*
X94975880Y-91576460D01*
X94975880Y-91576460D02*
X95186700Y-92125100D01*
X95186700Y-92125100D02*
X95605800Y-92295280D01*
X95605800Y-92295280D02*
X96156980Y-92026040D01*
X96156980Y-92026040D02*
X96675140Y-92554360D01*
X96675140Y-92554360D02*
X96426220Y-93095380D01*
X96426220Y-93095380D02*
X96596400Y-93575440D01*
X96596400Y-93575440D02*
X97145040Y-93674500D01*
X97145040Y-93674500D02*
X97155200Y-94375540D01*
X97155200Y-94375540D02*
X96596400Y-94576200D01*
X96596400Y-94576200D02*
X96456700Y-94974980D01*
X94315480Y-94954660D02*
X94015760Y-94804800D01*
X94015760Y-94804800D02*
X93815100Y-94606680D01*
X93815100Y-94606680D02*
X93665240Y-94205360D01*
X93665240Y-94205360D02*
X93665240Y-93806580D01*
X93665240Y-93806580D02*
X93815100Y-93456060D01*
X93815100Y-93456060D02*
X94267220Y-93105540D01*
X94267220Y-93105540D02*
X94716800Y-93054740D01*
X94716800Y-93054740D02*
X95115580Y-93156340D01*
X95115580Y-93156340D02*
X95516900Y-93504320D01*
X95516900Y-93504320D02*
X95666760Y-93956440D01*
X95666760Y-93956440D02*
X95615960Y-94454280D01*
X95615960Y-94454280D02*
X95367040Y-94756540D01*
X95367040Y-94756540D02*
X95016520Y-94954660D01*
X95016520Y-94954660D02*
X95367040Y-95955420D01*
X94315480Y-94954660D02*
X93916700Y-95955420D01*
G04 #@! TO.C,J3*
X112525333Y-93253880D02*
X112525333Y-93968166D01*
X112572952Y-94111023D01*
X112668190Y-94206261D01*
X112811047Y-94253880D01*
X112906285Y-94253880D01*
X112144380Y-93253880D02*
X111525333Y-93253880D01*
X111858666Y-93634833D01*
X111715809Y-93634833D01*
X111620571Y-93682452D01*
X111572952Y-93730071D01*
X111525333Y-93825309D01*
X111525333Y-94063404D01*
X111572952Y-94158642D01*
X111620571Y-94206261D01*
X111715809Y-94253880D01*
X112001523Y-94253880D01*
X112096761Y-94206261D01*
X112144380Y-94158642D01*
G04 #@! TO.C,U4*
X98761904Y-100252380D02*
X98761904Y-101061904D01*
X98714285Y-101157142D01*
X98666666Y-101204761D01*
X98571428Y-101252380D01*
X98380952Y-101252380D01*
X98285714Y-101204761D01*
X98238095Y-101157142D01*
X98190476Y-101061904D01*
X98190476Y-100252380D01*
X97285714Y-100585714D02*
X97285714Y-101252380D01*
X97523809Y-100204761D02*
X97761904Y-100919047D01*
X97142857Y-100919047D01*
G04 #@! TO.C,U5*
X106761904Y-95252380D02*
X106761904Y-96061904D01*
X106714285Y-96157142D01*
X106666666Y-96204761D01*
X106571428Y-96252380D01*
X106380952Y-96252380D01*
X106285714Y-96204761D01*
X106238095Y-96157142D01*
X106190476Y-96061904D01*
X106190476Y-95252380D01*
X105238095Y-95252380D02*
X105714285Y-95252380D01*
X105761904Y-95728571D01*
X105714285Y-95680952D01*
X105619047Y-95633333D01*
X105380952Y-95633333D01*
X105285714Y-95680952D01*
X105238095Y-95728571D01*
X105190476Y-95823809D01*
X105190476Y-96061904D01*
X105238095Y-96157142D01*
X105285714Y-96204761D01*
X105380952Y-96252380D01*
X105619047Y-96252380D01*
X105714285Y-96204761D01*
X105761904Y-96157142D01*
G04 #@! TO.C,J8*
X88283133Y-86244880D02*
X88283133Y-86959166D01*
X88330752Y-87102023D01*
X88425990Y-87197261D01*
X88568847Y-87244880D01*
X88664085Y-87244880D01*
X87664085Y-86673452D02*
X87759323Y-86625833D01*
X87806942Y-86578214D01*
X87854561Y-86482976D01*
X87854561Y-86435357D01*
X87806942Y-86340119D01*
X87759323Y-86292500D01*
X87664085Y-86244880D01*
X87473609Y-86244880D01*
X87378371Y-86292500D01*
X87330752Y-86340119D01*
X87283133Y-86435357D01*
X87283133Y-86482976D01*
X87330752Y-86578214D01*
X87378371Y-86625833D01*
X87473609Y-86673452D01*
X87664085Y-86673452D01*
X87759323Y-86721071D01*
X87806942Y-86768690D01*
X87854561Y-86863928D01*
X87854561Y-87054404D01*
X87806942Y-87149642D01*
X87759323Y-87197261D01*
X87664085Y-87244880D01*
X87473609Y-87244880D01*
X87378371Y-87197261D01*
X87330752Y-87149642D01*
X87283133Y-87054404D01*
X87283133Y-86863928D01*
X87330752Y-86768690D01*
X87378371Y-86721071D01*
X87473609Y-86673452D01*
G04 #@! TO.C,J7*
X88083133Y-91894880D02*
X88083133Y-92609166D01*
X88130752Y-92752023D01*
X88225990Y-92847261D01*
X88368847Y-92894880D01*
X88464085Y-92894880D01*
X87702180Y-91894880D02*
X87035514Y-91894880D01*
X87464085Y-92894880D01*
G04 #@! TO.C,J6*
X88483133Y-97744880D02*
X88483133Y-98459166D01*
X88530752Y-98602023D01*
X88625990Y-98697261D01*
X88768847Y-98744880D01*
X88864085Y-98744880D01*
X87578371Y-97744880D02*
X87768847Y-97744880D01*
X87864085Y-97792500D01*
X87911704Y-97840119D01*
X88006942Y-97982976D01*
X88054561Y-98173452D01*
X88054561Y-98554404D01*
X88006942Y-98649642D01*
X87959323Y-98697261D01*
X87864085Y-98744880D01*
X87673609Y-98744880D01*
X87578371Y-98697261D01*
X87530752Y-98649642D01*
X87483133Y-98554404D01*
X87483133Y-98316309D01*
X87530752Y-98221071D01*
X87578371Y-98173452D01*
X87673609Y-98125833D01*
X87864085Y-98125833D01*
X87959323Y-98173452D01*
X88006942Y-98221071D01*
X88054561Y-98316309D01*
G04 #@! TO.C,J5*
X88283133Y-103494880D02*
X88283133Y-104209166D01*
X88330752Y-104352023D01*
X88425990Y-104447261D01*
X88568847Y-104494880D01*
X88664085Y-104494880D01*
X87330752Y-103494880D02*
X87806942Y-103494880D01*
X87854561Y-103971071D01*
X87806942Y-103923452D01*
X87711704Y-103875833D01*
X87473609Y-103875833D01*
X87378371Y-103923452D01*
X87330752Y-103971071D01*
X87283133Y-104066309D01*
X87283133Y-104304404D01*
X87330752Y-104399642D01*
X87378371Y-104447261D01*
X87473609Y-104494880D01*
X87711704Y-104494880D01*
X87806942Y-104447261D01*
X87854561Y-104399642D01*
G04 #@! TO.C,U6*
X90347904Y-111287880D02*
X90347904Y-112097404D01*
X90300285Y-112192642D01*
X90252666Y-112240261D01*
X90157428Y-112287880D01*
X89966952Y-112287880D01*
X89871714Y-112240261D01*
X89824095Y-112192642D01*
X89776476Y-112097404D01*
X89776476Y-111287880D01*
X88871714Y-111287880D02*
X89062190Y-111287880D01*
X89157428Y-111335500D01*
X89205047Y-111383119D01*
X89300285Y-111525976D01*
X89347904Y-111716452D01*
X89347904Y-112097404D01*
X89300285Y-112192642D01*
X89252666Y-112240261D01*
X89157428Y-112287880D01*
X88966952Y-112287880D01*
X88871714Y-112240261D01*
X88824095Y-112192642D01*
X88776476Y-112097404D01*
X88776476Y-111859309D01*
X88824095Y-111764071D01*
X88871714Y-111716452D01*
X88966952Y-111668833D01*
X89157428Y-111668833D01*
X89252666Y-111716452D01*
X89300285Y-111764071D01*
X89347904Y-111859309D01*
G04 #@! TO.C,C9*
X114151574Y-111194166D02*
X114189669Y-111156071D01*
X114227764Y-111041785D01*
X114227764Y-110965595D01*
X114189669Y-110851309D01*
X114113479Y-110775119D01*
X114037288Y-110737023D01*
X113884907Y-110698928D01*
X113770621Y-110698928D01*
X113618240Y-110737023D01*
X113542050Y-110775119D01*
X113465860Y-110851309D01*
X113427764Y-110965595D01*
X113427764Y-111041785D01*
X113465860Y-111156071D01*
X113503955Y-111194166D01*
X114227764Y-111575119D02*
X114227764Y-111727500D01*
X114189669Y-111803690D01*
X114151574Y-111841785D01*
X114037288Y-111917976D01*
X113884907Y-111956071D01*
X113580145Y-111956071D01*
X113503955Y-111917976D01*
X113465860Y-111879880D01*
X113427764Y-111803690D01*
X113427764Y-111651309D01*
X113465860Y-111575119D01*
X113503955Y-111537023D01*
X113580145Y-111498928D01*
X113770621Y-111498928D01*
X113846812Y-111537023D01*
X113884907Y-111575119D01*
X113923002Y-111651309D01*
X113923002Y-111803690D01*
X113884907Y-111879880D01*
X113846812Y-111917976D01*
X113770621Y-111956071D01*
G04 #@! TO.C,C10*
X101784285Y-93960214D02*
X101822380Y-93998309D01*
X101936666Y-94036404D01*
X102012857Y-94036404D01*
X102127142Y-93998309D01*
X102203333Y-93922119D01*
X102241428Y-93845928D01*
X102279523Y-93693547D01*
X102279523Y-93579261D01*
X102241428Y-93426880D01*
X102203333Y-93350690D01*
X102127142Y-93274500D01*
X102012857Y-93236404D01*
X101936666Y-93236404D01*
X101822380Y-93274500D01*
X101784285Y-93312595D01*
X101022380Y-94036404D02*
X101479523Y-94036404D01*
X101250952Y-94036404D02*
X101250952Y-93236404D01*
X101327142Y-93350690D01*
X101403333Y-93426880D01*
X101479523Y-93464976D01*
X100527142Y-93236404D02*
X100450952Y-93236404D01*
X100374761Y-93274500D01*
X100336666Y-93312595D01*
X100298571Y-93388785D01*
X100260476Y-93541166D01*
X100260476Y-93731642D01*
X100298571Y-93884023D01*
X100336666Y-93960214D01*
X100374761Y-93998309D01*
X100450952Y-94036404D01*
X100527142Y-94036404D01*
X100603333Y-93998309D01*
X100641428Y-93960214D01*
X100679523Y-93884023D01*
X100717619Y-93731642D01*
X100717619Y-93541166D01*
X100679523Y-93388785D01*
X100641428Y-93312595D01*
X100603333Y-93274500D01*
X100527142Y-93236404D01*
G04 #@! TO.C,C11*
X91014714Y-99383214D02*
X91052809Y-99345119D01*
X91090904Y-99230833D01*
X91090904Y-99154642D01*
X91052809Y-99040357D01*
X90976619Y-98964166D01*
X90900428Y-98926071D01*
X90748047Y-98887976D01*
X90633761Y-98887976D01*
X90481380Y-98926071D01*
X90405190Y-98964166D01*
X90329000Y-99040357D01*
X90290904Y-99154642D01*
X90290904Y-99230833D01*
X90329000Y-99345119D01*
X90367095Y-99383214D01*
X91090904Y-100145119D02*
X91090904Y-99687976D01*
X91090904Y-99916547D02*
X90290904Y-99916547D01*
X90405190Y-99840357D01*
X90481380Y-99764166D01*
X90519476Y-99687976D01*
X91090904Y-100907023D02*
X91090904Y-100449880D01*
X91090904Y-100678452D02*
X90290904Y-100678452D01*
X90405190Y-100602261D01*
X90481380Y-100526071D01*
X90519476Y-100449880D01*
G04 #@! TO.C,LOGO1*
X95999333Y-96542404D02*
X95846952Y-96542404D01*
X95770761Y-96580500D01*
X95694571Y-96656690D01*
X95656476Y-96809071D01*
X95656476Y-97075738D01*
X95694571Y-97228119D01*
X95770761Y-97304309D01*
X95846952Y-97342404D01*
X95999333Y-97342404D01*
X96075523Y-97304309D01*
X96151714Y-97228119D01*
X96189809Y-97075738D01*
X96189809Y-96809071D01*
X96151714Y-96656690D01*
X96075523Y-96580500D01*
X95999333Y-96542404D01*
X95351714Y-97304309D02*
X95237428Y-97342404D01*
X95046952Y-97342404D01*
X94970761Y-97304309D01*
X94932666Y-97266214D01*
X94894571Y-97190023D01*
X94894571Y-97113833D01*
X94932666Y-97037642D01*
X94970761Y-96999547D01*
X95046952Y-96961452D01*
X95199333Y-96923357D01*
X95275523Y-96885261D01*
X95313619Y-96847166D01*
X95351714Y-96770976D01*
X95351714Y-96694785D01*
X95313619Y-96618595D01*
X95275523Y-96580500D01*
X95199333Y-96542404D01*
X95008857Y-96542404D01*
X94894571Y-96580500D01*
X94551714Y-97342404D02*
X94551714Y-96542404D01*
X94551714Y-96923357D02*
X94094571Y-96923357D01*
X94094571Y-97342404D02*
X94094571Y-96542404D01*
X93789809Y-96542404D02*
X93599333Y-97342404D01*
X93446952Y-96770976D01*
X93294571Y-97342404D01*
X93104095Y-96542404D01*
G04 #@! TD*
M02*
