G04 #@! TF.GenerationSoftware,KiCad,Pcbnew,5.0.0-fee4fd1~66~ubuntu16.04.1*
G04 #@! TF.CreationDate,2018-09-24T17:33:27+02:00*
G04 #@! TF.ProjectId,bus-module_atmega324,6275732D6D6F64756C655F61746D6567,B*
G04 #@! TF.SameCoordinates,Original*
G04 #@! TF.FileFunction,Soldermask,Bot*
G04 #@! TF.FilePolarity,Negative*
%FSLAX46Y46*%
G04 Gerber Fmt 4.6, Leading zero omitted, Abs format (unit mm)*
G04 Created by KiCad (PCBNEW 5.0.0-fee4fd1~66~ubuntu16.04.1) date Mon Sep 24 17:33:27 2018*
%MOMM*%
%LPD*%
G01*
G04 APERTURE LIST*
%ADD10C,1.800000*%
%ADD11R,1.800000X1.800000*%
%ADD12R,1.143000X0.508000*%
%ADD13C,2.000000*%
%ADD14C,1.600000*%
%ADD15R,1.600000X1.600000*%
%ADD16R,3.500120X1.600200*%
%ADD17R,0.889000X1.397000*%
%ADD18R,1.397000X0.889000*%
%ADD19R,1.651000X1.651000*%
%ADD20C,1.600200*%
%ADD21C,1.524000*%
%ADD22C,3.500000*%
G04 APERTURE END LIST*
D10*
G04 #@! TO.C,J3*
X113290000Y-86262500D03*
X110750000Y-86262500D03*
X113290000Y-88802500D03*
X110750000Y-88802500D03*
X113290000Y-91342500D03*
D11*
X110750000Y-91342500D03*
G04 #@! TD*
D12*
G04 #@! TO.C,U4*
X97867000Y-106305000D03*
X97867000Y-105035000D03*
X97867000Y-103765000D03*
X92533000Y-106305000D03*
X92533000Y-105035000D03*
X92533000Y-103765000D03*
X97867000Y-102495000D03*
X92533000Y-102495000D03*
G04 #@! TD*
G04 #@! TO.C,U5*
X105667000Y-101155000D03*
X105667000Y-99885000D03*
X105667000Y-98615000D03*
X100333000Y-101155000D03*
X100333000Y-99885000D03*
X100333000Y-98615000D03*
X105667000Y-97345000D03*
X100333000Y-97345000D03*
G04 #@! TD*
D13*
G04 #@! TO.C,J8*
X87170000Y-89352500D03*
G04 #@! TD*
G04 #@! TO.C,J7*
X87170000Y-95152500D03*
G04 #@! TD*
G04 #@! TO.C,J6*
X87170000Y-100952500D03*
G04 #@! TD*
G04 #@! TO.C,J5*
X87170000Y-106652500D03*
G04 #@! TD*
D14*
G04 #@! TO.C,U6*
X100762000Y-109803500D03*
X98222000Y-109803500D03*
X95682000Y-109803500D03*
D15*
X93142000Y-109803500D03*
G04 #@! TD*
D16*
G04 #@! TO.C,C9*
X105166360Y-111327500D03*
X109565640Y-111327500D03*
G04 #@! TD*
D17*
G04 #@! TO.C,C10*
X100317500Y-95071500D03*
X102222500Y-95071500D03*
G04 #@! TD*
D18*
G04 #@! TO.C,C11*
X92126000Y-100850000D03*
X92126000Y-98945000D03*
G04 #@! TD*
D19*
G04 #@! TO.C,J1*
X88570000Y-83387500D03*
D20*
X88570000Y-80847500D03*
X91110000Y-83387500D03*
X91110000Y-80847500D03*
X93650000Y-83387500D03*
X93650000Y-80847500D03*
X96190000Y-83387500D03*
X96190000Y-80847500D03*
X98730000Y-83387500D03*
X98730000Y-80847500D03*
X101270000Y-83387500D03*
X101270000Y-80847500D03*
D21*
X103810000Y-83387500D03*
X103810000Y-80847500D03*
X106350000Y-83387500D03*
X106350000Y-80847500D03*
X108890000Y-83387500D03*
X108890000Y-80847500D03*
X111430000Y-83387500D03*
X111430000Y-80847500D03*
G04 #@! TD*
D19*
G04 #@! TO.C,J2*
X88570000Y-118947500D03*
D20*
X88570000Y-116407500D03*
X91110000Y-118947500D03*
X91110000Y-116407500D03*
X93650000Y-118947500D03*
X93650000Y-116407500D03*
X96190000Y-118947500D03*
X96190000Y-116407500D03*
X98730000Y-118947500D03*
X98730000Y-116407500D03*
X101270000Y-118947500D03*
X101270000Y-116407500D03*
D21*
X103810000Y-118947500D03*
X103810000Y-116407500D03*
X106350000Y-118947500D03*
X106350000Y-116407500D03*
X108890000Y-118947500D03*
X108890000Y-116407500D03*
X111430000Y-118947500D03*
X111430000Y-116407500D03*
G04 #@! TD*
D22*
G04 #@! TO.C,H1*
X110500000Y-105000000D03*
G04 #@! TD*
M02*
