G04 #@! TF.GenerationSoftware,KiCad,Pcbnew,6.0.11-2627ca5db0~126~ubuntu22.04.1*
G04 #@! TF.CreationDate,2023-12-06T10:34:05+01:00*
G04 #@! TF.ProjectId,bus-module_atmega324,6275732d-6d6f-4647-956c-655f61746d65,C*
G04 #@! TF.SameCoordinates,Original*
G04 #@! TF.FileFunction,Other,Comment*
%FSLAX46Y46*%
G04 Gerber Fmt 4.6, Leading zero omitted, Abs format (unit mm)*
G04 Created by KiCad (PCBNEW 6.0.11-2627ca5db0~126~ubuntu22.04.1) date 2023-12-06 10:34:05*
%MOMM*%
%LPD*%
G01*
G04 APERTURE LIST*
%ADD10C,0.200000*%
%ADD11C,0.300000*%
G04 APERTURE END LIST*
D10*
X100000000Y-75000000D02*
X100000000Y-125000000D01*
X101000000Y-100000000D02*
G75*
G03*
X101000000Y-100000000I-1000000J0D01*
G01*
D11*
X162148571Y-106738928D02*
X162148571Y-105810357D01*
X162720000Y-106310357D01*
X162720000Y-106096071D01*
X162791428Y-105953214D01*
X162862857Y-105881785D01*
X163005714Y-105810357D01*
X163362857Y-105810357D01*
X163505714Y-105881785D01*
X163577142Y-105953214D01*
X163648571Y-106096071D01*
X163648571Y-106524642D01*
X163577142Y-106667500D01*
X163505714Y-106738928D01*
X162148571Y-104453214D02*
X162148571Y-105167500D01*
X162862857Y-105238928D01*
X162791428Y-105167500D01*
X162720000Y-105024642D01*
X162720000Y-104667500D01*
X162791428Y-104524642D01*
X162862857Y-104453214D01*
X163005714Y-104381785D01*
X163362857Y-104381785D01*
X163505714Y-104453214D01*
X163577142Y-104524642D01*
X163648571Y-104667500D01*
X163648571Y-105024642D01*
X163577142Y-105167500D01*
X163505714Y-105238928D01*
X163505714Y-103738928D02*
X163577142Y-103667500D01*
X163648571Y-103738928D01*
X163577142Y-103810357D01*
X163505714Y-103738928D01*
X163648571Y-103738928D01*
X162148571Y-102310357D02*
X162148571Y-103024642D01*
X162862857Y-103096071D01*
X162791428Y-103024642D01*
X162720000Y-102881785D01*
X162720000Y-102524642D01*
X162791428Y-102381785D01*
X162862857Y-102310357D01*
X163005714Y-102238928D01*
X163362857Y-102238928D01*
X163505714Y-102310357D01*
X163577142Y-102381785D01*
X163648571Y-102524642D01*
X163648571Y-102881785D01*
X163577142Y-103024642D01*
X163505714Y-103096071D01*
X162148571Y-100953214D02*
X162148571Y-101238928D01*
X162220000Y-101381785D01*
X162291428Y-101453214D01*
X162505714Y-101596071D01*
X162791428Y-101667500D01*
X163362857Y-101667500D01*
X163505714Y-101596071D01*
X163577142Y-101524642D01*
X163648571Y-101381785D01*
X163648571Y-101096071D01*
X163577142Y-100953214D01*
X163505714Y-100881785D01*
X163362857Y-100810357D01*
X163005714Y-100810357D01*
X162862857Y-100881785D01*
X162791428Y-100953214D01*
X162720000Y-101096071D01*
X162720000Y-101381785D01*
X162791428Y-101524642D01*
X162862857Y-101596071D01*
X163005714Y-101667500D01*
X163648571Y-99024642D02*
X162648571Y-99024642D01*
X162791428Y-99024642D02*
X162720000Y-98953214D01*
X162648571Y-98810357D01*
X162648571Y-98596071D01*
X162720000Y-98453214D01*
X162862857Y-98381785D01*
X163648571Y-98381785D01*
X162862857Y-98381785D02*
X162720000Y-98310357D01*
X162648571Y-98167500D01*
X162648571Y-97953214D01*
X162720000Y-97810357D01*
X162862857Y-97738928D01*
X163648571Y-97738928D01*
X163648571Y-97024642D02*
X162648571Y-97024642D01*
X162791428Y-97024642D02*
X162720000Y-96953214D01*
X162648571Y-96810357D01*
X162648571Y-96596071D01*
X162720000Y-96453214D01*
X162862857Y-96381785D01*
X163648571Y-96381785D01*
X162862857Y-96381785D02*
X162720000Y-96310357D01*
X162648571Y-96167500D01*
X162648571Y-95953214D01*
X162720000Y-95810357D01*
X162862857Y-95738928D01*
X163648571Y-95738928D01*
X88570000Y-83387500D02*
X165356420Y-83387500D01*
X88570000Y-118947500D02*
X165356420Y-118947500D01*
X164770000Y-83387500D02*
X164770000Y-118947500D01*
X164770000Y-83387500D02*
X164770000Y-118947500D01*
X164770000Y-83387500D02*
X164183579Y-84514004D01*
X164770000Y-83387500D02*
X165356421Y-84514004D01*
X164770000Y-118947500D02*
X165356421Y-117820996D01*
X164770000Y-118947500D02*
X164183579Y-117820996D01*
X63378571Y-104071428D02*
X64378571Y-104071428D01*
X62807142Y-104428571D02*
X63878571Y-104785714D01*
X63878571Y-103857142D01*
X62878571Y-103000000D02*
X62878571Y-102857142D01*
X62950000Y-102714285D01*
X63021428Y-102642857D01*
X63164285Y-102571428D01*
X63450000Y-102500000D01*
X63807142Y-102500000D01*
X64092857Y-102571428D01*
X64235714Y-102642857D01*
X64307142Y-102714285D01*
X64378571Y-102857142D01*
X64378571Y-103000000D01*
X64307142Y-103142857D01*
X64235714Y-103214285D01*
X64092857Y-103285714D01*
X63807142Y-103357142D01*
X63450000Y-103357142D01*
X63164285Y-103285714D01*
X63021428Y-103214285D01*
X62950000Y-103142857D01*
X62878571Y-103000000D01*
X64235714Y-101857142D02*
X64307142Y-101785714D01*
X64378571Y-101857142D01*
X64307142Y-101928571D01*
X64235714Y-101857142D01*
X64378571Y-101857142D01*
X62878571Y-100857142D02*
X62878571Y-100714285D01*
X62950000Y-100571428D01*
X63021428Y-100500000D01*
X63164285Y-100428571D01*
X63450000Y-100357142D01*
X63807142Y-100357142D01*
X64092857Y-100428571D01*
X64235714Y-100500000D01*
X64307142Y-100571428D01*
X64378571Y-100714285D01*
X64378571Y-100857142D01*
X64307142Y-101000000D01*
X64235714Y-101071428D01*
X64092857Y-101142857D01*
X63807142Y-101214285D01*
X63450000Y-101214285D01*
X63164285Y-101142857D01*
X63021428Y-101071428D01*
X62950000Y-101000000D01*
X62878571Y-100857142D01*
X64378571Y-98571428D02*
X63378571Y-98571428D01*
X63521428Y-98571428D02*
X63450000Y-98500000D01*
X63378571Y-98357142D01*
X63378571Y-98142857D01*
X63450000Y-98000000D01*
X63592857Y-97928571D01*
X64378571Y-97928571D01*
X63592857Y-97928571D02*
X63450000Y-97857142D01*
X63378571Y-97714285D01*
X63378571Y-97500000D01*
X63450000Y-97357142D01*
X63592857Y-97285714D01*
X64378571Y-97285714D01*
X64378571Y-96571428D02*
X63378571Y-96571428D01*
X63521428Y-96571428D02*
X63450000Y-96500000D01*
X63378571Y-96357142D01*
X63378571Y-96142857D01*
X63450000Y-96000000D01*
X63592857Y-95928571D01*
X64378571Y-95928571D01*
X63592857Y-95928571D02*
X63450000Y-95857142D01*
X63378571Y-95714285D01*
X63378571Y-95500000D01*
X63450000Y-95357142D01*
X63592857Y-95285714D01*
X64378571Y-95285714D01*
X85000000Y-120000000D02*
X64913580Y-120000000D01*
X85000000Y-80000000D02*
X64913580Y-80000000D01*
X65500000Y-120000000D02*
X65500000Y-80000000D01*
X65500000Y-120000000D02*
X65500000Y-80000000D01*
X65500000Y-120000000D02*
X66086421Y-118873496D01*
X65500000Y-120000000D02*
X64913579Y-118873496D01*
X65500000Y-80000000D02*
X64913579Y-81126504D01*
X65500000Y-80000000D02*
X66086421Y-81126504D01*
X125748571Y-103101785D02*
X125748571Y-103816071D01*
X126462857Y-103887500D01*
X126391428Y-103816071D01*
X126320000Y-103673214D01*
X126320000Y-103316071D01*
X126391428Y-103173214D01*
X126462857Y-103101785D01*
X126605714Y-103030357D01*
X126962857Y-103030357D01*
X127105714Y-103101785D01*
X127177142Y-103173214D01*
X127248571Y-103316071D01*
X127248571Y-103673214D01*
X127177142Y-103816071D01*
X127105714Y-103887500D01*
X127105714Y-102387500D02*
X127177142Y-102316071D01*
X127248571Y-102387500D01*
X127177142Y-102458928D01*
X127105714Y-102387500D01*
X127248571Y-102387500D01*
X125748571Y-101387500D02*
X125748571Y-101244642D01*
X125820000Y-101101785D01*
X125891428Y-101030357D01*
X126034285Y-100958928D01*
X126320000Y-100887500D01*
X126677142Y-100887500D01*
X126962857Y-100958928D01*
X127105714Y-101030357D01*
X127177142Y-101101785D01*
X127248571Y-101244642D01*
X127248571Y-101387500D01*
X127177142Y-101530357D01*
X127105714Y-101601785D01*
X126962857Y-101673214D01*
X126677142Y-101744642D01*
X126320000Y-101744642D01*
X126034285Y-101673214D01*
X125891428Y-101601785D01*
X125820000Y-101530357D01*
X125748571Y-101387500D01*
X100000000Y-105000000D02*
X129336420Y-105000000D01*
X100000000Y-100000000D02*
X129336420Y-100000000D01*
X128750000Y-105000000D02*
X128750000Y-100000000D01*
X128750000Y-105000000D02*
X128750000Y-100000000D01*
X128750000Y-105000000D02*
X129336421Y-103873496D01*
X128750000Y-105000000D02*
X128163579Y-103873496D01*
X128750000Y-100000000D02*
X128163579Y-101126504D01*
X128750000Y-100000000D02*
X129336421Y-101126504D01*
X96071428Y-72378571D02*
X95214285Y-72378571D01*
X95642857Y-72378571D02*
X95642857Y-70878571D01*
X95500000Y-71092857D01*
X95357142Y-71235714D01*
X95214285Y-71307142D01*
X97357142Y-71378571D02*
X97357142Y-72378571D01*
X97000000Y-70807142D02*
X96642857Y-71878571D01*
X97571428Y-71878571D01*
X98142857Y-72235714D02*
X98214285Y-72307142D01*
X98142857Y-72378571D01*
X98071428Y-72307142D01*
X98142857Y-72235714D01*
X98142857Y-72378571D01*
X99142857Y-70878571D02*
X99285714Y-70878571D01*
X99428571Y-70950000D01*
X99500000Y-71021428D01*
X99571428Y-71164285D01*
X99642857Y-71450000D01*
X99642857Y-71807142D01*
X99571428Y-72092857D01*
X99500000Y-72235714D01*
X99428571Y-72307142D01*
X99285714Y-72378571D01*
X99142857Y-72378571D01*
X99000000Y-72307142D01*
X98928571Y-72235714D01*
X98857142Y-72092857D01*
X98785714Y-71807142D01*
X98785714Y-71450000D01*
X98857142Y-71164285D01*
X98928571Y-71021428D01*
X99000000Y-70950000D01*
X99142857Y-70878571D01*
X101428571Y-72378571D02*
X101428571Y-71378571D01*
X101428571Y-71521428D02*
X101500000Y-71450000D01*
X101642857Y-71378571D01*
X101857142Y-71378571D01*
X102000000Y-71450000D01*
X102071428Y-71592857D01*
X102071428Y-72378571D01*
X102071428Y-71592857D02*
X102142857Y-71450000D01*
X102285714Y-71378571D01*
X102500000Y-71378571D01*
X102642857Y-71450000D01*
X102714285Y-71592857D01*
X102714285Y-72378571D01*
X103428571Y-72378571D02*
X103428571Y-71378571D01*
X103428571Y-71521428D02*
X103500000Y-71450000D01*
X103642857Y-71378571D01*
X103857142Y-71378571D01*
X104000000Y-71450000D01*
X104071428Y-71592857D01*
X104071428Y-72378571D01*
X104071428Y-71592857D02*
X104142857Y-71450000D01*
X104285714Y-71378571D01*
X104500000Y-71378571D01*
X104642857Y-71450000D01*
X104714285Y-71592857D01*
X104714285Y-72378571D01*
X107000000Y-76000000D02*
X107000000Y-72913580D01*
X93000000Y-76000000D02*
X93000000Y-72913580D01*
X107000000Y-73500000D02*
X93000000Y-73500000D01*
X107000000Y-73500000D02*
X93000000Y-73500000D01*
X107000000Y-73500000D02*
X105873496Y-72913579D01*
X107000000Y-73500000D02*
X105873496Y-74086421D01*
X93000000Y-73500000D02*
X94126504Y-74086421D01*
X93000000Y-73500000D02*
X94126504Y-72913579D01*
X69521428Y-102535714D02*
X69450000Y-102464285D01*
X69378571Y-102321428D01*
X69378571Y-101964285D01*
X69450000Y-101821428D01*
X69521428Y-101750000D01*
X69664285Y-101678571D01*
X69807142Y-101678571D01*
X70021428Y-101750000D01*
X70878571Y-102607142D01*
X70878571Y-101678571D01*
X69378571Y-101178571D02*
X69378571Y-100250000D01*
X69950000Y-100750000D01*
X69950000Y-100535714D01*
X70021428Y-100392857D01*
X70092857Y-100321428D01*
X70235714Y-100250000D01*
X70592857Y-100250000D01*
X70735714Y-100321428D01*
X70807142Y-100392857D01*
X70878571Y-100535714D01*
X70878571Y-100964285D01*
X70807142Y-101107142D01*
X70735714Y-101178571D01*
X70735714Y-99607142D02*
X70807142Y-99535714D01*
X70878571Y-99607142D01*
X70807142Y-99678571D01*
X70735714Y-99607142D01*
X70878571Y-99607142D01*
X69378571Y-98178571D02*
X69378571Y-98892857D01*
X70092857Y-98964285D01*
X70021428Y-98892857D01*
X69950000Y-98750000D01*
X69950000Y-98392857D01*
X70021428Y-98250000D01*
X70092857Y-98178571D01*
X70235714Y-98107142D01*
X70592857Y-98107142D01*
X70735714Y-98178571D01*
X70807142Y-98250000D01*
X70878571Y-98392857D01*
X70878571Y-98750000D01*
X70807142Y-98892857D01*
X70735714Y-98964285D01*
X70878571Y-96321428D02*
X69878571Y-96321428D01*
X70021428Y-96321428D02*
X69950000Y-96250000D01*
X69878571Y-96107142D01*
X69878571Y-95892857D01*
X69950000Y-95750000D01*
X70092857Y-95678571D01*
X70878571Y-95678571D01*
X70092857Y-95678571D02*
X69950000Y-95607142D01*
X69878571Y-95464285D01*
X69878571Y-95250000D01*
X69950000Y-95107142D01*
X70092857Y-95035714D01*
X70878571Y-95035714D01*
X70878571Y-94321428D02*
X69878571Y-94321428D01*
X70021428Y-94321428D02*
X69950000Y-94250000D01*
X69878571Y-94107142D01*
X69878571Y-93892857D01*
X69950000Y-93750000D01*
X70092857Y-93678571D01*
X70878571Y-93678571D01*
X70092857Y-93678571D02*
X69950000Y-93607142D01*
X69878571Y-93464285D01*
X69878571Y-93250000D01*
X69950000Y-93107142D01*
X70092857Y-93035714D01*
X70878571Y-93035714D01*
X80000000Y-109500000D02*
X71413580Y-109500000D01*
X80000000Y-86000000D02*
X71413580Y-86000000D01*
X72000000Y-109500000D02*
X72000000Y-86000000D01*
X72000000Y-109500000D02*
X72000000Y-86000000D01*
X72000000Y-109500000D02*
X72586421Y-108373496D01*
X72000000Y-109500000D02*
X71413579Y-108373496D01*
X72000000Y-86000000D02*
X71413579Y-87126504D01*
X72000000Y-86000000D02*
X72586421Y-87126504D01*
X155058571Y-122916071D02*
X155058571Y-123630357D01*
X155772857Y-123701785D01*
X155701428Y-123630357D01*
X155630000Y-123487500D01*
X155630000Y-123130357D01*
X155701428Y-122987500D01*
X155772857Y-122916071D01*
X155915714Y-122844642D01*
X156272857Y-122844642D01*
X156415714Y-122916071D01*
X156487142Y-122987500D01*
X156558571Y-123130357D01*
X156558571Y-123487500D01*
X156487142Y-123630357D01*
X156415714Y-123701785D01*
X156415714Y-122201785D02*
X156487142Y-122130357D01*
X156558571Y-122201785D01*
X156487142Y-122273214D01*
X156415714Y-122201785D01*
X156558571Y-122201785D01*
X155058571Y-121201785D02*
X155058571Y-121058928D01*
X155130000Y-120916071D01*
X155201428Y-120844642D01*
X155344285Y-120773214D01*
X155630000Y-120701785D01*
X155987142Y-120701785D01*
X156272857Y-120773214D01*
X156415714Y-120844642D01*
X156487142Y-120916071D01*
X156558571Y-121058928D01*
X156558571Y-121201785D01*
X156487142Y-121344642D01*
X156415714Y-121416071D01*
X156272857Y-121487500D01*
X155987142Y-121558928D01*
X155630000Y-121558928D01*
X155344285Y-121487500D01*
X155201428Y-121416071D01*
X155130000Y-121344642D01*
X155058571Y-121201785D01*
X155701428Y-119844642D02*
X155630000Y-119987500D01*
X155558571Y-120058928D01*
X155415714Y-120130357D01*
X155344285Y-120130357D01*
X155201428Y-120058928D01*
X155130000Y-119987500D01*
X155058571Y-119844642D01*
X155058571Y-119558928D01*
X155130000Y-119416071D01*
X155201428Y-119344642D01*
X155344285Y-119273214D01*
X155415714Y-119273214D01*
X155558571Y-119344642D01*
X155630000Y-119416071D01*
X155701428Y-119558928D01*
X155701428Y-119844642D01*
X155772857Y-119987500D01*
X155844285Y-120058928D01*
X155987142Y-120130357D01*
X156272857Y-120130357D01*
X156415714Y-120058928D01*
X156487142Y-119987500D01*
X156558571Y-119844642D01*
X156558571Y-119558928D01*
X156487142Y-119416071D01*
X156415714Y-119344642D01*
X156272857Y-119273214D01*
X155987142Y-119273214D01*
X155844285Y-119344642D01*
X155772857Y-119416071D01*
X155701428Y-119558928D01*
X99974400Y-124002800D02*
X153748420Y-124002800D01*
X99974400Y-118922800D02*
X153748420Y-118922800D01*
X153162000Y-124002800D02*
X153162000Y-118922800D01*
X153162000Y-124002800D02*
X153162000Y-118922800D01*
X153162000Y-124002800D02*
X153748421Y-122876296D01*
X153162000Y-124002800D02*
X152575579Y-122876296D01*
X153162000Y-118922800D02*
X152575579Y-120049304D01*
X153162000Y-118922800D02*
X153748421Y-120049304D01*
X73248571Y-83673214D02*
X73248571Y-83958928D01*
X73320000Y-84101785D01*
X73391428Y-84173214D01*
X73605714Y-84316071D01*
X73891428Y-84387500D01*
X74462857Y-84387500D01*
X74605714Y-84316071D01*
X74677142Y-84244642D01*
X74748571Y-84101785D01*
X74748571Y-83816071D01*
X74677142Y-83673214D01*
X74605714Y-83601785D01*
X74462857Y-83530357D01*
X74105714Y-83530357D01*
X73962857Y-83601785D01*
X73891428Y-83673214D01*
X73820000Y-83816071D01*
X73820000Y-84101785D01*
X73891428Y-84244642D01*
X73962857Y-84316071D01*
X74105714Y-84387500D01*
X74605714Y-82887500D02*
X74677142Y-82816071D01*
X74748571Y-82887500D01*
X74677142Y-82958928D01*
X74605714Y-82887500D01*
X74748571Y-82887500D01*
X73248571Y-81887500D02*
X73248571Y-81744642D01*
X73320000Y-81601785D01*
X73391428Y-81530357D01*
X73534285Y-81458928D01*
X73820000Y-81387500D01*
X74177142Y-81387500D01*
X74462857Y-81458928D01*
X74605714Y-81530357D01*
X74677142Y-81601785D01*
X74748571Y-81744642D01*
X74748571Y-81887500D01*
X74677142Y-82030357D01*
X74605714Y-82101785D01*
X74462857Y-82173214D01*
X74177142Y-82244642D01*
X73820000Y-82244642D01*
X73534285Y-82173214D01*
X73391428Y-82101785D01*
X73320000Y-82030357D01*
X73248571Y-81887500D01*
X85000000Y-86000000D02*
X71413580Y-86000000D01*
X85000000Y-80000000D02*
X71413580Y-80000000D01*
X72000000Y-86000000D02*
X72000000Y-80000000D01*
X72000000Y-86000000D02*
X72000000Y-80000000D01*
X72000000Y-86000000D02*
X72586421Y-84873496D01*
X72000000Y-86000000D02*
X71413579Y-84873496D01*
X72000000Y-80000000D02*
X71413579Y-81126504D01*
X72000000Y-80000000D02*
X72586421Y-81126504D01*
X95142857Y-64878571D02*
X96071428Y-64878571D01*
X95571428Y-65450000D01*
X95785714Y-65450000D01*
X95928571Y-65521428D01*
X96000000Y-65592857D01*
X96071428Y-65735714D01*
X96071428Y-66092857D01*
X96000000Y-66235714D01*
X95928571Y-66307142D01*
X95785714Y-66378571D01*
X95357142Y-66378571D01*
X95214285Y-66307142D01*
X95142857Y-66235714D01*
X97000000Y-64878571D02*
X97142857Y-64878571D01*
X97285714Y-64950000D01*
X97357142Y-65021428D01*
X97428571Y-65164285D01*
X97500000Y-65450000D01*
X97500000Y-65807142D01*
X97428571Y-66092857D01*
X97357142Y-66235714D01*
X97285714Y-66307142D01*
X97142857Y-66378571D01*
X97000000Y-66378571D01*
X96857142Y-66307142D01*
X96785714Y-66235714D01*
X96714285Y-66092857D01*
X96642857Y-65807142D01*
X96642857Y-65450000D01*
X96714285Y-65164285D01*
X96785714Y-65021428D01*
X96857142Y-64950000D01*
X97000000Y-64878571D01*
X98142857Y-66235714D02*
X98214285Y-66307142D01*
X98142857Y-66378571D01*
X98071428Y-66307142D01*
X98142857Y-66235714D01*
X98142857Y-66378571D01*
X99142857Y-64878571D02*
X99285714Y-64878571D01*
X99428571Y-64950000D01*
X99500000Y-65021428D01*
X99571428Y-65164285D01*
X99642857Y-65450000D01*
X99642857Y-65807142D01*
X99571428Y-66092857D01*
X99500000Y-66235714D01*
X99428571Y-66307142D01*
X99285714Y-66378571D01*
X99142857Y-66378571D01*
X99000000Y-66307142D01*
X98928571Y-66235714D01*
X98857142Y-66092857D01*
X98785714Y-65807142D01*
X98785714Y-65450000D01*
X98857142Y-65164285D01*
X98928571Y-65021428D01*
X99000000Y-64950000D01*
X99142857Y-64878571D01*
X101428571Y-66378571D02*
X101428571Y-65378571D01*
X101428571Y-65521428D02*
X101500000Y-65450000D01*
X101642857Y-65378571D01*
X101857142Y-65378571D01*
X102000000Y-65450000D01*
X102071428Y-65592857D01*
X102071428Y-66378571D01*
X102071428Y-65592857D02*
X102142857Y-65450000D01*
X102285714Y-65378571D01*
X102500000Y-65378571D01*
X102642857Y-65450000D01*
X102714285Y-65592857D01*
X102714285Y-66378571D01*
X103428571Y-66378571D02*
X103428571Y-65378571D01*
X103428571Y-65521428D02*
X103500000Y-65450000D01*
X103642857Y-65378571D01*
X103857142Y-65378571D01*
X104000000Y-65450000D01*
X104071428Y-65592857D01*
X104071428Y-66378571D01*
X104071428Y-65592857D02*
X104142857Y-65450000D01*
X104285714Y-65378571D01*
X104500000Y-65378571D01*
X104642857Y-65450000D01*
X104714285Y-65592857D01*
X104714285Y-66378571D01*
X115000000Y-80000000D02*
X115000000Y-66913580D01*
X85000000Y-80000000D02*
X85000000Y-66913580D01*
X115000000Y-67500000D02*
X85000000Y-67500000D01*
X115000000Y-67500000D02*
X85000000Y-67500000D01*
X115000000Y-67500000D02*
X113873496Y-66913579D01*
X115000000Y-67500000D02*
X113873496Y-68086421D01*
X85000000Y-67500000D02*
X86126504Y-68086421D01*
X85000000Y-67500000D02*
X86126504Y-66913579D01*
X111964285Y-126628571D02*
X111964285Y-127628571D01*
X111607142Y-126057142D02*
X111250000Y-127128571D01*
X112178571Y-127128571D01*
X112750000Y-127485714D02*
X112821428Y-127557142D01*
X112750000Y-127628571D01*
X112678571Y-127557142D01*
X112750000Y-127485714D01*
X112750000Y-127628571D01*
X114178571Y-126128571D02*
X113464285Y-126128571D01*
X113392857Y-126842857D01*
X113464285Y-126771428D01*
X113607142Y-126700000D01*
X113964285Y-126700000D01*
X114107142Y-126771428D01*
X114178571Y-126842857D01*
X114250000Y-126985714D01*
X114250000Y-127342857D01*
X114178571Y-127485714D01*
X114107142Y-127557142D01*
X113964285Y-127628571D01*
X113607142Y-127628571D01*
X113464285Y-127557142D01*
X113392857Y-127485714D01*
X115000000Y-105000000D02*
X115000000Y-129336420D01*
X110500000Y-105000000D02*
X110500000Y-129336420D01*
X115000000Y-128750000D02*
X110500000Y-128750000D01*
X115000000Y-128750000D02*
X110500000Y-128750000D01*
X115000000Y-128750000D02*
X113873496Y-128163579D01*
X115000000Y-128750000D02*
X113873496Y-129336421D01*
X110500000Y-128750000D02*
X111626504Y-129336421D01*
X110500000Y-128750000D02*
X111626504Y-128163579D01*
X57128571Y-104071428D02*
X58128571Y-104071428D01*
X56557142Y-104428571D02*
X57628571Y-104785714D01*
X57628571Y-103857142D01*
X57271428Y-103071428D02*
X57200000Y-103214285D01*
X57128571Y-103285714D01*
X56985714Y-103357142D01*
X56914285Y-103357142D01*
X56771428Y-103285714D01*
X56700000Y-103214285D01*
X56628571Y-103071428D01*
X56628571Y-102785714D01*
X56700000Y-102642857D01*
X56771428Y-102571428D01*
X56914285Y-102500000D01*
X56985714Y-102500000D01*
X57128571Y-102571428D01*
X57200000Y-102642857D01*
X57271428Y-102785714D01*
X57271428Y-103071428D01*
X57342857Y-103214285D01*
X57414285Y-103285714D01*
X57557142Y-103357142D01*
X57842857Y-103357142D01*
X57985714Y-103285714D01*
X58057142Y-103214285D01*
X58128571Y-103071428D01*
X58128571Y-102785714D01*
X58057142Y-102642857D01*
X57985714Y-102571428D01*
X57842857Y-102500000D01*
X57557142Y-102500000D01*
X57414285Y-102571428D01*
X57342857Y-102642857D01*
X57271428Y-102785714D01*
X57985714Y-101857142D02*
X58057142Y-101785714D01*
X58128571Y-101857142D01*
X58057142Y-101928571D01*
X57985714Y-101857142D01*
X58128571Y-101857142D01*
X56628571Y-100857142D02*
X56628571Y-100714285D01*
X56700000Y-100571428D01*
X56771428Y-100500000D01*
X56914285Y-100428571D01*
X57200000Y-100357142D01*
X57557142Y-100357142D01*
X57842857Y-100428571D01*
X57985714Y-100500000D01*
X58057142Y-100571428D01*
X58128571Y-100714285D01*
X58128571Y-100857142D01*
X58057142Y-101000000D01*
X57985714Y-101071428D01*
X57842857Y-101142857D01*
X57557142Y-101214285D01*
X57200000Y-101214285D01*
X56914285Y-101142857D01*
X56771428Y-101071428D01*
X56700000Y-101000000D01*
X56628571Y-100857142D01*
X58128571Y-98571428D02*
X57128571Y-98571428D01*
X57271428Y-98571428D02*
X57200000Y-98500000D01*
X57128571Y-98357142D01*
X57128571Y-98142857D01*
X57200000Y-98000000D01*
X57342857Y-97928571D01*
X58128571Y-97928571D01*
X57342857Y-97928571D02*
X57200000Y-97857142D01*
X57128571Y-97714285D01*
X57128571Y-97500000D01*
X57200000Y-97357142D01*
X57342857Y-97285714D01*
X58128571Y-97285714D01*
X58128571Y-96571428D02*
X57128571Y-96571428D01*
X57271428Y-96571428D02*
X57200000Y-96500000D01*
X57128571Y-96357142D01*
X57128571Y-96142857D01*
X57200000Y-96000000D01*
X57342857Y-95928571D01*
X58128571Y-95928571D01*
X57342857Y-95928571D02*
X57200000Y-95857142D01*
X57128571Y-95714285D01*
X57128571Y-95500000D01*
X57200000Y-95357142D01*
X57342857Y-95285714D01*
X58128571Y-95285714D01*
X93000000Y-124000000D02*
X58663580Y-124000000D01*
X93000000Y-76000000D02*
X58663580Y-76000000D01*
X59250000Y-124000000D02*
X59250000Y-76000000D01*
X59250000Y-124000000D02*
X59250000Y-76000000D01*
X59250000Y-124000000D02*
X59836421Y-122873496D01*
X59250000Y-124000000D02*
X58663579Y-122873496D01*
X59250000Y-76000000D02*
X58663579Y-77126504D01*
X59250000Y-76000000D02*
X59836421Y-77126504D01*
X81785714Y-70878571D02*
X81071428Y-70878571D01*
X81000000Y-71592857D01*
X81071428Y-71521428D01*
X81214285Y-71450000D01*
X81571428Y-71450000D01*
X81714285Y-71521428D01*
X81785714Y-71592857D01*
X81857142Y-71735714D01*
X81857142Y-72092857D01*
X81785714Y-72235714D01*
X81714285Y-72307142D01*
X81571428Y-72378571D01*
X81214285Y-72378571D01*
X81071428Y-72307142D01*
X81000000Y-72235714D01*
X82500000Y-72235714D02*
X82571428Y-72307142D01*
X82500000Y-72378571D01*
X82428571Y-72307142D01*
X82500000Y-72235714D01*
X82500000Y-72378571D01*
X83500000Y-70878571D02*
X83642857Y-70878571D01*
X83785714Y-70950000D01*
X83857142Y-71021428D01*
X83928571Y-71164285D01*
X84000000Y-71450000D01*
X84000000Y-71807142D01*
X83928571Y-72092857D01*
X83857142Y-72235714D01*
X83785714Y-72307142D01*
X83642857Y-72378571D01*
X83500000Y-72378571D01*
X83357142Y-72307142D01*
X83285714Y-72235714D01*
X83214285Y-72092857D01*
X83142857Y-71807142D01*
X83142857Y-71450000D01*
X83214285Y-71164285D01*
X83285714Y-71021428D01*
X83357142Y-70950000D01*
X83500000Y-70878571D01*
X80000000Y-86000000D02*
X80000000Y-72913580D01*
X85000000Y-86000000D02*
X85000000Y-72913580D01*
X80000000Y-73500000D02*
X85000000Y-73500000D01*
X80000000Y-73500000D02*
X85000000Y-73500000D01*
X80000000Y-73500000D02*
X81126504Y-74086421D01*
X80000000Y-73500000D02*
X81126504Y-72913579D01*
X85000000Y-73500000D02*
X83873496Y-72913579D01*
X85000000Y-73500000D02*
X83873496Y-74086421D01*
M02*
