G04 #@! TF.GenerationSoftware,KiCad,Pcbnew,5.0.0-fee4fd1~66~ubuntu16.04.1*
G04 #@! TF.CreationDate,2018-09-23T22:41:03+02:00*
G04 #@! TF.ProjectId,bus-module_atmega324,6275732D6D6F64756C655F61746D6567,B*
G04 #@! TF.SameCoordinates,Original*
G04 #@! TF.FileFunction,Soldermask,Top*
G04 #@! TF.FilePolarity,Negative*
%FSLAX46Y46*%
G04 Gerber Fmt 4.6, Leading zero omitted, Abs format (unit mm)*
G04 Created by KiCad (PCBNEW 5.0.0-fee4fd1~66~ubuntu16.04.1) date Sun Sep 23 22:41:03 2018*
%MOMM*%
%LPD*%
G01*
G04 APERTURE LIST*
%ADD10C,1.800000*%
%ADD11R,1.800000X1.800000*%
%ADD12R,0.508000X1.143000*%
%ADD13C,0.850000*%
%ADD14C,0.100000*%
%ADD15R,0.850000X0.850000*%
%ADD16R,0.850000X1.200000*%
%ADD17C,2.000000*%
%ADD18R,3.200400X1.780540*%
%ADD19C,1.600000*%
%ADD20R,1.600000X1.600000*%
%ADD21R,1.397000X0.889000*%
%ADD22R,0.889000X1.397000*%
%ADD23C,0.889000*%
%ADD24R,0.914400X0.914400*%
%ADD25R,4.500880X1.998980*%
%ADD26R,1.651000X1.651000*%
%ADD27C,1.600200*%
%ADD28C,1.524000*%
%ADD29C,3.500000*%
%ADD30C,0.550000*%
G04 APERTURE END LIST*
D10*
G04 #@! TO.C,J3*
X113290000Y-86262500D03*
X110750000Y-86262500D03*
X113290000Y-88802500D03*
X110750000Y-88802500D03*
X113290000Y-91342500D03*
D11*
X110750000Y-91342500D03*
G04 #@! TD*
D12*
G04 #@! TO.C,U3*
X103845000Y-108583000D03*
X105115000Y-108583000D03*
X106385000Y-108583000D03*
X103845000Y-113917000D03*
X105115000Y-113917000D03*
X106385000Y-113917000D03*
X107655000Y-108583000D03*
X107655000Y-113917000D03*
G04 #@! TD*
D13*
G04 #@! TO.C,D2*
X82540000Y-98307500D03*
D14*
G36*
X82965000Y-98732500D02*
X82115000Y-98732500D01*
X82115000Y-97882500D01*
X82965000Y-97882500D01*
X82965000Y-98732500D01*
X82965000Y-98732500D01*
G37*
D15*
X82540000Y-96407500D03*
X84440000Y-96407500D03*
D16*
X84440000Y-98127120D03*
G04 #@! TD*
D17*
G04 #@! TO.C,J8*
X87170000Y-89352500D03*
G04 #@! TD*
G04 #@! TO.C,J7*
X87170000Y-95152500D03*
G04 #@! TD*
G04 #@! TO.C,J6*
X87170000Y-100952500D03*
G04 #@! TD*
G04 #@! TO.C,J5*
X87170000Y-106652500D03*
G04 #@! TD*
D18*
G04 #@! TO.C,F1*
X83109000Y-106831700D03*
X83109000Y-101827900D03*
G04 #@! TD*
D19*
G04 #@! TO.C,U6*
X100762000Y-109803500D03*
X98222000Y-109803500D03*
X95682000Y-109803500D03*
D20*
X93142000Y-109803500D03*
G04 #@! TD*
D21*
G04 #@! TO.C,R6*
X106350000Y-88150000D03*
X106350000Y-86245000D03*
G04 #@! TD*
D22*
G04 #@! TO.C,R1*
X110547500Y-109041500D03*
X112452500Y-109041500D03*
G04 #@! TD*
G04 #@! TO.C,R5*
X110547500Y-111327500D03*
X112452500Y-111327500D03*
G04 #@! TD*
G04 #@! TO.C,L1*
X92062500Y-104342500D03*
X90157500Y-104342500D03*
G04 #@! TD*
D23*
G04 #@! TO.C,R4*
X109055519Y-95413981D03*
D14*
G36*
X109235124Y-96222204D02*
X108247296Y-95234376D01*
X108875914Y-94605758D01*
X109863742Y-95593586D01*
X109235124Y-96222204D01*
X109235124Y-96222204D01*
G37*
D23*
X107708481Y-96761019D03*
D14*
G36*
X107888086Y-97569242D02*
X106900258Y-96581414D01*
X107528876Y-95952796D01*
X108516704Y-96940624D01*
X107888086Y-97569242D01*
X107888086Y-97569242D01*
G37*
G04 #@! TD*
D23*
G04 #@! TO.C,R2*
X110579519Y-96937981D03*
D14*
G36*
X110759124Y-97746204D02*
X109771296Y-96758376D01*
X110399914Y-96129758D01*
X111387742Y-97117586D01*
X110759124Y-97746204D01*
X110759124Y-97746204D01*
G37*
D23*
X109232481Y-98285019D03*
D14*
G36*
X109412086Y-99093242D02*
X108424258Y-98105414D01*
X109052876Y-97476796D01*
X110040704Y-98464624D01*
X109412086Y-99093242D01*
X109412086Y-99093242D01*
G37*
G04 #@! TD*
D23*
G04 #@! TO.C,R3*
X112103519Y-98461981D03*
D14*
G36*
X112283124Y-99270204D02*
X111295296Y-98282376D01*
X111923914Y-97653758D01*
X112911742Y-98641586D01*
X112283124Y-99270204D01*
X112283124Y-99270204D01*
G37*
D23*
X110756481Y-99809019D03*
D14*
G36*
X110936086Y-100617242D02*
X109948258Y-99629414D01*
X110576876Y-99000796D01*
X111564704Y-99988624D01*
X110936086Y-100617242D01*
X110936086Y-100617242D01*
G37*
G04 #@! TD*
D23*
G04 #@! TO.C,C3*
X106184481Y-95237019D03*
D14*
G36*
X106004876Y-94428796D02*
X106992704Y-95416624D01*
X106364086Y-96045242D01*
X105376258Y-95057414D01*
X106004876Y-94428796D01*
X106004876Y-94428796D01*
G37*
D23*
X107531519Y-93889981D03*
D14*
G36*
X107351914Y-93081758D02*
X108339742Y-94069586D01*
X107711124Y-94698204D01*
X106723296Y-93710376D01*
X107351914Y-93081758D01*
X107351914Y-93081758D01*
G37*
G04 #@! TD*
D23*
G04 #@! TO.C,C4*
X92976481Y-95491019D03*
D14*
G36*
X92796876Y-94682796D02*
X93784704Y-95670624D01*
X93156086Y-96299242D01*
X92168258Y-95311414D01*
X92796876Y-94682796D01*
X92796876Y-94682796D01*
G37*
D23*
X94323519Y-94143981D03*
D14*
G36*
X94143914Y-93335758D02*
X95131742Y-94323586D01*
X94503124Y-94952204D01*
X93515296Y-93964376D01*
X94143914Y-93335758D01*
X94143914Y-93335758D01*
G37*
G04 #@! TD*
D22*
G04 #@! TO.C,C5*
X106352500Y-106800000D03*
X104447500Y-106800000D03*
G04 #@! TD*
G04 #@! TO.C,C6*
X112452500Y-113613500D03*
X110547500Y-113613500D03*
G04 #@! TD*
G04 #@! TO.C,C7*
X92062500Y-106247500D03*
X90157500Y-106247500D03*
G04 #@! TD*
D24*
G04 #@! TO.C,D1*
X106250000Y-91929520D03*
X106250000Y-89577480D03*
G04 #@! TD*
D21*
G04 #@! TO.C,C8*
X108250000Y-86245000D03*
X108250000Y-88150000D03*
G04 #@! TD*
D25*
G04 #@! TO.C,U2*
X93845580Y-89737500D03*
X102344420Y-89737500D03*
G04 #@! TD*
D22*
G04 #@! TO.C,C2*
X93650000Y-85927500D03*
X95555000Y-85927500D03*
G04 #@! TD*
G04 #@! TO.C,C1*
X102222500Y-85927500D03*
X100317500Y-85927500D03*
G04 #@! TD*
D26*
G04 #@! TO.C,J1*
X88570000Y-83387500D03*
D27*
X88570000Y-80847500D03*
X91110000Y-83387500D03*
X91110000Y-80847500D03*
X93650000Y-83387500D03*
X93650000Y-80847500D03*
X96190000Y-83387500D03*
X96190000Y-80847500D03*
X98730000Y-83387500D03*
X98730000Y-80847500D03*
X101270000Y-83387500D03*
X101270000Y-80847500D03*
D28*
X103810000Y-83387500D03*
X103810000Y-80847500D03*
X106350000Y-83387500D03*
X106350000Y-80847500D03*
X108890000Y-83387500D03*
X108890000Y-80847500D03*
X111430000Y-83387500D03*
X111430000Y-80847500D03*
G04 #@! TD*
D26*
G04 #@! TO.C,J2*
X88570000Y-118947500D03*
D27*
X88570000Y-116407500D03*
X91110000Y-118947500D03*
X91110000Y-116407500D03*
X93650000Y-118947500D03*
X93650000Y-116407500D03*
X96190000Y-118947500D03*
X96190000Y-116407500D03*
X98730000Y-118947500D03*
X98730000Y-116407500D03*
X101270000Y-118947500D03*
X101270000Y-116407500D03*
D28*
X103810000Y-118947500D03*
X103810000Y-116407500D03*
X106350000Y-118947500D03*
X106350000Y-116407500D03*
X108890000Y-118947500D03*
X108890000Y-116407500D03*
X111430000Y-118947500D03*
X111430000Y-116407500D03*
G04 #@! TD*
D29*
G04 #@! TO.C,H1*
X110500000Y-105000000D03*
G04 #@! TD*
D30*
G04 #@! TO.C,U1*
X106358936Y-99547918D03*
D14*
G36*
X106694812Y-98823134D02*
X107083720Y-99212042D01*
X106023060Y-100272702D01*
X105634152Y-99883794D01*
X106694812Y-98823134D01*
X106694812Y-98823134D01*
G37*
D30*
X105793250Y-98982233D03*
D14*
G36*
X106129126Y-98257449D02*
X106518034Y-98646357D01*
X105457374Y-99707017D01*
X105068466Y-99318109D01*
X106129126Y-98257449D01*
X106129126Y-98257449D01*
G37*
D30*
X105227565Y-98416548D03*
D14*
G36*
X105563441Y-97691764D02*
X105952349Y-98080672D01*
X104891689Y-99141332D01*
X104502781Y-98752424D01*
X105563441Y-97691764D01*
X105563441Y-97691764D01*
G37*
D30*
X104661880Y-97850862D03*
D14*
G36*
X104997756Y-97126078D02*
X105386664Y-97514986D01*
X104326004Y-98575646D01*
X103937096Y-98186738D01*
X104997756Y-97126078D01*
X104997756Y-97126078D01*
G37*
D30*
X104096194Y-97285177D03*
D14*
G36*
X104432070Y-96560393D02*
X104820978Y-96949301D01*
X103760318Y-98009961D01*
X103371410Y-97621053D01*
X104432070Y-96560393D01*
X104432070Y-96560393D01*
G37*
D30*
X103530509Y-96719491D03*
D14*
G36*
X103866385Y-95994707D02*
X104255293Y-96383615D01*
X103194633Y-97444275D01*
X102805725Y-97055367D01*
X103866385Y-95994707D01*
X103866385Y-95994707D01*
G37*
D30*
X102964823Y-96153806D03*
D14*
G36*
X103300699Y-95429022D02*
X103689607Y-95817930D01*
X102628947Y-96878590D01*
X102240039Y-96489682D01*
X103300699Y-95429022D01*
X103300699Y-95429022D01*
G37*
D30*
X102399138Y-95588120D03*
D14*
G36*
X102735014Y-94863336D02*
X103123922Y-95252244D01*
X102063262Y-96312904D01*
X101674354Y-95923996D01*
X102735014Y-94863336D01*
X102735014Y-94863336D01*
G37*
D30*
X101833452Y-95022435D03*
D14*
G36*
X102169328Y-94297651D02*
X102558236Y-94686559D01*
X101497576Y-95747219D01*
X101108668Y-95358311D01*
X102169328Y-94297651D01*
X102169328Y-94297651D01*
G37*
D30*
X101267767Y-94456750D03*
D14*
G36*
X101603643Y-93731966D02*
X101992551Y-94120874D01*
X100931891Y-95181534D01*
X100542983Y-94792626D01*
X101603643Y-93731966D01*
X101603643Y-93731966D01*
G37*
D30*
X100702082Y-93891064D03*
D14*
G36*
X101037958Y-93166280D02*
X101426866Y-93555188D01*
X100366206Y-94615848D01*
X99977298Y-94226940D01*
X101037958Y-93166280D01*
X101037958Y-93166280D01*
G37*
D30*
X98297918Y-93891064D03*
D14*
G36*
X97573134Y-93555188D02*
X97962042Y-93166280D01*
X99022702Y-94226940D01*
X98633794Y-94615848D01*
X97573134Y-93555188D01*
X97573134Y-93555188D01*
G37*
D30*
X97732233Y-94456750D03*
D14*
G36*
X97007449Y-94120874D02*
X97396357Y-93731966D01*
X98457017Y-94792626D01*
X98068109Y-95181534D01*
X97007449Y-94120874D01*
X97007449Y-94120874D01*
G37*
D30*
X97166548Y-95022435D03*
D14*
G36*
X96441764Y-94686559D02*
X96830672Y-94297651D01*
X97891332Y-95358311D01*
X97502424Y-95747219D01*
X96441764Y-94686559D01*
X96441764Y-94686559D01*
G37*
D30*
X96600862Y-95588120D03*
D14*
G36*
X95876078Y-95252244D02*
X96264986Y-94863336D01*
X97325646Y-95923996D01*
X96936738Y-96312904D01*
X95876078Y-95252244D01*
X95876078Y-95252244D01*
G37*
D30*
X96035177Y-96153806D03*
D14*
G36*
X95310393Y-95817930D02*
X95699301Y-95429022D01*
X96759961Y-96489682D01*
X96371053Y-96878590D01*
X95310393Y-95817930D01*
X95310393Y-95817930D01*
G37*
D30*
X95469491Y-96719491D03*
D14*
G36*
X94744707Y-96383615D02*
X95133615Y-95994707D01*
X96194275Y-97055367D01*
X95805367Y-97444275D01*
X94744707Y-96383615D01*
X94744707Y-96383615D01*
G37*
D30*
X94903806Y-97285177D03*
D14*
G36*
X94179022Y-96949301D02*
X94567930Y-96560393D01*
X95628590Y-97621053D01*
X95239682Y-98009961D01*
X94179022Y-96949301D01*
X94179022Y-96949301D01*
G37*
D30*
X94338120Y-97850862D03*
D14*
G36*
X93613336Y-97514986D02*
X94002244Y-97126078D01*
X95062904Y-98186738D01*
X94673996Y-98575646D01*
X93613336Y-97514986D01*
X93613336Y-97514986D01*
G37*
D30*
X93772435Y-98416548D03*
D14*
G36*
X93047651Y-98080672D02*
X93436559Y-97691764D01*
X94497219Y-98752424D01*
X94108311Y-99141332D01*
X93047651Y-98080672D01*
X93047651Y-98080672D01*
G37*
D30*
X93206750Y-98982233D03*
D14*
G36*
X92481966Y-98646357D02*
X92870874Y-98257449D01*
X93931534Y-99318109D01*
X93542626Y-99707017D01*
X92481966Y-98646357D01*
X92481966Y-98646357D01*
G37*
D30*
X92641064Y-99547918D03*
D14*
G36*
X91916280Y-99212042D02*
X92305188Y-98823134D01*
X93365848Y-99883794D01*
X92976940Y-100272702D01*
X91916280Y-99212042D01*
X91916280Y-99212042D01*
G37*
D30*
X92641064Y-101952082D03*
D14*
G36*
X92976940Y-101227298D02*
X93365848Y-101616206D01*
X92305188Y-102676866D01*
X91916280Y-102287958D01*
X92976940Y-101227298D01*
X92976940Y-101227298D01*
G37*
D30*
X93206750Y-102517767D03*
D14*
G36*
X93542626Y-101792983D02*
X93931534Y-102181891D01*
X92870874Y-103242551D01*
X92481966Y-102853643D01*
X93542626Y-101792983D01*
X93542626Y-101792983D01*
G37*
D30*
X93772435Y-103083452D03*
D14*
G36*
X94108311Y-102358668D02*
X94497219Y-102747576D01*
X93436559Y-103808236D01*
X93047651Y-103419328D01*
X94108311Y-102358668D01*
X94108311Y-102358668D01*
G37*
D30*
X94338120Y-103649138D03*
D14*
G36*
X94673996Y-102924354D02*
X95062904Y-103313262D01*
X94002244Y-104373922D01*
X93613336Y-103985014D01*
X94673996Y-102924354D01*
X94673996Y-102924354D01*
G37*
D30*
X94903806Y-104214823D03*
D14*
G36*
X95239682Y-103490039D02*
X95628590Y-103878947D01*
X94567930Y-104939607D01*
X94179022Y-104550699D01*
X95239682Y-103490039D01*
X95239682Y-103490039D01*
G37*
D30*
X95469491Y-104780509D03*
D14*
G36*
X95805367Y-104055725D02*
X96194275Y-104444633D01*
X95133615Y-105505293D01*
X94744707Y-105116385D01*
X95805367Y-104055725D01*
X95805367Y-104055725D01*
G37*
D30*
X96035177Y-105346194D03*
D14*
G36*
X96371053Y-104621410D02*
X96759961Y-105010318D01*
X95699301Y-106070978D01*
X95310393Y-105682070D01*
X96371053Y-104621410D01*
X96371053Y-104621410D01*
G37*
D30*
X96600862Y-105911880D03*
D14*
G36*
X96936738Y-105187096D02*
X97325646Y-105576004D01*
X96264986Y-106636664D01*
X95876078Y-106247756D01*
X96936738Y-105187096D01*
X96936738Y-105187096D01*
G37*
D30*
X97166548Y-106477565D03*
D14*
G36*
X97502424Y-105752781D02*
X97891332Y-106141689D01*
X96830672Y-107202349D01*
X96441764Y-106813441D01*
X97502424Y-105752781D01*
X97502424Y-105752781D01*
G37*
D30*
X97732233Y-107043250D03*
D14*
G36*
X98068109Y-106318466D02*
X98457017Y-106707374D01*
X97396357Y-107768034D01*
X97007449Y-107379126D01*
X98068109Y-106318466D01*
X98068109Y-106318466D01*
G37*
D30*
X98297918Y-107608936D03*
D14*
G36*
X98633794Y-106884152D02*
X99022702Y-107273060D01*
X97962042Y-108333720D01*
X97573134Y-107944812D01*
X98633794Y-106884152D01*
X98633794Y-106884152D01*
G37*
D30*
X100702082Y-107608936D03*
D14*
G36*
X99977298Y-107273060D02*
X100366206Y-106884152D01*
X101426866Y-107944812D01*
X101037958Y-108333720D01*
X99977298Y-107273060D01*
X99977298Y-107273060D01*
G37*
D30*
X101267767Y-107043250D03*
D14*
G36*
X100542983Y-106707374D02*
X100931891Y-106318466D01*
X101992551Y-107379126D01*
X101603643Y-107768034D01*
X100542983Y-106707374D01*
X100542983Y-106707374D01*
G37*
D30*
X101833452Y-106477565D03*
D14*
G36*
X101108668Y-106141689D02*
X101497576Y-105752781D01*
X102558236Y-106813441D01*
X102169328Y-107202349D01*
X101108668Y-106141689D01*
X101108668Y-106141689D01*
G37*
D30*
X102399138Y-105911880D03*
D14*
G36*
X101674354Y-105576004D02*
X102063262Y-105187096D01*
X103123922Y-106247756D01*
X102735014Y-106636664D01*
X101674354Y-105576004D01*
X101674354Y-105576004D01*
G37*
D30*
X102964823Y-105346194D03*
D14*
G36*
X102240039Y-105010318D02*
X102628947Y-104621410D01*
X103689607Y-105682070D01*
X103300699Y-106070978D01*
X102240039Y-105010318D01*
X102240039Y-105010318D01*
G37*
D30*
X103530509Y-104780509D03*
D14*
G36*
X102805725Y-104444633D02*
X103194633Y-104055725D01*
X104255293Y-105116385D01*
X103866385Y-105505293D01*
X102805725Y-104444633D01*
X102805725Y-104444633D01*
G37*
D30*
X104096194Y-104214823D03*
D14*
G36*
X103371410Y-103878947D02*
X103760318Y-103490039D01*
X104820978Y-104550699D01*
X104432070Y-104939607D01*
X103371410Y-103878947D01*
X103371410Y-103878947D01*
G37*
D30*
X104661880Y-103649138D03*
D14*
G36*
X103937096Y-103313262D02*
X104326004Y-102924354D01*
X105386664Y-103985014D01*
X104997756Y-104373922D01*
X103937096Y-103313262D01*
X103937096Y-103313262D01*
G37*
D30*
X105227565Y-103083452D03*
D14*
G36*
X104502781Y-102747576D02*
X104891689Y-102358668D01*
X105952349Y-103419328D01*
X105563441Y-103808236D01*
X104502781Y-102747576D01*
X104502781Y-102747576D01*
G37*
D30*
X105793250Y-102517767D03*
D14*
G36*
X105068466Y-102181891D02*
X105457374Y-101792983D01*
X106518034Y-102853643D01*
X106129126Y-103242551D01*
X105068466Y-102181891D01*
X105068466Y-102181891D01*
G37*
D30*
X106358936Y-101952082D03*
D14*
G36*
X105634152Y-101616206D02*
X106023060Y-101227298D01*
X107083720Y-102287958D01*
X106694812Y-102676866D01*
X105634152Y-101616206D01*
X105634152Y-101616206D01*
G37*
G04 #@! TD*
M02*
