M48
METRIC,TZ
T1C0.300
T2C0.400
T3C0.700
T4C0.900
T5C1.000
T6C1.016
T7C2.500
%
G90
G05
T1
X89713Y-110185
X90136Y-94448
X90475Y-107772
X90592Y-95210
X90919Y-96184
X91757Y-97853
X94340Y-100058
X95091Y-99692
X95876Y-99534
X95987Y-92981
X96641Y-99175
X96858Y-92817
X97677Y-92530
X98455Y-92342
X99500Y-103750
X100000Y-106250
X101250Y-102500
X101400Y-91737
X105767Y-105449
X106604Y-105232
X106858Y-104469
X107112Y-103708
X110018Y-94561
X111350Y-95859
X113012Y-97447
X113442Y-107608
T2
X85395Y-104089
X86030Y-98120
X88062Y-113360
X89000Y-92400
X91500Y-101750
X94000Y-106200
X98478Y-96409
X99238Y-87452
X101264Y-113328
X102600Y-103800
X104500Y-95750
X104578Y-109750
X108128Y-112343
X109144Y-112343
T3
X93142Y-109804
X95682Y-109804
X98222Y-109804
X100762Y-109804
T4
X110750Y-86263
X110750Y-88803
X110750Y-91343
X113290Y-86263
X113290Y-88803
X113290Y-91343
T5
X87170Y-100953
X87170Y-95152
X87170Y-106652
X87170Y-89352
T6
X88570Y-116408
X88570Y-118948
X91110Y-116408
X91110Y-118948
X93650Y-116408
X93650Y-118948
X96190Y-116408
X96190Y-118948
X98730Y-116408
X98730Y-118948
X101270Y-116408
X101270Y-118948
X103810Y-116408
X103810Y-118948
X106350Y-116408
X106350Y-118948
X108890Y-116408
X108890Y-118948
X111430Y-116408
X111430Y-118948
X88570Y-80847
X88570Y-83388
X91110Y-80847
X91110Y-83388
X93650Y-80847
X93650Y-83388
X96190Y-80847
X96190Y-83388
X98730Y-80847
X98730Y-83388
X101270Y-80847
X101270Y-83388
X103810Y-80847
X103810Y-83388
X106350Y-80847
X106350Y-83388
X108890Y-80847
X108890Y-83388
X111430Y-80847
X111430Y-83388
T7
X110500Y-105000
T0
M30
