M48
; DRILL file {KiCad 6.0.11-2627ca5db0~126~ubuntu22.04.1} date Mi 06 Dez 2023 10:34:03 CET
; FORMAT={-:-/ absolute / metric / decimal}
; #@! TF.CreationDate,2023-12-06T10:34:03+01:00
; #@! TF.GenerationSoftware,Kicad,Pcbnew,6.0.11-2627ca5db0~126~ubuntu22.04.1
; #@! TF.FileFunction,Plated,1,2,PTH
FMAT,2
METRIC
; #@! TA.AperFunction,Plated,PTH,ViaDrill
T1C0.300
; #@! TA.AperFunction,Plated,PTH,ViaDrill
T2C0.400
; #@! TA.AperFunction,Plated,PTH,ComponentDrill
T3C0.700
; #@! TA.AperFunction,Plated,PTH,ComponentDrill
T4C0.900
; #@! TA.AperFunction,Plated,PTH,ComponentDrill
T5C1.016
; #@! TA.AperFunction,Plated,PTH,ComponentDrill
T6C1.100
; #@! TA.AperFunction,Plated,PTH,ComponentDrill
T7C2.500
%
G90
G05
T1
X89.713Y-110.184
X90.136Y-94.448
X90.475Y-107.771
X90.592Y-95.21
X90.919Y-96.184
X91.757Y-97.853
X94.34Y-100.058
X95.091Y-99.692
X95.876Y-99.534
X95.987Y-92.981
X96.641Y-99.175
X96.858Y-92.817
X97.677Y-92.53
X98.455Y-92.342
X99.489Y-103.751
X100.139Y-105.231
X101.25Y-101.929
X101.4Y-91.737
X105.767Y-105.449
X106.604Y-105.231
X106.858Y-104.469
X107.112Y-103.707
X110.018Y-94.561
X111.35Y-95.859
X113.012Y-97.447
X113.442Y-107.608
T2
X85.395Y-104.088
X86.03Y-98.12
X88.824Y-112.089
X89.0Y-92.4
X91.5Y-101.75
X94.0Y-106.2
X98.478Y-96.409
X98.984Y-112.597
X99.238Y-87.451
X100.889Y-103.2
X104.417Y-110.566
X104.5Y-95.75
T3
X93.142Y-109.803
X95.682Y-109.803
X98.222Y-109.803
X100.762Y-109.803
T4
X110.75Y-86.263
X110.75Y-88.802
X110.75Y-91.343
X113.29Y-86.263
X113.29Y-88.802
X113.29Y-91.343
T5
X88.57Y-80.847
X88.57Y-83.388
X88.57Y-116.407
X88.57Y-118.947
X91.11Y-80.847
X91.11Y-83.388
X91.11Y-116.407
X91.11Y-118.947
X93.65Y-80.847
X93.65Y-83.388
X93.65Y-116.407
X93.65Y-118.947
X96.19Y-80.847
X96.19Y-83.388
X96.19Y-116.407
X96.19Y-118.947
X98.73Y-80.847
X98.73Y-83.388
X98.73Y-116.407
X98.73Y-118.947
X101.27Y-80.847
X101.27Y-83.388
X101.27Y-116.407
X101.27Y-118.947
X103.81Y-80.847
X103.81Y-83.388
X103.81Y-116.407
X103.81Y-118.947
X106.35Y-80.847
X106.35Y-83.388
X106.35Y-116.407
X106.35Y-118.947
X108.89Y-80.847
X108.89Y-83.388
X108.89Y-116.407
X108.89Y-118.947
X111.43Y-80.847
X111.43Y-83.388
X111.43Y-116.407
X111.43Y-118.947
T6
X87.17Y-89.352
X87.17Y-95.152
X87.17Y-100.953
X87.17Y-106.652
T7
X110.5Y-105.0
T0
M30
