G04 #@! TF.GenerationSoftware,KiCad,Pcbnew,5.0.0-fee4fd1~66~ubuntu16.04.1*
G04 #@! TF.CreationDate,2018-09-23T22:41:03+02:00*
G04 #@! TF.ProjectId,bus-module_atmega324,6275732D6D6F64756C655F61746D6567,B*
G04 #@! TF.SameCoordinates,Original*
G04 #@! TF.FileFunction,Legend,Top*
G04 #@! TF.FilePolarity,Positive*
%FSLAX46Y46*%
G04 Gerber Fmt 4.6, Leading zero omitted, Abs format (unit mm)*
G04 Created by KiCad (PCBNEW 5.0.0-fee4fd1~66~ubuntu16.04.1) date Sun Sep 23 22:41:03 2018*
%MOMM*%
%LPD*%
G01*
G04 APERTURE LIST*
%ADD10C,0.150000*%
%ADD11C,0.254000*%
G04 APERTURE END LIST*
D10*
G04 #@! TO.C,U3*
X103083000Y-113155000D02*
X103083000Y-109345000D01*
X107909000Y-110742000D02*
X108417000Y-110742000D01*
X107909000Y-111758000D02*
X107909000Y-110742000D01*
X108417000Y-111758000D02*
X107909000Y-111758000D01*
X108417000Y-113155000D02*
X108417000Y-109472000D01*
X103083000Y-113155000D02*
X108417000Y-113155000D01*
X108417000Y-109345000D02*
X103083000Y-109345000D01*
X108417000Y-109472000D02*
X108417000Y-109345000D01*
G04 #@! TO.C,D2*
X82840000Y-98857500D02*
X84140000Y-98857500D01*
X82840000Y-95857500D02*
X84140000Y-95857500D01*
G04 #@! TO.C,F1*
X84861600Y-107873100D02*
X84861600Y-105790300D01*
X81381800Y-107873100D02*
X84861600Y-107873100D01*
X81381800Y-105790300D02*
X81381800Y-107873100D01*
X84861600Y-100786500D02*
X84861600Y-102869300D01*
X81381800Y-100786500D02*
X84861600Y-100786500D01*
X81381800Y-102869300D02*
X81381800Y-100786500D01*
G04 #@! TO.C,R6*
X105588000Y-88721500D02*
X105588000Y-87705500D01*
X107112000Y-88721500D02*
X105588000Y-88721500D01*
X107112000Y-87705500D02*
X107112000Y-88721500D01*
X107112000Y-85673500D02*
X107112000Y-86689500D01*
X105588000Y-85673500D02*
X107112000Y-85673500D01*
X105588000Y-86689500D02*
X105588000Y-85673500D01*
G04 #@! TO.C,R1*
X109976000Y-108279500D02*
X110992000Y-108279500D01*
X109976000Y-109803500D02*
X109976000Y-108279500D01*
X110992000Y-109803500D02*
X109976000Y-109803500D01*
X113024000Y-109803500D02*
X112008000Y-109803500D01*
X113024000Y-108279500D02*
X113024000Y-109803500D01*
X112008000Y-108279500D02*
X113024000Y-108279500D01*
G04 #@! TO.C,R5*
X109976000Y-110565500D02*
X110992000Y-110565500D01*
X109976000Y-112089500D02*
X109976000Y-110565500D01*
X110992000Y-112089500D02*
X109976000Y-112089500D01*
X113024000Y-112089500D02*
X112008000Y-112089500D01*
X113024000Y-110565500D02*
X113024000Y-112089500D01*
X112008000Y-110565500D02*
X113024000Y-110565500D01*
G04 #@! TO.C,L1*
X92634000Y-105104500D02*
X91618000Y-105104500D01*
X92634000Y-103580500D02*
X92634000Y-105104500D01*
X91618000Y-103580500D02*
X92634000Y-103580500D01*
X89586000Y-103580500D02*
X90602000Y-103580500D01*
X89586000Y-105104500D02*
X89586000Y-103580500D01*
X90602000Y-105104500D02*
X89586000Y-105104500D01*
G04 #@! TO.C,R4*
X109998446Y-95548685D02*
X109280026Y-96267105D01*
X108920815Y-94471054D02*
X109998446Y-95548685D01*
X108202395Y-95189474D02*
X108920815Y-94471054D01*
X106765554Y-96626315D02*
X107483974Y-95907895D01*
X107843185Y-97703946D02*
X106765554Y-96626315D01*
X108561605Y-96985526D02*
X107843185Y-97703946D01*
G04 #@! TO.C,R2*
X111522446Y-97072685D02*
X110804026Y-97791105D01*
X110444815Y-95995054D02*
X111522446Y-97072685D01*
X109726395Y-96713474D02*
X110444815Y-95995054D01*
X108289554Y-98150315D02*
X109007974Y-97431895D01*
X109367185Y-99227946D02*
X108289554Y-98150315D01*
X110085605Y-98509526D02*
X109367185Y-99227946D01*
G04 #@! TO.C,R3*
X113046446Y-98596685D02*
X112328026Y-99315105D01*
X111968815Y-97519054D02*
X113046446Y-98596685D01*
X111250395Y-98237474D02*
X111968815Y-97519054D01*
X109813554Y-99674315D02*
X110531974Y-98955895D01*
X110891185Y-100751946D02*
X109813554Y-99674315D01*
X111609605Y-100033526D02*
X110891185Y-100751946D01*
G04 #@! TO.C,C3*
X105241554Y-95102315D02*
X105959974Y-94383895D01*
X106319185Y-96179946D02*
X105241554Y-95102315D01*
X107037605Y-95461526D02*
X106319185Y-96179946D01*
X108474446Y-94024685D02*
X107756026Y-94743105D01*
X107396815Y-92947054D02*
X108474446Y-94024685D01*
X106678395Y-93665474D02*
X107396815Y-92947054D01*
G04 #@! TO.C,C4*
X92033554Y-95356315D02*
X92751974Y-94637895D01*
X93111185Y-96433946D02*
X92033554Y-95356315D01*
X93829605Y-95715526D02*
X93111185Y-96433946D01*
X95266446Y-94278685D02*
X94548026Y-94997105D01*
X94188815Y-93201054D02*
X95266446Y-94278685D01*
X93470395Y-93919474D02*
X94188815Y-93201054D01*
G04 #@! TO.C,C5*
X106924000Y-107562000D02*
X105908000Y-107562000D01*
X106924000Y-106038000D02*
X106924000Y-107562000D01*
X105908000Y-106038000D02*
X106924000Y-106038000D01*
X103876000Y-106038000D02*
X104892000Y-106038000D01*
X103876000Y-107562000D02*
X103876000Y-106038000D01*
X104892000Y-107562000D02*
X103876000Y-107562000D01*
G04 #@! TO.C,C6*
X113024000Y-114375500D02*
X112008000Y-114375500D01*
X113024000Y-112851500D02*
X113024000Y-114375500D01*
X112008000Y-112851500D02*
X113024000Y-112851500D01*
X109976000Y-112851500D02*
X110992000Y-112851500D01*
X109976000Y-114375500D02*
X109976000Y-112851500D01*
X110992000Y-114375500D02*
X109976000Y-114375500D01*
G04 #@! TO.C,C7*
X92634000Y-107009500D02*
X91618000Y-107009500D01*
X92634000Y-105485500D02*
X92634000Y-107009500D01*
X91618000Y-105485500D02*
X92634000Y-105485500D01*
X89586000Y-105485500D02*
X90602000Y-105485500D01*
X89586000Y-107009500D02*
X89586000Y-105485500D01*
X90602000Y-107009500D02*
X89586000Y-107009500D01*
G04 #@! TO.C,D1*
X105574360Y-91652660D02*
X105574360Y-89854340D01*
X106925640Y-89854340D02*
X106925640Y-91652660D01*
X106925640Y-91104020D02*
X105574360Y-91104020D01*
G04 #@! TO.C,C8*
X109012000Y-85673500D02*
X109012000Y-86689500D01*
X107488000Y-85673500D02*
X109012000Y-85673500D01*
X107488000Y-86689500D02*
X107488000Y-85673500D01*
X107488000Y-88721500D02*
X107488000Y-87705500D01*
X109012000Y-88721500D02*
X107488000Y-88721500D01*
X109012000Y-87705500D02*
X109012000Y-88721500D01*
G04 #@! TO.C,U2*
X92194580Y-92137800D02*
X103995420Y-92137800D01*
X103995420Y-87337200D02*
X92194580Y-87337200D01*
X92194580Y-87337200D02*
X92194580Y-88337960D01*
X92194580Y-92137800D02*
X92194580Y-91137040D01*
X103995420Y-92137800D02*
X103995420Y-91137040D01*
X103995420Y-87337200D02*
X103995420Y-88337960D01*
G04 #@! TO.C,C2*
X93078500Y-85165500D02*
X94094500Y-85165500D01*
X93078500Y-86689500D02*
X93078500Y-85165500D01*
X94094500Y-86689500D02*
X93078500Y-86689500D01*
X96126500Y-86689500D02*
X95110500Y-86689500D01*
X96126500Y-85165500D02*
X96126500Y-86689500D01*
X95110500Y-85165500D02*
X96126500Y-85165500D01*
G04 #@! TO.C,C1*
X102794000Y-86689500D02*
X101778000Y-86689500D01*
X102794000Y-85165500D02*
X102794000Y-86689500D01*
X101778000Y-85165500D02*
X102794000Y-85165500D01*
X99746000Y-85165500D02*
X100762000Y-85165500D01*
X99746000Y-86689500D02*
X99746000Y-85165500D01*
X100762000Y-86689500D02*
X99746000Y-86689500D01*
D11*
G04 #@! TO.C,J1*
X87300000Y-84657500D02*
X112700000Y-84657500D01*
X87300000Y-79577500D02*
X112700000Y-79577500D01*
X112700000Y-79577500D02*
X112700000Y-84657500D01*
X87300000Y-84657500D02*
X87300000Y-79577500D01*
G04 #@! TO.C,J2*
X87300000Y-120217500D02*
X112700000Y-120217500D01*
X87300000Y-115137500D02*
X112700000Y-115137500D01*
X112700000Y-115137500D02*
X112700000Y-120217500D01*
X87300000Y-120217500D02*
X87300000Y-115137500D01*
G04 #@! TO.C,H1*
X113040000Y-102460000D02*
X107960000Y-102460000D01*
X107960000Y-102460000D02*
X107960000Y-107540000D01*
X107960000Y-107540000D02*
X113040000Y-107540000D01*
X113040000Y-107540000D02*
X113040000Y-102460000D01*
D10*
G04 #@! TO.C,U1*
X106818555Y-100750000D02*
X106341258Y-100272703D01*
X99500000Y-108068555D02*
X99022703Y-107591258D01*
X92181445Y-100750000D02*
X92658742Y-101227297D01*
X99500000Y-93431445D02*
X99977297Y-93908742D01*
X106818555Y-100750000D02*
X106341258Y-101227297D01*
X99500000Y-93431445D02*
X99022703Y-93908742D01*
X92181445Y-100750000D02*
X92658742Y-100272703D01*
X99500000Y-108068555D02*
X99977297Y-107591258D01*
X106341258Y-100272703D02*
X107242819Y-99371142D01*
G04 #@! TO.C,U3*
X101016095Y-111033880D02*
X101016095Y-111843404D01*
X101063714Y-111938642D01*
X101111333Y-111986261D01*
X101206571Y-112033880D01*
X101397047Y-112033880D01*
X101492285Y-111986261D01*
X101539904Y-111938642D01*
X101587523Y-111843404D01*
X101587523Y-111033880D01*
X101968476Y-111033880D02*
X102587523Y-111033880D01*
X102254190Y-111414833D01*
X102397047Y-111414833D01*
X102492285Y-111462452D01*
X102539904Y-111510071D01*
X102587523Y-111605309D01*
X102587523Y-111843404D01*
X102539904Y-111938642D01*
X102492285Y-111986261D01*
X102397047Y-112033880D01*
X102111333Y-112033880D01*
X102016095Y-111986261D01*
X101968476Y-111938642D01*
G04 #@! TO.C,D2*
X82879523Y-95349404D02*
X82879523Y-94549404D01*
X83070000Y-94549404D01*
X83184285Y-94587500D01*
X83260476Y-94663690D01*
X83298571Y-94739880D01*
X83336666Y-94892261D01*
X83336666Y-95006547D01*
X83298571Y-95158928D01*
X83260476Y-95235119D01*
X83184285Y-95311309D01*
X83070000Y-95349404D01*
X82879523Y-95349404D01*
X83641428Y-94625595D02*
X83679523Y-94587500D01*
X83755714Y-94549404D01*
X83946190Y-94549404D01*
X84022380Y-94587500D01*
X84060476Y-94625595D01*
X84098571Y-94701785D01*
X84098571Y-94777976D01*
X84060476Y-94892261D01*
X83603333Y-95349404D01*
X84098571Y-95349404D01*
G04 #@! TO.C,F1*
X82803333Y-99830357D02*
X82536666Y-99830357D01*
X82536666Y-100249404D02*
X82536666Y-99449404D01*
X82917619Y-99449404D01*
X83641428Y-100249404D02*
X83184285Y-100249404D01*
X83412857Y-100249404D02*
X83412857Y-99449404D01*
X83336666Y-99563690D01*
X83260476Y-99639880D01*
X83184285Y-99677976D01*
G04 #@! TO.C,R6*
X105231904Y-87720833D02*
X104850952Y-87987500D01*
X105231904Y-88177976D02*
X104431904Y-88177976D01*
X104431904Y-87873214D01*
X104470000Y-87797023D01*
X104508095Y-87758928D01*
X104584285Y-87720833D01*
X104698571Y-87720833D01*
X104774761Y-87758928D01*
X104812857Y-87797023D01*
X104850952Y-87873214D01*
X104850952Y-88177976D01*
X104431904Y-87035119D02*
X104431904Y-87187500D01*
X104470000Y-87263690D01*
X104508095Y-87301785D01*
X104622380Y-87377976D01*
X104774761Y-87416071D01*
X105079523Y-87416071D01*
X105155714Y-87377976D01*
X105193809Y-87339880D01*
X105231904Y-87263690D01*
X105231904Y-87111309D01*
X105193809Y-87035119D01*
X105155714Y-86997023D01*
X105079523Y-86958928D01*
X104889047Y-86958928D01*
X104812857Y-86997023D01*
X104774761Y-87035119D01*
X104736666Y-87111309D01*
X104736666Y-87263690D01*
X104774761Y-87339880D01*
X104812857Y-87377976D01*
X104889047Y-87416071D01*
G04 #@! TO.C,R1*
X113836666Y-109449404D02*
X113570000Y-109068452D01*
X113379523Y-109449404D02*
X113379523Y-108649404D01*
X113684285Y-108649404D01*
X113760476Y-108687500D01*
X113798571Y-108725595D01*
X113836666Y-108801785D01*
X113836666Y-108916071D01*
X113798571Y-108992261D01*
X113760476Y-109030357D01*
X113684285Y-109068452D01*
X113379523Y-109068452D01*
X114598571Y-109449404D02*
X114141428Y-109449404D01*
X114370000Y-109449404D02*
X114370000Y-108649404D01*
X114293809Y-108763690D01*
X114217619Y-108839880D01*
X114141428Y-108877976D01*
G04 #@! TO.C,R5*
X113836666Y-111649404D02*
X113570000Y-111268452D01*
X113379523Y-111649404D02*
X113379523Y-110849404D01*
X113684285Y-110849404D01*
X113760476Y-110887500D01*
X113798571Y-110925595D01*
X113836666Y-111001785D01*
X113836666Y-111116071D01*
X113798571Y-111192261D01*
X113760476Y-111230357D01*
X113684285Y-111268452D01*
X113379523Y-111268452D01*
X114560476Y-110849404D02*
X114179523Y-110849404D01*
X114141428Y-111230357D01*
X114179523Y-111192261D01*
X114255714Y-111154166D01*
X114446190Y-111154166D01*
X114522380Y-111192261D01*
X114560476Y-111230357D01*
X114598571Y-111306547D01*
X114598571Y-111497023D01*
X114560476Y-111573214D01*
X114522380Y-111611309D01*
X114446190Y-111649404D01*
X114255714Y-111649404D01*
X114179523Y-111611309D01*
X114141428Y-111573214D01*
G04 #@! TO.C,L1*
X90976666Y-103049404D02*
X90595714Y-103049404D01*
X90595714Y-102249404D01*
X91662380Y-103049404D02*
X91205238Y-103049404D01*
X91433809Y-103049404D02*
X91433809Y-102249404D01*
X91357619Y-102363690D01*
X91281428Y-102439880D01*
X91205238Y-102477976D01*
G04 #@! TO.C,R4*
X110431624Y-94537686D02*
X109973688Y-94456874D01*
X110108375Y-94860935D02*
X109542690Y-94295249D01*
X109758189Y-94079750D01*
X109839001Y-94052812D01*
X109892876Y-94052812D01*
X109973688Y-94079750D01*
X110054500Y-94160562D01*
X110081438Y-94241374D01*
X110081438Y-94295249D01*
X110054500Y-94376061D01*
X109839001Y-94591561D01*
X110539374Y-93675689D02*
X110916497Y-94052812D01*
X110189187Y-93594877D02*
X110458561Y-94133625D01*
X110808748Y-93783438D01*
G04 #@! TO.C,R2*
X112031624Y-96037686D02*
X111573688Y-95956874D01*
X111708375Y-96360935D02*
X111142690Y-95795249D01*
X111358189Y-95579750D01*
X111439001Y-95552812D01*
X111492876Y-95552812D01*
X111573688Y-95579750D01*
X111654500Y-95660562D01*
X111681438Y-95741374D01*
X111681438Y-95795249D01*
X111654500Y-95876061D01*
X111439001Y-96091561D01*
X111735312Y-95310376D02*
X111735312Y-95256501D01*
X111762250Y-95175689D01*
X111896937Y-95041002D01*
X111977749Y-95014064D01*
X112031624Y-95014064D01*
X112112436Y-95041002D01*
X112166311Y-95094877D01*
X112220186Y-95202626D01*
X112220186Y-95849124D01*
X112570372Y-95498938D01*
G04 #@! TO.C,R3*
X113531624Y-97537686D02*
X113073688Y-97456874D01*
X113208375Y-97860935D02*
X112642690Y-97295249D01*
X112858189Y-97079750D01*
X112939001Y-97052812D01*
X112992876Y-97052812D01*
X113073688Y-97079750D01*
X113154500Y-97160562D01*
X113181438Y-97241374D01*
X113181438Y-97295249D01*
X113154500Y-97376061D01*
X112939001Y-97591561D01*
X113154500Y-96783438D02*
X113504687Y-96433252D01*
X113531624Y-96837313D01*
X113612436Y-96756501D01*
X113693248Y-96729564D01*
X113747123Y-96729564D01*
X113827935Y-96756501D01*
X113962622Y-96891188D01*
X113989560Y-96972000D01*
X113989560Y-97025875D01*
X113962622Y-97106687D01*
X113800998Y-97268312D01*
X113720186Y-97295249D01*
X113666311Y-97295249D01*
G04 #@! TO.C,C3*
X108777749Y-92983811D02*
X108777749Y-93037686D01*
X108723874Y-93145435D01*
X108669999Y-93199310D01*
X108562250Y-93253185D01*
X108454500Y-93253185D01*
X108373688Y-93226248D01*
X108239001Y-93145435D01*
X108158189Y-93064623D01*
X108077377Y-92929936D01*
X108050439Y-92849124D01*
X108050439Y-92741374D01*
X108104314Y-92633625D01*
X108158189Y-92579750D01*
X108265938Y-92525875D01*
X108319813Y-92525875D01*
X108454500Y-92283438D02*
X108804687Y-91933252D01*
X108831624Y-92337313D01*
X108912436Y-92256501D01*
X108993248Y-92229564D01*
X109047123Y-92229564D01*
X109127935Y-92256501D01*
X109262622Y-92391188D01*
X109289560Y-92472000D01*
X109289560Y-92525875D01*
X109262622Y-92606687D01*
X109100998Y-92768312D01*
X109020186Y-92795249D01*
X108966311Y-92795249D01*
G04 #@! TO.C,C4*
X92677749Y-93983811D02*
X92677749Y-94037686D01*
X92623874Y-94145435D01*
X92569999Y-94199310D01*
X92462250Y-94253185D01*
X92354500Y-94253185D01*
X92273688Y-94226248D01*
X92139001Y-94145435D01*
X92058189Y-94064623D01*
X91977377Y-93929936D01*
X91950439Y-93849124D01*
X91950439Y-93741374D01*
X92004314Y-93633625D01*
X92058189Y-93579750D01*
X92165938Y-93525875D01*
X92219813Y-93525875D01*
X92839374Y-93175689D02*
X93216497Y-93552812D01*
X92489187Y-93094877D02*
X92758561Y-93633625D01*
X93108748Y-93283438D01*
G04 #@! TO.C,C5*
X106136666Y-105573214D02*
X106098571Y-105611309D01*
X105984285Y-105649404D01*
X105908095Y-105649404D01*
X105793809Y-105611309D01*
X105717619Y-105535119D01*
X105679523Y-105458928D01*
X105641428Y-105306547D01*
X105641428Y-105192261D01*
X105679523Y-105039880D01*
X105717619Y-104963690D01*
X105793809Y-104887500D01*
X105908095Y-104849404D01*
X105984285Y-104849404D01*
X106098571Y-104887500D01*
X106136666Y-104925595D01*
X106860476Y-104849404D02*
X106479523Y-104849404D01*
X106441428Y-105230357D01*
X106479523Y-105192261D01*
X106555714Y-105154166D01*
X106746190Y-105154166D01*
X106822380Y-105192261D01*
X106860476Y-105230357D01*
X106898571Y-105306547D01*
X106898571Y-105497023D01*
X106860476Y-105573214D01*
X106822380Y-105611309D01*
X106746190Y-105649404D01*
X106555714Y-105649404D01*
X106479523Y-105611309D01*
X106441428Y-105573214D01*
G04 #@! TO.C,C6*
X113836666Y-113973214D02*
X113798571Y-114011309D01*
X113684285Y-114049404D01*
X113608095Y-114049404D01*
X113493809Y-114011309D01*
X113417619Y-113935119D01*
X113379523Y-113858928D01*
X113341428Y-113706547D01*
X113341428Y-113592261D01*
X113379523Y-113439880D01*
X113417619Y-113363690D01*
X113493809Y-113287500D01*
X113608095Y-113249404D01*
X113684285Y-113249404D01*
X113798571Y-113287500D01*
X113836666Y-113325595D01*
X114522380Y-113249404D02*
X114370000Y-113249404D01*
X114293809Y-113287500D01*
X114255714Y-113325595D01*
X114179523Y-113439880D01*
X114141428Y-113592261D01*
X114141428Y-113897023D01*
X114179523Y-113973214D01*
X114217619Y-114011309D01*
X114293809Y-114049404D01*
X114446190Y-114049404D01*
X114522380Y-114011309D01*
X114560476Y-113973214D01*
X114598571Y-113897023D01*
X114598571Y-113706547D01*
X114560476Y-113630357D01*
X114522380Y-113592261D01*
X114446190Y-113554166D01*
X114293809Y-113554166D01*
X114217619Y-113592261D01*
X114179523Y-113630357D01*
X114141428Y-113706547D01*
G04 #@! TO.C,C7*
X91036666Y-108173214D02*
X90998571Y-108211309D01*
X90884285Y-108249404D01*
X90808095Y-108249404D01*
X90693809Y-108211309D01*
X90617619Y-108135119D01*
X90579523Y-108058928D01*
X90541428Y-107906547D01*
X90541428Y-107792261D01*
X90579523Y-107639880D01*
X90617619Y-107563690D01*
X90693809Y-107487500D01*
X90808095Y-107449404D01*
X90884285Y-107449404D01*
X90998571Y-107487500D01*
X91036666Y-107525595D01*
X91303333Y-107449404D02*
X91836666Y-107449404D01*
X91493809Y-108249404D01*
G04 #@! TO.C,D1*
X107679523Y-91149404D02*
X107679523Y-90349404D01*
X107870000Y-90349404D01*
X107984285Y-90387500D01*
X108060476Y-90463690D01*
X108098571Y-90539880D01*
X108136666Y-90692261D01*
X108136666Y-90806547D01*
X108098571Y-90958928D01*
X108060476Y-91035119D01*
X107984285Y-91111309D01*
X107870000Y-91149404D01*
X107679523Y-91149404D01*
X108898571Y-91149404D02*
X108441428Y-91149404D01*
X108670000Y-91149404D02*
X108670000Y-90349404D01*
X108593809Y-90463690D01*
X108517619Y-90539880D01*
X108441428Y-90577976D01*
G04 #@! TO.C,C8*
X108136666Y-89873214D02*
X108098571Y-89911309D01*
X107984285Y-89949404D01*
X107908095Y-89949404D01*
X107793809Y-89911309D01*
X107717619Y-89835119D01*
X107679523Y-89758928D01*
X107641428Y-89606547D01*
X107641428Y-89492261D01*
X107679523Y-89339880D01*
X107717619Y-89263690D01*
X107793809Y-89187500D01*
X107908095Y-89149404D01*
X107984285Y-89149404D01*
X108098571Y-89187500D01*
X108136666Y-89225595D01*
X108593809Y-89492261D02*
X108517619Y-89454166D01*
X108479523Y-89416071D01*
X108441428Y-89339880D01*
X108441428Y-89301785D01*
X108479523Y-89225595D01*
X108517619Y-89187500D01*
X108593809Y-89149404D01*
X108746190Y-89149404D01*
X108822380Y-89187500D01*
X108860476Y-89225595D01*
X108898571Y-89301785D01*
X108898571Y-89339880D01*
X108860476Y-89416071D01*
X108822380Y-89454166D01*
X108746190Y-89492261D01*
X108593809Y-89492261D01*
X108517619Y-89530357D01*
X108479523Y-89568452D01*
X108441428Y-89644642D01*
X108441428Y-89797023D01*
X108479523Y-89873214D01*
X108517619Y-89911309D01*
X108593809Y-89949404D01*
X108746190Y-89949404D01*
X108822380Y-89911309D01*
X108860476Y-89873214D01*
X108898571Y-89797023D01*
X108898571Y-89644642D01*
X108860476Y-89568452D01*
X108822380Y-89530357D01*
X108746190Y-89492261D01*
G04 #@! TO.C,U2*
X97485476Y-86149404D02*
X97485476Y-86797023D01*
X97523571Y-86873214D01*
X97561666Y-86911309D01*
X97637857Y-86949404D01*
X97790238Y-86949404D01*
X97866428Y-86911309D01*
X97904523Y-86873214D01*
X97942619Y-86797023D01*
X97942619Y-86149404D01*
X98285476Y-86225595D02*
X98323571Y-86187500D01*
X98399761Y-86149404D01*
X98590238Y-86149404D01*
X98666428Y-86187500D01*
X98704523Y-86225595D01*
X98742619Y-86301785D01*
X98742619Y-86377976D01*
X98704523Y-86492261D01*
X98247380Y-86949404D01*
X98742619Y-86949404D01*
G04 #@! TO.C,C2*
X91836666Y-86173214D02*
X91798571Y-86211309D01*
X91684285Y-86249404D01*
X91608095Y-86249404D01*
X91493809Y-86211309D01*
X91417619Y-86135119D01*
X91379523Y-86058928D01*
X91341428Y-85906547D01*
X91341428Y-85792261D01*
X91379523Y-85639880D01*
X91417619Y-85563690D01*
X91493809Y-85487500D01*
X91608095Y-85449404D01*
X91684285Y-85449404D01*
X91798571Y-85487500D01*
X91836666Y-85525595D01*
X92141428Y-85525595D02*
X92179523Y-85487500D01*
X92255714Y-85449404D01*
X92446190Y-85449404D01*
X92522380Y-85487500D01*
X92560476Y-85525595D01*
X92598571Y-85601785D01*
X92598571Y-85677976D01*
X92560476Y-85792261D01*
X92103333Y-86249404D01*
X92598571Y-86249404D01*
G04 #@! TO.C,C1*
X103836666Y-86173214D02*
X103798571Y-86211309D01*
X103684285Y-86249404D01*
X103608095Y-86249404D01*
X103493809Y-86211309D01*
X103417619Y-86135119D01*
X103379523Y-86058928D01*
X103341428Y-85906547D01*
X103341428Y-85792261D01*
X103379523Y-85639880D01*
X103417619Y-85563690D01*
X103493809Y-85487500D01*
X103608095Y-85449404D01*
X103684285Y-85449404D01*
X103798571Y-85487500D01*
X103836666Y-85525595D01*
X104598571Y-86249404D02*
X104141428Y-86249404D01*
X104370000Y-86249404D02*
X104370000Y-85449404D01*
X104293809Y-85563690D01*
X104217619Y-85639880D01*
X104141428Y-85677976D01*
G04 #@! TO.C,J1*
X99666666Y-77869880D02*
X99666666Y-78584166D01*
X99619047Y-78727023D01*
X99523809Y-78822261D01*
X99380952Y-78869880D01*
X99285714Y-78869880D01*
X100666666Y-78869880D02*
X100095238Y-78869880D01*
X100380952Y-78869880D02*
X100380952Y-77869880D01*
X100285714Y-78012738D01*
X100190476Y-78107976D01*
X100095238Y-78155595D01*
G04 #@! TO.C,J2*
X99412666Y-113429880D02*
X99412666Y-114144166D01*
X99365047Y-114287023D01*
X99269809Y-114382261D01*
X99126952Y-114429880D01*
X99031714Y-114429880D01*
X99841238Y-113525119D02*
X99888857Y-113477500D01*
X99984095Y-113429880D01*
X100222190Y-113429880D01*
X100317428Y-113477500D01*
X100365047Y-113525119D01*
X100412666Y-113620357D01*
X100412666Y-113715595D01*
X100365047Y-113858452D01*
X99793619Y-114429880D01*
X100412666Y-114429880D01*
G04 #@! TO.C,U1*
X103658477Y-92875526D02*
X103086057Y-93447946D01*
X103052385Y-93548961D01*
X103052385Y-93616305D01*
X103086057Y-93717320D01*
X103220744Y-93852007D01*
X103321759Y-93885679D01*
X103389103Y-93885679D01*
X103490118Y-93852007D01*
X104062538Y-93279587D01*
X104062538Y-94693801D02*
X103658477Y-94289740D01*
X103860507Y-94491770D02*
X104567614Y-93784664D01*
X104399255Y-93818335D01*
X104264568Y-93818335D01*
X104163553Y-93784664D01*
G04 #@! TD*
M02*
