G04 #@! TF.FileFunction,Legend,Top*
%FSLAX46Y46*%
G04 Gerber Fmt 4.6, Leading zero omitted, Abs format (unit mm)*
G04 Created by KiCad (PCBNEW (2015-08-30 BZR 6133)-product) date Fr 30 Okt 2015 20:41:11 CET*
%MOMM*%
G01*
G04 APERTURE LIST*
%ADD10C,0.100000*%
%ADD11C,0.254000*%
%ADD12C,0.203200*%
%ADD13C,0.127000*%
%ADD14C,0.101600*%
%ADD15C,0.150000*%
G04 APERTURE END LIST*
D10*
D11*
X87300000Y-84657500D02*
X112700000Y-84657500D01*
X87300000Y-79577500D02*
X112700000Y-79577500D01*
X112700000Y-79577500D02*
X112700000Y-84657500D01*
X87300000Y-84657500D02*
X87300000Y-79577500D01*
D12*
X108417000Y-109472000D02*
X108417000Y-109345000D01*
X108417000Y-109345000D02*
X103083000Y-109345000D01*
X103083000Y-113155000D02*
X108417000Y-113155000D01*
X108417000Y-113155000D02*
X108417000Y-109472000D01*
X108417000Y-111758000D02*
X107909000Y-111758000D01*
X107909000Y-111758000D02*
X107909000Y-110742000D01*
X107909000Y-110742000D02*
X108417000Y-110742000D01*
X103083000Y-113155000D02*
X103083000Y-109345000D01*
D13*
X113278000Y-108279500D02*
G75*
G03X113278000Y-108279500I-127000J0D01*
G01*
X112008000Y-108279500D02*
X113024000Y-108279500D01*
X113024000Y-108279500D02*
X113024000Y-109803500D01*
X113024000Y-109803500D02*
X112008000Y-109803500D01*
X110992000Y-109803500D02*
X109976000Y-109803500D01*
X109976000Y-109803500D02*
X109976000Y-108279500D01*
X109976000Y-108279500D02*
X110992000Y-108279500D01*
D12*
X103995420Y-87337200D02*
X103995420Y-88337960D01*
X103995420Y-92137800D02*
X103995420Y-91137040D01*
X92194580Y-92137800D02*
X92194580Y-91137040D01*
X92194580Y-87337200D02*
X92194580Y-88337960D01*
X103995420Y-87337200D02*
X92194580Y-87337200D01*
X92194580Y-92137800D02*
X103995420Y-92137800D01*
D13*
X99746000Y-86689500D02*
G75*
G03X99746000Y-86689500I-127000J0D01*
G01*
X100762000Y-86689500D02*
X99746000Y-86689500D01*
X99746000Y-86689500D02*
X99746000Y-85165500D01*
X99746000Y-85165500D02*
X100762000Y-85165500D01*
X101778000Y-85165500D02*
X102794000Y-85165500D01*
X102794000Y-85165500D02*
X102794000Y-86689500D01*
X102794000Y-86689500D02*
X101778000Y-86689500D01*
X96380500Y-85165500D02*
G75*
G03X96380500Y-85165500I-127000J0D01*
G01*
X95110500Y-85165500D02*
X96126500Y-85165500D01*
X96126500Y-85165500D02*
X96126500Y-86689500D01*
X96126500Y-86689500D02*
X95110500Y-86689500D01*
X94094500Y-86689500D02*
X93078500Y-86689500D01*
X93078500Y-86689500D02*
X93078500Y-85165500D01*
X93078500Y-85165500D02*
X94094500Y-85165500D01*
X107613618Y-92857251D02*
G75*
G03X107613618Y-92857251I-127000J0D01*
G01*
X106678395Y-93665474D02*
X107396815Y-92947054D01*
X107396815Y-92947054D02*
X108474446Y-94024685D01*
X108474446Y-94024685D02*
X107756026Y-94743105D01*
X107037605Y-95461526D02*
X106319185Y-96179946D01*
X106319185Y-96179946D02*
X105241554Y-95102315D01*
X105241554Y-95102315D02*
X105959974Y-94383895D01*
X94405618Y-93111251D02*
G75*
G03X94405618Y-93111251I-127000J0D01*
G01*
X93470395Y-93919474D02*
X94188815Y-93201054D01*
X94188815Y-93201054D02*
X95266446Y-94278685D01*
X95266446Y-94278685D02*
X94548026Y-94997105D01*
X93829605Y-95715526D02*
X93111185Y-96433946D01*
X93111185Y-96433946D02*
X92033554Y-95356315D01*
X92033554Y-95356315D02*
X92751974Y-94637895D01*
X103876000Y-107562000D02*
G75*
G03X103876000Y-107562000I-127000J0D01*
G01*
X104892000Y-107562000D02*
X103876000Y-107562000D01*
X103876000Y-107562000D02*
X103876000Y-106038000D01*
X103876000Y-106038000D02*
X104892000Y-106038000D01*
X105908000Y-106038000D02*
X106924000Y-106038000D01*
X106924000Y-106038000D02*
X106924000Y-107562000D01*
X106924000Y-107562000D02*
X105908000Y-107562000D01*
X109976000Y-114375500D02*
G75*
G03X109976000Y-114375500I-127000J0D01*
G01*
X110992000Y-114375500D02*
X109976000Y-114375500D01*
X109976000Y-114375500D02*
X109976000Y-112851500D01*
X109976000Y-112851500D02*
X110992000Y-112851500D01*
X112008000Y-112851500D02*
X113024000Y-112851500D01*
X113024000Y-112851500D02*
X113024000Y-114375500D01*
X113024000Y-114375500D02*
X112008000Y-114375500D01*
X92278000Y-106247500D02*
G75*
G03X92278000Y-106247500I-127000J0D01*
G01*
X91008000Y-106247500D02*
X92024000Y-106247500D01*
X92024000Y-106247500D02*
X92024000Y-107771500D01*
X92024000Y-107771500D02*
X91008000Y-107771500D01*
X89992000Y-107771500D02*
X88976000Y-107771500D01*
X88976000Y-107771500D02*
X88976000Y-106247500D01*
X88976000Y-106247500D02*
X89992000Y-106247500D01*
X109139000Y-88848500D02*
G75*
G03X109139000Y-88848500I-127000J0D01*
G01*
X109012000Y-87705500D02*
X109012000Y-88721500D01*
X109012000Y-88721500D02*
X107488000Y-88721500D01*
X107488000Y-88721500D02*
X107488000Y-87705500D01*
X107488000Y-86689500D02*
X107488000Y-85673500D01*
X107488000Y-85673500D02*
X109012000Y-85673500D01*
X109012000Y-85673500D02*
X109012000Y-86689500D01*
D11*
X87300000Y-120217500D02*
X112700000Y-120217500D01*
X87300000Y-115137500D02*
X112700000Y-115137500D01*
X112700000Y-115137500D02*
X112700000Y-120217500D01*
X87300000Y-120217500D02*
X87300000Y-115137500D01*
D13*
X88976000Y-105739500D02*
G75*
G03X88976000Y-105739500I-127000J0D01*
G01*
X89992000Y-105739500D02*
X88976000Y-105739500D01*
X88976000Y-105739500D02*
X88976000Y-104215500D01*
X88976000Y-104215500D02*
X89992000Y-104215500D01*
X91008000Y-104215500D02*
X92024000Y-104215500D01*
X92024000Y-104215500D02*
X92024000Y-105739500D01*
X92024000Y-105739500D02*
X91008000Y-105739500D01*
X109404382Y-99317749D02*
G75*
G03X109404382Y-99317749I-127000J0D01*
G01*
X110085605Y-98509526D02*
X109367185Y-99227946D01*
X109367185Y-99227946D02*
X108289554Y-98150315D01*
X108289554Y-98150315D02*
X109007974Y-97431895D01*
X109726395Y-96713474D02*
X110444815Y-95995054D01*
X110444815Y-95995054D02*
X111522446Y-97072685D01*
X111522446Y-97072685D02*
X110804026Y-97791105D01*
X110928382Y-100841749D02*
G75*
G03X110928382Y-100841749I-127000J0D01*
G01*
X111609605Y-100033526D02*
X110891185Y-100751946D01*
X110891185Y-100751946D02*
X109813554Y-99674315D01*
X109813554Y-99674315D02*
X110531974Y-98955895D01*
X111250395Y-98237474D02*
X111968815Y-97519054D01*
X111968815Y-97519054D02*
X113046446Y-98596685D01*
X113046446Y-98596685D02*
X112328026Y-99315105D01*
X107880382Y-97793749D02*
G75*
G03X107880382Y-97793749I-127000J0D01*
G01*
X108561605Y-96985526D02*
X107843185Y-97703946D01*
X107843185Y-97703946D02*
X106765554Y-96626315D01*
X106765554Y-96626315D02*
X107483974Y-95907895D01*
X108202395Y-95189474D02*
X108920815Y-94471054D01*
X108920815Y-94471054D02*
X109998446Y-95548685D01*
X109998446Y-95548685D02*
X109280026Y-96267105D01*
X113278000Y-110565500D02*
G75*
G03X113278000Y-110565500I-127000J0D01*
G01*
X112008000Y-110565500D02*
X113024000Y-110565500D01*
X113024000Y-110565500D02*
X113024000Y-112089500D01*
X113024000Y-112089500D02*
X112008000Y-112089500D01*
X110992000Y-112089500D02*
X109976000Y-112089500D01*
X109976000Y-112089500D02*
X109976000Y-110565500D01*
X109976000Y-110565500D02*
X110992000Y-110565500D01*
X105715000Y-85546500D02*
G75*
G03X105715000Y-85546500I-127000J0D01*
G01*
X105588000Y-86689500D02*
X105588000Y-85673500D01*
X105588000Y-85673500D02*
X107112000Y-85673500D01*
X107112000Y-85673500D02*
X107112000Y-86689500D01*
X107112000Y-87705500D02*
X107112000Y-88721500D01*
X107112000Y-88721500D02*
X105588000Y-88721500D01*
X105588000Y-88721500D02*
X105588000Y-87705500D01*
X106925640Y-91104020D02*
X105574360Y-91104020D01*
X106925640Y-89854340D02*
X106925640Y-91652660D01*
X105574360Y-91652660D02*
X105574360Y-89854340D01*
D11*
X113040000Y-102460000D02*
X107960000Y-102460000D01*
X107960000Y-102460000D02*
X107960000Y-107540000D01*
X107960000Y-107540000D02*
X113040000Y-107540000D01*
X113040000Y-107540000D02*
X113040000Y-102460000D01*
D14*
X85099120Y-102637980D02*
X85099120Y-103448240D01*
X85099120Y-103448240D02*
X84520000Y-103448240D01*
D15*
X106818555Y-100750000D02*
X106341258Y-100272703D01*
X99500000Y-108068555D02*
X99022703Y-107591258D01*
X92181445Y-100750000D02*
X92658742Y-101227297D01*
X99500000Y-93431445D02*
X99977297Y-93908742D01*
X106818555Y-100750000D02*
X106341258Y-101227297D01*
X99500000Y-93431445D02*
X99022703Y-93908742D01*
X92181445Y-100750000D02*
X92658742Y-100272703D01*
X99500000Y-108068555D02*
X99977297Y-107591258D01*
X106341258Y-100272703D02*
X107242819Y-99371142D01*
X99666667Y-77869881D02*
X99666667Y-78584167D01*
X99619047Y-78727024D01*
X99523809Y-78822262D01*
X99380952Y-78869881D01*
X99285714Y-78869881D01*
X100666667Y-78869881D02*
X100095238Y-78869881D01*
X100380952Y-78869881D02*
X100380952Y-77869881D01*
X100285714Y-78012738D01*
X100190476Y-78107976D01*
X100095238Y-78155595D01*
X101016095Y-111033881D02*
X101016095Y-111843405D01*
X101063714Y-111938643D01*
X101111333Y-111986262D01*
X101206571Y-112033881D01*
X101397048Y-112033881D01*
X101492286Y-111986262D01*
X101539905Y-111938643D01*
X101587524Y-111843405D01*
X101587524Y-111033881D01*
X101968476Y-111033881D02*
X102587524Y-111033881D01*
X102254190Y-111414833D01*
X102397048Y-111414833D01*
X102492286Y-111462452D01*
X102539905Y-111510071D01*
X102587524Y-111605310D01*
X102587524Y-111843405D01*
X102539905Y-111938643D01*
X102492286Y-111986262D01*
X102397048Y-112033881D01*
X102111333Y-112033881D01*
X102016095Y-111986262D01*
X101968476Y-111938643D01*
D14*
X113898401Y-109367271D02*
X113695201Y-109076986D01*
X113550058Y-109367271D02*
X113550058Y-108757671D01*
X113782286Y-108757671D01*
X113840344Y-108786700D01*
X113869372Y-108815729D01*
X113898401Y-108873786D01*
X113898401Y-108960871D01*
X113869372Y-109018929D01*
X113840344Y-109047957D01*
X113782286Y-109076986D01*
X113550058Y-109076986D01*
X114478972Y-109367271D02*
X114130629Y-109367271D01*
X114304801Y-109367271D02*
X114304801Y-108757671D01*
X114246744Y-108844757D01*
X114188686Y-108902814D01*
X114130629Y-108931843D01*
D15*
X97333095Y-85589881D02*
X97333095Y-86399405D01*
X97380714Y-86494643D01*
X97428333Y-86542262D01*
X97523571Y-86589881D01*
X97714048Y-86589881D01*
X97809286Y-86542262D01*
X97856905Y-86494643D01*
X97904524Y-86399405D01*
X97904524Y-85589881D01*
X98333095Y-85685119D02*
X98380714Y-85637500D01*
X98475952Y-85589881D01*
X98714048Y-85589881D01*
X98809286Y-85637500D01*
X98856905Y-85685119D01*
X98904524Y-85780357D01*
X98904524Y-85875595D01*
X98856905Y-86018452D01*
X98285476Y-86589881D01*
X98904524Y-86589881D01*
D14*
X103708401Y-86145214D02*
X103679372Y-86174243D01*
X103592286Y-86203271D01*
X103534229Y-86203271D01*
X103447144Y-86174243D01*
X103389086Y-86116186D01*
X103360058Y-86058129D01*
X103331029Y-85942014D01*
X103331029Y-85854929D01*
X103360058Y-85738814D01*
X103389086Y-85680757D01*
X103447144Y-85622700D01*
X103534229Y-85593671D01*
X103592286Y-85593671D01*
X103679372Y-85622700D01*
X103708401Y-85651729D01*
X104288972Y-86203271D02*
X103940629Y-86203271D01*
X104114801Y-86203271D02*
X104114801Y-85593671D01*
X104056744Y-85680757D01*
X103998686Y-85738814D01*
X103940629Y-85767843D01*
X91900901Y-86145214D02*
X91871872Y-86174243D01*
X91784786Y-86203271D01*
X91726729Y-86203271D01*
X91639644Y-86174243D01*
X91581586Y-86116186D01*
X91552558Y-86058129D01*
X91523529Y-85942014D01*
X91523529Y-85854929D01*
X91552558Y-85738814D01*
X91581586Y-85680757D01*
X91639644Y-85622700D01*
X91726729Y-85593671D01*
X91784786Y-85593671D01*
X91871872Y-85622700D01*
X91900901Y-85651729D01*
X92133129Y-85651729D02*
X92162158Y-85622700D01*
X92220215Y-85593671D01*
X92365358Y-85593671D01*
X92423415Y-85622700D01*
X92452444Y-85651729D01*
X92481472Y-85709786D01*
X92481472Y-85767843D01*
X92452444Y-85854929D01*
X92104101Y-86203271D01*
X92481472Y-86203271D01*
X108718106Y-93011288D02*
X108718106Y-93052342D01*
X108677052Y-93134447D01*
X108636000Y-93175499D01*
X108553896Y-93216552D01*
X108471790Y-93216552D01*
X108410212Y-93196026D01*
X108307579Y-93134447D01*
X108246001Y-93072868D01*
X108184422Y-92970236D01*
X108163895Y-92908657D01*
X108163896Y-92826552D01*
X108204948Y-92744447D01*
X108246000Y-92703394D01*
X108328106Y-92662342D01*
X108369159Y-92662342D01*
X108471790Y-92477604D02*
X108738632Y-92210763D01*
X108759158Y-92518658D01*
X108820737Y-92457079D01*
X108882316Y-92436553D01*
X108923369Y-92436552D01*
X108984947Y-92457079D01*
X109087579Y-92559710D01*
X109108105Y-92621289D01*
X109108105Y-92662342D01*
X109087579Y-92723920D01*
X108964421Y-92847078D01*
X108902842Y-92867605D01*
X108861790Y-92867604D01*
X91932106Y-96943288D02*
X91932106Y-96984342D01*
X91891052Y-97066447D01*
X91850000Y-97107499D01*
X91767896Y-97148552D01*
X91685790Y-97148552D01*
X91624212Y-97128026D01*
X91521579Y-97066447D01*
X91460001Y-97004868D01*
X91398422Y-96902236D01*
X91377895Y-96840657D01*
X91377896Y-96758552D01*
X91418948Y-96676447D01*
X91460000Y-96635394D01*
X91542106Y-96594342D01*
X91583159Y-96594342D01*
X92055263Y-96327499D02*
X92342631Y-96614868D01*
X91788422Y-96265921D02*
X91993684Y-96676447D01*
X92260526Y-96409604D01*
X102438401Y-108497214D02*
X102409372Y-108526243D01*
X102322286Y-108555271D01*
X102264229Y-108555271D01*
X102177144Y-108526243D01*
X102119086Y-108468186D01*
X102090058Y-108410129D01*
X102061029Y-108294014D01*
X102061029Y-108206929D01*
X102090058Y-108090814D01*
X102119086Y-108032757D01*
X102177144Y-107974700D01*
X102264229Y-107945671D01*
X102322286Y-107945671D01*
X102409372Y-107974700D01*
X102438401Y-108003729D01*
X102989944Y-107945671D02*
X102699658Y-107945671D01*
X102670629Y-108235957D01*
X102699658Y-108206929D01*
X102757715Y-108177900D01*
X102902858Y-108177900D01*
X102960915Y-108206929D01*
X102989944Y-108235957D01*
X103018972Y-108294014D01*
X103018972Y-108439157D01*
X102989944Y-108497214D01*
X102960915Y-108526243D01*
X102902858Y-108555271D01*
X102757715Y-108555271D01*
X102699658Y-108526243D01*
X102670629Y-108497214D01*
X113898401Y-113781214D02*
X113869372Y-113810243D01*
X113782286Y-113839271D01*
X113724229Y-113839271D01*
X113637144Y-113810243D01*
X113579086Y-113752186D01*
X113550058Y-113694129D01*
X113521029Y-113578014D01*
X113521029Y-113490929D01*
X113550058Y-113374814D01*
X113579086Y-113316757D01*
X113637144Y-113258700D01*
X113724229Y-113229671D01*
X113782286Y-113229671D01*
X113869372Y-113258700D01*
X113898401Y-113287729D01*
X114420915Y-113229671D02*
X114304801Y-113229671D01*
X114246744Y-113258700D01*
X114217715Y-113287729D01*
X114159658Y-113374814D01*
X114130629Y-113490929D01*
X114130629Y-113723157D01*
X114159658Y-113781214D01*
X114188686Y-113810243D01*
X114246744Y-113839271D01*
X114362858Y-113839271D01*
X114420915Y-113810243D01*
X114449944Y-113781214D01*
X114478972Y-113723157D01*
X114478972Y-113578014D01*
X114449944Y-113519957D01*
X114420915Y-113490929D01*
X114362858Y-113461900D01*
X114246744Y-113461900D01*
X114188686Y-113490929D01*
X114159658Y-113519957D01*
X114130629Y-113578014D01*
X92786401Y-107227214D02*
X92757372Y-107256243D01*
X92670286Y-107285271D01*
X92612229Y-107285271D01*
X92525144Y-107256243D01*
X92467086Y-107198186D01*
X92438058Y-107140129D01*
X92409029Y-107024014D01*
X92409029Y-106936929D01*
X92438058Y-106820814D01*
X92467086Y-106762757D01*
X92525144Y-106704700D01*
X92612229Y-106675671D01*
X92670286Y-106675671D01*
X92757372Y-106704700D01*
X92786401Y-106733729D01*
X92989601Y-106675671D02*
X93396001Y-106675671D01*
X93134744Y-107285271D01*
X108098401Y-89701214D02*
X108069372Y-89730243D01*
X107982286Y-89759271D01*
X107924229Y-89759271D01*
X107837144Y-89730243D01*
X107779086Y-89672186D01*
X107750058Y-89614129D01*
X107721029Y-89498014D01*
X107721029Y-89410929D01*
X107750058Y-89294814D01*
X107779086Y-89236757D01*
X107837144Y-89178700D01*
X107924229Y-89149671D01*
X107982286Y-89149671D01*
X108069372Y-89178700D01*
X108098401Y-89207729D01*
X108446744Y-89410929D02*
X108388686Y-89381900D01*
X108359658Y-89352871D01*
X108330629Y-89294814D01*
X108330629Y-89265786D01*
X108359658Y-89207729D01*
X108388686Y-89178700D01*
X108446744Y-89149671D01*
X108562858Y-89149671D01*
X108620915Y-89178700D01*
X108649944Y-89207729D01*
X108678972Y-89265786D01*
X108678972Y-89294814D01*
X108649944Y-89352871D01*
X108620915Y-89381900D01*
X108562858Y-89410929D01*
X108446744Y-89410929D01*
X108388686Y-89439957D01*
X108359658Y-89468986D01*
X108330629Y-89527043D01*
X108330629Y-89643157D01*
X108359658Y-89701214D01*
X108388686Y-89730243D01*
X108446744Y-89759271D01*
X108562858Y-89759271D01*
X108620915Y-89730243D01*
X108649944Y-89701214D01*
X108678972Y-89643157D01*
X108678972Y-89527043D01*
X108649944Y-89468986D01*
X108620915Y-89439957D01*
X108562858Y-89410929D01*
D15*
X99412667Y-113429881D02*
X99412667Y-114144167D01*
X99365047Y-114287024D01*
X99269809Y-114382262D01*
X99126952Y-114429881D01*
X99031714Y-114429881D01*
X99841238Y-113525119D02*
X99888857Y-113477500D01*
X99984095Y-113429881D01*
X100222191Y-113429881D01*
X100317429Y-113477500D01*
X100365048Y-113525119D01*
X100412667Y-113620357D01*
X100412667Y-113715595D01*
X100365048Y-113858452D01*
X99793619Y-114429881D01*
X100412667Y-114429881D01*
D14*
X92786401Y-105253271D02*
X92496115Y-105253271D01*
X92496115Y-104643671D01*
X93308915Y-105253271D02*
X92960572Y-105253271D01*
X93134744Y-105253271D02*
X93134744Y-104643671D01*
X93076687Y-104730757D01*
X93018629Y-104788814D01*
X92960572Y-104817843D01*
X112823158Y-95084341D02*
X112474212Y-95022762D01*
X112576843Y-95330657D02*
X112145790Y-94899604D01*
X112310000Y-94735394D01*
X112371580Y-94714868D01*
X112412633Y-94714868D01*
X112474212Y-94735394D01*
X112535790Y-94796973D01*
X112556317Y-94858552D01*
X112556317Y-94899604D01*
X112535790Y-94961184D01*
X112371580Y-95125394D01*
X112597369Y-94530132D02*
X112597369Y-94489079D01*
X112617895Y-94427499D01*
X112720527Y-94324868D01*
X112782106Y-94304342D01*
X112823159Y-94304342D01*
X112884737Y-94324869D01*
X112925790Y-94365921D01*
X112966843Y-94448026D01*
X112966842Y-94940657D01*
X113233684Y-94673815D01*
X114347158Y-96608341D02*
X113998212Y-96546762D01*
X114100843Y-96854657D02*
X113669790Y-96423604D01*
X113834000Y-96259394D01*
X113895580Y-96238868D01*
X113936633Y-96238868D01*
X113998212Y-96259394D01*
X114059790Y-96320973D01*
X114080317Y-96382552D01*
X114080317Y-96423604D01*
X114059790Y-96485184D01*
X113895580Y-96649394D01*
X114059790Y-96033604D02*
X114326632Y-95766763D01*
X114347158Y-96074658D01*
X114408737Y-96013079D01*
X114470316Y-95992553D01*
X114511369Y-95992552D01*
X114572947Y-96013079D01*
X114675579Y-96115710D01*
X114696105Y-96177289D01*
X114696105Y-96218342D01*
X114675579Y-96279920D01*
X114552421Y-96403078D01*
X114490842Y-96423605D01*
X114449790Y-96423604D01*
X111045158Y-93814341D02*
X110696212Y-93752762D01*
X110798843Y-94060657D02*
X110367790Y-93629604D01*
X110532000Y-93465394D01*
X110593580Y-93444868D01*
X110634633Y-93444868D01*
X110696212Y-93465394D01*
X110757790Y-93526973D01*
X110778317Y-93588552D01*
X110778317Y-93629604D01*
X110757790Y-93691184D01*
X110593580Y-93855394D01*
X111127263Y-93157499D02*
X111414631Y-93444868D01*
X110860422Y-93095921D02*
X111065684Y-93506447D01*
X111332526Y-93239604D01*
X113898401Y-111603271D02*
X113695201Y-111312986D01*
X113550058Y-111603271D02*
X113550058Y-110993671D01*
X113782286Y-110993671D01*
X113840344Y-111022700D01*
X113869372Y-111051729D01*
X113898401Y-111109786D01*
X113898401Y-111196871D01*
X113869372Y-111254929D01*
X113840344Y-111283957D01*
X113782286Y-111312986D01*
X113550058Y-111312986D01*
X114449944Y-110993671D02*
X114159658Y-110993671D01*
X114130629Y-111283957D01*
X114159658Y-111254929D01*
X114217715Y-111225900D01*
X114362858Y-111225900D01*
X114420915Y-111254929D01*
X114449944Y-111283957D01*
X114478972Y-111342014D01*
X114478972Y-111487157D01*
X114449944Y-111545214D01*
X114420915Y-111574243D01*
X114362858Y-111603271D01*
X114217715Y-111603271D01*
X114159658Y-111574243D01*
X114130629Y-111545214D01*
X104724401Y-87981271D02*
X104521201Y-87690986D01*
X104376058Y-87981271D02*
X104376058Y-87371671D01*
X104608286Y-87371671D01*
X104666344Y-87400700D01*
X104695372Y-87429729D01*
X104724401Y-87487786D01*
X104724401Y-87574871D01*
X104695372Y-87632929D01*
X104666344Y-87661957D01*
X104608286Y-87690986D01*
X104376058Y-87690986D01*
X105246915Y-87371671D02*
X105130801Y-87371671D01*
X105072744Y-87400700D01*
X105043715Y-87429729D01*
X104985658Y-87516814D01*
X104956629Y-87632929D01*
X104956629Y-87865157D01*
X104985658Y-87923214D01*
X105014686Y-87952243D01*
X105072744Y-87981271D01*
X105188858Y-87981271D01*
X105246915Y-87952243D01*
X105275944Y-87923214D01*
X105304972Y-87865157D01*
X105304972Y-87720014D01*
X105275944Y-87661957D01*
X105246915Y-87632929D01*
X105188858Y-87603900D01*
X105072744Y-87603900D01*
X105014686Y-87632929D01*
X104985658Y-87661957D01*
X104956629Y-87720014D01*
X104376058Y-91791271D02*
X104376058Y-91181671D01*
X104521201Y-91181671D01*
X104608286Y-91210700D01*
X104666344Y-91268757D01*
X104695372Y-91326814D01*
X104724401Y-91442929D01*
X104724401Y-91530014D01*
X104695372Y-91646129D01*
X104666344Y-91704186D01*
X104608286Y-91762243D01*
X104521201Y-91791271D01*
X104376058Y-91791271D01*
X105304972Y-91791271D02*
X104956629Y-91791271D01*
X105130801Y-91791271D02*
X105130801Y-91181671D01*
X105072744Y-91268757D01*
X105014686Y-91326814D01*
X104956629Y-91355843D01*
X82800058Y-96025771D02*
X82800058Y-95416171D01*
X82945201Y-95416171D01*
X83032286Y-95445200D01*
X83090344Y-95503257D01*
X83119372Y-95561314D01*
X83148401Y-95677429D01*
X83148401Y-95764514D01*
X83119372Y-95880629D01*
X83090344Y-95938686D01*
X83032286Y-95996743D01*
X82945201Y-96025771D01*
X82800058Y-96025771D01*
X83380629Y-95474229D02*
X83409658Y-95445200D01*
X83467715Y-95416171D01*
X83612858Y-95416171D01*
X83670915Y-95445200D01*
X83699944Y-95474229D01*
X83728972Y-95532286D01*
X83728972Y-95590343D01*
X83699944Y-95677429D01*
X83351601Y-96025771D01*
X83728972Y-96025771D01*
D15*
X103658477Y-92875527D02*
X103086057Y-93447947D01*
X103052385Y-93548962D01*
X103052385Y-93616305D01*
X103086057Y-93717320D01*
X103220745Y-93852008D01*
X103321760Y-93885680D01*
X103389103Y-93885680D01*
X103490118Y-93852008D01*
X104062538Y-93279588D01*
X104062538Y-94693802D02*
X103658477Y-94289740D01*
X103860507Y-94491771D02*
X104567614Y-93784664D01*
X104399255Y-93818336D01*
X104264569Y-93818336D01*
X104163553Y-93784664D01*
M02*
