G04 #@! TF.GenerationSoftware,KiCad,Pcbnew,5.0.0-fee4fd1~66~ubuntu16.04.1*
G04 #@! TF.CreationDate,2018-09-23T22:41:03+02:00*
G04 #@! TF.ProjectId,bus-module_atmega324,6275732D6D6F64756C655F61746D6567,B*
G04 #@! TF.SameCoordinates,Original*
G04 #@! TF.FileFunction,Copper,L2,Bot,Signal*
G04 #@! TF.FilePolarity,Positive*
%FSLAX46Y46*%
G04 Gerber Fmt 4.6, Leading zero omitted, Abs format (unit mm)*
G04 Created by KiCad (PCBNEW 5.0.0-fee4fd1~66~ubuntu16.04.1) date Sun Sep 23 22:41:03 2018*
%MOMM*%
%LPD*%
G01*
G04 APERTURE LIST*
G04 #@! TA.AperFunction,NonConductor*
%ADD10C,0.150000*%
G04 #@! TD*
G04 #@! TA.AperFunction,ComponentPad*
%ADD11C,1.800000*%
G04 #@! TD*
G04 #@! TA.AperFunction,ComponentPad*
%ADD12R,1.800000X1.800000*%
G04 #@! TD*
G04 #@! TA.AperFunction,SMDPad,CuDef*
%ADD13R,1.143000X0.508000*%
G04 #@! TD*
G04 #@! TA.AperFunction,ComponentPad*
%ADD14C,2.000000*%
G04 #@! TD*
G04 #@! TA.AperFunction,ComponentPad*
%ADD15C,1.600000*%
G04 #@! TD*
G04 #@! TA.AperFunction,ComponentPad*
%ADD16R,1.600000X1.600000*%
G04 #@! TD*
G04 #@! TA.AperFunction,SMDPad,CuDef*
%ADD17R,3.500120X1.600200*%
G04 #@! TD*
G04 #@! TA.AperFunction,SMDPad,CuDef*
%ADD18R,0.889000X1.397000*%
G04 #@! TD*
G04 #@! TA.AperFunction,SMDPad,CuDef*
%ADD19R,1.397000X0.889000*%
G04 #@! TD*
G04 #@! TA.AperFunction,ComponentPad*
%ADD20R,1.651000X1.651000*%
G04 #@! TD*
G04 #@! TA.AperFunction,ComponentPad*
%ADD21C,1.600200*%
G04 #@! TD*
G04 #@! TA.AperFunction,ComponentPad*
%ADD22C,1.524000*%
G04 #@! TD*
G04 #@! TA.AperFunction,ComponentPad*
%ADD23C,3.500000*%
G04 #@! TD*
G04 #@! TA.AperFunction,ViaPad*
%ADD24C,0.800000*%
G04 #@! TD*
G04 #@! TA.AperFunction,ViaPad*
%ADD25C,0.600000*%
G04 #@! TD*
G04 #@! TA.AperFunction,Conductor*
%ADD26C,0.600000*%
G04 #@! TD*
G04 #@! TA.AperFunction,Conductor*
%ADD27C,0.300000*%
G04 #@! TD*
G04 #@! TA.AperFunction,Conductor*
%ADD28C,0.254000*%
G04 #@! TD*
G04 APERTURE END LIST*
D10*
X81531904Y-88292261D02*
X81150952Y-88025595D01*
X81531904Y-87835119D02*
X80731904Y-87835119D01*
X80731904Y-88139880D01*
X80770000Y-88216071D01*
X80808095Y-88254166D01*
X80884285Y-88292261D01*
X80998571Y-88292261D01*
X81074761Y-88254166D01*
X81112857Y-88216071D01*
X81150952Y-88139880D01*
X81150952Y-87835119D01*
X81493809Y-88939880D02*
X81531904Y-88863690D01*
X81531904Y-88711309D01*
X81493809Y-88635119D01*
X81417619Y-88597023D01*
X81112857Y-88597023D01*
X81036666Y-88635119D01*
X80998571Y-88711309D01*
X80998571Y-88863690D01*
X81036666Y-88939880D01*
X81112857Y-88977976D01*
X81189047Y-88977976D01*
X81265238Y-88597023D01*
X80998571Y-89244642D02*
X81531904Y-89435119D01*
X80998571Y-89625595D01*
X81455714Y-89930357D02*
X81493809Y-89968452D01*
X81531904Y-89930357D01*
X81493809Y-89892261D01*
X81455714Y-89930357D01*
X81531904Y-89930357D01*
X81112857Y-91187500D02*
X81150952Y-91301785D01*
X81189047Y-91339880D01*
X81265238Y-91377976D01*
X81379523Y-91377976D01*
X81455714Y-91339880D01*
X81493809Y-91301785D01*
X81531904Y-91225595D01*
X81531904Y-90920833D01*
X80731904Y-90920833D01*
X80731904Y-91187500D01*
X80770000Y-91263690D01*
X80808095Y-91301785D01*
X80884285Y-91339880D01*
X80960476Y-91339880D01*
X81036666Y-91301785D01*
X81074761Y-91263690D01*
X81112857Y-91187500D01*
X81112857Y-90920833D01*
X113608095Y-84338214D02*
X114408095Y-84338214D01*
X114103333Y-84338214D02*
X114141428Y-84262023D01*
X114141428Y-84109642D01*
X114103333Y-84033452D01*
X114065238Y-83995357D01*
X113989047Y-83957261D01*
X113760476Y-83957261D01*
X113684285Y-83995357D01*
X113646190Y-84033452D01*
X113608095Y-84109642D01*
X113608095Y-84262023D01*
X113646190Y-84338214D01*
X113608095Y-83500119D02*
X113646190Y-83576309D01*
X113684285Y-83614404D01*
X113760476Y-83652500D01*
X113989047Y-83652500D01*
X114065238Y-83614404D01*
X114103333Y-83576309D01*
X114141428Y-83500119D01*
X114141428Y-83385833D01*
X114103333Y-83309642D01*
X114065238Y-83271547D01*
X113989047Y-83233452D01*
X113760476Y-83233452D01*
X113684285Y-83271547D01*
X113646190Y-83309642D01*
X113608095Y-83385833D01*
X113608095Y-83500119D01*
X114141428Y-83004880D02*
X114141428Y-82700119D01*
X114408095Y-82890595D02*
X113722380Y-82890595D01*
X113646190Y-82852500D01*
X113608095Y-82776309D01*
X113608095Y-82700119D01*
X114141428Y-82547738D02*
X114141428Y-82242976D01*
X114408095Y-82433452D02*
X113722380Y-82433452D01*
X113646190Y-82395357D01*
X113608095Y-82319166D01*
X113608095Y-82242976D01*
X113608095Y-81862023D02*
X113646190Y-81938214D01*
X113684285Y-81976309D01*
X113760476Y-82014404D01*
X113989047Y-82014404D01*
X114065238Y-81976309D01*
X114103333Y-81938214D01*
X114141428Y-81862023D01*
X114141428Y-81747738D01*
X114103333Y-81671547D01*
X114065238Y-81633452D01*
X113989047Y-81595357D01*
X113760476Y-81595357D01*
X113684285Y-81633452D01*
X113646190Y-81671547D01*
X113608095Y-81747738D01*
X113608095Y-81862023D01*
X113608095Y-81252500D02*
X114141428Y-81252500D01*
X114065238Y-81252500D02*
X114103333Y-81214404D01*
X114141428Y-81138214D01*
X114141428Y-81023928D01*
X114103333Y-80947738D01*
X114027142Y-80909642D01*
X113608095Y-80909642D01*
X114027142Y-80909642D02*
X114103333Y-80871547D01*
X114141428Y-80795357D01*
X114141428Y-80681071D01*
X114103333Y-80604880D01*
X114027142Y-80566785D01*
X113608095Y-80566785D01*
D11*
G04 #@! TO.P,J3,6*
G04 #@! TO.N,GND*
X113290000Y-86262500D03*
G04 #@! TO.P,J3,5*
G04 #@! TO.N,//RESET*
X110750000Y-86262500D03*
G04 #@! TO.P,J3,4*
G04 #@! TO.N,/PB5_MOSI*
X113290000Y-88802500D03*
G04 #@! TO.P,J3,3*
G04 #@! TO.N,/PB7_SCK*
X110750000Y-88802500D03*
G04 #@! TO.P,J3,2*
G04 #@! TO.N,+3.3V*
X113290000Y-91342500D03*
D12*
G04 #@! TO.P,J3,1*
G04 #@! TO.N,/PB6_MISO*
X110750000Y-91342500D03*
G04 #@! TD*
D13*
G04 #@! TO.P,U4,4*
G04 #@! TO.N,/TXD0*
X97867000Y-106305000D03*
G04 #@! TO.P,U4,3*
G04 #@! TO.N,/TXD0EN*
X97867000Y-105035000D03*
G04 #@! TO.P,U4,2*
X97867000Y-103765000D03*
G04 #@! TO.P,U4,5*
G04 #@! TO.N,GND*
X92533000Y-106305000D03*
G04 #@! TO.P,U4,6*
G04 #@! TO.N,/A*
X92533000Y-105035000D03*
G04 #@! TO.P,U4,7*
G04 #@! TO.N,/B*
X92533000Y-103765000D03*
G04 #@! TO.P,U4,1*
G04 #@! TO.N,/RXD0*
X97867000Y-102495000D03*
G04 #@! TO.P,U4,8*
G04 #@! TO.N,+3.3V*
X92533000Y-102495000D03*
G04 #@! TD*
G04 #@! TO.P,U5,4*
G04 #@! TO.N,/BUSTXD*
X105667000Y-101155000D03*
G04 #@! TO.P,U5,3*
G04 #@! TO.N,/BUSTXDEN*
X105667000Y-99885000D03*
G04 #@! TO.P,U5,2*
X105667000Y-98615000D03*
G04 #@! TO.P,U5,5*
G04 #@! TO.N,GND*
X100333000Y-101155000D03*
G04 #@! TO.P,U5,6*
G04 #@! TO.N,/A*
X100333000Y-99885000D03*
G04 #@! TO.P,U5,7*
G04 #@! TO.N,/B*
X100333000Y-98615000D03*
G04 #@! TO.P,U5,1*
G04 #@! TO.N,/BUSRXD*
X105667000Y-97345000D03*
G04 #@! TO.P,U5,8*
G04 #@! TO.N,+3.3V*
X100333000Y-97345000D03*
G04 #@! TD*
D14*
G04 #@! TO.P,J8,1*
G04 #@! TO.N,GND*
X87170000Y-89352500D03*
G04 #@! TD*
G04 #@! TO.P,J7,1*
G04 #@! TO.N,/B*
X87170000Y-95152500D03*
G04 #@! TD*
G04 #@! TO.P,J6,1*
G04 #@! TO.N,/A*
X87170000Y-100952500D03*
G04 #@! TD*
G04 #@! TO.P,J5,1*
G04 #@! TO.N,+24V*
X87170000Y-106652500D03*
G04 #@! TD*
D15*
G04 #@! TO.P,U6,4*
G04 #@! TO.N,+3.3V*
X100762000Y-109803500D03*
G04 #@! TO.P,U6,3*
G04 #@! TO.N,GND*
X98222000Y-109803500D03*
G04 #@! TO.P,U6,2*
G04 #@! TO.N,Net-(F1-Pad1)*
X95682000Y-109803500D03*
D16*
G04 #@! TO.P,U6,1*
G04 #@! TO.N,GND*
X93142000Y-109803500D03*
G04 #@! TD*
D17*
G04 #@! TO.P,C9,2*
G04 #@! TO.N,GND*
X105166360Y-111327500D03*
G04 #@! TO.P,C9,1*
G04 #@! TO.N,+3.3V*
X109565640Y-111327500D03*
G04 #@! TD*
D18*
G04 #@! TO.P,C10,2*
G04 #@! TO.N,+3.3V*
X100317500Y-95071500D03*
G04 #@! TO.P,C10,1*
G04 #@! TO.N,GND*
X102222500Y-95071500D03*
G04 #@! TD*
D19*
G04 #@! TO.P,C11,2*
G04 #@! TO.N,+3.3V*
X92126000Y-100850000D03*
G04 #@! TO.P,C11,1*
G04 #@! TO.N,GND*
X92126000Y-98945000D03*
G04 #@! TD*
D20*
G04 #@! TO.P,J1,1*
G04 #@! TO.N,GND*
X88570000Y-83387500D03*
D21*
G04 #@! TO.P,J1,2*
X88570000Y-80847500D03*
G04 #@! TO.P,J1,3*
G04 #@! TO.N,+24V*
X91110000Y-83387500D03*
G04 #@! TO.P,J1,4*
X91110000Y-80847500D03*
G04 #@! TO.P,J1,5*
G04 #@! TO.N,/PC1*
X93650000Y-83387500D03*
G04 #@! TO.P,J1,6*
G04 #@! TO.N,/PC0*
X93650000Y-80847500D03*
G04 #@! TO.P,J1,7*
G04 #@! TO.N,/PC3*
X96190000Y-83387500D03*
G04 #@! TO.P,J1,8*
G04 #@! TO.N,/PC2*
X96190000Y-80847500D03*
G04 #@! TO.P,J1,9*
G04 #@! TO.N,/PC5*
X98730000Y-83387500D03*
G04 #@! TO.P,J1,10*
G04 #@! TO.N,/PC4*
X98730000Y-80847500D03*
G04 #@! TO.P,J1,11*
G04 #@! TO.N,/PC7*
X101270000Y-83387500D03*
G04 #@! TO.P,J1,12*
G04 #@! TO.N,/PC6*
X101270000Y-80847500D03*
D22*
G04 #@! TO.P,J1,13*
G04 #@! TO.N,/PD3*
X103810000Y-83387500D03*
G04 #@! TO.P,J1,14*
G04 #@! TO.N,/PD2*
X103810000Y-80847500D03*
G04 #@! TO.P,J1,15*
G04 #@! TO.N,/PD6*
X106350000Y-83387500D03*
G04 #@! TO.P,J1,16*
G04 #@! TO.N,/PD5*
X106350000Y-80847500D03*
G04 #@! TO.P,J1,17*
G04 #@! TO.N,/BUSRXD*
X108890000Y-83387500D03*
G04 #@! TO.P,J1,18*
G04 #@! TO.N,/PD7*
X108890000Y-80847500D03*
G04 #@! TO.P,J1,19*
G04 #@! TO.N,/BUSTXDEN*
X111430000Y-83387500D03*
G04 #@! TO.P,J1,20*
G04 #@! TO.N,/BUSTXD*
X111430000Y-80847500D03*
G04 #@! TD*
D20*
G04 #@! TO.P,J2,1*
G04 #@! TO.N,GND*
X88570000Y-118947500D03*
D21*
G04 #@! TO.P,J2,2*
X88570000Y-116407500D03*
G04 #@! TO.P,J2,3*
G04 #@! TO.N,+3.3V*
X91110000Y-118947500D03*
G04 #@! TO.P,J2,4*
G04 #@! TO.N,/AVCC*
X91110000Y-116407500D03*
G04 #@! TO.P,J2,5*
G04 #@! TO.N,/AREF*
X93650000Y-118947500D03*
G04 #@! TO.P,J2,6*
G04 #@! TO.N,/PA7*
X93650000Y-116407500D03*
G04 #@! TO.P,J2,7*
G04 #@! TO.N,/PA6*
X96190000Y-118947500D03*
G04 #@! TO.P,J2,8*
G04 #@! TO.N,/PA5*
X96190000Y-116407500D03*
G04 #@! TO.P,J2,9*
G04 #@! TO.N,/PA4*
X98730000Y-118947500D03*
G04 #@! TO.P,J2,10*
G04 #@! TO.N,/PA3*
X98730000Y-116407500D03*
G04 #@! TO.P,J2,11*
G04 #@! TO.N,/PA2*
X101270000Y-118947500D03*
G04 #@! TO.P,J2,12*
G04 #@! TO.N,/PA1*
X101270000Y-116407500D03*
D22*
G04 #@! TO.P,J2,13*
G04 #@! TO.N,/PA0*
X103810000Y-118947500D03*
G04 #@! TO.P,J2,14*
G04 #@! TO.N,/PB0*
X103810000Y-116407500D03*
G04 #@! TO.P,J2,15*
G04 #@! TO.N,/PB1*
X106350000Y-118947500D03*
G04 #@! TO.P,J2,16*
G04 #@! TO.N,/PB2*
X106350000Y-116407500D03*
G04 #@! TO.P,J2,17*
G04 #@! TO.N,/PB3*
X108890000Y-118947500D03*
G04 #@! TO.P,J2,18*
G04 #@! TO.N,/MOSI*
X108890000Y-116407500D03*
G04 #@! TO.P,J2,19*
G04 #@! TO.N,/MISO*
X111430000Y-118947500D03*
G04 #@! TO.P,J2,20*
G04 #@! TO.N,/SCK*
X111430000Y-116407500D03*
G04 #@! TD*
D23*
G04 #@! TO.P,H1,1*
G04 #@! TO.N,N/C*
X110500000Y-105000000D03*
G04 #@! TD*
D24*
G04 #@! TO.N,GND*
X94000000Y-106200000D03*
X86030000Y-98119500D03*
X104577561Y-109750000D03*
X99238000Y-87451500D03*
X89000000Y-92400000D03*
X102600000Y-103800000D03*
X104500000Y-95750000D03*
G04 #@! TO.N,+3.3V*
X101263851Y-113328273D03*
X109144000Y-112343500D03*
X108128000Y-112343500D03*
X88062000Y-113359500D03*
X98477812Y-96409113D03*
X91500000Y-101750000D03*
D25*
G04 #@! TO.N,/AVCC*
X90475000Y-107771500D03*
X89713000Y-110184500D03*
G04 #@! TO.N,/PB0*
X105767337Y-105448502D03*
G04 #@! TO.N,/PB1*
X106604000Y-105231500D03*
G04 #@! TO.N,/PB2*
X106858000Y-104469500D03*
G04 #@! TO.N,/PB3*
X107112000Y-103707500D03*
G04 #@! TO.N,/MOSI*
X113011957Y-97446698D03*
G04 #@! TO.N,/MISO*
X111349980Y-95858766D03*
X113442106Y-107607515D03*
G04 #@! TO.N,/SCK*
X110017980Y-94561432D03*
G04 #@! TO.N,/PC1*
X90591592Y-95209802D03*
G04 #@! TO.N,/PC0*
X90136050Y-94448450D03*
G04 #@! TO.N,/PC3*
X91757407Y-97852986D03*
G04 #@! TO.N,/PC2*
X90919248Y-96183783D03*
G04 #@! TO.N,/PC5*
X95091496Y-99691856D03*
G04 #@! TO.N,/PC4*
X94339784Y-100058048D03*
G04 #@! TO.N,/PC7*
X96641317Y-99175356D03*
G04 #@! TO.N,/PC6*
X95875842Y-99534311D03*
G04 #@! TO.N,/PD3*
X98455102Y-92341896D03*
G04 #@! TO.N,/PD2*
X101400000Y-91737011D03*
G04 #@! TO.N,/PD6*
X96858495Y-92817388D03*
G04 #@! TO.N,/PD5*
X97677415Y-92529569D03*
G04 #@! TO.N,/PD7*
X95987488Y-92981273D03*
G04 #@! TO.N,/TXD0EN*
X99500000Y-103750000D03*
G04 #@! TO.N,/RXD0*
X101250000Y-102500000D03*
G04 #@! TO.N,/TXD0*
X100000000Y-106250000D03*
D24*
G04 #@! TO.N,Net-(F1-Pad1)*
X85395000Y-104088500D03*
G04 #@! TD*
D26*
G04 #@! TO.N,+3.3V*
X101232624Y-113359500D02*
X101263851Y-113328273D01*
X88062000Y-113359500D02*
X101232624Y-113359500D01*
X109144000Y-112343500D02*
X108128000Y-112343500D01*
X109565640Y-111327500D02*
X109144000Y-111327500D01*
X109144000Y-111327500D02*
X108128000Y-112343500D01*
X100317500Y-95948525D02*
X100317500Y-96409113D01*
X100317500Y-96409113D02*
X99043497Y-96409113D01*
X99043497Y-96409113D02*
X98477812Y-96409113D01*
X100317500Y-94817500D02*
X100317500Y-95948525D01*
X100317500Y-95948525D02*
X100317500Y-97329500D01*
X100317500Y-97329500D02*
X100333000Y-97345000D01*
X91500000Y-100952500D02*
X91500000Y-101750000D01*
X91500000Y-101750000D02*
X92245000Y-102495000D01*
X91500000Y-100952500D02*
X91750000Y-100702500D01*
X92533000Y-102495000D02*
X92245000Y-102495000D01*
D27*
G04 #@! TO.N,/AVCC*
X90475000Y-107771500D02*
X89713000Y-108533500D01*
X89713000Y-108533500D02*
X89713000Y-110184500D01*
G04 #@! TO.N,/PB0*
X103810000Y-116407500D02*
X107303146Y-112914354D01*
X107303146Y-112914354D02*
X107303146Y-107130321D01*
X107303146Y-107130321D02*
X105872750Y-105699925D01*
X105872750Y-105699925D02*
X105872750Y-105553915D01*
X105872750Y-105553915D02*
X105767337Y-105448502D01*
X103810000Y-116407500D02*
X103827541Y-116389959D01*
G04 #@! TO.N,/PB1*
X105237999Y-115873739D02*
X107866329Y-113245409D01*
X111850208Y-112568499D02*
X111850208Y-110431906D01*
X105237999Y-117835499D02*
X105237999Y-115873739D01*
X111173298Y-113245409D02*
X111850208Y-112568499D01*
X106350000Y-118947500D02*
X105237999Y-117835499D01*
X107866329Y-113245409D02*
X111173298Y-113245409D01*
X111850208Y-110431906D02*
X111166347Y-109748045D01*
X111166347Y-109748045D02*
X110696281Y-109748045D01*
X110696281Y-109748045D02*
X106604000Y-105655764D01*
X106604000Y-105655764D02*
X106604000Y-105231500D01*
X106295049Y-118892549D02*
X106350000Y-118947500D01*
G04 #@! TO.N,/PB2*
X107157999Y-104769499D02*
X106858000Y-104469500D01*
X107288742Y-105603866D02*
X107288742Y-104900242D01*
X107288742Y-104900242D02*
X107157999Y-104769499D01*
X112350218Y-110224794D02*
X111373458Y-109248034D01*
X111380410Y-113745419D02*
X112350219Y-112775610D01*
X109012080Y-113745420D02*
X111380410Y-113745419D01*
X111373458Y-109248034D02*
X110932910Y-109248034D01*
X106350000Y-116407500D02*
X109012080Y-113745420D01*
X112350219Y-112775610D02*
X112350218Y-110224794D01*
X110932910Y-109248034D02*
X107288742Y-105603866D01*
G04 #@! TO.N,/PB3*
X108890000Y-118947500D02*
X107777999Y-117835499D01*
X112850228Y-110017682D02*
X109932547Y-107100001D01*
X112850229Y-112982720D02*
X112850228Y-110017682D01*
X107777999Y-117835499D02*
X107777999Y-115940623D01*
X107788753Y-105396755D02*
X107788753Y-104384253D01*
X109491999Y-107100001D02*
X107788753Y-105396755D01*
X109932547Y-107100001D02*
X109491999Y-107100001D01*
X107777999Y-115940623D02*
X109473193Y-114245429D01*
X111587522Y-114245429D02*
X112850229Y-112982720D01*
X107788753Y-104384253D02*
X107411999Y-104007499D01*
X107411999Y-104007499D02*
X107112000Y-103707500D01*
X109473193Y-114245429D02*
X111587522Y-114245429D01*
G04 #@! TO.N,/MOSI*
X113350240Y-109810568D02*
X113350240Y-108257516D01*
X108890000Y-116407500D02*
X110552060Y-114745440D01*
X110552060Y-114745440D02*
X111794629Y-114745440D01*
X113350239Y-113189830D02*
X113350238Y-109810570D01*
X113384987Y-106957514D02*
X113589468Y-106753033D01*
X111794629Y-114745440D02*
X113350239Y-113189830D01*
X113350238Y-109810570D02*
X113350240Y-109810568D01*
X113130105Y-106957514D02*
X113384987Y-106957514D01*
X112792105Y-107295514D02*
X113130105Y-106957514D01*
X112792105Y-107919516D02*
X112792105Y-107295514D01*
X113350240Y-108257516D02*
X113130105Y-108257516D01*
X113130105Y-108257516D02*
X112792105Y-107919516D01*
X113589468Y-106753033D02*
X113589468Y-98024209D01*
X113589468Y-98024209D02*
X113011957Y-97446698D01*
G04 #@! TO.N,/MISO*
X111774244Y-95858766D02*
X111349980Y-95858766D01*
X114089478Y-106960143D02*
X114089478Y-97409531D01*
X113442106Y-107607515D02*
X114089478Y-106960143D01*
X112538713Y-95858766D02*
X111774244Y-95858766D01*
X114089478Y-97409531D02*
X112538713Y-95858766D01*
X113508616Y-107607515D02*
X113442106Y-107607515D01*
X112001739Y-115245451D02*
X113850250Y-113396940D01*
X110949217Y-115245451D02*
X112001739Y-115245451D01*
X110317999Y-115876669D02*
X110949217Y-115245451D01*
X110317999Y-117835499D02*
X110317999Y-115876669D01*
X111430000Y-118947500D02*
X110317999Y-117835499D01*
X113850250Y-113396940D02*
X113850250Y-107949149D01*
X113850250Y-107949149D02*
X113508616Y-107607515D01*
G04 #@! TO.N,/SCK*
X110442244Y-94561432D02*
X110017980Y-94561432D01*
X114589488Y-96389488D02*
X112761432Y-94561432D01*
X112507630Y-116407500D02*
X114589488Y-114325642D01*
X112761432Y-94561432D02*
X110442244Y-94561432D01*
X114589488Y-114325642D02*
X114589488Y-96389488D01*
X111430000Y-116407500D02*
X112507630Y-116407500D01*
G04 #@! TO.N,/PC1*
X93650000Y-87963403D02*
X90863238Y-90750165D01*
X93650000Y-83387500D02*
X93650000Y-87963403D01*
X90863238Y-90750165D02*
X90863238Y-94938156D01*
X90863238Y-94938156D02*
X90591592Y-95209802D01*
X93650000Y-83036398D02*
X93650000Y-83450291D01*
X93650000Y-82770000D02*
X93650000Y-83036398D01*
G04 #@! TO.N,/PC0*
X93650000Y-80847500D02*
X92380000Y-82117500D01*
X92380000Y-82117500D02*
X92380000Y-88418840D01*
X92380000Y-88418840D02*
X90136050Y-90662790D01*
X90136050Y-90662790D02*
X90136050Y-94024186D01*
X90136050Y-94024186D02*
X90136050Y-94448450D01*
G04 #@! TO.N,/PC3*
X91879989Y-97306140D02*
X91757407Y-97428722D01*
X91757407Y-97428722D02*
X91757407Y-97852986D01*
X96190000Y-86837647D02*
X91879989Y-91147658D01*
X96190000Y-83387500D02*
X96190000Y-86837647D01*
X91879989Y-91147658D02*
X91879989Y-97306140D01*
X96190000Y-82770000D02*
X96190000Y-83901512D01*
G04 #@! TO.N,/PC2*
X96190000Y-80847500D02*
X94920000Y-82117500D01*
X91379978Y-95723053D02*
X91219247Y-95883784D01*
X91379978Y-90940547D02*
X91379978Y-95723053D01*
X94920000Y-87400525D02*
X91379978Y-90940547D01*
X94920000Y-82117500D02*
X94920000Y-87400525D01*
X91219247Y-95883784D02*
X90919248Y-96183783D01*
G04 #@! TO.N,/PC5*
X95091496Y-99267592D02*
X95091496Y-99691856D01*
X95091496Y-96004996D02*
X95091496Y-99267592D01*
X92888001Y-93801501D02*
X95091496Y-96004996D01*
X98730000Y-83387500D02*
X98730000Y-85435254D01*
X98730000Y-85435254D02*
X97487977Y-86677277D01*
X92888001Y-91553890D02*
X92888001Y-93801501D01*
X97487977Y-86953914D02*
X92888001Y-91553890D01*
X97487977Y-86677277D02*
X97487977Y-86953914D01*
G04 #@! TO.N,/PC4*
X94339784Y-99633784D02*
X94339784Y-100058048D01*
X94339784Y-95960406D02*
X94339784Y-99633784D01*
X97460000Y-82117500D02*
X97460000Y-85998132D01*
X98730000Y-80847500D02*
X97460000Y-82117500D01*
X97460000Y-85998132D02*
X96987966Y-86470166D01*
X96987966Y-86470166D02*
X96987966Y-86746803D01*
X92387990Y-91346779D02*
X92387991Y-94008613D01*
X92387991Y-94008613D02*
X94339784Y-95960406D01*
X96987966Y-86746803D02*
X92387990Y-91346779D01*
G04 #@! TO.N,/PC7*
X98487999Y-87368136D02*
X94070012Y-91786123D01*
X94070012Y-93569266D02*
X96641317Y-96140571D01*
X96641317Y-96140571D02*
X96641317Y-98751092D01*
X96641317Y-98751092D02*
X96641317Y-99175356D01*
X94070012Y-91786123D02*
X94070012Y-93569266D01*
X101270000Y-83387500D02*
X101270000Y-84309498D01*
X101270000Y-84309498D02*
X98487999Y-87091499D01*
X98487999Y-87091499D02*
X98487999Y-87368136D01*
G04 #@! TO.N,/PC6*
X95875842Y-96082218D02*
X95875842Y-99110047D01*
X95875842Y-99110047D02*
X95875842Y-99534311D01*
X93570002Y-93776378D02*
X95875842Y-96082218D01*
X93570001Y-91579012D02*
X93570002Y-93776378D01*
X97987988Y-86884388D02*
X97987988Y-87161025D01*
X100119899Y-84752477D02*
X97987988Y-86884388D01*
X100119899Y-81997601D02*
X100119899Y-84752477D01*
X101270000Y-80847500D02*
X100119899Y-81997601D01*
X97987988Y-87161025D02*
X93570001Y-91579012D01*
G04 #@! TO.N,/PD3*
X103810000Y-82770000D02*
X103810000Y-91689559D01*
X103810000Y-91689559D02*
X103250000Y-92249559D01*
X102990458Y-92509542D02*
X98619860Y-92509542D01*
X103250000Y-92249559D02*
X103250000Y-92250000D01*
X103250000Y-92250000D02*
X102990458Y-92509542D01*
X98619860Y-92509542D02*
X98455102Y-92344784D01*
X98455102Y-92344784D02*
X98455102Y-92341896D01*
G04 #@! TO.N,/PD2*
X102600000Y-90537011D02*
X102600000Y-82057500D01*
X102600000Y-82057500D02*
X103810000Y-80847500D01*
X101699999Y-91437012D02*
X101400000Y-91737011D01*
X102600000Y-90537011D02*
X101699999Y-91437012D01*
G04 #@! TO.N,/PD6*
X97550671Y-93509564D02*
X97158494Y-93117387D01*
X105250000Y-84487500D02*
X105250000Y-92500000D01*
X105250000Y-92500000D02*
X104240436Y-93509564D01*
X106350000Y-83387500D02*
X105250000Y-84487500D01*
X97158494Y-93117387D02*
X96858495Y-92817388D01*
X104240436Y-93509564D02*
X97550671Y-93509564D01*
X106350000Y-82770000D02*
X106350000Y-83900000D01*
G04 #@! TO.N,/PD5*
X98157399Y-93009553D02*
X97977414Y-92829568D01*
X103197569Y-93009553D02*
X98157399Y-93009553D01*
X105237999Y-81959501D02*
X105237999Y-83605263D01*
X105237999Y-83605263D02*
X104500000Y-84343262D01*
X97977414Y-92829568D02*
X97677415Y-92529569D01*
X104500000Y-91707122D02*
X103197569Y-93009553D01*
X106350000Y-80847500D02*
X105237999Y-81959501D01*
X104500000Y-84343262D02*
X104500000Y-91707122D01*
G04 #@! TO.N,/BUSRXD*
X108890000Y-82770000D02*
X108890000Y-83610000D01*
X108890000Y-83610000D02*
X106750000Y-85750000D01*
X106750000Y-96262000D02*
X105667000Y-97345000D01*
X106750000Y-85750000D02*
X106750000Y-96262000D01*
G04 #@! TO.N,/PD7*
X96287487Y-93281272D02*
X95987488Y-92981273D01*
X106000000Y-93000000D02*
X104990425Y-94009575D01*
X97015790Y-94009575D02*
X96287487Y-93281272D01*
X106000000Y-85500000D02*
X106000000Y-93000000D01*
X107500000Y-82250000D02*
X107500000Y-84000000D01*
X108890000Y-80860000D02*
X107500000Y-82250000D01*
X104990425Y-94009575D02*
X97015790Y-94009575D01*
X107500000Y-84000000D02*
X106000000Y-85500000D01*
G04 #@! TO.N,/BUSTXD*
X105667000Y-101155000D02*
X106345000Y-101155000D01*
X106345000Y-101155000D02*
X107500000Y-100000000D01*
X110183190Y-83823976D02*
X110183190Y-82094310D01*
X107500000Y-100000000D02*
X107500000Y-86507166D01*
X107500000Y-86507166D02*
X110183190Y-83823976D01*
X110183190Y-82094310D02*
X110668001Y-81609499D01*
X110668001Y-81609499D02*
X111430000Y-80847500D01*
X111430000Y-80230000D02*
X111430000Y-80320000D01*
G04 #@! TO.N,/TXD0EN*
X97867000Y-103765000D02*
X97867000Y-105035000D01*
X99500000Y-103750000D02*
X99485000Y-103765000D01*
X99485000Y-103765000D02*
X97867000Y-103765000D01*
G04 #@! TO.N,/RXD0*
X101250000Y-102500000D02*
X101245000Y-102495000D01*
X101245000Y-102495000D02*
X97867000Y-102495000D01*
G04 #@! TO.N,/TXD0*
X97867000Y-106305000D02*
X99945000Y-106305000D01*
X99945000Y-106305000D02*
X100000000Y-106250000D01*
G04 #@! TO.N,/BUSTXDEN*
X111430000Y-82770000D02*
X111430000Y-83070000D01*
X105667000Y-99885000D02*
X105667000Y-98615000D01*
X104500000Y-100500000D02*
X105115000Y-99885000D01*
X104500000Y-102000000D02*
X104500000Y-100500000D01*
X104750000Y-102250000D02*
X104500000Y-102000000D01*
X106500000Y-102250000D02*
X104750000Y-102250000D01*
X111430000Y-83387500D02*
X111430000Y-83727500D01*
X111430000Y-83727500D02*
X108250000Y-86907500D01*
X108250000Y-86907500D02*
X108250000Y-100500000D01*
X105115000Y-99885000D02*
X105667000Y-99885000D01*
X108250000Y-100500000D02*
X106500000Y-102250000D01*
G04 #@! TO.N,/A*
X92533000Y-105035000D02*
X91237000Y-105035000D01*
X91237000Y-105035000D02*
X87551000Y-101349000D01*
X87170000Y-101603000D02*
X87170000Y-100952500D01*
X92285000Y-105035000D02*
X92533000Y-105035000D01*
X100015500Y-99885000D02*
X100333000Y-99885000D01*
X97229818Y-101520182D02*
X98380318Y-101520182D01*
X93715000Y-105035000D02*
X97229818Y-101520182D01*
X92533000Y-105035000D02*
X93715000Y-105035000D01*
X98380318Y-101520182D02*
X100015500Y-99885000D01*
G04 #@! TO.N,/B*
X92533000Y-103765000D02*
X91872000Y-103765000D01*
X89713000Y-97611500D02*
X87254000Y-95152500D01*
X89713000Y-101606000D02*
X89713000Y-97611500D01*
X91872000Y-103765000D02*
X89713000Y-101606000D01*
X87254000Y-95152500D02*
X87170000Y-95152500D01*
X92533000Y-103765000D02*
X92215500Y-103765000D01*
X92533000Y-103765000D02*
X92985000Y-103765000D01*
X92985000Y-103765000D02*
X95729829Y-101020171D01*
X95729829Y-101020171D02*
X96676012Y-101020171D01*
X100316025Y-98631975D02*
X100333000Y-98615000D01*
X96676012Y-101020171D02*
X99064208Y-98631975D01*
X99064208Y-98631975D02*
X100316025Y-98631975D01*
D26*
G04 #@! TO.N,Net-(F1-Pad1)*
X95682000Y-109803500D02*
X95682000Y-108533500D01*
X87935000Y-104088500D02*
X85395000Y-104088500D01*
X95682000Y-108533500D02*
X94920000Y-107771500D01*
X94920000Y-107771500D02*
X91618000Y-107771500D01*
X91618000Y-107771500D02*
X87935000Y-104088500D01*
G04 #@! TD*
D28*
G04 #@! TO.N,GND*
G36*
X110443487Y-78114444D02*
X113332872Y-79920310D01*
X112852500Y-79920310D01*
X112852500Y-84984691D01*
X112874746Y-84984691D01*
X112600985Y-85098087D01*
X112503161Y-85296055D01*
X113290000Y-86082895D01*
X114076839Y-85296055D01*
X113979015Y-85098087D01*
X113656364Y-84984691D01*
X114373000Y-84984691D01*
X114373000Y-85533256D01*
X114256445Y-85475661D01*
X113469605Y-86262500D01*
X114256445Y-87049339D01*
X114373000Y-86991744D01*
X114373000Y-88073893D01*
X114015628Y-87716521D01*
X113647735Y-87564134D01*
X113979015Y-87426913D01*
X114076839Y-87228945D01*
X113290000Y-86442105D01*
X112503161Y-87228945D01*
X112600985Y-87426913D01*
X112959421Y-87552886D01*
X112564372Y-87716521D01*
X112204021Y-88076872D01*
X112020000Y-88521137D01*
X111835979Y-88076872D01*
X111475628Y-87716521D01*
X111031363Y-87532500D01*
X111475628Y-87348479D01*
X111835979Y-86988128D01*
X111988366Y-86620235D01*
X112125587Y-86951515D01*
X112323555Y-87049339D01*
X113110395Y-86262500D01*
X112323555Y-85475661D01*
X112125587Y-85573485D01*
X111999614Y-85931921D01*
X111835979Y-85536872D01*
X111475628Y-85176521D01*
X111004807Y-84981500D01*
X110926948Y-84981500D01*
X111377948Y-84530500D01*
X111657357Y-84530500D01*
X112077458Y-84356489D01*
X112398989Y-84034958D01*
X112573000Y-83614857D01*
X112573000Y-83160143D01*
X112398989Y-82740042D01*
X112077458Y-82418511D01*
X111657357Y-82244500D01*
X111509944Y-82244500D01*
X111430000Y-82228598D01*
X111350056Y-82244500D01*
X111202643Y-82244500D01*
X110782542Y-82418511D01*
X110714190Y-82486863D01*
X110714190Y-82314257D01*
X111086185Y-81942262D01*
X111202643Y-81990500D01*
X111657357Y-81990500D01*
X112077458Y-81816489D01*
X112398989Y-81494958D01*
X112573000Y-81074857D01*
X112573000Y-80620143D01*
X112398989Y-80200042D01*
X112077458Y-79878511D01*
X111657357Y-79704500D01*
X111509944Y-79704500D01*
X111430000Y-79688598D01*
X111350056Y-79704500D01*
X111202643Y-79704500D01*
X110782542Y-79878511D01*
X110461011Y-80200042D01*
X110287000Y-80620143D01*
X110287000Y-81074857D01*
X110335238Y-81191315D01*
X109844693Y-81681860D01*
X109800362Y-81711481D01*
X109770741Y-81755812D01*
X109770739Y-81755814D01*
X109683000Y-81887125D01*
X109641789Y-82094310D01*
X109652191Y-82146605D01*
X109652191Y-82533244D01*
X109537458Y-82418511D01*
X109117357Y-82244500D01*
X108969944Y-82244500D01*
X108890000Y-82228598D01*
X108810056Y-82244500D01*
X108662643Y-82244500D01*
X108242542Y-82418511D01*
X108031000Y-82630053D01*
X108031000Y-82469947D01*
X108555024Y-81945923D01*
X108662643Y-81990500D01*
X109117357Y-81990500D01*
X109537458Y-81816489D01*
X109858989Y-81494958D01*
X110033000Y-81074857D01*
X110033000Y-80620143D01*
X109858989Y-80200042D01*
X109537458Y-79878511D01*
X109117357Y-79704500D01*
X108662643Y-79704500D01*
X108242542Y-79878511D01*
X107921011Y-80200042D01*
X107747000Y-80620143D01*
X107747000Y-81074857D01*
X107798899Y-81200153D01*
X107161505Y-81837548D01*
X107117171Y-81867171D01*
X106999810Y-82042815D01*
X106969000Y-82197707D01*
X106969000Y-82197710D01*
X106958599Y-82250000D01*
X106969000Y-82302290D01*
X106969000Y-82406723D01*
X106577357Y-82244500D01*
X106429944Y-82244500D01*
X106350000Y-82228598D01*
X106270056Y-82244500D01*
X106122643Y-82244500D01*
X105768999Y-82390984D01*
X105768999Y-82179448D01*
X106006185Y-81942262D01*
X106122643Y-81990500D01*
X106577357Y-81990500D01*
X106997458Y-81816489D01*
X107318989Y-81494958D01*
X107493000Y-81074857D01*
X107493000Y-80620143D01*
X107318989Y-80200042D01*
X106997458Y-79878511D01*
X106577357Y-79704500D01*
X106122643Y-79704500D01*
X105702542Y-79878511D01*
X105381011Y-80200042D01*
X105207000Y-80620143D01*
X105207000Y-81074857D01*
X105255238Y-81191315D01*
X104899504Y-81547049D01*
X104855170Y-81576672D01*
X104737809Y-81752316D01*
X104706999Y-81907208D01*
X104706999Y-81907211D01*
X104696598Y-81959501D01*
X104706999Y-82011791D01*
X104706999Y-82668052D01*
X104457458Y-82418511D01*
X104037357Y-82244500D01*
X103889944Y-82244500D01*
X103810000Y-82228598D01*
X103730056Y-82244500D01*
X103582643Y-82244500D01*
X103162542Y-82418511D01*
X103131000Y-82450053D01*
X103131000Y-82277447D01*
X103466185Y-81942262D01*
X103582643Y-81990500D01*
X104037357Y-81990500D01*
X104457458Y-81816489D01*
X104778989Y-81494958D01*
X104953000Y-81074857D01*
X104953000Y-80620143D01*
X104778989Y-80200042D01*
X104457458Y-79878511D01*
X104037357Y-79704500D01*
X103582643Y-79704500D01*
X103162542Y-79878511D01*
X102841011Y-80200042D01*
X102667000Y-80620143D01*
X102667000Y-81074857D01*
X102715238Y-81191315D01*
X102261503Y-81645050D01*
X102217172Y-81674671D01*
X102187551Y-81719002D01*
X102187549Y-81719004D01*
X102099810Y-81850315D01*
X102058599Y-82057500D01*
X102069001Y-82109795D01*
X102069001Y-82516174D01*
X101939039Y-82386212D01*
X101504935Y-82206400D01*
X101035065Y-82206400D01*
X100650899Y-82365527D01*
X100650899Y-82217548D01*
X100897025Y-81971422D01*
X101035065Y-82028600D01*
X101504935Y-82028600D01*
X101939039Y-81848788D01*
X102271288Y-81516539D01*
X102451100Y-81082435D01*
X102451100Y-80612565D01*
X102271288Y-80178461D01*
X101939039Y-79846212D01*
X101504935Y-79666400D01*
X101035065Y-79666400D01*
X100600961Y-79846212D01*
X100268712Y-80178461D01*
X100088900Y-80612565D01*
X100088900Y-81082435D01*
X100146078Y-81220475D01*
X99781404Y-81585149D01*
X99737070Y-81614772D01*
X99619709Y-81790416D01*
X99588899Y-81945308D01*
X99588899Y-81945311D01*
X99578498Y-81997601D01*
X99588899Y-82049891D01*
X99588899Y-82576072D01*
X99399039Y-82386212D01*
X98964935Y-82206400D01*
X98495065Y-82206400D01*
X98060961Y-82386212D01*
X97991000Y-82456173D01*
X97991000Y-82337447D01*
X98357025Y-81971422D01*
X98495065Y-82028600D01*
X98964935Y-82028600D01*
X99399039Y-81848788D01*
X99731288Y-81516539D01*
X99911100Y-81082435D01*
X99911100Y-80612565D01*
X99731288Y-80178461D01*
X99399039Y-79846212D01*
X98964935Y-79666400D01*
X98495065Y-79666400D01*
X98060961Y-79846212D01*
X97728712Y-80178461D01*
X97548900Y-80612565D01*
X97548900Y-81082435D01*
X97606078Y-81220475D01*
X97121505Y-81705048D01*
X97077171Y-81734671D01*
X96959810Y-81910315D01*
X96929000Y-82065207D01*
X96929000Y-82065210D01*
X96918599Y-82117500D01*
X96929000Y-82169790D01*
X96929000Y-82456173D01*
X96859039Y-82386212D01*
X96424935Y-82206400D01*
X95955065Y-82206400D01*
X95520961Y-82386212D01*
X95451000Y-82456173D01*
X95451000Y-82337447D01*
X95817025Y-81971422D01*
X95955065Y-82028600D01*
X96424935Y-82028600D01*
X96859039Y-81848788D01*
X97191288Y-81516539D01*
X97371100Y-81082435D01*
X97371100Y-80612565D01*
X97191288Y-80178461D01*
X96859039Y-79846212D01*
X96424935Y-79666400D01*
X95955065Y-79666400D01*
X95520961Y-79846212D01*
X95188712Y-80178461D01*
X95008900Y-80612565D01*
X95008900Y-81082435D01*
X95066078Y-81220475D01*
X94581505Y-81705048D01*
X94537171Y-81734671D01*
X94419810Y-81910315D01*
X94389000Y-82065207D01*
X94389000Y-82065210D01*
X94378599Y-82117500D01*
X94389000Y-82169790D01*
X94389000Y-82456173D01*
X94319039Y-82386212D01*
X93884935Y-82206400D01*
X93415065Y-82206400D01*
X92980961Y-82386212D01*
X92911000Y-82456173D01*
X92911000Y-82337447D01*
X93277025Y-81971422D01*
X93415065Y-82028600D01*
X93884935Y-82028600D01*
X94319039Y-81848788D01*
X94651288Y-81516539D01*
X94831100Y-81082435D01*
X94831100Y-80612565D01*
X94651288Y-80178461D01*
X94319039Y-79846212D01*
X93884935Y-79666400D01*
X93415065Y-79666400D01*
X92980961Y-79846212D01*
X92648712Y-80178461D01*
X92468900Y-80612565D01*
X92468900Y-81082435D01*
X92526078Y-81220475D01*
X92041505Y-81705048D01*
X91997171Y-81734671D01*
X91879810Y-81910315D01*
X91849000Y-82065207D01*
X91849000Y-82065210D01*
X91838599Y-82117500D01*
X91849000Y-82169790D01*
X91849000Y-82456173D01*
X91779039Y-82386212D01*
X91344935Y-82206400D01*
X90875065Y-82206400D01*
X90440961Y-82386212D01*
X90108712Y-82718461D01*
X89928900Y-83152565D01*
X89928900Y-83622435D01*
X90108712Y-84056539D01*
X90440961Y-84388788D01*
X90875065Y-84568600D01*
X91344935Y-84568600D01*
X91779039Y-84388788D01*
X91849000Y-84318827D01*
X91849001Y-88198892D01*
X89797555Y-90250338D01*
X89753221Y-90279961D01*
X89635860Y-90455605D01*
X89605050Y-90610497D01*
X89605050Y-90610500D01*
X89594649Y-90662790D01*
X89605050Y-90715080D01*
X89605051Y-93971888D01*
X89605050Y-93971893D01*
X89605050Y-94016370D01*
X89558726Y-94062694D01*
X89455050Y-94312991D01*
X89455050Y-94583909D01*
X89558726Y-94834206D01*
X89750294Y-95025774D01*
X89910592Y-95092171D01*
X89910592Y-95345261D01*
X90014268Y-95595558D01*
X90205836Y-95787126D01*
X90325849Y-95836837D01*
X90238248Y-96048324D01*
X90238248Y-96319242D01*
X90341924Y-96569539D01*
X90533492Y-96761107D01*
X90783789Y-96864783D01*
X91054707Y-96864783D01*
X91305004Y-96761107D01*
X91348990Y-96717121D01*
X91348990Y-97084188D01*
X91257217Y-97221537D01*
X91226407Y-97376429D01*
X91226407Y-97376432D01*
X91216006Y-97428722D01*
X91216435Y-97430878D01*
X91180083Y-97467230D01*
X91076407Y-97717527D01*
X91076407Y-97988445D01*
X91152348Y-98171783D01*
X91065507Y-98258624D01*
X91000500Y-98415565D01*
X91000500Y-98711250D01*
X91107250Y-98818000D01*
X91999000Y-98818000D01*
X91999000Y-98798000D01*
X92253000Y-98798000D01*
X92253000Y-98818000D01*
X93144750Y-98818000D01*
X93251500Y-98711250D01*
X93251500Y-98415565D01*
X93186493Y-98258624D01*
X93066376Y-98138507D01*
X92909436Y-98073500D01*
X92403176Y-98073500D01*
X92438407Y-97988445D01*
X92438407Y-97717527D01*
X92363910Y-97537674D01*
X92380179Y-97513326D01*
X92410989Y-97358434D01*
X92410989Y-97358431D01*
X92421390Y-97306141D01*
X92410989Y-97253851D01*
X92410989Y-94782558D01*
X93808784Y-96180354D01*
X93808785Y-99581486D01*
X93808784Y-99581491D01*
X93808784Y-99625968D01*
X93762460Y-99672292D01*
X93658784Y-99922589D01*
X93658784Y-100193507D01*
X93762460Y-100443804D01*
X93954028Y-100635372D01*
X94204325Y-100739048D01*
X94475243Y-100739048D01*
X94725540Y-100635372D01*
X94917108Y-100443804D01*
X94947893Y-100369483D01*
X94956037Y-100372856D01*
X95226955Y-100372856D01*
X95477252Y-100269180D01*
X95592412Y-100154020D01*
X95740383Y-100215311D01*
X96011301Y-100215311D01*
X96261598Y-100111635D01*
X96453166Y-99920067D01*
X96483408Y-99847057D01*
X96505858Y-99856356D01*
X96776776Y-99856356D01*
X97027073Y-99752680D01*
X97218641Y-99561112D01*
X97322317Y-99310815D01*
X97322317Y-99039897D01*
X97218641Y-98789600D01*
X97172317Y-98743276D01*
X97172317Y-96192860D01*
X97182718Y-96140570D01*
X97172317Y-96088278D01*
X97172317Y-96088277D01*
X97141507Y-95933385D01*
X97024146Y-95757742D01*
X96979812Y-95728119D01*
X94601012Y-93349319D01*
X94601012Y-92006070D01*
X98826497Y-87780586D01*
X98870828Y-87750965D01*
X98930797Y-87661215D01*
X98988189Y-87575322D01*
X99010489Y-87463213D01*
X99018999Y-87420429D01*
X99018999Y-87420427D01*
X99029400Y-87368137D01*
X99018999Y-87315847D01*
X99018999Y-87311446D01*
X101608495Y-84721950D01*
X101652829Y-84692327D01*
X101770190Y-84516684D01*
X101782753Y-84453524D01*
X101939039Y-84388788D01*
X102069001Y-84258826D01*
X102069000Y-90317064D01*
X101330053Y-91056011D01*
X101264541Y-91056011D01*
X101014244Y-91159687D01*
X100822676Y-91351255D01*
X100719000Y-91601552D01*
X100719000Y-91872470D01*
X100762936Y-91978542D01*
X99041705Y-91978542D01*
X99032426Y-91956140D01*
X98840858Y-91764572D01*
X98590561Y-91660896D01*
X98319643Y-91660896D01*
X98069346Y-91764572D01*
X97934832Y-91899086D01*
X97812874Y-91848569D01*
X97541956Y-91848569D01*
X97291659Y-91952245D01*
X97100091Y-92143813D01*
X97087173Y-92175000D01*
X96993954Y-92136388D01*
X96723036Y-92136388D01*
X96472739Y-92240064D01*
X96327713Y-92385090D01*
X96122947Y-92300273D01*
X95852029Y-92300273D01*
X95601732Y-92403949D01*
X95410164Y-92595517D01*
X95306488Y-92845814D01*
X95306488Y-93116732D01*
X95410164Y-93367029D01*
X95601732Y-93558597D01*
X95852029Y-93662273D01*
X95917541Y-93662273D01*
X96603340Y-94348073D01*
X96632961Y-94392404D01*
X96677292Y-94422025D01*
X96677293Y-94422026D01*
X96701149Y-94437966D01*
X96808604Y-94509765D01*
X96963496Y-94540575D01*
X96963500Y-94540575D01*
X97015790Y-94550976D01*
X97068080Y-94540575D01*
X99484536Y-94540575D01*
X99484536Y-95728113D01*
X98874584Y-95728113D01*
X98633163Y-95628113D01*
X98322461Y-95628113D01*
X98035411Y-95747013D01*
X97815712Y-95966712D01*
X97696812Y-96253762D01*
X97696812Y-96564464D01*
X97815712Y-96851514D01*
X98035411Y-97071213D01*
X98322461Y-97190113D01*
X98633163Y-97190113D01*
X98874584Y-97090113D01*
X99373212Y-97090113D01*
X99373036Y-97091000D01*
X99373036Y-97599000D01*
X99402606Y-97747659D01*
X99486814Y-97873686D01*
X99612841Y-97957894D01*
X99723976Y-97980000D01*
X99612841Y-98002106D01*
X99486814Y-98086314D01*
X99477018Y-98100975D01*
X99116497Y-98100975D01*
X99064207Y-98090574D01*
X99011917Y-98100975D01*
X99011914Y-98100975D01*
X98877569Y-98127698D01*
X98857022Y-98131785D01*
X98736462Y-98212341D01*
X98681379Y-98249146D01*
X98651758Y-98293477D01*
X96456065Y-100489171D01*
X95782118Y-100489171D01*
X95729828Y-100478770D01*
X95677538Y-100489171D01*
X95677535Y-100489171D01*
X95522643Y-100519981D01*
X95347000Y-100637342D01*
X95317378Y-100681675D01*
X93492964Y-102506089D01*
X93492964Y-102241000D01*
X93463394Y-102092341D01*
X93379186Y-101966314D01*
X93253159Y-101882106D01*
X93104500Y-101852536D01*
X92793801Y-101852536D01*
X92600069Y-101814000D01*
X92527079Y-101814000D01*
X92396043Y-101682964D01*
X92824500Y-101682964D01*
X92973159Y-101653394D01*
X93099186Y-101569186D01*
X93183394Y-101443159D01*
X93212964Y-101294500D01*
X93212964Y-100405500D01*
X93183394Y-100256841D01*
X93099186Y-100130814D01*
X92973159Y-100046606D01*
X92824500Y-100017036D01*
X91794621Y-100017036D01*
X91749999Y-100008160D01*
X91705377Y-100017036D01*
X91427500Y-100017036D01*
X91278841Y-100046606D01*
X91152814Y-100130814D01*
X91068606Y-100256841D01*
X91039036Y-100405500D01*
X91039036Y-100441476D01*
X91009027Y-100461528D01*
X90858513Y-100686788D01*
X90819000Y-100885432D01*
X90819000Y-100885435D01*
X90805660Y-100952500D01*
X90819000Y-101019565D01*
X90819000Y-101353228D01*
X90719000Y-101594649D01*
X90719000Y-101861053D01*
X90244000Y-101386053D01*
X90244000Y-99178750D01*
X91000500Y-99178750D01*
X91000500Y-99474435D01*
X91065507Y-99631376D01*
X91185624Y-99751493D01*
X91342564Y-99816500D01*
X91892250Y-99816500D01*
X91999000Y-99709750D01*
X91999000Y-99072000D01*
X92253000Y-99072000D01*
X92253000Y-99709750D01*
X92359750Y-99816500D01*
X92909436Y-99816500D01*
X93066376Y-99751493D01*
X93186493Y-99631376D01*
X93251500Y-99474435D01*
X93251500Y-99178750D01*
X93144750Y-99072000D01*
X92253000Y-99072000D01*
X91999000Y-99072000D01*
X91107250Y-99072000D01*
X91000500Y-99178750D01*
X90244000Y-99178750D01*
X90244000Y-97663789D01*
X90254401Y-97611499D01*
X90244000Y-97559209D01*
X90244000Y-97559206D01*
X90213190Y-97404314D01*
X90147593Y-97306141D01*
X90125451Y-97273003D01*
X90125450Y-97273002D01*
X90095829Y-97228671D01*
X90051498Y-97199050D01*
X88471522Y-95619075D01*
X88551000Y-95427198D01*
X88551000Y-94877802D01*
X88340755Y-94370227D01*
X87952273Y-93981745D01*
X87444698Y-93771500D01*
X86895302Y-93771500D01*
X86387727Y-93981745D01*
X85999245Y-94370227D01*
X85789000Y-94877802D01*
X85789000Y-95427198D01*
X85999245Y-95934773D01*
X86387727Y-96323255D01*
X86895302Y-96533500D01*
X87444698Y-96533500D01*
X87755368Y-96404816D01*
X89182001Y-97831449D01*
X89182000Y-101553710D01*
X89171599Y-101606000D01*
X89182000Y-101658290D01*
X89182000Y-101658293D01*
X89212810Y-101813185D01*
X89330171Y-101988829D01*
X89374505Y-102018452D01*
X91459550Y-104103498D01*
X91489171Y-104147829D01*
X91664814Y-104265190D01*
X91668227Y-104265869D01*
X91686814Y-104293686D01*
X91812841Y-104377894D01*
X91923976Y-104400000D01*
X91812841Y-104422106D01*
X91690277Y-104504000D01*
X91456948Y-104504000D01*
X88442379Y-101489432D01*
X88551000Y-101227198D01*
X88551000Y-100677802D01*
X88340755Y-100170227D01*
X87952273Y-99781745D01*
X87444698Y-99571500D01*
X86895302Y-99571500D01*
X86387727Y-99781745D01*
X85999245Y-100170227D01*
X85789000Y-100677802D01*
X85789000Y-101227198D01*
X85999245Y-101734773D01*
X86387727Y-102123255D01*
X86895302Y-102333500D01*
X87444698Y-102333500D01*
X87685011Y-102233959D01*
X90824550Y-105373498D01*
X90854171Y-105417829D01*
X90898502Y-105447450D01*
X90898503Y-105447451D01*
X90900893Y-105449048D01*
X91029814Y-105535190D01*
X91184706Y-105566000D01*
X91184709Y-105566000D01*
X91236999Y-105576401D01*
X91289289Y-105566000D01*
X91690277Y-105566000D01*
X91812841Y-105647894D01*
X91816920Y-105648705D01*
X91719624Y-105689007D01*
X91599507Y-105809124D01*
X91534500Y-105966065D01*
X91534500Y-106071250D01*
X91641250Y-106178000D01*
X92406000Y-106178000D01*
X92406000Y-106158000D01*
X92660000Y-106158000D01*
X92660000Y-106178000D01*
X93424750Y-106178000D01*
X93531500Y-106071250D01*
X93531500Y-105966065D01*
X93466493Y-105809124D01*
X93346376Y-105689007D01*
X93249080Y-105648705D01*
X93253159Y-105647894D01*
X93375723Y-105566000D01*
X93662710Y-105566000D01*
X93715000Y-105576401D01*
X93767290Y-105566000D01*
X93767294Y-105566000D01*
X93922186Y-105535190D01*
X94097829Y-105417829D01*
X94127452Y-105373495D01*
X96907036Y-102593911D01*
X96907036Y-102749000D01*
X96936606Y-102897659D01*
X97020814Y-103023686D01*
X97146841Y-103107894D01*
X97257976Y-103130000D01*
X97146841Y-103152106D01*
X97020814Y-103236314D01*
X96936606Y-103362341D01*
X96907036Y-103511000D01*
X96907036Y-104019000D01*
X96936606Y-104167659D01*
X97020814Y-104293686D01*
X97146841Y-104377894D01*
X97257976Y-104400000D01*
X97146841Y-104422106D01*
X97020814Y-104506314D01*
X96936606Y-104632341D01*
X96907036Y-104781000D01*
X96907036Y-105289000D01*
X96936606Y-105437659D01*
X97020814Y-105563686D01*
X97146841Y-105647894D01*
X97257976Y-105670000D01*
X97146841Y-105692106D01*
X97020814Y-105776314D01*
X96936606Y-105902341D01*
X96907036Y-106051000D01*
X96907036Y-106559000D01*
X96936606Y-106707659D01*
X97020814Y-106833686D01*
X97146841Y-106917894D01*
X97295500Y-106947464D01*
X98438500Y-106947464D01*
X98587159Y-106917894D01*
X98709723Y-106836000D01*
X99635190Y-106836000D01*
X99864541Y-106931000D01*
X100135459Y-106931000D01*
X100385756Y-106827324D01*
X100577324Y-106635756D01*
X100681000Y-106385459D01*
X100681000Y-106114541D01*
X100577324Y-105864244D01*
X100385756Y-105672676D01*
X100135459Y-105569000D01*
X99864541Y-105569000D01*
X99614244Y-105672676D01*
X99512920Y-105774000D01*
X98709723Y-105774000D01*
X98587159Y-105692106D01*
X98476024Y-105670000D01*
X98587159Y-105647894D01*
X98713186Y-105563686D01*
X98797394Y-105437659D01*
X98826964Y-105289000D01*
X98826964Y-104781000D01*
X98797394Y-104632341D01*
X98713186Y-104506314D01*
X98587159Y-104422106D01*
X98476024Y-104400000D01*
X98587159Y-104377894D01*
X98709723Y-104296000D01*
X99082920Y-104296000D01*
X99114244Y-104327324D01*
X99364541Y-104431000D01*
X99635459Y-104431000D01*
X99885756Y-104327324D01*
X100077324Y-104135756D01*
X100181000Y-103885459D01*
X100181000Y-103614541D01*
X100077324Y-103364244D01*
X99885756Y-103172676D01*
X99635459Y-103069000D01*
X99364541Y-103069000D01*
X99114244Y-103172676D01*
X99052920Y-103234000D01*
X98709723Y-103234000D01*
X98587159Y-103152106D01*
X98476024Y-103130000D01*
X98587159Y-103107894D01*
X98709723Y-103026000D01*
X100812920Y-103026000D01*
X100864244Y-103077324D01*
X101114541Y-103181000D01*
X101385459Y-103181000D01*
X101635756Y-103077324D01*
X101827324Y-102885756D01*
X101931000Y-102635459D01*
X101931000Y-102364541D01*
X101827324Y-102114244D01*
X101635756Y-101922676D01*
X101385459Y-101819000D01*
X101114541Y-101819000D01*
X100864244Y-101922676D01*
X100822920Y-101964000D01*
X98709723Y-101964000D01*
X98690797Y-101951354D01*
X98763147Y-101903011D01*
X98792770Y-101858677D01*
X99369445Y-101282002D01*
X99441248Y-101282002D01*
X99334500Y-101388750D01*
X99334500Y-101493935D01*
X99399507Y-101650876D01*
X99519624Y-101770993D01*
X99676564Y-101836000D01*
X100099250Y-101836000D01*
X100206000Y-101729250D01*
X100206000Y-101282000D01*
X100460000Y-101282000D01*
X100460000Y-101729250D01*
X100566750Y-101836000D01*
X100989436Y-101836000D01*
X101146376Y-101770993D01*
X101266493Y-101650876D01*
X101331500Y-101493935D01*
X101331500Y-101388750D01*
X101224750Y-101282000D01*
X100460000Y-101282000D01*
X100206000Y-101282000D01*
X100186000Y-101282000D01*
X100186000Y-101028000D01*
X100206000Y-101028000D01*
X100206000Y-101008000D01*
X100460000Y-101008000D01*
X100460000Y-101028000D01*
X101224750Y-101028000D01*
X101331500Y-100921250D01*
X101331500Y-100816065D01*
X101266493Y-100659124D01*
X101146376Y-100539007D01*
X101049080Y-100498705D01*
X101053159Y-100497894D01*
X101179186Y-100413686D01*
X101263394Y-100287659D01*
X101292964Y-100139000D01*
X101292964Y-99631000D01*
X101263394Y-99482341D01*
X101179186Y-99356314D01*
X101053159Y-99272106D01*
X100942024Y-99250000D01*
X101053159Y-99227894D01*
X101179186Y-99143686D01*
X101263394Y-99017659D01*
X101292964Y-98869000D01*
X101292964Y-98361000D01*
X101263394Y-98212341D01*
X101179186Y-98086314D01*
X101053159Y-98002106D01*
X100942024Y-97980000D01*
X101053159Y-97957894D01*
X101179186Y-97873686D01*
X101263394Y-97747659D01*
X101292964Y-97599000D01*
X101292964Y-97091000D01*
X101263394Y-96942341D01*
X101179186Y-96816314D01*
X101053159Y-96732106D01*
X100998500Y-96721234D01*
X100998500Y-96476182D01*
X101011841Y-96409113D01*
X100998500Y-96342044D01*
X100998500Y-96070201D01*
X101036686Y-96044686D01*
X101120894Y-95918659D01*
X101150464Y-95770000D01*
X101150464Y-95305250D01*
X101351000Y-95305250D01*
X101351000Y-95854936D01*
X101416007Y-96011876D01*
X101536124Y-96131993D01*
X101693065Y-96197000D01*
X101988750Y-96197000D01*
X102095500Y-96090250D01*
X102095500Y-95198500D01*
X102349500Y-95198500D01*
X102349500Y-96090250D01*
X102456250Y-96197000D01*
X102751935Y-96197000D01*
X102908876Y-96131993D01*
X103028993Y-96011876D01*
X103094000Y-95854936D01*
X103094000Y-95305250D01*
X102987250Y-95198500D01*
X102349500Y-95198500D01*
X102095500Y-95198500D01*
X101457750Y-95198500D01*
X101351000Y-95305250D01*
X101150464Y-95305250D01*
X101150464Y-94540575D01*
X101351000Y-94540575D01*
X101351000Y-94837750D01*
X101457750Y-94944500D01*
X102095500Y-94944500D01*
X102095500Y-94924500D01*
X102349500Y-94924500D01*
X102349500Y-94944500D01*
X102987250Y-94944500D01*
X103094000Y-94837750D01*
X103094000Y-94540575D01*
X104938135Y-94540575D01*
X104990425Y-94550976D01*
X105042715Y-94540575D01*
X105042719Y-94540575D01*
X105197611Y-94509765D01*
X105373254Y-94392404D01*
X105402877Y-94348070D01*
X106219001Y-93531947D01*
X106219001Y-96042052D01*
X105558517Y-96702536D01*
X105095500Y-96702536D01*
X104946841Y-96732106D01*
X104820814Y-96816314D01*
X104736606Y-96942341D01*
X104707036Y-97091000D01*
X104707036Y-97599000D01*
X104736606Y-97747659D01*
X104820814Y-97873686D01*
X104946841Y-97957894D01*
X105057976Y-97980000D01*
X104946841Y-98002106D01*
X104820814Y-98086314D01*
X104736606Y-98212341D01*
X104707036Y-98361000D01*
X104707036Y-98869000D01*
X104736606Y-99017659D01*
X104820814Y-99143686D01*
X104946841Y-99227894D01*
X105057976Y-99250000D01*
X104946841Y-99272106D01*
X104820814Y-99356314D01*
X104736606Y-99482341D01*
X104732737Y-99501793D01*
X104732171Y-99502171D01*
X104702548Y-99546505D01*
X104161504Y-100087549D01*
X104117172Y-100117171D01*
X104087551Y-100161502D01*
X104087549Y-100161504D01*
X103999810Y-100292815D01*
X103958599Y-100500000D01*
X103969001Y-100552294D01*
X103969000Y-101947709D01*
X103958599Y-102000000D01*
X103969000Y-102052290D01*
X103969000Y-102052293D01*
X103999810Y-102207185D01*
X104117171Y-102382829D01*
X104161506Y-102412453D01*
X104337546Y-102588493D01*
X104367171Y-102632829D01*
X104542814Y-102750190D01*
X104697706Y-102781000D01*
X104697709Y-102781000D01*
X104749999Y-102791401D01*
X104802289Y-102781000D01*
X106447710Y-102781000D01*
X106500000Y-102791401D01*
X106552290Y-102781000D01*
X106552294Y-102781000D01*
X106707186Y-102750190D01*
X106882829Y-102632829D01*
X106912452Y-102588495D01*
X108588498Y-100912450D01*
X108632829Y-100882829D01*
X108750190Y-100707186D01*
X108781000Y-100552294D01*
X108791402Y-100500000D01*
X108781000Y-100447706D01*
X108781000Y-87127447D01*
X109469000Y-86439447D01*
X109469000Y-86517307D01*
X109664021Y-86988128D01*
X110024372Y-87348479D01*
X110468637Y-87532500D01*
X110024372Y-87716521D01*
X109664021Y-88076872D01*
X109469000Y-88547693D01*
X109469000Y-89057307D01*
X109664021Y-89528128D01*
X110024372Y-89888479D01*
X110424061Y-90054036D01*
X109850000Y-90054036D01*
X109701341Y-90083606D01*
X109575314Y-90167814D01*
X109491106Y-90293841D01*
X109461536Y-90442500D01*
X109461536Y-92242500D01*
X109491106Y-92391159D01*
X109575314Y-92517186D01*
X109701341Y-92601394D01*
X109850000Y-92630964D01*
X111650000Y-92630964D01*
X111798659Y-92601394D01*
X111924686Y-92517186D01*
X112008894Y-92391159D01*
X112038464Y-92242500D01*
X112038464Y-91668439D01*
X112204021Y-92068128D01*
X112564372Y-92428479D01*
X113035193Y-92623500D01*
X113544807Y-92623500D01*
X114015628Y-92428479D01*
X114373000Y-92071107D01*
X114373000Y-95422053D01*
X113173884Y-94222937D01*
X113144261Y-94178603D01*
X112968618Y-94061242D01*
X112813726Y-94030432D01*
X112813722Y-94030432D01*
X112761432Y-94020031D01*
X112709142Y-94030432D01*
X110450060Y-94030432D01*
X110403736Y-93984108D01*
X110153439Y-93880432D01*
X109882521Y-93880432D01*
X109632224Y-93984108D01*
X109440656Y-94175676D01*
X109336980Y-94425973D01*
X109336980Y-94696891D01*
X109440656Y-94947188D01*
X109632224Y-95138756D01*
X109882521Y-95242432D01*
X110153439Y-95242432D01*
X110403736Y-95138756D01*
X110450060Y-95092432D01*
X112541485Y-95092432D01*
X114058489Y-96609436D01*
X114058489Y-96627594D01*
X112951165Y-95520271D01*
X112921542Y-95475937D01*
X112745899Y-95358576D01*
X112591007Y-95327766D01*
X112591003Y-95327766D01*
X112538713Y-95317365D01*
X112486423Y-95327766D01*
X111782060Y-95327766D01*
X111735736Y-95281442D01*
X111485439Y-95177766D01*
X111214521Y-95177766D01*
X110964224Y-95281442D01*
X110772656Y-95473010D01*
X110668980Y-95723307D01*
X110668980Y-95994225D01*
X110772656Y-96244522D01*
X110964224Y-96436090D01*
X111214521Y-96539766D01*
X111485439Y-96539766D01*
X111735736Y-96436090D01*
X111782060Y-96389766D01*
X112318766Y-96389766D01*
X112747946Y-96818946D01*
X112626201Y-96869374D01*
X112434633Y-97060942D01*
X112330957Y-97311239D01*
X112330957Y-97582157D01*
X112434633Y-97832454D01*
X112626201Y-98024022D01*
X112876498Y-98127698D01*
X112942009Y-98127698D01*
X113058469Y-98244158D01*
X113058468Y-106430362D01*
X112922919Y-106457324D01*
X112747276Y-106574685D01*
X112717654Y-106619018D01*
X112453608Y-106883064D01*
X112409277Y-106912685D01*
X112379656Y-106957016D01*
X112379654Y-106957018D01*
X112291915Y-107088329D01*
X112276724Y-107164699D01*
X112261105Y-107243220D01*
X112261105Y-107243224D01*
X112250704Y-107295514D01*
X112261105Y-107347804D01*
X112261105Y-107867226D01*
X112250704Y-107919516D01*
X112261105Y-107971806D01*
X112261105Y-107971809D01*
X112291915Y-108126701D01*
X112409276Y-108302345D01*
X112453610Y-108331968D01*
X112717653Y-108596011D01*
X112747276Y-108640345D01*
X112819241Y-108688430D01*
X112819240Y-109235747D01*
X110714493Y-107131000D01*
X110923882Y-107131000D01*
X111707115Y-106806575D01*
X112306575Y-106207115D01*
X112631000Y-105423882D01*
X112631000Y-104576118D01*
X112306575Y-103792885D01*
X111707115Y-103193425D01*
X110923882Y-102869000D01*
X110076118Y-102869000D01*
X109292885Y-103193425D01*
X108693425Y-103792885D01*
X108369000Y-104576118D01*
X108369000Y-105226055D01*
X108319753Y-105176808D01*
X108319753Y-104436547D01*
X108330155Y-104384253D01*
X108299094Y-104228098D01*
X108288943Y-104177067D01*
X108171582Y-104001424D01*
X108127248Y-103971801D01*
X107793000Y-103637553D01*
X107793000Y-103572041D01*
X107689324Y-103321744D01*
X107497756Y-103130176D01*
X107247459Y-103026500D01*
X106976541Y-103026500D01*
X106726244Y-103130176D01*
X106534676Y-103321744D01*
X106431000Y-103572041D01*
X106431000Y-103842959D01*
X106457495Y-103906925D01*
X106280676Y-104083744D01*
X106177000Y-104334041D01*
X106177000Y-104604959D01*
X106203495Y-104668925D01*
X106045718Y-104826702D01*
X105902796Y-104767502D01*
X105631878Y-104767502D01*
X105381581Y-104871178D01*
X105190013Y-105062746D01*
X105086337Y-105313043D01*
X105086337Y-105583961D01*
X105190013Y-105834258D01*
X105381581Y-106025826D01*
X105478786Y-106066090D01*
X105489921Y-106082754D01*
X105534255Y-106112377D01*
X106772147Y-107350269D01*
X106772146Y-110100400D01*
X105400110Y-110100400D01*
X105293360Y-110207150D01*
X105293360Y-111200500D01*
X105313360Y-111200500D01*
X105313360Y-111454500D01*
X105293360Y-111454500D01*
X105293360Y-112447850D01*
X105400110Y-112554600D01*
X106772146Y-112554600D01*
X106772146Y-112694407D01*
X104153815Y-115312738D01*
X104037357Y-115264500D01*
X103582643Y-115264500D01*
X103162542Y-115438511D01*
X102841011Y-115760042D01*
X102667000Y-116180143D01*
X102667000Y-116634857D01*
X102841011Y-117054958D01*
X103162542Y-117376489D01*
X103582643Y-117550500D01*
X104037357Y-117550500D01*
X104457458Y-117376489D01*
X104706999Y-117126948D01*
X104706999Y-117783209D01*
X104696598Y-117835499D01*
X104706999Y-117887789D01*
X104706999Y-117887792D01*
X104737809Y-118042684D01*
X104855170Y-118218328D01*
X104899504Y-118247951D01*
X105255238Y-118603685D01*
X105207000Y-118720143D01*
X105207000Y-119174857D01*
X105381011Y-119594958D01*
X105702542Y-119916489D01*
X106122643Y-120090500D01*
X106577357Y-120090500D01*
X106997458Y-119916489D01*
X107318989Y-119594958D01*
X107493000Y-119174857D01*
X107493000Y-118720143D01*
X107318989Y-118300042D01*
X106997458Y-117978511D01*
X106577357Y-117804500D01*
X106122643Y-117804500D01*
X106006185Y-117852738D01*
X105768999Y-117615552D01*
X105768999Y-117404016D01*
X106122643Y-117550500D01*
X106577357Y-117550500D01*
X106997458Y-117376489D01*
X107246999Y-117126948D01*
X107246999Y-117783209D01*
X107236598Y-117835499D01*
X107246999Y-117887789D01*
X107246999Y-117887792D01*
X107277809Y-118042684D01*
X107395170Y-118218328D01*
X107439504Y-118247951D01*
X107795238Y-118603685D01*
X107747000Y-118720143D01*
X107747000Y-119174857D01*
X107921011Y-119594958D01*
X108242542Y-119916489D01*
X108662643Y-120090500D01*
X109117357Y-120090500D01*
X109537458Y-119916489D01*
X109858989Y-119594958D01*
X110033000Y-119174857D01*
X110033000Y-118720143D01*
X109858989Y-118300042D01*
X109537458Y-117978511D01*
X109117357Y-117804500D01*
X108662643Y-117804500D01*
X108546185Y-117852738D01*
X108308999Y-117615552D01*
X108308999Y-117404016D01*
X108662643Y-117550500D01*
X109117357Y-117550500D01*
X109537458Y-117376489D01*
X109786999Y-117126948D01*
X109786999Y-117783209D01*
X109776598Y-117835499D01*
X109786999Y-117887789D01*
X109786999Y-117887792D01*
X109817809Y-118042684D01*
X109935170Y-118218328D01*
X109979504Y-118247951D01*
X110335238Y-118603685D01*
X110287000Y-118720143D01*
X110287000Y-119174857D01*
X110461011Y-119594958D01*
X110782542Y-119916489D01*
X111202643Y-120090500D01*
X111657357Y-120090500D01*
X112077458Y-119916489D01*
X112398989Y-119594958D01*
X112573000Y-119174857D01*
X112573000Y-118720143D01*
X112398989Y-118300042D01*
X112077458Y-117978511D01*
X111657357Y-117804500D01*
X111202643Y-117804500D01*
X111086185Y-117852738D01*
X110848999Y-117615552D01*
X110848999Y-117404016D01*
X111202643Y-117550500D01*
X111657357Y-117550500D01*
X112077458Y-117376489D01*
X112398989Y-117054958D01*
X112447227Y-116938500D01*
X112455340Y-116938500D01*
X112507630Y-116948901D01*
X112559920Y-116938500D01*
X112559924Y-116938500D01*
X112714816Y-116907690D01*
X112890459Y-116790329D01*
X112920082Y-116745995D01*
X114373000Y-115293078D01*
X114373000Y-119908995D01*
X114227890Y-120009219D01*
X110945851Y-121884669D01*
X106976970Y-123373000D01*
X93026951Y-123373000D01*
X88561453Y-121388334D01*
X85627000Y-119432032D01*
X85627000Y-119181250D01*
X87317500Y-119181250D01*
X87317500Y-119857936D01*
X87382507Y-120014876D01*
X87502624Y-120134993D01*
X87659565Y-120200000D01*
X88336250Y-120200000D01*
X88443000Y-120093250D01*
X88443000Y-119074500D01*
X88697000Y-119074500D01*
X88697000Y-120093250D01*
X88803750Y-120200000D01*
X89480435Y-120200000D01*
X89637376Y-120134993D01*
X89757493Y-120014876D01*
X89822500Y-119857936D01*
X89822500Y-119181250D01*
X89715750Y-119074500D01*
X88697000Y-119074500D01*
X88443000Y-119074500D01*
X87424250Y-119074500D01*
X87317500Y-119181250D01*
X85627000Y-119181250D01*
X85627000Y-118037064D01*
X87317500Y-118037064D01*
X87317500Y-118713750D01*
X87424250Y-118820500D01*
X88443000Y-118820500D01*
X88443000Y-117801750D01*
X88697000Y-117801750D01*
X88697000Y-118820500D01*
X89715750Y-118820500D01*
X89822500Y-118713750D01*
X89822500Y-118712565D01*
X89928900Y-118712565D01*
X89928900Y-119182435D01*
X90108712Y-119616539D01*
X90440961Y-119948788D01*
X90875065Y-120128600D01*
X91344935Y-120128600D01*
X91779039Y-119948788D01*
X92111288Y-119616539D01*
X92291100Y-119182435D01*
X92291100Y-118712565D01*
X92468900Y-118712565D01*
X92468900Y-119182435D01*
X92648712Y-119616539D01*
X92980961Y-119948788D01*
X93415065Y-120128600D01*
X93884935Y-120128600D01*
X94319039Y-119948788D01*
X94651288Y-119616539D01*
X94831100Y-119182435D01*
X94831100Y-118712565D01*
X95008900Y-118712565D01*
X95008900Y-119182435D01*
X95188712Y-119616539D01*
X95520961Y-119948788D01*
X95955065Y-120128600D01*
X96424935Y-120128600D01*
X96859039Y-119948788D01*
X97191288Y-119616539D01*
X97371100Y-119182435D01*
X97371100Y-118712565D01*
X97548900Y-118712565D01*
X97548900Y-119182435D01*
X97728712Y-119616539D01*
X98060961Y-119948788D01*
X98495065Y-120128600D01*
X98964935Y-120128600D01*
X99399039Y-119948788D01*
X99731288Y-119616539D01*
X99911100Y-119182435D01*
X99911100Y-118712565D01*
X100088900Y-118712565D01*
X100088900Y-119182435D01*
X100268712Y-119616539D01*
X100600961Y-119948788D01*
X101035065Y-120128600D01*
X101504935Y-120128600D01*
X101939039Y-119948788D01*
X102271288Y-119616539D01*
X102451100Y-119182435D01*
X102451100Y-118720143D01*
X102667000Y-118720143D01*
X102667000Y-119174857D01*
X102841011Y-119594958D01*
X103162542Y-119916489D01*
X103582643Y-120090500D01*
X104037357Y-120090500D01*
X104457458Y-119916489D01*
X104778989Y-119594958D01*
X104953000Y-119174857D01*
X104953000Y-118720143D01*
X104778989Y-118300042D01*
X104457458Y-117978511D01*
X104037357Y-117804500D01*
X103582643Y-117804500D01*
X103162542Y-117978511D01*
X102841011Y-118300042D01*
X102667000Y-118720143D01*
X102451100Y-118720143D01*
X102451100Y-118712565D01*
X102271288Y-118278461D01*
X101939039Y-117946212D01*
X101504935Y-117766400D01*
X101035065Y-117766400D01*
X100600961Y-117946212D01*
X100268712Y-118278461D01*
X100088900Y-118712565D01*
X99911100Y-118712565D01*
X99731288Y-118278461D01*
X99399039Y-117946212D01*
X98964935Y-117766400D01*
X98495065Y-117766400D01*
X98060961Y-117946212D01*
X97728712Y-118278461D01*
X97548900Y-118712565D01*
X97371100Y-118712565D01*
X97191288Y-118278461D01*
X96859039Y-117946212D01*
X96424935Y-117766400D01*
X95955065Y-117766400D01*
X95520961Y-117946212D01*
X95188712Y-118278461D01*
X95008900Y-118712565D01*
X94831100Y-118712565D01*
X94651288Y-118278461D01*
X94319039Y-117946212D01*
X93884935Y-117766400D01*
X93415065Y-117766400D01*
X92980961Y-117946212D01*
X92648712Y-118278461D01*
X92468900Y-118712565D01*
X92291100Y-118712565D01*
X92111288Y-118278461D01*
X91779039Y-117946212D01*
X91344935Y-117766400D01*
X90875065Y-117766400D01*
X90440961Y-117946212D01*
X90108712Y-118278461D01*
X89928900Y-118712565D01*
X89822500Y-118712565D01*
X89822500Y-118037064D01*
X89757493Y-117880124D01*
X89637376Y-117760007D01*
X89480435Y-117695000D01*
X88803750Y-117695000D01*
X88697000Y-117801750D01*
X88443000Y-117801750D01*
X88336250Y-117695000D01*
X87659565Y-117695000D01*
X87502624Y-117760007D01*
X87382507Y-117880124D01*
X87317500Y-118037064D01*
X85627000Y-118037064D01*
X85627000Y-117301510D01*
X87855595Y-117301510D01*
X87941142Y-117489115D01*
X88402927Y-117647435D01*
X88890148Y-117616987D01*
X89198858Y-117489115D01*
X89284405Y-117301510D01*
X88570000Y-116587105D01*
X87855595Y-117301510D01*
X85627000Y-117301510D01*
X85627000Y-116240427D01*
X87330065Y-116240427D01*
X87360513Y-116727648D01*
X87488385Y-117036358D01*
X87675990Y-117121905D01*
X88390395Y-116407500D01*
X88749605Y-116407500D01*
X89464010Y-117121905D01*
X89651615Y-117036358D01*
X89809935Y-116574573D01*
X89784813Y-116172565D01*
X89928900Y-116172565D01*
X89928900Y-116642435D01*
X90108712Y-117076539D01*
X90440961Y-117408788D01*
X90875065Y-117588600D01*
X91344935Y-117588600D01*
X91779039Y-117408788D01*
X92111288Y-117076539D01*
X92291100Y-116642435D01*
X92291100Y-116172565D01*
X92468900Y-116172565D01*
X92468900Y-116642435D01*
X92648712Y-117076539D01*
X92980961Y-117408788D01*
X93415065Y-117588600D01*
X93884935Y-117588600D01*
X94319039Y-117408788D01*
X94651288Y-117076539D01*
X94831100Y-116642435D01*
X94831100Y-116172565D01*
X95008900Y-116172565D01*
X95008900Y-116642435D01*
X95188712Y-117076539D01*
X95520961Y-117408788D01*
X95955065Y-117588600D01*
X96424935Y-117588600D01*
X96859039Y-117408788D01*
X97191288Y-117076539D01*
X97371100Y-116642435D01*
X97371100Y-116172565D01*
X97548900Y-116172565D01*
X97548900Y-116642435D01*
X97728712Y-117076539D01*
X98060961Y-117408788D01*
X98495065Y-117588600D01*
X98964935Y-117588600D01*
X99399039Y-117408788D01*
X99731288Y-117076539D01*
X99911100Y-116642435D01*
X99911100Y-116172565D01*
X100088900Y-116172565D01*
X100088900Y-116642435D01*
X100268712Y-117076539D01*
X100600961Y-117408788D01*
X101035065Y-117588600D01*
X101504935Y-117588600D01*
X101939039Y-117408788D01*
X102271288Y-117076539D01*
X102451100Y-116642435D01*
X102451100Y-116172565D01*
X102271288Y-115738461D01*
X101939039Y-115406212D01*
X101504935Y-115226400D01*
X101035065Y-115226400D01*
X100600961Y-115406212D01*
X100268712Y-115738461D01*
X100088900Y-116172565D01*
X99911100Y-116172565D01*
X99731288Y-115738461D01*
X99399039Y-115406212D01*
X98964935Y-115226400D01*
X98495065Y-115226400D01*
X98060961Y-115406212D01*
X97728712Y-115738461D01*
X97548900Y-116172565D01*
X97371100Y-116172565D01*
X97191288Y-115738461D01*
X96859039Y-115406212D01*
X96424935Y-115226400D01*
X95955065Y-115226400D01*
X95520961Y-115406212D01*
X95188712Y-115738461D01*
X95008900Y-116172565D01*
X94831100Y-116172565D01*
X94651288Y-115738461D01*
X94319039Y-115406212D01*
X93884935Y-115226400D01*
X93415065Y-115226400D01*
X92980961Y-115406212D01*
X92648712Y-115738461D01*
X92468900Y-116172565D01*
X92291100Y-116172565D01*
X92111288Y-115738461D01*
X91779039Y-115406212D01*
X91344935Y-115226400D01*
X90875065Y-115226400D01*
X90440961Y-115406212D01*
X90108712Y-115738461D01*
X89928900Y-116172565D01*
X89784813Y-116172565D01*
X89779487Y-116087352D01*
X89651615Y-115778642D01*
X89464010Y-115693095D01*
X88749605Y-116407500D01*
X88390395Y-116407500D01*
X87675990Y-115693095D01*
X87488385Y-115778642D01*
X87330065Y-116240427D01*
X85627000Y-116240427D01*
X85627000Y-115513490D01*
X87855595Y-115513490D01*
X88570000Y-116227895D01*
X89284405Y-115513490D01*
X89198858Y-115325885D01*
X88737073Y-115167565D01*
X88249852Y-115198013D01*
X87941142Y-115325885D01*
X87855595Y-115513490D01*
X85627000Y-115513490D01*
X85627000Y-113204149D01*
X87281000Y-113204149D01*
X87281000Y-113514851D01*
X87399900Y-113801901D01*
X87619599Y-114021600D01*
X87906649Y-114140500D01*
X88217351Y-114140500D01*
X88458772Y-114040500D01*
X100942467Y-114040500D01*
X101108500Y-114109273D01*
X101419202Y-114109273D01*
X101706252Y-113990373D01*
X101925951Y-113770674D01*
X102044851Y-113483624D01*
X102044851Y-113172922D01*
X101925951Y-112885872D01*
X101706252Y-112666173D01*
X101419202Y-112547273D01*
X101108500Y-112547273D01*
X100821450Y-112666173D01*
X100809123Y-112678500D01*
X88458772Y-112678500D01*
X88217351Y-112578500D01*
X87906649Y-112578500D01*
X87619599Y-112697400D01*
X87399900Y-112917099D01*
X87281000Y-113204149D01*
X85627000Y-113204149D01*
X85627000Y-111561250D01*
X102989300Y-111561250D01*
X102989300Y-112212535D01*
X103054307Y-112369476D01*
X103174424Y-112489593D01*
X103331364Y-112554600D01*
X104932610Y-112554600D01*
X105039360Y-112447850D01*
X105039360Y-111454500D01*
X103096050Y-111454500D01*
X102989300Y-111561250D01*
X85627000Y-111561250D01*
X85627000Y-109500000D01*
X85617333Y-109451399D01*
X85589803Y-109410197D01*
X85089803Y-108910197D01*
X85048601Y-108882667D01*
X85000000Y-108873000D01*
X81052606Y-108873000D01*
X80627000Y-108447394D01*
X80627000Y-106377802D01*
X85789000Y-106377802D01*
X85789000Y-106927198D01*
X85999245Y-107434773D01*
X86387727Y-107823255D01*
X86895302Y-108033500D01*
X87444698Y-108033500D01*
X87952273Y-107823255D01*
X88340755Y-107434773D01*
X88551000Y-106927198D01*
X88551000Y-106377802D01*
X88340755Y-105870227D01*
X87952273Y-105481745D01*
X87444698Y-105271500D01*
X86895302Y-105271500D01*
X86387727Y-105481745D01*
X85999245Y-105870227D01*
X85789000Y-106377802D01*
X80627000Y-106377802D01*
X80627000Y-103933149D01*
X84614000Y-103933149D01*
X84614000Y-104243851D01*
X84732900Y-104530901D01*
X84952599Y-104750600D01*
X85239649Y-104869500D01*
X85550351Y-104869500D01*
X85791772Y-104769500D01*
X87652922Y-104769500D01*
X90083421Y-107199999D01*
X89897676Y-107385744D01*
X89794000Y-107636041D01*
X89794000Y-107701552D01*
X89374505Y-108121048D01*
X89330171Y-108150671D01*
X89212810Y-108326315D01*
X89182000Y-108481207D01*
X89182000Y-108481210D01*
X89171599Y-108533500D01*
X89182000Y-108585790D01*
X89182001Y-109752419D01*
X89135676Y-109798744D01*
X89032000Y-110049041D01*
X89032000Y-110319959D01*
X89135676Y-110570256D01*
X89327244Y-110761824D01*
X89577541Y-110865500D01*
X89848459Y-110865500D01*
X90098756Y-110761824D01*
X90290324Y-110570256D01*
X90394000Y-110319959D01*
X90394000Y-110049041D01*
X90389117Y-110037250D01*
X91915000Y-110037250D01*
X91915000Y-110688436D01*
X91980007Y-110845376D01*
X92100124Y-110965493D01*
X92257065Y-111030500D01*
X92908250Y-111030500D01*
X93015000Y-110923750D01*
X93015000Y-109930500D01*
X93269000Y-109930500D01*
X93269000Y-110923750D01*
X93375750Y-111030500D01*
X94026935Y-111030500D01*
X94183876Y-110965493D01*
X94303993Y-110845376D01*
X94369000Y-110688436D01*
X94369000Y-110037250D01*
X94262250Y-109930500D01*
X93269000Y-109930500D01*
X93015000Y-109930500D01*
X92021750Y-109930500D01*
X91915000Y-110037250D01*
X90389117Y-110037250D01*
X90290324Y-109798744D01*
X90244000Y-109752420D01*
X90244000Y-108918564D01*
X91915000Y-108918564D01*
X91915000Y-109569750D01*
X92021750Y-109676500D01*
X93015000Y-109676500D01*
X93015000Y-108683250D01*
X93269000Y-108683250D01*
X93269000Y-109676500D01*
X94262250Y-109676500D01*
X94369000Y-109569750D01*
X94369000Y-108918564D01*
X94303993Y-108761624D01*
X94183876Y-108641507D01*
X94026935Y-108576500D01*
X93375750Y-108576500D01*
X93269000Y-108683250D01*
X93015000Y-108683250D01*
X92908250Y-108576500D01*
X92257065Y-108576500D01*
X92100124Y-108641507D01*
X91980007Y-108761624D01*
X91915000Y-108918564D01*
X90244000Y-108918564D01*
X90244000Y-108753447D01*
X90544948Y-108452500D01*
X90610459Y-108452500D01*
X90860756Y-108348824D01*
X91046501Y-108163079D01*
X91089035Y-108205614D01*
X91127027Y-108262473D01*
X91352287Y-108412987D01*
X91550931Y-108452500D01*
X91550935Y-108452500D01*
X91618000Y-108465840D01*
X91685065Y-108452500D01*
X94637922Y-108452500D01*
X95000368Y-108814946D01*
X94680797Y-109134517D01*
X94501000Y-109568585D01*
X94501000Y-110038415D01*
X94680797Y-110472483D01*
X95013017Y-110804703D01*
X95447085Y-110984500D01*
X95916915Y-110984500D01*
X96350983Y-110804703D01*
X96458248Y-110697438D01*
X97507667Y-110697438D01*
X97593202Y-110885031D01*
X98054951Y-111043335D01*
X98542131Y-111012885D01*
X98850798Y-110885031D01*
X98936333Y-110697438D01*
X98222000Y-109983105D01*
X97507667Y-110697438D01*
X96458248Y-110697438D01*
X96683203Y-110472483D01*
X96863000Y-110038415D01*
X96863000Y-109636451D01*
X96982165Y-109636451D01*
X97012615Y-110123631D01*
X97140469Y-110432298D01*
X97328062Y-110517833D01*
X98042395Y-109803500D01*
X98401605Y-109803500D01*
X99115938Y-110517833D01*
X99303531Y-110432298D01*
X99461835Y-109970549D01*
X99436712Y-109568585D01*
X99581000Y-109568585D01*
X99581000Y-110038415D01*
X99760797Y-110472483D01*
X100093017Y-110804703D01*
X100527085Y-110984500D01*
X100996915Y-110984500D01*
X101430983Y-110804703D01*
X101763203Y-110472483D01*
X101775636Y-110442465D01*
X102989300Y-110442465D01*
X102989300Y-111093750D01*
X103096050Y-111200500D01*
X105039360Y-111200500D01*
X105039360Y-110207150D01*
X104932610Y-110100400D01*
X103331364Y-110100400D01*
X103174424Y-110165407D01*
X103054307Y-110285524D01*
X102989300Y-110442465D01*
X101775636Y-110442465D01*
X101943000Y-110038415D01*
X101943000Y-109568585D01*
X101763203Y-109134517D01*
X101430983Y-108802297D01*
X100996915Y-108622500D01*
X100527085Y-108622500D01*
X100093017Y-108802297D01*
X99760797Y-109134517D01*
X99581000Y-109568585D01*
X99436712Y-109568585D01*
X99431385Y-109483369D01*
X99303531Y-109174702D01*
X99115938Y-109089167D01*
X98401605Y-109803500D01*
X98042395Y-109803500D01*
X97328062Y-109089167D01*
X97140469Y-109174702D01*
X96982165Y-109636451D01*
X96863000Y-109636451D01*
X96863000Y-109568585D01*
X96683203Y-109134517D01*
X96458248Y-108909562D01*
X97507667Y-108909562D01*
X98222000Y-109623895D01*
X98936333Y-108909562D01*
X98850798Y-108721969D01*
X98389049Y-108563665D01*
X97901869Y-108594115D01*
X97593202Y-108721969D01*
X97507667Y-108909562D01*
X96458248Y-108909562D01*
X96363000Y-108814314D01*
X96363000Y-108600565D01*
X96376340Y-108533500D01*
X96363000Y-108466435D01*
X96363000Y-108466431D01*
X96323487Y-108267787D01*
X96172973Y-108042527D01*
X96116114Y-108004535D01*
X95448967Y-107337389D01*
X95410973Y-107280527D01*
X95185713Y-107130013D01*
X94987069Y-107090500D01*
X94987065Y-107090500D01*
X94920000Y-107077160D01*
X94852935Y-107090500D01*
X91900079Y-107090500D01*
X91738313Y-106928734D01*
X91876564Y-106986000D01*
X92299250Y-106986000D01*
X92406000Y-106879250D01*
X92406000Y-106432000D01*
X92660000Y-106432000D01*
X92660000Y-106879250D01*
X92766750Y-106986000D01*
X93189436Y-106986000D01*
X93346376Y-106920993D01*
X93466493Y-106800876D01*
X93531500Y-106643935D01*
X93531500Y-106538750D01*
X93424750Y-106432000D01*
X92660000Y-106432000D01*
X92406000Y-106432000D01*
X91641250Y-106432000D01*
X91534500Y-106538750D01*
X91534500Y-106643935D01*
X91591766Y-106782187D01*
X88463967Y-103654389D01*
X88425973Y-103597527D01*
X88200713Y-103447013D01*
X88002069Y-103407500D01*
X88002065Y-103407500D01*
X87935000Y-103394160D01*
X87867935Y-103407500D01*
X85791772Y-103407500D01*
X85550351Y-103307500D01*
X85239649Y-103307500D01*
X84952599Y-103426400D01*
X84732900Y-103646099D01*
X84614000Y-103933149D01*
X80627000Y-103933149D01*
X80627000Y-91986357D01*
X82287500Y-91986357D01*
X82287500Y-90391390D01*
X86310715Y-90391390D01*
X86420807Y-90599741D01*
X86955134Y-90791505D01*
X87522173Y-90764192D01*
X87919193Y-90599741D01*
X88029285Y-90391390D01*
X87170000Y-89532105D01*
X86310715Y-90391390D01*
X82287500Y-90391390D01*
X82287500Y-89137634D01*
X85730995Y-89137634D01*
X85758308Y-89704673D01*
X85922759Y-90101693D01*
X86131110Y-90211785D01*
X86990395Y-89352500D01*
X87349605Y-89352500D01*
X88208890Y-90211785D01*
X88417241Y-90101693D01*
X88609005Y-89567366D01*
X88581692Y-89000327D01*
X88417241Y-88603307D01*
X88208890Y-88493215D01*
X87349605Y-89352500D01*
X86990395Y-89352500D01*
X86131110Y-88493215D01*
X85922759Y-88603307D01*
X85730995Y-89137634D01*
X82287500Y-89137634D01*
X82287500Y-88313610D01*
X86310715Y-88313610D01*
X87170000Y-89172895D01*
X88029285Y-88313610D01*
X87919193Y-88105259D01*
X87384866Y-87913495D01*
X86817827Y-87940808D01*
X86420807Y-88105259D01*
X86310715Y-88313610D01*
X82287500Y-88313610D01*
X82287500Y-87188643D01*
X80627000Y-87188643D01*
X80627000Y-87052606D01*
X81052606Y-86627000D01*
X85000000Y-86627000D01*
X85048601Y-86617333D01*
X85089803Y-86589803D01*
X85589803Y-86089803D01*
X85617333Y-86048601D01*
X85627000Y-86000000D01*
X85627000Y-83621250D01*
X87317500Y-83621250D01*
X87317500Y-84297936D01*
X87382507Y-84454876D01*
X87502624Y-84574993D01*
X87659565Y-84640000D01*
X88336250Y-84640000D01*
X88443000Y-84533250D01*
X88443000Y-83514500D01*
X88697000Y-83514500D01*
X88697000Y-84533250D01*
X88803750Y-84640000D01*
X89480435Y-84640000D01*
X89637376Y-84574993D01*
X89757493Y-84454876D01*
X89822500Y-84297936D01*
X89822500Y-83621250D01*
X89715750Y-83514500D01*
X88697000Y-83514500D01*
X88443000Y-83514500D01*
X87424250Y-83514500D01*
X87317500Y-83621250D01*
X85627000Y-83621250D01*
X85627000Y-82477064D01*
X87317500Y-82477064D01*
X87317500Y-83153750D01*
X87424250Y-83260500D01*
X88443000Y-83260500D01*
X88443000Y-82241750D01*
X88697000Y-82241750D01*
X88697000Y-83260500D01*
X89715750Y-83260500D01*
X89822500Y-83153750D01*
X89822500Y-82477064D01*
X89757493Y-82320124D01*
X89637376Y-82200007D01*
X89480435Y-82135000D01*
X88803750Y-82135000D01*
X88697000Y-82241750D01*
X88443000Y-82241750D01*
X88336250Y-82135000D01*
X87659565Y-82135000D01*
X87502624Y-82200007D01*
X87382507Y-82320124D01*
X87317500Y-82477064D01*
X85627000Y-82477064D01*
X85627000Y-81741510D01*
X87855595Y-81741510D01*
X87941142Y-81929115D01*
X88402927Y-82087435D01*
X88890148Y-82056987D01*
X89198858Y-81929115D01*
X89284405Y-81741510D01*
X88570000Y-81027105D01*
X87855595Y-81741510D01*
X85627000Y-81741510D01*
X85627000Y-80680427D01*
X87330065Y-80680427D01*
X87360513Y-81167648D01*
X87488385Y-81476358D01*
X87675990Y-81561905D01*
X88390395Y-80847500D01*
X88749605Y-80847500D01*
X89464010Y-81561905D01*
X89651615Y-81476358D01*
X89809935Y-81014573D01*
X89784813Y-80612565D01*
X89928900Y-80612565D01*
X89928900Y-81082435D01*
X90108712Y-81516539D01*
X90440961Y-81848788D01*
X90875065Y-82028600D01*
X91344935Y-82028600D01*
X91779039Y-81848788D01*
X92111288Y-81516539D01*
X92291100Y-81082435D01*
X92291100Y-80612565D01*
X92111288Y-80178461D01*
X91779039Y-79846212D01*
X91344935Y-79666400D01*
X90875065Y-79666400D01*
X90440961Y-79846212D01*
X90108712Y-80178461D01*
X89928900Y-80612565D01*
X89784813Y-80612565D01*
X89779487Y-80527352D01*
X89651615Y-80218642D01*
X89464010Y-80133095D01*
X88749605Y-80847500D01*
X88390395Y-80847500D01*
X87675990Y-80133095D01*
X87488385Y-80218642D01*
X87330065Y-80680427D01*
X85627000Y-80680427D01*
X85627000Y-80570390D01*
X86614040Y-79953490D01*
X87855595Y-79953490D01*
X88570000Y-80667895D01*
X89284405Y-79953490D01*
X89198858Y-79765885D01*
X88737073Y-79607565D01*
X88249852Y-79638013D01*
X87941142Y-79765885D01*
X87855595Y-79953490D01*
X86614040Y-79953490D01*
X89556514Y-78114444D01*
X93523030Y-76627000D01*
X106476970Y-76627000D01*
X110443487Y-78114444D01*
X110443487Y-78114444D01*
G37*
X110443487Y-78114444D02*
X113332872Y-79920310D01*
X112852500Y-79920310D01*
X112852500Y-84984691D01*
X112874746Y-84984691D01*
X112600985Y-85098087D01*
X112503161Y-85296055D01*
X113290000Y-86082895D01*
X114076839Y-85296055D01*
X113979015Y-85098087D01*
X113656364Y-84984691D01*
X114373000Y-84984691D01*
X114373000Y-85533256D01*
X114256445Y-85475661D01*
X113469605Y-86262500D01*
X114256445Y-87049339D01*
X114373000Y-86991744D01*
X114373000Y-88073893D01*
X114015628Y-87716521D01*
X113647735Y-87564134D01*
X113979015Y-87426913D01*
X114076839Y-87228945D01*
X113290000Y-86442105D01*
X112503161Y-87228945D01*
X112600985Y-87426913D01*
X112959421Y-87552886D01*
X112564372Y-87716521D01*
X112204021Y-88076872D01*
X112020000Y-88521137D01*
X111835979Y-88076872D01*
X111475628Y-87716521D01*
X111031363Y-87532500D01*
X111475628Y-87348479D01*
X111835979Y-86988128D01*
X111988366Y-86620235D01*
X112125587Y-86951515D01*
X112323555Y-87049339D01*
X113110395Y-86262500D01*
X112323555Y-85475661D01*
X112125587Y-85573485D01*
X111999614Y-85931921D01*
X111835979Y-85536872D01*
X111475628Y-85176521D01*
X111004807Y-84981500D01*
X110926948Y-84981500D01*
X111377948Y-84530500D01*
X111657357Y-84530500D01*
X112077458Y-84356489D01*
X112398989Y-84034958D01*
X112573000Y-83614857D01*
X112573000Y-83160143D01*
X112398989Y-82740042D01*
X112077458Y-82418511D01*
X111657357Y-82244500D01*
X111509944Y-82244500D01*
X111430000Y-82228598D01*
X111350056Y-82244500D01*
X111202643Y-82244500D01*
X110782542Y-82418511D01*
X110714190Y-82486863D01*
X110714190Y-82314257D01*
X111086185Y-81942262D01*
X111202643Y-81990500D01*
X111657357Y-81990500D01*
X112077458Y-81816489D01*
X112398989Y-81494958D01*
X112573000Y-81074857D01*
X112573000Y-80620143D01*
X112398989Y-80200042D01*
X112077458Y-79878511D01*
X111657357Y-79704500D01*
X111509944Y-79704500D01*
X111430000Y-79688598D01*
X111350056Y-79704500D01*
X111202643Y-79704500D01*
X110782542Y-79878511D01*
X110461011Y-80200042D01*
X110287000Y-80620143D01*
X110287000Y-81074857D01*
X110335238Y-81191315D01*
X109844693Y-81681860D01*
X109800362Y-81711481D01*
X109770741Y-81755812D01*
X109770739Y-81755814D01*
X109683000Y-81887125D01*
X109641789Y-82094310D01*
X109652191Y-82146605D01*
X109652191Y-82533244D01*
X109537458Y-82418511D01*
X109117357Y-82244500D01*
X108969944Y-82244500D01*
X108890000Y-82228598D01*
X108810056Y-82244500D01*
X108662643Y-82244500D01*
X108242542Y-82418511D01*
X108031000Y-82630053D01*
X108031000Y-82469947D01*
X108555024Y-81945923D01*
X108662643Y-81990500D01*
X109117357Y-81990500D01*
X109537458Y-81816489D01*
X109858989Y-81494958D01*
X110033000Y-81074857D01*
X110033000Y-80620143D01*
X109858989Y-80200042D01*
X109537458Y-79878511D01*
X109117357Y-79704500D01*
X108662643Y-79704500D01*
X108242542Y-79878511D01*
X107921011Y-80200042D01*
X107747000Y-80620143D01*
X107747000Y-81074857D01*
X107798899Y-81200153D01*
X107161505Y-81837548D01*
X107117171Y-81867171D01*
X106999810Y-82042815D01*
X106969000Y-82197707D01*
X106969000Y-82197710D01*
X106958599Y-82250000D01*
X106969000Y-82302290D01*
X106969000Y-82406723D01*
X106577357Y-82244500D01*
X106429944Y-82244500D01*
X106350000Y-82228598D01*
X106270056Y-82244500D01*
X106122643Y-82244500D01*
X105768999Y-82390984D01*
X105768999Y-82179448D01*
X106006185Y-81942262D01*
X106122643Y-81990500D01*
X106577357Y-81990500D01*
X106997458Y-81816489D01*
X107318989Y-81494958D01*
X107493000Y-81074857D01*
X107493000Y-80620143D01*
X107318989Y-80200042D01*
X106997458Y-79878511D01*
X106577357Y-79704500D01*
X106122643Y-79704500D01*
X105702542Y-79878511D01*
X105381011Y-80200042D01*
X105207000Y-80620143D01*
X105207000Y-81074857D01*
X105255238Y-81191315D01*
X104899504Y-81547049D01*
X104855170Y-81576672D01*
X104737809Y-81752316D01*
X104706999Y-81907208D01*
X104706999Y-81907211D01*
X104696598Y-81959501D01*
X104706999Y-82011791D01*
X104706999Y-82668052D01*
X104457458Y-82418511D01*
X104037357Y-82244500D01*
X103889944Y-82244500D01*
X103810000Y-82228598D01*
X103730056Y-82244500D01*
X103582643Y-82244500D01*
X103162542Y-82418511D01*
X103131000Y-82450053D01*
X103131000Y-82277447D01*
X103466185Y-81942262D01*
X103582643Y-81990500D01*
X104037357Y-81990500D01*
X104457458Y-81816489D01*
X104778989Y-81494958D01*
X104953000Y-81074857D01*
X104953000Y-80620143D01*
X104778989Y-80200042D01*
X104457458Y-79878511D01*
X104037357Y-79704500D01*
X103582643Y-79704500D01*
X103162542Y-79878511D01*
X102841011Y-80200042D01*
X102667000Y-80620143D01*
X102667000Y-81074857D01*
X102715238Y-81191315D01*
X102261503Y-81645050D01*
X102217172Y-81674671D01*
X102187551Y-81719002D01*
X102187549Y-81719004D01*
X102099810Y-81850315D01*
X102058599Y-82057500D01*
X102069001Y-82109795D01*
X102069001Y-82516174D01*
X101939039Y-82386212D01*
X101504935Y-82206400D01*
X101035065Y-82206400D01*
X100650899Y-82365527D01*
X100650899Y-82217548D01*
X100897025Y-81971422D01*
X101035065Y-82028600D01*
X101504935Y-82028600D01*
X101939039Y-81848788D01*
X102271288Y-81516539D01*
X102451100Y-81082435D01*
X102451100Y-80612565D01*
X102271288Y-80178461D01*
X101939039Y-79846212D01*
X101504935Y-79666400D01*
X101035065Y-79666400D01*
X100600961Y-79846212D01*
X100268712Y-80178461D01*
X100088900Y-80612565D01*
X100088900Y-81082435D01*
X100146078Y-81220475D01*
X99781404Y-81585149D01*
X99737070Y-81614772D01*
X99619709Y-81790416D01*
X99588899Y-81945308D01*
X99588899Y-81945311D01*
X99578498Y-81997601D01*
X99588899Y-82049891D01*
X99588899Y-82576072D01*
X99399039Y-82386212D01*
X98964935Y-82206400D01*
X98495065Y-82206400D01*
X98060961Y-82386212D01*
X97991000Y-82456173D01*
X97991000Y-82337447D01*
X98357025Y-81971422D01*
X98495065Y-82028600D01*
X98964935Y-82028600D01*
X99399039Y-81848788D01*
X99731288Y-81516539D01*
X99911100Y-81082435D01*
X99911100Y-80612565D01*
X99731288Y-80178461D01*
X99399039Y-79846212D01*
X98964935Y-79666400D01*
X98495065Y-79666400D01*
X98060961Y-79846212D01*
X97728712Y-80178461D01*
X97548900Y-80612565D01*
X97548900Y-81082435D01*
X97606078Y-81220475D01*
X97121505Y-81705048D01*
X97077171Y-81734671D01*
X96959810Y-81910315D01*
X96929000Y-82065207D01*
X96929000Y-82065210D01*
X96918599Y-82117500D01*
X96929000Y-82169790D01*
X96929000Y-82456173D01*
X96859039Y-82386212D01*
X96424935Y-82206400D01*
X95955065Y-82206400D01*
X95520961Y-82386212D01*
X95451000Y-82456173D01*
X95451000Y-82337447D01*
X95817025Y-81971422D01*
X95955065Y-82028600D01*
X96424935Y-82028600D01*
X96859039Y-81848788D01*
X97191288Y-81516539D01*
X97371100Y-81082435D01*
X97371100Y-80612565D01*
X97191288Y-80178461D01*
X96859039Y-79846212D01*
X96424935Y-79666400D01*
X95955065Y-79666400D01*
X95520961Y-79846212D01*
X95188712Y-80178461D01*
X95008900Y-80612565D01*
X95008900Y-81082435D01*
X95066078Y-81220475D01*
X94581505Y-81705048D01*
X94537171Y-81734671D01*
X94419810Y-81910315D01*
X94389000Y-82065207D01*
X94389000Y-82065210D01*
X94378599Y-82117500D01*
X94389000Y-82169790D01*
X94389000Y-82456173D01*
X94319039Y-82386212D01*
X93884935Y-82206400D01*
X93415065Y-82206400D01*
X92980961Y-82386212D01*
X92911000Y-82456173D01*
X92911000Y-82337447D01*
X93277025Y-81971422D01*
X93415065Y-82028600D01*
X93884935Y-82028600D01*
X94319039Y-81848788D01*
X94651288Y-81516539D01*
X94831100Y-81082435D01*
X94831100Y-80612565D01*
X94651288Y-80178461D01*
X94319039Y-79846212D01*
X93884935Y-79666400D01*
X93415065Y-79666400D01*
X92980961Y-79846212D01*
X92648712Y-80178461D01*
X92468900Y-80612565D01*
X92468900Y-81082435D01*
X92526078Y-81220475D01*
X92041505Y-81705048D01*
X91997171Y-81734671D01*
X91879810Y-81910315D01*
X91849000Y-82065207D01*
X91849000Y-82065210D01*
X91838599Y-82117500D01*
X91849000Y-82169790D01*
X91849000Y-82456173D01*
X91779039Y-82386212D01*
X91344935Y-82206400D01*
X90875065Y-82206400D01*
X90440961Y-82386212D01*
X90108712Y-82718461D01*
X89928900Y-83152565D01*
X89928900Y-83622435D01*
X90108712Y-84056539D01*
X90440961Y-84388788D01*
X90875065Y-84568600D01*
X91344935Y-84568600D01*
X91779039Y-84388788D01*
X91849000Y-84318827D01*
X91849001Y-88198892D01*
X89797555Y-90250338D01*
X89753221Y-90279961D01*
X89635860Y-90455605D01*
X89605050Y-90610497D01*
X89605050Y-90610500D01*
X89594649Y-90662790D01*
X89605050Y-90715080D01*
X89605051Y-93971888D01*
X89605050Y-93971893D01*
X89605050Y-94016370D01*
X89558726Y-94062694D01*
X89455050Y-94312991D01*
X89455050Y-94583909D01*
X89558726Y-94834206D01*
X89750294Y-95025774D01*
X89910592Y-95092171D01*
X89910592Y-95345261D01*
X90014268Y-95595558D01*
X90205836Y-95787126D01*
X90325849Y-95836837D01*
X90238248Y-96048324D01*
X90238248Y-96319242D01*
X90341924Y-96569539D01*
X90533492Y-96761107D01*
X90783789Y-96864783D01*
X91054707Y-96864783D01*
X91305004Y-96761107D01*
X91348990Y-96717121D01*
X91348990Y-97084188D01*
X91257217Y-97221537D01*
X91226407Y-97376429D01*
X91226407Y-97376432D01*
X91216006Y-97428722D01*
X91216435Y-97430878D01*
X91180083Y-97467230D01*
X91076407Y-97717527D01*
X91076407Y-97988445D01*
X91152348Y-98171783D01*
X91065507Y-98258624D01*
X91000500Y-98415565D01*
X91000500Y-98711250D01*
X91107250Y-98818000D01*
X91999000Y-98818000D01*
X91999000Y-98798000D01*
X92253000Y-98798000D01*
X92253000Y-98818000D01*
X93144750Y-98818000D01*
X93251500Y-98711250D01*
X93251500Y-98415565D01*
X93186493Y-98258624D01*
X93066376Y-98138507D01*
X92909436Y-98073500D01*
X92403176Y-98073500D01*
X92438407Y-97988445D01*
X92438407Y-97717527D01*
X92363910Y-97537674D01*
X92380179Y-97513326D01*
X92410989Y-97358434D01*
X92410989Y-97358431D01*
X92421390Y-97306141D01*
X92410989Y-97253851D01*
X92410989Y-94782558D01*
X93808784Y-96180354D01*
X93808785Y-99581486D01*
X93808784Y-99581491D01*
X93808784Y-99625968D01*
X93762460Y-99672292D01*
X93658784Y-99922589D01*
X93658784Y-100193507D01*
X93762460Y-100443804D01*
X93954028Y-100635372D01*
X94204325Y-100739048D01*
X94475243Y-100739048D01*
X94725540Y-100635372D01*
X94917108Y-100443804D01*
X94947893Y-100369483D01*
X94956037Y-100372856D01*
X95226955Y-100372856D01*
X95477252Y-100269180D01*
X95592412Y-100154020D01*
X95740383Y-100215311D01*
X96011301Y-100215311D01*
X96261598Y-100111635D01*
X96453166Y-99920067D01*
X96483408Y-99847057D01*
X96505858Y-99856356D01*
X96776776Y-99856356D01*
X97027073Y-99752680D01*
X97218641Y-99561112D01*
X97322317Y-99310815D01*
X97322317Y-99039897D01*
X97218641Y-98789600D01*
X97172317Y-98743276D01*
X97172317Y-96192860D01*
X97182718Y-96140570D01*
X97172317Y-96088278D01*
X97172317Y-96088277D01*
X97141507Y-95933385D01*
X97024146Y-95757742D01*
X96979812Y-95728119D01*
X94601012Y-93349319D01*
X94601012Y-92006070D01*
X98826497Y-87780586D01*
X98870828Y-87750965D01*
X98930797Y-87661215D01*
X98988189Y-87575322D01*
X99010489Y-87463213D01*
X99018999Y-87420429D01*
X99018999Y-87420427D01*
X99029400Y-87368137D01*
X99018999Y-87315847D01*
X99018999Y-87311446D01*
X101608495Y-84721950D01*
X101652829Y-84692327D01*
X101770190Y-84516684D01*
X101782753Y-84453524D01*
X101939039Y-84388788D01*
X102069001Y-84258826D01*
X102069000Y-90317064D01*
X101330053Y-91056011D01*
X101264541Y-91056011D01*
X101014244Y-91159687D01*
X100822676Y-91351255D01*
X100719000Y-91601552D01*
X100719000Y-91872470D01*
X100762936Y-91978542D01*
X99041705Y-91978542D01*
X99032426Y-91956140D01*
X98840858Y-91764572D01*
X98590561Y-91660896D01*
X98319643Y-91660896D01*
X98069346Y-91764572D01*
X97934832Y-91899086D01*
X97812874Y-91848569D01*
X97541956Y-91848569D01*
X97291659Y-91952245D01*
X97100091Y-92143813D01*
X97087173Y-92175000D01*
X96993954Y-92136388D01*
X96723036Y-92136388D01*
X96472739Y-92240064D01*
X96327713Y-92385090D01*
X96122947Y-92300273D01*
X95852029Y-92300273D01*
X95601732Y-92403949D01*
X95410164Y-92595517D01*
X95306488Y-92845814D01*
X95306488Y-93116732D01*
X95410164Y-93367029D01*
X95601732Y-93558597D01*
X95852029Y-93662273D01*
X95917541Y-93662273D01*
X96603340Y-94348073D01*
X96632961Y-94392404D01*
X96677292Y-94422025D01*
X96677293Y-94422026D01*
X96701149Y-94437966D01*
X96808604Y-94509765D01*
X96963496Y-94540575D01*
X96963500Y-94540575D01*
X97015790Y-94550976D01*
X97068080Y-94540575D01*
X99484536Y-94540575D01*
X99484536Y-95728113D01*
X98874584Y-95728113D01*
X98633163Y-95628113D01*
X98322461Y-95628113D01*
X98035411Y-95747013D01*
X97815712Y-95966712D01*
X97696812Y-96253762D01*
X97696812Y-96564464D01*
X97815712Y-96851514D01*
X98035411Y-97071213D01*
X98322461Y-97190113D01*
X98633163Y-97190113D01*
X98874584Y-97090113D01*
X99373212Y-97090113D01*
X99373036Y-97091000D01*
X99373036Y-97599000D01*
X99402606Y-97747659D01*
X99486814Y-97873686D01*
X99612841Y-97957894D01*
X99723976Y-97980000D01*
X99612841Y-98002106D01*
X99486814Y-98086314D01*
X99477018Y-98100975D01*
X99116497Y-98100975D01*
X99064207Y-98090574D01*
X99011917Y-98100975D01*
X99011914Y-98100975D01*
X98877569Y-98127698D01*
X98857022Y-98131785D01*
X98736462Y-98212341D01*
X98681379Y-98249146D01*
X98651758Y-98293477D01*
X96456065Y-100489171D01*
X95782118Y-100489171D01*
X95729828Y-100478770D01*
X95677538Y-100489171D01*
X95677535Y-100489171D01*
X95522643Y-100519981D01*
X95347000Y-100637342D01*
X95317378Y-100681675D01*
X93492964Y-102506089D01*
X93492964Y-102241000D01*
X93463394Y-102092341D01*
X93379186Y-101966314D01*
X93253159Y-101882106D01*
X93104500Y-101852536D01*
X92793801Y-101852536D01*
X92600069Y-101814000D01*
X92527079Y-101814000D01*
X92396043Y-101682964D01*
X92824500Y-101682964D01*
X92973159Y-101653394D01*
X93099186Y-101569186D01*
X93183394Y-101443159D01*
X93212964Y-101294500D01*
X93212964Y-100405500D01*
X93183394Y-100256841D01*
X93099186Y-100130814D01*
X92973159Y-100046606D01*
X92824500Y-100017036D01*
X91794621Y-100017036D01*
X91749999Y-100008160D01*
X91705377Y-100017036D01*
X91427500Y-100017036D01*
X91278841Y-100046606D01*
X91152814Y-100130814D01*
X91068606Y-100256841D01*
X91039036Y-100405500D01*
X91039036Y-100441476D01*
X91009027Y-100461528D01*
X90858513Y-100686788D01*
X90819000Y-100885432D01*
X90819000Y-100885435D01*
X90805660Y-100952500D01*
X90819000Y-101019565D01*
X90819000Y-101353228D01*
X90719000Y-101594649D01*
X90719000Y-101861053D01*
X90244000Y-101386053D01*
X90244000Y-99178750D01*
X91000500Y-99178750D01*
X91000500Y-99474435D01*
X91065507Y-99631376D01*
X91185624Y-99751493D01*
X91342564Y-99816500D01*
X91892250Y-99816500D01*
X91999000Y-99709750D01*
X91999000Y-99072000D01*
X92253000Y-99072000D01*
X92253000Y-99709750D01*
X92359750Y-99816500D01*
X92909436Y-99816500D01*
X93066376Y-99751493D01*
X93186493Y-99631376D01*
X93251500Y-99474435D01*
X93251500Y-99178750D01*
X93144750Y-99072000D01*
X92253000Y-99072000D01*
X91999000Y-99072000D01*
X91107250Y-99072000D01*
X91000500Y-99178750D01*
X90244000Y-99178750D01*
X90244000Y-97663789D01*
X90254401Y-97611499D01*
X90244000Y-97559209D01*
X90244000Y-97559206D01*
X90213190Y-97404314D01*
X90147593Y-97306141D01*
X90125451Y-97273003D01*
X90125450Y-97273002D01*
X90095829Y-97228671D01*
X90051498Y-97199050D01*
X88471522Y-95619075D01*
X88551000Y-95427198D01*
X88551000Y-94877802D01*
X88340755Y-94370227D01*
X87952273Y-93981745D01*
X87444698Y-93771500D01*
X86895302Y-93771500D01*
X86387727Y-93981745D01*
X85999245Y-94370227D01*
X85789000Y-94877802D01*
X85789000Y-95427198D01*
X85999245Y-95934773D01*
X86387727Y-96323255D01*
X86895302Y-96533500D01*
X87444698Y-96533500D01*
X87755368Y-96404816D01*
X89182001Y-97831449D01*
X89182000Y-101553710D01*
X89171599Y-101606000D01*
X89182000Y-101658290D01*
X89182000Y-101658293D01*
X89212810Y-101813185D01*
X89330171Y-101988829D01*
X89374505Y-102018452D01*
X91459550Y-104103498D01*
X91489171Y-104147829D01*
X91664814Y-104265190D01*
X91668227Y-104265869D01*
X91686814Y-104293686D01*
X91812841Y-104377894D01*
X91923976Y-104400000D01*
X91812841Y-104422106D01*
X91690277Y-104504000D01*
X91456948Y-104504000D01*
X88442379Y-101489432D01*
X88551000Y-101227198D01*
X88551000Y-100677802D01*
X88340755Y-100170227D01*
X87952273Y-99781745D01*
X87444698Y-99571500D01*
X86895302Y-99571500D01*
X86387727Y-99781745D01*
X85999245Y-100170227D01*
X85789000Y-100677802D01*
X85789000Y-101227198D01*
X85999245Y-101734773D01*
X86387727Y-102123255D01*
X86895302Y-102333500D01*
X87444698Y-102333500D01*
X87685011Y-102233959D01*
X90824550Y-105373498D01*
X90854171Y-105417829D01*
X90898502Y-105447450D01*
X90898503Y-105447451D01*
X90900893Y-105449048D01*
X91029814Y-105535190D01*
X91184706Y-105566000D01*
X91184709Y-105566000D01*
X91236999Y-105576401D01*
X91289289Y-105566000D01*
X91690277Y-105566000D01*
X91812841Y-105647894D01*
X91816920Y-105648705D01*
X91719624Y-105689007D01*
X91599507Y-105809124D01*
X91534500Y-105966065D01*
X91534500Y-106071250D01*
X91641250Y-106178000D01*
X92406000Y-106178000D01*
X92406000Y-106158000D01*
X92660000Y-106158000D01*
X92660000Y-106178000D01*
X93424750Y-106178000D01*
X93531500Y-106071250D01*
X93531500Y-105966065D01*
X93466493Y-105809124D01*
X93346376Y-105689007D01*
X93249080Y-105648705D01*
X93253159Y-105647894D01*
X93375723Y-105566000D01*
X93662710Y-105566000D01*
X93715000Y-105576401D01*
X93767290Y-105566000D01*
X93767294Y-105566000D01*
X93922186Y-105535190D01*
X94097829Y-105417829D01*
X94127452Y-105373495D01*
X96907036Y-102593911D01*
X96907036Y-102749000D01*
X96936606Y-102897659D01*
X97020814Y-103023686D01*
X97146841Y-103107894D01*
X97257976Y-103130000D01*
X97146841Y-103152106D01*
X97020814Y-103236314D01*
X96936606Y-103362341D01*
X96907036Y-103511000D01*
X96907036Y-104019000D01*
X96936606Y-104167659D01*
X97020814Y-104293686D01*
X97146841Y-104377894D01*
X97257976Y-104400000D01*
X97146841Y-104422106D01*
X97020814Y-104506314D01*
X96936606Y-104632341D01*
X96907036Y-104781000D01*
X96907036Y-105289000D01*
X96936606Y-105437659D01*
X97020814Y-105563686D01*
X97146841Y-105647894D01*
X97257976Y-105670000D01*
X97146841Y-105692106D01*
X97020814Y-105776314D01*
X96936606Y-105902341D01*
X96907036Y-106051000D01*
X96907036Y-106559000D01*
X96936606Y-106707659D01*
X97020814Y-106833686D01*
X97146841Y-106917894D01*
X97295500Y-106947464D01*
X98438500Y-106947464D01*
X98587159Y-106917894D01*
X98709723Y-106836000D01*
X99635190Y-106836000D01*
X99864541Y-106931000D01*
X100135459Y-106931000D01*
X100385756Y-106827324D01*
X100577324Y-106635756D01*
X100681000Y-106385459D01*
X100681000Y-106114541D01*
X100577324Y-105864244D01*
X100385756Y-105672676D01*
X100135459Y-105569000D01*
X99864541Y-105569000D01*
X99614244Y-105672676D01*
X99512920Y-105774000D01*
X98709723Y-105774000D01*
X98587159Y-105692106D01*
X98476024Y-105670000D01*
X98587159Y-105647894D01*
X98713186Y-105563686D01*
X98797394Y-105437659D01*
X98826964Y-105289000D01*
X98826964Y-104781000D01*
X98797394Y-104632341D01*
X98713186Y-104506314D01*
X98587159Y-104422106D01*
X98476024Y-104400000D01*
X98587159Y-104377894D01*
X98709723Y-104296000D01*
X99082920Y-104296000D01*
X99114244Y-104327324D01*
X99364541Y-104431000D01*
X99635459Y-104431000D01*
X99885756Y-104327324D01*
X100077324Y-104135756D01*
X100181000Y-103885459D01*
X100181000Y-103614541D01*
X100077324Y-103364244D01*
X99885756Y-103172676D01*
X99635459Y-103069000D01*
X99364541Y-103069000D01*
X99114244Y-103172676D01*
X99052920Y-103234000D01*
X98709723Y-103234000D01*
X98587159Y-103152106D01*
X98476024Y-103130000D01*
X98587159Y-103107894D01*
X98709723Y-103026000D01*
X100812920Y-103026000D01*
X100864244Y-103077324D01*
X101114541Y-103181000D01*
X101385459Y-103181000D01*
X101635756Y-103077324D01*
X101827324Y-102885756D01*
X101931000Y-102635459D01*
X101931000Y-102364541D01*
X101827324Y-102114244D01*
X101635756Y-101922676D01*
X101385459Y-101819000D01*
X101114541Y-101819000D01*
X100864244Y-101922676D01*
X100822920Y-101964000D01*
X98709723Y-101964000D01*
X98690797Y-101951354D01*
X98763147Y-101903011D01*
X98792770Y-101858677D01*
X99369445Y-101282002D01*
X99441248Y-101282002D01*
X99334500Y-101388750D01*
X99334500Y-101493935D01*
X99399507Y-101650876D01*
X99519624Y-101770993D01*
X99676564Y-101836000D01*
X100099250Y-101836000D01*
X100206000Y-101729250D01*
X100206000Y-101282000D01*
X100460000Y-101282000D01*
X100460000Y-101729250D01*
X100566750Y-101836000D01*
X100989436Y-101836000D01*
X101146376Y-101770993D01*
X101266493Y-101650876D01*
X101331500Y-101493935D01*
X101331500Y-101388750D01*
X101224750Y-101282000D01*
X100460000Y-101282000D01*
X100206000Y-101282000D01*
X100186000Y-101282000D01*
X100186000Y-101028000D01*
X100206000Y-101028000D01*
X100206000Y-101008000D01*
X100460000Y-101008000D01*
X100460000Y-101028000D01*
X101224750Y-101028000D01*
X101331500Y-100921250D01*
X101331500Y-100816065D01*
X101266493Y-100659124D01*
X101146376Y-100539007D01*
X101049080Y-100498705D01*
X101053159Y-100497894D01*
X101179186Y-100413686D01*
X101263394Y-100287659D01*
X101292964Y-100139000D01*
X101292964Y-99631000D01*
X101263394Y-99482341D01*
X101179186Y-99356314D01*
X101053159Y-99272106D01*
X100942024Y-99250000D01*
X101053159Y-99227894D01*
X101179186Y-99143686D01*
X101263394Y-99017659D01*
X101292964Y-98869000D01*
X101292964Y-98361000D01*
X101263394Y-98212341D01*
X101179186Y-98086314D01*
X101053159Y-98002106D01*
X100942024Y-97980000D01*
X101053159Y-97957894D01*
X101179186Y-97873686D01*
X101263394Y-97747659D01*
X101292964Y-97599000D01*
X101292964Y-97091000D01*
X101263394Y-96942341D01*
X101179186Y-96816314D01*
X101053159Y-96732106D01*
X100998500Y-96721234D01*
X100998500Y-96476182D01*
X101011841Y-96409113D01*
X100998500Y-96342044D01*
X100998500Y-96070201D01*
X101036686Y-96044686D01*
X101120894Y-95918659D01*
X101150464Y-95770000D01*
X101150464Y-95305250D01*
X101351000Y-95305250D01*
X101351000Y-95854936D01*
X101416007Y-96011876D01*
X101536124Y-96131993D01*
X101693065Y-96197000D01*
X101988750Y-96197000D01*
X102095500Y-96090250D01*
X102095500Y-95198500D01*
X102349500Y-95198500D01*
X102349500Y-96090250D01*
X102456250Y-96197000D01*
X102751935Y-96197000D01*
X102908876Y-96131993D01*
X103028993Y-96011876D01*
X103094000Y-95854936D01*
X103094000Y-95305250D01*
X102987250Y-95198500D01*
X102349500Y-95198500D01*
X102095500Y-95198500D01*
X101457750Y-95198500D01*
X101351000Y-95305250D01*
X101150464Y-95305250D01*
X101150464Y-94540575D01*
X101351000Y-94540575D01*
X101351000Y-94837750D01*
X101457750Y-94944500D01*
X102095500Y-94944500D01*
X102095500Y-94924500D01*
X102349500Y-94924500D01*
X102349500Y-94944500D01*
X102987250Y-94944500D01*
X103094000Y-94837750D01*
X103094000Y-94540575D01*
X104938135Y-94540575D01*
X104990425Y-94550976D01*
X105042715Y-94540575D01*
X105042719Y-94540575D01*
X105197611Y-94509765D01*
X105373254Y-94392404D01*
X105402877Y-94348070D01*
X106219001Y-93531947D01*
X106219001Y-96042052D01*
X105558517Y-96702536D01*
X105095500Y-96702536D01*
X104946841Y-96732106D01*
X104820814Y-96816314D01*
X104736606Y-96942341D01*
X104707036Y-97091000D01*
X104707036Y-97599000D01*
X104736606Y-97747659D01*
X104820814Y-97873686D01*
X104946841Y-97957894D01*
X105057976Y-97980000D01*
X104946841Y-98002106D01*
X104820814Y-98086314D01*
X104736606Y-98212341D01*
X104707036Y-98361000D01*
X104707036Y-98869000D01*
X104736606Y-99017659D01*
X104820814Y-99143686D01*
X104946841Y-99227894D01*
X105057976Y-99250000D01*
X104946841Y-99272106D01*
X104820814Y-99356314D01*
X104736606Y-99482341D01*
X104732737Y-99501793D01*
X104732171Y-99502171D01*
X104702548Y-99546505D01*
X104161504Y-100087549D01*
X104117172Y-100117171D01*
X104087551Y-100161502D01*
X104087549Y-100161504D01*
X103999810Y-100292815D01*
X103958599Y-100500000D01*
X103969001Y-100552294D01*
X103969000Y-101947709D01*
X103958599Y-102000000D01*
X103969000Y-102052290D01*
X103969000Y-102052293D01*
X103999810Y-102207185D01*
X104117171Y-102382829D01*
X104161506Y-102412453D01*
X104337546Y-102588493D01*
X104367171Y-102632829D01*
X104542814Y-102750190D01*
X104697706Y-102781000D01*
X104697709Y-102781000D01*
X104749999Y-102791401D01*
X104802289Y-102781000D01*
X106447710Y-102781000D01*
X106500000Y-102791401D01*
X106552290Y-102781000D01*
X106552294Y-102781000D01*
X106707186Y-102750190D01*
X106882829Y-102632829D01*
X106912452Y-102588495D01*
X108588498Y-100912450D01*
X108632829Y-100882829D01*
X108750190Y-100707186D01*
X108781000Y-100552294D01*
X108791402Y-100500000D01*
X108781000Y-100447706D01*
X108781000Y-87127447D01*
X109469000Y-86439447D01*
X109469000Y-86517307D01*
X109664021Y-86988128D01*
X110024372Y-87348479D01*
X110468637Y-87532500D01*
X110024372Y-87716521D01*
X109664021Y-88076872D01*
X109469000Y-88547693D01*
X109469000Y-89057307D01*
X109664021Y-89528128D01*
X110024372Y-89888479D01*
X110424061Y-90054036D01*
X109850000Y-90054036D01*
X109701341Y-90083606D01*
X109575314Y-90167814D01*
X109491106Y-90293841D01*
X109461536Y-90442500D01*
X109461536Y-92242500D01*
X109491106Y-92391159D01*
X109575314Y-92517186D01*
X109701341Y-92601394D01*
X109850000Y-92630964D01*
X111650000Y-92630964D01*
X111798659Y-92601394D01*
X111924686Y-92517186D01*
X112008894Y-92391159D01*
X112038464Y-92242500D01*
X112038464Y-91668439D01*
X112204021Y-92068128D01*
X112564372Y-92428479D01*
X113035193Y-92623500D01*
X113544807Y-92623500D01*
X114015628Y-92428479D01*
X114373000Y-92071107D01*
X114373000Y-95422053D01*
X113173884Y-94222937D01*
X113144261Y-94178603D01*
X112968618Y-94061242D01*
X112813726Y-94030432D01*
X112813722Y-94030432D01*
X112761432Y-94020031D01*
X112709142Y-94030432D01*
X110450060Y-94030432D01*
X110403736Y-93984108D01*
X110153439Y-93880432D01*
X109882521Y-93880432D01*
X109632224Y-93984108D01*
X109440656Y-94175676D01*
X109336980Y-94425973D01*
X109336980Y-94696891D01*
X109440656Y-94947188D01*
X109632224Y-95138756D01*
X109882521Y-95242432D01*
X110153439Y-95242432D01*
X110403736Y-95138756D01*
X110450060Y-95092432D01*
X112541485Y-95092432D01*
X114058489Y-96609436D01*
X114058489Y-96627594D01*
X112951165Y-95520271D01*
X112921542Y-95475937D01*
X112745899Y-95358576D01*
X112591007Y-95327766D01*
X112591003Y-95327766D01*
X112538713Y-95317365D01*
X112486423Y-95327766D01*
X111782060Y-95327766D01*
X111735736Y-95281442D01*
X111485439Y-95177766D01*
X111214521Y-95177766D01*
X110964224Y-95281442D01*
X110772656Y-95473010D01*
X110668980Y-95723307D01*
X110668980Y-95994225D01*
X110772656Y-96244522D01*
X110964224Y-96436090D01*
X111214521Y-96539766D01*
X111485439Y-96539766D01*
X111735736Y-96436090D01*
X111782060Y-96389766D01*
X112318766Y-96389766D01*
X112747946Y-96818946D01*
X112626201Y-96869374D01*
X112434633Y-97060942D01*
X112330957Y-97311239D01*
X112330957Y-97582157D01*
X112434633Y-97832454D01*
X112626201Y-98024022D01*
X112876498Y-98127698D01*
X112942009Y-98127698D01*
X113058469Y-98244158D01*
X113058468Y-106430362D01*
X112922919Y-106457324D01*
X112747276Y-106574685D01*
X112717654Y-106619018D01*
X112453608Y-106883064D01*
X112409277Y-106912685D01*
X112379656Y-106957016D01*
X112379654Y-106957018D01*
X112291915Y-107088329D01*
X112276724Y-107164699D01*
X112261105Y-107243220D01*
X112261105Y-107243224D01*
X112250704Y-107295514D01*
X112261105Y-107347804D01*
X112261105Y-107867226D01*
X112250704Y-107919516D01*
X112261105Y-107971806D01*
X112261105Y-107971809D01*
X112291915Y-108126701D01*
X112409276Y-108302345D01*
X112453610Y-108331968D01*
X112717653Y-108596011D01*
X112747276Y-108640345D01*
X112819241Y-108688430D01*
X112819240Y-109235747D01*
X110714493Y-107131000D01*
X110923882Y-107131000D01*
X111707115Y-106806575D01*
X112306575Y-106207115D01*
X112631000Y-105423882D01*
X112631000Y-104576118D01*
X112306575Y-103792885D01*
X111707115Y-103193425D01*
X110923882Y-102869000D01*
X110076118Y-102869000D01*
X109292885Y-103193425D01*
X108693425Y-103792885D01*
X108369000Y-104576118D01*
X108369000Y-105226055D01*
X108319753Y-105176808D01*
X108319753Y-104436547D01*
X108330155Y-104384253D01*
X108299094Y-104228098D01*
X108288943Y-104177067D01*
X108171582Y-104001424D01*
X108127248Y-103971801D01*
X107793000Y-103637553D01*
X107793000Y-103572041D01*
X107689324Y-103321744D01*
X107497756Y-103130176D01*
X107247459Y-103026500D01*
X106976541Y-103026500D01*
X106726244Y-103130176D01*
X106534676Y-103321744D01*
X106431000Y-103572041D01*
X106431000Y-103842959D01*
X106457495Y-103906925D01*
X106280676Y-104083744D01*
X106177000Y-104334041D01*
X106177000Y-104604959D01*
X106203495Y-104668925D01*
X106045718Y-104826702D01*
X105902796Y-104767502D01*
X105631878Y-104767502D01*
X105381581Y-104871178D01*
X105190013Y-105062746D01*
X105086337Y-105313043D01*
X105086337Y-105583961D01*
X105190013Y-105834258D01*
X105381581Y-106025826D01*
X105478786Y-106066090D01*
X105489921Y-106082754D01*
X105534255Y-106112377D01*
X106772147Y-107350269D01*
X106772146Y-110100400D01*
X105400110Y-110100400D01*
X105293360Y-110207150D01*
X105293360Y-111200500D01*
X105313360Y-111200500D01*
X105313360Y-111454500D01*
X105293360Y-111454500D01*
X105293360Y-112447850D01*
X105400110Y-112554600D01*
X106772146Y-112554600D01*
X106772146Y-112694407D01*
X104153815Y-115312738D01*
X104037357Y-115264500D01*
X103582643Y-115264500D01*
X103162542Y-115438511D01*
X102841011Y-115760042D01*
X102667000Y-116180143D01*
X102667000Y-116634857D01*
X102841011Y-117054958D01*
X103162542Y-117376489D01*
X103582643Y-117550500D01*
X104037357Y-117550500D01*
X104457458Y-117376489D01*
X104706999Y-117126948D01*
X104706999Y-117783209D01*
X104696598Y-117835499D01*
X104706999Y-117887789D01*
X104706999Y-117887792D01*
X104737809Y-118042684D01*
X104855170Y-118218328D01*
X104899504Y-118247951D01*
X105255238Y-118603685D01*
X105207000Y-118720143D01*
X105207000Y-119174857D01*
X105381011Y-119594958D01*
X105702542Y-119916489D01*
X106122643Y-120090500D01*
X106577357Y-120090500D01*
X106997458Y-119916489D01*
X107318989Y-119594958D01*
X107493000Y-119174857D01*
X107493000Y-118720143D01*
X107318989Y-118300042D01*
X106997458Y-117978511D01*
X106577357Y-117804500D01*
X106122643Y-117804500D01*
X106006185Y-117852738D01*
X105768999Y-117615552D01*
X105768999Y-117404016D01*
X106122643Y-117550500D01*
X106577357Y-117550500D01*
X106997458Y-117376489D01*
X107246999Y-117126948D01*
X107246999Y-117783209D01*
X107236598Y-117835499D01*
X107246999Y-117887789D01*
X107246999Y-117887792D01*
X107277809Y-118042684D01*
X107395170Y-118218328D01*
X107439504Y-118247951D01*
X107795238Y-118603685D01*
X107747000Y-118720143D01*
X107747000Y-119174857D01*
X107921011Y-119594958D01*
X108242542Y-119916489D01*
X108662643Y-120090500D01*
X109117357Y-120090500D01*
X109537458Y-119916489D01*
X109858989Y-119594958D01*
X110033000Y-119174857D01*
X110033000Y-118720143D01*
X109858989Y-118300042D01*
X109537458Y-117978511D01*
X109117357Y-117804500D01*
X108662643Y-117804500D01*
X108546185Y-117852738D01*
X108308999Y-117615552D01*
X108308999Y-117404016D01*
X108662643Y-117550500D01*
X109117357Y-117550500D01*
X109537458Y-117376489D01*
X109786999Y-117126948D01*
X109786999Y-117783209D01*
X109776598Y-117835499D01*
X109786999Y-117887789D01*
X109786999Y-117887792D01*
X109817809Y-118042684D01*
X109935170Y-118218328D01*
X109979504Y-118247951D01*
X110335238Y-118603685D01*
X110287000Y-118720143D01*
X110287000Y-119174857D01*
X110461011Y-119594958D01*
X110782542Y-119916489D01*
X111202643Y-120090500D01*
X111657357Y-120090500D01*
X112077458Y-119916489D01*
X112398989Y-119594958D01*
X112573000Y-119174857D01*
X112573000Y-118720143D01*
X112398989Y-118300042D01*
X112077458Y-117978511D01*
X111657357Y-117804500D01*
X111202643Y-117804500D01*
X111086185Y-117852738D01*
X110848999Y-117615552D01*
X110848999Y-117404016D01*
X111202643Y-117550500D01*
X111657357Y-117550500D01*
X112077458Y-117376489D01*
X112398989Y-117054958D01*
X112447227Y-116938500D01*
X112455340Y-116938500D01*
X112507630Y-116948901D01*
X112559920Y-116938500D01*
X112559924Y-116938500D01*
X112714816Y-116907690D01*
X112890459Y-116790329D01*
X112920082Y-116745995D01*
X114373000Y-115293078D01*
X114373000Y-119908995D01*
X114227890Y-120009219D01*
X110945851Y-121884669D01*
X106976970Y-123373000D01*
X93026951Y-123373000D01*
X88561453Y-121388334D01*
X85627000Y-119432032D01*
X85627000Y-119181250D01*
X87317500Y-119181250D01*
X87317500Y-119857936D01*
X87382507Y-120014876D01*
X87502624Y-120134993D01*
X87659565Y-120200000D01*
X88336250Y-120200000D01*
X88443000Y-120093250D01*
X88443000Y-119074500D01*
X88697000Y-119074500D01*
X88697000Y-120093250D01*
X88803750Y-120200000D01*
X89480435Y-120200000D01*
X89637376Y-120134993D01*
X89757493Y-120014876D01*
X89822500Y-119857936D01*
X89822500Y-119181250D01*
X89715750Y-119074500D01*
X88697000Y-119074500D01*
X88443000Y-119074500D01*
X87424250Y-119074500D01*
X87317500Y-119181250D01*
X85627000Y-119181250D01*
X85627000Y-118037064D01*
X87317500Y-118037064D01*
X87317500Y-118713750D01*
X87424250Y-118820500D01*
X88443000Y-118820500D01*
X88443000Y-117801750D01*
X88697000Y-117801750D01*
X88697000Y-118820500D01*
X89715750Y-118820500D01*
X89822500Y-118713750D01*
X89822500Y-118712565D01*
X89928900Y-118712565D01*
X89928900Y-119182435D01*
X90108712Y-119616539D01*
X90440961Y-119948788D01*
X90875065Y-120128600D01*
X91344935Y-120128600D01*
X91779039Y-119948788D01*
X92111288Y-119616539D01*
X92291100Y-119182435D01*
X92291100Y-118712565D01*
X92468900Y-118712565D01*
X92468900Y-119182435D01*
X92648712Y-119616539D01*
X92980961Y-119948788D01*
X93415065Y-120128600D01*
X93884935Y-120128600D01*
X94319039Y-119948788D01*
X94651288Y-119616539D01*
X94831100Y-119182435D01*
X94831100Y-118712565D01*
X95008900Y-118712565D01*
X95008900Y-119182435D01*
X95188712Y-119616539D01*
X95520961Y-119948788D01*
X95955065Y-120128600D01*
X96424935Y-120128600D01*
X96859039Y-119948788D01*
X97191288Y-119616539D01*
X97371100Y-119182435D01*
X97371100Y-118712565D01*
X97548900Y-118712565D01*
X97548900Y-119182435D01*
X97728712Y-119616539D01*
X98060961Y-119948788D01*
X98495065Y-120128600D01*
X98964935Y-120128600D01*
X99399039Y-119948788D01*
X99731288Y-119616539D01*
X99911100Y-119182435D01*
X99911100Y-118712565D01*
X100088900Y-118712565D01*
X100088900Y-119182435D01*
X100268712Y-119616539D01*
X100600961Y-119948788D01*
X101035065Y-120128600D01*
X101504935Y-120128600D01*
X101939039Y-119948788D01*
X102271288Y-119616539D01*
X102451100Y-119182435D01*
X102451100Y-118720143D01*
X102667000Y-118720143D01*
X102667000Y-119174857D01*
X102841011Y-119594958D01*
X103162542Y-119916489D01*
X103582643Y-120090500D01*
X104037357Y-120090500D01*
X104457458Y-119916489D01*
X104778989Y-119594958D01*
X104953000Y-119174857D01*
X104953000Y-118720143D01*
X104778989Y-118300042D01*
X104457458Y-117978511D01*
X104037357Y-117804500D01*
X103582643Y-117804500D01*
X103162542Y-117978511D01*
X102841011Y-118300042D01*
X102667000Y-118720143D01*
X102451100Y-118720143D01*
X102451100Y-118712565D01*
X102271288Y-118278461D01*
X101939039Y-117946212D01*
X101504935Y-117766400D01*
X101035065Y-117766400D01*
X100600961Y-117946212D01*
X100268712Y-118278461D01*
X100088900Y-118712565D01*
X99911100Y-118712565D01*
X99731288Y-118278461D01*
X99399039Y-117946212D01*
X98964935Y-117766400D01*
X98495065Y-117766400D01*
X98060961Y-117946212D01*
X97728712Y-118278461D01*
X97548900Y-118712565D01*
X97371100Y-118712565D01*
X97191288Y-118278461D01*
X96859039Y-117946212D01*
X96424935Y-117766400D01*
X95955065Y-117766400D01*
X95520961Y-117946212D01*
X95188712Y-118278461D01*
X95008900Y-118712565D01*
X94831100Y-118712565D01*
X94651288Y-118278461D01*
X94319039Y-117946212D01*
X93884935Y-117766400D01*
X93415065Y-117766400D01*
X92980961Y-117946212D01*
X92648712Y-118278461D01*
X92468900Y-118712565D01*
X92291100Y-118712565D01*
X92111288Y-118278461D01*
X91779039Y-117946212D01*
X91344935Y-117766400D01*
X90875065Y-117766400D01*
X90440961Y-117946212D01*
X90108712Y-118278461D01*
X89928900Y-118712565D01*
X89822500Y-118712565D01*
X89822500Y-118037064D01*
X89757493Y-117880124D01*
X89637376Y-117760007D01*
X89480435Y-117695000D01*
X88803750Y-117695000D01*
X88697000Y-117801750D01*
X88443000Y-117801750D01*
X88336250Y-117695000D01*
X87659565Y-117695000D01*
X87502624Y-117760007D01*
X87382507Y-117880124D01*
X87317500Y-118037064D01*
X85627000Y-118037064D01*
X85627000Y-117301510D01*
X87855595Y-117301510D01*
X87941142Y-117489115D01*
X88402927Y-117647435D01*
X88890148Y-117616987D01*
X89198858Y-117489115D01*
X89284405Y-117301510D01*
X88570000Y-116587105D01*
X87855595Y-117301510D01*
X85627000Y-117301510D01*
X85627000Y-116240427D01*
X87330065Y-116240427D01*
X87360513Y-116727648D01*
X87488385Y-117036358D01*
X87675990Y-117121905D01*
X88390395Y-116407500D01*
X88749605Y-116407500D01*
X89464010Y-117121905D01*
X89651615Y-117036358D01*
X89809935Y-116574573D01*
X89784813Y-116172565D01*
X89928900Y-116172565D01*
X89928900Y-116642435D01*
X90108712Y-117076539D01*
X90440961Y-117408788D01*
X90875065Y-117588600D01*
X91344935Y-117588600D01*
X91779039Y-117408788D01*
X92111288Y-117076539D01*
X92291100Y-116642435D01*
X92291100Y-116172565D01*
X92468900Y-116172565D01*
X92468900Y-116642435D01*
X92648712Y-117076539D01*
X92980961Y-117408788D01*
X93415065Y-117588600D01*
X93884935Y-117588600D01*
X94319039Y-117408788D01*
X94651288Y-117076539D01*
X94831100Y-116642435D01*
X94831100Y-116172565D01*
X95008900Y-116172565D01*
X95008900Y-116642435D01*
X95188712Y-117076539D01*
X95520961Y-117408788D01*
X95955065Y-117588600D01*
X96424935Y-117588600D01*
X96859039Y-117408788D01*
X97191288Y-117076539D01*
X97371100Y-116642435D01*
X97371100Y-116172565D01*
X97548900Y-116172565D01*
X97548900Y-116642435D01*
X97728712Y-117076539D01*
X98060961Y-117408788D01*
X98495065Y-117588600D01*
X98964935Y-117588600D01*
X99399039Y-117408788D01*
X99731288Y-117076539D01*
X99911100Y-116642435D01*
X99911100Y-116172565D01*
X100088900Y-116172565D01*
X100088900Y-116642435D01*
X100268712Y-117076539D01*
X100600961Y-117408788D01*
X101035065Y-117588600D01*
X101504935Y-117588600D01*
X101939039Y-117408788D01*
X102271288Y-117076539D01*
X102451100Y-116642435D01*
X102451100Y-116172565D01*
X102271288Y-115738461D01*
X101939039Y-115406212D01*
X101504935Y-115226400D01*
X101035065Y-115226400D01*
X100600961Y-115406212D01*
X100268712Y-115738461D01*
X100088900Y-116172565D01*
X99911100Y-116172565D01*
X99731288Y-115738461D01*
X99399039Y-115406212D01*
X98964935Y-115226400D01*
X98495065Y-115226400D01*
X98060961Y-115406212D01*
X97728712Y-115738461D01*
X97548900Y-116172565D01*
X97371100Y-116172565D01*
X97191288Y-115738461D01*
X96859039Y-115406212D01*
X96424935Y-115226400D01*
X95955065Y-115226400D01*
X95520961Y-115406212D01*
X95188712Y-115738461D01*
X95008900Y-116172565D01*
X94831100Y-116172565D01*
X94651288Y-115738461D01*
X94319039Y-115406212D01*
X93884935Y-115226400D01*
X93415065Y-115226400D01*
X92980961Y-115406212D01*
X92648712Y-115738461D01*
X92468900Y-116172565D01*
X92291100Y-116172565D01*
X92111288Y-115738461D01*
X91779039Y-115406212D01*
X91344935Y-115226400D01*
X90875065Y-115226400D01*
X90440961Y-115406212D01*
X90108712Y-115738461D01*
X89928900Y-116172565D01*
X89784813Y-116172565D01*
X89779487Y-116087352D01*
X89651615Y-115778642D01*
X89464010Y-115693095D01*
X88749605Y-116407500D01*
X88390395Y-116407500D01*
X87675990Y-115693095D01*
X87488385Y-115778642D01*
X87330065Y-116240427D01*
X85627000Y-116240427D01*
X85627000Y-115513490D01*
X87855595Y-115513490D01*
X88570000Y-116227895D01*
X89284405Y-115513490D01*
X89198858Y-115325885D01*
X88737073Y-115167565D01*
X88249852Y-115198013D01*
X87941142Y-115325885D01*
X87855595Y-115513490D01*
X85627000Y-115513490D01*
X85627000Y-113204149D01*
X87281000Y-113204149D01*
X87281000Y-113514851D01*
X87399900Y-113801901D01*
X87619599Y-114021600D01*
X87906649Y-114140500D01*
X88217351Y-114140500D01*
X88458772Y-114040500D01*
X100942467Y-114040500D01*
X101108500Y-114109273D01*
X101419202Y-114109273D01*
X101706252Y-113990373D01*
X101925951Y-113770674D01*
X102044851Y-113483624D01*
X102044851Y-113172922D01*
X101925951Y-112885872D01*
X101706252Y-112666173D01*
X101419202Y-112547273D01*
X101108500Y-112547273D01*
X100821450Y-112666173D01*
X100809123Y-112678500D01*
X88458772Y-112678500D01*
X88217351Y-112578500D01*
X87906649Y-112578500D01*
X87619599Y-112697400D01*
X87399900Y-112917099D01*
X87281000Y-113204149D01*
X85627000Y-113204149D01*
X85627000Y-111561250D01*
X102989300Y-111561250D01*
X102989300Y-112212535D01*
X103054307Y-112369476D01*
X103174424Y-112489593D01*
X103331364Y-112554600D01*
X104932610Y-112554600D01*
X105039360Y-112447850D01*
X105039360Y-111454500D01*
X103096050Y-111454500D01*
X102989300Y-111561250D01*
X85627000Y-111561250D01*
X85627000Y-109500000D01*
X85617333Y-109451399D01*
X85589803Y-109410197D01*
X85089803Y-108910197D01*
X85048601Y-108882667D01*
X85000000Y-108873000D01*
X81052606Y-108873000D01*
X80627000Y-108447394D01*
X80627000Y-106377802D01*
X85789000Y-106377802D01*
X85789000Y-106927198D01*
X85999245Y-107434773D01*
X86387727Y-107823255D01*
X86895302Y-108033500D01*
X87444698Y-108033500D01*
X87952273Y-107823255D01*
X88340755Y-107434773D01*
X88551000Y-106927198D01*
X88551000Y-106377802D01*
X88340755Y-105870227D01*
X87952273Y-105481745D01*
X87444698Y-105271500D01*
X86895302Y-105271500D01*
X86387727Y-105481745D01*
X85999245Y-105870227D01*
X85789000Y-106377802D01*
X80627000Y-106377802D01*
X80627000Y-103933149D01*
X84614000Y-103933149D01*
X84614000Y-104243851D01*
X84732900Y-104530901D01*
X84952599Y-104750600D01*
X85239649Y-104869500D01*
X85550351Y-104869500D01*
X85791772Y-104769500D01*
X87652922Y-104769500D01*
X90083421Y-107199999D01*
X89897676Y-107385744D01*
X89794000Y-107636041D01*
X89794000Y-107701552D01*
X89374505Y-108121048D01*
X89330171Y-108150671D01*
X89212810Y-108326315D01*
X89182000Y-108481207D01*
X89182000Y-108481210D01*
X89171599Y-108533500D01*
X89182000Y-108585790D01*
X89182001Y-109752419D01*
X89135676Y-109798744D01*
X89032000Y-110049041D01*
X89032000Y-110319959D01*
X89135676Y-110570256D01*
X89327244Y-110761824D01*
X89577541Y-110865500D01*
X89848459Y-110865500D01*
X90098756Y-110761824D01*
X90290324Y-110570256D01*
X90394000Y-110319959D01*
X90394000Y-110049041D01*
X90389117Y-110037250D01*
X91915000Y-110037250D01*
X91915000Y-110688436D01*
X91980007Y-110845376D01*
X92100124Y-110965493D01*
X92257065Y-111030500D01*
X92908250Y-111030500D01*
X93015000Y-110923750D01*
X93015000Y-109930500D01*
X93269000Y-109930500D01*
X93269000Y-110923750D01*
X93375750Y-111030500D01*
X94026935Y-111030500D01*
X94183876Y-110965493D01*
X94303993Y-110845376D01*
X94369000Y-110688436D01*
X94369000Y-110037250D01*
X94262250Y-109930500D01*
X93269000Y-109930500D01*
X93015000Y-109930500D01*
X92021750Y-109930500D01*
X91915000Y-110037250D01*
X90389117Y-110037250D01*
X90290324Y-109798744D01*
X90244000Y-109752420D01*
X90244000Y-108918564D01*
X91915000Y-108918564D01*
X91915000Y-109569750D01*
X92021750Y-109676500D01*
X93015000Y-109676500D01*
X93015000Y-108683250D01*
X93269000Y-108683250D01*
X93269000Y-109676500D01*
X94262250Y-109676500D01*
X94369000Y-109569750D01*
X94369000Y-108918564D01*
X94303993Y-108761624D01*
X94183876Y-108641507D01*
X94026935Y-108576500D01*
X93375750Y-108576500D01*
X93269000Y-108683250D01*
X93015000Y-108683250D01*
X92908250Y-108576500D01*
X92257065Y-108576500D01*
X92100124Y-108641507D01*
X91980007Y-108761624D01*
X91915000Y-108918564D01*
X90244000Y-108918564D01*
X90244000Y-108753447D01*
X90544948Y-108452500D01*
X90610459Y-108452500D01*
X90860756Y-108348824D01*
X91046501Y-108163079D01*
X91089035Y-108205614D01*
X91127027Y-108262473D01*
X91352287Y-108412987D01*
X91550931Y-108452500D01*
X91550935Y-108452500D01*
X91618000Y-108465840D01*
X91685065Y-108452500D01*
X94637922Y-108452500D01*
X95000368Y-108814946D01*
X94680797Y-109134517D01*
X94501000Y-109568585D01*
X94501000Y-110038415D01*
X94680797Y-110472483D01*
X95013017Y-110804703D01*
X95447085Y-110984500D01*
X95916915Y-110984500D01*
X96350983Y-110804703D01*
X96458248Y-110697438D01*
X97507667Y-110697438D01*
X97593202Y-110885031D01*
X98054951Y-111043335D01*
X98542131Y-111012885D01*
X98850798Y-110885031D01*
X98936333Y-110697438D01*
X98222000Y-109983105D01*
X97507667Y-110697438D01*
X96458248Y-110697438D01*
X96683203Y-110472483D01*
X96863000Y-110038415D01*
X96863000Y-109636451D01*
X96982165Y-109636451D01*
X97012615Y-110123631D01*
X97140469Y-110432298D01*
X97328062Y-110517833D01*
X98042395Y-109803500D01*
X98401605Y-109803500D01*
X99115938Y-110517833D01*
X99303531Y-110432298D01*
X99461835Y-109970549D01*
X99436712Y-109568585D01*
X99581000Y-109568585D01*
X99581000Y-110038415D01*
X99760797Y-110472483D01*
X100093017Y-110804703D01*
X100527085Y-110984500D01*
X100996915Y-110984500D01*
X101430983Y-110804703D01*
X101763203Y-110472483D01*
X101775636Y-110442465D01*
X102989300Y-110442465D01*
X102989300Y-111093750D01*
X103096050Y-111200500D01*
X105039360Y-111200500D01*
X105039360Y-110207150D01*
X104932610Y-110100400D01*
X103331364Y-110100400D01*
X103174424Y-110165407D01*
X103054307Y-110285524D01*
X102989300Y-110442465D01*
X101775636Y-110442465D01*
X101943000Y-110038415D01*
X101943000Y-109568585D01*
X101763203Y-109134517D01*
X101430983Y-108802297D01*
X100996915Y-108622500D01*
X100527085Y-108622500D01*
X100093017Y-108802297D01*
X99760797Y-109134517D01*
X99581000Y-109568585D01*
X99436712Y-109568585D01*
X99431385Y-109483369D01*
X99303531Y-109174702D01*
X99115938Y-109089167D01*
X98401605Y-109803500D01*
X98042395Y-109803500D01*
X97328062Y-109089167D01*
X97140469Y-109174702D01*
X96982165Y-109636451D01*
X96863000Y-109636451D01*
X96863000Y-109568585D01*
X96683203Y-109134517D01*
X96458248Y-108909562D01*
X97507667Y-108909562D01*
X98222000Y-109623895D01*
X98936333Y-108909562D01*
X98850798Y-108721969D01*
X98389049Y-108563665D01*
X97901869Y-108594115D01*
X97593202Y-108721969D01*
X97507667Y-108909562D01*
X96458248Y-108909562D01*
X96363000Y-108814314D01*
X96363000Y-108600565D01*
X96376340Y-108533500D01*
X96363000Y-108466435D01*
X96363000Y-108466431D01*
X96323487Y-108267787D01*
X96172973Y-108042527D01*
X96116114Y-108004535D01*
X95448967Y-107337389D01*
X95410973Y-107280527D01*
X95185713Y-107130013D01*
X94987069Y-107090500D01*
X94987065Y-107090500D01*
X94920000Y-107077160D01*
X94852935Y-107090500D01*
X91900079Y-107090500D01*
X91738313Y-106928734D01*
X91876564Y-106986000D01*
X92299250Y-106986000D01*
X92406000Y-106879250D01*
X92406000Y-106432000D01*
X92660000Y-106432000D01*
X92660000Y-106879250D01*
X92766750Y-106986000D01*
X93189436Y-106986000D01*
X93346376Y-106920993D01*
X93466493Y-106800876D01*
X93531500Y-106643935D01*
X93531500Y-106538750D01*
X93424750Y-106432000D01*
X92660000Y-106432000D01*
X92406000Y-106432000D01*
X91641250Y-106432000D01*
X91534500Y-106538750D01*
X91534500Y-106643935D01*
X91591766Y-106782187D01*
X88463967Y-103654389D01*
X88425973Y-103597527D01*
X88200713Y-103447013D01*
X88002069Y-103407500D01*
X88002065Y-103407500D01*
X87935000Y-103394160D01*
X87867935Y-103407500D01*
X85791772Y-103407500D01*
X85550351Y-103307500D01*
X85239649Y-103307500D01*
X84952599Y-103426400D01*
X84732900Y-103646099D01*
X84614000Y-103933149D01*
X80627000Y-103933149D01*
X80627000Y-91986357D01*
X82287500Y-91986357D01*
X82287500Y-90391390D01*
X86310715Y-90391390D01*
X86420807Y-90599741D01*
X86955134Y-90791505D01*
X87522173Y-90764192D01*
X87919193Y-90599741D01*
X88029285Y-90391390D01*
X87170000Y-89532105D01*
X86310715Y-90391390D01*
X82287500Y-90391390D01*
X82287500Y-89137634D01*
X85730995Y-89137634D01*
X85758308Y-89704673D01*
X85922759Y-90101693D01*
X86131110Y-90211785D01*
X86990395Y-89352500D01*
X87349605Y-89352500D01*
X88208890Y-90211785D01*
X88417241Y-90101693D01*
X88609005Y-89567366D01*
X88581692Y-89000327D01*
X88417241Y-88603307D01*
X88208890Y-88493215D01*
X87349605Y-89352500D01*
X86990395Y-89352500D01*
X86131110Y-88493215D01*
X85922759Y-88603307D01*
X85730995Y-89137634D01*
X82287500Y-89137634D01*
X82287500Y-88313610D01*
X86310715Y-88313610D01*
X87170000Y-89172895D01*
X88029285Y-88313610D01*
X87919193Y-88105259D01*
X87384866Y-87913495D01*
X86817827Y-87940808D01*
X86420807Y-88105259D01*
X86310715Y-88313610D01*
X82287500Y-88313610D01*
X82287500Y-87188643D01*
X80627000Y-87188643D01*
X80627000Y-87052606D01*
X81052606Y-86627000D01*
X85000000Y-86627000D01*
X85048601Y-86617333D01*
X85089803Y-86589803D01*
X85589803Y-86089803D01*
X85617333Y-86048601D01*
X85627000Y-86000000D01*
X85627000Y-83621250D01*
X87317500Y-83621250D01*
X87317500Y-84297936D01*
X87382507Y-84454876D01*
X87502624Y-84574993D01*
X87659565Y-84640000D01*
X88336250Y-84640000D01*
X88443000Y-84533250D01*
X88443000Y-83514500D01*
X88697000Y-83514500D01*
X88697000Y-84533250D01*
X88803750Y-84640000D01*
X89480435Y-84640000D01*
X89637376Y-84574993D01*
X89757493Y-84454876D01*
X89822500Y-84297936D01*
X89822500Y-83621250D01*
X89715750Y-83514500D01*
X88697000Y-83514500D01*
X88443000Y-83514500D01*
X87424250Y-83514500D01*
X87317500Y-83621250D01*
X85627000Y-83621250D01*
X85627000Y-82477064D01*
X87317500Y-82477064D01*
X87317500Y-83153750D01*
X87424250Y-83260500D01*
X88443000Y-83260500D01*
X88443000Y-82241750D01*
X88697000Y-82241750D01*
X88697000Y-83260500D01*
X89715750Y-83260500D01*
X89822500Y-83153750D01*
X89822500Y-82477064D01*
X89757493Y-82320124D01*
X89637376Y-82200007D01*
X89480435Y-82135000D01*
X88803750Y-82135000D01*
X88697000Y-82241750D01*
X88443000Y-82241750D01*
X88336250Y-82135000D01*
X87659565Y-82135000D01*
X87502624Y-82200007D01*
X87382507Y-82320124D01*
X87317500Y-82477064D01*
X85627000Y-82477064D01*
X85627000Y-81741510D01*
X87855595Y-81741510D01*
X87941142Y-81929115D01*
X88402927Y-82087435D01*
X88890148Y-82056987D01*
X89198858Y-81929115D01*
X89284405Y-81741510D01*
X88570000Y-81027105D01*
X87855595Y-81741510D01*
X85627000Y-81741510D01*
X85627000Y-80680427D01*
X87330065Y-80680427D01*
X87360513Y-81167648D01*
X87488385Y-81476358D01*
X87675990Y-81561905D01*
X88390395Y-80847500D01*
X88749605Y-80847500D01*
X89464010Y-81561905D01*
X89651615Y-81476358D01*
X89809935Y-81014573D01*
X89784813Y-80612565D01*
X89928900Y-80612565D01*
X89928900Y-81082435D01*
X90108712Y-81516539D01*
X90440961Y-81848788D01*
X90875065Y-82028600D01*
X91344935Y-82028600D01*
X91779039Y-81848788D01*
X92111288Y-81516539D01*
X92291100Y-81082435D01*
X92291100Y-80612565D01*
X92111288Y-80178461D01*
X91779039Y-79846212D01*
X91344935Y-79666400D01*
X90875065Y-79666400D01*
X90440961Y-79846212D01*
X90108712Y-80178461D01*
X89928900Y-80612565D01*
X89784813Y-80612565D01*
X89779487Y-80527352D01*
X89651615Y-80218642D01*
X89464010Y-80133095D01*
X88749605Y-80847500D01*
X88390395Y-80847500D01*
X87675990Y-80133095D01*
X87488385Y-80218642D01*
X87330065Y-80680427D01*
X85627000Y-80680427D01*
X85627000Y-80570390D01*
X86614040Y-79953490D01*
X87855595Y-79953490D01*
X88570000Y-80667895D01*
X89284405Y-79953490D01*
X89198858Y-79765885D01*
X88737073Y-79607565D01*
X88249852Y-79638013D01*
X87941142Y-79765885D01*
X87855595Y-79953490D01*
X86614040Y-79953490D01*
X89556514Y-78114444D01*
X93523030Y-76627000D01*
X106476970Y-76627000D01*
X110443487Y-78114444D01*
G04 #@! TD*
M02*
