G04 #@! TF.FileFunction,Copper,L1,Top,Signal*
%FSLAX46Y46*%
G04 Gerber Fmt 4.6, Leading zero omitted, Abs format (unit mm)*
G04 Created by KiCad (PCBNEW (2015-08-30 BZR 6133)-product) date Fr 30 Okt 2015 20:41:11 CET*
%MOMM*%
G01*
G04 APERTURE LIST*
%ADD10C,0.100000*%
%ADD11C,0.150000*%
%ADD12R,1.651000X1.651000*%
%ADD13C,1.600200*%
%ADD14C,1.524000*%
%ADD15R,0.508000X1.143000*%
%ADD16R,0.889000X1.397000*%
%ADD17R,1.524000X1.524000*%
%ADD18C,2.540000*%
%ADD19R,4.500880X1.998980*%
%ADD20R,1.397000X0.889000*%
%ADD21R,0.914400X0.914400*%
%ADD22C,3.500000*%
%ADD23R,1.198880X2.799080*%
%ADD24R,1.000760X2.799080*%
%ADD25C,0.800000*%
%ADD26C,0.600000*%
%ADD27C,0.600000*%
%ADD28C,0.300000*%
%ADD29C,0.254000*%
G04 APERTURE END LIST*
D10*
D11*
X92908093Y-123414405D02*
X92908093Y-122614405D01*
X92908093Y-122919167D02*
X92984284Y-122881071D01*
X93136665Y-122881071D01*
X93212855Y-122919167D01*
X93250950Y-122957262D01*
X93289046Y-123033452D01*
X93289046Y-123262024D01*
X93250950Y-123338214D01*
X93212855Y-123376310D01*
X93136665Y-123414405D01*
X92984284Y-123414405D01*
X92908093Y-123376310D01*
X93974760Y-122881071D02*
X93974760Y-123414405D01*
X93631903Y-122881071D02*
X93631903Y-123300119D01*
X93669998Y-123376310D01*
X93746189Y-123414405D01*
X93860475Y-123414405D01*
X93936665Y-123376310D01*
X93974760Y-123338214D01*
X94317618Y-123376310D02*
X94393808Y-123414405D01*
X94546189Y-123414405D01*
X94622380Y-123376310D01*
X94660475Y-123300119D01*
X94660475Y-123262024D01*
X94622380Y-123185833D01*
X94546189Y-123147738D01*
X94431904Y-123147738D01*
X94355713Y-123109643D01*
X94317618Y-123033452D01*
X94317618Y-122995357D01*
X94355713Y-122919167D01*
X94431904Y-122881071D01*
X94546189Y-122881071D01*
X94622380Y-122919167D01*
X95003332Y-123109643D02*
X95612856Y-123109643D01*
X95993808Y-123414405D02*
X95993808Y-122881071D01*
X95993808Y-122957262D02*
X96031903Y-122919167D01*
X96108094Y-122881071D01*
X96222380Y-122881071D01*
X96298570Y-122919167D01*
X96336665Y-122995357D01*
X96336665Y-123414405D01*
X96336665Y-122995357D02*
X96374761Y-122919167D01*
X96450951Y-122881071D01*
X96565237Y-122881071D01*
X96641427Y-122919167D01*
X96679522Y-122995357D01*
X96679522Y-123414405D01*
X97174761Y-123414405D02*
X97098570Y-123376310D01*
X97060475Y-123338214D01*
X97022380Y-123262024D01*
X97022380Y-123033452D01*
X97060475Y-122957262D01*
X97098570Y-122919167D01*
X97174761Y-122881071D01*
X97289047Y-122881071D01*
X97365237Y-122919167D01*
X97403332Y-122957262D01*
X97441428Y-123033452D01*
X97441428Y-123262024D01*
X97403332Y-123338214D01*
X97365237Y-123376310D01*
X97289047Y-123414405D01*
X97174761Y-123414405D01*
X98127142Y-123414405D02*
X98127142Y-122614405D01*
X98127142Y-123376310D02*
X98050952Y-123414405D01*
X97898571Y-123414405D01*
X97822380Y-123376310D01*
X97784285Y-123338214D01*
X97746190Y-123262024D01*
X97746190Y-123033452D01*
X97784285Y-122957262D01*
X97822380Y-122919167D01*
X97898571Y-122881071D01*
X98050952Y-122881071D01*
X98127142Y-122919167D01*
X98850952Y-122881071D02*
X98850952Y-123414405D01*
X98508095Y-122881071D02*
X98508095Y-123300119D01*
X98546190Y-123376310D01*
X98622381Y-123414405D01*
X98736667Y-123414405D01*
X98812857Y-123376310D01*
X98850952Y-123338214D01*
X99346191Y-123414405D02*
X99270000Y-123376310D01*
X99231905Y-123300119D01*
X99231905Y-122614405D01*
X99955715Y-123376310D02*
X99879525Y-123414405D01*
X99727144Y-123414405D01*
X99650953Y-123376310D01*
X99612858Y-123300119D01*
X99612858Y-122995357D01*
X99650953Y-122919167D01*
X99727144Y-122881071D01*
X99879525Y-122881071D01*
X99955715Y-122919167D01*
X99993810Y-122995357D01*
X99993810Y-123071548D01*
X99612858Y-123147738D01*
X101289048Y-123414405D02*
X101289048Y-122995357D01*
X101250953Y-122919167D01*
X101174763Y-122881071D01*
X101022382Y-122881071D01*
X100946191Y-122919167D01*
X101289048Y-123376310D02*
X101212858Y-123414405D01*
X101022382Y-123414405D01*
X100946191Y-123376310D01*
X100908096Y-123300119D01*
X100908096Y-123223929D01*
X100946191Y-123147738D01*
X101022382Y-123109643D01*
X101212858Y-123109643D01*
X101289048Y-123071548D01*
X101555715Y-122881071D02*
X101860477Y-122881071D01*
X101670001Y-122614405D02*
X101670001Y-123300119D01*
X101708096Y-123376310D01*
X101784287Y-123414405D01*
X101860477Y-123414405D01*
X102127144Y-123414405D02*
X102127144Y-122881071D01*
X102127144Y-122957262D02*
X102165239Y-122919167D01*
X102241430Y-122881071D01*
X102355716Y-122881071D01*
X102431906Y-122919167D01*
X102470001Y-122995357D01*
X102470001Y-123414405D01*
X102470001Y-122995357D02*
X102508097Y-122919167D01*
X102584287Y-122881071D01*
X102698573Y-122881071D01*
X102774763Y-122919167D01*
X102812858Y-122995357D01*
X102812858Y-123414405D01*
X103498573Y-123376310D02*
X103422383Y-123414405D01*
X103270002Y-123414405D01*
X103193811Y-123376310D01*
X103155716Y-123300119D01*
X103155716Y-122995357D01*
X103193811Y-122919167D01*
X103270002Y-122881071D01*
X103422383Y-122881071D01*
X103498573Y-122919167D01*
X103536668Y-122995357D01*
X103536668Y-123071548D01*
X103155716Y-123147738D01*
X104222382Y-122881071D02*
X104222382Y-123528690D01*
X104184287Y-123604881D01*
X104146192Y-123642976D01*
X104070001Y-123681071D01*
X103955716Y-123681071D01*
X103879525Y-123642976D01*
X104222382Y-123376310D02*
X104146192Y-123414405D01*
X103993811Y-123414405D01*
X103917620Y-123376310D01*
X103879525Y-123338214D01*
X103841430Y-123262024D01*
X103841430Y-123033452D01*
X103879525Y-122957262D01*
X103917620Y-122919167D01*
X103993811Y-122881071D01*
X104146192Y-122881071D01*
X104222382Y-122919167D01*
X104946192Y-123414405D02*
X104946192Y-122995357D01*
X104908097Y-122919167D01*
X104831907Y-122881071D01*
X104679526Y-122881071D01*
X104603335Y-122919167D01*
X104946192Y-123376310D02*
X104870002Y-123414405D01*
X104679526Y-123414405D01*
X104603335Y-123376310D01*
X104565240Y-123300119D01*
X104565240Y-123223929D01*
X104603335Y-123147738D01*
X104679526Y-123109643D01*
X104870002Y-123109643D01*
X104946192Y-123071548D01*
X105250955Y-122614405D02*
X105746193Y-122614405D01*
X105479526Y-122919167D01*
X105593812Y-122919167D01*
X105670002Y-122957262D01*
X105708098Y-122995357D01*
X105746193Y-123071548D01*
X105746193Y-123262024D01*
X105708098Y-123338214D01*
X105670002Y-123376310D01*
X105593812Y-123414405D01*
X105365240Y-123414405D01*
X105289050Y-123376310D01*
X105250955Y-123338214D01*
X106050955Y-122690595D02*
X106089050Y-122652500D01*
X106165241Y-122614405D01*
X106355717Y-122614405D01*
X106431907Y-122652500D01*
X106470003Y-122690595D01*
X106508098Y-122766786D01*
X106508098Y-122842976D01*
X106470003Y-122957262D01*
X106012860Y-123414405D01*
X106508098Y-123414405D01*
X107193812Y-122881071D02*
X107193812Y-123414405D01*
X107003336Y-122576310D02*
X106812860Y-123147738D01*
X107308098Y-123147738D01*
X92748571Y-77734405D02*
X92748571Y-76934405D01*
X92824762Y-77429643D02*
X93053333Y-77734405D01*
X93053333Y-77201071D02*
X92748571Y-77505833D01*
X93510476Y-77734405D02*
X93434285Y-77696310D01*
X93396190Y-77658214D01*
X93358095Y-77582024D01*
X93358095Y-77353452D01*
X93396190Y-77277262D01*
X93434285Y-77239167D01*
X93510476Y-77201071D01*
X93624762Y-77201071D01*
X93700952Y-77239167D01*
X93739047Y-77277262D01*
X93777143Y-77353452D01*
X93777143Y-77582024D01*
X93739047Y-77658214D01*
X93700952Y-77696310D01*
X93624762Y-77734405D01*
X93510476Y-77734405D01*
X94424762Y-77696310D02*
X94348572Y-77734405D01*
X94196191Y-77734405D01*
X94120000Y-77696310D01*
X94081905Y-77620119D01*
X94081905Y-77315357D01*
X94120000Y-77239167D01*
X94196191Y-77201071D01*
X94348572Y-77201071D01*
X94424762Y-77239167D01*
X94462857Y-77315357D01*
X94462857Y-77391548D01*
X94081905Y-77467738D01*
X94729524Y-77201071D02*
X94881905Y-77734405D01*
X95034286Y-77353452D01*
X95186667Y-77734405D01*
X95339048Y-77201071D01*
X95643809Y-77734405D02*
X95643809Y-77201071D01*
X95643809Y-76934405D02*
X95605714Y-76972500D01*
X95643809Y-77010595D01*
X95681904Y-76972500D01*
X95643809Y-76934405D01*
X95643809Y-77010595D01*
X96024761Y-77734405D02*
X96024761Y-76934405D01*
X96024761Y-77239167D02*
X96100952Y-77201071D01*
X96253333Y-77201071D01*
X96329523Y-77239167D01*
X96367618Y-77277262D01*
X96405714Y-77353452D01*
X96405714Y-77582024D01*
X96367618Y-77658214D01*
X96329523Y-77696310D01*
X96253333Y-77734405D01*
X96100952Y-77734405D01*
X96024761Y-77696310D01*
X97091428Y-77734405D02*
X97091428Y-77315357D01*
X97053333Y-77239167D01*
X96977143Y-77201071D01*
X96824762Y-77201071D01*
X96748571Y-77239167D01*
X97091428Y-77696310D02*
X97015238Y-77734405D01*
X96824762Y-77734405D01*
X96748571Y-77696310D01*
X96710476Y-77620119D01*
X96710476Y-77543929D01*
X96748571Y-77467738D01*
X96824762Y-77429643D01*
X97015238Y-77429643D01*
X97091428Y-77391548D01*
X114141429Y-81576309D02*
X114141429Y-81881071D01*
X114408095Y-81690595D02*
X113722381Y-81690595D01*
X113646190Y-81728690D01*
X113608095Y-81804881D01*
X113608095Y-81881071D01*
X113608095Y-82262024D02*
X113646190Y-82185833D01*
X113684286Y-82147738D01*
X113760476Y-82109643D01*
X113989048Y-82109643D01*
X114065238Y-82147738D01*
X114103333Y-82185833D01*
X114141429Y-82262024D01*
X114141429Y-82376310D01*
X114103333Y-82452500D01*
X114065238Y-82490595D01*
X113989048Y-82528691D01*
X113760476Y-82528691D01*
X113684286Y-82490595D01*
X113646190Y-82452500D01*
X113608095Y-82376310D01*
X113608095Y-82262024D01*
X114141429Y-82871548D02*
X113341429Y-82871548D01*
X114103333Y-82871548D02*
X114141429Y-82947739D01*
X114141429Y-83100120D01*
X114103333Y-83176310D01*
X114065238Y-83214405D01*
X113989048Y-83252501D01*
X113760476Y-83252501D01*
X113684286Y-83214405D01*
X113646190Y-83176310D01*
X113608095Y-83100120D01*
X113608095Y-82947739D01*
X113646190Y-82871548D01*
D12*
X88570000Y-83387500D03*
D13*
X88570000Y-80847500D03*
X91110000Y-83387500D03*
X91110000Y-80847500D03*
X93650000Y-83387500D03*
X93650000Y-80847500D03*
X96190000Y-83387500D03*
X96190000Y-80847500D03*
X98730000Y-83387500D03*
X98730000Y-80847500D03*
X101270000Y-83387500D03*
X101270000Y-80847500D03*
D14*
X103810000Y-83387500D03*
X103810000Y-80847500D03*
X106350000Y-83387500D03*
X106350000Y-80847500D03*
X108890000Y-83387500D03*
X108890000Y-80847500D03*
X111430000Y-83387500D03*
X111430000Y-80847500D03*
D15*
X107655000Y-113917000D03*
X107655000Y-108583000D03*
X106385000Y-113917000D03*
X105115000Y-113917000D03*
X103845000Y-113917000D03*
X106385000Y-108583000D03*
X105115000Y-108583000D03*
X103845000Y-108583000D03*
D16*
X112452500Y-109041500D03*
X110547500Y-109041500D03*
D17*
X93142000Y-109803500D03*
D14*
X95682000Y-109803500D03*
X98222000Y-109803500D03*
X100762000Y-109803500D03*
D18*
X87170000Y-89352500D03*
D19*
X102344420Y-89737500D03*
X93845580Y-89737500D03*
D16*
X100317500Y-85927500D03*
X102222500Y-85927500D03*
X95555000Y-85927500D03*
X93650000Y-85927500D03*
D10*
G36*
X107351914Y-93081758D02*
X108339742Y-94069586D01*
X107711124Y-94698204D01*
X106723296Y-93710376D01*
X107351914Y-93081758D01*
X107351914Y-93081758D01*
G37*
G36*
X106004876Y-94428796D02*
X106992704Y-95416624D01*
X106364086Y-96045242D01*
X105376258Y-95057414D01*
X106004876Y-94428796D01*
X106004876Y-94428796D01*
G37*
G36*
X94143914Y-93335758D02*
X95131742Y-94323586D01*
X94503124Y-94952204D01*
X93515296Y-93964376D01*
X94143914Y-93335758D01*
X94143914Y-93335758D01*
G37*
G36*
X92796876Y-94682796D02*
X93784704Y-95670624D01*
X93156086Y-96299242D01*
X92168258Y-95311414D01*
X92796876Y-94682796D01*
X92796876Y-94682796D01*
G37*
D16*
X104447500Y-106800000D03*
X106352500Y-106800000D03*
X110547500Y-113613500D03*
X112452500Y-113613500D03*
X91452500Y-107009500D03*
X89547500Y-107009500D03*
D20*
X108250000Y-88150000D03*
X108250000Y-86245000D03*
D12*
X88570000Y-118947500D03*
D13*
X88570000Y-116407500D03*
X91110000Y-118947500D03*
X91110000Y-116407500D03*
X93650000Y-118947500D03*
X93650000Y-116407500D03*
X96190000Y-118947500D03*
X96190000Y-116407500D03*
X98730000Y-118947500D03*
X98730000Y-116407500D03*
X101270000Y-118947500D03*
X101270000Y-116407500D03*
D14*
X103810000Y-118947500D03*
X103810000Y-116407500D03*
X106350000Y-118947500D03*
X106350000Y-116407500D03*
X108890000Y-118947500D03*
X108890000Y-116407500D03*
X111430000Y-118947500D03*
X111430000Y-116407500D03*
D18*
X87170000Y-95152500D03*
X87170000Y-100952500D03*
X87170000Y-106652500D03*
D16*
X89547500Y-104977500D03*
X91452500Y-104977500D03*
D10*
G36*
X109412086Y-99093242D02*
X108424258Y-98105414D01*
X109052876Y-97476796D01*
X110040704Y-98464624D01*
X109412086Y-99093242D01*
X109412086Y-99093242D01*
G37*
G36*
X110759124Y-97746204D02*
X109771296Y-96758376D01*
X110399914Y-96129758D01*
X111387742Y-97117586D01*
X110759124Y-97746204D01*
X110759124Y-97746204D01*
G37*
G36*
X110936086Y-100617242D02*
X109948258Y-99629414D01*
X110576876Y-99000796D01*
X111564704Y-99988624D01*
X110936086Y-100617242D01*
X110936086Y-100617242D01*
G37*
G36*
X112283124Y-99270204D02*
X111295296Y-98282376D01*
X111923914Y-97653758D01*
X112911742Y-98641586D01*
X112283124Y-99270204D01*
X112283124Y-99270204D01*
G37*
G36*
X107888086Y-97569242D02*
X106900258Y-96581414D01*
X107528876Y-95952796D01*
X108516704Y-96940624D01*
X107888086Y-97569242D01*
X107888086Y-97569242D01*
G37*
G36*
X109235124Y-96222204D02*
X108247296Y-95234376D01*
X108875914Y-94605758D01*
X109863742Y-95593586D01*
X109235124Y-96222204D01*
X109235124Y-96222204D01*
G37*
D16*
X112452500Y-111327500D03*
X110547500Y-111327500D03*
D20*
X106350000Y-86245000D03*
X106350000Y-88150000D03*
D12*
X110750000Y-91342500D03*
D13*
X113290000Y-91342500D03*
X110750000Y-88802500D03*
X113290000Y-88802500D03*
X110750000Y-86262500D03*
X113290000Y-86262500D03*
D21*
X106250000Y-89577480D03*
X106250000Y-91929520D03*
D22*
X110500000Y-105000000D03*
D23*
X84019620Y-101550860D03*
D24*
X82300040Y-101550860D03*
X84199960Y-97949140D03*
D10*
G36*
X81799660Y-99348680D02*
X81799660Y-96549600D01*
X82800420Y-96549600D01*
X82800420Y-99348680D01*
X81799660Y-99348680D01*
X81799660Y-99348680D01*
G37*
G36*
X106694812Y-98823134D02*
X107083720Y-99212042D01*
X106023060Y-100272702D01*
X105634152Y-99883794D01*
X106694812Y-98823134D01*
X106694812Y-98823134D01*
G37*
G36*
X106129126Y-98257449D02*
X106518034Y-98646357D01*
X105457374Y-99707017D01*
X105068466Y-99318109D01*
X106129126Y-98257449D01*
X106129126Y-98257449D01*
G37*
G36*
X105563441Y-97691764D02*
X105952349Y-98080672D01*
X104891689Y-99141332D01*
X104502781Y-98752424D01*
X105563441Y-97691764D01*
X105563441Y-97691764D01*
G37*
G36*
X104997756Y-97126078D02*
X105386664Y-97514986D01*
X104326004Y-98575646D01*
X103937096Y-98186738D01*
X104997756Y-97126078D01*
X104997756Y-97126078D01*
G37*
G36*
X104432070Y-96560393D02*
X104820978Y-96949301D01*
X103760318Y-98009961D01*
X103371410Y-97621053D01*
X104432070Y-96560393D01*
X104432070Y-96560393D01*
G37*
G36*
X103866385Y-95994707D02*
X104255293Y-96383615D01*
X103194633Y-97444275D01*
X102805725Y-97055367D01*
X103866385Y-95994707D01*
X103866385Y-95994707D01*
G37*
G36*
X103300699Y-95429022D02*
X103689607Y-95817930D01*
X102628947Y-96878590D01*
X102240039Y-96489682D01*
X103300699Y-95429022D01*
X103300699Y-95429022D01*
G37*
G36*
X102735014Y-94863336D02*
X103123922Y-95252244D01*
X102063262Y-96312904D01*
X101674354Y-95923996D01*
X102735014Y-94863336D01*
X102735014Y-94863336D01*
G37*
G36*
X102169328Y-94297651D02*
X102558236Y-94686559D01*
X101497576Y-95747219D01*
X101108668Y-95358311D01*
X102169328Y-94297651D01*
X102169328Y-94297651D01*
G37*
G36*
X101603643Y-93731966D02*
X101992551Y-94120874D01*
X100931891Y-95181534D01*
X100542983Y-94792626D01*
X101603643Y-93731966D01*
X101603643Y-93731966D01*
G37*
G36*
X101037958Y-93166280D02*
X101426866Y-93555188D01*
X100366206Y-94615848D01*
X99977298Y-94226940D01*
X101037958Y-93166280D01*
X101037958Y-93166280D01*
G37*
G36*
X97573134Y-93555188D02*
X97962042Y-93166280D01*
X99022702Y-94226940D01*
X98633794Y-94615848D01*
X97573134Y-93555188D01*
X97573134Y-93555188D01*
G37*
G36*
X97007449Y-94120874D02*
X97396357Y-93731966D01*
X98457017Y-94792626D01*
X98068109Y-95181534D01*
X97007449Y-94120874D01*
X97007449Y-94120874D01*
G37*
G36*
X96441764Y-94686559D02*
X96830672Y-94297651D01*
X97891332Y-95358311D01*
X97502424Y-95747219D01*
X96441764Y-94686559D01*
X96441764Y-94686559D01*
G37*
G36*
X95876078Y-95252244D02*
X96264986Y-94863336D01*
X97325646Y-95923996D01*
X96936738Y-96312904D01*
X95876078Y-95252244D01*
X95876078Y-95252244D01*
G37*
G36*
X95310393Y-95817930D02*
X95699301Y-95429022D01*
X96759961Y-96489682D01*
X96371053Y-96878590D01*
X95310393Y-95817930D01*
X95310393Y-95817930D01*
G37*
G36*
X94744707Y-96383615D02*
X95133615Y-95994707D01*
X96194275Y-97055367D01*
X95805367Y-97444275D01*
X94744707Y-96383615D01*
X94744707Y-96383615D01*
G37*
G36*
X94179022Y-96949301D02*
X94567930Y-96560393D01*
X95628590Y-97621053D01*
X95239682Y-98009961D01*
X94179022Y-96949301D01*
X94179022Y-96949301D01*
G37*
G36*
X93613336Y-97514986D02*
X94002244Y-97126078D01*
X95062904Y-98186738D01*
X94673996Y-98575646D01*
X93613336Y-97514986D01*
X93613336Y-97514986D01*
G37*
G36*
X93047651Y-98080672D02*
X93436559Y-97691764D01*
X94497219Y-98752424D01*
X94108311Y-99141332D01*
X93047651Y-98080672D01*
X93047651Y-98080672D01*
G37*
G36*
X92481966Y-98646357D02*
X92870874Y-98257449D01*
X93931534Y-99318109D01*
X93542626Y-99707017D01*
X92481966Y-98646357D01*
X92481966Y-98646357D01*
G37*
G36*
X91916280Y-99212042D02*
X92305188Y-98823134D01*
X93365848Y-99883794D01*
X92976940Y-100272702D01*
X91916280Y-99212042D01*
X91916280Y-99212042D01*
G37*
G36*
X92976940Y-101227298D02*
X93365848Y-101616206D01*
X92305188Y-102676866D01*
X91916280Y-102287958D01*
X92976940Y-101227298D01*
X92976940Y-101227298D01*
G37*
G36*
X93542626Y-101792983D02*
X93931534Y-102181891D01*
X92870874Y-103242551D01*
X92481966Y-102853643D01*
X93542626Y-101792983D01*
X93542626Y-101792983D01*
G37*
G36*
X94108311Y-102358668D02*
X94497219Y-102747576D01*
X93436559Y-103808236D01*
X93047651Y-103419328D01*
X94108311Y-102358668D01*
X94108311Y-102358668D01*
G37*
G36*
X94673996Y-102924354D02*
X95062904Y-103313262D01*
X94002244Y-104373922D01*
X93613336Y-103985014D01*
X94673996Y-102924354D01*
X94673996Y-102924354D01*
G37*
G36*
X95239682Y-103490039D02*
X95628590Y-103878947D01*
X94567930Y-104939607D01*
X94179022Y-104550699D01*
X95239682Y-103490039D01*
X95239682Y-103490039D01*
G37*
G36*
X95805367Y-104055725D02*
X96194275Y-104444633D01*
X95133615Y-105505293D01*
X94744707Y-105116385D01*
X95805367Y-104055725D01*
X95805367Y-104055725D01*
G37*
G36*
X96371053Y-104621410D02*
X96759961Y-105010318D01*
X95699301Y-106070978D01*
X95310393Y-105682070D01*
X96371053Y-104621410D01*
X96371053Y-104621410D01*
G37*
G36*
X96936738Y-105187096D02*
X97325646Y-105576004D01*
X96264986Y-106636664D01*
X95876078Y-106247756D01*
X96936738Y-105187096D01*
X96936738Y-105187096D01*
G37*
G36*
X97502424Y-105752781D02*
X97891332Y-106141689D01*
X96830672Y-107202349D01*
X96441764Y-106813441D01*
X97502424Y-105752781D01*
X97502424Y-105752781D01*
G37*
G36*
X98068109Y-106318466D02*
X98457017Y-106707374D01*
X97396357Y-107768034D01*
X97007449Y-107379126D01*
X98068109Y-106318466D01*
X98068109Y-106318466D01*
G37*
G36*
X98633794Y-106884152D02*
X99022702Y-107273060D01*
X97962042Y-108333720D01*
X97573134Y-107944812D01*
X98633794Y-106884152D01*
X98633794Y-106884152D01*
G37*
G36*
X99977298Y-107273060D02*
X100366206Y-106884152D01*
X101426866Y-107944812D01*
X101037958Y-108333720D01*
X99977298Y-107273060D01*
X99977298Y-107273060D01*
G37*
G36*
X100542983Y-106707374D02*
X100931891Y-106318466D01*
X101992551Y-107379126D01*
X101603643Y-107768034D01*
X100542983Y-106707374D01*
X100542983Y-106707374D01*
G37*
G36*
X101108668Y-106141689D02*
X101497576Y-105752781D01*
X102558236Y-106813441D01*
X102169328Y-107202349D01*
X101108668Y-106141689D01*
X101108668Y-106141689D01*
G37*
G36*
X101674354Y-105576004D02*
X102063262Y-105187096D01*
X103123922Y-106247756D01*
X102735014Y-106636664D01*
X101674354Y-105576004D01*
X101674354Y-105576004D01*
G37*
G36*
X102240039Y-105010318D02*
X102628947Y-104621410D01*
X103689607Y-105682070D01*
X103300699Y-106070978D01*
X102240039Y-105010318D01*
X102240039Y-105010318D01*
G37*
G36*
X102805725Y-104444633D02*
X103194633Y-104055725D01*
X104255293Y-105116385D01*
X103866385Y-105505293D01*
X102805725Y-104444633D01*
X102805725Y-104444633D01*
G37*
G36*
X103371410Y-103878947D02*
X103760318Y-103490039D01*
X104820978Y-104550699D01*
X104432070Y-104939607D01*
X103371410Y-103878947D01*
X103371410Y-103878947D01*
G37*
G36*
X103937096Y-103313262D02*
X104326004Y-102924354D01*
X105386664Y-103985014D01*
X104997756Y-104373922D01*
X103937096Y-103313262D01*
X103937096Y-103313262D01*
G37*
G36*
X104502781Y-102747576D02*
X104891689Y-102358668D01*
X105952349Y-103419328D01*
X105563441Y-103808236D01*
X104502781Y-102747576D01*
X104502781Y-102747576D01*
G37*
G36*
X105068466Y-102181891D02*
X105457374Y-101792983D01*
X106518034Y-102853643D01*
X106129126Y-103242551D01*
X105068466Y-102181891D01*
X105068466Y-102181891D01*
G37*
G36*
X105634152Y-101616206D02*
X106023060Y-101227298D01*
X107083720Y-102287958D01*
X106694812Y-102676866D01*
X105634152Y-101616206D01*
X105634152Y-101616206D01*
G37*
D25*
X104577561Y-109750000D03*
X88023500Y-108787500D03*
X99238000Y-87451500D03*
X89000000Y-92400000D03*
X102600000Y-103800000D03*
X94000000Y-106200000D03*
X104500000Y-95750000D03*
X101263851Y-113328273D03*
X109144000Y-112343500D03*
X108128000Y-112343500D03*
X88062000Y-113359500D03*
X98477812Y-96409113D03*
X91500000Y-101750000D03*
D26*
X105767337Y-105448502D03*
X106604000Y-105231500D03*
X106858000Y-104469500D03*
X107112000Y-103707500D03*
X113011957Y-97446698D03*
X111349980Y-95858766D03*
X113442106Y-107607515D03*
X110017980Y-94561432D03*
X90591592Y-95209802D03*
X90136050Y-94448450D03*
X91757407Y-97852986D03*
X90919248Y-96183783D03*
X95091496Y-99691856D03*
X94339784Y-100058048D03*
X96641317Y-99175356D03*
X95875842Y-99534311D03*
X98455102Y-92341896D03*
X101400000Y-91737011D03*
X96858495Y-92817388D03*
X97677415Y-92529569D03*
X95987488Y-92981273D03*
X99500000Y-103750000D03*
X101250000Y-102500000D03*
X100000000Y-106250000D03*
X85014000Y-97357500D03*
X82982000Y-97357500D03*
D27*
X104500000Y-95750000D02*
X105671500Y-95750000D01*
X105671500Y-95750000D02*
X106184481Y-95237019D01*
D28*
X104977560Y-110149999D02*
X104577561Y-109750000D01*
X108603225Y-110504521D02*
X105332082Y-110504521D01*
X105332082Y-110504521D02*
X104977560Y-110149999D01*
X108828747Y-110278999D02*
X108603225Y-110504521D01*
X111397499Y-110278999D02*
X108828747Y-110278999D01*
D27*
X89547500Y-107009500D02*
X89547500Y-107263500D01*
X89547500Y-107263500D02*
X88023500Y-108787500D01*
X84019620Y-101550860D02*
X84019620Y-106513860D01*
X84019620Y-106513860D02*
X86293260Y-108787500D01*
X86293260Y-108787500D02*
X88023500Y-108787500D01*
D28*
X106134035Y-106800000D02*
X106352500Y-106800000D01*
X103530509Y-104780509D02*
X104131549Y-105381549D01*
X104715584Y-105381549D02*
X106134035Y-106800000D01*
X104131549Y-105381549D02*
X104715584Y-105381549D01*
D27*
X104177562Y-109350001D02*
X104577561Y-109750000D01*
X103845000Y-108583000D02*
X103845000Y-109017439D01*
X103845000Y-109017439D02*
X104177562Y-109350001D01*
X94000000Y-106200000D02*
X94050000Y-106200000D01*
X94050000Y-106200000D02*
X95469491Y-104780509D01*
X102600000Y-103800000D02*
X102600000Y-103850000D01*
X102600000Y-103850000D02*
X103530509Y-104780509D01*
X111952753Y-84832753D02*
X109916247Y-84832753D01*
X108504000Y-86245000D02*
X108250000Y-86245000D01*
X109916247Y-84832753D02*
X108504000Y-86245000D01*
X92976481Y-95491019D02*
X93109507Y-95491019D01*
D28*
X93109507Y-95491019D02*
X94893129Y-97274641D01*
D27*
X92073519Y-94273519D02*
X92073519Y-94588057D01*
X92073519Y-94588057D02*
X92976481Y-95491019D01*
X89000000Y-92400000D02*
X90200000Y-92400000D01*
X90200000Y-92400000D02*
X92073519Y-94273519D01*
D28*
X112452500Y-113613500D02*
X111860001Y-113613500D01*
X111860001Y-113613500D02*
X111531788Y-113285287D01*
X111531788Y-113285287D02*
X111531788Y-110413288D01*
X111531788Y-110413288D02*
X111430000Y-110311500D01*
D27*
X100317500Y-86372000D02*
X99238000Y-87451500D01*
X100317500Y-85927500D02*
X100317500Y-86372000D01*
X111952753Y-84832753D02*
X113290000Y-86170000D01*
X100317500Y-85927500D02*
X95555000Y-85927500D01*
X104500000Y-95750000D02*
X103541115Y-96708885D01*
D28*
X102222500Y-85927500D02*
X102222500Y-89615580D01*
X102222500Y-89615580D02*
X102344420Y-89737500D01*
X103584884Y-90977964D02*
X102344420Y-89737500D01*
X103584884Y-95533604D02*
X103584884Y-90977964D01*
X102975359Y-96143129D02*
X103584884Y-95533604D01*
X100952500Y-89096920D02*
X100849420Y-89200000D01*
X100849420Y-89200000D02*
X100849420Y-89449420D01*
X93650000Y-85927500D02*
X93650000Y-89541920D01*
X93650000Y-89541920D02*
X93845580Y-89737500D01*
X96396020Y-89737500D02*
X93845580Y-89737500D01*
X97745511Y-91086991D02*
X96396020Y-89737500D01*
X103019128Y-92121628D02*
X101984491Y-91086991D01*
X101984491Y-91086991D02*
X97745511Y-91086991D01*
X103019128Y-94967847D02*
X103019128Y-92121628D01*
X102409603Y-95577372D02*
X103019128Y-94967847D01*
X102409603Y-95577372D02*
X102422628Y-95577372D01*
D27*
X100863852Y-112928274D02*
X101263851Y-113328273D01*
X100762000Y-112826422D02*
X100863852Y-112928274D01*
X100762000Y-109803500D02*
X100762000Y-112826422D01*
D28*
X103004371Y-105356871D02*
X103187619Y-105356871D01*
X103296619Y-105430517D02*
X103721405Y-105855303D01*
X103187619Y-105356871D02*
X103261265Y-105430517D01*
X103261265Y-105430517D02*
X103296619Y-105430517D01*
X103721405Y-105855303D02*
X103898183Y-105855303D01*
X103898183Y-105855303D02*
X103924439Y-105881559D01*
X103924439Y-105881559D02*
X104447500Y-105881559D01*
X104447500Y-105881559D02*
X104447500Y-106800000D01*
X91452500Y-107009500D02*
X94371871Y-107009500D01*
X94371871Y-107009500D02*
X96035177Y-105346194D01*
X91452500Y-107924754D02*
X91452500Y-107009500D01*
X92499899Y-117797399D02*
X92499899Y-115964522D01*
X90569533Y-108807721D02*
X91452500Y-107924754D01*
X90569532Y-114034154D02*
X90569533Y-108807721D01*
X92499899Y-115964522D02*
X90569532Y-114034154D01*
X93650000Y-118947500D02*
X92499899Y-117797399D01*
X91452500Y-104977500D02*
X94141129Y-104977500D01*
X94141129Y-104977500D02*
X94903806Y-104214823D01*
X90309901Y-115607401D02*
X91110000Y-116407500D01*
X90342001Y-106341999D02*
X90342001Y-108328131D01*
X91452500Y-105231500D02*
X90342001Y-106341999D01*
X90069523Y-115367023D02*
X90309901Y-115607401D01*
X90069523Y-108600609D02*
X90069523Y-115367023D01*
X90342001Y-108328131D02*
X90069523Y-108600609D01*
X91452500Y-104977500D02*
X91452500Y-105231500D01*
X94893129Y-104234949D02*
X94893129Y-104225359D01*
X102422628Y-105922628D02*
X103194615Y-106694615D01*
X103194615Y-106694615D02*
X103194615Y-114119129D01*
X103194615Y-114119129D02*
X102540000Y-114773744D01*
X102540000Y-114773744D02*
X102540000Y-117677500D01*
X102540000Y-117677500D02*
X103048001Y-118185501D01*
X103048001Y-118185501D02*
X103810000Y-118947500D01*
X102660000Y-107304113D02*
X102660000Y-113946622D01*
X101833452Y-106477565D02*
X102660000Y-107304113D01*
X101270000Y-115336622D02*
X101270000Y-116407500D01*
X102660000Y-113946622D02*
X101270000Y-115336622D01*
X101267767Y-107043250D02*
X102159990Y-107935473D01*
X102159990Y-107935473D02*
X102159990Y-113739510D01*
X102159990Y-113739510D02*
X100119899Y-115779601D01*
X100119899Y-115779601D02*
X100119899Y-117797399D01*
X100119899Y-117797399D02*
X101270000Y-118947500D01*
X100702082Y-107608936D02*
X99649999Y-108661019D01*
X99649999Y-108661019D02*
X99649999Y-115487501D01*
X99649999Y-115487501D02*
X99530099Y-115607401D01*
X99530099Y-115607401D02*
X98730000Y-116407500D01*
X100712335Y-107619896D02*
X100712335Y-107662337D01*
X98730000Y-118947500D02*
X97340101Y-117557601D01*
X97340101Y-117557601D02*
X97340101Y-110567363D01*
X97109999Y-108796855D02*
X97696878Y-108209976D01*
X97696878Y-108209976D02*
X98297918Y-107608936D01*
X97340101Y-110567363D02*
X97109999Y-110337261D01*
X97109999Y-110337261D02*
X97109999Y-108796855D01*
X94412000Y-109427738D02*
X94412000Y-114629500D01*
X94412000Y-114629500D02*
X96190000Y-116407500D01*
X97732233Y-107043250D02*
X97131193Y-107644290D01*
X97131193Y-107644290D02*
X96195448Y-107644290D01*
X96195448Y-107644290D02*
X94412000Y-109427738D01*
X97721909Y-107054140D02*
X97695860Y-107054140D01*
X96500258Y-107144279D02*
X97156153Y-106488384D01*
X95988337Y-107144279D02*
X96500258Y-107144279D01*
X94574604Y-108558012D02*
X95988337Y-107144279D01*
X92233486Y-108558012D02*
X94574604Y-108558012D01*
X91569554Y-112494176D02*
X91569554Y-109221944D01*
X94920000Y-115844622D02*
X91569554Y-112494176D01*
X96190000Y-118947500D02*
X94920000Y-117677500D01*
X91569554Y-109221944D02*
X92233486Y-108558012D01*
X94920000Y-117677500D02*
X94920000Y-115844622D01*
X96502866Y-105922628D02*
X96590397Y-105922628D01*
X93650000Y-116407500D02*
X91069544Y-113827044D01*
X91069544Y-113827044D02*
X91069544Y-109014832D01*
X91069544Y-109014832D02*
X92026375Y-108058001D01*
X92026375Y-108058001D02*
X94367493Y-108058001D01*
X94367493Y-108058001D02*
X96502866Y-105922628D01*
X105576126Y-105448502D02*
X105767337Y-105448502D01*
X104352983Y-104225359D02*
X105576126Y-105448502D01*
X104106871Y-104225359D02*
X104352983Y-104225359D01*
X104225359Y-104225359D02*
X104106871Y-104225359D01*
X104106871Y-104225359D02*
X104106871Y-104306871D01*
X105262920Y-104250178D02*
X104661880Y-103649138D01*
X105812816Y-104800074D02*
X105262920Y-104250178D01*
X106604000Y-105231500D02*
X106172574Y-104800074D01*
X106172574Y-104800074D02*
X105812816Y-104800074D01*
X106858000Y-104469500D02*
X106613613Y-104469500D01*
X106613613Y-104469500D02*
X105227565Y-103083452D01*
X105238384Y-103238384D02*
X105238384Y-103093847D01*
X105238384Y-103093847D02*
X105293847Y-103093847D01*
X107112000Y-103707500D02*
X106982983Y-103707500D01*
X106982983Y-103707500D02*
X105793250Y-102517767D01*
X105804140Y-102528091D02*
X105922708Y-102528091D01*
X112103519Y-98461981D02*
X112103519Y-98355136D01*
X112103519Y-98355136D02*
X113011957Y-97446698D01*
X105080000Y-116783262D02*
X105080000Y-115469500D01*
X105080000Y-115469500D02*
X103845000Y-114234500D01*
X103845000Y-114234500D02*
X103845000Y-113917000D01*
X108890000Y-116407500D02*
X107462001Y-117835499D01*
X107462001Y-117835499D02*
X106132237Y-117835499D01*
X106132237Y-117835499D02*
X105080000Y-116783262D01*
X111349980Y-96167520D02*
X111349980Y-95858766D01*
X110579519Y-96937981D02*
X111349980Y-96167520D01*
X110085987Y-107607515D02*
X113017842Y-107607515D01*
X108189001Y-109504501D02*
X110085987Y-107607515D01*
X106989001Y-109504501D02*
X108189001Y-109504501D01*
X106385000Y-108900500D02*
X106989001Y-109504501D01*
X106385000Y-108583000D02*
X106385000Y-108900500D01*
X113017842Y-107607515D02*
X113442106Y-107607515D01*
X110223519Y-96576481D02*
X110173519Y-96576481D01*
X109908068Y-94561432D02*
X110017980Y-94561432D01*
X109055519Y-95413981D02*
X109908068Y-94561432D01*
X109265762Y-115137500D02*
X106018000Y-115137500D01*
X106018000Y-115137500D02*
X105115000Y-114234500D01*
X105115000Y-114234500D02*
X105115000Y-113917000D01*
X111430000Y-116407500D02*
X110668001Y-115645501D01*
X110668001Y-115645501D02*
X109773763Y-115645501D01*
X109773763Y-115645501D02*
X109265762Y-115137500D01*
X93152091Y-97497359D02*
X91164533Y-95509801D01*
X91164533Y-95509801D02*
X90891591Y-95509801D01*
X93761616Y-98406153D02*
X93152091Y-97796628D01*
X90891591Y-95509801D02*
X90591592Y-95209802D01*
X93152091Y-97796628D02*
X93152091Y-97497359D01*
X93650000Y-82770000D02*
X93770000Y-82770000D01*
X90560314Y-94448450D02*
X90136050Y-94448450D01*
X90810304Y-94448450D02*
X90560314Y-94448450D01*
X93592726Y-97230872D02*
X90810304Y-94448450D01*
X94327372Y-97840397D02*
X93717847Y-97230872D01*
X93717847Y-97230872D02*
X93592726Y-97230872D01*
X93650000Y-80230000D02*
X93650000Y-80350000D01*
X92630104Y-99537665D02*
X91757407Y-98664968D01*
X91757407Y-98277250D02*
X91757407Y-97852986D01*
X91757407Y-98664968D02*
X91757407Y-98277250D01*
X92537665Y-99537665D02*
X92630104Y-99537665D01*
X91219247Y-96483782D02*
X90919248Y-96183783D01*
X91431392Y-96483782D02*
X91219247Y-96483782D01*
X92509275Y-97561665D02*
X91431392Y-96483782D01*
X93195860Y-98971909D02*
X92509275Y-98285324D01*
X92509275Y-98285324D02*
X92509275Y-97561665D01*
X96190000Y-80230000D02*
X96190000Y-80310000D01*
X93195860Y-102528091D02*
X95091496Y-100632455D01*
X95091496Y-100632455D02*
X95091496Y-100116120D01*
X95091496Y-100116120D02*
X95091496Y-99691856D01*
X98730000Y-82770000D02*
X98730000Y-83520000D01*
X94339784Y-100252655D02*
X94339784Y-100058048D01*
X92630104Y-101962335D02*
X94339784Y-100252655D01*
X98730000Y-80230000D02*
X98730000Y-80270000D01*
X96641317Y-101345658D02*
X96641317Y-99599620D01*
X94327372Y-103659603D02*
X96641317Y-101345658D01*
X96641317Y-99599620D02*
X96641317Y-99175356D01*
X95875842Y-100979621D02*
X95875842Y-99958575D01*
X95875842Y-99958575D02*
X95875842Y-99534311D01*
X93761616Y-103093847D02*
X95875842Y-100979621D01*
X93761616Y-103093847D02*
X93906153Y-103093847D01*
X98455102Y-92752485D02*
X98455102Y-92341896D01*
X98287665Y-93880104D02*
X98287665Y-92919922D01*
X98287665Y-92919922D02*
X98455102Y-92752485D01*
X101100001Y-92037010D02*
X101400000Y-91737011D01*
X100712335Y-93880104D02*
X100712335Y-92424676D01*
X100712335Y-92424676D02*
X101100001Y-92037010D01*
X100712335Y-93880104D02*
X100712335Y-93787665D01*
X96858495Y-93029532D02*
X96858495Y-92817388D01*
X96026744Y-95013719D02*
X96026744Y-93861283D01*
X96590397Y-95577372D02*
X96026744Y-95013719D01*
X96026744Y-93861283D02*
X96858495Y-93029532D01*
X96590397Y-95577372D02*
X96577372Y-95577372D01*
X97156153Y-95011616D02*
X96546628Y-94402091D01*
X96546628Y-94048521D02*
X97677415Y-92917734D01*
X96546628Y-94402091D02*
X96546628Y-94048521D01*
X97677415Y-92917734D02*
X97677415Y-92529569D01*
X95893129Y-96143129D02*
X96024641Y-96143129D01*
X96024641Y-96143129D02*
X95494813Y-95613301D01*
X95494813Y-95613301D02*
X95494813Y-93473948D01*
X95494813Y-93473948D02*
X95687489Y-93281272D01*
X95687489Y-93281272D02*
X95987488Y-92981273D01*
X109232481Y-98285019D02*
X110797661Y-98285019D01*
X110797661Y-98285019D02*
X112000000Y-97082680D01*
X112000000Y-97082680D02*
X112000000Y-93000000D01*
X105793250Y-98982233D02*
X106394290Y-98381193D01*
X106394290Y-98381193D02*
X108407689Y-98381193D01*
X108407689Y-98381193D02*
X108503863Y-98285019D01*
X108503863Y-98285019D02*
X109232481Y-98285019D01*
X110750000Y-91250000D02*
X110750000Y-91750000D01*
X110750000Y-91750000D02*
X112000000Y-93000000D01*
X105804140Y-98971909D02*
X105804140Y-98945860D01*
X110750000Y-88710000D02*
X109000000Y-90460000D01*
X109000000Y-92387500D02*
X110668000Y-94055500D01*
X109000000Y-90460000D02*
X109000000Y-92387500D01*
X110668000Y-94055500D02*
X110668000Y-95319819D01*
X110668000Y-95319819D02*
X109226800Y-96761019D01*
X109226800Y-96761019D02*
X107708481Y-96761019D01*
X105227565Y-98416548D02*
X105828605Y-97815508D01*
X105828605Y-97815508D02*
X106653992Y-97815508D01*
X106653992Y-97815508D02*
X107323462Y-97146038D01*
X107323462Y-97146038D02*
X107708481Y-96761019D01*
X105238384Y-98406153D02*
X105343847Y-98406153D01*
X110756481Y-99809019D02*
X112239301Y-99809019D01*
X112239301Y-99809019D02*
X113800000Y-98248320D01*
X113800000Y-98248320D02*
X113800000Y-93600000D01*
X106358936Y-99547918D02*
X110495380Y-99547918D01*
X110495380Y-99547918D02*
X110756481Y-99809019D01*
X113290000Y-88710000D02*
X113290000Y-89310000D01*
X113290000Y-89310000D02*
X112000000Y-90600000D01*
X112000000Y-90600000D02*
X112000000Y-91800000D01*
X112000000Y-91800000D02*
X113800000Y-93600000D01*
X110212335Y-99537665D02*
X110326481Y-99423519D01*
X109803000Y-109041500D02*
X110547500Y-109041500D01*
X106219011Y-110004511D02*
X108396113Y-110004511D01*
X109359124Y-109041500D02*
X109803000Y-109041500D01*
X108396113Y-110004511D02*
X109359124Y-109041500D01*
X105115000Y-108900500D02*
X106219011Y-110004511D01*
X105115000Y-108583000D02*
X105115000Y-108900500D01*
X107745468Y-111004532D02*
X106385000Y-112365000D01*
X110122966Y-110902966D02*
X108911902Y-110902966D01*
X110547500Y-111327500D02*
X110122966Y-110902966D01*
X108911902Y-110902966D02*
X108810336Y-111004532D01*
X108810336Y-111004532D02*
X107745468Y-111004532D01*
X106385000Y-112365000D02*
X106385000Y-113917000D01*
X97721909Y-94445860D02*
X99091720Y-95815671D01*
X99091720Y-95815671D02*
X99368374Y-95815671D01*
X99368374Y-95815671D02*
X99687875Y-96135172D01*
X99687875Y-103562125D02*
X99500000Y-103750000D01*
X99687875Y-96135172D02*
X99687875Y-103562125D01*
X101843847Y-95011616D02*
X101843847Y-95156153D01*
X101843847Y-95156153D02*
X101250000Y-95750000D01*
X101250000Y-95750000D02*
X101250000Y-102500000D01*
X100299999Y-95423952D02*
X101278091Y-94445860D01*
X100000000Y-106250000D02*
X100299999Y-105950001D01*
X100299999Y-105950001D02*
X100299999Y-95423952D01*
X108689752Y-92839252D02*
X106250000Y-90399500D01*
X106250000Y-90399500D02*
X106250000Y-89577480D01*
X105603746Y-97341754D02*
X108689752Y-94255748D01*
X108689752Y-94255748D02*
X108689752Y-92839252D01*
X104661880Y-97850862D02*
X105170988Y-97341754D01*
X105170988Y-97341754D02*
X105603746Y-97341754D01*
X104672628Y-97840397D02*
X104759603Y-97840397D01*
X106350000Y-88150000D02*
X106350000Y-89731480D01*
X106350000Y-89731480D02*
X106250000Y-89831480D01*
X108250000Y-88150000D02*
X106350000Y-88150000D01*
X109722972Y-87197028D02*
X109456972Y-87197028D01*
X109456972Y-87197028D02*
X108504000Y-88150000D01*
X108504000Y-88150000D02*
X108250000Y-88150000D01*
X106250060Y-89848240D02*
X106250000Y-89848180D01*
X109722972Y-87197028D02*
X110750000Y-86170000D01*
X104672628Y-97840397D02*
X104672628Y-97827372D01*
X107655000Y-108265500D02*
X107655000Y-108583000D01*
X108209000Y-107711500D02*
X107655000Y-108265500D01*
X108209000Y-103801439D02*
X108209000Y-107711500D01*
X106369896Y-101962335D02*
X108209000Y-103801439D01*
X84199960Y-97949140D02*
X84422360Y-97949140D01*
X84422360Y-97949140D02*
X85014000Y-97357500D01*
X87170000Y-100952500D02*
X87170000Y-99156449D01*
X87170000Y-99156449D02*
X85962691Y-97949140D01*
X85962691Y-97949140D02*
X84199960Y-97949140D01*
X84250820Y-98000000D02*
X84199960Y-97949140D01*
X84199960Y-97949140D02*
X84199960Y-97049980D01*
X82982000Y-97357500D02*
X82891680Y-97357500D01*
X82891680Y-97357500D02*
X82300040Y-97949140D01*
X87170000Y-95152500D02*
X83597140Y-95152500D01*
X83597140Y-95152500D02*
X82300040Y-96449600D01*
X82300040Y-96449600D02*
X82300040Y-97949140D01*
X86539940Y-94710000D02*
X87020200Y-94710000D01*
D29*
G36*
X109722721Y-77844157D02*
X111124614Y-78544849D01*
X114478000Y-80663486D01*
X114478000Y-81044119D01*
X112954000Y-81044119D01*
X112954000Y-83860882D01*
X114478000Y-83860882D01*
X114478000Y-90970478D01*
X114371615Y-90713642D01*
X114184010Y-90628095D01*
X113469605Y-91342500D01*
X114184010Y-92056905D01*
X114371615Y-91971358D01*
X114478000Y-91661056D01*
X114478000Y-119778114D01*
X108228608Y-122903636D01*
X107878384Y-123034970D01*
X107878384Y-121886500D01*
X92261617Y-121886500D01*
X92261617Y-123032852D01*
X90163527Y-122100367D01*
X88026200Y-121031499D01*
X85627000Y-119432032D01*
X85627000Y-118122000D01*
X87356036Y-118122000D01*
X87356036Y-119773000D01*
X87382603Y-119914190D01*
X87466046Y-120043865D01*
X87593366Y-120130859D01*
X87744500Y-120161464D01*
X89395500Y-120161464D01*
X89536690Y-120134897D01*
X89666365Y-120051454D01*
X89753359Y-119924134D01*
X89770090Y-119841510D01*
X90395595Y-119841510D01*
X90481142Y-120029115D01*
X90942927Y-120187435D01*
X91430148Y-120156987D01*
X91738858Y-120029115D01*
X91824405Y-119841510D01*
X91110000Y-119127105D01*
X90395595Y-119841510D01*
X89770090Y-119841510D01*
X89783964Y-119773000D01*
X89783964Y-118780427D01*
X89870065Y-118780427D01*
X89900513Y-119267648D01*
X90028385Y-119576358D01*
X90215990Y-119661905D01*
X90930395Y-118947500D01*
X91289605Y-118947500D01*
X92004010Y-119661905D01*
X92191615Y-119576358D01*
X92349935Y-119114573D01*
X92319487Y-118627352D01*
X92191615Y-118318642D01*
X92004010Y-118233095D01*
X91289605Y-118947500D01*
X90930395Y-118947500D01*
X90215990Y-118233095D01*
X90028385Y-118318642D01*
X89870065Y-118780427D01*
X89783964Y-118780427D01*
X89783964Y-118122000D01*
X89771073Y-118053490D01*
X90395595Y-118053490D01*
X91110000Y-118767895D01*
X91824405Y-118053490D01*
X91738858Y-117865885D01*
X91277073Y-117707565D01*
X90789852Y-117738013D01*
X90481142Y-117865885D01*
X90395595Y-118053490D01*
X89771073Y-118053490D01*
X89757397Y-117980810D01*
X89673954Y-117851135D01*
X89546634Y-117764141D01*
X89395500Y-117733536D01*
X87744500Y-117733536D01*
X87603310Y-117760103D01*
X87473635Y-117843546D01*
X87386641Y-117970866D01*
X87356036Y-118122000D01*
X85627000Y-118122000D01*
X85627000Y-116641405D01*
X87388696Y-116641405D01*
X87568128Y-117075665D01*
X87900087Y-117408204D01*
X88334034Y-117588394D01*
X88803905Y-117588804D01*
X89238165Y-117409372D01*
X89570704Y-117077413D01*
X89750894Y-116643466D01*
X89751304Y-116173595D01*
X89571872Y-115739335D01*
X89239913Y-115406796D01*
X88805966Y-115226606D01*
X88336095Y-115226196D01*
X87901835Y-115405628D01*
X87569296Y-115737587D01*
X87389106Y-116171534D01*
X87388696Y-116641405D01*
X85627000Y-116641405D01*
X85627000Y-109500000D01*
X85616994Y-109450590D01*
X85589803Y-109410197D01*
X85089803Y-108910197D01*
X85047789Y-108882334D01*
X85000000Y-108873000D01*
X81052606Y-108873000D01*
X80627000Y-108447394D01*
X80627000Y-100151320D01*
X81411196Y-100151320D01*
X81411196Y-102950400D01*
X81437763Y-103091590D01*
X81521206Y-103221265D01*
X81648526Y-103308259D01*
X81799660Y-103338864D01*
X82800420Y-103338864D01*
X82941610Y-103312297D01*
X83071285Y-103228854D01*
X83110077Y-103172080D01*
X83141726Y-103221265D01*
X83269046Y-103308259D01*
X83338620Y-103322348D01*
X83338620Y-106513860D01*
X83390458Y-106774468D01*
X83538080Y-106995400D01*
X85811718Y-109269037D01*
X85811720Y-109269040D01*
X85969592Y-109374526D01*
X86032653Y-109416662D01*
X86293260Y-109468501D01*
X86293265Y-109468500D01*
X87626967Y-109468500D01*
X87867468Y-109568364D01*
X88178169Y-109568636D01*
X88465323Y-109449986D01*
X88685214Y-109230479D01*
X88785771Y-108988309D01*
X89677615Y-108096464D01*
X89811001Y-108096464D01*
X89811001Y-108108183D01*
X89694049Y-108225135D01*
X89578943Y-108397404D01*
X89538523Y-108600609D01*
X89538523Y-115367023D01*
X89578943Y-115570228D01*
X89694049Y-115742497D01*
X89986020Y-116034468D01*
X89929106Y-116171534D01*
X89928696Y-116641405D01*
X90108128Y-117075665D01*
X90440087Y-117408204D01*
X90874034Y-117588394D01*
X91343905Y-117588804D01*
X91778165Y-117409372D01*
X91968899Y-117218971D01*
X91968899Y-117797399D01*
X92009319Y-118000604D01*
X92124425Y-118172873D01*
X92526021Y-118574468D01*
X92469106Y-118711534D01*
X92468696Y-119181405D01*
X92648128Y-119615665D01*
X92980087Y-119948204D01*
X93414034Y-120128394D01*
X93883905Y-120128804D01*
X94318165Y-119949372D01*
X94650704Y-119617413D01*
X94830894Y-119183466D01*
X94831304Y-118713595D01*
X94651872Y-118279335D01*
X94319913Y-117946796D01*
X93885966Y-117766606D01*
X93416095Y-117766196D01*
X93277082Y-117823635D01*
X93030899Y-117577451D01*
X93030899Y-117429303D01*
X93414034Y-117588394D01*
X93883905Y-117588804D01*
X94318165Y-117409372D01*
X94389000Y-117338661D01*
X94389000Y-117677500D01*
X94429420Y-117880705D01*
X94544526Y-118052974D01*
X95066020Y-118574468D01*
X95009106Y-118711534D01*
X95008696Y-119181405D01*
X95188128Y-119615665D01*
X95520087Y-119948204D01*
X95954034Y-120128394D01*
X96423905Y-120128804D01*
X96858165Y-119949372D01*
X97190704Y-119617413D01*
X97370894Y-119183466D01*
X97371304Y-118713595D01*
X97191872Y-118279335D01*
X96859913Y-117946796D01*
X96425966Y-117766606D01*
X95956095Y-117766196D01*
X95817083Y-117823635D01*
X95451000Y-117457552D01*
X95451000Y-117338996D01*
X95520087Y-117408204D01*
X95954034Y-117588394D01*
X96423905Y-117588804D01*
X96809101Y-117429645D01*
X96809101Y-117557601D01*
X96849521Y-117760806D01*
X96964627Y-117933075D01*
X97606020Y-118574468D01*
X97549106Y-118711534D01*
X97548696Y-119181405D01*
X97728128Y-119615665D01*
X98060087Y-119948204D01*
X98494034Y-120128394D01*
X98963905Y-120128804D01*
X99398165Y-119949372D01*
X99730704Y-119617413D01*
X99910894Y-119183466D01*
X99911304Y-118713595D01*
X99731872Y-118279335D01*
X99399913Y-117946796D01*
X98965966Y-117766606D01*
X98496095Y-117766196D01*
X98357083Y-117823635D01*
X97871101Y-117337653D01*
X97871101Y-117218888D01*
X98060087Y-117408204D01*
X98494034Y-117588394D01*
X98963905Y-117588804D01*
X99398165Y-117409372D01*
X99588899Y-117218971D01*
X99588899Y-117797399D01*
X99629319Y-118000604D01*
X99744425Y-118172873D01*
X100146021Y-118574468D01*
X100089106Y-118711534D01*
X100088696Y-119181405D01*
X100268128Y-119615665D01*
X100600087Y-119948204D01*
X101034034Y-120128394D01*
X101503905Y-120128804D01*
X101938165Y-119949372D01*
X102270704Y-119617413D01*
X102450894Y-119183466D01*
X102451304Y-118713595D01*
X102271872Y-118279335D01*
X101939913Y-117946796D01*
X101505966Y-117766606D01*
X101036095Y-117766196D01*
X100897082Y-117823635D01*
X100650899Y-117577451D01*
X100650899Y-117429303D01*
X101034034Y-117588394D01*
X101503905Y-117588804D01*
X101938165Y-117409372D01*
X102009000Y-117338661D01*
X102009000Y-117677500D01*
X102049420Y-117880705D01*
X102164526Y-118052974D01*
X102715170Y-118603618D01*
X102667199Y-118719146D01*
X102666802Y-119173859D01*
X102840446Y-119594112D01*
X103161697Y-119915923D01*
X103581646Y-120090301D01*
X104036359Y-120090698D01*
X104456612Y-119917054D01*
X104778423Y-119595803D01*
X104952801Y-119175854D01*
X104953198Y-118721141D01*
X104779554Y-118300888D01*
X104458303Y-117979077D01*
X104038354Y-117804699D01*
X103583641Y-117804302D01*
X103466253Y-117852805D01*
X103071000Y-117457552D01*
X103071000Y-117285068D01*
X103161697Y-117375923D01*
X103581646Y-117550301D01*
X104036359Y-117550698D01*
X104456612Y-117377054D01*
X104692836Y-117141241D01*
X104704526Y-117158736D01*
X105613484Y-118067694D01*
X105381577Y-118299197D01*
X105207199Y-118719146D01*
X105206802Y-119173859D01*
X105380446Y-119594112D01*
X105701697Y-119915923D01*
X106121646Y-120090301D01*
X106576359Y-120090698D01*
X106996612Y-119917054D01*
X107318423Y-119595803D01*
X107492801Y-119175854D01*
X107492802Y-119173859D01*
X107746802Y-119173859D01*
X107920446Y-119594112D01*
X108241697Y-119915923D01*
X108661646Y-120090301D01*
X109116359Y-120090698D01*
X109536612Y-119917054D01*
X109858423Y-119595803D01*
X110032801Y-119175854D01*
X110032802Y-119173859D01*
X110286802Y-119173859D01*
X110460446Y-119594112D01*
X110781697Y-119915923D01*
X111201646Y-120090301D01*
X111656359Y-120090698D01*
X112076612Y-119917054D01*
X112398423Y-119595803D01*
X112572801Y-119175854D01*
X112573198Y-118721141D01*
X112399554Y-118300888D01*
X112078303Y-117979077D01*
X111658354Y-117804699D01*
X111203641Y-117804302D01*
X110783388Y-117977946D01*
X110461577Y-118299197D01*
X110287199Y-118719146D01*
X110286802Y-119173859D01*
X110032802Y-119173859D01*
X110033198Y-118721141D01*
X109859554Y-118300888D01*
X109538303Y-117979077D01*
X109118354Y-117804699D01*
X108663641Y-117804302D01*
X108243388Y-117977946D01*
X107921577Y-118299197D01*
X107747199Y-118719146D01*
X107746802Y-119173859D01*
X107492802Y-119173859D01*
X107493198Y-118721141D01*
X107346664Y-118366499D01*
X107462001Y-118366499D01*
X107665206Y-118326079D01*
X107837475Y-118210973D01*
X108546118Y-117502330D01*
X108661646Y-117550301D01*
X109116359Y-117550698D01*
X109536612Y-117377054D01*
X109858423Y-117055803D01*
X110032801Y-116635854D01*
X110033198Y-116181141D01*
X110031281Y-116176501D01*
X110288297Y-116176501D01*
X110287199Y-116179146D01*
X110286802Y-116633859D01*
X110460446Y-117054112D01*
X110781697Y-117375923D01*
X111201646Y-117550301D01*
X111656359Y-117550698D01*
X112076612Y-117377054D01*
X112398423Y-117055803D01*
X112572801Y-116635854D01*
X112573198Y-116181141D01*
X112399554Y-115760888D01*
X112078303Y-115439077D01*
X111658354Y-115264699D01*
X111203641Y-115264302D01*
X111086253Y-115312805D01*
X111043475Y-115270027D01*
X110871206Y-115154921D01*
X110668001Y-115114501D01*
X109993711Y-115114501D01*
X109641236Y-114762026D01*
X109468967Y-114646920D01*
X109265762Y-114606500D01*
X108322304Y-114606500D01*
X108336000Y-114573436D01*
X108336000Y-114150750D01*
X108229250Y-114044000D01*
X107782000Y-114044000D01*
X107782000Y-114064000D01*
X107528000Y-114064000D01*
X107528000Y-114044000D01*
X107508000Y-114044000D01*
X107508000Y-113847250D01*
X109676000Y-113847250D01*
X109676000Y-114396936D01*
X109741007Y-114553876D01*
X109861124Y-114673993D01*
X110018065Y-114739000D01*
X110313750Y-114739000D01*
X110420500Y-114632250D01*
X110420500Y-113740500D01*
X109782750Y-113740500D01*
X109676000Y-113847250D01*
X107508000Y-113847250D01*
X107508000Y-113790000D01*
X107528000Y-113790000D01*
X107528000Y-113025250D01*
X107782000Y-113025250D01*
X107782000Y-113790000D01*
X108229250Y-113790000D01*
X108336000Y-113683250D01*
X108336000Y-113260564D01*
X108270993Y-113103624D01*
X108150876Y-112983507D01*
X107993935Y-112918500D01*
X107888750Y-112918500D01*
X107782000Y-113025250D01*
X107528000Y-113025250D01*
X107421250Y-112918500D01*
X107316065Y-112918500D01*
X107159124Y-112983507D01*
X107039007Y-113103624D01*
X106998709Y-113200910D01*
X106917454Y-113074635D01*
X106916000Y-113073642D01*
X106916000Y-112830064D01*
X109676000Y-112830064D01*
X109676000Y-113379750D01*
X109782750Y-113486500D01*
X110420500Y-113486500D01*
X110420500Y-112594750D01*
X110313750Y-112488000D01*
X110018065Y-112488000D01*
X109861124Y-112553007D01*
X109741007Y-112673124D01*
X109676000Y-112830064D01*
X106916000Y-112830064D01*
X106916000Y-112584948D01*
X107965415Y-111535532D01*
X108810336Y-111535532D01*
X109013541Y-111495112D01*
X109105053Y-111433966D01*
X109714536Y-111433966D01*
X109714536Y-112026000D01*
X109741103Y-112167190D01*
X109824546Y-112296865D01*
X109951866Y-112383859D01*
X110103000Y-112414464D01*
X110992000Y-112414464D01*
X111000788Y-112412810D01*
X111000788Y-112488000D01*
X110781250Y-112488000D01*
X110674500Y-112594750D01*
X110674500Y-113486500D01*
X110694500Y-113486500D01*
X110694500Y-113740500D01*
X110674500Y-113740500D01*
X110674500Y-114632250D01*
X110781250Y-114739000D01*
X111076935Y-114739000D01*
X111233876Y-114673993D01*
X111353993Y-114553876D01*
X111419000Y-114396936D01*
X111419000Y-113923447D01*
X111484527Y-113988974D01*
X111619536Y-114079184D01*
X111619536Y-114312000D01*
X111646103Y-114453190D01*
X111729546Y-114582865D01*
X111856866Y-114669859D01*
X112008000Y-114700464D01*
X112897000Y-114700464D01*
X113038190Y-114673897D01*
X113167865Y-114590454D01*
X113254859Y-114463134D01*
X113285464Y-114312000D01*
X113285464Y-112915000D01*
X113258897Y-112773810D01*
X113175454Y-112644135D01*
X113048134Y-112557141D01*
X112897000Y-112526536D01*
X112062788Y-112526536D01*
X112062788Y-112453000D01*
X112218750Y-112453000D01*
X112325500Y-112346250D01*
X112325500Y-111454500D01*
X112579500Y-111454500D01*
X112579500Y-112346250D01*
X112686250Y-112453000D01*
X112981935Y-112453000D01*
X113138876Y-112387993D01*
X113258993Y-112267876D01*
X113324000Y-112110936D01*
X113324000Y-111561250D01*
X113217250Y-111454500D01*
X112579500Y-111454500D01*
X112325500Y-111454500D01*
X112305500Y-111454500D01*
X112305500Y-111200500D01*
X112325500Y-111200500D01*
X112325500Y-110308750D01*
X112579500Y-110308750D01*
X112579500Y-111200500D01*
X113217250Y-111200500D01*
X113324000Y-111093750D01*
X113324000Y-110544064D01*
X113258993Y-110387124D01*
X113138876Y-110267007D01*
X112981935Y-110202000D01*
X112686250Y-110202000D01*
X112579500Y-110308750D01*
X112325500Y-110308750D01*
X112218750Y-110202000D01*
X112016967Y-110202000D01*
X111993581Y-110167000D01*
X112218750Y-110167000D01*
X112325500Y-110060250D01*
X112325500Y-109168500D01*
X112579500Y-109168500D01*
X112579500Y-110060250D01*
X112686250Y-110167000D01*
X112981935Y-110167000D01*
X113138876Y-110101993D01*
X113258993Y-109981876D01*
X113324000Y-109824936D01*
X113324000Y-109275250D01*
X113217250Y-109168500D01*
X112579500Y-109168500D01*
X112325500Y-109168500D01*
X111687750Y-109168500D01*
X111581000Y-109275250D01*
X111581000Y-109784500D01*
X111397499Y-109747999D01*
X111378844Y-109747999D01*
X111380464Y-109740000D01*
X111380464Y-108343000D01*
X111353897Y-108201810D01*
X111313168Y-108138515D01*
X111630519Y-108138515D01*
X111581000Y-108258064D01*
X111581000Y-108807750D01*
X111687750Y-108914500D01*
X112325500Y-108914500D01*
X112325500Y-108894500D01*
X112579500Y-108894500D01*
X112579500Y-108914500D01*
X113217250Y-108914500D01*
X113324000Y-108807750D01*
X113324000Y-108288413D01*
X113576971Y-108288633D01*
X113827358Y-108185176D01*
X114019093Y-107993774D01*
X114122988Y-107743569D01*
X114123224Y-107472650D01*
X114019767Y-107222263D01*
X113828365Y-107030528D01*
X113578160Y-106926633D01*
X113307241Y-106926397D01*
X113056854Y-107029854D01*
X113010112Y-107076515D01*
X111054779Y-107076515D01*
X111705538Y-106807627D01*
X112305521Y-106208691D01*
X112630630Y-105425742D01*
X112631369Y-104577978D01*
X112307627Y-103794462D01*
X111708691Y-103194479D01*
X110925742Y-102869370D01*
X110077978Y-102868631D01*
X109294462Y-103192373D01*
X108730778Y-103755073D01*
X108699580Y-103598234D01*
X108584474Y-103425965D01*
X107468526Y-102310017D01*
X107472147Y-102293325D01*
X107443632Y-102141782D01*
X107358406Y-102013272D01*
X106297746Y-100952612D01*
X106179124Y-100871562D01*
X106028427Y-100838871D01*
X105876884Y-100867386D01*
X105748374Y-100952612D01*
X105359466Y-101341520D01*
X105285076Y-101450395D01*
X105182688Y-101518297D01*
X104793780Y-101907205D01*
X104719389Y-102016081D01*
X104617003Y-102083982D01*
X104228095Y-102472890D01*
X104153703Y-102581768D01*
X104051318Y-102649668D01*
X103662410Y-103038576D01*
X103588020Y-103147451D01*
X103485632Y-103215353D01*
X103285971Y-103415014D01*
X103262486Y-103358177D01*
X103042979Y-103138286D01*
X102756032Y-103019136D01*
X102445331Y-103018864D01*
X102158177Y-103137514D01*
X101938286Y-103357021D01*
X101819136Y-103643968D01*
X101818864Y-103954669D01*
X101937514Y-104241823D01*
X102157021Y-104461714D01*
X102313687Y-104526767D01*
X103048969Y-105262048D01*
X103123705Y-105311985D01*
X103151171Y-105339451D01*
X103144428Y-105346194D01*
X103158571Y-105360336D01*
X102978965Y-105539942D01*
X102964823Y-105525799D01*
X102958080Y-105532542D01*
X102778475Y-105352937D01*
X102785218Y-105346194D01*
X102118239Y-104679216D01*
X101967272Y-104679216D01*
X101878045Y-104768443D01*
X101829713Y-104885129D01*
X101788576Y-104912410D01*
X101399668Y-105301318D01*
X101325278Y-105410193D01*
X101222890Y-105478095D01*
X100833982Y-105867003D01*
X100830999Y-105871369D01*
X100830999Y-103044188D01*
X100863741Y-103076987D01*
X101113946Y-103180882D01*
X101384865Y-103181118D01*
X101635252Y-103077661D01*
X101826987Y-102886259D01*
X101930882Y-102636054D01*
X101931118Y-102365135D01*
X101827661Y-102114748D01*
X101781000Y-102068006D01*
X101781000Y-96580014D01*
X101788576Y-96587590D01*
X101897451Y-96661980D01*
X101965353Y-96764368D01*
X102354261Y-97153276D01*
X102463139Y-97227668D01*
X102531039Y-97330053D01*
X102919947Y-97718961D01*
X102961561Y-97747394D01*
X103009416Y-97862928D01*
X103098643Y-97952155D01*
X103249610Y-97952155D01*
X103916589Y-97285177D01*
X103909846Y-97278434D01*
X103947916Y-97240364D01*
X104022655Y-97190425D01*
X104701149Y-96511931D01*
X104897016Y-96431000D01*
X105671500Y-96431000D01*
X105786409Y-96408143D01*
X105383798Y-96810754D01*
X105225771Y-96810754D01*
X105182972Y-96707426D01*
X105093745Y-96618199D01*
X104942778Y-96618199D01*
X104275799Y-97285177D01*
X104282542Y-97291920D01*
X104102937Y-97471525D01*
X104096194Y-97464782D01*
X103429216Y-98131761D01*
X103429216Y-98282728D01*
X103518443Y-98371955D01*
X103635129Y-98420287D01*
X103662410Y-98461424D01*
X104051318Y-98850332D01*
X104160193Y-98924722D01*
X104228095Y-99027110D01*
X104617003Y-99416018D01*
X104725879Y-99490409D01*
X104793780Y-99592795D01*
X105182688Y-99981703D01*
X105291566Y-100056095D01*
X105359466Y-100158480D01*
X105748374Y-100547388D01*
X105866996Y-100628438D01*
X106017693Y-100661129D01*
X106169236Y-100632614D01*
X106297746Y-100547388D01*
X106766216Y-100078918D01*
X109848390Y-100078918D01*
X110661400Y-100891928D01*
X110780022Y-100972978D01*
X110930719Y-101005669D01*
X111082262Y-100977154D01*
X111210772Y-100891928D01*
X111762681Y-100340019D01*
X112239301Y-100340019D01*
X112442506Y-100299599D01*
X112614775Y-100184493D01*
X114175471Y-98623796D01*
X114175474Y-98623794D01*
X114290580Y-98451525D01*
X114295150Y-98428552D01*
X114331001Y-98248320D01*
X114331000Y-98248315D01*
X114331000Y-93600000D01*
X114290580Y-93396795D01*
X114175474Y-93224526D01*
X114175471Y-93224524D01*
X113509240Y-92558293D01*
X113610148Y-92551987D01*
X113918858Y-92424115D01*
X114004405Y-92236510D01*
X113290000Y-91522105D01*
X113275858Y-91536248D01*
X113096253Y-91356643D01*
X113110395Y-91342500D01*
X113096253Y-91328358D01*
X113275858Y-91148753D01*
X113290000Y-91162895D01*
X114004405Y-90448490D01*
X113918858Y-90260885D01*
X113457073Y-90102565D01*
X113234471Y-90116476D01*
X113367280Y-89983667D01*
X113523905Y-89983804D01*
X113958165Y-89804372D01*
X114290704Y-89472413D01*
X114470894Y-89038466D01*
X114471304Y-88568595D01*
X114291872Y-88134335D01*
X113959913Y-87801796D01*
X113525966Y-87621606D01*
X113056095Y-87621196D01*
X112621835Y-87800628D01*
X112289296Y-88132587D01*
X112109106Y-88566534D01*
X112108696Y-89036405D01*
X112288128Y-89470665D01*
X112333218Y-89515834D01*
X111696095Y-90152957D01*
X111575500Y-90128536D01*
X110082412Y-90128536D01*
X110311608Y-89899340D01*
X110514034Y-89983394D01*
X110983905Y-89983804D01*
X111418165Y-89804372D01*
X111750704Y-89472413D01*
X111930894Y-89038466D01*
X111931304Y-88568595D01*
X111751872Y-88134335D01*
X111419913Y-87801796D01*
X110985966Y-87621606D01*
X110516095Y-87621196D01*
X110081835Y-87800628D01*
X109749296Y-88132587D01*
X109569106Y-88566534D01*
X109568696Y-89036405D01*
X109599089Y-89109963D01*
X108624526Y-90084526D01*
X108509420Y-90256795D01*
X108469000Y-90460000D01*
X108469000Y-91867553D01*
X106939438Y-90337990D01*
X106978065Y-90313134D01*
X107065059Y-90185814D01*
X107095664Y-90034680D01*
X107095664Y-89120280D01*
X107069097Y-88979090D01*
X107069096Y-88979089D01*
X107189690Y-88956397D01*
X107301231Y-88884623D01*
X107400366Y-88952359D01*
X107551500Y-88982964D01*
X108948500Y-88982964D01*
X109089690Y-88956397D01*
X109219365Y-88872954D01*
X109306359Y-88745634D01*
X109336964Y-88594500D01*
X109336964Y-88067984D01*
X109676920Y-87728028D01*
X109722972Y-87728028D01*
X109926177Y-87687608D01*
X110098446Y-87572502D01*
X110311608Y-87359340D01*
X110514034Y-87443394D01*
X110983905Y-87443804D01*
X111418165Y-87264372D01*
X111750704Y-86932413D01*
X111930894Y-86498466D01*
X111931304Y-86028595D01*
X111752306Y-85595386D01*
X112130920Y-85974000D01*
X112109106Y-86026534D01*
X112108696Y-86496405D01*
X112288128Y-86930665D01*
X112620087Y-87263204D01*
X113054034Y-87443394D01*
X113523905Y-87443804D01*
X113958165Y-87264372D01*
X114290704Y-86932413D01*
X114470894Y-86498466D01*
X114471304Y-86028595D01*
X114291872Y-85594335D01*
X113959913Y-85261796D01*
X113525966Y-85081606D01*
X113164370Y-85081290D01*
X112434293Y-84351213D01*
X112223534Y-84210388D01*
X112398423Y-84035803D01*
X112572801Y-83615854D01*
X112573198Y-83161141D01*
X112399554Y-82740888D01*
X112078303Y-82419077D01*
X111658354Y-82244699D01*
X111203641Y-82244302D01*
X110783388Y-82417946D01*
X110461577Y-82739197D01*
X110287199Y-83159146D01*
X110286802Y-83613859D01*
X110460446Y-84034112D01*
X110577882Y-84151753D01*
X109916247Y-84151753D01*
X109698978Y-84194970D01*
X109858423Y-84035803D01*
X110032801Y-83615854D01*
X110033198Y-83161141D01*
X109859554Y-82740888D01*
X109538303Y-82419077D01*
X109118354Y-82244699D01*
X108663641Y-82244302D01*
X108243388Y-82417946D01*
X107921577Y-82739197D01*
X107747199Y-83159146D01*
X107746802Y-83613859D01*
X107920446Y-84034112D01*
X108241697Y-84355923D01*
X108661646Y-84530301D01*
X109116359Y-84530698D01*
X109352999Y-84432921D01*
X108373884Y-85412036D01*
X107551500Y-85412036D01*
X107410310Y-85438603D01*
X107337393Y-85485524D01*
X107290376Y-85438507D01*
X107133436Y-85373500D01*
X106583750Y-85373500D01*
X106477000Y-85480250D01*
X106477000Y-86118000D01*
X106497000Y-86118000D01*
X106497000Y-86372000D01*
X106477000Y-86372000D01*
X106477000Y-87009750D01*
X106583750Y-87116500D01*
X107133436Y-87116500D01*
X107290376Y-87051493D01*
X107337479Y-87004390D01*
X107400366Y-87047359D01*
X107551500Y-87077964D01*
X108825088Y-87077964D01*
X108586016Y-87317036D01*
X107551500Y-87317036D01*
X107410310Y-87343603D01*
X107298769Y-87415377D01*
X107199634Y-87347641D01*
X107048500Y-87317036D01*
X105651500Y-87317036D01*
X105510310Y-87343603D01*
X105380635Y-87427046D01*
X105293641Y-87554366D01*
X105263036Y-87705500D01*
X105263036Y-88594500D01*
X105289603Y-88735690D01*
X105373046Y-88865365D01*
X105463583Y-88927227D01*
X105434941Y-88969146D01*
X105404336Y-89120280D01*
X105404336Y-90034680D01*
X105430903Y-90175870D01*
X105514346Y-90305545D01*
X105641666Y-90392539D01*
X105720803Y-90408564D01*
X105759420Y-90602705D01*
X105874526Y-90774974D01*
X106144872Y-91045320D01*
X106122998Y-91045320D01*
X106122998Y-91152068D01*
X106016250Y-91045320D01*
X105707864Y-91045320D01*
X105550924Y-91110327D01*
X105430807Y-91230444D01*
X105365800Y-91387385D01*
X105365800Y-91695770D01*
X105472550Y-91802520D01*
X106123000Y-91802520D01*
X106123000Y-91782520D01*
X106377000Y-91782520D01*
X106377000Y-91802520D01*
X106397000Y-91802520D01*
X106397000Y-92056520D01*
X106377000Y-92056520D01*
X106377000Y-92706970D01*
X106483750Y-92813720D01*
X106792136Y-92813720D01*
X106949076Y-92748713D01*
X107069193Y-92628596D01*
X107134200Y-92471655D01*
X107134200Y-92163270D01*
X107027452Y-92056522D01*
X107134200Y-92056522D01*
X107134200Y-92034648D01*
X108158752Y-93059199D01*
X108158752Y-93442353D01*
X107711124Y-93889981D01*
X107725267Y-93904124D01*
X107545662Y-94083729D01*
X107531519Y-94069586D01*
X107080562Y-94520543D01*
X107080562Y-94671511D01*
X107301801Y-94892751D01*
X107160002Y-95034550D01*
X106279562Y-94154110D01*
X106160940Y-94073060D01*
X106010243Y-94040369D01*
X105858700Y-94068884D01*
X105730190Y-94154110D01*
X105101572Y-94782728D01*
X105020522Y-94901350D01*
X104987831Y-95052047D01*
X104991021Y-95069000D01*
X104896533Y-95069000D01*
X104656032Y-94969136D01*
X104345331Y-94968864D01*
X104115884Y-95063670D01*
X104115884Y-93625440D01*
X106296296Y-93625440D01*
X106296296Y-93795311D01*
X106361303Y-93952252D01*
X106481419Y-94072369D01*
X106749989Y-94340938D01*
X106900957Y-94340938D01*
X107351914Y-93889981D01*
X106721351Y-93259419D01*
X106570384Y-93259419D01*
X106361303Y-93468499D01*
X106296296Y-93625440D01*
X104115884Y-93625440D01*
X104115884Y-92928846D01*
X106900957Y-92928846D01*
X106900957Y-93079813D01*
X107531519Y-93710376D01*
X107982476Y-93259419D01*
X107982476Y-93108451D01*
X107713907Y-92839881D01*
X107593790Y-92719765D01*
X107436849Y-92654758D01*
X107266978Y-92654758D01*
X107110037Y-92719765D01*
X106900957Y-92928846D01*
X104115884Y-92928846D01*
X104115884Y-92163270D01*
X105365800Y-92163270D01*
X105365800Y-92471655D01*
X105430807Y-92628596D01*
X105550924Y-92748713D01*
X105707864Y-92813720D01*
X106016250Y-92813720D01*
X106123000Y-92706970D01*
X106123000Y-92056520D01*
X105472550Y-92056520D01*
X105365800Y-92163270D01*
X104115884Y-92163270D01*
X104115884Y-91125454D01*
X104594860Y-91125454D01*
X104736050Y-91098887D01*
X104865725Y-91015444D01*
X104952719Y-90888124D01*
X104983324Y-90736990D01*
X104983324Y-88738010D01*
X104956757Y-88596820D01*
X104873314Y-88467145D01*
X104745994Y-88380151D01*
X104594860Y-88349546D01*
X102753500Y-88349546D01*
X102753500Y-86998188D01*
X102808190Y-86987897D01*
X102937865Y-86904454D01*
X103024859Y-86777134D01*
X103055464Y-86626000D01*
X103055464Y-86478750D01*
X105224500Y-86478750D01*
X105224500Y-86774435D01*
X105289507Y-86931376D01*
X105409624Y-87051493D01*
X105566564Y-87116500D01*
X106116250Y-87116500D01*
X106223000Y-87009750D01*
X106223000Y-86372000D01*
X105331250Y-86372000D01*
X105224500Y-86478750D01*
X103055464Y-86478750D01*
X103055464Y-85715565D01*
X105224500Y-85715565D01*
X105224500Y-86011250D01*
X105331250Y-86118000D01*
X106223000Y-86118000D01*
X106223000Y-85480250D01*
X106116250Y-85373500D01*
X105566564Y-85373500D01*
X105409624Y-85438507D01*
X105289507Y-85558624D01*
X105224500Y-85715565D01*
X103055464Y-85715565D01*
X103055464Y-85229000D01*
X103028897Y-85087810D01*
X102945454Y-84958135D01*
X102818134Y-84871141D01*
X102667000Y-84840536D01*
X101778000Y-84840536D01*
X101636810Y-84867103D01*
X101507135Y-84950546D01*
X101420141Y-85077866D01*
X101389536Y-85229000D01*
X101389536Y-86626000D01*
X101416103Y-86767190D01*
X101499546Y-86896865D01*
X101626866Y-86983859D01*
X101691500Y-86996948D01*
X101691500Y-88349546D01*
X100093980Y-88349546D01*
X99952790Y-88376113D01*
X99823115Y-88459556D01*
X99736121Y-88586876D01*
X99705516Y-88738010D01*
X99705516Y-90555991D01*
X97965458Y-90555991D01*
X96771494Y-89362026D01*
X96599225Y-89246920D01*
X96484484Y-89224097D01*
X96484484Y-88738010D01*
X96457917Y-88596820D01*
X96374474Y-88467145D01*
X96247154Y-88380151D01*
X96096020Y-88349546D01*
X94181000Y-88349546D01*
X94181000Y-86998188D01*
X94235690Y-86987897D01*
X94365365Y-86904454D01*
X94452359Y-86777134D01*
X94482964Y-86626000D01*
X94482964Y-85229000D01*
X94722036Y-85229000D01*
X94722036Y-86626000D01*
X94748603Y-86767190D01*
X94832046Y-86896865D01*
X94959366Y-86983859D01*
X95110500Y-87014464D01*
X95999500Y-87014464D01*
X96140690Y-86987897D01*
X96270365Y-86904454D01*
X96357359Y-86777134D01*
X96387964Y-86626000D01*
X96387964Y-86608500D01*
X99117920Y-86608500D01*
X99036851Y-86689569D01*
X98796177Y-86789014D01*
X98576286Y-87008521D01*
X98457136Y-87295468D01*
X98456864Y-87606169D01*
X98575514Y-87893323D01*
X98795021Y-88113214D01*
X99081968Y-88232364D01*
X99392669Y-88232636D01*
X99679823Y-88113986D01*
X99899714Y-87894479D01*
X100000271Y-87652308D01*
X100638115Y-87014464D01*
X100762000Y-87014464D01*
X100903190Y-86987897D01*
X101032865Y-86904454D01*
X101119859Y-86777134D01*
X101150464Y-86626000D01*
X101150464Y-85229000D01*
X101123897Y-85087810D01*
X101040454Y-84958135D01*
X100913134Y-84871141D01*
X100762000Y-84840536D01*
X99873000Y-84840536D01*
X99731810Y-84867103D01*
X99602135Y-84950546D01*
X99515141Y-85077866D01*
X99484536Y-85229000D01*
X99484536Y-85246500D01*
X96387964Y-85246500D01*
X96387964Y-85229000D01*
X96361397Y-85087810D01*
X96277954Y-84958135D01*
X96150634Y-84871141D01*
X95999500Y-84840536D01*
X95110500Y-84840536D01*
X94969310Y-84867103D01*
X94839635Y-84950546D01*
X94752641Y-85077866D01*
X94722036Y-85229000D01*
X94482964Y-85229000D01*
X94456397Y-85087810D01*
X94372954Y-84958135D01*
X94245634Y-84871141D01*
X94094500Y-84840536D01*
X93205500Y-84840536D01*
X93064310Y-84867103D01*
X92934635Y-84950546D01*
X92847641Y-85077866D01*
X92817036Y-85229000D01*
X92817036Y-86626000D01*
X92843603Y-86767190D01*
X92927046Y-86896865D01*
X93054366Y-86983859D01*
X93119000Y-86996948D01*
X93119000Y-88349546D01*
X91595140Y-88349546D01*
X91453950Y-88376113D01*
X91324275Y-88459556D01*
X91237281Y-88586876D01*
X91206676Y-88738010D01*
X91206676Y-90736990D01*
X91233243Y-90878180D01*
X91316686Y-91007855D01*
X91444006Y-91094849D01*
X91595140Y-91125454D01*
X96096020Y-91125454D01*
X96237210Y-91098887D01*
X96366885Y-91015444D01*
X96453879Y-90888124D01*
X96484484Y-90736990D01*
X96484484Y-90576912D01*
X97370035Y-91462462D01*
X97370037Y-91462465D01*
X97542306Y-91577571D01*
X97745511Y-91617991D01*
X100719103Y-91617991D01*
X100719060Y-91667004D01*
X100336861Y-92049202D01*
X100221755Y-92221471D01*
X100181335Y-92424676D01*
X100181335Y-93473531D01*
X99702612Y-93952254D01*
X99621562Y-94070876D01*
X99588871Y-94221573D01*
X99617386Y-94373116D01*
X99702612Y-94501626D01*
X100086995Y-94886009D01*
X99924525Y-95048478D01*
X99809419Y-95220747D01*
X99768999Y-95423952D01*
X99768999Y-95465348D01*
X99743848Y-95440197D01*
X99571579Y-95325091D01*
X99368374Y-95284671D01*
X99311667Y-95284671D01*
X98913005Y-94886009D01*
X99297388Y-94501626D01*
X99378438Y-94383004D01*
X99411129Y-94232307D01*
X99382614Y-94080764D01*
X99297388Y-93952254D01*
X98818665Y-93473531D01*
X98818665Y-93139869D01*
X98830573Y-93127961D01*
X98830576Y-93127959D01*
X98945682Y-92955690D01*
X98952869Y-92919557D01*
X98980748Y-92779407D01*
X99032089Y-92728155D01*
X99135984Y-92477950D01*
X99136220Y-92207031D01*
X99032763Y-91956644D01*
X98841361Y-91764909D01*
X98591156Y-91661014D01*
X98320237Y-91660778D01*
X98069850Y-91764235D01*
X97934787Y-91899063D01*
X97813469Y-91848687D01*
X97542550Y-91848451D01*
X97292163Y-91951908D01*
X97100428Y-92143310D01*
X97087267Y-92175006D01*
X96994549Y-92136506D01*
X96723630Y-92136270D01*
X96473243Y-92239727D01*
X96327595Y-92385122D01*
X96123542Y-92300391D01*
X95852623Y-92300155D01*
X95602236Y-92403612D01*
X95410501Y-92595014D01*
X95306606Y-92845219D01*
X95306548Y-92911265D01*
X95119339Y-93098474D01*
X95004233Y-93270743D01*
X94963813Y-93473948D01*
X94963813Y-93693024D01*
X94954081Y-93693024D01*
X94503124Y-94143981D01*
X94517267Y-94158123D01*
X94337661Y-94337729D01*
X94323519Y-94323586D01*
X93872562Y-94774543D01*
X93872562Y-94925511D01*
X94141131Y-95194081D01*
X94261248Y-95314197D01*
X94418189Y-95379204D01*
X94588060Y-95379204D01*
X94745001Y-95314197D01*
X94954081Y-95105116D01*
X94954081Y-94954151D01*
X94963813Y-94963883D01*
X94963813Y-95602860D01*
X94891740Y-95632713D01*
X94802513Y-95721940D01*
X94802513Y-95872907D01*
X95469491Y-96539886D01*
X95476234Y-96533143D01*
X95655839Y-96712748D01*
X95649096Y-96719491D01*
X96316075Y-97386469D01*
X96467042Y-97386469D01*
X96556269Y-97297242D01*
X96604600Y-97180559D01*
X96645739Y-97153276D01*
X97034647Y-96764368D01*
X97109039Y-96655490D01*
X97211424Y-96587590D01*
X97600332Y-96198682D01*
X97674722Y-96089807D01*
X97777110Y-96021905D01*
X98162058Y-95636957D01*
X98716244Y-96191142D01*
X98716246Y-96191145D01*
X98888515Y-96306251D01*
X99091720Y-96346671D01*
X99148426Y-96346671D01*
X99156875Y-96355119D01*
X99156875Y-103154933D01*
X99114748Y-103172339D01*
X98923013Y-103363741D01*
X98819118Y-103613946D01*
X98818882Y-103884865D01*
X98922339Y-104135252D01*
X99113741Y-104326987D01*
X99363946Y-104430882D01*
X99634865Y-104431118D01*
X99768999Y-104375695D01*
X99768999Y-105608604D01*
X99614748Y-105672339D01*
X99423013Y-105863741D01*
X99319118Y-106113946D01*
X99318882Y-106384865D01*
X99422339Y-106635252D01*
X99613741Y-106826987D01*
X99797638Y-106903348D01*
X99702612Y-106998374D01*
X99621562Y-107116996D01*
X99588871Y-107267693D01*
X99617386Y-107419236D01*
X99702612Y-107547746D01*
X99857468Y-107702602D01*
X99274525Y-108285545D01*
X99159419Y-108457814D01*
X99118999Y-108661019D01*
X99118999Y-109084207D01*
X98870303Y-108835077D01*
X98450354Y-108660699D01*
X98158261Y-108660444D01*
X98236728Y-108608406D01*
X99297388Y-107547746D01*
X99378438Y-107429124D01*
X99411129Y-107278427D01*
X99382614Y-107126884D01*
X99297388Y-106998374D01*
X98908480Y-106609466D01*
X98799605Y-106535076D01*
X98731703Y-106432688D01*
X98342795Y-106043780D01*
X98233919Y-105969389D01*
X98166018Y-105867003D01*
X97777110Y-105478095D01*
X97668232Y-105403703D01*
X97600332Y-105301318D01*
X97211424Y-104912410D01*
X97102549Y-104838020D01*
X97034647Y-104735632D01*
X96645739Y-104346724D01*
X96536861Y-104272332D01*
X96468961Y-104169947D01*
X96080053Y-103781039D01*
X95971178Y-103706649D01*
X95903276Y-103604261D01*
X95518469Y-103219454D01*
X97016788Y-101721134D01*
X97016791Y-101721132D01*
X97131897Y-101548863D01*
X97172317Y-101345658D01*
X97172317Y-99607522D01*
X97218304Y-99561615D01*
X97322199Y-99311410D01*
X97322435Y-99040491D01*
X97218978Y-98790104D01*
X97027576Y-98598369D01*
X96777371Y-98494474D01*
X96506452Y-98494238D01*
X96256065Y-98597695D01*
X96064330Y-98789097D01*
X96033834Y-98862539D01*
X96011896Y-98853429D01*
X95740977Y-98853193D01*
X95490590Y-98956650D01*
X95374886Y-99072154D01*
X95227550Y-99010974D01*
X94956631Y-99010738D01*
X94706244Y-99114195D01*
X94514509Y-99305597D01*
X94483474Y-99380337D01*
X94475838Y-99377166D01*
X94421896Y-99377119D01*
X94771905Y-99027110D01*
X94846297Y-98918232D01*
X94948682Y-98850332D01*
X95337590Y-98461424D01*
X95411980Y-98352549D01*
X95514368Y-98284647D01*
X95903276Y-97895739D01*
X95931711Y-97854123D01*
X96047242Y-97806269D01*
X96136469Y-97717042D01*
X96136469Y-97566075D01*
X95469491Y-96899096D01*
X95462748Y-96905839D01*
X95283143Y-96726234D01*
X95289886Y-96719491D01*
X94622907Y-96052513D01*
X94471940Y-96052513D01*
X94446944Y-96077509D01*
X94150366Y-95780931D01*
X94173131Y-95675991D01*
X94144616Y-95524448D01*
X94059390Y-95395938D01*
X93071562Y-94408110D01*
X92952940Y-94327060D01*
X92802243Y-94294369D01*
X92754519Y-94303349D01*
X92754519Y-94273519D01*
X92749845Y-94250022D01*
X92702681Y-94012911D01*
X92613499Y-93879440D01*
X93088296Y-93879440D01*
X93088296Y-94049311D01*
X93153303Y-94206252D01*
X93273419Y-94326369D01*
X93541989Y-94594938D01*
X93692957Y-94594938D01*
X94143914Y-94143981D01*
X93513351Y-93513419D01*
X93362384Y-93513419D01*
X93153303Y-93722499D01*
X93088296Y-93879440D01*
X92613499Y-93879440D01*
X92555059Y-93791979D01*
X91945926Y-93182846D01*
X93692957Y-93182846D01*
X93692957Y-93333813D01*
X94323519Y-93964376D01*
X94774476Y-93513419D01*
X94774476Y-93362451D01*
X94505907Y-93093881D01*
X94385790Y-92973765D01*
X94228849Y-92908758D01*
X94058978Y-92908758D01*
X93902037Y-92973765D01*
X93692957Y-93182846D01*
X91945926Y-93182846D01*
X90681540Y-91918460D01*
X90460608Y-91770838D01*
X90200000Y-91719000D01*
X89396533Y-91719000D01*
X89156032Y-91619136D01*
X88845331Y-91618864D01*
X88558177Y-91737514D01*
X88338286Y-91957021D01*
X88219136Y-92243968D01*
X88218864Y-92554669D01*
X88337514Y-92841823D01*
X88557021Y-93061714D01*
X88843968Y-93180864D01*
X89154669Y-93181136D01*
X89397016Y-93081000D01*
X89917920Y-93081000D01*
X90754370Y-93917450D01*
X90568216Y-93917450D01*
X90522309Y-93871463D01*
X90272104Y-93767568D01*
X90001185Y-93767332D01*
X89750798Y-93870789D01*
X89559063Y-94062191D01*
X89455168Y-94312396D01*
X89454932Y-94583315D01*
X89558389Y-94833702D01*
X89749791Y-95025437D01*
X89910694Y-95092250D01*
X89910474Y-95344667D01*
X90013931Y-95595054D01*
X90205333Y-95786789D01*
X90325926Y-95836864D01*
X90238366Y-96047729D01*
X90238130Y-96318648D01*
X90341587Y-96569035D01*
X90532989Y-96760770D01*
X90783194Y-96864665D01*
X90851958Y-96864725D01*
X90985679Y-96954074D01*
X91016042Y-96974362D01*
X91209508Y-97012846D01*
X91442798Y-97246136D01*
X91372155Y-97275325D01*
X91180420Y-97466727D01*
X91076525Y-97716932D01*
X91076289Y-97987851D01*
X91179746Y-98238238D01*
X91226407Y-98284980D01*
X91226407Y-98664968D01*
X91266827Y-98868173D01*
X91381933Y-99040442D01*
X91531474Y-99189983D01*
X91527853Y-99206675D01*
X91556368Y-99358218D01*
X91641594Y-99486728D01*
X92702254Y-100547388D01*
X92820876Y-100628438D01*
X92971573Y-100661129D01*
X93123116Y-100632614D01*
X93251626Y-100547388D01*
X93640534Y-100158480D01*
X93658719Y-100131865D01*
X93658675Y-100182817D01*
X92998999Y-100842492D01*
X92982307Y-100838871D01*
X92830764Y-100867386D01*
X92702254Y-100952612D01*
X91641594Y-102013272D01*
X91560544Y-102131894D01*
X91527853Y-102282591D01*
X91556368Y-102434134D01*
X91641594Y-102562644D01*
X92030502Y-102951552D01*
X92139380Y-103025944D01*
X92207280Y-103128329D01*
X92596188Y-103517237D01*
X92705064Y-103591628D01*
X92772965Y-103694014D01*
X93161873Y-104082922D01*
X93270748Y-104157312D01*
X93338650Y-104259700D01*
X93525450Y-104446500D01*
X92285464Y-104446500D01*
X92285464Y-104279000D01*
X92258897Y-104137810D01*
X92175454Y-104008135D01*
X92048134Y-103921141D01*
X91897000Y-103890536D01*
X91008000Y-103890536D01*
X90866810Y-103917103D01*
X90737135Y-104000546D01*
X90650141Y-104127866D01*
X90619536Y-104279000D01*
X90619536Y-105313516D01*
X90419000Y-105514052D01*
X90419000Y-105211250D01*
X90312250Y-105104500D01*
X89674500Y-105104500D01*
X89674500Y-105124500D01*
X89420500Y-105124500D01*
X89420500Y-105104500D01*
X88782750Y-105104500D01*
X88676000Y-105211250D01*
X88676000Y-105760936D01*
X88741007Y-105917876D01*
X88846460Y-106023329D01*
X88832135Y-106032546D01*
X88749934Y-106152851D01*
X88570466Y-105718505D01*
X88106437Y-105253666D01*
X87499845Y-105001787D01*
X86843037Y-105001214D01*
X86236005Y-105252034D01*
X85771166Y-105716063D01*
X85519287Y-106322655D01*
X85518714Y-106979463D01*
X85568293Y-107099453D01*
X84700620Y-106231780D01*
X84700620Y-104194064D01*
X88676000Y-104194064D01*
X88676000Y-104743750D01*
X88782750Y-104850500D01*
X89420500Y-104850500D01*
X89420500Y-103958750D01*
X89674500Y-103958750D01*
X89674500Y-104850500D01*
X90312250Y-104850500D01*
X90419000Y-104743750D01*
X90419000Y-104194064D01*
X90353993Y-104037124D01*
X90233876Y-103917007D01*
X90076935Y-103852000D01*
X89781250Y-103852000D01*
X89674500Y-103958750D01*
X89420500Y-103958750D01*
X89313750Y-103852000D01*
X89018065Y-103852000D01*
X88861124Y-103917007D01*
X88741007Y-104037124D01*
X88676000Y-104194064D01*
X84700620Y-104194064D01*
X84700620Y-103323517D01*
X84760250Y-103312297D01*
X84889925Y-103228854D01*
X84976919Y-103101534D01*
X85007524Y-102950400D01*
X85007524Y-100151320D01*
X84980957Y-100010130D01*
X84897514Y-99880455D01*
X84770194Y-99793461D01*
X84619060Y-99762856D01*
X83420180Y-99762856D01*
X83278990Y-99789423D01*
X83149315Y-99872866D01*
X83110523Y-99929640D01*
X83078874Y-99880455D01*
X82951554Y-99793461D01*
X82800420Y-99762856D01*
X81799660Y-99762856D01*
X81658470Y-99789423D01*
X81528795Y-99872866D01*
X81441801Y-100000186D01*
X81411196Y-100151320D01*
X80627000Y-100151320D01*
X80627000Y-96549600D01*
X81411196Y-96549600D01*
X81411196Y-99348680D01*
X81437763Y-99489870D01*
X81521206Y-99619545D01*
X81648526Y-99706539D01*
X81799660Y-99737144D01*
X82800420Y-99737144D01*
X82941610Y-99710577D01*
X83071285Y-99627134D01*
X83158279Y-99499814D01*
X83188884Y-99348680D01*
X83188884Y-98008861D01*
X83311116Y-97958356D01*
X83311116Y-99348680D01*
X83337683Y-99489870D01*
X83421126Y-99619545D01*
X83548446Y-99706539D01*
X83699580Y-99737144D01*
X84700340Y-99737144D01*
X84841530Y-99710577D01*
X84971205Y-99627134D01*
X85058199Y-99499814D01*
X85088804Y-99348680D01*
X85088804Y-98480140D01*
X85742743Y-98480140D01*
X86639000Y-99376397D01*
X86639000Y-99385520D01*
X86236005Y-99552034D01*
X85771166Y-100016063D01*
X85519287Y-100622655D01*
X85518714Y-101279463D01*
X85769534Y-101886495D01*
X86233563Y-102351334D01*
X86840155Y-102603213D01*
X87496963Y-102603786D01*
X88103995Y-102352966D01*
X88568834Y-101888937D01*
X88820713Y-101282345D01*
X88821286Y-100625537D01*
X88570466Y-100018505D01*
X88106437Y-99553666D01*
X87701000Y-99385314D01*
X87701000Y-99156454D01*
X87701001Y-99156449D01*
X87660580Y-98953244D01*
X87545474Y-98780975D01*
X86338165Y-97573666D01*
X86165896Y-97458560D01*
X85962691Y-97418140D01*
X85694948Y-97418140D01*
X85695118Y-97222635D01*
X85591661Y-96972248D01*
X85400259Y-96780513D01*
X85150054Y-96676618D01*
X85088804Y-96676565D01*
X85088804Y-96549600D01*
X85062237Y-96408410D01*
X84978794Y-96278735D01*
X84851474Y-96191741D01*
X84700340Y-96161136D01*
X83699580Y-96161136D01*
X83558390Y-96187703D01*
X83428715Y-96271146D01*
X83341721Y-96398466D01*
X83311116Y-96549600D01*
X83311116Y-96756785D01*
X83188884Y-96706029D01*
X83188884Y-96549600D01*
X83162317Y-96408410D01*
X83134855Y-96365733D01*
X83817087Y-95683500D01*
X85603020Y-95683500D01*
X85769534Y-96086495D01*
X86233563Y-96551334D01*
X86840155Y-96803213D01*
X87496963Y-96803786D01*
X88103995Y-96552966D01*
X88568834Y-96088937D01*
X88820713Y-95482345D01*
X88821286Y-94825537D01*
X88570466Y-94218505D01*
X88106437Y-93753666D01*
X87499845Y-93501787D01*
X86843037Y-93501214D01*
X86236005Y-93752034D01*
X85771166Y-94216063D01*
X85602814Y-94621500D01*
X83597140Y-94621500D01*
X83393935Y-94661920D01*
X83221666Y-94777026D01*
X83221664Y-94777029D01*
X81924566Y-96074126D01*
X81866428Y-96161136D01*
X81799660Y-96161136D01*
X81658470Y-96187703D01*
X81528795Y-96271146D01*
X81441801Y-96398466D01*
X81411196Y-96549600D01*
X80627000Y-96549600D01*
X80627000Y-89679463D01*
X85518714Y-89679463D01*
X85769534Y-90286495D01*
X86233563Y-90751334D01*
X86840155Y-91003213D01*
X87496963Y-91003786D01*
X88103995Y-90752966D01*
X88568834Y-90288937D01*
X88820713Y-89682345D01*
X88821286Y-89025537D01*
X88570466Y-88418505D01*
X88106437Y-87953666D01*
X87499845Y-87701787D01*
X86843037Y-87701214D01*
X86236005Y-87952034D01*
X85771166Y-88416063D01*
X85519287Y-89022655D01*
X85518714Y-89679463D01*
X80627000Y-89679463D01*
X80627000Y-87052606D01*
X81052606Y-86627000D01*
X85000000Y-86627000D01*
X85049410Y-86616994D01*
X85089803Y-86589803D01*
X85589803Y-86089803D01*
X85617666Y-86047789D01*
X85627000Y-86000000D01*
X85627000Y-82562000D01*
X87356036Y-82562000D01*
X87356036Y-84213000D01*
X87382603Y-84354190D01*
X87466046Y-84483865D01*
X87593366Y-84570859D01*
X87744500Y-84601464D01*
X89395500Y-84601464D01*
X89536690Y-84574897D01*
X89666365Y-84491454D01*
X89753359Y-84364134D01*
X89770090Y-84281510D01*
X90395595Y-84281510D01*
X90481142Y-84469115D01*
X90942927Y-84627435D01*
X91430148Y-84596987D01*
X91738858Y-84469115D01*
X91824405Y-84281510D01*
X91110000Y-83567105D01*
X90395595Y-84281510D01*
X89770090Y-84281510D01*
X89783964Y-84213000D01*
X89783964Y-83220427D01*
X89870065Y-83220427D01*
X89900513Y-83707648D01*
X90028385Y-84016358D01*
X90215990Y-84101905D01*
X90930395Y-83387500D01*
X91289605Y-83387500D01*
X92004010Y-84101905D01*
X92191615Y-84016358D01*
X92327022Y-83621405D01*
X92468696Y-83621405D01*
X92648128Y-84055665D01*
X92980087Y-84388204D01*
X93414034Y-84568394D01*
X93883905Y-84568804D01*
X94318165Y-84389372D01*
X94650704Y-84057413D01*
X94830894Y-83623466D01*
X94830895Y-83621405D01*
X95008696Y-83621405D01*
X95188128Y-84055665D01*
X95520087Y-84388204D01*
X95954034Y-84568394D01*
X96423905Y-84568804D01*
X96858165Y-84389372D01*
X97190704Y-84057413D01*
X97370894Y-83623466D01*
X97370895Y-83621405D01*
X97548696Y-83621405D01*
X97728128Y-84055665D01*
X98060087Y-84388204D01*
X98494034Y-84568394D01*
X98963905Y-84568804D01*
X99398165Y-84389372D01*
X99730704Y-84057413D01*
X99910894Y-83623466D01*
X99910895Y-83621405D01*
X100088696Y-83621405D01*
X100268128Y-84055665D01*
X100600087Y-84388204D01*
X101034034Y-84568394D01*
X101503905Y-84568804D01*
X101938165Y-84389372D01*
X102270704Y-84057413D01*
X102450894Y-83623466D01*
X102450902Y-83613859D01*
X102666802Y-83613859D01*
X102840446Y-84034112D01*
X103161697Y-84355923D01*
X103581646Y-84530301D01*
X104036359Y-84530698D01*
X104456612Y-84357054D01*
X104778423Y-84035803D01*
X104952801Y-83615854D01*
X104952802Y-83613859D01*
X105206802Y-83613859D01*
X105380446Y-84034112D01*
X105701697Y-84355923D01*
X106121646Y-84530301D01*
X106576359Y-84530698D01*
X106996612Y-84357054D01*
X107318423Y-84035803D01*
X107492801Y-83615854D01*
X107493198Y-83161141D01*
X107319554Y-82740888D01*
X106998303Y-82419077D01*
X106578354Y-82244699D01*
X106123641Y-82244302D01*
X105703388Y-82417946D01*
X105381577Y-82739197D01*
X105207199Y-83159146D01*
X105206802Y-83613859D01*
X104952802Y-83613859D01*
X104953198Y-83161141D01*
X104779554Y-82740888D01*
X104458303Y-82419077D01*
X104038354Y-82244699D01*
X103583641Y-82244302D01*
X103163388Y-82417946D01*
X102841577Y-82739197D01*
X102667199Y-83159146D01*
X102666802Y-83613859D01*
X102450902Y-83613859D01*
X102451304Y-83153595D01*
X102271872Y-82719335D01*
X101939913Y-82386796D01*
X101505966Y-82206606D01*
X101036095Y-82206196D01*
X100601835Y-82385628D01*
X100269296Y-82717587D01*
X100089106Y-83151534D01*
X100088696Y-83621405D01*
X99910895Y-83621405D01*
X99911304Y-83153595D01*
X99731872Y-82719335D01*
X99399913Y-82386796D01*
X98965966Y-82206606D01*
X98496095Y-82206196D01*
X98061835Y-82385628D01*
X97729296Y-82717587D01*
X97549106Y-83151534D01*
X97548696Y-83621405D01*
X97370895Y-83621405D01*
X97371304Y-83153595D01*
X97191872Y-82719335D01*
X96859913Y-82386796D01*
X96425966Y-82206606D01*
X95956095Y-82206196D01*
X95521835Y-82385628D01*
X95189296Y-82717587D01*
X95009106Y-83151534D01*
X95008696Y-83621405D01*
X94830895Y-83621405D01*
X94831304Y-83153595D01*
X94651872Y-82719335D01*
X94319913Y-82386796D01*
X93885966Y-82206606D01*
X93416095Y-82206196D01*
X92981835Y-82385628D01*
X92649296Y-82717587D01*
X92469106Y-83151534D01*
X92468696Y-83621405D01*
X92327022Y-83621405D01*
X92349935Y-83554573D01*
X92319487Y-83067352D01*
X92191615Y-82758642D01*
X92004010Y-82673095D01*
X91289605Y-83387500D01*
X90930395Y-83387500D01*
X90215990Y-82673095D01*
X90028385Y-82758642D01*
X89870065Y-83220427D01*
X89783964Y-83220427D01*
X89783964Y-82562000D01*
X89771073Y-82493490D01*
X90395595Y-82493490D01*
X91110000Y-83207895D01*
X91824405Y-82493490D01*
X91738858Y-82305885D01*
X91277073Y-82147565D01*
X90789852Y-82178013D01*
X90481142Y-82305885D01*
X90395595Y-82493490D01*
X89771073Y-82493490D01*
X89757397Y-82420810D01*
X89673954Y-82291135D01*
X89546634Y-82204141D01*
X89395500Y-82173536D01*
X87744500Y-82173536D01*
X87603310Y-82200103D01*
X87473635Y-82283546D01*
X87386641Y-82410866D01*
X87356036Y-82562000D01*
X85627000Y-82562000D01*
X85627000Y-81081405D01*
X87388696Y-81081405D01*
X87568128Y-81515665D01*
X87900087Y-81848204D01*
X88334034Y-82028394D01*
X88803905Y-82028804D01*
X89238165Y-81849372D01*
X89346215Y-81741510D01*
X90395595Y-81741510D01*
X90481142Y-81929115D01*
X90942927Y-82087435D01*
X91430148Y-82056987D01*
X91738858Y-81929115D01*
X91824405Y-81741510D01*
X91110000Y-81027105D01*
X90395595Y-81741510D01*
X89346215Y-81741510D01*
X89570704Y-81517413D01*
X89750894Y-81083466D01*
X89751245Y-80680427D01*
X89870065Y-80680427D01*
X89900513Y-81167648D01*
X90028385Y-81476358D01*
X90215990Y-81561905D01*
X90930395Y-80847500D01*
X91289605Y-80847500D01*
X92004010Y-81561905D01*
X92191615Y-81476358D01*
X92327022Y-81081405D01*
X92468696Y-81081405D01*
X92648128Y-81515665D01*
X92980087Y-81848204D01*
X93414034Y-82028394D01*
X93883905Y-82028804D01*
X94318165Y-81849372D01*
X94650704Y-81517413D01*
X94830894Y-81083466D01*
X94830895Y-81081405D01*
X95008696Y-81081405D01*
X95188128Y-81515665D01*
X95520087Y-81848204D01*
X95954034Y-82028394D01*
X96423905Y-82028804D01*
X96858165Y-81849372D01*
X97190704Y-81517413D01*
X97370894Y-81083466D01*
X97370895Y-81081405D01*
X97548696Y-81081405D01*
X97728128Y-81515665D01*
X98060087Y-81848204D01*
X98494034Y-82028394D01*
X98963905Y-82028804D01*
X99398165Y-81849372D01*
X99730704Y-81517413D01*
X99910894Y-81083466D01*
X99910895Y-81081405D01*
X100088696Y-81081405D01*
X100268128Y-81515665D01*
X100600087Y-81848204D01*
X101034034Y-82028394D01*
X101503905Y-82028804D01*
X101938165Y-81849372D01*
X102270704Y-81517413D01*
X102450894Y-81083466D01*
X102450902Y-81073859D01*
X102666802Y-81073859D01*
X102840446Y-81494112D01*
X103161697Y-81815923D01*
X103581646Y-81990301D01*
X104036359Y-81990698D01*
X104456612Y-81817054D01*
X104778423Y-81495803D01*
X104952801Y-81075854D01*
X104952802Y-81073859D01*
X105206802Y-81073859D01*
X105380446Y-81494112D01*
X105701697Y-81815923D01*
X106121646Y-81990301D01*
X106576359Y-81990698D01*
X106996612Y-81817054D01*
X107318423Y-81495803D01*
X107492801Y-81075854D01*
X107492802Y-81073859D01*
X107746802Y-81073859D01*
X107920446Y-81494112D01*
X108241697Y-81815923D01*
X108661646Y-81990301D01*
X109116359Y-81990698D01*
X109536612Y-81817054D01*
X109858423Y-81495803D01*
X110032801Y-81075854D01*
X110032802Y-81073859D01*
X110286802Y-81073859D01*
X110460446Y-81494112D01*
X110781697Y-81815923D01*
X111201646Y-81990301D01*
X111656359Y-81990698D01*
X112076612Y-81817054D01*
X112398423Y-81495803D01*
X112572801Y-81075854D01*
X112573198Y-80621141D01*
X112399554Y-80200888D01*
X112078303Y-79879077D01*
X111658354Y-79704699D01*
X111203641Y-79704302D01*
X110783388Y-79877946D01*
X110461577Y-80199197D01*
X110287199Y-80619146D01*
X110286802Y-81073859D01*
X110032802Y-81073859D01*
X110033198Y-80621141D01*
X109859554Y-80200888D01*
X109538303Y-79879077D01*
X109118354Y-79704699D01*
X108663641Y-79704302D01*
X108243388Y-79877946D01*
X107921577Y-80199197D01*
X107747199Y-80619146D01*
X107746802Y-81073859D01*
X107492802Y-81073859D01*
X107493198Y-80621141D01*
X107319554Y-80200888D01*
X106998303Y-79879077D01*
X106578354Y-79704699D01*
X106123641Y-79704302D01*
X105703388Y-79877946D01*
X105381577Y-80199197D01*
X105207199Y-80619146D01*
X105206802Y-81073859D01*
X104952802Y-81073859D01*
X104953198Y-80621141D01*
X104779554Y-80200888D01*
X104458303Y-79879077D01*
X104038354Y-79704699D01*
X103583641Y-79704302D01*
X103163388Y-79877946D01*
X102841577Y-80199197D01*
X102667199Y-80619146D01*
X102666802Y-81073859D01*
X102450902Y-81073859D01*
X102451304Y-80613595D01*
X102271872Y-80179335D01*
X101939913Y-79846796D01*
X101505966Y-79666606D01*
X101036095Y-79666196D01*
X100601835Y-79845628D01*
X100269296Y-80177587D01*
X100089106Y-80611534D01*
X100088696Y-81081405D01*
X99910895Y-81081405D01*
X99911304Y-80613595D01*
X99731872Y-80179335D01*
X99399913Y-79846796D01*
X98965966Y-79666606D01*
X98496095Y-79666196D01*
X98061835Y-79845628D01*
X97729296Y-80177587D01*
X97549106Y-80611534D01*
X97548696Y-81081405D01*
X97370895Y-81081405D01*
X97371304Y-80613595D01*
X97191872Y-80179335D01*
X96859913Y-79846796D01*
X96425966Y-79666606D01*
X95956095Y-79666196D01*
X95521835Y-79845628D01*
X95189296Y-80177587D01*
X95009106Y-80611534D01*
X95008696Y-81081405D01*
X94830895Y-81081405D01*
X94831304Y-80613595D01*
X94651872Y-80179335D01*
X94319913Y-79846796D01*
X93885966Y-79666606D01*
X93416095Y-79666196D01*
X92981835Y-79845628D01*
X92649296Y-80177587D01*
X92469106Y-80611534D01*
X92468696Y-81081405D01*
X92327022Y-81081405D01*
X92349935Y-81014573D01*
X92319487Y-80527352D01*
X92191615Y-80218642D01*
X92004010Y-80133095D01*
X91289605Y-80847500D01*
X90930395Y-80847500D01*
X90215990Y-80133095D01*
X90028385Y-80218642D01*
X89870065Y-80680427D01*
X89751245Y-80680427D01*
X89751304Y-80613595D01*
X89571872Y-80179335D01*
X89346421Y-79953490D01*
X90395595Y-79953490D01*
X91110000Y-80667895D01*
X91824405Y-79953490D01*
X91738858Y-79765885D01*
X91277073Y-79607565D01*
X90789852Y-79638013D01*
X90481142Y-79765885D01*
X90395595Y-79953490D01*
X89346421Y-79953490D01*
X89239913Y-79846796D01*
X88805966Y-79666606D01*
X88336095Y-79666196D01*
X87901835Y-79845628D01*
X87569296Y-80177587D01*
X87389106Y-80611534D01*
X87388696Y-81081405D01*
X85627000Y-81081405D01*
X85627000Y-80570390D01*
X88844295Y-78559581D01*
X90269112Y-77847220D01*
X92102095Y-77159851D01*
X92102095Y-78388500D01*
X97737905Y-78388500D01*
X97737905Y-76627000D01*
X106476970Y-76627000D01*
X109722721Y-77844157D01*
X109722721Y-77844157D01*
G37*
X109722721Y-77844157D02*
X111124614Y-78544849D01*
X114478000Y-80663486D01*
X114478000Y-81044119D01*
X112954000Y-81044119D01*
X112954000Y-83860882D01*
X114478000Y-83860882D01*
X114478000Y-90970478D01*
X114371615Y-90713642D01*
X114184010Y-90628095D01*
X113469605Y-91342500D01*
X114184010Y-92056905D01*
X114371615Y-91971358D01*
X114478000Y-91661056D01*
X114478000Y-119778114D01*
X108228608Y-122903636D01*
X107878384Y-123034970D01*
X107878384Y-121886500D01*
X92261617Y-121886500D01*
X92261617Y-123032852D01*
X90163527Y-122100367D01*
X88026200Y-121031499D01*
X85627000Y-119432032D01*
X85627000Y-118122000D01*
X87356036Y-118122000D01*
X87356036Y-119773000D01*
X87382603Y-119914190D01*
X87466046Y-120043865D01*
X87593366Y-120130859D01*
X87744500Y-120161464D01*
X89395500Y-120161464D01*
X89536690Y-120134897D01*
X89666365Y-120051454D01*
X89753359Y-119924134D01*
X89770090Y-119841510D01*
X90395595Y-119841510D01*
X90481142Y-120029115D01*
X90942927Y-120187435D01*
X91430148Y-120156987D01*
X91738858Y-120029115D01*
X91824405Y-119841510D01*
X91110000Y-119127105D01*
X90395595Y-119841510D01*
X89770090Y-119841510D01*
X89783964Y-119773000D01*
X89783964Y-118780427D01*
X89870065Y-118780427D01*
X89900513Y-119267648D01*
X90028385Y-119576358D01*
X90215990Y-119661905D01*
X90930395Y-118947500D01*
X91289605Y-118947500D01*
X92004010Y-119661905D01*
X92191615Y-119576358D01*
X92349935Y-119114573D01*
X92319487Y-118627352D01*
X92191615Y-118318642D01*
X92004010Y-118233095D01*
X91289605Y-118947500D01*
X90930395Y-118947500D01*
X90215990Y-118233095D01*
X90028385Y-118318642D01*
X89870065Y-118780427D01*
X89783964Y-118780427D01*
X89783964Y-118122000D01*
X89771073Y-118053490D01*
X90395595Y-118053490D01*
X91110000Y-118767895D01*
X91824405Y-118053490D01*
X91738858Y-117865885D01*
X91277073Y-117707565D01*
X90789852Y-117738013D01*
X90481142Y-117865885D01*
X90395595Y-118053490D01*
X89771073Y-118053490D01*
X89757397Y-117980810D01*
X89673954Y-117851135D01*
X89546634Y-117764141D01*
X89395500Y-117733536D01*
X87744500Y-117733536D01*
X87603310Y-117760103D01*
X87473635Y-117843546D01*
X87386641Y-117970866D01*
X87356036Y-118122000D01*
X85627000Y-118122000D01*
X85627000Y-116641405D01*
X87388696Y-116641405D01*
X87568128Y-117075665D01*
X87900087Y-117408204D01*
X88334034Y-117588394D01*
X88803905Y-117588804D01*
X89238165Y-117409372D01*
X89570704Y-117077413D01*
X89750894Y-116643466D01*
X89751304Y-116173595D01*
X89571872Y-115739335D01*
X89239913Y-115406796D01*
X88805966Y-115226606D01*
X88336095Y-115226196D01*
X87901835Y-115405628D01*
X87569296Y-115737587D01*
X87389106Y-116171534D01*
X87388696Y-116641405D01*
X85627000Y-116641405D01*
X85627000Y-109500000D01*
X85616994Y-109450590D01*
X85589803Y-109410197D01*
X85089803Y-108910197D01*
X85047789Y-108882334D01*
X85000000Y-108873000D01*
X81052606Y-108873000D01*
X80627000Y-108447394D01*
X80627000Y-100151320D01*
X81411196Y-100151320D01*
X81411196Y-102950400D01*
X81437763Y-103091590D01*
X81521206Y-103221265D01*
X81648526Y-103308259D01*
X81799660Y-103338864D01*
X82800420Y-103338864D01*
X82941610Y-103312297D01*
X83071285Y-103228854D01*
X83110077Y-103172080D01*
X83141726Y-103221265D01*
X83269046Y-103308259D01*
X83338620Y-103322348D01*
X83338620Y-106513860D01*
X83390458Y-106774468D01*
X83538080Y-106995400D01*
X85811718Y-109269037D01*
X85811720Y-109269040D01*
X85969592Y-109374526D01*
X86032653Y-109416662D01*
X86293260Y-109468501D01*
X86293265Y-109468500D01*
X87626967Y-109468500D01*
X87867468Y-109568364D01*
X88178169Y-109568636D01*
X88465323Y-109449986D01*
X88685214Y-109230479D01*
X88785771Y-108988309D01*
X89677615Y-108096464D01*
X89811001Y-108096464D01*
X89811001Y-108108183D01*
X89694049Y-108225135D01*
X89578943Y-108397404D01*
X89538523Y-108600609D01*
X89538523Y-115367023D01*
X89578943Y-115570228D01*
X89694049Y-115742497D01*
X89986020Y-116034468D01*
X89929106Y-116171534D01*
X89928696Y-116641405D01*
X90108128Y-117075665D01*
X90440087Y-117408204D01*
X90874034Y-117588394D01*
X91343905Y-117588804D01*
X91778165Y-117409372D01*
X91968899Y-117218971D01*
X91968899Y-117797399D01*
X92009319Y-118000604D01*
X92124425Y-118172873D01*
X92526021Y-118574468D01*
X92469106Y-118711534D01*
X92468696Y-119181405D01*
X92648128Y-119615665D01*
X92980087Y-119948204D01*
X93414034Y-120128394D01*
X93883905Y-120128804D01*
X94318165Y-119949372D01*
X94650704Y-119617413D01*
X94830894Y-119183466D01*
X94831304Y-118713595D01*
X94651872Y-118279335D01*
X94319913Y-117946796D01*
X93885966Y-117766606D01*
X93416095Y-117766196D01*
X93277082Y-117823635D01*
X93030899Y-117577451D01*
X93030899Y-117429303D01*
X93414034Y-117588394D01*
X93883905Y-117588804D01*
X94318165Y-117409372D01*
X94389000Y-117338661D01*
X94389000Y-117677500D01*
X94429420Y-117880705D01*
X94544526Y-118052974D01*
X95066020Y-118574468D01*
X95009106Y-118711534D01*
X95008696Y-119181405D01*
X95188128Y-119615665D01*
X95520087Y-119948204D01*
X95954034Y-120128394D01*
X96423905Y-120128804D01*
X96858165Y-119949372D01*
X97190704Y-119617413D01*
X97370894Y-119183466D01*
X97371304Y-118713595D01*
X97191872Y-118279335D01*
X96859913Y-117946796D01*
X96425966Y-117766606D01*
X95956095Y-117766196D01*
X95817083Y-117823635D01*
X95451000Y-117457552D01*
X95451000Y-117338996D01*
X95520087Y-117408204D01*
X95954034Y-117588394D01*
X96423905Y-117588804D01*
X96809101Y-117429645D01*
X96809101Y-117557601D01*
X96849521Y-117760806D01*
X96964627Y-117933075D01*
X97606020Y-118574468D01*
X97549106Y-118711534D01*
X97548696Y-119181405D01*
X97728128Y-119615665D01*
X98060087Y-119948204D01*
X98494034Y-120128394D01*
X98963905Y-120128804D01*
X99398165Y-119949372D01*
X99730704Y-119617413D01*
X99910894Y-119183466D01*
X99911304Y-118713595D01*
X99731872Y-118279335D01*
X99399913Y-117946796D01*
X98965966Y-117766606D01*
X98496095Y-117766196D01*
X98357083Y-117823635D01*
X97871101Y-117337653D01*
X97871101Y-117218888D01*
X98060087Y-117408204D01*
X98494034Y-117588394D01*
X98963905Y-117588804D01*
X99398165Y-117409372D01*
X99588899Y-117218971D01*
X99588899Y-117797399D01*
X99629319Y-118000604D01*
X99744425Y-118172873D01*
X100146021Y-118574468D01*
X100089106Y-118711534D01*
X100088696Y-119181405D01*
X100268128Y-119615665D01*
X100600087Y-119948204D01*
X101034034Y-120128394D01*
X101503905Y-120128804D01*
X101938165Y-119949372D01*
X102270704Y-119617413D01*
X102450894Y-119183466D01*
X102451304Y-118713595D01*
X102271872Y-118279335D01*
X101939913Y-117946796D01*
X101505966Y-117766606D01*
X101036095Y-117766196D01*
X100897082Y-117823635D01*
X100650899Y-117577451D01*
X100650899Y-117429303D01*
X101034034Y-117588394D01*
X101503905Y-117588804D01*
X101938165Y-117409372D01*
X102009000Y-117338661D01*
X102009000Y-117677500D01*
X102049420Y-117880705D01*
X102164526Y-118052974D01*
X102715170Y-118603618D01*
X102667199Y-118719146D01*
X102666802Y-119173859D01*
X102840446Y-119594112D01*
X103161697Y-119915923D01*
X103581646Y-120090301D01*
X104036359Y-120090698D01*
X104456612Y-119917054D01*
X104778423Y-119595803D01*
X104952801Y-119175854D01*
X104953198Y-118721141D01*
X104779554Y-118300888D01*
X104458303Y-117979077D01*
X104038354Y-117804699D01*
X103583641Y-117804302D01*
X103466253Y-117852805D01*
X103071000Y-117457552D01*
X103071000Y-117285068D01*
X103161697Y-117375923D01*
X103581646Y-117550301D01*
X104036359Y-117550698D01*
X104456612Y-117377054D01*
X104692836Y-117141241D01*
X104704526Y-117158736D01*
X105613484Y-118067694D01*
X105381577Y-118299197D01*
X105207199Y-118719146D01*
X105206802Y-119173859D01*
X105380446Y-119594112D01*
X105701697Y-119915923D01*
X106121646Y-120090301D01*
X106576359Y-120090698D01*
X106996612Y-119917054D01*
X107318423Y-119595803D01*
X107492801Y-119175854D01*
X107492802Y-119173859D01*
X107746802Y-119173859D01*
X107920446Y-119594112D01*
X108241697Y-119915923D01*
X108661646Y-120090301D01*
X109116359Y-120090698D01*
X109536612Y-119917054D01*
X109858423Y-119595803D01*
X110032801Y-119175854D01*
X110032802Y-119173859D01*
X110286802Y-119173859D01*
X110460446Y-119594112D01*
X110781697Y-119915923D01*
X111201646Y-120090301D01*
X111656359Y-120090698D01*
X112076612Y-119917054D01*
X112398423Y-119595803D01*
X112572801Y-119175854D01*
X112573198Y-118721141D01*
X112399554Y-118300888D01*
X112078303Y-117979077D01*
X111658354Y-117804699D01*
X111203641Y-117804302D01*
X110783388Y-117977946D01*
X110461577Y-118299197D01*
X110287199Y-118719146D01*
X110286802Y-119173859D01*
X110032802Y-119173859D01*
X110033198Y-118721141D01*
X109859554Y-118300888D01*
X109538303Y-117979077D01*
X109118354Y-117804699D01*
X108663641Y-117804302D01*
X108243388Y-117977946D01*
X107921577Y-118299197D01*
X107747199Y-118719146D01*
X107746802Y-119173859D01*
X107492802Y-119173859D01*
X107493198Y-118721141D01*
X107346664Y-118366499D01*
X107462001Y-118366499D01*
X107665206Y-118326079D01*
X107837475Y-118210973D01*
X108546118Y-117502330D01*
X108661646Y-117550301D01*
X109116359Y-117550698D01*
X109536612Y-117377054D01*
X109858423Y-117055803D01*
X110032801Y-116635854D01*
X110033198Y-116181141D01*
X110031281Y-116176501D01*
X110288297Y-116176501D01*
X110287199Y-116179146D01*
X110286802Y-116633859D01*
X110460446Y-117054112D01*
X110781697Y-117375923D01*
X111201646Y-117550301D01*
X111656359Y-117550698D01*
X112076612Y-117377054D01*
X112398423Y-117055803D01*
X112572801Y-116635854D01*
X112573198Y-116181141D01*
X112399554Y-115760888D01*
X112078303Y-115439077D01*
X111658354Y-115264699D01*
X111203641Y-115264302D01*
X111086253Y-115312805D01*
X111043475Y-115270027D01*
X110871206Y-115154921D01*
X110668001Y-115114501D01*
X109993711Y-115114501D01*
X109641236Y-114762026D01*
X109468967Y-114646920D01*
X109265762Y-114606500D01*
X108322304Y-114606500D01*
X108336000Y-114573436D01*
X108336000Y-114150750D01*
X108229250Y-114044000D01*
X107782000Y-114044000D01*
X107782000Y-114064000D01*
X107528000Y-114064000D01*
X107528000Y-114044000D01*
X107508000Y-114044000D01*
X107508000Y-113847250D01*
X109676000Y-113847250D01*
X109676000Y-114396936D01*
X109741007Y-114553876D01*
X109861124Y-114673993D01*
X110018065Y-114739000D01*
X110313750Y-114739000D01*
X110420500Y-114632250D01*
X110420500Y-113740500D01*
X109782750Y-113740500D01*
X109676000Y-113847250D01*
X107508000Y-113847250D01*
X107508000Y-113790000D01*
X107528000Y-113790000D01*
X107528000Y-113025250D01*
X107782000Y-113025250D01*
X107782000Y-113790000D01*
X108229250Y-113790000D01*
X108336000Y-113683250D01*
X108336000Y-113260564D01*
X108270993Y-113103624D01*
X108150876Y-112983507D01*
X107993935Y-112918500D01*
X107888750Y-112918500D01*
X107782000Y-113025250D01*
X107528000Y-113025250D01*
X107421250Y-112918500D01*
X107316065Y-112918500D01*
X107159124Y-112983507D01*
X107039007Y-113103624D01*
X106998709Y-113200910D01*
X106917454Y-113074635D01*
X106916000Y-113073642D01*
X106916000Y-112830064D01*
X109676000Y-112830064D01*
X109676000Y-113379750D01*
X109782750Y-113486500D01*
X110420500Y-113486500D01*
X110420500Y-112594750D01*
X110313750Y-112488000D01*
X110018065Y-112488000D01*
X109861124Y-112553007D01*
X109741007Y-112673124D01*
X109676000Y-112830064D01*
X106916000Y-112830064D01*
X106916000Y-112584948D01*
X107965415Y-111535532D01*
X108810336Y-111535532D01*
X109013541Y-111495112D01*
X109105053Y-111433966D01*
X109714536Y-111433966D01*
X109714536Y-112026000D01*
X109741103Y-112167190D01*
X109824546Y-112296865D01*
X109951866Y-112383859D01*
X110103000Y-112414464D01*
X110992000Y-112414464D01*
X111000788Y-112412810D01*
X111000788Y-112488000D01*
X110781250Y-112488000D01*
X110674500Y-112594750D01*
X110674500Y-113486500D01*
X110694500Y-113486500D01*
X110694500Y-113740500D01*
X110674500Y-113740500D01*
X110674500Y-114632250D01*
X110781250Y-114739000D01*
X111076935Y-114739000D01*
X111233876Y-114673993D01*
X111353993Y-114553876D01*
X111419000Y-114396936D01*
X111419000Y-113923447D01*
X111484527Y-113988974D01*
X111619536Y-114079184D01*
X111619536Y-114312000D01*
X111646103Y-114453190D01*
X111729546Y-114582865D01*
X111856866Y-114669859D01*
X112008000Y-114700464D01*
X112897000Y-114700464D01*
X113038190Y-114673897D01*
X113167865Y-114590454D01*
X113254859Y-114463134D01*
X113285464Y-114312000D01*
X113285464Y-112915000D01*
X113258897Y-112773810D01*
X113175454Y-112644135D01*
X113048134Y-112557141D01*
X112897000Y-112526536D01*
X112062788Y-112526536D01*
X112062788Y-112453000D01*
X112218750Y-112453000D01*
X112325500Y-112346250D01*
X112325500Y-111454500D01*
X112579500Y-111454500D01*
X112579500Y-112346250D01*
X112686250Y-112453000D01*
X112981935Y-112453000D01*
X113138876Y-112387993D01*
X113258993Y-112267876D01*
X113324000Y-112110936D01*
X113324000Y-111561250D01*
X113217250Y-111454500D01*
X112579500Y-111454500D01*
X112325500Y-111454500D01*
X112305500Y-111454500D01*
X112305500Y-111200500D01*
X112325500Y-111200500D01*
X112325500Y-110308750D01*
X112579500Y-110308750D01*
X112579500Y-111200500D01*
X113217250Y-111200500D01*
X113324000Y-111093750D01*
X113324000Y-110544064D01*
X113258993Y-110387124D01*
X113138876Y-110267007D01*
X112981935Y-110202000D01*
X112686250Y-110202000D01*
X112579500Y-110308750D01*
X112325500Y-110308750D01*
X112218750Y-110202000D01*
X112016967Y-110202000D01*
X111993581Y-110167000D01*
X112218750Y-110167000D01*
X112325500Y-110060250D01*
X112325500Y-109168500D01*
X112579500Y-109168500D01*
X112579500Y-110060250D01*
X112686250Y-110167000D01*
X112981935Y-110167000D01*
X113138876Y-110101993D01*
X113258993Y-109981876D01*
X113324000Y-109824936D01*
X113324000Y-109275250D01*
X113217250Y-109168500D01*
X112579500Y-109168500D01*
X112325500Y-109168500D01*
X111687750Y-109168500D01*
X111581000Y-109275250D01*
X111581000Y-109784500D01*
X111397499Y-109747999D01*
X111378844Y-109747999D01*
X111380464Y-109740000D01*
X111380464Y-108343000D01*
X111353897Y-108201810D01*
X111313168Y-108138515D01*
X111630519Y-108138515D01*
X111581000Y-108258064D01*
X111581000Y-108807750D01*
X111687750Y-108914500D01*
X112325500Y-108914500D01*
X112325500Y-108894500D01*
X112579500Y-108894500D01*
X112579500Y-108914500D01*
X113217250Y-108914500D01*
X113324000Y-108807750D01*
X113324000Y-108288413D01*
X113576971Y-108288633D01*
X113827358Y-108185176D01*
X114019093Y-107993774D01*
X114122988Y-107743569D01*
X114123224Y-107472650D01*
X114019767Y-107222263D01*
X113828365Y-107030528D01*
X113578160Y-106926633D01*
X113307241Y-106926397D01*
X113056854Y-107029854D01*
X113010112Y-107076515D01*
X111054779Y-107076515D01*
X111705538Y-106807627D01*
X112305521Y-106208691D01*
X112630630Y-105425742D01*
X112631369Y-104577978D01*
X112307627Y-103794462D01*
X111708691Y-103194479D01*
X110925742Y-102869370D01*
X110077978Y-102868631D01*
X109294462Y-103192373D01*
X108730778Y-103755073D01*
X108699580Y-103598234D01*
X108584474Y-103425965D01*
X107468526Y-102310017D01*
X107472147Y-102293325D01*
X107443632Y-102141782D01*
X107358406Y-102013272D01*
X106297746Y-100952612D01*
X106179124Y-100871562D01*
X106028427Y-100838871D01*
X105876884Y-100867386D01*
X105748374Y-100952612D01*
X105359466Y-101341520D01*
X105285076Y-101450395D01*
X105182688Y-101518297D01*
X104793780Y-101907205D01*
X104719389Y-102016081D01*
X104617003Y-102083982D01*
X104228095Y-102472890D01*
X104153703Y-102581768D01*
X104051318Y-102649668D01*
X103662410Y-103038576D01*
X103588020Y-103147451D01*
X103485632Y-103215353D01*
X103285971Y-103415014D01*
X103262486Y-103358177D01*
X103042979Y-103138286D01*
X102756032Y-103019136D01*
X102445331Y-103018864D01*
X102158177Y-103137514D01*
X101938286Y-103357021D01*
X101819136Y-103643968D01*
X101818864Y-103954669D01*
X101937514Y-104241823D01*
X102157021Y-104461714D01*
X102313687Y-104526767D01*
X103048969Y-105262048D01*
X103123705Y-105311985D01*
X103151171Y-105339451D01*
X103144428Y-105346194D01*
X103158571Y-105360336D01*
X102978965Y-105539942D01*
X102964823Y-105525799D01*
X102958080Y-105532542D01*
X102778475Y-105352937D01*
X102785218Y-105346194D01*
X102118239Y-104679216D01*
X101967272Y-104679216D01*
X101878045Y-104768443D01*
X101829713Y-104885129D01*
X101788576Y-104912410D01*
X101399668Y-105301318D01*
X101325278Y-105410193D01*
X101222890Y-105478095D01*
X100833982Y-105867003D01*
X100830999Y-105871369D01*
X100830999Y-103044188D01*
X100863741Y-103076987D01*
X101113946Y-103180882D01*
X101384865Y-103181118D01*
X101635252Y-103077661D01*
X101826987Y-102886259D01*
X101930882Y-102636054D01*
X101931118Y-102365135D01*
X101827661Y-102114748D01*
X101781000Y-102068006D01*
X101781000Y-96580014D01*
X101788576Y-96587590D01*
X101897451Y-96661980D01*
X101965353Y-96764368D01*
X102354261Y-97153276D01*
X102463139Y-97227668D01*
X102531039Y-97330053D01*
X102919947Y-97718961D01*
X102961561Y-97747394D01*
X103009416Y-97862928D01*
X103098643Y-97952155D01*
X103249610Y-97952155D01*
X103916589Y-97285177D01*
X103909846Y-97278434D01*
X103947916Y-97240364D01*
X104022655Y-97190425D01*
X104701149Y-96511931D01*
X104897016Y-96431000D01*
X105671500Y-96431000D01*
X105786409Y-96408143D01*
X105383798Y-96810754D01*
X105225771Y-96810754D01*
X105182972Y-96707426D01*
X105093745Y-96618199D01*
X104942778Y-96618199D01*
X104275799Y-97285177D01*
X104282542Y-97291920D01*
X104102937Y-97471525D01*
X104096194Y-97464782D01*
X103429216Y-98131761D01*
X103429216Y-98282728D01*
X103518443Y-98371955D01*
X103635129Y-98420287D01*
X103662410Y-98461424D01*
X104051318Y-98850332D01*
X104160193Y-98924722D01*
X104228095Y-99027110D01*
X104617003Y-99416018D01*
X104725879Y-99490409D01*
X104793780Y-99592795D01*
X105182688Y-99981703D01*
X105291566Y-100056095D01*
X105359466Y-100158480D01*
X105748374Y-100547388D01*
X105866996Y-100628438D01*
X106017693Y-100661129D01*
X106169236Y-100632614D01*
X106297746Y-100547388D01*
X106766216Y-100078918D01*
X109848390Y-100078918D01*
X110661400Y-100891928D01*
X110780022Y-100972978D01*
X110930719Y-101005669D01*
X111082262Y-100977154D01*
X111210772Y-100891928D01*
X111762681Y-100340019D01*
X112239301Y-100340019D01*
X112442506Y-100299599D01*
X112614775Y-100184493D01*
X114175471Y-98623796D01*
X114175474Y-98623794D01*
X114290580Y-98451525D01*
X114295150Y-98428552D01*
X114331001Y-98248320D01*
X114331000Y-98248315D01*
X114331000Y-93600000D01*
X114290580Y-93396795D01*
X114175474Y-93224526D01*
X114175471Y-93224524D01*
X113509240Y-92558293D01*
X113610148Y-92551987D01*
X113918858Y-92424115D01*
X114004405Y-92236510D01*
X113290000Y-91522105D01*
X113275858Y-91536248D01*
X113096253Y-91356643D01*
X113110395Y-91342500D01*
X113096253Y-91328358D01*
X113275858Y-91148753D01*
X113290000Y-91162895D01*
X114004405Y-90448490D01*
X113918858Y-90260885D01*
X113457073Y-90102565D01*
X113234471Y-90116476D01*
X113367280Y-89983667D01*
X113523905Y-89983804D01*
X113958165Y-89804372D01*
X114290704Y-89472413D01*
X114470894Y-89038466D01*
X114471304Y-88568595D01*
X114291872Y-88134335D01*
X113959913Y-87801796D01*
X113525966Y-87621606D01*
X113056095Y-87621196D01*
X112621835Y-87800628D01*
X112289296Y-88132587D01*
X112109106Y-88566534D01*
X112108696Y-89036405D01*
X112288128Y-89470665D01*
X112333218Y-89515834D01*
X111696095Y-90152957D01*
X111575500Y-90128536D01*
X110082412Y-90128536D01*
X110311608Y-89899340D01*
X110514034Y-89983394D01*
X110983905Y-89983804D01*
X111418165Y-89804372D01*
X111750704Y-89472413D01*
X111930894Y-89038466D01*
X111931304Y-88568595D01*
X111751872Y-88134335D01*
X111419913Y-87801796D01*
X110985966Y-87621606D01*
X110516095Y-87621196D01*
X110081835Y-87800628D01*
X109749296Y-88132587D01*
X109569106Y-88566534D01*
X109568696Y-89036405D01*
X109599089Y-89109963D01*
X108624526Y-90084526D01*
X108509420Y-90256795D01*
X108469000Y-90460000D01*
X108469000Y-91867553D01*
X106939438Y-90337990D01*
X106978065Y-90313134D01*
X107065059Y-90185814D01*
X107095664Y-90034680D01*
X107095664Y-89120280D01*
X107069097Y-88979090D01*
X107069096Y-88979089D01*
X107189690Y-88956397D01*
X107301231Y-88884623D01*
X107400366Y-88952359D01*
X107551500Y-88982964D01*
X108948500Y-88982964D01*
X109089690Y-88956397D01*
X109219365Y-88872954D01*
X109306359Y-88745634D01*
X109336964Y-88594500D01*
X109336964Y-88067984D01*
X109676920Y-87728028D01*
X109722972Y-87728028D01*
X109926177Y-87687608D01*
X110098446Y-87572502D01*
X110311608Y-87359340D01*
X110514034Y-87443394D01*
X110983905Y-87443804D01*
X111418165Y-87264372D01*
X111750704Y-86932413D01*
X111930894Y-86498466D01*
X111931304Y-86028595D01*
X111752306Y-85595386D01*
X112130920Y-85974000D01*
X112109106Y-86026534D01*
X112108696Y-86496405D01*
X112288128Y-86930665D01*
X112620087Y-87263204D01*
X113054034Y-87443394D01*
X113523905Y-87443804D01*
X113958165Y-87264372D01*
X114290704Y-86932413D01*
X114470894Y-86498466D01*
X114471304Y-86028595D01*
X114291872Y-85594335D01*
X113959913Y-85261796D01*
X113525966Y-85081606D01*
X113164370Y-85081290D01*
X112434293Y-84351213D01*
X112223534Y-84210388D01*
X112398423Y-84035803D01*
X112572801Y-83615854D01*
X112573198Y-83161141D01*
X112399554Y-82740888D01*
X112078303Y-82419077D01*
X111658354Y-82244699D01*
X111203641Y-82244302D01*
X110783388Y-82417946D01*
X110461577Y-82739197D01*
X110287199Y-83159146D01*
X110286802Y-83613859D01*
X110460446Y-84034112D01*
X110577882Y-84151753D01*
X109916247Y-84151753D01*
X109698978Y-84194970D01*
X109858423Y-84035803D01*
X110032801Y-83615854D01*
X110033198Y-83161141D01*
X109859554Y-82740888D01*
X109538303Y-82419077D01*
X109118354Y-82244699D01*
X108663641Y-82244302D01*
X108243388Y-82417946D01*
X107921577Y-82739197D01*
X107747199Y-83159146D01*
X107746802Y-83613859D01*
X107920446Y-84034112D01*
X108241697Y-84355923D01*
X108661646Y-84530301D01*
X109116359Y-84530698D01*
X109352999Y-84432921D01*
X108373884Y-85412036D01*
X107551500Y-85412036D01*
X107410310Y-85438603D01*
X107337393Y-85485524D01*
X107290376Y-85438507D01*
X107133436Y-85373500D01*
X106583750Y-85373500D01*
X106477000Y-85480250D01*
X106477000Y-86118000D01*
X106497000Y-86118000D01*
X106497000Y-86372000D01*
X106477000Y-86372000D01*
X106477000Y-87009750D01*
X106583750Y-87116500D01*
X107133436Y-87116500D01*
X107290376Y-87051493D01*
X107337479Y-87004390D01*
X107400366Y-87047359D01*
X107551500Y-87077964D01*
X108825088Y-87077964D01*
X108586016Y-87317036D01*
X107551500Y-87317036D01*
X107410310Y-87343603D01*
X107298769Y-87415377D01*
X107199634Y-87347641D01*
X107048500Y-87317036D01*
X105651500Y-87317036D01*
X105510310Y-87343603D01*
X105380635Y-87427046D01*
X105293641Y-87554366D01*
X105263036Y-87705500D01*
X105263036Y-88594500D01*
X105289603Y-88735690D01*
X105373046Y-88865365D01*
X105463583Y-88927227D01*
X105434941Y-88969146D01*
X105404336Y-89120280D01*
X105404336Y-90034680D01*
X105430903Y-90175870D01*
X105514346Y-90305545D01*
X105641666Y-90392539D01*
X105720803Y-90408564D01*
X105759420Y-90602705D01*
X105874526Y-90774974D01*
X106144872Y-91045320D01*
X106122998Y-91045320D01*
X106122998Y-91152068D01*
X106016250Y-91045320D01*
X105707864Y-91045320D01*
X105550924Y-91110327D01*
X105430807Y-91230444D01*
X105365800Y-91387385D01*
X105365800Y-91695770D01*
X105472550Y-91802520D01*
X106123000Y-91802520D01*
X106123000Y-91782520D01*
X106377000Y-91782520D01*
X106377000Y-91802520D01*
X106397000Y-91802520D01*
X106397000Y-92056520D01*
X106377000Y-92056520D01*
X106377000Y-92706970D01*
X106483750Y-92813720D01*
X106792136Y-92813720D01*
X106949076Y-92748713D01*
X107069193Y-92628596D01*
X107134200Y-92471655D01*
X107134200Y-92163270D01*
X107027452Y-92056522D01*
X107134200Y-92056522D01*
X107134200Y-92034648D01*
X108158752Y-93059199D01*
X108158752Y-93442353D01*
X107711124Y-93889981D01*
X107725267Y-93904124D01*
X107545662Y-94083729D01*
X107531519Y-94069586D01*
X107080562Y-94520543D01*
X107080562Y-94671511D01*
X107301801Y-94892751D01*
X107160002Y-95034550D01*
X106279562Y-94154110D01*
X106160940Y-94073060D01*
X106010243Y-94040369D01*
X105858700Y-94068884D01*
X105730190Y-94154110D01*
X105101572Y-94782728D01*
X105020522Y-94901350D01*
X104987831Y-95052047D01*
X104991021Y-95069000D01*
X104896533Y-95069000D01*
X104656032Y-94969136D01*
X104345331Y-94968864D01*
X104115884Y-95063670D01*
X104115884Y-93625440D01*
X106296296Y-93625440D01*
X106296296Y-93795311D01*
X106361303Y-93952252D01*
X106481419Y-94072369D01*
X106749989Y-94340938D01*
X106900957Y-94340938D01*
X107351914Y-93889981D01*
X106721351Y-93259419D01*
X106570384Y-93259419D01*
X106361303Y-93468499D01*
X106296296Y-93625440D01*
X104115884Y-93625440D01*
X104115884Y-92928846D01*
X106900957Y-92928846D01*
X106900957Y-93079813D01*
X107531519Y-93710376D01*
X107982476Y-93259419D01*
X107982476Y-93108451D01*
X107713907Y-92839881D01*
X107593790Y-92719765D01*
X107436849Y-92654758D01*
X107266978Y-92654758D01*
X107110037Y-92719765D01*
X106900957Y-92928846D01*
X104115884Y-92928846D01*
X104115884Y-92163270D01*
X105365800Y-92163270D01*
X105365800Y-92471655D01*
X105430807Y-92628596D01*
X105550924Y-92748713D01*
X105707864Y-92813720D01*
X106016250Y-92813720D01*
X106123000Y-92706970D01*
X106123000Y-92056520D01*
X105472550Y-92056520D01*
X105365800Y-92163270D01*
X104115884Y-92163270D01*
X104115884Y-91125454D01*
X104594860Y-91125454D01*
X104736050Y-91098887D01*
X104865725Y-91015444D01*
X104952719Y-90888124D01*
X104983324Y-90736990D01*
X104983324Y-88738010D01*
X104956757Y-88596820D01*
X104873314Y-88467145D01*
X104745994Y-88380151D01*
X104594860Y-88349546D01*
X102753500Y-88349546D01*
X102753500Y-86998188D01*
X102808190Y-86987897D01*
X102937865Y-86904454D01*
X103024859Y-86777134D01*
X103055464Y-86626000D01*
X103055464Y-86478750D01*
X105224500Y-86478750D01*
X105224500Y-86774435D01*
X105289507Y-86931376D01*
X105409624Y-87051493D01*
X105566564Y-87116500D01*
X106116250Y-87116500D01*
X106223000Y-87009750D01*
X106223000Y-86372000D01*
X105331250Y-86372000D01*
X105224500Y-86478750D01*
X103055464Y-86478750D01*
X103055464Y-85715565D01*
X105224500Y-85715565D01*
X105224500Y-86011250D01*
X105331250Y-86118000D01*
X106223000Y-86118000D01*
X106223000Y-85480250D01*
X106116250Y-85373500D01*
X105566564Y-85373500D01*
X105409624Y-85438507D01*
X105289507Y-85558624D01*
X105224500Y-85715565D01*
X103055464Y-85715565D01*
X103055464Y-85229000D01*
X103028897Y-85087810D01*
X102945454Y-84958135D01*
X102818134Y-84871141D01*
X102667000Y-84840536D01*
X101778000Y-84840536D01*
X101636810Y-84867103D01*
X101507135Y-84950546D01*
X101420141Y-85077866D01*
X101389536Y-85229000D01*
X101389536Y-86626000D01*
X101416103Y-86767190D01*
X101499546Y-86896865D01*
X101626866Y-86983859D01*
X101691500Y-86996948D01*
X101691500Y-88349546D01*
X100093980Y-88349546D01*
X99952790Y-88376113D01*
X99823115Y-88459556D01*
X99736121Y-88586876D01*
X99705516Y-88738010D01*
X99705516Y-90555991D01*
X97965458Y-90555991D01*
X96771494Y-89362026D01*
X96599225Y-89246920D01*
X96484484Y-89224097D01*
X96484484Y-88738010D01*
X96457917Y-88596820D01*
X96374474Y-88467145D01*
X96247154Y-88380151D01*
X96096020Y-88349546D01*
X94181000Y-88349546D01*
X94181000Y-86998188D01*
X94235690Y-86987897D01*
X94365365Y-86904454D01*
X94452359Y-86777134D01*
X94482964Y-86626000D01*
X94482964Y-85229000D01*
X94722036Y-85229000D01*
X94722036Y-86626000D01*
X94748603Y-86767190D01*
X94832046Y-86896865D01*
X94959366Y-86983859D01*
X95110500Y-87014464D01*
X95999500Y-87014464D01*
X96140690Y-86987897D01*
X96270365Y-86904454D01*
X96357359Y-86777134D01*
X96387964Y-86626000D01*
X96387964Y-86608500D01*
X99117920Y-86608500D01*
X99036851Y-86689569D01*
X98796177Y-86789014D01*
X98576286Y-87008521D01*
X98457136Y-87295468D01*
X98456864Y-87606169D01*
X98575514Y-87893323D01*
X98795021Y-88113214D01*
X99081968Y-88232364D01*
X99392669Y-88232636D01*
X99679823Y-88113986D01*
X99899714Y-87894479D01*
X100000271Y-87652308D01*
X100638115Y-87014464D01*
X100762000Y-87014464D01*
X100903190Y-86987897D01*
X101032865Y-86904454D01*
X101119859Y-86777134D01*
X101150464Y-86626000D01*
X101150464Y-85229000D01*
X101123897Y-85087810D01*
X101040454Y-84958135D01*
X100913134Y-84871141D01*
X100762000Y-84840536D01*
X99873000Y-84840536D01*
X99731810Y-84867103D01*
X99602135Y-84950546D01*
X99515141Y-85077866D01*
X99484536Y-85229000D01*
X99484536Y-85246500D01*
X96387964Y-85246500D01*
X96387964Y-85229000D01*
X96361397Y-85087810D01*
X96277954Y-84958135D01*
X96150634Y-84871141D01*
X95999500Y-84840536D01*
X95110500Y-84840536D01*
X94969310Y-84867103D01*
X94839635Y-84950546D01*
X94752641Y-85077866D01*
X94722036Y-85229000D01*
X94482964Y-85229000D01*
X94456397Y-85087810D01*
X94372954Y-84958135D01*
X94245634Y-84871141D01*
X94094500Y-84840536D01*
X93205500Y-84840536D01*
X93064310Y-84867103D01*
X92934635Y-84950546D01*
X92847641Y-85077866D01*
X92817036Y-85229000D01*
X92817036Y-86626000D01*
X92843603Y-86767190D01*
X92927046Y-86896865D01*
X93054366Y-86983859D01*
X93119000Y-86996948D01*
X93119000Y-88349546D01*
X91595140Y-88349546D01*
X91453950Y-88376113D01*
X91324275Y-88459556D01*
X91237281Y-88586876D01*
X91206676Y-88738010D01*
X91206676Y-90736990D01*
X91233243Y-90878180D01*
X91316686Y-91007855D01*
X91444006Y-91094849D01*
X91595140Y-91125454D01*
X96096020Y-91125454D01*
X96237210Y-91098887D01*
X96366885Y-91015444D01*
X96453879Y-90888124D01*
X96484484Y-90736990D01*
X96484484Y-90576912D01*
X97370035Y-91462462D01*
X97370037Y-91462465D01*
X97542306Y-91577571D01*
X97745511Y-91617991D01*
X100719103Y-91617991D01*
X100719060Y-91667004D01*
X100336861Y-92049202D01*
X100221755Y-92221471D01*
X100181335Y-92424676D01*
X100181335Y-93473531D01*
X99702612Y-93952254D01*
X99621562Y-94070876D01*
X99588871Y-94221573D01*
X99617386Y-94373116D01*
X99702612Y-94501626D01*
X100086995Y-94886009D01*
X99924525Y-95048478D01*
X99809419Y-95220747D01*
X99768999Y-95423952D01*
X99768999Y-95465348D01*
X99743848Y-95440197D01*
X99571579Y-95325091D01*
X99368374Y-95284671D01*
X99311667Y-95284671D01*
X98913005Y-94886009D01*
X99297388Y-94501626D01*
X99378438Y-94383004D01*
X99411129Y-94232307D01*
X99382614Y-94080764D01*
X99297388Y-93952254D01*
X98818665Y-93473531D01*
X98818665Y-93139869D01*
X98830573Y-93127961D01*
X98830576Y-93127959D01*
X98945682Y-92955690D01*
X98952869Y-92919557D01*
X98980748Y-92779407D01*
X99032089Y-92728155D01*
X99135984Y-92477950D01*
X99136220Y-92207031D01*
X99032763Y-91956644D01*
X98841361Y-91764909D01*
X98591156Y-91661014D01*
X98320237Y-91660778D01*
X98069850Y-91764235D01*
X97934787Y-91899063D01*
X97813469Y-91848687D01*
X97542550Y-91848451D01*
X97292163Y-91951908D01*
X97100428Y-92143310D01*
X97087267Y-92175006D01*
X96994549Y-92136506D01*
X96723630Y-92136270D01*
X96473243Y-92239727D01*
X96327595Y-92385122D01*
X96123542Y-92300391D01*
X95852623Y-92300155D01*
X95602236Y-92403612D01*
X95410501Y-92595014D01*
X95306606Y-92845219D01*
X95306548Y-92911265D01*
X95119339Y-93098474D01*
X95004233Y-93270743D01*
X94963813Y-93473948D01*
X94963813Y-93693024D01*
X94954081Y-93693024D01*
X94503124Y-94143981D01*
X94517267Y-94158123D01*
X94337661Y-94337729D01*
X94323519Y-94323586D01*
X93872562Y-94774543D01*
X93872562Y-94925511D01*
X94141131Y-95194081D01*
X94261248Y-95314197D01*
X94418189Y-95379204D01*
X94588060Y-95379204D01*
X94745001Y-95314197D01*
X94954081Y-95105116D01*
X94954081Y-94954151D01*
X94963813Y-94963883D01*
X94963813Y-95602860D01*
X94891740Y-95632713D01*
X94802513Y-95721940D01*
X94802513Y-95872907D01*
X95469491Y-96539886D01*
X95476234Y-96533143D01*
X95655839Y-96712748D01*
X95649096Y-96719491D01*
X96316075Y-97386469D01*
X96467042Y-97386469D01*
X96556269Y-97297242D01*
X96604600Y-97180559D01*
X96645739Y-97153276D01*
X97034647Y-96764368D01*
X97109039Y-96655490D01*
X97211424Y-96587590D01*
X97600332Y-96198682D01*
X97674722Y-96089807D01*
X97777110Y-96021905D01*
X98162058Y-95636957D01*
X98716244Y-96191142D01*
X98716246Y-96191145D01*
X98888515Y-96306251D01*
X99091720Y-96346671D01*
X99148426Y-96346671D01*
X99156875Y-96355119D01*
X99156875Y-103154933D01*
X99114748Y-103172339D01*
X98923013Y-103363741D01*
X98819118Y-103613946D01*
X98818882Y-103884865D01*
X98922339Y-104135252D01*
X99113741Y-104326987D01*
X99363946Y-104430882D01*
X99634865Y-104431118D01*
X99768999Y-104375695D01*
X99768999Y-105608604D01*
X99614748Y-105672339D01*
X99423013Y-105863741D01*
X99319118Y-106113946D01*
X99318882Y-106384865D01*
X99422339Y-106635252D01*
X99613741Y-106826987D01*
X99797638Y-106903348D01*
X99702612Y-106998374D01*
X99621562Y-107116996D01*
X99588871Y-107267693D01*
X99617386Y-107419236D01*
X99702612Y-107547746D01*
X99857468Y-107702602D01*
X99274525Y-108285545D01*
X99159419Y-108457814D01*
X99118999Y-108661019D01*
X99118999Y-109084207D01*
X98870303Y-108835077D01*
X98450354Y-108660699D01*
X98158261Y-108660444D01*
X98236728Y-108608406D01*
X99297388Y-107547746D01*
X99378438Y-107429124D01*
X99411129Y-107278427D01*
X99382614Y-107126884D01*
X99297388Y-106998374D01*
X98908480Y-106609466D01*
X98799605Y-106535076D01*
X98731703Y-106432688D01*
X98342795Y-106043780D01*
X98233919Y-105969389D01*
X98166018Y-105867003D01*
X97777110Y-105478095D01*
X97668232Y-105403703D01*
X97600332Y-105301318D01*
X97211424Y-104912410D01*
X97102549Y-104838020D01*
X97034647Y-104735632D01*
X96645739Y-104346724D01*
X96536861Y-104272332D01*
X96468961Y-104169947D01*
X96080053Y-103781039D01*
X95971178Y-103706649D01*
X95903276Y-103604261D01*
X95518469Y-103219454D01*
X97016788Y-101721134D01*
X97016791Y-101721132D01*
X97131897Y-101548863D01*
X97172317Y-101345658D01*
X97172317Y-99607522D01*
X97218304Y-99561615D01*
X97322199Y-99311410D01*
X97322435Y-99040491D01*
X97218978Y-98790104D01*
X97027576Y-98598369D01*
X96777371Y-98494474D01*
X96506452Y-98494238D01*
X96256065Y-98597695D01*
X96064330Y-98789097D01*
X96033834Y-98862539D01*
X96011896Y-98853429D01*
X95740977Y-98853193D01*
X95490590Y-98956650D01*
X95374886Y-99072154D01*
X95227550Y-99010974D01*
X94956631Y-99010738D01*
X94706244Y-99114195D01*
X94514509Y-99305597D01*
X94483474Y-99380337D01*
X94475838Y-99377166D01*
X94421896Y-99377119D01*
X94771905Y-99027110D01*
X94846297Y-98918232D01*
X94948682Y-98850332D01*
X95337590Y-98461424D01*
X95411980Y-98352549D01*
X95514368Y-98284647D01*
X95903276Y-97895739D01*
X95931711Y-97854123D01*
X96047242Y-97806269D01*
X96136469Y-97717042D01*
X96136469Y-97566075D01*
X95469491Y-96899096D01*
X95462748Y-96905839D01*
X95283143Y-96726234D01*
X95289886Y-96719491D01*
X94622907Y-96052513D01*
X94471940Y-96052513D01*
X94446944Y-96077509D01*
X94150366Y-95780931D01*
X94173131Y-95675991D01*
X94144616Y-95524448D01*
X94059390Y-95395938D01*
X93071562Y-94408110D01*
X92952940Y-94327060D01*
X92802243Y-94294369D01*
X92754519Y-94303349D01*
X92754519Y-94273519D01*
X92749845Y-94250022D01*
X92702681Y-94012911D01*
X92613499Y-93879440D01*
X93088296Y-93879440D01*
X93088296Y-94049311D01*
X93153303Y-94206252D01*
X93273419Y-94326369D01*
X93541989Y-94594938D01*
X93692957Y-94594938D01*
X94143914Y-94143981D01*
X93513351Y-93513419D01*
X93362384Y-93513419D01*
X93153303Y-93722499D01*
X93088296Y-93879440D01*
X92613499Y-93879440D01*
X92555059Y-93791979D01*
X91945926Y-93182846D01*
X93692957Y-93182846D01*
X93692957Y-93333813D01*
X94323519Y-93964376D01*
X94774476Y-93513419D01*
X94774476Y-93362451D01*
X94505907Y-93093881D01*
X94385790Y-92973765D01*
X94228849Y-92908758D01*
X94058978Y-92908758D01*
X93902037Y-92973765D01*
X93692957Y-93182846D01*
X91945926Y-93182846D01*
X90681540Y-91918460D01*
X90460608Y-91770838D01*
X90200000Y-91719000D01*
X89396533Y-91719000D01*
X89156032Y-91619136D01*
X88845331Y-91618864D01*
X88558177Y-91737514D01*
X88338286Y-91957021D01*
X88219136Y-92243968D01*
X88218864Y-92554669D01*
X88337514Y-92841823D01*
X88557021Y-93061714D01*
X88843968Y-93180864D01*
X89154669Y-93181136D01*
X89397016Y-93081000D01*
X89917920Y-93081000D01*
X90754370Y-93917450D01*
X90568216Y-93917450D01*
X90522309Y-93871463D01*
X90272104Y-93767568D01*
X90001185Y-93767332D01*
X89750798Y-93870789D01*
X89559063Y-94062191D01*
X89455168Y-94312396D01*
X89454932Y-94583315D01*
X89558389Y-94833702D01*
X89749791Y-95025437D01*
X89910694Y-95092250D01*
X89910474Y-95344667D01*
X90013931Y-95595054D01*
X90205333Y-95786789D01*
X90325926Y-95836864D01*
X90238366Y-96047729D01*
X90238130Y-96318648D01*
X90341587Y-96569035D01*
X90532989Y-96760770D01*
X90783194Y-96864665D01*
X90851958Y-96864725D01*
X90985679Y-96954074D01*
X91016042Y-96974362D01*
X91209508Y-97012846D01*
X91442798Y-97246136D01*
X91372155Y-97275325D01*
X91180420Y-97466727D01*
X91076525Y-97716932D01*
X91076289Y-97987851D01*
X91179746Y-98238238D01*
X91226407Y-98284980D01*
X91226407Y-98664968D01*
X91266827Y-98868173D01*
X91381933Y-99040442D01*
X91531474Y-99189983D01*
X91527853Y-99206675D01*
X91556368Y-99358218D01*
X91641594Y-99486728D01*
X92702254Y-100547388D01*
X92820876Y-100628438D01*
X92971573Y-100661129D01*
X93123116Y-100632614D01*
X93251626Y-100547388D01*
X93640534Y-100158480D01*
X93658719Y-100131865D01*
X93658675Y-100182817D01*
X92998999Y-100842492D01*
X92982307Y-100838871D01*
X92830764Y-100867386D01*
X92702254Y-100952612D01*
X91641594Y-102013272D01*
X91560544Y-102131894D01*
X91527853Y-102282591D01*
X91556368Y-102434134D01*
X91641594Y-102562644D01*
X92030502Y-102951552D01*
X92139380Y-103025944D01*
X92207280Y-103128329D01*
X92596188Y-103517237D01*
X92705064Y-103591628D01*
X92772965Y-103694014D01*
X93161873Y-104082922D01*
X93270748Y-104157312D01*
X93338650Y-104259700D01*
X93525450Y-104446500D01*
X92285464Y-104446500D01*
X92285464Y-104279000D01*
X92258897Y-104137810D01*
X92175454Y-104008135D01*
X92048134Y-103921141D01*
X91897000Y-103890536D01*
X91008000Y-103890536D01*
X90866810Y-103917103D01*
X90737135Y-104000546D01*
X90650141Y-104127866D01*
X90619536Y-104279000D01*
X90619536Y-105313516D01*
X90419000Y-105514052D01*
X90419000Y-105211250D01*
X90312250Y-105104500D01*
X89674500Y-105104500D01*
X89674500Y-105124500D01*
X89420500Y-105124500D01*
X89420500Y-105104500D01*
X88782750Y-105104500D01*
X88676000Y-105211250D01*
X88676000Y-105760936D01*
X88741007Y-105917876D01*
X88846460Y-106023329D01*
X88832135Y-106032546D01*
X88749934Y-106152851D01*
X88570466Y-105718505D01*
X88106437Y-105253666D01*
X87499845Y-105001787D01*
X86843037Y-105001214D01*
X86236005Y-105252034D01*
X85771166Y-105716063D01*
X85519287Y-106322655D01*
X85518714Y-106979463D01*
X85568293Y-107099453D01*
X84700620Y-106231780D01*
X84700620Y-104194064D01*
X88676000Y-104194064D01*
X88676000Y-104743750D01*
X88782750Y-104850500D01*
X89420500Y-104850500D01*
X89420500Y-103958750D01*
X89674500Y-103958750D01*
X89674500Y-104850500D01*
X90312250Y-104850500D01*
X90419000Y-104743750D01*
X90419000Y-104194064D01*
X90353993Y-104037124D01*
X90233876Y-103917007D01*
X90076935Y-103852000D01*
X89781250Y-103852000D01*
X89674500Y-103958750D01*
X89420500Y-103958750D01*
X89313750Y-103852000D01*
X89018065Y-103852000D01*
X88861124Y-103917007D01*
X88741007Y-104037124D01*
X88676000Y-104194064D01*
X84700620Y-104194064D01*
X84700620Y-103323517D01*
X84760250Y-103312297D01*
X84889925Y-103228854D01*
X84976919Y-103101534D01*
X85007524Y-102950400D01*
X85007524Y-100151320D01*
X84980957Y-100010130D01*
X84897514Y-99880455D01*
X84770194Y-99793461D01*
X84619060Y-99762856D01*
X83420180Y-99762856D01*
X83278990Y-99789423D01*
X83149315Y-99872866D01*
X83110523Y-99929640D01*
X83078874Y-99880455D01*
X82951554Y-99793461D01*
X82800420Y-99762856D01*
X81799660Y-99762856D01*
X81658470Y-99789423D01*
X81528795Y-99872866D01*
X81441801Y-100000186D01*
X81411196Y-100151320D01*
X80627000Y-100151320D01*
X80627000Y-96549600D01*
X81411196Y-96549600D01*
X81411196Y-99348680D01*
X81437763Y-99489870D01*
X81521206Y-99619545D01*
X81648526Y-99706539D01*
X81799660Y-99737144D01*
X82800420Y-99737144D01*
X82941610Y-99710577D01*
X83071285Y-99627134D01*
X83158279Y-99499814D01*
X83188884Y-99348680D01*
X83188884Y-98008861D01*
X83311116Y-97958356D01*
X83311116Y-99348680D01*
X83337683Y-99489870D01*
X83421126Y-99619545D01*
X83548446Y-99706539D01*
X83699580Y-99737144D01*
X84700340Y-99737144D01*
X84841530Y-99710577D01*
X84971205Y-99627134D01*
X85058199Y-99499814D01*
X85088804Y-99348680D01*
X85088804Y-98480140D01*
X85742743Y-98480140D01*
X86639000Y-99376397D01*
X86639000Y-99385520D01*
X86236005Y-99552034D01*
X85771166Y-100016063D01*
X85519287Y-100622655D01*
X85518714Y-101279463D01*
X85769534Y-101886495D01*
X86233563Y-102351334D01*
X86840155Y-102603213D01*
X87496963Y-102603786D01*
X88103995Y-102352966D01*
X88568834Y-101888937D01*
X88820713Y-101282345D01*
X88821286Y-100625537D01*
X88570466Y-100018505D01*
X88106437Y-99553666D01*
X87701000Y-99385314D01*
X87701000Y-99156454D01*
X87701001Y-99156449D01*
X87660580Y-98953244D01*
X87545474Y-98780975D01*
X86338165Y-97573666D01*
X86165896Y-97458560D01*
X85962691Y-97418140D01*
X85694948Y-97418140D01*
X85695118Y-97222635D01*
X85591661Y-96972248D01*
X85400259Y-96780513D01*
X85150054Y-96676618D01*
X85088804Y-96676565D01*
X85088804Y-96549600D01*
X85062237Y-96408410D01*
X84978794Y-96278735D01*
X84851474Y-96191741D01*
X84700340Y-96161136D01*
X83699580Y-96161136D01*
X83558390Y-96187703D01*
X83428715Y-96271146D01*
X83341721Y-96398466D01*
X83311116Y-96549600D01*
X83311116Y-96756785D01*
X83188884Y-96706029D01*
X83188884Y-96549600D01*
X83162317Y-96408410D01*
X83134855Y-96365733D01*
X83817087Y-95683500D01*
X85603020Y-95683500D01*
X85769534Y-96086495D01*
X86233563Y-96551334D01*
X86840155Y-96803213D01*
X87496963Y-96803786D01*
X88103995Y-96552966D01*
X88568834Y-96088937D01*
X88820713Y-95482345D01*
X88821286Y-94825537D01*
X88570466Y-94218505D01*
X88106437Y-93753666D01*
X87499845Y-93501787D01*
X86843037Y-93501214D01*
X86236005Y-93752034D01*
X85771166Y-94216063D01*
X85602814Y-94621500D01*
X83597140Y-94621500D01*
X83393935Y-94661920D01*
X83221666Y-94777026D01*
X83221664Y-94777029D01*
X81924566Y-96074126D01*
X81866428Y-96161136D01*
X81799660Y-96161136D01*
X81658470Y-96187703D01*
X81528795Y-96271146D01*
X81441801Y-96398466D01*
X81411196Y-96549600D01*
X80627000Y-96549600D01*
X80627000Y-89679463D01*
X85518714Y-89679463D01*
X85769534Y-90286495D01*
X86233563Y-90751334D01*
X86840155Y-91003213D01*
X87496963Y-91003786D01*
X88103995Y-90752966D01*
X88568834Y-90288937D01*
X88820713Y-89682345D01*
X88821286Y-89025537D01*
X88570466Y-88418505D01*
X88106437Y-87953666D01*
X87499845Y-87701787D01*
X86843037Y-87701214D01*
X86236005Y-87952034D01*
X85771166Y-88416063D01*
X85519287Y-89022655D01*
X85518714Y-89679463D01*
X80627000Y-89679463D01*
X80627000Y-87052606D01*
X81052606Y-86627000D01*
X85000000Y-86627000D01*
X85049410Y-86616994D01*
X85089803Y-86589803D01*
X85589803Y-86089803D01*
X85617666Y-86047789D01*
X85627000Y-86000000D01*
X85627000Y-82562000D01*
X87356036Y-82562000D01*
X87356036Y-84213000D01*
X87382603Y-84354190D01*
X87466046Y-84483865D01*
X87593366Y-84570859D01*
X87744500Y-84601464D01*
X89395500Y-84601464D01*
X89536690Y-84574897D01*
X89666365Y-84491454D01*
X89753359Y-84364134D01*
X89770090Y-84281510D01*
X90395595Y-84281510D01*
X90481142Y-84469115D01*
X90942927Y-84627435D01*
X91430148Y-84596987D01*
X91738858Y-84469115D01*
X91824405Y-84281510D01*
X91110000Y-83567105D01*
X90395595Y-84281510D01*
X89770090Y-84281510D01*
X89783964Y-84213000D01*
X89783964Y-83220427D01*
X89870065Y-83220427D01*
X89900513Y-83707648D01*
X90028385Y-84016358D01*
X90215990Y-84101905D01*
X90930395Y-83387500D01*
X91289605Y-83387500D01*
X92004010Y-84101905D01*
X92191615Y-84016358D01*
X92327022Y-83621405D01*
X92468696Y-83621405D01*
X92648128Y-84055665D01*
X92980087Y-84388204D01*
X93414034Y-84568394D01*
X93883905Y-84568804D01*
X94318165Y-84389372D01*
X94650704Y-84057413D01*
X94830894Y-83623466D01*
X94830895Y-83621405D01*
X95008696Y-83621405D01*
X95188128Y-84055665D01*
X95520087Y-84388204D01*
X95954034Y-84568394D01*
X96423905Y-84568804D01*
X96858165Y-84389372D01*
X97190704Y-84057413D01*
X97370894Y-83623466D01*
X97370895Y-83621405D01*
X97548696Y-83621405D01*
X97728128Y-84055665D01*
X98060087Y-84388204D01*
X98494034Y-84568394D01*
X98963905Y-84568804D01*
X99398165Y-84389372D01*
X99730704Y-84057413D01*
X99910894Y-83623466D01*
X99910895Y-83621405D01*
X100088696Y-83621405D01*
X100268128Y-84055665D01*
X100600087Y-84388204D01*
X101034034Y-84568394D01*
X101503905Y-84568804D01*
X101938165Y-84389372D01*
X102270704Y-84057413D01*
X102450894Y-83623466D01*
X102450902Y-83613859D01*
X102666802Y-83613859D01*
X102840446Y-84034112D01*
X103161697Y-84355923D01*
X103581646Y-84530301D01*
X104036359Y-84530698D01*
X104456612Y-84357054D01*
X104778423Y-84035803D01*
X104952801Y-83615854D01*
X104952802Y-83613859D01*
X105206802Y-83613859D01*
X105380446Y-84034112D01*
X105701697Y-84355923D01*
X106121646Y-84530301D01*
X106576359Y-84530698D01*
X106996612Y-84357054D01*
X107318423Y-84035803D01*
X107492801Y-83615854D01*
X107493198Y-83161141D01*
X107319554Y-82740888D01*
X106998303Y-82419077D01*
X106578354Y-82244699D01*
X106123641Y-82244302D01*
X105703388Y-82417946D01*
X105381577Y-82739197D01*
X105207199Y-83159146D01*
X105206802Y-83613859D01*
X104952802Y-83613859D01*
X104953198Y-83161141D01*
X104779554Y-82740888D01*
X104458303Y-82419077D01*
X104038354Y-82244699D01*
X103583641Y-82244302D01*
X103163388Y-82417946D01*
X102841577Y-82739197D01*
X102667199Y-83159146D01*
X102666802Y-83613859D01*
X102450902Y-83613859D01*
X102451304Y-83153595D01*
X102271872Y-82719335D01*
X101939913Y-82386796D01*
X101505966Y-82206606D01*
X101036095Y-82206196D01*
X100601835Y-82385628D01*
X100269296Y-82717587D01*
X100089106Y-83151534D01*
X100088696Y-83621405D01*
X99910895Y-83621405D01*
X99911304Y-83153595D01*
X99731872Y-82719335D01*
X99399913Y-82386796D01*
X98965966Y-82206606D01*
X98496095Y-82206196D01*
X98061835Y-82385628D01*
X97729296Y-82717587D01*
X97549106Y-83151534D01*
X97548696Y-83621405D01*
X97370895Y-83621405D01*
X97371304Y-83153595D01*
X97191872Y-82719335D01*
X96859913Y-82386796D01*
X96425966Y-82206606D01*
X95956095Y-82206196D01*
X95521835Y-82385628D01*
X95189296Y-82717587D01*
X95009106Y-83151534D01*
X95008696Y-83621405D01*
X94830895Y-83621405D01*
X94831304Y-83153595D01*
X94651872Y-82719335D01*
X94319913Y-82386796D01*
X93885966Y-82206606D01*
X93416095Y-82206196D01*
X92981835Y-82385628D01*
X92649296Y-82717587D01*
X92469106Y-83151534D01*
X92468696Y-83621405D01*
X92327022Y-83621405D01*
X92349935Y-83554573D01*
X92319487Y-83067352D01*
X92191615Y-82758642D01*
X92004010Y-82673095D01*
X91289605Y-83387500D01*
X90930395Y-83387500D01*
X90215990Y-82673095D01*
X90028385Y-82758642D01*
X89870065Y-83220427D01*
X89783964Y-83220427D01*
X89783964Y-82562000D01*
X89771073Y-82493490D01*
X90395595Y-82493490D01*
X91110000Y-83207895D01*
X91824405Y-82493490D01*
X91738858Y-82305885D01*
X91277073Y-82147565D01*
X90789852Y-82178013D01*
X90481142Y-82305885D01*
X90395595Y-82493490D01*
X89771073Y-82493490D01*
X89757397Y-82420810D01*
X89673954Y-82291135D01*
X89546634Y-82204141D01*
X89395500Y-82173536D01*
X87744500Y-82173536D01*
X87603310Y-82200103D01*
X87473635Y-82283546D01*
X87386641Y-82410866D01*
X87356036Y-82562000D01*
X85627000Y-82562000D01*
X85627000Y-81081405D01*
X87388696Y-81081405D01*
X87568128Y-81515665D01*
X87900087Y-81848204D01*
X88334034Y-82028394D01*
X88803905Y-82028804D01*
X89238165Y-81849372D01*
X89346215Y-81741510D01*
X90395595Y-81741510D01*
X90481142Y-81929115D01*
X90942927Y-82087435D01*
X91430148Y-82056987D01*
X91738858Y-81929115D01*
X91824405Y-81741510D01*
X91110000Y-81027105D01*
X90395595Y-81741510D01*
X89346215Y-81741510D01*
X89570704Y-81517413D01*
X89750894Y-81083466D01*
X89751245Y-80680427D01*
X89870065Y-80680427D01*
X89900513Y-81167648D01*
X90028385Y-81476358D01*
X90215990Y-81561905D01*
X90930395Y-80847500D01*
X91289605Y-80847500D01*
X92004010Y-81561905D01*
X92191615Y-81476358D01*
X92327022Y-81081405D01*
X92468696Y-81081405D01*
X92648128Y-81515665D01*
X92980087Y-81848204D01*
X93414034Y-82028394D01*
X93883905Y-82028804D01*
X94318165Y-81849372D01*
X94650704Y-81517413D01*
X94830894Y-81083466D01*
X94830895Y-81081405D01*
X95008696Y-81081405D01*
X95188128Y-81515665D01*
X95520087Y-81848204D01*
X95954034Y-82028394D01*
X96423905Y-82028804D01*
X96858165Y-81849372D01*
X97190704Y-81517413D01*
X97370894Y-81083466D01*
X97370895Y-81081405D01*
X97548696Y-81081405D01*
X97728128Y-81515665D01*
X98060087Y-81848204D01*
X98494034Y-82028394D01*
X98963905Y-82028804D01*
X99398165Y-81849372D01*
X99730704Y-81517413D01*
X99910894Y-81083466D01*
X99910895Y-81081405D01*
X100088696Y-81081405D01*
X100268128Y-81515665D01*
X100600087Y-81848204D01*
X101034034Y-82028394D01*
X101503905Y-82028804D01*
X101938165Y-81849372D01*
X102270704Y-81517413D01*
X102450894Y-81083466D01*
X102450902Y-81073859D01*
X102666802Y-81073859D01*
X102840446Y-81494112D01*
X103161697Y-81815923D01*
X103581646Y-81990301D01*
X104036359Y-81990698D01*
X104456612Y-81817054D01*
X104778423Y-81495803D01*
X104952801Y-81075854D01*
X104952802Y-81073859D01*
X105206802Y-81073859D01*
X105380446Y-81494112D01*
X105701697Y-81815923D01*
X106121646Y-81990301D01*
X106576359Y-81990698D01*
X106996612Y-81817054D01*
X107318423Y-81495803D01*
X107492801Y-81075854D01*
X107492802Y-81073859D01*
X107746802Y-81073859D01*
X107920446Y-81494112D01*
X108241697Y-81815923D01*
X108661646Y-81990301D01*
X109116359Y-81990698D01*
X109536612Y-81817054D01*
X109858423Y-81495803D01*
X110032801Y-81075854D01*
X110032802Y-81073859D01*
X110286802Y-81073859D01*
X110460446Y-81494112D01*
X110781697Y-81815923D01*
X111201646Y-81990301D01*
X111656359Y-81990698D01*
X112076612Y-81817054D01*
X112398423Y-81495803D01*
X112572801Y-81075854D01*
X112573198Y-80621141D01*
X112399554Y-80200888D01*
X112078303Y-79879077D01*
X111658354Y-79704699D01*
X111203641Y-79704302D01*
X110783388Y-79877946D01*
X110461577Y-80199197D01*
X110287199Y-80619146D01*
X110286802Y-81073859D01*
X110032802Y-81073859D01*
X110033198Y-80621141D01*
X109859554Y-80200888D01*
X109538303Y-79879077D01*
X109118354Y-79704699D01*
X108663641Y-79704302D01*
X108243388Y-79877946D01*
X107921577Y-80199197D01*
X107747199Y-80619146D01*
X107746802Y-81073859D01*
X107492802Y-81073859D01*
X107493198Y-80621141D01*
X107319554Y-80200888D01*
X106998303Y-79879077D01*
X106578354Y-79704699D01*
X106123641Y-79704302D01*
X105703388Y-79877946D01*
X105381577Y-80199197D01*
X105207199Y-80619146D01*
X105206802Y-81073859D01*
X104952802Y-81073859D01*
X104953198Y-80621141D01*
X104779554Y-80200888D01*
X104458303Y-79879077D01*
X104038354Y-79704699D01*
X103583641Y-79704302D01*
X103163388Y-79877946D01*
X102841577Y-80199197D01*
X102667199Y-80619146D01*
X102666802Y-81073859D01*
X102450902Y-81073859D01*
X102451304Y-80613595D01*
X102271872Y-80179335D01*
X101939913Y-79846796D01*
X101505966Y-79666606D01*
X101036095Y-79666196D01*
X100601835Y-79845628D01*
X100269296Y-80177587D01*
X100089106Y-80611534D01*
X100088696Y-81081405D01*
X99910895Y-81081405D01*
X99911304Y-80613595D01*
X99731872Y-80179335D01*
X99399913Y-79846796D01*
X98965966Y-79666606D01*
X98496095Y-79666196D01*
X98061835Y-79845628D01*
X97729296Y-80177587D01*
X97549106Y-80611534D01*
X97548696Y-81081405D01*
X97370895Y-81081405D01*
X97371304Y-80613595D01*
X97191872Y-80179335D01*
X96859913Y-79846796D01*
X96425966Y-79666606D01*
X95956095Y-79666196D01*
X95521835Y-79845628D01*
X95189296Y-80177587D01*
X95009106Y-80611534D01*
X95008696Y-81081405D01*
X94830895Y-81081405D01*
X94831304Y-80613595D01*
X94651872Y-80179335D01*
X94319913Y-79846796D01*
X93885966Y-79666606D01*
X93416095Y-79666196D01*
X92981835Y-79845628D01*
X92649296Y-80177587D01*
X92469106Y-80611534D01*
X92468696Y-81081405D01*
X92327022Y-81081405D01*
X92349935Y-81014573D01*
X92319487Y-80527352D01*
X92191615Y-80218642D01*
X92004010Y-80133095D01*
X91289605Y-80847500D01*
X90930395Y-80847500D01*
X90215990Y-80133095D01*
X90028385Y-80218642D01*
X89870065Y-80680427D01*
X89751245Y-80680427D01*
X89751304Y-80613595D01*
X89571872Y-80179335D01*
X89346421Y-79953490D01*
X90395595Y-79953490D01*
X91110000Y-80667895D01*
X91824405Y-79953490D01*
X91738858Y-79765885D01*
X91277073Y-79607565D01*
X90789852Y-79638013D01*
X90481142Y-79765885D01*
X90395595Y-79953490D01*
X89346421Y-79953490D01*
X89239913Y-79846796D01*
X88805966Y-79666606D01*
X88336095Y-79666196D01*
X87901835Y-79845628D01*
X87569296Y-80177587D01*
X87389106Y-80611534D01*
X87388696Y-81081405D01*
X85627000Y-81081405D01*
X85627000Y-80570390D01*
X88844295Y-78559581D01*
X90269112Y-77847220D01*
X92102095Y-77159851D01*
X92102095Y-78388500D01*
X97737905Y-78388500D01*
X97737905Y-76627000D01*
X106476970Y-76627000D01*
X109722721Y-77844157D01*
G36*
X101628990Y-109117015D02*
X101628365Y-109116740D01*
X100941605Y-109803500D01*
X101628365Y-110490260D01*
X101628990Y-110489985D01*
X101628990Y-113519563D01*
X100180999Y-114967553D01*
X100180999Y-110861965D01*
X100604043Y-111005459D01*
X101076037Y-110974413D01*
X101367903Y-110853518D01*
X101448760Y-110669865D01*
X100762000Y-109983105D01*
X100747858Y-109997248D01*
X100568253Y-109817643D01*
X100582395Y-109803500D01*
X100568253Y-109789358D01*
X100747858Y-109609753D01*
X100762000Y-109623895D01*
X101448760Y-108937135D01*
X101367903Y-108753482D01*
X101186612Y-108691989D01*
X101312644Y-108608406D01*
X101628990Y-108292060D01*
X101628990Y-109117015D01*
X101628990Y-109117015D01*
G37*
X101628990Y-109117015D02*
X101628365Y-109116740D01*
X100941605Y-109803500D01*
X101628365Y-110490260D01*
X101628990Y-110489985D01*
X101628990Y-113519563D01*
X100180999Y-114967553D01*
X100180999Y-110861965D01*
X100604043Y-111005459D01*
X101076037Y-110974413D01*
X101367903Y-110853518D01*
X101448760Y-110669865D01*
X100762000Y-109983105D01*
X100747858Y-109997248D01*
X100568253Y-109817643D01*
X100582395Y-109803500D01*
X100568253Y-109789358D01*
X100747858Y-109609753D01*
X100762000Y-109623895D01*
X101448760Y-108937135D01*
X101367903Y-108753482D01*
X101186612Y-108691989D01*
X101312644Y-108608406D01*
X101628990Y-108292060D01*
X101628990Y-109117015D01*
G36*
X105519536Y-106936448D02*
X105519536Y-107498500D01*
X105546103Y-107639690D01*
X105582501Y-107696255D01*
X105520134Y-107653641D01*
X105369000Y-107623036D01*
X105302597Y-107623036D01*
X105319000Y-107583436D01*
X105319000Y-107033750D01*
X105212250Y-106927000D01*
X104574500Y-106927000D01*
X104574500Y-106947000D01*
X104320500Y-106947000D01*
X104320500Y-106927000D01*
X104300500Y-106927000D01*
X104300500Y-106673000D01*
X104320500Y-106673000D01*
X104320500Y-106653000D01*
X104574500Y-106653000D01*
X104574500Y-106673000D01*
X105212250Y-106673000D01*
X105234169Y-106651081D01*
X105519536Y-106936448D01*
X105519536Y-106936448D01*
G37*
X105519536Y-106936448D02*
X105519536Y-107498500D01*
X105546103Y-107639690D01*
X105582501Y-107696255D01*
X105520134Y-107653641D01*
X105369000Y-107623036D01*
X105302597Y-107623036D01*
X105319000Y-107583436D01*
X105319000Y-107033750D01*
X105212250Y-106927000D01*
X104574500Y-106927000D01*
X104574500Y-106947000D01*
X104320500Y-106947000D01*
X104320500Y-106927000D01*
X104300500Y-106927000D01*
X104300500Y-106673000D01*
X104320500Y-106673000D01*
X104320500Y-106653000D01*
X104574500Y-106653000D01*
X104574500Y-106673000D01*
X105212250Y-106673000D01*
X105234169Y-106651081D01*
X105519536Y-106936448D01*
M02*
