G04 #@! TF.FileFunction,Soldermask,Top*
%FSLAX46Y46*%
G04 Gerber Fmt 4.6, Leading zero omitted, Abs format (unit mm)*
G04 Created by KiCad (PCBNEW (2015-08-30 BZR 6133)-product) date Sa 31 Okt 2015 12:30:55 CET*
%MOMM*%
G01*
G04 APERTURE LIST*
%ADD10C,0.100000*%
%ADD11C,1.600200*%
%ADD12C,1.651000*%
%ADD13C,1.524000*%
%ADD14R,1.524000X1.524000*%
%ADD15C,3.500000*%
%ADD16C,0.800000*%
%ADD17R,0.800000X0.800000*%
%ADD18O,0.800000X1.600000*%
%ADD19O,10.000000X5.001260*%
%ADD20O,5.001260X10.000000*%
G04 APERTURE END LIST*
D10*
D11*
X85485000Y-83860000D03*
D12*
X85485000Y-81320000D03*
D11*
X88025000Y-83860000D03*
X88025000Y-81320000D03*
X90565000Y-83860000D03*
X90565000Y-81320000D03*
X93105000Y-83860000D03*
X93105000Y-81320000D03*
X95645000Y-83860000D03*
X95645000Y-81320000D03*
X98185000Y-83860000D03*
X98185000Y-81320000D03*
D13*
X100725000Y-83860000D03*
X100725000Y-81320000D03*
X103265000Y-83860000D03*
X103265000Y-81320000D03*
X105805000Y-83860000D03*
X105805000Y-81320000D03*
X108345000Y-83860000D03*
D14*
X108345000Y-81320000D03*
D11*
X85455000Y-119420000D03*
D12*
X85485000Y-116880000D03*
D11*
X87995000Y-119420000D03*
X88025000Y-116880000D03*
X90535000Y-119420000D03*
X90565000Y-116880000D03*
X93075000Y-119420000D03*
X93105000Y-116880000D03*
X95615000Y-119420000D03*
X95645000Y-116880000D03*
X98155000Y-119420000D03*
X98185000Y-116880000D03*
D13*
X100695000Y-119420000D03*
X100725000Y-116880000D03*
X103265000Y-119420000D03*
X103265000Y-116880000D03*
X105775000Y-119420000D03*
X105805000Y-116880000D03*
X108315000Y-119420000D03*
D14*
X108345000Y-116880000D03*
D15*
X86405000Y-95290000D03*
D13*
X77230000Y-87670000D03*
X79770000Y-87670000D03*
X73420000Y-97830000D03*
X75960000Y-97830000D03*
X116600000Y-87670000D03*
X114060000Y-87670000D03*
X120410000Y-97830000D03*
X117870000Y-97830000D03*
X78500000Y-82590000D03*
X81040000Y-82590000D03*
X112790000Y-82590000D03*
X115330000Y-82590000D03*
D16*
X96915000Y-104180000D03*
D17*
X95615000Y-104180000D03*
D16*
X98215000Y-104180000D03*
X97565000Y-105180000D03*
X96265000Y-105180000D03*
D18*
X93340000Y-104080000D03*
X100490000Y-104080000D03*
D19*
X96915000Y-70370000D03*
D20*
X66915000Y-100370000D03*
X126915000Y-100370000D03*
D19*
X96915000Y-130370000D03*
D10*
G36*
X102796742Y-87663914D02*
X101808914Y-88651742D01*
X101180296Y-88023124D01*
X102168124Y-87035296D01*
X102796742Y-87663914D01*
X102796742Y-87663914D01*
G37*
G36*
X101449704Y-86316876D02*
X100461876Y-87304704D01*
X99833258Y-86676086D01*
X100821086Y-85688258D01*
X101449704Y-86316876D01*
X101449704Y-86316876D01*
G37*
M02*
