M48
METRIC,TZ
T1C0.400
T2C0.600
T3C0.686
T4C1.016
T5C2.500
T6C3.500
%
G90
G05
T1
X86777Y-113046
X88279Y-99354
X89041Y-89702
X90565Y-85892
X90843Y-110150
X91120Y-98020
X91762Y-106730
X92343Y-88432
X92558Y-92356
X92851Y-106720
X93105Y-112435
X93747Y-93504
X94375Y-99735
X94375Y-112435
X94677Y-93129
X95185Y-91523
X95333Y-89853
X95615Y-104180
X96265Y-105180
X96436Y-93317
X96915Y-104180
X97169Y-95798
X97436Y-93310
X97565Y-105180
X98215Y-104180
X98790Y-94632
X99455Y-93385
X100189Y-90992
X100725Y-112435
X101995Y-107355
X102875Y-86731
X103265Y-112435
X108345Y-91734
X108541Y-114735
X108853Y-92750
X112253Y-86204
T2
X75833Y-102656
X79643Y-102656
X88025Y-110276
X94326Y-105641
X97677Y-109006
X105297Y-110276
X107583Y-103926
X110724Y-94875
X110885Y-89912
X113425Y-110276
T3
X73420Y-97830
X75960Y-97830
X77230Y-87670
X78500Y-82590
X79770Y-87670
X81040Y-82590
X112790Y-82590
X114060Y-87670
X115330Y-82590
X116600Y-87670
X117870Y-97830
X120410Y-97830
T4
X85455Y-119420
X85485Y-81320
X85485Y-83860
X85485Y-116880
X87995Y-119420
X88025Y-81320
X88025Y-83860
X88025Y-116880
X90535Y-119420
X90565Y-81320
X90565Y-83860
X90565Y-116880
X93075Y-119420
X93105Y-81320
X93105Y-83860
X93105Y-116880
X95615Y-119420
X95645Y-81320
X95645Y-83860
X95645Y-116880
X98155Y-119420
X98185Y-81320
X98185Y-83860
X98185Y-116880
X100695Y-119420
X100725Y-81320
X100725Y-83860
X100725Y-116880
X103265Y-81320
X103265Y-83860
X103265Y-116880
X103265Y-119420
X105775Y-119420
X105805Y-81320
X105805Y-83860
X105805Y-116880
X108315Y-119420
X108345Y-81320
X108345Y-83860
X108345Y-116880
T5
X86405Y-95290
T1
X93340Y-103705G85X93340Y-104455
G05
X100490Y-103705G85X100490Y-104455
G05
T6
X66915Y-98620G85X66915Y-102120
G05
X95165Y-70370G85X98665Y-70370
G05
X95165Y-130370G85X98665Y-130370
G05
X126915Y-98620G85X126915Y-102120
G05
T0
M30
