G04 #@! TF.FileFunction,Soldermask,Bot*
%FSLAX46Y46*%
G04 Gerber Fmt 4.6, Leading zero omitted, Abs format (unit mm)*
G04 Created by KiCad (PCBNEW (2015-08-30 BZR 6133)-product) date Sa 31 Okt 2015 12:30:55 CET*
%MOMM*%
G01*
G04 APERTURE LIST*
%ADD10C,0.100000*%
%ADD11C,1.600200*%
%ADD12C,1.651000*%
%ADD13C,1.524000*%
%ADD14R,1.524000X1.524000*%
%ADD15C,3.500000*%
%ADD16R,1.600200X3.500120*%
%ADD17R,1.397000X0.889000*%
%ADD18R,0.889000X1.397000*%
%ADD19R,1.998980X4.500880*%
%ADD20R,0.508000X1.143000*%
%ADD21C,0.800000*%
%ADD22R,0.800000X0.800000*%
%ADD23O,0.800000X1.600000*%
%ADD24O,10.000000X5.001260*%
%ADD25O,5.001260X10.000000*%
G04 APERTURE END LIST*
D10*
D11*
X85485000Y-83860000D03*
D12*
X85485000Y-81320000D03*
D11*
X88025000Y-83860000D03*
X88025000Y-81320000D03*
X90565000Y-83860000D03*
X90565000Y-81320000D03*
X93105000Y-83860000D03*
X93105000Y-81320000D03*
X95645000Y-83860000D03*
X95645000Y-81320000D03*
X98185000Y-83860000D03*
X98185000Y-81320000D03*
D13*
X100725000Y-83860000D03*
X100725000Y-81320000D03*
X103265000Y-83860000D03*
X103265000Y-81320000D03*
X105805000Y-83860000D03*
X105805000Y-81320000D03*
X108345000Y-83860000D03*
D14*
X108345000Y-81320000D03*
D11*
X85455000Y-119420000D03*
D12*
X85485000Y-116880000D03*
D11*
X87995000Y-119420000D03*
X88025000Y-116880000D03*
X90535000Y-119420000D03*
X90565000Y-116880000D03*
X93075000Y-119420000D03*
X93105000Y-116880000D03*
X95615000Y-119420000D03*
X95645000Y-116880000D03*
X98155000Y-119420000D03*
X98185000Y-116880000D03*
D13*
X100695000Y-119420000D03*
X100725000Y-116880000D03*
X103265000Y-119420000D03*
X103265000Y-116880000D03*
X105775000Y-119420000D03*
X105805000Y-116880000D03*
X108315000Y-119420000D03*
D14*
X108345000Y-116880000D03*
D15*
X86405000Y-95290000D03*
D16*
X77865000Y-107014640D03*
X77865000Y-102615360D03*
D17*
X110885000Y-88622500D03*
X110885000Y-86717500D03*
X110885000Y-95607500D03*
X110885000Y-97512500D03*
D10*
G36*
X91097433Y-86784739D02*
X92085261Y-87772567D01*
X91456643Y-88401185D01*
X90468815Y-87413357D01*
X91097433Y-86784739D01*
X91097433Y-86784739D01*
G37*
G36*
X89750395Y-88131777D02*
X90738223Y-89119605D01*
X90109605Y-89748223D01*
X89121777Y-88760395D01*
X89750395Y-88131777D01*
X89750395Y-88131777D01*
G37*
D17*
X99455000Y-99417500D03*
X99455000Y-101322500D03*
X108980000Y-101957500D03*
X108980000Y-103862500D03*
X113425000Y-107037500D03*
X113425000Y-108942500D03*
X105170000Y-107037500D03*
X105170000Y-108942500D03*
X96280000Y-107037500D03*
X96280000Y-108942500D03*
X88025000Y-107037500D03*
X88025000Y-108942500D03*
X105805000Y-114022500D03*
X105805000Y-112117500D03*
X97550000Y-114022500D03*
X97550000Y-112117500D03*
X88660000Y-114022500D03*
X88660000Y-112117500D03*
X80405000Y-114022500D03*
X80405000Y-112117500D03*
D13*
X77230000Y-87670000D03*
X79770000Y-87670000D03*
X73420000Y-97830000D03*
X75960000Y-97830000D03*
X116600000Y-87670000D03*
X114060000Y-87670000D03*
X120410000Y-97830000D03*
X117870000Y-97830000D03*
X78500000Y-82590000D03*
X81040000Y-82590000D03*
X112790000Y-82590000D03*
X115330000Y-82590000D03*
D18*
X95962500Y-101005000D03*
X94057500Y-101005000D03*
D17*
X97550000Y-101322500D03*
X97550000Y-99417500D03*
X101360000Y-99417500D03*
X101360000Y-101322500D03*
X104281000Y-101322500D03*
X104281000Y-99417500D03*
D10*
G36*
X99878258Y-86541086D02*
X100866086Y-85553258D01*
X101494704Y-86181876D01*
X100506876Y-87169704D01*
X99878258Y-86541086D01*
X99878258Y-86541086D01*
G37*
G36*
X101225296Y-87888124D02*
X102213124Y-86900296D01*
X102841742Y-87528914D01*
X101853914Y-88516742D01*
X101225296Y-87888124D01*
X101225296Y-87888124D01*
G37*
D18*
X78182500Y-92115000D03*
X76277500Y-92115000D03*
X78182500Y-94020000D03*
X76277500Y-94020000D03*
X115647500Y-92115000D03*
X117552500Y-92115000D03*
X115647500Y-94020000D03*
X117552500Y-94020000D03*
X85802500Y-78780000D03*
X87707500Y-78780000D03*
X108027500Y-78780000D03*
X106122500Y-78780000D03*
D19*
X107075000Y-87865580D03*
X107075000Y-96364420D03*
D10*
G36*
X102483466Y-93617602D02*
X102306689Y-93794379D01*
X101387450Y-92875140D01*
X101564227Y-92698363D01*
X102483466Y-93617602D01*
X102483466Y-93617602D01*
G37*
G36*
X102129913Y-93971155D02*
X101953136Y-94147932D01*
X101033897Y-93228693D01*
X101210674Y-93051916D01*
X102129913Y-93971155D01*
X102129913Y-93971155D01*
G37*
G36*
X101776359Y-94324709D02*
X101599582Y-94501486D01*
X100680343Y-93582247D01*
X100857120Y-93405470D01*
X101776359Y-94324709D01*
X101776359Y-94324709D01*
G37*
G36*
X101422806Y-94678262D02*
X101246029Y-94855039D01*
X100326790Y-93935800D01*
X100503567Y-93759023D01*
X101422806Y-94678262D01*
X101422806Y-94678262D01*
G37*
G36*
X101069253Y-95031815D02*
X100892476Y-95208592D01*
X99973237Y-94289353D01*
X100150014Y-94112576D01*
X101069253Y-95031815D01*
X101069253Y-95031815D01*
G37*
G36*
X100715699Y-95385369D02*
X100538922Y-95562146D01*
X99619683Y-94642907D01*
X99796460Y-94466130D01*
X100715699Y-95385369D01*
X100715699Y-95385369D01*
G37*
G36*
X100362146Y-95738922D02*
X100185369Y-95915699D01*
X99266130Y-94996460D01*
X99442907Y-94819683D01*
X100362146Y-95738922D01*
X100362146Y-95738922D01*
G37*
G36*
X100008592Y-96092476D02*
X99831815Y-96269253D01*
X98912576Y-95350014D01*
X99089353Y-95173237D01*
X100008592Y-96092476D01*
X100008592Y-96092476D01*
G37*
G36*
X99655039Y-96446029D02*
X99478262Y-96622806D01*
X98559023Y-95703567D01*
X98735800Y-95526790D01*
X99655039Y-96446029D01*
X99655039Y-96446029D01*
G37*
G36*
X99301486Y-96799582D02*
X99124709Y-96976359D01*
X98205470Y-96057120D01*
X98382247Y-95880343D01*
X99301486Y-96799582D01*
X99301486Y-96799582D01*
G37*
G36*
X98947932Y-97153136D02*
X98771155Y-97329913D01*
X97851916Y-96410674D01*
X98028693Y-96233897D01*
X98947932Y-97153136D01*
X98947932Y-97153136D01*
G37*
G36*
X98594379Y-97506689D02*
X98417602Y-97683466D01*
X97498363Y-96764227D01*
X97675140Y-96587450D01*
X98594379Y-97506689D01*
X98594379Y-97506689D01*
G37*
G36*
X95412398Y-97683466D02*
X95235621Y-97506689D01*
X96154860Y-96587450D01*
X96331637Y-96764227D01*
X95412398Y-97683466D01*
X95412398Y-97683466D01*
G37*
G36*
X95058845Y-97329913D02*
X94882068Y-97153136D01*
X95801307Y-96233897D01*
X95978084Y-96410674D01*
X95058845Y-97329913D01*
X95058845Y-97329913D01*
G37*
G36*
X94705291Y-96976359D02*
X94528514Y-96799582D01*
X95447753Y-95880343D01*
X95624530Y-96057120D01*
X94705291Y-96976359D01*
X94705291Y-96976359D01*
G37*
G36*
X94351738Y-96622806D02*
X94174961Y-96446029D01*
X95094200Y-95526790D01*
X95270977Y-95703567D01*
X94351738Y-96622806D01*
X94351738Y-96622806D01*
G37*
G36*
X93998185Y-96269253D02*
X93821408Y-96092476D01*
X94740647Y-95173237D01*
X94917424Y-95350014D01*
X93998185Y-96269253D01*
X93998185Y-96269253D01*
G37*
G36*
X93644631Y-95915699D02*
X93467854Y-95738922D01*
X94387093Y-94819683D01*
X94563870Y-94996460D01*
X93644631Y-95915699D01*
X93644631Y-95915699D01*
G37*
G36*
X93291078Y-95562146D02*
X93114301Y-95385369D01*
X94033540Y-94466130D01*
X94210317Y-94642907D01*
X93291078Y-95562146D01*
X93291078Y-95562146D01*
G37*
G36*
X92937524Y-95208592D02*
X92760747Y-95031815D01*
X93679986Y-94112576D01*
X93856763Y-94289353D01*
X92937524Y-95208592D01*
X92937524Y-95208592D01*
G37*
G36*
X92583971Y-94855039D02*
X92407194Y-94678262D01*
X93326433Y-93759023D01*
X93503210Y-93935800D01*
X92583971Y-94855039D01*
X92583971Y-94855039D01*
G37*
G36*
X92230418Y-94501486D02*
X92053641Y-94324709D01*
X92972880Y-93405470D01*
X93149657Y-93582247D01*
X92230418Y-94501486D01*
X92230418Y-94501486D01*
G37*
G36*
X91876864Y-94147932D02*
X91700087Y-93971155D01*
X92619326Y-93051916D01*
X92796103Y-93228693D01*
X91876864Y-94147932D01*
X91876864Y-94147932D01*
G37*
G36*
X91523311Y-93794379D02*
X91346534Y-93617602D01*
X92265773Y-92698363D01*
X92442550Y-92875140D01*
X91523311Y-93794379D01*
X91523311Y-93794379D01*
G37*
G36*
X92442550Y-91354860D02*
X92265773Y-91531637D01*
X91346534Y-90612398D01*
X91523311Y-90435621D01*
X92442550Y-91354860D01*
X92442550Y-91354860D01*
G37*
G36*
X92796103Y-91001307D02*
X92619326Y-91178084D01*
X91700087Y-90258845D01*
X91876864Y-90082068D01*
X92796103Y-91001307D01*
X92796103Y-91001307D01*
G37*
G36*
X93149657Y-90647753D02*
X92972880Y-90824530D01*
X92053641Y-89905291D01*
X92230418Y-89728514D01*
X93149657Y-90647753D01*
X93149657Y-90647753D01*
G37*
G36*
X93503210Y-90294200D02*
X93326433Y-90470977D01*
X92407194Y-89551738D01*
X92583971Y-89374961D01*
X93503210Y-90294200D01*
X93503210Y-90294200D01*
G37*
G36*
X93856763Y-89940647D02*
X93679986Y-90117424D01*
X92760747Y-89198185D01*
X92937524Y-89021408D01*
X93856763Y-89940647D01*
X93856763Y-89940647D01*
G37*
G36*
X94210317Y-89587093D02*
X94033540Y-89763870D01*
X93114301Y-88844631D01*
X93291078Y-88667854D01*
X94210317Y-89587093D01*
X94210317Y-89587093D01*
G37*
G36*
X94563870Y-89233540D02*
X94387093Y-89410317D01*
X93467854Y-88491078D01*
X93644631Y-88314301D01*
X94563870Y-89233540D01*
X94563870Y-89233540D01*
G37*
G36*
X94917424Y-88879986D02*
X94740647Y-89056763D01*
X93821408Y-88137524D01*
X93998185Y-87960747D01*
X94917424Y-88879986D01*
X94917424Y-88879986D01*
G37*
G36*
X95270977Y-88526433D02*
X95094200Y-88703210D01*
X94174961Y-87783971D01*
X94351738Y-87607194D01*
X95270977Y-88526433D01*
X95270977Y-88526433D01*
G37*
G36*
X95624530Y-88172880D02*
X95447753Y-88349657D01*
X94528514Y-87430418D01*
X94705291Y-87253641D01*
X95624530Y-88172880D01*
X95624530Y-88172880D01*
G37*
G36*
X95978084Y-87819326D02*
X95801307Y-87996103D01*
X94882068Y-87076864D01*
X95058845Y-86900087D01*
X95978084Y-87819326D01*
X95978084Y-87819326D01*
G37*
G36*
X96331637Y-87465773D02*
X96154860Y-87642550D01*
X95235621Y-86723311D01*
X95412398Y-86546534D01*
X96331637Y-87465773D01*
X96331637Y-87465773D01*
G37*
G36*
X97675140Y-87642550D02*
X97498363Y-87465773D01*
X98417602Y-86546534D01*
X98594379Y-86723311D01*
X97675140Y-87642550D01*
X97675140Y-87642550D01*
G37*
G36*
X98028693Y-87996103D02*
X97851916Y-87819326D01*
X98771155Y-86900087D01*
X98947932Y-87076864D01*
X98028693Y-87996103D01*
X98028693Y-87996103D01*
G37*
G36*
X98382247Y-88349657D02*
X98205470Y-88172880D01*
X99124709Y-87253641D01*
X99301486Y-87430418D01*
X98382247Y-88349657D01*
X98382247Y-88349657D01*
G37*
G36*
X98735800Y-88703210D02*
X98559023Y-88526433D01*
X99478262Y-87607194D01*
X99655039Y-87783971D01*
X98735800Y-88703210D01*
X98735800Y-88703210D01*
G37*
G36*
X99089353Y-89056763D02*
X98912576Y-88879986D01*
X99831815Y-87960747D01*
X100008592Y-88137524D01*
X99089353Y-89056763D01*
X99089353Y-89056763D01*
G37*
G36*
X99442907Y-89410317D02*
X99266130Y-89233540D01*
X100185369Y-88314301D01*
X100362146Y-88491078D01*
X99442907Y-89410317D01*
X99442907Y-89410317D01*
G37*
G36*
X99796460Y-89763870D02*
X99619683Y-89587093D01*
X100538922Y-88667854D01*
X100715699Y-88844631D01*
X99796460Y-89763870D01*
X99796460Y-89763870D01*
G37*
G36*
X100150014Y-90117424D02*
X99973237Y-89940647D01*
X100892476Y-89021408D01*
X101069253Y-89198185D01*
X100150014Y-90117424D01*
X100150014Y-90117424D01*
G37*
G36*
X100503567Y-90470977D02*
X100326790Y-90294200D01*
X101246029Y-89374961D01*
X101422806Y-89551738D01*
X100503567Y-90470977D01*
X100503567Y-90470977D01*
G37*
G36*
X100857120Y-90824530D02*
X100680343Y-90647753D01*
X101599582Y-89728514D01*
X101776359Y-89905291D01*
X100857120Y-90824530D01*
X100857120Y-90824530D01*
G37*
G36*
X101210674Y-91178084D02*
X101033897Y-91001307D01*
X101953136Y-90082068D01*
X102129913Y-90258845D01*
X101210674Y-91178084D01*
X101210674Y-91178084D01*
G37*
G36*
X101564227Y-91531637D02*
X101387450Y-91354860D01*
X102306689Y-90435621D01*
X102483466Y-90612398D01*
X101564227Y-91531637D01*
X101564227Y-91531637D01*
G37*
D20*
X107710000Y-113832000D03*
X107710000Y-108498000D03*
X108980000Y-113832000D03*
X110250000Y-113832000D03*
X111520000Y-113832000D03*
X108980000Y-108498000D03*
X110250000Y-108498000D03*
X111520000Y-108498000D03*
X99455000Y-113832000D03*
X99455000Y-108498000D03*
X100725000Y-113832000D03*
X101995000Y-113832000D03*
X103265000Y-113832000D03*
X100725000Y-108498000D03*
X101995000Y-108498000D03*
X103265000Y-108498000D03*
X90565000Y-113832000D03*
X90565000Y-108498000D03*
X91835000Y-113832000D03*
X93105000Y-113832000D03*
X94375000Y-113832000D03*
X91835000Y-108498000D03*
X93105000Y-108498000D03*
X94375000Y-108498000D03*
X82310000Y-113832000D03*
X82310000Y-108498000D03*
X83580000Y-113832000D03*
X84850000Y-113832000D03*
X86120000Y-113832000D03*
X83580000Y-108498000D03*
X84850000Y-108498000D03*
X86120000Y-108498000D03*
D21*
X96915000Y-104180000D03*
D22*
X95615000Y-104180000D03*
D21*
X98215000Y-104180000D03*
X97565000Y-105180000D03*
X96265000Y-105180000D03*
D23*
X93340000Y-104080000D03*
X100490000Y-104080000D03*
D24*
X96915000Y-70370000D03*
D25*
X66915000Y-100370000D03*
X126915000Y-100370000D03*
D24*
X96915000Y-130370000D03*
M02*
