G04 #@! TF.FileFunction,Legend,Top*
%FSLAX46Y46*%
G04 Gerber Fmt 4.6, Leading zero omitted, Abs format (unit mm)*
G04 Created by KiCad (PCBNEW (2015-08-30 BZR 6133)-product) date Sa 31 Okt 2015 12:30:55 CET*
%MOMM*%
G01*
G04 APERTURE LIST*
%ADD10C,0.100000*%
%ADD11C,0.150000*%
%ADD12C,0.254000*%
%ADD13C,0.152400*%
%ADD14C,0.127000*%
%ADD15C,0.101600*%
G04 APERTURE END LIST*
D10*
D11*
X64726905Y-68981905D02*
X64726905Y-68181905D01*
X65184048Y-68981905D02*
X64841191Y-68524762D01*
X65184048Y-68181905D02*
X64726905Y-68639048D01*
X65679286Y-68181905D02*
X65831667Y-68181905D01*
X65907858Y-68220000D01*
X65984048Y-68296190D01*
X66022143Y-68448571D01*
X66022143Y-68715238D01*
X65984048Y-68867619D01*
X65907858Y-68943810D01*
X65831667Y-68981905D01*
X65679286Y-68981905D01*
X65603096Y-68943810D01*
X65526905Y-68867619D01*
X65488810Y-68715238D01*
X65488810Y-68448571D01*
X65526905Y-68296190D01*
X65603096Y-68220000D01*
X65679286Y-68181905D01*
X66365000Y-68562857D02*
X66631667Y-68562857D01*
X66745953Y-68981905D02*
X66365000Y-68981905D01*
X66365000Y-68181905D01*
X66745953Y-68181905D01*
X67012620Y-68181905D02*
X67203096Y-68981905D01*
X67355477Y-68410476D01*
X67507858Y-68981905D01*
X67698334Y-68181905D01*
X68003096Y-68981905D02*
X68003096Y-68181905D01*
X68650715Y-68562857D02*
X68765001Y-68600952D01*
X68803096Y-68639048D01*
X68841191Y-68715238D01*
X68841191Y-68829524D01*
X68803096Y-68905714D01*
X68765001Y-68943810D01*
X68688810Y-68981905D01*
X68384048Y-68981905D01*
X68384048Y-68181905D01*
X68650715Y-68181905D01*
X68726905Y-68220000D01*
X68765001Y-68258095D01*
X68803096Y-68334286D01*
X68803096Y-68410476D01*
X68765001Y-68486667D01*
X68726905Y-68524762D01*
X68650715Y-68562857D01*
X68384048Y-68562857D01*
X69145953Y-68753333D02*
X69526905Y-68753333D01*
X69069762Y-68981905D02*
X69336429Y-68181905D01*
X69603096Y-68981905D01*
X70745953Y-68562857D02*
X70860239Y-68600952D01*
X70898334Y-68639048D01*
X70936429Y-68715238D01*
X70936429Y-68829524D01*
X70898334Y-68905714D01*
X70860239Y-68943810D01*
X70784048Y-68981905D01*
X70479286Y-68981905D01*
X70479286Y-68181905D01*
X70745953Y-68181905D01*
X70822143Y-68220000D01*
X70860239Y-68258095D01*
X70898334Y-68334286D01*
X70898334Y-68410476D01*
X70860239Y-68486667D01*
X70822143Y-68524762D01*
X70745953Y-68562857D01*
X70479286Y-68562857D01*
X71279286Y-68181905D02*
X71279286Y-68829524D01*
X71317381Y-68905714D01*
X71355477Y-68943810D01*
X71431667Y-68981905D01*
X71584048Y-68981905D01*
X71660239Y-68943810D01*
X71698334Y-68905714D01*
X71736429Y-68829524D01*
X71736429Y-68181905D01*
X72079286Y-68943810D02*
X72193572Y-68981905D01*
X72384048Y-68981905D01*
X72460238Y-68943810D01*
X72498334Y-68905714D01*
X72536429Y-68829524D01*
X72536429Y-68753333D01*
X72498334Y-68677143D01*
X72460238Y-68639048D01*
X72384048Y-68600952D01*
X72231667Y-68562857D01*
X72155476Y-68524762D01*
X72117381Y-68486667D01*
X72079286Y-68410476D01*
X72079286Y-68334286D01*
X72117381Y-68258095D01*
X72155476Y-68220000D01*
X72231667Y-68181905D01*
X72422143Y-68181905D01*
X72536429Y-68220000D01*
X72879286Y-68677143D02*
X73488810Y-68677143D01*
X74288810Y-68220000D02*
X74212619Y-68181905D01*
X74098334Y-68181905D01*
X73984048Y-68220000D01*
X73907857Y-68296190D01*
X73869762Y-68372381D01*
X73831667Y-68524762D01*
X73831667Y-68639048D01*
X73869762Y-68791429D01*
X73907857Y-68867619D01*
X73984048Y-68943810D01*
X74098334Y-68981905D01*
X74174524Y-68981905D01*
X74288810Y-68943810D01*
X74326905Y-68905714D01*
X74326905Y-68639048D01*
X74174524Y-68639048D01*
X74631667Y-68753333D02*
X75012619Y-68753333D01*
X74555476Y-68981905D02*
X74822143Y-68181905D01*
X75088810Y-68981905D01*
X75241190Y-68181905D02*
X75698333Y-68181905D01*
X75469762Y-68981905D02*
X75469762Y-68181905D01*
X75965000Y-68562857D02*
X76231667Y-68562857D01*
X76345953Y-68981905D02*
X75965000Y-68981905D01*
X75965000Y-68181905D01*
X76345953Y-68181905D01*
X76612620Y-68181905D02*
X76803096Y-68981905D01*
X76955477Y-68410476D01*
X77107858Y-68981905D01*
X77298334Y-68181905D01*
X77565001Y-68753333D02*
X77945953Y-68753333D01*
X77488810Y-68981905D02*
X77755477Y-68181905D01*
X78022144Y-68981905D01*
X78441191Y-68600952D02*
X78441191Y-68981905D01*
X78174524Y-68181905D02*
X78441191Y-68600952D01*
X78707858Y-68181905D01*
X79584048Y-68181905D02*
X79584048Y-68829524D01*
X79622143Y-68905714D01*
X79660239Y-68943810D01*
X79736429Y-68981905D01*
X79888810Y-68981905D01*
X79965001Y-68943810D01*
X80003096Y-68905714D01*
X80041191Y-68829524D01*
X80041191Y-68181905D01*
X80384048Y-68943810D02*
X80498334Y-68981905D01*
X80688810Y-68981905D01*
X80765000Y-68943810D01*
X80803096Y-68905714D01*
X80841191Y-68829524D01*
X80841191Y-68753333D01*
X80803096Y-68677143D01*
X80765000Y-68639048D01*
X80688810Y-68600952D01*
X80536429Y-68562857D01*
X80460238Y-68524762D01*
X80422143Y-68486667D01*
X80384048Y-68410476D01*
X80384048Y-68334286D01*
X80422143Y-68258095D01*
X80460238Y-68220000D01*
X80536429Y-68181905D01*
X80726905Y-68181905D01*
X80841191Y-68220000D01*
X81450715Y-68562857D02*
X81565001Y-68600952D01*
X81603096Y-68639048D01*
X81641191Y-68715238D01*
X81641191Y-68829524D01*
X81603096Y-68905714D01*
X81565001Y-68943810D01*
X81488810Y-68981905D01*
X81184048Y-68981905D01*
X81184048Y-68181905D01*
X81450715Y-68181905D01*
X81526905Y-68220000D01*
X81565001Y-68258095D01*
X81603096Y-68334286D01*
X81603096Y-68410476D01*
X81565001Y-68486667D01*
X81526905Y-68524762D01*
X81450715Y-68562857D01*
X81184048Y-68562857D01*
X69627780Y-75119860D02*
X69988460Y-76590520D01*
X69988460Y-76590520D02*
X70267860Y-75528800D01*
X70267860Y-75528800D02*
X70577740Y-76600680D01*
X70577740Y-76600680D02*
X70918100Y-75150340D01*
X68207920Y-75810740D02*
X68997860Y-75800580D01*
X68997860Y-75800580D02*
X69008020Y-75810740D01*
X69008020Y-75810740D02*
X69008020Y-75800580D01*
X69048660Y-75089380D02*
X69048660Y-76631160D01*
X68159660Y-75079220D02*
X68159660Y-76648940D01*
X68159660Y-76648940D02*
X68169820Y-76638780D01*
X67608480Y-75180820D02*
X67257960Y-75099540D01*
X67257960Y-75099540D02*
X66937920Y-75089380D01*
X66937920Y-75089380D02*
X66699160Y-75290040D01*
X66699160Y-75290040D02*
X66668680Y-75559280D01*
X66668680Y-75559280D02*
X66909980Y-75800580D01*
X66909980Y-75800580D02*
X67298600Y-75930120D01*
X67298600Y-75930120D02*
X67478940Y-76090140D01*
X67478940Y-76090140D02*
X67519580Y-76389860D01*
X67519580Y-76389860D02*
X67288440Y-76610840D01*
X67288440Y-76610840D02*
X66968400Y-76638780D01*
X66968400Y-76638780D02*
X66617880Y-76529560D01*
X65579020Y-75079220D02*
X65330100Y-75099540D01*
X65330100Y-75099540D02*
X65088800Y-75340840D01*
X65088800Y-75340840D02*
X64999900Y-75831060D01*
X64999900Y-75831060D02*
X65027840Y-76179040D01*
X65027840Y-76179040D02*
X65228500Y-76499080D01*
X65228500Y-76499080D02*
X65479960Y-76621000D01*
X65479960Y-76621000D02*
X65789840Y-76549880D01*
X65789840Y-76549880D02*
X66008280Y-76369540D01*
X66008280Y-76369540D02*
X66079400Y-75909800D01*
X66079400Y-75909800D02*
X66028600Y-75500860D01*
X66028600Y-75500860D02*
X65919380Y-75218920D01*
X65919380Y-75218920D02*
X65558700Y-75089380D01*
X66178460Y-73359640D02*
X65919380Y-73920980D01*
X65919380Y-73920980D02*
X66457860Y-74439140D01*
X66457860Y-74439140D02*
X66978560Y-74169900D01*
X66978560Y-74169900D02*
X67257960Y-74329920D01*
X68698140Y-74309600D02*
X69028340Y-74119100D01*
X69028340Y-74119100D02*
X69467760Y-74449300D01*
X69467760Y-74449300D02*
X69940200Y-73959080D01*
X69940200Y-73959080D02*
X69658260Y-73479020D01*
X69658260Y-73479020D02*
X69848760Y-73009120D01*
X69848760Y-73009120D02*
X70458360Y-72821160D01*
X70458360Y-72821160D02*
X70458360Y-72140440D01*
X70458360Y-72140440D02*
X69899560Y-72000740D01*
X69899560Y-72000740D02*
X69698900Y-71429240D01*
X69698900Y-71429240D02*
X69968140Y-70959340D01*
X69968140Y-70959340D02*
X69498240Y-70448800D01*
X69498240Y-70448800D02*
X68980080Y-70710420D01*
X68980080Y-70710420D02*
X68510180Y-70509760D01*
X68510180Y-70509760D02*
X68340000Y-69968740D01*
X68340000Y-69968740D02*
X67649120Y-69950960D01*
X67649120Y-69950960D02*
X67438300Y-70499600D01*
X67438300Y-70499600D02*
X67019200Y-70669780D01*
X67019200Y-70669780D02*
X66468020Y-70400540D01*
X66468020Y-70400540D02*
X65949860Y-70928860D01*
X65949860Y-70928860D02*
X66198780Y-71469880D01*
X66198780Y-71469880D02*
X66028600Y-71949940D01*
X66028600Y-71949940D02*
X65479960Y-72049000D01*
X65479960Y-72049000D02*
X65469800Y-72750040D01*
X65469800Y-72750040D02*
X66028600Y-72950700D01*
X66028600Y-72950700D02*
X66168300Y-73349480D01*
X68309520Y-73329160D02*
X68609240Y-73179300D01*
X68609240Y-73179300D02*
X68809900Y-72981180D01*
X68809900Y-72981180D02*
X68959760Y-72579860D01*
X68959760Y-72579860D02*
X68959760Y-72181080D01*
X68959760Y-72181080D02*
X68809900Y-71830560D01*
X68809900Y-71830560D02*
X68357780Y-71480040D01*
X68357780Y-71480040D02*
X67908200Y-71429240D01*
X67908200Y-71429240D02*
X67509420Y-71530840D01*
X67509420Y-71530840D02*
X67108100Y-71878820D01*
X67108100Y-71878820D02*
X66958240Y-72330940D01*
X66958240Y-72330940D02*
X67009040Y-72828780D01*
X67009040Y-72828780D02*
X67257960Y-73131040D01*
X67257960Y-73131040D02*
X67608480Y-73329160D01*
X67608480Y-73329160D02*
X67257960Y-74329920D01*
X68309520Y-73329160D02*
X68708300Y-74329920D01*
D12*
X80328800Y-88940000D02*
X80328800Y-86400000D01*
D13*
X77583136Y-86694473D02*
G75*
G03X77230000Y-87670000I1170864J-975527D01*
G01*
X77231889Y-87670469D02*
G75*
G03X77616080Y-88680920I1522111J469D01*
G01*
X80276147Y-87669966D02*
G75*
G03X79909700Y-86679400I-1522147J-34D01*
G01*
X79924864Y-88645527D02*
G75*
G03X80278000Y-87670000I-1170864J975527D01*
G01*
X79993166Y-86782845D02*
G75*
G03X78754000Y-86146000I-1239166J-887155D01*
G01*
X78753199Y-86146000D02*
G75*
G03X77534800Y-86755600I801J-1524000D01*
G01*
X78754442Y-89192206D02*
G75*
G03X79955420Y-88604720I-442J1522206D01*
G01*
X77551436Y-88606171D02*
G75*
G03X78754000Y-89194000I1202564J936171D01*
G01*
X78754000Y-87035000D02*
G75*
G03X78119000Y-87670000I0J-635000D01*
G01*
X78754000Y-86654000D02*
G75*
G03X77738000Y-87670000I0J-1016000D01*
G01*
X78754000Y-88305000D02*
G75*
G03X79389000Y-87670000I0J635000D01*
G01*
X78754000Y-88686000D02*
G75*
G03X79770000Y-87670000I0J1016000D01*
G01*
D12*
X80312880Y-86366574D02*
G75*
G03X78754000Y-85638000I-1558880J-1303426D01*
G01*
X78753025Y-85640540D02*
G75*
G03X76963300Y-86714960I975J-2029460D01*
G01*
X78756552Y-89699386D02*
G75*
G03X80303400Y-88980640I-2552J2029386D01*
G01*
X76990701Y-88679851D02*
G75*
G03X78754000Y-89702000I1763299J1009851D01*
G01*
X76964870Y-86706653D02*
G75*
G03X76722000Y-87670000I1789130J-963347D01*
G01*
X76723077Y-87670100D02*
G75*
G03X77024260Y-88734260I2030923J100D01*
G01*
X76518800Y-99100000D02*
X76518800Y-96560000D01*
D13*
X73773136Y-96854473D02*
G75*
G03X73420000Y-97830000I1170864J-975527D01*
G01*
X73421889Y-97830469D02*
G75*
G03X73806080Y-98840920I1522111J469D01*
G01*
X76466147Y-97829966D02*
G75*
G03X76099700Y-96839400I-1522147J-34D01*
G01*
X76114864Y-98805527D02*
G75*
G03X76468000Y-97830000I-1170864J975527D01*
G01*
X76183166Y-96942845D02*
G75*
G03X74944000Y-96306000I-1239166J-887155D01*
G01*
X74943199Y-96306000D02*
G75*
G03X73724800Y-96915600I801J-1524000D01*
G01*
X74944442Y-99352206D02*
G75*
G03X76145420Y-98764720I-442J1522206D01*
G01*
X73741436Y-98766171D02*
G75*
G03X74944000Y-99354000I1202564J936171D01*
G01*
X74944000Y-97195000D02*
G75*
G03X74309000Y-97830000I0J-635000D01*
G01*
X74944000Y-96814000D02*
G75*
G03X73928000Y-97830000I0J-1016000D01*
G01*
X74944000Y-98465000D02*
G75*
G03X75579000Y-97830000I0J635000D01*
G01*
X74944000Y-98846000D02*
G75*
G03X75960000Y-97830000I0J1016000D01*
G01*
D12*
X76502880Y-96526574D02*
G75*
G03X74944000Y-95798000I-1558880J-1303426D01*
G01*
X74943025Y-95800540D02*
G75*
G03X73153300Y-96874960I975J-2029460D01*
G01*
X74946552Y-99859386D02*
G75*
G03X76493400Y-99140640I-2552J2029386D01*
G01*
X73180701Y-98839851D02*
G75*
G03X74944000Y-99862000I1763299J1009851D01*
G01*
X73154870Y-96866653D02*
G75*
G03X72912000Y-97830000I1789130J-963347D01*
G01*
X72913077Y-97830100D02*
G75*
G03X73214260Y-98894260I2030923J100D01*
G01*
X113501200Y-86400000D02*
X113501200Y-88940000D01*
D13*
X116246864Y-88645527D02*
G75*
G03X116600000Y-87670000I-1170864J975527D01*
G01*
X116598111Y-87669531D02*
G75*
G03X116213920Y-86659080I-1522111J-469D01*
G01*
X113553853Y-87670034D02*
G75*
G03X113920300Y-88660600I1522147J34D01*
G01*
X113905136Y-86694473D02*
G75*
G03X113552000Y-87670000I1170864J-975527D01*
G01*
X113836834Y-88557155D02*
G75*
G03X115076000Y-89194000I1239166J887155D01*
G01*
X115076801Y-89194000D02*
G75*
G03X116295200Y-88584400I-801J1524000D01*
G01*
X115075558Y-86147794D02*
G75*
G03X113874580Y-86735280I442J-1522206D01*
G01*
X116278564Y-86733829D02*
G75*
G03X115076000Y-86146000I-1202564J-936171D01*
G01*
X115076000Y-88305000D02*
G75*
G03X115711000Y-87670000I0J635000D01*
G01*
X115076000Y-88686000D02*
G75*
G03X116092000Y-87670000I0J1016000D01*
G01*
X115076000Y-87035000D02*
G75*
G03X114441000Y-87670000I0J-635000D01*
G01*
X115076000Y-86654000D02*
G75*
G03X114060000Y-87670000I0J-1016000D01*
G01*
D12*
X113517120Y-88973426D02*
G75*
G03X115076000Y-89702000I1558880J1303426D01*
G01*
X115076975Y-89699460D02*
G75*
G03X116866700Y-88625040I-975J2029460D01*
G01*
X115073448Y-85640614D02*
G75*
G03X113526600Y-86359360I2552J-2029386D01*
G01*
X116839299Y-86660149D02*
G75*
G03X115076000Y-85638000I-1763299J-1009851D01*
G01*
X116865130Y-88633347D02*
G75*
G03X117108000Y-87670000I-1789130J963347D01*
G01*
X117106923Y-87669900D02*
G75*
G03X116805740Y-86605740I-2030923J-100D01*
G01*
X117311200Y-96560000D02*
X117311200Y-99100000D01*
D13*
X120056864Y-98805527D02*
G75*
G03X120410000Y-97830000I-1170864J975527D01*
G01*
X120408111Y-97829531D02*
G75*
G03X120023920Y-96819080I-1522111J-469D01*
G01*
X117363853Y-97830034D02*
G75*
G03X117730300Y-98820600I1522147J34D01*
G01*
X117715136Y-96854473D02*
G75*
G03X117362000Y-97830000I1170864J-975527D01*
G01*
X117646834Y-98717155D02*
G75*
G03X118886000Y-99354000I1239166J887155D01*
G01*
X118886801Y-99354000D02*
G75*
G03X120105200Y-98744400I-801J1524000D01*
G01*
X118885558Y-96307794D02*
G75*
G03X117684580Y-96895280I442J-1522206D01*
G01*
X120088564Y-96893829D02*
G75*
G03X118886000Y-96306000I-1202564J-936171D01*
G01*
X118886000Y-98465000D02*
G75*
G03X119521000Y-97830000I0J635000D01*
G01*
X118886000Y-98846000D02*
G75*
G03X119902000Y-97830000I0J1016000D01*
G01*
X118886000Y-97195000D02*
G75*
G03X118251000Y-97830000I0J-635000D01*
G01*
X118886000Y-96814000D02*
G75*
G03X117870000Y-97830000I0J-1016000D01*
G01*
D12*
X117327120Y-99133426D02*
G75*
G03X118886000Y-99862000I1558880J1303426D01*
G01*
X118886975Y-99859460D02*
G75*
G03X120676700Y-98785040I-975J2029460D01*
G01*
X118883448Y-95800614D02*
G75*
G03X117336600Y-96519360I2552J-2029386D01*
G01*
X120649299Y-96820149D02*
G75*
G03X118886000Y-95798000I-1763299J-1009851D01*
G01*
X120675130Y-98793347D02*
G75*
G03X120918000Y-97830000I-1789130J963347D01*
G01*
X120916923Y-97829900D02*
G75*
G03X120615740Y-96765740I-2030923J-100D01*
G01*
X81598800Y-83860000D02*
X81598800Y-81320000D01*
D13*
X78853136Y-81614473D02*
G75*
G03X78500000Y-82590000I1170864J-975527D01*
G01*
X78501889Y-82590469D02*
G75*
G03X78886080Y-83600920I1522111J469D01*
G01*
X81546147Y-82589966D02*
G75*
G03X81179700Y-81599400I-1522147J-34D01*
G01*
X81194864Y-83565527D02*
G75*
G03X81548000Y-82590000I-1170864J975527D01*
G01*
X81263166Y-81702845D02*
G75*
G03X80024000Y-81066000I-1239166J-887155D01*
G01*
X80023199Y-81066000D02*
G75*
G03X78804800Y-81675600I801J-1524000D01*
G01*
X80024442Y-84112206D02*
G75*
G03X81225420Y-83524720I-442J1522206D01*
G01*
X78821436Y-83526171D02*
G75*
G03X80024000Y-84114000I1202564J936171D01*
G01*
X80024000Y-81955000D02*
G75*
G03X79389000Y-82590000I0J-635000D01*
G01*
X80024000Y-81574000D02*
G75*
G03X79008000Y-82590000I0J-1016000D01*
G01*
X80024000Y-83225000D02*
G75*
G03X80659000Y-82590000I0J635000D01*
G01*
X80024000Y-83606000D02*
G75*
G03X81040000Y-82590000I0J1016000D01*
G01*
D12*
X81582880Y-81286574D02*
G75*
G03X80024000Y-80558000I-1558880J-1303426D01*
G01*
X80023025Y-80560540D02*
G75*
G03X78233300Y-81634960I975J-2029460D01*
G01*
X80026552Y-84619386D02*
G75*
G03X81573400Y-83900640I-2552J2029386D01*
G01*
X78260701Y-83599851D02*
G75*
G03X80024000Y-84622000I1763299J1009851D01*
G01*
X78234870Y-81626653D02*
G75*
G03X77992000Y-82590000I1789130J-963347D01*
G01*
X77993077Y-82590100D02*
G75*
G03X78294260Y-83654260I2030923J100D01*
G01*
X115888800Y-83860000D02*
X115888800Y-81320000D01*
D13*
X113143136Y-81614473D02*
G75*
G03X112790000Y-82590000I1170864J-975527D01*
G01*
X112791889Y-82590469D02*
G75*
G03X113176080Y-83600920I1522111J469D01*
G01*
X115836147Y-82589966D02*
G75*
G03X115469700Y-81599400I-1522147J-34D01*
G01*
X115484864Y-83565527D02*
G75*
G03X115838000Y-82590000I-1170864J975527D01*
G01*
X115553166Y-81702845D02*
G75*
G03X114314000Y-81066000I-1239166J-887155D01*
G01*
X114313199Y-81066000D02*
G75*
G03X113094800Y-81675600I801J-1524000D01*
G01*
X114314442Y-84112206D02*
G75*
G03X115515420Y-83524720I-442J1522206D01*
G01*
X113111436Y-83526171D02*
G75*
G03X114314000Y-84114000I1202564J936171D01*
G01*
X114314000Y-81955000D02*
G75*
G03X113679000Y-82590000I0J-635000D01*
G01*
X114314000Y-81574000D02*
G75*
G03X113298000Y-82590000I0J-1016000D01*
G01*
X114314000Y-83225000D02*
G75*
G03X114949000Y-82590000I0J635000D01*
G01*
X114314000Y-83606000D02*
G75*
G03X115330000Y-82590000I0J1016000D01*
G01*
D12*
X115872880Y-81286574D02*
G75*
G03X114314000Y-80558000I-1558880J-1303426D01*
G01*
X114313025Y-80560540D02*
G75*
G03X112523300Y-81634960I975J-2029460D01*
G01*
X114316552Y-84619386D02*
G75*
G03X115863400Y-83900640I-2552J2029386D01*
G01*
X112550701Y-83599851D02*
G75*
G03X114314000Y-84622000I1763299J1009851D01*
G01*
X112524870Y-81626653D02*
G75*
G03X112282000Y-82590000I1789130J-963347D01*
G01*
X112283077Y-82590100D02*
G75*
G03X112584260Y-83654260I2030923J100D01*
G01*
D11*
X100365000Y-102380000D02*
X100365000Y-103080000D01*
X93465000Y-102380000D02*
X93465000Y-103080000D01*
X100365000Y-106380000D02*
X100365000Y-105080000D01*
X100365000Y-106380000D02*
X93465000Y-106380000D01*
X93465000Y-106380000D02*
X93465000Y-105080000D01*
X93465000Y-102380000D02*
X100365000Y-102380000D01*
D12*
X91835000Y-72910000D02*
X91835000Y-67830000D01*
X91835000Y-67830000D02*
X101995000Y-67830000D01*
X101995000Y-67830000D02*
X101995000Y-72910000D01*
X101995000Y-72910000D02*
X91835000Y-72910000D01*
X64375000Y-95290000D02*
X69455000Y-95290000D01*
X69455000Y-95290000D02*
X69455000Y-105450000D01*
X69455000Y-105450000D02*
X64375000Y-105450000D01*
X64375000Y-105450000D02*
X64375000Y-95290000D01*
X124375000Y-95290000D02*
X129455000Y-95290000D01*
X129455000Y-95290000D02*
X129455000Y-105450000D01*
X129455000Y-105450000D02*
X124375000Y-105450000D01*
X124375000Y-105450000D02*
X124375000Y-95290000D01*
X91835000Y-132910000D02*
X91835000Y-127830000D01*
X91835000Y-127830000D02*
X101995000Y-127830000D01*
X101995000Y-127830000D02*
X101995000Y-132910000D01*
X101995000Y-132910000D02*
X91835000Y-132910000D01*
D14*
X102213026Y-86990395D02*
X102931446Y-87708815D01*
X102931446Y-87708815D02*
X101853815Y-88786446D01*
X101853815Y-88786446D02*
X101135395Y-88068026D01*
X100416974Y-87349605D02*
X99698554Y-86631185D01*
X99698554Y-86631185D02*
X100776185Y-85553554D01*
X100776185Y-85553554D02*
X101494605Y-86271974D01*
D11*
X81190905Y-88122381D02*
X81190905Y-87122381D01*
X81429000Y-87122381D01*
X81571858Y-87170000D01*
X81667096Y-87265238D01*
X81714715Y-87360476D01*
X81762334Y-87550952D01*
X81762334Y-87693810D01*
X81714715Y-87884286D01*
X81667096Y-87979524D01*
X81571858Y-88074762D01*
X81429000Y-88122381D01*
X81190905Y-88122381D01*
X82714715Y-88122381D02*
X82143286Y-88122381D01*
X82429000Y-88122381D02*
X82429000Y-87122381D01*
X82333762Y-87265238D01*
X82238524Y-87360476D01*
X82143286Y-87408095D01*
X77380905Y-98282381D02*
X77380905Y-97282381D01*
X77619000Y-97282381D01*
X77761858Y-97330000D01*
X77857096Y-97425238D01*
X77904715Y-97520476D01*
X77952334Y-97710952D01*
X77952334Y-97853810D01*
X77904715Y-98044286D01*
X77857096Y-98139524D01*
X77761858Y-98234762D01*
X77619000Y-98282381D01*
X77380905Y-98282381D01*
X78333286Y-97377619D02*
X78380905Y-97330000D01*
X78476143Y-97282381D01*
X78714239Y-97282381D01*
X78809477Y-97330000D01*
X78857096Y-97377619D01*
X78904715Y-97472857D01*
X78904715Y-97568095D01*
X78857096Y-97710952D01*
X78285667Y-98282381D01*
X78904715Y-98282381D01*
X111416905Y-88122381D02*
X111416905Y-87122381D01*
X111655000Y-87122381D01*
X111797858Y-87170000D01*
X111893096Y-87265238D01*
X111940715Y-87360476D01*
X111988334Y-87550952D01*
X111988334Y-87693810D01*
X111940715Y-87884286D01*
X111893096Y-87979524D01*
X111797858Y-88074762D01*
X111655000Y-88122381D01*
X111416905Y-88122381D01*
X112321667Y-87122381D02*
X112940715Y-87122381D01*
X112607381Y-87503333D01*
X112750239Y-87503333D01*
X112845477Y-87550952D01*
X112893096Y-87598571D01*
X112940715Y-87693810D01*
X112940715Y-87931905D01*
X112893096Y-88027143D01*
X112845477Y-88074762D01*
X112750239Y-88122381D01*
X112464524Y-88122381D01*
X112369286Y-88074762D01*
X112321667Y-88027143D01*
X114972905Y-98282381D02*
X114972905Y-97282381D01*
X115211000Y-97282381D01*
X115353858Y-97330000D01*
X115449096Y-97425238D01*
X115496715Y-97520476D01*
X115544334Y-97710952D01*
X115544334Y-97853810D01*
X115496715Y-98044286D01*
X115449096Y-98139524D01*
X115353858Y-98234762D01*
X115211000Y-98282381D01*
X114972905Y-98282381D01*
X116401477Y-97615714D02*
X116401477Y-98282381D01*
X116163381Y-97234762D02*
X115925286Y-97949048D01*
X116544334Y-97949048D01*
X82460905Y-83042381D02*
X82460905Y-82042381D01*
X82699000Y-82042381D01*
X82841858Y-82090000D01*
X82937096Y-82185238D01*
X82984715Y-82280476D01*
X83032334Y-82470952D01*
X83032334Y-82613810D01*
X82984715Y-82804286D01*
X82937096Y-82899524D01*
X82841858Y-82994762D01*
X82699000Y-83042381D01*
X82460905Y-83042381D01*
X83937096Y-82042381D02*
X83460905Y-82042381D01*
X83413286Y-82518571D01*
X83460905Y-82470952D01*
X83556143Y-82423333D01*
X83794239Y-82423333D01*
X83889477Y-82470952D01*
X83937096Y-82518571D01*
X83984715Y-82613810D01*
X83984715Y-82851905D01*
X83937096Y-82947143D01*
X83889477Y-82994762D01*
X83794239Y-83042381D01*
X83556143Y-83042381D01*
X83460905Y-82994762D01*
X83413286Y-82947143D01*
X116750905Y-83042381D02*
X116750905Y-82042381D01*
X116989000Y-82042381D01*
X117131858Y-82090000D01*
X117227096Y-82185238D01*
X117274715Y-82280476D01*
X117322334Y-82470952D01*
X117322334Y-82613810D01*
X117274715Y-82804286D01*
X117227096Y-82899524D01*
X117131858Y-82994762D01*
X116989000Y-83042381D01*
X116750905Y-83042381D01*
X118179477Y-82042381D02*
X117989000Y-82042381D01*
X117893762Y-82090000D01*
X117846143Y-82137619D01*
X117750905Y-82280476D01*
X117703286Y-82470952D01*
X117703286Y-82851905D01*
X117750905Y-82947143D01*
X117798524Y-82994762D01*
X117893762Y-83042381D01*
X118084239Y-83042381D01*
X118179477Y-82994762D01*
X118227096Y-82947143D01*
X118274715Y-82851905D01*
X118274715Y-82613810D01*
X118227096Y-82518571D01*
X118179477Y-82470952D01*
X118084239Y-82423333D01*
X117893762Y-82423333D01*
X117798524Y-82470952D01*
X117750905Y-82518571D01*
X117703286Y-82613810D01*
X96581667Y-106682381D02*
X96581667Y-107396667D01*
X96534047Y-107539524D01*
X96438809Y-107634762D01*
X96295952Y-107682381D01*
X96200714Y-107682381D01*
X97581667Y-107682381D02*
X97010238Y-107682381D01*
X97295952Y-107682381D02*
X97295952Y-106682381D01*
X97200714Y-106825238D01*
X97105476Y-106920476D01*
X97010238Y-106968095D01*
D15*
X100101384Y-88239934D02*
X100060330Y-88239934D01*
X99978225Y-88198880D01*
X99937173Y-88157828D01*
X99896120Y-88075724D01*
X99896120Y-87993618D01*
X99916646Y-87932040D01*
X99978225Y-87829407D01*
X100039804Y-87767829D01*
X100142436Y-87706250D01*
X100204015Y-87685723D01*
X100286120Y-87685724D01*
X100368225Y-87726776D01*
X100409278Y-87767828D01*
X100450330Y-87849934D01*
X100450330Y-87890987D01*
X100635068Y-87993618D02*
X100922436Y-88280986D01*
X100306647Y-88527302D01*
M02*
