M48
METRIC,TZ
T1C0.300
T2C0.600
T3C0.700
T4C0.900
T5C1.000
T6C1.100
T7C1.400
T8C1.500
T9C2.500
T10C2.750
T11C3.500
%
G90
G05
T1
X121285Y-42545
X121285Y-45085
X121285Y-47625
X121810Y-113859
X121920Y-50165
X121920Y-52705
X122737Y-113483
X123444Y-112776
X131445Y-45085
X131445Y-47625
X131445Y-50165
X133350Y-47625
X135285Y-135584
X135890Y-147955
X139074Y-113561
X139235Y-114548
X142875Y-146050
X142875Y-148590
X147320Y-117856
X147828Y-116840
X165100Y-113443
X165100Y-114443
X165100Y-115443
X165100Y-116443
X170692Y-113672
X172980Y-112020
X182245Y-81915
T2
X121158Y-93218
X121158Y-98806
X121158Y-103886
X121158Y-108966
X133985Y-121920
X133985Y-139700
X134770Y-49230
X137160Y-81280
X179324Y-66040
X185569Y-56631
T3
X133350Y-149860
X135890Y-149860
X128270Y-55880
X133350Y-55880
X133350Y-132080
X135890Y-132080
X128270Y-39370
X133350Y-39370
T4
X124460Y-105410
X127000Y-105410
X129540Y-105410
X137160Y-123190
X139700Y-123190
X142240Y-123190
X107930Y-35560
X110470Y-35560
X124460Y-86360
X127000Y-86360
X137160Y-135890
X139700Y-135890
X124460Y-95250
X127000Y-95250
X129540Y-95250
X124460Y-81280
X127000Y-81280
X101600Y-92710
X101600Y-95250
X101600Y-97790
X101600Y-100330
X101600Y-102870
X101600Y-105410
X101600Y-107950
X101600Y-110490
X106680Y-92710
X106680Y-95250
X106680Y-97790
X106680Y-100330
X106680Y-102870
X106680Y-105410
X106680Y-107950
X106680Y-110490
X114280Y-35560
X116820Y-35560
X124460Y-110490
X127000Y-110490
X129540Y-110490
X190720Y-41380
X190720Y-43920
X190720Y-46460
X190720Y-49000
X190720Y-51540
X190720Y-54080
X190720Y-56620
X190720Y-59160
X190720Y-61700
X190720Y-64240
X190720Y-66780
X190720Y-69320
X190720Y-71860
X190720Y-74400
X190720Y-76940
X190720Y-79480
X190720Y-82020
X190720Y-84560
X190720Y-87100
X190720Y-89640
X193260Y-41380
X193260Y-43920
X193260Y-46460
X193260Y-49000
X193260Y-51540
X193260Y-54080
X193260Y-56620
X193260Y-59160
X193260Y-61700
X193260Y-64240
X193260Y-66780
X193260Y-69320
X193260Y-71860
X193260Y-74400
X193260Y-76940
X193260Y-79480
X193260Y-82020
X193260Y-84560
X193260Y-87100
X193260Y-89640
X149860Y-125620
X149860Y-128160
X149860Y-130700
X149860Y-133240
X149860Y-135780
X149860Y-138320
X149860Y-140860
X149860Y-143400
X149860Y-145940
X149860Y-148480
X152400Y-125620
X152400Y-128160
X152400Y-130700
X152400Y-133240
X152400Y-135780
X152400Y-138320
X152400Y-140860
X152400Y-143400
X152400Y-145940
X152400Y-148480
X185420Y-125620
X185420Y-128160
X185420Y-130700
X185420Y-133240
X185420Y-135780
X185420Y-138320
X185420Y-140860
X185420Y-143400
X185420Y-145940
X185420Y-148480
X187960Y-125590
X187960Y-128130
X187960Y-130670
X187960Y-133210
X187960Y-135750
X187960Y-138290
X187960Y-140830
X187960Y-143400
X187960Y-145910
X187960Y-148450
X137160Y-140970
X139700Y-140970
X142240Y-140970
X124460Y-100330
X127000Y-100330
X129540Y-100330
T5
X104280Y-78520
X104280Y-84235
X100330Y-137145
X100330Y-144145
X105830Y-140645
X104280Y-67090
X104280Y-72805
X100330Y-125080
X100330Y-132080
X105830Y-128580
X100420Y-44280
X105920Y-40780
T6
X166370Y-62200
X166370Y-82700
T7
X114300Y-69850
X119380Y-69850
X129540Y-69850
X134620Y-69850
X99060Y-50800
X104140Y-50800
X114300Y-50800
X119380Y-50800
X99060Y-59690
X104140Y-59690
X114300Y-59690
X119380Y-59690
T8
X114549Y-119731
X114549Y-131729
X126751Y-119731
X126751Y-131729
X128750Y-125730
X114549Y-137511
X114549Y-149509
X126751Y-137511
X126751Y-149509
X128750Y-143510
T9
X163830Y-126540
T10
X142990Y-36510
X142990Y-94510
X191990Y-36510
X191990Y-94510
T11
X99020Y-35480
X193020Y-154480
X99020Y-154480
X186020Y-35480
T0
M30
