G04 #@! TF.GenerationSoftware,KiCad,Pcbnew,5.0.0-fee4fd1~66~ubuntu16.04.1*
G04 #@! TF.CreationDate,2018-09-26T21:25:10+02:00*
G04 #@! TF.ProjectId,bus-splitter,6275732D73706C69747465722E6B6963,A*
G04 #@! TF.SameCoordinates,Original*
G04 #@! TF.FileFunction,Legend,Top*
G04 #@! TF.FilePolarity,Positive*
%FSLAX46Y46*%
G04 Gerber Fmt 4.6, Leading zero omitted, Abs format (unit mm)*
G04 Created by KiCad (PCBNEW 5.0.0-fee4fd1~66~ubuntu16.04.1) date Wed Sep 26 21:25:10 2018*
%MOMM*%
%LPD*%
G01*
G04 APERTURE LIST*
%ADD10C,0.300000*%
%ADD11C,0.150000*%
G04 APERTURE END LIST*
D10*
X187511428Y-93865000D02*
X187368571Y-93793571D01*
X187154285Y-93793571D01*
X186940000Y-93865000D01*
X186797142Y-94007857D01*
X186725714Y-94150714D01*
X186654285Y-94436428D01*
X186654285Y-94650714D01*
X186725714Y-94936428D01*
X186797142Y-95079285D01*
X186940000Y-95222142D01*
X187154285Y-95293571D01*
X187297142Y-95293571D01*
X187511428Y-95222142D01*
X187582857Y-95150714D01*
X187582857Y-94650714D01*
X187297142Y-94650714D01*
X188225714Y-95293571D02*
X188225714Y-93793571D01*
X189082857Y-95293571D01*
X189082857Y-93793571D01*
X189797142Y-95293571D02*
X189797142Y-93793571D01*
X190154285Y-93793571D01*
X190368571Y-93865000D01*
X190511428Y-94007857D01*
X190582857Y-94150714D01*
X190654285Y-94436428D01*
X190654285Y-94650714D01*
X190582857Y-94936428D01*
X190511428Y-95079285D01*
X190368571Y-95222142D01*
X190154285Y-95293571D01*
X189797142Y-95293571D01*
X189940000Y-89150000D02*
X190654285Y-89150000D01*
X189797142Y-89578571D02*
X190297142Y-88078571D01*
X190797142Y-89578571D01*
X190297142Y-83077857D02*
X190511428Y-83149285D01*
X190582857Y-83220714D01*
X190654285Y-83363571D01*
X190654285Y-83577857D01*
X190582857Y-83720714D01*
X190511428Y-83792142D01*
X190368571Y-83863571D01*
X189797142Y-83863571D01*
X189797142Y-82363571D01*
X190297142Y-82363571D01*
X190440000Y-82435000D01*
X190511428Y-82506428D01*
X190582857Y-82649285D01*
X190582857Y-82792142D01*
X190511428Y-82935000D01*
X190440000Y-83006428D01*
X190297142Y-83077857D01*
X189797142Y-83077857D01*
X187511428Y-76720000D02*
X187368571Y-76648571D01*
X187154285Y-76648571D01*
X186940000Y-76720000D01*
X186797142Y-76862857D01*
X186725714Y-77005714D01*
X186654285Y-77291428D01*
X186654285Y-77505714D01*
X186725714Y-77791428D01*
X186797142Y-77934285D01*
X186940000Y-78077142D01*
X187154285Y-78148571D01*
X187297142Y-78148571D01*
X187511428Y-78077142D01*
X187582857Y-78005714D01*
X187582857Y-77505714D01*
X187297142Y-77505714D01*
X188225714Y-78148571D02*
X188225714Y-76648571D01*
X189082857Y-78148571D01*
X189082857Y-76648571D01*
X189797142Y-78148571D02*
X189797142Y-76648571D01*
X190154285Y-76648571D01*
X190368571Y-76720000D01*
X190511428Y-76862857D01*
X190582857Y-77005714D01*
X190654285Y-77291428D01*
X190654285Y-77505714D01*
X190582857Y-77791428D01*
X190511428Y-77934285D01*
X190368571Y-78077142D01*
X190154285Y-78148571D01*
X189797142Y-78148571D01*
X102937857Y-93865000D02*
X102795000Y-93793571D01*
X102580714Y-93793571D01*
X102366428Y-93865000D01*
X102223571Y-94007857D01*
X102152142Y-94150714D01*
X102080714Y-94436428D01*
X102080714Y-94650714D01*
X102152142Y-94936428D01*
X102223571Y-95079285D01*
X102366428Y-95222142D01*
X102580714Y-95293571D01*
X102723571Y-95293571D01*
X102937857Y-95222142D01*
X103009285Y-95150714D01*
X103009285Y-94650714D01*
X102723571Y-94650714D01*
X103652142Y-95293571D02*
X103652142Y-93793571D01*
X104509285Y-95293571D01*
X104509285Y-93793571D01*
X105223571Y-95293571D02*
X105223571Y-93793571D01*
X105580714Y-93793571D01*
X105795000Y-93865000D01*
X105937857Y-94007857D01*
X106009285Y-94150714D01*
X106080714Y-94436428D01*
X106080714Y-94650714D01*
X106009285Y-94936428D01*
X105937857Y-95079285D01*
X105795000Y-95222142D01*
X105580714Y-95293571D01*
X105223571Y-95293571D01*
X102342142Y-88792857D02*
X102556428Y-88864285D01*
X102627857Y-88935714D01*
X102699285Y-89078571D01*
X102699285Y-89292857D01*
X102627857Y-89435714D01*
X102556428Y-89507142D01*
X102413571Y-89578571D01*
X101842142Y-89578571D01*
X101842142Y-88078571D01*
X102342142Y-88078571D01*
X102485000Y-88150000D01*
X102556428Y-88221428D01*
X102627857Y-88364285D01*
X102627857Y-88507142D01*
X102556428Y-88650000D01*
X102485000Y-88721428D01*
X102342142Y-88792857D01*
X101842142Y-88792857D01*
X102080714Y-83435000D02*
X102795000Y-83435000D01*
X101937857Y-83863571D02*
X102437857Y-82363571D01*
X102937857Y-83863571D01*
X101517142Y-77577142D02*
X102660000Y-77577142D01*
X102088571Y-78148571D02*
X102088571Y-77005714D01*
X103302857Y-76791428D02*
X103374285Y-76720000D01*
X103517142Y-76648571D01*
X103874285Y-76648571D01*
X104017142Y-76720000D01*
X104088571Y-76791428D01*
X104160000Y-76934285D01*
X104160000Y-77077142D01*
X104088571Y-77291428D01*
X103231428Y-78148571D01*
X104160000Y-78148571D01*
X105445714Y-77148571D02*
X105445714Y-78148571D01*
X105088571Y-76577142D02*
X104731428Y-77648571D01*
X105660000Y-77648571D01*
X106017142Y-76648571D02*
X106517142Y-78148571D01*
X107017142Y-76648571D01*
D11*
G04 #@! TO.C,U1*
X121158000Y-76454000D02*
X121158000Y-82550000D01*
X132842000Y-76454000D02*
X121158000Y-76454000D01*
X132842000Y-82550000D02*
X132842000Y-76454000D01*
X121158000Y-82550000D02*
X132842000Y-82550000D01*
G04 #@! TO.C,J1*
X101219000Y-80670400D02*
X101219000Y-74930000D01*
X111683800Y-74930000D02*
X111683800Y-80670400D01*
X107162600Y-75946000D02*
X107670600Y-74930000D01*
X110693200Y-75946000D02*
X107162600Y-75946000D01*
X110185200Y-74930000D02*
X110693200Y-75946000D01*
X107162600Y-81686400D02*
X107670600Y-80670400D01*
X110693200Y-81686400D02*
X107162600Y-81686400D01*
X110185200Y-80670400D02*
X110693200Y-81686400D01*
X111683800Y-74930000D02*
X110185200Y-74930000D01*
X101219000Y-74930000D02*
X107670600Y-74930000D01*
X111683800Y-80670400D02*
X110185200Y-80670400D01*
X101219000Y-80670400D02*
X107670600Y-80670400D01*
G04 #@! TO.C,J2*
X101219000Y-86385400D02*
X101219000Y-80645000D01*
X111683800Y-80645000D02*
X111683800Y-86385400D01*
X107162600Y-81661000D02*
X107670600Y-80645000D01*
X110693200Y-81661000D02*
X107162600Y-81661000D01*
X110185200Y-80645000D02*
X110693200Y-81661000D01*
X107162600Y-87401400D02*
X107670600Y-86385400D01*
X110693200Y-87401400D02*
X107162600Y-87401400D01*
X110185200Y-86385400D02*
X110693200Y-87401400D01*
X111683800Y-80645000D02*
X110185200Y-80645000D01*
X101219000Y-80645000D02*
X107670600Y-80645000D01*
X111683800Y-86385400D02*
X110185200Y-86385400D01*
X101219000Y-86385400D02*
X107670600Y-86385400D01*
G04 #@! TO.C,J3*
X101219000Y-92100400D02*
X101219000Y-86360000D01*
X111683800Y-86360000D02*
X111683800Y-92100400D01*
X107162600Y-87376000D02*
X107670600Y-86360000D01*
X110693200Y-87376000D02*
X107162600Y-87376000D01*
X110185200Y-86360000D02*
X110693200Y-87376000D01*
X107162600Y-93116400D02*
X107670600Y-92100400D01*
X110693200Y-93116400D02*
X107162600Y-93116400D01*
X110185200Y-92100400D02*
X110693200Y-93116400D01*
X111683800Y-86360000D02*
X110185200Y-86360000D01*
X101219000Y-86360000D02*
X107670600Y-86360000D01*
X111683800Y-92100400D02*
X110185200Y-92100400D01*
X101219000Y-92100400D02*
X107670600Y-92100400D01*
G04 #@! TO.C,J4*
X101219000Y-97815400D02*
X101219000Y-92075000D01*
X111683800Y-92075000D02*
X111683800Y-97815400D01*
X107162600Y-93091000D02*
X107670600Y-92075000D01*
X110693200Y-93091000D02*
X107162600Y-93091000D01*
X110185200Y-92075000D02*
X110693200Y-93091000D01*
X107162600Y-98831400D02*
X107670600Y-97815400D01*
X110693200Y-98831400D02*
X107162600Y-98831400D01*
X110185200Y-97815400D02*
X110693200Y-98831400D01*
X111683800Y-92075000D02*
X110185200Y-92075000D01*
X101219000Y-92075000D02*
X107670600Y-92075000D01*
X111683800Y-97815400D02*
X110185200Y-97815400D01*
X101219000Y-97815400D02*
X107670600Y-97815400D01*
G04 #@! TO.C,J6*
X191770000Y-91414600D02*
X191770000Y-97155000D01*
X181305200Y-97155000D02*
X181305200Y-91414600D01*
X185826400Y-96139000D02*
X185318400Y-97155000D01*
X182295800Y-96139000D02*
X185826400Y-96139000D01*
X182803800Y-97155000D02*
X182295800Y-96139000D01*
X185826400Y-90398600D02*
X185318400Y-91414600D01*
X182295800Y-90398600D02*
X185826400Y-90398600D01*
X182803800Y-91414600D02*
X182295800Y-90398600D01*
X181305200Y-97155000D02*
X182803800Y-97155000D01*
X191770000Y-97155000D02*
X185318400Y-97155000D01*
X181305200Y-91414600D02*
X182803800Y-91414600D01*
X191770000Y-91414600D02*
X185318400Y-91414600D01*
G04 #@! TO.C,J7*
X191770000Y-85699600D02*
X191770000Y-91440000D01*
X181305200Y-91440000D02*
X181305200Y-85699600D01*
X185826400Y-90424000D02*
X185318400Y-91440000D01*
X182295800Y-90424000D02*
X185826400Y-90424000D01*
X182803800Y-91440000D02*
X182295800Y-90424000D01*
X185826400Y-84683600D02*
X185318400Y-85699600D01*
X182295800Y-84683600D02*
X185826400Y-84683600D01*
X182803800Y-85699600D02*
X182295800Y-84683600D01*
X181305200Y-91440000D02*
X182803800Y-91440000D01*
X191770000Y-91440000D02*
X185318400Y-91440000D01*
X181305200Y-85699600D02*
X182803800Y-85699600D01*
X191770000Y-85699600D02*
X185318400Y-85699600D01*
G04 #@! TO.C,J8*
X191770000Y-79984600D02*
X191770000Y-85725000D01*
X181305200Y-85725000D02*
X181305200Y-79984600D01*
X185826400Y-84709000D02*
X185318400Y-85725000D01*
X182295800Y-84709000D02*
X185826400Y-84709000D01*
X182803800Y-85725000D02*
X182295800Y-84709000D01*
X185826400Y-78968600D02*
X185318400Y-79984600D01*
X182295800Y-78968600D02*
X185826400Y-78968600D01*
X182803800Y-79984600D02*
X182295800Y-78968600D01*
X181305200Y-85725000D02*
X182803800Y-85725000D01*
X191770000Y-85725000D02*
X185318400Y-85725000D01*
X181305200Y-79984600D02*
X182803800Y-79984600D01*
X191770000Y-79984600D02*
X185318400Y-79984600D01*
G04 #@! TO.C,J9*
X191770000Y-74269600D02*
X191770000Y-80010000D01*
X181305200Y-80010000D02*
X181305200Y-74269600D01*
X185826400Y-78994000D02*
X185318400Y-80010000D01*
X182295800Y-78994000D02*
X185826400Y-78994000D01*
X182803800Y-80010000D02*
X182295800Y-78994000D01*
X185826400Y-73253600D02*
X185318400Y-74269600D01*
X182295800Y-73253600D02*
X185826400Y-73253600D01*
X182803800Y-74269600D02*
X182295800Y-73253600D01*
X181305200Y-80010000D02*
X182803800Y-80010000D01*
X191770000Y-80010000D02*
X185318400Y-80010000D01*
X181305200Y-74269600D02*
X182803800Y-74269600D01*
X191770000Y-74269600D02*
X185318400Y-74269600D01*
G04 #@! TO.C,J5*
X140970000Y-81915000D02*
X140970000Y-76835000D01*
X148590000Y-81915000D02*
X140970000Y-81915000D01*
X148590000Y-76835000D02*
X148590000Y-81915000D01*
X140970000Y-76835000D02*
X148590000Y-76835000D01*
G04 #@! TO.C,R1*
X119380000Y-88900000D02*
X119380000Y-90170000D01*
X119380000Y-83820000D02*
X119380000Y-82550000D01*
X118110000Y-83820000D02*
X120650000Y-83820000D01*
X118110000Y-88900000D02*
X118110000Y-83820000D01*
X120650000Y-88900000D02*
X118110000Y-88900000D01*
X120650000Y-83820000D02*
X120650000Y-88900000D01*
G04 #@! TO.C,U1*
X119253095Y-76922380D02*
X119253095Y-77731904D01*
X119300714Y-77827142D01*
X119348333Y-77874761D01*
X119443571Y-77922380D01*
X119634047Y-77922380D01*
X119729285Y-77874761D01*
X119776904Y-77827142D01*
X119824523Y-77731904D01*
X119824523Y-76922380D01*
X120824523Y-77922380D02*
X120253095Y-77922380D01*
X120538809Y-77922380D02*
X120538809Y-76922380D01*
X120443571Y-77065238D01*
X120348333Y-77160476D01*
X120253095Y-77208095D01*
G04 #@! TO.C,J1*
X110156666Y-76287380D02*
X110156666Y-77001666D01*
X110109047Y-77144523D01*
X110013809Y-77239761D01*
X109870952Y-77287380D01*
X109775714Y-77287380D01*
X111156666Y-77287380D02*
X110585238Y-77287380D01*
X110870952Y-77287380D02*
X110870952Y-76287380D01*
X110775714Y-76430238D01*
X110680476Y-76525476D01*
X110585238Y-76573095D01*
G04 #@! TO.C,J2*
X110156666Y-82002380D02*
X110156666Y-82716666D01*
X110109047Y-82859523D01*
X110013809Y-82954761D01*
X109870952Y-83002380D01*
X109775714Y-83002380D01*
X110585238Y-82097619D02*
X110632857Y-82050000D01*
X110728095Y-82002380D01*
X110966190Y-82002380D01*
X111061428Y-82050000D01*
X111109047Y-82097619D01*
X111156666Y-82192857D01*
X111156666Y-82288095D01*
X111109047Y-82430952D01*
X110537619Y-83002380D01*
X111156666Y-83002380D01*
G04 #@! TO.C,J3*
X110156666Y-87717380D02*
X110156666Y-88431666D01*
X110109047Y-88574523D01*
X110013809Y-88669761D01*
X109870952Y-88717380D01*
X109775714Y-88717380D01*
X110537619Y-87717380D02*
X111156666Y-87717380D01*
X110823333Y-88098333D01*
X110966190Y-88098333D01*
X111061428Y-88145952D01*
X111109047Y-88193571D01*
X111156666Y-88288809D01*
X111156666Y-88526904D01*
X111109047Y-88622142D01*
X111061428Y-88669761D01*
X110966190Y-88717380D01*
X110680476Y-88717380D01*
X110585238Y-88669761D01*
X110537619Y-88622142D01*
G04 #@! TO.C,J4*
X110156666Y-93432380D02*
X110156666Y-94146666D01*
X110109047Y-94289523D01*
X110013809Y-94384761D01*
X109870952Y-94432380D01*
X109775714Y-94432380D01*
X111061428Y-93765714D02*
X111061428Y-94432380D01*
X110823333Y-93384761D02*
X110585238Y-94099047D01*
X111204285Y-94099047D01*
G04 #@! TO.C,J6*
X181911666Y-92162380D02*
X181911666Y-92876666D01*
X181864047Y-93019523D01*
X181768809Y-93114761D01*
X181625952Y-93162380D01*
X181530714Y-93162380D01*
X182816428Y-92162380D02*
X182625952Y-92162380D01*
X182530714Y-92210000D01*
X182483095Y-92257619D01*
X182387857Y-92400476D01*
X182340238Y-92590952D01*
X182340238Y-92971904D01*
X182387857Y-93067142D01*
X182435476Y-93114761D01*
X182530714Y-93162380D01*
X182721190Y-93162380D01*
X182816428Y-93114761D01*
X182864047Y-93067142D01*
X182911666Y-92971904D01*
X182911666Y-92733809D01*
X182864047Y-92638571D01*
X182816428Y-92590952D01*
X182721190Y-92543333D01*
X182530714Y-92543333D01*
X182435476Y-92590952D01*
X182387857Y-92638571D01*
X182340238Y-92733809D01*
G04 #@! TO.C,J7*
X181911666Y-86447380D02*
X181911666Y-87161666D01*
X181864047Y-87304523D01*
X181768809Y-87399761D01*
X181625952Y-87447380D01*
X181530714Y-87447380D01*
X182292619Y-86447380D02*
X182959285Y-86447380D01*
X182530714Y-87447380D01*
G04 #@! TO.C,J8*
X181911666Y-80732380D02*
X181911666Y-81446666D01*
X181864047Y-81589523D01*
X181768809Y-81684761D01*
X181625952Y-81732380D01*
X181530714Y-81732380D01*
X182530714Y-81160952D02*
X182435476Y-81113333D01*
X182387857Y-81065714D01*
X182340238Y-80970476D01*
X182340238Y-80922857D01*
X182387857Y-80827619D01*
X182435476Y-80780000D01*
X182530714Y-80732380D01*
X182721190Y-80732380D01*
X182816428Y-80780000D01*
X182864047Y-80827619D01*
X182911666Y-80922857D01*
X182911666Y-80970476D01*
X182864047Y-81065714D01*
X182816428Y-81113333D01*
X182721190Y-81160952D01*
X182530714Y-81160952D01*
X182435476Y-81208571D01*
X182387857Y-81256190D01*
X182340238Y-81351428D01*
X182340238Y-81541904D01*
X182387857Y-81637142D01*
X182435476Y-81684761D01*
X182530714Y-81732380D01*
X182721190Y-81732380D01*
X182816428Y-81684761D01*
X182864047Y-81637142D01*
X182911666Y-81541904D01*
X182911666Y-81351428D01*
X182864047Y-81256190D01*
X182816428Y-81208571D01*
X182721190Y-81160952D01*
G04 #@! TO.C,J9*
X181911666Y-75652380D02*
X181911666Y-76366666D01*
X181864047Y-76509523D01*
X181768809Y-76604761D01*
X181625952Y-76652380D01*
X181530714Y-76652380D01*
X182435476Y-76652380D02*
X182625952Y-76652380D01*
X182721190Y-76604761D01*
X182768809Y-76557142D01*
X182864047Y-76414285D01*
X182911666Y-76223809D01*
X182911666Y-75842857D01*
X182864047Y-75747619D01*
X182816428Y-75700000D01*
X182721190Y-75652380D01*
X182530714Y-75652380D01*
X182435476Y-75700000D01*
X182387857Y-75747619D01*
X182340238Y-75842857D01*
X182340238Y-76080952D01*
X182387857Y-76176190D01*
X182435476Y-76223809D01*
X182530714Y-76271428D01*
X182721190Y-76271428D01*
X182816428Y-76223809D01*
X182864047Y-76176190D01*
X182911666Y-76080952D01*
G04 #@! TO.C,J5*
X139366666Y-76922380D02*
X139366666Y-77636666D01*
X139319047Y-77779523D01*
X139223809Y-77874761D01*
X139080952Y-77922380D01*
X138985714Y-77922380D01*
X140319047Y-76922380D02*
X139842857Y-76922380D01*
X139795238Y-77398571D01*
X139842857Y-77350952D01*
X139938095Y-77303333D01*
X140176190Y-77303333D01*
X140271428Y-77350952D01*
X140319047Y-77398571D01*
X140366666Y-77493809D01*
X140366666Y-77731904D01*
X140319047Y-77827142D01*
X140271428Y-77874761D01*
X140176190Y-77922380D01*
X139938095Y-77922380D01*
X139842857Y-77874761D01*
X139795238Y-77827142D01*
G04 #@! TO.C,R1*
X122372380Y-86526666D02*
X121896190Y-86860000D01*
X122372380Y-87098095D02*
X121372380Y-87098095D01*
X121372380Y-86717142D01*
X121420000Y-86621904D01*
X121467619Y-86574285D01*
X121562857Y-86526666D01*
X121705714Y-86526666D01*
X121800952Y-86574285D01*
X121848571Y-86621904D01*
X121896190Y-86717142D01*
X121896190Y-87098095D01*
X122372380Y-85574285D02*
X122372380Y-86145714D01*
X122372380Y-85860000D02*
X121372380Y-85860000D01*
X121515238Y-85955238D01*
X121610476Y-86050476D01*
X121658095Y-86145714D01*
G04 #@! TD*
M02*
