G04 #@! TF.GenerationSoftware,KiCad,Pcbnew,5.0.0-fee4fd1~66~ubuntu16.04.1*
G04 #@! TF.CreationDate,2018-09-26T21:25:10+02:00*
G04 #@! TF.ProjectId,bus-splitter,6275732D73706C69747465722E6B6963,A*
G04 #@! TF.SameCoordinates,Original*
G04 #@! TF.FileFunction,Legend,Bot*
G04 #@! TF.FilePolarity,Positive*
%FSLAX46Y46*%
G04 Gerber Fmt 4.6, Leading zero omitted, Abs format (unit mm)*
G04 Created by KiCad (PCBNEW 5.0.0-fee4fd1~66~ubuntu16.04.1) date Wed Sep 26 21:25:10 2018*
%MOMM*%
%LPD*%
G01*
G04 APERTURE LIST*
%ADD10C,0.150000*%
G04 APERTURE END LIST*
D10*
G04 #@! TO.C,C1*
X128016000Y-84582000D02*
X129032000Y-84582000D01*
X128016000Y-83058000D02*
X128016000Y-84582000D01*
X129032000Y-83058000D02*
X128016000Y-83058000D01*
X131064000Y-83058000D02*
X130048000Y-83058000D01*
X131064000Y-84582000D02*
X131064000Y-83058000D01*
X130048000Y-84582000D02*
X131064000Y-84582000D01*
G04 #@! TO.C,C2*
X128016000Y-89027000D02*
X129032000Y-89027000D01*
X128016000Y-87503000D02*
X128016000Y-89027000D01*
X129032000Y-87503000D02*
X128016000Y-87503000D01*
X131064000Y-87503000D02*
X130048000Y-87503000D01*
X131064000Y-89027000D02*
X131064000Y-87503000D01*
X130048000Y-89027000D02*
X131064000Y-89027000D01*
G04 #@! TO.C,C3*
X160528000Y-91186000D02*
X160528000Y-92202000D01*
X162052000Y-91186000D02*
X160528000Y-91186000D01*
X162052000Y-92202000D02*
X162052000Y-91186000D01*
X162052000Y-94234000D02*
X162052000Y-93218000D01*
X160528000Y-94234000D02*
X162052000Y-94234000D01*
X160528000Y-93218000D02*
X160528000Y-94234000D01*
G04 #@! TO.C,C4*
X162052000Y-85344000D02*
X162052000Y-84328000D01*
X160528000Y-85344000D02*
X162052000Y-85344000D01*
X160528000Y-84328000D02*
X160528000Y-85344000D01*
X160528000Y-82296000D02*
X160528000Y-83312000D01*
X162052000Y-82296000D02*
X160528000Y-82296000D01*
X162052000Y-83312000D02*
X162052000Y-82296000D01*
G04 #@! TO.C,C5*
X151892000Y-80264000D02*
X151892000Y-79248000D01*
X150368000Y-80264000D02*
X151892000Y-80264000D01*
X150368000Y-79248000D02*
X150368000Y-80264000D01*
X150368000Y-77216000D02*
X150368000Y-78232000D01*
X151892000Y-77216000D02*
X150368000Y-77216000D01*
X151892000Y-78232000D02*
X151892000Y-77216000D01*
G04 #@! TO.C,C6*
X152908000Y-77216000D02*
X152908000Y-78232000D01*
X154432000Y-77216000D02*
X152908000Y-77216000D01*
X154432000Y-78232000D02*
X154432000Y-77216000D01*
X154432000Y-80264000D02*
X154432000Y-79248000D01*
X152908000Y-80264000D02*
X154432000Y-80264000D01*
X152908000Y-79248000D02*
X152908000Y-80264000D01*
G04 #@! TO.C,C7*
X175831500Y-90043000D02*
X174815500Y-90043000D01*
X175831500Y-91567000D02*
X175831500Y-90043000D01*
X174815500Y-91567000D02*
X175831500Y-91567000D01*
X172783500Y-91567000D02*
X173799500Y-91567000D01*
X172783500Y-90043000D02*
X172783500Y-91567000D01*
X173799500Y-90043000D02*
X172783500Y-90043000D01*
G04 #@! TO.C,D1*
X111110000Y-84225000D02*
X112410000Y-84225000D01*
X111110000Y-87225000D02*
X112410000Y-87225000D01*
G04 #@! TO.C,D2*
X155534360Y-77840840D02*
X155534360Y-79639160D01*
X156885640Y-79639160D02*
X156885640Y-77840840D01*
X156885640Y-78389480D02*
X155534360Y-78389480D01*
G04 #@! TO.C,D3*
X181940000Y-87860000D02*
X180640000Y-87860000D01*
X181940000Y-84860000D02*
X180640000Y-84860000D01*
G04 #@! TO.C,F1*
X115443000Y-80264000D02*
X115443000Y-81915000D01*
X113157000Y-76835000D02*
X113157000Y-78486000D01*
X115443000Y-76835000D02*
X113157000Y-76835000D01*
X115443000Y-78486000D02*
X115443000Y-76835000D01*
X113157000Y-81915000D02*
X113157000Y-80264000D01*
X115443000Y-81915000D02*
X113157000Y-81915000D01*
G04 #@! TO.C,R2*
X159512000Y-80264000D02*
X159512000Y-79248000D01*
X157988000Y-80264000D02*
X159512000Y-80264000D01*
X157988000Y-79248000D02*
X157988000Y-80264000D01*
X157988000Y-77216000D02*
X157988000Y-78232000D01*
X159512000Y-77216000D02*
X157988000Y-77216000D01*
X159512000Y-78232000D02*
X159512000Y-77216000D01*
G04 #@! TO.C,R3*
X167894000Y-83693000D02*
X166878000Y-83693000D01*
X167894000Y-85217000D02*
X167894000Y-83693000D01*
X166878000Y-85217000D02*
X167894000Y-85217000D01*
X164846000Y-85217000D02*
X165862000Y-85217000D01*
X164846000Y-83693000D02*
X164846000Y-85217000D01*
X165862000Y-83693000D02*
X164846000Y-83693000D01*
G04 #@! TO.C,R4*
X167894000Y-87503000D02*
X166878000Y-87503000D01*
X167894000Y-89027000D02*
X167894000Y-87503000D01*
X166878000Y-89027000D02*
X167894000Y-89027000D01*
X164846000Y-89027000D02*
X165862000Y-89027000D01*
X164846000Y-87503000D02*
X164846000Y-89027000D01*
X165862000Y-87503000D02*
X164846000Y-87503000D01*
G04 #@! TO.C,U2*
X129540000Y-95377000D02*
X133350000Y-95377000D01*
X131953000Y-90551000D02*
X131953000Y-90043000D01*
X130937000Y-90551000D02*
X131953000Y-90551000D01*
X130937000Y-90043000D02*
X130937000Y-90551000D01*
X129540000Y-90043000D02*
X133223000Y-90043000D01*
X129540000Y-95377000D02*
X129540000Y-90043000D01*
X133350000Y-90043000D02*
X133350000Y-95377000D01*
X133223000Y-90043000D02*
X133350000Y-90043000D01*
G04 #@! TO.C,U3*
X153809700Y-94361000D02*
X153809700Y-82560160D01*
X158610300Y-82560160D02*
X158610300Y-94361000D01*
X158610300Y-94361000D02*
X157609540Y-94361000D01*
X153809700Y-94361000D02*
X154810460Y-94361000D01*
X153809700Y-82560160D02*
X154810460Y-82560160D01*
X158610300Y-82560160D02*
X157609540Y-82560160D01*
G04 #@! TO.C,U4*
X144145000Y-93980000D02*
X144145000Y-95250000D01*
X145415000Y-93980000D02*
X144145000Y-93980000D01*
X145415000Y-95250000D02*
X145415000Y-93980000D01*
X148463000Y-95250000D02*
X148463000Y-82550000D01*
X141097000Y-82550000D02*
X141097000Y-95250000D01*
X148463000Y-95250000D02*
X141097000Y-95250000D01*
X141097000Y-82550000D02*
X148463000Y-82550000D01*
G04 #@! TO.C,U5*
X174625000Y-83693000D02*
X170815000Y-83693000D01*
X172212000Y-88519000D02*
X172212000Y-89027000D01*
X173228000Y-88519000D02*
X172212000Y-88519000D01*
X173228000Y-89027000D02*
X173228000Y-88519000D01*
X174625000Y-89027000D02*
X170942000Y-89027000D01*
X174625000Y-83693000D02*
X174625000Y-89027000D01*
X170815000Y-89027000D02*
X170815000Y-83693000D01*
X170942000Y-89027000D02*
X170815000Y-89027000D01*
G04 #@! TO.C,C1*
X126498333Y-84105714D02*
X126536428Y-84143809D01*
X126650714Y-84181904D01*
X126726904Y-84181904D01*
X126841190Y-84143809D01*
X126917380Y-84067619D01*
X126955476Y-83991428D01*
X126993571Y-83839047D01*
X126993571Y-83724761D01*
X126955476Y-83572380D01*
X126917380Y-83496190D01*
X126841190Y-83420000D01*
X126726904Y-83381904D01*
X126650714Y-83381904D01*
X126536428Y-83420000D01*
X126498333Y-83458095D01*
X125736428Y-84181904D02*
X126193571Y-84181904D01*
X125965000Y-84181904D02*
X125965000Y-83381904D01*
X126041190Y-83496190D01*
X126117380Y-83572380D01*
X126193571Y-83610476D01*
G04 #@! TO.C,C2*
X126498333Y-88550714D02*
X126536428Y-88588809D01*
X126650714Y-88626904D01*
X126726904Y-88626904D01*
X126841190Y-88588809D01*
X126917380Y-88512619D01*
X126955476Y-88436428D01*
X126993571Y-88284047D01*
X126993571Y-88169761D01*
X126955476Y-88017380D01*
X126917380Y-87941190D01*
X126841190Y-87865000D01*
X126726904Y-87826904D01*
X126650714Y-87826904D01*
X126536428Y-87865000D01*
X126498333Y-87903095D01*
X126193571Y-87903095D02*
X126155476Y-87865000D01*
X126079285Y-87826904D01*
X125888809Y-87826904D01*
X125812619Y-87865000D01*
X125774523Y-87903095D01*
X125736428Y-87979285D01*
X125736428Y-88055476D01*
X125774523Y-88169761D01*
X126231666Y-88626904D01*
X125736428Y-88626904D01*
G04 #@! TO.C,C3*
X161423333Y-90455714D02*
X161461428Y-90493809D01*
X161575714Y-90531904D01*
X161651904Y-90531904D01*
X161766190Y-90493809D01*
X161842380Y-90417619D01*
X161880476Y-90341428D01*
X161918571Y-90189047D01*
X161918571Y-90074761D01*
X161880476Y-89922380D01*
X161842380Y-89846190D01*
X161766190Y-89770000D01*
X161651904Y-89731904D01*
X161575714Y-89731904D01*
X161461428Y-89770000D01*
X161423333Y-89808095D01*
X161156666Y-89731904D02*
X160661428Y-89731904D01*
X160928095Y-90036666D01*
X160813809Y-90036666D01*
X160737619Y-90074761D01*
X160699523Y-90112857D01*
X160661428Y-90189047D01*
X160661428Y-90379523D01*
X160699523Y-90455714D01*
X160737619Y-90493809D01*
X160813809Y-90531904D01*
X161042380Y-90531904D01*
X161118571Y-90493809D01*
X161156666Y-90455714D01*
G04 #@! TO.C,C4*
X161423333Y-81565714D02*
X161461428Y-81603809D01*
X161575714Y-81641904D01*
X161651904Y-81641904D01*
X161766190Y-81603809D01*
X161842380Y-81527619D01*
X161880476Y-81451428D01*
X161918571Y-81299047D01*
X161918571Y-81184761D01*
X161880476Y-81032380D01*
X161842380Y-80956190D01*
X161766190Y-80880000D01*
X161651904Y-80841904D01*
X161575714Y-80841904D01*
X161461428Y-80880000D01*
X161423333Y-80918095D01*
X160737619Y-81108571D02*
X160737619Y-81641904D01*
X160928095Y-80803809D02*
X161118571Y-81375238D01*
X160623333Y-81375238D01*
G04 #@! TO.C,C5*
X151263333Y-76485714D02*
X151301428Y-76523809D01*
X151415714Y-76561904D01*
X151491904Y-76561904D01*
X151606190Y-76523809D01*
X151682380Y-76447619D01*
X151720476Y-76371428D01*
X151758571Y-76219047D01*
X151758571Y-76104761D01*
X151720476Y-75952380D01*
X151682380Y-75876190D01*
X151606190Y-75800000D01*
X151491904Y-75761904D01*
X151415714Y-75761904D01*
X151301428Y-75800000D01*
X151263333Y-75838095D01*
X150539523Y-75761904D02*
X150920476Y-75761904D01*
X150958571Y-76142857D01*
X150920476Y-76104761D01*
X150844285Y-76066666D01*
X150653809Y-76066666D01*
X150577619Y-76104761D01*
X150539523Y-76142857D01*
X150501428Y-76219047D01*
X150501428Y-76409523D01*
X150539523Y-76485714D01*
X150577619Y-76523809D01*
X150653809Y-76561904D01*
X150844285Y-76561904D01*
X150920476Y-76523809D01*
X150958571Y-76485714D01*
G04 #@! TO.C,C6*
X153803333Y-76485714D02*
X153841428Y-76523809D01*
X153955714Y-76561904D01*
X154031904Y-76561904D01*
X154146190Y-76523809D01*
X154222380Y-76447619D01*
X154260476Y-76371428D01*
X154298571Y-76219047D01*
X154298571Y-76104761D01*
X154260476Y-75952380D01*
X154222380Y-75876190D01*
X154146190Y-75800000D01*
X154031904Y-75761904D01*
X153955714Y-75761904D01*
X153841428Y-75800000D01*
X153803333Y-75838095D01*
X153117619Y-75761904D02*
X153270000Y-75761904D01*
X153346190Y-75800000D01*
X153384285Y-75838095D01*
X153460476Y-75952380D01*
X153498571Y-76104761D01*
X153498571Y-76409523D01*
X153460476Y-76485714D01*
X153422380Y-76523809D01*
X153346190Y-76561904D01*
X153193809Y-76561904D01*
X153117619Y-76523809D01*
X153079523Y-76485714D01*
X153041428Y-76409523D01*
X153041428Y-76219047D01*
X153079523Y-76142857D01*
X153117619Y-76104761D01*
X153193809Y-76066666D01*
X153346190Y-76066666D01*
X153422380Y-76104761D01*
X153460476Y-76142857D01*
X153498571Y-76219047D01*
G04 #@! TO.C,C7*
X171583333Y-91090714D02*
X171621428Y-91128809D01*
X171735714Y-91166904D01*
X171811904Y-91166904D01*
X171926190Y-91128809D01*
X172002380Y-91052619D01*
X172040476Y-90976428D01*
X172078571Y-90824047D01*
X172078571Y-90709761D01*
X172040476Y-90557380D01*
X172002380Y-90481190D01*
X171926190Y-90405000D01*
X171811904Y-90366904D01*
X171735714Y-90366904D01*
X171621428Y-90405000D01*
X171583333Y-90443095D01*
X171316666Y-90366904D02*
X170783333Y-90366904D01*
X171126190Y-91166904D01*
G04 #@! TO.C,D1*
X112350476Y-83546904D02*
X112350476Y-82746904D01*
X112160000Y-82746904D01*
X112045714Y-82785000D01*
X111969523Y-82861190D01*
X111931428Y-82937380D01*
X111893333Y-83089761D01*
X111893333Y-83204047D01*
X111931428Y-83356428D01*
X111969523Y-83432619D01*
X112045714Y-83508809D01*
X112160000Y-83546904D01*
X112350476Y-83546904D01*
X111131428Y-83546904D02*
X111588571Y-83546904D01*
X111360000Y-83546904D02*
X111360000Y-82746904D01*
X111436190Y-82861190D01*
X111512380Y-82937380D01*
X111588571Y-82975476D01*
G04 #@! TO.C,D2*
X156800476Y-76561904D02*
X156800476Y-75761904D01*
X156610000Y-75761904D01*
X156495714Y-75800000D01*
X156419523Y-75876190D01*
X156381428Y-75952380D01*
X156343333Y-76104761D01*
X156343333Y-76219047D01*
X156381428Y-76371428D01*
X156419523Y-76447619D01*
X156495714Y-76523809D01*
X156610000Y-76561904D01*
X156800476Y-76561904D01*
X156038571Y-75838095D02*
X156000476Y-75800000D01*
X155924285Y-75761904D01*
X155733809Y-75761904D01*
X155657619Y-75800000D01*
X155619523Y-75838095D01*
X155581428Y-75914285D01*
X155581428Y-75990476D01*
X155619523Y-76104761D01*
X156076666Y-76561904D01*
X155581428Y-76561904D01*
G04 #@! TO.C,D3*
X181565476Y-84181904D02*
X181565476Y-83381904D01*
X181375000Y-83381904D01*
X181260714Y-83420000D01*
X181184523Y-83496190D01*
X181146428Y-83572380D01*
X181108333Y-83724761D01*
X181108333Y-83839047D01*
X181146428Y-83991428D01*
X181184523Y-84067619D01*
X181260714Y-84143809D01*
X181375000Y-84181904D01*
X181565476Y-84181904D01*
X180841666Y-83381904D02*
X180346428Y-83381904D01*
X180613095Y-83686666D01*
X180498809Y-83686666D01*
X180422619Y-83724761D01*
X180384523Y-83762857D01*
X180346428Y-83839047D01*
X180346428Y-84029523D01*
X180384523Y-84105714D01*
X180422619Y-84143809D01*
X180498809Y-84181904D01*
X180727380Y-84181904D01*
X180803571Y-84143809D01*
X180841666Y-84105714D01*
G04 #@! TO.C,F1*
X117106666Y-77412857D02*
X117373333Y-77412857D01*
X117373333Y-77831904D02*
X117373333Y-77031904D01*
X116992380Y-77031904D01*
X116268571Y-77831904D02*
X116725714Y-77831904D01*
X116497142Y-77831904D02*
X116497142Y-77031904D01*
X116573333Y-77146190D01*
X116649523Y-77222380D01*
X116725714Y-77260476D01*
G04 #@! TO.C,R2*
X158883333Y-76561904D02*
X159150000Y-76180952D01*
X159340476Y-76561904D02*
X159340476Y-75761904D01*
X159035714Y-75761904D01*
X158959523Y-75800000D01*
X158921428Y-75838095D01*
X158883333Y-75914285D01*
X158883333Y-76028571D01*
X158921428Y-76104761D01*
X158959523Y-76142857D01*
X159035714Y-76180952D01*
X159340476Y-76180952D01*
X158578571Y-75838095D02*
X158540476Y-75800000D01*
X158464285Y-75761904D01*
X158273809Y-75761904D01*
X158197619Y-75800000D01*
X158159523Y-75838095D01*
X158121428Y-75914285D01*
X158121428Y-75990476D01*
X158159523Y-76104761D01*
X158616666Y-76561904D01*
X158121428Y-76561904D01*
G04 #@! TO.C,R3*
X166503333Y-82911904D02*
X166770000Y-82530952D01*
X166960476Y-82911904D02*
X166960476Y-82111904D01*
X166655714Y-82111904D01*
X166579523Y-82150000D01*
X166541428Y-82188095D01*
X166503333Y-82264285D01*
X166503333Y-82378571D01*
X166541428Y-82454761D01*
X166579523Y-82492857D01*
X166655714Y-82530952D01*
X166960476Y-82530952D01*
X166236666Y-82111904D02*
X165741428Y-82111904D01*
X166008095Y-82416666D01*
X165893809Y-82416666D01*
X165817619Y-82454761D01*
X165779523Y-82492857D01*
X165741428Y-82569047D01*
X165741428Y-82759523D01*
X165779523Y-82835714D01*
X165817619Y-82873809D01*
X165893809Y-82911904D01*
X166122380Y-82911904D01*
X166198571Y-82873809D01*
X166236666Y-82835714D01*
G04 #@! TO.C,R4*
X166503333Y-90531904D02*
X166770000Y-90150952D01*
X166960476Y-90531904D02*
X166960476Y-89731904D01*
X166655714Y-89731904D01*
X166579523Y-89770000D01*
X166541428Y-89808095D01*
X166503333Y-89884285D01*
X166503333Y-89998571D01*
X166541428Y-90074761D01*
X166579523Y-90112857D01*
X166655714Y-90150952D01*
X166960476Y-90150952D01*
X165817619Y-89998571D02*
X165817619Y-90531904D01*
X166008095Y-89693809D02*
X166198571Y-90265238D01*
X165703333Y-90265238D01*
G04 #@! TO.C,U2*
X126974523Y-89731904D02*
X126974523Y-90379523D01*
X126936428Y-90455714D01*
X126898333Y-90493809D01*
X126822142Y-90531904D01*
X126669761Y-90531904D01*
X126593571Y-90493809D01*
X126555476Y-90455714D01*
X126517380Y-90379523D01*
X126517380Y-89731904D01*
X126174523Y-89808095D02*
X126136428Y-89770000D01*
X126060238Y-89731904D01*
X125869761Y-89731904D01*
X125793571Y-89770000D01*
X125755476Y-89808095D01*
X125717380Y-89884285D01*
X125717380Y-89960476D01*
X125755476Y-90074761D01*
X126212619Y-90531904D01*
X125717380Y-90531904D01*
G04 #@! TO.C,U3*
X154914523Y-80841904D02*
X154914523Y-81489523D01*
X154876428Y-81565714D01*
X154838333Y-81603809D01*
X154762142Y-81641904D01*
X154609761Y-81641904D01*
X154533571Y-81603809D01*
X154495476Y-81565714D01*
X154457380Y-81489523D01*
X154457380Y-80841904D01*
X154152619Y-80841904D02*
X153657380Y-80841904D01*
X153924047Y-81146666D01*
X153809761Y-81146666D01*
X153733571Y-81184761D01*
X153695476Y-81222857D01*
X153657380Y-81299047D01*
X153657380Y-81489523D01*
X153695476Y-81565714D01*
X153733571Y-81603809D01*
X153809761Y-81641904D01*
X154038333Y-81641904D01*
X154114523Y-81603809D01*
X154152619Y-81565714D01*
G04 #@! TO.C,U4*
X140309523Y-80841904D02*
X140309523Y-81489523D01*
X140271428Y-81565714D01*
X140233333Y-81603809D01*
X140157142Y-81641904D01*
X140004761Y-81641904D01*
X139928571Y-81603809D01*
X139890476Y-81565714D01*
X139852380Y-81489523D01*
X139852380Y-80841904D01*
X139128571Y-81108571D02*
X139128571Y-81641904D01*
X139319047Y-80803809D02*
X139509523Y-81375238D01*
X139014285Y-81375238D01*
G04 #@! TO.C,U5*
X173329523Y-82111904D02*
X173329523Y-82759523D01*
X173291428Y-82835714D01*
X173253333Y-82873809D01*
X173177142Y-82911904D01*
X173024761Y-82911904D01*
X172948571Y-82873809D01*
X172910476Y-82835714D01*
X172872380Y-82759523D01*
X172872380Y-82111904D01*
X172110476Y-82111904D02*
X172491428Y-82111904D01*
X172529523Y-82492857D01*
X172491428Y-82454761D01*
X172415238Y-82416666D01*
X172224761Y-82416666D01*
X172148571Y-82454761D01*
X172110476Y-82492857D01*
X172072380Y-82569047D01*
X172072380Y-82759523D01*
X172110476Y-82835714D01*
X172148571Y-82873809D01*
X172224761Y-82911904D01*
X172415238Y-82911904D01*
X172491428Y-82873809D01*
X172529523Y-82835714D01*
G04 #@! TO.C,J10*
X137349619Y-77666904D02*
X137349619Y-78238333D01*
X137387714Y-78352619D01*
X137463904Y-78428809D01*
X137578190Y-78466904D01*
X137654380Y-78466904D01*
X136549619Y-78466904D02*
X137006761Y-78466904D01*
X136778190Y-78466904D02*
X136778190Y-77666904D01*
X136854380Y-77781190D01*
X136930571Y-77857380D01*
X137006761Y-77895476D01*
X136054380Y-77666904D02*
X135978190Y-77666904D01*
X135902000Y-77705000D01*
X135863904Y-77743095D01*
X135825809Y-77819285D01*
X135787714Y-77971666D01*
X135787714Y-78162142D01*
X135825809Y-78314523D01*
X135863904Y-78390714D01*
X135902000Y-78428809D01*
X135978190Y-78466904D01*
X136054380Y-78466904D01*
X136130571Y-78428809D01*
X136168666Y-78390714D01*
X136206761Y-78314523D01*
X136244857Y-78162142D01*
X136244857Y-77971666D01*
X136206761Y-77819285D01*
X136168666Y-77743095D01*
X136130571Y-77705000D01*
X136054380Y-77666904D01*
G04 #@! TO.C,J11*
X137299619Y-78936904D02*
X137299619Y-79508333D01*
X137337714Y-79622619D01*
X137413904Y-79698809D01*
X137528190Y-79736904D01*
X137604380Y-79736904D01*
X136499619Y-79736904D02*
X136956761Y-79736904D01*
X136728190Y-79736904D02*
X136728190Y-78936904D01*
X136804380Y-79051190D01*
X136880571Y-79127380D01*
X136956761Y-79165476D01*
X135737714Y-79736904D02*
X136194857Y-79736904D01*
X135966285Y-79736904D02*
X135966285Y-78936904D01*
X136042476Y-79051190D01*
X136118666Y-79127380D01*
X136194857Y-79165476D01*
G04 #@! TO.C,J12*
X137299619Y-88461904D02*
X137299619Y-89033333D01*
X137337714Y-89147619D01*
X137413904Y-89223809D01*
X137528190Y-89261904D01*
X137604380Y-89261904D01*
X136499619Y-89261904D02*
X136956761Y-89261904D01*
X136728190Y-89261904D02*
X136728190Y-88461904D01*
X136804380Y-88576190D01*
X136880571Y-88652380D01*
X136956761Y-88690476D01*
X136194857Y-88538095D02*
X136156761Y-88500000D01*
X136080571Y-88461904D01*
X135890095Y-88461904D01*
X135813904Y-88500000D01*
X135775809Y-88538095D01*
X135737714Y-88614285D01*
X135737714Y-88690476D01*
X135775809Y-88804761D01*
X136232952Y-89261904D01*
X135737714Y-89261904D01*
G04 #@! TO.C,J13*
X137349619Y-85921904D02*
X137349619Y-86493333D01*
X137387714Y-86607619D01*
X137463904Y-86683809D01*
X137578190Y-86721904D01*
X137654380Y-86721904D01*
X136549619Y-86721904D02*
X137006761Y-86721904D01*
X136778190Y-86721904D02*
X136778190Y-85921904D01*
X136854380Y-86036190D01*
X136930571Y-86112380D01*
X137006761Y-86150476D01*
X136282952Y-85921904D02*
X135787714Y-85921904D01*
X136054380Y-86226666D01*
X135940095Y-86226666D01*
X135863904Y-86264761D01*
X135825809Y-86302857D01*
X135787714Y-86379047D01*
X135787714Y-86569523D01*
X135825809Y-86645714D01*
X135863904Y-86683809D01*
X135940095Y-86721904D01*
X136168666Y-86721904D01*
X136244857Y-86683809D01*
X136282952Y-86645714D01*
G04 #@! TO.C,J14*
X137299619Y-87191904D02*
X137299619Y-87763333D01*
X137337714Y-87877619D01*
X137413904Y-87953809D01*
X137528190Y-87991904D01*
X137604380Y-87991904D01*
X136499619Y-87991904D02*
X136956761Y-87991904D01*
X136728190Y-87991904D02*
X136728190Y-87191904D01*
X136804380Y-87306190D01*
X136880571Y-87382380D01*
X136956761Y-87420476D01*
X135813904Y-87458571D02*
X135813904Y-87991904D01*
X136004380Y-87153809D02*
X136194857Y-87725238D01*
X135699619Y-87725238D01*
G04 #@! TO.C,J15*
X152589619Y-83381904D02*
X152589619Y-83953333D01*
X152627714Y-84067619D01*
X152703904Y-84143809D01*
X152818190Y-84181904D01*
X152894380Y-84181904D01*
X151789619Y-84181904D02*
X152246761Y-84181904D01*
X152018190Y-84181904D02*
X152018190Y-83381904D01*
X152094380Y-83496190D01*
X152170571Y-83572380D01*
X152246761Y-83610476D01*
X151065809Y-83381904D02*
X151446761Y-83381904D01*
X151484857Y-83762857D01*
X151446761Y-83724761D01*
X151370571Y-83686666D01*
X151180095Y-83686666D01*
X151103904Y-83724761D01*
X151065809Y-83762857D01*
X151027714Y-83839047D01*
X151027714Y-84029523D01*
X151065809Y-84105714D01*
X151103904Y-84143809D01*
X151180095Y-84181904D01*
X151370571Y-84181904D01*
X151446761Y-84143809D01*
X151484857Y-84105714D01*
G04 #@! TO.C,J16*
X164604619Y-79571904D02*
X164604619Y-80143333D01*
X164642714Y-80257619D01*
X164718904Y-80333809D01*
X164833190Y-80371904D01*
X164909380Y-80371904D01*
X163804619Y-80371904D02*
X164261761Y-80371904D01*
X164033190Y-80371904D02*
X164033190Y-79571904D01*
X164109380Y-79686190D01*
X164185571Y-79762380D01*
X164261761Y-79800476D01*
X163118904Y-79571904D02*
X163271285Y-79571904D01*
X163347476Y-79610000D01*
X163385571Y-79648095D01*
X163461761Y-79762380D01*
X163499857Y-79914761D01*
X163499857Y-80219523D01*
X163461761Y-80295714D01*
X163423666Y-80333809D01*
X163347476Y-80371904D01*
X163195095Y-80371904D01*
X163118904Y-80333809D01*
X163080809Y-80295714D01*
X163042714Y-80219523D01*
X163042714Y-80029047D01*
X163080809Y-79952857D01*
X163118904Y-79914761D01*
X163195095Y-79876666D01*
X163347476Y-79876666D01*
X163423666Y-79914761D01*
X163461761Y-79952857D01*
X163499857Y-80029047D01*
G04 #@! TO.C,J17*
X164604619Y-82111904D02*
X164604619Y-82683333D01*
X164642714Y-82797619D01*
X164718904Y-82873809D01*
X164833190Y-82911904D01*
X164909380Y-82911904D01*
X163804619Y-82911904D02*
X164261761Y-82911904D01*
X164033190Y-82911904D02*
X164033190Y-82111904D01*
X164109380Y-82226190D01*
X164185571Y-82302380D01*
X164261761Y-82340476D01*
X163537952Y-82111904D02*
X163004619Y-82111904D01*
X163347476Y-82911904D01*
G04 #@! TO.C,J18*
X152589619Y-84651904D02*
X152589619Y-85223333D01*
X152627714Y-85337619D01*
X152703904Y-85413809D01*
X152818190Y-85451904D01*
X152894380Y-85451904D01*
X151789619Y-85451904D02*
X152246761Y-85451904D01*
X152018190Y-85451904D02*
X152018190Y-84651904D01*
X152094380Y-84766190D01*
X152170571Y-84842380D01*
X152246761Y-84880476D01*
X151332476Y-84994761D02*
X151408666Y-84956666D01*
X151446761Y-84918571D01*
X151484857Y-84842380D01*
X151484857Y-84804285D01*
X151446761Y-84728095D01*
X151408666Y-84690000D01*
X151332476Y-84651904D01*
X151180095Y-84651904D01*
X151103904Y-84690000D01*
X151065809Y-84728095D01*
X151027714Y-84804285D01*
X151027714Y-84842380D01*
X151065809Y-84918571D01*
X151103904Y-84956666D01*
X151180095Y-84994761D01*
X151332476Y-84994761D01*
X151408666Y-85032857D01*
X151446761Y-85070952D01*
X151484857Y-85147142D01*
X151484857Y-85299523D01*
X151446761Y-85375714D01*
X151408666Y-85413809D01*
X151332476Y-85451904D01*
X151180095Y-85451904D01*
X151103904Y-85413809D01*
X151065809Y-85375714D01*
X151027714Y-85299523D01*
X151027714Y-85147142D01*
X151065809Y-85070952D01*
X151103904Y-85032857D01*
X151180095Y-84994761D01*
G04 #@! TO.C,J19*
X164654619Y-80841904D02*
X164654619Y-81413333D01*
X164692714Y-81527619D01*
X164768904Y-81603809D01*
X164883190Y-81641904D01*
X164959380Y-81641904D01*
X163854619Y-81641904D02*
X164311761Y-81641904D01*
X164083190Y-81641904D02*
X164083190Y-80841904D01*
X164159380Y-80956190D01*
X164235571Y-81032380D01*
X164311761Y-81070476D01*
X163473666Y-81641904D02*
X163321285Y-81641904D01*
X163245095Y-81603809D01*
X163207000Y-81565714D01*
X163130809Y-81451428D01*
X163092714Y-81299047D01*
X163092714Y-80994285D01*
X163130809Y-80918095D01*
X163168904Y-80880000D01*
X163245095Y-80841904D01*
X163397476Y-80841904D01*
X163473666Y-80880000D01*
X163511761Y-80918095D01*
X163549857Y-80994285D01*
X163549857Y-81184761D01*
X163511761Y-81260952D01*
X163473666Y-81299047D01*
X163397476Y-81337142D01*
X163245095Y-81337142D01*
X163168904Y-81299047D01*
X163130809Y-81260952D01*
X163092714Y-81184761D01*
G04 #@! TD*
M02*
