G04 #@! TF.GenerationSoftware,KiCad,Pcbnew,5.0.0-fee4fd1~66~ubuntu16.04.1*
G04 #@! TF.CreationDate,2018-09-19T21:37:51+02:00*
G04 #@! TF.ProjectId,roomthermostat,726F6F6D746865726D6F737461742E6B,1*
G04 #@! TF.SameCoordinates,Original*
G04 #@! TF.FileFunction,Other,Comment*
%FSLAX46Y46*%
G04 Gerber Fmt 4.6, Leading zero omitted, Abs format (unit mm)*
G04 Created by KiCad (PCBNEW 5.0.0-fee4fd1~66~ubuntu16.04.1) date Wed Sep 19 21:37:51 2018*
%MOMM*%
%LPD*%
G01*
G04 APERTURE LIST*
%ADD10C,0.250000*%
%ADD11C,0.200000*%
G04 APERTURE END LIST*
D10*
X93295952Y-140322380D02*
X92819761Y-140322380D01*
X92772142Y-140798571D01*
X92819761Y-140750952D01*
X92915000Y-140703333D01*
X93153095Y-140703333D01*
X93248333Y-140750952D01*
X93295952Y-140798571D01*
X93343571Y-140893809D01*
X93343571Y-141131904D01*
X93295952Y-141227142D01*
X93248333Y-141274761D01*
X93153095Y-141322380D01*
X92915000Y-141322380D01*
X92819761Y-141274761D01*
X92772142Y-141227142D01*
X93962619Y-140322380D02*
X94057857Y-140322380D01*
X94153095Y-140370000D01*
X94200714Y-140417619D01*
X94248333Y-140512857D01*
X94295952Y-140703333D01*
X94295952Y-140941428D01*
X94248333Y-141131904D01*
X94200714Y-141227142D01*
X94153095Y-141274761D01*
X94057857Y-141322380D01*
X93962619Y-141322380D01*
X93867380Y-141274761D01*
X93819761Y-141227142D01*
X93772142Y-141131904D01*
X93724523Y-140941428D01*
X93724523Y-140703333D01*
X93772142Y-140512857D01*
X93819761Y-140417619D01*
X93867380Y-140370000D01*
X93962619Y-140322380D01*
X94772142Y-141274761D02*
X94772142Y-141322380D01*
X94724523Y-141417619D01*
X94676904Y-141465238D01*
X95391190Y-140322380D02*
X95486428Y-140322380D01*
X95581666Y-140370000D01*
X95629285Y-140417619D01*
X95676904Y-140512857D01*
X95724523Y-140703333D01*
X95724523Y-140941428D01*
X95676904Y-141131904D01*
X95629285Y-141227142D01*
X95581666Y-141274761D01*
X95486428Y-141322380D01*
X95391190Y-141322380D01*
X95295952Y-141274761D01*
X95248333Y-141227142D01*
X95200714Y-141131904D01*
X95153095Y-140941428D01*
X95153095Y-140703333D01*
X95200714Y-140512857D01*
X95248333Y-140417619D01*
X95295952Y-140370000D01*
X95391190Y-140322380D01*
X96343571Y-140322380D02*
X96438809Y-140322380D01*
X96534047Y-140370000D01*
X96581666Y-140417619D01*
X96629285Y-140512857D01*
X96676904Y-140703333D01*
X96676904Y-140941428D01*
X96629285Y-141131904D01*
X96581666Y-141227142D01*
X96534047Y-141274761D01*
X96438809Y-141322380D01*
X96343571Y-141322380D01*
X96248333Y-141274761D01*
X96200714Y-141227142D01*
X96153095Y-141131904D01*
X96105476Y-140941428D01*
X96105476Y-140703333D01*
X96153095Y-140512857D01*
X96200714Y-140417619D01*
X96248333Y-140370000D01*
X96343571Y-140322380D01*
X97295952Y-140322380D02*
X97391190Y-140322380D01*
X97486428Y-140370000D01*
X97534047Y-140417619D01*
X97581666Y-140512857D01*
X97629285Y-140703333D01*
X97629285Y-140941428D01*
X97581666Y-141131904D01*
X97534047Y-141227142D01*
X97486428Y-141274761D01*
X97391190Y-141322380D01*
X97295952Y-141322380D01*
X97200714Y-141274761D01*
X97153095Y-141227142D01*
X97105476Y-141131904D01*
X97057857Y-140941428D01*
X97057857Y-140703333D01*
X97105476Y-140512857D01*
X97153095Y-140417619D01*
X97200714Y-140370000D01*
X97295952Y-140322380D01*
X98819761Y-141322380D02*
X98819761Y-140655714D01*
X98819761Y-140750952D02*
X98867380Y-140703333D01*
X98962619Y-140655714D01*
X99105476Y-140655714D01*
X99200714Y-140703333D01*
X99248333Y-140798571D01*
X99248333Y-141322380D01*
X99248333Y-140798571D02*
X99295952Y-140703333D01*
X99391190Y-140655714D01*
X99534047Y-140655714D01*
X99629285Y-140703333D01*
X99676904Y-140798571D01*
X99676904Y-141322380D01*
X100153095Y-141322380D02*
X100153095Y-140655714D01*
X100153095Y-140750952D02*
X100200714Y-140703333D01*
X100295952Y-140655714D01*
X100438809Y-140655714D01*
X100534047Y-140703333D01*
X100581666Y-140798571D01*
X100581666Y-141322380D01*
X100581666Y-140798571D02*
X100629285Y-140703333D01*
X100724523Y-140655714D01*
X100867380Y-140655714D01*
X100962619Y-140703333D01*
X101010238Y-140798571D01*
X101010238Y-141322380D01*
X71915000Y-139870000D02*
X121915000Y-139870000D01*
X71915000Y-100370000D02*
X71915000Y-141870000D01*
X121915000Y-100370000D02*
X121915000Y-141870000D01*
X121915000Y-139870000D02*
X120788496Y-140456421D01*
X121915000Y-139870000D02*
X120788496Y-139283579D01*
X71915000Y-139870000D02*
X73041504Y-140456421D01*
X71915000Y-139870000D02*
X73041504Y-139283579D01*
D11*
X121915000Y-100370000D02*
G75*
G03X121915000Y-100370000I-25000000J0D01*
G01*
D10*
X93248333Y-60822380D02*
X93057857Y-60822380D01*
X92962619Y-60870000D01*
X92915000Y-60917619D01*
X92819761Y-61060476D01*
X92772142Y-61250952D01*
X92772142Y-61631904D01*
X92819761Y-61727142D01*
X92867380Y-61774761D01*
X92962619Y-61822380D01*
X93153095Y-61822380D01*
X93248333Y-61774761D01*
X93295952Y-61727142D01*
X93343571Y-61631904D01*
X93343571Y-61393809D01*
X93295952Y-61298571D01*
X93248333Y-61250952D01*
X93153095Y-61203333D01*
X92962619Y-61203333D01*
X92867380Y-61250952D01*
X92819761Y-61298571D01*
X92772142Y-61393809D01*
X93962619Y-60822380D02*
X94057857Y-60822380D01*
X94153095Y-60870000D01*
X94200714Y-60917619D01*
X94248333Y-61012857D01*
X94295952Y-61203333D01*
X94295952Y-61441428D01*
X94248333Y-61631904D01*
X94200714Y-61727142D01*
X94153095Y-61774761D01*
X94057857Y-61822380D01*
X93962619Y-61822380D01*
X93867380Y-61774761D01*
X93819761Y-61727142D01*
X93772142Y-61631904D01*
X93724523Y-61441428D01*
X93724523Y-61203333D01*
X93772142Y-61012857D01*
X93819761Y-60917619D01*
X93867380Y-60870000D01*
X93962619Y-60822380D01*
X94772142Y-61774761D02*
X94772142Y-61822380D01*
X94724523Y-61917619D01*
X94676904Y-61965238D01*
X95391190Y-60822380D02*
X95486428Y-60822380D01*
X95581666Y-60870000D01*
X95629285Y-60917619D01*
X95676904Y-61012857D01*
X95724523Y-61203333D01*
X95724523Y-61441428D01*
X95676904Y-61631904D01*
X95629285Y-61727142D01*
X95581666Y-61774761D01*
X95486428Y-61822380D01*
X95391190Y-61822380D01*
X95295952Y-61774761D01*
X95248333Y-61727142D01*
X95200714Y-61631904D01*
X95153095Y-61441428D01*
X95153095Y-61203333D01*
X95200714Y-61012857D01*
X95248333Y-60917619D01*
X95295952Y-60870000D01*
X95391190Y-60822380D01*
X96343571Y-60822380D02*
X96438809Y-60822380D01*
X96534047Y-60870000D01*
X96581666Y-60917619D01*
X96629285Y-61012857D01*
X96676904Y-61203333D01*
X96676904Y-61441428D01*
X96629285Y-61631904D01*
X96581666Y-61727142D01*
X96534047Y-61774761D01*
X96438809Y-61822380D01*
X96343571Y-61822380D01*
X96248333Y-61774761D01*
X96200714Y-61727142D01*
X96153095Y-61631904D01*
X96105476Y-61441428D01*
X96105476Y-61203333D01*
X96153095Y-61012857D01*
X96200714Y-60917619D01*
X96248333Y-60870000D01*
X96343571Y-60822380D01*
X97295952Y-60822380D02*
X97391190Y-60822380D01*
X97486428Y-60870000D01*
X97534047Y-60917619D01*
X97581666Y-61012857D01*
X97629285Y-61203333D01*
X97629285Y-61441428D01*
X97581666Y-61631904D01*
X97534047Y-61727142D01*
X97486428Y-61774761D01*
X97391190Y-61822380D01*
X97295952Y-61822380D01*
X97200714Y-61774761D01*
X97153095Y-61727142D01*
X97105476Y-61631904D01*
X97057857Y-61441428D01*
X97057857Y-61203333D01*
X97105476Y-61012857D01*
X97153095Y-60917619D01*
X97200714Y-60870000D01*
X97295952Y-60822380D01*
X98819761Y-61822380D02*
X98819761Y-61155714D01*
X98819761Y-61250952D02*
X98867380Y-61203333D01*
X98962619Y-61155714D01*
X99105476Y-61155714D01*
X99200714Y-61203333D01*
X99248333Y-61298571D01*
X99248333Y-61822380D01*
X99248333Y-61298571D02*
X99295952Y-61203333D01*
X99391190Y-61155714D01*
X99534047Y-61155714D01*
X99629285Y-61203333D01*
X99676904Y-61298571D01*
X99676904Y-61822380D01*
X100153095Y-61822380D02*
X100153095Y-61155714D01*
X100153095Y-61250952D02*
X100200714Y-61203333D01*
X100295952Y-61155714D01*
X100438809Y-61155714D01*
X100534047Y-61203333D01*
X100581666Y-61298571D01*
X100581666Y-61822380D01*
X100581666Y-61298571D02*
X100629285Y-61203333D01*
X100724523Y-61155714D01*
X100867380Y-61155714D01*
X100962619Y-61203333D01*
X101010238Y-61298571D01*
X101010238Y-61822380D01*
X66915000Y-62370000D02*
X126915000Y-62370000D01*
X66915000Y-100370000D02*
X66915000Y-60370000D01*
X126915000Y-100370000D02*
X126915000Y-60370000D01*
X126915000Y-62370000D02*
X125788496Y-62956421D01*
X126915000Y-62370000D02*
X125788496Y-61783579D01*
X66915000Y-62370000D02*
X68041504Y-62956421D01*
X66915000Y-62370000D02*
X68041504Y-61783579D01*
X136462619Y-96703333D02*
X136462619Y-96512857D01*
X136415000Y-96417619D01*
X136367380Y-96370000D01*
X136224523Y-96274761D01*
X136034047Y-96227142D01*
X135653095Y-96227142D01*
X135557857Y-96274761D01*
X135510238Y-96322380D01*
X135462619Y-96417619D01*
X135462619Y-96608095D01*
X135510238Y-96703333D01*
X135557857Y-96750952D01*
X135653095Y-96798571D01*
X135891190Y-96798571D01*
X135986428Y-96750952D01*
X136034047Y-96703333D01*
X136081666Y-96608095D01*
X136081666Y-96417619D01*
X136034047Y-96322380D01*
X135986428Y-96274761D01*
X135891190Y-96227142D01*
X136462619Y-97417619D02*
X136462619Y-97512857D01*
X136415000Y-97608095D01*
X136367380Y-97655714D01*
X136272142Y-97703333D01*
X136081666Y-97750952D01*
X135843571Y-97750952D01*
X135653095Y-97703333D01*
X135557857Y-97655714D01*
X135510238Y-97608095D01*
X135462619Y-97512857D01*
X135462619Y-97417619D01*
X135510238Y-97322380D01*
X135557857Y-97274761D01*
X135653095Y-97227142D01*
X135843571Y-97179523D01*
X136081666Y-97179523D01*
X136272142Y-97227142D01*
X136367380Y-97274761D01*
X136415000Y-97322380D01*
X136462619Y-97417619D01*
X135510238Y-98227142D02*
X135462619Y-98227142D01*
X135367380Y-98179523D01*
X135319761Y-98131904D01*
X136462619Y-98846190D02*
X136462619Y-98941428D01*
X136415000Y-99036666D01*
X136367380Y-99084285D01*
X136272142Y-99131904D01*
X136081666Y-99179523D01*
X135843571Y-99179523D01*
X135653095Y-99131904D01*
X135557857Y-99084285D01*
X135510238Y-99036666D01*
X135462619Y-98941428D01*
X135462619Y-98846190D01*
X135510238Y-98750952D01*
X135557857Y-98703333D01*
X135653095Y-98655714D01*
X135843571Y-98608095D01*
X136081666Y-98608095D01*
X136272142Y-98655714D01*
X136367380Y-98703333D01*
X136415000Y-98750952D01*
X136462619Y-98846190D01*
X136462619Y-99798571D02*
X136462619Y-99893809D01*
X136415000Y-99989047D01*
X136367380Y-100036666D01*
X136272142Y-100084285D01*
X136081666Y-100131904D01*
X135843571Y-100131904D01*
X135653095Y-100084285D01*
X135557857Y-100036666D01*
X135510238Y-99989047D01*
X135462619Y-99893809D01*
X135462619Y-99798571D01*
X135510238Y-99703333D01*
X135557857Y-99655714D01*
X135653095Y-99608095D01*
X135843571Y-99560476D01*
X136081666Y-99560476D01*
X136272142Y-99608095D01*
X136367380Y-99655714D01*
X136415000Y-99703333D01*
X136462619Y-99798571D01*
X136462619Y-100750952D02*
X136462619Y-100846190D01*
X136415000Y-100941428D01*
X136367380Y-100989047D01*
X136272142Y-101036666D01*
X136081666Y-101084285D01*
X135843571Y-101084285D01*
X135653095Y-101036666D01*
X135557857Y-100989047D01*
X135510238Y-100941428D01*
X135462619Y-100846190D01*
X135462619Y-100750952D01*
X135510238Y-100655714D01*
X135557857Y-100608095D01*
X135653095Y-100560476D01*
X135843571Y-100512857D01*
X136081666Y-100512857D01*
X136272142Y-100560476D01*
X136367380Y-100608095D01*
X136415000Y-100655714D01*
X136462619Y-100750952D01*
X135462619Y-102274761D02*
X136129285Y-102274761D01*
X136034047Y-102274761D02*
X136081666Y-102322380D01*
X136129285Y-102417619D01*
X136129285Y-102560476D01*
X136081666Y-102655714D01*
X135986428Y-102703333D01*
X135462619Y-102703333D01*
X135986428Y-102703333D02*
X136081666Y-102750952D01*
X136129285Y-102846190D01*
X136129285Y-102989047D01*
X136081666Y-103084285D01*
X135986428Y-103131904D01*
X135462619Y-103131904D01*
X135462619Y-103608095D02*
X136129285Y-103608095D01*
X136034047Y-103608095D02*
X136081666Y-103655714D01*
X136129285Y-103750952D01*
X136129285Y-103893809D01*
X136081666Y-103989047D01*
X135986428Y-104036666D01*
X135462619Y-104036666D01*
X135986428Y-104036666D02*
X136081666Y-104084285D01*
X136129285Y-104179523D01*
X136129285Y-104322380D01*
X136081666Y-104417619D01*
X135986428Y-104465238D01*
X135462619Y-104465238D01*
X134915000Y-70370000D02*
X134915000Y-130370000D01*
X96915000Y-70370000D02*
X136915000Y-70370000D01*
X96915000Y-130370000D02*
X136915000Y-130370000D01*
X134915000Y-130370000D02*
X134328579Y-129243496D01*
X134915000Y-130370000D02*
X135501421Y-129243496D01*
X134915000Y-70370000D02*
X134328579Y-71496504D01*
X134915000Y-70370000D02*
X135501421Y-71496504D01*
D11*
X131915000Y-100370000D02*
X61915000Y-100370000D01*
X96915000Y-65870000D02*
X96915000Y-134870000D01*
X126915000Y-100370000D02*
G75*
G03X126915000Y-100370000I-30000000J0D01*
G01*
D10*
X140462619Y-96703333D02*
X140462619Y-96512857D01*
X140415000Y-96417619D01*
X140367380Y-96370000D01*
X140224523Y-96274761D01*
X140034047Y-96227142D01*
X139653095Y-96227142D01*
X139557857Y-96274761D01*
X139510238Y-96322380D01*
X139462619Y-96417619D01*
X139462619Y-96608095D01*
X139510238Y-96703333D01*
X139557857Y-96750952D01*
X139653095Y-96798571D01*
X139891190Y-96798571D01*
X139986428Y-96750952D01*
X140034047Y-96703333D01*
X140081666Y-96608095D01*
X140081666Y-96417619D01*
X140034047Y-96322380D01*
X139986428Y-96274761D01*
X139891190Y-96227142D01*
X140034047Y-97370000D02*
X140081666Y-97274761D01*
X140129285Y-97227142D01*
X140224523Y-97179523D01*
X140272142Y-97179523D01*
X140367380Y-97227142D01*
X140415000Y-97274761D01*
X140462619Y-97370000D01*
X140462619Y-97560476D01*
X140415000Y-97655714D01*
X140367380Y-97703333D01*
X140272142Y-97750952D01*
X140224523Y-97750952D01*
X140129285Y-97703333D01*
X140081666Y-97655714D01*
X140034047Y-97560476D01*
X140034047Y-97370000D01*
X139986428Y-97274761D01*
X139938809Y-97227142D01*
X139843571Y-97179523D01*
X139653095Y-97179523D01*
X139557857Y-97227142D01*
X139510238Y-97274761D01*
X139462619Y-97370000D01*
X139462619Y-97560476D01*
X139510238Y-97655714D01*
X139557857Y-97703333D01*
X139653095Y-97750952D01*
X139843571Y-97750952D01*
X139938809Y-97703333D01*
X139986428Y-97655714D01*
X140034047Y-97560476D01*
X139510238Y-98227142D02*
X139462619Y-98227142D01*
X139367380Y-98179523D01*
X139319761Y-98131904D01*
X140462619Y-98846190D02*
X140462619Y-98941428D01*
X140415000Y-99036666D01*
X140367380Y-99084285D01*
X140272142Y-99131904D01*
X140081666Y-99179523D01*
X139843571Y-99179523D01*
X139653095Y-99131904D01*
X139557857Y-99084285D01*
X139510238Y-99036666D01*
X139462619Y-98941428D01*
X139462619Y-98846190D01*
X139510238Y-98750952D01*
X139557857Y-98703333D01*
X139653095Y-98655714D01*
X139843571Y-98608095D01*
X140081666Y-98608095D01*
X140272142Y-98655714D01*
X140367380Y-98703333D01*
X140415000Y-98750952D01*
X140462619Y-98846190D01*
X140462619Y-99798571D02*
X140462619Y-99893809D01*
X140415000Y-99989047D01*
X140367380Y-100036666D01*
X140272142Y-100084285D01*
X140081666Y-100131904D01*
X139843571Y-100131904D01*
X139653095Y-100084285D01*
X139557857Y-100036666D01*
X139510238Y-99989047D01*
X139462619Y-99893809D01*
X139462619Y-99798571D01*
X139510238Y-99703333D01*
X139557857Y-99655714D01*
X139653095Y-99608095D01*
X139843571Y-99560476D01*
X140081666Y-99560476D01*
X140272142Y-99608095D01*
X140367380Y-99655714D01*
X140415000Y-99703333D01*
X140462619Y-99798571D01*
X140462619Y-100750952D02*
X140462619Y-100846190D01*
X140415000Y-100941428D01*
X140367380Y-100989047D01*
X140272142Y-101036666D01*
X140081666Y-101084285D01*
X139843571Y-101084285D01*
X139653095Y-101036666D01*
X139557857Y-100989047D01*
X139510238Y-100941428D01*
X139462619Y-100846190D01*
X139462619Y-100750952D01*
X139510238Y-100655714D01*
X139557857Y-100608095D01*
X139653095Y-100560476D01*
X139843571Y-100512857D01*
X140081666Y-100512857D01*
X140272142Y-100560476D01*
X140367380Y-100608095D01*
X140415000Y-100655714D01*
X140462619Y-100750952D01*
X139462619Y-102274761D02*
X140129285Y-102274761D01*
X140034047Y-102274761D02*
X140081666Y-102322380D01*
X140129285Y-102417619D01*
X140129285Y-102560476D01*
X140081666Y-102655714D01*
X139986428Y-102703333D01*
X139462619Y-102703333D01*
X139986428Y-102703333D02*
X140081666Y-102750952D01*
X140129285Y-102846190D01*
X140129285Y-102989047D01*
X140081666Y-103084285D01*
X139986428Y-103131904D01*
X139462619Y-103131904D01*
X139462619Y-103608095D02*
X140129285Y-103608095D01*
X140034047Y-103608095D02*
X140081666Y-103655714D01*
X140129285Y-103750952D01*
X140129285Y-103893809D01*
X140081666Y-103989047D01*
X139986428Y-104036666D01*
X139462619Y-104036666D01*
X139986428Y-104036666D02*
X140081666Y-104084285D01*
X140129285Y-104179523D01*
X140129285Y-104322380D01*
X140081666Y-104417619D01*
X139986428Y-104465238D01*
X139462619Y-104465238D01*
X138915000Y-66370000D02*
X138915000Y-134370000D01*
X130915000Y-66370000D02*
X140915000Y-66370000D01*
X130915000Y-134370000D02*
X140915000Y-134370000D01*
X138915000Y-134370000D02*
X138328579Y-133243496D01*
X138915000Y-134370000D02*
X139501421Y-133243496D01*
X138915000Y-66370000D02*
X138328579Y-67496504D01*
X138915000Y-66370000D02*
X139501421Y-67496504D01*
X93248333Y-56322380D02*
X93057857Y-56322380D01*
X92962619Y-56370000D01*
X92915000Y-56417619D01*
X92819761Y-56560476D01*
X92772142Y-56750952D01*
X92772142Y-57131904D01*
X92819761Y-57227142D01*
X92867380Y-57274761D01*
X92962619Y-57322380D01*
X93153095Y-57322380D01*
X93248333Y-57274761D01*
X93295952Y-57227142D01*
X93343571Y-57131904D01*
X93343571Y-56893809D01*
X93295952Y-56798571D01*
X93248333Y-56750952D01*
X93153095Y-56703333D01*
X92962619Y-56703333D01*
X92867380Y-56750952D01*
X92819761Y-56798571D01*
X92772142Y-56893809D01*
X93915000Y-56750952D02*
X93819761Y-56703333D01*
X93772142Y-56655714D01*
X93724523Y-56560476D01*
X93724523Y-56512857D01*
X93772142Y-56417619D01*
X93819761Y-56370000D01*
X93915000Y-56322380D01*
X94105476Y-56322380D01*
X94200714Y-56370000D01*
X94248333Y-56417619D01*
X94295952Y-56512857D01*
X94295952Y-56560476D01*
X94248333Y-56655714D01*
X94200714Y-56703333D01*
X94105476Y-56750952D01*
X93915000Y-56750952D01*
X93819761Y-56798571D01*
X93772142Y-56846190D01*
X93724523Y-56941428D01*
X93724523Y-57131904D01*
X93772142Y-57227142D01*
X93819761Y-57274761D01*
X93915000Y-57322380D01*
X94105476Y-57322380D01*
X94200714Y-57274761D01*
X94248333Y-57227142D01*
X94295952Y-57131904D01*
X94295952Y-56941428D01*
X94248333Y-56846190D01*
X94200714Y-56798571D01*
X94105476Y-56750952D01*
X94772142Y-57274761D02*
X94772142Y-57322380D01*
X94724523Y-57417619D01*
X94676904Y-57465238D01*
X95391190Y-56322380D02*
X95486428Y-56322380D01*
X95581666Y-56370000D01*
X95629285Y-56417619D01*
X95676904Y-56512857D01*
X95724523Y-56703333D01*
X95724523Y-56941428D01*
X95676904Y-57131904D01*
X95629285Y-57227142D01*
X95581666Y-57274761D01*
X95486428Y-57322380D01*
X95391190Y-57322380D01*
X95295952Y-57274761D01*
X95248333Y-57227142D01*
X95200714Y-57131904D01*
X95153095Y-56941428D01*
X95153095Y-56703333D01*
X95200714Y-56512857D01*
X95248333Y-56417619D01*
X95295952Y-56370000D01*
X95391190Y-56322380D01*
X96343571Y-56322380D02*
X96438809Y-56322380D01*
X96534047Y-56370000D01*
X96581666Y-56417619D01*
X96629285Y-56512857D01*
X96676904Y-56703333D01*
X96676904Y-56941428D01*
X96629285Y-57131904D01*
X96581666Y-57227142D01*
X96534047Y-57274761D01*
X96438809Y-57322380D01*
X96343571Y-57322380D01*
X96248333Y-57274761D01*
X96200714Y-57227142D01*
X96153095Y-57131904D01*
X96105476Y-56941428D01*
X96105476Y-56703333D01*
X96153095Y-56512857D01*
X96200714Y-56417619D01*
X96248333Y-56370000D01*
X96343571Y-56322380D01*
X97295952Y-56322380D02*
X97391190Y-56322380D01*
X97486428Y-56370000D01*
X97534047Y-56417619D01*
X97581666Y-56512857D01*
X97629285Y-56703333D01*
X97629285Y-56941428D01*
X97581666Y-57131904D01*
X97534047Y-57227142D01*
X97486428Y-57274761D01*
X97391190Y-57322380D01*
X97295952Y-57322380D01*
X97200714Y-57274761D01*
X97153095Y-57227142D01*
X97105476Y-57131904D01*
X97057857Y-56941428D01*
X97057857Y-56703333D01*
X97105476Y-56512857D01*
X97153095Y-56417619D01*
X97200714Y-56370000D01*
X97295952Y-56322380D01*
X98819761Y-57322380D02*
X98819761Y-56655714D01*
X98819761Y-56750952D02*
X98867380Y-56703333D01*
X98962619Y-56655714D01*
X99105476Y-56655714D01*
X99200714Y-56703333D01*
X99248333Y-56798571D01*
X99248333Y-57322380D01*
X99248333Y-56798571D02*
X99295952Y-56703333D01*
X99391190Y-56655714D01*
X99534047Y-56655714D01*
X99629285Y-56703333D01*
X99676904Y-56798571D01*
X99676904Y-57322380D01*
X100153095Y-57322380D02*
X100153095Y-56655714D01*
X100153095Y-56750952D02*
X100200714Y-56703333D01*
X100295952Y-56655714D01*
X100438809Y-56655714D01*
X100534047Y-56703333D01*
X100581666Y-56798571D01*
X100581666Y-57322380D01*
X100581666Y-56798571D02*
X100629285Y-56703333D01*
X100724523Y-56655714D01*
X100867380Y-56655714D01*
X100962619Y-56703333D01*
X101010238Y-56798571D01*
X101010238Y-57322380D01*
X62915000Y-57870000D02*
X130915000Y-57870000D01*
X62915000Y-65870000D02*
X62915000Y-55870000D01*
X130915000Y-65870000D02*
X130915000Y-55870000D01*
X130915000Y-57870000D02*
X129788496Y-58456421D01*
X130915000Y-57870000D02*
X129788496Y-57283579D01*
X62915000Y-57870000D02*
X64041504Y-58456421D01*
X62915000Y-57870000D02*
X64041504Y-57283579D01*
M02*
