G04 #@! TF.GenerationSoftware,KiCad,Pcbnew,5.0.0-fee4fd1~66~ubuntu16.04.1*
G04 #@! TF.CreationDate,2018-09-19T21:37:51+02:00*
G04 #@! TF.ProjectId,roomthermostat,726F6F6D746865726D6F737461742E6B,1*
G04 #@! TF.SameCoordinates,Original*
G04 #@! TF.FileFunction,Legend,Top*
G04 #@! TF.FilePolarity,Positive*
%FSLAX46Y46*%
G04 Gerber Fmt 4.6, Leading zero omitted, Abs format (unit mm)*
G04 Created by KiCad (PCBNEW 5.0.0-fee4fd1~66~ubuntu16.04.1) date Wed Sep 19 21:37:51 2018*
%MOMM*%
%LPD*%
G01*
G04 APERTURE LIST*
%ADD10C,0.300000*%
%ADD11C,0.200000*%
%ADD12C,0.150000*%
%ADD13C,0.254000*%
G04 APERTURE END LIST*
D10*
X96022142Y-122548571D02*
X96307857Y-122548571D01*
X96450714Y-122620000D01*
X96593571Y-122762857D01*
X96665000Y-123048571D01*
X96665000Y-123548571D01*
X96593571Y-123834285D01*
X96450714Y-123977142D01*
X96307857Y-124048571D01*
X96022142Y-124048571D01*
X95879285Y-123977142D01*
X95736428Y-123834285D01*
X95665000Y-123548571D01*
X95665000Y-123048571D01*
X95736428Y-122762857D01*
X95879285Y-122620000D01*
X96022142Y-122548571D01*
X97307857Y-124048571D02*
X97307857Y-122548571D01*
X98165000Y-124048571D02*
X97522142Y-123191428D01*
X98165000Y-122548571D02*
X97307857Y-123405714D01*
D11*
X106915000Y-123870000D02*
X107915000Y-124870000D01*
X107915000Y-124870000D02*
X108915000Y-123870000D01*
X107915000Y-124870000D02*
X107915000Y-121870000D01*
X85915000Y-121870000D02*
X86915000Y-122870000D01*
X84915000Y-122870000D02*
X85915000Y-121870000D01*
X85915000Y-124870000D02*
X85915000Y-121870000D01*
D12*
G04 #@! TO.C,LOGO1*
X128583780Y-131559860D02*
X128944460Y-133030520D01*
X128944460Y-133030520D02*
X129223860Y-131968800D01*
X129223860Y-131968800D02*
X129533740Y-133040680D01*
X129533740Y-133040680D02*
X129874100Y-131590340D01*
X127163920Y-132250740D02*
X127953860Y-132240580D01*
X127953860Y-132240580D02*
X127964020Y-132250740D01*
X127964020Y-132250740D02*
X127964020Y-132240580D01*
X128004660Y-131529380D02*
X128004660Y-133071160D01*
X127115660Y-131519220D02*
X127115660Y-133088940D01*
X127115660Y-133088940D02*
X127125820Y-133078780D01*
X126564480Y-131620820D02*
X126213960Y-131539540D01*
X126213960Y-131539540D02*
X125893920Y-131529380D01*
X125893920Y-131529380D02*
X125655160Y-131730040D01*
X125655160Y-131730040D02*
X125624680Y-131999280D01*
X125624680Y-131999280D02*
X125865980Y-132240580D01*
X125865980Y-132240580D02*
X126254600Y-132370120D01*
X126254600Y-132370120D02*
X126434940Y-132530140D01*
X126434940Y-132530140D02*
X126475580Y-132829860D01*
X126475580Y-132829860D02*
X126244440Y-133050840D01*
X126244440Y-133050840D02*
X125924400Y-133078780D01*
X125924400Y-133078780D02*
X125573880Y-132969560D01*
X124535020Y-131519220D02*
X124286100Y-131539540D01*
X124286100Y-131539540D02*
X124044800Y-131780840D01*
X124044800Y-131780840D02*
X123955900Y-132271060D01*
X123955900Y-132271060D02*
X123983840Y-132619040D01*
X123983840Y-132619040D02*
X124184500Y-132939080D01*
X124184500Y-132939080D02*
X124435960Y-133061000D01*
X124435960Y-133061000D02*
X124745840Y-132989880D01*
X124745840Y-132989880D02*
X124964280Y-132809540D01*
X124964280Y-132809540D02*
X125035400Y-132349800D01*
X125035400Y-132349800D02*
X124984600Y-131940860D01*
X124984600Y-131940860D02*
X124875380Y-131658920D01*
X124875380Y-131658920D02*
X124514700Y-131529380D01*
X125134460Y-129799640D02*
X124875380Y-130360980D01*
X124875380Y-130360980D02*
X125413860Y-130879140D01*
X125413860Y-130879140D02*
X125934560Y-130609900D01*
X125934560Y-130609900D02*
X126213960Y-130769920D01*
X127654140Y-130749600D02*
X127984340Y-130559100D01*
X127984340Y-130559100D02*
X128423760Y-130889300D01*
X128423760Y-130889300D02*
X128896200Y-130399080D01*
X128896200Y-130399080D02*
X128614260Y-129919020D01*
X128614260Y-129919020D02*
X128804760Y-129449120D01*
X128804760Y-129449120D02*
X129414360Y-129261160D01*
X129414360Y-129261160D02*
X129414360Y-128580440D01*
X129414360Y-128580440D02*
X128855560Y-128440740D01*
X128855560Y-128440740D02*
X128654900Y-127869240D01*
X128654900Y-127869240D02*
X128924140Y-127399340D01*
X128924140Y-127399340D02*
X128454240Y-126888800D01*
X128454240Y-126888800D02*
X127936080Y-127150420D01*
X127936080Y-127150420D02*
X127466180Y-126949760D01*
X127466180Y-126949760D02*
X127296000Y-126408740D01*
X127296000Y-126408740D02*
X126605120Y-126390960D01*
X126605120Y-126390960D02*
X126394300Y-126939600D01*
X126394300Y-126939600D02*
X125975200Y-127109780D01*
X125975200Y-127109780D02*
X125424020Y-126840540D01*
X125424020Y-126840540D02*
X124905860Y-127368860D01*
X124905860Y-127368860D02*
X125154780Y-127909880D01*
X125154780Y-127909880D02*
X124984600Y-128389940D01*
X124984600Y-128389940D02*
X124435960Y-128489000D01*
X124435960Y-128489000D02*
X124425800Y-129190040D01*
X124425800Y-129190040D02*
X124984600Y-129390700D01*
X124984600Y-129390700D02*
X125124300Y-129789480D01*
X127265520Y-129769160D02*
X127565240Y-129619300D01*
X127565240Y-129619300D02*
X127765900Y-129421180D01*
X127765900Y-129421180D02*
X127915760Y-129019860D01*
X127915760Y-129019860D02*
X127915760Y-128621080D01*
X127915760Y-128621080D02*
X127765900Y-128270560D01*
X127765900Y-128270560D02*
X127313780Y-127920040D01*
X127313780Y-127920040D02*
X126864200Y-127869240D01*
X126864200Y-127869240D02*
X126465420Y-127970840D01*
X126465420Y-127970840D02*
X126064100Y-128318820D01*
X126064100Y-128318820D02*
X125914240Y-128770940D01*
X125914240Y-128770940D02*
X125965040Y-129268780D01*
X125965040Y-129268780D02*
X126213960Y-129571040D01*
X126213960Y-129571040D02*
X126564480Y-129769160D01*
X126564480Y-129769160D02*
X126213960Y-130769920D01*
X127265520Y-129769160D02*
X127664300Y-130769920D01*
D13*
G04 #@! TO.C,H1*
X91835000Y-72910000D02*
X91835000Y-67830000D01*
X91835000Y-67830000D02*
X101995000Y-67830000D01*
X101995000Y-67830000D02*
X101995000Y-72910000D01*
X101995000Y-72910000D02*
X91835000Y-72910000D01*
G04 #@! TO.C,H4*
X64375000Y-95290000D02*
X69455000Y-95290000D01*
X69455000Y-95290000D02*
X69455000Y-105450000D01*
X69455000Y-105450000D02*
X64375000Y-105450000D01*
X64375000Y-105450000D02*
X64375000Y-95290000D01*
G04 #@! TO.C,H2*
X124375000Y-95290000D02*
X129455000Y-95290000D01*
X129455000Y-95290000D02*
X129455000Y-105450000D01*
X129455000Y-105450000D02*
X124375000Y-105450000D01*
X124375000Y-105450000D02*
X124375000Y-95290000D01*
G04 #@! TO.C,H3*
X91835000Y-132910000D02*
X91835000Y-127830000D01*
X91835000Y-127830000D02*
X101995000Y-127830000D01*
X101995000Y-127830000D02*
X101995000Y-132910000D01*
X101995000Y-132910000D02*
X91835000Y-132910000D01*
D12*
G04 #@! TO.C,MOD2*
X83915000Y-88870000D02*
X109915000Y-88870000D01*
X109915000Y-88870000D02*
X109915000Y-103870000D01*
X109915000Y-103870000D02*
X83915000Y-103870000D01*
X83915000Y-103870000D02*
X83915000Y-88870000D01*
X110165000Y-88620000D02*
X83665000Y-88620000D01*
X83665000Y-88620000D02*
X83665000Y-107620000D01*
X83665000Y-107620000D02*
X110165000Y-107620000D01*
X110165000Y-107620000D02*
X110165000Y-88620000D01*
X83415000Y-112120000D02*
X110415000Y-112120000D01*
X110415000Y-112120000D02*
X110415000Y-84620000D01*
X110415000Y-84620000D02*
X83415000Y-84620000D01*
X83415000Y-84620000D02*
X83415000Y-112120000D01*
G04 #@! TO.C,S1*
X88173871Y-116370000D02*
G75*
G03X88173871Y-116370000I-2258871J0D01*
G01*
D10*
X85915000Y-117270000D02*
X85915000Y-117970000D01*
X85915000Y-114820000D02*
X85915000Y-115470000D01*
X85915000Y-115470000D02*
X87015000Y-117270000D01*
D12*
X88965000Y-115320000D02*
X88965000Y-117320000D01*
X82965000Y-115320000D02*
X82965000Y-117320000D01*
X83865000Y-119420000D02*
X88065000Y-119420000D01*
X83765000Y-113320000D02*
X88065000Y-113320000D01*
G04 #@! TO.C,S2*
X99173871Y-116370000D02*
G75*
G03X99173871Y-116370000I-2258871J0D01*
G01*
D10*
X96915000Y-117270000D02*
X96915000Y-117970000D01*
X96915000Y-114820000D02*
X96915000Y-115470000D01*
X96915000Y-115470000D02*
X98015000Y-117270000D01*
D12*
X99965000Y-115320000D02*
X99965000Y-117320000D01*
X93965000Y-115320000D02*
X93965000Y-117320000D01*
X94865000Y-119420000D02*
X99065000Y-119420000D01*
X94765000Y-113320000D02*
X99065000Y-113320000D01*
G04 #@! TO.C,S3*
X110173871Y-116370000D02*
G75*
G03X110173871Y-116370000I-2258871J0D01*
G01*
D10*
X107915000Y-117270000D02*
X107915000Y-117970000D01*
X107915000Y-114820000D02*
X107915000Y-115470000D01*
X107915000Y-115470000D02*
X109015000Y-117270000D01*
D12*
X110965000Y-115320000D02*
X110965000Y-117320000D01*
X104965000Y-115320000D02*
X104965000Y-117320000D01*
X105865000Y-119420000D02*
X110065000Y-119420000D01*
X105765000Y-113320000D02*
X110065000Y-113320000D01*
G04 #@! TO.C,MOD2*
X95331666Y-83822380D02*
X95331666Y-82822380D01*
X95665000Y-83536666D01*
X95998333Y-82822380D01*
X95998333Y-83822380D01*
X96665000Y-82822380D02*
X96855476Y-82822380D01*
X96950714Y-82870000D01*
X97045952Y-82965238D01*
X97093571Y-83155714D01*
X97093571Y-83489047D01*
X97045952Y-83679523D01*
X96950714Y-83774761D01*
X96855476Y-83822380D01*
X96665000Y-83822380D01*
X96569761Y-83774761D01*
X96474523Y-83679523D01*
X96426904Y-83489047D01*
X96426904Y-83155714D01*
X96474523Y-82965238D01*
X96569761Y-82870000D01*
X96665000Y-82822380D01*
X97522142Y-83822380D02*
X97522142Y-82822380D01*
X97760238Y-82822380D01*
X97903095Y-82870000D01*
X97998333Y-82965238D01*
X98045952Y-83060476D01*
X98093571Y-83250952D01*
X98093571Y-83393809D01*
X98045952Y-83584285D01*
X97998333Y-83679523D01*
X97903095Y-83774761D01*
X97760238Y-83822380D01*
X97522142Y-83822380D01*
X98474523Y-82917619D02*
X98522142Y-82870000D01*
X98617380Y-82822380D01*
X98855476Y-82822380D01*
X98950714Y-82870000D01*
X98998333Y-82917619D01*
X99045952Y-83012857D01*
X99045952Y-83108095D01*
X98998333Y-83250952D01*
X98426904Y-83822380D01*
X99045952Y-83822380D01*
G04 #@! TO.C,S1*
X79653095Y-116774761D02*
X79795952Y-116822380D01*
X80034047Y-116822380D01*
X80129285Y-116774761D01*
X80176904Y-116727142D01*
X80224523Y-116631904D01*
X80224523Y-116536666D01*
X80176904Y-116441428D01*
X80129285Y-116393809D01*
X80034047Y-116346190D01*
X79843571Y-116298571D01*
X79748333Y-116250952D01*
X79700714Y-116203333D01*
X79653095Y-116108095D01*
X79653095Y-116012857D01*
X79700714Y-115917619D01*
X79748333Y-115870000D01*
X79843571Y-115822380D01*
X80081666Y-115822380D01*
X80224523Y-115870000D01*
X81176904Y-116822380D02*
X80605476Y-116822380D01*
X80891190Y-116822380D02*
X80891190Y-115822380D01*
X80795952Y-115965238D01*
X80700714Y-116060476D01*
X80605476Y-116108095D01*
G04 #@! TO.C,S2*
X91153095Y-116774761D02*
X91295952Y-116822380D01*
X91534047Y-116822380D01*
X91629285Y-116774761D01*
X91676904Y-116727142D01*
X91724523Y-116631904D01*
X91724523Y-116536666D01*
X91676904Y-116441428D01*
X91629285Y-116393809D01*
X91534047Y-116346190D01*
X91343571Y-116298571D01*
X91248333Y-116250952D01*
X91200714Y-116203333D01*
X91153095Y-116108095D01*
X91153095Y-116012857D01*
X91200714Y-115917619D01*
X91248333Y-115870000D01*
X91343571Y-115822380D01*
X91581666Y-115822380D01*
X91724523Y-115870000D01*
X92105476Y-115917619D02*
X92153095Y-115870000D01*
X92248333Y-115822380D01*
X92486428Y-115822380D01*
X92581666Y-115870000D01*
X92629285Y-115917619D01*
X92676904Y-116012857D01*
X92676904Y-116108095D01*
X92629285Y-116250952D01*
X92057857Y-116822380D01*
X92676904Y-116822380D01*
G04 #@! TO.C,S3*
X102153095Y-116774761D02*
X102295952Y-116822380D01*
X102534047Y-116822380D01*
X102629285Y-116774761D01*
X102676904Y-116727142D01*
X102724523Y-116631904D01*
X102724523Y-116536666D01*
X102676904Y-116441428D01*
X102629285Y-116393809D01*
X102534047Y-116346190D01*
X102343571Y-116298571D01*
X102248333Y-116250952D01*
X102200714Y-116203333D01*
X102153095Y-116108095D01*
X102153095Y-116012857D01*
X102200714Y-115917619D01*
X102248333Y-115870000D01*
X102343571Y-115822380D01*
X102581666Y-115822380D01*
X102724523Y-115870000D01*
X103057857Y-115822380D02*
X103676904Y-115822380D01*
X103343571Y-116203333D01*
X103486428Y-116203333D01*
X103581666Y-116250952D01*
X103629285Y-116298571D01*
X103676904Y-116393809D01*
X103676904Y-116631904D01*
X103629285Y-116727142D01*
X103581666Y-116774761D01*
X103486428Y-116822380D01*
X103200714Y-116822380D01*
X103105476Y-116774761D01*
X103057857Y-116727142D01*
G04 #@! TD*
M02*
