M48
METRIC,TZ
T1C0.400
T2C0.900
T3C1.000
T4C2.500
T5C3.500
%
G90
G05
T1
X94375Y-104180
X95010Y-79415
X96915Y-101640
X98187Y-105434
X99455Y-101640
X101995Y-99100
X104345Y-100205
T2
X78105Y-88900
X78105Y-91440
X78105Y-93980
X78105Y-96520
X78105Y-99060
X78105Y-101600
X78105Y-104140
X80645Y-88900
X80645Y-91440
X80645Y-93980
X80645Y-96520
X80645Y-99060
X80645Y-101600
X80645Y-104140
X113665Y-88900
X113665Y-91440
X113665Y-93980
X113665Y-96520
X113665Y-99060
X113665Y-101600
X113665Y-104140
X113665Y-106680
X113665Y-109220
X113665Y-111760
X116205Y-88930
X116205Y-91470
X116205Y-93980
X116205Y-96550
X116205Y-99090
X116205Y-101630
X116205Y-104170
X116205Y-106710
X116205Y-109250
X116205Y-111790
T3
X104665Y-114120
X104665Y-118620
X111165Y-114120
X111165Y-118620
X93665Y-114120
X93665Y-118620
X100165Y-114120
X100165Y-118620
X89295Y-86120
X91835Y-86120
X94375Y-86120
X96915Y-86120
X99455Y-86120
X101995Y-86120
X104535Y-86120
X82665Y-114120
X82665Y-118620
X89165Y-114120
X89165Y-118620
T4
X92075Y-110840
X85415Y-86620
X85415Y-110120
X108415Y-86620
X108415Y-110120
T5
X126915Y-98620G85X126915Y-102120
G05
X66915Y-98620G85X66915Y-102120
G05
X95165Y-70370G85X98665Y-70370
G05
X95165Y-130370G85X98665Y-130370
G05
T0
M30
