G04 #@! TF.FileFunction,Copper,L1,Top,Signal*
%FSLAX46Y46*%
G04 Gerber Fmt 4.6, Leading zero omitted, Abs format (unit mm)*
G04 Created by KiCad (PCBNEW (2015-08-30 BZR 6133)-product) date Fr 30 Okt 2015 20:46:54 CET*
%MOMM*%
G01*
G04 APERTURE LIST*
%ADD10C,0.100000*%
%ADD11C,0.150000*%
%ADD12R,1.397000X0.889000*%
%ADD13R,1.651000X1.651000*%
%ADD14C,1.600200*%
%ADD15C,1.524000*%
%ADD16C,2.540000*%
%ADD17R,0.889000X1.397000*%
%ADD18R,1.143000X0.508000*%
%ADD19R,0.914400X0.914400*%
%ADD20C,3.500000*%
%ADD21R,1.524000X1.524000*%
%ADD22R,1.198880X2.799080*%
%ADD23R,1.000760X2.799080*%
%ADD24C,0.800000*%
%ADD25C,0.600000*%
%ADD26C,0.600000*%
%ADD27C,0.300000*%
%ADD28C,0.254000*%
G04 APERTURE END LIST*
D10*
D11*
X114336905Y-100999524D02*
X113536905Y-100999524D01*
X113841667Y-100999524D02*
X113803571Y-100923333D01*
X113803571Y-100770952D01*
X113841667Y-100694762D01*
X113879762Y-100656667D01*
X113955952Y-100618571D01*
X114184524Y-100618571D01*
X114260714Y-100656667D01*
X114298810Y-100694762D01*
X114336905Y-100770952D01*
X114336905Y-100923333D01*
X114298810Y-100999524D01*
X113803571Y-99932857D02*
X114336905Y-99932857D01*
X113803571Y-100275714D02*
X114222619Y-100275714D01*
X114298810Y-100237619D01*
X114336905Y-100161428D01*
X114336905Y-100047142D01*
X114298810Y-99970952D01*
X114260714Y-99932857D01*
X114298810Y-99589999D02*
X114336905Y-99513809D01*
X114336905Y-99361428D01*
X114298810Y-99285237D01*
X114222619Y-99247142D01*
X114184524Y-99247142D01*
X114108333Y-99285237D01*
X114070238Y-99361428D01*
X114070238Y-99475713D01*
X114032143Y-99551904D01*
X113955952Y-99589999D01*
X113917857Y-99589999D01*
X113841667Y-99551904D01*
X113803571Y-99475713D01*
X113803571Y-99361428D01*
X113841667Y-99285237D01*
X114032143Y-98904285D02*
X114032143Y-98294761D01*
X114336905Y-97913809D02*
X113803571Y-97913809D01*
X113879762Y-97913809D02*
X113841667Y-97875714D01*
X113803571Y-97799523D01*
X113803571Y-97685237D01*
X113841667Y-97609047D01*
X113917857Y-97570952D01*
X114336905Y-97570952D01*
X113917857Y-97570952D02*
X113841667Y-97532856D01*
X113803571Y-97456666D01*
X113803571Y-97342380D01*
X113841667Y-97266190D01*
X113917857Y-97228095D01*
X114336905Y-97228095D01*
X114336905Y-96732856D02*
X114298810Y-96809047D01*
X114260714Y-96847142D01*
X114184524Y-96885237D01*
X113955952Y-96885237D01*
X113879762Y-96847142D01*
X113841667Y-96809047D01*
X113803571Y-96732856D01*
X113803571Y-96618570D01*
X113841667Y-96542380D01*
X113879762Y-96504285D01*
X113955952Y-96466189D01*
X114184524Y-96466189D01*
X114260714Y-96504285D01*
X114298810Y-96542380D01*
X114336905Y-96618570D01*
X114336905Y-96732856D01*
X114336905Y-95780475D02*
X113536905Y-95780475D01*
X114298810Y-95780475D02*
X114336905Y-95856665D01*
X114336905Y-96009046D01*
X114298810Y-96085237D01*
X114260714Y-96123332D01*
X114184524Y-96161427D01*
X113955952Y-96161427D01*
X113879762Y-96123332D01*
X113841667Y-96085237D01*
X113803571Y-96009046D01*
X113803571Y-95856665D01*
X113841667Y-95780475D01*
X113803571Y-95056665D02*
X114336905Y-95056665D01*
X113803571Y-95399522D02*
X114222619Y-95399522D01*
X114298810Y-95361427D01*
X114336905Y-95285236D01*
X114336905Y-95170950D01*
X114298810Y-95094760D01*
X114260714Y-95056665D01*
X114336905Y-94561426D02*
X114298810Y-94637617D01*
X114222619Y-94675712D01*
X113536905Y-94675712D01*
X114298810Y-93951902D02*
X114336905Y-94028092D01*
X114336905Y-94180473D01*
X114298810Y-94256664D01*
X114222619Y-94294759D01*
X113917857Y-94294759D01*
X113841667Y-94256664D01*
X113803571Y-94180473D01*
X113803571Y-94028092D01*
X113841667Y-93951902D01*
X113917857Y-93913807D01*
X113994048Y-93913807D01*
X114070238Y-94294759D01*
X114336905Y-92618569D02*
X113917857Y-92618569D01*
X113841667Y-92656664D01*
X113803571Y-92732854D01*
X113803571Y-92885235D01*
X113841667Y-92961426D01*
X114298810Y-92618569D02*
X114336905Y-92694759D01*
X114336905Y-92885235D01*
X114298810Y-92961426D01*
X114222619Y-92999521D01*
X114146429Y-92999521D01*
X114070238Y-92961426D01*
X114032143Y-92885235D01*
X114032143Y-92694759D01*
X113994048Y-92618569D01*
X113803571Y-92351902D02*
X113803571Y-92047140D01*
X113536905Y-92237616D02*
X114222619Y-92237616D01*
X114298810Y-92199521D01*
X114336905Y-92123330D01*
X114336905Y-92047140D01*
X114336905Y-91780473D02*
X113803571Y-91780473D01*
X113879762Y-91780473D02*
X113841667Y-91742378D01*
X113803571Y-91666187D01*
X113803571Y-91551901D01*
X113841667Y-91475711D01*
X113917857Y-91437616D01*
X114336905Y-91437616D01*
X113917857Y-91437616D02*
X113841667Y-91399520D01*
X113803571Y-91323330D01*
X113803571Y-91209044D01*
X113841667Y-91132854D01*
X113917857Y-91094759D01*
X114336905Y-91094759D01*
X114298810Y-90409044D02*
X114336905Y-90485234D01*
X114336905Y-90637615D01*
X114298810Y-90713806D01*
X114222619Y-90751901D01*
X113917857Y-90751901D01*
X113841667Y-90713806D01*
X113803571Y-90637615D01*
X113803571Y-90485234D01*
X113841667Y-90409044D01*
X113917857Y-90370949D01*
X113994048Y-90370949D01*
X114070238Y-90751901D01*
X113803571Y-89685235D02*
X114451190Y-89685235D01*
X114527381Y-89723330D01*
X114565476Y-89761425D01*
X114603571Y-89837616D01*
X114603571Y-89951901D01*
X114565476Y-90028092D01*
X114298810Y-89685235D02*
X114336905Y-89761425D01*
X114336905Y-89913806D01*
X114298810Y-89989997D01*
X114260714Y-90028092D01*
X114184524Y-90066187D01*
X113955952Y-90066187D01*
X113879762Y-90028092D01*
X113841667Y-89989997D01*
X113803571Y-89913806D01*
X113803571Y-89761425D01*
X113841667Y-89685235D01*
X114336905Y-88961425D02*
X113917857Y-88961425D01*
X113841667Y-88999520D01*
X113803571Y-89075710D01*
X113803571Y-89228091D01*
X113841667Y-89304282D01*
X114298810Y-88961425D02*
X114336905Y-89037615D01*
X114336905Y-89228091D01*
X114298810Y-89304282D01*
X114222619Y-89342377D01*
X114146429Y-89342377D01*
X114070238Y-89304282D01*
X114032143Y-89228091D01*
X114032143Y-89037615D01*
X113994048Y-88961425D01*
X113536905Y-88656662D02*
X113536905Y-88161424D01*
X113841667Y-88428091D01*
X113841667Y-88313805D01*
X113879762Y-88237615D01*
X113917857Y-88199519D01*
X113994048Y-88161424D01*
X114184524Y-88161424D01*
X114260714Y-88199519D01*
X114298810Y-88237615D01*
X114336905Y-88313805D01*
X114336905Y-88542377D01*
X114298810Y-88618567D01*
X114260714Y-88656662D01*
X113613095Y-87856662D02*
X113575000Y-87818567D01*
X113536905Y-87742376D01*
X113536905Y-87551900D01*
X113575000Y-87475710D01*
X113613095Y-87437614D01*
X113689286Y-87399519D01*
X113765476Y-87399519D01*
X113879762Y-87437614D01*
X114336905Y-87894757D01*
X114336905Y-87399519D01*
X113879762Y-86942376D02*
X113841667Y-87018567D01*
X113803571Y-87056662D01*
X113727381Y-87094757D01*
X113689286Y-87094757D01*
X113613095Y-87056662D01*
X113575000Y-87018567D01*
X113536905Y-86942376D01*
X113536905Y-86789995D01*
X113575000Y-86713805D01*
X113613095Y-86675709D01*
X113689286Y-86637614D01*
X113727381Y-86637614D01*
X113803571Y-86675709D01*
X113841667Y-86713805D01*
X113879762Y-86789995D01*
X113879762Y-86942376D01*
X113917857Y-87018567D01*
X113955952Y-87056662D01*
X114032143Y-87094757D01*
X114184524Y-87094757D01*
X114260714Y-87056662D01*
X114298810Y-87018567D01*
X114336905Y-86942376D01*
X114336905Y-86789995D01*
X114298810Y-86713805D01*
X114260714Y-86675709D01*
X114184524Y-86637614D01*
X114032143Y-86637614D01*
X113955952Y-86675709D01*
X113917857Y-86713805D01*
X113879762Y-86789995D01*
X113803571Y-83016191D02*
X113803571Y-82711429D01*
X113536905Y-82901905D02*
X114222619Y-82901905D01*
X114298810Y-82863810D01*
X114336905Y-82787619D01*
X114336905Y-82711429D01*
X114336905Y-82330476D02*
X114298810Y-82406667D01*
X114260714Y-82444762D01*
X114184524Y-82482857D01*
X113955952Y-82482857D01*
X113879762Y-82444762D01*
X113841667Y-82406667D01*
X113803571Y-82330476D01*
X113803571Y-82216190D01*
X113841667Y-82140000D01*
X113879762Y-82101905D01*
X113955952Y-82063809D01*
X114184524Y-82063809D01*
X114260714Y-82101905D01*
X114298810Y-82140000D01*
X114336905Y-82216190D01*
X114336905Y-82330476D01*
X113803571Y-81720952D02*
X114603571Y-81720952D01*
X113841667Y-81720952D02*
X113803571Y-81644761D01*
X113803571Y-81492380D01*
X113841667Y-81416190D01*
X113879762Y-81378095D01*
X113955952Y-81339999D01*
X114184524Y-81339999D01*
X114260714Y-81378095D01*
X114298810Y-81416190D01*
X114336905Y-81492380D01*
X114336905Y-81644761D01*
X114298810Y-81720952D01*
X113066905Y-100999524D02*
X112266905Y-100999524D01*
X112762143Y-100923333D02*
X113066905Y-100694762D01*
X112533571Y-100694762D02*
X112838333Y-100999524D01*
X113066905Y-100237619D02*
X113028810Y-100313810D01*
X112990714Y-100351905D01*
X112914524Y-100390000D01*
X112685952Y-100390000D01*
X112609762Y-100351905D01*
X112571667Y-100313810D01*
X112533571Y-100237619D01*
X112533571Y-100123333D01*
X112571667Y-100047143D01*
X112609762Y-100009048D01*
X112685952Y-99970952D01*
X112914524Y-99970952D01*
X112990714Y-100009048D01*
X113028810Y-100047143D01*
X113066905Y-100123333D01*
X113066905Y-100237619D01*
X113028810Y-99323333D02*
X113066905Y-99399523D01*
X113066905Y-99551904D01*
X113028810Y-99628095D01*
X112952619Y-99666190D01*
X112647857Y-99666190D01*
X112571667Y-99628095D01*
X112533571Y-99551904D01*
X112533571Y-99399523D01*
X112571667Y-99323333D01*
X112647857Y-99285238D01*
X112724048Y-99285238D01*
X112800238Y-99666190D01*
X112533571Y-99018571D02*
X113066905Y-98866190D01*
X112685952Y-98713809D01*
X113066905Y-98561428D01*
X112533571Y-98409047D01*
X113066905Y-98104286D02*
X112533571Y-98104286D01*
X112266905Y-98104286D02*
X112305000Y-98142381D01*
X112343095Y-98104286D01*
X112305000Y-98066191D01*
X112266905Y-98104286D01*
X112343095Y-98104286D01*
X113066905Y-97723334D02*
X112266905Y-97723334D01*
X112571667Y-97723334D02*
X112533571Y-97647143D01*
X112533571Y-97494762D01*
X112571667Y-97418572D01*
X112609762Y-97380477D01*
X112685952Y-97342381D01*
X112914524Y-97342381D01*
X112990714Y-97380477D01*
X113028810Y-97418572D01*
X113066905Y-97494762D01*
X113066905Y-97647143D01*
X113028810Y-97723334D01*
X113066905Y-96656667D02*
X112647857Y-96656667D01*
X112571667Y-96694762D01*
X112533571Y-96770952D01*
X112533571Y-96923333D01*
X112571667Y-96999524D01*
X113028810Y-96656667D02*
X113066905Y-96732857D01*
X113066905Y-96923333D01*
X113028810Y-96999524D01*
X112952619Y-97037619D01*
X112876429Y-97037619D01*
X112800238Y-96999524D01*
X112762143Y-96923333D01*
X112762143Y-96732857D01*
X112724048Y-96656667D01*
D12*
X99000000Y-106057500D03*
X99000000Y-107962500D03*
X101250000Y-106057500D03*
X101250000Y-107962500D03*
D13*
X88575000Y-118970000D03*
D14*
X88575000Y-116430000D03*
X91115000Y-118970000D03*
X91115000Y-116430000D03*
X93655000Y-118970000D03*
X93655000Y-116430000D03*
X96195000Y-118970000D03*
X96195000Y-116430000D03*
X98735000Y-118970000D03*
X98735000Y-116430000D03*
X101275000Y-118970000D03*
X101275000Y-116430000D03*
D15*
X103815000Y-118970000D03*
X103815000Y-116430000D03*
D13*
X88575000Y-83410000D03*
D14*
X88575000Y-80870000D03*
X91115000Y-83410000D03*
X91115000Y-80870000D03*
X93655000Y-83410000D03*
X93655000Y-80870000D03*
X96195000Y-83410000D03*
X96195000Y-80870000D03*
X98735000Y-83410000D03*
X98735000Y-80870000D03*
X101275000Y-83410000D03*
X101275000Y-80870000D03*
D15*
X103815000Y-83410000D03*
X103815000Y-80870000D03*
X106355000Y-83410000D03*
X106355000Y-80870000D03*
X108895000Y-83410000D03*
X108895000Y-80870000D03*
X111435000Y-83410000D03*
X111435000Y-80870000D03*
D13*
X112250000Y-112210000D03*
D14*
X109710000Y-112210000D03*
X112250000Y-114750000D03*
X109710000Y-114750000D03*
X112250000Y-117290000D03*
X109710000Y-117290000D03*
D10*
G36*
X95866605Y-95521223D02*
X94878777Y-94533395D01*
X95507395Y-93904777D01*
X96495223Y-94892605D01*
X95866605Y-95521223D01*
X95866605Y-95521223D01*
G37*
G36*
X97213643Y-94174185D02*
X96225815Y-93186357D01*
X96854433Y-92557739D01*
X97842261Y-93545567D01*
X97213643Y-94174185D01*
X97213643Y-94174185D01*
G37*
D16*
X87175000Y-101010000D03*
D10*
G36*
X93942433Y-85454739D02*
X94930261Y-86442567D01*
X94301643Y-87071185D01*
X93313815Y-86083357D01*
X93942433Y-85454739D01*
X93942433Y-85454739D01*
G37*
G36*
X92595395Y-86801777D02*
X93583223Y-87789605D01*
X92954605Y-88418223D01*
X91966777Y-87430395D01*
X92595395Y-86801777D01*
X92595395Y-86801777D01*
G37*
G36*
X90081086Y-91291742D02*
X89093258Y-90303914D01*
X89721876Y-89675296D01*
X90709704Y-90663124D01*
X90081086Y-91291742D01*
X90081086Y-91291742D01*
G37*
G36*
X91428124Y-89944704D02*
X90440296Y-88956876D01*
X91068914Y-88328258D01*
X92056742Y-89316086D01*
X91428124Y-89944704D01*
X91428124Y-89944704D01*
G37*
D17*
X87775000Y-113610000D03*
X89680000Y-113610000D03*
D12*
X106863000Y-106079500D03*
X106863000Y-107984500D03*
D17*
X106095000Y-92000000D03*
X108000000Y-92000000D03*
D16*
X87175000Y-89410000D03*
X87175000Y-95210000D03*
X87175000Y-106810000D03*
D12*
X104577000Y-107984500D03*
X104577000Y-106079500D03*
D17*
X87775000Y-111410000D03*
X89680000Y-111410000D03*
D12*
X96750000Y-106010000D03*
X96750000Y-107915000D03*
D17*
X87822500Y-109210000D03*
X89727500Y-109210000D03*
X107905000Y-88000000D03*
X106000000Y-88000000D03*
D18*
X97167000Y-109905000D03*
X91833000Y-109905000D03*
X97167000Y-111175000D03*
X97167000Y-112445000D03*
X97167000Y-113715000D03*
X91833000Y-111175000D03*
X91833000Y-112445000D03*
X91833000Y-113715000D03*
D19*
X106000000Y-90000000D03*
X108352040Y-90000000D03*
D10*
G36*
X98269143Y-85902364D02*
X99682636Y-87315857D01*
X96500033Y-90498460D01*
X95086540Y-89084967D01*
X98269143Y-85902364D01*
X98269143Y-85902364D01*
G37*
G36*
X92259555Y-91911952D02*
X93673048Y-93325445D01*
X90490445Y-96508048D01*
X89076952Y-95094555D01*
X92259555Y-91911952D01*
X92259555Y-91911952D01*
G37*
D20*
X110500000Y-105000000D03*
D21*
X92750000Y-106750000D03*
D15*
X92750000Y-104210000D03*
X92750000Y-101670000D03*
X92750000Y-99130000D03*
D22*
X84019620Y-99550860D03*
D23*
X82300040Y-99550860D03*
X84199960Y-95949140D03*
D10*
G36*
X81799660Y-97348680D02*
X81799660Y-94549600D01*
X82800420Y-94549600D01*
X82800420Y-97348680D01*
X81799660Y-97348680D01*
X81799660Y-97348680D01*
G37*
G36*
X98964555Y-93143666D02*
X99353464Y-92754757D01*
X100484835Y-93886128D01*
X100095926Y-94275037D01*
X98964555Y-93143666D01*
X98964555Y-93143666D01*
G37*
G36*
X98398870Y-93709352D02*
X98787779Y-93320443D01*
X99919150Y-94451814D01*
X99530241Y-94840723D01*
X98398870Y-93709352D01*
X98398870Y-93709352D01*
G37*
G36*
X97833184Y-94275037D02*
X98222093Y-93886128D01*
X99353464Y-95017499D01*
X98964555Y-95406408D01*
X97833184Y-94275037D01*
X97833184Y-94275037D01*
G37*
G36*
X97267499Y-94840722D02*
X97656408Y-94451813D01*
X98787779Y-95583184D01*
X98398870Y-95972093D01*
X97267499Y-94840722D01*
X97267499Y-94840722D01*
G37*
G36*
X96701813Y-95406408D02*
X97090722Y-95017499D01*
X98222093Y-96148870D01*
X97833184Y-96537779D01*
X96701813Y-95406408D01*
X96701813Y-95406408D01*
G37*
G36*
X96136128Y-95972093D02*
X96525037Y-95583184D01*
X97656408Y-96714555D01*
X97267499Y-97103464D01*
X96136128Y-95972093D01*
X96136128Y-95972093D01*
G37*
G36*
X95570443Y-96537779D02*
X95959352Y-96148870D01*
X97090723Y-97280241D01*
X96701814Y-97669150D01*
X95570443Y-96537779D01*
X95570443Y-96537779D01*
G37*
G36*
X95004757Y-97103464D02*
X95393666Y-96714555D01*
X96525037Y-97845926D01*
X96136128Y-98234835D01*
X95004757Y-97103464D01*
X95004757Y-97103464D01*
G37*
G36*
X95393666Y-100285445D02*
X95004757Y-99896536D01*
X96136128Y-98765165D01*
X96525037Y-99154074D01*
X95393666Y-100285445D01*
X95393666Y-100285445D01*
G37*
G36*
X95959352Y-100851130D02*
X95570443Y-100462221D01*
X96701814Y-99330850D01*
X97090723Y-99719759D01*
X95959352Y-100851130D01*
X95959352Y-100851130D01*
G37*
G36*
X96525037Y-101416816D02*
X96136128Y-101027907D01*
X97267499Y-99896536D01*
X97656408Y-100285445D01*
X96525037Y-101416816D01*
X96525037Y-101416816D01*
G37*
G36*
X97090722Y-101982501D02*
X96701813Y-101593592D01*
X97833184Y-100462221D01*
X98222093Y-100851130D01*
X97090722Y-101982501D01*
X97090722Y-101982501D01*
G37*
G36*
X97656408Y-102548187D02*
X97267499Y-102159278D01*
X98398870Y-101027907D01*
X98787779Y-101416816D01*
X97656408Y-102548187D01*
X97656408Y-102548187D01*
G37*
G36*
X98222093Y-103113872D02*
X97833184Y-102724963D01*
X98964555Y-101593592D01*
X99353464Y-101982501D01*
X98222093Y-103113872D01*
X98222093Y-103113872D01*
G37*
G36*
X98787779Y-103679557D02*
X98398870Y-103290648D01*
X99530241Y-102159277D01*
X99919150Y-102548186D01*
X98787779Y-103679557D01*
X98787779Y-103679557D01*
G37*
G36*
X99353464Y-104245243D02*
X98964555Y-103856334D01*
X100095926Y-102724963D01*
X100484835Y-103113872D01*
X99353464Y-104245243D01*
X99353464Y-104245243D01*
G37*
G36*
X101015165Y-103113872D02*
X101404074Y-102724963D01*
X102535445Y-103856334D01*
X102146536Y-104245243D01*
X101015165Y-103113872D01*
X101015165Y-103113872D01*
G37*
G36*
X101580850Y-102548186D02*
X101969759Y-102159277D01*
X103101130Y-103290648D01*
X102712221Y-103679557D01*
X101580850Y-102548186D01*
X101580850Y-102548186D01*
G37*
G36*
X102146536Y-101982501D02*
X102535445Y-101593592D01*
X103666816Y-102724963D01*
X103277907Y-103113872D01*
X102146536Y-101982501D01*
X102146536Y-101982501D01*
G37*
G36*
X102712221Y-101416816D02*
X103101130Y-101027907D01*
X104232501Y-102159278D01*
X103843592Y-102548187D01*
X102712221Y-101416816D01*
X102712221Y-101416816D01*
G37*
G36*
X103277907Y-100851130D02*
X103666816Y-100462221D01*
X104798187Y-101593592D01*
X104409278Y-101982501D01*
X103277907Y-100851130D01*
X103277907Y-100851130D01*
G37*
G36*
X103843592Y-100285445D02*
X104232501Y-99896536D01*
X105363872Y-101027907D01*
X104974963Y-101416816D01*
X103843592Y-100285445D01*
X103843592Y-100285445D01*
G37*
G36*
X104409277Y-99719759D02*
X104798186Y-99330850D01*
X105929557Y-100462221D01*
X105540648Y-100851130D01*
X104409277Y-99719759D01*
X104409277Y-99719759D01*
G37*
G36*
X104974963Y-99154074D02*
X105363872Y-98765165D01*
X106495243Y-99896536D01*
X106106334Y-100285445D01*
X104974963Y-99154074D01*
X104974963Y-99154074D01*
G37*
G36*
X105363872Y-98234835D02*
X104974963Y-97845926D01*
X106106334Y-96714555D01*
X106495243Y-97103464D01*
X105363872Y-98234835D01*
X105363872Y-98234835D01*
G37*
G36*
X104798186Y-97669150D02*
X104409277Y-97280241D01*
X105540648Y-96148870D01*
X105929557Y-96537779D01*
X104798186Y-97669150D01*
X104798186Y-97669150D01*
G37*
G36*
X104232501Y-97103464D02*
X103843592Y-96714555D01*
X104974963Y-95583184D01*
X105363872Y-95972093D01*
X104232501Y-97103464D01*
X104232501Y-97103464D01*
G37*
G36*
X103666816Y-96537779D02*
X103277907Y-96148870D01*
X104409278Y-95017499D01*
X104798187Y-95406408D01*
X103666816Y-96537779D01*
X103666816Y-96537779D01*
G37*
G36*
X103101130Y-95972093D02*
X102712221Y-95583184D01*
X103843592Y-94451813D01*
X104232501Y-94840722D01*
X103101130Y-95972093D01*
X103101130Y-95972093D01*
G37*
G36*
X102535445Y-95406408D02*
X102146536Y-95017499D01*
X103277907Y-93886128D01*
X103666816Y-94275037D01*
X102535445Y-95406408D01*
X102535445Y-95406408D01*
G37*
G36*
X101969759Y-94840723D02*
X101580850Y-94451814D01*
X102712221Y-93320443D01*
X103101130Y-93709352D01*
X101969759Y-94840723D01*
X101969759Y-94840723D01*
G37*
G36*
X101404074Y-94275037D02*
X101015165Y-93886128D01*
X102146536Y-92754757D01*
X102535445Y-93143666D01*
X101404074Y-94275037D01*
X101404074Y-94275037D01*
G37*
D24*
X108895000Y-108048000D03*
X100838000Y-101346000D03*
X101337577Y-87732696D03*
X90953102Y-114683096D03*
X93375000Y-87010000D03*
X108800000Y-92000000D03*
X106817491Y-105038553D03*
X104559296Y-106939986D03*
D25*
X93194994Y-111378999D03*
X96095488Y-112529414D03*
X99374474Y-96855924D03*
X98701430Y-97507667D03*
X106893927Y-95106073D03*
X107798536Y-95048566D03*
X107070006Y-93085721D03*
X107716362Y-93676983D03*
X103413541Y-91647944D03*
X98976975Y-98258729D03*
X104274499Y-92406351D03*
X98096656Y-98297677D03*
X104729138Y-93064623D03*
X99587329Y-99699900D03*
X92802249Y-110580229D03*
X95995045Y-111231774D03*
X100942140Y-94324170D03*
X99963464Y-96218659D03*
X100429671Y-95157015D03*
X107000000Y-89250000D03*
X93172218Y-109870904D03*
X95281401Y-109900605D03*
D24*
X106250000Y-102250000D03*
X105300538Y-104625592D03*
D25*
X96775000Y-106970498D03*
X102575000Y-110210000D03*
X98127417Y-109901353D03*
X103175000Y-111610000D03*
X91349089Y-87506405D03*
X84184812Y-93809485D03*
X82200000Y-93800000D03*
D26*
X106863000Y-107984500D02*
X108831500Y-107984500D01*
X108831500Y-107984500D02*
X108895000Y-108048000D01*
X92750000Y-101670000D02*
X90635000Y-101670000D01*
X84019620Y-102476620D02*
X84019620Y-99550860D01*
X85019000Y-103476000D02*
X84019620Y-102476620D01*
X88829000Y-103476000D02*
X85019000Y-103476000D01*
X90635000Y-101670000D02*
X88829000Y-103476000D01*
X104038047Y-101222361D02*
X103343583Y-100527897D01*
X103343583Y-100527897D02*
X101656103Y-100527897D01*
X101656103Y-100527897D02*
X100838000Y-101346000D01*
X98608000Y-96491000D02*
X98608000Y-96470086D01*
X98608000Y-96470086D02*
X99287789Y-95790297D01*
X99287789Y-95790297D02*
X99287789Y-95340733D01*
X99287789Y-95340733D02*
X98593324Y-94646268D01*
X98175314Y-96491000D02*
X98608000Y-96491000D01*
X97461953Y-95777639D02*
X98175314Y-96491000D01*
X97034038Y-93365962D02*
X97419057Y-92980943D01*
X97419057Y-92980943D02*
X97419057Y-91651216D01*
X97419057Y-91651216D02*
X101337577Y-87732696D01*
X98593324Y-94646268D02*
X97313018Y-93365962D01*
X97313018Y-93365962D02*
X97034038Y-93365962D01*
X90953102Y-114683096D02*
X90953102Y-114117411D01*
X90953102Y-114117411D02*
X90880000Y-114044309D01*
X90880000Y-114044309D02*
X90880000Y-113715000D01*
X91833000Y-113715000D02*
X90880000Y-113715000D01*
X90880000Y-113715000D02*
X90775000Y-113610000D01*
X90775000Y-113610000D02*
X89680000Y-113610000D01*
X92775000Y-87610000D02*
X93375000Y-87010000D01*
X91375000Y-89210000D02*
X91375000Y-89010000D01*
X91375000Y-89010000D02*
X92775000Y-87610000D01*
X88575000Y-118970000D02*
X88575000Y-116430000D01*
X97432928Y-93451534D02*
X97432928Y-93432928D01*
X107905000Y-92000000D02*
X108800000Y-92000000D01*
D27*
X103472361Y-101788047D02*
X104108756Y-102424442D01*
X104108756Y-102424442D02*
X104203380Y-102424442D01*
X104203380Y-102424442D02*
X106417492Y-104638554D01*
X106417492Y-104638554D02*
X106817491Y-105038553D01*
X106817491Y-105038553D02*
X106817491Y-106033991D01*
X106817491Y-106033991D02*
X106863000Y-106079500D01*
X104026223Y-102128023D02*
X103878023Y-102128023D01*
X104559296Y-106374301D02*
X104559296Y-106939986D01*
X102707696Y-103259536D02*
X104559296Y-105111136D01*
X104559296Y-105111136D02*
X104559296Y-106374301D01*
X94175000Y-107479002D02*
X94175000Y-104464343D01*
X97345101Y-117580101D02*
X95604899Y-117580101D01*
X93844995Y-113846951D02*
X93844995Y-107809007D01*
X94805101Y-114807057D02*
X93844995Y-113846951D01*
X94805101Y-116780303D02*
X94805101Y-114807057D01*
X93844995Y-107809007D02*
X94175000Y-107479002D01*
X94175000Y-104464343D02*
X97068095Y-101571248D01*
X95604899Y-117580101D02*
X94805101Y-116780303D01*
X98735000Y-118970000D02*
X97345101Y-117580101D01*
X95964177Y-115259011D02*
X94345005Y-113639839D01*
X94345005Y-108016119D02*
X94675011Y-107686113D01*
X94675011Y-107686113D02*
X94675011Y-105077883D01*
X94675011Y-105077883D02*
X97624871Y-102128023D01*
X98735000Y-116430000D02*
X97564012Y-115259012D01*
X97564012Y-115259012D02*
X95964177Y-115259011D01*
X94345005Y-113639839D02*
X94345005Y-108016119D01*
X97167000Y-113715000D02*
X96274376Y-113715000D01*
X96274376Y-113715000D02*
X95345025Y-112785649D01*
X95345025Y-112785649D02*
X95345025Y-110894163D01*
X101275000Y-116430000D02*
X101275000Y-115298488D01*
X101275000Y-115298488D02*
X99691512Y-113715000D01*
X99691512Y-113715000D02*
X97167000Y-113715000D01*
X96750000Y-108452500D02*
X96750000Y-107915000D01*
X96095929Y-110143264D02*
X96095929Y-109106571D01*
X96095929Y-109106571D02*
X96750000Y-108452500D01*
X95345025Y-110894163D02*
X96095929Y-110143264D01*
X99000000Y-107962500D02*
X99000000Y-110859500D01*
X99000000Y-110859500D02*
X98018501Y-111840999D01*
X98018501Y-111840999D02*
X96359639Y-111840999D01*
X96359639Y-111840999D02*
X96095488Y-112105150D01*
X96095488Y-112105150D02*
X96095488Y-112529414D01*
X96095488Y-112828990D02*
X96095488Y-112529414D01*
X96377497Y-113110999D02*
X96095488Y-112828990D01*
X100375999Y-113110999D02*
X96377497Y-113110999D01*
X102702999Y-115437999D02*
X100375999Y-113110999D01*
X102702999Y-117857999D02*
X102702999Y-115437999D01*
X103815000Y-118970000D02*
X102702999Y-117857999D01*
X92743999Y-111378999D02*
X92540000Y-111175000D01*
X92540000Y-111175000D02*
X91833000Y-111175000D01*
X93194994Y-111378999D02*
X92743999Y-111378999D01*
X101250000Y-107962500D02*
X101250000Y-112680000D01*
X101250000Y-112680000D02*
X101455000Y-112885000D01*
X97167000Y-112445000D02*
X101015000Y-112445000D01*
X101015000Y-112445000D02*
X101455000Y-112885000D01*
X103815000Y-115245000D02*
X101455000Y-112885000D01*
X103815000Y-116430000D02*
X103815000Y-115245000D01*
X99798738Y-96855924D02*
X99811479Y-96868665D01*
X99374474Y-96855924D02*
X99798738Y-96855924D01*
X99811479Y-96868665D02*
X103078463Y-96868665D01*
X103078463Y-96868665D02*
X105735103Y-99525305D01*
X106102233Y-99864999D02*
X106027304Y-99864999D01*
X105545457Y-100421775D02*
X102631349Y-97507667D01*
X102631349Y-97507667D02*
X98701430Y-97507667D01*
X105559825Y-96484831D02*
X106893927Y-95150729D01*
X106893927Y-95150729D02*
X106893927Y-95106073D01*
X107798536Y-95374040D02*
X107798536Y-95048566D01*
X106123785Y-97048791D02*
X107798536Y-95374040D01*
X106770007Y-93385720D02*
X107070006Y-93085721D01*
X104428313Y-95353318D02*
X106395911Y-93385720D01*
X106395911Y-93385720D02*
X106770007Y-93385720D01*
X98730000Y-82770000D02*
X98730000Y-83520000D01*
X107032333Y-93877218D02*
X107516127Y-93877218D01*
X104992273Y-95917278D02*
X107032333Y-93877218D01*
X107516127Y-93877218D02*
X107716362Y-93676983D01*
X98730000Y-80230000D02*
X98730000Y-80270000D01*
X102250642Y-88918248D02*
X101848932Y-88918248D01*
X102588501Y-88580389D02*
X102250642Y-88918248D01*
X99333680Y-91433500D02*
X99333680Y-93097478D01*
X101848932Y-88918248D02*
X99333680Y-91433500D01*
X102588501Y-86296499D02*
X102588501Y-88580389D01*
X104927001Y-81982001D02*
X104927001Y-83957999D01*
X103815000Y-80870000D02*
X104927001Y-81982001D01*
X104927001Y-83957999D02*
X102588501Y-86296499D01*
X103413541Y-86351459D02*
X103413541Y-91647944D01*
X106355000Y-83410000D02*
X103413541Y-86351459D01*
X98976975Y-98682993D02*
X98976975Y-98258729D01*
X98586030Y-99073938D02*
X98976975Y-98682993D01*
X97302380Y-99073938D02*
X98586030Y-99073938D01*
X95936583Y-100439735D02*
X97302380Y-99073938D01*
X104274499Y-87245377D02*
X104274499Y-92406351D01*
X107675000Y-83844876D02*
X104274499Y-87245377D01*
X106355000Y-80870000D02*
X107675000Y-82190000D01*
X107675000Y-82190000D02*
X107675000Y-83844876D01*
X95379807Y-99882959D02*
X95433620Y-99882959D01*
X95433620Y-99882959D02*
X96742652Y-98573927D01*
X97672392Y-98297677D02*
X98096656Y-98297677D01*
X96742652Y-98573927D02*
X97396142Y-98573927D01*
X97396142Y-98573927D02*
X97672392Y-98297677D01*
X106350000Y-80230000D02*
X106350000Y-81161238D01*
X107348999Y-84877999D02*
X105192799Y-87034199D01*
X110007001Y-84877999D02*
X107348999Y-84877999D01*
X105192799Y-87034199D02*
X105192799Y-92600962D01*
X108895000Y-80870000D02*
X110007001Y-81982001D01*
X110007001Y-81982001D02*
X110007001Y-84877999D01*
X105192799Y-92600962D02*
X104729138Y-93064623D01*
X97825891Y-99699900D02*
X99587329Y-99699900D01*
X96511319Y-101014472D02*
X97825891Y-99699900D01*
D26*
X92750000Y-104210000D02*
X90957913Y-104210000D01*
X90957913Y-104210000D02*
X88357913Y-106810000D01*
X88357913Y-106810000D02*
X87175000Y-106810000D01*
D27*
X90775000Y-111610000D02*
X90575000Y-111410000D01*
X90575000Y-111410000D02*
X89680000Y-111410000D01*
X90775000Y-112258500D02*
X90775000Y-111610000D01*
X91833000Y-112445000D02*
X90961500Y-112445000D01*
X90961500Y-112445000D02*
X90775000Y-112258500D01*
X89727500Y-109464000D02*
X90834499Y-110570999D01*
X90834499Y-110570999D02*
X92793019Y-110570999D01*
X89727500Y-109210000D02*
X89727500Y-109464000D01*
X92793019Y-110570999D02*
X92802249Y-110580229D01*
X97167000Y-111175000D02*
X96051819Y-111175000D01*
X96051819Y-111175000D02*
X95995045Y-111231774D01*
X102165288Y-93101022D02*
X101242139Y-94024171D01*
X101242139Y-94024171D02*
X100942140Y-94324170D01*
X102165288Y-93090294D02*
X102165288Y-93101022D01*
X101299948Y-96218659D02*
X99963464Y-96218659D01*
X103296801Y-94221806D02*
X101299948Y-96218659D01*
X102729248Y-93654254D02*
X102081094Y-94302408D01*
X102081094Y-94302408D02*
X102081094Y-94337741D01*
X102081094Y-94337741D02*
X100961821Y-95457014D01*
X100961821Y-95457014D02*
X100729670Y-95457014D01*
X100729670Y-95457014D02*
X100429671Y-95157015D01*
X103860761Y-94785766D02*
X104638217Y-94008310D01*
X106000000Y-92000000D02*
X106000000Y-90000000D01*
X106000000Y-92948500D02*
X106000000Y-92000000D01*
X104940190Y-94008310D02*
X106000000Y-92948500D01*
X104638217Y-94008310D02*
X104940190Y-94008310D01*
X112975000Y-83515762D02*
X110080762Y-86410000D01*
X112175000Y-79510000D02*
X112975000Y-80310000D01*
X110080762Y-86410000D02*
X107590000Y-86410000D01*
X107590000Y-86410000D02*
X106000000Y-88000000D01*
X101275000Y-80870000D02*
X102635000Y-79510000D01*
X112975000Y-80310000D02*
X112975000Y-83515762D01*
X102635000Y-79510000D02*
X112175000Y-79510000D01*
X107000000Y-89250000D02*
X106000000Y-89250000D01*
X112446280Y-117290000D02*
X112250000Y-117290000D01*
X106000000Y-90000000D02*
X106000000Y-89250000D01*
X106000000Y-89250000D02*
X106000000Y-88000000D01*
X93138122Y-109905000D02*
X93172218Y-109870904D01*
X91833000Y-109905000D02*
X93138122Y-109905000D01*
X100124899Y-117819899D02*
X100124899Y-115459899D01*
X100124899Y-115459899D02*
X99424001Y-114759001D01*
X99424001Y-114759001D02*
X96171289Y-114759001D01*
X96171289Y-114759001D02*
X94845016Y-113432728D01*
X101275000Y-118970000D02*
X100124899Y-117819899D01*
X94845016Y-110336990D02*
X95281401Y-109900605D01*
X94845016Y-113432728D02*
X94845016Y-110336990D01*
X95281401Y-105620966D02*
X95281401Y-109900605D01*
X98199607Y-102702760D02*
X95281401Y-105620966D01*
X94528767Y-91056233D02*
X97384588Y-88200412D01*
X94528767Y-95073423D02*
X94528767Y-91056233D01*
X95947359Y-96492015D02*
X94528767Y-95073423D01*
X97384588Y-88200412D02*
X95447138Y-86262962D01*
X95447138Y-86262962D02*
X94122038Y-86262962D01*
X96342783Y-89407217D02*
X98004794Y-87745206D01*
X98004794Y-87657756D02*
X98004794Y-87745206D01*
X91375000Y-94210000D02*
X91375000Y-91957038D01*
X91375000Y-91957038D02*
X89901481Y-90483519D01*
X92575000Y-95410000D02*
X93733832Y-95410000D01*
X93733832Y-95410000D02*
X95381603Y-97057771D01*
X91375000Y-94210000D02*
X92575000Y-95410000D01*
X92119794Y-93754794D02*
X92119794Y-93795962D01*
X91995206Y-93754794D02*
X92119794Y-93754794D01*
X91995206Y-93592244D02*
X91995206Y-93754794D01*
X95298183Y-97057771D02*
X95381603Y-97057771D01*
X106250000Y-102250000D02*
X106224209Y-102250000D01*
X106224209Y-102250000D02*
X104970720Y-100996511D01*
X103359745Y-102684799D02*
X105300538Y-104625592D01*
X103282432Y-102684799D02*
X103359745Y-102684799D01*
X102043531Y-88418237D02*
X102088490Y-88373278D01*
X102088490Y-85136510D02*
X103815000Y-83410000D01*
X98776140Y-93663234D02*
X98082939Y-92970033D01*
X101641821Y-88418237D02*
X102043531Y-88418237D01*
X98082939Y-92970033D02*
X98082939Y-91977119D01*
X98082939Y-91977119D02*
X101641821Y-88418237D01*
X102088490Y-88373278D02*
X102088490Y-85136510D01*
X99254000Y-106057500D02*
X99000000Y-106057500D01*
X112250000Y-112210000D02*
X112250000Y-111084500D01*
X112250000Y-111084500D02*
X111005198Y-109839698D01*
X102375000Y-107410000D02*
X101975000Y-107010000D01*
X100206500Y-107010000D02*
X99254000Y-106057500D01*
X108122295Y-109747012D02*
X103314387Y-109747011D01*
X108214981Y-109839698D02*
X108122295Y-109747012D01*
X101975000Y-107010000D02*
X100206500Y-107010000D01*
X111005198Y-109839698D02*
X108214981Y-109839698D01*
X102375000Y-108807624D02*
X102375000Y-107410000D01*
X103314387Y-109747011D02*
X102375000Y-108807624D01*
X99000000Y-105313000D02*
X98571624Y-104884624D01*
X98571624Y-104884624D02*
X98571624Y-104629689D01*
X98571624Y-104629689D02*
X99349080Y-103852233D01*
X99000000Y-106057500D02*
X99000000Y-105313000D01*
X102875011Y-106510011D02*
X102422500Y-106057500D01*
X108422093Y-109339688D02*
X108329406Y-109247001D01*
X111945690Y-109339688D02*
X108422093Y-109339688D01*
X102875011Y-108466065D02*
X102875011Y-106510011D01*
X103655947Y-109247001D02*
X102875011Y-108466065D01*
X112250000Y-114750000D02*
X113690501Y-113309499D01*
X113690501Y-111084499D02*
X111945690Y-109339688D01*
X113690501Y-113309499D02*
X113690501Y-111084499D01*
X108329406Y-109247001D02*
X103655947Y-109247001D01*
X102975000Y-105210000D02*
X102975000Y-104676313D01*
X102975000Y-104676313D02*
X102132959Y-103834272D01*
X102422500Y-105762500D02*
X102975000Y-105210000D01*
X102422500Y-106057500D02*
X102422500Y-105762500D01*
X102422500Y-106057500D02*
X101250000Y-106057500D01*
X109710000Y-114705527D02*
X105251495Y-110247022D01*
X103070254Y-110210000D02*
X102575000Y-110210000D01*
X109710000Y-114750000D02*
X109710000Y-114705527D01*
X105251495Y-110247022D02*
X103107275Y-110247021D01*
X103107275Y-110247021D02*
X103070254Y-110210000D01*
X96775000Y-106970498D02*
X96775000Y-106035000D01*
X96775000Y-106035000D02*
X96750000Y-106010000D01*
X96750000Y-106010000D02*
X96750000Y-105250000D01*
X97698160Y-104301840D02*
X96750000Y-105250000D01*
X97750000Y-104301840D02*
X97698160Y-104301840D01*
X98774344Y-103277496D02*
X97750000Y-104301840D01*
X95560000Y-93857382D02*
X95560000Y-93062000D01*
X95687000Y-94713000D02*
X95687000Y-93984382D01*
X95687000Y-93984382D02*
X95560000Y-93857382D01*
X96896268Y-96343324D02*
X95687000Y-95134056D01*
X95687000Y-95134056D02*
X95687000Y-94713000D01*
X98027639Y-95211953D02*
X97391244Y-94575558D01*
X97391244Y-94575558D02*
X96553060Y-94575558D01*
X96553060Y-94575558D02*
X96415618Y-94713000D01*
X96415618Y-94713000D02*
X95687000Y-94713000D01*
X98123770Y-109905000D02*
X98127417Y-109901353D01*
X97167000Y-109905000D02*
X98123770Y-109905000D01*
X84199960Y-95949140D02*
X85000340Y-95949140D01*
X85000340Y-95949140D02*
X87175000Y-98123800D01*
X84199960Y-95949140D02*
X84199960Y-93824633D01*
X84199960Y-93824633D02*
X84184812Y-93809485D01*
X87175000Y-101010000D02*
X87175000Y-98123800D01*
X84199960Y-95734189D02*
X84199960Y-95949140D01*
X82300040Y-94449600D02*
X82300040Y-95949140D01*
X85124483Y-93159483D02*
X83590157Y-93159483D01*
X87175000Y-95210000D02*
X85124483Y-93159483D01*
X83590157Y-93159483D02*
X82300040Y-94449600D01*
X82300040Y-95949140D02*
X82300040Y-93900040D01*
X82300040Y-93900040D02*
X82200000Y-93800000D01*
X82200000Y-95849100D02*
X82300040Y-95949140D01*
D28*
G36*
X109722718Y-77844155D02*
X111162163Y-78563616D01*
X111826776Y-78979000D01*
X102635000Y-78979000D01*
X102431795Y-79019420D01*
X102259526Y-79134526D01*
X102259524Y-79134529D01*
X101648032Y-79746021D01*
X101510966Y-79689106D01*
X101041095Y-79688696D01*
X100606835Y-79868128D01*
X100274296Y-80200087D01*
X100094106Y-80634034D01*
X100093696Y-81103905D01*
X100273128Y-81538165D01*
X100605087Y-81870704D01*
X101039034Y-82050894D01*
X101508905Y-82051304D01*
X101943165Y-81871872D01*
X102275704Y-81539913D01*
X102455894Y-81105966D01*
X102456304Y-80636095D01*
X102398865Y-80497082D01*
X102854947Y-80041000D01*
X103027589Y-80041000D01*
X102846577Y-80221697D01*
X102672199Y-80641646D01*
X102671802Y-81096359D01*
X102845446Y-81516612D01*
X103166697Y-81838423D01*
X103586646Y-82012801D01*
X104041359Y-82013198D01*
X104158747Y-81964695D01*
X104396001Y-82201949D01*
X104396001Y-82413631D01*
X104043354Y-82267199D01*
X103588641Y-82266802D01*
X103168388Y-82440446D01*
X102846577Y-82761697D01*
X102672199Y-83181646D01*
X102671802Y-83636359D01*
X102720305Y-83753747D01*
X101713016Y-84761036D01*
X101597910Y-84933305D01*
X101557490Y-85136510D01*
X101557490Y-86978358D01*
X101493609Y-86951832D01*
X101182908Y-86951560D01*
X100895754Y-87070210D01*
X100675863Y-87289717D01*
X100575306Y-87531887D01*
X96937517Y-91169676D01*
X96789895Y-91390608D01*
X96756564Y-91558177D01*
X96738057Y-91651216D01*
X96738057Y-92192220D01*
X96708257Y-92197827D01*
X96579747Y-92283053D01*
X95951129Y-92911671D01*
X95870079Y-93030293D01*
X95837388Y-93180990D01*
X95865903Y-93332533D01*
X95951129Y-93461043D01*
X96938957Y-94448871D01*
X97027866Y-94509619D01*
X96994733Y-94509619D01*
X96905506Y-94598846D01*
X96870616Y-94683078D01*
X96857216Y-94650729D01*
X96737100Y-94530612D01*
X96468530Y-94262043D01*
X96317562Y-94262043D01*
X95866605Y-94713000D01*
X95880748Y-94727142D01*
X95701142Y-94906748D01*
X95687000Y-94892605D01*
X95672858Y-94906748D01*
X95493253Y-94727143D01*
X95507395Y-94713000D01*
X95493252Y-94698858D01*
X95672858Y-94519252D01*
X95687000Y-94533395D01*
X96137957Y-94082438D01*
X96137957Y-93931470D01*
X95869388Y-93662900D01*
X95749271Y-93542784D01*
X95592330Y-93477777D01*
X95422459Y-93477777D01*
X95265518Y-93542784D01*
X95059767Y-93748536D01*
X95059767Y-91276181D01*
X95894075Y-90441874D01*
X96225347Y-90773146D01*
X96343969Y-90854196D01*
X96494666Y-90886887D01*
X96646209Y-90858372D01*
X96774719Y-90773146D01*
X99957322Y-87590543D01*
X100038372Y-87471921D01*
X100071063Y-87321224D01*
X100042548Y-87169681D01*
X99957322Y-87041171D01*
X98543829Y-85627678D01*
X98425207Y-85546628D01*
X98274510Y-85513937D01*
X98122967Y-85542452D01*
X97994457Y-85627678D01*
X96778630Y-86843506D01*
X95822612Y-85887488D01*
X95650343Y-85772382D01*
X95447138Y-85731962D01*
X94769028Y-85731962D01*
X94217119Y-85180053D01*
X94098497Y-85099003D01*
X93947800Y-85066312D01*
X93796257Y-85094827D01*
X93667747Y-85180053D01*
X93039129Y-85808671D01*
X92958079Y-85927293D01*
X92925388Y-86077990D01*
X92953903Y-86229533D01*
X93010859Y-86315416D01*
X92933177Y-86347514D01*
X92800744Y-86479716D01*
X92751459Y-86446041D01*
X92600762Y-86413350D01*
X92449219Y-86441865D01*
X92320709Y-86527091D01*
X91692091Y-87155709D01*
X91611041Y-87274331D01*
X91578350Y-87425028D01*
X91606865Y-87576571D01*
X91692091Y-87705081D01*
X91704465Y-87717455D01*
X91355974Y-88065946D01*
X91343600Y-88053572D01*
X91224978Y-87972522D01*
X91074281Y-87939831D01*
X90922738Y-87968346D01*
X90794228Y-88053572D01*
X90165610Y-88682190D01*
X90084560Y-88800812D01*
X90051869Y-88951509D01*
X90080384Y-89103052D01*
X90165610Y-89231562D01*
X91153438Y-90219390D01*
X91272060Y-90300440D01*
X91422757Y-90333131D01*
X91574300Y-90304616D01*
X91702810Y-90219390D01*
X92331428Y-89590772D01*
X92412478Y-89472150D01*
X92445169Y-89321453D01*
X92416654Y-89169910D01*
X92331428Y-89041400D01*
X92319054Y-89029026D01*
X92667545Y-88680535D01*
X92679919Y-88692909D01*
X92798541Y-88773959D01*
X92949238Y-88806650D01*
X93100781Y-88778135D01*
X93229291Y-88692909D01*
X93857909Y-88064291D01*
X93938959Y-87945669D01*
X93971650Y-87794972D01*
X93943135Y-87643429D01*
X93904416Y-87585046D01*
X94036714Y-87452979D01*
X94069203Y-87374736D01*
X94145579Y-87426921D01*
X94296276Y-87459612D01*
X94447819Y-87431097D01*
X94576329Y-87345871D01*
X95128238Y-86793962D01*
X95227190Y-86793962D01*
X96027682Y-87594454D01*
X94811854Y-88810281D01*
X94730804Y-88928903D01*
X94698113Y-89079600D01*
X94726628Y-89231143D01*
X94811854Y-89359653D01*
X95143127Y-89690926D01*
X94153293Y-90680759D01*
X94038187Y-90853028D01*
X93997767Y-91056233D01*
X93997767Y-93126202D01*
X93947734Y-93050759D01*
X92534241Y-91637266D01*
X92415619Y-91556216D01*
X92264922Y-91523525D01*
X92113379Y-91552040D01*
X91984869Y-91637266D01*
X91866031Y-91756104D01*
X91865580Y-91753834D01*
X91865580Y-91753833D01*
X91750474Y-91581564D01*
X91750471Y-91581562D01*
X91034045Y-90865136D01*
X91065440Y-90819188D01*
X91098131Y-90668491D01*
X91069616Y-90516948D01*
X90984390Y-90388438D01*
X89996562Y-89400610D01*
X89877940Y-89319560D01*
X89727243Y-89286869D01*
X89575700Y-89315384D01*
X89447190Y-89400610D01*
X88818572Y-90029228D01*
X88737522Y-90147850D01*
X88704831Y-90298547D01*
X88733346Y-90450090D01*
X88818572Y-90578600D01*
X89806400Y-91566428D01*
X89925022Y-91647478D01*
X90075719Y-91680169D01*
X90227262Y-91651654D01*
X90282221Y-91615206D01*
X90844000Y-92176985D01*
X90844000Y-92778135D01*
X88802266Y-94819869D01*
X88800970Y-94821766D01*
X88575466Y-94276005D01*
X88111437Y-93811166D01*
X87504845Y-93559287D01*
X86848037Y-93558714D01*
X86442306Y-93726358D01*
X85499957Y-92784009D01*
X85327688Y-92668903D01*
X85124483Y-92628483D01*
X83590157Y-92628483D01*
X83386952Y-92668903D01*
X83214683Y-92784009D01*
X82680887Y-93317805D01*
X82586259Y-93223013D01*
X82336054Y-93119118D01*
X82065135Y-93118882D01*
X81814748Y-93222339D01*
X81623013Y-93413741D01*
X81519118Y-93663946D01*
X81518882Y-93934865D01*
X81622339Y-94185252D01*
X81637960Y-94200901D01*
X81528795Y-94271146D01*
X81441801Y-94398466D01*
X81411196Y-94549600D01*
X81411196Y-97348680D01*
X81437763Y-97489870D01*
X81521206Y-97619545D01*
X81648526Y-97706539D01*
X81799660Y-97737144D01*
X82800420Y-97737144D01*
X82941610Y-97710577D01*
X83071285Y-97627134D01*
X83158279Y-97499814D01*
X83188884Y-97348680D01*
X83188884Y-94549600D01*
X83162317Y-94408410D01*
X83134855Y-94365733D01*
X83519057Y-93981531D01*
X83600937Y-94179697D01*
X83558390Y-94187703D01*
X83428715Y-94271146D01*
X83341721Y-94398466D01*
X83311116Y-94549600D01*
X83311116Y-97348680D01*
X83337683Y-97489870D01*
X83421126Y-97619545D01*
X83548446Y-97706539D01*
X83699580Y-97737144D01*
X84700340Y-97737144D01*
X84841530Y-97710577D01*
X84971205Y-97627134D01*
X85058199Y-97499814D01*
X85088804Y-97348680D01*
X85088804Y-96788552D01*
X86644000Y-98343747D01*
X86644000Y-99443020D01*
X86241005Y-99609534D01*
X85776166Y-100073563D01*
X85524287Y-100680155D01*
X85523714Y-101336963D01*
X85774534Y-101943995D01*
X86238563Y-102408834D01*
X86845155Y-102660713D01*
X87501963Y-102661286D01*
X88108995Y-102410466D01*
X88573834Y-101946437D01*
X88825713Y-101339845D01*
X88826286Y-100683037D01*
X88575466Y-100076005D01*
X88495965Y-99996365D01*
X92063240Y-99996365D01*
X92144097Y-100180018D01*
X92592043Y-100331959D01*
X93064037Y-100300913D01*
X93355903Y-100180018D01*
X93436760Y-99996365D01*
X92750000Y-99309605D01*
X92063240Y-99996365D01*
X88495965Y-99996365D01*
X88111437Y-99611166D01*
X87706000Y-99442814D01*
X87706000Y-98972043D01*
X91548041Y-98972043D01*
X91579087Y-99444037D01*
X91699982Y-99735903D01*
X91883635Y-99816760D01*
X92570395Y-99130000D01*
X92929605Y-99130000D01*
X93616365Y-99816760D01*
X93800018Y-99735903D01*
X93951959Y-99287957D01*
X93920913Y-98815963D01*
X93800018Y-98524097D01*
X93616365Y-98443240D01*
X92929605Y-99130000D01*
X92570395Y-99130000D01*
X91883635Y-98443240D01*
X91699982Y-98524097D01*
X91548041Y-98972043D01*
X87706000Y-98972043D01*
X87706000Y-98263635D01*
X92063240Y-98263635D01*
X92750000Y-98950395D01*
X93436760Y-98263635D01*
X93355903Y-98079982D01*
X92907957Y-97928041D01*
X92435963Y-97959087D01*
X92144097Y-98079982D01*
X92063240Y-98263635D01*
X87706000Y-98263635D01*
X87706000Y-98123805D01*
X87706001Y-98123800D01*
X87665580Y-97920595D01*
X87647760Y-97893926D01*
X87550474Y-97748326D01*
X87550471Y-97748324D01*
X86533415Y-96731267D01*
X86845155Y-96860713D01*
X87501963Y-96861286D01*
X88108995Y-96610466D01*
X88573834Y-96146437D01*
X88825713Y-95539845D01*
X88825841Y-95392816D01*
X90215759Y-96782734D01*
X90334381Y-96863784D01*
X90485078Y-96896475D01*
X90636621Y-96867960D01*
X90765131Y-96782734D01*
X91980959Y-95566907D01*
X92199526Y-95785474D01*
X92371795Y-95900580D01*
X92575000Y-95941000D01*
X93513884Y-95941000D01*
X94626072Y-97053188D01*
X94616330Y-97098097D01*
X94644845Y-97249640D01*
X94730071Y-97378150D01*
X95851921Y-98500000D01*
X94730071Y-99621850D01*
X94649021Y-99740472D01*
X94616330Y-99891169D01*
X94644845Y-100042712D01*
X94730071Y-100171222D01*
X95118980Y-100560131D01*
X95227857Y-100634523D01*
X95295757Y-100736907D01*
X95684666Y-101125816D01*
X95793540Y-101200206D01*
X95861442Y-101302593D01*
X96223622Y-101664773D01*
X93893188Y-103995207D01*
X93893198Y-103983641D01*
X93719554Y-103563388D01*
X93398303Y-103241577D01*
X92978354Y-103067199D01*
X92523641Y-103066802D01*
X92103388Y-103240446D01*
X91814331Y-103529000D01*
X90957913Y-103529000D01*
X90697305Y-103580838D01*
X90476373Y-103728460D01*
X88452255Y-105752578D01*
X88111437Y-105411166D01*
X87504845Y-105159287D01*
X86848037Y-105158714D01*
X86241005Y-105409534D01*
X85776166Y-105873563D01*
X85524287Y-106480155D01*
X85523714Y-107136963D01*
X85774534Y-107743995D01*
X86238563Y-108208834D01*
X86845155Y-108460713D01*
X86951000Y-108460805D01*
X86951000Y-108976250D01*
X87057750Y-109083000D01*
X87695500Y-109083000D01*
X87695500Y-109063000D01*
X87949500Y-109063000D01*
X87949500Y-109083000D01*
X88587250Y-109083000D01*
X88694000Y-108976250D01*
X88694000Y-108426564D01*
X88628993Y-108269624D01*
X88508876Y-108149507D01*
X88351935Y-108084500D01*
X88235181Y-108084500D01*
X88573834Y-107746437D01*
X88733260Y-107362496D01*
X88839453Y-107291540D01*
X91239993Y-104891000D01*
X91814774Y-104891000D01*
X92101697Y-105178423D01*
X92521646Y-105352801D01*
X92976359Y-105353198D01*
X93396612Y-105179554D01*
X93644000Y-104932596D01*
X93644000Y-105626266D01*
X93512000Y-105599536D01*
X91988000Y-105599536D01*
X91846810Y-105626103D01*
X91717135Y-105709546D01*
X91630141Y-105836866D01*
X91599536Y-105988000D01*
X91599536Y-107512000D01*
X91626103Y-107653190D01*
X91709546Y-107782865D01*
X91836866Y-107869859D01*
X91988000Y-107900464D01*
X93313995Y-107900464D01*
X93313995Y-109192398D01*
X93308272Y-109190022D01*
X93037353Y-109189786D01*
X92786966Y-109293243D01*
X92706068Y-109374000D01*
X92673975Y-109374000D01*
X92555634Y-109293141D01*
X92404500Y-109262536D01*
X91261500Y-109262536D01*
X91120310Y-109289103D01*
X90990635Y-109372546D01*
X90903641Y-109499866D01*
X90873036Y-109651000D01*
X90873036Y-109858588D01*
X90560464Y-109546016D01*
X90560464Y-108511500D01*
X90533897Y-108370310D01*
X90450454Y-108240635D01*
X90323134Y-108153641D01*
X90172000Y-108123036D01*
X89283000Y-108123036D01*
X89141810Y-108149603D01*
X89012135Y-108233046D01*
X88925141Y-108360366D01*
X88894536Y-108511500D01*
X88894536Y-109908500D01*
X88921103Y-110049690D01*
X89004546Y-110179365D01*
X89131866Y-110266359D01*
X89283000Y-110296964D01*
X89809516Y-110296964D01*
X89835588Y-110323036D01*
X89235500Y-110323036D01*
X89094310Y-110349603D01*
X88964635Y-110433046D01*
X88877641Y-110560366D01*
X88847036Y-110711500D01*
X88847036Y-112108500D01*
X88873603Y-112249690D01*
X88957046Y-112379365D01*
X89084366Y-112466359D01*
X89235500Y-112496964D01*
X90124500Y-112496964D01*
X90265690Y-112470397D01*
X90283827Y-112458726D01*
X90284420Y-112461705D01*
X90399526Y-112633974D01*
X90586026Y-112820474D01*
X90748447Y-112929000D01*
X90512964Y-112929000D01*
X90512964Y-112911500D01*
X90486397Y-112770310D01*
X90402954Y-112640635D01*
X90275634Y-112553641D01*
X90124500Y-112523036D01*
X89235500Y-112523036D01*
X89094310Y-112549603D01*
X88964635Y-112633046D01*
X88877641Y-112760366D01*
X88847036Y-112911500D01*
X88847036Y-114308500D01*
X88873603Y-114449690D01*
X88957046Y-114579365D01*
X89084366Y-114666359D01*
X89235500Y-114696964D01*
X90124500Y-114696964D01*
X90172097Y-114688008D01*
X90171966Y-114837765D01*
X90290616Y-115124919D01*
X90505633Y-115340312D01*
X90486142Y-115348385D01*
X90400595Y-115535990D01*
X91115000Y-116250395D01*
X91829405Y-115535990D01*
X91743858Y-115348385D01*
X91482038Y-115258622D01*
X91614816Y-115126075D01*
X91733966Y-114839128D01*
X91734238Y-114528427D01*
X91679520Y-114396000D01*
X91833000Y-114396000D01*
X92026733Y-114357464D01*
X92404500Y-114357464D01*
X92545690Y-114330897D01*
X92675365Y-114247454D01*
X92762359Y-114120134D01*
X92792964Y-113969000D01*
X92792964Y-113461000D01*
X92766397Y-113319810D01*
X92682954Y-113190135D01*
X92555634Y-113103141D01*
X92442712Y-113080274D01*
X92545690Y-113060897D01*
X92675365Y-112977454D01*
X92762359Y-112850134D01*
X92792964Y-112699000D01*
X92792964Y-112191000D01*
X92766397Y-112049810D01*
X92682954Y-111920135D01*
X92636958Y-111888707D01*
X92743999Y-111909999D01*
X92762828Y-111909999D01*
X92808735Y-111955986D01*
X93058940Y-112059881D01*
X93313995Y-112060103D01*
X93313995Y-113846951D01*
X93354415Y-114050156D01*
X93469521Y-114222425D01*
X94274101Y-115027005D01*
X94274101Y-115408197D01*
X93890966Y-115249106D01*
X93421095Y-115248696D01*
X92986835Y-115428128D01*
X92654296Y-115760087D01*
X92474106Y-116194034D01*
X92473696Y-116663905D01*
X92653128Y-117098165D01*
X92985087Y-117430704D01*
X93419034Y-117610894D01*
X93888905Y-117611304D01*
X94323165Y-117431872D01*
X94514610Y-117240760D01*
X95229425Y-117955575D01*
X95401694Y-118070681D01*
X95420380Y-118074398D01*
X95194296Y-118300087D01*
X95014106Y-118734034D01*
X95013696Y-119203905D01*
X95193128Y-119638165D01*
X95525087Y-119970704D01*
X95959034Y-120150894D01*
X96428905Y-120151304D01*
X96863165Y-119971872D01*
X97195704Y-119639913D01*
X97375894Y-119205966D01*
X97376304Y-118736095D01*
X97196872Y-118301835D01*
X97006471Y-118111101D01*
X97125153Y-118111101D01*
X97611020Y-118596968D01*
X97554106Y-118734034D01*
X97553696Y-119203905D01*
X97733128Y-119638165D01*
X98065087Y-119970704D01*
X98499034Y-120150894D01*
X98968905Y-120151304D01*
X99403165Y-119971872D01*
X99735704Y-119639913D01*
X99915894Y-119205966D01*
X99916304Y-118736095D01*
X99736872Y-118301835D01*
X99404913Y-117969296D01*
X98970966Y-117789106D01*
X98501095Y-117788696D01*
X98362083Y-117846135D01*
X97720575Y-117204627D01*
X97548306Y-117089521D01*
X97345101Y-117049101D01*
X97216803Y-117049101D01*
X97375894Y-116665966D01*
X97376304Y-116196095D01*
X97208514Y-115790012D01*
X97344064Y-115790012D01*
X97611020Y-116056968D01*
X97554106Y-116194034D01*
X97553696Y-116663905D01*
X97733128Y-117098165D01*
X98065087Y-117430704D01*
X98499034Y-117610894D01*
X98968905Y-117611304D01*
X99403165Y-117431872D01*
X99593899Y-117241471D01*
X99593899Y-117819899D01*
X99634319Y-118023104D01*
X99749425Y-118195373D01*
X100151021Y-118596968D01*
X100094106Y-118734034D01*
X100093696Y-119203905D01*
X100273128Y-119638165D01*
X100605087Y-119970704D01*
X101039034Y-120150894D01*
X101508905Y-120151304D01*
X101943165Y-119971872D01*
X102275704Y-119639913D01*
X102455894Y-119205966D01*
X102456304Y-118736095D01*
X102276872Y-118301835D01*
X101944913Y-117969296D01*
X101510966Y-117789106D01*
X101041095Y-117788696D01*
X100902082Y-117846135D01*
X100655899Y-117599951D01*
X100655899Y-117451803D01*
X101039034Y-117610894D01*
X101508905Y-117611304D01*
X101943165Y-117431872D01*
X102171999Y-117203437D01*
X102171999Y-117857999D01*
X102212419Y-118061204D01*
X102327525Y-118233473D01*
X102720170Y-118626118D01*
X102672199Y-118741646D01*
X102671802Y-119196359D01*
X102845446Y-119616612D01*
X103166697Y-119938423D01*
X103586646Y-120112801D01*
X104041359Y-120113198D01*
X104461612Y-119939554D01*
X104783423Y-119618303D01*
X104957801Y-119198354D01*
X104958198Y-118743641D01*
X104784554Y-118323388D01*
X104463303Y-118001577D01*
X104043354Y-117827199D01*
X103588641Y-117826802D01*
X103471253Y-117875305D01*
X103233999Y-117638051D01*
X103233999Y-117426369D01*
X103586646Y-117572801D01*
X104041359Y-117573198D01*
X104160657Y-117523905D01*
X108528696Y-117523905D01*
X108708128Y-117958165D01*
X109040087Y-118290704D01*
X109474034Y-118470894D01*
X109943905Y-118471304D01*
X110378165Y-118291872D01*
X110710704Y-117959913D01*
X110890894Y-117525966D01*
X110890895Y-117523905D01*
X111068696Y-117523905D01*
X111248128Y-117958165D01*
X111580087Y-118290704D01*
X112014034Y-118470894D01*
X112483905Y-118471304D01*
X112918165Y-118291872D01*
X113250704Y-117959913D01*
X113430894Y-117525966D01*
X113431304Y-117056095D01*
X113251872Y-116621835D01*
X112919913Y-116289296D01*
X112485966Y-116109106D01*
X112016095Y-116108696D01*
X111581835Y-116288128D01*
X111249296Y-116620087D01*
X111069106Y-117054034D01*
X111068696Y-117523905D01*
X110890895Y-117523905D01*
X110891304Y-117056095D01*
X110711872Y-116621835D01*
X110379913Y-116289296D01*
X109945966Y-116109106D01*
X109476095Y-116108696D01*
X109041835Y-116288128D01*
X108709296Y-116620087D01*
X108529106Y-117054034D01*
X108528696Y-117523905D01*
X104160657Y-117523905D01*
X104461612Y-117399554D01*
X104783423Y-117078303D01*
X104957801Y-116658354D01*
X104958198Y-116203641D01*
X104784554Y-115783388D01*
X104463303Y-115461577D01*
X104346000Y-115412869D01*
X104346000Y-115245000D01*
X104305580Y-115041795D01*
X104190474Y-114869526D01*
X101781000Y-112460052D01*
X101781000Y-108795464D01*
X101844000Y-108795464D01*
X101844000Y-108807624D01*
X101884420Y-109010829D01*
X101999526Y-109183098D01*
X102373035Y-109556607D01*
X102189748Y-109632339D01*
X101998013Y-109823741D01*
X101894118Y-110073946D01*
X101893882Y-110344865D01*
X101997339Y-110595252D01*
X102188741Y-110786987D01*
X102438946Y-110890882D01*
X102709865Y-110891118D01*
X102960252Y-110787661D01*
X102992732Y-110755237D01*
X103107275Y-110778022D01*
X103107280Y-110778021D01*
X105031547Y-110778022D01*
X108599069Y-114345544D01*
X108529106Y-114514034D01*
X108528696Y-114983905D01*
X108708128Y-115418165D01*
X109040087Y-115750704D01*
X109474034Y-115930894D01*
X109943905Y-115931304D01*
X110378165Y-115751872D01*
X110710704Y-115419913D01*
X110890894Y-114985966D01*
X110891304Y-114516095D01*
X110711872Y-114081835D01*
X110379913Y-113749296D01*
X109945966Y-113569106D01*
X109476095Y-113568696D01*
X109368553Y-113613132D01*
X108927515Y-113172094D01*
X108995596Y-113104012D01*
X109081142Y-113291615D01*
X109542927Y-113449935D01*
X110030148Y-113419487D01*
X110338858Y-113291615D01*
X110424405Y-113104010D01*
X109710000Y-112389605D01*
X109695858Y-112403748D01*
X109516253Y-112224143D01*
X109530395Y-112210000D01*
X109889605Y-112210000D01*
X110604010Y-112924405D01*
X110791615Y-112838858D01*
X110949935Y-112377073D01*
X110919487Y-111889852D01*
X110791615Y-111581142D01*
X110604010Y-111495595D01*
X109889605Y-112210000D01*
X109530395Y-112210000D01*
X108815990Y-111495595D01*
X108628385Y-111581142D01*
X108470065Y-112042927D01*
X108500513Y-112530148D01*
X108628385Y-112838858D01*
X108815988Y-112924404D01*
X108747907Y-112992486D01*
X107071411Y-111315990D01*
X108995595Y-111315990D01*
X109710000Y-112030395D01*
X110424405Y-111315990D01*
X110338858Y-111128385D01*
X109877073Y-110970065D01*
X109389852Y-111000513D01*
X109081142Y-111128385D01*
X108995595Y-111315990D01*
X107071411Y-111315990D01*
X106033433Y-110278012D01*
X107933554Y-110278012D01*
X108011776Y-110330278D01*
X108214981Y-110370699D01*
X108214986Y-110370698D01*
X110785250Y-110370698D01*
X111412791Y-110998239D01*
X111283310Y-111022603D01*
X111153635Y-111106046D01*
X111066641Y-111233366D01*
X111036036Y-111384500D01*
X111036036Y-113035500D01*
X111062603Y-113176690D01*
X111146046Y-113306365D01*
X111273366Y-113393359D01*
X111424500Y-113423964D01*
X112825088Y-113423964D01*
X112623032Y-113626020D01*
X112485966Y-113569106D01*
X112016095Y-113568696D01*
X111581835Y-113748128D01*
X111249296Y-114080087D01*
X111069106Y-114514034D01*
X111068696Y-114983905D01*
X111248128Y-115418165D01*
X111580087Y-115750704D01*
X112014034Y-115930894D01*
X112483905Y-115931304D01*
X112918165Y-115751872D01*
X113250704Y-115419913D01*
X113430894Y-114985966D01*
X113431304Y-114516095D01*
X113373865Y-114377083D01*
X114065975Y-113684973D01*
X114181081Y-113512704D01*
X114221501Y-113309499D01*
X114221501Y-111084499D01*
X114181081Y-110881294D01*
X114065975Y-110709025D01*
X114065972Y-110709023D01*
X112321164Y-108964214D01*
X112148895Y-108849108D01*
X111945690Y-108808688D01*
X109099157Y-108808688D01*
X109336823Y-108710486D01*
X109556714Y-108490979D01*
X109675864Y-108204032D01*
X109676136Y-107893331D01*
X109557486Y-107606177D01*
X109337979Y-107386286D01*
X109051032Y-107267136D01*
X108740331Y-107266864D01*
X108651665Y-107303500D01*
X107862067Y-107303500D01*
X107839954Y-107269135D01*
X107712634Y-107182141D01*
X107561500Y-107151536D01*
X106164500Y-107151536D01*
X106023310Y-107178103D01*
X105893635Y-107261546D01*
X105806641Y-107388866D01*
X105776036Y-107540000D01*
X105776036Y-108429000D01*
X105802603Y-108570190D01*
X105886046Y-108699865D01*
X105909662Y-108716001D01*
X105592368Y-108716001D01*
X105637493Y-108670876D01*
X105702500Y-108513935D01*
X105702500Y-108218250D01*
X105595750Y-108111500D01*
X104704000Y-108111500D01*
X104704000Y-108131500D01*
X104450000Y-108131500D01*
X104450000Y-108111500D01*
X103558250Y-108111500D01*
X103451500Y-108218250D01*
X103451500Y-108291606D01*
X103406011Y-108246117D01*
X103406011Y-106510011D01*
X103365591Y-106306806D01*
X103250485Y-106134537D01*
X103025948Y-105910000D01*
X103350474Y-105585474D01*
X103465580Y-105413205D01*
X103506000Y-105210000D01*
X103506000Y-104808788D01*
X103943748Y-105246536D01*
X103878500Y-105246536D01*
X103737310Y-105273103D01*
X103607635Y-105356546D01*
X103520641Y-105483866D01*
X103490036Y-105635000D01*
X103490036Y-106524000D01*
X103516603Y-106665190D01*
X103600046Y-106794865D01*
X103727366Y-106881859D01*
X103778337Y-106892181D01*
X103778160Y-107094655D01*
X103786883Y-107115767D01*
X103636624Y-107178007D01*
X103516507Y-107298124D01*
X103451500Y-107455065D01*
X103451500Y-107750750D01*
X103558250Y-107857500D01*
X104450000Y-107857500D01*
X104450000Y-107837500D01*
X104704000Y-107837500D01*
X104704000Y-107857500D01*
X105595750Y-107857500D01*
X105702500Y-107750750D01*
X105702500Y-107455065D01*
X105637493Y-107298124D01*
X105517376Y-107178007D01*
X105360436Y-107113000D01*
X105333109Y-107113000D01*
X105340160Y-107096018D01*
X105340331Y-106900265D01*
X105416690Y-106885897D01*
X105546365Y-106802454D01*
X105633359Y-106675134D01*
X105663964Y-106524000D01*
X105663964Y-105635000D01*
X105637397Y-105493810D01*
X105554865Y-105365550D01*
X105742361Y-105288078D01*
X105962252Y-105068571D01*
X106001659Y-104973669D01*
X106036517Y-105008527D01*
X106036355Y-105193222D01*
X106066039Y-105265063D01*
X106023310Y-105273103D01*
X105893635Y-105356546D01*
X105806641Y-105483866D01*
X105776036Y-105635000D01*
X105776036Y-106524000D01*
X105802603Y-106665190D01*
X105886046Y-106794865D01*
X106013366Y-106881859D01*
X106164500Y-106912464D01*
X107561500Y-106912464D01*
X107702690Y-106885897D01*
X107832365Y-106802454D01*
X107919359Y-106675134D01*
X107949964Y-106524000D01*
X107949964Y-105635000D01*
X107923397Y-105493810D01*
X107877204Y-105422022D01*
X108368631Y-105422022D01*
X108692373Y-106205538D01*
X109291309Y-106805521D01*
X110074258Y-107130630D01*
X110922022Y-107131369D01*
X111705538Y-106807627D01*
X112305521Y-106208691D01*
X112630630Y-105425742D01*
X112631369Y-104577978D01*
X112307627Y-103794462D01*
X111708691Y-103194479D01*
X110925742Y-102869370D01*
X110077978Y-102868631D01*
X109294462Y-103192373D01*
X108694479Y-103791309D01*
X108369370Y-104574258D01*
X108368631Y-105422022D01*
X107877204Y-105422022D01*
X107839954Y-105364135D01*
X107712634Y-105277141D01*
X107575598Y-105249391D01*
X107598355Y-105194585D01*
X107598627Y-104883884D01*
X107479977Y-104596730D01*
X107260470Y-104376839D01*
X106973523Y-104257689D01*
X106787412Y-104257526D01*
X104735519Y-102205633D01*
X105072873Y-101868278D01*
X105080450Y-101857189D01*
X105469003Y-102245742D01*
X105468864Y-102404669D01*
X105587514Y-102691823D01*
X105807021Y-102911714D01*
X106093968Y-103030864D01*
X106404669Y-103031136D01*
X106691823Y-102912486D01*
X106911714Y-102692979D01*
X107030864Y-102406032D01*
X107031136Y-102095331D01*
X106912486Y-101808177D01*
X106692979Y-101588286D01*
X106406032Y-101469136D01*
X106194107Y-101468950D01*
X105833154Y-101107997D01*
X106204243Y-100736907D01*
X106278633Y-100628033D01*
X106381020Y-100560131D01*
X106769929Y-100171222D01*
X106850979Y-100052600D01*
X106883670Y-99901903D01*
X106855155Y-99750360D01*
X106769929Y-99621850D01*
X105648079Y-98500000D01*
X106769929Y-97378150D01*
X106850979Y-97259528D01*
X106883670Y-97108831D01*
X106872746Y-97050777D01*
X108174007Y-95749516D01*
X108174010Y-95749514D01*
X108289116Y-95577245D01*
X108293238Y-95556523D01*
X108303056Y-95507166D01*
X108375523Y-95434825D01*
X108479418Y-95184620D01*
X108479654Y-94913701D01*
X108376197Y-94663314D01*
X108184795Y-94471579D01*
X107934590Y-94367684D01*
X107719783Y-94367497D01*
X107733997Y-94357999D01*
X107851227Y-94358101D01*
X108101614Y-94254644D01*
X108293349Y-94063242D01*
X108397244Y-93813037D01*
X108397480Y-93542118D01*
X108294023Y-93291731D01*
X108102621Y-93099996D01*
X108071237Y-93086964D01*
X108444500Y-93086964D01*
X108585690Y-93060397D01*
X108715365Y-92976954D01*
X108802359Y-92849634D01*
X108816255Y-92781015D01*
X108954669Y-92781136D01*
X109241823Y-92662486D01*
X109461714Y-92442979D01*
X109580864Y-92156032D01*
X109581136Y-91845331D01*
X109462486Y-91558177D01*
X109242979Y-91338286D01*
X108956032Y-91219136D01*
X108817443Y-91219015D01*
X108806397Y-91160310D01*
X108722954Y-91030635D01*
X108595634Y-90943641D01*
X108444500Y-90913036D01*
X107555500Y-90913036D01*
X107414310Y-90939603D01*
X107284635Y-91023046D01*
X107197641Y-91150366D01*
X107167036Y-91301500D01*
X107167036Y-92404805D01*
X106935141Y-92404603D01*
X106927964Y-92407568D01*
X106927964Y-91301500D01*
X106901397Y-91160310D01*
X106817954Y-91030635D01*
X106690634Y-90943641D01*
X106539500Y-90913036D01*
X106531000Y-90913036D01*
X106531000Y-90831777D01*
X106598390Y-90819097D01*
X106728065Y-90735654D01*
X106815059Y-90608334D01*
X106845664Y-90457200D01*
X106845664Y-90233750D01*
X107467840Y-90233750D01*
X107467840Y-90542136D01*
X107532847Y-90699076D01*
X107652964Y-90819193D01*
X107809905Y-90884200D01*
X108118290Y-90884200D01*
X108225040Y-90777450D01*
X108225040Y-90127000D01*
X108479040Y-90127000D01*
X108479040Y-90777450D01*
X108585790Y-90884200D01*
X108894175Y-90884200D01*
X109051116Y-90819193D01*
X109171233Y-90699076D01*
X109236240Y-90542136D01*
X109236240Y-90233750D01*
X109129490Y-90127000D01*
X108479040Y-90127000D01*
X108225040Y-90127000D01*
X107574590Y-90127000D01*
X107467840Y-90233750D01*
X106845664Y-90233750D01*
X106845664Y-89923291D01*
X106863946Y-89930882D01*
X107134865Y-89931118D01*
X107385252Y-89827661D01*
X107467840Y-89745216D01*
X107467840Y-89766250D01*
X107574590Y-89873000D01*
X108225040Y-89873000D01*
X108225040Y-89853000D01*
X108479040Y-89853000D01*
X108479040Y-89873000D01*
X109129490Y-89873000D01*
X109236240Y-89766250D01*
X109236240Y-89457864D01*
X109171233Y-89300924D01*
X109051116Y-89180807D01*
X108894175Y-89115800D01*
X108585790Y-89115800D01*
X108479042Y-89222548D01*
X108479042Y-89115800D01*
X108457853Y-89115800D01*
X108591376Y-89060493D01*
X108711493Y-88940376D01*
X108776500Y-88783436D01*
X108776500Y-88233750D01*
X108669750Y-88127000D01*
X108032000Y-88127000D01*
X108032000Y-88147000D01*
X107778000Y-88147000D01*
X107778000Y-88127000D01*
X107140250Y-88127000D01*
X107033500Y-88233750D01*
X107033500Y-88569029D01*
X106865135Y-88568882D01*
X106832964Y-88582175D01*
X106832964Y-87917984D01*
X107033500Y-87717448D01*
X107033500Y-87766250D01*
X107140250Y-87873000D01*
X107778000Y-87873000D01*
X107778000Y-87853000D01*
X108032000Y-87853000D01*
X108032000Y-87873000D01*
X108669750Y-87873000D01*
X108776500Y-87766250D01*
X108776500Y-87216564D01*
X108711493Y-87059624D01*
X108592869Y-86941000D01*
X110080762Y-86941000D01*
X110283967Y-86900580D01*
X110456236Y-86785474D01*
X110456237Y-86785473D01*
X113350471Y-83891238D01*
X113350474Y-83891236D01*
X113465580Y-83718967D01*
X113480511Y-83643905D01*
X113499513Y-83548381D01*
X114373000Y-83548381D01*
X114373000Y-86029233D01*
X112809000Y-86029233D01*
X112809000Y-96010190D01*
X111539000Y-96010190D01*
X111539000Y-101646000D01*
X114373000Y-101646000D01*
X114373000Y-119830628D01*
X108228606Y-122903636D01*
X106976970Y-123373000D01*
X93026951Y-123373000D01*
X90163531Y-122100369D01*
X88026199Y-121031498D01*
X85627000Y-119432032D01*
X85627000Y-118144500D01*
X87361036Y-118144500D01*
X87361036Y-119795500D01*
X87387603Y-119936690D01*
X87471046Y-120066365D01*
X87598366Y-120153359D01*
X87749500Y-120183964D01*
X89400500Y-120183964D01*
X89541690Y-120157397D01*
X89671365Y-120073954D01*
X89758359Y-119946634D01*
X89775090Y-119864010D01*
X90400595Y-119864010D01*
X90486142Y-120051615D01*
X90947927Y-120209935D01*
X91435148Y-120179487D01*
X91743858Y-120051615D01*
X91829405Y-119864010D01*
X91115000Y-119149605D01*
X90400595Y-119864010D01*
X89775090Y-119864010D01*
X89788964Y-119795500D01*
X89788964Y-118802927D01*
X89875065Y-118802927D01*
X89905513Y-119290148D01*
X90033385Y-119598858D01*
X90220990Y-119684405D01*
X90935395Y-118970000D01*
X91294605Y-118970000D01*
X92009010Y-119684405D01*
X92196615Y-119598858D01*
X92332022Y-119203905D01*
X92473696Y-119203905D01*
X92653128Y-119638165D01*
X92985087Y-119970704D01*
X93419034Y-120150894D01*
X93888905Y-120151304D01*
X94323165Y-119971872D01*
X94655704Y-119639913D01*
X94835894Y-119205966D01*
X94836304Y-118736095D01*
X94656872Y-118301835D01*
X94324913Y-117969296D01*
X93890966Y-117789106D01*
X93421095Y-117788696D01*
X92986835Y-117968128D01*
X92654296Y-118300087D01*
X92474106Y-118734034D01*
X92473696Y-119203905D01*
X92332022Y-119203905D01*
X92354935Y-119137073D01*
X92324487Y-118649852D01*
X92196615Y-118341142D01*
X92009010Y-118255595D01*
X91294605Y-118970000D01*
X90935395Y-118970000D01*
X90220990Y-118255595D01*
X90033385Y-118341142D01*
X89875065Y-118802927D01*
X89788964Y-118802927D01*
X89788964Y-118144500D01*
X89776073Y-118075990D01*
X90400595Y-118075990D01*
X91115000Y-118790395D01*
X91829405Y-118075990D01*
X91743858Y-117888385D01*
X91282073Y-117730065D01*
X90794852Y-117760513D01*
X90486142Y-117888385D01*
X90400595Y-118075990D01*
X89776073Y-118075990D01*
X89762397Y-118003310D01*
X89678954Y-117873635D01*
X89551634Y-117786641D01*
X89400500Y-117756036D01*
X89256000Y-117756036D01*
X89256000Y-117419059D01*
X89351215Y-117324010D01*
X90400595Y-117324010D01*
X90486142Y-117511615D01*
X90947927Y-117669935D01*
X91435148Y-117639487D01*
X91743858Y-117511615D01*
X91829405Y-117324010D01*
X91115000Y-116609605D01*
X90400595Y-117324010D01*
X89351215Y-117324010D01*
X89575704Y-117099913D01*
X89755894Y-116665966D01*
X89756245Y-116262927D01*
X89875065Y-116262927D01*
X89905513Y-116750148D01*
X90033385Y-117058858D01*
X90220990Y-117144405D01*
X90935395Y-116430000D01*
X91294605Y-116430000D01*
X92009010Y-117144405D01*
X92196615Y-117058858D01*
X92354935Y-116597073D01*
X92324487Y-116109852D01*
X92196615Y-115801142D01*
X92009010Y-115715595D01*
X91294605Y-116430000D01*
X90935395Y-116430000D01*
X90220990Y-115715595D01*
X90033385Y-115801142D01*
X89875065Y-116262927D01*
X89756245Y-116262927D01*
X89756304Y-116196095D01*
X89576872Y-115761835D01*
X89244913Y-115429296D01*
X88810966Y-115249106D01*
X88341095Y-115248696D01*
X87906835Y-115428128D01*
X87574296Y-115760087D01*
X87394106Y-116194034D01*
X87393696Y-116663905D01*
X87573128Y-117098165D01*
X87894000Y-117419598D01*
X87894000Y-117756036D01*
X87749500Y-117756036D01*
X87608310Y-117782603D01*
X87478635Y-117866046D01*
X87391641Y-117993366D01*
X87361036Y-118144500D01*
X85627000Y-118144500D01*
X85627000Y-113843750D01*
X86903500Y-113843750D01*
X86903500Y-114393436D01*
X86968507Y-114550376D01*
X87088624Y-114670493D01*
X87245565Y-114735500D01*
X87541250Y-114735500D01*
X87648000Y-114628750D01*
X87648000Y-113737000D01*
X87902000Y-113737000D01*
X87902000Y-114628750D01*
X88008750Y-114735500D01*
X88304435Y-114735500D01*
X88461376Y-114670493D01*
X88581493Y-114550376D01*
X88646500Y-114393436D01*
X88646500Y-113843750D01*
X88539750Y-113737000D01*
X87902000Y-113737000D01*
X87648000Y-113737000D01*
X87010250Y-113737000D01*
X86903500Y-113843750D01*
X85627000Y-113843750D01*
X85627000Y-111643750D01*
X86903500Y-111643750D01*
X86903500Y-112193436D01*
X86968507Y-112350376D01*
X87088624Y-112470493D01*
X87184002Y-112510000D01*
X87088624Y-112549507D01*
X86968507Y-112669624D01*
X86903500Y-112826564D01*
X86903500Y-113376250D01*
X87010250Y-113483000D01*
X87648000Y-113483000D01*
X87648000Y-112591250D01*
X87566750Y-112510000D01*
X87648000Y-112428750D01*
X87648000Y-111537000D01*
X87902000Y-111537000D01*
X87902000Y-112428750D01*
X87983250Y-112510000D01*
X87902000Y-112591250D01*
X87902000Y-113483000D01*
X88539750Y-113483000D01*
X88646500Y-113376250D01*
X88646500Y-112826564D01*
X88581493Y-112669624D01*
X88461376Y-112549507D01*
X88365998Y-112510000D01*
X88461376Y-112470493D01*
X88581493Y-112350376D01*
X88646500Y-112193436D01*
X88646500Y-111643750D01*
X88539750Y-111537000D01*
X87902000Y-111537000D01*
X87648000Y-111537000D01*
X87010250Y-111537000D01*
X86903500Y-111643750D01*
X85627000Y-111643750D01*
X85627000Y-110626564D01*
X86903500Y-110626564D01*
X86903500Y-111176250D01*
X87010250Y-111283000D01*
X87648000Y-111283000D01*
X87648000Y-110391250D01*
X87902000Y-110391250D01*
X87902000Y-111283000D01*
X88539750Y-111283000D01*
X88646500Y-111176250D01*
X88646500Y-110626564D01*
X88581493Y-110469624D01*
X88461376Y-110349507D01*
X88389748Y-110319838D01*
X88508876Y-110270493D01*
X88628993Y-110150376D01*
X88694000Y-109993436D01*
X88694000Y-109443750D01*
X88587250Y-109337000D01*
X87949500Y-109337000D01*
X87949500Y-110228750D01*
X88007000Y-110286250D01*
X87902000Y-110391250D01*
X87648000Y-110391250D01*
X87590500Y-110333750D01*
X87695500Y-110228750D01*
X87695500Y-109337000D01*
X87057750Y-109337000D01*
X86951000Y-109443750D01*
X86951000Y-109993436D01*
X87016007Y-110150376D01*
X87136124Y-110270493D01*
X87207752Y-110300162D01*
X87088624Y-110349507D01*
X86968507Y-110469624D01*
X86903500Y-110626564D01*
X85627000Y-110626564D01*
X85627000Y-109500000D01*
X85616994Y-109450590D01*
X85589803Y-109410197D01*
X85089803Y-108910197D01*
X85047789Y-108882334D01*
X85000000Y-108873000D01*
X81052606Y-108873000D01*
X80627000Y-108447394D01*
X80627000Y-98151320D01*
X81411196Y-98151320D01*
X81411196Y-100950400D01*
X81437763Y-101091590D01*
X81521206Y-101221265D01*
X81648526Y-101308259D01*
X81799660Y-101338864D01*
X82800420Y-101338864D01*
X82941610Y-101312297D01*
X83071285Y-101228854D01*
X83110077Y-101172080D01*
X83141726Y-101221265D01*
X83269046Y-101308259D01*
X83338620Y-101322348D01*
X83338620Y-102476620D01*
X83390458Y-102737228D01*
X83538080Y-102958160D01*
X84537460Y-103957540D01*
X84758392Y-104105162D01*
X85019000Y-104157001D01*
X85019005Y-104157000D01*
X88829000Y-104157000D01*
X89089608Y-104105162D01*
X89310540Y-103957540D01*
X90917080Y-102351000D01*
X91814774Y-102351000D01*
X92101697Y-102638423D01*
X92521646Y-102812801D01*
X92976359Y-102813198D01*
X93396612Y-102639554D01*
X93718423Y-102318303D01*
X93892801Y-101898354D01*
X93893198Y-101443641D01*
X93719554Y-101023388D01*
X93398303Y-100701577D01*
X92978354Y-100527199D01*
X92523641Y-100526802D01*
X92103388Y-100700446D01*
X91814331Y-100989000D01*
X90635005Y-100989000D01*
X90635000Y-100988999D01*
X90374392Y-101040838D01*
X90153460Y-101188460D01*
X88546920Y-102795000D01*
X85301080Y-102795000D01*
X84700620Y-102194540D01*
X84700620Y-101323517D01*
X84760250Y-101312297D01*
X84889925Y-101228854D01*
X84976919Y-101101534D01*
X85007524Y-100950400D01*
X85007524Y-98151320D01*
X84980957Y-98010130D01*
X84897514Y-97880455D01*
X84770194Y-97793461D01*
X84619060Y-97762856D01*
X83420180Y-97762856D01*
X83278990Y-97789423D01*
X83149315Y-97872866D01*
X83110523Y-97929640D01*
X83078874Y-97880455D01*
X82951554Y-97793461D01*
X82800420Y-97762856D01*
X81799660Y-97762856D01*
X81658470Y-97789423D01*
X81528795Y-97872866D01*
X81441801Y-98000186D01*
X81411196Y-98151320D01*
X80627000Y-98151320D01*
X80627000Y-89736963D01*
X85523714Y-89736963D01*
X85774534Y-90343995D01*
X86238563Y-90808834D01*
X86845155Y-91060713D01*
X87501963Y-91061286D01*
X88108995Y-90810466D01*
X88573834Y-90346437D01*
X88825713Y-89739845D01*
X88826286Y-89083037D01*
X88575466Y-88476005D01*
X88111437Y-88011166D01*
X87504845Y-87759287D01*
X86848037Y-87758714D01*
X86241005Y-88009534D01*
X85776166Y-88473563D01*
X85524287Y-89080155D01*
X85523714Y-89736963D01*
X80627000Y-89736963D01*
X80627000Y-87052606D01*
X81052606Y-86627000D01*
X85000000Y-86627000D01*
X85049410Y-86616994D01*
X85089803Y-86589803D01*
X85589803Y-86089803D01*
X85617666Y-86047789D01*
X85627000Y-86000000D01*
X85627000Y-82584500D01*
X87361036Y-82584500D01*
X87361036Y-84235500D01*
X87387603Y-84376690D01*
X87471046Y-84506365D01*
X87598366Y-84593359D01*
X87749500Y-84623964D01*
X89400500Y-84623964D01*
X89541690Y-84597397D01*
X89671365Y-84513954D01*
X89758359Y-84386634D01*
X89775090Y-84304010D01*
X90400595Y-84304010D01*
X90486142Y-84491615D01*
X90947927Y-84649935D01*
X91435148Y-84619487D01*
X91743858Y-84491615D01*
X91829405Y-84304010D01*
X91115000Y-83589605D01*
X90400595Y-84304010D01*
X89775090Y-84304010D01*
X89788964Y-84235500D01*
X89788964Y-83242927D01*
X89875065Y-83242927D01*
X89905513Y-83730148D01*
X90033385Y-84038858D01*
X90220990Y-84124405D01*
X90935395Y-83410000D01*
X91294605Y-83410000D01*
X92009010Y-84124405D01*
X92196615Y-84038858D01*
X92332022Y-83643905D01*
X92473696Y-83643905D01*
X92653128Y-84078165D01*
X92985087Y-84410704D01*
X93419034Y-84590894D01*
X93888905Y-84591304D01*
X94323165Y-84411872D01*
X94655704Y-84079913D01*
X94835894Y-83645966D01*
X94835895Y-83643905D01*
X95013696Y-83643905D01*
X95193128Y-84078165D01*
X95525087Y-84410704D01*
X95959034Y-84590894D01*
X96428905Y-84591304D01*
X96863165Y-84411872D01*
X97195704Y-84079913D01*
X97375894Y-83645966D01*
X97375895Y-83643905D01*
X97553696Y-83643905D01*
X97733128Y-84078165D01*
X98065087Y-84410704D01*
X98499034Y-84590894D01*
X98968905Y-84591304D01*
X99403165Y-84411872D01*
X99735704Y-84079913D01*
X99915894Y-83645966D01*
X99915895Y-83643905D01*
X100093696Y-83643905D01*
X100273128Y-84078165D01*
X100605087Y-84410704D01*
X101039034Y-84590894D01*
X101508905Y-84591304D01*
X101943165Y-84411872D01*
X102275704Y-84079913D01*
X102455894Y-83645966D01*
X102456304Y-83176095D01*
X102276872Y-82741835D01*
X101944913Y-82409296D01*
X101510966Y-82229106D01*
X101041095Y-82228696D01*
X100606835Y-82408128D01*
X100274296Y-82740087D01*
X100094106Y-83174034D01*
X100093696Y-83643905D01*
X99915895Y-83643905D01*
X99916304Y-83176095D01*
X99736872Y-82741835D01*
X99404913Y-82409296D01*
X98970966Y-82229106D01*
X98501095Y-82228696D01*
X98066835Y-82408128D01*
X97734296Y-82740087D01*
X97554106Y-83174034D01*
X97553696Y-83643905D01*
X97375895Y-83643905D01*
X97376304Y-83176095D01*
X97196872Y-82741835D01*
X96864913Y-82409296D01*
X96430966Y-82229106D01*
X95961095Y-82228696D01*
X95526835Y-82408128D01*
X95194296Y-82740087D01*
X95014106Y-83174034D01*
X95013696Y-83643905D01*
X94835895Y-83643905D01*
X94836304Y-83176095D01*
X94656872Y-82741835D01*
X94324913Y-82409296D01*
X93890966Y-82229106D01*
X93421095Y-82228696D01*
X92986835Y-82408128D01*
X92654296Y-82740087D01*
X92474106Y-83174034D01*
X92473696Y-83643905D01*
X92332022Y-83643905D01*
X92354935Y-83577073D01*
X92324487Y-83089852D01*
X92196615Y-82781142D01*
X92009010Y-82695595D01*
X91294605Y-83410000D01*
X90935395Y-83410000D01*
X90220990Y-82695595D01*
X90033385Y-82781142D01*
X89875065Y-83242927D01*
X89788964Y-83242927D01*
X89788964Y-82584500D01*
X89776073Y-82515990D01*
X90400595Y-82515990D01*
X91115000Y-83230395D01*
X91829405Y-82515990D01*
X91743858Y-82328385D01*
X91282073Y-82170065D01*
X90794852Y-82200513D01*
X90486142Y-82328385D01*
X90400595Y-82515990D01*
X89776073Y-82515990D01*
X89762397Y-82443310D01*
X89678954Y-82313635D01*
X89551634Y-82226641D01*
X89400500Y-82196036D01*
X87749500Y-82196036D01*
X87608310Y-82222603D01*
X87478635Y-82306046D01*
X87391641Y-82433366D01*
X87361036Y-82584500D01*
X85627000Y-82584500D01*
X85627000Y-81103905D01*
X87393696Y-81103905D01*
X87573128Y-81538165D01*
X87905087Y-81870704D01*
X88339034Y-82050894D01*
X88808905Y-82051304D01*
X89243165Y-81871872D01*
X89351215Y-81764010D01*
X90400595Y-81764010D01*
X90486142Y-81951615D01*
X90947927Y-82109935D01*
X91435148Y-82079487D01*
X91743858Y-81951615D01*
X91829405Y-81764010D01*
X91115000Y-81049605D01*
X90400595Y-81764010D01*
X89351215Y-81764010D01*
X89575704Y-81539913D01*
X89755894Y-81105966D01*
X89756245Y-80702927D01*
X89875065Y-80702927D01*
X89905513Y-81190148D01*
X90033385Y-81498858D01*
X90220990Y-81584405D01*
X90935395Y-80870000D01*
X91294605Y-80870000D01*
X92009010Y-81584405D01*
X92196615Y-81498858D01*
X92332022Y-81103905D01*
X92473696Y-81103905D01*
X92653128Y-81538165D01*
X92985087Y-81870704D01*
X93419034Y-82050894D01*
X93888905Y-82051304D01*
X94323165Y-81871872D01*
X94655704Y-81539913D01*
X94835894Y-81105966D01*
X94835895Y-81103905D01*
X95013696Y-81103905D01*
X95193128Y-81538165D01*
X95525087Y-81870704D01*
X95959034Y-82050894D01*
X96428905Y-82051304D01*
X96863165Y-81871872D01*
X97195704Y-81539913D01*
X97375894Y-81105966D01*
X97375895Y-81103905D01*
X97553696Y-81103905D01*
X97733128Y-81538165D01*
X98065087Y-81870704D01*
X98499034Y-82050894D01*
X98968905Y-82051304D01*
X99403165Y-81871872D01*
X99735704Y-81539913D01*
X99915894Y-81105966D01*
X99916304Y-80636095D01*
X99736872Y-80201835D01*
X99404913Y-79869296D01*
X98970966Y-79689106D01*
X98501095Y-79688696D01*
X98066835Y-79868128D01*
X97734296Y-80200087D01*
X97554106Y-80634034D01*
X97553696Y-81103905D01*
X97375895Y-81103905D01*
X97376304Y-80636095D01*
X97196872Y-80201835D01*
X96864913Y-79869296D01*
X96430966Y-79689106D01*
X95961095Y-79688696D01*
X95526835Y-79868128D01*
X95194296Y-80200087D01*
X95014106Y-80634034D01*
X95013696Y-81103905D01*
X94835895Y-81103905D01*
X94836304Y-80636095D01*
X94656872Y-80201835D01*
X94324913Y-79869296D01*
X93890966Y-79689106D01*
X93421095Y-79688696D01*
X92986835Y-79868128D01*
X92654296Y-80200087D01*
X92474106Y-80634034D01*
X92473696Y-81103905D01*
X92332022Y-81103905D01*
X92354935Y-81037073D01*
X92324487Y-80549852D01*
X92196615Y-80241142D01*
X92009010Y-80155595D01*
X91294605Y-80870000D01*
X90935395Y-80870000D01*
X90220990Y-80155595D01*
X90033385Y-80241142D01*
X89875065Y-80702927D01*
X89756245Y-80702927D01*
X89756304Y-80636095D01*
X89576872Y-80201835D01*
X89351421Y-79975990D01*
X90400595Y-79975990D01*
X91115000Y-80690395D01*
X91829405Y-79975990D01*
X91743858Y-79788385D01*
X91282073Y-79630065D01*
X90794852Y-79660513D01*
X90486142Y-79788385D01*
X90400595Y-79975990D01*
X89351421Y-79975990D01*
X89244913Y-79869296D01*
X88810966Y-79689106D01*
X88341095Y-79688696D01*
X87906835Y-79868128D01*
X87574296Y-80200087D01*
X87394106Y-80634034D01*
X87393696Y-81103905D01*
X85627000Y-81103905D01*
X85627000Y-80570390D01*
X88844296Y-78559580D01*
X90269111Y-77847220D01*
X93523030Y-76627000D01*
X106476970Y-76627000D01*
X109722718Y-77844155D01*
X109722718Y-77844155D01*
G37*
X109722718Y-77844155D02*
X111162163Y-78563616D01*
X111826776Y-78979000D01*
X102635000Y-78979000D01*
X102431795Y-79019420D01*
X102259526Y-79134526D01*
X102259524Y-79134529D01*
X101648032Y-79746021D01*
X101510966Y-79689106D01*
X101041095Y-79688696D01*
X100606835Y-79868128D01*
X100274296Y-80200087D01*
X100094106Y-80634034D01*
X100093696Y-81103905D01*
X100273128Y-81538165D01*
X100605087Y-81870704D01*
X101039034Y-82050894D01*
X101508905Y-82051304D01*
X101943165Y-81871872D01*
X102275704Y-81539913D01*
X102455894Y-81105966D01*
X102456304Y-80636095D01*
X102398865Y-80497082D01*
X102854947Y-80041000D01*
X103027589Y-80041000D01*
X102846577Y-80221697D01*
X102672199Y-80641646D01*
X102671802Y-81096359D01*
X102845446Y-81516612D01*
X103166697Y-81838423D01*
X103586646Y-82012801D01*
X104041359Y-82013198D01*
X104158747Y-81964695D01*
X104396001Y-82201949D01*
X104396001Y-82413631D01*
X104043354Y-82267199D01*
X103588641Y-82266802D01*
X103168388Y-82440446D01*
X102846577Y-82761697D01*
X102672199Y-83181646D01*
X102671802Y-83636359D01*
X102720305Y-83753747D01*
X101713016Y-84761036D01*
X101597910Y-84933305D01*
X101557490Y-85136510D01*
X101557490Y-86978358D01*
X101493609Y-86951832D01*
X101182908Y-86951560D01*
X100895754Y-87070210D01*
X100675863Y-87289717D01*
X100575306Y-87531887D01*
X96937517Y-91169676D01*
X96789895Y-91390608D01*
X96756564Y-91558177D01*
X96738057Y-91651216D01*
X96738057Y-92192220D01*
X96708257Y-92197827D01*
X96579747Y-92283053D01*
X95951129Y-92911671D01*
X95870079Y-93030293D01*
X95837388Y-93180990D01*
X95865903Y-93332533D01*
X95951129Y-93461043D01*
X96938957Y-94448871D01*
X97027866Y-94509619D01*
X96994733Y-94509619D01*
X96905506Y-94598846D01*
X96870616Y-94683078D01*
X96857216Y-94650729D01*
X96737100Y-94530612D01*
X96468530Y-94262043D01*
X96317562Y-94262043D01*
X95866605Y-94713000D01*
X95880748Y-94727142D01*
X95701142Y-94906748D01*
X95687000Y-94892605D01*
X95672858Y-94906748D01*
X95493253Y-94727143D01*
X95507395Y-94713000D01*
X95493252Y-94698858D01*
X95672858Y-94519252D01*
X95687000Y-94533395D01*
X96137957Y-94082438D01*
X96137957Y-93931470D01*
X95869388Y-93662900D01*
X95749271Y-93542784D01*
X95592330Y-93477777D01*
X95422459Y-93477777D01*
X95265518Y-93542784D01*
X95059767Y-93748536D01*
X95059767Y-91276181D01*
X95894075Y-90441874D01*
X96225347Y-90773146D01*
X96343969Y-90854196D01*
X96494666Y-90886887D01*
X96646209Y-90858372D01*
X96774719Y-90773146D01*
X99957322Y-87590543D01*
X100038372Y-87471921D01*
X100071063Y-87321224D01*
X100042548Y-87169681D01*
X99957322Y-87041171D01*
X98543829Y-85627678D01*
X98425207Y-85546628D01*
X98274510Y-85513937D01*
X98122967Y-85542452D01*
X97994457Y-85627678D01*
X96778630Y-86843506D01*
X95822612Y-85887488D01*
X95650343Y-85772382D01*
X95447138Y-85731962D01*
X94769028Y-85731962D01*
X94217119Y-85180053D01*
X94098497Y-85099003D01*
X93947800Y-85066312D01*
X93796257Y-85094827D01*
X93667747Y-85180053D01*
X93039129Y-85808671D01*
X92958079Y-85927293D01*
X92925388Y-86077990D01*
X92953903Y-86229533D01*
X93010859Y-86315416D01*
X92933177Y-86347514D01*
X92800744Y-86479716D01*
X92751459Y-86446041D01*
X92600762Y-86413350D01*
X92449219Y-86441865D01*
X92320709Y-86527091D01*
X91692091Y-87155709D01*
X91611041Y-87274331D01*
X91578350Y-87425028D01*
X91606865Y-87576571D01*
X91692091Y-87705081D01*
X91704465Y-87717455D01*
X91355974Y-88065946D01*
X91343600Y-88053572D01*
X91224978Y-87972522D01*
X91074281Y-87939831D01*
X90922738Y-87968346D01*
X90794228Y-88053572D01*
X90165610Y-88682190D01*
X90084560Y-88800812D01*
X90051869Y-88951509D01*
X90080384Y-89103052D01*
X90165610Y-89231562D01*
X91153438Y-90219390D01*
X91272060Y-90300440D01*
X91422757Y-90333131D01*
X91574300Y-90304616D01*
X91702810Y-90219390D01*
X92331428Y-89590772D01*
X92412478Y-89472150D01*
X92445169Y-89321453D01*
X92416654Y-89169910D01*
X92331428Y-89041400D01*
X92319054Y-89029026D01*
X92667545Y-88680535D01*
X92679919Y-88692909D01*
X92798541Y-88773959D01*
X92949238Y-88806650D01*
X93100781Y-88778135D01*
X93229291Y-88692909D01*
X93857909Y-88064291D01*
X93938959Y-87945669D01*
X93971650Y-87794972D01*
X93943135Y-87643429D01*
X93904416Y-87585046D01*
X94036714Y-87452979D01*
X94069203Y-87374736D01*
X94145579Y-87426921D01*
X94296276Y-87459612D01*
X94447819Y-87431097D01*
X94576329Y-87345871D01*
X95128238Y-86793962D01*
X95227190Y-86793962D01*
X96027682Y-87594454D01*
X94811854Y-88810281D01*
X94730804Y-88928903D01*
X94698113Y-89079600D01*
X94726628Y-89231143D01*
X94811854Y-89359653D01*
X95143127Y-89690926D01*
X94153293Y-90680759D01*
X94038187Y-90853028D01*
X93997767Y-91056233D01*
X93997767Y-93126202D01*
X93947734Y-93050759D01*
X92534241Y-91637266D01*
X92415619Y-91556216D01*
X92264922Y-91523525D01*
X92113379Y-91552040D01*
X91984869Y-91637266D01*
X91866031Y-91756104D01*
X91865580Y-91753834D01*
X91865580Y-91753833D01*
X91750474Y-91581564D01*
X91750471Y-91581562D01*
X91034045Y-90865136D01*
X91065440Y-90819188D01*
X91098131Y-90668491D01*
X91069616Y-90516948D01*
X90984390Y-90388438D01*
X89996562Y-89400610D01*
X89877940Y-89319560D01*
X89727243Y-89286869D01*
X89575700Y-89315384D01*
X89447190Y-89400610D01*
X88818572Y-90029228D01*
X88737522Y-90147850D01*
X88704831Y-90298547D01*
X88733346Y-90450090D01*
X88818572Y-90578600D01*
X89806400Y-91566428D01*
X89925022Y-91647478D01*
X90075719Y-91680169D01*
X90227262Y-91651654D01*
X90282221Y-91615206D01*
X90844000Y-92176985D01*
X90844000Y-92778135D01*
X88802266Y-94819869D01*
X88800970Y-94821766D01*
X88575466Y-94276005D01*
X88111437Y-93811166D01*
X87504845Y-93559287D01*
X86848037Y-93558714D01*
X86442306Y-93726358D01*
X85499957Y-92784009D01*
X85327688Y-92668903D01*
X85124483Y-92628483D01*
X83590157Y-92628483D01*
X83386952Y-92668903D01*
X83214683Y-92784009D01*
X82680887Y-93317805D01*
X82586259Y-93223013D01*
X82336054Y-93119118D01*
X82065135Y-93118882D01*
X81814748Y-93222339D01*
X81623013Y-93413741D01*
X81519118Y-93663946D01*
X81518882Y-93934865D01*
X81622339Y-94185252D01*
X81637960Y-94200901D01*
X81528795Y-94271146D01*
X81441801Y-94398466D01*
X81411196Y-94549600D01*
X81411196Y-97348680D01*
X81437763Y-97489870D01*
X81521206Y-97619545D01*
X81648526Y-97706539D01*
X81799660Y-97737144D01*
X82800420Y-97737144D01*
X82941610Y-97710577D01*
X83071285Y-97627134D01*
X83158279Y-97499814D01*
X83188884Y-97348680D01*
X83188884Y-94549600D01*
X83162317Y-94408410D01*
X83134855Y-94365733D01*
X83519057Y-93981531D01*
X83600937Y-94179697D01*
X83558390Y-94187703D01*
X83428715Y-94271146D01*
X83341721Y-94398466D01*
X83311116Y-94549600D01*
X83311116Y-97348680D01*
X83337683Y-97489870D01*
X83421126Y-97619545D01*
X83548446Y-97706539D01*
X83699580Y-97737144D01*
X84700340Y-97737144D01*
X84841530Y-97710577D01*
X84971205Y-97627134D01*
X85058199Y-97499814D01*
X85088804Y-97348680D01*
X85088804Y-96788552D01*
X86644000Y-98343747D01*
X86644000Y-99443020D01*
X86241005Y-99609534D01*
X85776166Y-100073563D01*
X85524287Y-100680155D01*
X85523714Y-101336963D01*
X85774534Y-101943995D01*
X86238563Y-102408834D01*
X86845155Y-102660713D01*
X87501963Y-102661286D01*
X88108995Y-102410466D01*
X88573834Y-101946437D01*
X88825713Y-101339845D01*
X88826286Y-100683037D01*
X88575466Y-100076005D01*
X88495965Y-99996365D01*
X92063240Y-99996365D01*
X92144097Y-100180018D01*
X92592043Y-100331959D01*
X93064037Y-100300913D01*
X93355903Y-100180018D01*
X93436760Y-99996365D01*
X92750000Y-99309605D01*
X92063240Y-99996365D01*
X88495965Y-99996365D01*
X88111437Y-99611166D01*
X87706000Y-99442814D01*
X87706000Y-98972043D01*
X91548041Y-98972043D01*
X91579087Y-99444037D01*
X91699982Y-99735903D01*
X91883635Y-99816760D01*
X92570395Y-99130000D01*
X92929605Y-99130000D01*
X93616365Y-99816760D01*
X93800018Y-99735903D01*
X93951959Y-99287957D01*
X93920913Y-98815963D01*
X93800018Y-98524097D01*
X93616365Y-98443240D01*
X92929605Y-99130000D01*
X92570395Y-99130000D01*
X91883635Y-98443240D01*
X91699982Y-98524097D01*
X91548041Y-98972043D01*
X87706000Y-98972043D01*
X87706000Y-98263635D01*
X92063240Y-98263635D01*
X92750000Y-98950395D01*
X93436760Y-98263635D01*
X93355903Y-98079982D01*
X92907957Y-97928041D01*
X92435963Y-97959087D01*
X92144097Y-98079982D01*
X92063240Y-98263635D01*
X87706000Y-98263635D01*
X87706000Y-98123805D01*
X87706001Y-98123800D01*
X87665580Y-97920595D01*
X87647760Y-97893926D01*
X87550474Y-97748326D01*
X87550471Y-97748324D01*
X86533415Y-96731267D01*
X86845155Y-96860713D01*
X87501963Y-96861286D01*
X88108995Y-96610466D01*
X88573834Y-96146437D01*
X88825713Y-95539845D01*
X88825841Y-95392816D01*
X90215759Y-96782734D01*
X90334381Y-96863784D01*
X90485078Y-96896475D01*
X90636621Y-96867960D01*
X90765131Y-96782734D01*
X91980959Y-95566907D01*
X92199526Y-95785474D01*
X92371795Y-95900580D01*
X92575000Y-95941000D01*
X93513884Y-95941000D01*
X94626072Y-97053188D01*
X94616330Y-97098097D01*
X94644845Y-97249640D01*
X94730071Y-97378150D01*
X95851921Y-98500000D01*
X94730071Y-99621850D01*
X94649021Y-99740472D01*
X94616330Y-99891169D01*
X94644845Y-100042712D01*
X94730071Y-100171222D01*
X95118980Y-100560131D01*
X95227857Y-100634523D01*
X95295757Y-100736907D01*
X95684666Y-101125816D01*
X95793540Y-101200206D01*
X95861442Y-101302593D01*
X96223622Y-101664773D01*
X93893188Y-103995207D01*
X93893198Y-103983641D01*
X93719554Y-103563388D01*
X93398303Y-103241577D01*
X92978354Y-103067199D01*
X92523641Y-103066802D01*
X92103388Y-103240446D01*
X91814331Y-103529000D01*
X90957913Y-103529000D01*
X90697305Y-103580838D01*
X90476373Y-103728460D01*
X88452255Y-105752578D01*
X88111437Y-105411166D01*
X87504845Y-105159287D01*
X86848037Y-105158714D01*
X86241005Y-105409534D01*
X85776166Y-105873563D01*
X85524287Y-106480155D01*
X85523714Y-107136963D01*
X85774534Y-107743995D01*
X86238563Y-108208834D01*
X86845155Y-108460713D01*
X86951000Y-108460805D01*
X86951000Y-108976250D01*
X87057750Y-109083000D01*
X87695500Y-109083000D01*
X87695500Y-109063000D01*
X87949500Y-109063000D01*
X87949500Y-109083000D01*
X88587250Y-109083000D01*
X88694000Y-108976250D01*
X88694000Y-108426564D01*
X88628993Y-108269624D01*
X88508876Y-108149507D01*
X88351935Y-108084500D01*
X88235181Y-108084500D01*
X88573834Y-107746437D01*
X88733260Y-107362496D01*
X88839453Y-107291540D01*
X91239993Y-104891000D01*
X91814774Y-104891000D01*
X92101697Y-105178423D01*
X92521646Y-105352801D01*
X92976359Y-105353198D01*
X93396612Y-105179554D01*
X93644000Y-104932596D01*
X93644000Y-105626266D01*
X93512000Y-105599536D01*
X91988000Y-105599536D01*
X91846810Y-105626103D01*
X91717135Y-105709546D01*
X91630141Y-105836866D01*
X91599536Y-105988000D01*
X91599536Y-107512000D01*
X91626103Y-107653190D01*
X91709546Y-107782865D01*
X91836866Y-107869859D01*
X91988000Y-107900464D01*
X93313995Y-107900464D01*
X93313995Y-109192398D01*
X93308272Y-109190022D01*
X93037353Y-109189786D01*
X92786966Y-109293243D01*
X92706068Y-109374000D01*
X92673975Y-109374000D01*
X92555634Y-109293141D01*
X92404500Y-109262536D01*
X91261500Y-109262536D01*
X91120310Y-109289103D01*
X90990635Y-109372546D01*
X90903641Y-109499866D01*
X90873036Y-109651000D01*
X90873036Y-109858588D01*
X90560464Y-109546016D01*
X90560464Y-108511500D01*
X90533897Y-108370310D01*
X90450454Y-108240635D01*
X90323134Y-108153641D01*
X90172000Y-108123036D01*
X89283000Y-108123036D01*
X89141810Y-108149603D01*
X89012135Y-108233046D01*
X88925141Y-108360366D01*
X88894536Y-108511500D01*
X88894536Y-109908500D01*
X88921103Y-110049690D01*
X89004546Y-110179365D01*
X89131866Y-110266359D01*
X89283000Y-110296964D01*
X89809516Y-110296964D01*
X89835588Y-110323036D01*
X89235500Y-110323036D01*
X89094310Y-110349603D01*
X88964635Y-110433046D01*
X88877641Y-110560366D01*
X88847036Y-110711500D01*
X88847036Y-112108500D01*
X88873603Y-112249690D01*
X88957046Y-112379365D01*
X89084366Y-112466359D01*
X89235500Y-112496964D01*
X90124500Y-112496964D01*
X90265690Y-112470397D01*
X90283827Y-112458726D01*
X90284420Y-112461705D01*
X90399526Y-112633974D01*
X90586026Y-112820474D01*
X90748447Y-112929000D01*
X90512964Y-112929000D01*
X90512964Y-112911500D01*
X90486397Y-112770310D01*
X90402954Y-112640635D01*
X90275634Y-112553641D01*
X90124500Y-112523036D01*
X89235500Y-112523036D01*
X89094310Y-112549603D01*
X88964635Y-112633046D01*
X88877641Y-112760366D01*
X88847036Y-112911500D01*
X88847036Y-114308500D01*
X88873603Y-114449690D01*
X88957046Y-114579365D01*
X89084366Y-114666359D01*
X89235500Y-114696964D01*
X90124500Y-114696964D01*
X90172097Y-114688008D01*
X90171966Y-114837765D01*
X90290616Y-115124919D01*
X90505633Y-115340312D01*
X90486142Y-115348385D01*
X90400595Y-115535990D01*
X91115000Y-116250395D01*
X91829405Y-115535990D01*
X91743858Y-115348385D01*
X91482038Y-115258622D01*
X91614816Y-115126075D01*
X91733966Y-114839128D01*
X91734238Y-114528427D01*
X91679520Y-114396000D01*
X91833000Y-114396000D01*
X92026733Y-114357464D01*
X92404500Y-114357464D01*
X92545690Y-114330897D01*
X92675365Y-114247454D01*
X92762359Y-114120134D01*
X92792964Y-113969000D01*
X92792964Y-113461000D01*
X92766397Y-113319810D01*
X92682954Y-113190135D01*
X92555634Y-113103141D01*
X92442712Y-113080274D01*
X92545690Y-113060897D01*
X92675365Y-112977454D01*
X92762359Y-112850134D01*
X92792964Y-112699000D01*
X92792964Y-112191000D01*
X92766397Y-112049810D01*
X92682954Y-111920135D01*
X92636958Y-111888707D01*
X92743999Y-111909999D01*
X92762828Y-111909999D01*
X92808735Y-111955986D01*
X93058940Y-112059881D01*
X93313995Y-112060103D01*
X93313995Y-113846951D01*
X93354415Y-114050156D01*
X93469521Y-114222425D01*
X94274101Y-115027005D01*
X94274101Y-115408197D01*
X93890966Y-115249106D01*
X93421095Y-115248696D01*
X92986835Y-115428128D01*
X92654296Y-115760087D01*
X92474106Y-116194034D01*
X92473696Y-116663905D01*
X92653128Y-117098165D01*
X92985087Y-117430704D01*
X93419034Y-117610894D01*
X93888905Y-117611304D01*
X94323165Y-117431872D01*
X94514610Y-117240760D01*
X95229425Y-117955575D01*
X95401694Y-118070681D01*
X95420380Y-118074398D01*
X95194296Y-118300087D01*
X95014106Y-118734034D01*
X95013696Y-119203905D01*
X95193128Y-119638165D01*
X95525087Y-119970704D01*
X95959034Y-120150894D01*
X96428905Y-120151304D01*
X96863165Y-119971872D01*
X97195704Y-119639913D01*
X97375894Y-119205966D01*
X97376304Y-118736095D01*
X97196872Y-118301835D01*
X97006471Y-118111101D01*
X97125153Y-118111101D01*
X97611020Y-118596968D01*
X97554106Y-118734034D01*
X97553696Y-119203905D01*
X97733128Y-119638165D01*
X98065087Y-119970704D01*
X98499034Y-120150894D01*
X98968905Y-120151304D01*
X99403165Y-119971872D01*
X99735704Y-119639913D01*
X99915894Y-119205966D01*
X99916304Y-118736095D01*
X99736872Y-118301835D01*
X99404913Y-117969296D01*
X98970966Y-117789106D01*
X98501095Y-117788696D01*
X98362083Y-117846135D01*
X97720575Y-117204627D01*
X97548306Y-117089521D01*
X97345101Y-117049101D01*
X97216803Y-117049101D01*
X97375894Y-116665966D01*
X97376304Y-116196095D01*
X97208514Y-115790012D01*
X97344064Y-115790012D01*
X97611020Y-116056968D01*
X97554106Y-116194034D01*
X97553696Y-116663905D01*
X97733128Y-117098165D01*
X98065087Y-117430704D01*
X98499034Y-117610894D01*
X98968905Y-117611304D01*
X99403165Y-117431872D01*
X99593899Y-117241471D01*
X99593899Y-117819899D01*
X99634319Y-118023104D01*
X99749425Y-118195373D01*
X100151021Y-118596968D01*
X100094106Y-118734034D01*
X100093696Y-119203905D01*
X100273128Y-119638165D01*
X100605087Y-119970704D01*
X101039034Y-120150894D01*
X101508905Y-120151304D01*
X101943165Y-119971872D01*
X102275704Y-119639913D01*
X102455894Y-119205966D01*
X102456304Y-118736095D01*
X102276872Y-118301835D01*
X101944913Y-117969296D01*
X101510966Y-117789106D01*
X101041095Y-117788696D01*
X100902082Y-117846135D01*
X100655899Y-117599951D01*
X100655899Y-117451803D01*
X101039034Y-117610894D01*
X101508905Y-117611304D01*
X101943165Y-117431872D01*
X102171999Y-117203437D01*
X102171999Y-117857999D01*
X102212419Y-118061204D01*
X102327525Y-118233473D01*
X102720170Y-118626118D01*
X102672199Y-118741646D01*
X102671802Y-119196359D01*
X102845446Y-119616612D01*
X103166697Y-119938423D01*
X103586646Y-120112801D01*
X104041359Y-120113198D01*
X104461612Y-119939554D01*
X104783423Y-119618303D01*
X104957801Y-119198354D01*
X104958198Y-118743641D01*
X104784554Y-118323388D01*
X104463303Y-118001577D01*
X104043354Y-117827199D01*
X103588641Y-117826802D01*
X103471253Y-117875305D01*
X103233999Y-117638051D01*
X103233999Y-117426369D01*
X103586646Y-117572801D01*
X104041359Y-117573198D01*
X104160657Y-117523905D01*
X108528696Y-117523905D01*
X108708128Y-117958165D01*
X109040087Y-118290704D01*
X109474034Y-118470894D01*
X109943905Y-118471304D01*
X110378165Y-118291872D01*
X110710704Y-117959913D01*
X110890894Y-117525966D01*
X110890895Y-117523905D01*
X111068696Y-117523905D01*
X111248128Y-117958165D01*
X111580087Y-118290704D01*
X112014034Y-118470894D01*
X112483905Y-118471304D01*
X112918165Y-118291872D01*
X113250704Y-117959913D01*
X113430894Y-117525966D01*
X113431304Y-117056095D01*
X113251872Y-116621835D01*
X112919913Y-116289296D01*
X112485966Y-116109106D01*
X112016095Y-116108696D01*
X111581835Y-116288128D01*
X111249296Y-116620087D01*
X111069106Y-117054034D01*
X111068696Y-117523905D01*
X110890895Y-117523905D01*
X110891304Y-117056095D01*
X110711872Y-116621835D01*
X110379913Y-116289296D01*
X109945966Y-116109106D01*
X109476095Y-116108696D01*
X109041835Y-116288128D01*
X108709296Y-116620087D01*
X108529106Y-117054034D01*
X108528696Y-117523905D01*
X104160657Y-117523905D01*
X104461612Y-117399554D01*
X104783423Y-117078303D01*
X104957801Y-116658354D01*
X104958198Y-116203641D01*
X104784554Y-115783388D01*
X104463303Y-115461577D01*
X104346000Y-115412869D01*
X104346000Y-115245000D01*
X104305580Y-115041795D01*
X104190474Y-114869526D01*
X101781000Y-112460052D01*
X101781000Y-108795464D01*
X101844000Y-108795464D01*
X101844000Y-108807624D01*
X101884420Y-109010829D01*
X101999526Y-109183098D01*
X102373035Y-109556607D01*
X102189748Y-109632339D01*
X101998013Y-109823741D01*
X101894118Y-110073946D01*
X101893882Y-110344865D01*
X101997339Y-110595252D01*
X102188741Y-110786987D01*
X102438946Y-110890882D01*
X102709865Y-110891118D01*
X102960252Y-110787661D01*
X102992732Y-110755237D01*
X103107275Y-110778022D01*
X103107280Y-110778021D01*
X105031547Y-110778022D01*
X108599069Y-114345544D01*
X108529106Y-114514034D01*
X108528696Y-114983905D01*
X108708128Y-115418165D01*
X109040087Y-115750704D01*
X109474034Y-115930894D01*
X109943905Y-115931304D01*
X110378165Y-115751872D01*
X110710704Y-115419913D01*
X110890894Y-114985966D01*
X110891304Y-114516095D01*
X110711872Y-114081835D01*
X110379913Y-113749296D01*
X109945966Y-113569106D01*
X109476095Y-113568696D01*
X109368553Y-113613132D01*
X108927515Y-113172094D01*
X108995596Y-113104012D01*
X109081142Y-113291615D01*
X109542927Y-113449935D01*
X110030148Y-113419487D01*
X110338858Y-113291615D01*
X110424405Y-113104010D01*
X109710000Y-112389605D01*
X109695858Y-112403748D01*
X109516253Y-112224143D01*
X109530395Y-112210000D01*
X109889605Y-112210000D01*
X110604010Y-112924405D01*
X110791615Y-112838858D01*
X110949935Y-112377073D01*
X110919487Y-111889852D01*
X110791615Y-111581142D01*
X110604010Y-111495595D01*
X109889605Y-112210000D01*
X109530395Y-112210000D01*
X108815990Y-111495595D01*
X108628385Y-111581142D01*
X108470065Y-112042927D01*
X108500513Y-112530148D01*
X108628385Y-112838858D01*
X108815988Y-112924404D01*
X108747907Y-112992486D01*
X107071411Y-111315990D01*
X108995595Y-111315990D01*
X109710000Y-112030395D01*
X110424405Y-111315990D01*
X110338858Y-111128385D01*
X109877073Y-110970065D01*
X109389852Y-111000513D01*
X109081142Y-111128385D01*
X108995595Y-111315990D01*
X107071411Y-111315990D01*
X106033433Y-110278012D01*
X107933554Y-110278012D01*
X108011776Y-110330278D01*
X108214981Y-110370699D01*
X108214986Y-110370698D01*
X110785250Y-110370698D01*
X111412791Y-110998239D01*
X111283310Y-111022603D01*
X111153635Y-111106046D01*
X111066641Y-111233366D01*
X111036036Y-111384500D01*
X111036036Y-113035500D01*
X111062603Y-113176690D01*
X111146046Y-113306365D01*
X111273366Y-113393359D01*
X111424500Y-113423964D01*
X112825088Y-113423964D01*
X112623032Y-113626020D01*
X112485966Y-113569106D01*
X112016095Y-113568696D01*
X111581835Y-113748128D01*
X111249296Y-114080087D01*
X111069106Y-114514034D01*
X111068696Y-114983905D01*
X111248128Y-115418165D01*
X111580087Y-115750704D01*
X112014034Y-115930894D01*
X112483905Y-115931304D01*
X112918165Y-115751872D01*
X113250704Y-115419913D01*
X113430894Y-114985966D01*
X113431304Y-114516095D01*
X113373865Y-114377083D01*
X114065975Y-113684973D01*
X114181081Y-113512704D01*
X114221501Y-113309499D01*
X114221501Y-111084499D01*
X114181081Y-110881294D01*
X114065975Y-110709025D01*
X114065972Y-110709023D01*
X112321164Y-108964214D01*
X112148895Y-108849108D01*
X111945690Y-108808688D01*
X109099157Y-108808688D01*
X109336823Y-108710486D01*
X109556714Y-108490979D01*
X109675864Y-108204032D01*
X109676136Y-107893331D01*
X109557486Y-107606177D01*
X109337979Y-107386286D01*
X109051032Y-107267136D01*
X108740331Y-107266864D01*
X108651665Y-107303500D01*
X107862067Y-107303500D01*
X107839954Y-107269135D01*
X107712634Y-107182141D01*
X107561500Y-107151536D01*
X106164500Y-107151536D01*
X106023310Y-107178103D01*
X105893635Y-107261546D01*
X105806641Y-107388866D01*
X105776036Y-107540000D01*
X105776036Y-108429000D01*
X105802603Y-108570190D01*
X105886046Y-108699865D01*
X105909662Y-108716001D01*
X105592368Y-108716001D01*
X105637493Y-108670876D01*
X105702500Y-108513935D01*
X105702500Y-108218250D01*
X105595750Y-108111500D01*
X104704000Y-108111500D01*
X104704000Y-108131500D01*
X104450000Y-108131500D01*
X104450000Y-108111500D01*
X103558250Y-108111500D01*
X103451500Y-108218250D01*
X103451500Y-108291606D01*
X103406011Y-108246117D01*
X103406011Y-106510011D01*
X103365591Y-106306806D01*
X103250485Y-106134537D01*
X103025948Y-105910000D01*
X103350474Y-105585474D01*
X103465580Y-105413205D01*
X103506000Y-105210000D01*
X103506000Y-104808788D01*
X103943748Y-105246536D01*
X103878500Y-105246536D01*
X103737310Y-105273103D01*
X103607635Y-105356546D01*
X103520641Y-105483866D01*
X103490036Y-105635000D01*
X103490036Y-106524000D01*
X103516603Y-106665190D01*
X103600046Y-106794865D01*
X103727366Y-106881859D01*
X103778337Y-106892181D01*
X103778160Y-107094655D01*
X103786883Y-107115767D01*
X103636624Y-107178007D01*
X103516507Y-107298124D01*
X103451500Y-107455065D01*
X103451500Y-107750750D01*
X103558250Y-107857500D01*
X104450000Y-107857500D01*
X104450000Y-107837500D01*
X104704000Y-107837500D01*
X104704000Y-107857500D01*
X105595750Y-107857500D01*
X105702500Y-107750750D01*
X105702500Y-107455065D01*
X105637493Y-107298124D01*
X105517376Y-107178007D01*
X105360436Y-107113000D01*
X105333109Y-107113000D01*
X105340160Y-107096018D01*
X105340331Y-106900265D01*
X105416690Y-106885897D01*
X105546365Y-106802454D01*
X105633359Y-106675134D01*
X105663964Y-106524000D01*
X105663964Y-105635000D01*
X105637397Y-105493810D01*
X105554865Y-105365550D01*
X105742361Y-105288078D01*
X105962252Y-105068571D01*
X106001659Y-104973669D01*
X106036517Y-105008527D01*
X106036355Y-105193222D01*
X106066039Y-105265063D01*
X106023310Y-105273103D01*
X105893635Y-105356546D01*
X105806641Y-105483866D01*
X105776036Y-105635000D01*
X105776036Y-106524000D01*
X105802603Y-106665190D01*
X105886046Y-106794865D01*
X106013366Y-106881859D01*
X106164500Y-106912464D01*
X107561500Y-106912464D01*
X107702690Y-106885897D01*
X107832365Y-106802454D01*
X107919359Y-106675134D01*
X107949964Y-106524000D01*
X107949964Y-105635000D01*
X107923397Y-105493810D01*
X107877204Y-105422022D01*
X108368631Y-105422022D01*
X108692373Y-106205538D01*
X109291309Y-106805521D01*
X110074258Y-107130630D01*
X110922022Y-107131369D01*
X111705538Y-106807627D01*
X112305521Y-106208691D01*
X112630630Y-105425742D01*
X112631369Y-104577978D01*
X112307627Y-103794462D01*
X111708691Y-103194479D01*
X110925742Y-102869370D01*
X110077978Y-102868631D01*
X109294462Y-103192373D01*
X108694479Y-103791309D01*
X108369370Y-104574258D01*
X108368631Y-105422022D01*
X107877204Y-105422022D01*
X107839954Y-105364135D01*
X107712634Y-105277141D01*
X107575598Y-105249391D01*
X107598355Y-105194585D01*
X107598627Y-104883884D01*
X107479977Y-104596730D01*
X107260470Y-104376839D01*
X106973523Y-104257689D01*
X106787412Y-104257526D01*
X104735519Y-102205633D01*
X105072873Y-101868278D01*
X105080450Y-101857189D01*
X105469003Y-102245742D01*
X105468864Y-102404669D01*
X105587514Y-102691823D01*
X105807021Y-102911714D01*
X106093968Y-103030864D01*
X106404669Y-103031136D01*
X106691823Y-102912486D01*
X106911714Y-102692979D01*
X107030864Y-102406032D01*
X107031136Y-102095331D01*
X106912486Y-101808177D01*
X106692979Y-101588286D01*
X106406032Y-101469136D01*
X106194107Y-101468950D01*
X105833154Y-101107997D01*
X106204243Y-100736907D01*
X106278633Y-100628033D01*
X106381020Y-100560131D01*
X106769929Y-100171222D01*
X106850979Y-100052600D01*
X106883670Y-99901903D01*
X106855155Y-99750360D01*
X106769929Y-99621850D01*
X105648079Y-98500000D01*
X106769929Y-97378150D01*
X106850979Y-97259528D01*
X106883670Y-97108831D01*
X106872746Y-97050777D01*
X108174007Y-95749516D01*
X108174010Y-95749514D01*
X108289116Y-95577245D01*
X108293238Y-95556523D01*
X108303056Y-95507166D01*
X108375523Y-95434825D01*
X108479418Y-95184620D01*
X108479654Y-94913701D01*
X108376197Y-94663314D01*
X108184795Y-94471579D01*
X107934590Y-94367684D01*
X107719783Y-94367497D01*
X107733997Y-94357999D01*
X107851227Y-94358101D01*
X108101614Y-94254644D01*
X108293349Y-94063242D01*
X108397244Y-93813037D01*
X108397480Y-93542118D01*
X108294023Y-93291731D01*
X108102621Y-93099996D01*
X108071237Y-93086964D01*
X108444500Y-93086964D01*
X108585690Y-93060397D01*
X108715365Y-92976954D01*
X108802359Y-92849634D01*
X108816255Y-92781015D01*
X108954669Y-92781136D01*
X109241823Y-92662486D01*
X109461714Y-92442979D01*
X109580864Y-92156032D01*
X109581136Y-91845331D01*
X109462486Y-91558177D01*
X109242979Y-91338286D01*
X108956032Y-91219136D01*
X108817443Y-91219015D01*
X108806397Y-91160310D01*
X108722954Y-91030635D01*
X108595634Y-90943641D01*
X108444500Y-90913036D01*
X107555500Y-90913036D01*
X107414310Y-90939603D01*
X107284635Y-91023046D01*
X107197641Y-91150366D01*
X107167036Y-91301500D01*
X107167036Y-92404805D01*
X106935141Y-92404603D01*
X106927964Y-92407568D01*
X106927964Y-91301500D01*
X106901397Y-91160310D01*
X106817954Y-91030635D01*
X106690634Y-90943641D01*
X106539500Y-90913036D01*
X106531000Y-90913036D01*
X106531000Y-90831777D01*
X106598390Y-90819097D01*
X106728065Y-90735654D01*
X106815059Y-90608334D01*
X106845664Y-90457200D01*
X106845664Y-90233750D01*
X107467840Y-90233750D01*
X107467840Y-90542136D01*
X107532847Y-90699076D01*
X107652964Y-90819193D01*
X107809905Y-90884200D01*
X108118290Y-90884200D01*
X108225040Y-90777450D01*
X108225040Y-90127000D01*
X108479040Y-90127000D01*
X108479040Y-90777450D01*
X108585790Y-90884200D01*
X108894175Y-90884200D01*
X109051116Y-90819193D01*
X109171233Y-90699076D01*
X109236240Y-90542136D01*
X109236240Y-90233750D01*
X109129490Y-90127000D01*
X108479040Y-90127000D01*
X108225040Y-90127000D01*
X107574590Y-90127000D01*
X107467840Y-90233750D01*
X106845664Y-90233750D01*
X106845664Y-89923291D01*
X106863946Y-89930882D01*
X107134865Y-89931118D01*
X107385252Y-89827661D01*
X107467840Y-89745216D01*
X107467840Y-89766250D01*
X107574590Y-89873000D01*
X108225040Y-89873000D01*
X108225040Y-89853000D01*
X108479040Y-89853000D01*
X108479040Y-89873000D01*
X109129490Y-89873000D01*
X109236240Y-89766250D01*
X109236240Y-89457864D01*
X109171233Y-89300924D01*
X109051116Y-89180807D01*
X108894175Y-89115800D01*
X108585790Y-89115800D01*
X108479042Y-89222548D01*
X108479042Y-89115800D01*
X108457853Y-89115800D01*
X108591376Y-89060493D01*
X108711493Y-88940376D01*
X108776500Y-88783436D01*
X108776500Y-88233750D01*
X108669750Y-88127000D01*
X108032000Y-88127000D01*
X108032000Y-88147000D01*
X107778000Y-88147000D01*
X107778000Y-88127000D01*
X107140250Y-88127000D01*
X107033500Y-88233750D01*
X107033500Y-88569029D01*
X106865135Y-88568882D01*
X106832964Y-88582175D01*
X106832964Y-87917984D01*
X107033500Y-87717448D01*
X107033500Y-87766250D01*
X107140250Y-87873000D01*
X107778000Y-87873000D01*
X107778000Y-87853000D01*
X108032000Y-87853000D01*
X108032000Y-87873000D01*
X108669750Y-87873000D01*
X108776500Y-87766250D01*
X108776500Y-87216564D01*
X108711493Y-87059624D01*
X108592869Y-86941000D01*
X110080762Y-86941000D01*
X110283967Y-86900580D01*
X110456236Y-86785474D01*
X110456237Y-86785473D01*
X113350471Y-83891238D01*
X113350474Y-83891236D01*
X113465580Y-83718967D01*
X113480511Y-83643905D01*
X113499513Y-83548381D01*
X114373000Y-83548381D01*
X114373000Y-86029233D01*
X112809000Y-86029233D01*
X112809000Y-96010190D01*
X111539000Y-96010190D01*
X111539000Y-101646000D01*
X114373000Y-101646000D01*
X114373000Y-119830628D01*
X108228606Y-122903636D01*
X106976970Y-123373000D01*
X93026951Y-123373000D01*
X90163531Y-122100369D01*
X88026199Y-121031498D01*
X85627000Y-119432032D01*
X85627000Y-118144500D01*
X87361036Y-118144500D01*
X87361036Y-119795500D01*
X87387603Y-119936690D01*
X87471046Y-120066365D01*
X87598366Y-120153359D01*
X87749500Y-120183964D01*
X89400500Y-120183964D01*
X89541690Y-120157397D01*
X89671365Y-120073954D01*
X89758359Y-119946634D01*
X89775090Y-119864010D01*
X90400595Y-119864010D01*
X90486142Y-120051615D01*
X90947927Y-120209935D01*
X91435148Y-120179487D01*
X91743858Y-120051615D01*
X91829405Y-119864010D01*
X91115000Y-119149605D01*
X90400595Y-119864010D01*
X89775090Y-119864010D01*
X89788964Y-119795500D01*
X89788964Y-118802927D01*
X89875065Y-118802927D01*
X89905513Y-119290148D01*
X90033385Y-119598858D01*
X90220990Y-119684405D01*
X90935395Y-118970000D01*
X91294605Y-118970000D01*
X92009010Y-119684405D01*
X92196615Y-119598858D01*
X92332022Y-119203905D01*
X92473696Y-119203905D01*
X92653128Y-119638165D01*
X92985087Y-119970704D01*
X93419034Y-120150894D01*
X93888905Y-120151304D01*
X94323165Y-119971872D01*
X94655704Y-119639913D01*
X94835894Y-119205966D01*
X94836304Y-118736095D01*
X94656872Y-118301835D01*
X94324913Y-117969296D01*
X93890966Y-117789106D01*
X93421095Y-117788696D01*
X92986835Y-117968128D01*
X92654296Y-118300087D01*
X92474106Y-118734034D01*
X92473696Y-119203905D01*
X92332022Y-119203905D01*
X92354935Y-119137073D01*
X92324487Y-118649852D01*
X92196615Y-118341142D01*
X92009010Y-118255595D01*
X91294605Y-118970000D01*
X90935395Y-118970000D01*
X90220990Y-118255595D01*
X90033385Y-118341142D01*
X89875065Y-118802927D01*
X89788964Y-118802927D01*
X89788964Y-118144500D01*
X89776073Y-118075990D01*
X90400595Y-118075990D01*
X91115000Y-118790395D01*
X91829405Y-118075990D01*
X91743858Y-117888385D01*
X91282073Y-117730065D01*
X90794852Y-117760513D01*
X90486142Y-117888385D01*
X90400595Y-118075990D01*
X89776073Y-118075990D01*
X89762397Y-118003310D01*
X89678954Y-117873635D01*
X89551634Y-117786641D01*
X89400500Y-117756036D01*
X89256000Y-117756036D01*
X89256000Y-117419059D01*
X89351215Y-117324010D01*
X90400595Y-117324010D01*
X90486142Y-117511615D01*
X90947927Y-117669935D01*
X91435148Y-117639487D01*
X91743858Y-117511615D01*
X91829405Y-117324010D01*
X91115000Y-116609605D01*
X90400595Y-117324010D01*
X89351215Y-117324010D01*
X89575704Y-117099913D01*
X89755894Y-116665966D01*
X89756245Y-116262927D01*
X89875065Y-116262927D01*
X89905513Y-116750148D01*
X90033385Y-117058858D01*
X90220990Y-117144405D01*
X90935395Y-116430000D01*
X91294605Y-116430000D01*
X92009010Y-117144405D01*
X92196615Y-117058858D01*
X92354935Y-116597073D01*
X92324487Y-116109852D01*
X92196615Y-115801142D01*
X92009010Y-115715595D01*
X91294605Y-116430000D01*
X90935395Y-116430000D01*
X90220990Y-115715595D01*
X90033385Y-115801142D01*
X89875065Y-116262927D01*
X89756245Y-116262927D01*
X89756304Y-116196095D01*
X89576872Y-115761835D01*
X89244913Y-115429296D01*
X88810966Y-115249106D01*
X88341095Y-115248696D01*
X87906835Y-115428128D01*
X87574296Y-115760087D01*
X87394106Y-116194034D01*
X87393696Y-116663905D01*
X87573128Y-117098165D01*
X87894000Y-117419598D01*
X87894000Y-117756036D01*
X87749500Y-117756036D01*
X87608310Y-117782603D01*
X87478635Y-117866046D01*
X87391641Y-117993366D01*
X87361036Y-118144500D01*
X85627000Y-118144500D01*
X85627000Y-113843750D01*
X86903500Y-113843750D01*
X86903500Y-114393436D01*
X86968507Y-114550376D01*
X87088624Y-114670493D01*
X87245565Y-114735500D01*
X87541250Y-114735500D01*
X87648000Y-114628750D01*
X87648000Y-113737000D01*
X87902000Y-113737000D01*
X87902000Y-114628750D01*
X88008750Y-114735500D01*
X88304435Y-114735500D01*
X88461376Y-114670493D01*
X88581493Y-114550376D01*
X88646500Y-114393436D01*
X88646500Y-113843750D01*
X88539750Y-113737000D01*
X87902000Y-113737000D01*
X87648000Y-113737000D01*
X87010250Y-113737000D01*
X86903500Y-113843750D01*
X85627000Y-113843750D01*
X85627000Y-111643750D01*
X86903500Y-111643750D01*
X86903500Y-112193436D01*
X86968507Y-112350376D01*
X87088624Y-112470493D01*
X87184002Y-112510000D01*
X87088624Y-112549507D01*
X86968507Y-112669624D01*
X86903500Y-112826564D01*
X86903500Y-113376250D01*
X87010250Y-113483000D01*
X87648000Y-113483000D01*
X87648000Y-112591250D01*
X87566750Y-112510000D01*
X87648000Y-112428750D01*
X87648000Y-111537000D01*
X87902000Y-111537000D01*
X87902000Y-112428750D01*
X87983250Y-112510000D01*
X87902000Y-112591250D01*
X87902000Y-113483000D01*
X88539750Y-113483000D01*
X88646500Y-113376250D01*
X88646500Y-112826564D01*
X88581493Y-112669624D01*
X88461376Y-112549507D01*
X88365998Y-112510000D01*
X88461376Y-112470493D01*
X88581493Y-112350376D01*
X88646500Y-112193436D01*
X88646500Y-111643750D01*
X88539750Y-111537000D01*
X87902000Y-111537000D01*
X87648000Y-111537000D01*
X87010250Y-111537000D01*
X86903500Y-111643750D01*
X85627000Y-111643750D01*
X85627000Y-110626564D01*
X86903500Y-110626564D01*
X86903500Y-111176250D01*
X87010250Y-111283000D01*
X87648000Y-111283000D01*
X87648000Y-110391250D01*
X87902000Y-110391250D01*
X87902000Y-111283000D01*
X88539750Y-111283000D01*
X88646500Y-111176250D01*
X88646500Y-110626564D01*
X88581493Y-110469624D01*
X88461376Y-110349507D01*
X88389748Y-110319838D01*
X88508876Y-110270493D01*
X88628993Y-110150376D01*
X88694000Y-109993436D01*
X88694000Y-109443750D01*
X88587250Y-109337000D01*
X87949500Y-109337000D01*
X87949500Y-110228750D01*
X88007000Y-110286250D01*
X87902000Y-110391250D01*
X87648000Y-110391250D01*
X87590500Y-110333750D01*
X87695500Y-110228750D01*
X87695500Y-109337000D01*
X87057750Y-109337000D01*
X86951000Y-109443750D01*
X86951000Y-109993436D01*
X87016007Y-110150376D01*
X87136124Y-110270493D01*
X87207752Y-110300162D01*
X87088624Y-110349507D01*
X86968507Y-110469624D01*
X86903500Y-110626564D01*
X85627000Y-110626564D01*
X85627000Y-109500000D01*
X85616994Y-109450590D01*
X85589803Y-109410197D01*
X85089803Y-108910197D01*
X85047789Y-108882334D01*
X85000000Y-108873000D01*
X81052606Y-108873000D01*
X80627000Y-108447394D01*
X80627000Y-98151320D01*
X81411196Y-98151320D01*
X81411196Y-100950400D01*
X81437763Y-101091590D01*
X81521206Y-101221265D01*
X81648526Y-101308259D01*
X81799660Y-101338864D01*
X82800420Y-101338864D01*
X82941610Y-101312297D01*
X83071285Y-101228854D01*
X83110077Y-101172080D01*
X83141726Y-101221265D01*
X83269046Y-101308259D01*
X83338620Y-101322348D01*
X83338620Y-102476620D01*
X83390458Y-102737228D01*
X83538080Y-102958160D01*
X84537460Y-103957540D01*
X84758392Y-104105162D01*
X85019000Y-104157001D01*
X85019005Y-104157000D01*
X88829000Y-104157000D01*
X89089608Y-104105162D01*
X89310540Y-103957540D01*
X90917080Y-102351000D01*
X91814774Y-102351000D01*
X92101697Y-102638423D01*
X92521646Y-102812801D01*
X92976359Y-102813198D01*
X93396612Y-102639554D01*
X93718423Y-102318303D01*
X93892801Y-101898354D01*
X93893198Y-101443641D01*
X93719554Y-101023388D01*
X93398303Y-100701577D01*
X92978354Y-100527199D01*
X92523641Y-100526802D01*
X92103388Y-100700446D01*
X91814331Y-100989000D01*
X90635005Y-100989000D01*
X90635000Y-100988999D01*
X90374392Y-101040838D01*
X90153460Y-101188460D01*
X88546920Y-102795000D01*
X85301080Y-102795000D01*
X84700620Y-102194540D01*
X84700620Y-101323517D01*
X84760250Y-101312297D01*
X84889925Y-101228854D01*
X84976919Y-101101534D01*
X85007524Y-100950400D01*
X85007524Y-98151320D01*
X84980957Y-98010130D01*
X84897514Y-97880455D01*
X84770194Y-97793461D01*
X84619060Y-97762856D01*
X83420180Y-97762856D01*
X83278990Y-97789423D01*
X83149315Y-97872866D01*
X83110523Y-97929640D01*
X83078874Y-97880455D01*
X82951554Y-97793461D01*
X82800420Y-97762856D01*
X81799660Y-97762856D01*
X81658470Y-97789423D01*
X81528795Y-97872866D01*
X81441801Y-98000186D01*
X81411196Y-98151320D01*
X80627000Y-98151320D01*
X80627000Y-89736963D01*
X85523714Y-89736963D01*
X85774534Y-90343995D01*
X86238563Y-90808834D01*
X86845155Y-91060713D01*
X87501963Y-91061286D01*
X88108995Y-90810466D01*
X88573834Y-90346437D01*
X88825713Y-89739845D01*
X88826286Y-89083037D01*
X88575466Y-88476005D01*
X88111437Y-88011166D01*
X87504845Y-87759287D01*
X86848037Y-87758714D01*
X86241005Y-88009534D01*
X85776166Y-88473563D01*
X85524287Y-89080155D01*
X85523714Y-89736963D01*
X80627000Y-89736963D01*
X80627000Y-87052606D01*
X81052606Y-86627000D01*
X85000000Y-86627000D01*
X85049410Y-86616994D01*
X85089803Y-86589803D01*
X85589803Y-86089803D01*
X85617666Y-86047789D01*
X85627000Y-86000000D01*
X85627000Y-82584500D01*
X87361036Y-82584500D01*
X87361036Y-84235500D01*
X87387603Y-84376690D01*
X87471046Y-84506365D01*
X87598366Y-84593359D01*
X87749500Y-84623964D01*
X89400500Y-84623964D01*
X89541690Y-84597397D01*
X89671365Y-84513954D01*
X89758359Y-84386634D01*
X89775090Y-84304010D01*
X90400595Y-84304010D01*
X90486142Y-84491615D01*
X90947927Y-84649935D01*
X91435148Y-84619487D01*
X91743858Y-84491615D01*
X91829405Y-84304010D01*
X91115000Y-83589605D01*
X90400595Y-84304010D01*
X89775090Y-84304010D01*
X89788964Y-84235500D01*
X89788964Y-83242927D01*
X89875065Y-83242927D01*
X89905513Y-83730148D01*
X90033385Y-84038858D01*
X90220990Y-84124405D01*
X90935395Y-83410000D01*
X91294605Y-83410000D01*
X92009010Y-84124405D01*
X92196615Y-84038858D01*
X92332022Y-83643905D01*
X92473696Y-83643905D01*
X92653128Y-84078165D01*
X92985087Y-84410704D01*
X93419034Y-84590894D01*
X93888905Y-84591304D01*
X94323165Y-84411872D01*
X94655704Y-84079913D01*
X94835894Y-83645966D01*
X94835895Y-83643905D01*
X95013696Y-83643905D01*
X95193128Y-84078165D01*
X95525087Y-84410704D01*
X95959034Y-84590894D01*
X96428905Y-84591304D01*
X96863165Y-84411872D01*
X97195704Y-84079913D01*
X97375894Y-83645966D01*
X97375895Y-83643905D01*
X97553696Y-83643905D01*
X97733128Y-84078165D01*
X98065087Y-84410704D01*
X98499034Y-84590894D01*
X98968905Y-84591304D01*
X99403165Y-84411872D01*
X99735704Y-84079913D01*
X99915894Y-83645966D01*
X99915895Y-83643905D01*
X100093696Y-83643905D01*
X100273128Y-84078165D01*
X100605087Y-84410704D01*
X101039034Y-84590894D01*
X101508905Y-84591304D01*
X101943165Y-84411872D01*
X102275704Y-84079913D01*
X102455894Y-83645966D01*
X102456304Y-83176095D01*
X102276872Y-82741835D01*
X101944913Y-82409296D01*
X101510966Y-82229106D01*
X101041095Y-82228696D01*
X100606835Y-82408128D01*
X100274296Y-82740087D01*
X100094106Y-83174034D01*
X100093696Y-83643905D01*
X99915895Y-83643905D01*
X99916304Y-83176095D01*
X99736872Y-82741835D01*
X99404913Y-82409296D01*
X98970966Y-82229106D01*
X98501095Y-82228696D01*
X98066835Y-82408128D01*
X97734296Y-82740087D01*
X97554106Y-83174034D01*
X97553696Y-83643905D01*
X97375895Y-83643905D01*
X97376304Y-83176095D01*
X97196872Y-82741835D01*
X96864913Y-82409296D01*
X96430966Y-82229106D01*
X95961095Y-82228696D01*
X95526835Y-82408128D01*
X95194296Y-82740087D01*
X95014106Y-83174034D01*
X95013696Y-83643905D01*
X94835895Y-83643905D01*
X94836304Y-83176095D01*
X94656872Y-82741835D01*
X94324913Y-82409296D01*
X93890966Y-82229106D01*
X93421095Y-82228696D01*
X92986835Y-82408128D01*
X92654296Y-82740087D01*
X92474106Y-83174034D01*
X92473696Y-83643905D01*
X92332022Y-83643905D01*
X92354935Y-83577073D01*
X92324487Y-83089852D01*
X92196615Y-82781142D01*
X92009010Y-82695595D01*
X91294605Y-83410000D01*
X90935395Y-83410000D01*
X90220990Y-82695595D01*
X90033385Y-82781142D01*
X89875065Y-83242927D01*
X89788964Y-83242927D01*
X89788964Y-82584500D01*
X89776073Y-82515990D01*
X90400595Y-82515990D01*
X91115000Y-83230395D01*
X91829405Y-82515990D01*
X91743858Y-82328385D01*
X91282073Y-82170065D01*
X90794852Y-82200513D01*
X90486142Y-82328385D01*
X90400595Y-82515990D01*
X89776073Y-82515990D01*
X89762397Y-82443310D01*
X89678954Y-82313635D01*
X89551634Y-82226641D01*
X89400500Y-82196036D01*
X87749500Y-82196036D01*
X87608310Y-82222603D01*
X87478635Y-82306046D01*
X87391641Y-82433366D01*
X87361036Y-82584500D01*
X85627000Y-82584500D01*
X85627000Y-81103905D01*
X87393696Y-81103905D01*
X87573128Y-81538165D01*
X87905087Y-81870704D01*
X88339034Y-82050894D01*
X88808905Y-82051304D01*
X89243165Y-81871872D01*
X89351215Y-81764010D01*
X90400595Y-81764010D01*
X90486142Y-81951615D01*
X90947927Y-82109935D01*
X91435148Y-82079487D01*
X91743858Y-81951615D01*
X91829405Y-81764010D01*
X91115000Y-81049605D01*
X90400595Y-81764010D01*
X89351215Y-81764010D01*
X89575704Y-81539913D01*
X89755894Y-81105966D01*
X89756245Y-80702927D01*
X89875065Y-80702927D01*
X89905513Y-81190148D01*
X90033385Y-81498858D01*
X90220990Y-81584405D01*
X90935395Y-80870000D01*
X91294605Y-80870000D01*
X92009010Y-81584405D01*
X92196615Y-81498858D01*
X92332022Y-81103905D01*
X92473696Y-81103905D01*
X92653128Y-81538165D01*
X92985087Y-81870704D01*
X93419034Y-82050894D01*
X93888905Y-82051304D01*
X94323165Y-81871872D01*
X94655704Y-81539913D01*
X94835894Y-81105966D01*
X94835895Y-81103905D01*
X95013696Y-81103905D01*
X95193128Y-81538165D01*
X95525087Y-81870704D01*
X95959034Y-82050894D01*
X96428905Y-82051304D01*
X96863165Y-81871872D01*
X97195704Y-81539913D01*
X97375894Y-81105966D01*
X97375895Y-81103905D01*
X97553696Y-81103905D01*
X97733128Y-81538165D01*
X98065087Y-81870704D01*
X98499034Y-82050894D01*
X98968905Y-82051304D01*
X99403165Y-81871872D01*
X99735704Y-81539913D01*
X99915894Y-81105966D01*
X99916304Y-80636095D01*
X99736872Y-80201835D01*
X99404913Y-79869296D01*
X98970966Y-79689106D01*
X98501095Y-79688696D01*
X98066835Y-79868128D01*
X97734296Y-80200087D01*
X97554106Y-80634034D01*
X97553696Y-81103905D01*
X97375895Y-81103905D01*
X97376304Y-80636095D01*
X97196872Y-80201835D01*
X96864913Y-79869296D01*
X96430966Y-79689106D01*
X95961095Y-79688696D01*
X95526835Y-79868128D01*
X95194296Y-80200087D01*
X95014106Y-80634034D01*
X95013696Y-81103905D01*
X94835895Y-81103905D01*
X94836304Y-80636095D01*
X94656872Y-80201835D01*
X94324913Y-79869296D01*
X93890966Y-79689106D01*
X93421095Y-79688696D01*
X92986835Y-79868128D01*
X92654296Y-80200087D01*
X92474106Y-80634034D01*
X92473696Y-81103905D01*
X92332022Y-81103905D01*
X92354935Y-81037073D01*
X92324487Y-80549852D01*
X92196615Y-80241142D01*
X92009010Y-80155595D01*
X91294605Y-80870000D01*
X90935395Y-80870000D01*
X90220990Y-80155595D01*
X90033385Y-80241142D01*
X89875065Y-80702927D01*
X89756245Y-80702927D01*
X89756304Y-80636095D01*
X89576872Y-80201835D01*
X89351421Y-79975990D01*
X90400595Y-79975990D01*
X91115000Y-80690395D01*
X91829405Y-79975990D01*
X91743858Y-79788385D01*
X91282073Y-79630065D01*
X90794852Y-79660513D01*
X90486142Y-79788385D01*
X90400595Y-79975990D01*
X89351421Y-79975990D01*
X89244913Y-79869296D01*
X88810966Y-79689106D01*
X88341095Y-79688696D01*
X87906835Y-79868128D01*
X87574296Y-80200087D01*
X87394106Y-80634034D01*
X87393696Y-81103905D01*
X85627000Y-81103905D01*
X85627000Y-80570390D01*
X88844296Y-78559580D01*
X90269111Y-77847220D01*
X93523030Y-76627000D01*
X106476970Y-76627000D01*
X109722718Y-77844155D01*
G36*
X98040624Y-104884624D02*
X98081044Y-105087829D01*
X98186808Y-105246117D01*
X98160310Y-105251103D01*
X98030635Y-105334546D01*
X97943641Y-105461866D01*
X97913036Y-105613000D01*
X97913036Y-106502000D01*
X97939603Y-106643190D01*
X98023046Y-106772865D01*
X98150366Y-106859859D01*
X98301500Y-106890464D01*
X99336016Y-106890464D01*
X99575089Y-107129536D01*
X98301500Y-107129536D01*
X98160310Y-107156103D01*
X98030635Y-107239546D01*
X97943641Y-107366866D01*
X97913036Y-107518000D01*
X97913036Y-108407000D01*
X97939603Y-108548190D01*
X98023046Y-108677865D01*
X98150366Y-108764859D01*
X98301500Y-108795464D01*
X98469000Y-108795464D01*
X98469000Y-110639552D01*
X98126964Y-110981588D01*
X98126964Y-110921000D01*
X98100397Y-110779810D01*
X98016954Y-110650135D01*
X97889634Y-110563141D01*
X97882238Y-110561643D01*
X97980376Y-110520993D01*
X98100493Y-110400876D01*
X98165500Y-110243935D01*
X98165500Y-110138750D01*
X98058750Y-110032000D01*
X97294000Y-110032000D01*
X97294000Y-110052000D01*
X97040000Y-110052000D01*
X97040000Y-110032000D01*
X97020000Y-110032000D01*
X97020000Y-109778000D01*
X97040000Y-109778000D01*
X97040000Y-109330750D01*
X97294000Y-109330750D01*
X97294000Y-109778000D01*
X98058750Y-109778000D01*
X98165500Y-109671250D01*
X98165500Y-109566065D01*
X98100493Y-109409124D01*
X97980376Y-109289007D01*
X97823436Y-109224000D01*
X97400750Y-109224000D01*
X97294000Y-109330750D01*
X97040000Y-109330750D01*
X96933250Y-109224000D01*
X96729448Y-109224000D01*
X97125474Y-108827974D01*
X97178935Y-108747964D01*
X97448500Y-108747964D01*
X97589690Y-108721397D01*
X97719365Y-108637954D01*
X97806359Y-108510634D01*
X97836964Y-108359500D01*
X97836964Y-107470500D01*
X97810397Y-107329310D01*
X97726954Y-107199635D01*
X97599634Y-107112641D01*
X97455902Y-107083535D01*
X97456113Y-106841532D01*
X97589690Y-106816397D01*
X97719365Y-106732954D01*
X97806359Y-106605634D01*
X97836964Y-106454500D01*
X97836964Y-105565500D01*
X97810397Y-105424310D01*
X97726954Y-105294635D01*
X97599634Y-105207641D01*
X97552793Y-105198155D01*
X97969247Y-104781701D01*
X98040624Y-104734009D01*
X98040624Y-104884624D01*
X98040624Y-104884624D01*
G37*
X98040624Y-104884624D02*
X98081044Y-105087829D01*
X98186808Y-105246117D01*
X98160310Y-105251103D01*
X98030635Y-105334546D01*
X97943641Y-105461866D01*
X97913036Y-105613000D01*
X97913036Y-106502000D01*
X97939603Y-106643190D01*
X98023046Y-106772865D01*
X98150366Y-106859859D01*
X98301500Y-106890464D01*
X99336016Y-106890464D01*
X99575089Y-107129536D01*
X98301500Y-107129536D01*
X98160310Y-107156103D01*
X98030635Y-107239546D01*
X97943641Y-107366866D01*
X97913036Y-107518000D01*
X97913036Y-108407000D01*
X97939603Y-108548190D01*
X98023046Y-108677865D01*
X98150366Y-108764859D01*
X98301500Y-108795464D01*
X98469000Y-108795464D01*
X98469000Y-110639552D01*
X98126964Y-110981588D01*
X98126964Y-110921000D01*
X98100397Y-110779810D01*
X98016954Y-110650135D01*
X97889634Y-110563141D01*
X97882238Y-110561643D01*
X97980376Y-110520993D01*
X98100493Y-110400876D01*
X98165500Y-110243935D01*
X98165500Y-110138750D01*
X98058750Y-110032000D01*
X97294000Y-110032000D01*
X97294000Y-110052000D01*
X97040000Y-110052000D01*
X97040000Y-110032000D01*
X97020000Y-110032000D01*
X97020000Y-109778000D01*
X97040000Y-109778000D01*
X97040000Y-109330750D01*
X97294000Y-109330750D01*
X97294000Y-109778000D01*
X98058750Y-109778000D01*
X98165500Y-109671250D01*
X98165500Y-109566065D01*
X98100493Y-109409124D01*
X97980376Y-109289007D01*
X97823436Y-109224000D01*
X97400750Y-109224000D01*
X97294000Y-109330750D01*
X97040000Y-109330750D01*
X96933250Y-109224000D01*
X96729448Y-109224000D01*
X97125474Y-108827974D01*
X97178935Y-108747964D01*
X97448500Y-108747964D01*
X97589690Y-108721397D01*
X97719365Y-108637954D01*
X97806359Y-108510634D01*
X97836964Y-108359500D01*
X97836964Y-107470500D01*
X97810397Y-107329310D01*
X97726954Y-107199635D01*
X97599634Y-107112641D01*
X97455902Y-107083535D01*
X97456113Y-106841532D01*
X97589690Y-106816397D01*
X97719365Y-106732954D01*
X97806359Y-106605634D01*
X97836964Y-106454500D01*
X97836964Y-105565500D01*
X97810397Y-105424310D01*
X97726954Y-105294635D01*
X97599634Y-105207641D01*
X97552793Y-105198155D01*
X97969247Y-104781701D01*
X98040624Y-104734009D01*
X98040624Y-104884624D01*
G36*
X96896268Y-96163719D02*
X96903010Y-96156977D01*
X96930476Y-96184443D01*
X96980413Y-96259179D01*
X97693774Y-96972540D01*
X97727874Y-96995325D01*
X97778207Y-97045658D01*
X97803203Y-97045658D01*
X97914706Y-97120162D01*
X98108919Y-97158794D01*
X98020548Y-97371613D01*
X98020335Y-97616610D01*
X97961791Y-97616559D01*
X97711404Y-97720016D01*
X97662738Y-97768597D01*
X97469187Y-97807097D01*
X97296918Y-97922203D01*
X97296916Y-97922206D01*
X97176195Y-98042927D01*
X96852802Y-98042927D01*
X96874113Y-98011738D01*
X96976500Y-97943836D01*
X97365409Y-97554927D01*
X97393843Y-97513312D01*
X97509375Y-97465457D01*
X97598602Y-97376230D01*
X97598602Y-97225263D01*
X96896268Y-96522929D01*
X96889526Y-96529672D01*
X96709921Y-96350067D01*
X96716663Y-96343324D01*
X96702521Y-96329182D01*
X96882126Y-96149577D01*
X96896268Y-96163719D01*
X96896268Y-96163719D01*
G37*
X96896268Y-96163719D02*
X96903010Y-96156977D01*
X96930476Y-96184443D01*
X96980413Y-96259179D01*
X97693774Y-96972540D01*
X97727874Y-96995325D01*
X97778207Y-97045658D01*
X97803203Y-97045658D01*
X97914706Y-97120162D01*
X98108919Y-97158794D01*
X98020548Y-97371613D01*
X98020335Y-97616610D01*
X97961791Y-97616559D01*
X97711404Y-97720016D01*
X97662738Y-97768597D01*
X97469187Y-97807097D01*
X97296918Y-97922203D01*
X97296916Y-97922206D01*
X97176195Y-98042927D01*
X96852802Y-98042927D01*
X96874113Y-98011738D01*
X96976500Y-97943836D01*
X97365409Y-97554927D01*
X97393843Y-97513312D01*
X97509375Y-97465457D01*
X97598602Y-97376230D01*
X97598602Y-97225263D01*
X96896268Y-96522929D01*
X96889526Y-96529672D01*
X96709921Y-96350067D01*
X96716663Y-96343324D01*
X96702521Y-96329182D01*
X96882126Y-96149577D01*
X96896268Y-96163719D01*
G36*
X98215729Y-95231753D02*
X98047438Y-95400044D01*
X97943493Y-95296099D01*
X97868757Y-95246162D01*
X97841291Y-95218696D01*
X97848034Y-95211953D01*
X97833892Y-95197811D01*
X98007839Y-95023863D01*
X98215729Y-95231753D01*
X98215729Y-95231753D01*
G37*
X98215729Y-95231753D02*
X98047438Y-95400044D01*
X97943493Y-95296099D01*
X97868757Y-95246162D01*
X97841291Y-95218696D01*
X97848034Y-95211953D01*
X97833892Y-95197811D01*
X98007839Y-95023863D01*
X98215729Y-95231753D01*
M02*
