G04 #@! TF.GenerationSoftware,KiCad,Pcbnew,5.0.0-fee4fd1~66~ubuntu16.04.1*
G04 #@! TF.CreationDate,2018-09-22T21:32:25+02:00*
G04 #@! TF.ProjectId,bus-module_atmega328,6275732D6D6F64756C655F61746D6567,B*
G04 #@! TF.SameCoordinates,Original*
G04 #@! TF.FileFunction,Legend,Bot*
G04 #@! TF.FilePolarity,Positive*
%FSLAX46Y46*%
G04 Gerber Fmt 4.6, Leading zero omitted, Abs format (unit mm)*
G04 Created by KiCad (PCBNEW 5.0.0-fee4fd1~66~ubuntu16.04.1) date Sat Sep 22 21:32:25 2018*
%MOMM*%
%LPD*%
G01*
G04 APERTURE LIST*
%ADD10C,0.150000*%
%ADD11C,0.200000*%
G04 APERTURE END LIST*
D10*
X103001190Y-78462380D02*
X103001190Y-77462380D01*
X102429761Y-78462380D02*
X102858333Y-77890952D01*
X102429761Y-77462380D02*
X103001190Y-78033809D01*
X101810714Y-77462380D02*
X101620238Y-77462380D01*
X101525000Y-77510000D01*
X101429761Y-77605238D01*
X101382142Y-77795714D01*
X101382142Y-78129047D01*
X101429761Y-78319523D01*
X101525000Y-78414761D01*
X101620238Y-78462380D01*
X101810714Y-78462380D01*
X101905952Y-78414761D01*
X102001190Y-78319523D01*
X102048809Y-78129047D01*
X102048809Y-77795714D01*
X102001190Y-77605238D01*
X101905952Y-77510000D01*
X101810714Y-77462380D01*
X100953571Y-77938571D02*
X100620238Y-77938571D01*
X100477380Y-78462380D02*
X100953571Y-78462380D01*
X100953571Y-77462380D01*
X100477380Y-77462380D01*
X100144047Y-77462380D02*
X99905952Y-78462380D01*
X99715476Y-77748095D01*
X99525000Y-78462380D01*
X99286904Y-77462380D01*
X98905952Y-78462380D02*
X98905952Y-77462380D01*
X98096428Y-77938571D02*
X97953571Y-77986190D01*
X97905952Y-78033809D01*
X97858333Y-78129047D01*
X97858333Y-78271904D01*
X97905952Y-78367142D01*
X97953571Y-78414761D01*
X98048809Y-78462380D01*
X98429761Y-78462380D01*
X98429761Y-77462380D01*
X98096428Y-77462380D01*
X98001190Y-77510000D01*
X97953571Y-77557619D01*
X97905952Y-77652857D01*
X97905952Y-77748095D01*
X97953571Y-77843333D01*
X98001190Y-77890952D01*
X98096428Y-77938571D01*
X98429761Y-77938571D01*
X97477380Y-78176666D02*
X97001190Y-78176666D01*
X97572619Y-78462380D02*
X97239285Y-77462380D01*
X96905952Y-78462380D01*
X99725000Y-86563928D02*
X99686904Y-86487738D01*
X99686904Y-86373452D01*
X99725000Y-86259166D01*
X99801190Y-86182976D01*
X99877380Y-86144880D01*
X100029761Y-86106785D01*
X100144047Y-86106785D01*
X100296428Y-86144880D01*
X100372619Y-86182976D01*
X100448809Y-86259166D01*
X100486904Y-86373452D01*
X100486904Y-86449642D01*
X100448809Y-86563928D01*
X100410714Y-86602023D01*
X100144047Y-86602023D01*
X100144047Y-86449642D01*
X100486904Y-86944880D02*
X99686904Y-86944880D01*
X100486904Y-87402023D01*
X99686904Y-87402023D01*
X100486904Y-87782976D02*
X99686904Y-87782976D01*
X99686904Y-87973452D01*
X99725000Y-88087738D01*
X99801190Y-88163928D01*
X99877380Y-88202023D01*
X100029761Y-88240119D01*
X100144047Y-88240119D01*
X100296428Y-88202023D01*
X100372619Y-88163928D01*
X100448809Y-88087738D01*
X100486904Y-87973452D01*
X100486904Y-87782976D01*
X101036904Y-86182976D02*
X101836904Y-86449642D01*
X101036904Y-86716309D01*
X101760714Y-87440119D02*
X101798809Y-87402023D01*
X101836904Y-87287738D01*
X101836904Y-87211547D01*
X101798809Y-87097261D01*
X101722619Y-87021071D01*
X101646428Y-86982976D01*
X101494047Y-86944880D01*
X101379761Y-86944880D01*
X101227380Y-86982976D01*
X101151190Y-87021071D01*
X101075000Y-87097261D01*
X101036904Y-87211547D01*
X101036904Y-87287738D01*
X101075000Y-87402023D01*
X101113095Y-87440119D01*
X101760714Y-88240119D02*
X101798809Y-88202023D01*
X101836904Y-88087738D01*
X101836904Y-88011547D01*
X101798809Y-87897261D01*
X101722619Y-87821071D01*
X101646428Y-87782976D01*
X101494047Y-87744880D01*
X101379761Y-87744880D01*
X101227380Y-87782976D01*
X101151190Y-87821071D01*
X101075000Y-87897261D01*
X101036904Y-88011547D01*
X101036904Y-88087738D01*
X101075000Y-88202023D01*
X101113095Y-88240119D01*
X103186904Y-86221071D02*
X102386904Y-86221071D01*
X102386904Y-86525833D01*
X102425000Y-86602023D01*
X102463095Y-86640119D01*
X102539285Y-86678214D01*
X102653571Y-86678214D01*
X102729761Y-86640119D01*
X102767857Y-86602023D01*
X102805952Y-86525833D01*
X102805952Y-86221071D01*
X103110714Y-87478214D02*
X103148809Y-87440119D01*
X103186904Y-87325833D01*
X103186904Y-87249642D01*
X103148809Y-87135357D01*
X103072619Y-87059166D01*
X102996428Y-87021071D01*
X102844047Y-86982976D01*
X102729761Y-86982976D01*
X102577380Y-87021071D01*
X102501190Y-87059166D01*
X102425000Y-87135357D01*
X102386904Y-87249642D01*
X102386904Y-87325833D01*
X102425000Y-87440119D01*
X102463095Y-87478214D01*
X102386904Y-87973452D02*
X102386904Y-88049642D01*
X102425000Y-88125833D01*
X102463095Y-88163928D01*
X102539285Y-88202023D01*
X102691666Y-88240119D01*
X102882142Y-88240119D01*
X103034523Y-88202023D01*
X103110714Y-88163928D01*
X103148809Y-88125833D01*
X103186904Y-88049642D01*
X103186904Y-87973452D01*
X103148809Y-87897261D01*
X103110714Y-87859166D01*
X103034523Y-87821071D01*
X102882142Y-87782976D01*
X102691666Y-87782976D01*
X102539285Y-87821071D01*
X102463095Y-87859166D01*
X102425000Y-87897261D01*
X102386904Y-87973452D01*
X104536904Y-86221071D02*
X103736904Y-86221071D01*
X103736904Y-86525833D01*
X103775000Y-86602023D01*
X103813095Y-86640119D01*
X103889285Y-86678214D01*
X104003571Y-86678214D01*
X104079761Y-86640119D01*
X104117857Y-86602023D01*
X104155952Y-86525833D01*
X104155952Y-86221071D01*
X104460714Y-87478214D02*
X104498809Y-87440119D01*
X104536904Y-87325833D01*
X104536904Y-87249642D01*
X104498809Y-87135357D01*
X104422619Y-87059166D01*
X104346428Y-87021071D01*
X104194047Y-86982976D01*
X104079761Y-86982976D01*
X103927380Y-87021071D01*
X103851190Y-87059166D01*
X103775000Y-87135357D01*
X103736904Y-87249642D01*
X103736904Y-87325833D01*
X103775000Y-87440119D01*
X103813095Y-87478214D01*
X103813095Y-87782976D02*
X103775000Y-87821071D01*
X103736904Y-87897261D01*
X103736904Y-88087738D01*
X103775000Y-88163928D01*
X103813095Y-88202023D01*
X103889285Y-88240119D01*
X103965476Y-88240119D01*
X104079761Y-88202023D01*
X104536904Y-87744880D01*
X104536904Y-88240119D01*
X105886904Y-86221071D02*
X105086904Y-86221071D01*
X105086904Y-86525833D01*
X105125000Y-86602023D01*
X105163095Y-86640119D01*
X105239285Y-86678214D01*
X105353571Y-86678214D01*
X105429761Y-86640119D01*
X105467857Y-86602023D01*
X105505952Y-86525833D01*
X105505952Y-86221071D01*
X105810714Y-87478214D02*
X105848809Y-87440119D01*
X105886904Y-87325833D01*
X105886904Y-87249642D01*
X105848809Y-87135357D01*
X105772619Y-87059166D01*
X105696428Y-87021071D01*
X105544047Y-86982976D01*
X105429761Y-86982976D01*
X105277380Y-87021071D01*
X105201190Y-87059166D01*
X105125000Y-87135357D01*
X105086904Y-87249642D01*
X105086904Y-87325833D01*
X105125000Y-87440119D01*
X105163095Y-87478214D01*
X105353571Y-88163928D02*
X105886904Y-88163928D01*
X105048809Y-87973452D02*
X105620238Y-87782976D01*
X105620238Y-88278214D01*
X107236904Y-85421071D02*
X106855952Y-85154404D01*
X107236904Y-84963928D02*
X106436904Y-84963928D01*
X106436904Y-85268690D01*
X106475000Y-85344880D01*
X106513095Y-85382976D01*
X106589285Y-85421071D01*
X106703571Y-85421071D01*
X106779761Y-85382976D01*
X106817857Y-85344880D01*
X106855952Y-85268690D01*
X106855952Y-84963928D01*
X106817857Y-85763928D02*
X106817857Y-86030595D01*
X107236904Y-86144880D02*
X107236904Y-85763928D01*
X106436904Y-85763928D01*
X106436904Y-86144880D01*
X107198809Y-86449642D02*
X107236904Y-86563928D01*
X107236904Y-86754404D01*
X107198809Y-86830595D01*
X107160714Y-86868690D01*
X107084523Y-86906785D01*
X107008333Y-86906785D01*
X106932142Y-86868690D01*
X106894047Y-86830595D01*
X106855952Y-86754404D01*
X106817857Y-86602023D01*
X106779761Y-86525833D01*
X106741666Y-86487738D01*
X106665476Y-86449642D01*
X106589285Y-86449642D01*
X106513095Y-86487738D01*
X106475000Y-86525833D01*
X106436904Y-86602023D01*
X106436904Y-86792500D01*
X106475000Y-86906785D01*
X106817857Y-87249642D02*
X106817857Y-87516309D01*
X107236904Y-87630595D02*
X107236904Y-87249642D01*
X106436904Y-87249642D01*
X106436904Y-87630595D01*
X106436904Y-87859166D02*
X106436904Y-88316309D01*
X107236904Y-88087738D02*
X106436904Y-88087738D01*
X108586904Y-86221071D02*
X107786904Y-86221071D01*
X107786904Y-86525833D01*
X107825000Y-86602023D01*
X107863095Y-86640119D01*
X107939285Y-86678214D01*
X108053571Y-86678214D01*
X108129761Y-86640119D01*
X108167857Y-86602023D01*
X108205952Y-86525833D01*
X108205952Y-86221071D01*
X108586904Y-87021071D02*
X107786904Y-87021071D01*
X107786904Y-87211547D01*
X107825000Y-87325833D01*
X107901190Y-87402023D01*
X107977380Y-87440119D01*
X108129761Y-87478214D01*
X108244047Y-87478214D01*
X108396428Y-87440119D01*
X108472619Y-87402023D01*
X108548809Y-87325833D01*
X108586904Y-87211547D01*
X108586904Y-87021071D01*
X107786904Y-87744880D02*
X107786904Y-88240119D01*
X108091666Y-87973452D01*
X108091666Y-88087738D01*
X108129761Y-88163928D01*
X108167857Y-88202023D01*
X108244047Y-88240119D01*
X108434523Y-88240119D01*
X108510714Y-88202023D01*
X108548809Y-88163928D01*
X108586904Y-88087738D01*
X108586904Y-87859166D01*
X108548809Y-87782976D01*
X108510714Y-87744880D01*
X109936904Y-86221071D02*
X109136904Y-86221071D01*
X109136904Y-86525833D01*
X109175000Y-86602023D01*
X109213095Y-86640119D01*
X109289285Y-86678214D01*
X109403571Y-86678214D01*
X109479761Y-86640119D01*
X109517857Y-86602023D01*
X109555952Y-86525833D01*
X109555952Y-86221071D01*
X109936904Y-87021071D02*
X109136904Y-87021071D01*
X109136904Y-87211547D01*
X109175000Y-87325833D01*
X109251190Y-87402023D01*
X109327380Y-87440119D01*
X109479761Y-87478214D01*
X109594047Y-87478214D01*
X109746428Y-87440119D01*
X109822619Y-87402023D01*
X109898809Y-87325833D01*
X109936904Y-87211547D01*
X109936904Y-87021071D01*
X109136904Y-88202023D02*
X109136904Y-87821071D01*
X109517857Y-87782976D01*
X109479761Y-87821071D01*
X109441666Y-87897261D01*
X109441666Y-88087738D01*
X109479761Y-88163928D01*
X109517857Y-88202023D01*
X109594047Y-88240119D01*
X109784523Y-88240119D01*
X109860714Y-88202023D01*
X109898809Y-88163928D01*
X109936904Y-88087738D01*
X109936904Y-87897261D01*
X109898809Y-87821071D01*
X109860714Y-87782976D01*
X111286904Y-86221071D02*
X110486904Y-86221071D01*
X110486904Y-86525833D01*
X110525000Y-86602023D01*
X110563095Y-86640119D01*
X110639285Y-86678214D01*
X110753571Y-86678214D01*
X110829761Y-86640119D01*
X110867857Y-86602023D01*
X110905952Y-86525833D01*
X110905952Y-86221071D01*
X111286904Y-87021071D02*
X110486904Y-87021071D01*
X110486904Y-87211547D01*
X110525000Y-87325833D01*
X110601190Y-87402023D01*
X110677380Y-87440119D01*
X110829761Y-87478214D01*
X110944047Y-87478214D01*
X111096428Y-87440119D01*
X111172619Y-87402023D01*
X111248809Y-87325833D01*
X111286904Y-87211547D01*
X111286904Y-87021071D01*
X110486904Y-87744880D02*
X110486904Y-88278214D01*
X111286904Y-87935357D01*
X112103571Y-87173452D02*
X112636904Y-87173452D01*
X112179761Y-87173452D02*
X112141666Y-87211547D01*
X112103571Y-87287738D01*
X112103571Y-87402023D01*
X112141666Y-87478214D01*
X112217857Y-87516309D01*
X112636904Y-87516309D01*
X112598809Y-88240119D02*
X112636904Y-88163928D01*
X112636904Y-88011547D01*
X112598809Y-87935357D01*
X112560714Y-87897261D01*
X112484523Y-87859166D01*
X112255952Y-87859166D01*
X112179761Y-87897261D01*
X112141666Y-87935357D01*
X112103571Y-88011547D01*
X112103571Y-88163928D01*
X112141666Y-88240119D01*
D11*
X83624714Y-90022000D02*
X83719952Y-89974380D01*
X83862809Y-89974380D01*
X84005666Y-90022000D01*
X84100904Y-90117238D01*
X84148523Y-90212476D01*
X84196142Y-90402952D01*
X84196142Y-90545809D01*
X84148523Y-90736285D01*
X84100904Y-90831523D01*
X84005666Y-90926761D01*
X83862809Y-90974380D01*
X83767571Y-90974380D01*
X83624714Y-90926761D01*
X83577095Y-90879142D01*
X83577095Y-90545809D01*
X83767571Y-90545809D01*
X83148523Y-90974380D02*
X83148523Y-89974380D01*
X82577095Y-90974380D01*
X82577095Y-89974380D01*
X82100904Y-90974380D02*
X82100904Y-89974380D01*
X81862809Y-89974380D01*
X81719952Y-90022000D01*
X81624714Y-90117238D01*
X81577095Y-90212476D01*
X81529476Y-90402952D01*
X81529476Y-90545809D01*
X81577095Y-90736285D01*
X81624714Y-90831523D01*
X81719952Y-90926761D01*
X81862809Y-90974380D01*
X82100904Y-90974380D01*
X82021571Y-96292571D02*
X81878714Y-96340190D01*
X81831095Y-96387809D01*
X81783476Y-96483047D01*
X81783476Y-96625904D01*
X81831095Y-96721142D01*
X81878714Y-96768761D01*
X81973952Y-96816380D01*
X82354904Y-96816380D01*
X82354904Y-95816380D01*
X82021571Y-95816380D01*
X81926333Y-95864000D01*
X81878714Y-95911619D01*
X81831095Y-96006857D01*
X81831095Y-96102095D01*
X81878714Y-96197333D01*
X81926333Y-96244952D01*
X82021571Y-96292571D01*
X82354904Y-96292571D01*
X82005666Y-102118666D02*
X81529476Y-102118666D01*
X82100904Y-102404380D02*
X81767571Y-101404380D01*
X81434238Y-102404380D01*
X83910428Y-107341619D02*
X83862809Y-107294000D01*
X83767571Y-107246380D01*
X83529476Y-107246380D01*
X83434238Y-107294000D01*
X83386619Y-107341619D01*
X83339000Y-107436857D01*
X83339000Y-107532095D01*
X83386619Y-107674952D01*
X83958047Y-108246380D01*
X83339000Y-108246380D01*
X82481857Y-107579714D02*
X82481857Y-108246380D01*
X82719952Y-107198761D02*
X82958047Y-107913047D01*
X82339000Y-107913047D01*
X82100904Y-107246380D02*
X81767571Y-108246380D01*
X81434238Y-107246380D01*
D10*
X98350000Y-111422023D02*
X98311904Y-111345833D01*
X98311904Y-111231547D01*
X98350000Y-111117261D01*
X98426190Y-111041071D01*
X98502380Y-111002976D01*
X98654761Y-110964880D01*
X98769047Y-110964880D01*
X98921428Y-111002976D01*
X98997619Y-111041071D01*
X99073809Y-111117261D01*
X99111904Y-111231547D01*
X99111904Y-111307738D01*
X99073809Y-111422023D01*
X99035714Y-111460119D01*
X98769047Y-111460119D01*
X98769047Y-111307738D01*
X99111904Y-111802976D02*
X98311904Y-111802976D01*
X99111904Y-112260119D01*
X98311904Y-112260119D01*
X99111904Y-112641071D02*
X98311904Y-112641071D01*
X98311904Y-112831547D01*
X98350000Y-112945833D01*
X98426190Y-113022023D01*
X98502380Y-113060119D01*
X98654761Y-113098214D01*
X98769047Y-113098214D01*
X98921428Y-113060119D01*
X98997619Y-113022023D01*
X99073809Y-112945833D01*
X99111904Y-112831547D01*
X99111904Y-112641071D01*
X99661904Y-110888690D02*
X100461904Y-111155357D01*
X99661904Y-111422023D01*
X100385714Y-112145833D02*
X100423809Y-112107738D01*
X100461904Y-111993452D01*
X100461904Y-111917261D01*
X100423809Y-111802976D01*
X100347619Y-111726785D01*
X100271428Y-111688690D01*
X100119047Y-111650595D01*
X100004761Y-111650595D01*
X99852380Y-111688690D01*
X99776190Y-111726785D01*
X99700000Y-111802976D01*
X99661904Y-111917261D01*
X99661904Y-111993452D01*
X99700000Y-112107738D01*
X99738095Y-112145833D01*
X100385714Y-112945833D02*
X100423809Y-112907738D01*
X100461904Y-112793452D01*
X100461904Y-112717261D01*
X100423809Y-112602976D01*
X100347619Y-112526785D01*
X100271428Y-112488690D01*
X100119047Y-112450595D01*
X100004761Y-112450595D01*
X99852380Y-112488690D01*
X99776190Y-112526785D01*
X99700000Y-112602976D01*
X99661904Y-112717261D01*
X99661904Y-112793452D01*
X99700000Y-112907738D01*
X99738095Y-112945833D01*
X101583333Y-110964880D02*
X101583333Y-111345833D01*
X101811904Y-110888690D02*
X101011904Y-111155357D01*
X101811904Y-111422023D01*
X101811904Y-112145833D02*
X101430952Y-111879166D01*
X101811904Y-111688690D02*
X101011904Y-111688690D01*
X101011904Y-111993452D01*
X101050000Y-112069642D01*
X101088095Y-112107738D01*
X101164285Y-112145833D01*
X101278571Y-112145833D01*
X101354761Y-112107738D01*
X101392857Y-112069642D01*
X101430952Y-111993452D01*
X101430952Y-111688690D01*
X101392857Y-112488690D02*
X101392857Y-112755357D01*
X101811904Y-112869642D02*
X101811904Y-112488690D01*
X101011904Y-112488690D01*
X101011904Y-112869642D01*
X101392857Y-113479166D02*
X101392857Y-113212500D01*
X101811904Y-113212500D02*
X101011904Y-113212500D01*
X101011904Y-113593452D01*
X102933333Y-110964880D02*
X102933333Y-111345833D01*
X103161904Y-110888690D02*
X102361904Y-111155357D01*
X103161904Y-111422023D01*
X103161904Y-111688690D02*
X102361904Y-111688690D01*
X102361904Y-111879166D01*
X102400000Y-111993452D01*
X102476190Y-112069642D01*
X102552380Y-112107738D01*
X102704761Y-112145833D01*
X102819047Y-112145833D01*
X102971428Y-112107738D01*
X103047619Y-112069642D01*
X103123809Y-111993452D01*
X103161904Y-111879166D01*
X103161904Y-111688690D01*
X103085714Y-112945833D02*
X103123809Y-112907738D01*
X103161904Y-112793452D01*
X103161904Y-112717261D01*
X103123809Y-112602976D01*
X103047619Y-112526785D01*
X102971428Y-112488690D01*
X102819047Y-112450595D01*
X102704761Y-112450595D01*
X102552380Y-112488690D01*
X102476190Y-112526785D01*
X102400000Y-112602976D01*
X102361904Y-112717261D01*
X102361904Y-112793452D01*
X102400000Y-112907738D01*
X102438095Y-112945833D01*
X102361904Y-113631547D02*
X102361904Y-113479166D01*
X102400000Y-113402976D01*
X102438095Y-113364880D01*
X102552380Y-113288690D01*
X102704761Y-113250595D01*
X103009523Y-113250595D01*
X103085714Y-113288690D01*
X103123809Y-113326785D01*
X103161904Y-113402976D01*
X103161904Y-113555357D01*
X103123809Y-113631547D01*
X103085714Y-113669642D01*
X103009523Y-113707738D01*
X102819047Y-113707738D01*
X102742857Y-113669642D01*
X102704761Y-113631547D01*
X102666666Y-113555357D01*
X102666666Y-113402976D01*
X102704761Y-113326785D01*
X102742857Y-113288690D01*
X102819047Y-113250595D01*
X104511904Y-111002976D02*
X103711904Y-111002976D01*
X103711904Y-111307738D01*
X103750000Y-111383928D01*
X103788095Y-111422023D01*
X103864285Y-111460119D01*
X103978571Y-111460119D01*
X104054761Y-111422023D01*
X104092857Y-111383928D01*
X104130952Y-111307738D01*
X104130952Y-111002976D01*
X104092857Y-112069642D02*
X104130952Y-112183928D01*
X104169047Y-112222023D01*
X104245238Y-112260119D01*
X104359523Y-112260119D01*
X104435714Y-112222023D01*
X104473809Y-112183928D01*
X104511904Y-112107738D01*
X104511904Y-111802976D01*
X103711904Y-111802976D01*
X103711904Y-112069642D01*
X103750000Y-112145833D01*
X103788095Y-112183928D01*
X103864285Y-112222023D01*
X103940476Y-112222023D01*
X104016666Y-112183928D01*
X104054761Y-112145833D01*
X104092857Y-112069642D01*
X104092857Y-111802976D01*
X103711904Y-112755357D02*
X103711904Y-112831547D01*
X103750000Y-112907738D01*
X103788095Y-112945833D01*
X103864285Y-112983928D01*
X104016666Y-113022023D01*
X104207142Y-113022023D01*
X104359523Y-112983928D01*
X104435714Y-112945833D01*
X104473809Y-112907738D01*
X104511904Y-112831547D01*
X104511904Y-112755357D01*
X104473809Y-112679166D01*
X104435714Y-112641071D01*
X104359523Y-112602976D01*
X104207142Y-112564880D01*
X104016666Y-112564880D01*
X103864285Y-112602976D01*
X103788095Y-112641071D01*
X103750000Y-112679166D01*
X103711904Y-112755357D01*
X105785714Y-111460119D02*
X105823809Y-111422023D01*
X105861904Y-111307738D01*
X105861904Y-111231547D01*
X105823809Y-111117261D01*
X105747619Y-111041071D01*
X105671428Y-111002976D01*
X105519047Y-110964880D01*
X105404761Y-110964880D01*
X105252380Y-111002976D01*
X105176190Y-111041071D01*
X105100000Y-111117261D01*
X105061904Y-111231547D01*
X105061904Y-111307738D01*
X105100000Y-111422023D01*
X105138095Y-111460119D01*
X105823809Y-111764880D02*
X105861904Y-111879166D01*
X105861904Y-112069642D01*
X105823809Y-112145833D01*
X105785714Y-112183928D01*
X105709523Y-112222023D01*
X105633333Y-112222023D01*
X105557142Y-112183928D01*
X105519047Y-112145833D01*
X105480952Y-112069642D01*
X105442857Y-111917261D01*
X105404761Y-111841071D01*
X105366666Y-111802976D01*
X105290476Y-111764880D01*
X105214285Y-111764880D01*
X105138095Y-111802976D01*
X105100000Y-111841071D01*
X105061904Y-111917261D01*
X105061904Y-112107738D01*
X105100000Y-112222023D01*
X105442857Y-112564880D02*
X105442857Y-112831547D01*
X105861904Y-112945833D02*
X105861904Y-112564880D01*
X105061904Y-112564880D01*
X105061904Y-112945833D01*
X105442857Y-113288690D02*
X105442857Y-113555357D01*
X105861904Y-113669642D02*
X105861904Y-113288690D01*
X105061904Y-113288690D01*
X105061904Y-113669642D01*
X105861904Y-114012500D02*
X105061904Y-114012500D01*
X105061904Y-114317261D01*
X105100000Y-114393452D01*
X105138095Y-114431547D01*
X105214285Y-114469642D01*
X105328571Y-114469642D01*
X105404761Y-114431547D01*
X105442857Y-114393452D01*
X105480952Y-114317261D01*
X105480952Y-114012500D01*
X107211904Y-111002976D02*
X106411904Y-111002976D01*
X106983333Y-111269642D01*
X106411904Y-111536309D01*
X107211904Y-111536309D01*
X107211904Y-111917261D02*
X106411904Y-111917261D01*
X107173809Y-112260119D02*
X107211904Y-112374404D01*
X107211904Y-112564880D01*
X107173809Y-112641071D01*
X107135714Y-112679166D01*
X107059523Y-112717261D01*
X106983333Y-112717261D01*
X106907142Y-112679166D01*
X106869047Y-112641071D01*
X106830952Y-112564880D01*
X106792857Y-112412500D01*
X106754761Y-112336309D01*
X106716666Y-112298214D01*
X106640476Y-112260119D01*
X106564285Y-112260119D01*
X106488095Y-112298214D01*
X106450000Y-112336309D01*
X106411904Y-112412500D01*
X106411904Y-112602976D01*
X106450000Y-112717261D01*
X106411904Y-113212500D02*
X106411904Y-113364880D01*
X106450000Y-113441071D01*
X106526190Y-113517261D01*
X106678571Y-113555357D01*
X106945238Y-113555357D01*
X107097619Y-113517261D01*
X107173809Y-113441071D01*
X107211904Y-113364880D01*
X107211904Y-113212500D01*
X107173809Y-113136309D01*
X107097619Y-113060119D01*
X106945238Y-113022023D01*
X106678571Y-113022023D01*
X106526190Y-113060119D01*
X106450000Y-113136309D01*
X106411904Y-113212500D01*
X98350000Y-108153928D02*
X98311904Y-108077738D01*
X98311904Y-107963452D01*
X98350000Y-107849166D01*
X98426190Y-107772976D01*
X98502380Y-107734880D01*
X98654761Y-107696785D01*
X98769047Y-107696785D01*
X98921428Y-107734880D01*
X98997619Y-107772976D01*
X99073809Y-107849166D01*
X99111904Y-107963452D01*
X99111904Y-108039642D01*
X99073809Y-108153928D01*
X99035714Y-108192023D01*
X98769047Y-108192023D01*
X98769047Y-108039642D01*
X99111904Y-108534880D02*
X98311904Y-108534880D01*
X99111904Y-108992023D01*
X98311904Y-108992023D01*
X99111904Y-109372976D02*
X98311904Y-109372976D01*
X98311904Y-109563452D01*
X98350000Y-109677738D01*
X98426190Y-109753928D01*
X98502380Y-109792023D01*
X98654761Y-109830119D01*
X98769047Y-109830119D01*
X98921428Y-109792023D01*
X98997619Y-109753928D01*
X99073809Y-109677738D01*
X99111904Y-109563452D01*
X99111904Y-109372976D01*
X99661904Y-107772976D02*
X100461904Y-108039642D01*
X99661904Y-108306309D01*
X100385714Y-109030119D02*
X100423809Y-108992023D01*
X100461904Y-108877738D01*
X100461904Y-108801547D01*
X100423809Y-108687261D01*
X100347619Y-108611071D01*
X100271428Y-108572976D01*
X100119047Y-108534880D01*
X100004761Y-108534880D01*
X99852380Y-108572976D01*
X99776190Y-108611071D01*
X99700000Y-108687261D01*
X99661904Y-108801547D01*
X99661904Y-108877738D01*
X99700000Y-108992023D01*
X99738095Y-109030119D01*
X100385714Y-109830119D02*
X100423809Y-109792023D01*
X100461904Y-109677738D01*
X100461904Y-109601547D01*
X100423809Y-109487261D01*
X100347619Y-109411071D01*
X100271428Y-109372976D01*
X100119047Y-109334880D01*
X100004761Y-109334880D01*
X99852380Y-109372976D01*
X99776190Y-109411071D01*
X99700000Y-109487261D01*
X99661904Y-109601547D01*
X99661904Y-109677738D01*
X99700000Y-109792023D01*
X99738095Y-109830119D01*
X101583333Y-107163452D02*
X101583333Y-107544404D01*
X101811904Y-107087261D02*
X101011904Y-107353928D01*
X101811904Y-107620595D01*
X101011904Y-107772976D02*
X101811904Y-108039642D01*
X101011904Y-108306309D01*
X101735714Y-109030119D02*
X101773809Y-108992023D01*
X101811904Y-108877738D01*
X101811904Y-108801547D01*
X101773809Y-108687261D01*
X101697619Y-108611071D01*
X101621428Y-108572976D01*
X101469047Y-108534880D01*
X101354761Y-108534880D01*
X101202380Y-108572976D01*
X101126190Y-108611071D01*
X101050000Y-108687261D01*
X101011904Y-108801547D01*
X101011904Y-108877738D01*
X101050000Y-108992023D01*
X101088095Y-109030119D01*
X101735714Y-109830119D02*
X101773809Y-109792023D01*
X101811904Y-109677738D01*
X101811904Y-109601547D01*
X101773809Y-109487261D01*
X101697619Y-109411071D01*
X101621428Y-109372976D01*
X101469047Y-109334880D01*
X101354761Y-109334880D01*
X101202380Y-109372976D01*
X101126190Y-109411071D01*
X101050000Y-109487261D01*
X101011904Y-109601547D01*
X101011904Y-109677738D01*
X101050000Y-109792023D01*
X101088095Y-109830119D01*
X102933333Y-107087261D02*
X102933333Y-107468214D01*
X103161904Y-107011071D02*
X102361904Y-107277738D01*
X103161904Y-107544404D01*
X103161904Y-107811071D02*
X102361904Y-107811071D01*
X102361904Y-108001547D01*
X102400000Y-108115833D01*
X102476190Y-108192023D01*
X102552380Y-108230119D01*
X102704761Y-108268214D01*
X102819047Y-108268214D01*
X102971428Y-108230119D01*
X103047619Y-108192023D01*
X103123809Y-108115833D01*
X103161904Y-108001547D01*
X103161904Y-107811071D01*
X103085714Y-109068214D02*
X103123809Y-109030119D01*
X103161904Y-108915833D01*
X103161904Y-108839642D01*
X103123809Y-108725357D01*
X103047619Y-108649166D01*
X102971428Y-108611071D01*
X102819047Y-108572976D01*
X102704761Y-108572976D01*
X102552380Y-108611071D01*
X102476190Y-108649166D01*
X102400000Y-108725357D01*
X102361904Y-108839642D01*
X102361904Y-108915833D01*
X102400000Y-109030119D01*
X102438095Y-109068214D01*
X102361904Y-109334880D02*
X102361904Y-109868214D01*
X103161904Y-109525357D01*
X104511904Y-107811071D02*
X103711904Y-107811071D01*
X103711904Y-108115833D01*
X103750000Y-108192023D01*
X103788095Y-108230119D01*
X103864285Y-108268214D01*
X103978571Y-108268214D01*
X104054761Y-108230119D01*
X104092857Y-108192023D01*
X104130952Y-108115833D01*
X104130952Y-107811071D01*
X104092857Y-108877738D02*
X104130952Y-108992023D01*
X104169047Y-109030119D01*
X104245238Y-109068214D01*
X104359523Y-109068214D01*
X104435714Y-109030119D01*
X104473809Y-108992023D01*
X104511904Y-108915833D01*
X104511904Y-108611071D01*
X103711904Y-108611071D01*
X103711904Y-108877738D01*
X103750000Y-108953928D01*
X103788095Y-108992023D01*
X103864285Y-109030119D01*
X103940476Y-109030119D01*
X104016666Y-108992023D01*
X104054761Y-108953928D01*
X104092857Y-108877738D01*
X104092857Y-108611071D01*
X104511904Y-109830119D02*
X104511904Y-109372976D01*
X104511904Y-109601547D02*
X103711904Y-109601547D01*
X103826190Y-109525357D01*
X103902380Y-109449166D01*
X103940476Y-109372976D01*
X105861904Y-107239642D02*
X105061904Y-107239642D01*
X105633333Y-107506309D01*
X105061904Y-107772976D01*
X105861904Y-107772976D01*
X105061904Y-108306309D02*
X105061904Y-108458690D01*
X105100000Y-108534880D01*
X105176190Y-108611071D01*
X105328571Y-108649166D01*
X105595238Y-108649166D01*
X105747619Y-108611071D01*
X105823809Y-108534880D01*
X105861904Y-108458690D01*
X105861904Y-108306309D01*
X105823809Y-108230119D01*
X105747619Y-108153928D01*
X105595238Y-108115833D01*
X105328571Y-108115833D01*
X105176190Y-108153928D01*
X105100000Y-108230119D01*
X105061904Y-108306309D01*
X105861904Y-108992023D02*
X105061904Y-108992023D01*
X105061904Y-109182500D01*
X105100000Y-109296785D01*
X105176190Y-109372976D01*
X105252380Y-109411071D01*
X105404761Y-109449166D01*
X105519047Y-109449166D01*
X105671428Y-109411071D01*
X105747619Y-109372976D01*
X105823809Y-109296785D01*
X105861904Y-109182500D01*
X105861904Y-108992023D01*
X105861904Y-109792023D02*
X105061904Y-109792023D01*
X107173809Y-107772976D02*
X107211904Y-107887261D01*
X107211904Y-108077738D01*
X107173809Y-108153928D01*
X107135714Y-108192023D01*
X107059523Y-108230119D01*
X106983333Y-108230119D01*
X106907142Y-108192023D01*
X106869047Y-108153928D01*
X106830952Y-108077738D01*
X106792857Y-107925357D01*
X106754761Y-107849166D01*
X106716666Y-107811071D01*
X106640476Y-107772976D01*
X106564285Y-107772976D01*
X106488095Y-107811071D01*
X106450000Y-107849166D01*
X106411904Y-107925357D01*
X106411904Y-108115833D01*
X106450000Y-108230119D01*
X107135714Y-109030119D02*
X107173809Y-108992023D01*
X107211904Y-108877738D01*
X107211904Y-108801547D01*
X107173809Y-108687261D01*
X107097619Y-108611071D01*
X107021428Y-108572976D01*
X106869047Y-108534880D01*
X106754761Y-108534880D01*
X106602380Y-108572976D01*
X106526190Y-108611071D01*
X106450000Y-108687261D01*
X106411904Y-108801547D01*
X106411904Y-108877738D01*
X106450000Y-108992023D01*
X106488095Y-109030119D01*
X107211904Y-109372976D02*
X106411904Y-109372976D01*
X107211904Y-109830119D02*
X106754761Y-109487261D01*
X106411904Y-109830119D02*
X106869047Y-109372976D01*
X109295238Y-121928571D02*
X109152380Y-121976190D01*
X109104761Y-122023809D01*
X109057142Y-122119047D01*
X109057142Y-122261904D01*
X109104761Y-122357142D01*
X109152380Y-122404761D01*
X109247619Y-122452380D01*
X109628571Y-122452380D01*
X109628571Y-121452380D01*
X109295238Y-121452380D01*
X109200000Y-121500000D01*
X109152380Y-121547619D01*
X109104761Y-121642857D01*
X109104761Y-121738095D01*
X109152380Y-121833333D01*
X109200000Y-121880952D01*
X109295238Y-121928571D01*
X109628571Y-121928571D01*
X108628571Y-121452380D02*
X108628571Y-122261904D01*
X108580952Y-122357142D01*
X108533333Y-122404761D01*
X108438095Y-122452380D01*
X108247619Y-122452380D01*
X108152380Y-122404761D01*
X108104761Y-122357142D01*
X108057142Y-122261904D01*
X108057142Y-121452380D01*
X107628571Y-122404761D02*
X107485714Y-122452380D01*
X107247619Y-122452380D01*
X107152380Y-122404761D01*
X107104761Y-122357142D01*
X107057142Y-122261904D01*
X107057142Y-122166666D01*
X107104761Y-122071428D01*
X107152380Y-122023809D01*
X107247619Y-121976190D01*
X107438095Y-121928571D01*
X107533333Y-121880952D01*
X107580952Y-121833333D01*
X107628571Y-121738095D01*
X107628571Y-121642857D01*
X107580952Y-121547619D01*
X107533333Y-121500000D01*
X107438095Y-121452380D01*
X107200000Y-121452380D01*
X107057142Y-121500000D01*
X106628571Y-122071428D02*
X105866666Y-122071428D01*
X105390476Y-122452380D02*
X105390476Y-121452380D01*
X105057142Y-122166666D01*
X104723809Y-121452380D01*
X104723809Y-122452380D01*
X104057142Y-121452380D02*
X103866666Y-121452380D01*
X103771428Y-121500000D01*
X103676190Y-121595238D01*
X103628571Y-121785714D01*
X103628571Y-122119047D01*
X103676190Y-122309523D01*
X103771428Y-122404761D01*
X103866666Y-122452380D01*
X104057142Y-122452380D01*
X104152380Y-122404761D01*
X104247619Y-122309523D01*
X104295238Y-122119047D01*
X104295238Y-121785714D01*
X104247619Y-121595238D01*
X104152380Y-121500000D01*
X104057142Y-121452380D01*
X103200000Y-122452380D02*
X103200000Y-121452380D01*
X102961904Y-121452380D01*
X102819047Y-121500000D01*
X102723809Y-121595238D01*
X102676190Y-121690476D01*
X102628571Y-121880952D01*
X102628571Y-122023809D01*
X102676190Y-122214285D01*
X102723809Y-122309523D01*
X102819047Y-122404761D01*
X102961904Y-122452380D01*
X103200000Y-122452380D01*
X102200000Y-121452380D02*
X102200000Y-122261904D01*
X102152380Y-122357142D01*
X102104761Y-122404761D01*
X102009523Y-122452380D01*
X101819047Y-122452380D01*
X101723809Y-122404761D01*
X101676190Y-122357142D01*
X101628571Y-122261904D01*
X101628571Y-121452380D01*
X100676190Y-122452380D02*
X101152380Y-122452380D01*
X101152380Y-121452380D01*
X100342857Y-121928571D02*
X100009523Y-121928571D01*
X99866666Y-122452380D02*
X100342857Y-122452380D01*
X100342857Y-121452380D01*
X99866666Y-121452380D01*
X98723809Y-122166666D02*
X98247619Y-122166666D01*
X98819047Y-122452380D02*
X98485714Y-121452380D01*
X98152380Y-122452380D01*
X97961904Y-121452380D02*
X97390476Y-121452380D01*
X97676190Y-122452380D02*
X97676190Y-121452380D01*
X97057142Y-122452380D02*
X97057142Y-121452380D01*
X96723809Y-122166666D01*
X96390476Y-121452380D01*
X96390476Y-122452380D01*
X95914285Y-121928571D02*
X95580952Y-121928571D01*
X95438095Y-122452380D02*
X95914285Y-122452380D01*
X95914285Y-121452380D01*
X95438095Y-121452380D01*
X94485714Y-121500000D02*
X94580952Y-121452380D01*
X94723809Y-121452380D01*
X94866666Y-121500000D01*
X94961904Y-121595238D01*
X95009523Y-121690476D01*
X95057142Y-121880952D01*
X95057142Y-122023809D01*
X95009523Y-122214285D01*
X94961904Y-122309523D01*
X94866666Y-122404761D01*
X94723809Y-122452380D01*
X94628571Y-122452380D01*
X94485714Y-122404761D01*
X94438095Y-122357142D01*
X94438095Y-122023809D01*
X94628571Y-122023809D01*
X94057142Y-122166666D02*
X93580952Y-122166666D01*
X94152380Y-122452380D02*
X93819047Y-121452380D01*
X93485714Y-122452380D01*
X93247619Y-121452380D02*
X92628571Y-121452380D01*
X92961904Y-121833333D01*
X92819047Y-121833333D01*
X92723809Y-121880952D01*
X92676190Y-121928571D01*
X92628571Y-122023809D01*
X92628571Y-122261904D01*
X92676190Y-122357142D01*
X92723809Y-122404761D01*
X92819047Y-122452380D01*
X93104761Y-122452380D01*
X93200000Y-122404761D01*
X93247619Y-122357142D01*
X92247619Y-121547619D02*
X92200000Y-121500000D01*
X92104761Y-121452380D01*
X91866666Y-121452380D01*
X91771428Y-121500000D01*
X91723809Y-121547619D01*
X91676190Y-121642857D01*
X91676190Y-121738095D01*
X91723809Y-121880952D01*
X92295238Y-122452380D01*
X91676190Y-122452380D01*
X91104761Y-121880952D02*
X91200000Y-121833333D01*
X91247619Y-121785714D01*
X91295238Y-121690476D01*
X91295238Y-121642857D01*
X91247619Y-121547619D01*
X91200000Y-121500000D01*
X91104761Y-121452380D01*
X90914285Y-121452380D01*
X90819047Y-121500000D01*
X90771428Y-121547619D01*
X90723809Y-121642857D01*
X90723809Y-121690476D01*
X90771428Y-121785714D01*
X90819047Y-121833333D01*
X90914285Y-121880952D01*
X91104761Y-121880952D01*
X91200000Y-121928571D01*
X91247619Y-121976190D01*
X91295238Y-122071428D01*
X91295238Y-122261904D01*
X91247619Y-122357142D01*
X91200000Y-122404761D01*
X91104761Y-122452380D01*
X90914285Y-122452380D01*
X90819047Y-122404761D01*
X90771428Y-122357142D01*
X90723809Y-122261904D01*
X90723809Y-122071428D01*
X90771428Y-121976190D01*
X90819047Y-121928571D01*
X90914285Y-121880952D01*
X99725000Y-89832023D02*
X99686904Y-89755833D01*
X99686904Y-89641547D01*
X99725000Y-89527261D01*
X99801190Y-89451071D01*
X99877380Y-89412976D01*
X100029761Y-89374880D01*
X100144047Y-89374880D01*
X100296428Y-89412976D01*
X100372619Y-89451071D01*
X100448809Y-89527261D01*
X100486904Y-89641547D01*
X100486904Y-89717738D01*
X100448809Y-89832023D01*
X100410714Y-89870119D01*
X100144047Y-89870119D01*
X100144047Y-89717738D01*
X100486904Y-90212976D02*
X99686904Y-90212976D01*
X100486904Y-90670119D01*
X99686904Y-90670119D01*
X100486904Y-91051071D02*
X99686904Y-91051071D01*
X99686904Y-91241547D01*
X99725000Y-91355833D01*
X99801190Y-91432023D01*
X99877380Y-91470119D01*
X100029761Y-91508214D01*
X100144047Y-91508214D01*
X100296428Y-91470119D01*
X100372619Y-91432023D01*
X100448809Y-91355833D01*
X100486904Y-91241547D01*
X100486904Y-91051071D01*
X101036904Y-89298690D02*
X101836904Y-89565357D01*
X101036904Y-89832023D01*
X101760714Y-90555833D02*
X101798809Y-90517738D01*
X101836904Y-90403452D01*
X101836904Y-90327261D01*
X101798809Y-90212976D01*
X101722619Y-90136785D01*
X101646428Y-90098690D01*
X101494047Y-90060595D01*
X101379761Y-90060595D01*
X101227380Y-90098690D01*
X101151190Y-90136785D01*
X101075000Y-90212976D01*
X101036904Y-90327261D01*
X101036904Y-90403452D01*
X101075000Y-90517738D01*
X101113095Y-90555833D01*
X101760714Y-91355833D02*
X101798809Y-91317738D01*
X101836904Y-91203452D01*
X101836904Y-91127261D01*
X101798809Y-91012976D01*
X101722619Y-90936785D01*
X101646428Y-90898690D01*
X101494047Y-90860595D01*
X101379761Y-90860595D01*
X101227380Y-90898690D01*
X101151190Y-90936785D01*
X101075000Y-91012976D01*
X101036904Y-91127261D01*
X101036904Y-91203452D01*
X101075000Y-91317738D01*
X101113095Y-91355833D01*
X103186904Y-89412976D02*
X102386904Y-89412976D01*
X102386904Y-89717738D01*
X102425000Y-89793928D01*
X102463095Y-89832023D01*
X102539285Y-89870119D01*
X102653571Y-89870119D01*
X102729761Y-89832023D01*
X102767857Y-89793928D01*
X102805952Y-89717738D01*
X102805952Y-89412976D01*
X103110714Y-90670119D02*
X103148809Y-90632023D01*
X103186904Y-90517738D01*
X103186904Y-90441547D01*
X103148809Y-90327261D01*
X103072619Y-90251071D01*
X102996428Y-90212976D01*
X102844047Y-90174880D01*
X102729761Y-90174880D01*
X102577380Y-90212976D01*
X102501190Y-90251071D01*
X102425000Y-90327261D01*
X102386904Y-90441547D01*
X102386904Y-90517738D01*
X102425000Y-90632023D01*
X102463095Y-90670119D01*
X103186904Y-91432023D02*
X103186904Y-90974880D01*
X103186904Y-91203452D02*
X102386904Y-91203452D01*
X102501190Y-91127261D01*
X102577380Y-91051071D01*
X102615476Y-90974880D01*
X104536904Y-89412976D02*
X103736904Y-89412976D01*
X103736904Y-89717738D01*
X103775000Y-89793928D01*
X103813095Y-89832023D01*
X103889285Y-89870119D01*
X104003571Y-89870119D01*
X104079761Y-89832023D01*
X104117857Y-89793928D01*
X104155952Y-89717738D01*
X104155952Y-89412976D01*
X104460714Y-90670119D02*
X104498809Y-90632023D01*
X104536904Y-90517738D01*
X104536904Y-90441547D01*
X104498809Y-90327261D01*
X104422619Y-90251071D01*
X104346428Y-90212976D01*
X104194047Y-90174880D01*
X104079761Y-90174880D01*
X103927380Y-90212976D01*
X103851190Y-90251071D01*
X103775000Y-90327261D01*
X103736904Y-90441547D01*
X103736904Y-90517738D01*
X103775000Y-90632023D01*
X103813095Y-90670119D01*
X103736904Y-90936785D02*
X103736904Y-91432023D01*
X104041666Y-91165357D01*
X104041666Y-91279642D01*
X104079761Y-91355833D01*
X104117857Y-91393928D01*
X104194047Y-91432023D01*
X104384523Y-91432023D01*
X104460714Y-91393928D01*
X104498809Y-91355833D01*
X104536904Y-91279642D01*
X104536904Y-91051071D01*
X104498809Y-90974880D01*
X104460714Y-90936785D01*
X105886904Y-89412976D02*
X105086904Y-89412976D01*
X105086904Y-89717738D01*
X105125000Y-89793928D01*
X105163095Y-89832023D01*
X105239285Y-89870119D01*
X105353571Y-89870119D01*
X105429761Y-89832023D01*
X105467857Y-89793928D01*
X105505952Y-89717738D01*
X105505952Y-89412976D01*
X105810714Y-90670119D02*
X105848809Y-90632023D01*
X105886904Y-90517738D01*
X105886904Y-90441547D01*
X105848809Y-90327261D01*
X105772619Y-90251071D01*
X105696428Y-90212976D01*
X105544047Y-90174880D01*
X105429761Y-90174880D01*
X105277380Y-90212976D01*
X105201190Y-90251071D01*
X105125000Y-90327261D01*
X105086904Y-90441547D01*
X105086904Y-90517738D01*
X105125000Y-90632023D01*
X105163095Y-90670119D01*
X105086904Y-91393928D02*
X105086904Y-91012976D01*
X105467857Y-90974880D01*
X105429761Y-91012976D01*
X105391666Y-91089166D01*
X105391666Y-91279642D01*
X105429761Y-91355833D01*
X105467857Y-91393928D01*
X105544047Y-91432023D01*
X105734523Y-91432023D01*
X105810714Y-91393928D01*
X105848809Y-91355833D01*
X105886904Y-91279642D01*
X105886904Y-91089166D01*
X105848809Y-91012976D01*
X105810714Y-90974880D01*
X106703571Y-89412976D02*
X107236904Y-89412976D01*
X106779761Y-89412976D02*
X106741666Y-89451071D01*
X106703571Y-89527261D01*
X106703571Y-89641547D01*
X106741666Y-89717738D01*
X106817857Y-89755833D01*
X107236904Y-89755833D01*
X107198809Y-90479642D02*
X107236904Y-90403452D01*
X107236904Y-90251071D01*
X107198809Y-90174880D01*
X107160714Y-90136785D01*
X107084523Y-90098690D01*
X106855952Y-90098690D01*
X106779761Y-90136785D01*
X106741666Y-90174880D01*
X106703571Y-90251071D01*
X106703571Y-90403452D01*
X106741666Y-90479642D01*
X108586904Y-89412976D02*
X107786904Y-89412976D01*
X107786904Y-89717738D01*
X107825000Y-89793928D01*
X107863095Y-89832023D01*
X107939285Y-89870119D01*
X108053571Y-89870119D01*
X108129761Y-89832023D01*
X108167857Y-89793928D01*
X108205952Y-89717738D01*
X108205952Y-89412976D01*
X108586904Y-90212976D02*
X107786904Y-90212976D01*
X107786904Y-90403452D01*
X107825000Y-90517738D01*
X107901190Y-90593928D01*
X107977380Y-90632023D01*
X108129761Y-90670119D01*
X108244047Y-90670119D01*
X108396428Y-90632023D01*
X108472619Y-90593928D01*
X108548809Y-90517738D01*
X108586904Y-90403452D01*
X108586904Y-90212976D01*
X108053571Y-91355833D02*
X108586904Y-91355833D01*
X107748809Y-91165357D02*
X108320238Y-90974880D01*
X108320238Y-91470119D01*
X109936904Y-89412976D02*
X109136904Y-89412976D01*
X109136904Y-89717738D01*
X109175000Y-89793928D01*
X109213095Y-89832023D01*
X109289285Y-89870119D01*
X109403571Y-89870119D01*
X109479761Y-89832023D01*
X109517857Y-89793928D01*
X109555952Y-89717738D01*
X109555952Y-89412976D01*
X109936904Y-90212976D02*
X109136904Y-90212976D01*
X109136904Y-90403452D01*
X109175000Y-90517738D01*
X109251190Y-90593928D01*
X109327380Y-90632023D01*
X109479761Y-90670119D01*
X109594047Y-90670119D01*
X109746428Y-90632023D01*
X109822619Y-90593928D01*
X109898809Y-90517738D01*
X109936904Y-90403452D01*
X109936904Y-90212976D01*
X109136904Y-91355833D02*
X109136904Y-91203452D01*
X109175000Y-91127261D01*
X109213095Y-91089166D01*
X109327380Y-91012976D01*
X109479761Y-90974880D01*
X109784523Y-90974880D01*
X109860714Y-91012976D01*
X109898809Y-91051071D01*
X109936904Y-91127261D01*
X109936904Y-91279642D01*
X109898809Y-91355833D01*
X109860714Y-91393928D01*
X109784523Y-91432023D01*
X109594047Y-91432023D01*
X109517857Y-91393928D01*
X109479761Y-91355833D01*
X109441666Y-91279642D01*
X109441666Y-91127261D01*
X109479761Y-91051071D01*
X109517857Y-91012976D01*
X109594047Y-90974880D01*
X110753571Y-89412976D02*
X111286904Y-89412976D01*
X110829761Y-89412976D02*
X110791666Y-89451071D01*
X110753571Y-89527261D01*
X110753571Y-89641547D01*
X110791666Y-89717738D01*
X110867857Y-89755833D01*
X111286904Y-89755833D01*
X111248809Y-90479642D02*
X111286904Y-90403452D01*
X111286904Y-90251071D01*
X111248809Y-90174880D01*
X111210714Y-90136785D01*
X111134523Y-90098690D01*
X110905952Y-90098690D01*
X110829761Y-90136785D01*
X110791666Y-90174880D01*
X110753571Y-90251071D01*
X110753571Y-90403452D01*
X110791666Y-90479642D01*
X112103571Y-89412976D02*
X112636904Y-89412976D01*
X112179761Y-89412976D02*
X112141666Y-89451071D01*
X112103571Y-89527261D01*
X112103571Y-89641547D01*
X112141666Y-89717738D01*
X112217857Y-89755833D01*
X112636904Y-89755833D01*
X112598809Y-90479642D02*
X112636904Y-90403452D01*
X112636904Y-90251071D01*
X112598809Y-90174880D01*
X112560714Y-90136785D01*
X112484523Y-90098690D01*
X112255952Y-90098690D01*
X112179761Y-90136785D01*
X112141666Y-90174880D01*
X112103571Y-90251071D01*
X112103571Y-90403452D01*
X112141666Y-90479642D01*
G04 #@! TO.C,C9*
X99398940Y-103901060D02*
X101400460Y-103901060D01*
X104199540Y-103901060D02*
X106201060Y-103901060D01*
X105200300Y-97098940D02*
X106201060Y-98099700D01*
X106201060Y-98099700D02*
X106201060Y-103901060D01*
X105200300Y-97098940D02*
X104199540Y-97098940D01*
X99398940Y-98099700D02*
X99398940Y-103901060D01*
X100399700Y-97098940D02*
X99398940Y-98099700D01*
X101400460Y-97098940D02*
X100399700Y-97098940D01*
X101400460Y-95999120D02*
X100399700Y-95999120D01*
X100900080Y-96499500D02*
X100900080Y-95498740D01*
G04 #@! TO.C,C8*
X91976000Y-89262000D02*
X92992000Y-89262000D01*
X91976000Y-87738000D02*
X91976000Y-89262000D01*
X92992000Y-87738000D02*
X91976000Y-87738000D01*
X95024000Y-87738000D02*
X94008000Y-87738000D01*
X95024000Y-89262000D02*
X95024000Y-87738000D01*
X94008000Y-89262000D02*
X95024000Y-89262000D01*
G04 #@! TO.C,U4*
X93095000Y-95417000D02*
X96905000Y-95417000D01*
X95508000Y-90591000D02*
X95508000Y-90083000D01*
X94492000Y-90591000D02*
X95508000Y-90591000D01*
X94492000Y-90083000D02*
X94492000Y-90591000D01*
X93095000Y-90083000D02*
X96778000Y-90083000D01*
X93095000Y-95417000D02*
X93095000Y-90083000D01*
X96905000Y-90083000D02*
X96905000Y-95417000D01*
X96778000Y-90083000D02*
X96905000Y-90083000D01*
G04 #@! TO.C,U5*
X97576000Y-108782000D02*
X91480000Y-108782000D01*
X97576000Y-97098000D02*
X97576000Y-108782000D01*
X91480000Y-97098000D02*
X97576000Y-97098000D01*
X91480000Y-108782000D02*
X91480000Y-97098000D01*
G04 #@! TO.C,J3*
X113520000Y-110940000D02*
X108440000Y-110940000D01*
X113520000Y-118560000D02*
X113520000Y-110940000D01*
X108440000Y-118560000D02*
X113520000Y-118560000D01*
X108440000Y-110940000D02*
X108440000Y-118560000D01*
G04 #@! TO.C,J6*
X80190000Y-97809600D02*
X80190000Y-103550000D01*
X90654800Y-103550000D02*
X90654800Y-97809600D01*
X86133600Y-102534000D02*
X86641600Y-103550000D01*
X89664200Y-102534000D02*
X86133600Y-102534000D01*
X89156200Y-103550000D02*
X89664200Y-102534000D01*
X86133600Y-96793600D02*
X86641600Y-97809600D01*
X89664200Y-96793600D02*
X86133600Y-96793600D01*
X89156200Y-97809600D02*
X89664200Y-96793600D01*
X90654800Y-103550000D02*
X89156200Y-103550000D01*
X80190000Y-103550000D02*
X86641600Y-103550000D01*
X90654800Y-97809600D02*
X89156200Y-97809600D01*
X80190000Y-97809600D02*
X86641600Y-97809600D01*
G04 #@! TO.C,J8*
X80190000Y-86209600D02*
X80190000Y-91950000D01*
X90654800Y-91950000D02*
X90654800Y-86209600D01*
X86133600Y-90934000D02*
X86641600Y-91950000D01*
X89664200Y-90934000D02*
X86133600Y-90934000D01*
X89156200Y-91950000D02*
X89664200Y-90934000D01*
X86133600Y-85193600D02*
X86641600Y-86209600D01*
X89664200Y-85193600D02*
X86133600Y-85193600D01*
X89156200Y-86209600D02*
X89664200Y-85193600D01*
X90654800Y-91950000D02*
X89156200Y-91950000D01*
X80190000Y-91950000D02*
X86641600Y-91950000D01*
X90654800Y-86209600D02*
X89156200Y-86209600D01*
X80190000Y-86209600D02*
X86641600Y-86209600D01*
G04 #@! TO.C,J7*
X80190000Y-92009600D02*
X80190000Y-97750000D01*
X90654800Y-97750000D02*
X90654800Y-92009600D01*
X86133600Y-96734000D02*
X86641600Y-97750000D01*
X89664200Y-96734000D02*
X86133600Y-96734000D01*
X89156200Y-97750000D02*
X89664200Y-96734000D01*
X86133600Y-90993600D02*
X86641600Y-92009600D01*
X89664200Y-90993600D02*
X86133600Y-90993600D01*
X89156200Y-92009600D02*
X89664200Y-90993600D01*
X90654800Y-97750000D02*
X89156200Y-97750000D01*
X80190000Y-97750000D02*
X86641600Y-97750000D01*
X90654800Y-92009600D02*
X89156200Y-92009600D01*
X80190000Y-92009600D02*
X86641600Y-92009600D01*
G04 #@! TO.C,J5*
X80190000Y-103609600D02*
X80190000Y-109350000D01*
X90654800Y-109350000D02*
X90654800Y-103609600D01*
X86133600Y-108334000D02*
X86641600Y-109350000D01*
X89664200Y-108334000D02*
X86133600Y-108334000D01*
X89156200Y-109350000D02*
X89664200Y-108334000D01*
X86133600Y-102593600D02*
X86641600Y-103609600D01*
X89664200Y-102593600D02*
X86133600Y-102593600D01*
X89156200Y-103609600D02*
X89664200Y-102593600D01*
X90654800Y-109350000D02*
X89156200Y-109350000D01*
X80190000Y-109350000D02*
X86641600Y-109350000D01*
X90654800Y-103609600D02*
X89156200Y-103609600D01*
X80190000Y-103609600D02*
X86641600Y-103609600D01*
G04 #@! TO.C,LOGO1*
X108931220Y-99889860D02*
X108570540Y-101360520D01*
X108570540Y-101360520D02*
X108291140Y-100298800D01*
X108291140Y-100298800D02*
X107981260Y-101370680D01*
X107981260Y-101370680D02*
X107640900Y-99920340D01*
X110351080Y-100580740D02*
X109561140Y-100570580D01*
X109561140Y-100570580D02*
X109550980Y-100580740D01*
X109550980Y-100580740D02*
X109550980Y-100570580D01*
X109510340Y-99859380D02*
X109510340Y-101401160D01*
X110399340Y-99849220D02*
X110399340Y-101418940D01*
X110399340Y-101418940D02*
X110389180Y-101408780D01*
X110950520Y-99950820D02*
X111301040Y-99869540D01*
X111301040Y-99869540D02*
X111621080Y-99859380D01*
X111621080Y-99859380D02*
X111859840Y-100060040D01*
X111859840Y-100060040D02*
X111890320Y-100329280D01*
X111890320Y-100329280D02*
X111649020Y-100570580D01*
X111649020Y-100570580D02*
X111260400Y-100700120D01*
X111260400Y-100700120D02*
X111080060Y-100860140D01*
X111080060Y-100860140D02*
X111039420Y-101159860D01*
X111039420Y-101159860D02*
X111270560Y-101380840D01*
X111270560Y-101380840D02*
X111590600Y-101408780D01*
X111590600Y-101408780D02*
X111941120Y-101299560D01*
X112979980Y-99849220D02*
X113228900Y-99869540D01*
X113228900Y-99869540D02*
X113470200Y-100110840D01*
X113470200Y-100110840D02*
X113559100Y-100601060D01*
X113559100Y-100601060D02*
X113531160Y-100949040D01*
X113531160Y-100949040D02*
X113330500Y-101269080D01*
X113330500Y-101269080D02*
X113079040Y-101391000D01*
X113079040Y-101391000D02*
X112769160Y-101319880D01*
X112769160Y-101319880D02*
X112550720Y-101139540D01*
X112550720Y-101139540D02*
X112479600Y-100679800D01*
X112479600Y-100679800D02*
X112530400Y-100270860D01*
X112530400Y-100270860D02*
X112639620Y-99988920D01*
X112639620Y-99988920D02*
X113000300Y-99859380D01*
X112380540Y-98129640D02*
X112639620Y-98690980D01*
X112639620Y-98690980D02*
X112101140Y-99209140D01*
X112101140Y-99209140D02*
X111580440Y-98939900D01*
X111580440Y-98939900D02*
X111301040Y-99099920D01*
X109860860Y-99079600D02*
X109530660Y-98889100D01*
X109530660Y-98889100D02*
X109091240Y-99219300D01*
X109091240Y-99219300D02*
X108618800Y-98729080D01*
X108618800Y-98729080D02*
X108900740Y-98249020D01*
X108900740Y-98249020D02*
X108710240Y-97779120D01*
X108710240Y-97779120D02*
X108100640Y-97591160D01*
X108100640Y-97591160D02*
X108100640Y-96910440D01*
X108100640Y-96910440D02*
X108659440Y-96770740D01*
X108659440Y-96770740D02*
X108860100Y-96199240D01*
X108860100Y-96199240D02*
X108590860Y-95729340D01*
X108590860Y-95729340D02*
X109060760Y-95218800D01*
X109060760Y-95218800D02*
X109578920Y-95480420D01*
X109578920Y-95480420D02*
X110048820Y-95279760D01*
X110048820Y-95279760D02*
X110219000Y-94738740D01*
X110219000Y-94738740D02*
X110909880Y-94720960D01*
X110909880Y-94720960D02*
X111120700Y-95269600D01*
X111120700Y-95269600D02*
X111539800Y-95439780D01*
X111539800Y-95439780D02*
X112090980Y-95170540D01*
X112090980Y-95170540D02*
X112609140Y-95698860D01*
X112609140Y-95698860D02*
X112360220Y-96239880D01*
X112360220Y-96239880D02*
X112530400Y-96719940D01*
X112530400Y-96719940D02*
X113079040Y-96819000D01*
X113079040Y-96819000D02*
X113089200Y-97520040D01*
X113089200Y-97520040D02*
X112530400Y-97720700D01*
X112530400Y-97720700D02*
X112390700Y-98119480D01*
X110249480Y-98099160D02*
X109949760Y-97949300D01*
X109949760Y-97949300D02*
X109749100Y-97751180D01*
X109749100Y-97751180D02*
X109599240Y-97349860D01*
X109599240Y-97349860D02*
X109599240Y-96951080D01*
X109599240Y-96951080D02*
X109749100Y-96600560D01*
X109749100Y-96600560D02*
X110201220Y-96250040D01*
X110201220Y-96250040D02*
X110650800Y-96199240D01*
X110650800Y-96199240D02*
X111049580Y-96300840D01*
X111049580Y-96300840D02*
X111450900Y-96648820D01*
X111450900Y-96648820D02*
X111600760Y-97100940D01*
X111600760Y-97100940D02*
X111549960Y-97598780D01*
X111549960Y-97598780D02*
X111301040Y-97901040D01*
X111301040Y-97901040D02*
X110950520Y-98099160D01*
X110950520Y-98099160D02*
X111301040Y-99099920D01*
X110249480Y-98099160D02*
X109850700Y-99099920D01*
G04 #@! TO.C,C9*
X102933333Y-94285854D02*
X102971428Y-94323949D01*
X103085714Y-94362044D01*
X103161904Y-94362044D01*
X103276190Y-94323949D01*
X103352380Y-94247759D01*
X103390476Y-94171568D01*
X103428571Y-94019187D01*
X103428571Y-93904901D01*
X103390476Y-93752520D01*
X103352380Y-93676330D01*
X103276190Y-93600140D01*
X103161904Y-93562044D01*
X103085714Y-93562044D01*
X102971428Y-93600140D01*
X102933333Y-93638235D01*
X102552380Y-94362044D02*
X102400000Y-94362044D01*
X102323809Y-94323949D01*
X102285714Y-94285854D01*
X102209523Y-94171568D01*
X102171428Y-94019187D01*
X102171428Y-93714425D01*
X102209523Y-93638235D01*
X102247619Y-93600140D01*
X102323809Y-93562044D01*
X102476190Y-93562044D01*
X102552380Y-93600140D01*
X102590476Y-93638235D01*
X102628571Y-93714425D01*
X102628571Y-93904901D01*
X102590476Y-93981092D01*
X102552380Y-94019187D01*
X102476190Y-94057282D01*
X102323809Y-94057282D01*
X102247619Y-94019187D01*
X102209523Y-93981092D01*
X102171428Y-93904901D01*
G04 #@! TO.C,C8*
X93633333Y-87388714D02*
X93671428Y-87426809D01*
X93785714Y-87464904D01*
X93861904Y-87464904D01*
X93976190Y-87426809D01*
X94052380Y-87350619D01*
X94090476Y-87274428D01*
X94128571Y-87122047D01*
X94128571Y-87007761D01*
X94090476Y-86855380D01*
X94052380Y-86779190D01*
X93976190Y-86703000D01*
X93861904Y-86664904D01*
X93785714Y-86664904D01*
X93671428Y-86703000D01*
X93633333Y-86741095D01*
X93176190Y-87007761D02*
X93252380Y-86969666D01*
X93290476Y-86931571D01*
X93328571Y-86855380D01*
X93328571Y-86817285D01*
X93290476Y-86741095D01*
X93252380Y-86703000D01*
X93176190Y-86664904D01*
X93023809Y-86664904D01*
X92947619Y-86703000D01*
X92909523Y-86741095D01*
X92871428Y-86817285D01*
X92871428Y-86855380D01*
X92909523Y-86931571D01*
X92947619Y-86969666D01*
X93023809Y-87007761D01*
X93176190Y-87007761D01*
X93252380Y-87045857D01*
X93290476Y-87083952D01*
X93328571Y-87160142D01*
X93328571Y-87312523D01*
X93290476Y-87388714D01*
X93252380Y-87426809D01*
X93176190Y-87464904D01*
X93023809Y-87464904D01*
X92947619Y-87426809D01*
X92909523Y-87388714D01*
X92871428Y-87312523D01*
X92871428Y-87160142D01*
X92909523Y-87083952D01*
X92947619Y-87045857D01*
X93023809Y-87007761D01*
G04 #@! TO.C,U4*
X98361904Y-88252380D02*
X98361904Y-89061904D01*
X98314285Y-89157142D01*
X98266666Y-89204761D01*
X98171428Y-89252380D01*
X97980952Y-89252380D01*
X97885714Y-89204761D01*
X97838095Y-89157142D01*
X97790476Y-89061904D01*
X97790476Y-88252380D01*
X96885714Y-88585714D02*
X96885714Y-89252380D01*
X97123809Y-88204761D02*
X97361904Y-88919047D01*
X96742857Y-88919047D01*
G04 #@! TO.C,U5*
X99761904Y-105722380D02*
X99761904Y-106531904D01*
X99714285Y-106627142D01*
X99666666Y-106674761D01*
X99571428Y-106722380D01*
X99380952Y-106722380D01*
X99285714Y-106674761D01*
X99238095Y-106627142D01*
X99190476Y-106531904D01*
X99190476Y-105722380D01*
X98238095Y-105722380D02*
X98714285Y-105722380D01*
X98761904Y-106198571D01*
X98714285Y-106150952D01*
X98619047Y-106103333D01*
X98380952Y-106103333D01*
X98285714Y-106150952D01*
X98238095Y-106198571D01*
X98190476Y-106293809D01*
X98190476Y-106531904D01*
X98238095Y-106627142D01*
X98285714Y-106674761D01*
X98380952Y-106722380D01*
X98619047Y-106722380D01*
X98714285Y-106674761D01*
X98761904Y-106627142D01*
G04 #@! TO.C,J3*
X111333333Y-109252380D02*
X111333333Y-109966666D01*
X111380952Y-110109523D01*
X111476190Y-110204761D01*
X111619047Y-110252380D01*
X111714285Y-110252380D01*
X110952380Y-109252380D02*
X110333333Y-109252380D01*
X110666666Y-109633333D01*
X110523809Y-109633333D01*
X110428571Y-109680952D01*
X110380952Y-109728571D01*
X110333333Y-109823809D01*
X110333333Y-110061904D01*
X110380952Y-110157142D01*
X110428571Y-110204761D01*
X110523809Y-110252380D01*
X110809523Y-110252380D01*
X110904761Y-110204761D01*
X110952380Y-110157142D01*
G04 #@! TO.C,J6*
X88288133Y-97802380D02*
X88288133Y-98516666D01*
X88335752Y-98659523D01*
X88430990Y-98754761D01*
X88573847Y-98802380D01*
X88669085Y-98802380D01*
X87383371Y-97802380D02*
X87573847Y-97802380D01*
X87669085Y-97850000D01*
X87716704Y-97897619D01*
X87811942Y-98040476D01*
X87859561Y-98230952D01*
X87859561Y-98611904D01*
X87811942Y-98707142D01*
X87764323Y-98754761D01*
X87669085Y-98802380D01*
X87478609Y-98802380D01*
X87383371Y-98754761D01*
X87335752Y-98707142D01*
X87288133Y-98611904D01*
X87288133Y-98373809D01*
X87335752Y-98278571D01*
X87383371Y-98230952D01*
X87478609Y-98183333D01*
X87669085Y-98183333D01*
X87764323Y-98230952D01*
X87811942Y-98278571D01*
X87859561Y-98373809D01*
G04 #@! TO.C,J8*
X88288133Y-86302380D02*
X88288133Y-87016666D01*
X88335752Y-87159523D01*
X88430990Y-87254761D01*
X88573847Y-87302380D01*
X88669085Y-87302380D01*
X87669085Y-86730952D02*
X87764323Y-86683333D01*
X87811942Y-86635714D01*
X87859561Y-86540476D01*
X87859561Y-86492857D01*
X87811942Y-86397619D01*
X87764323Y-86350000D01*
X87669085Y-86302380D01*
X87478609Y-86302380D01*
X87383371Y-86350000D01*
X87335752Y-86397619D01*
X87288133Y-86492857D01*
X87288133Y-86540476D01*
X87335752Y-86635714D01*
X87383371Y-86683333D01*
X87478609Y-86730952D01*
X87669085Y-86730952D01*
X87764323Y-86778571D01*
X87811942Y-86826190D01*
X87859561Y-86921428D01*
X87859561Y-87111904D01*
X87811942Y-87207142D01*
X87764323Y-87254761D01*
X87669085Y-87302380D01*
X87478609Y-87302380D01*
X87383371Y-87254761D01*
X87335752Y-87207142D01*
X87288133Y-87111904D01*
X87288133Y-86921428D01*
X87335752Y-86826190D01*
X87383371Y-86778571D01*
X87478609Y-86730952D01*
G04 #@! TO.C,J7*
X88288133Y-92152380D02*
X88288133Y-92866666D01*
X88335752Y-93009523D01*
X88430990Y-93104761D01*
X88573847Y-93152380D01*
X88669085Y-93152380D01*
X87907180Y-92152380D02*
X87240514Y-92152380D01*
X87669085Y-93152380D01*
G04 #@! TO.C,J5*
X88288133Y-103652380D02*
X88288133Y-104366666D01*
X88335752Y-104509523D01*
X88430990Y-104604761D01*
X88573847Y-104652380D01*
X88669085Y-104652380D01*
X87335752Y-103652380D02*
X87811942Y-103652380D01*
X87859561Y-104128571D01*
X87811942Y-104080952D01*
X87716704Y-104033333D01*
X87478609Y-104033333D01*
X87383371Y-104080952D01*
X87335752Y-104128571D01*
X87288133Y-104223809D01*
X87288133Y-104461904D01*
X87335752Y-104557142D01*
X87383371Y-104604761D01*
X87478609Y-104652380D01*
X87716704Y-104652380D01*
X87811942Y-104604761D01*
X87859561Y-104557142D01*
G04 #@! TD*
M02*
