%TF.GenerationSoftware,KiCad,Pcbnew,6.0.11-2627ca5db0~126~ubuntu22.04.1*%
%TF.CreationDate,2023-12-06T10:35:29+01:00*%
%TF.ProjectId,bus-module_atmega328,6275732d-6d6f-4647-956c-655f61746d65,C*%
%TF.SameCoordinates,Original*%
%TF.FileFunction,Drillmap*%
%TF.FilePolarity,Positive*%
%FSLAX45Y45*%
G04 Gerber Fmt 4.5, Leading zero omitted, Abs format (unit mm)*
G04 Created by KiCad (PCBNEW 6.0.11-2627ca5db0~126~ubuntu22.04.1) date 2023-12-06 10:35:29*
%MOMM*%
%LPD*%
G01*
G04 APERTURE LIST*
%ADD10C,0.100000*%
%ADD11C,0.200000*%
G04 APERTURE END LIST*
D10*
X9300000Y-7600000D02*
X10699302Y-7599797D01*
X9300000Y-7600000D02*
G75*
G03*
X8500106Y-7999921I700000J-2400000D01*
G01*
X10700000Y-12400000D02*
X9299632Y-12399893D01*
X8500000Y-8600000D02*
X8000000Y-8600000D01*
X11500000Y-8000000D02*
X11500423Y-11999683D01*
X8500106Y-7999921D02*
X8500000Y-8600000D01*
X8000000Y-10950000D02*
X8500000Y-10950000D01*
X8500000Y-12000000D02*
X8500000Y-10950000D01*
X11500000Y-8000000D02*
G75*
G03*
X10699302Y-7599797I-1500000J-2000000D01*
G01*
X8500000Y-12000000D02*
G75*
G03*
X9299632Y-12399893I1500000J2000000D01*
G01*
X8000000Y-8600000D02*
X8000000Y-10950000D01*
X10700000Y-12400000D02*
G75*
G03*
X11500423Y-11999683I-700000J2400000D01*
G01*
D11*
X8252619Y-12715476D02*
X8252619Y-12515476D01*
X8300238Y-12515476D01*
X8328809Y-12525000D01*
X8347857Y-12544048D01*
X8357381Y-12563095D01*
X8366905Y-12601190D01*
X8366905Y-12629762D01*
X8357381Y-12667857D01*
X8347857Y-12686905D01*
X8328809Y-12705952D01*
X8300238Y-12715476D01*
X8252619Y-12715476D01*
X8452619Y-12715476D02*
X8452619Y-12582143D01*
X8452619Y-12620238D02*
X8462143Y-12601190D01*
X8471667Y-12591667D01*
X8490714Y-12582143D01*
X8509762Y-12582143D01*
X8576429Y-12715476D02*
X8576429Y-12582143D01*
X8576429Y-12515476D02*
X8566905Y-12525000D01*
X8576429Y-12534524D01*
X8585952Y-12525000D01*
X8576429Y-12515476D01*
X8576429Y-12534524D01*
X8700238Y-12715476D02*
X8681190Y-12705952D01*
X8671667Y-12686905D01*
X8671667Y-12515476D01*
X8805000Y-12715476D02*
X8785952Y-12705952D01*
X8776429Y-12686905D01*
X8776429Y-12515476D01*
X9033571Y-12715476D02*
X9033571Y-12515476D01*
X9100238Y-12658333D01*
X9166905Y-12515476D01*
X9166905Y-12715476D01*
X9347857Y-12715476D02*
X9347857Y-12610714D01*
X9338333Y-12591667D01*
X9319286Y-12582143D01*
X9281190Y-12582143D01*
X9262143Y-12591667D01*
X9347857Y-12705952D02*
X9328810Y-12715476D01*
X9281190Y-12715476D01*
X9262143Y-12705952D01*
X9252619Y-12686905D01*
X9252619Y-12667857D01*
X9262143Y-12648809D01*
X9281190Y-12639286D01*
X9328810Y-12639286D01*
X9347857Y-12629762D01*
X9443095Y-12582143D02*
X9443095Y-12782143D01*
X9443095Y-12591667D02*
X9462143Y-12582143D01*
X9500238Y-12582143D01*
X9519286Y-12591667D01*
X9528810Y-12601190D01*
X9538333Y-12620238D01*
X9538333Y-12677381D01*
X9528810Y-12696428D01*
X9519286Y-12705952D01*
X9500238Y-12715476D01*
X9462143Y-12715476D01*
X9443095Y-12705952D01*
X9624048Y-12696428D02*
X9633571Y-12705952D01*
X9624048Y-12715476D01*
X9614524Y-12705952D01*
X9624048Y-12696428D01*
X9624048Y-12715476D01*
X9624048Y-12591667D02*
X9633571Y-12601190D01*
X9624048Y-12610714D01*
X9614524Y-12601190D01*
X9624048Y-12591667D01*
X9624048Y-12610714D01*
M02*
