G04 #@! TF.GenerationSoftware,KiCad,Pcbnew,5.0.0-fee4fd1~66~ubuntu16.04.1*
G04 #@! TF.CreationDate,2018-09-24T17:41:17+02:00*
G04 #@! TF.ProjectId,bus-module_atmega328,6275732D6D6F64756C655F61746D6567,B*
G04 #@! TF.SameCoordinates,Original*
G04 #@! TF.FileFunction,Legend,Top*
G04 #@! TF.FilePolarity,Positive*
%FSLAX46Y46*%
G04 Gerber Fmt 4.6, Leading zero omitted, Abs format (unit mm)*
G04 Created by KiCad (PCBNEW 5.0.0-fee4fd1~66~ubuntu16.04.1) date Mon Sep 24 17:41:17 2018*
%MOMM*%
%LPD*%
G01*
G04 APERTURE LIST*
%ADD10C,0.150000*%
%ADD11C,0.254000*%
G04 APERTURE END LIST*
D10*
G04 #@! TO.C,L1*
X105339000Y-105508000D02*
X105339000Y-106524000D01*
X103815000Y-105508000D02*
X105339000Y-105508000D01*
X103815000Y-106524000D02*
X103815000Y-105508000D01*
X103815000Y-108556000D02*
X103815000Y-107540000D01*
X105339000Y-108556000D02*
X103815000Y-108556000D01*
X105339000Y-107540000D02*
X105339000Y-108556000D01*
G04 #@! TO.C,C3*
X97976965Y-93500666D02*
X97258545Y-94219086D01*
X96899334Y-92423035D02*
X97976965Y-93500666D01*
X96180914Y-93141455D02*
X96899334Y-92423035D01*
X94744073Y-94578296D02*
X95462493Y-93859876D01*
X95821704Y-95655927D02*
X94744073Y-94578296D01*
X96540124Y-94937507D02*
X95821704Y-95655927D01*
G04 #@! TO.C,C6*
X106101000Y-108556000D02*
X106101000Y-107540000D01*
X107625000Y-108556000D02*
X106101000Y-108556000D01*
X107625000Y-107540000D02*
X107625000Y-108556000D01*
X107625000Y-105508000D02*
X107625000Y-106524000D01*
X106101000Y-105508000D02*
X107625000Y-105508000D01*
X106101000Y-106524000D02*
X106101000Y-105508000D01*
G04 #@! TO.C,C5*
X90251500Y-114372000D02*
X89235500Y-114372000D01*
X90251500Y-112848000D02*
X90251500Y-114372000D01*
X89235500Y-112848000D02*
X90251500Y-112848000D01*
X87203500Y-112848000D02*
X88219500Y-112848000D01*
X87203500Y-114372000D02*
X87203500Y-112848000D01*
X88219500Y-114372000D02*
X87203500Y-114372000D01*
G04 #@! TO.C,R4*
X100488000Y-108534000D02*
X100488000Y-107518000D01*
X102012000Y-108534000D02*
X100488000Y-108534000D01*
X102012000Y-107518000D02*
X102012000Y-108534000D01*
X102012000Y-105486000D02*
X102012000Y-106502000D01*
X100488000Y-105486000D02*
X102012000Y-105486000D01*
X100488000Y-106502000D02*
X100488000Y-105486000D01*
G04 #@! TO.C,R2*
X98238000Y-108534000D02*
X98238000Y-107518000D01*
X99762000Y-108534000D02*
X98238000Y-108534000D01*
X99762000Y-107518000D02*
X99762000Y-108534000D01*
X99762000Y-105486000D02*
X99762000Y-106502000D01*
X98238000Y-105486000D02*
X99762000Y-105486000D01*
X98238000Y-106502000D02*
X98238000Y-105486000D01*
G04 #@! TO.C,R3*
X95988000Y-108486500D02*
X95988000Y-107470500D01*
X97512000Y-108486500D02*
X95988000Y-108486500D01*
X97512000Y-107470500D02*
X97512000Y-108486500D01*
X97512000Y-105438500D02*
X97512000Y-106454500D01*
X95988000Y-105438500D02*
X97512000Y-105438500D01*
X95988000Y-106454500D02*
X95988000Y-105438500D01*
G04 #@! TO.C,U3*
X96405000Y-114477000D02*
X92595000Y-114477000D01*
X93992000Y-109651000D02*
X93992000Y-109143000D01*
X95008000Y-109651000D02*
X93992000Y-109651000D01*
X95008000Y-109143000D02*
X95008000Y-109651000D01*
X96405000Y-109143000D02*
X92722000Y-109143000D01*
X96405000Y-114477000D02*
X96405000Y-109143000D01*
X92595000Y-109143000D02*
X92595000Y-114477000D01*
X92722000Y-109143000D02*
X92595000Y-109143000D01*
D11*
G04 #@! TO.C,J1*
X87305000Y-84680000D02*
X112705000Y-84680000D01*
X87305000Y-79600000D02*
X112705000Y-79600000D01*
X112705000Y-79600000D02*
X112705000Y-84680000D01*
X87305000Y-84680000D02*
X87305000Y-79600000D01*
D10*
G04 #@! TO.C,C7*
X109657000Y-92554000D02*
X108641000Y-92554000D01*
X109657000Y-91030000D02*
X109657000Y-92554000D01*
X108641000Y-91030000D02*
X109657000Y-91030000D01*
X106609000Y-91030000D02*
X107625000Y-91030000D01*
X106609000Y-92554000D02*
X106609000Y-91030000D01*
X107625000Y-92554000D02*
X106609000Y-92554000D01*
G04 #@! TO.C,R6*
X106609000Y-87220000D02*
X107625000Y-87220000D01*
X106609000Y-88744000D02*
X106609000Y-87220000D01*
X107625000Y-88744000D02*
X106609000Y-88744000D01*
X109657000Y-88744000D02*
X108641000Y-88744000D01*
X109657000Y-87220000D02*
X109657000Y-88744000D01*
X108641000Y-87220000D02*
X109657000Y-87220000D01*
G04 #@! TO.C,R5*
X90299000Y-109972000D02*
X89283000Y-109972000D01*
X90299000Y-108448000D02*
X90299000Y-109972000D01*
X89283000Y-108448000D02*
X90299000Y-108448000D01*
X87251000Y-108448000D02*
X88267000Y-108448000D01*
X87251000Y-109972000D02*
X87251000Y-108448000D01*
X88267000Y-109972000D02*
X87251000Y-109972000D01*
G04 #@! TO.C,R1*
X90251500Y-112172000D02*
X89235500Y-112172000D01*
X90251500Y-110648000D02*
X90251500Y-112172000D01*
X89235500Y-110648000D02*
X90251500Y-110648000D01*
X87203500Y-110648000D02*
X88219500Y-110648000D01*
X87203500Y-112172000D02*
X87203500Y-110648000D01*
X88219500Y-112172000D02*
X87203500Y-112172000D01*
G04 #@! TO.C,D1*
X109032160Y-90689640D02*
X107233840Y-90689640D01*
X107233840Y-89338360D02*
X109032160Y-89338360D01*
X108483520Y-89338360D02*
X108483520Y-90689640D01*
G04 #@! TO.C,C2*
X92191446Y-89271185D02*
X91473026Y-89989605D01*
X91113815Y-88193554D02*
X92191446Y-89271185D01*
X90395395Y-88911974D02*
X91113815Y-88193554D01*
X88958554Y-90348815D02*
X89676974Y-89630395D01*
X90036185Y-91426446D02*
X88958554Y-90348815D01*
X90754605Y-90708026D02*
X90036185Y-91426446D01*
G04 #@! TO.C,C1*
X91832073Y-87475296D02*
X92550493Y-86756876D01*
X92909704Y-88552927D02*
X91832073Y-87475296D01*
X93628124Y-87834507D02*
X92909704Y-88552927D01*
X95064965Y-86397666D02*
X94346545Y-87116086D01*
X93987334Y-85320035D02*
X95064965Y-86397666D01*
X93268914Y-86038455D02*
X93987334Y-85320035D01*
G04 #@! TO.C,F1*
X85120600Y-107768600D02*
X85120600Y-105685800D01*
X81640800Y-107768600D02*
X85120600Y-107768600D01*
X81640800Y-105685800D02*
X81640800Y-107768600D01*
X85120600Y-100682000D02*
X85120600Y-102764800D01*
X81640800Y-100682000D02*
X85120600Y-100682000D01*
X81640800Y-102764800D02*
X81640800Y-100682000D01*
G04 #@! TO.C,D2*
X82464000Y-98753000D02*
X83764000Y-98753000D01*
X82464000Y-95753000D02*
X83764000Y-95753000D01*
G04 #@! TO.C,U2*
X91904835Y-97074701D02*
X100249289Y-88730247D01*
X96854753Y-85335711D02*
X88510299Y-93680165D01*
X88510299Y-93680165D02*
X89217943Y-94387809D01*
X91904835Y-97074701D02*
X91197191Y-96367057D01*
X100249289Y-88730247D02*
X99541645Y-88022603D01*
X96854753Y-85335711D02*
X97562397Y-86043355D01*
G04 #@! TO.C,U1*
X100750000Y-93373476D02*
X100520190Y-93603286D01*
X105876524Y-98500000D02*
X105646714Y-98729810D01*
X100750000Y-103626524D02*
X100979810Y-103396714D01*
X95623476Y-98500000D02*
X95853286Y-98270190D01*
X100750000Y-93373476D02*
X100979810Y-93603286D01*
X95623476Y-98500000D02*
X95853286Y-98729810D01*
X100750000Y-103626524D02*
X100520190Y-103396714D01*
X105876524Y-98500000D02*
X105646714Y-98270190D01*
X100520190Y-93603286D02*
X99512563Y-92595658D01*
D11*
G04 #@! TO.C,H1*
X113040000Y-102460000D02*
X107960000Y-102460000D01*
X107960000Y-102460000D02*
X107960000Y-107540000D01*
X107960000Y-107540000D02*
X113040000Y-107540000D01*
X113040000Y-107540000D02*
X113040000Y-102460000D01*
G04 #@! TO.C,J2*
X87305000Y-120240000D02*
X105085000Y-120240000D01*
X105085000Y-115160000D02*
X87305000Y-115160000D01*
X105085000Y-115160000D02*
X105085000Y-120240000D01*
X87305000Y-120240000D02*
X87305000Y-115160000D01*
G04 #@! TO.C,L1*
D10*
X104697666Y-109933904D02*
X104316714Y-109933904D01*
X104316714Y-109133904D01*
X105383380Y-109933904D02*
X104926238Y-109933904D01*
X105154809Y-109933904D02*
X105154809Y-109133904D01*
X105078619Y-109248190D01*
X105002428Y-109324380D01*
X104926238Y-109362476D01*
G04 #@! TO.C,C3*
X98334749Y-92596311D02*
X98334749Y-92650186D01*
X98280874Y-92757935D01*
X98226999Y-92811810D01*
X98119250Y-92865685D01*
X98011500Y-92865685D01*
X97930688Y-92838748D01*
X97796001Y-92757935D01*
X97715189Y-92677123D01*
X97634377Y-92542436D01*
X97607439Y-92461624D01*
X97607439Y-92353874D01*
X97661314Y-92246125D01*
X97715189Y-92192250D01*
X97822938Y-92138375D01*
X97876813Y-92138375D01*
X98011500Y-91895938D02*
X98361687Y-91545752D01*
X98388624Y-91949813D01*
X98469436Y-91869001D01*
X98550248Y-91842064D01*
X98604123Y-91842064D01*
X98684935Y-91869001D01*
X98819622Y-92003688D01*
X98846560Y-92084500D01*
X98846560Y-92138375D01*
X98819622Y-92219187D01*
X98657998Y-92380812D01*
X98577186Y-92407749D01*
X98523311Y-92407749D01*
G04 #@! TO.C,C6*
X106856666Y-109857714D02*
X106818571Y-109895809D01*
X106704285Y-109933904D01*
X106628095Y-109933904D01*
X106513809Y-109895809D01*
X106437619Y-109819619D01*
X106399523Y-109743428D01*
X106361428Y-109591047D01*
X106361428Y-109476761D01*
X106399523Y-109324380D01*
X106437619Y-109248190D01*
X106513809Y-109172000D01*
X106628095Y-109133904D01*
X106704285Y-109133904D01*
X106818571Y-109172000D01*
X106856666Y-109210095D01*
X107542380Y-109133904D02*
X107390000Y-109133904D01*
X107313809Y-109172000D01*
X107275714Y-109210095D01*
X107199523Y-109324380D01*
X107161428Y-109476761D01*
X107161428Y-109781523D01*
X107199523Y-109857714D01*
X107237619Y-109895809D01*
X107313809Y-109933904D01*
X107466190Y-109933904D01*
X107542380Y-109895809D01*
X107580476Y-109857714D01*
X107618571Y-109781523D01*
X107618571Y-109591047D01*
X107580476Y-109514857D01*
X107542380Y-109476761D01*
X107466190Y-109438666D01*
X107313809Y-109438666D01*
X107237619Y-109476761D01*
X107199523Y-109514857D01*
X107161428Y-109591047D01*
G04 #@! TO.C,C5*
X85901666Y-113667714D02*
X85863571Y-113705809D01*
X85749285Y-113743904D01*
X85673095Y-113743904D01*
X85558809Y-113705809D01*
X85482619Y-113629619D01*
X85444523Y-113553428D01*
X85406428Y-113401047D01*
X85406428Y-113286761D01*
X85444523Y-113134380D01*
X85482619Y-113058190D01*
X85558809Y-112982000D01*
X85673095Y-112943904D01*
X85749285Y-112943904D01*
X85863571Y-112982000D01*
X85901666Y-113020095D01*
X86625476Y-112943904D02*
X86244523Y-112943904D01*
X86206428Y-113324857D01*
X86244523Y-113286761D01*
X86320714Y-113248666D01*
X86511190Y-113248666D01*
X86587380Y-113286761D01*
X86625476Y-113324857D01*
X86663571Y-113401047D01*
X86663571Y-113591523D01*
X86625476Y-113667714D01*
X86587380Y-113705809D01*
X86511190Y-113743904D01*
X86320714Y-113743904D01*
X86244523Y-113705809D01*
X86206428Y-113667714D01*
G04 #@! TO.C,R4*
X101141666Y-109933904D02*
X100875000Y-109552952D01*
X100684523Y-109933904D02*
X100684523Y-109133904D01*
X100989285Y-109133904D01*
X101065476Y-109172000D01*
X101103571Y-109210095D01*
X101141666Y-109286285D01*
X101141666Y-109400571D01*
X101103571Y-109476761D01*
X101065476Y-109514857D01*
X100989285Y-109552952D01*
X100684523Y-109552952D01*
X101827380Y-109400571D02*
X101827380Y-109933904D01*
X101636904Y-109095809D02*
X101446428Y-109667238D01*
X101941666Y-109667238D01*
G04 #@! TO.C,R2*
X98855666Y-109933904D02*
X98589000Y-109552952D01*
X98398523Y-109933904D02*
X98398523Y-109133904D01*
X98703285Y-109133904D01*
X98779476Y-109172000D01*
X98817571Y-109210095D01*
X98855666Y-109286285D01*
X98855666Y-109400571D01*
X98817571Y-109476761D01*
X98779476Y-109514857D01*
X98703285Y-109552952D01*
X98398523Y-109552952D01*
X99160428Y-109210095D02*
X99198523Y-109172000D01*
X99274714Y-109133904D01*
X99465190Y-109133904D01*
X99541380Y-109172000D01*
X99579476Y-109210095D01*
X99617571Y-109286285D01*
X99617571Y-109362476D01*
X99579476Y-109476761D01*
X99122333Y-109933904D01*
X99617571Y-109933904D01*
G04 #@! TO.C,R3*
X96569666Y-105107904D02*
X96303000Y-104726952D01*
X96112523Y-105107904D02*
X96112523Y-104307904D01*
X96417285Y-104307904D01*
X96493476Y-104346000D01*
X96531571Y-104384095D01*
X96569666Y-104460285D01*
X96569666Y-104574571D01*
X96531571Y-104650761D01*
X96493476Y-104688857D01*
X96417285Y-104726952D01*
X96112523Y-104726952D01*
X96836333Y-104307904D02*
X97331571Y-104307904D01*
X97064904Y-104612666D01*
X97179190Y-104612666D01*
X97255380Y-104650761D01*
X97293476Y-104688857D01*
X97331571Y-104765047D01*
X97331571Y-104955523D01*
X97293476Y-105031714D01*
X97255380Y-105069809D01*
X97179190Y-105107904D01*
X96950619Y-105107904D01*
X96874428Y-105069809D01*
X96836333Y-105031714D01*
G04 #@! TO.C,U3*
X93738095Y-107762380D02*
X93738095Y-108571904D01*
X93785714Y-108667142D01*
X93833333Y-108714761D01*
X93928571Y-108762380D01*
X94119047Y-108762380D01*
X94214285Y-108714761D01*
X94261904Y-108667142D01*
X94309523Y-108571904D01*
X94309523Y-107762380D01*
X94690476Y-107762380D02*
X95309523Y-107762380D01*
X94976190Y-108143333D01*
X95119047Y-108143333D01*
X95214285Y-108190952D01*
X95261904Y-108238571D01*
X95309523Y-108333809D01*
X95309523Y-108571904D01*
X95261904Y-108667142D01*
X95214285Y-108714761D01*
X95119047Y-108762380D01*
X94833333Y-108762380D01*
X94738095Y-108714761D01*
X94690476Y-108667142D01*
G04 #@! TO.C,J1*
X99671666Y-77892380D02*
X99671666Y-78606666D01*
X99624047Y-78749523D01*
X99528809Y-78844761D01*
X99385952Y-78892380D01*
X99290714Y-78892380D01*
X100671666Y-78892380D02*
X100100238Y-78892380D01*
X100385952Y-78892380D02*
X100385952Y-77892380D01*
X100290714Y-78035238D01*
X100195476Y-78130476D01*
X100100238Y-78178095D01*
G04 #@! TO.C,C7*
X111301666Y-92077714D02*
X111263571Y-92115809D01*
X111149285Y-92153904D01*
X111073095Y-92153904D01*
X110958809Y-92115809D01*
X110882619Y-92039619D01*
X110844523Y-91963428D01*
X110806428Y-91811047D01*
X110806428Y-91696761D01*
X110844523Y-91544380D01*
X110882619Y-91468190D01*
X110958809Y-91392000D01*
X111073095Y-91353904D01*
X111149285Y-91353904D01*
X111263571Y-91392000D01*
X111301666Y-91430095D01*
X111568333Y-91353904D02*
X112101666Y-91353904D01*
X111758809Y-92153904D01*
G04 #@! TO.C,R6*
X111301666Y-88343904D02*
X111035000Y-87962952D01*
X110844523Y-88343904D02*
X110844523Y-87543904D01*
X111149285Y-87543904D01*
X111225476Y-87582000D01*
X111263571Y-87620095D01*
X111301666Y-87696285D01*
X111301666Y-87810571D01*
X111263571Y-87886761D01*
X111225476Y-87924857D01*
X111149285Y-87962952D01*
X110844523Y-87962952D01*
X111987380Y-87543904D02*
X111835000Y-87543904D01*
X111758809Y-87582000D01*
X111720714Y-87620095D01*
X111644523Y-87734380D01*
X111606428Y-87886761D01*
X111606428Y-88191523D01*
X111644523Y-88267714D01*
X111682619Y-88305809D01*
X111758809Y-88343904D01*
X111911190Y-88343904D01*
X111987380Y-88305809D01*
X112025476Y-88267714D01*
X112063571Y-88191523D01*
X112063571Y-88001047D01*
X112025476Y-87924857D01*
X111987380Y-87886761D01*
X111911190Y-87848666D01*
X111758809Y-87848666D01*
X111682619Y-87886761D01*
X111644523Y-87924857D01*
X111606428Y-88001047D01*
G04 #@! TO.C,R5*
X85901666Y-109679904D02*
X85635000Y-109298952D01*
X85444523Y-109679904D02*
X85444523Y-108879904D01*
X85749285Y-108879904D01*
X85825476Y-108918000D01*
X85863571Y-108956095D01*
X85901666Y-109032285D01*
X85901666Y-109146571D01*
X85863571Y-109222761D01*
X85825476Y-109260857D01*
X85749285Y-109298952D01*
X85444523Y-109298952D01*
X86625476Y-108879904D02*
X86244523Y-108879904D01*
X86206428Y-109260857D01*
X86244523Y-109222761D01*
X86320714Y-109184666D01*
X86511190Y-109184666D01*
X86587380Y-109222761D01*
X86625476Y-109260857D01*
X86663571Y-109337047D01*
X86663571Y-109527523D01*
X86625476Y-109603714D01*
X86587380Y-109641809D01*
X86511190Y-109679904D01*
X86320714Y-109679904D01*
X86244523Y-109641809D01*
X86206428Y-109603714D01*
G04 #@! TO.C,R1*
X85901666Y-111711904D02*
X85635000Y-111330952D01*
X85444523Y-111711904D02*
X85444523Y-110911904D01*
X85749285Y-110911904D01*
X85825476Y-110950000D01*
X85863571Y-110988095D01*
X85901666Y-111064285D01*
X85901666Y-111178571D01*
X85863571Y-111254761D01*
X85825476Y-111292857D01*
X85749285Y-111330952D01*
X85444523Y-111330952D01*
X86663571Y-111711904D02*
X86206428Y-111711904D01*
X86435000Y-111711904D02*
X86435000Y-110911904D01*
X86358809Y-111026190D01*
X86282619Y-111102380D01*
X86206428Y-111140476D01*
G04 #@! TO.C,D1*
X110844523Y-90375904D02*
X110844523Y-89575904D01*
X111035000Y-89575904D01*
X111149285Y-89614000D01*
X111225476Y-89690190D01*
X111263571Y-89766380D01*
X111301666Y-89918761D01*
X111301666Y-90033047D01*
X111263571Y-90185428D01*
X111225476Y-90261619D01*
X111149285Y-90337809D01*
X111035000Y-90375904D01*
X110844523Y-90375904D01*
X112063571Y-90375904D02*
X111606428Y-90375904D01*
X111835000Y-90375904D02*
X111835000Y-89575904D01*
X111758809Y-89690190D01*
X111682619Y-89766380D01*
X111606428Y-89804476D01*
G04 #@! TO.C,C2*
X89694921Y-89118483D02*
X89694921Y-89172358D01*
X89641046Y-89280107D01*
X89587171Y-89333982D01*
X89479422Y-89387857D01*
X89371672Y-89387857D01*
X89290860Y-89360920D01*
X89156173Y-89280107D01*
X89075361Y-89199295D01*
X88994549Y-89064608D01*
X88967611Y-88983796D01*
X88967611Y-88876046D01*
X89021486Y-88768297D01*
X89075361Y-88714422D01*
X89183110Y-88660547D01*
X89236985Y-88660547D01*
X89452484Y-88445048D02*
X89452484Y-88391173D01*
X89479422Y-88310361D01*
X89614109Y-88175674D01*
X89694921Y-88148736D01*
X89748796Y-88148736D01*
X89829608Y-88175674D01*
X89883483Y-88229549D01*
X89937358Y-88337298D01*
X89937358Y-88983796D01*
X90287544Y-88633610D01*
G04 #@! TO.C,C1*
X92492749Y-86246311D02*
X92492749Y-86300186D01*
X92438874Y-86407935D01*
X92384999Y-86461810D01*
X92277250Y-86515685D01*
X92169500Y-86515685D01*
X92088688Y-86488748D01*
X91954001Y-86407935D01*
X91873189Y-86327123D01*
X91792377Y-86192436D01*
X91765439Y-86111624D01*
X91765439Y-86003874D01*
X91819314Y-85896125D01*
X91873189Y-85842250D01*
X91980938Y-85788375D01*
X92034813Y-85788375D01*
X93085372Y-85761438D02*
X92762123Y-86084687D01*
X92923748Y-85923062D02*
X92358062Y-85357377D01*
X92385000Y-85492064D01*
X92385000Y-85599813D01*
X92358062Y-85680625D01*
G04 #@! TO.C,F1*
X85647657Y-104555466D02*
X85647657Y-104822133D01*
X86066704Y-104822133D02*
X85266704Y-104822133D01*
X85266704Y-104441180D01*
X86066704Y-103717371D02*
X86066704Y-104174514D01*
X86066704Y-103945942D02*
X85266704Y-103945942D01*
X85380990Y-104022133D01*
X85457180Y-104098323D01*
X85495276Y-104174514D01*
G04 #@! TO.C,D2*
X81475904Y-97843476D02*
X80675904Y-97843476D01*
X80675904Y-97653000D01*
X80714000Y-97538714D01*
X80790190Y-97462523D01*
X80866380Y-97424428D01*
X81018761Y-97386333D01*
X81133047Y-97386333D01*
X81285428Y-97424428D01*
X81361619Y-97462523D01*
X81437809Y-97538714D01*
X81475904Y-97653000D01*
X81475904Y-97843476D01*
X80752095Y-97081571D02*
X80714000Y-97043476D01*
X80675904Y-96967285D01*
X80675904Y-96776809D01*
X80714000Y-96700619D01*
X80752095Y-96662523D01*
X80828285Y-96624428D01*
X80904476Y-96624428D01*
X81018761Y-96662523D01*
X81475904Y-97119666D01*
X81475904Y-96624428D01*
G04 #@! TO.C,U2*
X90810234Y-88497643D02*
X91268170Y-88955579D01*
X91348982Y-88982516D01*
X91402857Y-88982516D01*
X91483669Y-88955579D01*
X91591419Y-88847829D01*
X91618356Y-88767017D01*
X91618356Y-88713142D01*
X91591419Y-88632330D01*
X91133483Y-88174394D01*
X91429794Y-87985832D02*
X91429794Y-87931957D01*
X91456732Y-87851145D01*
X91591419Y-87716458D01*
X91672231Y-87689521D01*
X91726106Y-87689521D01*
X91806918Y-87716458D01*
X91860793Y-87770333D01*
X91914667Y-87878083D01*
X91914667Y-88524580D01*
X92264854Y-88174394D01*
G04 #@! TO.C,U1*
X104876473Y-93296030D02*
X104304053Y-93868450D01*
X104270381Y-93969465D01*
X104270381Y-94036809D01*
X104304053Y-94137824D01*
X104438740Y-94272511D01*
X104539755Y-94306183D01*
X104607099Y-94306183D01*
X104708114Y-94272511D01*
X105280534Y-93700091D01*
X105280534Y-95114305D02*
X104876473Y-94710244D01*
X105078503Y-94912274D02*
X105785610Y-94205168D01*
X105617251Y-94238839D01*
X105482564Y-94238839D01*
X105381549Y-94205168D01*
G04 #@! TO.C,J2*
X103611666Y-113402380D02*
X103611666Y-114116666D01*
X103564047Y-114259523D01*
X103468809Y-114354761D01*
X103325952Y-114402380D01*
X103230714Y-114402380D01*
X104040238Y-113497619D02*
X104087857Y-113450000D01*
X104183095Y-113402380D01*
X104421190Y-113402380D01*
X104516428Y-113450000D01*
X104564047Y-113497619D01*
X104611666Y-113592857D01*
X104611666Y-113688095D01*
X104564047Y-113830952D01*
X103992619Y-114402380D01*
X104611666Y-114402380D01*
G04 #@! TD*
M02*
