M48
METRIC,TZ
T1C0.300
T2C0.400
T3C0.700
T4C0.900
T5C1.000
T6C1.016
T7C2.500
%
G90
G05
T1
X92131Y-85696
X92802Y-110580
X93172Y-109871
X93195Y-111379
X95350Y-109970
X95995Y-111290
X96095Y-112529
X96775Y-106970
X98097Y-98298
X98127Y-109901
X98701Y-97508
X98977Y-98259
X99374Y-96856
X99503Y-99615
X99963Y-96219
X100430Y-95157
X100942Y-94324
X102575Y-110210
X103175Y-111610
X103414Y-91648
X104274Y-92406
X104729Y-93065
X106736Y-98269
X106894Y-95106
X107070Y-93086
X107716Y-93677
X107799Y-95049
X108133Y-89252
T2
X90953Y-114683
X93375Y-87010
X100838Y-101346
X101338Y-87733
X104559Y-106940
X105301Y-104626
X106250Y-102250
X106375Y-105740
X108895Y-108048
X109149Y-93570
T3
X92750Y-99130
X92750Y-101670
X92750Y-104210
X92750Y-106750
T4
X109710Y-112210
X109710Y-114750
X109710Y-117290
X112250Y-112210
X112250Y-114750
X112250Y-117290
T5
X87175Y-95210
X87175Y-89410
X87175Y-101010
X87175Y-106810
T6
X88575Y-80870
X88575Y-83410
X91115Y-80870
X91115Y-83410
X93655Y-80870
X93655Y-83410
X96195Y-80870
X96195Y-83410
X98735Y-80870
X98735Y-83410
X101275Y-80870
X101275Y-83410
X103815Y-80870
X103815Y-83410
X106355Y-80870
X106355Y-83410
X108895Y-80870
X108895Y-83410
X111435Y-80870
X111435Y-83410
X88575Y-116430
X88575Y-118970
X91115Y-116430
X91115Y-118970
X93655Y-116430
X93655Y-118970
X96195Y-116430
X96195Y-118970
X98735Y-116430
X98735Y-118970
X101275Y-116430
X101275Y-118970
X103815Y-116430
X103815Y-118970
T7
X110500Y-105000
T0
M30
