G04 #@! TF.GenerationSoftware,KiCad,Pcbnew,6.0.11-2627ca5db0~126~ubuntu22.04.1*
G04 #@! TF.CreationDate,2023-12-06T10:35:34+01:00*
G04 #@! TF.ProjectId,bus-module_atmega328,6275732d-6d6f-4647-956c-655f61746d65,C*
G04 #@! TF.SameCoordinates,Original*
G04 #@! TF.FileFunction,Other,Comment*
%FSLAX46Y46*%
G04 Gerber Fmt 4.6, Leading zero omitted, Abs format (unit mm)*
G04 Created by KiCad (PCBNEW 6.0.11-2627ca5db0~126~ubuntu22.04.1) date 2023-12-06 10:35:34*
%MOMM*%
%LPD*%
G01*
G04 APERTURE LIST*
%ADD10C,0.200000*%
%ADD11C,0.300000*%
G04 APERTURE END LIST*
D10*
X100000000Y-75000000D02*
X100000000Y-125000000D01*
X101000000Y-100000000D02*
G75*
G03*
X101000000Y-100000000I-1000000J0D01*
G01*
D11*
X81785714Y-70878571D02*
X81071428Y-70878571D01*
X81000000Y-71592857D01*
X81071428Y-71521428D01*
X81214285Y-71450000D01*
X81571428Y-71450000D01*
X81714285Y-71521428D01*
X81785714Y-71592857D01*
X81857142Y-71735714D01*
X81857142Y-72092857D01*
X81785714Y-72235714D01*
X81714285Y-72307142D01*
X81571428Y-72378571D01*
X81214285Y-72378571D01*
X81071428Y-72307142D01*
X81000000Y-72235714D01*
X82500000Y-72235714D02*
X82571428Y-72307142D01*
X82500000Y-72378571D01*
X82428571Y-72307142D01*
X82500000Y-72235714D01*
X82500000Y-72378571D01*
X83500000Y-70878571D02*
X83642857Y-70878571D01*
X83785714Y-70950000D01*
X83857142Y-71021428D01*
X83928571Y-71164285D01*
X84000000Y-71450000D01*
X84000000Y-71807142D01*
X83928571Y-72092857D01*
X83857142Y-72235714D01*
X83785714Y-72307142D01*
X83642857Y-72378571D01*
X83500000Y-72378571D01*
X83357142Y-72307142D01*
X83285714Y-72235714D01*
X83214285Y-72092857D01*
X83142857Y-71807142D01*
X83142857Y-71450000D01*
X83214285Y-71164285D01*
X83285714Y-71021428D01*
X83357142Y-70950000D01*
X83500000Y-70878571D01*
X80000000Y-86000000D02*
X80000000Y-72913580D01*
X85000000Y-86000000D02*
X85000000Y-72913580D01*
X80000000Y-73500000D02*
X85000000Y-73500000D01*
X80000000Y-73500000D02*
X85000000Y-73500000D01*
X80000000Y-73500000D02*
X81126504Y-74086421D01*
X80000000Y-73500000D02*
X81126504Y-72913579D01*
X85000000Y-73500000D02*
X83873496Y-72913579D01*
X85000000Y-73500000D02*
X83873496Y-74086421D01*
X57128571Y-104071428D02*
X58128571Y-104071428D01*
X56557142Y-104428571D02*
X57628571Y-104785714D01*
X57628571Y-103857142D01*
X57271428Y-103071428D02*
X57200000Y-103214285D01*
X57128571Y-103285714D01*
X56985714Y-103357142D01*
X56914285Y-103357142D01*
X56771428Y-103285714D01*
X56700000Y-103214285D01*
X56628571Y-103071428D01*
X56628571Y-102785714D01*
X56700000Y-102642857D01*
X56771428Y-102571428D01*
X56914285Y-102500000D01*
X56985714Y-102500000D01*
X57128571Y-102571428D01*
X57200000Y-102642857D01*
X57271428Y-102785714D01*
X57271428Y-103071428D01*
X57342857Y-103214285D01*
X57414285Y-103285714D01*
X57557142Y-103357142D01*
X57842857Y-103357142D01*
X57985714Y-103285714D01*
X58057142Y-103214285D01*
X58128571Y-103071428D01*
X58128571Y-102785714D01*
X58057142Y-102642857D01*
X57985714Y-102571428D01*
X57842857Y-102500000D01*
X57557142Y-102500000D01*
X57414285Y-102571428D01*
X57342857Y-102642857D01*
X57271428Y-102785714D01*
X57985714Y-101857142D02*
X58057142Y-101785714D01*
X58128571Y-101857142D01*
X58057142Y-101928571D01*
X57985714Y-101857142D01*
X58128571Y-101857142D01*
X56628571Y-100857142D02*
X56628571Y-100714285D01*
X56700000Y-100571428D01*
X56771428Y-100500000D01*
X56914285Y-100428571D01*
X57200000Y-100357142D01*
X57557142Y-100357142D01*
X57842857Y-100428571D01*
X57985714Y-100500000D01*
X58057142Y-100571428D01*
X58128571Y-100714285D01*
X58128571Y-100857142D01*
X58057142Y-101000000D01*
X57985714Y-101071428D01*
X57842857Y-101142857D01*
X57557142Y-101214285D01*
X57200000Y-101214285D01*
X56914285Y-101142857D01*
X56771428Y-101071428D01*
X56700000Y-101000000D01*
X56628571Y-100857142D01*
X58128571Y-98571428D02*
X57128571Y-98571428D01*
X57271428Y-98571428D02*
X57200000Y-98500000D01*
X57128571Y-98357142D01*
X57128571Y-98142857D01*
X57200000Y-98000000D01*
X57342857Y-97928571D01*
X58128571Y-97928571D01*
X57342857Y-97928571D02*
X57200000Y-97857142D01*
X57128571Y-97714285D01*
X57128571Y-97500000D01*
X57200000Y-97357142D01*
X57342857Y-97285714D01*
X58128571Y-97285714D01*
X58128571Y-96571428D02*
X57128571Y-96571428D01*
X57271428Y-96571428D02*
X57200000Y-96500000D01*
X57128571Y-96357142D01*
X57128571Y-96142857D01*
X57200000Y-96000000D01*
X57342857Y-95928571D01*
X58128571Y-95928571D01*
X57342857Y-95928571D02*
X57200000Y-95857142D01*
X57128571Y-95714285D01*
X57128571Y-95500000D01*
X57200000Y-95357142D01*
X57342857Y-95285714D01*
X58128571Y-95285714D01*
X93000000Y-124000000D02*
X58663580Y-124000000D01*
X93000000Y-76000000D02*
X58663580Y-76000000D01*
X59250000Y-124000000D02*
X59250000Y-76000000D01*
X59250000Y-124000000D02*
X59250000Y-76000000D01*
X59250000Y-124000000D02*
X59836421Y-122873496D01*
X59250000Y-124000000D02*
X58663579Y-122873496D01*
X59250000Y-76000000D02*
X58663579Y-77126504D01*
X59250000Y-76000000D02*
X59836421Y-77126504D01*
X111964285Y-126628571D02*
X111964285Y-127628571D01*
X111607142Y-126057142D02*
X111250000Y-127128571D01*
X112178571Y-127128571D01*
X112750000Y-127485714D02*
X112821428Y-127557142D01*
X112750000Y-127628571D01*
X112678571Y-127557142D01*
X112750000Y-127485714D01*
X112750000Y-127628571D01*
X114178571Y-126128571D02*
X113464285Y-126128571D01*
X113392857Y-126842857D01*
X113464285Y-126771428D01*
X113607142Y-126700000D01*
X113964285Y-126700000D01*
X114107142Y-126771428D01*
X114178571Y-126842857D01*
X114250000Y-126985714D01*
X114250000Y-127342857D01*
X114178571Y-127485714D01*
X114107142Y-127557142D01*
X113964285Y-127628571D01*
X113607142Y-127628571D01*
X113464285Y-127557142D01*
X113392857Y-127485714D01*
X115000000Y-105000000D02*
X115000000Y-129336420D01*
X110500000Y-105000000D02*
X110500000Y-129336420D01*
X115000000Y-128750000D02*
X110500000Y-128750000D01*
X115000000Y-128750000D02*
X110500000Y-128750000D01*
X115000000Y-128750000D02*
X113873496Y-128163579D01*
X115000000Y-128750000D02*
X113873496Y-129336421D01*
X110500000Y-128750000D02*
X111626504Y-129336421D01*
X110500000Y-128750000D02*
X111626504Y-128163579D01*
X141833571Y-106761428D02*
X141833571Y-105832857D01*
X142405000Y-106332857D01*
X142405000Y-106118571D01*
X142476428Y-105975714D01*
X142547857Y-105904285D01*
X142690714Y-105832857D01*
X143047857Y-105832857D01*
X143190714Y-105904285D01*
X143262142Y-105975714D01*
X143333571Y-106118571D01*
X143333571Y-106547142D01*
X143262142Y-106690000D01*
X143190714Y-106761428D01*
X141833571Y-104475714D02*
X141833571Y-105190000D01*
X142547857Y-105261428D01*
X142476428Y-105190000D01*
X142405000Y-105047142D01*
X142405000Y-104690000D01*
X142476428Y-104547142D01*
X142547857Y-104475714D01*
X142690714Y-104404285D01*
X143047857Y-104404285D01*
X143190714Y-104475714D01*
X143262142Y-104547142D01*
X143333571Y-104690000D01*
X143333571Y-105047142D01*
X143262142Y-105190000D01*
X143190714Y-105261428D01*
X143190714Y-103761428D02*
X143262142Y-103690000D01*
X143333571Y-103761428D01*
X143262142Y-103832857D01*
X143190714Y-103761428D01*
X143333571Y-103761428D01*
X141833571Y-102332857D02*
X141833571Y-103047142D01*
X142547857Y-103118571D01*
X142476428Y-103047142D01*
X142405000Y-102904285D01*
X142405000Y-102547142D01*
X142476428Y-102404285D01*
X142547857Y-102332857D01*
X142690714Y-102261428D01*
X143047857Y-102261428D01*
X143190714Y-102332857D01*
X143262142Y-102404285D01*
X143333571Y-102547142D01*
X143333571Y-102904285D01*
X143262142Y-103047142D01*
X143190714Y-103118571D01*
X141833571Y-100975714D02*
X141833571Y-101261428D01*
X141905000Y-101404285D01*
X141976428Y-101475714D01*
X142190714Y-101618571D01*
X142476428Y-101690000D01*
X143047857Y-101690000D01*
X143190714Y-101618571D01*
X143262142Y-101547142D01*
X143333571Y-101404285D01*
X143333571Y-101118571D01*
X143262142Y-100975714D01*
X143190714Y-100904285D01*
X143047857Y-100832857D01*
X142690714Y-100832857D01*
X142547857Y-100904285D01*
X142476428Y-100975714D01*
X142405000Y-101118571D01*
X142405000Y-101404285D01*
X142476428Y-101547142D01*
X142547857Y-101618571D01*
X142690714Y-101690000D01*
X143333571Y-99047142D02*
X142333571Y-99047142D01*
X142476428Y-99047142D02*
X142405000Y-98975714D01*
X142333571Y-98832857D01*
X142333571Y-98618571D01*
X142405000Y-98475714D01*
X142547857Y-98404285D01*
X143333571Y-98404285D01*
X142547857Y-98404285D02*
X142405000Y-98332857D01*
X142333571Y-98190000D01*
X142333571Y-97975714D01*
X142405000Y-97832857D01*
X142547857Y-97761428D01*
X143333571Y-97761428D01*
X143333571Y-97047142D02*
X142333571Y-97047142D01*
X142476428Y-97047142D02*
X142405000Y-96975714D01*
X142333571Y-96832857D01*
X142333571Y-96618571D01*
X142405000Y-96475714D01*
X142547857Y-96404285D01*
X143333571Y-96404285D01*
X142547857Y-96404285D02*
X142405000Y-96332857D01*
X142333571Y-96190000D01*
X142333571Y-95975714D01*
X142405000Y-95832857D01*
X142547857Y-95761428D01*
X143333571Y-95761428D01*
X88575000Y-118970000D02*
X145041420Y-118970000D01*
X88575000Y-83410000D02*
X145041420Y-83410000D01*
X144455000Y-118970000D02*
X144455000Y-83410000D01*
X144455000Y-118970000D02*
X144455000Y-83410000D01*
X144455000Y-118970000D02*
X145041421Y-117843496D01*
X144455000Y-118970000D02*
X143868579Y-117843496D01*
X144455000Y-83410000D02*
X143868579Y-84536504D01*
X144455000Y-83410000D02*
X145041421Y-84536504D01*
X69521428Y-102535714D02*
X69450000Y-102464285D01*
X69378571Y-102321428D01*
X69378571Y-101964285D01*
X69450000Y-101821428D01*
X69521428Y-101750000D01*
X69664285Y-101678571D01*
X69807142Y-101678571D01*
X70021428Y-101750000D01*
X70878571Y-102607142D01*
X70878571Y-101678571D01*
X69378571Y-101178571D02*
X69378571Y-100250000D01*
X69950000Y-100750000D01*
X69950000Y-100535714D01*
X70021428Y-100392857D01*
X70092857Y-100321428D01*
X70235714Y-100250000D01*
X70592857Y-100250000D01*
X70735714Y-100321428D01*
X70807142Y-100392857D01*
X70878571Y-100535714D01*
X70878571Y-100964285D01*
X70807142Y-101107142D01*
X70735714Y-101178571D01*
X70735714Y-99607142D02*
X70807142Y-99535714D01*
X70878571Y-99607142D01*
X70807142Y-99678571D01*
X70735714Y-99607142D01*
X70878571Y-99607142D01*
X69378571Y-98178571D02*
X69378571Y-98892857D01*
X70092857Y-98964285D01*
X70021428Y-98892857D01*
X69950000Y-98750000D01*
X69950000Y-98392857D01*
X70021428Y-98250000D01*
X70092857Y-98178571D01*
X70235714Y-98107142D01*
X70592857Y-98107142D01*
X70735714Y-98178571D01*
X70807142Y-98250000D01*
X70878571Y-98392857D01*
X70878571Y-98750000D01*
X70807142Y-98892857D01*
X70735714Y-98964285D01*
X70878571Y-96321428D02*
X69878571Y-96321428D01*
X70021428Y-96321428D02*
X69950000Y-96250000D01*
X69878571Y-96107142D01*
X69878571Y-95892857D01*
X69950000Y-95750000D01*
X70092857Y-95678571D01*
X70878571Y-95678571D01*
X70092857Y-95678571D02*
X69950000Y-95607142D01*
X69878571Y-95464285D01*
X69878571Y-95250000D01*
X69950000Y-95107142D01*
X70092857Y-95035714D01*
X70878571Y-95035714D01*
X70878571Y-94321428D02*
X69878571Y-94321428D01*
X70021428Y-94321428D02*
X69950000Y-94250000D01*
X69878571Y-94107142D01*
X69878571Y-93892857D01*
X69950000Y-93750000D01*
X70092857Y-93678571D01*
X70878571Y-93678571D01*
X70092857Y-93678571D02*
X69950000Y-93607142D01*
X69878571Y-93464285D01*
X69878571Y-93250000D01*
X69950000Y-93107142D01*
X70092857Y-93035714D01*
X70878571Y-93035714D01*
X80000000Y-109500000D02*
X71413580Y-109500000D01*
X80000000Y-86000000D02*
X71413580Y-86000000D01*
X72000000Y-109500000D02*
X72000000Y-86000000D01*
X72000000Y-109500000D02*
X72000000Y-86000000D01*
X72000000Y-109500000D02*
X72586421Y-108373496D01*
X72000000Y-109500000D02*
X71413579Y-108373496D01*
X72000000Y-86000000D02*
X71413579Y-87126504D01*
X72000000Y-86000000D02*
X72586421Y-87126504D01*
X63378571Y-104071428D02*
X64378571Y-104071428D01*
X62807142Y-104428571D02*
X63878571Y-104785714D01*
X63878571Y-103857142D01*
X62878571Y-103000000D02*
X62878571Y-102857142D01*
X62950000Y-102714285D01*
X63021428Y-102642857D01*
X63164285Y-102571428D01*
X63450000Y-102500000D01*
X63807142Y-102500000D01*
X64092857Y-102571428D01*
X64235714Y-102642857D01*
X64307142Y-102714285D01*
X64378571Y-102857142D01*
X64378571Y-103000000D01*
X64307142Y-103142857D01*
X64235714Y-103214285D01*
X64092857Y-103285714D01*
X63807142Y-103357142D01*
X63450000Y-103357142D01*
X63164285Y-103285714D01*
X63021428Y-103214285D01*
X62950000Y-103142857D01*
X62878571Y-103000000D01*
X64235714Y-101857142D02*
X64307142Y-101785714D01*
X64378571Y-101857142D01*
X64307142Y-101928571D01*
X64235714Y-101857142D01*
X64378571Y-101857142D01*
X62878571Y-100857142D02*
X62878571Y-100714285D01*
X62950000Y-100571428D01*
X63021428Y-100500000D01*
X63164285Y-100428571D01*
X63450000Y-100357142D01*
X63807142Y-100357142D01*
X64092857Y-100428571D01*
X64235714Y-100500000D01*
X64307142Y-100571428D01*
X64378571Y-100714285D01*
X64378571Y-100857142D01*
X64307142Y-101000000D01*
X64235714Y-101071428D01*
X64092857Y-101142857D01*
X63807142Y-101214285D01*
X63450000Y-101214285D01*
X63164285Y-101142857D01*
X63021428Y-101071428D01*
X62950000Y-101000000D01*
X62878571Y-100857142D01*
X64378571Y-98571428D02*
X63378571Y-98571428D01*
X63521428Y-98571428D02*
X63450000Y-98500000D01*
X63378571Y-98357142D01*
X63378571Y-98142857D01*
X63450000Y-98000000D01*
X63592857Y-97928571D01*
X64378571Y-97928571D01*
X63592857Y-97928571D02*
X63450000Y-97857142D01*
X63378571Y-97714285D01*
X63378571Y-97500000D01*
X63450000Y-97357142D01*
X63592857Y-97285714D01*
X64378571Y-97285714D01*
X64378571Y-96571428D02*
X63378571Y-96571428D01*
X63521428Y-96571428D02*
X63450000Y-96500000D01*
X63378571Y-96357142D01*
X63378571Y-96142857D01*
X63450000Y-96000000D01*
X63592857Y-95928571D01*
X64378571Y-95928571D01*
X63592857Y-95928571D02*
X63450000Y-95857142D01*
X63378571Y-95714285D01*
X63378571Y-95500000D01*
X63450000Y-95357142D01*
X63592857Y-95285714D01*
X64378571Y-95285714D01*
X85000000Y-120000000D02*
X64913580Y-120000000D01*
X85000000Y-80000000D02*
X64913580Y-80000000D01*
X65500000Y-120000000D02*
X65500000Y-80000000D01*
X65500000Y-120000000D02*
X65500000Y-80000000D01*
X65500000Y-120000000D02*
X66086421Y-118873496D01*
X65500000Y-120000000D02*
X64913579Y-118873496D01*
X65500000Y-80000000D02*
X64913579Y-81126504D01*
X65500000Y-80000000D02*
X66086421Y-81126504D01*
X126128571Y-103214285D02*
X126128571Y-103928571D01*
X126842857Y-104000000D01*
X126771428Y-103928571D01*
X126700000Y-103785714D01*
X126700000Y-103428571D01*
X126771428Y-103285714D01*
X126842857Y-103214285D01*
X126985714Y-103142857D01*
X127342857Y-103142857D01*
X127485714Y-103214285D01*
X127557142Y-103285714D01*
X127628571Y-103428571D01*
X127628571Y-103785714D01*
X127557142Y-103928571D01*
X127485714Y-104000000D01*
X127485714Y-102500000D02*
X127557142Y-102428571D01*
X127628571Y-102500000D01*
X127557142Y-102571428D01*
X127485714Y-102500000D01*
X127628571Y-102500000D01*
X126128571Y-101500000D02*
X126128571Y-101357142D01*
X126200000Y-101214285D01*
X126271428Y-101142857D01*
X126414285Y-101071428D01*
X126700000Y-101000000D01*
X127057142Y-101000000D01*
X127342857Y-101071428D01*
X127485714Y-101142857D01*
X127557142Y-101214285D01*
X127628571Y-101357142D01*
X127628571Y-101500000D01*
X127557142Y-101642857D01*
X127485714Y-101714285D01*
X127342857Y-101785714D01*
X127057142Y-101857142D01*
X126700000Y-101857142D01*
X126414285Y-101785714D01*
X126271428Y-101714285D01*
X126200000Y-101642857D01*
X126128571Y-101500000D01*
X100000000Y-105000000D02*
X129336420Y-105000000D01*
X100000000Y-100000000D02*
X129336420Y-100000000D01*
X128750000Y-105000000D02*
X128750000Y-100000000D01*
X128750000Y-105000000D02*
X128750000Y-100000000D01*
X128750000Y-105000000D02*
X129336421Y-103873496D01*
X128750000Y-105000000D02*
X128163579Y-103873496D01*
X128750000Y-100000000D02*
X128163579Y-101126504D01*
X128750000Y-100000000D02*
X129336421Y-101126504D01*
X69378571Y-83785714D02*
X69378571Y-84071428D01*
X69450000Y-84214285D01*
X69521428Y-84285714D01*
X69735714Y-84428571D01*
X70021428Y-84500000D01*
X70592857Y-84500000D01*
X70735714Y-84428571D01*
X70807142Y-84357142D01*
X70878571Y-84214285D01*
X70878571Y-83928571D01*
X70807142Y-83785714D01*
X70735714Y-83714285D01*
X70592857Y-83642857D01*
X70235714Y-83642857D01*
X70092857Y-83714285D01*
X70021428Y-83785714D01*
X69950000Y-83928571D01*
X69950000Y-84214285D01*
X70021428Y-84357142D01*
X70092857Y-84428571D01*
X70235714Y-84500000D01*
X70735714Y-83000000D02*
X70807142Y-82928571D01*
X70878571Y-83000000D01*
X70807142Y-83071428D01*
X70735714Y-83000000D01*
X70878571Y-83000000D01*
X69378571Y-82000000D02*
X69378571Y-81857142D01*
X69450000Y-81714285D01*
X69521428Y-81642857D01*
X69664285Y-81571428D01*
X69950000Y-81500000D01*
X70307142Y-81500000D01*
X70592857Y-81571428D01*
X70735714Y-81642857D01*
X70807142Y-81714285D01*
X70878571Y-81857142D01*
X70878571Y-82000000D01*
X70807142Y-82142857D01*
X70735714Y-82214285D01*
X70592857Y-82285714D01*
X70307142Y-82357142D01*
X69950000Y-82357142D01*
X69664285Y-82285714D01*
X69521428Y-82214285D01*
X69450000Y-82142857D01*
X69378571Y-82000000D01*
X85000000Y-86000000D02*
X71413580Y-86000000D01*
X85000000Y-80000000D02*
X71413580Y-80000000D01*
X72000000Y-86000000D02*
X72000000Y-80000000D01*
X72000000Y-86000000D02*
X72000000Y-80000000D01*
X72000000Y-86000000D02*
X72586421Y-84873496D01*
X72000000Y-86000000D02*
X71413579Y-84873496D01*
X72000000Y-80000000D02*
X71413579Y-81126504D01*
X72000000Y-80000000D02*
X72586421Y-81126504D01*
X95142857Y-64878571D02*
X96071428Y-64878571D01*
X95571428Y-65450000D01*
X95785714Y-65450000D01*
X95928571Y-65521428D01*
X96000000Y-65592857D01*
X96071428Y-65735714D01*
X96071428Y-66092857D01*
X96000000Y-66235714D01*
X95928571Y-66307142D01*
X95785714Y-66378571D01*
X95357142Y-66378571D01*
X95214285Y-66307142D01*
X95142857Y-66235714D01*
X97000000Y-64878571D02*
X97142857Y-64878571D01*
X97285714Y-64950000D01*
X97357142Y-65021428D01*
X97428571Y-65164285D01*
X97500000Y-65450000D01*
X97500000Y-65807142D01*
X97428571Y-66092857D01*
X97357142Y-66235714D01*
X97285714Y-66307142D01*
X97142857Y-66378571D01*
X97000000Y-66378571D01*
X96857142Y-66307142D01*
X96785714Y-66235714D01*
X96714285Y-66092857D01*
X96642857Y-65807142D01*
X96642857Y-65450000D01*
X96714285Y-65164285D01*
X96785714Y-65021428D01*
X96857142Y-64950000D01*
X97000000Y-64878571D01*
X98142857Y-66235714D02*
X98214285Y-66307142D01*
X98142857Y-66378571D01*
X98071428Y-66307142D01*
X98142857Y-66235714D01*
X98142857Y-66378571D01*
X99142857Y-64878571D02*
X99285714Y-64878571D01*
X99428571Y-64950000D01*
X99500000Y-65021428D01*
X99571428Y-65164285D01*
X99642857Y-65450000D01*
X99642857Y-65807142D01*
X99571428Y-66092857D01*
X99500000Y-66235714D01*
X99428571Y-66307142D01*
X99285714Y-66378571D01*
X99142857Y-66378571D01*
X99000000Y-66307142D01*
X98928571Y-66235714D01*
X98857142Y-66092857D01*
X98785714Y-65807142D01*
X98785714Y-65450000D01*
X98857142Y-65164285D01*
X98928571Y-65021428D01*
X99000000Y-64950000D01*
X99142857Y-64878571D01*
X101428571Y-66378571D02*
X101428571Y-65378571D01*
X101428571Y-65521428D02*
X101500000Y-65450000D01*
X101642857Y-65378571D01*
X101857142Y-65378571D01*
X102000000Y-65450000D01*
X102071428Y-65592857D01*
X102071428Y-66378571D01*
X102071428Y-65592857D02*
X102142857Y-65450000D01*
X102285714Y-65378571D01*
X102500000Y-65378571D01*
X102642857Y-65450000D01*
X102714285Y-65592857D01*
X102714285Y-66378571D01*
X103428571Y-66378571D02*
X103428571Y-65378571D01*
X103428571Y-65521428D02*
X103500000Y-65450000D01*
X103642857Y-65378571D01*
X103857142Y-65378571D01*
X104000000Y-65450000D01*
X104071428Y-65592857D01*
X104071428Y-66378571D01*
X104071428Y-65592857D02*
X104142857Y-65450000D01*
X104285714Y-65378571D01*
X104500000Y-65378571D01*
X104642857Y-65450000D01*
X104714285Y-65592857D01*
X104714285Y-66378571D01*
X115000000Y-80000000D02*
X115000000Y-66913580D01*
X85000000Y-80000000D02*
X85000000Y-66913580D01*
X115000000Y-67500000D02*
X85000000Y-67500000D01*
X115000000Y-67500000D02*
X85000000Y-67500000D01*
X115000000Y-67500000D02*
X113873496Y-66913579D01*
X115000000Y-67500000D02*
X113873496Y-68086421D01*
X85000000Y-67500000D02*
X86126504Y-68086421D01*
X85000000Y-67500000D02*
X86126504Y-66913579D01*
X145753571Y-122916771D02*
X145753571Y-123631057D01*
X146467857Y-123702485D01*
X146396428Y-123631057D01*
X146325000Y-123488200D01*
X146325000Y-123131057D01*
X146396428Y-122988200D01*
X146467857Y-122916771D01*
X146610714Y-122845342D01*
X146967857Y-122845342D01*
X147110714Y-122916771D01*
X147182142Y-122988200D01*
X147253571Y-123131057D01*
X147253571Y-123488200D01*
X147182142Y-123631057D01*
X147110714Y-123702485D01*
X147110714Y-122202485D02*
X147182142Y-122131057D01*
X147253571Y-122202485D01*
X147182142Y-122273914D01*
X147110714Y-122202485D01*
X147253571Y-122202485D01*
X145753571Y-121202485D02*
X145753571Y-121059628D01*
X145825000Y-120916771D01*
X145896428Y-120845342D01*
X146039285Y-120773914D01*
X146325000Y-120702485D01*
X146682142Y-120702485D01*
X146967857Y-120773914D01*
X147110714Y-120845342D01*
X147182142Y-120916771D01*
X147253571Y-121059628D01*
X147253571Y-121202485D01*
X147182142Y-121345342D01*
X147110714Y-121416771D01*
X146967857Y-121488200D01*
X146682142Y-121559628D01*
X146325000Y-121559628D01*
X146039285Y-121488200D01*
X145896428Y-121416771D01*
X145825000Y-121345342D01*
X145753571Y-121202485D01*
X145753571Y-120202485D02*
X145753571Y-119273914D01*
X146325000Y-119773914D01*
X146325000Y-119559628D01*
X146396428Y-119416771D01*
X146467857Y-119345342D01*
X146610714Y-119273914D01*
X146967857Y-119273914D01*
X147110714Y-119345342D01*
X147182142Y-119416771D01*
X147253571Y-119559628D01*
X147253571Y-119988200D01*
X147182142Y-120131057D01*
X147110714Y-120202485D01*
X99974400Y-124002800D02*
X145010820Y-124002800D01*
X99974400Y-118973600D02*
X145010820Y-118973600D01*
X144424400Y-124002800D02*
X144424400Y-118973600D01*
X144424400Y-124002800D02*
X144424400Y-118973600D01*
X144424400Y-124002800D02*
X145010821Y-122876296D01*
X144424400Y-124002800D02*
X143837979Y-122876296D01*
X144424400Y-118973600D02*
X143837979Y-120100104D01*
X144424400Y-118973600D02*
X145010821Y-120100104D01*
X96071428Y-72378571D02*
X95214285Y-72378571D01*
X95642857Y-72378571D02*
X95642857Y-70878571D01*
X95500000Y-71092857D01*
X95357142Y-71235714D01*
X95214285Y-71307142D01*
X97357142Y-71378571D02*
X97357142Y-72378571D01*
X97000000Y-70807142D02*
X96642857Y-71878571D01*
X97571428Y-71878571D01*
X98142857Y-72235714D02*
X98214285Y-72307142D01*
X98142857Y-72378571D01*
X98071428Y-72307142D01*
X98142857Y-72235714D01*
X98142857Y-72378571D01*
X99142857Y-70878571D02*
X99285714Y-70878571D01*
X99428571Y-70950000D01*
X99500000Y-71021428D01*
X99571428Y-71164285D01*
X99642857Y-71450000D01*
X99642857Y-71807142D01*
X99571428Y-72092857D01*
X99500000Y-72235714D01*
X99428571Y-72307142D01*
X99285714Y-72378571D01*
X99142857Y-72378571D01*
X99000000Y-72307142D01*
X98928571Y-72235714D01*
X98857142Y-72092857D01*
X98785714Y-71807142D01*
X98785714Y-71450000D01*
X98857142Y-71164285D01*
X98928571Y-71021428D01*
X99000000Y-70950000D01*
X99142857Y-70878571D01*
X101428571Y-72378571D02*
X101428571Y-71378571D01*
X101428571Y-71521428D02*
X101500000Y-71450000D01*
X101642857Y-71378571D01*
X101857142Y-71378571D01*
X102000000Y-71450000D01*
X102071428Y-71592857D01*
X102071428Y-72378571D01*
X102071428Y-71592857D02*
X102142857Y-71450000D01*
X102285714Y-71378571D01*
X102500000Y-71378571D01*
X102642857Y-71450000D01*
X102714285Y-71592857D01*
X102714285Y-72378571D01*
X103428571Y-72378571D02*
X103428571Y-71378571D01*
X103428571Y-71521428D02*
X103500000Y-71450000D01*
X103642857Y-71378571D01*
X103857142Y-71378571D01*
X104000000Y-71450000D01*
X104071428Y-71592857D01*
X104071428Y-72378571D01*
X104071428Y-71592857D02*
X104142857Y-71450000D01*
X104285714Y-71378571D01*
X104500000Y-71378571D01*
X104642857Y-71450000D01*
X104714285Y-71592857D01*
X104714285Y-72378571D01*
X107000000Y-76000000D02*
X107000000Y-72913580D01*
X93000000Y-76000000D02*
X93000000Y-72913580D01*
X107000000Y-73500000D02*
X93000000Y-73500000D01*
X107000000Y-73500000D02*
X93000000Y-73500000D01*
X107000000Y-73500000D02*
X105873496Y-72913579D01*
X107000000Y-73500000D02*
X105873496Y-74086421D01*
X93000000Y-73500000D02*
X94126504Y-74086421D01*
X93000000Y-73500000D02*
X94126504Y-72913579D01*
M02*
