G04 #@! TF.GenerationSoftware,KiCad,Pcbnew,5.0.0-fee4fd1~66~ubuntu16.04.1*
G04 #@! TF.CreationDate,2018-09-24T17:41:17+02:00*
G04 #@! TF.ProjectId,bus-module_atmega328,6275732D6D6F64756C655F61746D6567,B*
G04 #@! TF.SameCoordinates,Original*
G04 #@! TF.FileFunction,Copper,L2,Bot,Signal*
G04 #@! TF.FilePolarity,Positive*
%FSLAX46Y46*%
G04 Gerber Fmt 4.6, Leading zero omitted, Abs format (unit mm)*
G04 Created by KiCad (PCBNEW 5.0.0-fee4fd1~66~ubuntu16.04.1) date Mon Sep 24 17:41:17 2018*
%MOMM*%
%LPD*%
G01*
G04 APERTURE LIST*
G04 #@! TA.AperFunction,NonConductor*
%ADD10C,0.150000*%
G04 #@! TD*
G04 #@! TA.AperFunction,SMDPad,CuDef*
%ADD11R,1.600200X3.500120*%
G04 #@! TD*
G04 #@! TA.AperFunction,SMDPad,CuDef*
%ADD12R,0.889000X1.397000*%
G04 #@! TD*
G04 #@! TA.AperFunction,SMDPad,CuDef*
%ADD13R,1.143000X0.508000*%
G04 #@! TD*
G04 #@! TA.AperFunction,ComponentPad*
%ADD14C,1.600000*%
G04 #@! TD*
G04 #@! TA.AperFunction,ComponentPad*
%ADD15R,1.600000X1.600000*%
G04 #@! TD*
G04 #@! TA.AperFunction,ComponentPad*
%ADD16C,1.800000*%
G04 #@! TD*
G04 #@! TA.AperFunction,ComponentPad*
%ADD17R,1.800000X1.800000*%
G04 #@! TD*
G04 #@! TA.AperFunction,ComponentPad*
%ADD18R,1.651000X1.651000*%
G04 #@! TD*
G04 #@! TA.AperFunction,ComponentPad*
%ADD19C,1.600200*%
G04 #@! TD*
G04 #@! TA.AperFunction,ComponentPad*
%ADD20C,1.524000*%
G04 #@! TD*
G04 #@! TA.AperFunction,ComponentPad*
%ADD21C,2.000000*%
G04 #@! TD*
G04 #@! TA.AperFunction,ComponentPad*
%ADD22C,3.500000*%
G04 #@! TD*
G04 #@! TA.AperFunction,ViaPad*
%ADD23C,0.800000*%
G04 #@! TD*
G04 #@! TA.AperFunction,ViaPad*
%ADD24C,0.600000*%
G04 #@! TD*
G04 #@! TA.AperFunction,Conductor*
%ADD25C,0.600000*%
G04 #@! TD*
G04 #@! TA.AperFunction,Conductor*
%ADD26C,0.300000*%
G04 #@! TD*
G04 #@! TA.AperFunction,Conductor*
%ADD27C,0.500000*%
G04 #@! TD*
G04 #@! TA.AperFunction,Conductor*
%ADD28C,0.200000*%
G04 #@! TD*
G04 APERTURE END LIST*
D10*
X81443904Y-88845761D02*
X81062952Y-88579095D01*
X81443904Y-88388619D02*
X80643904Y-88388619D01*
X80643904Y-88693380D01*
X80682000Y-88769571D01*
X80720095Y-88807666D01*
X80796285Y-88845761D01*
X80910571Y-88845761D01*
X80986761Y-88807666D01*
X81024857Y-88769571D01*
X81062952Y-88693380D01*
X81062952Y-88388619D01*
X81405809Y-89493380D02*
X81443904Y-89417190D01*
X81443904Y-89264809D01*
X81405809Y-89188619D01*
X81329619Y-89150523D01*
X81024857Y-89150523D01*
X80948666Y-89188619D01*
X80910571Y-89264809D01*
X80910571Y-89417190D01*
X80948666Y-89493380D01*
X81024857Y-89531476D01*
X81101047Y-89531476D01*
X81177238Y-89150523D01*
X80910571Y-89798142D02*
X81443904Y-89988619D01*
X80910571Y-90179095D01*
X81367714Y-90483857D02*
X81405809Y-90521952D01*
X81443904Y-90483857D01*
X81405809Y-90445761D01*
X81367714Y-90483857D01*
X81443904Y-90483857D01*
X81024857Y-91741000D02*
X81062952Y-91855285D01*
X81101047Y-91893380D01*
X81177238Y-91931476D01*
X81291523Y-91931476D01*
X81367714Y-91893380D01*
X81405809Y-91855285D01*
X81443904Y-91779095D01*
X81443904Y-91474333D01*
X80643904Y-91474333D01*
X80643904Y-91741000D01*
X80682000Y-91817190D01*
X80720095Y-91855285D01*
X80796285Y-91893380D01*
X80872476Y-91893380D01*
X80948666Y-91855285D01*
X80986761Y-91817190D01*
X81024857Y-91741000D01*
X81024857Y-91474333D01*
X114336904Y-80254285D02*
X113536904Y-80254285D01*
X113841666Y-80254285D02*
X113803571Y-80330476D01*
X113803571Y-80482857D01*
X113841666Y-80559047D01*
X113879761Y-80597142D01*
X113955952Y-80635238D01*
X114184523Y-80635238D01*
X114260714Y-80597142D01*
X114298809Y-80559047D01*
X114336904Y-80482857D01*
X114336904Y-80330476D01*
X114298809Y-80254285D01*
X114336904Y-81092380D02*
X114298809Y-81016190D01*
X114260714Y-80978095D01*
X114184523Y-80940000D01*
X113955952Y-80940000D01*
X113879761Y-80978095D01*
X113841666Y-81016190D01*
X113803571Y-81092380D01*
X113803571Y-81206666D01*
X113841666Y-81282857D01*
X113879761Y-81320952D01*
X113955952Y-81359047D01*
X114184523Y-81359047D01*
X114260714Y-81320952D01*
X114298809Y-81282857D01*
X114336904Y-81206666D01*
X114336904Y-81092380D01*
X113803571Y-81587619D02*
X113803571Y-81892380D01*
X113536904Y-81701904D02*
X114222619Y-81701904D01*
X114298809Y-81740000D01*
X114336904Y-81816190D01*
X114336904Y-81892380D01*
X113803571Y-82044761D02*
X113803571Y-82349523D01*
X113536904Y-82159047D02*
X114222619Y-82159047D01*
X114298809Y-82197142D01*
X114336904Y-82273333D01*
X114336904Y-82349523D01*
X114336904Y-82730476D02*
X114298809Y-82654285D01*
X114260714Y-82616190D01*
X114184523Y-82578095D01*
X113955952Y-82578095D01*
X113879761Y-82616190D01*
X113841666Y-82654285D01*
X113803571Y-82730476D01*
X113803571Y-82844761D01*
X113841666Y-82920952D01*
X113879761Y-82959047D01*
X113955952Y-82997142D01*
X114184523Y-82997142D01*
X114260714Y-82959047D01*
X114298809Y-82920952D01*
X114336904Y-82844761D01*
X114336904Y-82730476D01*
X114336904Y-83340000D02*
X113803571Y-83340000D01*
X113879761Y-83340000D02*
X113841666Y-83378095D01*
X113803571Y-83454285D01*
X113803571Y-83568571D01*
X113841666Y-83644761D01*
X113917857Y-83682857D01*
X114336904Y-83682857D01*
X113917857Y-83682857D02*
X113841666Y-83720952D01*
X113803571Y-83797142D01*
X113803571Y-83911428D01*
X113841666Y-83987619D01*
X113917857Y-84025714D01*
X114336904Y-84025714D01*
D11*
G04 #@! TO.P,C9,2*
G04 #@! TO.N,GND*
X102800000Y-102699640D03*
G04 #@! TO.P,C9,1*
G04 #@! TO.N,VCC*
X102800000Y-98300360D03*
G04 #@! TD*
D12*
G04 #@! TO.P,C8,2*
G04 #@! TO.N,VCC*
X92547500Y-88500000D03*
G04 #@! TO.P,C8,1*
G04 #@! TO.N,GND*
X94452500Y-88500000D03*
G04 #@! TD*
D13*
G04 #@! TO.P,U4,4*
G04 #@! TO.N,/TXD0*
X97667000Y-94655000D03*
G04 #@! TO.P,U4,3*
G04 #@! TO.N,/TXD0EN*
X97667000Y-93385000D03*
G04 #@! TO.P,U4,2*
X97667000Y-92115000D03*
G04 #@! TO.P,U4,5*
G04 #@! TO.N,GND*
X92333000Y-94655000D03*
G04 #@! TO.P,U4,6*
G04 #@! TO.N,/A*
X92333000Y-93385000D03*
G04 #@! TO.P,U4,7*
G04 #@! TO.N,/B*
X92333000Y-92115000D03*
G04 #@! TO.P,U4,1*
G04 #@! TO.N,/RXD0*
X97667000Y-90845000D03*
G04 #@! TO.P,U4,8*
G04 #@! TO.N,VCC*
X92333000Y-90845000D03*
G04 #@! TD*
D14*
G04 #@! TO.P,U5,4*
G04 #@! TO.N,VCC*
X92750000Y-99130000D03*
G04 #@! TO.P,U5,3*
G04 #@! TO.N,GND*
X92750000Y-101670000D03*
G04 #@! TO.P,U5,2*
G04 #@! TO.N,Net-(F1-Pad1)*
X92750000Y-104210000D03*
D15*
G04 #@! TO.P,U5,1*
G04 #@! TO.N,GND*
X92750000Y-106750000D03*
G04 #@! TD*
D16*
G04 #@! TO.P,J3,6*
G04 #@! TO.N,GND*
X109710000Y-117290000D03*
G04 #@! TO.P,J3,5*
G04 #@! TO.N,//RESET*
X112250000Y-117290000D03*
G04 #@! TO.P,J3,4*
G04 #@! TO.N,/PB3_MOSI*
X109710000Y-114750000D03*
G04 #@! TO.P,J3,3*
G04 #@! TO.N,/PB5_SCK*
X112250000Y-114750000D03*
G04 #@! TO.P,J3,2*
G04 #@! TO.N,VCC*
X109710000Y-112210000D03*
D17*
G04 #@! TO.P,J3,1*
G04 #@! TO.N,/PB4_MISO*
X112250000Y-112210000D03*
G04 #@! TD*
D18*
G04 #@! TO.P,J1,1*
G04 #@! TO.N,GND*
X88575000Y-83410000D03*
D19*
G04 #@! TO.P,J1,2*
X88575000Y-80870000D03*
G04 #@! TO.P,J1,3*
G04 #@! TO.N,+24V*
X91115000Y-83410000D03*
G04 #@! TO.P,J1,4*
X91115000Y-80870000D03*
G04 #@! TO.P,J1,5*
G04 #@! TO.N,/PC1*
X93655000Y-83410000D03*
G04 #@! TO.P,J1,6*
G04 #@! TO.N,/PC0*
X93655000Y-80870000D03*
G04 #@! TO.P,J1,7*
G04 #@! TO.N,/PC3*
X96195000Y-83410000D03*
G04 #@! TO.P,J1,8*
G04 #@! TO.N,/PC2*
X96195000Y-80870000D03*
G04 #@! TO.P,J1,9*
G04 #@! TO.N,/PC5*
X98735000Y-83410000D03*
G04 #@! TO.P,J1,10*
G04 #@! TO.N,/PC4*
X98735000Y-80870000D03*
G04 #@! TO.P,J1,11*
G04 #@! TO.N,N/C*
X101275000Y-83410000D03*
G04 #@! TO.P,J1,12*
G04 #@! TO.N,//RESET*
X101275000Y-80870000D03*
D20*
G04 #@! TO.P,J1,13*
G04 #@! TO.N,/PD4*
X103815000Y-83410000D03*
G04 #@! TO.P,J1,14*
G04 #@! TO.N,/PD3*
X103815000Y-80870000D03*
G04 #@! TO.P,J1,15*
G04 #@! TO.N,/PD6*
X106355000Y-83410000D03*
G04 #@! TO.P,J1,16*
G04 #@! TO.N,/PD5*
X106355000Y-80870000D03*
G04 #@! TO.P,J1,17*
G04 #@! TO.N,N/C*
X108895000Y-83410000D03*
G04 #@! TO.P,J1,18*
G04 #@! TO.N,/PD7*
X108895000Y-80870000D03*
G04 #@! TO.P,J1,19*
G04 #@! TO.N,N/C*
X111435000Y-83410000D03*
G04 #@! TO.P,J1,20*
X111435000Y-80870000D03*
G04 #@! TD*
D21*
G04 #@! TO.P,J6,1*
G04 #@! TO.N,/A*
X87175000Y-101010000D03*
G04 #@! TD*
G04 #@! TO.P,J8,1*
G04 #@! TO.N,GND*
X87175000Y-89410000D03*
G04 #@! TD*
G04 #@! TO.P,J7,1*
G04 #@! TO.N,/B*
X87175000Y-95210000D03*
G04 #@! TD*
G04 #@! TO.P,J5,1*
G04 #@! TO.N,+24V*
X87175000Y-106810000D03*
G04 #@! TD*
D22*
G04 #@! TO.P,H1,1*
G04 #@! TO.N,N/C*
X110500000Y-105000000D03*
G04 #@! TD*
D18*
G04 #@! TO.P,J2,1*
G04 #@! TO.N,GND*
X88575000Y-118970000D03*
D19*
G04 #@! TO.P,J2,2*
X88575000Y-116430000D03*
G04 #@! TO.P,J2,3*
G04 #@! TO.N,VCC*
X91115000Y-118970000D03*
G04 #@! TO.P,J2,4*
X91115000Y-116430000D03*
G04 #@! TO.P,J2,5*
G04 #@! TO.N,/AREF*
X93655000Y-118970000D03*
G04 #@! TO.P,J2,6*
G04 #@! TO.N,/AVCC*
X93655000Y-116430000D03*
G04 #@! TO.P,J2,7*
G04 #@! TO.N,/ADC6*
X96195000Y-118970000D03*
G04 #@! TO.P,J2,8*
G04 #@! TO.N,/ADC7*
X96195000Y-116430000D03*
G04 #@! TO.P,J2,9*
G04 #@! TO.N,/PB0*
X98735000Y-118970000D03*
G04 #@! TO.P,J2,10*
G04 #@! TO.N,/PB1*
X98735000Y-116430000D03*
G04 #@! TO.P,J2,11*
G04 #@! TO.N,//CSEEP*
X101275000Y-118970000D03*
G04 #@! TO.P,J2,12*
G04 #@! TO.N,/MOSI*
X101275000Y-116430000D03*
D20*
G04 #@! TO.P,J2,13*
G04 #@! TO.N,/MISO*
X103815000Y-118970000D03*
G04 #@! TO.P,J2,14*
G04 #@! TO.N,/SCK*
X103815000Y-116430000D03*
G04 #@! TD*
D23*
G04 #@! TO.N,GND*
X109149000Y-93570000D03*
X108895000Y-108048000D03*
X100838000Y-101346000D03*
X101337577Y-87732696D03*
X90953102Y-114683096D03*
X93375000Y-87010000D03*
G04 #@! TO.N,/AREF*
X106374988Y-105740401D03*
G04 #@! TO.N,/AVCC*
X104559296Y-106939986D03*
D24*
G04 #@! TO.N,/MISO*
X93194994Y-111378999D03*
X96095488Y-112529414D03*
G04 #@! TO.N,/PC1*
X99374474Y-96855924D03*
G04 #@! TO.N,/PC0*
X98701430Y-97507667D03*
G04 #@! TO.N,/PC3*
X106893927Y-95106073D03*
G04 #@! TO.N,/PC2*
X107798536Y-95048566D03*
G04 #@! TO.N,/PC5*
X107070006Y-93085721D03*
G04 #@! TO.N,/PC4*
X107716362Y-93676983D03*
G04 #@! TO.N,/PD6*
X103413541Y-91647944D03*
X98976975Y-98258729D03*
G04 #@! TO.N,/PD5*
X104274499Y-92406351D03*
X98096656Y-98297677D03*
G04 #@! TO.N,/PD7*
X104729138Y-93064623D03*
X99502877Y-99615448D03*
G04 #@! TO.N,Net-(R5-Pad2)*
X92802249Y-110580229D03*
X95995045Y-111290301D03*
G04 #@! TO.N,/TXD0EN*
X100942140Y-94324170D03*
G04 #@! TO.N,/RXD0*
X99963464Y-96218659D03*
G04 #@! TO.N,/TXD0*
X100429671Y-95157015D03*
G04 #@! TO.N,//RESET*
X108133000Y-89252000D03*
G04 #@! TO.N,//CSEEP*
X93172218Y-109870904D03*
X95350365Y-109969569D03*
D23*
G04 #@! TO.N,/ADC7*
X106250000Y-102250000D03*
G04 #@! TO.N,/ADC6*
X105300538Y-104625592D03*
D24*
G04 #@! TO.N,/PB3_MOSI*
X96775000Y-106970498D03*
X102575000Y-110210000D03*
G04 #@! TO.N,VCC*
X92131000Y-85696000D03*
X98127417Y-109901353D03*
X103175000Y-111610000D03*
X106736000Y-98269000D03*
G04 #@! TD*
D25*
G04 #@! TO.N,GND*
X93375000Y-87010000D02*
X93375000Y-87422500D01*
X93375000Y-87422500D02*
X94452500Y-88500000D01*
D26*
G04 #@! TO.N,/AREF*
X94925000Y-117700000D02*
X94925000Y-115997850D01*
X106355000Y-106326074D02*
X106374988Y-106306086D01*
X93655000Y-118970000D02*
X94925000Y-117700000D01*
X94925000Y-115997850D02*
X96722850Y-114200000D01*
X96722850Y-114200000D02*
X104376756Y-114200000D01*
X106374988Y-106306086D02*
X106374988Y-105740401D01*
X104376756Y-114200000D02*
X106355000Y-112221756D01*
X106355000Y-112221756D02*
X106355000Y-106326074D01*
G04 #@! TO.N,/AVCC*
X104559296Y-113133582D02*
X104559296Y-106939986D01*
X104056878Y-113636000D02*
X104559296Y-113133582D01*
X93655000Y-116430000D02*
X96449000Y-113636000D01*
X96449000Y-113636000D02*
X104056878Y-113636000D01*
G04 #@! TO.N,/MISO*
X94925000Y-111350000D02*
X93223993Y-111350000D01*
X96095488Y-112529414D02*
X96095488Y-112520488D01*
X93223993Y-111350000D02*
X93194994Y-111378999D01*
X96095488Y-112520488D02*
X94925000Y-111350000D01*
G04 #@! TO.N,/PC1*
X97578778Y-96855924D02*
X99374474Y-96855924D01*
X96000000Y-95277146D02*
X97578778Y-96855924D01*
X93655000Y-83410000D02*
X96000000Y-85755000D01*
X96000000Y-85755000D02*
X96000000Y-95277146D01*
G04 #@! TO.N,/PC0*
X92385000Y-83985000D02*
X92385000Y-82140000D01*
X98701430Y-97507667D02*
X97414509Y-97507667D01*
X95435910Y-87035910D02*
X92385000Y-83985000D01*
X92385000Y-82140000D02*
X93655000Y-80870000D01*
X97414509Y-97507667D02*
X95435910Y-95529068D01*
X95435910Y-95529068D02*
X95435910Y-87035910D01*
G04 #@! TO.N,/PC3*
X105919976Y-94132122D02*
X105919976Y-91256794D01*
X105919976Y-91256794D02*
X102087578Y-87424396D01*
X102087578Y-87424396D02*
X102087578Y-87372695D01*
X102087578Y-87372695D02*
X101697578Y-86982695D01*
X99767695Y-86982695D02*
X96195000Y-83410000D01*
X106893927Y-95106073D02*
X105919976Y-94132122D01*
X101697578Y-86982695D02*
X99767695Y-86982695D01*
G04 #@! TO.N,/PC2*
X97465000Y-82140000D02*
X96195000Y-80870000D01*
X100139384Y-86482684D02*
X97465000Y-83808300D01*
X101904689Y-86482684D02*
X100139384Y-86482684D01*
X102587588Y-87165583D02*
X101904689Y-86482684D01*
X107798536Y-95048566D02*
X106419987Y-93670017D01*
X102587589Y-87217285D02*
X102587588Y-87165583D01*
X106419987Y-93670017D02*
X106419986Y-91049682D01*
X97465000Y-83808300D02*
X97465000Y-82140000D01*
X106419986Y-91049682D02*
X102587589Y-87217285D01*
G04 #@! TO.N,/PC5*
X103087598Y-86958471D02*
X103087598Y-87010172D01*
X103087598Y-87010172D02*
X107070006Y-90992580D01*
X107070006Y-90992580D02*
X107070006Y-92661457D01*
X98735000Y-84117122D02*
X100600553Y-85982675D01*
X100600553Y-85982675D02*
X102111802Y-85982675D01*
X107070006Y-92661457D02*
X107070006Y-93085721D01*
X98735000Y-83410000D02*
X98735000Y-84117122D01*
X102111802Y-85982675D02*
X103087598Y-86958471D01*
G04 #@! TO.N,/PC4*
X100005000Y-84680000D02*
X100005000Y-82140000D01*
X100807664Y-85482664D02*
X100005000Y-84680000D01*
X102318913Y-85482664D02*
X100807664Y-85482664D01*
X103587609Y-86803061D02*
X103587609Y-86751360D01*
X108016361Y-91231813D02*
X103587609Y-86803061D01*
X100005000Y-82140000D02*
X98735000Y-80870000D01*
X103587609Y-86751360D02*
X102318913Y-85482664D01*
X108016361Y-93376984D02*
X108016361Y-91231813D01*
X107716362Y-93676983D02*
X108016361Y-93376984D01*
G04 #@! TO.N,/PD6*
X100649877Y-96585827D02*
X100649877Y-95856077D01*
X98976975Y-98258729D02*
X100649877Y-96585827D01*
X100649877Y-95856077D02*
X102062042Y-94443912D01*
X102062042Y-92999443D02*
X103413541Y-91647944D01*
X102062042Y-94443912D02*
X102062042Y-92999443D01*
G04 #@! TO.N,/PD5*
X98096656Y-98297677D02*
X98764425Y-98965446D01*
X101149888Y-96063188D02*
X103760580Y-93452496D01*
X103760580Y-93452496D02*
X103760580Y-92920270D01*
X103760580Y-92920270D02*
X104274499Y-92406351D01*
X101149888Y-97240138D02*
X101149888Y-96063188D01*
X98764425Y-98965446D02*
X99424580Y-98965446D01*
X99424580Y-98965446D02*
X101149888Y-97240138D01*
G04 #@! TO.N,/PD7*
X101649899Y-96270299D02*
X101649899Y-97468426D01*
X104429139Y-93364622D02*
X104429139Y-93491059D01*
X101649899Y-97468426D02*
X99502877Y-99615448D01*
X104729138Y-93064623D02*
X104429139Y-93364622D01*
X104429139Y-93491059D02*
X101649899Y-96270299D01*
D25*
G04 #@! TO.N,+24V*
X91115000Y-83410000D02*
X91115000Y-89760000D01*
X91115000Y-89760000D02*
X88575000Y-92300000D01*
X84765000Y-104365000D02*
X84765000Y-94205000D01*
X86670000Y-92300000D02*
X88575000Y-92300000D01*
X84765000Y-94205000D02*
X86670000Y-92300000D01*
X87175000Y-106810000D02*
X87175000Y-106775000D01*
X87175000Y-106775000D02*
X84765000Y-104365000D01*
X91115000Y-83410000D02*
X91115000Y-80870000D01*
D26*
G04 #@! TO.N,Net-(R5-Pad2)*
X94919236Y-110580229D02*
X95329309Y-110990302D01*
X95329309Y-110990302D02*
X95695046Y-110990302D01*
X95695046Y-110990302D02*
X95995045Y-111290301D01*
X92802249Y-110580229D02*
X94919236Y-110580229D01*
G04 #@! TO.N,/TXD0EN*
X100002970Y-93385000D02*
X100942140Y-94324170D01*
X97667000Y-93385000D02*
X100002970Y-93385000D01*
X97667000Y-92115000D02*
X97667000Y-93385000D01*
G04 #@! TO.N,/RXD0*
X99663465Y-95918660D02*
X99963464Y-96218659D01*
X96500011Y-94943513D02*
X97475158Y-95918660D01*
X97475158Y-95918660D02*
X99663465Y-95918660D01*
X96500011Y-91694489D02*
X96500011Y-94943513D01*
X97349500Y-90845000D02*
X96500011Y-91694489D01*
X97667000Y-90845000D02*
X97349500Y-90845000D01*
G04 #@! TO.N,/TXD0*
X99927656Y-94655000D02*
X100429671Y-95157015D01*
X97667000Y-94655000D02*
X99927656Y-94655000D01*
G04 #@! TO.N,//RESET*
X113000000Y-89250000D02*
X108135000Y-89250000D01*
X108135000Y-89250000D02*
X108133000Y-89252000D01*
X112250000Y-117290000D02*
X112710000Y-117290000D01*
X112710000Y-117290000D02*
X113750000Y-116250000D01*
X113750000Y-90000000D02*
X113000000Y-89250000D01*
X113750000Y-116250000D02*
X113750000Y-90000000D01*
G04 #@! TO.N,//CSEEP*
X93172218Y-109870904D02*
X95251700Y-109870904D01*
X95251700Y-109870904D02*
X95350365Y-109969569D01*
G04 #@! TO.N,/ADC7*
X104639970Y-105377034D02*
X104400000Y-105137064D01*
X106609000Y-104746000D02*
X106308714Y-104746000D01*
X104400000Y-105137064D02*
X104400000Y-104100000D01*
X106308714Y-104746000D02*
X105677680Y-105377034D01*
X107124989Y-105261989D02*
X106609000Y-104746000D01*
X104578461Y-114705417D02*
X107124989Y-112158889D01*
X96195000Y-116430000D02*
X97919583Y-114705417D01*
X104400000Y-104100000D02*
X106250000Y-102250000D01*
X107124989Y-112158889D02*
X107124989Y-105261989D01*
X105677680Y-105377034D02*
X104639970Y-105377034D01*
X97919583Y-114705417D02*
X104578461Y-114705417D01*
G04 #@! TO.N,/ADC6*
X105942130Y-103984000D02*
X105300538Y-104625592D01*
X106863000Y-103984000D02*
X105942130Y-103984000D01*
X107625000Y-104746000D02*
X106863000Y-103984000D01*
X96195000Y-118970000D02*
X97465000Y-117700000D01*
X107625000Y-112366000D02*
X107625000Y-104746000D01*
X97465000Y-117700000D02*
X97465000Y-115870245D01*
X97465000Y-115870245D02*
X98129817Y-115205428D01*
X98129817Y-115205428D02*
X104785572Y-115205428D01*
X104785572Y-115205428D02*
X107625000Y-112366000D01*
G04 #@! TO.N,/PB3_MOSI*
X102575000Y-110210000D02*
X99335498Y-106970498D01*
X99335498Y-106970498D02*
X96775000Y-106970498D01*
G04 #@! TO.N,VCC*
X92547500Y-88500000D02*
X92547500Y-86112500D01*
X92547500Y-86112500D02*
X92131000Y-85696000D01*
X99836064Y-111610000D02*
X98127417Y-109901353D01*
X103175000Y-111610000D02*
X99836064Y-111610000D01*
X92547500Y-88500000D02*
X92342684Y-88500000D01*
X92333000Y-90267000D02*
X92547500Y-90052500D01*
X92547500Y-90052500D02*
X92547500Y-88500000D01*
X92333000Y-90845000D02*
X92333000Y-90267000D01*
D27*
X99528580Y-100650420D02*
X94270420Y-100650420D01*
X101878640Y-98300360D02*
X99528580Y-100650420D01*
X102250000Y-98300360D02*
X101878640Y-98300360D01*
X94270420Y-100650420D02*
X92750000Y-99130000D01*
D26*
X106290720Y-98269000D02*
X106736000Y-98269000D01*
X106259360Y-98300360D02*
X106290720Y-98269000D01*
D27*
X102831360Y-98269000D02*
X106736000Y-98269000D01*
X102800000Y-98300360D02*
X102831360Y-98269000D01*
D26*
G04 #@! TO.N,/A*
X92333000Y-93385000D02*
X90988000Y-93385000D01*
X88575000Y-101063000D02*
X87175000Y-101063000D01*
X90353000Y-99285000D02*
X88575000Y-101063000D01*
X90353000Y-94020000D02*
X90353000Y-99285000D01*
X90988000Y-93385000D02*
X90353000Y-94020000D01*
X87175000Y-101063000D02*
X87175000Y-101010000D01*
G04 #@! TO.N,/B*
X87175000Y-95210000D02*
X87570000Y-95210000D01*
X87570000Y-95210000D02*
X90665000Y-92115000D01*
X90665000Y-92115000D02*
X92333000Y-92115000D01*
X87178000Y-95210000D02*
X87175000Y-95210000D01*
G04 #@! TD*
D28*
G04 #@! TO.N,GND*
G36*
X110455500Y-78090113D02*
X113061500Y-79718863D01*
X113061500Y-84591190D01*
X114400000Y-84591190D01*
X114400000Y-119941968D01*
X110957364Y-121909188D01*
X106981867Y-123400000D01*
X93021221Y-123400000D01*
X88548390Y-121412075D01*
X85600000Y-119446482D01*
X85600000Y-119224000D01*
X87349500Y-119224000D01*
X87349500Y-119875065D01*
X87410396Y-120022082D01*
X87522918Y-120134604D01*
X87669935Y-120195500D01*
X88321000Y-120195500D01*
X88421000Y-120095500D01*
X88421000Y-119124000D01*
X88729000Y-119124000D01*
X88729000Y-120095500D01*
X88829000Y-120195500D01*
X89480065Y-120195500D01*
X89627082Y-120134604D01*
X89739604Y-120022082D01*
X89800500Y-119875065D01*
X89800500Y-119224000D01*
X89700500Y-119124000D01*
X88729000Y-119124000D01*
X88421000Y-119124000D01*
X87449500Y-119124000D01*
X87349500Y-119224000D01*
X85600000Y-119224000D01*
X85600000Y-118064935D01*
X87349500Y-118064935D01*
X87349500Y-118716000D01*
X87449500Y-118816000D01*
X88421000Y-118816000D01*
X88421000Y-117844500D01*
X88729000Y-117844500D01*
X88729000Y-118816000D01*
X89700500Y-118816000D01*
X89765323Y-118751177D01*
X90014900Y-118751177D01*
X90014900Y-119188823D01*
X90182380Y-119593156D01*
X90491844Y-119902620D01*
X90896177Y-120070100D01*
X91333823Y-120070100D01*
X91738156Y-119902620D01*
X92047620Y-119593156D01*
X92215100Y-119188823D01*
X92215100Y-118751177D01*
X92047620Y-118346844D01*
X91738156Y-118037380D01*
X91333823Y-117869900D01*
X90896177Y-117869900D01*
X90491844Y-118037380D01*
X90182380Y-118346844D01*
X90014900Y-118751177D01*
X89765323Y-118751177D01*
X89800500Y-118716000D01*
X89800500Y-118064935D01*
X89739604Y-117917918D01*
X89627082Y-117805396D01*
X89480065Y-117744500D01*
X88829000Y-117744500D01*
X88729000Y-117844500D01*
X88421000Y-117844500D01*
X88321000Y-117744500D01*
X87669935Y-117744500D01*
X87522918Y-117805396D01*
X87410396Y-117917918D01*
X87349500Y-118064935D01*
X85600000Y-118064935D01*
X85600000Y-117325909D01*
X87896880Y-117325909D01*
X87986088Y-117502569D01*
X88441370Y-117646292D01*
X88916997Y-117604846D01*
X89163912Y-117502569D01*
X89253120Y-117325909D01*
X88575000Y-116647789D01*
X87896880Y-117325909D01*
X85600000Y-117325909D01*
X85600000Y-116296370D01*
X87358708Y-116296370D01*
X87400154Y-116771997D01*
X87502431Y-117018912D01*
X87679091Y-117108120D01*
X88357211Y-116430000D01*
X88792789Y-116430000D01*
X89470909Y-117108120D01*
X89647569Y-117018912D01*
X89791292Y-116563630D01*
X89760580Y-116211177D01*
X90014900Y-116211177D01*
X90014900Y-116648823D01*
X90182380Y-117053156D01*
X90491844Y-117362620D01*
X90896177Y-117530100D01*
X91333823Y-117530100D01*
X91738156Y-117362620D01*
X92047620Y-117053156D01*
X92215100Y-116648823D01*
X92215100Y-116211177D01*
X92554900Y-116211177D01*
X92554900Y-116648823D01*
X92722380Y-117053156D01*
X93031844Y-117362620D01*
X93436177Y-117530100D01*
X93873823Y-117530100D01*
X94278156Y-117362620D01*
X94475000Y-117165776D01*
X94475000Y-117513604D01*
X94046980Y-117941624D01*
X93873823Y-117869900D01*
X93436177Y-117869900D01*
X93031844Y-118037380D01*
X92722380Y-118346844D01*
X92554900Y-118751177D01*
X92554900Y-119188823D01*
X92722380Y-119593156D01*
X93031844Y-119902620D01*
X93436177Y-120070100D01*
X93873823Y-120070100D01*
X94278156Y-119902620D01*
X94587620Y-119593156D01*
X94755100Y-119188823D01*
X94755100Y-118751177D01*
X94683376Y-118578020D01*
X95211858Y-118049538D01*
X95249432Y-118024432D01*
X95348891Y-117875581D01*
X95375000Y-117744321D01*
X95375000Y-117744317D01*
X95383815Y-117700001D01*
X95375000Y-117655684D01*
X95375000Y-117165776D01*
X95571844Y-117362620D01*
X95976177Y-117530100D01*
X96413823Y-117530100D01*
X96818156Y-117362620D01*
X97015000Y-117165776D01*
X97015000Y-117513604D01*
X96586980Y-117941624D01*
X96413823Y-117869900D01*
X95976177Y-117869900D01*
X95571844Y-118037380D01*
X95262380Y-118346844D01*
X95094900Y-118751177D01*
X95094900Y-119188823D01*
X95262380Y-119593156D01*
X95571844Y-119902620D01*
X95976177Y-120070100D01*
X96413823Y-120070100D01*
X96818156Y-119902620D01*
X97127620Y-119593156D01*
X97295100Y-119188823D01*
X97295100Y-118751177D01*
X97634900Y-118751177D01*
X97634900Y-119188823D01*
X97802380Y-119593156D01*
X98111844Y-119902620D01*
X98516177Y-120070100D01*
X98953823Y-120070100D01*
X99358156Y-119902620D01*
X99667620Y-119593156D01*
X99835100Y-119188823D01*
X99835100Y-118751177D01*
X100174900Y-118751177D01*
X100174900Y-119188823D01*
X100342380Y-119593156D01*
X100651844Y-119902620D01*
X101056177Y-120070100D01*
X101493823Y-120070100D01*
X101898156Y-119902620D01*
X102207620Y-119593156D01*
X102375100Y-119188823D01*
X102375100Y-118758755D01*
X102753000Y-118758755D01*
X102753000Y-119181245D01*
X102914680Y-119571575D01*
X103213425Y-119870320D01*
X103603755Y-120032000D01*
X104026245Y-120032000D01*
X104416575Y-119870320D01*
X104715320Y-119571575D01*
X104877000Y-119181245D01*
X104877000Y-118758755D01*
X104715320Y-118368425D01*
X104605457Y-118258562D01*
X108959227Y-118258562D01*
X109060774Y-118445584D01*
X109552416Y-118606068D01*
X110068048Y-118566193D01*
X110359226Y-118445584D01*
X110460773Y-118258562D01*
X109710000Y-117507789D01*
X108959227Y-118258562D01*
X104605457Y-118258562D01*
X104416575Y-118069680D01*
X104026245Y-117908000D01*
X103603755Y-117908000D01*
X103213425Y-118069680D01*
X102914680Y-118368425D01*
X102753000Y-118758755D01*
X102375100Y-118758755D01*
X102375100Y-118751177D01*
X102207620Y-118346844D01*
X101898156Y-118037380D01*
X101493823Y-117869900D01*
X101056177Y-117869900D01*
X100651844Y-118037380D01*
X100342380Y-118346844D01*
X100174900Y-118751177D01*
X99835100Y-118751177D01*
X99667620Y-118346844D01*
X99358156Y-118037380D01*
X98953823Y-117869900D01*
X98516177Y-117869900D01*
X98111844Y-118037380D01*
X97802380Y-118346844D01*
X97634900Y-118751177D01*
X97295100Y-118751177D01*
X97223376Y-118578020D01*
X97751858Y-118049538D01*
X97789432Y-118024432D01*
X97888891Y-117875581D01*
X97915000Y-117744321D01*
X97915000Y-117744317D01*
X97923815Y-117700001D01*
X97915000Y-117655684D01*
X97915000Y-117165776D01*
X98111844Y-117362620D01*
X98516177Y-117530100D01*
X98953823Y-117530100D01*
X99358156Y-117362620D01*
X99667620Y-117053156D01*
X99835100Y-116648823D01*
X99835100Y-116211177D01*
X99667620Y-115806844D01*
X99516204Y-115655428D01*
X100493796Y-115655428D01*
X100342380Y-115806844D01*
X100174900Y-116211177D01*
X100174900Y-116648823D01*
X100342380Y-117053156D01*
X100651844Y-117362620D01*
X101056177Y-117530100D01*
X101493823Y-117530100D01*
X101898156Y-117362620D01*
X102207620Y-117053156D01*
X102375100Y-116648823D01*
X102375100Y-116211177D01*
X102207620Y-115806844D01*
X102056204Y-115655428D01*
X103087677Y-115655428D01*
X102914680Y-115828425D01*
X102753000Y-116218755D01*
X102753000Y-116641245D01*
X102914680Y-117031575D01*
X103213425Y-117330320D01*
X103603755Y-117492000D01*
X104026245Y-117492000D01*
X104416575Y-117330320D01*
X104614479Y-117132416D01*
X108393932Y-117132416D01*
X108433807Y-117648048D01*
X108554416Y-117939226D01*
X108741438Y-118040773D01*
X109492211Y-117290000D01*
X109927789Y-117290000D01*
X110678562Y-118040773D01*
X110865584Y-117939226D01*
X111026068Y-117447584D01*
X110986193Y-116931952D01*
X110865584Y-116640774D01*
X110678562Y-116539227D01*
X109927789Y-117290000D01*
X109492211Y-117290000D01*
X108741438Y-116539227D01*
X108554416Y-116640774D01*
X108393932Y-117132416D01*
X104614479Y-117132416D01*
X104715320Y-117031575D01*
X104877000Y-116641245D01*
X104877000Y-116321438D01*
X108959227Y-116321438D01*
X109710000Y-117072211D01*
X110460773Y-116321438D01*
X110359226Y-116134416D01*
X109867584Y-115973932D01*
X109351952Y-116013807D01*
X109060774Y-116134416D01*
X108959227Y-116321438D01*
X104877000Y-116321438D01*
X104877000Y-116218755D01*
X104715320Y-115828425D01*
X104542323Y-115655428D01*
X104741252Y-115655428D01*
X104785572Y-115664244D01*
X104829892Y-115655428D01*
X104829893Y-115655428D01*
X104961153Y-115629319D01*
X105110004Y-115529860D01*
X105135112Y-115492283D01*
X106116090Y-114511305D01*
X108510000Y-114511305D01*
X108510000Y-114988695D01*
X108692689Y-115429745D01*
X109030255Y-115767311D01*
X109471305Y-115950000D01*
X109948695Y-115950000D01*
X110389745Y-115767311D01*
X110727311Y-115429745D01*
X110910000Y-114988695D01*
X110910000Y-114511305D01*
X110727311Y-114070255D01*
X110389745Y-113732689D01*
X109948695Y-113550000D01*
X109471305Y-113550000D01*
X109030255Y-113732689D01*
X108692689Y-114070255D01*
X108510000Y-114511305D01*
X106116090Y-114511305D01*
X107911861Y-112715536D01*
X107949432Y-112690432D01*
X107974536Y-112652861D01*
X107974538Y-112652859D01*
X108048891Y-112541582D01*
X108083816Y-112366000D01*
X108075000Y-112321679D01*
X108075000Y-111971305D01*
X108510000Y-111971305D01*
X108510000Y-112448695D01*
X108692689Y-112889745D01*
X109030255Y-113227311D01*
X109471305Y-113410000D01*
X109948695Y-113410000D01*
X110389745Y-113227311D01*
X110727311Y-112889745D01*
X110910000Y-112448695D01*
X110910000Y-111971305D01*
X110727311Y-111530255D01*
X110389745Y-111192689D01*
X109948695Y-111010000D01*
X109471305Y-111010000D01*
X109030255Y-111192689D01*
X108692689Y-111530255D01*
X108510000Y-111971305D01*
X108075000Y-111971305D01*
X108075000Y-104790320D01*
X108083816Y-104746000D01*
X108059865Y-104625592D01*
X108053230Y-104592230D01*
X108450000Y-104592230D01*
X108450000Y-105407770D01*
X108762094Y-106161232D01*
X109338768Y-106737906D01*
X110092230Y-107050000D01*
X110907770Y-107050000D01*
X111661232Y-106737906D01*
X112237906Y-106161232D01*
X112550000Y-105407770D01*
X112550000Y-104592230D01*
X112237906Y-103838768D01*
X111661232Y-103262094D01*
X110907770Y-102950000D01*
X110092230Y-102950000D01*
X109338768Y-103262094D01*
X108762094Y-103838768D01*
X108450000Y-104592230D01*
X108053230Y-104592230D01*
X108048891Y-104570419D01*
X107949432Y-104421568D01*
X107911857Y-104396461D01*
X107212540Y-103697145D01*
X107187432Y-103659568D01*
X107038581Y-103560109D01*
X106907321Y-103534000D01*
X106907320Y-103534000D01*
X106863000Y-103525184D01*
X106818680Y-103534000D01*
X105986449Y-103534000D01*
X105942129Y-103525184D01*
X105897809Y-103534000D01*
X105766549Y-103560109D01*
X105617698Y-103659568D01*
X105592591Y-103697143D01*
X105364142Y-103925592D01*
X105210803Y-103925592D01*
X106186396Y-102950000D01*
X106389239Y-102950000D01*
X106646518Y-102843432D01*
X106843432Y-102646518D01*
X106950000Y-102389239D01*
X106950000Y-102110761D01*
X106843432Y-101853482D01*
X106646518Y-101656568D01*
X106389239Y-101550000D01*
X106110761Y-101550000D01*
X105853482Y-101656568D01*
X105656568Y-101853482D01*
X105550000Y-102110761D01*
X105550000Y-102313604D01*
X104113143Y-103750462D01*
X104075569Y-103775568D01*
X104050463Y-103813142D01*
X104000100Y-103888515D01*
X104000100Y-102953640D01*
X103900100Y-102853640D01*
X102954000Y-102853640D01*
X102954000Y-104749700D01*
X103054000Y-104849700D01*
X103679665Y-104849700D01*
X103826682Y-104788804D01*
X103939204Y-104676282D01*
X103950000Y-104650217D01*
X103950000Y-105092744D01*
X103941184Y-105137064D01*
X103950000Y-105181384D01*
X103976109Y-105312644D01*
X104075568Y-105461496D01*
X104113145Y-105486604D01*
X104290430Y-105663889D01*
X104315538Y-105701466D01*
X104464389Y-105800925D01*
X104595649Y-105827034D01*
X104595650Y-105827034D01*
X104639970Y-105835850D01*
X104684290Y-105827034D01*
X105633360Y-105827034D01*
X105674988Y-105835315D01*
X105674988Y-105879640D01*
X105781556Y-106136919D01*
X105908549Y-106263912D01*
X105896184Y-106326074D01*
X105905001Y-106370399D01*
X105905000Y-112035360D01*
X105009296Y-112931065D01*
X105009296Y-107479936D01*
X105152728Y-107336504D01*
X105259296Y-107079225D01*
X105259296Y-106800747D01*
X105152728Y-106543468D01*
X104955814Y-106346554D01*
X104698535Y-106239986D01*
X104420057Y-106239986D01*
X104162778Y-106346554D01*
X103965864Y-106543468D01*
X103859296Y-106800747D01*
X103859296Y-107079225D01*
X103965864Y-107336504D01*
X104109297Y-107479937D01*
X104109296Y-112947186D01*
X103870483Y-113186000D01*
X96493320Y-113186000D01*
X96449000Y-113177184D01*
X96404680Y-113186000D01*
X96404679Y-113186000D01*
X96273419Y-113212109D01*
X96124568Y-113311568D01*
X96099462Y-113349142D01*
X94046981Y-115401624D01*
X93873823Y-115329900D01*
X93436177Y-115329900D01*
X93031844Y-115497380D01*
X92722380Y-115806844D01*
X92554900Y-116211177D01*
X92215100Y-116211177D01*
X92047620Y-115806844D01*
X91738156Y-115497380D01*
X91333823Y-115329900D01*
X90896177Y-115329900D01*
X90491844Y-115497380D01*
X90182380Y-115806844D01*
X90014900Y-116211177D01*
X89760580Y-116211177D01*
X89749846Y-116088003D01*
X89647569Y-115841088D01*
X89470909Y-115751880D01*
X88792789Y-116430000D01*
X88357211Y-116430000D01*
X87679091Y-115751880D01*
X87502431Y-115841088D01*
X87358708Y-116296370D01*
X85600000Y-116296370D01*
X85600000Y-115534091D01*
X87896880Y-115534091D01*
X88575000Y-116212211D01*
X89253120Y-115534091D01*
X89163912Y-115357431D01*
X88708630Y-115213708D01*
X88233003Y-115255154D01*
X87986088Y-115357431D01*
X87896880Y-115534091D01*
X85600000Y-115534091D01*
X85600000Y-110460882D01*
X92202249Y-110460882D01*
X92202249Y-110699576D01*
X92293593Y-110920102D01*
X92462376Y-111088885D01*
X92635948Y-111160780D01*
X92594994Y-111259652D01*
X92594994Y-111498346D01*
X92686338Y-111718872D01*
X92855121Y-111887655D01*
X93075647Y-111978999D01*
X93314341Y-111978999D01*
X93534867Y-111887655D01*
X93622522Y-111800000D01*
X94738605Y-111800000D01*
X95495488Y-112556884D01*
X95495488Y-112648761D01*
X95586832Y-112869287D01*
X95755615Y-113038070D01*
X95976141Y-113129414D01*
X96214835Y-113129414D01*
X96435361Y-113038070D01*
X96604144Y-112869287D01*
X96695488Y-112648761D01*
X96695488Y-112410067D01*
X96604144Y-112189541D01*
X96435361Y-112020758D01*
X96214835Y-111929414D01*
X96140810Y-111929414D01*
X96101697Y-111890301D01*
X96114392Y-111890301D01*
X96334918Y-111798957D01*
X96503701Y-111630174D01*
X96595045Y-111409648D01*
X96595045Y-111170954D01*
X96503701Y-110950428D01*
X96334918Y-110781645D01*
X96114392Y-110690301D01*
X96035802Y-110690301D01*
X96019478Y-110665870D01*
X95870627Y-110566411D01*
X95739367Y-110540302D01*
X95739366Y-110540302D01*
X95695046Y-110531486D01*
X95650726Y-110540302D01*
X95540369Y-110540302D01*
X95690238Y-110478225D01*
X95859021Y-110309442D01*
X95950365Y-110088916D01*
X95950365Y-109850222D01*
X95922110Y-109782006D01*
X97527417Y-109782006D01*
X97527417Y-110020700D01*
X97618761Y-110241226D01*
X97787544Y-110410009D01*
X98008070Y-110501353D01*
X98091022Y-110501353D01*
X99486526Y-111896858D01*
X99511632Y-111934432D01*
X99660483Y-112033891D01*
X99791743Y-112060000D01*
X99791744Y-112060000D01*
X99836064Y-112068816D01*
X99880384Y-112060000D01*
X102776471Y-112060000D01*
X102835127Y-112118656D01*
X103055653Y-112210000D01*
X103294347Y-112210000D01*
X103514873Y-112118656D01*
X103683656Y-111949873D01*
X103775000Y-111729347D01*
X103775000Y-111490653D01*
X103683656Y-111270127D01*
X103514873Y-111101344D01*
X103294347Y-111010000D01*
X103055653Y-111010000D01*
X102835127Y-111101344D01*
X102776471Y-111160000D01*
X100022460Y-111160000D01*
X98727417Y-109864958D01*
X98727417Y-109782006D01*
X98636073Y-109561480D01*
X98467290Y-109392697D01*
X98246764Y-109301353D01*
X98008070Y-109301353D01*
X97787544Y-109392697D01*
X97618761Y-109561480D01*
X97527417Y-109782006D01*
X95922110Y-109782006D01*
X95859021Y-109629696D01*
X95690238Y-109460913D01*
X95469712Y-109369569D01*
X95231018Y-109369569D01*
X95107083Y-109420904D01*
X93570747Y-109420904D01*
X93512091Y-109362248D01*
X93291565Y-109270904D01*
X93052871Y-109270904D01*
X92832345Y-109362248D01*
X92663562Y-109531031D01*
X92572218Y-109751557D01*
X92572218Y-109990251D01*
X92584884Y-110020829D01*
X92462376Y-110071573D01*
X92293593Y-110240356D01*
X92202249Y-110460882D01*
X85600000Y-110460882D01*
X85600000Y-109500000D01*
X85592388Y-109461732D01*
X85570711Y-109429289D01*
X85070711Y-108929289D01*
X85038268Y-108907612D01*
X85000000Y-108900000D01*
X81041422Y-108900000D01*
X80600000Y-108458578D01*
X80600000Y-94205000D01*
X84153247Y-94205000D01*
X84165001Y-94264091D01*
X84165000Y-104305914D01*
X84153247Y-104365000D01*
X84165000Y-104424086D01*
X84165000Y-104424090D01*
X84199813Y-104599107D01*
X84332425Y-104797575D01*
X84382522Y-104831049D01*
X85941746Y-106390274D01*
X85875000Y-106551414D01*
X85875000Y-107068586D01*
X86072913Y-107546391D01*
X86438609Y-107912087D01*
X86916414Y-108110000D01*
X87433586Y-108110000D01*
X87911391Y-107912087D01*
X88277087Y-107546391D01*
X88475000Y-107068586D01*
X88475000Y-107004000D01*
X91550000Y-107004000D01*
X91550000Y-107629565D01*
X91610896Y-107776582D01*
X91723418Y-107889104D01*
X91870435Y-107950000D01*
X92496000Y-107950000D01*
X92596000Y-107850000D01*
X92596000Y-106904000D01*
X92904000Y-106904000D01*
X92904000Y-107850000D01*
X93004000Y-107950000D01*
X93629565Y-107950000D01*
X93776582Y-107889104D01*
X93889104Y-107776582D01*
X93950000Y-107629565D01*
X93950000Y-107004000D01*
X93850000Y-106904000D01*
X92904000Y-106904000D01*
X92596000Y-106904000D01*
X91650000Y-106904000D01*
X91550000Y-107004000D01*
X88475000Y-107004000D01*
X88475000Y-106851151D01*
X96175000Y-106851151D01*
X96175000Y-107089845D01*
X96266344Y-107310371D01*
X96435127Y-107479154D01*
X96655653Y-107570498D01*
X96894347Y-107570498D01*
X97114873Y-107479154D01*
X97173529Y-107420498D01*
X99149103Y-107420498D01*
X101975000Y-110246396D01*
X101975000Y-110329347D01*
X102066344Y-110549873D01*
X102235127Y-110718656D01*
X102455653Y-110810000D01*
X102694347Y-110810000D01*
X102914873Y-110718656D01*
X103083656Y-110549873D01*
X103175000Y-110329347D01*
X103175000Y-110090653D01*
X103083656Y-109870127D01*
X102914873Y-109701344D01*
X102694347Y-109610000D01*
X102611396Y-109610000D01*
X99685038Y-106683643D01*
X99659930Y-106646066D01*
X99511079Y-106546607D01*
X99379819Y-106520498D01*
X99379818Y-106520498D01*
X99335498Y-106511682D01*
X99291178Y-106520498D01*
X97173529Y-106520498D01*
X97114873Y-106461842D01*
X96894347Y-106370498D01*
X96655653Y-106370498D01*
X96435127Y-106461842D01*
X96266344Y-106630625D01*
X96175000Y-106851151D01*
X88475000Y-106851151D01*
X88475000Y-106551414D01*
X88277087Y-106073609D01*
X88073913Y-105870435D01*
X91550000Y-105870435D01*
X91550000Y-106496000D01*
X91650000Y-106596000D01*
X92596000Y-106596000D01*
X92596000Y-105650000D01*
X92904000Y-105650000D01*
X92904000Y-106596000D01*
X93850000Y-106596000D01*
X93950000Y-106496000D01*
X93950000Y-105870435D01*
X93889104Y-105723418D01*
X93776582Y-105610896D01*
X93629565Y-105550000D01*
X93004000Y-105550000D01*
X92904000Y-105650000D01*
X92596000Y-105650000D01*
X92496000Y-105550000D01*
X91870435Y-105550000D01*
X91723418Y-105610896D01*
X91610896Y-105723418D01*
X91550000Y-105870435D01*
X88073913Y-105870435D01*
X87911391Y-105707913D01*
X87433586Y-105510000D01*
X86916414Y-105510000D01*
X86804771Y-105556244D01*
X85365000Y-104116473D01*
X85365000Y-103991196D01*
X91650000Y-103991196D01*
X91650000Y-104428804D01*
X91817465Y-104833100D01*
X92126900Y-105142535D01*
X92531196Y-105310000D01*
X92968804Y-105310000D01*
X93373100Y-105142535D01*
X93682535Y-104833100D01*
X93850000Y-104428804D01*
X93850000Y-103991196D01*
X93682535Y-103586900D01*
X93373100Y-103277465D01*
X92968804Y-103110000D01*
X92531196Y-103110000D01*
X92126900Y-103277465D01*
X91817465Y-103586900D01*
X91650000Y-103991196D01*
X85365000Y-103991196D01*
X85365000Y-102953640D01*
X101599900Y-102953640D01*
X101599900Y-104529265D01*
X101660796Y-104676282D01*
X101773318Y-104788804D01*
X101920335Y-104849700D01*
X102546000Y-104849700D01*
X102646000Y-104749700D01*
X102646000Y-102853640D01*
X101699900Y-102853640D01*
X101599900Y-102953640D01*
X85365000Y-102953640D01*
X85365000Y-102565837D01*
X92071952Y-102565837D01*
X92161148Y-102742487D01*
X92616394Y-102886192D01*
X93091981Y-102844743D01*
X93338852Y-102742487D01*
X93428048Y-102565837D01*
X92750000Y-101887789D01*
X92071952Y-102565837D01*
X85365000Y-102565837D01*
X85365000Y-100751414D01*
X85875000Y-100751414D01*
X85875000Y-101268586D01*
X86072913Y-101746391D01*
X86438609Y-102112087D01*
X86916414Y-102310000D01*
X87433586Y-102310000D01*
X87911391Y-102112087D01*
X88277087Y-101746391D01*
X88364070Y-101536394D01*
X91533808Y-101536394D01*
X91575257Y-102011981D01*
X91677513Y-102258852D01*
X91854163Y-102348048D01*
X92532211Y-101670000D01*
X92967789Y-101670000D01*
X93645837Y-102348048D01*
X93822487Y-102258852D01*
X93966192Y-101803606D01*
X93924743Y-101328019D01*
X93822487Y-101081148D01*
X93645837Y-100991952D01*
X92967789Y-101670000D01*
X92532211Y-101670000D01*
X91854163Y-100991952D01*
X91677513Y-101081148D01*
X91533808Y-101536394D01*
X88364070Y-101536394D01*
X88373761Y-101513000D01*
X88530680Y-101513000D01*
X88575000Y-101521816D01*
X88619320Y-101513000D01*
X88619321Y-101513000D01*
X88750581Y-101486891D01*
X88899432Y-101387432D01*
X88924540Y-101349855D01*
X89500232Y-100774163D01*
X92071952Y-100774163D01*
X92750000Y-101452211D01*
X93428048Y-100774163D01*
X93338852Y-100597513D01*
X92883606Y-100453808D01*
X92408019Y-100495257D01*
X92161148Y-100597513D01*
X92071952Y-100774163D01*
X89500232Y-100774163D01*
X90639858Y-99634538D01*
X90677432Y-99609432D01*
X90776891Y-99460581D01*
X90803000Y-99329321D01*
X90803000Y-99329320D01*
X90811816Y-99285000D01*
X90803000Y-99240680D01*
X90803000Y-94882000D01*
X91361500Y-94882000D01*
X91361500Y-94988565D01*
X91422396Y-95135582D01*
X91534918Y-95248104D01*
X91681935Y-95309000D01*
X92079000Y-95309000D01*
X92179000Y-95209000D01*
X92179000Y-94782000D01*
X92487000Y-94782000D01*
X92487000Y-95209000D01*
X92587000Y-95309000D01*
X92984065Y-95309000D01*
X93131082Y-95248104D01*
X93243604Y-95135582D01*
X93304500Y-94988565D01*
X93304500Y-94882000D01*
X93204500Y-94782000D01*
X92487000Y-94782000D01*
X92179000Y-94782000D01*
X91461500Y-94782000D01*
X91361500Y-94882000D01*
X90803000Y-94882000D01*
X90803000Y-94321435D01*
X91361500Y-94321435D01*
X91361500Y-94428000D01*
X91461500Y-94528000D01*
X92179000Y-94528000D01*
X92179000Y-94101000D01*
X92487000Y-94101000D01*
X92487000Y-94528000D01*
X93204500Y-94528000D01*
X93304500Y-94428000D01*
X93304500Y-94321435D01*
X93243604Y-94174418D01*
X93131082Y-94061896D01*
X92984065Y-94001000D01*
X92587000Y-94001000D01*
X92487000Y-94101000D01*
X92179000Y-94101000D01*
X92079000Y-94001000D01*
X91681935Y-94001000D01*
X91534918Y-94061896D01*
X91422396Y-94174418D01*
X91361500Y-94321435D01*
X90803000Y-94321435D01*
X90803000Y-94206395D01*
X91174397Y-93835000D01*
X91531656Y-93835000D01*
X91545212Y-93855288D01*
X91644446Y-93921593D01*
X91761500Y-93944877D01*
X92904500Y-93944877D01*
X93021554Y-93921593D01*
X93120788Y-93855288D01*
X93187093Y-93756054D01*
X93210377Y-93639000D01*
X93210377Y-93131000D01*
X93187093Y-93013946D01*
X93120788Y-92914712D01*
X93021554Y-92848407D01*
X92904500Y-92825123D01*
X91761500Y-92825123D01*
X91644446Y-92848407D01*
X91545212Y-92914712D01*
X91531656Y-92935000D01*
X91032320Y-92935000D01*
X90988000Y-92926184D01*
X90943680Y-92935000D01*
X90943679Y-92935000D01*
X90812419Y-92961109D01*
X90775333Y-92985889D01*
X90701141Y-93035462D01*
X90701140Y-93035463D01*
X90663568Y-93060568D01*
X90638463Y-93098140D01*
X90066145Y-93670460D01*
X90028568Y-93695568D01*
X89929109Y-93844420D01*
X89909127Y-93944877D01*
X89894184Y-94020000D01*
X89903000Y-94064320D01*
X89903001Y-99098603D01*
X88409155Y-100592450D01*
X88277087Y-100273609D01*
X87911391Y-99907913D01*
X87433586Y-99710000D01*
X86916414Y-99710000D01*
X86438609Y-99907913D01*
X86072913Y-100273609D01*
X85875000Y-100751414D01*
X85365000Y-100751414D01*
X85365000Y-94951414D01*
X85875000Y-94951414D01*
X85875000Y-95468586D01*
X86072913Y-95946391D01*
X86438609Y-96312087D01*
X86916414Y-96510000D01*
X87433586Y-96510000D01*
X87911391Y-96312087D01*
X88277087Y-95946391D01*
X88475000Y-95468586D01*
X88475000Y-94951414D01*
X88472066Y-94944330D01*
X90851396Y-92565000D01*
X91531656Y-92565000D01*
X91545212Y-92585288D01*
X91644446Y-92651593D01*
X91761500Y-92674877D01*
X92904500Y-92674877D01*
X93021554Y-92651593D01*
X93120788Y-92585288D01*
X93187093Y-92486054D01*
X93210377Y-92369000D01*
X93210377Y-91861000D01*
X93187093Y-91743946D01*
X93120788Y-91644712D01*
X93021554Y-91578407D01*
X92904500Y-91555123D01*
X91761500Y-91555123D01*
X91644446Y-91578407D01*
X91545212Y-91644712D01*
X91531656Y-91665000D01*
X90709320Y-91665000D01*
X90665000Y-91656184D01*
X90620680Y-91665000D01*
X90620679Y-91665000D01*
X90489419Y-91691109D01*
X90340568Y-91790568D01*
X90315462Y-91828142D01*
X87973541Y-94170063D01*
X87911391Y-94107913D01*
X87433586Y-93910000D01*
X86916414Y-93910000D01*
X86438609Y-94107913D01*
X86072913Y-94473609D01*
X85875000Y-94951414D01*
X85365000Y-94951414D01*
X85365000Y-94453527D01*
X86918528Y-92900000D01*
X88515914Y-92900000D01*
X88575000Y-92911753D01*
X88634086Y-92900000D01*
X88634091Y-92900000D01*
X88809108Y-92865187D01*
X89007575Y-92732575D01*
X89041049Y-92682478D01*
X91497481Y-90226047D01*
X91547575Y-90192575D01*
X91680187Y-89994108D01*
X91715000Y-89819091D01*
X91715000Y-89819087D01*
X91726753Y-89760001D01*
X91715000Y-89700915D01*
X91715000Y-86128529D01*
X91791127Y-86204656D01*
X92011653Y-86296000D01*
X92094604Y-86296000D01*
X92097501Y-86298897D01*
X92097500Y-87496717D01*
X91985946Y-87518907D01*
X91886712Y-87585212D01*
X91820407Y-87684446D01*
X91797123Y-87801500D01*
X91797123Y-89198500D01*
X91820407Y-89315554D01*
X91886712Y-89414788D01*
X91985946Y-89481093D01*
X92097500Y-89503283D01*
X92097500Y-89866105D01*
X92046143Y-89917462D01*
X92008569Y-89942568D01*
X91970195Y-89999999D01*
X91909110Y-90091419D01*
X91874184Y-90267000D01*
X91877789Y-90285123D01*
X91761500Y-90285123D01*
X91644446Y-90308407D01*
X91545212Y-90374712D01*
X91478907Y-90473946D01*
X91455623Y-90591000D01*
X91455623Y-91099000D01*
X91478907Y-91216054D01*
X91545212Y-91315288D01*
X91644446Y-91381593D01*
X91761500Y-91404877D01*
X92904500Y-91404877D01*
X93021554Y-91381593D01*
X93120788Y-91315288D01*
X93187093Y-91216054D01*
X93210377Y-91099000D01*
X93210377Y-90591000D01*
X93187093Y-90473946D01*
X93120788Y-90374712D01*
X93021554Y-90308407D01*
X92929901Y-90290176D01*
X92971391Y-90228081D01*
X92997500Y-90096821D01*
X92997500Y-90096820D01*
X93006316Y-90052500D01*
X92997500Y-90008180D01*
X92997500Y-89503283D01*
X93109054Y-89481093D01*
X93208288Y-89414788D01*
X93274593Y-89315554D01*
X93297877Y-89198500D01*
X93297877Y-88754000D01*
X93608000Y-88754000D01*
X93608000Y-89278065D01*
X93668896Y-89425082D01*
X93781418Y-89537604D01*
X93928435Y-89598500D01*
X94198500Y-89598500D01*
X94298500Y-89498500D01*
X94298500Y-88654000D01*
X93708000Y-88654000D01*
X93608000Y-88754000D01*
X93297877Y-88754000D01*
X93297877Y-87801500D01*
X93282051Y-87721935D01*
X93608000Y-87721935D01*
X93608000Y-88246000D01*
X93708000Y-88346000D01*
X94298500Y-88346000D01*
X94298500Y-87501500D01*
X94198500Y-87401500D01*
X93928435Y-87401500D01*
X93781418Y-87462396D01*
X93668896Y-87574918D01*
X93608000Y-87721935D01*
X93282051Y-87721935D01*
X93274593Y-87684446D01*
X93208288Y-87585212D01*
X93109054Y-87518907D01*
X92997500Y-87496717D01*
X92997500Y-86156820D01*
X93006316Y-86112500D01*
X92991074Y-86035873D01*
X92971391Y-85936919D01*
X92871932Y-85788068D01*
X92834357Y-85762961D01*
X92731000Y-85659604D01*
X92731000Y-85576653D01*
X92639656Y-85356127D01*
X92470873Y-85187344D01*
X92250347Y-85096000D01*
X92011653Y-85096000D01*
X91791127Y-85187344D01*
X91715000Y-85263471D01*
X91715000Y-84352212D01*
X91738156Y-84342620D01*
X91954321Y-84126455D01*
X91961109Y-84160580D01*
X92060568Y-84309432D01*
X92098145Y-84334540D01*
X94985911Y-87222307D01*
X94985911Y-87405371D01*
X94976565Y-87401500D01*
X94706500Y-87401500D01*
X94606500Y-87501500D01*
X94606500Y-88346000D01*
X94626500Y-88346000D01*
X94626500Y-88654000D01*
X94606500Y-88654000D01*
X94606500Y-89498500D01*
X94706500Y-89598500D01*
X94976565Y-89598500D01*
X94985911Y-89594629D01*
X94985910Y-95484748D01*
X94977094Y-95529068D01*
X94985910Y-95573388D01*
X95012019Y-95704648D01*
X95111478Y-95853500D01*
X95149055Y-95878608D01*
X97064973Y-97794527D01*
X97090077Y-97832099D01*
X97127648Y-97857203D01*
X97127650Y-97857205D01*
X97238927Y-97931558D01*
X97414509Y-97966483D01*
X97458831Y-97957667D01*
X97588137Y-97957667D01*
X97588000Y-97957804D01*
X97496656Y-98178330D01*
X97496656Y-98417024D01*
X97588000Y-98637550D01*
X97756783Y-98806333D01*
X97977309Y-98897677D01*
X98060261Y-98897677D01*
X98414886Y-99252303D01*
X98439993Y-99289878D01*
X98588844Y-99389337D01*
X98720104Y-99415446D01*
X98720105Y-99415446D01*
X98764425Y-99424262D01*
X98808745Y-99415446D01*
X98936285Y-99415446D01*
X98902877Y-99496101D01*
X98902877Y-99734795D01*
X98994221Y-99955321D01*
X99139320Y-100100420D01*
X94498237Y-100100420D01*
X93819721Y-99421904D01*
X93850000Y-99348804D01*
X93850000Y-98911196D01*
X93682535Y-98506900D01*
X93373100Y-98197465D01*
X92968804Y-98030000D01*
X92531196Y-98030000D01*
X92126900Y-98197465D01*
X91817465Y-98506900D01*
X91650000Y-98911196D01*
X91650000Y-99348804D01*
X91817465Y-99753100D01*
X92126900Y-100062535D01*
X92531196Y-100230000D01*
X92968804Y-100230000D01*
X93041904Y-100199721D01*
X93843206Y-101001023D01*
X93873892Y-101046948D01*
X94055821Y-101168509D01*
X94216250Y-101200420D01*
X94216251Y-101200420D01*
X94270420Y-101211195D01*
X94324589Y-101200420D01*
X99474411Y-101200420D01*
X99528580Y-101211195D01*
X99582749Y-101200420D01*
X99582750Y-101200420D01*
X99743179Y-101168509D01*
X99925108Y-101046948D01*
X99955796Y-101001020D01*
X100086801Y-100870015D01*
X101599900Y-100870015D01*
X101599900Y-102445640D01*
X101699900Y-102545640D01*
X102646000Y-102545640D01*
X102646000Y-100649580D01*
X102954000Y-100649580D01*
X102954000Y-102545640D01*
X103900100Y-102545640D01*
X104000100Y-102445640D01*
X104000100Y-100870015D01*
X103939204Y-100722998D01*
X103826682Y-100610476D01*
X103679665Y-100549580D01*
X103054000Y-100549580D01*
X102954000Y-100649580D01*
X102646000Y-100649580D01*
X102546000Y-100549580D01*
X101920335Y-100549580D01*
X101773318Y-100610476D01*
X101660796Y-100722998D01*
X101599900Y-100870015D01*
X100086801Y-100870015D01*
X101694023Y-99262794D01*
X101694023Y-100050420D01*
X101717307Y-100167474D01*
X101783612Y-100266708D01*
X101882846Y-100333013D01*
X101999900Y-100356297D01*
X103600100Y-100356297D01*
X103717154Y-100333013D01*
X103816388Y-100266708D01*
X103882693Y-100167474D01*
X103905977Y-100050420D01*
X103905977Y-98819000D01*
X106495941Y-98819000D01*
X106616653Y-98869000D01*
X106855347Y-98869000D01*
X107075873Y-98777656D01*
X107244656Y-98608873D01*
X107336000Y-98388347D01*
X107336000Y-98149653D01*
X107244656Y-97929127D01*
X107075873Y-97760344D01*
X106855347Y-97669000D01*
X106616653Y-97669000D01*
X106495941Y-97719000D01*
X103905977Y-97719000D01*
X103905977Y-96550300D01*
X103882693Y-96433246D01*
X103816388Y-96334012D01*
X103717154Y-96267707D01*
X103600100Y-96244423D01*
X102312170Y-96244423D01*
X104715997Y-93840597D01*
X104753571Y-93815491D01*
X104853030Y-93666640D01*
X104853875Y-93662390D01*
X105069011Y-93573279D01*
X105237794Y-93404496D01*
X105329138Y-93183970D01*
X105329138Y-92945276D01*
X105237794Y-92724750D01*
X105069011Y-92555967D01*
X104874499Y-92475398D01*
X104874499Y-92287004D01*
X104783155Y-92066478D01*
X104614372Y-91897695D01*
X104393846Y-91806351D01*
X104155152Y-91806351D01*
X103964683Y-91885245D01*
X104013541Y-91767291D01*
X104013541Y-91528597D01*
X103922197Y-91308071D01*
X103753414Y-91139288D01*
X103532888Y-91047944D01*
X103294194Y-91047944D01*
X103073668Y-91139288D01*
X102904885Y-91308071D01*
X102813541Y-91528597D01*
X102813541Y-91611548D01*
X101775185Y-92649905D01*
X101737611Y-92675011D01*
X101699148Y-92732575D01*
X101638152Y-92823862D01*
X101603226Y-92999443D01*
X101612043Y-93043768D01*
X101612042Y-94257516D01*
X101542140Y-94327418D01*
X101542140Y-94204823D01*
X101450796Y-93984297D01*
X101282013Y-93815514D01*
X101061487Y-93724170D01*
X100978536Y-93724170D01*
X100352510Y-93098145D01*
X100327402Y-93060568D01*
X100178551Y-92961109D01*
X100047291Y-92935000D01*
X100047290Y-92935000D01*
X100002970Y-92926184D01*
X99958650Y-92935000D01*
X98468344Y-92935000D01*
X98454788Y-92914712D01*
X98355554Y-92848407D01*
X98238500Y-92825123D01*
X98117000Y-92825123D01*
X98117000Y-92674877D01*
X98238500Y-92674877D01*
X98355554Y-92651593D01*
X98454788Y-92585288D01*
X98521093Y-92486054D01*
X98544377Y-92369000D01*
X98544377Y-91861000D01*
X98521093Y-91743946D01*
X98454788Y-91644712D01*
X98355554Y-91578407D01*
X98238500Y-91555123D01*
X97275773Y-91555123D01*
X97426019Y-91404877D01*
X98238500Y-91404877D01*
X98355554Y-91381593D01*
X98454788Y-91315288D01*
X98521093Y-91216054D01*
X98544377Y-91099000D01*
X98544377Y-90591000D01*
X98521093Y-90473946D01*
X98454788Y-90374712D01*
X98355554Y-90308407D01*
X98238500Y-90285123D01*
X97095500Y-90285123D01*
X96978446Y-90308407D01*
X96879212Y-90374712D01*
X96812907Y-90473946D01*
X96789623Y-90591000D01*
X96789623Y-90768481D01*
X96450000Y-91108105D01*
X96450000Y-85799320D01*
X96458816Y-85755000D01*
X96447080Y-85696000D01*
X96423891Y-85579419D01*
X96324432Y-85430568D01*
X96286858Y-85405462D01*
X94683376Y-83801981D01*
X94755100Y-83628823D01*
X94755100Y-83191177D01*
X94587620Y-82786844D01*
X94278156Y-82477380D01*
X93873823Y-82309900D01*
X93436177Y-82309900D01*
X93031844Y-82477380D01*
X92835000Y-82674224D01*
X92835000Y-82326395D01*
X93263020Y-81898376D01*
X93436177Y-81970100D01*
X93873823Y-81970100D01*
X94278156Y-81802620D01*
X94587620Y-81493156D01*
X94755100Y-81088823D01*
X94755100Y-80651177D01*
X95094900Y-80651177D01*
X95094900Y-81088823D01*
X95262380Y-81493156D01*
X95571844Y-81802620D01*
X95976177Y-81970100D01*
X96413823Y-81970100D01*
X96586980Y-81898376D01*
X97015001Y-82326397D01*
X97015001Y-82674225D01*
X96818156Y-82477380D01*
X96413823Y-82309900D01*
X95976177Y-82309900D01*
X95571844Y-82477380D01*
X95262380Y-82786844D01*
X95094900Y-83191177D01*
X95094900Y-83628823D01*
X95262380Y-84033156D01*
X95571844Y-84342620D01*
X95976177Y-84510100D01*
X96413823Y-84510100D01*
X96586981Y-84438376D01*
X99418157Y-87269553D01*
X99443263Y-87307127D01*
X99592114Y-87406586D01*
X99723374Y-87432695D01*
X99723375Y-87432695D01*
X99767695Y-87441511D01*
X99812015Y-87432695D01*
X101511183Y-87432695D01*
X101660018Y-87581531D01*
X101663687Y-87599976D01*
X101763146Y-87748828D01*
X101800723Y-87773936D01*
X105469977Y-91443191D01*
X105469976Y-94087802D01*
X105461160Y-94132122D01*
X105469976Y-94176442D01*
X105496085Y-94307702D01*
X105595544Y-94456554D01*
X105633121Y-94481662D01*
X106293927Y-95142469D01*
X106293927Y-95225420D01*
X106385271Y-95445946D01*
X106554054Y-95614729D01*
X106774580Y-95706073D01*
X107013274Y-95706073D01*
X107233800Y-95614729D01*
X107374985Y-95473544D01*
X107458663Y-95557222D01*
X107679189Y-95648566D01*
X107917883Y-95648566D01*
X108138409Y-95557222D01*
X108307192Y-95388439D01*
X108398536Y-95167913D01*
X108398536Y-94929219D01*
X108307192Y-94708693D01*
X108138409Y-94539910D01*
X107917883Y-94448566D01*
X107834932Y-94448566D01*
X107663349Y-94276983D01*
X107835709Y-94276983D01*
X108056235Y-94185639D01*
X108225018Y-94016856D01*
X108316362Y-93796330D01*
X108316362Y-93717740D01*
X108340793Y-93701416D01*
X108440252Y-93552565D01*
X108466361Y-93421305D01*
X108466361Y-93421304D01*
X108475177Y-93376984D01*
X108466361Y-93332664D01*
X108466361Y-91276132D01*
X108475177Y-91231812D01*
X108462516Y-91168161D01*
X108440252Y-91056232D01*
X108340793Y-90907381D01*
X108303219Y-90882275D01*
X106553597Y-89132653D01*
X107533000Y-89132653D01*
X107533000Y-89371347D01*
X107624344Y-89591873D01*
X107793127Y-89760656D01*
X108013653Y-89852000D01*
X108252347Y-89852000D01*
X108472873Y-89760656D01*
X108533529Y-89700000D01*
X112813605Y-89700000D01*
X113300001Y-90186397D01*
X113300000Y-111049421D01*
X113267054Y-111027407D01*
X113150000Y-111004123D01*
X111350000Y-111004123D01*
X111232946Y-111027407D01*
X111133712Y-111093712D01*
X111067407Y-111192946D01*
X111044123Y-111310000D01*
X111044123Y-113110000D01*
X111067407Y-113227054D01*
X111133712Y-113326288D01*
X111232946Y-113392593D01*
X111350000Y-113415877D01*
X113150000Y-113415877D01*
X113267054Y-113392593D01*
X113300000Y-113370579D01*
X113300000Y-114149173D01*
X113267311Y-114070255D01*
X112929745Y-113732689D01*
X112488695Y-113550000D01*
X112011305Y-113550000D01*
X111570255Y-113732689D01*
X111232689Y-114070255D01*
X111050000Y-114511305D01*
X111050000Y-114988695D01*
X111232689Y-115429745D01*
X111570255Y-115767311D01*
X112011305Y-115950000D01*
X112488695Y-115950000D01*
X112929745Y-115767311D01*
X113267311Y-115429745D01*
X113300000Y-115350827D01*
X113300000Y-116063604D01*
X113010330Y-116353274D01*
X112929745Y-116272689D01*
X112488695Y-116090000D01*
X112011305Y-116090000D01*
X111570255Y-116272689D01*
X111232689Y-116610255D01*
X111050000Y-117051305D01*
X111050000Y-117528695D01*
X111232689Y-117969745D01*
X111570255Y-118307311D01*
X112011305Y-118490000D01*
X112488695Y-118490000D01*
X112929745Y-118307311D01*
X113267311Y-117969745D01*
X113450000Y-117528695D01*
X113450000Y-117186395D01*
X114036858Y-116599538D01*
X114074432Y-116574432D01*
X114173891Y-116425581D01*
X114200000Y-116294321D01*
X114200000Y-116294320D01*
X114208816Y-116250001D01*
X114200000Y-116205681D01*
X114200000Y-90044319D01*
X114208816Y-89999999D01*
X114197392Y-89942568D01*
X114173891Y-89824419D01*
X114074432Y-89675568D01*
X114036857Y-89650461D01*
X113349540Y-88963145D01*
X113324432Y-88925568D01*
X113175581Y-88826109D01*
X113044321Y-88800000D01*
X113044320Y-88800000D01*
X113000000Y-88791184D01*
X112955680Y-88800000D01*
X108529529Y-88800000D01*
X108472873Y-88743344D01*
X108252347Y-88652000D01*
X108013653Y-88652000D01*
X107793127Y-88743344D01*
X107624344Y-88912127D01*
X107533000Y-89132653D01*
X106553597Y-89132653D01*
X104015169Y-86594226D01*
X104011500Y-86575780D01*
X104008518Y-86571316D01*
X103937146Y-86464501D01*
X103912041Y-86426928D01*
X103874466Y-86401822D01*
X102668453Y-85195809D01*
X102643345Y-85158232D01*
X102494494Y-85058773D01*
X102363234Y-85032664D01*
X102363233Y-85032664D01*
X102318913Y-85023848D01*
X102274593Y-85032664D01*
X100994060Y-85032664D01*
X100455000Y-84493605D01*
X100455000Y-84145776D01*
X100651844Y-84342620D01*
X101056177Y-84510100D01*
X101493823Y-84510100D01*
X101898156Y-84342620D01*
X102207620Y-84033156D01*
X102375100Y-83628823D01*
X102375100Y-83198755D01*
X102753000Y-83198755D01*
X102753000Y-83621245D01*
X102914680Y-84011575D01*
X103213425Y-84310320D01*
X103603755Y-84472000D01*
X104026245Y-84472000D01*
X104416575Y-84310320D01*
X104715320Y-84011575D01*
X104877000Y-83621245D01*
X104877000Y-83198755D01*
X105293000Y-83198755D01*
X105293000Y-83621245D01*
X105454680Y-84011575D01*
X105753425Y-84310320D01*
X106143755Y-84472000D01*
X106566245Y-84472000D01*
X106956575Y-84310320D01*
X107255320Y-84011575D01*
X107417000Y-83621245D01*
X107417000Y-83198755D01*
X107833000Y-83198755D01*
X107833000Y-83621245D01*
X107994680Y-84011575D01*
X108293425Y-84310320D01*
X108683755Y-84472000D01*
X109106245Y-84472000D01*
X109496575Y-84310320D01*
X109795320Y-84011575D01*
X109957000Y-83621245D01*
X109957000Y-83198755D01*
X110373000Y-83198755D01*
X110373000Y-83621245D01*
X110534680Y-84011575D01*
X110833425Y-84310320D01*
X111223755Y-84472000D01*
X111646245Y-84472000D01*
X112036575Y-84310320D01*
X112335320Y-84011575D01*
X112497000Y-83621245D01*
X112497000Y-83198755D01*
X112335320Y-82808425D01*
X112036575Y-82509680D01*
X111646245Y-82348000D01*
X111223755Y-82348000D01*
X110833425Y-82509680D01*
X110534680Y-82808425D01*
X110373000Y-83198755D01*
X109957000Y-83198755D01*
X109795320Y-82808425D01*
X109496575Y-82509680D01*
X109106245Y-82348000D01*
X108683755Y-82348000D01*
X108293425Y-82509680D01*
X107994680Y-82808425D01*
X107833000Y-83198755D01*
X107417000Y-83198755D01*
X107255320Y-82808425D01*
X106956575Y-82509680D01*
X106566245Y-82348000D01*
X106143755Y-82348000D01*
X105753425Y-82509680D01*
X105454680Y-82808425D01*
X105293000Y-83198755D01*
X104877000Y-83198755D01*
X104715320Y-82808425D01*
X104416575Y-82509680D01*
X104026245Y-82348000D01*
X103603755Y-82348000D01*
X103213425Y-82509680D01*
X102914680Y-82808425D01*
X102753000Y-83198755D01*
X102375100Y-83198755D01*
X102375100Y-83191177D01*
X102207620Y-82786844D01*
X101898156Y-82477380D01*
X101493823Y-82309900D01*
X101056177Y-82309900D01*
X100651844Y-82477380D01*
X100455000Y-82674224D01*
X100455000Y-82184316D01*
X100463815Y-82139999D01*
X100455000Y-82095683D01*
X100455000Y-82095679D01*
X100428891Y-81964419D01*
X100329432Y-81815568D01*
X100291857Y-81790462D01*
X99763376Y-81261980D01*
X99835100Y-81088823D01*
X99835100Y-80651177D01*
X100174900Y-80651177D01*
X100174900Y-81088823D01*
X100342380Y-81493156D01*
X100651844Y-81802620D01*
X101056177Y-81970100D01*
X101493823Y-81970100D01*
X101898156Y-81802620D01*
X102207620Y-81493156D01*
X102375100Y-81088823D01*
X102375100Y-80658755D01*
X102753000Y-80658755D01*
X102753000Y-81081245D01*
X102914680Y-81471575D01*
X103213425Y-81770320D01*
X103603755Y-81932000D01*
X104026245Y-81932000D01*
X104416575Y-81770320D01*
X104715320Y-81471575D01*
X104877000Y-81081245D01*
X104877000Y-80658755D01*
X105293000Y-80658755D01*
X105293000Y-81081245D01*
X105454680Y-81471575D01*
X105753425Y-81770320D01*
X106143755Y-81932000D01*
X106566245Y-81932000D01*
X106956575Y-81770320D01*
X107255320Y-81471575D01*
X107417000Y-81081245D01*
X107417000Y-80658755D01*
X107833000Y-80658755D01*
X107833000Y-81081245D01*
X107994680Y-81471575D01*
X108293425Y-81770320D01*
X108683755Y-81932000D01*
X109106245Y-81932000D01*
X109496575Y-81770320D01*
X109795320Y-81471575D01*
X109957000Y-81081245D01*
X109957000Y-80658755D01*
X110373000Y-80658755D01*
X110373000Y-81081245D01*
X110534680Y-81471575D01*
X110833425Y-81770320D01*
X111223755Y-81932000D01*
X111646245Y-81932000D01*
X112036575Y-81770320D01*
X112335320Y-81471575D01*
X112497000Y-81081245D01*
X112497000Y-80658755D01*
X112335320Y-80268425D01*
X112036575Y-79969680D01*
X111646245Y-79808000D01*
X111223755Y-79808000D01*
X110833425Y-79969680D01*
X110534680Y-80268425D01*
X110373000Y-80658755D01*
X109957000Y-80658755D01*
X109795320Y-80268425D01*
X109496575Y-79969680D01*
X109106245Y-79808000D01*
X108683755Y-79808000D01*
X108293425Y-79969680D01*
X107994680Y-80268425D01*
X107833000Y-80658755D01*
X107417000Y-80658755D01*
X107255320Y-80268425D01*
X106956575Y-79969680D01*
X106566245Y-79808000D01*
X106143755Y-79808000D01*
X105753425Y-79969680D01*
X105454680Y-80268425D01*
X105293000Y-80658755D01*
X104877000Y-80658755D01*
X104715320Y-80268425D01*
X104416575Y-79969680D01*
X104026245Y-79808000D01*
X103603755Y-79808000D01*
X103213425Y-79969680D01*
X102914680Y-80268425D01*
X102753000Y-80658755D01*
X102375100Y-80658755D01*
X102375100Y-80651177D01*
X102207620Y-80246844D01*
X101898156Y-79937380D01*
X101493823Y-79769900D01*
X101056177Y-79769900D01*
X100651844Y-79937380D01*
X100342380Y-80246844D01*
X100174900Y-80651177D01*
X99835100Y-80651177D01*
X99667620Y-80246844D01*
X99358156Y-79937380D01*
X98953823Y-79769900D01*
X98516177Y-79769900D01*
X98111844Y-79937380D01*
X97802380Y-80246844D01*
X97634900Y-80651177D01*
X97634900Y-81088823D01*
X97802380Y-81493156D01*
X98111844Y-81802620D01*
X98516177Y-81970100D01*
X98953823Y-81970100D01*
X99126980Y-81898376D01*
X99555001Y-82326397D01*
X99555001Y-82674225D01*
X99358156Y-82477380D01*
X98953823Y-82309900D01*
X98516177Y-82309900D01*
X98111844Y-82477380D01*
X97915000Y-82674224D01*
X97915000Y-82184316D01*
X97923815Y-82139999D01*
X97915000Y-82095683D01*
X97915000Y-82095679D01*
X97888891Y-81964419D01*
X97789432Y-81815568D01*
X97751857Y-81790462D01*
X97223376Y-81261980D01*
X97295100Y-81088823D01*
X97295100Y-80651177D01*
X97127620Y-80246844D01*
X96818156Y-79937380D01*
X96413823Y-79769900D01*
X95976177Y-79769900D01*
X95571844Y-79937380D01*
X95262380Y-80246844D01*
X95094900Y-80651177D01*
X94755100Y-80651177D01*
X94587620Y-80246844D01*
X94278156Y-79937380D01*
X93873823Y-79769900D01*
X93436177Y-79769900D01*
X93031844Y-79937380D01*
X92722380Y-80246844D01*
X92554900Y-80651177D01*
X92554900Y-81088823D01*
X92626624Y-81261980D01*
X92098143Y-81790462D01*
X92060569Y-81815568D01*
X92035464Y-81853141D01*
X92035463Y-81853142D01*
X91961110Y-81964419D01*
X91926184Y-82140000D01*
X91935001Y-82184325D01*
X91935001Y-82674225D01*
X91738156Y-82477380D01*
X91715000Y-82467788D01*
X91715000Y-81812212D01*
X91738156Y-81802620D01*
X92047620Y-81493156D01*
X92215100Y-81088823D01*
X92215100Y-80651177D01*
X92047620Y-80246844D01*
X91738156Y-79937380D01*
X91333823Y-79769900D01*
X90896177Y-79769900D01*
X90491844Y-79937380D01*
X90182380Y-80246844D01*
X90014900Y-80651177D01*
X90014900Y-81088823D01*
X90182380Y-81493156D01*
X90491844Y-81802620D01*
X90515001Y-81812212D01*
X90515000Y-82467788D01*
X90491844Y-82477380D01*
X90182380Y-82786844D01*
X90014900Y-83191177D01*
X90014900Y-83628823D01*
X90182380Y-84033156D01*
X90491844Y-84342620D01*
X90515000Y-84352212D01*
X90515001Y-89511471D01*
X88326473Y-91700000D01*
X86729088Y-91700000D01*
X86670000Y-91688247D01*
X86610912Y-91700000D01*
X86610909Y-91700000D01*
X86477687Y-91726499D01*
X86435891Y-91734813D01*
X86328828Y-91806351D01*
X86237425Y-91867425D01*
X86203953Y-91917519D01*
X84382520Y-93738953D01*
X84332426Y-93772425D01*
X84298954Y-93822519D01*
X84298953Y-93822520D01*
X84199814Y-93970892D01*
X84153247Y-94205000D01*
X80600000Y-94205000D01*
X80600000Y-92458857D01*
X82118500Y-92458857D01*
X82118500Y-90451190D01*
X86351599Y-90451190D01*
X86465465Y-90648592D01*
X86993464Y-90825838D01*
X87549100Y-90787535D01*
X87884535Y-90648592D01*
X87998401Y-90451190D01*
X87175000Y-89627789D01*
X86351599Y-90451190D01*
X82118500Y-90451190D01*
X82118500Y-89228464D01*
X85759162Y-89228464D01*
X85797465Y-89784100D01*
X85936408Y-90119535D01*
X86133810Y-90233401D01*
X86957211Y-89410000D01*
X87392789Y-89410000D01*
X88216190Y-90233401D01*
X88413592Y-90119535D01*
X88590838Y-89591536D01*
X88552535Y-89035900D01*
X88413592Y-88700465D01*
X88216190Y-88586599D01*
X87392789Y-89410000D01*
X86957211Y-89410000D01*
X86133810Y-88586599D01*
X85936408Y-88700465D01*
X85759162Y-89228464D01*
X82118500Y-89228464D01*
X82118500Y-88368810D01*
X86351599Y-88368810D01*
X87175000Y-89192211D01*
X87998401Y-88368810D01*
X87884535Y-88171408D01*
X87356536Y-87994162D01*
X86800900Y-88032465D01*
X86465465Y-88171408D01*
X86351599Y-88368810D01*
X82118500Y-88368810D01*
X82118500Y-87823143D01*
X80600000Y-87823143D01*
X80600000Y-87041422D01*
X81041422Y-86600000D01*
X85000000Y-86600000D01*
X85038268Y-86592388D01*
X85070711Y-86570711D01*
X85570711Y-86070711D01*
X85592388Y-86038268D01*
X85600000Y-86000000D01*
X85600000Y-83664000D01*
X87349500Y-83664000D01*
X87349500Y-84315065D01*
X87410396Y-84462082D01*
X87522918Y-84574604D01*
X87669935Y-84635500D01*
X88321000Y-84635500D01*
X88421000Y-84535500D01*
X88421000Y-83564000D01*
X88729000Y-83564000D01*
X88729000Y-84535500D01*
X88829000Y-84635500D01*
X89480065Y-84635500D01*
X89627082Y-84574604D01*
X89739604Y-84462082D01*
X89800500Y-84315065D01*
X89800500Y-83664000D01*
X89700500Y-83564000D01*
X88729000Y-83564000D01*
X88421000Y-83564000D01*
X87449500Y-83564000D01*
X87349500Y-83664000D01*
X85600000Y-83664000D01*
X85600000Y-82504935D01*
X87349500Y-82504935D01*
X87349500Y-83156000D01*
X87449500Y-83256000D01*
X88421000Y-83256000D01*
X88421000Y-82284500D01*
X88729000Y-82284500D01*
X88729000Y-83256000D01*
X89700500Y-83256000D01*
X89800500Y-83156000D01*
X89800500Y-82504935D01*
X89739604Y-82357918D01*
X89627082Y-82245396D01*
X89480065Y-82184500D01*
X88829000Y-82184500D01*
X88729000Y-82284500D01*
X88421000Y-82284500D01*
X88321000Y-82184500D01*
X87669935Y-82184500D01*
X87522918Y-82245396D01*
X87410396Y-82357918D01*
X87349500Y-82504935D01*
X85600000Y-82504935D01*
X85600000Y-81765909D01*
X87896880Y-81765909D01*
X87986088Y-81942569D01*
X88441370Y-82086292D01*
X88916997Y-82044846D01*
X89163912Y-81942569D01*
X89253120Y-81765909D01*
X88575000Y-81087789D01*
X87896880Y-81765909D01*
X85600000Y-81765909D01*
X85600000Y-80736370D01*
X87358708Y-80736370D01*
X87400154Y-81211997D01*
X87502431Y-81458912D01*
X87679091Y-81548120D01*
X88357211Y-80870000D01*
X88792789Y-80870000D01*
X89470909Y-81548120D01*
X89647569Y-81458912D01*
X89791292Y-81003630D01*
X89749846Y-80528003D01*
X89647569Y-80281088D01*
X89470909Y-80191880D01*
X88792789Y-80870000D01*
X88357211Y-80870000D01*
X87679091Y-80191880D01*
X87502431Y-80281088D01*
X87358708Y-80736370D01*
X85600000Y-80736370D01*
X85600000Y-80555425D01*
X86530134Y-79974091D01*
X87896880Y-79974091D01*
X88575000Y-80652211D01*
X89253120Y-79974091D01*
X89163912Y-79797431D01*
X88708630Y-79653708D01*
X88233003Y-79695154D01*
X87986088Y-79797431D01*
X87896880Y-79974091D01*
X86530134Y-79974091D01*
X89544500Y-78090113D01*
X93518133Y-76600000D01*
X106481867Y-76600000D01*
X110455500Y-78090113D01*
X110455500Y-78090113D01*
G37*
X110455500Y-78090113D02*
X113061500Y-79718863D01*
X113061500Y-84591190D01*
X114400000Y-84591190D01*
X114400000Y-119941968D01*
X110957364Y-121909188D01*
X106981867Y-123400000D01*
X93021221Y-123400000D01*
X88548390Y-121412075D01*
X85600000Y-119446482D01*
X85600000Y-119224000D01*
X87349500Y-119224000D01*
X87349500Y-119875065D01*
X87410396Y-120022082D01*
X87522918Y-120134604D01*
X87669935Y-120195500D01*
X88321000Y-120195500D01*
X88421000Y-120095500D01*
X88421000Y-119124000D01*
X88729000Y-119124000D01*
X88729000Y-120095500D01*
X88829000Y-120195500D01*
X89480065Y-120195500D01*
X89627082Y-120134604D01*
X89739604Y-120022082D01*
X89800500Y-119875065D01*
X89800500Y-119224000D01*
X89700500Y-119124000D01*
X88729000Y-119124000D01*
X88421000Y-119124000D01*
X87449500Y-119124000D01*
X87349500Y-119224000D01*
X85600000Y-119224000D01*
X85600000Y-118064935D01*
X87349500Y-118064935D01*
X87349500Y-118716000D01*
X87449500Y-118816000D01*
X88421000Y-118816000D01*
X88421000Y-117844500D01*
X88729000Y-117844500D01*
X88729000Y-118816000D01*
X89700500Y-118816000D01*
X89765323Y-118751177D01*
X90014900Y-118751177D01*
X90014900Y-119188823D01*
X90182380Y-119593156D01*
X90491844Y-119902620D01*
X90896177Y-120070100D01*
X91333823Y-120070100D01*
X91738156Y-119902620D01*
X92047620Y-119593156D01*
X92215100Y-119188823D01*
X92215100Y-118751177D01*
X92047620Y-118346844D01*
X91738156Y-118037380D01*
X91333823Y-117869900D01*
X90896177Y-117869900D01*
X90491844Y-118037380D01*
X90182380Y-118346844D01*
X90014900Y-118751177D01*
X89765323Y-118751177D01*
X89800500Y-118716000D01*
X89800500Y-118064935D01*
X89739604Y-117917918D01*
X89627082Y-117805396D01*
X89480065Y-117744500D01*
X88829000Y-117744500D01*
X88729000Y-117844500D01*
X88421000Y-117844500D01*
X88321000Y-117744500D01*
X87669935Y-117744500D01*
X87522918Y-117805396D01*
X87410396Y-117917918D01*
X87349500Y-118064935D01*
X85600000Y-118064935D01*
X85600000Y-117325909D01*
X87896880Y-117325909D01*
X87986088Y-117502569D01*
X88441370Y-117646292D01*
X88916997Y-117604846D01*
X89163912Y-117502569D01*
X89253120Y-117325909D01*
X88575000Y-116647789D01*
X87896880Y-117325909D01*
X85600000Y-117325909D01*
X85600000Y-116296370D01*
X87358708Y-116296370D01*
X87400154Y-116771997D01*
X87502431Y-117018912D01*
X87679091Y-117108120D01*
X88357211Y-116430000D01*
X88792789Y-116430000D01*
X89470909Y-117108120D01*
X89647569Y-117018912D01*
X89791292Y-116563630D01*
X89760580Y-116211177D01*
X90014900Y-116211177D01*
X90014900Y-116648823D01*
X90182380Y-117053156D01*
X90491844Y-117362620D01*
X90896177Y-117530100D01*
X91333823Y-117530100D01*
X91738156Y-117362620D01*
X92047620Y-117053156D01*
X92215100Y-116648823D01*
X92215100Y-116211177D01*
X92554900Y-116211177D01*
X92554900Y-116648823D01*
X92722380Y-117053156D01*
X93031844Y-117362620D01*
X93436177Y-117530100D01*
X93873823Y-117530100D01*
X94278156Y-117362620D01*
X94475000Y-117165776D01*
X94475000Y-117513604D01*
X94046980Y-117941624D01*
X93873823Y-117869900D01*
X93436177Y-117869900D01*
X93031844Y-118037380D01*
X92722380Y-118346844D01*
X92554900Y-118751177D01*
X92554900Y-119188823D01*
X92722380Y-119593156D01*
X93031844Y-119902620D01*
X93436177Y-120070100D01*
X93873823Y-120070100D01*
X94278156Y-119902620D01*
X94587620Y-119593156D01*
X94755100Y-119188823D01*
X94755100Y-118751177D01*
X94683376Y-118578020D01*
X95211858Y-118049538D01*
X95249432Y-118024432D01*
X95348891Y-117875581D01*
X95375000Y-117744321D01*
X95375000Y-117744317D01*
X95383815Y-117700001D01*
X95375000Y-117655684D01*
X95375000Y-117165776D01*
X95571844Y-117362620D01*
X95976177Y-117530100D01*
X96413823Y-117530100D01*
X96818156Y-117362620D01*
X97015000Y-117165776D01*
X97015000Y-117513604D01*
X96586980Y-117941624D01*
X96413823Y-117869900D01*
X95976177Y-117869900D01*
X95571844Y-118037380D01*
X95262380Y-118346844D01*
X95094900Y-118751177D01*
X95094900Y-119188823D01*
X95262380Y-119593156D01*
X95571844Y-119902620D01*
X95976177Y-120070100D01*
X96413823Y-120070100D01*
X96818156Y-119902620D01*
X97127620Y-119593156D01*
X97295100Y-119188823D01*
X97295100Y-118751177D01*
X97634900Y-118751177D01*
X97634900Y-119188823D01*
X97802380Y-119593156D01*
X98111844Y-119902620D01*
X98516177Y-120070100D01*
X98953823Y-120070100D01*
X99358156Y-119902620D01*
X99667620Y-119593156D01*
X99835100Y-119188823D01*
X99835100Y-118751177D01*
X100174900Y-118751177D01*
X100174900Y-119188823D01*
X100342380Y-119593156D01*
X100651844Y-119902620D01*
X101056177Y-120070100D01*
X101493823Y-120070100D01*
X101898156Y-119902620D01*
X102207620Y-119593156D01*
X102375100Y-119188823D01*
X102375100Y-118758755D01*
X102753000Y-118758755D01*
X102753000Y-119181245D01*
X102914680Y-119571575D01*
X103213425Y-119870320D01*
X103603755Y-120032000D01*
X104026245Y-120032000D01*
X104416575Y-119870320D01*
X104715320Y-119571575D01*
X104877000Y-119181245D01*
X104877000Y-118758755D01*
X104715320Y-118368425D01*
X104605457Y-118258562D01*
X108959227Y-118258562D01*
X109060774Y-118445584D01*
X109552416Y-118606068D01*
X110068048Y-118566193D01*
X110359226Y-118445584D01*
X110460773Y-118258562D01*
X109710000Y-117507789D01*
X108959227Y-118258562D01*
X104605457Y-118258562D01*
X104416575Y-118069680D01*
X104026245Y-117908000D01*
X103603755Y-117908000D01*
X103213425Y-118069680D01*
X102914680Y-118368425D01*
X102753000Y-118758755D01*
X102375100Y-118758755D01*
X102375100Y-118751177D01*
X102207620Y-118346844D01*
X101898156Y-118037380D01*
X101493823Y-117869900D01*
X101056177Y-117869900D01*
X100651844Y-118037380D01*
X100342380Y-118346844D01*
X100174900Y-118751177D01*
X99835100Y-118751177D01*
X99667620Y-118346844D01*
X99358156Y-118037380D01*
X98953823Y-117869900D01*
X98516177Y-117869900D01*
X98111844Y-118037380D01*
X97802380Y-118346844D01*
X97634900Y-118751177D01*
X97295100Y-118751177D01*
X97223376Y-118578020D01*
X97751858Y-118049538D01*
X97789432Y-118024432D01*
X97888891Y-117875581D01*
X97915000Y-117744321D01*
X97915000Y-117744317D01*
X97923815Y-117700001D01*
X97915000Y-117655684D01*
X97915000Y-117165776D01*
X98111844Y-117362620D01*
X98516177Y-117530100D01*
X98953823Y-117530100D01*
X99358156Y-117362620D01*
X99667620Y-117053156D01*
X99835100Y-116648823D01*
X99835100Y-116211177D01*
X99667620Y-115806844D01*
X99516204Y-115655428D01*
X100493796Y-115655428D01*
X100342380Y-115806844D01*
X100174900Y-116211177D01*
X100174900Y-116648823D01*
X100342380Y-117053156D01*
X100651844Y-117362620D01*
X101056177Y-117530100D01*
X101493823Y-117530100D01*
X101898156Y-117362620D01*
X102207620Y-117053156D01*
X102375100Y-116648823D01*
X102375100Y-116211177D01*
X102207620Y-115806844D01*
X102056204Y-115655428D01*
X103087677Y-115655428D01*
X102914680Y-115828425D01*
X102753000Y-116218755D01*
X102753000Y-116641245D01*
X102914680Y-117031575D01*
X103213425Y-117330320D01*
X103603755Y-117492000D01*
X104026245Y-117492000D01*
X104416575Y-117330320D01*
X104614479Y-117132416D01*
X108393932Y-117132416D01*
X108433807Y-117648048D01*
X108554416Y-117939226D01*
X108741438Y-118040773D01*
X109492211Y-117290000D01*
X109927789Y-117290000D01*
X110678562Y-118040773D01*
X110865584Y-117939226D01*
X111026068Y-117447584D01*
X110986193Y-116931952D01*
X110865584Y-116640774D01*
X110678562Y-116539227D01*
X109927789Y-117290000D01*
X109492211Y-117290000D01*
X108741438Y-116539227D01*
X108554416Y-116640774D01*
X108393932Y-117132416D01*
X104614479Y-117132416D01*
X104715320Y-117031575D01*
X104877000Y-116641245D01*
X104877000Y-116321438D01*
X108959227Y-116321438D01*
X109710000Y-117072211D01*
X110460773Y-116321438D01*
X110359226Y-116134416D01*
X109867584Y-115973932D01*
X109351952Y-116013807D01*
X109060774Y-116134416D01*
X108959227Y-116321438D01*
X104877000Y-116321438D01*
X104877000Y-116218755D01*
X104715320Y-115828425D01*
X104542323Y-115655428D01*
X104741252Y-115655428D01*
X104785572Y-115664244D01*
X104829892Y-115655428D01*
X104829893Y-115655428D01*
X104961153Y-115629319D01*
X105110004Y-115529860D01*
X105135112Y-115492283D01*
X106116090Y-114511305D01*
X108510000Y-114511305D01*
X108510000Y-114988695D01*
X108692689Y-115429745D01*
X109030255Y-115767311D01*
X109471305Y-115950000D01*
X109948695Y-115950000D01*
X110389745Y-115767311D01*
X110727311Y-115429745D01*
X110910000Y-114988695D01*
X110910000Y-114511305D01*
X110727311Y-114070255D01*
X110389745Y-113732689D01*
X109948695Y-113550000D01*
X109471305Y-113550000D01*
X109030255Y-113732689D01*
X108692689Y-114070255D01*
X108510000Y-114511305D01*
X106116090Y-114511305D01*
X107911861Y-112715536D01*
X107949432Y-112690432D01*
X107974536Y-112652861D01*
X107974538Y-112652859D01*
X108048891Y-112541582D01*
X108083816Y-112366000D01*
X108075000Y-112321679D01*
X108075000Y-111971305D01*
X108510000Y-111971305D01*
X108510000Y-112448695D01*
X108692689Y-112889745D01*
X109030255Y-113227311D01*
X109471305Y-113410000D01*
X109948695Y-113410000D01*
X110389745Y-113227311D01*
X110727311Y-112889745D01*
X110910000Y-112448695D01*
X110910000Y-111971305D01*
X110727311Y-111530255D01*
X110389745Y-111192689D01*
X109948695Y-111010000D01*
X109471305Y-111010000D01*
X109030255Y-111192689D01*
X108692689Y-111530255D01*
X108510000Y-111971305D01*
X108075000Y-111971305D01*
X108075000Y-104790320D01*
X108083816Y-104746000D01*
X108059865Y-104625592D01*
X108053230Y-104592230D01*
X108450000Y-104592230D01*
X108450000Y-105407770D01*
X108762094Y-106161232D01*
X109338768Y-106737906D01*
X110092230Y-107050000D01*
X110907770Y-107050000D01*
X111661232Y-106737906D01*
X112237906Y-106161232D01*
X112550000Y-105407770D01*
X112550000Y-104592230D01*
X112237906Y-103838768D01*
X111661232Y-103262094D01*
X110907770Y-102950000D01*
X110092230Y-102950000D01*
X109338768Y-103262094D01*
X108762094Y-103838768D01*
X108450000Y-104592230D01*
X108053230Y-104592230D01*
X108048891Y-104570419D01*
X107949432Y-104421568D01*
X107911857Y-104396461D01*
X107212540Y-103697145D01*
X107187432Y-103659568D01*
X107038581Y-103560109D01*
X106907321Y-103534000D01*
X106907320Y-103534000D01*
X106863000Y-103525184D01*
X106818680Y-103534000D01*
X105986449Y-103534000D01*
X105942129Y-103525184D01*
X105897809Y-103534000D01*
X105766549Y-103560109D01*
X105617698Y-103659568D01*
X105592591Y-103697143D01*
X105364142Y-103925592D01*
X105210803Y-103925592D01*
X106186396Y-102950000D01*
X106389239Y-102950000D01*
X106646518Y-102843432D01*
X106843432Y-102646518D01*
X106950000Y-102389239D01*
X106950000Y-102110761D01*
X106843432Y-101853482D01*
X106646518Y-101656568D01*
X106389239Y-101550000D01*
X106110761Y-101550000D01*
X105853482Y-101656568D01*
X105656568Y-101853482D01*
X105550000Y-102110761D01*
X105550000Y-102313604D01*
X104113143Y-103750462D01*
X104075569Y-103775568D01*
X104050463Y-103813142D01*
X104000100Y-103888515D01*
X104000100Y-102953640D01*
X103900100Y-102853640D01*
X102954000Y-102853640D01*
X102954000Y-104749700D01*
X103054000Y-104849700D01*
X103679665Y-104849700D01*
X103826682Y-104788804D01*
X103939204Y-104676282D01*
X103950000Y-104650217D01*
X103950000Y-105092744D01*
X103941184Y-105137064D01*
X103950000Y-105181384D01*
X103976109Y-105312644D01*
X104075568Y-105461496D01*
X104113145Y-105486604D01*
X104290430Y-105663889D01*
X104315538Y-105701466D01*
X104464389Y-105800925D01*
X104595649Y-105827034D01*
X104595650Y-105827034D01*
X104639970Y-105835850D01*
X104684290Y-105827034D01*
X105633360Y-105827034D01*
X105674988Y-105835315D01*
X105674988Y-105879640D01*
X105781556Y-106136919D01*
X105908549Y-106263912D01*
X105896184Y-106326074D01*
X105905001Y-106370399D01*
X105905000Y-112035360D01*
X105009296Y-112931065D01*
X105009296Y-107479936D01*
X105152728Y-107336504D01*
X105259296Y-107079225D01*
X105259296Y-106800747D01*
X105152728Y-106543468D01*
X104955814Y-106346554D01*
X104698535Y-106239986D01*
X104420057Y-106239986D01*
X104162778Y-106346554D01*
X103965864Y-106543468D01*
X103859296Y-106800747D01*
X103859296Y-107079225D01*
X103965864Y-107336504D01*
X104109297Y-107479937D01*
X104109296Y-112947186D01*
X103870483Y-113186000D01*
X96493320Y-113186000D01*
X96449000Y-113177184D01*
X96404680Y-113186000D01*
X96404679Y-113186000D01*
X96273419Y-113212109D01*
X96124568Y-113311568D01*
X96099462Y-113349142D01*
X94046981Y-115401624D01*
X93873823Y-115329900D01*
X93436177Y-115329900D01*
X93031844Y-115497380D01*
X92722380Y-115806844D01*
X92554900Y-116211177D01*
X92215100Y-116211177D01*
X92047620Y-115806844D01*
X91738156Y-115497380D01*
X91333823Y-115329900D01*
X90896177Y-115329900D01*
X90491844Y-115497380D01*
X90182380Y-115806844D01*
X90014900Y-116211177D01*
X89760580Y-116211177D01*
X89749846Y-116088003D01*
X89647569Y-115841088D01*
X89470909Y-115751880D01*
X88792789Y-116430000D01*
X88357211Y-116430000D01*
X87679091Y-115751880D01*
X87502431Y-115841088D01*
X87358708Y-116296370D01*
X85600000Y-116296370D01*
X85600000Y-115534091D01*
X87896880Y-115534091D01*
X88575000Y-116212211D01*
X89253120Y-115534091D01*
X89163912Y-115357431D01*
X88708630Y-115213708D01*
X88233003Y-115255154D01*
X87986088Y-115357431D01*
X87896880Y-115534091D01*
X85600000Y-115534091D01*
X85600000Y-110460882D01*
X92202249Y-110460882D01*
X92202249Y-110699576D01*
X92293593Y-110920102D01*
X92462376Y-111088885D01*
X92635948Y-111160780D01*
X92594994Y-111259652D01*
X92594994Y-111498346D01*
X92686338Y-111718872D01*
X92855121Y-111887655D01*
X93075647Y-111978999D01*
X93314341Y-111978999D01*
X93534867Y-111887655D01*
X93622522Y-111800000D01*
X94738605Y-111800000D01*
X95495488Y-112556884D01*
X95495488Y-112648761D01*
X95586832Y-112869287D01*
X95755615Y-113038070D01*
X95976141Y-113129414D01*
X96214835Y-113129414D01*
X96435361Y-113038070D01*
X96604144Y-112869287D01*
X96695488Y-112648761D01*
X96695488Y-112410067D01*
X96604144Y-112189541D01*
X96435361Y-112020758D01*
X96214835Y-111929414D01*
X96140810Y-111929414D01*
X96101697Y-111890301D01*
X96114392Y-111890301D01*
X96334918Y-111798957D01*
X96503701Y-111630174D01*
X96595045Y-111409648D01*
X96595045Y-111170954D01*
X96503701Y-110950428D01*
X96334918Y-110781645D01*
X96114392Y-110690301D01*
X96035802Y-110690301D01*
X96019478Y-110665870D01*
X95870627Y-110566411D01*
X95739367Y-110540302D01*
X95739366Y-110540302D01*
X95695046Y-110531486D01*
X95650726Y-110540302D01*
X95540369Y-110540302D01*
X95690238Y-110478225D01*
X95859021Y-110309442D01*
X95950365Y-110088916D01*
X95950365Y-109850222D01*
X95922110Y-109782006D01*
X97527417Y-109782006D01*
X97527417Y-110020700D01*
X97618761Y-110241226D01*
X97787544Y-110410009D01*
X98008070Y-110501353D01*
X98091022Y-110501353D01*
X99486526Y-111896858D01*
X99511632Y-111934432D01*
X99660483Y-112033891D01*
X99791743Y-112060000D01*
X99791744Y-112060000D01*
X99836064Y-112068816D01*
X99880384Y-112060000D01*
X102776471Y-112060000D01*
X102835127Y-112118656D01*
X103055653Y-112210000D01*
X103294347Y-112210000D01*
X103514873Y-112118656D01*
X103683656Y-111949873D01*
X103775000Y-111729347D01*
X103775000Y-111490653D01*
X103683656Y-111270127D01*
X103514873Y-111101344D01*
X103294347Y-111010000D01*
X103055653Y-111010000D01*
X102835127Y-111101344D01*
X102776471Y-111160000D01*
X100022460Y-111160000D01*
X98727417Y-109864958D01*
X98727417Y-109782006D01*
X98636073Y-109561480D01*
X98467290Y-109392697D01*
X98246764Y-109301353D01*
X98008070Y-109301353D01*
X97787544Y-109392697D01*
X97618761Y-109561480D01*
X97527417Y-109782006D01*
X95922110Y-109782006D01*
X95859021Y-109629696D01*
X95690238Y-109460913D01*
X95469712Y-109369569D01*
X95231018Y-109369569D01*
X95107083Y-109420904D01*
X93570747Y-109420904D01*
X93512091Y-109362248D01*
X93291565Y-109270904D01*
X93052871Y-109270904D01*
X92832345Y-109362248D01*
X92663562Y-109531031D01*
X92572218Y-109751557D01*
X92572218Y-109990251D01*
X92584884Y-110020829D01*
X92462376Y-110071573D01*
X92293593Y-110240356D01*
X92202249Y-110460882D01*
X85600000Y-110460882D01*
X85600000Y-109500000D01*
X85592388Y-109461732D01*
X85570711Y-109429289D01*
X85070711Y-108929289D01*
X85038268Y-108907612D01*
X85000000Y-108900000D01*
X81041422Y-108900000D01*
X80600000Y-108458578D01*
X80600000Y-94205000D01*
X84153247Y-94205000D01*
X84165001Y-94264091D01*
X84165000Y-104305914D01*
X84153247Y-104365000D01*
X84165000Y-104424086D01*
X84165000Y-104424090D01*
X84199813Y-104599107D01*
X84332425Y-104797575D01*
X84382522Y-104831049D01*
X85941746Y-106390274D01*
X85875000Y-106551414D01*
X85875000Y-107068586D01*
X86072913Y-107546391D01*
X86438609Y-107912087D01*
X86916414Y-108110000D01*
X87433586Y-108110000D01*
X87911391Y-107912087D01*
X88277087Y-107546391D01*
X88475000Y-107068586D01*
X88475000Y-107004000D01*
X91550000Y-107004000D01*
X91550000Y-107629565D01*
X91610896Y-107776582D01*
X91723418Y-107889104D01*
X91870435Y-107950000D01*
X92496000Y-107950000D01*
X92596000Y-107850000D01*
X92596000Y-106904000D01*
X92904000Y-106904000D01*
X92904000Y-107850000D01*
X93004000Y-107950000D01*
X93629565Y-107950000D01*
X93776582Y-107889104D01*
X93889104Y-107776582D01*
X93950000Y-107629565D01*
X93950000Y-107004000D01*
X93850000Y-106904000D01*
X92904000Y-106904000D01*
X92596000Y-106904000D01*
X91650000Y-106904000D01*
X91550000Y-107004000D01*
X88475000Y-107004000D01*
X88475000Y-106851151D01*
X96175000Y-106851151D01*
X96175000Y-107089845D01*
X96266344Y-107310371D01*
X96435127Y-107479154D01*
X96655653Y-107570498D01*
X96894347Y-107570498D01*
X97114873Y-107479154D01*
X97173529Y-107420498D01*
X99149103Y-107420498D01*
X101975000Y-110246396D01*
X101975000Y-110329347D01*
X102066344Y-110549873D01*
X102235127Y-110718656D01*
X102455653Y-110810000D01*
X102694347Y-110810000D01*
X102914873Y-110718656D01*
X103083656Y-110549873D01*
X103175000Y-110329347D01*
X103175000Y-110090653D01*
X103083656Y-109870127D01*
X102914873Y-109701344D01*
X102694347Y-109610000D01*
X102611396Y-109610000D01*
X99685038Y-106683643D01*
X99659930Y-106646066D01*
X99511079Y-106546607D01*
X99379819Y-106520498D01*
X99379818Y-106520498D01*
X99335498Y-106511682D01*
X99291178Y-106520498D01*
X97173529Y-106520498D01*
X97114873Y-106461842D01*
X96894347Y-106370498D01*
X96655653Y-106370498D01*
X96435127Y-106461842D01*
X96266344Y-106630625D01*
X96175000Y-106851151D01*
X88475000Y-106851151D01*
X88475000Y-106551414D01*
X88277087Y-106073609D01*
X88073913Y-105870435D01*
X91550000Y-105870435D01*
X91550000Y-106496000D01*
X91650000Y-106596000D01*
X92596000Y-106596000D01*
X92596000Y-105650000D01*
X92904000Y-105650000D01*
X92904000Y-106596000D01*
X93850000Y-106596000D01*
X93950000Y-106496000D01*
X93950000Y-105870435D01*
X93889104Y-105723418D01*
X93776582Y-105610896D01*
X93629565Y-105550000D01*
X93004000Y-105550000D01*
X92904000Y-105650000D01*
X92596000Y-105650000D01*
X92496000Y-105550000D01*
X91870435Y-105550000D01*
X91723418Y-105610896D01*
X91610896Y-105723418D01*
X91550000Y-105870435D01*
X88073913Y-105870435D01*
X87911391Y-105707913D01*
X87433586Y-105510000D01*
X86916414Y-105510000D01*
X86804771Y-105556244D01*
X85365000Y-104116473D01*
X85365000Y-103991196D01*
X91650000Y-103991196D01*
X91650000Y-104428804D01*
X91817465Y-104833100D01*
X92126900Y-105142535D01*
X92531196Y-105310000D01*
X92968804Y-105310000D01*
X93373100Y-105142535D01*
X93682535Y-104833100D01*
X93850000Y-104428804D01*
X93850000Y-103991196D01*
X93682535Y-103586900D01*
X93373100Y-103277465D01*
X92968804Y-103110000D01*
X92531196Y-103110000D01*
X92126900Y-103277465D01*
X91817465Y-103586900D01*
X91650000Y-103991196D01*
X85365000Y-103991196D01*
X85365000Y-102953640D01*
X101599900Y-102953640D01*
X101599900Y-104529265D01*
X101660796Y-104676282D01*
X101773318Y-104788804D01*
X101920335Y-104849700D01*
X102546000Y-104849700D01*
X102646000Y-104749700D01*
X102646000Y-102853640D01*
X101699900Y-102853640D01*
X101599900Y-102953640D01*
X85365000Y-102953640D01*
X85365000Y-102565837D01*
X92071952Y-102565837D01*
X92161148Y-102742487D01*
X92616394Y-102886192D01*
X93091981Y-102844743D01*
X93338852Y-102742487D01*
X93428048Y-102565837D01*
X92750000Y-101887789D01*
X92071952Y-102565837D01*
X85365000Y-102565837D01*
X85365000Y-100751414D01*
X85875000Y-100751414D01*
X85875000Y-101268586D01*
X86072913Y-101746391D01*
X86438609Y-102112087D01*
X86916414Y-102310000D01*
X87433586Y-102310000D01*
X87911391Y-102112087D01*
X88277087Y-101746391D01*
X88364070Y-101536394D01*
X91533808Y-101536394D01*
X91575257Y-102011981D01*
X91677513Y-102258852D01*
X91854163Y-102348048D01*
X92532211Y-101670000D01*
X92967789Y-101670000D01*
X93645837Y-102348048D01*
X93822487Y-102258852D01*
X93966192Y-101803606D01*
X93924743Y-101328019D01*
X93822487Y-101081148D01*
X93645837Y-100991952D01*
X92967789Y-101670000D01*
X92532211Y-101670000D01*
X91854163Y-100991952D01*
X91677513Y-101081148D01*
X91533808Y-101536394D01*
X88364070Y-101536394D01*
X88373761Y-101513000D01*
X88530680Y-101513000D01*
X88575000Y-101521816D01*
X88619320Y-101513000D01*
X88619321Y-101513000D01*
X88750581Y-101486891D01*
X88899432Y-101387432D01*
X88924540Y-101349855D01*
X89500232Y-100774163D01*
X92071952Y-100774163D01*
X92750000Y-101452211D01*
X93428048Y-100774163D01*
X93338852Y-100597513D01*
X92883606Y-100453808D01*
X92408019Y-100495257D01*
X92161148Y-100597513D01*
X92071952Y-100774163D01*
X89500232Y-100774163D01*
X90639858Y-99634538D01*
X90677432Y-99609432D01*
X90776891Y-99460581D01*
X90803000Y-99329321D01*
X90803000Y-99329320D01*
X90811816Y-99285000D01*
X90803000Y-99240680D01*
X90803000Y-94882000D01*
X91361500Y-94882000D01*
X91361500Y-94988565D01*
X91422396Y-95135582D01*
X91534918Y-95248104D01*
X91681935Y-95309000D01*
X92079000Y-95309000D01*
X92179000Y-95209000D01*
X92179000Y-94782000D01*
X92487000Y-94782000D01*
X92487000Y-95209000D01*
X92587000Y-95309000D01*
X92984065Y-95309000D01*
X93131082Y-95248104D01*
X93243604Y-95135582D01*
X93304500Y-94988565D01*
X93304500Y-94882000D01*
X93204500Y-94782000D01*
X92487000Y-94782000D01*
X92179000Y-94782000D01*
X91461500Y-94782000D01*
X91361500Y-94882000D01*
X90803000Y-94882000D01*
X90803000Y-94321435D01*
X91361500Y-94321435D01*
X91361500Y-94428000D01*
X91461500Y-94528000D01*
X92179000Y-94528000D01*
X92179000Y-94101000D01*
X92487000Y-94101000D01*
X92487000Y-94528000D01*
X93204500Y-94528000D01*
X93304500Y-94428000D01*
X93304500Y-94321435D01*
X93243604Y-94174418D01*
X93131082Y-94061896D01*
X92984065Y-94001000D01*
X92587000Y-94001000D01*
X92487000Y-94101000D01*
X92179000Y-94101000D01*
X92079000Y-94001000D01*
X91681935Y-94001000D01*
X91534918Y-94061896D01*
X91422396Y-94174418D01*
X91361500Y-94321435D01*
X90803000Y-94321435D01*
X90803000Y-94206395D01*
X91174397Y-93835000D01*
X91531656Y-93835000D01*
X91545212Y-93855288D01*
X91644446Y-93921593D01*
X91761500Y-93944877D01*
X92904500Y-93944877D01*
X93021554Y-93921593D01*
X93120788Y-93855288D01*
X93187093Y-93756054D01*
X93210377Y-93639000D01*
X93210377Y-93131000D01*
X93187093Y-93013946D01*
X93120788Y-92914712D01*
X93021554Y-92848407D01*
X92904500Y-92825123D01*
X91761500Y-92825123D01*
X91644446Y-92848407D01*
X91545212Y-92914712D01*
X91531656Y-92935000D01*
X91032320Y-92935000D01*
X90988000Y-92926184D01*
X90943680Y-92935000D01*
X90943679Y-92935000D01*
X90812419Y-92961109D01*
X90775333Y-92985889D01*
X90701141Y-93035462D01*
X90701140Y-93035463D01*
X90663568Y-93060568D01*
X90638463Y-93098140D01*
X90066145Y-93670460D01*
X90028568Y-93695568D01*
X89929109Y-93844420D01*
X89909127Y-93944877D01*
X89894184Y-94020000D01*
X89903000Y-94064320D01*
X89903001Y-99098603D01*
X88409155Y-100592450D01*
X88277087Y-100273609D01*
X87911391Y-99907913D01*
X87433586Y-99710000D01*
X86916414Y-99710000D01*
X86438609Y-99907913D01*
X86072913Y-100273609D01*
X85875000Y-100751414D01*
X85365000Y-100751414D01*
X85365000Y-94951414D01*
X85875000Y-94951414D01*
X85875000Y-95468586D01*
X86072913Y-95946391D01*
X86438609Y-96312087D01*
X86916414Y-96510000D01*
X87433586Y-96510000D01*
X87911391Y-96312087D01*
X88277087Y-95946391D01*
X88475000Y-95468586D01*
X88475000Y-94951414D01*
X88472066Y-94944330D01*
X90851396Y-92565000D01*
X91531656Y-92565000D01*
X91545212Y-92585288D01*
X91644446Y-92651593D01*
X91761500Y-92674877D01*
X92904500Y-92674877D01*
X93021554Y-92651593D01*
X93120788Y-92585288D01*
X93187093Y-92486054D01*
X93210377Y-92369000D01*
X93210377Y-91861000D01*
X93187093Y-91743946D01*
X93120788Y-91644712D01*
X93021554Y-91578407D01*
X92904500Y-91555123D01*
X91761500Y-91555123D01*
X91644446Y-91578407D01*
X91545212Y-91644712D01*
X91531656Y-91665000D01*
X90709320Y-91665000D01*
X90665000Y-91656184D01*
X90620680Y-91665000D01*
X90620679Y-91665000D01*
X90489419Y-91691109D01*
X90340568Y-91790568D01*
X90315462Y-91828142D01*
X87973541Y-94170063D01*
X87911391Y-94107913D01*
X87433586Y-93910000D01*
X86916414Y-93910000D01*
X86438609Y-94107913D01*
X86072913Y-94473609D01*
X85875000Y-94951414D01*
X85365000Y-94951414D01*
X85365000Y-94453527D01*
X86918528Y-92900000D01*
X88515914Y-92900000D01*
X88575000Y-92911753D01*
X88634086Y-92900000D01*
X88634091Y-92900000D01*
X88809108Y-92865187D01*
X89007575Y-92732575D01*
X89041049Y-92682478D01*
X91497481Y-90226047D01*
X91547575Y-90192575D01*
X91680187Y-89994108D01*
X91715000Y-89819091D01*
X91715000Y-89819087D01*
X91726753Y-89760001D01*
X91715000Y-89700915D01*
X91715000Y-86128529D01*
X91791127Y-86204656D01*
X92011653Y-86296000D01*
X92094604Y-86296000D01*
X92097501Y-86298897D01*
X92097500Y-87496717D01*
X91985946Y-87518907D01*
X91886712Y-87585212D01*
X91820407Y-87684446D01*
X91797123Y-87801500D01*
X91797123Y-89198500D01*
X91820407Y-89315554D01*
X91886712Y-89414788D01*
X91985946Y-89481093D01*
X92097500Y-89503283D01*
X92097500Y-89866105D01*
X92046143Y-89917462D01*
X92008569Y-89942568D01*
X91970195Y-89999999D01*
X91909110Y-90091419D01*
X91874184Y-90267000D01*
X91877789Y-90285123D01*
X91761500Y-90285123D01*
X91644446Y-90308407D01*
X91545212Y-90374712D01*
X91478907Y-90473946D01*
X91455623Y-90591000D01*
X91455623Y-91099000D01*
X91478907Y-91216054D01*
X91545212Y-91315288D01*
X91644446Y-91381593D01*
X91761500Y-91404877D01*
X92904500Y-91404877D01*
X93021554Y-91381593D01*
X93120788Y-91315288D01*
X93187093Y-91216054D01*
X93210377Y-91099000D01*
X93210377Y-90591000D01*
X93187093Y-90473946D01*
X93120788Y-90374712D01*
X93021554Y-90308407D01*
X92929901Y-90290176D01*
X92971391Y-90228081D01*
X92997500Y-90096821D01*
X92997500Y-90096820D01*
X93006316Y-90052500D01*
X92997500Y-90008180D01*
X92997500Y-89503283D01*
X93109054Y-89481093D01*
X93208288Y-89414788D01*
X93274593Y-89315554D01*
X93297877Y-89198500D01*
X93297877Y-88754000D01*
X93608000Y-88754000D01*
X93608000Y-89278065D01*
X93668896Y-89425082D01*
X93781418Y-89537604D01*
X93928435Y-89598500D01*
X94198500Y-89598500D01*
X94298500Y-89498500D01*
X94298500Y-88654000D01*
X93708000Y-88654000D01*
X93608000Y-88754000D01*
X93297877Y-88754000D01*
X93297877Y-87801500D01*
X93282051Y-87721935D01*
X93608000Y-87721935D01*
X93608000Y-88246000D01*
X93708000Y-88346000D01*
X94298500Y-88346000D01*
X94298500Y-87501500D01*
X94198500Y-87401500D01*
X93928435Y-87401500D01*
X93781418Y-87462396D01*
X93668896Y-87574918D01*
X93608000Y-87721935D01*
X93282051Y-87721935D01*
X93274593Y-87684446D01*
X93208288Y-87585212D01*
X93109054Y-87518907D01*
X92997500Y-87496717D01*
X92997500Y-86156820D01*
X93006316Y-86112500D01*
X92991074Y-86035873D01*
X92971391Y-85936919D01*
X92871932Y-85788068D01*
X92834357Y-85762961D01*
X92731000Y-85659604D01*
X92731000Y-85576653D01*
X92639656Y-85356127D01*
X92470873Y-85187344D01*
X92250347Y-85096000D01*
X92011653Y-85096000D01*
X91791127Y-85187344D01*
X91715000Y-85263471D01*
X91715000Y-84352212D01*
X91738156Y-84342620D01*
X91954321Y-84126455D01*
X91961109Y-84160580D01*
X92060568Y-84309432D01*
X92098145Y-84334540D01*
X94985911Y-87222307D01*
X94985911Y-87405371D01*
X94976565Y-87401500D01*
X94706500Y-87401500D01*
X94606500Y-87501500D01*
X94606500Y-88346000D01*
X94626500Y-88346000D01*
X94626500Y-88654000D01*
X94606500Y-88654000D01*
X94606500Y-89498500D01*
X94706500Y-89598500D01*
X94976565Y-89598500D01*
X94985911Y-89594629D01*
X94985910Y-95484748D01*
X94977094Y-95529068D01*
X94985910Y-95573388D01*
X95012019Y-95704648D01*
X95111478Y-95853500D01*
X95149055Y-95878608D01*
X97064973Y-97794527D01*
X97090077Y-97832099D01*
X97127648Y-97857203D01*
X97127650Y-97857205D01*
X97238927Y-97931558D01*
X97414509Y-97966483D01*
X97458831Y-97957667D01*
X97588137Y-97957667D01*
X97588000Y-97957804D01*
X97496656Y-98178330D01*
X97496656Y-98417024D01*
X97588000Y-98637550D01*
X97756783Y-98806333D01*
X97977309Y-98897677D01*
X98060261Y-98897677D01*
X98414886Y-99252303D01*
X98439993Y-99289878D01*
X98588844Y-99389337D01*
X98720104Y-99415446D01*
X98720105Y-99415446D01*
X98764425Y-99424262D01*
X98808745Y-99415446D01*
X98936285Y-99415446D01*
X98902877Y-99496101D01*
X98902877Y-99734795D01*
X98994221Y-99955321D01*
X99139320Y-100100420D01*
X94498237Y-100100420D01*
X93819721Y-99421904D01*
X93850000Y-99348804D01*
X93850000Y-98911196D01*
X93682535Y-98506900D01*
X93373100Y-98197465D01*
X92968804Y-98030000D01*
X92531196Y-98030000D01*
X92126900Y-98197465D01*
X91817465Y-98506900D01*
X91650000Y-98911196D01*
X91650000Y-99348804D01*
X91817465Y-99753100D01*
X92126900Y-100062535D01*
X92531196Y-100230000D01*
X92968804Y-100230000D01*
X93041904Y-100199721D01*
X93843206Y-101001023D01*
X93873892Y-101046948D01*
X94055821Y-101168509D01*
X94216250Y-101200420D01*
X94216251Y-101200420D01*
X94270420Y-101211195D01*
X94324589Y-101200420D01*
X99474411Y-101200420D01*
X99528580Y-101211195D01*
X99582749Y-101200420D01*
X99582750Y-101200420D01*
X99743179Y-101168509D01*
X99925108Y-101046948D01*
X99955796Y-101001020D01*
X100086801Y-100870015D01*
X101599900Y-100870015D01*
X101599900Y-102445640D01*
X101699900Y-102545640D01*
X102646000Y-102545640D01*
X102646000Y-100649580D01*
X102954000Y-100649580D01*
X102954000Y-102545640D01*
X103900100Y-102545640D01*
X104000100Y-102445640D01*
X104000100Y-100870015D01*
X103939204Y-100722998D01*
X103826682Y-100610476D01*
X103679665Y-100549580D01*
X103054000Y-100549580D01*
X102954000Y-100649580D01*
X102646000Y-100649580D01*
X102546000Y-100549580D01*
X101920335Y-100549580D01*
X101773318Y-100610476D01*
X101660796Y-100722998D01*
X101599900Y-100870015D01*
X100086801Y-100870015D01*
X101694023Y-99262794D01*
X101694023Y-100050420D01*
X101717307Y-100167474D01*
X101783612Y-100266708D01*
X101882846Y-100333013D01*
X101999900Y-100356297D01*
X103600100Y-100356297D01*
X103717154Y-100333013D01*
X103816388Y-100266708D01*
X103882693Y-100167474D01*
X103905977Y-100050420D01*
X103905977Y-98819000D01*
X106495941Y-98819000D01*
X106616653Y-98869000D01*
X106855347Y-98869000D01*
X107075873Y-98777656D01*
X107244656Y-98608873D01*
X107336000Y-98388347D01*
X107336000Y-98149653D01*
X107244656Y-97929127D01*
X107075873Y-97760344D01*
X106855347Y-97669000D01*
X106616653Y-97669000D01*
X106495941Y-97719000D01*
X103905977Y-97719000D01*
X103905977Y-96550300D01*
X103882693Y-96433246D01*
X103816388Y-96334012D01*
X103717154Y-96267707D01*
X103600100Y-96244423D01*
X102312170Y-96244423D01*
X104715997Y-93840597D01*
X104753571Y-93815491D01*
X104853030Y-93666640D01*
X104853875Y-93662390D01*
X105069011Y-93573279D01*
X105237794Y-93404496D01*
X105329138Y-93183970D01*
X105329138Y-92945276D01*
X105237794Y-92724750D01*
X105069011Y-92555967D01*
X104874499Y-92475398D01*
X104874499Y-92287004D01*
X104783155Y-92066478D01*
X104614372Y-91897695D01*
X104393846Y-91806351D01*
X104155152Y-91806351D01*
X103964683Y-91885245D01*
X104013541Y-91767291D01*
X104013541Y-91528597D01*
X103922197Y-91308071D01*
X103753414Y-91139288D01*
X103532888Y-91047944D01*
X103294194Y-91047944D01*
X103073668Y-91139288D01*
X102904885Y-91308071D01*
X102813541Y-91528597D01*
X102813541Y-91611548D01*
X101775185Y-92649905D01*
X101737611Y-92675011D01*
X101699148Y-92732575D01*
X101638152Y-92823862D01*
X101603226Y-92999443D01*
X101612043Y-93043768D01*
X101612042Y-94257516D01*
X101542140Y-94327418D01*
X101542140Y-94204823D01*
X101450796Y-93984297D01*
X101282013Y-93815514D01*
X101061487Y-93724170D01*
X100978536Y-93724170D01*
X100352510Y-93098145D01*
X100327402Y-93060568D01*
X100178551Y-92961109D01*
X100047291Y-92935000D01*
X100047290Y-92935000D01*
X100002970Y-92926184D01*
X99958650Y-92935000D01*
X98468344Y-92935000D01*
X98454788Y-92914712D01*
X98355554Y-92848407D01*
X98238500Y-92825123D01*
X98117000Y-92825123D01*
X98117000Y-92674877D01*
X98238500Y-92674877D01*
X98355554Y-92651593D01*
X98454788Y-92585288D01*
X98521093Y-92486054D01*
X98544377Y-92369000D01*
X98544377Y-91861000D01*
X98521093Y-91743946D01*
X98454788Y-91644712D01*
X98355554Y-91578407D01*
X98238500Y-91555123D01*
X97275773Y-91555123D01*
X97426019Y-91404877D01*
X98238500Y-91404877D01*
X98355554Y-91381593D01*
X98454788Y-91315288D01*
X98521093Y-91216054D01*
X98544377Y-91099000D01*
X98544377Y-90591000D01*
X98521093Y-90473946D01*
X98454788Y-90374712D01*
X98355554Y-90308407D01*
X98238500Y-90285123D01*
X97095500Y-90285123D01*
X96978446Y-90308407D01*
X96879212Y-90374712D01*
X96812907Y-90473946D01*
X96789623Y-90591000D01*
X96789623Y-90768481D01*
X96450000Y-91108105D01*
X96450000Y-85799320D01*
X96458816Y-85755000D01*
X96447080Y-85696000D01*
X96423891Y-85579419D01*
X96324432Y-85430568D01*
X96286858Y-85405462D01*
X94683376Y-83801981D01*
X94755100Y-83628823D01*
X94755100Y-83191177D01*
X94587620Y-82786844D01*
X94278156Y-82477380D01*
X93873823Y-82309900D01*
X93436177Y-82309900D01*
X93031844Y-82477380D01*
X92835000Y-82674224D01*
X92835000Y-82326395D01*
X93263020Y-81898376D01*
X93436177Y-81970100D01*
X93873823Y-81970100D01*
X94278156Y-81802620D01*
X94587620Y-81493156D01*
X94755100Y-81088823D01*
X94755100Y-80651177D01*
X95094900Y-80651177D01*
X95094900Y-81088823D01*
X95262380Y-81493156D01*
X95571844Y-81802620D01*
X95976177Y-81970100D01*
X96413823Y-81970100D01*
X96586980Y-81898376D01*
X97015001Y-82326397D01*
X97015001Y-82674225D01*
X96818156Y-82477380D01*
X96413823Y-82309900D01*
X95976177Y-82309900D01*
X95571844Y-82477380D01*
X95262380Y-82786844D01*
X95094900Y-83191177D01*
X95094900Y-83628823D01*
X95262380Y-84033156D01*
X95571844Y-84342620D01*
X95976177Y-84510100D01*
X96413823Y-84510100D01*
X96586981Y-84438376D01*
X99418157Y-87269553D01*
X99443263Y-87307127D01*
X99592114Y-87406586D01*
X99723374Y-87432695D01*
X99723375Y-87432695D01*
X99767695Y-87441511D01*
X99812015Y-87432695D01*
X101511183Y-87432695D01*
X101660018Y-87581531D01*
X101663687Y-87599976D01*
X101763146Y-87748828D01*
X101800723Y-87773936D01*
X105469977Y-91443191D01*
X105469976Y-94087802D01*
X105461160Y-94132122D01*
X105469976Y-94176442D01*
X105496085Y-94307702D01*
X105595544Y-94456554D01*
X105633121Y-94481662D01*
X106293927Y-95142469D01*
X106293927Y-95225420D01*
X106385271Y-95445946D01*
X106554054Y-95614729D01*
X106774580Y-95706073D01*
X107013274Y-95706073D01*
X107233800Y-95614729D01*
X107374985Y-95473544D01*
X107458663Y-95557222D01*
X107679189Y-95648566D01*
X107917883Y-95648566D01*
X108138409Y-95557222D01*
X108307192Y-95388439D01*
X108398536Y-95167913D01*
X108398536Y-94929219D01*
X108307192Y-94708693D01*
X108138409Y-94539910D01*
X107917883Y-94448566D01*
X107834932Y-94448566D01*
X107663349Y-94276983D01*
X107835709Y-94276983D01*
X108056235Y-94185639D01*
X108225018Y-94016856D01*
X108316362Y-93796330D01*
X108316362Y-93717740D01*
X108340793Y-93701416D01*
X108440252Y-93552565D01*
X108466361Y-93421305D01*
X108466361Y-93421304D01*
X108475177Y-93376984D01*
X108466361Y-93332664D01*
X108466361Y-91276132D01*
X108475177Y-91231812D01*
X108462516Y-91168161D01*
X108440252Y-91056232D01*
X108340793Y-90907381D01*
X108303219Y-90882275D01*
X106553597Y-89132653D01*
X107533000Y-89132653D01*
X107533000Y-89371347D01*
X107624344Y-89591873D01*
X107793127Y-89760656D01*
X108013653Y-89852000D01*
X108252347Y-89852000D01*
X108472873Y-89760656D01*
X108533529Y-89700000D01*
X112813605Y-89700000D01*
X113300001Y-90186397D01*
X113300000Y-111049421D01*
X113267054Y-111027407D01*
X113150000Y-111004123D01*
X111350000Y-111004123D01*
X111232946Y-111027407D01*
X111133712Y-111093712D01*
X111067407Y-111192946D01*
X111044123Y-111310000D01*
X111044123Y-113110000D01*
X111067407Y-113227054D01*
X111133712Y-113326288D01*
X111232946Y-113392593D01*
X111350000Y-113415877D01*
X113150000Y-113415877D01*
X113267054Y-113392593D01*
X113300000Y-113370579D01*
X113300000Y-114149173D01*
X113267311Y-114070255D01*
X112929745Y-113732689D01*
X112488695Y-113550000D01*
X112011305Y-113550000D01*
X111570255Y-113732689D01*
X111232689Y-114070255D01*
X111050000Y-114511305D01*
X111050000Y-114988695D01*
X111232689Y-115429745D01*
X111570255Y-115767311D01*
X112011305Y-115950000D01*
X112488695Y-115950000D01*
X112929745Y-115767311D01*
X113267311Y-115429745D01*
X113300000Y-115350827D01*
X113300000Y-116063604D01*
X113010330Y-116353274D01*
X112929745Y-116272689D01*
X112488695Y-116090000D01*
X112011305Y-116090000D01*
X111570255Y-116272689D01*
X111232689Y-116610255D01*
X111050000Y-117051305D01*
X111050000Y-117528695D01*
X111232689Y-117969745D01*
X111570255Y-118307311D01*
X112011305Y-118490000D01*
X112488695Y-118490000D01*
X112929745Y-118307311D01*
X113267311Y-117969745D01*
X113450000Y-117528695D01*
X113450000Y-117186395D01*
X114036858Y-116599538D01*
X114074432Y-116574432D01*
X114173891Y-116425581D01*
X114200000Y-116294321D01*
X114200000Y-116294320D01*
X114208816Y-116250001D01*
X114200000Y-116205681D01*
X114200000Y-90044319D01*
X114208816Y-89999999D01*
X114197392Y-89942568D01*
X114173891Y-89824419D01*
X114074432Y-89675568D01*
X114036857Y-89650461D01*
X113349540Y-88963145D01*
X113324432Y-88925568D01*
X113175581Y-88826109D01*
X113044321Y-88800000D01*
X113044320Y-88800000D01*
X113000000Y-88791184D01*
X112955680Y-88800000D01*
X108529529Y-88800000D01*
X108472873Y-88743344D01*
X108252347Y-88652000D01*
X108013653Y-88652000D01*
X107793127Y-88743344D01*
X107624344Y-88912127D01*
X107533000Y-89132653D01*
X106553597Y-89132653D01*
X104015169Y-86594226D01*
X104011500Y-86575780D01*
X104008518Y-86571316D01*
X103937146Y-86464501D01*
X103912041Y-86426928D01*
X103874466Y-86401822D01*
X102668453Y-85195809D01*
X102643345Y-85158232D01*
X102494494Y-85058773D01*
X102363234Y-85032664D01*
X102363233Y-85032664D01*
X102318913Y-85023848D01*
X102274593Y-85032664D01*
X100994060Y-85032664D01*
X100455000Y-84493605D01*
X100455000Y-84145776D01*
X100651844Y-84342620D01*
X101056177Y-84510100D01*
X101493823Y-84510100D01*
X101898156Y-84342620D01*
X102207620Y-84033156D01*
X102375100Y-83628823D01*
X102375100Y-83198755D01*
X102753000Y-83198755D01*
X102753000Y-83621245D01*
X102914680Y-84011575D01*
X103213425Y-84310320D01*
X103603755Y-84472000D01*
X104026245Y-84472000D01*
X104416575Y-84310320D01*
X104715320Y-84011575D01*
X104877000Y-83621245D01*
X104877000Y-83198755D01*
X105293000Y-83198755D01*
X105293000Y-83621245D01*
X105454680Y-84011575D01*
X105753425Y-84310320D01*
X106143755Y-84472000D01*
X106566245Y-84472000D01*
X106956575Y-84310320D01*
X107255320Y-84011575D01*
X107417000Y-83621245D01*
X107417000Y-83198755D01*
X107833000Y-83198755D01*
X107833000Y-83621245D01*
X107994680Y-84011575D01*
X108293425Y-84310320D01*
X108683755Y-84472000D01*
X109106245Y-84472000D01*
X109496575Y-84310320D01*
X109795320Y-84011575D01*
X109957000Y-83621245D01*
X109957000Y-83198755D01*
X110373000Y-83198755D01*
X110373000Y-83621245D01*
X110534680Y-84011575D01*
X110833425Y-84310320D01*
X111223755Y-84472000D01*
X111646245Y-84472000D01*
X112036575Y-84310320D01*
X112335320Y-84011575D01*
X112497000Y-83621245D01*
X112497000Y-83198755D01*
X112335320Y-82808425D01*
X112036575Y-82509680D01*
X111646245Y-82348000D01*
X111223755Y-82348000D01*
X110833425Y-82509680D01*
X110534680Y-82808425D01*
X110373000Y-83198755D01*
X109957000Y-83198755D01*
X109795320Y-82808425D01*
X109496575Y-82509680D01*
X109106245Y-82348000D01*
X108683755Y-82348000D01*
X108293425Y-82509680D01*
X107994680Y-82808425D01*
X107833000Y-83198755D01*
X107417000Y-83198755D01*
X107255320Y-82808425D01*
X106956575Y-82509680D01*
X106566245Y-82348000D01*
X106143755Y-82348000D01*
X105753425Y-82509680D01*
X105454680Y-82808425D01*
X105293000Y-83198755D01*
X104877000Y-83198755D01*
X104715320Y-82808425D01*
X104416575Y-82509680D01*
X104026245Y-82348000D01*
X103603755Y-82348000D01*
X103213425Y-82509680D01*
X102914680Y-82808425D01*
X102753000Y-83198755D01*
X102375100Y-83198755D01*
X102375100Y-83191177D01*
X102207620Y-82786844D01*
X101898156Y-82477380D01*
X101493823Y-82309900D01*
X101056177Y-82309900D01*
X100651844Y-82477380D01*
X100455000Y-82674224D01*
X100455000Y-82184316D01*
X100463815Y-82139999D01*
X100455000Y-82095683D01*
X100455000Y-82095679D01*
X100428891Y-81964419D01*
X100329432Y-81815568D01*
X100291857Y-81790462D01*
X99763376Y-81261980D01*
X99835100Y-81088823D01*
X99835100Y-80651177D01*
X100174900Y-80651177D01*
X100174900Y-81088823D01*
X100342380Y-81493156D01*
X100651844Y-81802620D01*
X101056177Y-81970100D01*
X101493823Y-81970100D01*
X101898156Y-81802620D01*
X102207620Y-81493156D01*
X102375100Y-81088823D01*
X102375100Y-80658755D01*
X102753000Y-80658755D01*
X102753000Y-81081245D01*
X102914680Y-81471575D01*
X103213425Y-81770320D01*
X103603755Y-81932000D01*
X104026245Y-81932000D01*
X104416575Y-81770320D01*
X104715320Y-81471575D01*
X104877000Y-81081245D01*
X104877000Y-80658755D01*
X105293000Y-80658755D01*
X105293000Y-81081245D01*
X105454680Y-81471575D01*
X105753425Y-81770320D01*
X106143755Y-81932000D01*
X106566245Y-81932000D01*
X106956575Y-81770320D01*
X107255320Y-81471575D01*
X107417000Y-81081245D01*
X107417000Y-80658755D01*
X107833000Y-80658755D01*
X107833000Y-81081245D01*
X107994680Y-81471575D01*
X108293425Y-81770320D01*
X108683755Y-81932000D01*
X109106245Y-81932000D01*
X109496575Y-81770320D01*
X109795320Y-81471575D01*
X109957000Y-81081245D01*
X109957000Y-80658755D01*
X110373000Y-80658755D01*
X110373000Y-81081245D01*
X110534680Y-81471575D01*
X110833425Y-81770320D01*
X111223755Y-81932000D01*
X111646245Y-81932000D01*
X112036575Y-81770320D01*
X112335320Y-81471575D01*
X112497000Y-81081245D01*
X112497000Y-80658755D01*
X112335320Y-80268425D01*
X112036575Y-79969680D01*
X111646245Y-79808000D01*
X111223755Y-79808000D01*
X110833425Y-79969680D01*
X110534680Y-80268425D01*
X110373000Y-80658755D01*
X109957000Y-80658755D01*
X109795320Y-80268425D01*
X109496575Y-79969680D01*
X109106245Y-79808000D01*
X108683755Y-79808000D01*
X108293425Y-79969680D01*
X107994680Y-80268425D01*
X107833000Y-80658755D01*
X107417000Y-80658755D01*
X107255320Y-80268425D01*
X106956575Y-79969680D01*
X106566245Y-79808000D01*
X106143755Y-79808000D01*
X105753425Y-79969680D01*
X105454680Y-80268425D01*
X105293000Y-80658755D01*
X104877000Y-80658755D01*
X104715320Y-80268425D01*
X104416575Y-79969680D01*
X104026245Y-79808000D01*
X103603755Y-79808000D01*
X103213425Y-79969680D01*
X102914680Y-80268425D01*
X102753000Y-80658755D01*
X102375100Y-80658755D01*
X102375100Y-80651177D01*
X102207620Y-80246844D01*
X101898156Y-79937380D01*
X101493823Y-79769900D01*
X101056177Y-79769900D01*
X100651844Y-79937380D01*
X100342380Y-80246844D01*
X100174900Y-80651177D01*
X99835100Y-80651177D01*
X99667620Y-80246844D01*
X99358156Y-79937380D01*
X98953823Y-79769900D01*
X98516177Y-79769900D01*
X98111844Y-79937380D01*
X97802380Y-80246844D01*
X97634900Y-80651177D01*
X97634900Y-81088823D01*
X97802380Y-81493156D01*
X98111844Y-81802620D01*
X98516177Y-81970100D01*
X98953823Y-81970100D01*
X99126980Y-81898376D01*
X99555001Y-82326397D01*
X99555001Y-82674225D01*
X99358156Y-82477380D01*
X98953823Y-82309900D01*
X98516177Y-82309900D01*
X98111844Y-82477380D01*
X97915000Y-82674224D01*
X97915000Y-82184316D01*
X97923815Y-82139999D01*
X97915000Y-82095683D01*
X97915000Y-82095679D01*
X97888891Y-81964419D01*
X97789432Y-81815568D01*
X97751857Y-81790462D01*
X97223376Y-81261980D01*
X97295100Y-81088823D01*
X97295100Y-80651177D01*
X97127620Y-80246844D01*
X96818156Y-79937380D01*
X96413823Y-79769900D01*
X95976177Y-79769900D01*
X95571844Y-79937380D01*
X95262380Y-80246844D01*
X95094900Y-80651177D01*
X94755100Y-80651177D01*
X94587620Y-80246844D01*
X94278156Y-79937380D01*
X93873823Y-79769900D01*
X93436177Y-79769900D01*
X93031844Y-79937380D01*
X92722380Y-80246844D01*
X92554900Y-80651177D01*
X92554900Y-81088823D01*
X92626624Y-81261980D01*
X92098143Y-81790462D01*
X92060569Y-81815568D01*
X92035464Y-81853141D01*
X92035463Y-81853142D01*
X91961110Y-81964419D01*
X91926184Y-82140000D01*
X91935001Y-82184325D01*
X91935001Y-82674225D01*
X91738156Y-82477380D01*
X91715000Y-82467788D01*
X91715000Y-81812212D01*
X91738156Y-81802620D01*
X92047620Y-81493156D01*
X92215100Y-81088823D01*
X92215100Y-80651177D01*
X92047620Y-80246844D01*
X91738156Y-79937380D01*
X91333823Y-79769900D01*
X90896177Y-79769900D01*
X90491844Y-79937380D01*
X90182380Y-80246844D01*
X90014900Y-80651177D01*
X90014900Y-81088823D01*
X90182380Y-81493156D01*
X90491844Y-81802620D01*
X90515001Y-81812212D01*
X90515000Y-82467788D01*
X90491844Y-82477380D01*
X90182380Y-82786844D01*
X90014900Y-83191177D01*
X90014900Y-83628823D01*
X90182380Y-84033156D01*
X90491844Y-84342620D01*
X90515000Y-84352212D01*
X90515001Y-89511471D01*
X88326473Y-91700000D01*
X86729088Y-91700000D01*
X86670000Y-91688247D01*
X86610912Y-91700000D01*
X86610909Y-91700000D01*
X86477687Y-91726499D01*
X86435891Y-91734813D01*
X86328828Y-91806351D01*
X86237425Y-91867425D01*
X86203953Y-91917519D01*
X84382520Y-93738953D01*
X84332426Y-93772425D01*
X84298954Y-93822519D01*
X84298953Y-93822520D01*
X84199814Y-93970892D01*
X84153247Y-94205000D01*
X80600000Y-94205000D01*
X80600000Y-92458857D01*
X82118500Y-92458857D01*
X82118500Y-90451190D01*
X86351599Y-90451190D01*
X86465465Y-90648592D01*
X86993464Y-90825838D01*
X87549100Y-90787535D01*
X87884535Y-90648592D01*
X87998401Y-90451190D01*
X87175000Y-89627789D01*
X86351599Y-90451190D01*
X82118500Y-90451190D01*
X82118500Y-89228464D01*
X85759162Y-89228464D01*
X85797465Y-89784100D01*
X85936408Y-90119535D01*
X86133810Y-90233401D01*
X86957211Y-89410000D01*
X87392789Y-89410000D01*
X88216190Y-90233401D01*
X88413592Y-90119535D01*
X88590838Y-89591536D01*
X88552535Y-89035900D01*
X88413592Y-88700465D01*
X88216190Y-88586599D01*
X87392789Y-89410000D01*
X86957211Y-89410000D01*
X86133810Y-88586599D01*
X85936408Y-88700465D01*
X85759162Y-89228464D01*
X82118500Y-89228464D01*
X82118500Y-88368810D01*
X86351599Y-88368810D01*
X87175000Y-89192211D01*
X87998401Y-88368810D01*
X87884535Y-88171408D01*
X87356536Y-87994162D01*
X86800900Y-88032465D01*
X86465465Y-88171408D01*
X86351599Y-88368810D01*
X82118500Y-88368810D01*
X82118500Y-87823143D01*
X80600000Y-87823143D01*
X80600000Y-87041422D01*
X81041422Y-86600000D01*
X85000000Y-86600000D01*
X85038268Y-86592388D01*
X85070711Y-86570711D01*
X85570711Y-86070711D01*
X85592388Y-86038268D01*
X85600000Y-86000000D01*
X85600000Y-83664000D01*
X87349500Y-83664000D01*
X87349500Y-84315065D01*
X87410396Y-84462082D01*
X87522918Y-84574604D01*
X87669935Y-84635500D01*
X88321000Y-84635500D01*
X88421000Y-84535500D01*
X88421000Y-83564000D01*
X88729000Y-83564000D01*
X88729000Y-84535500D01*
X88829000Y-84635500D01*
X89480065Y-84635500D01*
X89627082Y-84574604D01*
X89739604Y-84462082D01*
X89800500Y-84315065D01*
X89800500Y-83664000D01*
X89700500Y-83564000D01*
X88729000Y-83564000D01*
X88421000Y-83564000D01*
X87449500Y-83564000D01*
X87349500Y-83664000D01*
X85600000Y-83664000D01*
X85600000Y-82504935D01*
X87349500Y-82504935D01*
X87349500Y-83156000D01*
X87449500Y-83256000D01*
X88421000Y-83256000D01*
X88421000Y-82284500D01*
X88729000Y-82284500D01*
X88729000Y-83256000D01*
X89700500Y-83256000D01*
X89800500Y-83156000D01*
X89800500Y-82504935D01*
X89739604Y-82357918D01*
X89627082Y-82245396D01*
X89480065Y-82184500D01*
X88829000Y-82184500D01*
X88729000Y-82284500D01*
X88421000Y-82284500D01*
X88321000Y-82184500D01*
X87669935Y-82184500D01*
X87522918Y-82245396D01*
X87410396Y-82357918D01*
X87349500Y-82504935D01*
X85600000Y-82504935D01*
X85600000Y-81765909D01*
X87896880Y-81765909D01*
X87986088Y-81942569D01*
X88441370Y-82086292D01*
X88916997Y-82044846D01*
X89163912Y-81942569D01*
X89253120Y-81765909D01*
X88575000Y-81087789D01*
X87896880Y-81765909D01*
X85600000Y-81765909D01*
X85600000Y-80736370D01*
X87358708Y-80736370D01*
X87400154Y-81211997D01*
X87502431Y-81458912D01*
X87679091Y-81548120D01*
X88357211Y-80870000D01*
X88792789Y-80870000D01*
X89470909Y-81548120D01*
X89647569Y-81458912D01*
X89791292Y-81003630D01*
X89749846Y-80528003D01*
X89647569Y-80281088D01*
X89470909Y-80191880D01*
X88792789Y-80870000D01*
X88357211Y-80870000D01*
X87679091Y-80191880D01*
X87502431Y-80281088D01*
X87358708Y-80736370D01*
X85600000Y-80736370D01*
X85600000Y-80555425D01*
X86530134Y-79974091D01*
X87896880Y-79974091D01*
X88575000Y-80652211D01*
X89253120Y-79974091D01*
X89163912Y-79797431D01*
X88708630Y-79653708D01*
X88233003Y-79695154D01*
X87986088Y-79797431D01*
X87896880Y-79974091D01*
X86530134Y-79974091D01*
X89544500Y-78090113D01*
X93518133Y-76600000D01*
X106481867Y-76600000D01*
X110455500Y-78090113D01*
G04 #@! TD*
M02*
