G04 #@! TF.FileFunction,Legend,Bot*
%FSLAX46Y46*%
G04 Gerber Fmt 4.6, Leading zero omitted, Abs format (unit mm)*
G04 Created by KiCad (PCBNEW (2015-08-30 BZR 6133)-product) date Fr 30 Okt 2015 20:46:54 CET*
%MOMM*%
G01*
G04 APERTURE LIST*
%ADD10C,0.100000*%
%ADD11C,0.150000*%
%ADD12C,0.200000*%
%ADD13C,0.254000*%
%ADD14C,0.127000*%
%ADD15C,0.203200*%
%ADD16C,0.381000*%
%ADD17C,0.101600*%
G04 APERTURE END LIST*
D10*
D11*
X103001190Y-78462381D02*
X103001190Y-77462381D01*
X102429761Y-78462381D02*
X102858333Y-77890952D01*
X102429761Y-77462381D02*
X103001190Y-78033810D01*
X101810714Y-77462381D02*
X101620237Y-77462381D01*
X101524999Y-77510000D01*
X101429761Y-77605238D01*
X101382142Y-77795714D01*
X101382142Y-78129048D01*
X101429761Y-78319524D01*
X101524999Y-78414762D01*
X101620237Y-78462381D01*
X101810714Y-78462381D01*
X101905952Y-78414762D01*
X102001190Y-78319524D01*
X102048809Y-78129048D01*
X102048809Y-77795714D01*
X102001190Y-77605238D01*
X101905952Y-77510000D01*
X101810714Y-77462381D01*
X100953571Y-77938571D02*
X100620237Y-77938571D01*
X100477380Y-78462381D02*
X100953571Y-78462381D01*
X100953571Y-77462381D01*
X100477380Y-77462381D01*
X100144047Y-77462381D02*
X99905952Y-78462381D01*
X99715475Y-77748095D01*
X99524999Y-78462381D01*
X99286904Y-77462381D01*
X98905952Y-78462381D02*
X98905952Y-77462381D01*
X98096428Y-77938571D02*
X97953571Y-77986190D01*
X97905952Y-78033810D01*
X97858333Y-78129048D01*
X97858333Y-78271905D01*
X97905952Y-78367143D01*
X97953571Y-78414762D01*
X98048809Y-78462381D01*
X98429762Y-78462381D01*
X98429762Y-77462381D01*
X98096428Y-77462381D01*
X98001190Y-77510000D01*
X97953571Y-77557619D01*
X97905952Y-77652857D01*
X97905952Y-77748095D01*
X97953571Y-77843333D01*
X98001190Y-77890952D01*
X98096428Y-77938571D01*
X98429762Y-77938571D01*
X97477381Y-78176667D02*
X97001190Y-78176667D01*
X97572619Y-78462381D02*
X97239286Y-77462381D01*
X96905952Y-78462381D01*
X100085000Y-86661429D02*
X100046905Y-86585238D01*
X100046905Y-86470953D01*
X100085000Y-86356667D01*
X100161190Y-86280476D01*
X100237381Y-86242381D01*
X100389762Y-86204286D01*
X100504048Y-86204286D01*
X100656429Y-86242381D01*
X100732619Y-86280476D01*
X100808810Y-86356667D01*
X100846905Y-86470953D01*
X100846905Y-86547143D01*
X100808810Y-86661429D01*
X100770714Y-86699524D01*
X100504048Y-86699524D01*
X100504048Y-86547143D01*
X100846905Y-87042381D02*
X100046905Y-87042381D01*
X100846905Y-87499524D01*
X100046905Y-87499524D01*
X100846905Y-87880476D02*
X100046905Y-87880476D01*
X100046905Y-88070952D01*
X100085000Y-88185238D01*
X100161190Y-88261429D01*
X100237381Y-88299524D01*
X100389762Y-88337619D01*
X100504048Y-88337619D01*
X100656429Y-88299524D01*
X100732619Y-88261429D01*
X100808810Y-88185238D01*
X100846905Y-88070952D01*
X100846905Y-87880476D01*
X101316905Y-86280476D02*
X102116905Y-86547143D01*
X101316905Y-86813810D01*
X102040714Y-87537619D02*
X102078810Y-87499524D01*
X102116905Y-87385238D01*
X102116905Y-87309048D01*
X102078810Y-87194762D01*
X102002619Y-87118571D01*
X101926429Y-87080476D01*
X101774048Y-87042381D01*
X101659762Y-87042381D01*
X101507381Y-87080476D01*
X101431190Y-87118571D01*
X101355000Y-87194762D01*
X101316905Y-87309048D01*
X101316905Y-87385238D01*
X101355000Y-87499524D01*
X101393095Y-87537619D01*
X102040714Y-88337619D02*
X102078810Y-88299524D01*
X102116905Y-88185238D01*
X102116905Y-88109048D01*
X102078810Y-87994762D01*
X102002619Y-87918571D01*
X101926429Y-87880476D01*
X101774048Y-87842381D01*
X101659762Y-87842381D01*
X101507381Y-87880476D01*
X101431190Y-87918571D01*
X101355000Y-87994762D01*
X101316905Y-88109048D01*
X101316905Y-88185238D01*
X101355000Y-88299524D01*
X101393095Y-88337619D01*
X103386905Y-86318571D02*
X102586905Y-86318571D01*
X102586905Y-86623333D01*
X102625000Y-86699524D01*
X102663095Y-86737619D01*
X102739286Y-86775714D01*
X102853571Y-86775714D01*
X102929762Y-86737619D01*
X102967857Y-86699524D01*
X103005952Y-86623333D01*
X103005952Y-86318571D01*
X103310714Y-87575714D02*
X103348810Y-87537619D01*
X103386905Y-87423333D01*
X103386905Y-87347143D01*
X103348810Y-87232857D01*
X103272619Y-87156666D01*
X103196429Y-87118571D01*
X103044048Y-87080476D01*
X102929762Y-87080476D01*
X102777381Y-87118571D01*
X102701190Y-87156666D01*
X102625000Y-87232857D01*
X102586905Y-87347143D01*
X102586905Y-87423333D01*
X102625000Y-87537619D01*
X102663095Y-87575714D01*
X102586905Y-88070952D02*
X102586905Y-88147143D01*
X102625000Y-88223333D01*
X102663095Y-88261428D01*
X102739286Y-88299524D01*
X102891667Y-88337619D01*
X103082143Y-88337619D01*
X103234524Y-88299524D01*
X103310714Y-88261428D01*
X103348810Y-88223333D01*
X103386905Y-88147143D01*
X103386905Y-88070952D01*
X103348810Y-87994762D01*
X103310714Y-87956666D01*
X103234524Y-87918571D01*
X103082143Y-87880476D01*
X102891667Y-87880476D01*
X102739286Y-87918571D01*
X102663095Y-87956666D01*
X102625000Y-87994762D01*
X102586905Y-88070952D01*
X104656905Y-86318571D02*
X103856905Y-86318571D01*
X103856905Y-86623333D01*
X103895000Y-86699524D01*
X103933095Y-86737619D01*
X104009286Y-86775714D01*
X104123571Y-86775714D01*
X104199762Y-86737619D01*
X104237857Y-86699524D01*
X104275952Y-86623333D01*
X104275952Y-86318571D01*
X104580714Y-87575714D02*
X104618810Y-87537619D01*
X104656905Y-87423333D01*
X104656905Y-87347143D01*
X104618810Y-87232857D01*
X104542619Y-87156666D01*
X104466429Y-87118571D01*
X104314048Y-87080476D01*
X104199762Y-87080476D01*
X104047381Y-87118571D01*
X103971190Y-87156666D01*
X103895000Y-87232857D01*
X103856905Y-87347143D01*
X103856905Y-87423333D01*
X103895000Y-87537619D01*
X103933095Y-87575714D01*
X103933095Y-87880476D02*
X103895000Y-87918571D01*
X103856905Y-87994762D01*
X103856905Y-88185238D01*
X103895000Y-88261428D01*
X103933095Y-88299524D01*
X104009286Y-88337619D01*
X104085476Y-88337619D01*
X104199762Y-88299524D01*
X104656905Y-87842381D01*
X104656905Y-88337619D01*
X105926905Y-86318571D02*
X105126905Y-86318571D01*
X105126905Y-86623333D01*
X105165000Y-86699524D01*
X105203095Y-86737619D01*
X105279286Y-86775714D01*
X105393571Y-86775714D01*
X105469762Y-86737619D01*
X105507857Y-86699524D01*
X105545952Y-86623333D01*
X105545952Y-86318571D01*
X105850714Y-87575714D02*
X105888810Y-87537619D01*
X105926905Y-87423333D01*
X105926905Y-87347143D01*
X105888810Y-87232857D01*
X105812619Y-87156666D01*
X105736429Y-87118571D01*
X105584048Y-87080476D01*
X105469762Y-87080476D01*
X105317381Y-87118571D01*
X105241190Y-87156666D01*
X105165000Y-87232857D01*
X105126905Y-87347143D01*
X105126905Y-87423333D01*
X105165000Y-87537619D01*
X105203095Y-87575714D01*
X105393571Y-88261428D02*
X105926905Y-88261428D01*
X105088810Y-88070952D02*
X105660238Y-87880476D01*
X105660238Y-88375714D01*
X107196905Y-85518570D02*
X106815952Y-85251903D01*
X107196905Y-85061427D02*
X106396905Y-85061427D01*
X106396905Y-85366189D01*
X106435000Y-85442380D01*
X106473095Y-85480475D01*
X106549286Y-85518570D01*
X106663571Y-85518570D01*
X106739762Y-85480475D01*
X106777857Y-85442380D01*
X106815952Y-85366189D01*
X106815952Y-85061427D01*
X106777857Y-85861427D02*
X106777857Y-86128094D01*
X107196905Y-86242380D02*
X107196905Y-85861427D01*
X106396905Y-85861427D01*
X106396905Y-86242380D01*
X107158810Y-86547142D02*
X107196905Y-86661428D01*
X107196905Y-86851904D01*
X107158810Y-86928094D01*
X107120714Y-86966190D01*
X107044524Y-87004285D01*
X106968333Y-87004285D01*
X106892143Y-86966190D01*
X106854048Y-86928094D01*
X106815952Y-86851904D01*
X106777857Y-86699523D01*
X106739762Y-86623332D01*
X106701667Y-86585237D01*
X106625476Y-86547142D01*
X106549286Y-86547142D01*
X106473095Y-86585237D01*
X106435000Y-86623332D01*
X106396905Y-86699523D01*
X106396905Y-86889999D01*
X106435000Y-87004285D01*
X106777857Y-87347142D02*
X106777857Y-87613809D01*
X107196905Y-87728095D02*
X107196905Y-87347142D01*
X106396905Y-87347142D01*
X106396905Y-87728095D01*
X106396905Y-87956666D02*
X106396905Y-88413809D01*
X107196905Y-88185238D02*
X106396905Y-88185238D01*
X108466905Y-86318571D02*
X107666905Y-86318571D01*
X107666905Y-86623333D01*
X107705000Y-86699524D01*
X107743095Y-86737619D01*
X107819286Y-86775714D01*
X107933571Y-86775714D01*
X108009762Y-86737619D01*
X108047857Y-86699524D01*
X108085952Y-86623333D01*
X108085952Y-86318571D01*
X108466905Y-87118571D02*
X107666905Y-87118571D01*
X107666905Y-87309047D01*
X107705000Y-87423333D01*
X107781190Y-87499524D01*
X107857381Y-87537619D01*
X108009762Y-87575714D01*
X108124048Y-87575714D01*
X108276429Y-87537619D01*
X108352619Y-87499524D01*
X108428810Y-87423333D01*
X108466905Y-87309047D01*
X108466905Y-87118571D01*
X107666905Y-87842381D02*
X107666905Y-88337619D01*
X107971667Y-88070952D01*
X107971667Y-88185238D01*
X108009762Y-88261428D01*
X108047857Y-88299524D01*
X108124048Y-88337619D01*
X108314524Y-88337619D01*
X108390714Y-88299524D01*
X108428810Y-88261428D01*
X108466905Y-88185238D01*
X108466905Y-87956666D01*
X108428810Y-87880476D01*
X108390714Y-87842381D01*
X109736905Y-86318571D02*
X108936905Y-86318571D01*
X108936905Y-86623333D01*
X108975000Y-86699524D01*
X109013095Y-86737619D01*
X109089286Y-86775714D01*
X109203571Y-86775714D01*
X109279762Y-86737619D01*
X109317857Y-86699524D01*
X109355952Y-86623333D01*
X109355952Y-86318571D01*
X109736905Y-87118571D02*
X108936905Y-87118571D01*
X108936905Y-87309047D01*
X108975000Y-87423333D01*
X109051190Y-87499524D01*
X109127381Y-87537619D01*
X109279762Y-87575714D01*
X109394048Y-87575714D01*
X109546429Y-87537619D01*
X109622619Y-87499524D01*
X109698810Y-87423333D01*
X109736905Y-87309047D01*
X109736905Y-87118571D01*
X108936905Y-88299524D02*
X108936905Y-87918571D01*
X109317857Y-87880476D01*
X109279762Y-87918571D01*
X109241667Y-87994762D01*
X109241667Y-88185238D01*
X109279762Y-88261428D01*
X109317857Y-88299524D01*
X109394048Y-88337619D01*
X109584524Y-88337619D01*
X109660714Y-88299524D01*
X109698810Y-88261428D01*
X109736905Y-88185238D01*
X109736905Y-87994762D01*
X109698810Y-87918571D01*
X109660714Y-87880476D01*
X111006905Y-86318571D02*
X110206905Y-86318571D01*
X110206905Y-86623333D01*
X110245000Y-86699524D01*
X110283095Y-86737619D01*
X110359286Y-86775714D01*
X110473571Y-86775714D01*
X110549762Y-86737619D01*
X110587857Y-86699524D01*
X110625952Y-86623333D01*
X110625952Y-86318571D01*
X111006905Y-87118571D02*
X110206905Y-87118571D01*
X110206905Y-87309047D01*
X110245000Y-87423333D01*
X110321190Y-87499524D01*
X110397381Y-87537619D01*
X110549762Y-87575714D01*
X110664048Y-87575714D01*
X110816429Y-87537619D01*
X110892619Y-87499524D01*
X110968810Y-87423333D01*
X111006905Y-87309047D01*
X111006905Y-87118571D01*
X110206905Y-87842381D02*
X110206905Y-88375714D01*
X111006905Y-88032857D01*
X111743571Y-87270952D02*
X112276905Y-87270952D01*
X111819762Y-87270952D02*
X111781667Y-87309047D01*
X111743571Y-87385238D01*
X111743571Y-87499524D01*
X111781667Y-87575714D01*
X111857857Y-87613809D01*
X112276905Y-87613809D01*
X112238810Y-88337619D02*
X112276905Y-88261429D01*
X112276905Y-88109048D01*
X112238810Y-88032857D01*
X112200714Y-87994762D01*
X112124524Y-87956667D01*
X111895952Y-87956667D01*
X111819762Y-87994762D01*
X111781667Y-88032857D01*
X111743571Y-88109048D01*
X111743571Y-88261429D01*
X111781667Y-88337619D01*
D12*
X83494714Y-90022000D02*
X83589952Y-89974381D01*
X83732809Y-89974381D01*
X83875667Y-90022000D01*
X83970905Y-90117238D01*
X84018524Y-90212476D01*
X84066143Y-90402952D01*
X84066143Y-90545810D01*
X84018524Y-90736286D01*
X83970905Y-90831524D01*
X83875667Y-90926762D01*
X83732809Y-90974381D01*
X83637571Y-90974381D01*
X83494714Y-90926762D01*
X83447095Y-90879143D01*
X83447095Y-90545810D01*
X83637571Y-90545810D01*
X83018524Y-90974381D02*
X83018524Y-89974381D01*
X82447095Y-90974381D01*
X82447095Y-89974381D01*
X81970905Y-90974381D02*
X81970905Y-89974381D01*
X81732810Y-89974381D01*
X81589952Y-90022000D01*
X81494714Y-90117238D01*
X81447095Y-90212476D01*
X81399476Y-90402952D01*
X81399476Y-90545810D01*
X81447095Y-90736286D01*
X81494714Y-90831524D01*
X81589952Y-90926762D01*
X81732810Y-90974381D01*
X81970905Y-90974381D01*
X81891571Y-96292571D02*
X81748714Y-96340190D01*
X81701095Y-96387810D01*
X81653476Y-96483048D01*
X81653476Y-96625905D01*
X81701095Y-96721143D01*
X81748714Y-96768762D01*
X81843952Y-96816381D01*
X82224905Y-96816381D01*
X82224905Y-95816381D01*
X81891571Y-95816381D01*
X81796333Y-95864000D01*
X81748714Y-95911619D01*
X81701095Y-96006857D01*
X81701095Y-96102095D01*
X81748714Y-96197333D01*
X81796333Y-96244952D01*
X81891571Y-96292571D01*
X82224905Y-96292571D01*
X81875667Y-102118667D02*
X81399476Y-102118667D01*
X81970905Y-102404381D02*
X81637572Y-101404381D01*
X81304238Y-102404381D01*
X83780429Y-107341619D02*
X83732810Y-107294000D01*
X83637572Y-107246381D01*
X83399476Y-107246381D01*
X83304238Y-107294000D01*
X83256619Y-107341619D01*
X83209000Y-107436857D01*
X83209000Y-107532095D01*
X83256619Y-107674952D01*
X83828048Y-108246381D01*
X83209000Y-108246381D01*
X82351857Y-107579714D02*
X82351857Y-108246381D01*
X82589953Y-107198762D02*
X82828048Y-107913048D01*
X82209000Y-107913048D01*
X81970905Y-107246381D02*
X81637572Y-108246381D01*
X81304238Y-107246381D01*
D11*
X98590000Y-111324524D02*
X98551905Y-111248333D01*
X98551905Y-111134048D01*
X98590000Y-111019762D01*
X98666190Y-110943571D01*
X98742381Y-110905476D01*
X98894762Y-110867381D01*
X99009048Y-110867381D01*
X99161429Y-110905476D01*
X99237619Y-110943571D01*
X99313810Y-111019762D01*
X99351905Y-111134048D01*
X99351905Y-111210238D01*
X99313810Y-111324524D01*
X99275714Y-111362619D01*
X99009048Y-111362619D01*
X99009048Y-111210238D01*
X99351905Y-111705476D02*
X98551905Y-111705476D01*
X99351905Y-112162619D01*
X98551905Y-112162619D01*
X99351905Y-112543571D02*
X98551905Y-112543571D01*
X98551905Y-112734047D01*
X98590000Y-112848333D01*
X98666190Y-112924524D01*
X98742381Y-112962619D01*
X98894762Y-113000714D01*
X99009048Y-113000714D01*
X99161429Y-112962619D01*
X99237619Y-112924524D01*
X99313810Y-112848333D01*
X99351905Y-112734047D01*
X99351905Y-112543571D01*
X99821905Y-110791190D02*
X100621905Y-111057857D01*
X99821905Y-111324524D01*
X100545714Y-112048333D02*
X100583810Y-112010238D01*
X100621905Y-111895952D01*
X100621905Y-111819762D01*
X100583810Y-111705476D01*
X100507619Y-111629285D01*
X100431429Y-111591190D01*
X100279048Y-111553095D01*
X100164762Y-111553095D01*
X100012381Y-111591190D01*
X99936190Y-111629285D01*
X99860000Y-111705476D01*
X99821905Y-111819762D01*
X99821905Y-111895952D01*
X99860000Y-112010238D01*
X99898095Y-112048333D01*
X100545714Y-112848333D02*
X100583810Y-112810238D01*
X100621905Y-112695952D01*
X100621905Y-112619762D01*
X100583810Y-112505476D01*
X100507619Y-112429285D01*
X100431429Y-112391190D01*
X100279048Y-112353095D01*
X100164762Y-112353095D01*
X100012381Y-112391190D01*
X99936190Y-112429285D01*
X99860000Y-112505476D01*
X99821905Y-112619762D01*
X99821905Y-112695952D01*
X99860000Y-112810238D01*
X99898095Y-112848333D01*
X101663333Y-110867381D02*
X101663333Y-111248333D01*
X101891905Y-110791190D02*
X101091905Y-111057857D01*
X101891905Y-111324524D01*
X101891905Y-112048333D02*
X101510952Y-111781666D01*
X101891905Y-111591190D02*
X101091905Y-111591190D01*
X101091905Y-111895952D01*
X101130000Y-111972143D01*
X101168095Y-112010238D01*
X101244286Y-112048333D01*
X101358571Y-112048333D01*
X101434762Y-112010238D01*
X101472857Y-111972143D01*
X101510952Y-111895952D01*
X101510952Y-111591190D01*
X101472857Y-112391190D02*
X101472857Y-112657857D01*
X101891905Y-112772143D02*
X101891905Y-112391190D01*
X101091905Y-112391190D01*
X101091905Y-112772143D01*
X101472857Y-113381667D02*
X101472857Y-113115000D01*
X101891905Y-113115000D02*
X101091905Y-113115000D01*
X101091905Y-113495953D01*
X102933333Y-110867381D02*
X102933333Y-111248333D01*
X103161905Y-110791190D02*
X102361905Y-111057857D01*
X103161905Y-111324524D01*
X103161905Y-111591190D02*
X102361905Y-111591190D01*
X102361905Y-111781666D01*
X102400000Y-111895952D01*
X102476190Y-111972143D01*
X102552381Y-112010238D01*
X102704762Y-112048333D01*
X102819048Y-112048333D01*
X102971429Y-112010238D01*
X103047619Y-111972143D01*
X103123810Y-111895952D01*
X103161905Y-111781666D01*
X103161905Y-111591190D01*
X103085714Y-112848333D02*
X103123810Y-112810238D01*
X103161905Y-112695952D01*
X103161905Y-112619762D01*
X103123810Y-112505476D01*
X103047619Y-112429285D01*
X102971429Y-112391190D01*
X102819048Y-112353095D01*
X102704762Y-112353095D01*
X102552381Y-112391190D01*
X102476190Y-112429285D01*
X102400000Y-112505476D01*
X102361905Y-112619762D01*
X102361905Y-112695952D01*
X102400000Y-112810238D01*
X102438095Y-112848333D01*
X102361905Y-113534047D02*
X102361905Y-113381666D01*
X102400000Y-113305476D01*
X102438095Y-113267381D01*
X102552381Y-113191190D01*
X102704762Y-113153095D01*
X103009524Y-113153095D01*
X103085714Y-113191190D01*
X103123810Y-113229285D01*
X103161905Y-113305476D01*
X103161905Y-113457857D01*
X103123810Y-113534047D01*
X103085714Y-113572143D01*
X103009524Y-113610238D01*
X102819048Y-113610238D01*
X102742857Y-113572143D01*
X102704762Y-113534047D01*
X102666667Y-113457857D01*
X102666667Y-113305476D01*
X102704762Y-113229285D01*
X102742857Y-113191190D01*
X102819048Y-113153095D01*
X104431905Y-110905476D02*
X103631905Y-110905476D01*
X103631905Y-111210238D01*
X103670000Y-111286429D01*
X103708095Y-111324524D01*
X103784286Y-111362619D01*
X103898571Y-111362619D01*
X103974762Y-111324524D01*
X104012857Y-111286429D01*
X104050952Y-111210238D01*
X104050952Y-110905476D01*
X104012857Y-111972143D02*
X104050952Y-112086429D01*
X104089048Y-112124524D01*
X104165238Y-112162619D01*
X104279524Y-112162619D01*
X104355714Y-112124524D01*
X104393810Y-112086429D01*
X104431905Y-112010238D01*
X104431905Y-111705476D01*
X103631905Y-111705476D01*
X103631905Y-111972143D01*
X103670000Y-112048333D01*
X103708095Y-112086429D01*
X103784286Y-112124524D01*
X103860476Y-112124524D01*
X103936667Y-112086429D01*
X103974762Y-112048333D01*
X104012857Y-111972143D01*
X104012857Y-111705476D01*
X103631905Y-112657857D02*
X103631905Y-112734048D01*
X103670000Y-112810238D01*
X103708095Y-112848333D01*
X103784286Y-112886429D01*
X103936667Y-112924524D01*
X104127143Y-112924524D01*
X104279524Y-112886429D01*
X104355714Y-112848333D01*
X104393810Y-112810238D01*
X104431905Y-112734048D01*
X104431905Y-112657857D01*
X104393810Y-112581667D01*
X104355714Y-112543571D01*
X104279524Y-112505476D01*
X104127143Y-112467381D01*
X103936667Y-112467381D01*
X103784286Y-112505476D01*
X103708095Y-112543571D01*
X103670000Y-112581667D01*
X103631905Y-112657857D01*
X105625714Y-111362619D02*
X105663810Y-111324524D01*
X105701905Y-111210238D01*
X105701905Y-111134048D01*
X105663810Y-111019762D01*
X105587619Y-110943571D01*
X105511429Y-110905476D01*
X105359048Y-110867381D01*
X105244762Y-110867381D01*
X105092381Y-110905476D01*
X105016190Y-110943571D01*
X104940000Y-111019762D01*
X104901905Y-111134048D01*
X104901905Y-111210238D01*
X104940000Y-111324524D01*
X104978095Y-111362619D01*
X105663810Y-111667381D02*
X105701905Y-111781667D01*
X105701905Y-111972143D01*
X105663810Y-112048333D01*
X105625714Y-112086429D01*
X105549524Y-112124524D01*
X105473333Y-112124524D01*
X105397143Y-112086429D01*
X105359048Y-112048333D01*
X105320952Y-111972143D01*
X105282857Y-111819762D01*
X105244762Y-111743571D01*
X105206667Y-111705476D01*
X105130476Y-111667381D01*
X105054286Y-111667381D01*
X104978095Y-111705476D01*
X104940000Y-111743571D01*
X104901905Y-111819762D01*
X104901905Y-112010238D01*
X104940000Y-112124524D01*
X105282857Y-112467381D02*
X105282857Y-112734048D01*
X105701905Y-112848334D02*
X105701905Y-112467381D01*
X104901905Y-112467381D01*
X104901905Y-112848334D01*
X105282857Y-113191191D02*
X105282857Y-113457858D01*
X105701905Y-113572144D02*
X105701905Y-113191191D01*
X104901905Y-113191191D01*
X104901905Y-113572144D01*
X105701905Y-113915001D02*
X104901905Y-113915001D01*
X104901905Y-114219763D01*
X104940000Y-114295954D01*
X104978095Y-114334049D01*
X105054286Y-114372144D01*
X105168571Y-114372144D01*
X105244762Y-114334049D01*
X105282857Y-114295954D01*
X105320952Y-114219763D01*
X105320952Y-113915001D01*
X106971905Y-110905476D02*
X106171905Y-110905476D01*
X106743333Y-111172143D01*
X106171905Y-111438810D01*
X106971905Y-111438810D01*
X106971905Y-111819762D02*
X106171905Y-111819762D01*
X106933810Y-112162619D02*
X106971905Y-112276905D01*
X106971905Y-112467381D01*
X106933810Y-112543571D01*
X106895714Y-112581667D01*
X106819524Y-112619762D01*
X106743333Y-112619762D01*
X106667143Y-112581667D01*
X106629048Y-112543571D01*
X106590952Y-112467381D01*
X106552857Y-112315000D01*
X106514762Y-112238809D01*
X106476667Y-112200714D01*
X106400476Y-112162619D01*
X106324286Y-112162619D01*
X106248095Y-112200714D01*
X106210000Y-112238809D01*
X106171905Y-112315000D01*
X106171905Y-112505476D01*
X106210000Y-112619762D01*
X106171905Y-113115000D02*
X106171905Y-113267381D01*
X106210000Y-113343572D01*
X106286190Y-113419762D01*
X106438571Y-113457857D01*
X106705238Y-113457857D01*
X106857619Y-113419762D01*
X106933810Y-113343572D01*
X106971905Y-113267381D01*
X106971905Y-113115000D01*
X106933810Y-113038810D01*
X106857619Y-112962619D01*
X106705238Y-112924524D01*
X106438571Y-112924524D01*
X106286190Y-112962619D01*
X106210000Y-113038810D01*
X106171905Y-113115000D01*
X98590000Y-108251429D02*
X98551905Y-108175238D01*
X98551905Y-108060953D01*
X98590000Y-107946667D01*
X98666190Y-107870476D01*
X98742381Y-107832381D01*
X98894762Y-107794286D01*
X99009048Y-107794286D01*
X99161429Y-107832381D01*
X99237619Y-107870476D01*
X99313810Y-107946667D01*
X99351905Y-108060953D01*
X99351905Y-108137143D01*
X99313810Y-108251429D01*
X99275714Y-108289524D01*
X99009048Y-108289524D01*
X99009048Y-108137143D01*
X99351905Y-108632381D02*
X98551905Y-108632381D01*
X99351905Y-109089524D01*
X98551905Y-109089524D01*
X99351905Y-109470476D02*
X98551905Y-109470476D01*
X98551905Y-109660952D01*
X98590000Y-109775238D01*
X98666190Y-109851429D01*
X98742381Y-109889524D01*
X98894762Y-109927619D01*
X99009048Y-109927619D01*
X99161429Y-109889524D01*
X99237619Y-109851429D01*
X99313810Y-109775238D01*
X99351905Y-109660952D01*
X99351905Y-109470476D01*
X99821905Y-107870476D02*
X100621905Y-108137143D01*
X99821905Y-108403810D01*
X100545714Y-109127619D02*
X100583810Y-109089524D01*
X100621905Y-108975238D01*
X100621905Y-108899048D01*
X100583810Y-108784762D01*
X100507619Y-108708571D01*
X100431429Y-108670476D01*
X100279048Y-108632381D01*
X100164762Y-108632381D01*
X100012381Y-108670476D01*
X99936190Y-108708571D01*
X99860000Y-108784762D01*
X99821905Y-108899048D01*
X99821905Y-108975238D01*
X99860000Y-109089524D01*
X99898095Y-109127619D01*
X100545714Y-109927619D02*
X100583810Y-109889524D01*
X100621905Y-109775238D01*
X100621905Y-109699048D01*
X100583810Y-109584762D01*
X100507619Y-109508571D01*
X100431429Y-109470476D01*
X100279048Y-109432381D01*
X100164762Y-109432381D01*
X100012381Y-109470476D01*
X99936190Y-109508571D01*
X99860000Y-109584762D01*
X99821905Y-109699048D01*
X99821905Y-109775238D01*
X99860000Y-109889524D01*
X99898095Y-109927619D01*
X101663333Y-107260953D02*
X101663333Y-107641905D01*
X101891905Y-107184762D02*
X101091905Y-107451429D01*
X101891905Y-107718096D01*
X101091905Y-107870476D02*
X101891905Y-108137143D01*
X101091905Y-108403810D01*
X101815714Y-109127619D02*
X101853810Y-109089524D01*
X101891905Y-108975238D01*
X101891905Y-108899048D01*
X101853810Y-108784762D01*
X101777619Y-108708571D01*
X101701429Y-108670476D01*
X101549048Y-108632381D01*
X101434762Y-108632381D01*
X101282381Y-108670476D01*
X101206190Y-108708571D01*
X101130000Y-108784762D01*
X101091905Y-108899048D01*
X101091905Y-108975238D01*
X101130000Y-109089524D01*
X101168095Y-109127619D01*
X101815714Y-109927619D02*
X101853810Y-109889524D01*
X101891905Y-109775238D01*
X101891905Y-109699048D01*
X101853810Y-109584762D01*
X101777619Y-109508571D01*
X101701429Y-109470476D01*
X101549048Y-109432381D01*
X101434762Y-109432381D01*
X101282381Y-109470476D01*
X101206190Y-109508571D01*
X101130000Y-109584762D01*
X101091905Y-109699048D01*
X101091905Y-109775238D01*
X101130000Y-109889524D01*
X101168095Y-109927619D01*
X102933333Y-107184762D02*
X102933333Y-107565714D01*
X103161905Y-107108571D02*
X102361905Y-107375238D01*
X103161905Y-107641905D01*
X103161905Y-107908571D02*
X102361905Y-107908571D01*
X102361905Y-108099047D01*
X102400000Y-108213333D01*
X102476190Y-108289524D01*
X102552381Y-108327619D01*
X102704762Y-108365714D01*
X102819048Y-108365714D01*
X102971429Y-108327619D01*
X103047619Y-108289524D01*
X103123810Y-108213333D01*
X103161905Y-108099047D01*
X103161905Y-107908571D01*
X103085714Y-109165714D02*
X103123810Y-109127619D01*
X103161905Y-109013333D01*
X103161905Y-108937143D01*
X103123810Y-108822857D01*
X103047619Y-108746666D01*
X102971429Y-108708571D01*
X102819048Y-108670476D01*
X102704762Y-108670476D01*
X102552381Y-108708571D01*
X102476190Y-108746666D01*
X102400000Y-108822857D01*
X102361905Y-108937143D01*
X102361905Y-109013333D01*
X102400000Y-109127619D01*
X102438095Y-109165714D01*
X102361905Y-109432381D02*
X102361905Y-109965714D01*
X103161905Y-109622857D01*
X104431905Y-107908571D02*
X103631905Y-107908571D01*
X103631905Y-108213333D01*
X103670000Y-108289524D01*
X103708095Y-108327619D01*
X103784286Y-108365714D01*
X103898571Y-108365714D01*
X103974762Y-108327619D01*
X104012857Y-108289524D01*
X104050952Y-108213333D01*
X104050952Y-107908571D01*
X104012857Y-108975238D02*
X104050952Y-109089524D01*
X104089048Y-109127619D01*
X104165238Y-109165714D01*
X104279524Y-109165714D01*
X104355714Y-109127619D01*
X104393810Y-109089524D01*
X104431905Y-109013333D01*
X104431905Y-108708571D01*
X103631905Y-108708571D01*
X103631905Y-108975238D01*
X103670000Y-109051428D01*
X103708095Y-109089524D01*
X103784286Y-109127619D01*
X103860476Y-109127619D01*
X103936667Y-109089524D01*
X103974762Y-109051428D01*
X104012857Y-108975238D01*
X104012857Y-108708571D01*
X104431905Y-109927619D02*
X104431905Y-109470476D01*
X104431905Y-109699047D02*
X103631905Y-109699047D01*
X103746190Y-109622857D01*
X103822381Y-109546666D01*
X103860476Y-109470476D01*
X105701905Y-107337143D02*
X104901905Y-107337143D01*
X105473333Y-107603810D01*
X104901905Y-107870477D01*
X105701905Y-107870477D01*
X104901905Y-108403810D02*
X104901905Y-108556191D01*
X104940000Y-108632382D01*
X105016190Y-108708572D01*
X105168571Y-108746667D01*
X105435238Y-108746667D01*
X105587619Y-108708572D01*
X105663810Y-108632382D01*
X105701905Y-108556191D01*
X105701905Y-108403810D01*
X105663810Y-108327620D01*
X105587619Y-108251429D01*
X105435238Y-108213334D01*
X105168571Y-108213334D01*
X105016190Y-108251429D01*
X104940000Y-108327620D01*
X104901905Y-108403810D01*
X105701905Y-109089524D02*
X104901905Y-109089524D01*
X104901905Y-109280000D01*
X104940000Y-109394286D01*
X105016190Y-109470477D01*
X105092381Y-109508572D01*
X105244762Y-109546667D01*
X105359048Y-109546667D01*
X105511429Y-109508572D01*
X105587619Y-109470477D01*
X105663810Y-109394286D01*
X105701905Y-109280000D01*
X105701905Y-109089524D01*
X105701905Y-109889524D02*
X104901905Y-109889524D01*
X106933810Y-107870476D02*
X106971905Y-107984762D01*
X106971905Y-108175238D01*
X106933810Y-108251428D01*
X106895714Y-108289524D01*
X106819524Y-108327619D01*
X106743333Y-108327619D01*
X106667143Y-108289524D01*
X106629048Y-108251428D01*
X106590952Y-108175238D01*
X106552857Y-108022857D01*
X106514762Y-107946666D01*
X106476667Y-107908571D01*
X106400476Y-107870476D01*
X106324286Y-107870476D01*
X106248095Y-107908571D01*
X106210000Y-107946666D01*
X106171905Y-108022857D01*
X106171905Y-108213333D01*
X106210000Y-108327619D01*
X106895714Y-109127619D02*
X106933810Y-109089524D01*
X106971905Y-108975238D01*
X106971905Y-108899048D01*
X106933810Y-108784762D01*
X106857619Y-108708571D01*
X106781429Y-108670476D01*
X106629048Y-108632381D01*
X106514762Y-108632381D01*
X106362381Y-108670476D01*
X106286190Y-108708571D01*
X106210000Y-108784762D01*
X106171905Y-108899048D01*
X106171905Y-108975238D01*
X106210000Y-109089524D01*
X106248095Y-109127619D01*
X106971905Y-109470476D02*
X106171905Y-109470476D01*
X106971905Y-109927619D02*
X106514762Y-109584762D01*
X106171905Y-109927619D02*
X106629048Y-109470476D01*
X109295238Y-121928571D02*
X109152381Y-121976190D01*
X109104762Y-122023810D01*
X109057143Y-122119048D01*
X109057143Y-122261905D01*
X109104762Y-122357143D01*
X109152381Y-122404762D01*
X109247619Y-122452381D01*
X109628572Y-122452381D01*
X109628572Y-121452381D01*
X109295238Y-121452381D01*
X109200000Y-121500000D01*
X109152381Y-121547619D01*
X109104762Y-121642857D01*
X109104762Y-121738095D01*
X109152381Y-121833333D01*
X109200000Y-121880952D01*
X109295238Y-121928571D01*
X109628572Y-121928571D01*
X108628572Y-121452381D02*
X108628572Y-122261905D01*
X108580953Y-122357143D01*
X108533334Y-122404762D01*
X108438096Y-122452381D01*
X108247619Y-122452381D01*
X108152381Y-122404762D01*
X108104762Y-122357143D01*
X108057143Y-122261905D01*
X108057143Y-121452381D01*
X107628572Y-122404762D02*
X107485715Y-122452381D01*
X107247619Y-122452381D01*
X107152381Y-122404762D01*
X107104762Y-122357143D01*
X107057143Y-122261905D01*
X107057143Y-122166667D01*
X107104762Y-122071429D01*
X107152381Y-122023810D01*
X107247619Y-121976190D01*
X107438096Y-121928571D01*
X107533334Y-121880952D01*
X107580953Y-121833333D01*
X107628572Y-121738095D01*
X107628572Y-121642857D01*
X107580953Y-121547619D01*
X107533334Y-121500000D01*
X107438096Y-121452381D01*
X107200000Y-121452381D01*
X107057143Y-121500000D01*
X106628572Y-122071429D02*
X105866667Y-122071429D01*
X105390477Y-122452381D02*
X105390477Y-121452381D01*
X105057143Y-122166667D01*
X104723810Y-121452381D01*
X104723810Y-122452381D01*
X104057144Y-121452381D02*
X103866667Y-121452381D01*
X103771429Y-121500000D01*
X103676191Y-121595238D01*
X103628572Y-121785714D01*
X103628572Y-122119048D01*
X103676191Y-122309524D01*
X103771429Y-122404762D01*
X103866667Y-122452381D01*
X104057144Y-122452381D01*
X104152382Y-122404762D01*
X104247620Y-122309524D01*
X104295239Y-122119048D01*
X104295239Y-121785714D01*
X104247620Y-121595238D01*
X104152382Y-121500000D01*
X104057144Y-121452381D01*
X103200001Y-122452381D02*
X103200001Y-121452381D01*
X102961906Y-121452381D01*
X102819048Y-121500000D01*
X102723810Y-121595238D01*
X102676191Y-121690476D01*
X102628572Y-121880952D01*
X102628572Y-122023810D01*
X102676191Y-122214286D01*
X102723810Y-122309524D01*
X102819048Y-122404762D01*
X102961906Y-122452381D01*
X103200001Y-122452381D01*
X102200001Y-121452381D02*
X102200001Y-122261905D01*
X102152382Y-122357143D01*
X102104763Y-122404762D01*
X102009525Y-122452381D01*
X101819048Y-122452381D01*
X101723810Y-122404762D01*
X101676191Y-122357143D01*
X101628572Y-122261905D01*
X101628572Y-121452381D01*
X100676191Y-122452381D02*
X101152382Y-122452381D01*
X101152382Y-121452381D01*
X100342858Y-121928571D02*
X100009524Y-121928571D01*
X99866667Y-122452381D02*
X100342858Y-122452381D01*
X100342858Y-121452381D01*
X99866667Y-121452381D01*
X98723810Y-122166667D02*
X98247619Y-122166667D01*
X98819048Y-122452381D02*
X98485715Y-121452381D01*
X98152381Y-122452381D01*
X97961905Y-121452381D02*
X97390476Y-121452381D01*
X97676191Y-122452381D02*
X97676191Y-121452381D01*
X97057143Y-122452381D02*
X97057143Y-121452381D01*
X96723809Y-122166667D01*
X96390476Y-121452381D01*
X96390476Y-122452381D01*
X95914286Y-121928571D02*
X95580952Y-121928571D01*
X95438095Y-122452381D02*
X95914286Y-122452381D01*
X95914286Y-121452381D01*
X95438095Y-121452381D01*
X94485714Y-121500000D02*
X94580952Y-121452381D01*
X94723809Y-121452381D01*
X94866667Y-121500000D01*
X94961905Y-121595238D01*
X95009524Y-121690476D01*
X95057143Y-121880952D01*
X95057143Y-122023810D01*
X95009524Y-122214286D01*
X94961905Y-122309524D01*
X94866667Y-122404762D01*
X94723809Y-122452381D01*
X94628571Y-122452381D01*
X94485714Y-122404762D01*
X94438095Y-122357143D01*
X94438095Y-122023810D01*
X94628571Y-122023810D01*
X94057143Y-122166667D02*
X93580952Y-122166667D01*
X94152381Y-122452381D02*
X93819048Y-121452381D01*
X93485714Y-122452381D01*
X93247619Y-121452381D02*
X92628571Y-121452381D01*
X92961905Y-121833333D01*
X92819047Y-121833333D01*
X92723809Y-121880952D01*
X92676190Y-121928571D01*
X92628571Y-122023810D01*
X92628571Y-122261905D01*
X92676190Y-122357143D01*
X92723809Y-122404762D01*
X92819047Y-122452381D01*
X93104762Y-122452381D01*
X93200000Y-122404762D01*
X93247619Y-122357143D01*
X92247619Y-121547619D02*
X92200000Y-121500000D01*
X92104762Y-121452381D01*
X91866666Y-121452381D01*
X91771428Y-121500000D01*
X91723809Y-121547619D01*
X91676190Y-121642857D01*
X91676190Y-121738095D01*
X91723809Y-121880952D01*
X92295238Y-122452381D01*
X91676190Y-122452381D01*
X91104762Y-121880952D02*
X91200000Y-121833333D01*
X91247619Y-121785714D01*
X91295238Y-121690476D01*
X91295238Y-121642857D01*
X91247619Y-121547619D01*
X91200000Y-121500000D01*
X91104762Y-121452381D01*
X90914285Y-121452381D01*
X90819047Y-121500000D01*
X90771428Y-121547619D01*
X90723809Y-121642857D01*
X90723809Y-121690476D01*
X90771428Y-121785714D01*
X90819047Y-121833333D01*
X90914285Y-121880952D01*
X91104762Y-121880952D01*
X91200000Y-121928571D01*
X91247619Y-121976190D01*
X91295238Y-122071429D01*
X91295238Y-122261905D01*
X91247619Y-122357143D01*
X91200000Y-122404762D01*
X91104762Y-122452381D01*
X90914285Y-122452381D01*
X90819047Y-122404762D01*
X90771428Y-122357143D01*
X90723809Y-122261905D01*
X90723809Y-122071429D01*
X90771428Y-121976190D01*
X90819047Y-121928571D01*
X90914285Y-121880952D01*
X100085000Y-89734524D02*
X100046905Y-89658333D01*
X100046905Y-89544048D01*
X100085000Y-89429762D01*
X100161190Y-89353571D01*
X100237381Y-89315476D01*
X100389762Y-89277381D01*
X100504048Y-89277381D01*
X100656429Y-89315476D01*
X100732619Y-89353571D01*
X100808810Y-89429762D01*
X100846905Y-89544048D01*
X100846905Y-89620238D01*
X100808810Y-89734524D01*
X100770714Y-89772619D01*
X100504048Y-89772619D01*
X100504048Y-89620238D01*
X100846905Y-90115476D02*
X100046905Y-90115476D01*
X100846905Y-90572619D01*
X100046905Y-90572619D01*
X100846905Y-90953571D02*
X100046905Y-90953571D01*
X100046905Y-91144047D01*
X100085000Y-91258333D01*
X100161190Y-91334524D01*
X100237381Y-91372619D01*
X100389762Y-91410714D01*
X100504048Y-91410714D01*
X100656429Y-91372619D01*
X100732619Y-91334524D01*
X100808810Y-91258333D01*
X100846905Y-91144047D01*
X100846905Y-90953571D01*
X101316905Y-89201190D02*
X102116905Y-89467857D01*
X101316905Y-89734524D01*
X102040714Y-90458333D02*
X102078810Y-90420238D01*
X102116905Y-90305952D01*
X102116905Y-90229762D01*
X102078810Y-90115476D01*
X102002619Y-90039285D01*
X101926429Y-90001190D01*
X101774048Y-89963095D01*
X101659762Y-89963095D01*
X101507381Y-90001190D01*
X101431190Y-90039285D01*
X101355000Y-90115476D01*
X101316905Y-90229762D01*
X101316905Y-90305952D01*
X101355000Y-90420238D01*
X101393095Y-90458333D01*
X102040714Y-91258333D02*
X102078810Y-91220238D01*
X102116905Y-91105952D01*
X102116905Y-91029762D01*
X102078810Y-90915476D01*
X102002619Y-90839285D01*
X101926429Y-90801190D01*
X101774048Y-90763095D01*
X101659762Y-90763095D01*
X101507381Y-90801190D01*
X101431190Y-90839285D01*
X101355000Y-90915476D01*
X101316905Y-91029762D01*
X101316905Y-91105952D01*
X101355000Y-91220238D01*
X101393095Y-91258333D01*
X103386905Y-89315476D02*
X102586905Y-89315476D01*
X102586905Y-89620238D01*
X102625000Y-89696429D01*
X102663095Y-89734524D01*
X102739286Y-89772619D01*
X102853571Y-89772619D01*
X102929762Y-89734524D01*
X102967857Y-89696429D01*
X103005952Y-89620238D01*
X103005952Y-89315476D01*
X103310714Y-90572619D02*
X103348810Y-90534524D01*
X103386905Y-90420238D01*
X103386905Y-90344048D01*
X103348810Y-90229762D01*
X103272619Y-90153571D01*
X103196429Y-90115476D01*
X103044048Y-90077381D01*
X102929762Y-90077381D01*
X102777381Y-90115476D01*
X102701190Y-90153571D01*
X102625000Y-90229762D01*
X102586905Y-90344048D01*
X102586905Y-90420238D01*
X102625000Y-90534524D01*
X102663095Y-90572619D01*
X103386905Y-91334524D02*
X103386905Y-90877381D01*
X103386905Y-91105952D02*
X102586905Y-91105952D01*
X102701190Y-91029762D01*
X102777381Y-90953571D01*
X102815476Y-90877381D01*
X104656905Y-89315476D02*
X103856905Y-89315476D01*
X103856905Y-89620238D01*
X103895000Y-89696429D01*
X103933095Y-89734524D01*
X104009286Y-89772619D01*
X104123571Y-89772619D01*
X104199762Y-89734524D01*
X104237857Y-89696429D01*
X104275952Y-89620238D01*
X104275952Y-89315476D01*
X104580714Y-90572619D02*
X104618810Y-90534524D01*
X104656905Y-90420238D01*
X104656905Y-90344048D01*
X104618810Y-90229762D01*
X104542619Y-90153571D01*
X104466429Y-90115476D01*
X104314048Y-90077381D01*
X104199762Y-90077381D01*
X104047381Y-90115476D01*
X103971190Y-90153571D01*
X103895000Y-90229762D01*
X103856905Y-90344048D01*
X103856905Y-90420238D01*
X103895000Y-90534524D01*
X103933095Y-90572619D01*
X103856905Y-90839286D02*
X103856905Y-91334524D01*
X104161667Y-91067857D01*
X104161667Y-91182143D01*
X104199762Y-91258333D01*
X104237857Y-91296429D01*
X104314048Y-91334524D01*
X104504524Y-91334524D01*
X104580714Y-91296429D01*
X104618810Y-91258333D01*
X104656905Y-91182143D01*
X104656905Y-90953571D01*
X104618810Y-90877381D01*
X104580714Y-90839286D01*
X105926905Y-89315476D02*
X105126905Y-89315476D01*
X105126905Y-89620238D01*
X105165000Y-89696429D01*
X105203095Y-89734524D01*
X105279286Y-89772619D01*
X105393571Y-89772619D01*
X105469762Y-89734524D01*
X105507857Y-89696429D01*
X105545952Y-89620238D01*
X105545952Y-89315476D01*
X105850714Y-90572619D02*
X105888810Y-90534524D01*
X105926905Y-90420238D01*
X105926905Y-90344048D01*
X105888810Y-90229762D01*
X105812619Y-90153571D01*
X105736429Y-90115476D01*
X105584048Y-90077381D01*
X105469762Y-90077381D01*
X105317381Y-90115476D01*
X105241190Y-90153571D01*
X105165000Y-90229762D01*
X105126905Y-90344048D01*
X105126905Y-90420238D01*
X105165000Y-90534524D01*
X105203095Y-90572619D01*
X105126905Y-91296429D02*
X105126905Y-90915476D01*
X105507857Y-90877381D01*
X105469762Y-90915476D01*
X105431667Y-90991667D01*
X105431667Y-91182143D01*
X105469762Y-91258333D01*
X105507857Y-91296429D01*
X105584048Y-91334524D01*
X105774524Y-91334524D01*
X105850714Y-91296429D01*
X105888810Y-91258333D01*
X105926905Y-91182143D01*
X105926905Y-90991667D01*
X105888810Y-90915476D01*
X105850714Y-90877381D01*
X106663571Y-89315476D02*
X107196905Y-89315476D01*
X106739762Y-89315476D02*
X106701667Y-89353571D01*
X106663571Y-89429762D01*
X106663571Y-89544048D01*
X106701667Y-89620238D01*
X106777857Y-89658333D01*
X107196905Y-89658333D01*
X107158810Y-90382143D02*
X107196905Y-90305953D01*
X107196905Y-90153572D01*
X107158810Y-90077381D01*
X107120714Y-90039286D01*
X107044524Y-90001191D01*
X106815952Y-90001191D01*
X106739762Y-90039286D01*
X106701667Y-90077381D01*
X106663571Y-90153572D01*
X106663571Y-90305953D01*
X106701667Y-90382143D01*
X108466905Y-89315476D02*
X107666905Y-89315476D01*
X107666905Y-89620238D01*
X107705000Y-89696429D01*
X107743095Y-89734524D01*
X107819286Y-89772619D01*
X107933571Y-89772619D01*
X108009762Y-89734524D01*
X108047857Y-89696429D01*
X108085952Y-89620238D01*
X108085952Y-89315476D01*
X108466905Y-90115476D02*
X107666905Y-90115476D01*
X107666905Y-90305952D01*
X107705000Y-90420238D01*
X107781190Y-90496429D01*
X107857381Y-90534524D01*
X108009762Y-90572619D01*
X108124048Y-90572619D01*
X108276429Y-90534524D01*
X108352619Y-90496429D01*
X108428810Y-90420238D01*
X108466905Y-90305952D01*
X108466905Y-90115476D01*
X107933571Y-91258333D02*
X108466905Y-91258333D01*
X107628810Y-91067857D02*
X108200238Y-90877381D01*
X108200238Y-91372619D01*
X109736905Y-89315476D02*
X108936905Y-89315476D01*
X108936905Y-89620238D01*
X108975000Y-89696429D01*
X109013095Y-89734524D01*
X109089286Y-89772619D01*
X109203571Y-89772619D01*
X109279762Y-89734524D01*
X109317857Y-89696429D01*
X109355952Y-89620238D01*
X109355952Y-89315476D01*
X109736905Y-90115476D02*
X108936905Y-90115476D01*
X108936905Y-90305952D01*
X108975000Y-90420238D01*
X109051190Y-90496429D01*
X109127381Y-90534524D01*
X109279762Y-90572619D01*
X109394048Y-90572619D01*
X109546429Y-90534524D01*
X109622619Y-90496429D01*
X109698810Y-90420238D01*
X109736905Y-90305952D01*
X109736905Y-90115476D01*
X108936905Y-91258333D02*
X108936905Y-91105952D01*
X108975000Y-91029762D01*
X109013095Y-90991667D01*
X109127381Y-90915476D01*
X109279762Y-90877381D01*
X109584524Y-90877381D01*
X109660714Y-90915476D01*
X109698810Y-90953571D01*
X109736905Y-91029762D01*
X109736905Y-91182143D01*
X109698810Y-91258333D01*
X109660714Y-91296429D01*
X109584524Y-91334524D01*
X109394048Y-91334524D01*
X109317857Y-91296429D01*
X109279762Y-91258333D01*
X109241667Y-91182143D01*
X109241667Y-91029762D01*
X109279762Y-90953571D01*
X109317857Y-90915476D01*
X109394048Y-90877381D01*
X110473571Y-89315476D02*
X111006905Y-89315476D01*
X110549762Y-89315476D02*
X110511667Y-89353571D01*
X110473571Y-89429762D01*
X110473571Y-89544048D01*
X110511667Y-89620238D01*
X110587857Y-89658333D01*
X111006905Y-89658333D01*
X110968810Y-90382143D02*
X111006905Y-90305953D01*
X111006905Y-90153572D01*
X110968810Y-90077381D01*
X110930714Y-90039286D01*
X110854524Y-90001191D01*
X110625952Y-90001191D01*
X110549762Y-90039286D01*
X110511667Y-90077381D01*
X110473571Y-90153572D01*
X110473571Y-90305953D01*
X110511667Y-90382143D01*
X111743571Y-89315476D02*
X112276905Y-89315476D01*
X111819762Y-89315476D02*
X111781667Y-89353571D01*
X111743571Y-89429762D01*
X111743571Y-89544048D01*
X111781667Y-89620238D01*
X111857857Y-89658333D01*
X112276905Y-89658333D01*
X112238810Y-90382143D02*
X112276905Y-90305953D01*
X112276905Y-90153572D01*
X112238810Y-90077381D01*
X112200714Y-90039286D01*
X112124524Y-90001191D01*
X111895952Y-90001191D01*
X111819762Y-90039286D01*
X111781667Y-90077381D01*
X111743571Y-90153572D01*
X111743571Y-90305953D01*
X111781667Y-90382143D01*
D13*
X108440000Y-110940000D02*
X108440000Y-118560000D01*
X108440000Y-118560000D02*
X113520000Y-118560000D01*
X113520000Y-118560000D02*
X113520000Y-110940000D01*
X113520000Y-110940000D02*
X108440000Y-110940000D01*
X80190000Y-97809600D02*
X86641600Y-97809600D01*
X90654800Y-97809600D02*
X89156200Y-97809600D01*
X80190000Y-103550000D02*
X86641600Y-103550000D01*
X90654800Y-103550000D02*
X89156200Y-103550000D01*
X89156200Y-97809600D02*
X89664200Y-96793600D01*
X89664200Y-96793600D02*
X86133600Y-96793600D01*
X86133600Y-96793600D02*
X86641600Y-97809600D01*
X89156200Y-103550000D02*
X89664200Y-102534000D01*
X89664200Y-102534000D02*
X86133600Y-102534000D01*
X86133600Y-102534000D02*
X86641600Y-103550000D01*
X90654800Y-103550000D02*
X90654800Y-97809600D01*
X80190000Y-97809600D02*
X80190000Y-103550000D01*
D14*
X95278000Y-89262000D02*
G75*
G03X95278000Y-89262000I-127000J0D01*
G01*
X94008000Y-89262000D02*
X95024000Y-89262000D01*
X95024000Y-89262000D02*
X95024000Y-87738000D01*
X95024000Y-87738000D02*
X94008000Y-87738000D01*
X92992000Y-87738000D02*
X91976000Y-87738000D01*
X91976000Y-87738000D02*
X91976000Y-89262000D01*
X91976000Y-89262000D02*
X92992000Y-89262000D01*
D15*
X100900080Y-96499500D02*
X100900080Y-95498740D01*
X101400460Y-95999120D02*
X100399700Y-95999120D01*
X101400460Y-97098940D02*
X100399700Y-97098940D01*
X100399700Y-97098940D02*
X99398940Y-98099700D01*
X99398940Y-98099700D02*
X99398940Y-103901060D01*
X105200300Y-97098940D02*
X104199540Y-97098940D01*
X106201060Y-98099700D02*
X106201060Y-103901060D01*
X105200300Y-97098940D02*
X106201060Y-98099700D01*
X104199540Y-103901060D02*
X106201060Y-103901060D01*
X99398940Y-103901060D02*
X101400460Y-103901060D01*
D13*
X80190000Y-86209600D02*
X86641600Y-86209600D01*
X90654800Y-86209600D02*
X89156200Y-86209600D01*
X80190000Y-91950000D02*
X86641600Y-91950000D01*
X90654800Y-91950000D02*
X89156200Y-91950000D01*
X89156200Y-86209600D02*
X89664200Y-85193600D01*
X89664200Y-85193600D02*
X86133600Y-85193600D01*
X86133600Y-85193600D02*
X86641600Y-86209600D01*
X89156200Y-91950000D02*
X89664200Y-90934000D01*
X89664200Y-90934000D02*
X86133600Y-90934000D01*
X86133600Y-90934000D02*
X86641600Y-91950000D01*
X90654800Y-91950000D02*
X90654800Y-86209600D01*
X80190000Y-86209600D02*
X80190000Y-91950000D01*
X80190000Y-92009600D02*
X86641600Y-92009600D01*
X90654800Y-92009600D02*
X89156200Y-92009600D01*
X80190000Y-97750000D02*
X86641600Y-97750000D01*
X90654800Y-97750000D02*
X89156200Y-97750000D01*
X89156200Y-92009600D02*
X89664200Y-90993600D01*
X89664200Y-90993600D02*
X86133600Y-90993600D01*
X86133600Y-90993600D02*
X86641600Y-92009600D01*
X89156200Y-97750000D02*
X89664200Y-96734000D01*
X89664200Y-96734000D02*
X86133600Y-96734000D01*
X86133600Y-96734000D02*
X86641600Y-97750000D01*
X90654800Y-97750000D02*
X90654800Y-92009600D01*
X80190000Y-92009600D02*
X80190000Y-97750000D01*
X80190000Y-103609600D02*
X86641600Y-103609600D01*
X90654800Y-103609600D02*
X89156200Y-103609600D01*
X80190000Y-109350000D02*
X86641600Y-109350000D01*
X90654800Y-109350000D02*
X89156200Y-109350000D01*
X89156200Y-103609600D02*
X89664200Y-102593600D01*
X89664200Y-102593600D02*
X86133600Y-102593600D01*
X86133600Y-102593600D02*
X86641600Y-103609600D01*
X89156200Y-109350000D02*
X89664200Y-108334000D01*
X89664200Y-108334000D02*
X86133600Y-108334000D01*
X86133600Y-108334000D02*
X86641600Y-109350000D01*
X90654800Y-109350000D02*
X90654800Y-103609600D01*
X80190000Y-103609600D02*
X80190000Y-109350000D01*
D11*
X108931220Y-99889860D02*
X108570540Y-101360520D01*
X108570540Y-101360520D02*
X108291140Y-100298800D01*
X108291140Y-100298800D02*
X107981260Y-101370680D01*
X107981260Y-101370680D02*
X107640900Y-99920340D01*
X110351080Y-100580740D02*
X109561140Y-100570580D01*
X109561140Y-100570580D02*
X109550980Y-100580740D01*
X109550980Y-100580740D02*
X109550980Y-100570580D01*
X109510340Y-99859380D02*
X109510340Y-101401160D01*
X110399340Y-99849220D02*
X110399340Y-101418940D01*
X110399340Y-101418940D02*
X110389180Y-101408780D01*
X110950520Y-99950820D02*
X111301040Y-99869540D01*
X111301040Y-99869540D02*
X111621080Y-99859380D01*
X111621080Y-99859380D02*
X111859840Y-100060040D01*
X111859840Y-100060040D02*
X111890320Y-100329280D01*
X111890320Y-100329280D02*
X111649020Y-100570580D01*
X111649020Y-100570580D02*
X111260400Y-100700120D01*
X111260400Y-100700120D02*
X111080060Y-100860140D01*
X111080060Y-100860140D02*
X111039420Y-101159860D01*
X111039420Y-101159860D02*
X111270560Y-101380840D01*
X111270560Y-101380840D02*
X111590600Y-101408780D01*
X111590600Y-101408780D02*
X111941120Y-101299560D01*
X112979980Y-99849220D02*
X113228900Y-99869540D01*
X113228900Y-99869540D02*
X113470200Y-100110840D01*
X113470200Y-100110840D02*
X113559100Y-100601060D01*
X113559100Y-100601060D02*
X113531160Y-100949040D01*
X113531160Y-100949040D02*
X113330500Y-101269080D01*
X113330500Y-101269080D02*
X113079040Y-101391000D01*
X113079040Y-101391000D02*
X112769160Y-101319880D01*
X112769160Y-101319880D02*
X112550720Y-101139540D01*
X112550720Y-101139540D02*
X112479600Y-100679800D01*
X112479600Y-100679800D02*
X112530400Y-100270860D01*
X112530400Y-100270860D02*
X112639620Y-99988920D01*
X112639620Y-99988920D02*
X113000300Y-99859380D01*
X112380540Y-98129640D02*
X112639620Y-98690980D01*
X112639620Y-98690980D02*
X112101140Y-99209140D01*
X112101140Y-99209140D02*
X111580440Y-98939900D01*
X111580440Y-98939900D02*
X111301040Y-99099920D01*
X109860860Y-99079600D02*
X109530660Y-98889100D01*
X109530660Y-98889100D02*
X109091240Y-99219300D01*
X109091240Y-99219300D02*
X108618800Y-98729080D01*
X108618800Y-98729080D02*
X108900740Y-98249020D01*
X108900740Y-98249020D02*
X108710240Y-97779120D01*
X108710240Y-97779120D02*
X108100640Y-97591160D01*
X108100640Y-97591160D02*
X108100640Y-96910440D01*
X108100640Y-96910440D02*
X108659440Y-96770740D01*
X108659440Y-96770740D02*
X108860100Y-96199240D01*
X108860100Y-96199240D02*
X108590860Y-95729340D01*
X108590860Y-95729340D02*
X109060760Y-95218800D01*
X109060760Y-95218800D02*
X109578920Y-95480420D01*
X109578920Y-95480420D02*
X110048820Y-95279760D01*
X110048820Y-95279760D02*
X110219000Y-94738740D01*
X110219000Y-94738740D02*
X110909880Y-94720960D01*
X110909880Y-94720960D02*
X111120700Y-95269600D01*
X111120700Y-95269600D02*
X111539800Y-95439780D01*
X111539800Y-95439780D02*
X112090980Y-95170540D01*
X112090980Y-95170540D02*
X112609140Y-95698860D01*
X112609140Y-95698860D02*
X112360220Y-96239880D01*
X112360220Y-96239880D02*
X112530400Y-96719940D01*
X112530400Y-96719940D02*
X113079040Y-96819000D01*
X113079040Y-96819000D02*
X113089200Y-97520040D01*
X113089200Y-97520040D02*
X112530400Y-97720700D01*
X112530400Y-97720700D02*
X112390700Y-98119480D01*
X110249480Y-98099160D02*
X109949760Y-97949300D01*
X109949760Y-97949300D02*
X109749100Y-97751180D01*
X109749100Y-97751180D02*
X109599240Y-97349860D01*
X109599240Y-97349860D02*
X109599240Y-96951080D01*
X109599240Y-96951080D02*
X109749100Y-96600560D01*
X109749100Y-96600560D02*
X110201220Y-96250040D01*
X110201220Y-96250040D02*
X110650800Y-96199240D01*
X110650800Y-96199240D02*
X111049580Y-96300840D01*
X111049580Y-96300840D02*
X111450900Y-96648820D01*
X111450900Y-96648820D02*
X111600760Y-97100940D01*
X111600760Y-97100940D02*
X111549960Y-97598780D01*
X111549960Y-97598780D02*
X111301040Y-97901040D01*
X111301040Y-97901040D02*
X110950520Y-98099160D01*
X110950520Y-98099160D02*
X111301040Y-99099920D01*
X110249480Y-98099160D02*
X109850700Y-99099920D01*
D15*
X96778000Y-90083000D02*
X96905000Y-90083000D01*
X96905000Y-90083000D02*
X96905000Y-95417000D01*
X93095000Y-95417000D02*
X93095000Y-90083000D01*
X93095000Y-90083000D02*
X96778000Y-90083000D01*
X94492000Y-90083000D02*
X94492000Y-90591000D01*
X94492000Y-90591000D02*
X95508000Y-90591000D01*
X95508000Y-90591000D02*
X95508000Y-90083000D01*
X93095000Y-95417000D02*
X96905000Y-95417000D01*
D16*
X91480000Y-108782000D02*
X91480000Y-97098000D01*
X91480000Y-97098000D02*
X97576000Y-97098000D01*
X97576000Y-97098000D02*
X97576000Y-108782000D01*
X97576000Y-108782000D02*
X91480000Y-108782000D01*
D11*
X111333333Y-109252381D02*
X111333333Y-109966667D01*
X111380953Y-110109524D01*
X111476191Y-110204762D01*
X111619048Y-110252381D01*
X111714286Y-110252381D01*
X110952381Y-109252381D02*
X110333333Y-109252381D01*
X110666667Y-109633333D01*
X110523809Y-109633333D01*
X110428571Y-109680952D01*
X110380952Y-109728571D01*
X110333333Y-109823810D01*
X110333333Y-110061905D01*
X110380952Y-110157143D01*
X110428571Y-110204762D01*
X110523809Y-110252381D01*
X110809524Y-110252381D01*
X110904762Y-110204762D01*
X110952381Y-110157143D01*
X88288133Y-97802381D02*
X88288133Y-98516667D01*
X88335753Y-98659524D01*
X88430991Y-98754762D01*
X88573848Y-98802381D01*
X88669086Y-98802381D01*
X87383371Y-97802381D02*
X87573848Y-97802381D01*
X87669086Y-97850000D01*
X87716705Y-97897619D01*
X87811943Y-98040476D01*
X87859562Y-98230952D01*
X87859562Y-98611905D01*
X87811943Y-98707143D01*
X87764324Y-98754762D01*
X87669086Y-98802381D01*
X87478609Y-98802381D01*
X87383371Y-98754762D01*
X87335752Y-98707143D01*
X87288133Y-98611905D01*
X87288133Y-98373810D01*
X87335752Y-98278571D01*
X87383371Y-98230952D01*
X87478609Y-98183333D01*
X87669086Y-98183333D01*
X87764324Y-98230952D01*
X87811943Y-98278571D01*
X87859562Y-98373810D01*
D17*
X94772599Y-87183714D02*
X94801628Y-87212743D01*
X94888714Y-87241771D01*
X94946771Y-87241771D01*
X95033856Y-87212743D01*
X95091914Y-87154686D01*
X95120942Y-87096629D01*
X95149971Y-86980514D01*
X95149971Y-86893429D01*
X95120942Y-86777314D01*
X95091914Y-86719257D01*
X95033856Y-86661200D01*
X94946771Y-86632171D01*
X94888714Y-86632171D01*
X94801628Y-86661200D01*
X94772599Y-86690229D01*
X94424256Y-86893429D02*
X94482314Y-86864400D01*
X94511342Y-86835371D01*
X94540371Y-86777314D01*
X94540371Y-86748286D01*
X94511342Y-86690229D01*
X94482314Y-86661200D01*
X94424256Y-86632171D01*
X94308142Y-86632171D01*
X94250085Y-86661200D01*
X94221056Y-86690229D01*
X94192028Y-86748286D01*
X94192028Y-86777314D01*
X94221056Y-86835371D01*
X94250085Y-86864400D01*
X94308142Y-86893429D01*
X94424256Y-86893429D01*
X94482314Y-86922457D01*
X94511342Y-86951486D01*
X94540371Y-87009543D01*
X94540371Y-87125657D01*
X94511342Y-87183714D01*
X94482314Y-87212743D01*
X94424256Y-87241771D01*
X94308142Y-87241771D01*
X94250085Y-87212743D01*
X94221056Y-87183714D01*
X94192028Y-87125657D01*
X94192028Y-87009543D01*
X94221056Y-86951486D01*
X94250085Y-86922457D01*
X94308142Y-86893429D01*
D11*
X105886666Y-96467143D02*
X105934285Y-96514762D01*
X106077142Y-96562381D01*
X106172380Y-96562381D01*
X106315238Y-96514762D01*
X106410476Y-96419524D01*
X106458095Y-96324286D01*
X106505714Y-96133810D01*
X106505714Y-95990952D01*
X106458095Y-95800476D01*
X106410476Y-95705238D01*
X106315238Y-95610000D01*
X106172380Y-95562381D01*
X106077142Y-95562381D01*
X105934285Y-95610000D01*
X105886666Y-95657619D01*
X105410476Y-96562381D02*
X105220000Y-96562381D01*
X105124761Y-96514762D01*
X105077142Y-96467143D01*
X104981904Y-96324286D01*
X104934285Y-96133810D01*
X104934285Y-95752857D01*
X104981904Y-95657619D01*
X105029523Y-95610000D01*
X105124761Y-95562381D01*
X105315238Y-95562381D01*
X105410476Y-95610000D01*
X105458095Y-95657619D01*
X105505714Y-95752857D01*
X105505714Y-95990952D01*
X105458095Y-96086190D01*
X105410476Y-96133810D01*
X105315238Y-96181429D01*
X105124761Y-96181429D01*
X105029523Y-96133810D01*
X104981904Y-96086190D01*
X104934285Y-95990952D01*
X88288133Y-86302381D02*
X88288133Y-87016667D01*
X88335753Y-87159524D01*
X88430991Y-87254762D01*
X88573848Y-87302381D01*
X88669086Y-87302381D01*
X87669086Y-86730952D02*
X87764324Y-86683333D01*
X87811943Y-86635714D01*
X87859562Y-86540476D01*
X87859562Y-86492857D01*
X87811943Y-86397619D01*
X87764324Y-86350000D01*
X87669086Y-86302381D01*
X87478609Y-86302381D01*
X87383371Y-86350000D01*
X87335752Y-86397619D01*
X87288133Y-86492857D01*
X87288133Y-86540476D01*
X87335752Y-86635714D01*
X87383371Y-86683333D01*
X87478609Y-86730952D01*
X87669086Y-86730952D01*
X87764324Y-86778571D01*
X87811943Y-86826190D01*
X87859562Y-86921429D01*
X87859562Y-87111905D01*
X87811943Y-87207143D01*
X87764324Y-87254762D01*
X87669086Y-87302381D01*
X87478609Y-87302381D01*
X87383371Y-87254762D01*
X87335752Y-87207143D01*
X87288133Y-87111905D01*
X87288133Y-86921429D01*
X87335752Y-86826190D01*
X87383371Y-86778571D01*
X87478609Y-86730952D01*
X88288133Y-92152381D02*
X88288133Y-92866667D01*
X88335753Y-93009524D01*
X88430991Y-93104762D01*
X88573848Y-93152381D01*
X88669086Y-93152381D01*
X87907181Y-92152381D02*
X87240514Y-92152381D01*
X87669086Y-93152381D01*
X88288133Y-103652381D02*
X88288133Y-104366667D01*
X88335753Y-104509524D01*
X88430991Y-104604762D01*
X88573848Y-104652381D01*
X88669086Y-104652381D01*
X87335752Y-103652381D02*
X87811943Y-103652381D01*
X87859562Y-104128571D01*
X87811943Y-104080952D01*
X87716705Y-104033333D01*
X87478609Y-104033333D01*
X87383371Y-104080952D01*
X87335752Y-104128571D01*
X87288133Y-104223810D01*
X87288133Y-104461905D01*
X87335752Y-104557143D01*
X87383371Y-104604762D01*
X87478609Y-104652381D01*
X87716705Y-104652381D01*
X87811943Y-104604762D01*
X87859562Y-104557143D01*
X98361905Y-88252381D02*
X98361905Y-89061905D01*
X98314286Y-89157143D01*
X98266667Y-89204762D01*
X98171429Y-89252381D01*
X97980952Y-89252381D01*
X97885714Y-89204762D01*
X97838095Y-89157143D01*
X97790476Y-89061905D01*
X97790476Y-88252381D01*
X96885714Y-88585714D02*
X96885714Y-89252381D01*
X97123810Y-88204762D02*
X97361905Y-88919048D01*
X96742857Y-88919048D01*
X99761905Y-105722381D02*
X99761905Y-106531905D01*
X99714286Y-106627143D01*
X99666667Y-106674762D01*
X99571429Y-106722381D01*
X99380952Y-106722381D01*
X99285714Y-106674762D01*
X99238095Y-106627143D01*
X99190476Y-106531905D01*
X99190476Y-105722381D01*
X98238095Y-105722381D02*
X98714286Y-105722381D01*
X98761905Y-106198571D01*
X98714286Y-106150952D01*
X98619048Y-106103333D01*
X98380952Y-106103333D01*
X98285714Y-106150952D01*
X98238095Y-106198571D01*
X98190476Y-106293810D01*
X98190476Y-106531905D01*
X98238095Y-106627143D01*
X98285714Y-106674762D01*
X98380952Y-106722381D01*
X98619048Y-106722381D01*
X98714286Y-106674762D01*
X98761905Y-106627143D01*
M02*
