G04 #@! TF.GenerationSoftware,KiCad,Pcbnew,6.0.11-2627ca5db0~126~ubuntu22.04.1*
G04 #@! TF.CreationDate,2023-12-06T10:35:34+01:00*
G04 #@! TF.ProjectId,bus-module_atmega328,6275732d-6d6f-4647-956c-655f61746d65,C*
G04 #@! TF.SameCoordinates,Original*
G04 #@! TF.FileFunction,Legend,Bot*
G04 #@! TF.FilePolarity,Positive*
%FSLAX46Y46*%
G04 Gerber Fmt 4.6, Leading zero omitted, Abs format (unit mm)*
G04 Created by KiCad (PCBNEW 6.0.11-2627ca5db0~126~ubuntu22.04.1) date 2023-12-06 10:35:34*
%MOMM*%
%LPD*%
G01*
G04 APERTURE LIST*
%ADD10C,0.200000*%
%ADD11C,0.150000*%
%ADD12C,2.200000*%
%ADD13R,1.600000X1.600000*%
%ADD14C,1.600000*%
%ADD15R,1.800000X1.800000*%
%ADD16C,1.800000*%
G04 APERTURE END LIST*
D10*
X83910428Y-107341619D02*
X83862809Y-107294000D01*
X83767571Y-107246380D01*
X83529476Y-107246380D01*
X83434238Y-107294000D01*
X83386619Y-107341619D01*
X83339000Y-107436857D01*
X83339000Y-107532095D01*
X83386619Y-107674952D01*
X83958047Y-108246380D01*
X83339000Y-108246380D01*
X82481857Y-107579714D02*
X82481857Y-108246380D01*
X82719952Y-107198761D02*
X82958047Y-107913047D01*
X82339000Y-107913047D01*
X82100904Y-107246380D02*
X81767571Y-108246380D01*
X81434238Y-107246380D01*
D11*
X103001190Y-78462380D02*
X103001190Y-77462380D01*
X102429761Y-78462380D02*
X102858333Y-77890952D01*
X102429761Y-77462380D02*
X103001190Y-78033809D01*
X101810714Y-77462380D02*
X101620238Y-77462380D01*
X101525000Y-77510000D01*
X101429761Y-77605238D01*
X101382142Y-77795714D01*
X101382142Y-78129047D01*
X101429761Y-78319523D01*
X101525000Y-78414761D01*
X101620238Y-78462380D01*
X101810714Y-78462380D01*
X101905952Y-78414761D01*
X102001190Y-78319523D01*
X102048809Y-78129047D01*
X102048809Y-77795714D01*
X102001190Y-77605238D01*
X101905952Y-77510000D01*
X101810714Y-77462380D01*
X100953571Y-77938571D02*
X100620238Y-77938571D01*
X100477380Y-78462380D02*
X100953571Y-78462380D01*
X100953571Y-77462380D01*
X100477380Y-77462380D01*
X100144047Y-77462380D02*
X99905952Y-78462380D01*
X99715476Y-77748095D01*
X99525000Y-78462380D01*
X99286904Y-77462380D01*
X98905952Y-78462380D02*
X98905952Y-77462380D01*
X98096428Y-77938571D02*
X97953571Y-77986190D01*
X97905952Y-78033809D01*
X97858333Y-78129047D01*
X97858333Y-78271904D01*
X97905952Y-78367142D01*
X97953571Y-78414761D01*
X98048809Y-78462380D01*
X98429761Y-78462380D01*
X98429761Y-77462380D01*
X98096428Y-77462380D01*
X98001190Y-77510000D01*
X97953571Y-77557619D01*
X97905952Y-77652857D01*
X97905952Y-77748095D01*
X97953571Y-77843333D01*
X98001190Y-77890952D01*
X98096428Y-77938571D01*
X98429761Y-77938571D01*
X97477380Y-78176666D02*
X97001190Y-78176666D01*
X97572619Y-78462380D02*
X97239285Y-77462380D01*
X96905952Y-78462380D01*
X98536000Y-108153928D02*
X98497904Y-108077738D01*
X98497904Y-107963452D01*
X98536000Y-107849166D01*
X98612190Y-107772976D01*
X98688380Y-107734880D01*
X98840761Y-107696785D01*
X98955047Y-107696785D01*
X99107428Y-107734880D01*
X99183619Y-107772976D01*
X99259809Y-107849166D01*
X99297904Y-107963452D01*
X99297904Y-108039642D01*
X99259809Y-108153928D01*
X99221714Y-108192023D01*
X98955047Y-108192023D01*
X98955047Y-108039642D01*
X99297904Y-108534880D02*
X98497904Y-108534880D01*
X99297904Y-108992023D01*
X98497904Y-108992023D01*
X99297904Y-109372976D02*
X98497904Y-109372976D01*
X98497904Y-109563452D01*
X98536000Y-109677738D01*
X98612190Y-109753928D01*
X98688380Y-109792023D01*
X98840761Y-109830119D01*
X98955047Y-109830119D01*
X99107428Y-109792023D01*
X99183619Y-109753928D01*
X99259809Y-109677738D01*
X99297904Y-109563452D01*
X99297904Y-109372976D01*
X99785904Y-107772976D02*
X100585904Y-108039642D01*
X99785904Y-108306309D01*
X100509714Y-109030119D02*
X100547809Y-108992023D01*
X100585904Y-108877738D01*
X100585904Y-108801547D01*
X100547809Y-108687261D01*
X100471619Y-108611071D01*
X100395428Y-108572976D01*
X100243047Y-108534880D01*
X100128761Y-108534880D01*
X99976380Y-108572976D01*
X99900190Y-108611071D01*
X99824000Y-108687261D01*
X99785904Y-108801547D01*
X99785904Y-108877738D01*
X99824000Y-108992023D01*
X99862095Y-109030119D01*
X100509714Y-109830119D02*
X100547809Y-109792023D01*
X100585904Y-109677738D01*
X100585904Y-109601547D01*
X100547809Y-109487261D01*
X100471619Y-109411071D01*
X100395428Y-109372976D01*
X100243047Y-109334880D01*
X100128761Y-109334880D01*
X99976380Y-109372976D01*
X99900190Y-109411071D01*
X99824000Y-109487261D01*
X99785904Y-109601547D01*
X99785904Y-109677738D01*
X99824000Y-109792023D01*
X99862095Y-109830119D01*
X101645333Y-107163452D02*
X101645333Y-107544404D01*
X101873904Y-107087261D02*
X101073904Y-107353928D01*
X101873904Y-107620595D01*
X101073904Y-107772976D02*
X101873904Y-108039642D01*
X101073904Y-108306309D01*
X101797714Y-109030119D02*
X101835809Y-108992023D01*
X101873904Y-108877738D01*
X101873904Y-108801547D01*
X101835809Y-108687261D01*
X101759619Y-108611071D01*
X101683428Y-108572976D01*
X101531047Y-108534880D01*
X101416761Y-108534880D01*
X101264380Y-108572976D01*
X101188190Y-108611071D01*
X101112000Y-108687261D01*
X101073904Y-108801547D01*
X101073904Y-108877738D01*
X101112000Y-108992023D01*
X101150095Y-109030119D01*
X101797714Y-109830119D02*
X101835809Y-109792023D01*
X101873904Y-109677738D01*
X101873904Y-109601547D01*
X101835809Y-109487261D01*
X101759619Y-109411071D01*
X101683428Y-109372976D01*
X101531047Y-109334880D01*
X101416761Y-109334880D01*
X101264380Y-109372976D01*
X101188190Y-109411071D01*
X101112000Y-109487261D01*
X101073904Y-109601547D01*
X101073904Y-109677738D01*
X101112000Y-109792023D01*
X101150095Y-109830119D01*
X102933333Y-107087261D02*
X102933333Y-107468214D01*
X103161904Y-107011071D02*
X102361904Y-107277738D01*
X103161904Y-107544404D01*
X103161904Y-107811071D02*
X102361904Y-107811071D01*
X102361904Y-108001547D01*
X102400000Y-108115833D01*
X102476190Y-108192023D01*
X102552380Y-108230119D01*
X102704761Y-108268214D01*
X102819047Y-108268214D01*
X102971428Y-108230119D01*
X103047619Y-108192023D01*
X103123809Y-108115833D01*
X103161904Y-108001547D01*
X103161904Y-107811071D01*
X103085714Y-109068214D02*
X103123809Y-109030119D01*
X103161904Y-108915833D01*
X103161904Y-108839642D01*
X103123809Y-108725357D01*
X103047619Y-108649166D01*
X102971428Y-108611071D01*
X102819047Y-108572976D01*
X102704761Y-108572976D01*
X102552380Y-108611071D01*
X102476190Y-108649166D01*
X102400000Y-108725357D01*
X102361904Y-108839642D01*
X102361904Y-108915833D01*
X102400000Y-109030119D01*
X102438095Y-109068214D01*
X102361904Y-109334880D02*
X102361904Y-109868214D01*
X103161904Y-109525357D01*
X104449904Y-107811071D02*
X103649904Y-107811071D01*
X103649904Y-108115833D01*
X103688000Y-108192023D01*
X103726095Y-108230119D01*
X103802285Y-108268214D01*
X103916571Y-108268214D01*
X103992761Y-108230119D01*
X104030857Y-108192023D01*
X104068952Y-108115833D01*
X104068952Y-107811071D01*
X104030857Y-108877738D02*
X104068952Y-108992023D01*
X104107047Y-109030119D01*
X104183238Y-109068214D01*
X104297523Y-109068214D01*
X104373714Y-109030119D01*
X104411809Y-108992023D01*
X104449904Y-108915833D01*
X104449904Y-108611071D01*
X103649904Y-108611071D01*
X103649904Y-108877738D01*
X103688000Y-108953928D01*
X103726095Y-108992023D01*
X103802285Y-109030119D01*
X103878476Y-109030119D01*
X103954666Y-108992023D01*
X103992761Y-108953928D01*
X104030857Y-108877738D01*
X104030857Y-108611071D01*
X104449904Y-109830119D02*
X104449904Y-109372976D01*
X104449904Y-109601547D02*
X103649904Y-109601547D01*
X103764190Y-109525357D01*
X103840380Y-109449166D01*
X103878476Y-109372976D01*
X105737904Y-107239642D02*
X104937904Y-107239642D01*
X105509333Y-107506309D01*
X104937904Y-107772976D01*
X105737904Y-107772976D01*
X104937904Y-108306309D02*
X104937904Y-108458690D01*
X104976000Y-108534880D01*
X105052190Y-108611071D01*
X105204571Y-108649166D01*
X105471238Y-108649166D01*
X105623619Y-108611071D01*
X105699809Y-108534880D01*
X105737904Y-108458690D01*
X105737904Y-108306309D01*
X105699809Y-108230119D01*
X105623619Y-108153928D01*
X105471238Y-108115833D01*
X105204571Y-108115833D01*
X105052190Y-108153928D01*
X104976000Y-108230119D01*
X104937904Y-108306309D01*
X105737904Y-108992023D02*
X104937904Y-108992023D01*
X104937904Y-109182500D01*
X104976000Y-109296785D01*
X105052190Y-109372976D01*
X105128380Y-109411071D01*
X105280761Y-109449166D01*
X105395047Y-109449166D01*
X105547428Y-109411071D01*
X105623619Y-109372976D01*
X105699809Y-109296785D01*
X105737904Y-109182500D01*
X105737904Y-108992023D01*
X105737904Y-109792023D02*
X104937904Y-109792023D01*
X106987809Y-107772976D02*
X107025904Y-107887261D01*
X107025904Y-108077738D01*
X106987809Y-108153928D01*
X106949714Y-108192023D01*
X106873523Y-108230119D01*
X106797333Y-108230119D01*
X106721142Y-108192023D01*
X106683047Y-108153928D01*
X106644952Y-108077738D01*
X106606857Y-107925357D01*
X106568761Y-107849166D01*
X106530666Y-107811071D01*
X106454476Y-107772976D01*
X106378285Y-107772976D01*
X106302095Y-107811071D01*
X106264000Y-107849166D01*
X106225904Y-107925357D01*
X106225904Y-108115833D01*
X106264000Y-108230119D01*
X106949714Y-109030119D02*
X106987809Y-108992023D01*
X107025904Y-108877738D01*
X107025904Y-108801547D01*
X106987809Y-108687261D01*
X106911619Y-108611071D01*
X106835428Y-108572976D01*
X106683047Y-108534880D01*
X106568761Y-108534880D01*
X106416380Y-108572976D01*
X106340190Y-108611071D01*
X106264000Y-108687261D01*
X106225904Y-108801547D01*
X106225904Y-108877738D01*
X106264000Y-108992023D01*
X106302095Y-109030119D01*
X107025904Y-109372976D02*
X106225904Y-109372976D01*
X107025904Y-109830119D02*
X106568761Y-109487261D01*
X106225904Y-109830119D02*
X106683047Y-109372976D01*
X100004000Y-86183928D02*
X99965904Y-86107738D01*
X99965904Y-85993452D01*
X100004000Y-85879166D01*
X100080190Y-85802976D01*
X100156380Y-85764880D01*
X100308761Y-85726785D01*
X100423047Y-85726785D01*
X100575428Y-85764880D01*
X100651619Y-85802976D01*
X100727809Y-85879166D01*
X100765904Y-85993452D01*
X100765904Y-86069642D01*
X100727809Y-86183928D01*
X100689714Y-86222023D01*
X100423047Y-86222023D01*
X100423047Y-86069642D01*
X100765904Y-86564880D02*
X99965904Y-86564880D01*
X100765904Y-87022023D01*
X99965904Y-87022023D01*
X100765904Y-87402976D02*
X99965904Y-87402976D01*
X99965904Y-87593452D01*
X100004000Y-87707738D01*
X100080190Y-87783928D01*
X100156380Y-87822023D01*
X100308761Y-87860119D01*
X100423047Y-87860119D01*
X100575428Y-87822023D01*
X100651619Y-87783928D01*
X100727809Y-87707738D01*
X100765904Y-87593452D01*
X100765904Y-87402976D01*
X101330095Y-85955357D02*
X101292000Y-85993452D01*
X101253904Y-86069642D01*
X101253904Y-86260119D01*
X101292000Y-86336309D01*
X101330095Y-86374404D01*
X101406285Y-86412500D01*
X101482476Y-86412500D01*
X101596761Y-86374404D01*
X102053904Y-85917261D01*
X102053904Y-86412500D01*
X101520571Y-87098214D02*
X102053904Y-87098214D01*
X101215809Y-86907738D02*
X101787238Y-86717261D01*
X101787238Y-87212500D01*
X101253904Y-87402976D02*
X102053904Y-87669642D01*
X101253904Y-87936309D01*
X103341904Y-85841071D02*
X102541904Y-85841071D01*
X102541904Y-86145833D01*
X102580000Y-86222023D01*
X102618095Y-86260119D01*
X102694285Y-86298214D01*
X102808571Y-86298214D01*
X102884761Y-86260119D01*
X102922857Y-86222023D01*
X102960952Y-86145833D01*
X102960952Y-85841071D01*
X103265714Y-87098214D02*
X103303809Y-87060119D01*
X103341904Y-86945833D01*
X103341904Y-86869642D01*
X103303809Y-86755357D01*
X103227619Y-86679166D01*
X103151428Y-86641071D01*
X102999047Y-86602976D01*
X102884761Y-86602976D01*
X102732380Y-86641071D01*
X102656190Y-86679166D01*
X102580000Y-86755357D01*
X102541904Y-86869642D01*
X102541904Y-86945833D01*
X102580000Y-87060119D01*
X102618095Y-87098214D01*
X102541904Y-87593452D02*
X102541904Y-87669642D01*
X102580000Y-87745833D01*
X102618095Y-87783928D01*
X102694285Y-87822023D01*
X102846666Y-87860119D01*
X103037142Y-87860119D01*
X103189523Y-87822023D01*
X103265714Y-87783928D01*
X103303809Y-87745833D01*
X103341904Y-87669642D01*
X103341904Y-87593452D01*
X103303809Y-87517261D01*
X103265714Y-87479166D01*
X103189523Y-87441071D01*
X103037142Y-87402976D01*
X102846666Y-87402976D01*
X102694285Y-87441071D01*
X102618095Y-87479166D01*
X102580000Y-87517261D01*
X102541904Y-87593452D01*
X104629904Y-85841071D02*
X103829904Y-85841071D01*
X103829904Y-86145833D01*
X103868000Y-86222023D01*
X103906095Y-86260119D01*
X103982285Y-86298214D01*
X104096571Y-86298214D01*
X104172761Y-86260119D01*
X104210857Y-86222023D01*
X104248952Y-86145833D01*
X104248952Y-85841071D01*
X104553714Y-87098214D02*
X104591809Y-87060119D01*
X104629904Y-86945833D01*
X104629904Y-86869642D01*
X104591809Y-86755357D01*
X104515619Y-86679166D01*
X104439428Y-86641071D01*
X104287047Y-86602976D01*
X104172761Y-86602976D01*
X104020380Y-86641071D01*
X103944190Y-86679166D01*
X103868000Y-86755357D01*
X103829904Y-86869642D01*
X103829904Y-86945833D01*
X103868000Y-87060119D01*
X103906095Y-87098214D01*
X103906095Y-87402976D02*
X103868000Y-87441071D01*
X103829904Y-87517261D01*
X103829904Y-87707738D01*
X103868000Y-87783928D01*
X103906095Y-87822023D01*
X103982285Y-87860119D01*
X104058476Y-87860119D01*
X104172761Y-87822023D01*
X104629904Y-87364880D01*
X104629904Y-87860119D01*
X105917904Y-85841071D02*
X105117904Y-85841071D01*
X105117904Y-86145833D01*
X105156000Y-86222023D01*
X105194095Y-86260119D01*
X105270285Y-86298214D01*
X105384571Y-86298214D01*
X105460761Y-86260119D01*
X105498857Y-86222023D01*
X105536952Y-86145833D01*
X105536952Y-85841071D01*
X105841714Y-87098214D02*
X105879809Y-87060119D01*
X105917904Y-86945833D01*
X105917904Y-86869642D01*
X105879809Y-86755357D01*
X105803619Y-86679166D01*
X105727428Y-86641071D01*
X105575047Y-86602976D01*
X105460761Y-86602976D01*
X105308380Y-86641071D01*
X105232190Y-86679166D01*
X105156000Y-86755357D01*
X105117904Y-86869642D01*
X105117904Y-86945833D01*
X105156000Y-87060119D01*
X105194095Y-87098214D01*
X105384571Y-87783928D02*
X105917904Y-87783928D01*
X105079809Y-87593452D02*
X105651238Y-87402976D01*
X105651238Y-87898214D01*
X107205904Y-85041071D02*
X106824952Y-84774404D01*
X107205904Y-84583928D02*
X106405904Y-84583928D01*
X106405904Y-84888690D01*
X106444000Y-84964880D01*
X106482095Y-85002976D01*
X106558285Y-85041071D01*
X106672571Y-85041071D01*
X106748761Y-85002976D01*
X106786857Y-84964880D01*
X106824952Y-84888690D01*
X106824952Y-84583928D01*
X106786857Y-85383928D02*
X106786857Y-85650595D01*
X107205904Y-85764880D02*
X107205904Y-85383928D01*
X106405904Y-85383928D01*
X106405904Y-85764880D01*
X107167809Y-86069642D02*
X107205904Y-86183928D01*
X107205904Y-86374404D01*
X107167809Y-86450595D01*
X107129714Y-86488690D01*
X107053523Y-86526785D01*
X106977333Y-86526785D01*
X106901142Y-86488690D01*
X106863047Y-86450595D01*
X106824952Y-86374404D01*
X106786857Y-86222023D01*
X106748761Y-86145833D01*
X106710666Y-86107738D01*
X106634476Y-86069642D01*
X106558285Y-86069642D01*
X106482095Y-86107738D01*
X106444000Y-86145833D01*
X106405904Y-86222023D01*
X106405904Y-86412500D01*
X106444000Y-86526785D01*
X106786857Y-86869642D02*
X106786857Y-87136309D01*
X107205904Y-87250595D02*
X107205904Y-86869642D01*
X106405904Y-86869642D01*
X106405904Y-87250595D01*
X106405904Y-87479166D02*
X106405904Y-87936309D01*
X107205904Y-87707738D02*
X106405904Y-87707738D01*
X108493904Y-85841071D02*
X107693904Y-85841071D01*
X107693904Y-86145833D01*
X107732000Y-86222023D01*
X107770095Y-86260119D01*
X107846285Y-86298214D01*
X107960571Y-86298214D01*
X108036761Y-86260119D01*
X108074857Y-86222023D01*
X108112952Y-86145833D01*
X108112952Y-85841071D01*
X108493904Y-86641071D02*
X107693904Y-86641071D01*
X107693904Y-86831547D01*
X107732000Y-86945833D01*
X107808190Y-87022023D01*
X107884380Y-87060119D01*
X108036761Y-87098214D01*
X108151047Y-87098214D01*
X108303428Y-87060119D01*
X108379619Y-87022023D01*
X108455809Y-86945833D01*
X108493904Y-86831547D01*
X108493904Y-86641071D01*
X107693904Y-87364880D02*
X107693904Y-87860119D01*
X107998666Y-87593452D01*
X107998666Y-87707738D01*
X108036761Y-87783928D01*
X108074857Y-87822023D01*
X108151047Y-87860119D01*
X108341523Y-87860119D01*
X108417714Y-87822023D01*
X108455809Y-87783928D01*
X108493904Y-87707738D01*
X108493904Y-87479166D01*
X108455809Y-87402976D01*
X108417714Y-87364880D01*
X109781904Y-85841071D02*
X108981904Y-85841071D01*
X108981904Y-86145833D01*
X109020000Y-86222023D01*
X109058095Y-86260119D01*
X109134285Y-86298214D01*
X109248571Y-86298214D01*
X109324761Y-86260119D01*
X109362857Y-86222023D01*
X109400952Y-86145833D01*
X109400952Y-85841071D01*
X109781904Y-86641071D02*
X108981904Y-86641071D01*
X108981904Y-86831547D01*
X109020000Y-86945833D01*
X109096190Y-87022023D01*
X109172380Y-87060119D01*
X109324761Y-87098214D01*
X109439047Y-87098214D01*
X109591428Y-87060119D01*
X109667619Y-87022023D01*
X109743809Y-86945833D01*
X109781904Y-86831547D01*
X109781904Y-86641071D01*
X108981904Y-87822023D02*
X108981904Y-87441071D01*
X109362857Y-87402976D01*
X109324761Y-87441071D01*
X109286666Y-87517261D01*
X109286666Y-87707738D01*
X109324761Y-87783928D01*
X109362857Y-87822023D01*
X109439047Y-87860119D01*
X109629523Y-87860119D01*
X109705714Y-87822023D01*
X109743809Y-87783928D01*
X109781904Y-87707738D01*
X109781904Y-87517261D01*
X109743809Y-87441071D01*
X109705714Y-87402976D01*
X111069904Y-85841071D02*
X110269904Y-85841071D01*
X110269904Y-86145833D01*
X110308000Y-86222023D01*
X110346095Y-86260119D01*
X110422285Y-86298214D01*
X110536571Y-86298214D01*
X110612761Y-86260119D01*
X110650857Y-86222023D01*
X110688952Y-86145833D01*
X110688952Y-85841071D01*
X111069904Y-86641071D02*
X110269904Y-86641071D01*
X110269904Y-86831547D01*
X110308000Y-86945833D01*
X110384190Y-87022023D01*
X110460380Y-87060119D01*
X110612761Y-87098214D01*
X110727047Y-87098214D01*
X110879428Y-87060119D01*
X110955619Y-87022023D01*
X111031809Y-86945833D01*
X111069904Y-86831547D01*
X111069904Y-86641071D01*
X110269904Y-87364880D02*
X110269904Y-87898214D01*
X111069904Y-87555357D01*
X111824571Y-86793452D02*
X112357904Y-86793452D01*
X111900761Y-86793452D02*
X111862666Y-86831547D01*
X111824571Y-86907738D01*
X111824571Y-87022023D01*
X111862666Y-87098214D01*
X111938857Y-87136309D01*
X112357904Y-87136309D01*
X112319809Y-87860119D02*
X112357904Y-87783928D01*
X112357904Y-87631547D01*
X112319809Y-87555357D01*
X112281714Y-87517261D01*
X112205523Y-87479166D01*
X111976952Y-87479166D01*
X111900761Y-87517261D01*
X111862666Y-87555357D01*
X111824571Y-87631547D01*
X111824571Y-87783928D01*
X111862666Y-87860119D01*
D10*
X82021571Y-96292571D02*
X81878714Y-96340190D01*
X81831095Y-96387809D01*
X81783476Y-96483047D01*
X81783476Y-96625904D01*
X81831095Y-96721142D01*
X81878714Y-96768761D01*
X81973952Y-96816380D01*
X82354904Y-96816380D01*
X82354904Y-95816380D01*
X82021571Y-95816380D01*
X81926333Y-95864000D01*
X81878714Y-95911619D01*
X81831095Y-96006857D01*
X81831095Y-96102095D01*
X81878714Y-96197333D01*
X81926333Y-96244952D01*
X82021571Y-96292571D01*
X82354904Y-96292571D01*
D11*
X109295238Y-121928571D02*
X109152380Y-121976190D01*
X109104761Y-122023809D01*
X109057142Y-122119047D01*
X109057142Y-122261904D01*
X109104761Y-122357142D01*
X109152380Y-122404761D01*
X109247619Y-122452380D01*
X109628571Y-122452380D01*
X109628571Y-121452380D01*
X109295238Y-121452380D01*
X109200000Y-121500000D01*
X109152380Y-121547619D01*
X109104761Y-121642857D01*
X109104761Y-121738095D01*
X109152380Y-121833333D01*
X109200000Y-121880952D01*
X109295238Y-121928571D01*
X109628571Y-121928571D01*
X108628571Y-121452380D02*
X108628571Y-122261904D01*
X108580952Y-122357142D01*
X108533333Y-122404761D01*
X108438095Y-122452380D01*
X108247619Y-122452380D01*
X108152380Y-122404761D01*
X108104761Y-122357142D01*
X108057142Y-122261904D01*
X108057142Y-121452380D01*
X107628571Y-122404761D02*
X107485714Y-122452380D01*
X107247619Y-122452380D01*
X107152380Y-122404761D01*
X107104761Y-122357142D01*
X107057142Y-122261904D01*
X107057142Y-122166666D01*
X107104761Y-122071428D01*
X107152380Y-122023809D01*
X107247619Y-121976190D01*
X107438095Y-121928571D01*
X107533333Y-121880952D01*
X107580952Y-121833333D01*
X107628571Y-121738095D01*
X107628571Y-121642857D01*
X107580952Y-121547619D01*
X107533333Y-121500000D01*
X107438095Y-121452380D01*
X107200000Y-121452380D01*
X107057142Y-121500000D01*
X106628571Y-122071428D02*
X105866666Y-122071428D01*
X105390476Y-122452380D02*
X105390476Y-121452380D01*
X105057142Y-122166666D01*
X104723809Y-121452380D01*
X104723809Y-122452380D01*
X104057142Y-121452380D02*
X103866666Y-121452380D01*
X103771428Y-121500000D01*
X103676190Y-121595238D01*
X103628571Y-121785714D01*
X103628571Y-122119047D01*
X103676190Y-122309523D01*
X103771428Y-122404761D01*
X103866666Y-122452380D01*
X104057142Y-122452380D01*
X104152380Y-122404761D01*
X104247619Y-122309523D01*
X104295238Y-122119047D01*
X104295238Y-121785714D01*
X104247619Y-121595238D01*
X104152380Y-121500000D01*
X104057142Y-121452380D01*
X103200000Y-122452380D02*
X103200000Y-121452380D01*
X102961904Y-121452380D01*
X102819047Y-121500000D01*
X102723809Y-121595238D01*
X102676190Y-121690476D01*
X102628571Y-121880952D01*
X102628571Y-122023809D01*
X102676190Y-122214285D01*
X102723809Y-122309523D01*
X102819047Y-122404761D01*
X102961904Y-122452380D01*
X103200000Y-122452380D01*
X102200000Y-121452380D02*
X102200000Y-122261904D01*
X102152380Y-122357142D01*
X102104761Y-122404761D01*
X102009523Y-122452380D01*
X101819047Y-122452380D01*
X101723809Y-122404761D01*
X101676190Y-122357142D01*
X101628571Y-122261904D01*
X101628571Y-121452380D01*
X100676190Y-122452380D02*
X101152380Y-122452380D01*
X101152380Y-121452380D01*
X100342857Y-121928571D02*
X100009523Y-121928571D01*
X99866666Y-122452380D02*
X100342857Y-122452380D01*
X100342857Y-121452380D01*
X99866666Y-121452380D01*
X98723809Y-122166666D02*
X98247619Y-122166666D01*
X98819047Y-122452380D02*
X98485714Y-121452380D01*
X98152380Y-122452380D01*
X97961904Y-121452380D02*
X97390476Y-121452380D01*
X97676190Y-122452380D02*
X97676190Y-121452380D01*
X97057142Y-122452380D02*
X97057142Y-121452380D01*
X96723809Y-122166666D01*
X96390476Y-121452380D01*
X96390476Y-122452380D01*
X95914285Y-121928571D02*
X95580952Y-121928571D01*
X95438095Y-122452380D02*
X95914285Y-122452380D01*
X95914285Y-121452380D01*
X95438095Y-121452380D01*
X94485714Y-121500000D02*
X94580952Y-121452380D01*
X94723809Y-121452380D01*
X94866666Y-121500000D01*
X94961904Y-121595238D01*
X95009523Y-121690476D01*
X95057142Y-121880952D01*
X95057142Y-122023809D01*
X95009523Y-122214285D01*
X94961904Y-122309523D01*
X94866666Y-122404761D01*
X94723809Y-122452380D01*
X94628571Y-122452380D01*
X94485714Y-122404761D01*
X94438095Y-122357142D01*
X94438095Y-122023809D01*
X94628571Y-122023809D01*
X94057142Y-122166666D02*
X93580952Y-122166666D01*
X94152380Y-122452380D02*
X93819047Y-121452380D01*
X93485714Y-122452380D01*
X93247619Y-121452380D02*
X92628571Y-121452380D01*
X92961904Y-121833333D01*
X92819047Y-121833333D01*
X92723809Y-121880952D01*
X92676190Y-121928571D01*
X92628571Y-122023809D01*
X92628571Y-122261904D01*
X92676190Y-122357142D01*
X92723809Y-122404761D01*
X92819047Y-122452380D01*
X93104761Y-122452380D01*
X93200000Y-122404761D01*
X93247619Y-122357142D01*
X92247619Y-121547619D02*
X92200000Y-121500000D01*
X92104761Y-121452380D01*
X91866666Y-121452380D01*
X91771428Y-121500000D01*
X91723809Y-121547619D01*
X91676190Y-121642857D01*
X91676190Y-121738095D01*
X91723809Y-121880952D01*
X92295238Y-122452380D01*
X91676190Y-122452380D01*
X91104761Y-121880952D02*
X91200000Y-121833333D01*
X91247619Y-121785714D01*
X91295238Y-121690476D01*
X91295238Y-121642857D01*
X91247619Y-121547619D01*
X91200000Y-121500000D01*
X91104761Y-121452380D01*
X90914285Y-121452380D01*
X90819047Y-121500000D01*
X90771428Y-121547619D01*
X90723809Y-121642857D01*
X90723809Y-121690476D01*
X90771428Y-121785714D01*
X90819047Y-121833333D01*
X90914285Y-121880952D01*
X91104761Y-121880952D01*
X91200000Y-121928571D01*
X91247619Y-121976190D01*
X91295238Y-122071428D01*
X91295238Y-122261904D01*
X91247619Y-122357142D01*
X91200000Y-122404761D01*
X91104761Y-122452380D01*
X90914285Y-122452380D01*
X90819047Y-122404761D01*
X90771428Y-122357142D01*
X90723809Y-122261904D01*
X90723809Y-122071428D01*
X90771428Y-121976190D01*
X90819047Y-121928571D01*
X90914285Y-121880952D01*
D10*
X82005666Y-102118666D02*
X81529476Y-102118666D01*
X82100904Y-102404380D02*
X81767571Y-101404380D01*
X81434238Y-102404380D01*
D11*
X99979000Y-89517023D02*
X99940904Y-89440833D01*
X99940904Y-89326547D01*
X99979000Y-89212261D01*
X100055190Y-89136071D01*
X100131380Y-89097976D01*
X100283761Y-89059880D01*
X100398047Y-89059880D01*
X100550428Y-89097976D01*
X100626619Y-89136071D01*
X100702809Y-89212261D01*
X100740904Y-89326547D01*
X100740904Y-89402738D01*
X100702809Y-89517023D01*
X100664714Y-89555119D01*
X100398047Y-89555119D01*
X100398047Y-89402738D01*
X100740904Y-89897976D02*
X99940904Y-89897976D01*
X100740904Y-90355119D01*
X99940904Y-90355119D01*
X100740904Y-90736071D02*
X99940904Y-90736071D01*
X99940904Y-90926547D01*
X99979000Y-91040833D01*
X100055190Y-91117023D01*
X100131380Y-91155119D01*
X100283761Y-91193214D01*
X100398047Y-91193214D01*
X100550428Y-91155119D01*
X100626619Y-91117023D01*
X100702809Y-91040833D01*
X100740904Y-90926547D01*
X100740904Y-90736071D01*
X101305095Y-89059880D02*
X101267000Y-89097976D01*
X101228904Y-89174166D01*
X101228904Y-89364642D01*
X101267000Y-89440833D01*
X101305095Y-89478928D01*
X101381285Y-89517023D01*
X101457476Y-89517023D01*
X101571761Y-89478928D01*
X102028904Y-89021785D01*
X102028904Y-89517023D01*
X101495571Y-90202738D02*
X102028904Y-90202738D01*
X101190809Y-90012261D02*
X101762238Y-89821785D01*
X101762238Y-90317023D01*
X101228904Y-90507500D02*
X102028904Y-90774166D01*
X101228904Y-91040833D01*
X103316904Y-89097976D02*
X102516904Y-89097976D01*
X102516904Y-89402738D01*
X102555000Y-89478928D01*
X102593095Y-89517023D01*
X102669285Y-89555119D01*
X102783571Y-89555119D01*
X102859761Y-89517023D01*
X102897857Y-89478928D01*
X102935952Y-89402738D01*
X102935952Y-89097976D01*
X103240714Y-90355119D02*
X103278809Y-90317023D01*
X103316904Y-90202738D01*
X103316904Y-90126547D01*
X103278809Y-90012261D01*
X103202619Y-89936071D01*
X103126428Y-89897976D01*
X102974047Y-89859880D01*
X102859761Y-89859880D01*
X102707380Y-89897976D01*
X102631190Y-89936071D01*
X102555000Y-90012261D01*
X102516904Y-90126547D01*
X102516904Y-90202738D01*
X102555000Y-90317023D01*
X102593095Y-90355119D01*
X103316904Y-91117023D02*
X103316904Y-90659880D01*
X103316904Y-90888452D02*
X102516904Y-90888452D01*
X102631190Y-90812261D01*
X102707380Y-90736071D01*
X102745476Y-90659880D01*
X104604904Y-89097976D02*
X103804904Y-89097976D01*
X103804904Y-89402738D01*
X103843000Y-89478928D01*
X103881095Y-89517023D01*
X103957285Y-89555119D01*
X104071571Y-89555119D01*
X104147761Y-89517023D01*
X104185857Y-89478928D01*
X104223952Y-89402738D01*
X104223952Y-89097976D01*
X104528714Y-90355119D02*
X104566809Y-90317023D01*
X104604904Y-90202738D01*
X104604904Y-90126547D01*
X104566809Y-90012261D01*
X104490619Y-89936071D01*
X104414428Y-89897976D01*
X104262047Y-89859880D01*
X104147761Y-89859880D01*
X103995380Y-89897976D01*
X103919190Y-89936071D01*
X103843000Y-90012261D01*
X103804904Y-90126547D01*
X103804904Y-90202738D01*
X103843000Y-90317023D01*
X103881095Y-90355119D01*
X103804904Y-90621785D02*
X103804904Y-91117023D01*
X104109666Y-90850357D01*
X104109666Y-90964642D01*
X104147761Y-91040833D01*
X104185857Y-91078928D01*
X104262047Y-91117023D01*
X104452523Y-91117023D01*
X104528714Y-91078928D01*
X104566809Y-91040833D01*
X104604904Y-90964642D01*
X104604904Y-90736071D01*
X104566809Y-90659880D01*
X104528714Y-90621785D01*
X105892904Y-89097976D02*
X105092904Y-89097976D01*
X105092904Y-89402738D01*
X105131000Y-89478928D01*
X105169095Y-89517023D01*
X105245285Y-89555119D01*
X105359571Y-89555119D01*
X105435761Y-89517023D01*
X105473857Y-89478928D01*
X105511952Y-89402738D01*
X105511952Y-89097976D01*
X105816714Y-90355119D02*
X105854809Y-90317023D01*
X105892904Y-90202738D01*
X105892904Y-90126547D01*
X105854809Y-90012261D01*
X105778619Y-89936071D01*
X105702428Y-89897976D01*
X105550047Y-89859880D01*
X105435761Y-89859880D01*
X105283380Y-89897976D01*
X105207190Y-89936071D01*
X105131000Y-90012261D01*
X105092904Y-90126547D01*
X105092904Y-90202738D01*
X105131000Y-90317023D01*
X105169095Y-90355119D01*
X105092904Y-91078928D02*
X105092904Y-90697976D01*
X105473857Y-90659880D01*
X105435761Y-90697976D01*
X105397666Y-90774166D01*
X105397666Y-90964642D01*
X105435761Y-91040833D01*
X105473857Y-91078928D01*
X105550047Y-91117023D01*
X105740523Y-91117023D01*
X105816714Y-91078928D01*
X105854809Y-91040833D01*
X105892904Y-90964642D01*
X105892904Y-90774166D01*
X105854809Y-90697976D01*
X105816714Y-90659880D01*
X106647571Y-89097976D02*
X107180904Y-89097976D01*
X106723761Y-89097976D02*
X106685666Y-89136071D01*
X106647571Y-89212261D01*
X106647571Y-89326547D01*
X106685666Y-89402738D01*
X106761857Y-89440833D01*
X107180904Y-89440833D01*
X107142809Y-90164642D02*
X107180904Y-90088452D01*
X107180904Y-89936071D01*
X107142809Y-89859880D01*
X107104714Y-89821785D01*
X107028523Y-89783690D01*
X106799952Y-89783690D01*
X106723761Y-89821785D01*
X106685666Y-89859880D01*
X106647571Y-89936071D01*
X106647571Y-90088452D01*
X106685666Y-90164642D01*
X108468904Y-89097976D02*
X107668904Y-89097976D01*
X107668904Y-89402738D01*
X107707000Y-89478928D01*
X107745095Y-89517023D01*
X107821285Y-89555119D01*
X107935571Y-89555119D01*
X108011761Y-89517023D01*
X108049857Y-89478928D01*
X108087952Y-89402738D01*
X108087952Y-89097976D01*
X108468904Y-89897976D02*
X107668904Y-89897976D01*
X107668904Y-90088452D01*
X107707000Y-90202738D01*
X107783190Y-90278928D01*
X107859380Y-90317023D01*
X108011761Y-90355119D01*
X108126047Y-90355119D01*
X108278428Y-90317023D01*
X108354619Y-90278928D01*
X108430809Y-90202738D01*
X108468904Y-90088452D01*
X108468904Y-89897976D01*
X107935571Y-91040833D02*
X108468904Y-91040833D01*
X107630809Y-90850357D02*
X108202238Y-90659880D01*
X108202238Y-91155119D01*
X109756904Y-89097976D02*
X108956904Y-89097976D01*
X108956904Y-89402738D01*
X108995000Y-89478928D01*
X109033095Y-89517023D01*
X109109285Y-89555119D01*
X109223571Y-89555119D01*
X109299761Y-89517023D01*
X109337857Y-89478928D01*
X109375952Y-89402738D01*
X109375952Y-89097976D01*
X109756904Y-89897976D02*
X108956904Y-89897976D01*
X108956904Y-90088452D01*
X108995000Y-90202738D01*
X109071190Y-90278928D01*
X109147380Y-90317023D01*
X109299761Y-90355119D01*
X109414047Y-90355119D01*
X109566428Y-90317023D01*
X109642619Y-90278928D01*
X109718809Y-90202738D01*
X109756904Y-90088452D01*
X109756904Y-89897976D01*
X108956904Y-91040833D02*
X108956904Y-90888452D01*
X108995000Y-90812261D01*
X109033095Y-90774166D01*
X109147380Y-90697976D01*
X109299761Y-90659880D01*
X109604523Y-90659880D01*
X109680714Y-90697976D01*
X109718809Y-90736071D01*
X109756904Y-90812261D01*
X109756904Y-90964642D01*
X109718809Y-91040833D01*
X109680714Y-91078928D01*
X109604523Y-91117023D01*
X109414047Y-91117023D01*
X109337857Y-91078928D01*
X109299761Y-91040833D01*
X109261666Y-90964642D01*
X109261666Y-90812261D01*
X109299761Y-90736071D01*
X109337857Y-90697976D01*
X109414047Y-90659880D01*
X110511571Y-89097976D02*
X111044904Y-89097976D01*
X110587761Y-89097976D02*
X110549666Y-89136071D01*
X110511571Y-89212261D01*
X110511571Y-89326547D01*
X110549666Y-89402738D01*
X110625857Y-89440833D01*
X111044904Y-89440833D01*
X111006809Y-90164642D02*
X111044904Y-90088452D01*
X111044904Y-89936071D01*
X111006809Y-89859880D01*
X110968714Y-89821785D01*
X110892523Y-89783690D01*
X110663952Y-89783690D01*
X110587761Y-89821785D01*
X110549666Y-89859880D01*
X110511571Y-89936071D01*
X110511571Y-90088452D01*
X110549666Y-90164642D01*
X111799571Y-89097976D02*
X112332904Y-89097976D01*
X111875761Y-89097976D02*
X111837666Y-89136071D01*
X111799571Y-89212261D01*
X111799571Y-89326547D01*
X111837666Y-89402738D01*
X111913857Y-89440833D01*
X112332904Y-89440833D01*
X112294809Y-90164642D02*
X112332904Y-90088452D01*
X112332904Y-89936071D01*
X112294809Y-89859880D01*
X112256714Y-89821785D01*
X112180523Y-89783690D01*
X111951952Y-89783690D01*
X111875761Y-89821785D01*
X111837666Y-89859880D01*
X111799571Y-89936071D01*
X111799571Y-90088452D01*
X111837666Y-90164642D01*
X98536000Y-111422023D02*
X98497904Y-111345833D01*
X98497904Y-111231547D01*
X98536000Y-111117261D01*
X98612190Y-111041071D01*
X98688380Y-111002976D01*
X98840761Y-110964880D01*
X98955047Y-110964880D01*
X99107428Y-111002976D01*
X99183619Y-111041071D01*
X99259809Y-111117261D01*
X99297904Y-111231547D01*
X99297904Y-111307738D01*
X99259809Y-111422023D01*
X99221714Y-111460119D01*
X98955047Y-111460119D01*
X98955047Y-111307738D01*
X99297904Y-111802976D02*
X98497904Y-111802976D01*
X99297904Y-112260119D01*
X98497904Y-112260119D01*
X99297904Y-112641071D02*
X98497904Y-112641071D01*
X98497904Y-112831547D01*
X98536000Y-112945833D01*
X98612190Y-113022023D01*
X98688380Y-113060119D01*
X98840761Y-113098214D01*
X98955047Y-113098214D01*
X99107428Y-113060119D01*
X99183619Y-113022023D01*
X99259809Y-112945833D01*
X99297904Y-112831547D01*
X99297904Y-112641071D01*
X99785904Y-110888690D02*
X100585904Y-111155357D01*
X99785904Y-111422023D01*
X100509714Y-112145833D02*
X100547809Y-112107738D01*
X100585904Y-111993452D01*
X100585904Y-111917261D01*
X100547809Y-111802976D01*
X100471619Y-111726785D01*
X100395428Y-111688690D01*
X100243047Y-111650595D01*
X100128761Y-111650595D01*
X99976380Y-111688690D01*
X99900190Y-111726785D01*
X99824000Y-111802976D01*
X99785904Y-111917261D01*
X99785904Y-111993452D01*
X99824000Y-112107738D01*
X99862095Y-112145833D01*
X100509714Y-112945833D02*
X100547809Y-112907738D01*
X100585904Y-112793452D01*
X100585904Y-112717261D01*
X100547809Y-112602976D01*
X100471619Y-112526785D01*
X100395428Y-112488690D01*
X100243047Y-112450595D01*
X100128761Y-112450595D01*
X99976380Y-112488690D01*
X99900190Y-112526785D01*
X99824000Y-112602976D01*
X99785904Y-112717261D01*
X99785904Y-112793452D01*
X99824000Y-112907738D01*
X99862095Y-112945833D01*
X101645333Y-110964880D02*
X101645333Y-111345833D01*
X101873904Y-110888690D02*
X101073904Y-111155357D01*
X101873904Y-111422023D01*
X101873904Y-112145833D02*
X101492952Y-111879166D01*
X101873904Y-111688690D02*
X101073904Y-111688690D01*
X101073904Y-111993452D01*
X101112000Y-112069642D01*
X101150095Y-112107738D01*
X101226285Y-112145833D01*
X101340571Y-112145833D01*
X101416761Y-112107738D01*
X101454857Y-112069642D01*
X101492952Y-111993452D01*
X101492952Y-111688690D01*
X101454857Y-112488690D02*
X101454857Y-112755357D01*
X101873904Y-112869642D02*
X101873904Y-112488690D01*
X101073904Y-112488690D01*
X101073904Y-112869642D01*
X101454857Y-113479166D02*
X101454857Y-113212500D01*
X101873904Y-113212500D02*
X101073904Y-113212500D01*
X101073904Y-113593452D01*
X102933333Y-110964880D02*
X102933333Y-111345833D01*
X103161904Y-110888690D02*
X102361904Y-111155357D01*
X103161904Y-111422023D01*
X103161904Y-111688690D02*
X102361904Y-111688690D01*
X102361904Y-111879166D01*
X102400000Y-111993452D01*
X102476190Y-112069642D01*
X102552380Y-112107738D01*
X102704761Y-112145833D01*
X102819047Y-112145833D01*
X102971428Y-112107738D01*
X103047619Y-112069642D01*
X103123809Y-111993452D01*
X103161904Y-111879166D01*
X103161904Y-111688690D01*
X103085714Y-112945833D02*
X103123809Y-112907738D01*
X103161904Y-112793452D01*
X103161904Y-112717261D01*
X103123809Y-112602976D01*
X103047619Y-112526785D01*
X102971428Y-112488690D01*
X102819047Y-112450595D01*
X102704761Y-112450595D01*
X102552380Y-112488690D01*
X102476190Y-112526785D01*
X102400000Y-112602976D01*
X102361904Y-112717261D01*
X102361904Y-112793452D01*
X102400000Y-112907738D01*
X102438095Y-112945833D01*
X102361904Y-113631547D02*
X102361904Y-113479166D01*
X102400000Y-113402976D01*
X102438095Y-113364880D01*
X102552380Y-113288690D01*
X102704761Y-113250595D01*
X103009523Y-113250595D01*
X103085714Y-113288690D01*
X103123809Y-113326785D01*
X103161904Y-113402976D01*
X103161904Y-113555357D01*
X103123809Y-113631547D01*
X103085714Y-113669642D01*
X103009523Y-113707738D01*
X102819047Y-113707738D01*
X102742857Y-113669642D01*
X102704761Y-113631547D01*
X102666666Y-113555357D01*
X102666666Y-113402976D01*
X102704761Y-113326785D01*
X102742857Y-113288690D01*
X102819047Y-113250595D01*
X104449904Y-111002976D02*
X103649904Y-111002976D01*
X103649904Y-111307738D01*
X103688000Y-111383928D01*
X103726095Y-111422023D01*
X103802285Y-111460119D01*
X103916571Y-111460119D01*
X103992761Y-111422023D01*
X104030857Y-111383928D01*
X104068952Y-111307738D01*
X104068952Y-111002976D01*
X104030857Y-112069642D02*
X104068952Y-112183928D01*
X104107047Y-112222023D01*
X104183238Y-112260119D01*
X104297523Y-112260119D01*
X104373714Y-112222023D01*
X104411809Y-112183928D01*
X104449904Y-112107738D01*
X104449904Y-111802976D01*
X103649904Y-111802976D01*
X103649904Y-112069642D01*
X103688000Y-112145833D01*
X103726095Y-112183928D01*
X103802285Y-112222023D01*
X103878476Y-112222023D01*
X103954666Y-112183928D01*
X103992761Y-112145833D01*
X104030857Y-112069642D01*
X104030857Y-111802976D01*
X103649904Y-112755357D02*
X103649904Y-112831547D01*
X103688000Y-112907738D01*
X103726095Y-112945833D01*
X103802285Y-112983928D01*
X103954666Y-113022023D01*
X104145142Y-113022023D01*
X104297523Y-112983928D01*
X104373714Y-112945833D01*
X104411809Y-112907738D01*
X104449904Y-112831547D01*
X104449904Y-112755357D01*
X104411809Y-112679166D01*
X104373714Y-112641071D01*
X104297523Y-112602976D01*
X104145142Y-112564880D01*
X103954666Y-112564880D01*
X103802285Y-112602976D01*
X103726095Y-112641071D01*
X103688000Y-112679166D01*
X103649904Y-112755357D01*
X105661714Y-111460119D02*
X105699809Y-111422023D01*
X105737904Y-111307738D01*
X105737904Y-111231547D01*
X105699809Y-111117261D01*
X105623619Y-111041071D01*
X105547428Y-111002976D01*
X105395047Y-110964880D01*
X105280761Y-110964880D01*
X105128380Y-111002976D01*
X105052190Y-111041071D01*
X104976000Y-111117261D01*
X104937904Y-111231547D01*
X104937904Y-111307738D01*
X104976000Y-111422023D01*
X105014095Y-111460119D01*
X105699809Y-111764880D02*
X105737904Y-111879166D01*
X105737904Y-112069642D01*
X105699809Y-112145833D01*
X105661714Y-112183928D01*
X105585523Y-112222023D01*
X105509333Y-112222023D01*
X105433142Y-112183928D01*
X105395047Y-112145833D01*
X105356952Y-112069642D01*
X105318857Y-111917261D01*
X105280761Y-111841071D01*
X105242666Y-111802976D01*
X105166476Y-111764880D01*
X105090285Y-111764880D01*
X105014095Y-111802976D01*
X104976000Y-111841071D01*
X104937904Y-111917261D01*
X104937904Y-112107738D01*
X104976000Y-112222023D01*
X105318857Y-112564880D02*
X105318857Y-112831547D01*
X105737904Y-112945833D02*
X105737904Y-112564880D01*
X104937904Y-112564880D01*
X104937904Y-112945833D01*
X105318857Y-113288690D02*
X105318857Y-113555357D01*
X105737904Y-113669642D02*
X105737904Y-113288690D01*
X104937904Y-113288690D01*
X104937904Y-113669642D01*
X105737904Y-114012500D02*
X104937904Y-114012500D01*
X104937904Y-114317261D01*
X104976000Y-114393452D01*
X105014095Y-114431547D01*
X105090285Y-114469642D01*
X105204571Y-114469642D01*
X105280761Y-114431547D01*
X105318857Y-114393452D01*
X105356952Y-114317261D01*
X105356952Y-114012500D01*
X107025904Y-111002976D02*
X106225904Y-111002976D01*
X106797333Y-111269642D01*
X106225904Y-111536309D01*
X107025904Y-111536309D01*
X107025904Y-111917261D02*
X106225904Y-111917261D01*
X106987809Y-112260119D02*
X107025904Y-112374404D01*
X107025904Y-112564880D01*
X106987809Y-112641071D01*
X106949714Y-112679166D01*
X106873523Y-112717261D01*
X106797333Y-112717261D01*
X106721142Y-112679166D01*
X106683047Y-112641071D01*
X106644952Y-112564880D01*
X106606857Y-112412500D01*
X106568761Y-112336309D01*
X106530666Y-112298214D01*
X106454476Y-112260119D01*
X106378285Y-112260119D01*
X106302095Y-112298214D01*
X106264000Y-112336309D01*
X106225904Y-112412500D01*
X106225904Y-112602976D01*
X106264000Y-112717261D01*
X106225904Y-113212500D02*
X106225904Y-113364880D01*
X106264000Y-113441071D01*
X106340190Y-113517261D01*
X106492571Y-113555357D01*
X106759238Y-113555357D01*
X106911619Y-113517261D01*
X106987809Y-113441071D01*
X107025904Y-113364880D01*
X107025904Y-113212500D01*
X106987809Y-113136309D01*
X106911619Y-113060119D01*
X106759238Y-113022023D01*
X106492571Y-113022023D01*
X106340190Y-113060119D01*
X106264000Y-113136309D01*
X106225904Y-113212500D01*
D10*
X83624714Y-90022000D02*
X83719952Y-89974380D01*
X83862809Y-89974380D01*
X84005666Y-90022000D01*
X84100904Y-90117238D01*
X84148523Y-90212476D01*
X84196142Y-90402952D01*
X84196142Y-90545809D01*
X84148523Y-90736285D01*
X84100904Y-90831523D01*
X84005666Y-90926761D01*
X83862809Y-90974380D01*
X83767571Y-90974380D01*
X83624714Y-90926761D01*
X83577095Y-90879142D01*
X83577095Y-90545809D01*
X83767571Y-90545809D01*
X83148523Y-90974380D02*
X83148523Y-89974380D01*
X82577095Y-90974380D01*
X82577095Y-89974380D01*
X82100904Y-90974380D02*
X82100904Y-89974380D01*
X81862809Y-89974380D01*
X81719952Y-90022000D01*
X81624714Y-90117238D01*
X81577095Y-90212476D01*
X81529476Y-90402952D01*
X81529476Y-90545809D01*
X81577095Y-90736285D01*
X81624714Y-90831523D01*
X81719952Y-90926761D01*
X81862809Y-90974380D01*
X82100904Y-90974380D01*
D11*
X93633333Y-87388714D02*
X93671428Y-87426809D01*
X93785714Y-87464904D01*
X93861904Y-87464904D01*
X93976190Y-87426809D01*
X94052380Y-87350619D01*
X94090476Y-87274428D01*
X94128571Y-87122047D01*
X94128571Y-87007761D01*
X94090476Y-86855380D01*
X94052380Y-86779190D01*
X93976190Y-86703000D01*
X93861904Y-86664904D01*
X93785714Y-86664904D01*
X93671428Y-86703000D01*
X93633333Y-86741095D01*
X93176190Y-87007761D02*
X93252380Y-86969666D01*
X93290476Y-86931571D01*
X93328571Y-86855380D01*
X93328571Y-86817285D01*
X93290476Y-86741095D01*
X93252380Y-86703000D01*
X93176190Y-86664904D01*
X93023809Y-86664904D01*
X92947619Y-86703000D01*
X92909523Y-86741095D01*
X92871428Y-86817285D01*
X92871428Y-86855380D01*
X92909523Y-86931571D01*
X92947619Y-86969666D01*
X93023809Y-87007761D01*
X93176190Y-87007761D01*
X93252380Y-87045857D01*
X93290476Y-87083952D01*
X93328571Y-87160142D01*
X93328571Y-87312523D01*
X93290476Y-87388714D01*
X93252380Y-87426809D01*
X93176190Y-87464904D01*
X93023809Y-87464904D01*
X92947619Y-87426809D01*
X92909523Y-87388714D01*
X92871428Y-87312523D01*
X92871428Y-87160142D01*
X92909523Y-87083952D01*
X92947619Y-87045857D01*
X93023809Y-87007761D01*
X88288133Y-86302380D02*
X88288133Y-87016666D01*
X88335752Y-87159523D01*
X88430990Y-87254761D01*
X88573847Y-87302380D01*
X88669085Y-87302380D01*
X87669085Y-86730952D02*
X87764323Y-86683333D01*
X87811942Y-86635714D01*
X87859561Y-86540476D01*
X87859561Y-86492857D01*
X87811942Y-86397619D01*
X87764323Y-86350000D01*
X87669085Y-86302380D01*
X87478609Y-86302380D01*
X87383371Y-86350000D01*
X87335752Y-86397619D01*
X87288133Y-86492857D01*
X87288133Y-86540476D01*
X87335752Y-86635714D01*
X87383371Y-86683333D01*
X87478609Y-86730952D01*
X87669085Y-86730952D01*
X87764323Y-86778571D01*
X87811942Y-86826190D01*
X87859561Y-86921428D01*
X87859561Y-87111904D01*
X87811942Y-87207142D01*
X87764323Y-87254761D01*
X87669085Y-87302380D01*
X87478609Y-87302380D01*
X87383371Y-87254761D01*
X87335752Y-87207142D01*
X87288133Y-87111904D01*
X87288133Y-86921428D01*
X87335752Y-86826190D01*
X87383371Y-86778571D01*
X87478609Y-86730952D01*
X88288133Y-92152380D02*
X88288133Y-92866666D01*
X88335752Y-93009523D01*
X88430990Y-93104761D01*
X88573847Y-93152380D01*
X88669085Y-93152380D01*
X87907180Y-92152380D02*
X87240514Y-92152380D01*
X87669085Y-93152380D01*
X88288133Y-97802380D02*
X88288133Y-98516666D01*
X88335752Y-98659523D01*
X88430990Y-98754761D01*
X88573847Y-98802380D01*
X88669085Y-98802380D01*
X87383371Y-97802380D02*
X87573847Y-97802380D01*
X87669085Y-97850000D01*
X87716704Y-97897619D01*
X87811942Y-98040476D01*
X87859561Y-98230952D01*
X87859561Y-98611904D01*
X87811942Y-98707142D01*
X87764323Y-98754761D01*
X87669085Y-98802380D01*
X87478609Y-98802380D01*
X87383371Y-98754761D01*
X87335752Y-98707142D01*
X87288133Y-98611904D01*
X87288133Y-98373809D01*
X87335752Y-98278571D01*
X87383371Y-98230952D01*
X87478609Y-98183333D01*
X87669085Y-98183333D01*
X87764323Y-98230952D01*
X87811942Y-98278571D01*
X87859561Y-98373809D01*
X88288133Y-103652380D02*
X88288133Y-104366666D01*
X88335752Y-104509523D01*
X88430990Y-104604761D01*
X88573847Y-104652380D01*
X88669085Y-104652380D01*
X87335752Y-103652380D02*
X87811942Y-103652380D01*
X87859561Y-104128571D01*
X87811942Y-104080952D01*
X87716704Y-104033333D01*
X87478609Y-104033333D01*
X87383371Y-104080952D01*
X87335752Y-104128571D01*
X87288133Y-104223809D01*
X87288133Y-104461904D01*
X87335752Y-104557142D01*
X87383371Y-104604761D01*
X87478609Y-104652380D01*
X87716704Y-104652380D01*
X87811942Y-104604761D01*
X87859561Y-104557142D01*
X98361904Y-88252380D02*
X98361904Y-89061904D01*
X98314285Y-89157142D01*
X98266666Y-89204761D01*
X98171428Y-89252380D01*
X97980952Y-89252380D01*
X97885714Y-89204761D01*
X97838095Y-89157142D01*
X97790476Y-89061904D01*
X97790476Y-88252380D01*
X96885714Y-88585714D02*
X96885714Y-89252380D01*
X97123809Y-88204761D02*
X97361904Y-88919047D01*
X96742857Y-88919047D01*
X99761904Y-105722380D02*
X99761904Y-106531904D01*
X99714285Y-106627142D01*
X99666666Y-106674761D01*
X99571428Y-106722380D01*
X99380952Y-106722380D01*
X99285714Y-106674761D01*
X99238095Y-106627142D01*
X99190476Y-106531904D01*
X99190476Y-105722380D01*
X98238095Y-105722380D02*
X98714285Y-105722380D01*
X98761904Y-106198571D01*
X98714285Y-106150952D01*
X98619047Y-106103333D01*
X98380952Y-106103333D01*
X98285714Y-106150952D01*
X98238095Y-106198571D01*
X98190476Y-106293809D01*
X98190476Y-106531904D01*
X98238095Y-106627142D01*
X98285714Y-106674761D01*
X98380952Y-106722380D01*
X98619047Y-106722380D01*
X98714285Y-106674761D01*
X98761904Y-106627142D01*
X111333333Y-109252380D02*
X111333333Y-109966666D01*
X111380952Y-110109523D01*
X111476190Y-110204761D01*
X111619047Y-110252380D01*
X111714285Y-110252380D01*
X110952380Y-109252380D02*
X110333333Y-109252380D01*
X110666666Y-109633333D01*
X110523809Y-109633333D01*
X110428571Y-109680952D01*
X110380952Y-109728571D01*
X110333333Y-109823809D01*
X110333333Y-110061904D01*
X110380952Y-110157142D01*
X110428571Y-110204761D01*
X110523809Y-110252380D01*
X110809523Y-110252380D01*
X110904761Y-110204761D01*
X110952380Y-110157142D01*
X101687714Y-99786666D02*
X101725809Y-99748571D01*
X101763904Y-99634285D01*
X101763904Y-99558095D01*
X101725809Y-99443809D01*
X101649619Y-99367619D01*
X101573428Y-99329523D01*
X101421047Y-99291428D01*
X101306761Y-99291428D01*
X101154380Y-99329523D01*
X101078190Y-99367619D01*
X101002000Y-99443809D01*
X100963904Y-99558095D01*
X100963904Y-99634285D01*
X101002000Y-99748571D01*
X101040095Y-99786666D01*
X101763904Y-100167619D02*
X101763904Y-100320000D01*
X101725809Y-100396190D01*
X101687714Y-100434285D01*
X101573428Y-100510476D01*
X101421047Y-100548571D01*
X101116285Y-100548571D01*
X101040095Y-100510476D01*
X101002000Y-100472380D01*
X100963904Y-100396190D01*
X100963904Y-100243809D01*
X101002000Y-100167619D01*
X101040095Y-100129523D01*
X101116285Y-100091428D01*
X101306761Y-100091428D01*
X101382952Y-100129523D01*
X101421047Y-100167619D01*
X101459142Y-100243809D01*
X101459142Y-100396190D01*
X101421047Y-100472380D01*
X101382952Y-100510476D01*
X101306761Y-100548571D01*
X94008000Y-89262000D02*
X95024000Y-89262000D01*
X92992000Y-87738000D02*
X91976000Y-87738000D01*
X91976000Y-87738000D02*
X91976000Y-89262000D01*
X95024000Y-89262000D02*
X95024000Y-87738000D01*
X91976000Y-89262000D02*
X92992000Y-89262000D01*
X95024000Y-87738000D02*
X94008000Y-87738000D01*
X80190000Y-91950000D02*
X86641600Y-91950000D01*
X90654800Y-86209600D02*
X89156200Y-86209600D01*
X86133600Y-90934000D02*
X86641600Y-91950000D01*
X80190000Y-86209600D02*
X86641600Y-86209600D01*
X80190000Y-86209600D02*
X80190000Y-91950000D01*
X90654800Y-91950000D02*
X89156200Y-91950000D01*
X89156200Y-91950000D02*
X89664200Y-90934000D01*
X86133600Y-85193600D02*
X86641600Y-86209600D01*
X89156200Y-86209600D02*
X89664200Y-85193600D01*
X89664200Y-85193600D02*
X86133600Y-85193600D01*
X90654800Y-91950000D02*
X90654800Y-86209600D01*
X89664200Y-90934000D02*
X86133600Y-90934000D01*
X90654800Y-92009600D02*
X89156200Y-92009600D01*
X89664200Y-90993600D02*
X86133600Y-90993600D01*
X89156200Y-92009600D02*
X89664200Y-90993600D01*
X80190000Y-92009600D02*
X80190000Y-97750000D01*
X86133600Y-96734000D02*
X86641600Y-97750000D01*
X89156200Y-97750000D02*
X89664200Y-96734000D01*
X80190000Y-97750000D02*
X86641600Y-97750000D01*
X90654800Y-97750000D02*
X90654800Y-92009600D01*
X80190000Y-92009600D02*
X86641600Y-92009600D01*
X89664200Y-96734000D02*
X86133600Y-96734000D01*
X90654800Y-97750000D02*
X89156200Y-97750000D01*
X86133600Y-90993600D02*
X86641600Y-92009600D01*
X80190000Y-97809600D02*
X86641600Y-97809600D01*
X86133600Y-102534000D02*
X86641600Y-103550000D01*
X80190000Y-103550000D02*
X86641600Y-103550000D01*
X89156200Y-103550000D02*
X89664200Y-102534000D01*
X90654800Y-97809600D02*
X89156200Y-97809600D01*
X89156200Y-97809600D02*
X89664200Y-96793600D01*
X86133600Y-96793600D02*
X86641600Y-97809600D01*
X80190000Y-97809600D02*
X80190000Y-103550000D01*
X90654800Y-103550000D02*
X89156200Y-103550000D01*
X90654800Y-103550000D02*
X90654800Y-97809600D01*
X89664200Y-102534000D02*
X86133600Y-102534000D01*
X89664200Y-96793600D02*
X86133600Y-96793600D01*
X86133600Y-102593600D02*
X86641600Y-103609600D01*
X86133600Y-108334000D02*
X86641600Y-109350000D01*
X89664200Y-102593600D02*
X86133600Y-102593600D01*
X89156200Y-109350000D02*
X89664200Y-108334000D01*
X90654800Y-109350000D02*
X90654800Y-103609600D01*
X90654800Y-109350000D02*
X89156200Y-109350000D01*
X89664200Y-108334000D02*
X86133600Y-108334000D01*
X80190000Y-103609600D02*
X86641600Y-103609600D01*
X80190000Y-103609600D02*
X80190000Y-109350000D01*
X89156200Y-103609600D02*
X89664200Y-102593600D01*
X90654800Y-103609600D02*
X89156200Y-103609600D01*
X80190000Y-109350000D02*
X86641600Y-109350000D01*
X110351080Y-100580740D02*
X109561140Y-100570580D01*
X109749100Y-96600560D02*
X110201220Y-96250040D01*
X110219000Y-94738740D02*
X110909880Y-94720960D01*
X110950520Y-98099160D02*
X111301040Y-99099920D01*
X111301040Y-99869540D02*
X111621080Y-99859380D01*
X108659440Y-96770740D02*
X108860100Y-96199240D01*
X112090980Y-95170540D02*
X112609140Y-95698860D01*
X111549960Y-97598780D02*
X111301040Y-97901040D01*
X109860860Y-99079600D02*
X109530660Y-98889100D01*
X110249480Y-98099160D02*
X109850700Y-99099920D01*
X113559100Y-100601060D02*
X113531160Y-100949040D01*
X112530400Y-97720700D02*
X112390700Y-98119480D01*
X109550980Y-100580740D02*
X109550980Y-100570580D01*
X112530400Y-96719940D02*
X113079040Y-96819000D01*
X111301040Y-97901040D02*
X110950520Y-98099160D01*
X111260400Y-100700120D02*
X111080060Y-100860140D01*
X110909880Y-94720960D02*
X111120700Y-95269600D01*
X112979980Y-99849220D02*
X113228900Y-99869540D01*
X113531160Y-100949040D02*
X113330500Y-101269080D01*
X112639620Y-99988920D02*
X113000300Y-99859380D01*
X113079040Y-96819000D02*
X113089200Y-97520040D01*
X108860100Y-96199240D02*
X108590860Y-95729340D01*
X108900740Y-98249020D02*
X108710240Y-97779120D01*
X110650800Y-96199240D02*
X111049580Y-96300840D01*
X111039420Y-101159860D02*
X111270560Y-101380840D01*
X109060760Y-95218800D02*
X109578920Y-95480420D01*
X113470200Y-100110840D02*
X113559100Y-100601060D01*
X108100640Y-97591160D02*
X108100640Y-96910440D01*
X111621080Y-99859380D02*
X111859840Y-100060040D01*
X112101140Y-99209140D02*
X111580440Y-98939900D01*
X111590600Y-101408780D02*
X111941120Y-101299560D01*
X110399340Y-101418940D02*
X110389180Y-101408780D01*
X112360220Y-96239880D02*
X112530400Y-96719940D01*
X109749100Y-97751180D02*
X109599240Y-97349860D01*
X110249480Y-98099160D02*
X109949760Y-97949300D01*
X113330500Y-101269080D02*
X113079040Y-101391000D01*
X109599240Y-96951080D02*
X109749100Y-96600560D01*
X109578920Y-95480420D02*
X110048820Y-95279760D01*
X111270560Y-101380840D02*
X111590600Y-101408780D01*
X109510340Y-99859380D02*
X109510340Y-101401160D01*
X108100640Y-96910440D02*
X108659440Y-96770740D01*
X112609140Y-95698860D02*
X112360220Y-96239880D01*
X108570540Y-101360520D02*
X108291140Y-100298800D01*
X111120700Y-95269600D02*
X111539800Y-95439780D01*
X109599240Y-97349860D02*
X109599240Y-96951080D01*
X108931220Y-99889860D02*
X108570540Y-101360520D01*
X112530400Y-100270860D02*
X112639620Y-99988920D01*
X111580440Y-98939900D02*
X111301040Y-99099920D01*
X109091240Y-99219300D02*
X108618800Y-98729080D01*
X113079040Y-101391000D02*
X112769160Y-101319880D01*
X111450900Y-96648820D02*
X111600760Y-97100940D01*
X108710240Y-97779120D02*
X108100640Y-97591160D01*
X108291140Y-100298800D02*
X107981260Y-101370680D01*
X112550720Y-101139540D02*
X112479600Y-100679800D01*
X109561140Y-100570580D02*
X109550980Y-100580740D01*
X112639620Y-98690980D02*
X112101140Y-99209140D01*
X111859840Y-100060040D02*
X111890320Y-100329280D01*
X112769160Y-101319880D02*
X112550720Y-101139540D01*
X110048820Y-95279760D02*
X110219000Y-94738740D01*
X111890320Y-100329280D02*
X111649020Y-100570580D01*
X113089200Y-97520040D02*
X112530400Y-97720700D01*
X111539800Y-95439780D02*
X112090980Y-95170540D01*
X110399340Y-99849220D02*
X110399340Y-101418940D01*
X111649020Y-100570580D02*
X111260400Y-100700120D01*
X111080060Y-100860140D02*
X111039420Y-101159860D01*
X110950520Y-99950820D02*
X111301040Y-99869540D01*
X111049580Y-96300840D02*
X111450900Y-96648820D01*
X108618800Y-98729080D02*
X108900740Y-98249020D01*
X113228900Y-99869540D02*
X113470200Y-100110840D01*
X110201220Y-96250040D02*
X110650800Y-96199240D01*
X107981260Y-101370680D02*
X107640900Y-99920340D01*
X109949760Y-97949300D02*
X109749100Y-97751180D01*
X112380540Y-98129640D02*
X112639620Y-98690980D01*
X109530660Y-98889100D02*
X109091240Y-99219300D01*
X111600760Y-97100940D02*
X111549960Y-97598780D01*
X108590860Y-95729340D02*
X109060760Y-95218800D01*
X112479600Y-100679800D02*
X112530400Y-100270860D01*
X94492000Y-90591000D02*
X95508000Y-90591000D01*
X93095000Y-95417000D02*
X96905000Y-95417000D01*
X96905000Y-90083000D02*
X96905000Y-95417000D01*
X95508000Y-90591000D02*
X95508000Y-90083000D01*
X93095000Y-90083000D02*
X96778000Y-90083000D01*
X94492000Y-90083000D02*
X94492000Y-90591000D01*
X93095000Y-95417000D02*
X93095000Y-90083000D01*
X96778000Y-90083000D02*
X96905000Y-90083000D01*
X91480000Y-108782000D02*
X91480000Y-97098000D01*
X91480000Y-97098000D02*
X97576000Y-97098000D01*
X97576000Y-97098000D02*
X97576000Y-108782000D01*
X97576000Y-108782000D02*
X91480000Y-108782000D01*
X108440000Y-110940000D02*
X108440000Y-118560000D01*
X113520000Y-110940000D02*
X108440000Y-110940000D01*
X113520000Y-118560000D02*
X113520000Y-110940000D01*
X108440000Y-118560000D02*
X113520000Y-118560000D01*
X102037000Y-100809000D02*
X102037000Y-102460000D01*
X102037000Y-102460000D02*
X104323000Y-102460000D01*
X104323000Y-102460000D02*
X104323000Y-100809000D01*
X104323000Y-97380000D02*
X104323000Y-99031000D01*
X102037000Y-99031000D02*
X102037000Y-97380000D01*
X102037000Y-97380000D02*
X104323000Y-97380000D01*
D12*
X87175000Y-89410000D03*
X87175000Y-95210000D03*
X87175000Y-101010000D03*
X87175000Y-106810000D03*
D13*
X92750000Y-106750000D03*
D14*
X92750000Y-104210000D03*
X92750000Y-101670000D03*
X92750000Y-99130000D03*
D15*
X112250000Y-112210000D03*
D16*
X109710000Y-112210000D03*
X112250000Y-114750000D03*
X109710000Y-114750000D03*
X112250000Y-117290000D03*
X109710000Y-117290000D03*
M02*
