G04 #@! TF.GenerationSoftware,KiCad,Pcbnew,6.0.11-2627ca5db0~126~ubuntu22.04.1*
G04 #@! TF.CreationDate,2023-12-06T10:27:34+01:00*
G04 #@! TF.ProjectId,roomthermostat,726f6f6d-7468-4657-926d-6f737461742e,C*
G04 #@! TF.SameCoordinates,Original*
G04 #@! TF.FileFunction,AssemblyDrawing,Bot*
%FSLAX46Y46*%
G04 Gerber Fmt 4.6, Leading zero omitted, Abs format (unit mm)*
G04 Created by KiCad (PCBNEW 6.0.11-2627ca5db0~126~ubuntu22.04.1) date 2023-12-06 10:27:34*
%MOMM*%
%LPD*%
G01*
G04 APERTURE LIST*
%ADD10C,0.150000*%
G04 APERTURE END LIST*
D10*
X91676095Y-83840904D02*
X92133238Y-83840904D01*
X91904666Y-83840904D02*
X91904666Y-83040904D01*
X91980857Y-83155190D01*
X92057047Y-83231380D01*
X92133238Y-83269476D01*
X91180857Y-83040904D02*
X91104666Y-83040904D01*
X91028476Y-83079000D01*
X90990380Y-83117095D01*
X90952285Y-83193285D01*
X90914190Y-83345666D01*
X90914190Y-83536142D01*
X90952285Y-83688523D01*
X90990380Y-83764714D01*
X91028476Y-83802809D01*
X91104666Y-83840904D01*
X91180857Y-83840904D01*
X91257047Y-83802809D01*
X91295142Y-83764714D01*
X91333238Y-83688523D01*
X91371333Y-83536142D01*
X91371333Y-83345666D01*
X91333238Y-83193285D01*
X91295142Y-83117095D01*
X91257047Y-83079000D01*
X91180857Y-83040904D01*
X90418952Y-83040904D02*
X90342761Y-83040904D01*
X90266571Y-83079000D01*
X90228476Y-83117095D01*
X90190380Y-83193285D01*
X90152285Y-83345666D01*
X90152285Y-83536142D01*
X90190380Y-83688523D01*
X90228476Y-83764714D01*
X90266571Y-83802809D01*
X90342761Y-83840904D01*
X90418952Y-83840904D01*
X90495142Y-83802809D01*
X90533238Y-83764714D01*
X90571333Y-83688523D01*
X90609428Y-83536142D01*
X90609428Y-83345666D01*
X90571333Y-83193285D01*
X90533238Y-83117095D01*
X90495142Y-83079000D01*
X90418952Y-83040904D01*
X89809428Y-83307571D02*
X89809428Y-83840904D01*
X89809428Y-83383761D02*
X89771333Y-83345666D01*
X89695142Y-83307571D01*
X89580857Y-83307571D01*
X89504666Y-83345666D01*
X89466571Y-83421857D01*
X89466571Y-83840904D01*
X88818952Y-83421857D02*
X89085619Y-83421857D01*
X89085619Y-83840904D02*
X89085619Y-83040904D01*
X88704666Y-83040904D01*
X100820095Y-80792904D02*
X101277238Y-80792904D01*
X101048666Y-80792904D02*
X101048666Y-79992904D01*
X101124857Y-80107190D01*
X101201047Y-80183380D01*
X101277238Y-80221476D01*
X100324857Y-79992904D02*
X100248666Y-79992904D01*
X100172476Y-80031000D01*
X100134380Y-80069095D01*
X100096285Y-80145285D01*
X100058190Y-80297666D01*
X100058190Y-80488142D01*
X100096285Y-80640523D01*
X100134380Y-80716714D01*
X100172476Y-80754809D01*
X100248666Y-80792904D01*
X100324857Y-80792904D01*
X100401047Y-80754809D01*
X100439142Y-80716714D01*
X100477238Y-80640523D01*
X100515333Y-80488142D01*
X100515333Y-80297666D01*
X100477238Y-80145285D01*
X100439142Y-80069095D01*
X100401047Y-80031000D01*
X100324857Y-79992904D01*
X99562952Y-79992904D02*
X99486761Y-79992904D01*
X99410571Y-80031000D01*
X99372476Y-80069095D01*
X99334380Y-80145285D01*
X99296285Y-80297666D01*
X99296285Y-80488142D01*
X99334380Y-80640523D01*
X99372476Y-80716714D01*
X99410571Y-80754809D01*
X99486761Y-80792904D01*
X99562952Y-80792904D01*
X99639142Y-80754809D01*
X99677238Y-80716714D01*
X99715333Y-80640523D01*
X99753428Y-80488142D01*
X99753428Y-80297666D01*
X99715333Y-80145285D01*
X99677238Y-80069095D01*
X99639142Y-80031000D01*
X99562952Y-79992904D01*
X98953428Y-80259571D02*
X98953428Y-80792904D01*
X98953428Y-80335761D02*
X98915333Y-80297666D01*
X98839142Y-80259571D01*
X98724857Y-80259571D01*
X98648666Y-80297666D01*
X98610571Y-80373857D01*
X98610571Y-80792904D01*
X97962952Y-80373857D02*
X98229619Y-80373857D01*
X98229619Y-80792904D02*
X98229619Y-79992904D01*
X97848666Y-79992904D01*
X95873476Y-83117095D02*
X95835380Y-83079000D01*
X95759190Y-83040904D01*
X95568714Y-83040904D01*
X95492523Y-83079000D01*
X95454428Y-83117095D01*
X95416333Y-83193285D01*
X95416333Y-83269476D01*
X95454428Y-83383761D01*
X95911571Y-83840904D01*
X95416333Y-83840904D01*
X95111571Y-83117095D02*
X95073476Y-83079000D01*
X94997285Y-83040904D01*
X94806809Y-83040904D01*
X94730619Y-83079000D01*
X94692523Y-83117095D01*
X94654428Y-83193285D01*
X94654428Y-83269476D01*
X94692523Y-83383761D01*
X95149666Y-83840904D01*
X94654428Y-83840904D01*
X94159190Y-83040904D02*
X94083000Y-83040904D01*
X94006809Y-83079000D01*
X93968714Y-83117095D01*
X93930619Y-83193285D01*
X93892523Y-83345666D01*
X93892523Y-83536142D01*
X93930619Y-83688523D01*
X93968714Y-83764714D01*
X94006809Y-83802809D01*
X94083000Y-83840904D01*
X94159190Y-83840904D01*
X94235380Y-83802809D01*
X94273476Y-83764714D01*
X94311571Y-83688523D01*
X94349666Y-83536142D01*
X94349666Y-83345666D01*
X94311571Y-83193285D01*
X94273476Y-83117095D01*
X94235380Y-83079000D01*
X94159190Y-83040904D01*
X102277380Y-90347619D02*
X101277380Y-90347619D01*
X101658333Y-90347619D02*
X101610714Y-90442857D01*
X101610714Y-90633333D01*
X101658333Y-90728571D01*
X101705952Y-90776190D01*
X101801190Y-90823809D01*
X102086904Y-90823809D01*
X102182142Y-90776190D01*
X102229761Y-90728571D01*
X102277380Y-90633333D01*
X102277380Y-90442857D01*
X102229761Y-90347619D01*
X101610714Y-91680952D02*
X102277380Y-91680952D01*
X101610714Y-91252380D02*
X102134523Y-91252380D01*
X102229761Y-91300000D01*
X102277380Y-91395238D01*
X102277380Y-91538095D01*
X102229761Y-91633333D01*
X102182142Y-91680952D01*
X102229761Y-92109523D02*
X102277380Y-92204761D01*
X102277380Y-92395238D01*
X102229761Y-92490476D01*
X102134523Y-92538095D01*
X102086904Y-92538095D01*
X101991666Y-92490476D01*
X101944047Y-92395238D01*
X101944047Y-92252380D01*
X101896428Y-92157142D01*
X101801190Y-92109523D01*
X101753571Y-92109523D01*
X101658333Y-92157142D01*
X101610714Y-92252380D01*
X101610714Y-92395238D01*
X101658333Y-92490476D01*
X101896428Y-92966666D02*
X101896428Y-93728571D01*
X102277380Y-94204761D02*
X101610714Y-94204761D01*
X101705952Y-94204761D02*
X101658333Y-94252380D01*
X101610714Y-94347619D01*
X101610714Y-94490476D01*
X101658333Y-94585714D01*
X101753571Y-94633333D01*
X102277380Y-94633333D01*
X101753571Y-94633333D02*
X101658333Y-94680952D01*
X101610714Y-94776190D01*
X101610714Y-94919047D01*
X101658333Y-95014285D01*
X101753571Y-95061904D01*
X102277380Y-95061904D01*
X102277380Y-95680952D02*
X102229761Y-95585714D01*
X102182142Y-95538095D01*
X102086904Y-95490476D01*
X101801190Y-95490476D01*
X101705952Y-95538095D01*
X101658333Y-95585714D01*
X101610714Y-95680952D01*
X101610714Y-95823809D01*
X101658333Y-95919047D01*
X101705952Y-95966666D01*
X101801190Y-96014285D01*
X102086904Y-96014285D01*
X102182142Y-95966666D01*
X102229761Y-95919047D01*
X102277380Y-95823809D01*
X102277380Y-95680952D01*
X102277380Y-96871428D02*
X101277380Y-96871428D01*
X102229761Y-96871428D02*
X102277380Y-96776190D01*
X102277380Y-96585714D01*
X102229761Y-96490476D01*
X102182142Y-96442857D01*
X102086904Y-96395238D01*
X101801190Y-96395238D01*
X101705952Y-96442857D01*
X101658333Y-96490476D01*
X101610714Y-96585714D01*
X101610714Y-96776190D01*
X101658333Y-96871428D01*
X101610714Y-97776190D02*
X102277380Y-97776190D01*
X101610714Y-97347619D02*
X102134523Y-97347619D01*
X102229761Y-97395238D01*
X102277380Y-97490476D01*
X102277380Y-97633333D01*
X102229761Y-97728571D01*
X102182142Y-97776190D01*
X102277380Y-98395238D02*
X102229761Y-98300000D01*
X102134523Y-98252380D01*
X101277380Y-98252380D01*
X102229761Y-99157142D02*
X102277380Y-99061904D01*
X102277380Y-98871428D01*
X102229761Y-98776190D01*
X102134523Y-98728571D01*
X101753571Y-98728571D01*
X101658333Y-98776190D01*
X101610714Y-98871428D01*
X101610714Y-99061904D01*
X101658333Y-99157142D01*
X101753571Y-99204761D01*
X101848809Y-99204761D01*
X101944047Y-98728571D01*
X102372619Y-99395238D02*
X102372619Y-100157142D01*
X102277380Y-100823809D02*
X101753571Y-100823809D01*
X101658333Y-100776190D01*
X101610714Y-100680952D01*
X101610714Y-100490476D01*
X101658333Y-100395238D01*
X102229761Y-100823809D02*
X102277380Y-100728571D01*
X102277380Y-100490476D01*
X102229761Y-100395238D01*
X102134523Y-100347619D01*
X102039285Y-100347619D01*
X101944047Y-100395238D01*
X101896428Y-100490476D01*
X101896428Y-100728571D01*
X101848809Y-100823809D01*
X101610714Y-101157142D02*
X101610714Y-101538095D01*
X101277380Y-101300000D02*
X102134523Y-101300000D01*
X102229761Y-101347619D01*
X102277380Y-101442857D01*
X102277380Y-101538095D01*
X102277380Y-101871428D02*
X101610714Y-101871428D01*
X101705952Y-101871428D02*
X101658333Y-101919047D01*
X101610714Y-102014285D01*
X101610714Y-102157142D01*
X101658333Y-102252380D01*
X101753571Y-102299999D01*
X102277380Y-102299999D01*
X101753571Y-102299999D02*
X101658333Y-102347619D01*
X101610714Y-102442857D01*
X101610714Y-102585714D01*
X101658333Y-102680952D01*
X101753571Y-102728571D01*
X102277380Y-102728571D01*
X102229761Y-103585714D02*
X102277380Y-103490476D01*
X102277380Y-103300000D01*
X102229761Y-103204761D01*
X102134523Y-103157142D01*
X101753571Y-103157142D01*
X101658333Y-103204761D01*
X101610714Y-103300000D01*
X101610714Y-103490476D01*
X101658333Y-103585714D01*
X101753571Y-103633333D01*
X101848809Y-103633333D01*
X101944047Y-103157142D01*
X101610714Y-104490476D02*
X102420238Y-104490476D01*
X102515476Y-104442857D01*
X102563095Y-104395238D01*
X102610714Y-104299999D01*
X102610714Y-104157142D01*
X102563095Y-104061904D01*
X102229761Y-104490476D02*
X102277380Y-104395238D01*
X102277380Y-104204761D01*
X102229761Y-104109523D01*
X102182142Y-104061904D01*
X102086904Y-104014285D01*
X101801190Y-104014285D01*
X101705952Y-104061904D01*
X101658333Y-104109523D01*
X101610714Y-104204761D01*
X101610714Y-104395238D01*
X101658333Y-104490476D01*
X102277380Y-105395238D02*
X101753571Y-105395238D01*
X101658333Y-105347619D01*
X101610714Y-105252380D01*
X101610714Y-105061904D01*
X101658333Y-104966666D01*
X102229761Y-105395238D02*
X102277380Y-105299999D01*
X102277380Y-105061904D01*
X102229761Y-104966666D01*
X102134523Y-104919047D01*
X102039285Y-104919047D01*
X101944047Y-104966666D01*
X101896428Y-105061904D01*
X101896428Y-105299999D01*
X101848809Y-105395238D01*
X101277380Y-105776190D02*
X101277380Y-106395238D01*
X101658333Y-106061904D01*
X101658333Y-106204761D01*
X101705952Y-106299999D01*
X101753571Y-106347619D01*
X101848809Y-106395238D01*
X102086904Y-106395238D01*
X102182142Y-106347619D01*
X102229761Y-106299999D01*
X102277380Y-106204761D01*
X102277380Y-105919047D01*
X102229761Y-105823809D01*
X102182142Y-105776190D01*
X101372619Y-106776190D02*
X101325000Y-106823809D01*
X101277380Y-106919047D01*
X101277380Y-107157142D01*
X101325000Y-107252380D01*
X101372619Y-107299999D01*
X101467857Y-107347619D01*
X101563095Y-107347619D01*
X101705952Y-107299999D01*
X102277380Y-106728571D01*
X102277380Y-107347619D01*
X101705952Y-107919047D02*
X101658333Y-107823809D01*
X101610714Y-107776190D01*
X101515476Y-107728571D01*
X101467857Y-107728571D01*
X101372619Y-107776190D01*
X101325000Y-107823809D01*
X101277380Y-107919047D01*
X101277380Y-108109523D01*
X101325000Y-108204761D01*
X101372619Y-108252380D01*
X101467857Y-108299999D01*
X101515476Y-108299999D01*
X101610714Y-108252380D01*
X101658333Y-108204761D01*
X101705952Y-108109523D01*
X101705952Y-107919047D01*
X101753571Y-107823809D01*
X101801190Y-107776190D01*
X101896428Y-107728571D01*
X102086904Y-107728571D01*
X102182142Y-107776190D01*
X102229761Y-107823809D01*
X102277380Y-107919047D01*
X102277380Y-108109523D01*
X102229761Y-108204761D01*
X102182142Y-108252380D01*
X102086904Y-108299999D01*
X101896428Y-108299999D01*
X101801190Y-108252380D01*
X101753571Y-108204761D01*
X101705952Y-108109523D01*
X102372619Y-108490476D02*
X102372619Y-109252380D01*
X102277380Y-109490476D02*
X101610714Y-109490476D01*
X101801190Y-109490476D02*
X101705952Y-109538095D01*
X101658333Y-109585714D01*
X101610714Y-109680952D01*
X101610714Y-109776190D01*
X102229761Y-110490476D02*
X102277380Y-110395238D01*
X102277380Y-110204761D01*
X102229761Y-110109523D01*
X102134523Y-110061904D01*
X101753571Y-110061904D01*
X101658333Y-110109523D01*
X101610714Y-110204761D01*
X101610714Y-110395238D01*
X101658333Y-110490476D01*
X101753571Y-110538095D01*
X101848809Y-110538095D01*
X101944047Y-110061904D01*
X101610714Y-110871428D02*
X102277380Y-111109523D01*
X101610714Y-111347619D01*
X101753571Y-112061904D02*
X101801190Y-112204761D01*
X101848809Y-112252380D01*
X101944047Y-112299999D01*
X102086904Y-112299999D01*
X102182142Y-112252380D01*
X102229761Y-112204761D01*
X102277380Y-112109523D01*
X102277380Y-111728571D01*
X101277380Y-111728571D01*
X101277380Y-112061904D01*
X101325000Y-112157142D01*
X101372619Y-112204761D01*
X101467857Y-112252380D01*
X101563095Y-112252380D01*
X101658333Y-112204761D01*
X101705952Y-112157142D01*
X101753571Y-112061904D01*
X101753571Y-111728571D01*
M02*
