%TF.GenerationSoftware,KiCad,Pcbnew,6.0.11-2627ca5db0~126~ubuntu22.04.1*%
%TF.CreationDate,2023-12-06T10:27:31+01:00*%
%TF.ProjectId,roomthermostat,726f6f6d-7468-4657-926d-6f737461742e,C*%
%TF.SameCoordinates,Original*%
%TF.FileFunction,Drillmap*%
%TF.FilePolarity,Positive*%
%FSLAX45Y45*%
G04 Gerber Fmt 4.5, Leading zero omitted, Abs format (unit mm)*
G04 Created by KiCad (PCBNEW 6.0.11-2627ca5db0~126~ubuntu22.04.1) date 2023-12-06 10:27:31*
%MOMM*%
%LPD*%
G01*
G04 APERTURE LIST*
%ADD10C,0.150000*%
%ADD11C,0.200000*%
%ADD12C,0.040000*%
%ADD13C,0.050000*%
%ADD14C,0.090000*%
%ADD15C,0.100000*%
%ADD16C,0.250000*%
G04 APERTURE END LIST*
D10*
X9187120Y-12837925D02*
G75*
G03*
X10191500Y-12838588I504040J2801215D01*
G01*
X12491500Y-8087000D02*
X12491500Y-6937000D01*
X12491500Y-11987000D02*
X12491500Y-13137000D01*
X12783802Y-9464566D02*
G75*
G03*
X12491500Y-9512000I-142303J-47434D01*
G01*
X11641500Y-6937000D02*
X12491500Y-6937000D01*
X6886456Y-9534837D02*
G75*
G03*
X6885792Y-10539217I2801214J-504043D01*
G01*
X6891500Y-13137000D02*
X6891500Y-11987000D01*
X12491500Y-9512000D02*
X12491500Y-9537000D01*
X10263934Y-13130890D02*
X10241500Y-13138588D01*
X12490836Y-10541380D02*
G75*
G03*
X12791500Y-10587000I150664J-20620D01*
G01*
X9187120Y-12837928D02*
G75*
G03*
X9141500Y-13138588I-20620J-150662D01*
G01*
X11641500Y-13137000D02*
X11641500Y-13437000D01*
X12783802Y-9464566D02*
X12791500Y-9487000D01*
X7741500Y-6937000D02*
X6891500Y-6937000D01*
X6585792Y-9489217D02*
G75*
G03*
X6585792Y-10589217I3100000J-550000D01*
G01*
X13091500Y-8087000D02*
X12491500Y-8087000D01*
X6593489Y-10611651D02*
X6585792Y-10589217D01*
X6886454Y-9534837D02*
G75*
G03*
X6585792Y-9489217I-150664J20617D01*
G01*
X7741500Y-13437000D02*
X7741500Y-13137000D01*
X9141500Y-13138588D02*
G75*
G03*
X10241500Y-13138588I550000J3100000D01*
G01*
X12490836Y-10541380D02*
G75*
G03*
X12491500Y-9537000I-2801223J504043D01*
G01*
X11641500Y-13137000D02*
X12491500Y-13137000D01*
X7741500Y-6637000D02*
X11641500Y-6637000D01*
X10263936Y-13130894D02*
G75*
G03*
X10216500Y-12838588I-47436J142304D01*
G01*
X12791500Y-10587000D02*
G75*
G03*
X12791500Y-9487000I-3100000J550000D01*
G01*
X13091500Y-8087000D02*
X13091500Y-11987000D01*
X10239283Y-6937000D02*
G75*
G03*
X9139283Y-6937000I-550000J-3100000D01*
G01*
X6891500Y-13137000D02*
X7741500Y-13137000D01*
X6891500Y-8087000D02*
X6291500Y-8087000D01*
X10193647Y-7237784D02*
G75*
G03*
X9189283Y-7237000I-504367J-2799216D01*
G01*
X7741500Y-13437000D02*
X11641500Y-13437000D01*
X13091500Y-11987000D02*
X12491500Y-11987000D01*
X9116849Y-6944697D02*
X9139283Y-6937000D01*
X6291500Y-8087000D02*
X6291500Y-11987000D01*
X6593490Y-10611651D02*
G75*
G03*
X6885792Y-10564217I142302J47434D01*
G01*
X9164283Y-7237000D02*
X9189283Y-7237000D01*
X6291500Y-11987000D02*
X6891500Y-11987000D01*
X11641500Y-6937000D02*
X11641500Y-6637000D01*
X10216500Y-12838588D02*
X10191500Y-12838588D01*
X10193646Y-7237786D02*
G75*
G03*
X10239283Y-6937000I20624J150726D01*
G01*
X9116849Y-6944697D02*
G75*
G03*
X9164283Y-7237000I47431J-142303D01*
G01*
X6891500Y-6937000D02*
X6891500Y-8087000D01*
X6885792Y-10564217D02*
X6885792Y-10539217D01*
X7741500Y-6637000D02*
X7741500Y-6937000D01*
D11*
D12*
X8771500Y-11617000D02*
X8811500Y-11657000D01*
X8811500Y-11617000D02*
X8771500Y-11657000D01*
X9290500Y-9890000D02*
X9330500Y-9930000D01*
X9330500Y-9890000D02*
X9290500Y-9930000D01*
X9392100Y-10394000D02*
X9432100Y-10434000D01*
X9432100Y-10394000D02*
X9392100Y-10434000D01*
X9468300Y-9763000D02*
X9508300Y-9803000D01*
X9508300Y-9763000D02*
X9468300Y-9803000D01*
X9481000Y-8366000D02*
X9521000Y-8406000D01*
X9521000Y-8366000D02*
X9481000Y-8406000D01*
X9519100Y-10140000D02*
X9559100Y-10180000D01*
X9559100Y-10140000D02*
X9519100Y-10180000D01*
X9608000Y-8366000D02*
X9648000Y-8406000D01*
X9648000Y-8366000D02*
X9608000Y-8406000D01*
X9946500Y-11617000D02*
X9986500Y-11657000D01*
X9986500Y-11617000D02*
X9946500Y-11657000D01*
X10077900Y-10220200D02*
X10117900Y-10260200D01*
X10117900Y-10220200D02*
X10077900Y-10260200D01*
X10279100Y-10523000D02*
X10319100Y-10563000D01*
X10319100Y-10523000D02*
X10279100Y-10563000D01*
X10281100Y-10347200D02*
X10321100Y-10387200D01*
X10321100Y-10347200D02*
X10281100Y-10387200D01*
X10596500Y-11617000D02*
X10636500Y-11657000D01*
X10636500Y-11617000D02*
X10596500Y-11657000D01*
X10636700Y-9378000D02*
X10676700Y-9418000D01*
X10676700Y-9378000D02*
X10636700Y-9418000D01*
X10655901Y-9757000D02*
X10695901Y-9797000D01*
X10695901Y-9757000D02*
X10655901Y-9797000D01*
D13*
X9907000Y-8386000D02*
G75*
G03*
X9907000Y-8386000I-25000J0D01*
G01*
D14*
X7810500Y-8845000D02*
X7810500Y-8935000D01*
X7765500Y-8890000D02*
X7855500Y-8890000D01*
X7810500Y-9099000D02*
X7810500Y-9189000D01*
X7765500Y-9144000D02*
X7855500Y-9144000D01*
X7810500Y-9353000D02*
X7810500Y-9443000D01*
X7765500Y-9398000D02*
X7855500Y-9398000D01*
X7810500Y-9607000D02*
X7810500Y-9697000D01*
X7765500Y-9652000D02*
X7855500Y-9652000D01*
X7810500Y-9861000D02*
X7810500Y-9951000D01*
X7765500Y-9906000D02*
X7855500Y-9906000D01*
X7810500Y-10115000D02*
X7810500Y-10205000D01*
X7765500Y-10160000D02*
X7855500Y-10160000D01*
X7810500Y-10369000D02*
X7810500Y-10459000D01*
X7765500Y-10414000D02*
X7855500Y-10414000D01*
X8064500Y-8845000D02*
X8064500Y-8935000D01*
X8019500Y-8890000D02*
X8109500Y-8890000D01*
X8064500Y-9099000D02*
X8064500Y-9189000D01*
X8019500Y-9144000D02*
X8109500Y-9144000D01*
X8064500Y-9353000D02*
X8064500Y-9443000D01*
X8019500Y-9398000D02*
X8109500Y-9398000D01*
X8064500Y-9607000D02*
X8064500Y-9697000D01*
X8019500Y-9652000D02*
X8109500Y-9652000D01*
X8064500Y-9861000D02*
X8064500Y-9951000D01*
X8019500Y-9906000D02*
X8109500Y-9906000D01*
X8064500Y-10115000D02*
X8064500Y-10205000D01*
X8019500Y-10160000D02*
X8109500Y-10160000D01*
X8064500Y-10369000D02*
X8064500Y-10459000D01*
X8019500Y-10414000D02*
X8109500Y-10414000D01*
X10341500Y-7763000D02*
X10341500Y-7853000D01*
X10296500Y-7808000D02*
X10386500Y-7808000D01*
X10341500Y-8017000D02*
X10341500Y-8107000D01*
X10296500Y-8062000D02*
X10386500Y-8062000D01*
X10341500Y-8271000D02*
X10341500Y-8361000D01*
X10296500Y-8316000D02*
X10386500Y-8316000D01*
X11366500Y-8845000D02*
X11366500Y-8935000D01*
X11321500Y-8890000D02*
X11411500Y-8890000D01*
X11366500Y-9099000D02*
X11366500Y-9189000D01*
X11321500Y-9144000D02*
X11411500Y-9144000D01*
X11366500Y-9353000D02*
X11366500Y-9443000D01*
X11321500Y-9398000D02*
X11411500Y-9398000D01*
X11366500Y-9607000D02*
X11366500Y-9697000D01*
X11321500Y-9652000D02*
X11411500Y-9652000D01*
X11366500Y-9861000D02*
X11366500Y-9951000D01*
X11321500Y-9906000D02*
X11411500Y-9906000D01*
X11366500Y-10115000D02*
X11366500Y-10205000D01*
X11321500Y-10160000D02*
X11411500Y-10160000D01*
X11366500Y-10369000D02*
X11366500Y-10459000D01*
X11321500Y-10414000D02*
X11411500Y-10414000D01*
X11366500Y-10623000D02*
X11366500Y-10713000D01*
X11321500Y-10668000D02*
X11411500Y-10668000D01*
X11366500Y-10877000D02*
X11366500Y-10967000D01*
X11321500Y-10922000D02*
X11411500Y-10922000D01*
X11366500Y-11131000D02*
X11366500Y-11221000D01*
X11321500Y-11176000D02*
X11411500Y-11176000D01*
X11620500Y-8848000D02*
X11620500Y-8938000D01*
X11575500Y-8893000D02*
X11665500Y-8893000D01*
X11620500Y-9102000D02*
X11620500Y-9192000D01*
X11575500Y-9147000D02*
X11665500Y-9147000D01*
X11620500Y-9353000D02*
X11620500Y-9443000D01*
X11575500Y-9398000D02*
X11665500Y-9398000D01*
X11620500Y-9610000D02*
X11620500Y-9700000D01*
X11575500Y-9655000D02*
X11665500Y-9655000D01*
X11620500Y-9864000D02*
X11620500Y-9954000D01*
X11575500Y-9909000D02*
X11665500Y-9909000D01*
X11620500Y-10118000D02*
X11620500Y-10208000D01*
X11575500Y-10163000D02*
X11665500Y-10163000D01*
X11620500Y-10372000D02*
X11620500Y-10462000D01*
X11575500Y-10417000D02*
X11665500Y-10417000D01*
X11620500Y-10626000D02*
X11620500Y-10716000D01*
X11575500Y-10671000D02*
X11665500Y-10671000D01*
X11620500Y-10880000D02*
X11620500Y-10970000D01*
X11575500Y-10925000D02*
X11665500Y-10925000D01*
X11620500Y-11134000D02*
X11620500Y-11224000D01*
X11575500Y-11179000D02*
X11665500Y-11179000D01*
D15*
X8964856Y-8647356D02*
X8964856Y-8576644D01*
X8894144Y-8576644D01*
X8894144Y-8647356D01*
X8964856Y-8647356D01*
X9218856Y-8647356D02*
X9218856Y-8576644D01*
X9148144Y-8576644D01*
X9148144Y-8647356D01*
X9218856Y-8647356D01*
X9472856Y-8647356D02*
X9472856Y-8576644D01*
X9402144Y-8576644D01*
X9402144Y-8647356D01*
X9472856Y-8647356D01*
X9726856Y-8647356D02*
X9726856Y-8576644D01*
X9656144Y-8576644D01*
X9656144Y-8647356D01*
X9726856Y-8647356D01*
X9980856Y-8647356D02*
X9980856Y-8576644D01*
X9910144Y-8576644D01*
X9910144Y-8647356D01*
X9980856Y-8647356D01*
X10234856Y-8647356D02*
X10234856Y-8576644D01*
X10164144Y-8576644D01*
X10164144Y-8647356D01*
X10234856Y-8647356D01*
X10488856Y-8647356D02*
X10488856Y-8576644D01*
X10418144Y-8576644D01*
X10418144Y-8647356D01*
X10488856Y-8647356D01*
D16*
X8541500Y-8787000D02*
X8666500Y-8662000D01*
X8541500Y-8537000D01*
X8416500Y-8662000D01*
X8541500Y-8787000D01*
X8541500Y-11137000D02*
X8666500Y-11012000D01*
X8541500Y-10887000D01*
X8416500Y-11012000D01*
X8541500Y-11137000D01*
X9207500Y-11209000D02*
X9332500Y-11084000D01*
X9207500Y-10959000D01*
X9082500Y-11084000D01*
X9207500Y-11209000D01*
X10841500Y-8787000D02*
X10966500Y-8662000D01*
X10841500Y-8537000D01*
X10716500Y-8662000D01*
X10841500Y-8787000D01*
X10841500Y-11137000D02*
X10966500Y-11012000D01*
X10841500Y-10887000D01*
X10716500Y-11012000D01*
X10841500Y-11137000D01*
D11*
X6541619Y-13754976D02*
X6541619Y-13554976D01*
X6589238Y-13554976D01*
X6617809Y-13564500D01*
X6636857Y-13583548D01*
X6646381Y-13602595D01*
X6655905Y-13640690D01*
X6655905Y-13669262D01*
X6646381Y-13707357D01*
X6636857Y-13726405D01*
X6617809Y-13745452D01*
X6589238Y-13754976D01*
X6541619Y-13754976D01*
X6741619Y-13754976D02*
X6741619Y-13621643D01*
X6741619Y-13659738D02*
X6751143Y-13640690D01*
X6760667Y-13631167D01*
X6779714Y-13621643D01*
X6798762Y-13621643D01*
X6865428Y-13754976D02*
X6865428Y-13621643D01*
X6865428Y-13554976D02*
X6855905Y-13564500D01*
X6865428Y-13574024D01*
X6874952Y-13564500D01*
X6865428Y-13554976D01*
X6865428Y-13574024D01*
X6989238Y-13754976D02*
X6970190Y-13745452D01*
X6960667Y-13726405D01*
X6960667Y-13554976D01*
X7094000Y-13754976D02*
X7074952Y-13745452D01*
X7065428Y-13726405D01*
X7065428Y-13554976D01*
X7322571Y-13754976D02*
X7322571Y-13554976D01*
X7389238Y-13697833D01*
X7455905Y-13554976D01*
X7455905Y-13754976D01*
X7636857Y-13754976D02*
X7636857Y-13650214D01*
X7627333Y-13631167D01*
X7608286Y-13621643D01*
X7570190Y-13621643D01*
X7551143Y-13631167D01*
X7636857Y-13745452D02*
X7617809Y-13754976D01*
X7570190Y-13754976D01*
X7551143Y-13745452D01*
X7541619Y-13726405D01*
X7541619Y-13707357D01*
X7551143Y-13688309D01*
X7570190Y-13678786D01*
X7617809Y-13678786D01*
X7636857Y-13669262D01*
X7732095Y-13621643D02*
X7732095Y-13821643D01*
X7732095Y-13631167D02*
X7751143Y-13621643D01*
X7789238Y-13621643D01*
X7808286Y-13631167D01*
X7817809Y-13640690D01*
X7827333Y-13659738D01*
X7827333Y-13716881D01*
X7817809Y-13735928D01*
X7808286Y-13745452D01*
X7789238Y-13754976D01*
X7751143Y-13754976D01*
X7732095Y-13745452D01*
X7913048Y-13735928D02*
X7922571Y-13745452D01*
X7913048Y-13754976D01*
X7903524Y-13745452D01*
X7913048Y-13735928D01*
X7913048Y-13754976D01*
X7913048Y-13631167D02*
X7922571Y-13640690D01*
X7913048Y-13650214D01*
X7903524Y-13640690D01*
X7913048Y-13631167D01*
X7913048Y-13650214D01*
D12*
X6244000Y-14064500D02*
X6284000Y-14104500D01*
X6284000Y-14064500D02*
X6244000Y-14104500D01*
D11*
X6579714Y-13974976D02*
X6598762Y-13974976D01*
X6617809Y-13984500D01*
X6627333Y-13994024D01*
X6636857Y-14013071D01*
X6646381Y-14051167D01*
X6646381Y-14098786D01*
X6636857Y-14136881D01*
X6627333Y-14155928D01*
X6617809Y-14165452D01*
X6598762Y-14174976D01*
X6579714Y-14174976D01*
X6560667Y-14165452D01*
X6551143Y-14155928D01*
X6541619Y-14136881D01*
X6532095Y-14098786D01*
X6532095Y-14051167D01*
X6541619Y-14013071D01*
X6551143Y-13994024D01*
X6560667Y-13984500D01*
X6579714Y-13974976D01*
X6732095Y-14155928D02*
X6741619Y-14165452D01*
X6732095Y-14174976D01*
X6722571Y-14165452D01*
X6732095Y-14155928D01*
X6732095Y-14174976D01*
X6913048Y-14041643D02*
X6913048Y-14174976D01*
X6865428Y-13965452D02*
X6817809Y-14108309D01*
X6941619Y-14108309D01*
X7055905Y-13974976D02*
X7074952Y-13974976D01*
X7094000Y-13984500D01*
X7103524Y-13994024D01*
X7113048Y-14013071D01*
X7122571Y-14051167D01*
X7122571Y-14098786D01*
X7113048Y-14136881D01*
X7103524Y-14155928D01*
X7094000Y-14165452D01*
X7074952Y-14174976D01*
X7055905Y-14174976D01*
X7036857Y-14165452D01*
X7027333Y-14155928D01*
X7017809Y-14136881D01*
X7008286Y-14098786D01*
X7008286Y-14051167D01*
X7017809Y-14013071D01*
X7027333Y-13994024D01*
X7036857Y-13984500D01*
X7055905Y-13974976D01*
X7246381Y-13974976D02*
X7265428Y-13974976D01*
X7284476Y-13984500D01*
X7294000Y-13994024D01*
X7303524Y-14013071D01*
X7313048Y-14051167D01*
X7313048Y-14098786D01*
X7303524Y-14136881D01*
X7294000Y-14155928D01*
X7284476Y-14165452D01*
X7265428Y-14174976D01*
X7246381Y-14174976D01*
X7227333Y-14165452D01*
X7217809Y-14155928D01*
X7208286Y-14136881D01*
X7198762Y-14098786D01*
X7198762Y-14051167D01*
X7208286Y-14013071D01*
X7217809Y-13994024D01*
X7227333Y-13984500D01*
X7246381Y-13974976D01*
X7398762Y-14174976D02*
X7398762Y-14041643D01*
X7398762Y-14060690D02*
X7408286Y-14051167D01*
X7427333Y-14041643D01*
X7455905Y-14041643D01*
X7474952Y-14051167D01*
X7484476Y-14070214D01*
X7484476Y-14174976D01*
X7484476Y-14070214D02*
X7494000Y-14051167D01*
X7513048Y-14041643D01*
X7541619Y-14041643D01*
X7560667Y-14051167D01*
X7570190Y-14070214D01*
X7570190Y-14174976D01*
X7665428Y-14174976D02*
X7665428Y-14041643D01*
X7665428Y-14060690D02*
X7674952Y-14051167D01*
X7694000Y-14041643D01*
X7722571Y-14041643D01*
X7741619Y-14051167D01*
X7751143Y-14070214D01*
X7751143Y-14174976D01*
X7751143Y-14070214D02*
X7760667Y-14051167D01*
X7779714Y-14041643D01*
X7808286Y-14041643D01*
X7827333Y-14051167D01*
X7836857Y-14070214D01*
X7836857Y-14174976D01*
X8227333Y-13965452D02*
X8055905Y-14222595D01*
X8484476Y-13974976D02*
X8503524Y-13974976D01*
X8522571Y-13984500D01*
X8532095Y-13994024D01*
X8541619Y-14013071D01*
X8551143Y-14051167D01*
X8551143Y-14098786D01*
X8541619Y-14136881D01*
X8532095Y-14155928D01*
X8522571Y-14165452D01*
X8503524Y-14174976D01*
X8484476Y-14174976D01*
X8465429Y-14165452D01*
X8455905Y-14155928D01*
X8446381Y-14136881D01*
X8436857Y-14098786D01*
X8436857Y-14051167D01*
X8446381Y-14013071D01*
X8455905Y-13994024D01*
X8465429Y-13984500D01*
X8484476Y-13974976D01*
X8636857Y-14155928D02*
X8646381Y-14165452D01*
X8636857Y-14174976D01*
X8627333Y-14165452D01*
X8636857Y-14155928D01*
X8636857Y-14174976D01*
X8770190Y-13974976D02*
X8789238Y-13974976D01*
X8808286Y-13984500D01*
X8817810Y-13994024D01*
X8827333Y-14013071D01*
X8836857Y-14051167D01*
X8836857Y-14098786D01*
X8827333Y-14136881D01*
X8817810Y-14155928D01*
X8808286Y-14165452D01*
X8789238Y-14174976D01*
X8770190Y-14174976D01*
X8751143Y-14165452D01*
X8741619Y-14155928D01*
X8732095Y-14136881D01*
X8722571Y-14098786D01*
X8722571Y-14051167D01*
X8732095Y-14013071D01*
X8741619Y-13994024D01*
X8751143Y-13984500D01*
X8770190Y-13974976D01*
X9027333Y-14174976D02*
X8913048Y-14174976D01*
X8970190Y-14174976D02*
X8970190Y-13974976D01*
X8951143Y-14003548D01*
X8932095Y-14022595D01*
X8913048Y-14032119D01*
X9208286Y-13974976D02*
X9113048Y-13974976D01*
X9103524Y-14070214D01*
X9113048Y-14060690D01*
X9132095Y-14051167D01*
X9179714Y-14051167D01*
X9198762Y-14060690D01*
X9208286Y-14070214D01*
X9217810Y-14089262D01*
X9217810Y-14136881D01*
X9208286Y-14155928D01*
X9198762Y-14165452D01*
X9179714Y-14174976D01*
X9132095Y-14174976D01*
X9113048Y-14165452D01*
X9103524Y-14155928D01*
X9284476Y-13974976D02*
X9417810Y-13974976D01*
X9332095Y-14174976D01*
X9484476Y-13974976D02*
X9484476Y-14013071D01*
X9560667Y-13974976D02*
X9560667Y-14013071D01*
X9855905Y-14251167D02*
X9846381Y-14241643D01*
X9827333Y-14213071D01*
X9817810Y-14194024D01*
X9808286Y-14165452D01*
X9798762Y-14117833D01*
X9798762Y-14079738D01*
X9808286Y-14032119D01*
X9817810Y-14003548D01*
X9827333Y-13984500D01*
X9846381Y-13955928D01*
X9855905Y-13946405D01*
X10036857Y-14174976D02*
X9922571Y-14174976D01*
X9979714Y-14174976D02*
X9979714Y-13974976D01*
X9960667Y-14003548D01*
X9941619Y-14022595D01*
X9922571Y-14032119D01*
X10208286Y-14041643D02*
X10208286Y-14174976D01*
X10160667Y-13965452D02*
X10113048Y-14108309D01*
X10236857Y-14108309D01*
X10465429Y-14174976D02*
X10465429Y-13974976D01*
X10551143Y-14174976D02*
X10551143Y-14070214D01*
X10541619Y-14051167D01*
X10522571Y-14041643D01*
X10494000Y-14041643D01*
X10474952Y-14051167D01*
X10465429Y-14060690D01*
X10674952Y-14174976D02*
X10655905Y-14165452D01*
X10646381Y-14155928D01*
X10636857Y-14136881D01*
X10636857Y-14079738D01*
X10646381Y-14060690D01*
X10655905Y-14051167D01*
X10674952Y-14041643D01*
X10703524Y-14041643D01*
X10722571Y-14051167D01*
X10732095Y-14060690D01*
X10741619Y-14079738D01*
X10741619Y-14136881D01*
X10732095Y-14155928D01*
X10722571Y-14165452D01*
X10703524Y-14174976D01*
X10674952Y-14174976D01*
X10855905Y-14174976D02*
X10836857Y-14165452D01*
X10827333Y-14146405D01*
X10827333Y-13974976D01*
X11008286Y-14165452D02*
X10989238Y-14174976D01*
X10951143Y-14174976D01*
X10932095Y-14165452D01*
X10922571Y-14146405D01*
X10922571Y-14070214D01*
X10932095Y-14051167D01*
X10951143Y-14041643D01*
X10989238Y-14041643D01*
X11008286Y-14051167D01*
X11017810Y-14070214D01*
X11017810Y-14089262D01*
X10922571Y-14108309D01*
X11094000Y-14165452D02*
X11113048Y-14174976D01*
X11151143Y-14174976D01*
X11170190Y-14165452D01*
X11179714Y-14146405D01*
X11179714Y-14136881D01*
X11170190Y-14117833D01*
X11151143Y-14108309D01*
X11122571Y-14108309D01*
X11103524Y-14098786D01*
X11094000Y-14079738D01*
X11094000Y-14070214D01*
X11103524Y-14051167D01*
X11122571Y-14041643D01*
X11151143Y-14041643D01*
X11170190Y-14051167D01*
X11246381Y-14251167D02*
X11255905Y-14241643D01*
X11274952Y-14213071D01*
X11284476Y-14194024D01*
X11294000Y-14165452D01*
X11303524Y-14117833D01*
X11303524Y-14079738D01*
X11294000Y-14032119D01*
X11284476Y-14003548D01*
X11274952Y-13984500D01*
X11255905Y-13955928D01*
X11246381Y-13946405D01*
D13*
X6284000Y-14348500D02*
G75*
G03*
X6284000Y-14348500I-25000J0D01*
G01*
D11*
X6579714Y-14238976D02*
X6598762Y-14238976D01*
X6617809Y-14248500D01*
X6627333Y-14258024D01*
X6636857Y-14277071D01*
X6646381Y-14315167D01*
X6646381Y-14362786D01*
X6636857Y-14400881D01*
X6627333Y-14419928D01*
X6617809Y-14429452D01*
X6598762Y-14438976D01*
X6579714Y-14438976D01*
X6560667Y-14429452D01*
X6551143Y-14419928D01*
X6541619Y-14400881D01*
X6532095Y-14362786D01*
X6532095Y-14315167D01*
X6541619Y-14277071D01*
X6551143Y-14258024D01*
X6560667Y-14248500D01*
X6579714Y-14238976D01*
X6732095Y-14419928D02*
X6741619Y-14429452D01*
X6732095Y-14438976D01*
X6722571Y-14429452D01*
X6732095Y-14419928D01*
X6732095Y-14438976D01*
X6922571Y-14238976D02*
X6827333Y-14238976D01*
X6817809Y-14334214D01*
X6827333Y-14324690D01*
X6846381Y-14315167D01*
X6894000Y-14315167D01*
X6913048Y-14324690D01*
X6922571Y-14334214D01*
X6932095Y-14353262D01*
X6932095Y-14400881D01*
X6922571Y-14419928D01*
X6913048Y-14429452D01*
X6894000Y-14438976D01*
X6846381Y-14438976D01*
X6827333Y-14429452D01*
X6817809Y-14419928D01*
X7055905Y-14238976D02*
X7074952Y-14238976D01*
X7094000Y-14248500D01*
X7103524Y-14258024D01*
X7113048Y-14277071D01*
X7122571Y-14315167D01*
X7122571Y-14362786D01*
X7113048Y-14400881D01*
X7103524Y-14419928D01*
X7094000Y-14429452D01*
X7074952Y-14438976D01*
X7055905Y-14438976D01*
X7036857Y-14429452D01*
X7027333Y-14419928D01*
X7017809Y-14400881D01*
X7008286Y-14362786D01*
X7008286Y-14315167D01*
X7017809Y-14277071D01*
X7027333Y-14258024D01*
X7036857Y-14248500D01*
X7055905Y-14238976D01*
X7246381Y-14238976D02*
X7265428Y-14238976D01*
X7284476Y-14248500D01*
X7294000Y-14258024D01*
X7303524Y-14277071D01*
X7313048Y-14315167D01*
X7313048Y-14362786D01*
X7303524Y-14400881D01*
X7294000Y-14419928D01*
X7284476Y-14429452D01*
X7265428Y-14438976D01*
X7246381Y-14438976D01*
X7227333Y-14429452D01*
X7217809Y-14419928D01*
X7208286Y-14400881D01*
X7198762Y-14362786D01*
X7198762Y-14315167D01*
X7208286Y-14277071D01*
X7217809Y-14258024D01*
X7227333Y-14248500D01*
X7246381Y-14238976D01*
X7398762Y-14438976D02*
X7398762Y-14305643D01*
X7398762Y-14324690D02*
X7408286Y-14315167D01*
X7427333Y-14305643D01*
X7455905Y-14305643D01*
X7474952Y-14315167D01*
X7484476Y-14334214D01*
X7484476Y-14438976D01*
X7484476Y-14334214D02*
X7494000Y-14315167D01*
X7513048Y-14305643D01*
X7541619Y-14305643D01*
X7560667Y-14315167D01*
X7570190Y-14334214D01*
X7570190Y-14438976D01*
X7665428Y-14438976D02*
X7665428Y-14305643D01*
X7665428Y-14324690D02*
X7674952Y-14315167D01*
X7694000Y-14305643D01*
X7722571Y-14305643D01*
X7741619Y-14315167D01*
X7751143Y-14334214D01*
X7751143Y-14438976D01*
X7751143Y-14334214D02*
X7760667Y-14315167D01*
X7779714Y-14305643D01*
X7808286Y-14305643D01*
X7827333Y-14315167D01*
X7836857Y-14334214D01*
X7836857Y-14438976D01*
X8227333Y-14229452D02*
X8055905Y-14486595D01*
X8484476Y-14238976D02*
X8503524Y-14238976D01*
X8522571Y-14248500D01*
X8532095Y-14258024D01*
X8541619Y-14277071D01*
X8551143Y-14315167D01*
X8551143Y-14362786D01*
X8541619Y-14400881D01*
X8532095Y-14419928D01*
X8522571Y-14429452D01*
X8503524Y-14438976D01*
X8484476Y-14438976D01*
X8465429Y-14429452D01*
X8455905Y-14419928D01*
X8446381Y-14400881D01*
X8436857Y-14362786D01*
X8436857Y-14315167D01*
X8446381Y-14277071D01*
X8455905Y-14258024D01*
X8465429Y-14248500D01*
X8484476Y-14238976D01*
X8636857Y-14419928D02*
X8646381Y-14429452D01*
X8636857Y-14438976D01*
X8627333Y-14429452D01*
X8636857Y-14419928D01*
X8636857Y-14438976D01*
X8770190Y-14238976D02*
X8789238Y-14238976D01*
X8808286Y-14248500D01*
X8817810Y-14258024D01*
X8827333Y-14277071D01*
X8836857Y-14315167D01*
X8836857Y-14362786D01*
X8827333Y-14400881D01*
X8817810Y-14419928D01*
X8808286Y-14429452D01*
X8789238Y-14438976D01*
X8770190Y-14438976D01*
X8751143Y-14429452D01*
X8741619Y-14419928D01*
X8732095Y-14400881D01*
X8722571Y-14362786D01*
X8722571Y-14315167D01*
X8732095Y-14277071D01*
X8741619Y-14258024D01*
X8751143Y-14248500D01*
X8770190Y-14238976D01*
X9027333Y-14438976D02*
X8913048Y-14438976D01*
X8970190Y-14438976D02*
X8970190Y-14238976D01*
X8951143Y-14267548D01*
X8932095Y-14286595D01*
X8913048Y-14296119D01*
X9122571Y-14438976D02*
X9160667Y-14438976D01*
X9179714Y-14429452D01*
X9189238Y-14419928D01*
X9208286Y-14391357D01*
X9217810Y-14353262D01*
X9217810Y-14277071D01*
X9208286Y-14258024D01*
X9198762Y-14248500D01*
X9179714Y-14238976D01*
X9141619Y-14238976D01*
X9122571Y-14248500D01*
X9113048Y-14258024D01*
X9103524Y-14277071D01*
X9103524Y-14324690D01*
X9113048Y-14343738D01*
X9122571Y-14353262D01*
X9141619Y-14362786D01*
X9179714Y-14362786D01*
X9198762Y-14353262D01*
X9208286Y-14343738D01*
X9217810Y-14324690D01*
X9284476Y-14238976D02*
X9417810Y-14238976D01*
X9332095Y-14438976D01*
X9484476Y-14238976D02*
X9484476Y-14277071D01*
X9560667Y-14238976D02*
X9560667Y-14277071D01*
X9855905Y-14515167D02*
X9846381Y-14505643D01*
X9827333Y-14477071D01*
X9817810Y-14458024D01*
X9808286Y-14429452D01*
X9798762Y-14381833D01*
X9798762Y-14343738D01*
X9808286Y-14296119D01*
X9817810Y-14267548D01*
X9827333Y-14248500D01*
X9846381Y-14219928D01*
X9855905Y-14210405D01*
X10036857Y-14438976D02*
X9922571Y-14438976D01*
X9979714Y-14438976D02*
X9979714Y-14238976D01*
X9960667Y-14267548D01*
X9941619Y-14286595D01*
X9922571Y-14296119D01*
X10274952Y-14438976D02*
X10274952Y-14238976D01*
X10360667Y-14438976D02*
X10360667Y-14334214D01*
X10351143Y-14315167D01*
X10332095Y-14305643D01*
X10303524Y-14305643D01*
X10284476Y-14315167D01*
X10274952Y-14324690D01*
X10484476Y-14438976D02*
X10465429Y-14429452D01*
X10455905Y-14419928D01*
X10446381Y-14400881D01*
X10446381Y-14343738D01*
X10455905Y-14324690D01*
X10465429Y-14315167D01*
X10484476Y-14305643D01*
X10513048Y-14305643D01*
X10532095Y-14315167D01*
X10541619Y-14324690D01*
X10551143Y-14343738D01*
X10551143Y-14400881D01*
X10541619Y-14419928D01*
X10532095Y-14429452D01*
X10513048Y-14438976D01*
X10484476Y-14438976D01*
X10665429Y-14438976D02*
X10646381Y-14429452D01*
X10636857Y-14410405D01*
X10636857Y-14238976D01*
X10817810Y-14429452D02*
X10798762Y-14438976D01*
X10760667Y-14438976D01*
X10741619Y-14429452D01*
X10732095Y-14410405D01*
X10732095Y-14334214D01*
X10741619Y-14315167D01*
X10760667Y-14305643D01*
X10798762Y-14305643D01*
X10817810Y-14315167D01*
X10827333Y-14334214D01*
X10827333Y-14353262D01*
X10732095Y-14372309D01*
X10894000Y-14515167D02*
X10903524Y-14505643D01*
X10922571Y-14477071D01*
X10932095Y-14458024D01*
X10941619Y-14429452D01*
X10951143Y-14381833D01*
X10951143Y-14343738D01*
X10941619Y-14296119D01*
X10932095Y-14267548D01*
X10922571Y-14248500D01*
X10903524Y-14219928D01*
X10894000Y-14210405D01*
D14*
X6239000Y-14567500D02*
X6239000Y-14657500D01*
X6194000Y-14612500D02*
X6284000Y-14612500D01*
D11*
X6579714Y-14502976D02*
X6598762Y-14502976D01*
X6617809Y-14512500D01*
X6627333Y-14522024D01*
X6636857Y-14541071D01*
X6646381Y-14579167D01*
X6646381Y-14626786D01*
X6636857Y-14664881D01*
X6627333Y-14683928D01*
X6617809Y-14693452D01*
X6598762Y-14702976D01*
X6579714Y-14702976D01*
X6560667Y-14693452D01*
X6551143Y-14683928D01*
X6541619Y-14664881D01*
X6532095Y-14626786D01*
X6532095Y-14579167D01*
X6541619Y-14541071D01*
X6551143Y-14522024D01*
X6560667Y-14512500D01*
X6579714Y-14502976D01*
X6732095Y-14683928D02*
X6741619Y-14693452D01*
X6732095Y-14702976D01*
X6722571Y-14693452D01*
X6732095Y-14683928D01*
X6732095Y-14702976D01*
X6836857Y-14702976D02*
X6874952Y-14702976D01*
X6894000Y-14693452D01*
X6903524Y-14683928D01*
X6922571Y-14655357D01*
X6932095Y-14617262D01*
X6932095Y-14541071D01*
X6922571Y-14522024D01*
X6913048Y-14512500D01*
X6894000Y-14502976D01*
X6855905Y-14502976D01*
X6836857Y-14512500D01*
X6827333Y-14522024D01*
X6817809Y-14541071D01*
X6817809Y-14588690D01*
X6827333Y-14607738D01*
X6836857Y-14617262D01*
X6855905Y-14626786D01*
X6894000Y-14626786D01*
X6913048Y-14617262D01*
X6922571Y-14607738D01*
X6932095Y-14588690D01*
X7055905Y-14502976D02*
X7074952Y-14502976D01*
X7094000Y-14512500D01*
X7103524Y-14522024D01*
X7113048Y-14541071D01*
X7122571Y-14579167D01*
X7122571Y-14626786D01*
X7113048Y-14664881D01*
X7103524Y-14683928D01*
X7094000Y-14693452D01*
X7074952Y-14702976D01*
X7055905Y-14702976D01*
X7036857Y-14693452D01*
X7027333Y-14683928D01*
X7017809Y-14664881D01*
X7008286Y-14626786D01*
X7008286Y-14579167D01*
X7017809Y-14541071D01*
X7027333Y-14522024D01*
X7036857Y-14512500D01*
X7055905Y-14502976D01*
X7246381Y-14502976D02*
X7265428Y-14502976D01*
X7284476Y-14512500D01*
X7294000Y-14522024D01*
X7303524Y-14541071D01*
X7313048Y-14579167D01*
X7313048Y-14626786D01*
X7303524Y-14664881D01*
X7294000Y-14683928D01*
X7284476Y-14693452D01*
X7265428Y-14702976D01*
X7246381Y-14702976D01*
X7227333Y-14693452D01*
X7217809Y-14683928D01*
X7208286Y-14664881D01*
X7198762Y-14626786D01*
X7198762Y-14579167D01*
X7208286Y-14541071D01*
X7217809Y-14522024D01*
X7227333Y-14512500D01*
X7246381Y-14502976D01*
X7398762Y-14702976D02*
X7398762Y-14569643D01*
X7398762Y-14588690D02*
X7408286Y-14579167D01*
X7427333Y-14569643D01*
X7455905Y-14569643D01*
X7474952Y-14579167D01*
X7484476Y-14598214D01*
X7484476Y-14702976D01*
X7484476Y-14598214D02*
X7494000Y-14579167D01*
X7513048Y-14569643D01*
X7541619Y-14569643D01*
X7560667Y-14579167D01*
X7570190Y-14598214D01*
X7570190Y-14702976D01*
X7665428Y-14702976D02*
X7665428Y-14569643D01*
X7665428Y-14588690D02*
X7674952Y-14579167D01*
X7694000Y-14569643D01*
X7722571Y-14569643D01*
X7741619Y-14579167D01*
X7751143Y-14598214D01*
X7751143Y-14702976D01*
X7751143Y-14598214D02*
X7760667Y-14579167D01*
X7779714Y-14569643D01*
X7808286Y-14569643D01*
X7827333Y-14579167D01*
X7836857Y-14598214D01*
X7836857Y-14702976D01*
X8227333Y-14493452D02*
X8055905Y-14750595D01*
X8484476Y-14502976D02*
X8503524Y-14502976D01*
X8522571Y-14512500D01*
X8532095Y-14522024D01*
X8541619Y-14541071D01*
X8551143Y-14579167D01*
X8551143Y-14626786D01*
X8541619Y-14664881D01*
X8532095Y-14683928D01*
X8522571Y-14693452D01*
X8503524Y-14702976D01*
X8484476Y-14702976D01*
X8465429Y-14693452D01*
X8455905Y-14683928D01*
X8446381Y-14664881D01*
X8436857Y-14626786D01*
X8436857Y-14579167D01*
X8446381Y-14541071D01*
X8455905Y-14522024D01*
X8465429Y-14512500D01*
X8484476Y-14502976D01*
X8636857Y-14683928D02*
X8646381Y-14693452D01*
X8636857Y-14702976D01*
X8627333Y-14693452D01*
X8636857Y-14683928D01*
X8636857Y-14702976D01*
X8770190Y-14502976D02*
X8789238Y-14502976D01*
X8808286Y-14512500D01*
X8817810Y-14522024D01*
X8827333Y-14541071D01*
X8836857Y-14579167D01*
X8836857Y-14626786D01*
X8827333Y-14664881D01*
X8817810Y-14683928D01*
X8808286Y-14693452D01*
X8789238Y-14702976D01*
X8770190Y-14702976D01*
X8751143Y-14693452D01*
X8741619Y-14683928D01*
X8732095Y-14664881D01*
X8722571Y-14626786D01*
X8722571Y-14579167D01*
X8732095Y-14541071D01*
X8741619Y-14522024D01*
X8751143Y-14512500D01*
X8770190Y-14502976D01*
X8903524Y-14502976D02*
X9027333Y-14502976D01*
X8960667Y-14579167D01*
X8989238Y-14579167D01*
X9008286Y-14588690D01*
X9017810Y-14598214D01*
X9027333Y-14617262D01*
X9027333Y-14664881D01*
X9017810Y-14683928D01*
X9008286Y-14693452D01*
X8989238Y-14702976D01*
X8932095Y-14702976D01*
X8913048Y-14693452D01*
X8903524Y-14683928D01*
X9208286Y-14502976D02*
X9113048Y-14502976D01*
X9103524Y-14598214D01*
X9113048Y-14588690D01*
X9132095Y-14579167D01*
X9179714Y-14579167D01*
X9198762Y-14588690D01*
X9208286Y-14598214D01*
X9217810Y-14617262D01*
X9217810Y-14664881D01*
X9208286Y-14683928D01*
X9198762Y-14693452D01*
X9179714Y-14702976D01*
X9132095Y-14702976D01*
X9113048Y-14693452D01*
X9103524Y-14683928D01*
X9389238Y-14569643D02*
X9389238Y-14702976D01*
X9341619Y-14493452D02*
X9294000Y-14636309D01*
X9417810Y-14636309D01*
X9484476Y-14502976D02*
X9484476Y-14541071D01*
X9560667Y-14502976D02*
X9560667Y-14541071D01*
X9855905Y-14779167D02*
X9846381Y-14769643D01*
X9827333Y-14741071D01*
X9817810Y-14722024D01*
X9808286Y-14693452D01*
X9798762Y-14645833D01*
X9798762Y-14607738D01*
X9808286Y-14560119D01*
X9817810Y-14531548D01*
X9827333Y-14512500D01*
X9846381Y-14483928D01*
X9855905Y-14474405D01*
X9913048Y-14502976D02*
X10036857Y-14502976D01*
X9970190Y-14579167D01*
X9998762Y-14579167D01*
X10017810Y-14588690D01*
X10027333Y-14598214D01*
X10036857Y-14617262D01*
X10036857Y-14664881D01*
X10027333Y-14683928D01*
X10017810Y-14693452D01*
X9998762Y-14702976D01*
X9941619Y-14702976D01*
X9922571Y-14693452D01*
X9913048Y-14683928D01*
X10103524Y-14502976D02*
X10236857Y-14502976D01*
X10151143Y-14702976D01*
X10465429Y-14702976D02*
X10465429Y-14502976D01*
X10551143Y-14702976D02*
X10551143Y-14598214D01*
X10541619Y-14579167D01*
X10522571Y-14569643D01*
X10494000Y-14569643D01*
X10474952Y-14579167D01*
X10465429Y-14588690D01*
X10674952Y-14702976D02*
X10655905Y-14693452D01*
X10646381Y-14683928D01*
X10636857Y-14664881D01*
X10636857Y-14607738D01*
X10646381Y-14588690D01*
X10655905Y-14579167D01*
X10674952Y-14569643D01*
X10703524Y-14569643D01*
X10722571Y-14579167D01*
X10732095Y-14588690D01*
X10741619Y-14607738D01*
X10741619Y-14664881D01*
X10732095Y-14683928D01*
X10722571Y-14693452D01*
X10703524Y-14702976D01*
X10674952Y-14702976D01*
X10855905Y-14702976D02*
X10836857Y-14693452D01*
X10827333Y-14674405D01*
X10827333Y-14502976D01*
X11008286Y-14693452D02*
X10989238Y-14702976D01*
X10951143Y-14702976D01*
X10932095Y-14693452D01*
X10922571Y-14674405D01*
X10922571Y-14598214D01*
X10932095Y-14579167D01*
X10951143Y-14569643D01*
X10989238Y-14569643D01*
X11008286Y-14579167D01*
X11017810Y-14598214D01*
X11017810Y-14617262D01*
X10922571Y-14636309D01*
X11094000Y-14693452D02*
X11113048Y-14702976D01*
X11151143Y-14702976D01*
X11170190Y-14693452D01*
X11179714Y-14674405D01*
X11179714Y-14664881D01*
X11170190Y-14645833D01*
X11151143Y-14636309D01*
X11122571Y-14636309D01*
X11103524Y-14626786D01*
X11094000Y-14607738D01*
X11094000Y-14598214D01*
X11103524Y-14579167D01*
X11122571Y-14569643D01*
X11151143Y-14569643D01*
X11170190Y-14579167D01*
X11246381Y-14779167D02*
X11255905Y-14769643D01*
X11274952Y-14741071D01*
X11284476Y-14722024D01*
X11294000Y-14693452D01*
X11303524Y-14645833D01*
X11303524Y-14607738D01*
X11294000Y-14560119D01*
X11284476Y-14531548D01*
X11274952Y-14512500D01*
X11255905Y-14483928D01*
X11246381Y-14474405D01*
D15*
X6269356Y-14911856D02*
X6269356Y-14841144D01*
X6198644Y-14841144D01*
X6198644Y-14911856D01*
X6269356Y-14911856D01*
D11*
X6646381Y-14966976D02*
X6532095Y-14966976D01*
X6589238Y-14966976D02*
X6589238Y-14766976D01*
X6570190Y-14795548D01*
X6551143Y-14814595D01*
X6532095Y-14824119D01*
X6732095Y-14947928D02*
X6741619Y-14957452D01*
X6732095Y-14966976D01*
X6722571Y-14957452D01*
X6732095Y-14947928D01*
X6732095Y-14966976D01*
X6865428Y-14766976D02*
X6884476Y-14766976D01*
X6903524Y-14776500D01*
X6913048Y-14786024D01*
X6922571Y-14805071D01*
X6932095Y-14843167D01*
X6932095Y-14890786D01*
X6922571Y-14928881D01*
X6913048Y-14947928D01*
X6903524Y-14957452D01*
X6884476Y-14966976D01*
X6865428Y-14966976D01*
X6846381Y-14957452D01*
X6836857Y-14947928D01*
X6827333Y-14928881D01*
X6817809Y-14890786D01*
X6817809Y-14843167D01*
X6827333Y-14805071D01*
X6836857Y-14786024D01*
X6846381Y-14776500D01*
X6865428Y-14766976D01*
X7055905Y-14766976D02*
X7074952Y-14766976D01*
X7094000Y-14776500D01*
X7103524Y-14786024D01*
X7113048Y-14805071D01*
X7122571Y-14843167D01*
X7122571Y-14890786D01*
X7113048Y-14928881D01*
X7103524Y-14947928D01*
X7094000Y-14957452D01*
X7074952Y-14966976D01*
X7055905Y-14966976D01*
X7036857Y-14957452D01*
X7027333Y-14947928D01*
X7017809Y-14928881D01*
X7008286Y-14890786D01*
X7008286Y-14843167D01*
X7017809Y-14805071D01*
X7027333Y-14786024D01*
X7036857Y-14776500D01*
X7055905Y-14766976D01*
X7246381Y-14766976D02*
X7265428Y-14766976D01*
X7284476Y-14776500D01*
X7294000Y-14786024D01*
X7303524Y-14805071D01*
X7313048Y-14843167D01*
X7313048Y-14890786D01*
X7303524Y-14928881D01*
X7294000Y-14947928D01*
X7284476Y-14957452D01*
X7265428Y-14966976D01*
X7246381Y-14966976D01*
X7227333Y-14957452D01*
X7217809Y-14947928D01*
X7208286Y-14928881D01*
X7198762Y-14890786D01*
X7198762Y-14843167D01*
X7208286Y-14805071D01*
X7217809Y-14786024D01*
X7227333Y-14776500D01*
X7246381Y-14766976D01*
X7398762Y-14966976D02*
X7398762Y-14833643D01*
X7398762Y-14852690D02*
X7408286Y-14843167D01*
X7427333Y-14833643D01*
X7455905Y-14833643D01*
X7474952Y-14843167D01*
X7484476Y-14862214D01*
X7484476Y-14966976D01*
X7484476Y-14862214D02*
X7494000Y-14843167D01*
X7513048Y-14833643D01*
X7541619Y-14833643D01*
X7560667Y-14843167D01*
X7570190Y-14862214D01*
X7570190Y-14966976D01*
X7665428Y-14966976D02*
X7665428Y-14833643D01*
X7665428Y-14852690D02*
X7674952Y-14843167D01*
X7694000Y-14833643D01*
X7722571Y-14833643D01*
X7741619Y-14843167D01*
X7751143Y-14862214D01*
X7751143Y-14966976D01*
X7751143Y-14862214D02*
X7760667Y-14843167D01*
X7779714Y-14833643D01*
X7808286Y-14833643D01*
X7827333Y-14843167D01*
X7836857Y-14862214D01*
X7836857Y-14966976D01*
X8227333Y-14757452D02*
X8055905Y-15014595D01*
X8484476Y-14766976D02*
X8503524Y-14766976D01*
X8522571Y-14776500D01*
X8532095Y-14786024D01*
X8541619Y-14805071D01*
X8551143Y-14843167D01*
X8551143Y-14890786D01*
X8541619Y-14928881D01*
X8532095Y-14947928D01*
X8522571Y-14957452D01*
X8503524Y-14966976D01*
X8484476Y-14966976D01*
X8465429Y-14957452D01*
X8455905Y-14947928D01*
X8446381Y-14928881D01*
X8436857Y-14890786D01*
X8436857Y-14843167D01*
X8446381Y-14805071D01*
X8455905Y-14786024D01*
X8465429Y-14776500D01*
X8484476Y-14766976D01*
X8636857Y-14947928D02*
X8646381Y-14957452D01*
X8636857Y-14966976D01*
X8627333Y-14957452D01*
X8636857Y-14947928D01*
X8636857Y-14966976D01*
X8770190Y-14766976D02*
X8789238Y-14766976D01*
X8808286Y-14776500D01*
X8817810Y-14786024D01*
X8827333Y-14805071D01*
X8836857Y-14843167D01*
X8836857Y-14890786D01*
X8827333Y-14928881D01*
X8817810Y-14947928D01*
X8808286Y-14957452D01*
X8789238Y-14966976D01*
X8770190Y-14966976D01*
X8751143Y-14957452D01*
X8741619Y-14947928D01*
X8732095Y-14928881D01*
X8722571Y-14890786D01*
X8722571Y-14843167D01*
X8732095Y-14805071D01*
X8741619Y-14786024D01*
X8751143Y-14776500D01*
X8770190Y-14766976D01*
X8903524Y-14766976D02*
X9027333Y-14766976D01*
X8960667Y-14843167D01*
X8989238Y-14843167D01*
X9008286Y-14852690D01*
X9017810Y-14862214D01*
X9027333Y-14881262D01*
X9027333Y-14928881D01*
X9017810Y-14947928D01*
X9008286Y-14957452D01*
X8989238Y-14966976D01*
X8932095Y-14966976D01*
X8913048Y-14957452D01*
X8903524Y-14947928D01*
X9122571Y-14966976D02*
X9160667Y-14966976D01*
X9179714Y-14957452D01*
X9189238Y-14947928D01*
X9208286Y-14919357D01*
X9217810Y-14881262D01*
X9217810Y-14805071D01*
X9208286Y-14786024D01*
X9198762Y-14776500D01*
X9179714Y-14766976D01*
X9141619Y-14766976D01*
X9122571Y-14776500D01*
X9113048Y-14786024D01*
X9103524Y-14805071D01*
X9103524Y-14852690D01*
X9113048Y-14871738D01*
X9122571Y-14881262D01*
X9141619Y-14890786D01*
X9179714Y-14890786D01*
X9198762Y-14881262D01*
X9208286Y-14871738D01*
X9217810Y-14852690D01*
X9389238Y-14833643D02*
X9389238Y-14966976D01*
X9341619Y-14757452D02*
X9294000Y-14900309D01*
X9417810Y-14900309D01*
X9484476Y-14766976D02*
X9484476Y-14805071D01*
X9560667Y-14766976D02*
X9560667Y-14805071D01*
X9855905Y-15043167D02*
X9846381Y-15033643D01*
X9827333Y-15005071D01*
X9817810Y-14986024D01*
X9808286Y-14957452D01*
X9798762Y-14909833D01*
X9798762Y-14871738D01*
X9808286Y-14824119D01*
X9817810Y-14795548D01*
X9827333Y-14776500D01*
X9846381Y-14747928D01*
X9855905Y-14738405D01*
X9913048Y-14766976D02*
X10046381Y-14766976D01*
X9960667Y-14966976D01*
X10274952Y-14966976D02*
X10274952Y-14766976D01*
X10360667Y-14966976D02*
X10360667Y-14862214D01*
X10351143Y-14843167D01*
X10332095Y-14833643D01*
X10303524Y-14833643D01*
X10284476Y-14843167D01*
X10274952Y-14852690D01*
X10484476Y-14966976D02*
X10465429Y-14957452D01*
X10455905Y-14947928D01*
X10446381Y-14928881D01*
X10446381Y-14871738D01*
X10455905Y-14852690D01*
X10465429Y-14843167D01*
X10484476Y-14833643D01*
X10513048Y-14833643D01*
X10532095Y-14843167D01*
X10541619Y-14852690D01*
X10551143Y-14871738D01*
X10551143Y-14928881D01*
X10541619Y-14947928D01*
X10532095Y-14957452D01*
X10513048Y-14966976D01*
X10484476Y-14966976D01*
X10665429Y-14966976D02*
X10646381Y-14957452D01*
X10636857Y-14938405D01*
X10636857Y-14766976D01*
X10817810Y-14957452D02*
X10798762Y-14966976D01*
X10760667Y-14966976D01*
X10741619Y-14957452D01*
X10732095Y-14938405D01*
X10732095Y-14862214D01*
X10741619Y-14843167D01*
X10760667Y-14833643D01*
X10798762Y-14833643D01*
X10817810Y-14843167D01*
X10827333Y-14862214D01*
X10827333Y-14881262D01*
X10732095Y-14900309D01*
X10903524Y-14957452D02*
X10922571Y-14966976D01*
X10960667Y-14966976D01*
X10979714Y-14957452D01*
X10989238Y-14938405D01*
X10989238Y-14928881D01*
X10979714Y-14909833D01*
X10960667Y-14900309D01*
X10932095Y-14900309D01*
X10913048Y-14890786D01*
X10903524Y-14871738D01*
X10903524Y-14862214D01*
X10913048Y-14843167D01*
X10932095Y-14833643D01*
X10960667Y-14833643D01*
X10979714Y-14843167D01*
X11055905Y-15043167D02*
X11065429Y-15033643D01*
X11084476Y-15005071D01*
X11094000Y-14986024D01*
X11103524Y-14957452D01*
X11113048Y-14909833D01*
X11113048Y-14871738D01*
X11103524Y-14824119D01*
X11094000Y-14795548D01*
X11084476Y-14776500D01*
X11065429Y-14747928D01*
X11055905Y-14738405D01*
X6184000Y-15240500D02*
X6284000Y-15140500D01*
X6184000Y-15040500D01*
X6084000Y-15140500D01*
X6184000Y-15240500D01*
X6532095Y-15050024D02*
X6541619Y-15040500D01*
X6560667Y-15030976D01*
X6608286Y-15030976D01*
X6627333Y-15040500D01*
X6636857Y-15050024D01*
X6646381Y-15069071D01*
X6646381Y-15088119D01*
X6636857Y-15116690D01*
X6522571Y-15230976D01*
X6646381Y-15230976D01*
X6732095Y-15211928D02*
X6741619Y-15221452D01*
X6732095Y-15230976D01*
X6722571Y-15221452D01*
X6732095Y-15211928D01*
X6732095Y-15230976D01*
X6922571Y-15030976D02*
X6827333Y-15030976D01*
X6817809Y-15126214D01*
X6827333Y-15116690D01*
X6846381Y-15107167D01*
X6894000Y-15107167D01*
X6913048Y-15116690D01*
X6922571Y-15126214D01*
X6932095Y-15145262D01*
X6932095Y-15192881D01*
X6922571Y-15211928D01*
X6913048Y-15221452D01*
X6894000Y-15230976D01*
X6846381Y-15230976D01*
X6827333Y-15221452D01*
X6817809Y-15211928D01*
X7055905Y-15030976D02*
X7074952Y-15030976D01*
X7094000Y-15040500D01*
X7103524Y-15050024D01*
X7113048Y-15069071D01*
X7122571Y-15107167D01*
X7122571Y-15154786D01*
X7113048Y-15192881D01*
X7103524Y-15211928D01*
X7094000Y-15221452D01*
X7074952Y-15230976D01*
X7055905Y-15230976D01*
X7036857Y-15221452D01*
X7027333Y-15211928D01*
X7017809Y-15192881D01*
X7008286Y-15154786D01*
X7008286Y-15107167D01*
X7017809Y-15069071D01*
X7027333Y-15050024D01*
X7036857Y-15040500D01*
X7055905Y-15030976D01*
X7246381Y-15030976D02*
X7265428Y-15030976D01*
X7284476Y-15040500D01*
X7294000Y-15050024D01*
X7303524Y-15069071D01*
X7313048Y-15107167D01*
X7313048Y-15154786D01*
X7303524Y-15192881D01*
X7294000Y-15211928D01*
X7284476Y-15221452D01*
X7265428Y-15230976D01*
X7246381Y-15230976D01*
X7227333Y-15221452D01*
X7217809Y-15211928D01*
X7208286Y-15192881D01*
X7198762Y-15154786D01*
X7198762Y-15107167D01*
X7208286Y-15069071D01*
X7217809Y-15050024D01*
X7227333Y-15040500D01*
X7246381Y-15030976D01*
X7398762Y-15230976D02*
X7398762Y-15097643D01*
X7398762Y-15116690D02*
X7408286Y-15107167D01*
X7427333Y-15097643D01*
X7455905Y-15097643D01*
X7474952Y-15107167D01*
X7484476Y-15126214D01*
X7484476Y-15230976D01*
X7484476Y-15126214D02*
X7494000Y-15107167D01*
X7513048Y-15097643D01*
X7541619Y-15097643D01*
X7560667Y-15107167D01*
X7570190Y-15126214D01*
X7570190Y-15230976D01*
X7665428Y-15230976D02*
X7665428Y-15097643D01*
X7665428Y-15116690D02*
X7674952Y-15107167D01*
X7694000Y-15097643D01*
X7722571Y-15097643D01*
X7741619Y-15107167D01*
X7751143Y-15126214D01*
X7751143Y-15230976D01*
X7751143Y-15126214D02*
X7760667Y-15107167D01*
X7779714Y-15097643D01*
X7808286Y-15097643D01*
X7827333Y-15107167D01*
X7836857Y-15126214D01*
X7836857Y-15230976D01*
X8227333Y-15021452D02*
X8055905Y-15278595D01*
X8484476Y-15030976D02*
X8503524Y-15030976D01*
X8522571Y-15040500D01*
X8532095Y-15050024D01*
X8541619Y-15069071D01*
X8551143Y-15107167D01*
X8551143Y-15154786D01*
X8541619Y-15192881D01*
X8532095Y-15211928D01*
X8522571Y-15221452D01*
X8503524Y-15230976D01*
X8484476Y-15230976D01*
X8465429Y-15221452D01*
X8455905Y-15211928D01*
X8446381Y-15192881D01*
X8436857Y-15154786D01*
X8436857Y-15107167D01*
X8446381Y-15069071D01*
X8455905Y-15050024D01*
X8465429Y-15040500D01*
X8484476Y-15030976D01*
X8636857Y-15211928D02*
X8646381Y-15221452D01*
X8636857Y-15230976D01*
X8627333Y-15221452D01*
X8636857Y-15211928D01*
X8636857Y-15230976D01*
X8770190Y-15030976D02*
X8789238Y-15030976D01*
X8808286Y-15040500D01*
X8817810Y-15050024D01*
X8827333Y-15069071D01*
X8836857Y-15107167D01*
X8836857Y-15154786D01*
X8827333Y-15192881D01*
X8817810Y-15211928D01*
X8808286Y-15221452D01*
X8789238Y-15230976D01*
X8770190Y-15230976D01*
X8751143Y-15221452D01*
X8741619Y-15211928D01*
X8732095Y-15192881D01*
X8722571Y-15154786D01*
X8722571Y-15107167D01*
X8732095Y-15069071D01*
X8741619Y-15050024D01*
X8751143Y-15040500D01*
X8770190Y-15030976D01*
X8932095Y-15230976D02*
X8970190Y-15230976D01*
X8989238Y-15221452D01*
X8998762Y-15211928D01*
X9017810Y-15183357D01*
X9027333Y-15145262D01*
X9027333Y-15069071D01*
X9017810Y-15050024D01*
X9008286Y-15040500D01*
X8989238Y-15030976D01*
X8951143Y-15030976D01*
X8932095Y-15040500D01*
X8922571Y-15050024D01*
X8913048Y-15069071D01*
X8913048Y-15116690D01*
X8922571Y-15135738D01*
X8932095Y-15145262D01*
X8951143Y-15154786D01*
X8989238Y-15154786D01*
X9008286Y-15145262D01*
X9017810Y-15135738D01*
X9027333Y-15116690D01*
X9141619Y-15116690D02*
X9122571Y-15107167D01*
X9113048Y-15097643D01*
X9103524Y-15078595D01*
X9103524Y-15069071D01*
X9113048Y-15050024D01*
X9122571Y-15040500D01*
X9141619Y-15030976D01*
X9179714Y-15030976D01*
X9198762Y-15040500D01*
X9208286Y-15050024D01*
X9217810Y-15069071D01*
X9217810Y-15078595D01*
X9208286Y-15097643D01*
X9198762Y-15107167D01*
X9179714Y-15116690D01*
X9141619Y-15116690D01*
X9122571Y-15126214D01*
X9113048Y-15135738D01*
X9103524Y-15154786D01*
X9103524Y-15192881D01*
X9113048Y-15211928D01*
X9122571Y-15221452D01*
X9141619Y-15230976D01*
X9179714Y-15230976D01*
X9198762Y-15221452D01*
X9208286Y-15211928D01*
X9217810Y-15192881D01*
X9217810Y-15154786D01*
X9208286Y-15135738D01*
X9198762Y-15126214D01*
X9179714Y-15116690D01*
X9389238Y-15097643D02*
X9389238Y-15230976D01*
X9341619Y-15021452D02*
X9294000Y-15164309D01*
X9417810Y-15164309D01*
X9484476Y-15030976D02*
X9484476Y-15069071D01*
X9560667Y-15030976D02*
X9560667Y-15069071D01*
X9855905Y-15307167D02*
X9846381Y-15297643D01*
X9827333Y-15269071D01*
X9817810Y-15250024D01*
X9808286Y-15221452D01*
X9798762Y-15173833D01*
X9798762Y-15135738D01*
X9808286Y-15088119D01*
X9817810Y-15059548D01*
X9827333Y-15040500D01*
X9846381Y-15011928D01*
X9855905Y-15002405D01*
X10027333Y-15030976D02*
X9932095Y-15030976D01*
X9922571Y-15126214D01*
X9932095Y-15116690D01*
X9951143Y-15107167D01*
X9998762Y-15107167D01*
X10017810Y-15116690D01*
X10027333Y-15126214D01*
X10036857Y-15145262D01*
X10036857Y-15192881D01*
X10027333Y-15211928D01*
X10017810Y-15221452D01*
X9998762Y-15230976D01*
X9951143Y-15230976D01*
X9932095Y-15221452D01*
X9922571Y-15211928D01*
X10274952Y-15230976D02*
X10274952Y-15030976D01*
X10360667Y-15230976D02*
X10360667Y-15126214D01*
X10351143Y-15107167D01*
X10332095Y-15097643D01*
X10303524Y-15097643D01*
X10284476Y-15107167D01*
X10274952Y-15116690D01*
X10484476Y-15230976D02*
X10465429Y-15221452D01*
X10455905Y-15211928D01*
X10446381Y-15192881D01*
X10446381Y-15135738D01*
X10455905Y-15116690D01*
X10465429Y-15107167D01*
X10484476Y-15097643D01*
X10513048Y-15097643D01*
X10532095Y-15107167D01*
X10541619Y-15116690D01*
X10551143Y-15135738D01*
X10551143Y-15192881D01*
X10541619Y-15211928D01*
X10532095Y-15221452D01*
X10513048Y-15230976D01*
X10484476Y-15230976D01*
X10665429Y-15230976D02*
X10646381Y-15221452D01*
X10636857Y-15202405D01*
X10636857Y-15030976D01*
X10817810Y-15221452D02*
X10798762Y-15230976D01*
X10760667Y-15230976D01*
X10741619Y-15221452D01*
X10732095Y-15202405D01*
X10732095Y-15126214D01*
X10741619Y-15107167D01*
X10760667Y-15097643D01*
X10798762Y-15097643D01*
X10817810Y-15107167D01*
X10827333Y-15126214D01*
X10827333Y-15145262D01*
X10732095Y-15164309D01*
X10903524Y-15221452D02*
X10922571Y-15230976D01*
X10960667Y-15230976D01*
X10979714Y-15221452D01*
X10989238Y-15202405D01*
X10989238Y-15192881D01*
X10979714Y-15173833D01*
X10960667Y-15164309D01*
X10932095Y-15164309D01*
X10913048Y-15154786D01*
X10903524Y-15135738D01*
X10903524Y-15126214D01*
X10913048Y-15107167D01*
X10932095Y-15097643D01*
X10960667Y-15097643D01*
X10979714Y-15107167D01*
X11055905Y-15307167D02*
X11065429Y-15297643D01*
X11084476Y-15269071D01*
X11094000Y-15250024D01*
X11103524Y-15221452D01*
X11113048Y-15173833D01*
X11113048Y-15135738D01*
X11103524Y-15088119D01*
X11094000Y-15059548D01*
X11084476Y-15040500D01*
X11065429Y-15011928D01*
X11055905Y-15002405D01*
M02*
