G04 #@! TF.GenerationSoftware,KiCad,Pcbnew,6.0.11-2627ca5db0~126~ubuntu22.04.1*
G04 #@! TF.CreationDate,2023-12-06T10:27:33+01:00*
G04 #@! TF.ProjectId,roomthermostat,726f6f6d-7468-4657-926d-6f737461742e,C*
G04 #@! TF.SameCoordinates,Original*
G04 #@! TF.FileFunction,Soldermask,Bot*
G04 #@! TF.FilePolarity,Negative*
%FSLAX46Y46*%
G04 Gerber Fmt 4.6, Leading zero omitted, Abs format (unit mm)*
G04 Created by KiCad (PCBNEW 6.0.11-2627ca5db0~126~ubuntu22.04.1) date 2023-12-06 10:27:33*
%MOMM*%
%LPD*%
G01*
G04 APERTURE LIST*
G04 Aperture macros list*
%AMRoundRect*
0 Rectangle with rounded corners*
0 $1 Rounding radius*
0 $2 $3 $4 $5 $6 $7 $8 $9 X,Y pos of 4 corners*
0 Add a 4 corners polygon primitive as box body*
4,1,4,$2,$3,$4,$5,$6,$7,$8,$9,$2,$3,0*
0 Add four circle primitives for the rounded corners*
1,1,$1+$1,$2,$3*
1,1,$1+$1,$4,$5*
1,1,$1+$1,$6,$7*
1,1,$1+$1,$8,$9*
0 Add four rect primitives between the rounded corners*
20,1,$1+$1,$2,$3,$4,$5,0*
20,1,$1+$1,$4,$5,$6,$7,0*
20,1,$1+$1,$6,$7,$8,$9,0*
20,1,$1+$1,$8,$9,$2,$3,0*%
G04 Aperture macros list end*
%ADD10C,2.000000*%
%ADD11C,3.100000*%
%ADD12RoundRect,0.200000X0.900000X-0.900000X0.900000X0.900000X-0.900000X0.900000X-0.900000X-0.900000X0*%
%ADD13C,2.200000*%
%ADD14RoundRect,0.200000X0.444500X0.698500X-0.444500X0.698500X-0.444500X-0.698500X0.444500X-0.698500X0*%
%ADD15RoundRect,0.200000X-0.444500X-0.698500X0.444500X-0.698500X0.444500X0.698500X-0.444500X0.698500X0*%
%ADD16C,3.900000*%
G04 APERTURE END LIST*
D10*
X89295000Y-86120000D03*
X91835000Y-86120000D03*
X94375000Y-86120000D03*
X96915000Y-86120000D03*
X99455000Y-86120000D03*
X101995000Y-86120000D03*
X104535000Y-86120000D03*
D11*
X85415000Y-86620000D03*
X85415000Y-110120000D03*
X108415000Y-110120000D03*
X108415000Y-86620000D03*
D12*
X103415000Y-83160000D03*
D13*
X103415000Y-80620000D03*
X103415000Y-78080000D03*
D14*
X91517500Y-81955000D03*
X89612500Y-81955000D03*
D15*
X98502500Y-81955000D03*
X100407500Y-81955000D03*
D14*
X95962500Y-81955000D03*
X94057500Y-81955000D03*
D12*
X113665000Y-88900000D03*
D13*
X116205000Y-88930000D03*
X113665000Y-91440000D03*
X116205000Y-91470000D03*
X113665000Y-93980000D03*
X116205000Y-93980000D03*
X113665000Y-96520000D03*
X116205000Y-96550000D03*
X113665000Y-99060000D03*
X116205000Y-99090000D03*
X113665000Y-101600000D03*
X116205000Y-101630000D03*
X113665000Y-104140000D03*
X116205000Y-104170000D03*
X113665000Y-106680000D03*
X116205000Y-106710000D03*
X113665000Y-109220000D03*
X116205000Y-109250000D03*
X113665000Y-111760000D03*
X116205000Y-111790000D03*
D12*
X78105000Y-88900000D03*
D13*
X80645000Y-88900000D03*
X78105000Y-91440000D03*
X80645000Y-91440000D03*
X78105000Y-93980000D03*
X80645000Y-93980000D03*
X78105000Y-96520000D03*
X80645000Y-96520000D03*
X78105000Y-99060000D03*
X80645000Y-99060000D03*
X78105000Y-101600000D03*
X80645000Y-101600000D03*
X78105000Y-104140000D03*
X80645000Y-104140000D03*
D16*
X92075000Y-110840000D03*
M02*
