G04 #@! TF.GenerationSoftware,KiCad,Pcbnew,5.0.0-fee4fd1~66~ubuntu16.04.1*
G04 #@! TF.CreationDate,2018-10-04T19:15:53+02:00*
G04 #@! TF.ProjectId,roomthermostat,726F6F6D746865726D6F737461742E6B,A*
G04 #@! TF.SameCoordinates,Original*
G04 #@! TF.FileFunction,Copper,L1,Top,Signal*
G04 #@! TF.FilePolarity,Positive*
%FSLAX46Y46*%
G04 Gerber Fmt 4.6, Leading zero omitted, Abs format (unit mm)*
G04 Created by KiCad (PCBNEW 5.0.0-fee4fd1~66~ubuntu16.04.1) date Thu Oct  4 19:15:53 2018*
%MOMM*%
%LPD*%
G01*
G04 APERTURE LIST*
G04 #@! TA.AperFunction,NonConductor*
%ADD10C,0.200000*%
G04 #@! TD*
G04 #@! TA.AperFunction,EtchedComponent*
%ADD11C,0.381000*%
G04 #@! TD*
G04 #@! TA.AperFunction,ComponentPad*
%ADD12C,1.800000*%
G04 #@! TD*
G04 #@! TA.AperFunction,ComponentPad*
%ADD13R,1.800000X1.800000*%
G04 #@! TD*
G04 #@! TA.AperFunction,ComponentPad*
%ADD14C,3.500000*%
G04 #@! TD*
G04 #@! TA.AperFunction,ComponentPad*
%ADD15O,10.000000X5.001260*%
G04 #@! TD*
G04 #@! TA.AperFunction,ComponentPad*
%ADD16O,5.001260X10.000000*%
G04 #@! TD*
G04 #@! TA.AperFunction,ComponentPad*
%ADD17C,2.700000*%
G04 #@! TD*
G04 #@! TA.AperFunction,ComponentPad*
%ADD18C,1.600000*%
G04 #@! TD*
G04 #@! TA.AperFunction,ViaPad*
%ADD19C,1.000000*%
G04 #@! TD*
G04 #@! TA.AperFunction,ViaPad*
%ADD20C,0.700000*%
G04 #@! TD*
G04 #@! TA.AperFunction,Conductor*
%ADD21C,0.300000*%
G04 #@! TD*
G04 APERTURE END LIST*
D10*
X126299761Y-67770714D02*
X126680714Y-67770714D01*
X126442619Y-67437380D02*
X126442619Y-68294523D01*
X126490238Y-68389761D01*
X126585476Y-68437380D01*
X126680714Y-68437380D01*
X127156904Y-68437380D02*
X127061666Y-68389761D01*
X127014047Y-68342142D01*
X126966428Y-68246904D01*
X126966428Y-67961190D01*
X127014047Y-67865952D01*
X127061666Y-67818333D01*
X127156904Y-67770714D01*
X127299761Y-67770714D01*
X127395000Y-67818333D01*
X127442619Y-67865952D01*
X127490238Y-67961190D01*
X127490238Y-68246904D01*
X127442619Y-68342142D01*
X127395000Y-68389761D01*
X127299761Y-68437380D01*
X127156904Y-68437380D01*
X127918809Y-67770714D02*
X127918809Y-68770714D01*
X127918809Y-67818333D02*
X128014047Y-67770714D01*
X128204523Y-67770714D01*
X128299761Y-67818333D01*
X128347380Y-67865952D01*
X128395000Y-67961190D01*
X128395000Y-68246904D01*
X128347380Y-68342142D01*
X128299761Y-68389761D01*
X128204523Y-68437380D01*
X128014047Y-68437380D01*
X127918809Y-68389761D01*
X63986428Y-133322380D02*
X63986428Y-132322380D01*
X64081666Y-132941428D02*
X64367380Y-133322380D01*
X64367380Y-132655714D02*
X63986428Y-133036666D01*
X64938809Y-133322380D02*
X64843571Y-133274761D01*
X64795952Y-133227142D01*
X64748333Y-133131904D01*
X64748333Y-132846190D01*
X64795952Y-132750952D01*
X64843571Y-132703333D01*
X64938809Y-132655714D01*
X65081666Y-132655714D01*
X65176904Y-132703333D01*
X65224523Y-132750952D01*
X65272142Y-132846190D01*
X65272142Y-133131904D01*
X65224523Y-133227142D01*
X65176904Y-133274761D01*
X65081666Y-133322380D01*
X64938809Y-133322380D01*
X66081666Y-133274761D02*
X65986428Y-133322380D01*
X65795952Y-133322380D01*
X65700714Y-133274761D01*
X65653095Y-133179523D01*
X65653095Y-132798571D01*
X65700714Y-132703333D01*
X65795952Y-132655714D01*
X65986428Y-132655714D01*
X66081666Y-132703333D01*
X66129285Y-132798571D01*
X66129285Y-132893809D01*
X65653095Y-132989047D01*
X66462619Y-132655714D02*
X66653095Y-133322380D01*
X66843571Y-132846190D01*
X67034047Y-133322380D01*
X67224523Y-132655714D01*
X67605476Y-133322380D02*
X67605476Y-132655714D01*
X67605476Y-132322380D02*
X67557857Y-132370000D01*
X67605476Y-132417619D01*
X67653095Y-132370000D01*
X67605476Y-132322380D01*
X67605476Y-132417619D01*
X68081666Y-133322380D02*
X68081666Y-132322380D01*
X68081666Y-132703333D02*
X68176904Y-132655714D01*
X68367380Y-132655714D01*
X68462619Y-132703333D01*
X68510238Y-132750952D01*
X68557857Y-132846190D01*
X68557857Y-133131904D01*
X68510238Y-133227142D01*
X68462619Y-133274761D01*
X68367380Y-133322380D01*
X68176904Y-133322380D01*
X68081666Y-133274761D01*
X69415000Y-133322380D02*
X69415000Y-132798571D01*
X69367380Y-132703333D01*
X69272142Y-132655714D01*
X69081666Y-132655714D01*
X68986428Y-132703333D01*
X69415000Y-133274761D02*
X69319761Y-133322380D01*
X69081666Y-133322380D01*
X68986428Y-133274761D01*
X68938809Y-133179523D01*
X68938809Y-133084285D01*
X68986428Y-132989047D01*
X69081666Y-132941428D01*
X69319761Y-132941428D01*
X69415000Y-132893809D01*
X70653095Y-133322380D02*
X70653095Y-132655714D01*
X70653095Y-132846190D02*
X70700714Y-132750952D01*
X70748333Y-132703333D01*
X70843571Y-132655714D01*
X70938809Y-132655714D01*
X71415000Y-133322380D02*
X71319761Y-133274761D01*
X71272142Y-133227142D01*
X71224523Y-133131904D01*
X71224523Y-132846190D01*
X71272142Y-132750952D01*
X71319761Y-132703333D01*
X71415000Y-132655714D01*
X71557857Y-132655714D01*
X71653095Y-132703333D01*
X71700714Y-132750952D01*
X71748333Y-132846190D01*
X71748333Y-133131904D01*
X71700714Y-133227142D01*
X71653095Y-133274761D01*
X71557857Y-133322380D01*
X71415000Y-133322380D01*
X72319761Y-133322380D02*
X72224523Y-133274761D01*
X72176904Y-133227142D01*
X72129285Y-133131904D01*
X72129285Y-132846190D01*
X72176904Y-132750952D01*
X72224523Y-132703333D01*
X72319761Y-132655714D01*
X72462619Y-132655714D01*
X72557857Y-132703333D01*
X72605476Y-132750952D01*
X72653095Y-132846190D01*
X72653095Y-133131904D01*
X72605476Y-133227142D01*
X72557857Y-133274761D01*
X72462619Y-133322380D01*
X72319761Y-133322380D01*
X73081666Y-133322380D02*
X73081666Y-132655714D01*
X73081666Y-132750952D02*
X73129285Y-132703333D01*
X73224523Y-132655714D01*
X73367380Y-132655714D01*
X73462619Y-132703333D01*
X73510238Y-132798571D01*
X73510238Y-133322380D01*
X73510238Y-132798571D02*
X73557857Y-132703333D01*
X73653095Y-132655714D01*
X73795952Y-132655714D01*
X73891190Y-132703333D01*
X73938809Y-132798571D01*
X73938809Y-133322380D01*
X74272142Y-132655714D02*
X74653095Y-132655714D01*
X74415000Y-132322380D02*
X74415000Y-133179523D01*
X74462619Y-133274761D01*
X74557857Y-133322380D01*
X74653095Y-133322380D01*
X74986428Y-133322380D02*
X74986428Y-132322380D01*
X75415000Y-133322380D02*
X75415000Y-132798571D01*
X75367380Y-132703333D01*
X75272142Y-132655714D01*
X75129285Y-132655714D01*
X75034047Y-132703333D01*
X74986428Y-132750952D01*
X76272142Y-133274761D02*
X76176904Y-133322380D01*
X75986428Y-133322380D01*
X75891190Y-133274761D01*
X75843571Y-133179523D01*
X75843571Y-132798571D01*
X75891190Y-132703333D01*
X75986428Y-132655714D01*
X76176904Y-132655714D01*
X76272142Y-132703333D01*
X76319761Y-132798571D01*
X76319761Y-132893809D01*
X75843571Y-132989047D01*
X76748333Y-133322380D02*
X76748333Y-132655714D01*
X76748333Y-132846190D02*
X76795952Y-132750952D01*
X76843571Y-132703333D01*
X76938809Y-132655714D01*
X77034047Y-132655714D01*
X77367380Y-133322380D02*
X77367380Y-132655714D01*
X77367380Y-132750952D02*
X77415000Y-132703333D01*
X77510238Y-132655714D01*
X77653095Y-132655714D01*
X77748333Y-132703333D01*
X77795952Y-132798571D01*
X77795952Y-133322380D01*
X77795952Y-132798571D02*
X77843571Y-132703333D01*
X77938809Y-132655714D01*
X78081666Y-132655714D01*
X78176904Y-132703333D01*
X78224523Y-132798571D01*
X78224523Y-133322380D01*
X78843571Y-133322380D02*
X78748333Y-133274761D01*
X78700714Y-133227142D01*
X78653095Y-133131904D01*
X78653095Y-132846190D01*
X78700714Y-132750952D01*
X78748333Y-132703333D01*
X78843571Y-132655714D01*
X78986428Y-132655714D01*
X79081666Y-132703333D01*
X79129285Y-132750952D01*
X79176904Y-132846190D01*
X79176904Y-133131904D01*
X79129285Y-133227142D01*
X79081666Y-133274761D01*
X78986428Y-133322380D01*
X78843571Y-133322380D01*
X79557857Y-133274761D02*
X79653095Y-133322380D01*
X79843571Y-133322380D01*
X79938809Y-133274761D01*
X79986428Y-133179523D01*
X79986428Y-133131904D01*
X79938809Y-133036666D01*
X79843571Y-132989047D01*
X79700714Y-132989047D01*
X79605476Y-132941428D01*
X79557857Y-132846190D01*
X79557857Y-132798571D01*
X79605476Y-132703333D01*
X79700714Y-132655714D01*
X79843571Y-132655714D01*
X79938809Y-132703333D01*
X80272142Y-132655714D02*
X80653095Y-132655714D01*
X80415000Y-132322380D02*
X80415000Y-133179523D01*
X80462619Y-133274761D01*
X80557857Y-133322380D01*
X80653095Y-133322380D01*
X81415000Y-133322380D02*
X81415000Y-132798571D01*
X81367380Y-132703333D01*
X81272142Y-132655714D01*
X81081666Y-132655714D01*
X80986428Y-132703333D01*
X81415000Y-133274761D02*
X81319761Y-133322380D01*
X81081666Y-133322380D01*
X80986428Y-133274761D01*
X80938809Y-133179523D01*
X80938809Y-133084285D01*
X80986428Y-132989047D01*
X81081666Y-132941428D01*
X81319761Y-132941428D01*
X81415000Y-132893809D01*
X81748333Y-132655714D02*
X82129285Y-132655714D01*
X81891190Y-132322380D02*
X81891190Y-133179523D01*
X81938809Y-133274761D01*
X82034047Y-133322380D01*
X82129285Y-133322380D01*
X82843571Y-133274761D02*
X82748333Y-133322380D01*
X82557857Y-133322380D01*
X82462619Y-133274761D01*
X82415000Y-133179523D01*
X82415000Y-132798571D01*
X82462619Y-132703333D01*
X82557857Y-132655714D01*
X82748333Y-132655714D01*
X82843571Y-132703333D01*
X82891190Y-132798571D01*
X82891190Y-132893809D01*
X82415000Y-132989047D01*
X84653095Y-133322380D02*
X84319761Y-132846190D01*
X84081666Y-133322380D02*
X84081666Y-132322380D01*
X84462619Y-132322380D01*
X84557857Y-132370000D01*
X84605476Y-132417619D01*
X84653095Y-132512857D01*
X84653095Y-132655714D01*
X84605476Y-132750952D01*
X84557857Y-132798571D01*
X84462619Y-132846190D01*
X84081666Y-132846190D01*
X85462619Y-133274761D02*
X85367380Y-133322380D01*
X85176904Y-133322380D01*
X85081666Y-133274761D01*
X85034047Y-133179523D01*
X85034047Y-132798571D01*
X85081666Y-132703333D01*
X85176904Y-132655714D01*
X85367380Y-132655714D01*
X85462619Y-132703333D01*
X85510238Y-132798571D01*
X85510238Y-132893809D01*
X85034047Y-132989047D01*
X85843571Y-132655714D02*
X86081666Y-133322380D01*
X86319761Y-132655714D01*
X87415000Y-133036666D02*
X87891190Y-133036666D01*
X87319761Y-133322380D02*
X87653095Y-132322380D01*
X87986428Y-133322380D01*
D11*
G04 #@! TO.C,LOGO1*
X128583780Y-131559860D02*
X128944460Y-133030520D01*
X128944460Y-133030520D02*
X129223860Y-131968800D01*
X129223860Y-131968800D02*
X129533740Y-133040680D01*
X129533740Y-133040680D02*
X129874100Y-131590340D01*
X127163920Y-132250740D02*
X127953860Y-132240580D01*
X127953860Y-132240580D02*
X127964020Y-132250740D01*
X127964020Y-132250740D02*
X127964020Y-132240580D01*
X128004660Y-131529380D02*
X128004660Y-133071160D01*
X127115660Y-131519220D02*
X127115660Y-133088940D01*
X127115660Y-133088940D02*
X127125820Y-133078780D01*
X126564480Y-131620820D02*
X126213960Y-131539540D01*
X126213960Y-131539540D02*
X125893920Y-131529380D01*
X125893920Y-131529380D02*
X125655160Y-131730040D01*
X125655160Y-131730040D02*
X125624680Y-131999280D01*
X125624680Y-131999280D02*
X125865980Y-132240580D01*
X125865980Y-132240580D02*
X126254600Y-132370120D01*
X126254600Y-132370120D02*
X126434940Y-132530140D01*
X126434940Y-132530140D02*
X126475580Y-132829860D01*
X126475580Y-132829860D02*
X126244440Y-133050840D01*
X126244440Y-133050840D02*
X125924400Y-133078780D01*
X125924400Y-133078780D02*
X125573880Y-132969560D01*
X124535020Y-131519220D02*
X124286100Y-131539540D01*
X124286100Y-131539540D02*
X124044800Y-131780840D01*
X124044800Y-131780840D02*
X123955900Y-132271060D01*
X123955900Y-132271060D02*
X123983840Y-132619040D01*
X123983840Y-132619040D02*
X124184500Y-132939080D01*
X124184500Y-132939080D02*
X124435960Y-133061000D01*
X124435960Y-133061000D02*
X124745840Y-132989880D01*
X124745840Y-132989880D02*
X124964280Y-132809540D01*
X124964280Y-132809540D02*
X125035400Y-132349800D01*
X125035400Y-132349800D02*
X124984600Y-131940860D01*
X124984600Y-131940860D02*
X124875380Y-131658920D01*
X124875380Y-131658920D02*
X124514700Y-131529380D01*
X125134460Y-129799640D02*
X124875380Y-130360980D01*
X124875380Y-130360980D02*
X125413860Y-130879140D01*
X125413860Y-130879140D02*
X125934560Y-130609900D01*
X125934560Y-130609900D02*
X126213960Y-130769920D01*
X127654140Y-130749600D02*
X127984340Y-130559100D01*
X127984340Y-130559100D02*
X128423760Y-130889300D01*
X128423760Y-130889300D02*
X128896200Y-130399080D01*
X128896200Y-130399080D02*
X128614260Y-129919020D01*
X128614260Y-129919020D02*
X128804760Y-129449120D01*
X128804760Y-129449120D02*
X129414360Y-129261160D01*
X129414360Y-129261160D02*
X129414360Y-128580440D01*
X129414360Y-128580440D02*
X128855560Y-128440740D01*
X128855560Y-128440740D02*
X128654900Y-127869240D01*
X128654900Y-127869240D02*
X128924140Y-127399340D01*
X128924140Y-127399340D02*
X128454240Y-126888800D01*
X128454240Y-126888800D02*
X127936080Y-127150420D01*
X127936080Y-127150420D02*
X127466180Y-126949760D01*
X127466180Y-126949760D02*
X127296000Y-126408740D01*
X127296000Y-126408740D02*
X126605120Y-126390960D01*
X126605120Y-126390960D02*
X126394300Y-126939600D01*
X126394300Y-126939600D02*
X125975200Y-127109780D01*
X125975200Y-127109780D02*
X125424020Y-126840540D01*
X125424020Y-126840540D02*
X124905860Y-127368860D01*
X124905860Y-127368860D02*
X125154780Y-127909880D01*
X125154780Y-127909880D02*
X124984600Y-128389940D01*
X124984600Y-128389940D02*
X124435960Y-128489000D01*
X124435960Y-128489000D02*
X124425800Y-129190040D01*
X124425800Y-129190040D02*
X124984600Y-129390700D01*
X124984600Y-129390700D02*
X125124300Y-129789480D01*
X127265520Y-129769160D02*
X127565240Y-129619300D01*
X127565240Y-129619300D02*
X127765900Y-129421180D01*
X127765900Y-129421180D02*
X127915760Y-129019860D01*
X127915760Y-129019860D02*
X127915760Y-128621080D01*
X127915760Y-128621080D02*
X127765900Y-128270560D01*
X127765900Y-128270560D02*
X127313780Y-127920040D01*
X127313780Y-127920040D02*
X126864200Y-127869240D01*
X126864200Y-127869240D02*
X126465420Y-127970840D01*
X126465420Y-127970840D02*
X126064100Y-128318820D01*
X126064100Y-128318820D02*
X125914240Y-128770940D01*
X125914240Y-128770940D02*
X125965040Y-129268780D01*
X125965040Y-129268780D02*
X126213960Y-129571040D01*
X126213960Y-129571040D02*
X126564480Y-129769160D01*
X126564480Y-129769160D02*
X126213960Y-130769920D01*
X127265520Y-129769160D02*
X127664300Y-130769920D01*
G04 #@! TD*
D12*
G04 #@! TO.P,MOD1,34*
G04 #@! TO.N,/DISP_SCK*
X80645000Y-104140000D03*
G04 #@! TO.P,MOD1,33*
G04 #@! TO.N,N/C*
X78105000Y-104140000D03*
G04 #@! TO.P,MOD1,32*
G04 #@! TO.N,/DISP_MOSI*
X80645000Y-101600000D03*
G04 #@! TO.P,MOD1,31*
G04 #@! TO.N,N/C*
X78105000Y-101600000D03*
G04 #@! TO.P,MOD1,30*
G04 #@! TO.N,/DISP_A0*
X80645000Y-99060000D03*
G04 #@! TO.P,MOD1,29*
G04 #@! TO.N,//DISP_CS*
X78105000Y-99060000D03*
G04 #@! TO.P,MOD1,28*
G04 #@! TO.N,N/C*
X80645000Y-96520000D03*
G04 #@! TO.P,MOD1,27*
X78105000Y-96520000D03*
G04 #@! TO.P,MOD1,26*
X80645000Y-93980000D03*
G04 #@! TO.P,MOD1,25*
X78105000Y-93980000D03*
G04 #@! TO.P,MOD1,24*
G04 #@! TO.N,VCC*
X80645000Y-91440000D03*
G04 #@! TO.P,MOD1,23*
X78105000Y-91440000D03*
G04 #@! TO.P,MOD1,22*
G04 #@! TO.N,GND*
X80645000Y-88900000D03*
D13*
G04 #@! TO.P,MOD1,21*
X78105000Y-88900000D03*
D12*
G04 #@! TO.P,MOD1,20*
G04 #@! TO.N,N/C*
X116205000Y-111790000D03*
G04 #@! TO.P,MOD1,19*
X113665000Y-111760000D03*
G04 #@! TO.P,MOD1,18*
X116205000Y-109250000D03*
G04 #@! TO.P,MOD1,17*
X113665000Y-109220000D03*
G04 #@! TO.P,MOD1,16*
G04 #@! TO.N,/TEMP*
X116205000Y-106710000D03*
G04 #@! TO.P,MOD1,15*
G04 #@! TO.N,N/C*
X113665000Y-106680000D03*
G04 #@! TO.P,MOD1,14*
X116205000Y-104170000D03*
G04 #@! TO.P,MOD1,13*
X113665000Y-104140000D03*
G04 #@! TO.P,MOD1,12*
G04 #@! TO.N,//RESET*
X116205000Y-101630000D03*
G04 #@! TO.P,MOD1,11*
G04 #@! TO.N,N/C*
X113665000Y-101600000D03*
G04 #@! TO.P,MOD1,10*
X116205000Y-99090000D03*
G04 #@! TO.P,MOD1,9*
X113665000Y-99060000D03*
G04 #@! TO.P,MOD1,8*
G04 #@! TO.N,/KEY2*
X116205000Y-96550000D03*
G04 #@! TO.P,MOD1,7*
G04 #@! TO.N,N/C*
X113665000Y-96520000D03*
G04 #@! TO.P,MOD1,6*
G04 #@! TO.N,/KEY0*
X116205000Y-93980000D03*
G04 #@! TO.P,MOD1,5*
G04 #@! TO.N,/KEY1*
X113665000Y-93980000D03*
G04 #@! TO.P,MOD1,4*
G04 #@! TO.N,N/C*
X116205000Y-91470000D03*
G04 #@! TO.P,MOD1,3*
X113665000Y-91440000D03*
G04 #@! TO.P,MOD1,2*
G04 #@! TO.N,GND*
X116205000Y-88930000D03*
D13*
G04 #@! TO.P,MOD1,1*
X113665000Y-88900000D03*
D14*
G04 #@! TO.P,MOD1,41*
G04 #@! TO.N,N/C*
X92075000Y-110840000D03*
G04 #@! TD*
D15*
G04 #@! TO.P,H1,1*
G04 #@! TO.N,N/C*
X96915000Y-70370000D03*
G04 #@! TD*
D16*
G04 #@! TO.P,H4,1*
G04 #@! TO.N,N/C*
X66915000Y-100370000D03*
G04 #@! TD*
G04 #@! TO.P,H2,1*
G04 #@! TO.N,N/C*
X126915000Y-100370000D03*
G04 #@! TD*
D15*
G04 #@! TO.P,H3,1*
G04 #@! TO.N,N/C*
X96915000Y-130370000D03*
G04 #@! TD*
D17*
G04 #@! TO.P,MOD2,H*
G04 #@! TO.N,N/C*
X108415000Y-86620000D03*
X85415000Y-86620000D03*
X85415000Y-110120000D03*
X108415000Y-110120000D03*
D18*
G04 #@! TO.P,MOD2,4*
G04 #@! TO.N,/DISP_MOSI*
X96915000Y-86120000D03*
G04 #@! TO.P,MOD2,5*
G04 #@! TO.N,//RESET*
X99455000Y-86120000D03*
G04 #@! TO.P,MOD2,6*
G04 #@! TO.N,/DISP_A0*
X101995000Y-86120000D03*
G04 #@! TO.P,MOD2,7*
G04 #@! TO.N,//DISP_CS*
X104535000Y-86120000D03*
G04 #@! TO.P,MOD2,3*
G04 #@! TO.N,/DISP_SCK*
X94375000Y-86120000D03*
G04 #@! TO.P,MOD2,2*
G04 #@! TO.N,VCC*
X91835000Y-86120000D03*
G04 #@! TO.P,MOD2,1*
G04 #@! TO.N,GND*
X89295000Y-86120000D03*
G04 #@! TD*
D19*
G04 #@! TO.N,GND*
X116165000Y-114120000D03*
X103915000Y-112370000D03*
X91915000Y-116370000D03*
X77915000Y-114120000D03*
D20*
X95015000Y-78470000D03*
G04 #@! TO.N,/DISP_SCK*
X94375000Y-104180000D03*
G04 #@! TO.N,/DISP_MOSI*
X96915000Y-101640000D03*
G04 #@! TO.N,/DISP_A0*
X101995000Y-99100000D03*
G04 #@! TO.N,//DISP_CS*
X104115000Y-100320000D03*
G04 #@! TO.N,/TEMP*
X98186960Y-105434291D03*
G04 #@! TO.N,//RESET*
X99455000Y-101640000D03*
G04 #@! TO.N,/KEY2*
X105415000Y-109870000D03*
X103415000Y-116870000D03*
X106265021Y-97770000D03*
G04 #@! TO.N,/KEY0*
X89815000Y-116370006D03*
X89915000Y-107370000D03*
G04 #@! TO.N,/KEY1*
X102415000Y-116870000D03*
X103915000Y-109370000D03*
X106115000Y-94020000D03*
G04 #@! TD*
D21*
G04 #@! TO.N,/DISP_SCK*
X80645000Y-104140000D02*
X94335000Y-104140000D01*
X94335000Y-104140000D02*
X94375000Y-104180000D01*
G04 #@! TO.N,/DISP_MOSI*
X80645000Y-101600000D02*
X96875000Y-101600000D01*
X96875000Y-101600000D02*
X96915000Y-101640000D01*
G04 #@! TO.N,/DISP_A0*
X80645000Y-99060000D02*
X101955000Y-99060000D01*
X101955000Y-99060000D02*
X101995000Y-99100000D01*
G04 #@! TO.N,//DISP_CS*
X103620026Y-100320000D02*
X104115000Y-100320000D01*
X78105000Y-99060000D02*
X79365000Y-100320000D01*
X79365000Y-100320000D02*
X103620026Y-100320000D01*
G04 #@! TO.N,/TEMP*
X98681934Y-105434291D02*
X98186960Y-105434291D01*
X98691746Y-105424479D02*
X98681934Y-105434291D01*
X114919479Y-105424479D02*
X98691746Y-105424479D01*
X116205000Y-106710000D02*
X114919479Y-105424479D01*
G04 #@! TO.N,//RESET*
X99455000Y-101640000D02*
X111520000Y-101640000D01*
X111520000Y-101640000D02*
X112744822Y-102864822D01*
X112744822Y-102864822D02*
X114970178Y-102864822D01*
X114970178Y-102864822D02*
X116205000Y-101630000D01*
G04 #@! TO.N,/KEY2*
X105415000Y-109870000D02*
X104920026Y-109870000D01*
X103065001Y-116520001D02*
X103415000Y-116870000D01*
X102915011Y-111875015D02*
X102915011Y-116370011D01*
X102915011Y-116370011D02*
X103065001Y-116520001D01*
X104920026Y-109870000D02*
X102915011Y-111875015D01*
X116205000Y-96550000D02*
X114985000Y-97770000D01*
X114985000Y-97770000D02*
X106759995Y-97770000D01*
X106759995Y-97770000D02*
X106265021Y-97770000D01*
G04 #@! TO.N,/KEY0*
X89815000Y-107470000D02*
X89915000Y-107370000D01*
X89815000Y-116370006D02*
X89815000Y-107470000D01*
G04 #@! TO.N,/KEY1*
X102415000Y-110870000D02*
X103915000Y-109370000D01*
X102415000Y-116870000D02*
X102415000Y-110870000D01*
X113665000Y-93980000D02*
X106155000Y-93980000D01*
X106155000Y-93980000D02*
X106115000Y-94020000D01*
G04 #@! TD*
G04 #@! TO.N,GND*
G36*
X122165000Y-76302132D02*
X122165000Y-124437868D01*
X120982868Y-125620000D01*
X72847132Y-125620000D01*
X71665000Y-124437868D01*
X71665000Y-113120000D01*
X80629715Y-113120000D01*
X80640000Y-113171707D01*
X80640001Y-119568289D01*
X80629715Y-119620000D01*
X80670461Y-119824845D01*
X80786496Y-119998504D01*
X80960155Y-120114539D01*
X81113294Y-120145000D01*
X81165000Y-120155285D01*
X81216706Y-120145000D01*
X88613294Y-120145000D01*
X88665000Y-120155285D01*
X88716706Y-120145000D01*
X88869845Y-120114539D01*
X89043504Y-119998504D01*
X89159539Y-119824845D01*
X89200285Y-119620000D01*
X89190000Y-119568294D01*
X89190000Y-116876377D01*
X89361836Y-117048213D01*
X89655870Y-117170006D01*
X89974130Y-117170006D01*
X90268164Y-117048213D01*
X90493207Y-116823170D01*
X90615000Y-116529136D01*
X90615000Y-116210876D01*
X90493207Y-115916842D01*
X90415000Y-115838635D01*
X90415000Y-112291270D01*
X90828800Y-112705070D01*
X91637393Y-113040000D01*
X92512607Y-113040000D01*
X92657572Y-112979954D01*
X92629715Y-113120000D01*
X92640001Y-113171711D01*
X92640000Y-119568293D01*
X92629715Y-119620000D01*
X92670461Y-119824845D01*
X92786496Y-119998504D01*
X92960155Y-120114539D01*
X93165000Y-120155285D01*
X93216706Y-120145000D01*
X100613294Y-120145000D01*
X100665000Y-120155285D01*
X100716706Y-120145000D01*
X100751451Y-120138089D01*
X100869845Y-120114539D01*
X101043504Y-119998504D01*
X101159539Y-119824845D01*
X101190000Y-119671706D01*
X101190000Y-119671705D01*
X101200285Y-119620000D01*
X101190000Y-119568294D01*
X101190000Y-116710870D01*
X101615000Y-116710870D01*
X101615000Y-117029130D01*
X101736793Y-117323164D01*
X101961836Y-117548207D01*
X102255870Y-117670000D01*
X102574130Y-117670000D01*
X102868164Y-117548207D01*
X102915000Y-117501371D01*
X102961836Y-117548207D01*
X103255870Y-117670000D01*
X103574130Y-117670000D01*
X103868164Y-117548207D01*
X104093207Y-117323164D01*
X104215000Y-117029130D01*
X104215000Y-116710870D01*
X104093207Y-116416836D01*
X103868164Y-116191793D01*
X103574130Y-116070000D01*
X103515011Y-116070000D01*
X103515011Y-112123542D01*
X105052707Y-110585847D01*
X105255870Y-110670000D01*
X105574130Y-110670000D01*
X105868164Y-110548207D01*
X106093207Y-110323164D01*
X106215000Y-110029130D01*
X106215000Y-109761958D01*
X106615000Y-109761958D01*
X106615000Y-110478042D01*
X106889034Y-111139618D01*
X107395382Y-111645966D01*
X108056958Y-111920000D01*
X108773042Y-111920000D01*
X109434618Y-111645966D01*
X109940966Y-111139618D01*
X110215000Y-110478042D01*
X110215000Y-109761958D01*
X109940966Y-109100382D01*
X109434618Y-108594034D01*
X108773042Y-108320000D01*
X108056958Y-108320000D01*
X107395382Y-108594034D01*
X106889034Y-109100382D01*
X106615000Y-109761958D01*
X106215000Y-109761958D01*
X106215000Y-109710870D01*
X106093207Y-109416836D01*
X105868164Y-109191793D01*
X105574130Y-109070000D01*
X105255870Y-109070000D01*
X104961836Y-109191793D01*
X104889263Y-109264366D01*
X104860939Y-109270000D01*
X104860935Y-109270000D01*
X104715000Y-109299028D01*
X104715000Y-109210870D01*
X104593207Y-108916836D01*
X104368164Y-108691793D01*
X104074130Y-108570000D01*
X103755870Y-108570000D01*
X103461836Y-108691793D01*
X103236793Y-108916836D01*
X103115000Y-109210870D01*
X103115000Y-109321472D01*
X102032520Y-110403953D01*
X101982426Y-110437425D01*
X101948954Y-110487519D01*
X101948953Y-110487520D01*
X101849814Y-110635892D01*
X101803247Y-110870000D01*
X101815001Y-110929091D01*
X101815000Y-116338629D01*
X101736793Y-116416836D01*
X101615000Y-116710870D01*
X101190000Y-116710870D01*
X101190000Y-113171706D01*
X101200285Y-113120000D01*
X101159539Y-112915155D01*
X101043504Y-112741496D01*
X100869845Y-112625461D01*
X100716706Y-112595000D01*
X100665000Y-112584715D01*
X100613294Y-112595000D01*
X93431270Y-112595000D01*
X93940070Y-112086200D01*
X94275000Y-111277607D01*
X94275000Y-110402393D01*
X93940070Y-109593800D01*
X93321200Y-108974930D01*
X92512607Y-108640000D01*
X91637393Y-108640000D01*
X90828800Y-108974930D01*
X90415000Y-109388730D01*
X90415000Y-108001371D01*
X90593207Y-107823164D01*
X90715000Y-107529130D01*
X90715000Y-107210870D01*
X90593207Y-106916836D01*
X90368164Y-106691793D01*
X90074130Y-106570000D01*
X89755870Y-106570000D01*
X89461836Y-106691793D01*
X89236793Y-106916836D01*
X89115000Y-107210870D01*
X89115000Y-107529130D01*
X89215001Y-107770553D01*
X89215000Y-115838635D01*
X89190000Y-115863635D01*
X89190000Y-113171706D01*
X89200285Y-113120000D01*
X89159539Y-112915155D01*
X89043504Y-112741496D01*
X88869845Y-112625461D01*
X88665000Y-112584715D01*
X88613294Y-112595000D01*
X81216706Y-112595000D01*
X81165000Y-112584715D01*
X80960155Y-112625461D01*
X80786496Y-112741496D01*
X80670461Y-112915155D01*
X80629715Y-113120000D01*
X71665000Y-113120000D01*
X71665000Y-109761958D01*
X83615000Y-109761958D01*
X83615000Y-110478042D01*
X83889034Y-111139618D01*
X84395382Y-111645966D01*
X85056958Y-111920000D01*
X85773042Y-111920000D01*
X86434618Y-111645966D01*
X86940966Y-111139618D01*
X87215000Y-110478042D01*
X87215000Y-109761958D01*
X86940966Y-109100382D01*
X86434618Y-108594034D01*
X85773042Y-108320000D01*
X85056958Y-108320000D01*
X84395382Y-108594034D01*
X83889034Y-109100382D01*
X83615000Y-109761958D01*
X71665000Y-109761958D01*
X71665000Y-89168500D01*
X76547000Y-89168500D01*
X76547000Y-89930884D01*
X76647174Y-90172727D01*
X76832273Y-90357825D01*
X77074115Y-90458000D01*
X77177811Y-90458000D01*
X76960525Y-90675286D01*
X76755000Y-91171468D01*
X76755000Y-91708532D01*
X76960525Y-92204714D01*
X77340286Y-92584475D01*
X77643331Y-92710000D01*
X77340286Y-92835525D01*
X76960525Y-93215286D01*
X76755000Y-93711468D01*
X76755000Y-94248532D01*
X76960525Y-94744714D01*
X77340286Y-95124475D01*
X77643331Y-95250000D01*
X77340286Y-95375525D01*
X76960525Y-95755286D01*
X76755000Y-96251468D01*
X76755000Y-96788532D01*
X76960525Y-97284714D01*
X77340286Y-97664475D01*
X77643331Y-97790000D01*
X77340286Y-97915525D01*
X76960525Y-98295286D01*
X76755000Y-98791468D01*
X76755000Y-99328532D01*
X76960525Y-99824714D01*
X77340286Y-100204475D01*
X77643331Y-100330000D01*
X77340286Y-100455525D01*
X76960525Y-100835286D01*
X76755000Y-101331468D01*
X76755000Y-101868532D01*
X76960525Y-102364714D01*
X77340286Y-102744475D01*
X77643331Y-102870000D01*
X77340286Y-102995525D01*
X76960525Y-103375286D01*
X76755000Y-103871468D01*
X76755000Y-104408532D01*
X76960525Y-104904714D01*
X77340286Y-105284475D01*
X77836468Y-105490000D01*
X78373532Y-105490000D01*
X78869714Y-105284475D01*
X79249475Y-104904714D01*
X79375000Y-104601669D01*
X79500525Y-104904714D01*
X79880286Y-105284475D01*
X80376468Y-105490000D01*
X80913532Y-105490000D01*
X81409714Y-105284475D01*
X81789475Y-104904714D01*
X81857702Y-104740000D01*
X93803629Y-104740000D01*
X93921836Y-104858207D01*
X94215870Y-104980000D01*
X94534130Y-104980000D01*
X94828164Y-104858207D01*
X95053207Y-104633164D01*
X95175000Y-104339130D01*
X95175000Y-104020870D01*
X95053207Y-103726836D01*
X94828164Y-103501793D01*
X94534130Y-103380000D01*
X94215870Y-103380000D01*
X93921836Y-103501793D01*
X93883629Y-103540000D01*
X81857702Y-103540000D01*
X81789475Y-103375286D01*
X81409714Y-102995525D01*
X81106669Y-102870000D01*
X81409714Y-102744475D01*
X81789475Y-102364714D01*
X81857702Y-102200000D01*
X96343629Y-102200000D01*
X96461836Y-102318207D01*
X96755870Y-102440000D01*
X97074130Y-102440000D01*
X97368164Y-102318207D01*
X97593207Y-102093164D01*
X97715000Y-101799130D01*
X97715000Y-101480870D01*
X97593207Y-101186836D01*
X97368164Y-100961793D01*
X97267267Y-100920000D01*
X99102733Y-100920000D01*
X99001836Y-100961793D01*
X98776793Y-101186836D01*
X98655000Y-101480870D01*
X98655000Y-101799130D01*
X98776793Y-102093164D01*
X99001836Y-102318207D01*
X99295870Y-102440000D01*
X99614130Y-102440000D01*
X99908164Y-102318207D01*
X99986371Y-102240000D01*
X111271473Y-102240000D01*
X112278775Y-103247303D01*
X112312247Y-103297397D01*
X112500645Y-103423281D01*
X112315000Y-103871468D01*
X112315000Y-104408532D01*
X112487291Y-104824479D01*
X98750832Y-104824479D01*
X98698013Y-104813973D01*
X98640124Y-104756084D01*
X98346090Y-104634291D01*
X98027830Y-104634291D01*
X97733796Y-104756084D01*
X97508753Y-104981127D01*
X97386960Y-105275161D01*
X97386960Y-105593421D01*
X97508753Y-105887455D01*
X97733796Y-106112498D01*
X98027830Y-106234291D01*
X98346090Y-106234291D01*
X98640124Y-106112498D01*
X98712697Y-106039925D01*
X98741020Y-106034291D01*
X98741025Y-106034291D01*
X98790353Y-106024479D01*
X112475296Y-106024479D01*
X112315000Y-106411468D01*
X112315000Y-106948532D01*
X112520525Y-107444714D01*
X112900286Y-107824475D01*
X113203331Y-107950000D01*
X112900286Y-108075525D01*
X112520525Y-108455286D01*
X112315000Y-108951468D01*
X112315000Y-109488532D01*
X112520525Y-109984714D01*
X112900286Y-110364475D01*
X113203331Y-110490000D01*
X112900286Y-110615525D01*
X112520525Y-110995286D01*
X112315000Y-111491468D01*
X112315000Y-112028532D01*
X112520525Y-112524714D01*
X112565811Y-112570000D01*
X105219170Y-112570000D01*
X105165000Y-112559225D01*
X105110830Y-112570000D01*
X104950401Y-112601911D01*
X104768472Y-112723472D01*
X104646911Y-112905401D01*
X104604225Y-113120000D01*
X104615000Y-113174170D01*
X104615001Y-119565825D01*
X104604225Y-119620000D01*
X104646911Y-119834599D01*
X104768472Y-120016528D01*
X104950401Y-120138089D01*
X105110830Y-120170000D01*
X105165000Y-120180775D01*
X105219170Y-120170000D01*
X112610830Y-120170000D01*
X112665000Y-120180775D01*
X112719170Y-120170000D01*
X112879599Y-120138089D01*
X113061528Y-120016528D01*
X113183089Y-119834599D01*
X113225775Y-119620000D01*
X113215000Y-119565830D01*
X113215000Y-113174170D01*
X113225775Y-113120000D01*
X113208281Y-113032050D01*
X113396468Y-113110000D01*
X113933532Y-113110000D01*
X114429714Y-112904475D01*
X114809475Y-112524714D01*
X114928787Y-112236669D01*
X115060525Y-112554714D01*
X115440286Y-112934475D01*
X115936468Y-113140000D01*
X116473532Y-113140000D01*
X116969714Y-112934475D01*
X117349475Y-112554714D01*
X117555000Y-112058532D01*
X117555000Y-111521468D01*
X117349475Y-111025286D01*
X116969714Y-110645525D01*
X116666669Y-110520000D01*
X116969714Y-110394475D01*
X117349475Y-110014714D01*
X117555000Y-109518532D01*
X117555000Y-108981468D01*
X117349475Y-108485286D01*
X116969714Y-108105525D01*
X116666669Y-107980000D01*
X116969714Y-107854475D01*
X117349475Y-107474714D01*
X117555000Y-106978532D01*
X117555000Y-106441468D01*
X117349475Y-105945286D01*
X116969714Y-105565525D01*
X116666669Y-105440000D01*
X116969714Y-105314475D01*
X117349475Y-104934714D01*
X117555000Y-104438532D01*
X117555000Y-103901468D01*
X117349475Y-103405286D01*
X116969714Y-103025525D01*
X116666669Y-102900000D01*
X116969714Y-102774475D01*
X117349475Y-102394714D01*
X117555000Y-101898532D01*
X117555000Y-101361468D01*
X117349475Y-100865286D01*
X116969714Y-100485525D01*
X116666669Y-100360000D01*
X116969714Y-100234475D01*
X117349475Y-99854714D01*
X117555000Y-99358532D01*
X117555000Y-98821468D01*
X117349475Y-98325286D01*
X116969714Y-97945525D01*
X116666669Y-97820000D01*
X116969714Y-97694475D01*
X117349475Y-97314714D01*
X117555000Y-96818532D01*
X117555000Y-96281468D01*
X117349475Y-95785286D01*
X116969714Y-95405525D01*
X116630456Y-95265000D01*
X116969714Y-95124475D01*
X117349475Y-94744714D01*
X117555000Y-94248532D01*
X117555000Y-93711468D01*
X117349475Y-93215286D01*
X116969714Y-92835525D01*
X116702883Y-92725000D01*
X116969714Y-92614475D01*
X117349475Y-92234714D01*
X117555000Y-91738532D01*
X117555000Y-91201468D01*
X117349475Y-90705286D01*
X116969714Y-90325525D01*
X116948359Y-90316679D01*
X117052569Y-90273514D01*
X117135708Y-90007786D01*
X116205000Y-89077078D01*
X116190858Y-89091221D01*
X116043780Y-88944143D01*
X116057922Y-88930000D01*
X116352078Y-88930000D01*
X117282786Y-89860708D01*
X117548514Y-89777569D01*
X117770597Y-89198911D01*
X117754331Y-88579314D01*
X117548514Y-88082431D01*
X117282786Y-87999292D01*
X116352078Y-88930000D01*
X116057922Y-88930000D01*
X116043780Y-88915858D01*
X116190858Y-88768780D01*
X116205000Y-88782922D01*
X117135708Y-87852214D01*
X117052569Y-87586486D01*
X116473911Y-87364403D01*
X115854314Y-87380669D01*
X115357431Y-87586486D01*
X115274293Y-87852212D01*
X115174778Y-87752697D01*
X115122826Y-87627273D01*
X114937727Y-87442175D01*
X114695885Y-87342000D01*
X113933500Y-87342000D01*
X113769000Y-87506500D01*
X113769000Y-88796000D01*
X113789000Y-88796000D01*
X113789000Y-89004000D01*
X113769000Y-89004000D01*
X113769000Y-89024000D01*
X113561000Y-89024000D01*
X113561000Y-89004000D01*
X112271500Y-89004000D01*
X112107000Y-89168500D01*
X112107000Y-89930884D01*
X112207174Y-90172727D01*
X112392273Y-90357825D01*
X112634115Y-90458000D01*
X112737811Y-90458000D01*
X112520525Y-90675286D01*
X112315000Y-91171468D01*
X112315000Y-91708532D01*
X112520525Y-92204714D01*
X112900286Y-92584475D01*
X113203331Y-92710000D01*
X112900286Y-92835525D01*
X112520525Y-93215286D01*
X112452298Y-93380000D01*
X106606371Y-93380000D01*
X106568164Y-93341793D01*
X106274130Y-93220000D01*
X105955870Y-93220000D01*
X105661836Y-93341793D01*
X105436793Y-93566836D01*
X105315000Y-93860870D01*
X105315000Y-94179130D01*
X105436793Y-94473164D01*
X105661836Y-94698207D01*
X105955870Y-94820000D01*
X106274130Y-94820000D01*
X106568164Y-94698207D01*
X106686371Y-94580000D01*
X112452298Y-94580000D01*
X112520525Y-94744714D01*
X112900286Y-95124475D01*
X113203331Y-95250000D01*
X112900286Y-95375525D01*
X112520525Y-95755286D01*
X112315000Y-96251468D01*
X112315000Y-96788532D01*
X112473009Y-97170000D01*
X106796392Y-97170000D01*
X106718185Y-97091793D01*
X106424151Y-96970000D01*
X106105891Y-96970000D01*
X105811857Y-97091793D01*
X105586814Y-97316836D01*
X105465021Y-97610870D01*
X105465021Y-97929130D01*
X105586814Y-98223164D01*
X105811857Y-98448207D01*
X106105891Y-98570000D01*
X106424151Y-98570000D01*
X106718185Y-98448207D01*
X106796392Y-98370000D01*
X112489577Y-98370000D01*
X112315000Y-98791468D01*
X112315000Y-99328532D01*
X112520525Y-99824714D01*
X112900286Y-100204475D01*
X113203331Y-100330000D01*
X112900286Y-100455525D01*
X112520525Y-100835286D01*
X112315000Y-101331468D01*
X112315000Y-101586473D01*
X111986049Y-101257521D01*
X111952575Y-101207425D01*
X111754108Y-101074813D01*
X111579091Y-101040000D01*
X111579086Y-101040000D01*
X111520000Y-101028247D01*
X111460914Y-101040000D01*
X104467267Y-101040000D01*
X104568164Y-100998207D01*
X104793207Y-100773164D01*
X104915000Y-100479130D01*
X104915000Y-100160870D01*
X104793207Y-99866836D01*
X104568164Y-99641793D01*
X104274130Y-99520000D01*
X103955870Y-99520000D01*
X103661836Y-99641793D01*
X103583629Y-99720000D01*
X102506371Y-99720000D01*
X102673207Y-99553164D01*
X102795000Y-99259130D01*
X102795000Y-98940870D01*
X102673207Y-98646836D01*
X102448164Y-98421793D01*
X102154130Y-98300000D01*
X101835870Y-98300000D01*
X101541836Y-98421793D01*
X101503629Y-98460000D01*
X81857702Y-98460000D01*
X81789475Y-98295286D01*
X81409714Y-97915525D01*
X81106669Y-97790000D01*
X81409714Y-97664475D01*
X81789475Y-97284714D01*
X81995000Y-96788532D01*
X81995000Y-96251468D01*
X81789475Y-95755286D01*
X81409714Y-95375525D01*
X81106669Y-95250000D01*
X81409714Y-95124475D01*
X81789475Y-94744714D01*
X81995000Y-94248532D01*
X81995000Y-93711468D01*
X81789475Y-93215286D01*
X81409714Y-92835525D01*
X81106669Y-92710000D01*
X81409714Y-92584475D01*
X81789475Y-92204714D01*
X81995000Y-91708532D01*
X81995000Y-91171468D01*
X81789475Y-90675286D01*
X81409714Y-90295525D01*
X81388359Y-90286679D01*
X81492569Y-90243514D01*
X81575708Y-89977786D01*
X80645000Y-89047078D01*
X80630858Y-89061221D01*
X80483780Y-88914143D01*
X80497922Y-88900000D01*
X80792078Y-88900000D01*
X81722786Y-89830708D01*
X81988514Y-89747569D01*
X82210597Y-89168911D01*
X82194331Y-88549314D01*
X81988514Y-88052431D01*
X81722786Y-87969292D01*
X80792078Y-88900000D01*
X80497922Y-88900000D01*
X80483780Y-88885858D01*
X80630858Y-88738780D01*
X80645000Y-88752922D01*
X81575708Y-87822214D01*
X81492569Y-87556486D01*
X80913911Y-87334403D01*
X80294314Y-87350669D01*
X79797431Y-87556486D01*
X79714293Y-87822212D01*
X79597363Y-87705282D01*
X79595790Y-87706855D01*
X79562826Y-87627273D01*
X79377727Y-87442175D01*
X79135885Y-87342000D01*
X78373500Y-87342000D01*
X78209000Y-87506500D01*
X78209000Y-88796000D01*
X78229000Y-88796000D01*
X78229000Y-89004000D01*
X78209000Y-89004000D01*
X78209000Y-89024000D01*
X78001000Y-89024000D01*
X78001000Y-89004000D01*
X76711500Y-89004000D01*
X76547000Y-89168500D01*
X71665000Y-89168500D01*
X71665000Y-87869116D01*
X76547000Y-87869116D01*
X76547000Y-88631500D01*
X76711500Y-88796000D01*
X78001000Y-88796000D01*
X78001000Y-87506500D01*
X77836500Y-87342000D01*
X77074115Y-87342000D01*
X76832273Y-87442175D01*
X76647174Y-87627273D01*
X76547000Y-87869116D01*
X71665000Y-87869116D01*
X71665000Y-86261958D01*
X83615000Y-86261958D01*
X83615000Y-86978042D01*
X83889034Y-87639618D01*
X84395382Y-88145966D01*
X85056958Y-88420000D01*
X85773042Y-88420000D01*
X86434618Y-88145966D01*
X86940966Y-87639618D01*
X87153927Y-87125483D01*
X88436596Y-87125483D01*
X88507498Y-87380839D01*
X89049946Y-87586228D01*
X89629701Y-87568397D01*
X90082502Y-87380839D01*
X90153404Y-87125483D01*
X89295000Y-86267078D01*
X88436596Y-87125483D01*
X87153927Y-87125483D01*
X87215000Y-86978042D01*
X87215000Y-86261958D01*
X87054695Y-85874946D01*
X87828772Y-85874946D01*
X87846603Y-86454701D01*
X88034161Y-86907502D01*
X88289517Y-86978404D01*
X89147922Y-86120000D01*
X89442078Y-86120000D01*
X90300483Y-86978404D01*
X90555839Y-86907502D01*
X90676359Y-86589200D01*
X90775301Y-86828068D01*
X91126932Y-87179699D01*
X91586360Y-87370000D01*
X92083640Y-87370000D01*
X92543068Y-87179699D01*
X92894699Y-86828068D01*
X93085000Y-86368640D01*
X93085000Y-85871360D01*
X93125000Y-85871360D01*
X93125000Y-86368640D01*
X93315301Y-86828068D01*
X93666932Y-87179699D01*
X94126360Y-87370000D01*
X94623640Y-87370000D01*
X95083068Y-87179699D01*
X95434699Y-86828068D01*
X95625000Y-86368640D01*
X95625000Y-85871360D01*
X95665000Y-85871360D01*
X95665000Y-86368640D01*
X95855301Y-86828068D01*
X96206932Y-87179699D01*
X96666360Y-87370000D01*
X97163640Y-87370000D01*
X97623068Y-87179699D01*
X97974699Y-86828068D01*
X98165000Y-86368640D01*
X98165000Y-85871360D01*
X98205000Y-85871360D01*
X98205000Y-86368640D01*
X98395301Y-86828068D01*
X98746932Y-87179699D01*
X99206360Y-87370000D01*
X99703640Y-87370000D01*
X100163068Y-87179699D01*
X100514699Y-86828068D01*
X100705000Y-86368640D01*
X100705000Y-85871360D01*
X100745000Y-85871360D01*
X100745000Y-86368640D01*
X100935301Y-86828068D01*
X101286932Y-87179699D01*
X101746360Y-87370000D01*
X102243640Y-87370000D01*
X102703068Y-87179699D01*
X103054699Y-86828068D01*
X103245000Y-86368640D01*
X103245000Y-85871360D01*
X103285000Y-85871360D01*
X103285000Y-86368640D01*
X103475301Y-86828068D01*
X103826932Y-87179699D01*
X104286360Y-87370000D01*
X104783640Y-87370000D01*
X105243068Y-87179699D01*
X105594699Y-86828068D01*
X105785000Y-86368640D01*
X105785000Y-86261958D01*
X106615000Y-86261958D01*
X106615000Y-86978042D01*
X106889034Y-87639618D01*
X107395382Y-88145966D01*
X108056958Y-88420000D01*
X108773042Y-88420000D01*
X109434618Y-88145966D01*
X109711468Y-87869116D01*
X112107000Y-87869116D01*
X112107000Y-88631500D01*
X112271500Y-88796000D01*
X113561000Y-88796000D01*
X113561000Y-87506500D01*
X113396500Y-87342000D01*
X112634115Y-87342000D01*
X112392273Y-87442175D01*
X112207174Y-87627273D01*
X112107000Y-87869116D01*
X109711468Y-87869116D01*
X109940966Y-87639618D01*
X110215000Y-86978042D01*
X110215000Y-86261958D01*
X109940966Y-85600382D01*
X109434618Y-85094034D01*
X108773042Y-84820000D01*
X108056958Y-84820000D01*
X107395382Y-85094034D01*
X106889034Y-85600382D01*
X106615000Y-86261958D01*
X105785000Y-86261958D01*
X105785000Y-85871360D01*
X105594699Y-85411932D01*
X105243068Y-85060301D01*
X104783640Y-84870000D01*
X104286360Y-84870000D01*
X103826932Y-85060301D01*
X103475301Y-85411932D01*
X103285000Y-85871360D01*
X103245000Y-85871360D01*
X103054699Y-85411932D01*
X102703068Y-85060301D01*
X102243640Y-84870000D01*
X101746360Y-84870000D01*
X101286932Y-85060301D01*
X100935301Y-85411932D01*
X100745000Y-85871360D01*
X100705000Y-85871360D01*
X100514699Y-85411932D01*
X100163068Y-85060301D01*
X99703640Y-84870000D01*
X99206360Y-84870000D01*
X98746932Y-85060301D01*
X98395301Y-85411932D01*
X98205000Y-85871360D01*
X98165000Y-85871360D01*
X97974699Y-85411932D01*
X97623068Y-85060301D01*
X97163640Y-84870000D01*
X96666360Y-84870000D01*
X96206932Y-85060301D01*
X95855301Y-85411932D01*
X95665000Y-85871360D01*
X95625000Y-85871360D01*
X95434699Y-85411932D01*
X95083068Y-85060301D01*
X94623640Y-84870000D01*
X94126360Y-84870000D01*
X93666932Y-85060301D01*
X93315301Y-85411932D01*
X93125000Y-85871360D01*
X93085000Y-85871360D01*
X92894699Y-85411932D01*
X92543068Y-85060301D01*
X92083640Y-84870000D01*
X91586360Y-84870000D01*
X91126932Y-85060301D01*
X90775301Y-85411932D01*
X90682022Y-85637128D01*
X90555839Y-85332498D01*
X90300483Y-85261596D01*
X89442078Y-86120000D01*
X89147922Y-86120000D01*
X88289517Y-85261596D01*
X88034161Y-85332498D01*
X87828772Y-85874946D01*
X87054695Y-85874946D01*
X86940966Y-85600382D01*
X86455101Y-85114517D01*
X88436596Y-85114517D01*
X89295000Y-85972922D01*
X90153404Y-85114517D01*
X90082502Y-84859161D01*
X89540054Y-84653772D01*
X88960299Y-84671603D01*
X88507498Y-84859161D01*
X88436596Y-85114517D01*
X86455101Y-85114517D01*
X86434618Y-85094034D01*
X85773042Y-84820000D01*
X85056958Y-84820000D01*
X84395382Y-85094034D01*
X83889034Y-85600382D01*
X83615000Y-86261958D01*
X71665000Y-86261958D01*
X71665000Y-76302132D01*
X72847132Y-75120000D01*
X120982868Y-75120000D01*
X122165000Y-76302132D01*
X122165000Y-76302132D01*
G37*
X122165000Y-76302132D02*
X122165000Y-124437868D01*
X120982868Y-125620000D01*
X72847132Y-125620000D01*
X71665000Y-124437868D01*
X71665000Y-113120000D01*
X80629715Y-113120000D01*
X80640000Y-113171707D01*
X80640001Y-119568289D01*
X80629715Y-119620000D01*
X80670461Y-119824845D01*
X80786496Y-119998504D01*
X80960155Y-120114539D01*
X81113294Y-120145000D01*
X81165000Y-120155285D01*
X81216706Y-120145000D01*
X88613294Y-120145000D01*
X88665000Y-120155285D01*
X88716706Y-120145000D01*
X88869845Y-120114539D01*
X89043504Y-119998504D01*
X89159539Y-119824845D01*
X89200285Y-119620000D01*
X89190000Y-119568294D01*
X89190000Y-116876377D01*
X89361836Y-117048213D01*
X89655870Y-117170006D01*
X89974130Y-117170006D01*
X90268164Y-117048213D01*
X90493207Y-116823170D01*
X90615000Y-116529136D01*
X90615000Y-116210876D01*
X90493207Y-115916842D01*
X90415000Y-115838635D01*
X90415000Y-112291270D01*
X90828800Y-112705070D01*
X91637393Y-113040000D01*
X92512607Y-113040000D01*
X92657572Y-112979954D01*
X92629715Y-113120000D01*
X92640001Y-113171711D01*
X92640000Y-119568293D01*
X92629715Y-119620000D01*
X92670461Y-119824845D01*
X92786496Y-119998504D01*
X92960155Y-120114539D01*
X93165000Y-120155285D01*
X93216706Y-120145000D01*
X100613294Y-120145000D01*
X100665000Y-120155285D01*
X100716706Y-120145000D01*
X100751451Y-120138089D01*
X100869845Y-120114539D01*
X101043504Y-119998504D01*
X101159539Y-119824845D01*
X101190000Y-119671706D01*
X101190000Y-119671705D01*
X101200285Y-119620000D01*
X101190000Y-119568294D01*
X101190000Y-116710870D01*
X101615000Y-116710870D01*
X101615000Y-117029130D01*
X101736793Y-117323164D01*
X101961836Y-117548207D01*
X102255870Y-117670000D01*
X102574130Y-117670000D01*
X102868164Y-117548207D01*
X102915000Y-117501371D01*
X102961836Y-117548207D01*
X103255870Y-117670000D01*
X103574130Y-117670000D01*
X103868164Y-117548207D01*
X104093207Y-117323164D01*
X104215000Y-117029130D01*
X104215000Y-116710870D01*
X104093207Y-116416836D01*
X103868164Y-116191793D01*
X103574130Y-116070000D01*
X103515011Y-116070000D01*
X103515011Y-112123542D01*
X105052707Y-110585847D01*
X105255870Y-110670000D01*
X105574130Y-110670000D01*
X105868164Y-110548207D01*
X106093207Y-110323164D01*
X106215000Y-110029130D01*
X106215000Y-109761958D01*
X106615000Y-109761958D01*
X106615000Y-110478042D01*
X106889034Y-111139618D01*
X107395382Y-111645966D01*
X108056958Y-111920000D01*
X108773042Y-111920000D01*
X109434618Y-111645966D01*
X109940966Y-111139618D01*
X110215000Y-110478042D01*
X110215000Y-109761958D01*
X109940966Y-109100382D01*
X109434618Y-108594034D01*
X108773042Y-108320000D01*
X108056958Y-108320000D01*
X107395382Y-108594034D01*
X106889034Y-109100382D01*
X106615000Y-109761958D01*
X106215000Y-109761958D01*
X106215000Y-109710870D01*
X106093207Y-109416836D01*
X105868164Y-109191793D01*
X105574130Y-109070000D01*
X105255870Y-109070000D01*
X104961836Y-109191793D01*
X104889263Y-109264366D01*
X104860939Y-109270000D01*
X104860935Y-109270000D01*
X104715000Y-109299028D01*
X104715000Y-109210870D01*
X104593207Y-108916836D01*
X104368164Y-108691793D01*
X104074130Y-108570000D01*
X103755870Y-108570000D01*
X103461836Y-108691793D01*
X103236793Y-108916836D01*
X103115000Y-109210870D01*
X103115000Y-109321472D01*
X102032520Y-110403953D01*
X101982426Y-110437425D01*
X101948954Y-110487519D01*
X101948953Y-110487520D01*
X101849814Y-110635892D01*
X101803247Y-110870000D01*
X101815001Y-110929091D01*
X101815000Y-116338629D01*
X101736793Y-116416836D01*
X101615000Y-116710870D01*
X101190000Y-116710870D01*
X101190000Y-113171706D01*
X101200285Y-113120000D01*
X101159539Y-112915155D01*
X101043504Y-112741496D01*
X100869845Y-112625461D01*
X100716706Y-112595000D01*
X100665000Y-112584715D01*
X100613294Y-112595000D01*
X93431270Y-112595000D01*
X93940070Y-112086200D01*
X94275000Y-111277607D01*
X94275000Y-110402393D01*
X93940070Y-109593800D01*
X93321200Y-108974930D01*
X92512607Y-108640000D01*
X91637393Y-108640000D01*
X90828800Y-108974930D01*
X90415000Y-109388730D01*
X90415000Y-108001371D01*
X90593207Y-107823164D01*
X90715000Y-107529130D01*
X90715000Y-107210870D01*
X90593207Y-106916836D01*
X90368164Y-106691793D01*
X90074130Y-106570000D01*
X89755870Y-106570000D01*
X89461836Y-106691793D01*
X89236793Y-106916836D01*
X89115000Y-107210870D01*
X89115000Y-107529130D01*
X89215001Y-107770553D01*
X89215000Y-115838635D01*
X89190000Y-115863635D01*
X89190000Y-113171706D01*
X89200285Y-113120000D01*
X89159539Y-112915155D01*
X89043504Y-112741496D01*
X88869845Y-112625461D01*
X88665000Y-112584715D01*
X88613294Y-112595000D01*
X81216706Y-112595000D01*
X81165000Y-112584715D01*
X80960155Y-112625461D01*
X80786496Y-112741496D01*
X80670461Y-112915155D01*
X80629715Y-113120000D01*
X71665000Y-113120000D01*
X71665000Y-109761958D01*
X83615000Y-109761958D01*
X83615000Y-110478042D01*
X83889034Y-111139618D01*
X84395382Y-111645966D01*
X85056958Y-111920000D01*
X85773042Y-111920000D01*
X86434618Y-111645966D01*
X86940966Y-111139618D01*
X87215000Y-110478042D01*
X87215000Y-109761958D01*
X86940966Y-109100382D01*
X86434618Y-108594034D01*
X85773042Y-108320000D01*
X85056958Y-108320000D01*
X84395382Y-108594034D01*
X83889034Y-109100382D01*
X83615000Y-109761958D01*
X71665000Y-109761958D01*
X71665000Y-89168500D01*
X76547000Y-89168500D01*
X76547000Y-89930884D01*
X76647174Y-90172727D01*
X76832273Y-90357825D01*
X77074115Y-90458000D01*
X77177811Y-90458000D01*
X76960525Y-90675286D01*
X76755000Y-91171468D01*
X76755000Y-91708532D01*
X76960525Y-92204714D01*
X77340286Y-92584475D01*
X77643331Y-92710000D01*
X77340286Y-92835525D01*
X76960525Y-93215286D01*
X76755000Y-93711468D01*
X76755000Y-94248532D01*
X76960525Y-94744714D01*
X77340286Y-95124475D01*
X77643331Y-95250000D01*
X77340286Y-95375525D01*
X76960525Y-95755286D01*
X76755000Y-96251468D01*
X76755000Y-96788532D01*
X76960525Y-97284714D01*
X77340286Y-97664475D01*
X77643331Y-97790000D01*
X77340286Y-97915525D01*
X76960525Y-98295286D01*
X76755000Y-98791468D01*
X76755000Y-99328532D01*
X76960525Y-99824714D01*
X77340286Y-100204475D01*
X77643331Y-100330000D01*
X77340286Y-100455525D01*
X76960525Y-100835286D01*
X76755000Y-101331468D01*
X76755000Y-101868532D01*
X76960525Y-102364714D01*
X77340286Y-102744475D01*
X77643331Y-102870000D01*
X77340286Y-102995525D01*
X76960525Y-103375286D01*
X76755000Y-103871468D01*
X76755000Y-104408532D01*
X76960525Y-104904714D01*
X77340286Y-105284475D01*
X77836468Y-105490000D01*
X78373532Y-105490000D01*
X78869714Y-105284475D01*
X79249475Y-104904714D01*
X79375000Y-104601669D01*
X79500525Y-104904714D01*
X79880286Y-105284475D01*
X80376468Y-105490000D01*
X80913532Y-105490000D01*
X81409714Y-105284475D01*
X81789475Y-104904714D01*
X81857702Y-104740000D01*
X93803629Y-104740000D01*
X93921836Y-104858207D01*
X94215870Y-104980000D01*
X94534130Y-104980000D01*
X94828164Y-104858207D01*
X95053207Y-104633164D01*
X95175000Y-104339130D01*
X95175000Y-104020870D01*
X95053207Y-103726836D01*
X94828164Y-103501793D01*
X94534130Y-103380000D01*
X94215870Y-103380000D01*
X93921836Y-103501793D01*
X93883629Y-103540000D01*
X81857702Y-103540000D01*
X81789475Y-103375286D01*
X81409714Y-102995525D01*
X81106669Y-102870000D01*
X81409714Y-102744475D01*
X81789475Y-102364714D01*
X81857702Y-102200000D01*
X96343629Y-102200000D01*
X96461836Y-102318207D01*
X96755870Y-102440000D01*
X97074130Y-102440000D01*
X97368164Y-102318207D01*
X97593207Y-102093164D01*
X97715000Y-101799130D01*
X97715000Y-101480870D01*
X97593207Y-101186836D01*
X97368164Y-100961793D01*
X97267267Y-100920000D01*
X99102733Y-100920000D01*
X99001836Y-100961793D01*
X98776793Y-101186836D01*
X98655000Y-101480870D01*
X98655000Y-101799130D01*
X98776793Y-102093164D01*
X99001836Y-102318207D01*
X99295870Y-102440000D01*
X99614130Y-102440000D01*
X99908164Y-102318207D01*
X99986371Y-102240000D01*
X111271473Y-102240000D01*
X112278775Y-103247303D01*
X112312247Y-103297397D01*
X112500645Y-103423281D01*
X112315000Y-103871468D01*
X112315000Y-104408532D01*
X112487291Y-104824479D01*
X98750832Y-104824479D01*
X98698013Y-104813973D01*
X98640124Y-104756084D01*
X98346090Y-104634291D01*
X98027830Y-104634291D01*
X97733796Y-104756084D01*
X97508753Y-104981127D01*
X97386960Y-105275161D01*
X97386960Y-105593421D01*
X97508753Y-105887455D01*
X97733796Y-106112498D01*
X98027830Y-106234291D01*
X98346090Y-106234291D01*
X98640124Y-106112498D01*
X98712697Y-106039925D01*
X98741020Y-106034291D01*
X98741025Y-106034291D01*
X98790353Y-106024479D01*
X112475296Y-106024479D01*
X112315000Y-106411468D01*
X112315000Y-106948532D01*
X112520525Y-107444714D01*
X112900286Y-107824475D01*
X113203331Y-107950000D01*
X112900286Y-108075525D01*
X112520525Y-108455286D01*
X112315000Y-108951468D01*
X112315000Y-109488532D01*
X112520525Y-109984714D01*
X112900286Y-110364475D01*
X113203331Y-110490000D01*
X112900286Y-110615525D01*
X112520525Y-110995286D01*
X112315000Y-111491468D01*
X112315000Y-112028532D01*
X112520525Y-112524714D01*
X112565811Y-112570000D01*
X105219170Y-112570000D01*
X105165000Y-112559225D01*
X105110830Y-112570000D01*
X104950401Y-112601911D01*
X104768472Y-112723472D01*
X104646911Y-112905401D01*
X104604225Y-113120000D01*
X104615000Y-113174170D01*
X104615001Y-119565825D01*
X104604225Y-119620000D01*
X104646911Y-119834599D01*
X104768472Y-120016528D01*
X104950401Y-120138089D01*
X105110830Y-120170000D01*
X105165000Y-120180775D01*
X105219170Y-120170000D01*
X112610830Y-120170000D01*
X112665000Y-120180775D01*
X112719170Y-120170000D01*
X112879599Y-120138089D01*
X113061528Y-120016528D01*
X113183089Y-119834599D01*
X113225775Y-119620000D01*
X113215000Y-119565830D01*
X113215000Y-113174170D01*
X113225775Y-113120000D01*
X113208281Y-113032050D01*
X113396468Y-113110000D01*
X113933532Y-113110000D01*
X114429714Y-112904475D01*
X114809475Y-112524714D01*
X114928787Y-112236669D01*
X115060525Y-112554714D01*
X115440286Y-112934475D01*
X115936468Y-113140000D01*
X116473532Y-113140000D01*
X116969714Y-112934475D01*
X117349475Y-112554714D01*
X117555000Y-112058532D01*
X117555000Y-111521468D01*
X117349475Y-111025286D01*
X116969714Y-110645525D01*
X116666669Y-110520000D01*
X116969714Y-110394475D01*
X117349475Y-110014714D01*
X117555000Y-109518532D01*
X117555000Y-108981468D01*
X117349475Y-108485286D01*
X116969714Y-108105525D01*
X116666669Y-107980000D01*
X116969714Y-107854475D01*
X117349475Y-107474714D01*
X117555000Y-106978532D01*
X117555000Y-106441468D01*
X117349475Y-105945286D01*
X116969714Y-105565525D01*
X116666669Y-105440000D01*
X116969714Y-105314475D01*
X117349475Y-104934714D01*
X117555000Y-104438532D01*
X117555000Y-103901468D01*
X117349475Y-103405286D01*
X116969714Y-103025525D01*
X116666669Y-102900000D01*
X116969714Y-102774475D01*
X117349475Y-102394714D01*
X117555000Y-101898532D01*
X117555000Y-101361468D01*
X117349475Y-100865286D01*
X116969714Y-100485525D01*
X116666669Y-100360000D01*
X116969714Y-100234475D01*
X117349475Y-99854714D01*
X117555000Y-99358532D01*
X117555000Y-98821468D01*
X117349475Y-98325286D01*
X116969714Y-97945525D01*
X116666669Y-97820000D01*
X116969714Y-97694475D01*
X117349475Y-97314714D01*
X117555000Y-96818532D01*
X117555000Y-96281468D01*
X117349475Y-95785286D01*
X116969714Y-95405525D01*
X116630456Y-95265000D01*
X116969714Y-95124475D01*
X117349475Y-94744714D01*
X117555000Y-94248532D01*
X117555000Y-93711468D01*
X117349475Y-93215286D01*
X116969714Y-92835525D01*
X116702883Y-92725000D01*
X116969714Y-92614475D01*
X117349475Y-92234714D01*
X117555000Y-91738532D01*
X117555000Y-91201468D01*
X117349475Y-90705286D01*
X116969714Y-90325525D01*
X116948359Y-90316679D01*
X117052569Y-90273514D01*
X117135708Y-90007786D01*
X116205000Y-89077078D01*
X116190858Y-89091221D01*
X116043780Y-88944143D01*
X116057922Y-88930000D01*
X116352078Y-88930000D01*
X117282786Y-89860708D01*
X117548514Y-89777569D01*
X117770597Y-89198911D01*
X117754331Y-88579314D01*
X117548514Y-88082431D01*
X117282786Y-87999292D01*
X116352078Y-88930000D01*
X116057922Y-88930000D01*
X116043780Y-88915858D01*
X116190858Y-88768780D01*
X116205000Y-88782922D01*
X117135708Y-87852214D01*
X117052569Y-87586486D01*
X116473911Y-87364403D01*
X115854314Y-87380669D01*
X115357431Y-87586486D01*
X115274293Y-87852212D01*
X115174778Y-87752697D01*
X115122826Y-87627273D01*
X114937727Y-87442175D01*
X114695885Y-87342000D01*
X113933500Y-87342000D01*
X113769000Y-87506500D01*
X113769000Y-88796000D01*
X113789000Y-88796000D01*
X113789000Y-89004000D01*
X113769000Y-89004000D01*
X113769000Y-89024000D01*
X113561000Y-89024000D01*
X113561000Y-89004000D01*
X112271500Y-89004000D01*
X112107000Y-89168500D01*
X112107000Y-89930884D01*
X112207174Y-90172727D01*
X112392273Y-90357825D01*
X112634115Y-90458000D01*
X112737811Y-90458000D01*
X112520525Y-90675286D01*
X112315000Y-91171468D01*
X112315000Y-91708532D01*
X112520525Y-92204714D01*
X112900286Y-92584475D01*
X113203331Y-92710000D01*
X112900286Y-92835525D01*
X112520525Y-93215286D01*
X112452298Y-93380000D01*
X106606371Y-93380000D01*
X106568164Y-93341793D01*
X106274130Y-93220000D01*
X105955870Y-93220000D01*
X105661836Y-93341793D01*
X105436793Y-93566836D01*
X105315000Y-93860870D01*
X105315000Y-94179130D01*
X105436793Y-94473164D01*
X105661836Y-94698207D01*
X105955870Y-94820000D01*
X106274130Y-94820000D01*
X106568164Y-94698207D01*
X106686371Y-94580000D01*
X112452298Y-94580000D01*
X112520525Y-94744714D01*
X112900286Y-95124475D01*
X113203331Y-95250000D01*
X112900286Y-95375525D01*
X112520525Y-95755286D01*
X112315000Y-96251468D01*
X112315000Y-96788532D01*
X112473009Y-97170000D01*
X106796392Y-97170000D01*
X106718185Y-97091793D01*
X106424151Y-96970000D01*
X106105891Y-96970000D01*
X105811857Y-97091793D01*
X105586814Y-97316836D01*
X105465021Y-97610870D01*
X105465021Y-97929130D01*
X105586814Y-98223164D01*
X105811857Y-98448207D01*
X106105891Y-98570000D01*
X106424151Y-98570000D01*
X106718185Y-98448207D01*
X106796392Y-98370000D01*
X112489577Y-98370000D01*
X112315000Y-98791468D01*
X112315000Y-99328532D01*
X112520525Y-99824714D01*
X112900286Y-100204475D01*
X113203331Y-100330000D01*
X112900286Y-100455525D01*
X112520525Y-100835286D01*
X112315000Y-101331468D01*
X112315000Y-101586473D01*
X111986049Y-101257521D01*
X111952575Y-101207425D01*
X111754108Y-101074813D01*
X111579091Y-101040000D01*
X111579086Y-101040000D01*
X111520000Y-101028247D01*
X111460914Y-101040000D01*
X104467267Y-101040000D01*
X104568164Y-100998207D01*
X104793207Y-100773164D01*
X104915000Y-100479130D01*
X104915000Y-100160870D01*
X104793207Y-99866836D01*
X104568164Y-99641793D01*
X104274130Y-99520000D01*
X103955870Y-99520000D01*
X103661836Y-99641793D01*
X103583629Y-99720000D01*
X102506371Y-99720000D01*
X102673207Y-99553164D01*
X102795000Y-99259130D01*
X102795000Y-98940870D01*
X102673207Y-98646836D01*
X102448164Y-98421793D01*
X102154130Y-98300000D01*
X101835870Y-98300000D01*
X101541836Y-98421793D01*
X101503629Y-98460000D01*
X81857702Y-98460000D01*
X81789475Y-98295286D01*
X81409714Y-97915525D01*
X81106669Y-97790000D01*
X81409714Y-97664475D01*
X81789475Y-97284714D01*
X81995000Y-96788532D01*
X81995000Y-96251468D01*
X81789475Y-95755286D01*
X81409714Y-95375525D01*
X81106669Y-95250000D01*
X81409714Y-95124475D01*
X81789475Y-94744714D01*
X81995000Y-94248532D01*
X81995000Y-93711468D01*
X81789475Y-93215286D01*
X81409714Y-92835525D01*
X81106669Y-92710000D01*
X81409714Y-92584475D01*
X81789475Y-92204714D01*
X81995000Y-91708532D01*
X81995000Y-91171468D01*
X81789475Y-90675286D01*
X81409714Y-90295525D01*
X81388359Y-90286679D01*
X81492569Y-90243514D01*
X81575708Y-89977786D01*
X80645000Y-89047078D01*
X80630858Y-89061221D01*
X80483780Y-88914143D01*
X80497922Y-88900000D01*
X80792078Y-88900000D01*
X81722786Y-89830708D01*
X81988514Y-89747569D01*
X82210597Y-89168911D01*
X82194331Y-88549314D01*
X81988514Y-88052431D01*
X81722786Y-87969292D01*
X80792078Y-88900000D01*
X80497922Y-88900000D01*
X80483780Y-88885858D01*
X80630858Y-88738780D01*
X80645000Y-88752922D01*
X81575708Y-87822214D01*
X81492569Y-87556486D01*
X80913911Y-87334403D01*
X80294314Y-87350669D01*
X79797431Y-87556486D01*
X79714293Y-87822212D01*
X79597363Y-87705282D01*
X79595790Y-87706855D01*
X79562826Y-87627273D01*
X79377727Y-87442175D01*
X79135885Y-87342000D01*
X78373500Y-87342000D01*
X78209000Y-87506500D01*
X78209000Y-88796000D01*
X78229000Y-88796000D01*
X78229000Y-89004000D01*
X78209000Y-89004000D01*
X78209000Y-89024000D01*
X78001000Y-89024000D01*
X78001000Y-89004000D01*
X76711500Y-89004000D01*
X76547000Y-89168500D01*
X71665000Y-89168500D01*
X71665000Y-87869116D01*
X76547000Y-87869116D01*
X76547000Y-88631500D01*
X76711500Y-88796000D01*
X78001000Y-88796000D01*
X78001000Y-87506500D01*
X77836500Y-87342000D01*
X77074115Y-87342000D01*
X76832273Y-87442175D01*
X76647174Y-87627273D01*
X76547000Y-87869116D01*
X71665000Y-87869116D01*
X71665000Y-86261958D01*
X83615000Y-86261958D01*
X83615000Y-86978042D01*
X83889034Y-87639618D01*
X84395382Y-88145966D01*
X85056958Y-88420000D01*
X85773042Y-88420000D01*
X86434618Y-88145966D01*
X86940966Y-87639618D01*
X87153927Y-87125483D01*
X88436596Y-87125483D01*
X88507498Y-87380839D01*
X89049946Y-87586228D01*
X89629701Y-87568397D01*
X90082502Y-87380839D01*
X90153404Y-87125483D01*
X89295000Y-86267078D01*
X88436596Y-87125483D01*
X87153927Y-87125483D01*
X87215000Y-86978042D01*
X87215000Y-86261958D01*
X87054695Y-85874946D01*
X87828772Y-85874946D01*
X87846603Y-86454701D01*
X88034161Y-86907502D01*
X88289517Y-86978404D01*
X89147922Y-86120000D01*
X89442078Y-86120000D01*
X90300483Y-86978404D01*
X90555839Y-86907502D01*
X90676359Y-86589200D01*
X90775301Y-86828068D01*
X91126932Y-87179699D01*
X91586360Y-87370000D01*
X92083640Y-87370000D01*
X92543068Y-87179699D01*
X92894699Y-86828068D01*
X93085000Y-86368640D01*
X93085000Y-85871360D01*
X93125000Y-85871360D01*
X93125000Y-86368640D01*
X93315301Y-86828068D01*
X93666932Y-87179699D01*
X94126360Y-87370000D01*
X94623640Y-87370000D01*
X95083068Y-87179699D01*
X95434699Y-86828068D01*
X95625000Y-86368640D01*
X95625000Y-85871360D01*
X95665000Y-85871360D01*
X95665000Y-86368640D01*
X95855301Y-86828068D01*
X96206932Y-87179699D01*
X96666360Y-87370000D01*
X97163640Y-87370000D01*
X97623068Y-87179699D01*
X97974699Y-86828068D01*
X98165000Y-86368640D01*
X98165000Y-85871360D01*
X98205000Y-85871360D01*
X98205000Y-86368640D01*
X98395301Y-86828068D01*
X98746932Y-87179699D01*
X99206360Y-87370000D01*
X99703640Y-87370000D01*
X100163068Y-87179699D01*
X100514699Y-86828068D01*
X100705000Y-86368640D01*
X100705000Y-85871360D01*
X100745000Y-85871360D01*
X100745000Y-86368640D01*
X100935301Y-86828068D01*
X101286932Y-87179699D01*
X101746360Y-87370000D01*
X102243640Y-87370000D01*
X102703068Y-87179699D01*
X103054699Y-86828068D01*
X103245000Y-86368640D01*
X103245000Y-85871360D01*
X103285000Y-85871360D01*
X103285000Y-86368640D01*
X103475301Y-86828068D01*
X103826932Y-87179699D01*
X104286360Y-87370000D01*
X104783640Y-87370000D01*
X105243068Y-87179699D01*
X105594699Y-86828068D01*
X105785000Y-86368640D01*
X105785000Y-86261958D01*
X106615000Y-86261958D01*
X106615000Y-86978042D01*
X106889034Y-87639618D01*
X107395382Y-88145966D01*
X108056958Y-88420000D01*
X108773042Y-88420000D01*
X109434618Y-88145966D01*
X109711468Y-87869116D01*
X112107000Y-87869116D01*
X112107000Y-88631500D01*
X112271500Y-88796000D01*
X113561000Y-88796000D01*
X113561000Y-87506500D01*
X113396500Y-87342000D01*
X112634115Y-87342000D01*
X112392273Y-87442175D01*
X112207174Y-87627273D01*
X112107000Y-87869116D01*
X109711468Y-87869116D01*
X109940966Y-87639618D01*
X110215000Y-86978042D01*
X110215000Y-86261958D01*
X109940966Y-85600382D01*
X109434618Y-85094034D01*
X108773042Y-84820000D01*
X108056958Y-84820000D01*
X107395382Y-85094034D01*
X106889034Y-85600382D01*
X106615000Y-86261958D01*
X105785000Y-86261958D01*
X105785000Y-85871360D01*
X105594699Y-85411932D01*
X105243068Y-85060301D01*
X104783640Y-84870000D01*
X104286360Y-84870000D01*
X103826932Y-85060301D01*
X103475301Y-85411932D01*
X103285000Y-85871360D01*
X103245000Y-85871360D01*
X103054699Y-85411932D01*
X102703068Y-85060301D01*
X102243640Y-84870000D01*
X101746360Y-84870000D01*
X101286932Y-85060301D01*
X100935301Y-85411932D01*
X100745000Y-85871360D01*
X100705000Y-85871360D01*
X100514699Y-85411932D01*
X100163068Y-85060301D01*
X99703640Y-84870000D01*
X99206360Y-84870000D01*
X98746932Y-85060301D01*
X98395301Y-85411932D01*
X98205000Y-85871360D01*
X98165000Y-85871360D01*
X97974699Y-85411932D01*
X97623068Y-85060301D01*
X97163640Y-84870000D01*
X96666360Y-84870000D01*
X96206932Y-85060301D01*
X95855301Y-85411932D01*
X95665000Y-85871360D01*
X95625000Y-85871360D01*
X95434699Y-85411932D01*
X95083068Y-85060301D01*
X94623640Y-84870000D01*
X94126360Y-84870000D01*
X93666932Y-85060301D01*
X93315301Y-85411932D01*
X93125000Y-85871360D01*
X93085000Y-85871360D01*
X92894699Y-85411932D01*
X92543068Y-85060301D01*
X92083640Y-84870000D01*
X91586360Y-84870000D01*
X91126932Y-85060301D01*
X90775301Y-85411932D01*
X90682022Y-85637128D01*
X90555839Y-85332498D01*
X90300483Y-85261596D01*
X89442078Y-86120000D01*
X89147922Y-86120000D01*
X88289517Y-85261596D01*
X88034161Y-85332498D01*
X87828772Y-85874946D01*
X87054695Y-85874946D01*
X86940966Y-85600382D01*
X86455101Y-85114517D01*
X88436596Y-85114517D01*
X89295000Y-85972922D01*
X90153404Y-85114517D01*
X90082502Y-84859161D01*
X89540054Y-84653772D01*
X88960299Y-84671603D01*
X88507498Y-84859161D01*
X88436596Y-85114517D01*
X86455101Y-85114517D01*
X86434618Y-85094034D01*
X85773042Y-84820000D01*
X85056958Y-84820000D01*
X84395382Y-85094034D01*
X83889034Y-85600382D01*
X83615000Y-86261958D01*
X71665000Y-86261958D01*
X71665000Y-76302132D01*
X72847132Y-75120000D01*
X120982868Y-75120000D01*
X122165000Y-76302132D01*
G04 #@! TD*
M02*
