G04 #@! TF.GenerationSoftware,KiCad,Pcbnew,6.0.11-2627ca5db0~126~ubuntu22.04.1*
G04 #@! TF.CreationDate,2023-12-06T10:27:33+01:00*
G04 #@! TF.ProjectId,roomthermostat,726f6f6d-7468-4657-926d-6f737461742e,C*
G04 #@! TF.SameCoordinates,Original*
G04 #@! TF.FileFunction,Copper,L2,Bot*
G04 #@! TF.FilePolarity,Positive*
%FSLAX46Y46*%
G04 Gerber Fmt 4.6, Leading zero omitted, Abs format (unit mm)*
G04 Created by KiCad (PCBNEW 6.0.11-2627ca5db0~126~ubuntu22.04.1) date 2023-12-06 10:27:33*
%MOMM*%
%LPD*%
G01*
G04 APERTURE LIST*
%ADD10C,0.200000*%
G04 #@! TA.AperFunction,NonConductor*
%ADD11C,0.200000*%
G04 #@! TD*
G04 #@! TA.AperFunction,ComponentPad*
%ADD12C,1.600000*%
G04 #@! TD*
G04 #@! TA.AperFunction,ComponentPad*
%ADD13C,2.700000*%
G04 #@! TD*
G04 #@! TA.AperFunction,ComponentPad*
%ADD14R,1.800000X1.800000*%
G04 #@! TD*
G04 #@! TA.AperFunction,ComponentPad*
%ADD15C,1.800000*%
G04 #@! TD*
G04 #@! TA.AperFunction,SMDPad,CuDef*
%ADD16R,0.889000X1.397000*%
G04 #@! TD*
G04 #@! TA.AperFunction,ComponentPad*
%ADD17C,3.500000*%
G04 #@! TD*
G04 #@! TA.AperFunction,ViaPad*
%ADD18C,1.000000*%
G04 #@! TD*
G04 #@! TA.AperFunction,ViaPad*
%ADD19C,0.700000*%
G04 #@! TD*
G04 #@! TA.AperFunction,Conductor*
%ADD20C,0.300000*%
G04 #@! TD*
G04 #@! TA.AperFunction,Conductor*
%ADD21C,0.500000*%
G04 #@! TD*
G04 APERTURE END LIST*
D10*
D11*
X65367380Y-82750952D02*
X65367380Y-82179523D01*
X65367380Y-82465238D02*
X64367380Y-82465238D01*
X64510238Y-82370000D01*
X64605476Y-82274761D01*
X64653095Y-82179523D01*
X64367380Y-83370000D02*
X64367380Y-83465238D01*
X64415000Y-83560476D01*
X64462619Y-83608095D01*
X64557857Y-83655714D01*
X64748333Y-83703333D01*
X64986428Y-83703333D01*
X65176904Y-83655714D01*
X65272142Y-83608095D01*
X65319761Y-83560476D01*
X65367380Y-83465238D01*
X65367380Y-83370000D01*
X65319761Y-83274761D01*
X65272142Y-83227142D01*
X65176904Y-83179523D01*
X64986428Y-83131904D01*
X64748333Y-83131904D01*
X64557857Y-83179523D01*
X64462619Y-83227142D01*
X64415000Y-83274761D01*
X64367380Y-83370000D01*
X64319761Y-84846190D02*
X65605476Y-83989047D01*
X64462619Y-85131904D02*
X64415000Y-85179523D01*
X64367380Y-85274761D01*
X64367380Y-85512857D01*
X64415000Y-85608095D01*
X64462619Y-85655714D01*
X64557857Y-85703333D01*
X64653095Y-85703333D01*
X64795952Y-85655714D01*
X65367380Y-85084285D01*
X65367380Y-85703333D01*
X64367380Y-86322380D02*
X64367380Y-86417619D01*
X64415000Y-86512857D01*
X64462619Y-86560476D01*
X64557857Y-86608095D01*
X64748333Y-86655714D01*
X64986428Y-86655714D01*
X65176904Y-86608095D01*
X65272142Y-86560476D01*
X65319761Y-86512857D01*
X65367380Y-86417619D01*
X65367380Y-86322380D01*
X65319761Y-86227142D01*
X65272142Y-86179523D01*
X65176904Y-86131904D01*
X64986428Y-86084285D01*
X64748333Y-86084285D01*
X64557857Y-86131904D01*
X64462619Y-86179523D01*
X64415000Y-86227142D01*
X64367380Y-86322380D01*
X64462619Y-87036666D02*
X64415000Y-87084285D01*
X64367380Y-87179523D01*
X64367380Y-87417619D01*
X64415000Y-87512857D01*
X64462619Y-87560476D01*
X64557857Y-87608095D01*
X64653095Y-87608095D01*
X64795952Y-87560476D01*
X65367380Y-86989047D01*
X65367380Y-87608095D01*
X64367380Y-87941428D02*
X64367380Y-88560476D01*
X64748333Y-88227142D01*
X64748333Y-88370000D01*
X64795952Y-88465238D01*
X64843571Y-88512857D01*
X64938809Y-88560476D01*
X65176904Y-88560476D01*
X65272142Y-88512857D01*
X65319761Y-88465238D01*
X65367380Y-88370000D01*
X65367380Y-88084285D01*
X65319761Y-87989047D01*
X65272142Y-87941428D01*
D10*
D11*
X115546904Y-68767380D02*
X115546904Y-68100714D01*
X115546904Y-68291190D02*
X115499285Y-68195952D01*
X115451666Y-68148333D01*
X115356428Y-68100714D01*
X115261190Y-68100714D01*
X114785000Y-68767380D02*
X114880238Y-68719761D01*
X114927857Y-68672142D01*
X114975476Y-68576904D01*
X114975476Y-68291190D01*
X114927857Y-68195952D01*
X114880238Y-68148333D01*
X114785000Y-68100714D01*
X114642142Y-68100714D01*
X114546904Y-68148333D01*
X114499285Y-68195952D01*
X114451666Y-68291190D01*
X114451666Y-68576904D01*
X114499285Y-68672142D01*
X114546904Y-68719761D01*
X114642142Y-68767380D01*
X114785000Y-68767380D01*
X113880238Y-68767380D02*
X113975476Y-68719761D01*
X114023095Y-68672142D01*
X114070714Y-68576904D01*
X114070714Y-68291190D01*
X114023095Y-68195952D01*
X113975476Y-68148333D01*
X113880238Y-68100714D01*
X113737380Y-68100714D01*
X113642142Y-68148333D01*
X113594523Y-68195952D01*
X113546904Y-68291190D01*
X113546904Y-68576904D01*
X113594523Y-68672142D01*
X113642142Y-68719761D01*
X113737380Y-68767380D01*
X113880238Y-68767380D01*
X113118333Y-68767380D02*
X113118333Y-68100714D01*
X113118333Y-68195952D02*
X113070714Y-68148333D01*
X112975476Y-68100714D01*
X112832619Y-68100714D01*
X112737380Y-68148333D01*
X112689761Y-68243571D01*
X112689761Y-68767380D01*
X112689761Y-68243571D02*
X112642142Y-68148333D01*
X112546904Y-68100714D01*
X112404047Y-68100714D01*
X112308809Y-68148333D01*
X112261190Y-68243571D01*
X112261190Y-68767380D01*
X111927857Y-68100714D02*
X111546904Y-68100714D01*
X111785000Y-67767380D02*
X111785000Y-68624523D01*
X111737380Y-68719761D01*
X111642142Y-68767380D01*
X111546904Y-68767380D01*
X111213571Y-68767380D02*
X111213571Y-67767380D01*
X110785000Y-68767380D02*
X110785000Y-68243571D01*
X110832619Y-68148333D01*
X110927857Y-68100714D01*
X111070714Y-68100714D01*
X111165952Y-68148333D01*
X111213571Y-68195952D01*
X109927857Y-68719761D02*
X110023095Y-68767380D01*
X110213571Y-68767380D01*
X110308809Y-68719761D01*
X110356428Y-68624523D01*
X110356428Y-68243571D01*
X110308809Y-68148333D01*
X110213571Y-68100714D01*
X110023095Y-68100714D01*
X109927857Y-68148333D01*
X109880238Y-68243571D01*
X109880238Y-68338809D01*
X110356428Y-68434047D01*
X109451666Y-68767380D02*
X109451666Y-68100714D01*
X109451666Y-68291190D02*
X109404047Y-68195952D01*
X109356428Y-68148333D01*
X109261190Y-68100714D01*
X109165952Y-68100714D01*
X108832619Y-68767380D02*
X108832619Y-68100714D01*
X108832619Y-68195952D02*
X108785000Y-68148333D01*
X108689761Y-68100714D01*
X108546904Y-68100714D01*
X108451666Y-68148333D01*
X108404047Y-68243571D01*
X108404047Y-68767380D01*
X108404047Y-68243571D02*
X108356428Y-68148333D01*
X108261190Y-68100714D01*
X108118333Y-68100714D01*
X108023095Y-68148333D01*
X107975476Y-68243571D01*
X107975476Y-68767380D01*
X107356428Y-68767380D02*
X107451666Y-68719761D01*
X107499285Y-68672142D01*
X107546904Y-68576904D01*
X107546904Y-68291190D01*
X107499285Y-68195952D01*
X107451666Y-68148333D01*
X107356428Y-68100714D01*
X107213571Y-68100714D01*
X107118333Y-68148333D01*
X107070714Y-68195952D01*
X107023095Y-68291190D01*
X107023095Y-68576904D01*
X107070714Y-68672142D01*
X107118333Y-68719761D01*
X107213571Y-68767380D01*
X107356428Y-68767380D01*
X106642142Y-68719761D02*
X106546904Y-68767380D01*
X106356428Y-68767380D01*
X106261190Y-68719761D01*
X106213571Y-68624523D01*
X106213571Y-68576904D01*
X106261190Y-68481666D01*
X106356428Y-68434047D01*
X106499285Y-68434047D01*
X106594523Y-68386428D01*
X106642142Y-68291190D01*
X106642142Y-68243571D01*
X106594523Y-68148333D01*
X106499285Y-68100714D01*
X106356428Y-68100714D01*
X106261190Y-68148333D01*
X105927857Y-68100714D02*
X105546904Y-68100714D01*
X105785000Y-67767380D02*
X105785000Y-68624523D01*
X105737380Y-68719761D01*
X105642142Y-68767380D01*
X105546904Y-68767380D01*
X104785000Y-68767380D02*
X104785000Y-68243571D01*
X104832619Y-68148333D01*
X104927857Y-68100714D01*
X105118333Y-68100714D01*
X105213571Y-68148333D01*
X104785000Y-68719761D02*
X104880238Y-68767380D01*
X105118333Y-68767380D01*
X105213571Y-68719761D01*
X105261190Y-68624523D01*
X105261190Y-68529285D01*
X105213571Y-68434047D01*
X105118333Y-68386428D01*
X104880238Y-68386428D01*
X104785000Y-68338809D01*
X104451666Y-68100714D02*
X104070714Y-68100714D01*
X104308809Y-67767380D02*
X104308809Y-68624523D01*
X104261190Y-68719761D01*
X104165952Y-68767380D01*
X104070714Y-68767380D01*
X114975476Y-70377380D02*
X115308809Y-69901190D01*
X115546904Y-70377380D02*
X115546904Y-69377380D01*
X115165952Y-69377380D01*
X115070714Y-69425000D01*
X115023095Y-69472619D01*
X114975476Y-69567857D01*
X114975476Y-69710714D01*
X115023095Y-69805952D01*
X115070714Y-69853571D01*
X115165952Y-69901190D01*
X115546904Y-69901190D01*
X114165952Y-70329761D02*
X114261190Y-70377380D01*
X114451666Y-70377380D01*
X114546904Y-70329761D01*
X114594523Y-70234523D01*
X114594523Y-69853571D01*
X114546904Y-69758333D01*
X114451666Y-69710714D01*
X114261190Y-69710714D01*
X114165952Y-69758333D01*
X114118333Y-69853571D01*
X114118333Y-69948809D01*
X114594523Y-70044047D01*
X113785000Y-69710714D02*
X113546904Y-70377380D01*
X113308809Y-69710714D01*
X112927857Y-70282142D02*
X112880238Y-70329761D01*
X112927857Y-70377380D01*
X112975476Y-70329761D01*
X112927857Y-70282142D01*
X112927857Y-70377380D01*
X111118333Y-70282142D02*
X111165952Y-70329761D01*
X111308809Y-70377380D01*
X111404047Y-70377380D01*
X111546904Y-70329761D01*
X111642142Y-70234523D01*
X111689761Y-70139285D01*
X111737380Y-69948809D01*
X111737380Y-69805952D01*
X111689761Y-69615476D01*
X111642142Y-69520238D01*
X111546904Y-69425000D01*
X111404047Y-69377380D01*
X111308809Y-69377380D01*
X111165952Y-69425000D01*
X111118333Y-69472619D01*
D10*
D11*
X115415000Y-133322380D02*
X115415000Y-132322380D01*
X115415000Y-132703333D02*
X115319761Y-132655714D01*
X115129285Y-132655714D01*
X115034047Y-132703333D01*
X114986428Y-132750952D01*
X114938809Y-132846190D01*
X114938809Y-133131904D01*
X114986428Y-133227142D01*
X115034047Y-133274761D01*
X115129285Y-133322380D01*
X115319761Y-133322380D01*
X115415000Y-133274761D01*
X114081666Y-133322380D02*
X114081666Y-132798571D01*
X114129285Y-132703333D01*
X114224523Y-132655714D01*
X114415000Y-132655714D01*
X114510238Y-132703333D01*
X114081666Y-133274761D02*
X114176904Y-133322380D01*
X114415000Y-133322380D01*
X114510238Y-133274761D01*
X114557857Y-133179523D01*
X114557857Y-133084285D01*
X114510238Y-132989047D01*
X114415000Y-132941428D01*
X114176904Y-132941428D01*
X114081666Y-132893809D01*
X113176904Y-133274761D02*
X113272142Y-133322380D01*
X113462619Y-133322380D01*
X113557857Y-133274761D01*
X113605476Y-133227142D01*
X113653095Y-133131904D01*
X113653095Y-132846190D01*
X113605476Y-132750952D01*
X113557857Y-132703333D01*
X113462619Y-132655714D01*
X113272142Y-132655714D01*
X113176904Y-132703333D01*
X112748333Y-133322380D02*
X112748333Y-132322380D01*
X112653095Y-132941428D02*
X112367380Y-133322380D01*
X112367380Y-132655714D02*
X112748333Y-133036666D01*
D12*
X89295000Y-86120000D03*
X91835000Y-86120000D03*
X94375000Y-86120000D03*
X96915000Y-86120000D03*
X99455000Y-86120000D03*
X101995000Y-86120000D03*
X104535000Y-86120000D03*
D13*
X85415000Y-86620000D03*
X85415000Y-110120000D03*
X108415000Y-110120000D03*
X108415000Y-86620000D03*
D14*
X103415000Y-83160000D03*
D15*
X103415000Y-80620000D03*
X103415000Y-78080000D03*
D16*
X91517500Y-81955000D03*
X89612500Y-81955000D03*
X98502500Y-81955000D03*
X100407500Y-81955000D03*
X95962500Y-81955000D03*
X94057500Y-81955000D03*
D14*
X113665000Y-88900000D03*
D15*
X116205000Y-88930000D03*
X113665000Y-91440000D03*
X116205000Y-91470000D03*
X113665000Y-93980000D03*
X116205000Y-93980000D03*
X113665000Y-96520000D03*
X116205000Y-96550000D03*
X113665000Y-99060000D03*
X116205000Y-99090000D03*
X113665000Y-101600000D03*
X116205000Y-101630000D03*
X113665000Y-104140000D03*
X116205000Y-104170000D03*
X113665000Y-106680000D03*
X116205000Y-106710000D03*
X113665000Y-109220000D03*
X116205000Y-109250000D03*
X113665000Y-111760000D03*
X116205000Y-111790000D03*
D14*
X78105000Y-88900000D03*
D15*
X80645000Y-88900000D03*
X78105000Y-91440000D03*
X80645000Y-91440000D03*
X78105000Y-93980000D03*
X80645000Y-93980000D03*
X78105000Y-96520000D03*
X80645000Y-96520000D03*
X78105000Y-99060000D03*
X80645000Y-99060000D03*
X78105000Y-101600000D03*
X80645000Y-101600000D03*
X78105000Y-104140000D03*
X80645000Y-104140000D03*
D17*
X92075000Y-110840000D03*
D18*
X98820000Y-83860000D03*
D19*
X94121002Y-104140000D03*
X95391000Y-101600000D03*
X102990999Y-105429999D03*
X94883000Y-97830000D03*
X96280000Y-83860000D03*
X106165000Y-116370000D03*
X106759010Y-97770000D03*
X87915000Y-116370000D03*
X106567000Y-93980000D03*
X99665000Y-116370000D03*
X95010000Y-83860000D03*
X93105000Y-99100000D03*
X100979000Y-102402000D03*
X103011000Y-103672004D03*
D20*
X91835000Y-86120000D02*
X91835000Y-83860000D01*
X91517500Y-83542500D02*
X91517500Y-81955000D01*
X91835000Y-83860000D02*
X91517500Y-83542500D01*
D21*
X100407500Y-82907500D02*
X99455000Y-83860000D01*
X100407500Y-81955000D02*
X100407500Y-82907500D01*
X99455000Y-83860000D02*
X98820000Y-83860000D01*
D20*
X89612500Y-83542500D02*
X89295000Y-83860000D01*
X89295000Y-83860000D02*
X89295000Y-86120000D01*
X89612500Y-81955000D02*
X89612500Y-83542500D01*
X94121002Y-97555996D02*
X94121002Y-104140000D01*
X94375000Y-97301998D02*
X94121002Y-97555996D01*
X94375000Y-86120000D02*
X94375000Y-97301998D01*
X96915000Y-96834002D02*
X95391000Y-98358002D01*
X96915000Y-86120000D02*
X96915000Y-96834002D01*
X95391000Y-98358002D02*
X95391000Y-101600000D01*
X101995000Y-104434000D02*
X102990999Y-105429999D01*
X101995000Y-86120000D02*
X101995000Y-104434000D01*
X94883000Y-97830000D02*
X95645000Y-97068000D01*
X95645000Y-85140000D02*
X95645000Y-97068000D01*
X96280000Y-84495000D02*
X96285000Y-84500000D01*
X96285000Y-84500000D02*
X95645000Y-85140000D01*
X96280000Y-83860000D02*
X96280000Y-84495000D01*
X106165000Y-116370000D02*
X106165000Y-108120000D01*
X106165000Y-108120000D02*
X106759010Y-107525990D01*
X106759010Y-107525990D02*
X106759010Y-97770000D01*
X87915000Y-109370000D02*
X87915000Y-116370000D01*
X105297000Y-93351998D02*
X105297000Y-106488000D01*
X114975000Y-92750000D02*
X114285002Y-92750000D01*
X116205000Y-93980000D02*
X114975000Y-92750000D01*
X87915000Y-109370000D02*
X89915000Y-107370000D01*
X113064999Y-92729999D02*
X113044998Y-92750000D01*
X113044998Y-92750000D02*
X105898998Y-92750000D01*
X105898998Y-92750000D02*
X105297000Y-93351998D01*
X114285002Y-92750000D02*
X114265001Y-92729999D01*
X114265001Y-92729999D02*
X113064999Y-92729999D01*
X89915000Y-107370000D02*
X104415000Y-107370000D01*
X105297000Y-106488000D02*
X104415000Y-107370000D01*
X99665000Y-110120000D02*
X99665000Y-116370000D01*
X104535000Y-108498000D02*
X106059000Y-106974000D01*
X106567000Y-93980000D02*
X106059000Y-94488000D01*
X101287000Y-108498000D02*
X99665000Y-110120000D01*
X104535000Y-108498000D02*
X101287000Y-108498000D01*
X106059000Y-94488000D02*
X106059000Y-106974000D01*
X103415000Y-83160000D02*
X103415000Y-83120000D01*
X103415000Y-83120000D02*
X100915000Y-80620000D01*
X98502500Y-81955000D02*
X95962500Y-81955000D01*
X99165000Y-80620000D02*
X98502500Y-81282500D01*
X98502500Y-81282500D02*
X98502500Y-81955000D01*
X95962500Y-82907500D02*
X95010000Y-83860000D01*
X95962500Y-81955000D02*
X95962500Y-82907500D01*
X100915000Y-80620000D02*
X99165000Y-80620000D01*
X93105000Y-82907500D02*
X93105000Y-99100000D01*
X94057500Y-81955000D02*
X93105000Y-82907500D01*
X99455000Y-86120000D02*
X100979000Y-87644000D01*
X100979000Y-87644000D02*
X100979000Y-102402000D01*
X103011000Y-87644000D02*
X103011000Y-103672004D01*
X104535000Y-86120000D02*
X103011000Y-87644000D01*
G04 #@! TA.AperFunction,Conductor*
G36*
X103330476Y-66890462D02*
G01*
X103385014Y-66945000D01*
X103404976Y-67019500D01*
X103404976Y-69005381D01*
X103385014Y-69079881D01*
X103330476Y-69134419D01*
X103255976Y-69154381D01*
X103184088Y-69135892D01*
X103067089Y-69071446D01*
X102998197Y-69033499D01*
X102742534Y-68934879D01*
X102737629Y-68933716D01*
X102737623Y-68933714D01*
X102512521Y-68880335D01*
X102503285Y-68877604D01*
X102498721Y-68876365D01*
X102493304Y-68874435D01*
X102488376Y-68873498D01*
X102488134Y-68873415D01*
X102485686Y-68872976D01*
X102485676Y-68872974D01*
X102485423Y-68872929D01*
X102483861Y-68872640D01*
X102481999Y-68872286D01*
X102481995Y-68872286D01*
X102481166Y-68872128D01*
X102480906Y-68872119D01*
X102475973Y-68871235D01*
X102470224Y-68871103D01*
X102468726Y-68870953D01*
X102459930Y-68869805D01*
X101473869Y-68711049D01*
X101473863Y-68711048D01*
X101472738Y-68710867D01*
X101101765Y-68663233D01*
X100460987Y-68580956D01*
X100460961Y-68580953D01*
X100459831Y-68580808D01*
X100458677Y-68580697D01*
X100458658Y-68580695D01*
X100042964Y-68540759D01*
X99443289Y-68483147D01*
X98424148Y-68417984D01*
X98422957Y-68417946D01*
X98422937Y-68417945D01*
X97404639Y-68385425D01*
X97404631Y-68385425D01*
X97403445Y-68385387D01*
X96382223Y-68385387D01*
X96381037Y-68385425D01*
X96381029Y-68385425D01*
X95362731Y-68417945D01*
X95362711Y-68417946D01*
X95361520Y-68417984D01*
X94342379Y-68483147D01*
X93742704Y-68540759D01*
X93327010Y-68580695D01*
X93326991Y-68580697D01*
X93325837Y-68580808D01*
X93324707Y-68580953D01*
X93324681Y-68580956D01*
X92683903Y-68663233D01*
X92312930Y-68710867D01*
X92311804Y-68711048D01*
X92311799Y-68711049D01*
X91331423Y-68868889D01*
X91321835Y-68870073D01*
X91316692Y-68870119D01*
X91311014Y-68871055D01*
X91311011Y-68871055D01*
X91310185Y-68871191D01*
X91310180Y-68871192D01*
X91304502Y-68872128D01*
X91299037Y-68873926D01*
X91299029Y-68873928D01*
X91271518Y-68882980D01*
X91269755Y-68883497D01*
X91267283Y-68883937D01*
X91242278Y-68892517D01*
X91237314Y-68894220D01*
X91235523Y-68894822D01*
X91168317Y-68916932D01*
X91165977Y-68918541D01*
X91163887Y-68919413D01*
X91060314Y-68954950D01*
X91034972Y-68961227D01*
X91020371Y-68963509D01*
X91014895Y-68965260D01*
X91014891Y-68965261D01*
X91014082Y-68965520D01*
X91008603Y-68967272D01*
X91003462Y-68969844D01*
X91001216Y-68970759D01*
X90995559Y-68973329D01*
X90957402Y-68988963D01*
X90759871Y-69069898D01*
X90755532Y-69072400D01*
X90755529Y-69072402D01*
X90531161Y-69201807D01*
X90531157Y-69201810D01*
X90526827Y-69204307D01*
X90313875Y-69368705D01*
X90310366Y-69372259D01*
X90310361Y-69372263D01*
X90135787Y-69549055D01*
X90124849Y-69560132D01*
X89963152Y-69775143D01*
X89960706Y-69779511D01*
X89842523Y-69990533D01*
X89831696Y-70009865D01*
X89732848Y-70260074D01*
X89668386Y-70521263D01*
X89667849Y-70526233D01*
X89667848Y-70526237D01*
X89643741Y-70749244D01*
X89639472Y-70788731D01*
X89646626Y-71057663D01*
X89689719Y-71323215D01*
X89691172Y-71327995D01*
X89691173Y-71327998D01*
X89731167Y-71459541D01*
X89767976Y-71580608D01*
X89770059Y-71585156D01*
X89770061Y-71585162D01*
X89833754Y-71724248D01*
X89879988Y-71825208D01*
X89882659Y-71829434D01*
X89882661Y-71829437D01*
X90021060Y-72048375D01*
X90021064Y-72048380D01*
X90023737Y-72052609D01*
X90196636Y-72258718D01*
X90326572Y-72377009D01*
X90382180Y-72427633D01*
X90395572Y-72439825D01*
X90616964Y-72592669D01*
X90621423Y-72594934D01*
X90621425Y-72594935D01*
X90852358Y-72712229D01*
X90852362Y-72712231D01*
X90856824Y-72714497D01*
X90909699Y-72732944D01*
X91106106Y-72801467D01*
X91106109Y-72801468D01*
X91110836Y-72803117D01*
X91115742Y-72804119D01*
X91115747Y-72804120D01*
X91235292Y-72828527D01*
X91374425Y-72856933D01*
X91414638Y-72859636D01*
X91609732Y-72872750D01*
X91624446Y-72874478D01*
X91630491Y-72875495D01*
X91636730Y-72875571D01*
X91637093Y-72875576D01*
X91637097Y-72875576D01*
X91642845Y-72875646D01*
X91648533Y-72874831D01*
X91648538Y-72874831D01*
X91665427Y-72872412D01*
X91668273Y-72872004D01*
X91689398Y-72870499D01*
X91823392Y-72870499D01*
X91827620Y-72870753D01*
X91832303Y-72872010D01*
X91842915Y-72871774D01*
X91842917Y-72871774D01*
X91898532Y-72870536D01*
X91901847Y-72870499D01*
X91928774Y-72870499D01*
X91933108Y-72869879D01*
X91937681Y-72869665D01*
X91975634Y-72868820D01*
X91992922Y-72863344D01*
X92016782Y-72857896D01*
X92034752Y-72855322D01*
X92038292Y-72853712D01*
X92041691Y-72852946D01*
X92779806Y-72734618D01*
X92957555Y-72706123D01*
X92962776Y-72705381D01*
X93227959Y-72672474D01*
X93941814Y-72583891D01*
X93947073Y-72583333D01*
X94583940Y-72527166D01*
X94929820Y-72496662D01*
X94935072Y-72496293D01*
X95920279Y-72444556D01*
X95925529Y-72444374D01*
X96912015Y-72427633D01*
X96917252Y-72427638D01*
X97431128Y-72437161D01*
X97903609Y-72445917D01*
X97908894Y-72446108D01*
X98473876Y-72476661D01*
X98894063Y-72499384D01*
X98899299Y-72499761D01*
X99513784Y-72554921D01*
X99881889Y-72587964D01*
X99887147Y-72588530D01*
X100388124Y-72651491D01*
X100866008Y-72711551D01*
X100871206Y-72712297D01*
X101800538Y-72862767D01*
X101825380Y-72869022D01*
X101840732Y-72874327D01*
X101847553Y-72874656D01*
X101850202Y-72875263D01*
X101855701Y-72876981D01*
X101861396Y-72877831D01*
X101861400Y-72877832D01*
X101862226Y-72877955D01*
X101867921Y-72878805D01*
X101873124Y-72878772D01*
X101873664Y-72878809D01*
X101895557Y-72880307D01*
X102141359Y-72897128D01*
X102414769Y-72878782D01*
X102683204Y-72823718D01*
X102941757Y-72732944D01*
X102982240Y-72712229D01*
X103181214Y-72610413D01*
X103185699Y-72608118D01*
X103410571Y-72451523D01*
X103414283Y-72448109D01*
X103414288Y-72448105D01*
X103608551Y-72269435D01*
X103612262Y-72266022D01*
X103787083Y-72055008D01*
X103931837Y-71822337D01*
X104029334Y-71604729D01*
X104041819Y-71576864D01*
X104041821Y-71576857D01*
X104043879Y-71572265D01*
X104068802Y-71487479D01*
X104108965Y-71421633D01*
X104176669Y-71384690D01*
X104211754Y-71380500D01*
X116415500Y-71380500D01*
X116415500Y-70019500D01*
X116435462Y-69945000D01*
X116490000Y-69890462D01*
X116564500Y-69870500D01*
X124265500Y-69870500D01*
X124340000Y-69890462D01*
X124394538Y-69945000D01*
X124414500Y-70019500D01*
X124414500Y-80861450D01*
X124414497Y-80862360D01*
X124414128Y-80922825D01*
X124414031Y-80938624D01*
X124414754Y-80941152D01*
X124415000Y-80944765D01*
X124415000Y-81370000D01*
X124838747Y-81370000D01*
X124840259Y-81370112D01*
X124840259Y-81370093D01*
X124841560Y-81370101D01*
X124874317Y-81370301D01*
X124874883Y-81370325D01*
X124876009Y-81370500D01*
X124906450Y-81370500D01*
X124907360Y-81370503D01*
X124983624Y-81370969D01*
X124984999Y-81370576D01*
X124986116Y-81370500D01*
X130265500Y-81370500D01*
X130340000Y-81390462D01*
X130394538Y-81445000D01*
X130414500Y-81519500D01*
X130414500Y-119220500D01*
X130394538Y-119295000D01*
X130340000Y-119349538D01*
X130265500Y-119369500D01*
X124923550Y-119369500D01*
X124922640Y-119369497D01*
X124853782Y-119369076D01*
X124853779Y-119369076D01*
X124846376Y-119369031D01*
X124843848Y-119369754D01*
X124840235Y-119370000D01*
X124165000Y-119370000D01*
X124165444Y-119390436D01*
X124165444Y-119390437D01*
X124176055Y-119878550D01*
X124411629Y-130714899D01*
X124411680Y-130717262D01*
X124393341Y-130792178D01*
X124340002Y-130847888D01*
X124262715Y-130869500D01*
X116423550Y-130869500D01*
X116422640Y-130869497D01*
X116353782Y-130869076D01*
X116353779Y-130869076D01*
X116346376Y-130869031D01*
X116343848Y-130869754D01*
X116340235Y-130870000D01*
X115915000Y-130870000D01*
X115915000Y-131265500D01*
X115895038Y-131340000D01*
X115840500Y-131394538D01*
X115766000Y-131414500D01*
X111576405Y-131414500D01*
X111576405Y-133720500D01*
X111556443Y-133795000D01*
X111501905Y-133849538D01*
X111427405Y-133869500D01*
X78064500Y-133869500D01*
X77990000Y-133849538D01*
X77935462Y-133795000D01*
X77915500Y-133720500D01*
X77915500Y-131378550D01*
X77915503Y-131377640D01*
X77915924Y-131308782D01*
X77915924Y-131308779D01*
X77915969Y-131301376D01*
X77915246Y-131298848D01*
X77915000Y-131295235D01*
X77915000Y-130870000D01*
X77491253Y-130870000D01*
X77489741Y-130869888D01*
X77489741Y-130869907D01*
X77488440Y-130869899D01*
X77455683Y-130869699D01*
X77455117Y-130869675D01*
X77453991Y-130869500D01*
X77423550Y-130869500D01*
X77422640Y-130869497D01*
X77422675Y-130869497D01*
X77346376Y-130869031D01*
X77345001Y-130869424D01*
X77343884Y-130869500D01*
X69564500Y-130869500D01*
X69490000Y-130849538D01*
X69435462Y-130795000D01*
X69415500Y-130720500D01*
X69415500Y-129992014D01*
X89641892Y-129992014D01*
X89674704Y-130263985D01*
X89675977Y-130268860D01*
X89736448Y-130500468D01*
X89743908Y-130529042D01*
X89848239Y-130782340D01*
X89985788Y-131019246D01*
X90154042Y-131235430D01*
X90349922Y-131426938D01*
X90569849Y-131590268D01*
X90809800Y-131722435D01*
X91065389Y-131821021D01*
X91070289Y-131822183D01*
X91070296Y-131822185D01*
X91295282Y-131875531D01*
X91304613Y-131878290D01*
X91309115Y-131879512D01*
X91314530Y-131881442D01*
X91319474Y-131882382D01*
X91319710Y-131882463D01*
X91321999Y-131882873D01*
X91322007Y-131882875D01*
X91322366Y-131882939D01*
X91323901Y-131883223D01*
X91326668Y-131883749D01*
X91326933Y-131883758D01*
X91331871Y-131884643D01*
X91337628Y-131884775D01*
X91339113Y-131884924D01*
X91347902Y-131886072D01*
X92333965Y-132044828D01*
X92333971Y-132044829D01*
X92335096Y-132045010D01*
X92706069Y-132092644D01*
X93346847Y-132174921D01*
X93346873Y-132174924D01*
X93348003Y-132175069D01*
X93349157Y-132175180D01*
X93349176Y-132175182D01*
X93764870Y-132215118D01*
X94364545Y-132272730D01*
X95383686Y-132337893D01*
X95384877Y-132337931D01*
X95384897Y-132337932D01*
X96403195Y-132370452D01*
X96403203Y-132370452D01*
X96404389Y-132370490D01*
X97425611Y-132370490D01*
X97426797Y-132370452D01*
X97426805Y-132370452D01*
X98445103Y-132337932D01*
X98445123Y-132337931D01*
X98446314Y-132337893D01*
X99465455Y-132272730D01*
X100065130Y-132215118D01*
X100480824Y-132175182D01*
X100480843Y-132175180D01*
X100481997Y-132175069D01*
X100483127Y-132174924D01*
X100483153Y-132174921D01*
X101123931Y-132092644D01*
X101494904Y-132045010D01*
X101496030Y-132044829D01*
X101496035Y-132044828D01*
X102476411Y-131886988D01*
X102485999Y-131885804D01*
X102491142Y-131885758D01*
X102496820Y-131884822D01*
X102496823Y-131884822D01*
X102497649Y-131884686D01*
X102497654Y-131884685D01*
X102503332Y-131883749D01*
X102508797Y-131881951D01*
X102508805Y-131881949D01*
X102536316Y-131872897D01*
X102538079Y-131872380D01*
X102540551Y-131871940D01*
X102570520Y-131861657D01*
X102572311Y-131861055D01*
X102632350Y-131841303D01*
X102632352Y-131841302D01*
X102639517Y-131838945D01*
X102641858Y-131837335D01*
X102643946Y-131836464D01*
X102685562Y-131822185D01*
X102747523Y-131800925D01*
X102772863Y-131794649D01*
X102787476Y-131792365D01*
X102799244Y-131788601D01*
X102804388Y-131786027D01*
X102807024Y-131784953D01*
X102811886Y-131782745D01*
X103007961Y-131702400D01*
X103047982Y-131686001D01*
X103281022Y-131551588D01*
X103493969Y-131387187D01*
X103497478Y-131383633D01*
X103497484Y-131383628D01*
X103679478Y-131199315D01*
X103679480Y-131199313D01*
X103682991Y-131195757D01*
X103697646Y-131176270D01*
X103841675Y-130984745D01*
X103841675Y-130984744D01*
X103844683Y-130980745D01*
X103865253Y-130944016D01*
X103973693Y-130750382D01*
X103976135Y-130746022D01*
X104074981Y-130495814D01*
X104076177Y-130490966D01*
X104076180Y-130490958D01*
X104138243Y-130239476D01*
X104139440Y-130234626D01*
X104164083Y-130006652D01*
X104167814Y-129972141D01*
X104167814Y-129972133D01*
X104168352Y-129967159D01*
X104161197Y-129698229D01*
X104150758Y-129633899D01*
X104123359Y-129465067D01*
X104118103Y-129432678D01*
X104039847Y-129175287D01*
X103927836Y-128930689D01*
X103784089Y-128703288D01*
X103779621Y-128697962D01*
X103614414Y-128501018D01*
X103614408Y-128501012D01*
X103611192Y-128497178D01*
X103600544Y-128487484D01*
X103415960Y-128319439D01*
X103415957Y-128319436D01*
X103412259Y-128316070D01*
X103190871Y-128163225D01*
X102951014Y-128041394D01*
X102946284Y-128039744D01*
X102946280Y-128039742D01*
X102701728Y-127954418D01*
X102697005Y-127952770D01*
X102433419Y-127898949D01*
X102428436Y-127898614D01*
X102428429Y-127898613D01*
X102198123Y-127883128D01*
X102183399Y-127881399D01*
X102183398Y-127881399D01*
X102177354Y-127880382D01*
X102171185Y-127880307D01*
X102170754Y-127880301D01*
X102170750Y-127880301D01*
X102165000Y-127880231D01*
X102159302Y-127881047D01*
X102139569Y-127883873D01*
X102118446Y-127885378D01*
X101984441Y-127885378D01*
X101980213Y-127885124D01*
X101975530Y-127883867D01*
X101964918Y-127884103D01*
X101964916Y-127884103D01*
X101909301Y-127885341D01*
X101905986Y-127885378D01*
X101879060Y-127885378D01*
X101874726Y-127885998D01*
X101870153Y-127886212D01*
X101832199Y-127887057D01*
X101822080Y-127890262D01*
X101822075Y-127890263D01*
X101814909Y-127892533D01*
X101791048Y-127897982D01*
X101773082Y-127900555D01*
X101769538Y-127902167D01*
X101766143Y-127902932D01*
X101249521Y-127985759D01*
X100850276Y-128049768D01*
X100845044Y-128050512D01*
X99865983Y-128172044D01*
X99860727Y-128172602D01*
X98877966Y-128259334D01*
X98872693Y-128259705D01*
X97887491Y-128311526D01*
X97882209Y-128311710D01*
X97633726Y-128315954D01*
X96895772Y-128328557D01*
X96890528Y-128328554D01*
X95904063Y-128310403D01*
X95898827Y-128310214D01*
X94913645Y-128257089D01*
X94908421Y-128256715D01*
X93925724Y-128168681D01*
X93920523Y-128168122D01*
X92941592Y-128045293D01*
X92936376Y-128044544D01*
X92563075Y-127984188D01*
X92007155Y-127894306D01*
X91982307Y-127888057D01*
X91979411Y-127887057D01*
X91966822Y-127882710D01*
X91960040Y-127882384D01*
X91957472Y-127881795D01*
X91951986Y-127880082D01*
X91946301Y-127879233D01*
X91946297Y-127879232D01*
X91945940Y-127879179D01*
X91939767Y-127878257D01*
X91934005Y-127878293D01*
X91929329Y-127877960D01*
X91927953Y-127877917D01*
X91801769Y-127869279D01*
X91671432Y-127860355D01*
X91671425Y-127860355D01*
X91666400Y-127860011D01*
X91393072Y-127878344D01*
X91388143Y-127879355D01*
X91388135Y-127879356D01*
X91129649Y-127932372D01*
X91124715Y-127933384D01*
X91119962Y-127935053D01*
X91119957Y-127935054D01*
X91064799Y-127954418D01*
X90866238Y-128024125D01*
X90622365Y-128148909D01*
X90397557Y-128305452D01*
X90195924Y-128490894D01*
X90021152Y-128701843D01*
X90018490Y-128706121D01*
X90018489Y-128706123D01*
X89879099Y-128930164D01*
X89879095Y-128930171D01*
X89876438Y-128934442D01*
X89764427Y-129184438D01*
X89763003Y-129189281D01*
X89763003Y-129189282D01*
X89721666Y-129329904D01*
X89687167Y-129447261D01*
X89665112Y-129592620D01*
X89649837Y-129693291D01*
X89646072Y-129718103D01*
X89641892Y-129992014D01*
X69415500Y-129992014D01*
X69415500Y-119878550D01*
X69415503Y-119877640D01*
X69415924Y-119808782D01*
X69415924Y-119808779D01*
X69415969Y-119801376D01*
X69415246Y-119798848D01*
X69415000Y-119795235D01*
X69415000Y-119370000D01*
X68991253Y-119370000D01*
X68989741Y-119369888D01*
X68989741Y-119369907D01*
X68988440Y-119369899D01*
X68955683Y-119369699D01*
X68955117Y-119369675D01*
X68953991Y-119369500D01*
X68923550Y-119369500D01*
X68922640Y-119369497D01*
X68922675Y-119369497D01*
X68846376Y-119369031D01*
X68845001Y-119369424D01*
X68843884Y-119369500D01*
X63564500Y-119369500D01*
X63490000Y-119349538D01*
X63435462Y-119295000D01*
X63415500Y-119220500D01*
X63415500Y-110061726D01*
X83560688Y-110061726D01*
X83560895Y-110066996D01*
X83560895Y-110066998D01*
X83562535Y-110108734D01*
X83570977Y-110323582D01*
X83618058Y-110581376D01*
X83619726Y-110586377D01*
X83619728Y-110586383D01*
X83699324Y-110824961D01*
X83699327Y-110824968D01*
X83700994Y-110829965D01*
X83818128Y-111064387D01*
X83821117Y-111068712D01*
X83821119Y-111068715D01*
X83866503Y-111134380D01*
X83967124Y-111279967D01*
X84145010Y-111472402D01*
X84149086Y-111475720D01*
X84149092Y-111475726D01*
X84288039Y-111588846D01*
X84348235Y-111637853D01*
X84572745Y-111773019D01*
X84612847Y-111790000D01*
X84774967Y-111858649D01*
X84814060Y-111875203D01*
X84819159Y-111876555D01*
X84819162Y-111876556D01*
X85062262Y-111941013D01*
X85067365Y-111942366D01*
X85327607Y-111973167D01*
X85589592Y-111966993D01*
X85745681Y-111941013D01*
X85842905Y-111924831D01*
X85842909Y-111924830D01*
X85848094Y-111923967D01*
X86054627Y-111858649D01*
X86092941Y-111846532D01*
X86092944Y-111846531D01*
X86097955Y-111844946D01*
X86102689Y-111842673D01*
X86102696Y-111842670D01*
X86253399Y-111770303D01*
X86334188Y-111731509D01*
X86552082Y-111585917D01*
X86747287Y-111411076D01*
X86800617Y-111347633D01*
X86912519Y-111214509D01*
X86915910Y-111210475D01*
X86965144Y-111131532D01*
X86989072Y-111093164D01*
X87045434Y-111040514D01*
X87120570Y-111023098D01*
X87194348Y-111045584D01*
X87246998Y-111101946D01*
X87264500Y-111172012D01*
X87264500Y-115764205D01*
X87244538Y-115838705D01*
X87232686Y-115855019D01*
X87232955Y-115855215D01*
X87228362Y-115861536D01*
X87223141Y-115867335D01*
X87133750Y-116022165D01*
X87078503Y-116192197D01*
X87059815Y-116370000D01*
X87078503Y-116547803D01*
X87133750Y-116717835D01*
X87223141Y-116872665D01*
X87228363Y-116878465D01*
X87228367Y-116878470D01*
X87320256Y-116980521D01*
X87342770Y-117005526D01*
X87487407Y-117110612D01*
X87650733Y-117183329D01*
X87825609Y-117220500D01*
X88004391Y-117220500D01*
X88179267Y-117183329D01*
X88342593Y-117110612D01*
X88487230Y-117005526D01*
X88509744Y-116980521D01*
X88601633Y-116878470D01*
X88601637Y-116878465D01*
X88606859Y-116872665D01*
X88696250Y-116717835D01*
X88751497Y-116547803D01*
X88770185Y-116370000D01*
X88751497Y-116192197D01*
X88696250Y-116022165D01*
X88606859Y-115867335D01*
X88601638Y-115861536D01*
X88597045Y-115855215D01*
X88598721Y-115853997D01*
X88568754Y-115795175D01*
X88565500Y-115764205D01*
X88565500Y-110840000D01*
X89819671Y-110840000D01*
X89819990Y-110844867D01*
X89836265Y-111093164D01*
X89838966Y-111134380D01*
X89839917Y-111139159D01*
X89839917Y-111139162D01*
X89881384Y-111347633D01*
X89896519Y-111423722D01*
X89991348Y-111703077D01*
X89993504Y-111707450D01*
X89993507Y-111707456D01*
X90026852Y-111775072D01*
X90121828Y-111967664D01*
X90285727Y-112212957D01*
X90480242Y-112434758D01*
X90702043Y-112629273D01*
X90947335Y-112793172D01*
X91086568Y-112861834D01*
X91207544Y-112921493D01*
X91207550Y-112921496D01*
X91211923Y-112923652D01*
X91491278Y-113018481D01*
X91496059Y-113019432D01*
X91775838Y-113075083D01*
X91775841Y-113075083D01*
X91780620Y-113076034D01*
X91785481Y-113076353D01*
X91785484Y-113076353D01*
X92070133Y-113095010D01*
X92075000Y-113095329D01*
X92079867Y-113095010D01*
X92364516Y-113076353D01*
X92364519Y-113076353D01*
X92369380Y-113076034D01*
X92374159Y-113075083D01*
X92374162Y-113075083D01*
X92653941Y-113019432D01*
X92658722Y-113018481D01*
X92938077Y-112923652D01*
X92942450Y-112921496D01*
X92942456Y-112921493D01*
X93063432Y-112861834D01*
X93202665Y-112793172D01*
X93447957Y-112629273D01*
X93669758Y-112434758D01*
X93864273Y-112212957D01*
X94028172Y-111967664D01*
X94123148Y-111775072D01*
X94156493Y-111707456D01*
X94156496Y-111707450D01*
X94158652Y-111703077D01*
X94253481Y-111423722D01*
X94268616Y-111347633D01*
X94310083Y-111139162D01*
X94310083Y-111139159D01*
X94311034Y-111134380D01*
X94313736Y-111093164D01*
X94330010Y-110844867D01*
X94330329Y-110840000D01*
X94324643Y-110753255D01*
X94311353Y-110550484D01*
X94311353Y-110550481D01*
X94311034Y-110545620D01*
X94308945Y-110535115D01*
X94254432Y-110261059D01*
X94253481Y-110256278D01*
X94158652Y-109976923D01*
X94154400Y-109968299D01*
X94090961Y-109839660D01*
X94028172Y-109712336D01*
X94021392Y-109702188D01*
X93946620Y-109590284D01*
X93864273Y-109467043D01*
X93669758Y-109245242D01*
X93447957Y-109050727D01*
X93202665Y-108886828D01*
X92976626Y-108775358D01*
X92942456Y-108758507D01*
X92942450Y-108758504D01*
X92938077Y-108756348D01*
X92658722Y-108661519D01*
X92572854Y-108644439D01*
X92374162Y-108604917D01*
X92374159Y-108604917D01*
X92369380Y-108603966D01*
X92364519Y-108603647D01*
X92364516Y-108603647D01*
X92079867Y-108584990D01*
X92075000Y-108584671D01*
X92070133Y-108584990D01*
X91785484Y-108603647D01*
X91785481Y-108603647D01*
X91780620Y-108603966D01*
X91775841Y-108604917D01*
X91775838Y-108604917D01*
X91577146Y-108644439D01*
X91491278Y-108661519D01*
X91211923Y-108756348D01*
X91207550Y-108758504D01*
X91207544Y-108758507D01*
X91117221Y-108803050D01*
X90947336Y-108886828D01*
X90943289Y-108889532D01*
X90943284Y-108889535D01*
X90842805Y-108956673D01*
X90702043Y-109050727D01*
X90480242Y-109245242D01*
X90285727Y-109467043D01*
X90203380Y-109590284D01*
X90128609Y-109702188D01*
X90121828Y-109712336D01*
X90059039Y-109839660D01*
X89995601Y-109968299D01*
X89991348Y-109976923D01*
X89896519Y-110256278D01*
X89895568Y-110261059D01*
X89841056Y-110535115D01*
X89838966Y-110545620D01*
X89838647Y-110550481D01*
X89838647Y-110550484D01*
X89825357Y-110753255D01*
X89819671Y-110840000D01*
X88565500Y-110840000D01*
X88565500Y-109701164D01*
X88585462Y-109626664D01*
X88609141Y-109595805D01*
X90140805Y-108064141D01*
X90207600Y-108025577D01*
X90246164Y-108020500D01*
X100484836Y-108020500D01*
X100559336Y-108040462D01*
X100613874Y-108095000D01*
X100633836Y-108169500D01*
X100613874Y-108244000D01*
X100590195Y-108274859D01*
X99261701Y-109603353D01*
X99253879Y-109610471D01*
X99247060Y-109614798D01*
X99240643Y-109621632D01*
X99240640Y-109621634D01*
X99199428Y-109665521D01*
X99196171Y-109668883D01*
X99176089Y-109688965D01*
X99173223Y-109692659D01*
X99170352Y-109695916D01*
X99164995Y-109702188D01*
X99155466Y-109712336D01*
X99134552Y-109734607D01*
X99125274Y-109751485D01*
X99112443Y-109771017D01*
X99100638Y-109786236D01*
X99096914Y-109794841D01*
X99096912Y-109794845D01*
X99082977Y-109827049D01*
X99076805Y-109839648D01*
X99055373Y-109878632D01*
X99053042Y-109887711D01*
X99050583Y-109897288D01*
X99043011Y-109919406D01*
X99035365Y-109937074D01*
X99033899Y-109946330D01*
X99033898Y-109946333D01*
X99028409Y-109980990D01*
X99025563Y-109994734D01*
X99014500Y-110037823D01*
X99014500Y-110057079D01*
X99012665Y-110080389D01*
X99011997Y-110084609D01*
X99009653Y-110099405D01*
X99010535Y-110108734D01*
X99013839Y-110143686D01*
X99014500Y-110157709D01*
X99014500Y-115764205D01*
X98994538Y-115838705D01*
X98982686Y-115855019D01*
X98982955Y-115855215D01*
X98978362Y-115861536D01*
X98973141Y-115867335D01*
X98883750Y-116022165D01*
X98828503Y-116192197D01*
X98809815Y-116370000D01*
X98828503Y-116547803D01*
X98883750Y-116717835D01*
X98973141Y-116872665D01*
X98978363Y-116878465D01*
X98978367Y-116878470D01*
X99070256Y-116980521D01*
X99092770Y-117005526D01*
X99237407Y-117110612D01*
X99400733Y-117183329D01*
X99575609Y-117220500D01*
X99754391Y-117220500D01*
X99929267Y-117183329D01*
X100092593Y-117110612D01*
X100237230Y-117005526D01*
X100259744Y-116980521D01*
X100351633Y-116878470D01*
X100351637Y-116878465D01*
X100356859Y-116872665D01*
X100446250Y-116717835D01*
X100501497Y-116547803D01*
X100520185Y-116370000D01*
X100501497Y-116192197D01*
X100446250Y-116022165D01*
X100356859Y-115867335D01*
X100351638Y-115861536D01*
X100347045Y-115855215D01*
X100348721Y-115853997D01*
X100318754Y-115795175D01*
X100315500Y-115764205D01*
X100315500Y-110451164D01*
X100335462Y-110376664D01*
X100359141Y-110345805D01*
X101512805Y-109192141D01*
X101579600Y-109153577D01*
X101618164Y-109148500D01*
X104454846Y-109148500D01*
X104465414Y-109148998D01*
X104473296Y-109150760D01*
X104542848Y-109148574D01*
X104547530Y-109148500D01*
X104575925Y-109148500D01*
X104580558Y-109147915D01*
X104584884Y-109147643D01*
X104593125Y-109146994D01*
X104599420Y-109146796D01*
X104628199Y-109145892D01*
X104628202Y-109145891D01*
X104637569Y-109145597D01*
X104656058Y-109140225D01*
X104678953Y-109135484D01*
X104682522Y-109135033D01*
X104688757Y-109134246D01*
X104688758Y-109134246D01*
X104698058Y-109133071D01*
X104739411Y-109116698D01*
X104752694Y-109112150D01*
X104786393Y-109102360D01*
X104795398Y-109099744D01*
X104811976Y-109089940D01*
X104832963Y-109079658D01*
X104850871Y-109072568D01*
X104886854Y-109046425D01*
X104898576Y-109038725D01*
X104928795Y-109020854D01*
X104928798Y-109020852D01*
X104936865Y-109016081D01*
X104950480Y-109002466D01*
X104968259Y-108987281D01*
X104976255Y-108981472D01*
X104976257Y-108981470D01*
X104983837Y-108975963D01*
X105012185Y-108941696D01*
X105021633Y-108931313D01*
X105260141Y-108692805D01*
X105326936Y-108654241D01*
X105404064Y-108654241D01*
X105470859Y-108692805D01*
X105509423Y-108759600D01*
X105514500Y-108798164D01*
X105514500Y-115764205D01*
X105494538Y-115838705D01*
X105482686Y-115855019D01*
X105482955Y-115855215D01*
X105478362Y-115861536D01*
X105473141Y-115867335D01*
X105383750Y-116022165D01*
X105328503Y-116192197D01*
X105309815Y-116370000D01*
X105328503Y-116547803D01*
X105383750Y-116717835D01*
X105473141Y-116872665D01*
X105478363Y-116878465D01*
X105478367Y-116878470D01*
X105570256Y-116980521D01*
X105592770Y-117005526D01*
X105737407Y-117110612D01*
X105900733Y-117183329D01*
X106075609Y-117220500D01*
X106254391Y-117220500D01*
X106429267Y-117183329D01*
X106592593Y-117110612D01*
X106737230Y-117005526D01*
X106759744Y-116980521D01*
X106851633Y-116878470D01*
X106851637Y-116878465D01*
X106856859Y-116872665D01*
X106946250Y-116717835D01*
X107001497Y-116547803D01*
X107020185Y-116370000D01*
X107001497Y-116192197D01*
X106946250Y-116022165D01*
X106856859Y-115867335D01*
X106851638Y-115861536D01*
X106847045Y-115855215D01*
X106848721Y-115853997D01*
X106818754Y-115795175D01*
X106815500Y-115764205D01*
X106815500Y-111496633D01*
X106835462Y-111422133D01*
X106890000Y-111367595D01*
X106964500Y-111347633D01*
X107039000Y-111367595D01*
X107073914Y-111395492D01*
X107141430Y-111468530D01*
X107141436Y-111468535D01*
X107145010Y-111472402D01*
X107149086Y-111475720D01*
X107149092Y-111475726D01*
X107288039Y-111588846D01*
X107348235Y-111637853D01*
X107572745Y-111773019D01*
X107612847Y-111790000D01*
X107774967Y-111858649D01*
X107814060Y-111875203D01*
X107819159Y-111876555D01*
X107819162Y-111876556D01*
X108062262Y-111941013D01*
X108067365Y-111942366D01*
X108327607Y-111973167D01*
X108589592Y-111966993D01*
X108745681Y-111941013D01*
X108842905Y-111924831D01*
X108842909Y-111924830D01*
X108848094Y-111923967D01*
X109054627Y-111858649D01*
X109092941Y-111846532D01*
X109092944Y-111846531D01*
X109097955Y-111844946D01*
X109102689Y-111842673D01*
X109102696Y-111842670D01*
X109253399Y-111770303D01*
X109334188Y-111731509D01*
X109552082Y-111585917D01*
X109747287Y-111411076D01*
X109800617Y-111347633D01*
X109912519Y-111214509D01*
X109915910Y-111210475D01*
X109960385Y-111139162D01*
X110051802Y-110992581D01*
X110051806Y-110992574D01*
X110054586Y-110988116D01*
X110063705Y-110967490D01*
X110158417Y-110753255D01*
X110158419Y-110753250D01*
X110160547Y-110748436D01*
X110207663Y-110581376D01*
X110230254Y-110501277D01*
X110230255Y-110501272D01*
X110231681Y-110496216D01*
X110249017Y-110367147D01*
X110266060Y-110240260D01*
X110266060Y-110240255D01*
X110266566Y-110236491D01*
X110266686Y-110232684D01*
X110270108Y-110123801D01*
X110270108Y-110123792D01*
X110270227Y-110120000D01*
X110269430Y-110108734D01*
X110252091Y-109863850D01*
X110251719Y-109858596D01*
X110247643Y-109839660D01*
X110200702Y-109621634D01*
X110196563Y-109602408D01*
X110176113Y-109546975D01*
X110107685Y-109361493D01*
X110107683Y-109361489D01*
X110105860Y-109356547D01*
X110047781Y-109248908D01*
X109983919Y-109130551D01*
X109983917Y-109130548D01*
X109981420Y-109125920D01*
X109922710Y-109046432D01*
X109828854Y-108919360D01*
X109828849Y-108919354D01*
X109825726Y-108915126D01*
X109822035Y-108911377D01*
X109822032Y-108911373D01*
X109715396Y-108803050D01*
X109641884Y-108728374D01*
X109597057Y-108694163D01*
X109437750Y-108572584D01*
X109437748Y-108572583D01*
X109433562Y-108569388D01*
X109204917Y-108441340D01*
X109200006Y-108439440D01*
X108965429Y-108348689D01*
X108965426Y-108348688D01*
X108960512Y-108346787D01*
X108705221Y-108287614D01*
X108699973Y-108287159D01*
X108699970Y-108287159D01*
X108449398Y-108265457D01*
X108449394Y-108265457D01*
X108444141Y-108265002D01*
X108182478Y-108279402D01*
X108177320Y-108280428D01*
X108177312Y-108280429D01*
X107930623Y-108329499D01*
X107930620Y-108329500D01*
X107925456Y-108330527D01*
X107678201Y-108417357D01*
X107673538Y-108419779D01*
X107673534Y-108419781D01*
X107577542Y-108469645D01*
X107445647Y-108538159D01*
X107232434Y-108690523D01*
X107067347Y-108848008D01*
X106999662Y-108884988D01*
X106922556Y-108883170D01*
X106856688Y-108843043D01*
X106819708Y-108775358D01*
X106815500Y-108740196D01*
X106815500Y-108451164D01*
X106835462Y-108376664D01*
X106859141Y-108345805D01*
X107162309Y-108042637D01*
X107170131Y-108035519D01*
X107176950Y-108031192D01*
X107183367Y-108024358D01*
X107183370Y-108024356D01*
X107224582Y-107980469D01*
X107227839Y-107977107D01*
X107247921Y-107957025D01*
X107250787Y-107953331D01*
X107253658Y-107950074D01*
X107259015Y-107943802D01*
X107283041Y-107918217D01*
X107283043Y-107918215D01*
X107289458Y-107911383D01*
X107298736Y-107894505D01*
X107311567Y-107874973D01*
X107323372Y-107859754D01*
X107327096Y-107851149D01*
X107327098Y-107851145D01*
X107341033Y-107818941D01*
X107347205Y-107806342D01*
X107368637Y-107767358D01*
X107373427Y-107748702D01*
X107381001Y-107726579D01*
X107384923Y-107717516D01*
X107388645Y-107708916D01*
X107395601Y-107665000D01*
X107398447Y-107651256D01*
X107407179Y-107617247D01*
X107407179Y-107617244D01*
X107409510Y-107608167D01*
X107409510Y-107588911D01*
X107411345Y-107565601D01*
X107412891Y-107555843D01*
X107412891Y-107555840D01*
X107414357Y-107546585D01*
X107410559Y-107506412D01*
X107410171Y-107502304D01*
X107409510Y-107488281D01*
X107409510Y-98375795D01*
X107429472Y-98301295D01*
X107441324Y-98284981D01*
X107441055Y-98284785D01*
X107445648Y-98278464D01*
X107450869Y-98272665D01*
X107476632Y-98228043D01*
X107493952Y-98198043D01*
X107540260Y-98117835D01*
X107595507Y-97947803D01*
X107599734Y-97907592D01*
X107613379Y-97777764D01*
X107614195Y-97770000D01*
X107606846Y-97700076D01*
X107596323Y-97599959D01*
X107596323Y-97599957D01*
X107595507Y-97592197D01*
X107540260Y-97422165D01*
X107463078Y-97288481D01*
X107454774Y-97274098D01*
X107454772Y-97274095D01*
X107450869Y-97267335D01*
X107445647Y-97261535D01*
X107445643Y-97261530D01*
X107348477Y-97153618D01*
X107331240Y-97134474D01*
X107303539Y-97114348D01*
X107192918Y-97033976D01*
X107192917Y-97033975D01*
X107186603Y-97029388D01*
X107023277Y-96956671D01*
X106917964Y-96934286D01*
X106856034Y-96921122D01*
X106856030Y-96921122D01*
X106848401Y-96919500D01*
X106842286Y-96919500D01*
X106770918Y-96892103D01*
X106722381Y-96832162D01*
X106709500Y-96771561D01*
X106709500Y-94939869D01*
X106729462Y-94865369D01*
X106784000Y-94810831D01*
X106816519Y-94798348D01*
X106816200Y-94797366D01*
X106823626Y-94794953D01*
X106831267Y-94793329D01*
X106994593Y-94720612D01*
X107088137Y-94652648D01*
X107132914Y-94620115D01*
X107132915Y-94620114D01*
X107139230Y-94615526D01*
X107177462Y-94573065D01*
X107253633Y-94488470D01*
X107253637Y-94488465D01*
X107258859Y-94482665D01*
X107264670Y-94472601D01*
X107306446Y-94400242D01*
X107348250Y-94327835D01*
X107403497Y-94157803D01*
X107410189Y-94094139D01*
X107421369Y-93987764D01*
X107422185Y-93980000D01*
X107418576Y-93945665D01*
X107404313Y-93809959D01*
X107404313Y-93809957D01*
X107403497Y-93802197D01*
X107348250Y-93632165D01*
X107344344Y-93625399D01*
X107343536Y-93623999D01*
X107343256Y-93622956D01*
X107341169Y-93618267D01*
X107341912Y-93617936D01*
X107323574Y-93549499D01*
X107343537Y-93474999D01*
X107398075Y-93420462D01*
X107472574Y-93400500D01*
X112176330Y-93400500D01*
X112250830Y-93420462D01*
X112305368Y-93475000D01*
X112325330Y-93549500D01*
X112319912Y-93589314D01*
X112284592Y-93716673D01*
X112283942Y-93722756D01*
X112267700Y-93874734D01*
X112260119Y-93945665D01*
X112263732Y-94008328D01*
X112268938Y-94098604D01*
X112273376Y-94175580D01*
X112324006Y-94400242D01*
X112410649Y-94613618D01*
X112413843Y-94618830D01*
X112413845Y-94618834D01*
X112526695Y-94802987D01*
X112530979Y-94809978D01*
X112534987Y-94814605D01*
X112534990Y-94814609D01*
X112604731Y-94895120D01*
X112681763Y-94984048D01*
X112718451Y-95014507D01*
X112854127Y-95127147D01*
X112858953Y-95131154D01*
X112859421Y-95131428D01*
X112907865Y-95189159D01*
X112921259Y-95265115D01*
X112894881Y-95337592D01*
X112862289Y-95371284D01*
X112731984Y-95469119D01*
X112572877Y-95635616D01*
X112569434Y-95640664D01*
X112569431Y-95640667D01*
X112513934Y-95722023D01*
X112443099Y-95825863D01*
X112440529Y-95831400D01*
X112440526Y-95831405D01*
X112412616Y-95891532D01*
X112346136Y-96034752D01*
X112284592Y-96256673D01*
X112283942Y-96262756D01*
X112267828Y-96413537D01*
X112260119Y-96485665D01*
X112273376Y-96715580D01*
X112324006Y-96940242D01*
X112410649Y-97153618D01*
X112413843Y-97158830D01*
X112413845Y-97158834D01*
X112523220Y-97337317D01*
X112530979Y-97349978D01*
X112534987Y-97354605D01*
X112534990Y-97354609D01*
X112630718Y-97465120D01*
X112681763Y-97524048D01*
X112686473Y-97527958D01*
X112854127Y-97667147D01*
X112858953Y-97671154D01*
X112859421Y-97671428D01*
X112907865Y-97729159D01*
X112921259Y-97805115D01*
X112894881Y-97877592D01*
X112862289Y-97911284D01*
X112731984Y-98009119D01*
X112572877Y-98175616D01*
X112569434Y-98180664D01*
X112569431Y-98180667D01*
X112513934Y-98262023D01*
X112443099Y-98365863D01*
X112440529Y-98371400D01*
X112440526Y-98371405D01*
X112412616Y-98431532D01*
X112346136Y-98574752D01*
X112284592Y-98796673D01*
X112283942Y-98802756D01*
X112263734Y-98991842D01*
X112260119Y-99025665D01*
X112273376Y-99255580D01*
X112324006Y-99480242D01*
X112410649Y-99693618D01*
X112413843Y-99698830D01*
X112413845Y-99698834D01*
X112522065Y-99875432D01*
X112530979Y-99889978D01*
X112534987Y-99894605D01*
X112534990Y-99894609D01*
X112630718Y-100005120D01*
X112681763Y-100064048D01*
X112686473Y-100067958D01*
X112854127Y-100207147D01*
X112858953Y-100211154D01*
X112859421Y-100211428D01*
X112907865Y-100269159D01*
X112921259Y-100345115D01*
X112894881Y-100417592D01*
X112862289Y-100451284D01*
X112731984Y-100549119D01*
X112572877Y-100715616D01*
X112569434Y-100720664D01*
X112569431Y-100720667D01*
X112513934Y-100802023D01*
X112443099Y-100905863D01*
X112440529Y-100911400D01*
X112440526Y-100911405D01*
X112412616Y-100971532D01*
X112346136Y-101114752D01*
X112284592Y-101336673D01*
X112260119Y-101565665D01*
X112273376Y-101795580D01*
X112274719Y-101801538D01*
X112274719Y-101801540D01*
X112286407Y-101853401D01*
X112324006Y-102020242D01*
X112410649Y-102233618D01*
X112413843Y-102238830D01*
X112413845Y-102238834D01*
X112520776Y-102413329D01*
X112530979Y-102429978D01*
X112534987Y-102434605D01*
X112534990Y-102434609D01*
X112660761Y-102579803D01*
X112681763Y-102604048D01*
X112686473Y-102607958D01*
X112854127Y-102747147D01*
X112858953Y-102751154D01*
X112859421Y-102751428D01*
X112907865Y-102809159D01*
X112921259Y-102885115D01*
X112894881Y-102957592D01*
X112862289Y-102991284D01*
X112731984Y-103089119D01*
X112572877Y-103255616D01*
X112569434Y-103260664D01*
X112569431Y-103260667D01*
X112516751Y-103337894D01*
X112443099Y-103445863D01*
X112440529Y-103451400D01*
X112440526Y-103451405D01*
X112412616Y-103511532D01*
X112346136Y-103654752D01*
X112284592Y-103876673D01*
X112283942Y-103882756D01*
X112275653Y-103960319D01*
X112260119Y-104105665D01*
X112263601Y-104166051D01*
X112271759Y-104307530D01*
X112273376Y-104335580D01*
X112274719Y-104341538D01*
X112274719Y-104341540D01*
X112276317Y-104348630D01*
X112324006Y-104560242D01*
X112410649Y-104773618D01*
X112413843Y-104778830D01*
X112413845Y-104778834D01*
X112520776Y-104953329D01*
X112530979Y-104969978D01*
X112534987Y-104974605D01*
X112534990Y-104974609D01*
X112628157Y-105082164D01*
X112681763Y-105144048D01*
X112686473Y-105147958D01*
X112854127Y-105287147D01*
X112858953Y-105291154D01*
X112859421Y-105291428D01*
X112907865Y-105349159D01*
X112921259Y-105425115D01*
X112894881Y-105497592D01*
X112862289Y-105531284D01*
X112731984Y-105629119D01*
X112572877Y-105795616D01*
X112569434Y-105800664D01*
X112569431Y-105800667D01*
X112534030Y-105852563D01*
X112443099Y-105985863D01*
X112440529Y-105991400D01*
X112440526Y-105991405D01*
X112413999Y-106048554D01*
X112346136Y-106194752D01*
X112284592Y-106416673D01*
X112283942Y-106422756D01*
X112261329Y-106634346D01*
X112260119Y-106645665D01*
X112265042Y-106731046D01*
X112271737Y-106847147D01*
X112273376Y-106875580D01*
X112274719Y-106881538D01*
X112274719Y-106881540D01*
X112286027Y-106931717D01*
X112324006Y-107100242D01*
X112410649Y-107313618D01*
X112413843Y-107318830D01*
X112413845Y-107318834D01*
X112502352Y-107463263D01*
X112530979Y-107509978D01*
X112534987Y-107514605D01*
X112534990Y-107514609D01*
X112659247Y-107658055D01*
X112681763Y-107684048D01*
X112722608Y-107717958D01*
X112854127Y-107827147D01*
X112858953Y-107831154D01*
X112859421Y-107831428D01*
X112907865Y-107889159D01*
X112921259Y-107965115D01*
X112894881Y-108037592D01*
X112862289Y-108071284D01*
X112731984Y-108169119D01*
X112572877Y-108335616D01*
X112569434Y-108340664D01*
X112569431Y-108340667D01*
X112534030Y-108392563D01*
X112443099Y-108525863D01*
X112440529Y-108531400D01*
X112440526Y-108531405D01*
X112412616Y-108591532D01*
X112346136Y-108734752D01*
X112284592Y-108956673D01*
X112283942Y-108962756D01*
X112261857Y-109169407D01*
X112260119Y-109185665D01*
X112273376Y-109415580D01*
X112274719Y-109421538D01*
X112274719Y-109421540D01*
X112284974Y-109467043D01*
X112324006Y-109640242D01*
X112410649Y-109853618D01*
X112413843Y-109858830D01*
X112413845Y-109858834D01*
X112497125Y-109994734D01*
X112530979Y-110049978D01*
X112534987Y-110054605D01*
X112534990Y-110054609D01*
X112630718Y-110165120D01*
X112681763Y-110224048D01*
X112717898Y-110254048D01*
X112854127Y-110367147D01*
X112858953Y-110371154D01*
X112859421Y-110371428D01*
X112907865Y-110429159D01*
X112921259Y-110505115D01*
X112894881Y-110577592D01*
X112862289Y-110611284D01*
X112731984Y-110709119D01*
X112572877Y-110875616D01*
X112569434Y-110880664D01*
X112569431Y-110880667D01*
X112534030Y-110932563D01*
X112443099Y-111065863D01*
X112440529Y-111071400D01*
X112440526Y-111071405D01*
X112413552Y-111129516D01*
X112346136Y-111274752D01*
X112284592Y-111496673D01*
X112283942Y-111502756D01*
X112269504Y-111637853D01*
X112260119Y-111725665D01*
X112273376Y-111955580D01*
X112324006Y-112180242D01*
X112410649Y-112393618D01*
X112413843Y-112398830D01*
X112413845Y-112398834D01*
X112502352Y-112543263D01*
X112530979Y-112589978D01*
X112534987Y-112594605D01*
X112534990Y-112594609D01*
X112630718Y-112705120D01*
X112681763Y-112764048D01*
X112858953Y-112911154D01*
X112864222Y-112914233D01*
X112864225Y-112914235D01*
X113052510Y-113024260D01*
X113052514Y-113024262D01*
X113057790Y-113027345D01*
X113063507Y-113029528D01*
X113267219Y-113107319D01*
X113267223Y-113107320D01*
X113272934Y-113109501D01*
X113278927Y-113110720D01*
X113278926Y-113110720D01*
X113426383Y-113140720D01*
X113498607Y-113155414D01*
X113551320Y-113157347D01*
X113722632Y-113163629D01*
X113722636Y-113163629D01*
X113728749Y-113163853D01*
X113734822Y-113163075D01*
X113734823Y-113163075D01*
X113804143Y-113154195D01*
X113957178Y-113134591D01*
X113974078Y-113129521D01*
X114171909Y-113070169D01*
X114171912Y-113070168D01*
X114177761Y-113068413D01*
X114384574Y-112967096D01*
X114389549Y-112963547D01*
X114389553Y-112963545D01*
X114519603Y-112870781D01*
X114572062Y-112833363D01*
X114735190Y-112670803D01*
X114802367Y-112577316D01*
X114862051Y-112528465D01*
X114938165Y-112516001D01*
X115010314Y-112543263D01*
X115050407Y-112586408D01*
X115070979Y-112619978D01*
X115074987Y-112624605D01*
X115074990Y-112624609D01*
X115144731Y-112705120D01*
X115221763Y-112794048D01*
X115398953Y-112941154D01*
X115404222Y-112944233D01*
X115404225Y-112944235D01*
X115592510Y-113054260D01*
X115592514Y-113054262D01*
X115597790Y-113057345D01*
X115603507Y-113059528D01*
X115807219Y-113137319D01*
X115807223Y-113137320D01*
X115812934Y-113139501D01*
X116038607Y-113185414D01*
X116091320Y-113187347D01*
X116262632Y-113193629D01*
X116262636Y-113193629D01*
X116268749Y-113193853D01*
X116274822Y-113193075D01*
X116274823Y-113193075D01*
X116344143Y-113184195D01*
X116497178Y-113164591D01*
X116531830Y-113154195D01*
X116711909Y-113100169D01*
X116711912Y-113100168D01*
X116717761Y-113098413D01*
X116924574Y-112997096D01*
X116929549Y-112993547D01*
X116929553Y-112993545D01*
X117107075Y-112866920D01*
X117112062Y-112863363D01*
X117275190Y-112700803D01*
X117329941Y-112624609D01*
X117406009Y-112518749D01*
X117406011Y-112518745D01*
X117409577Y-112513783D01*
X117511615Y-112307325D01*
X117539173Y-112216623D01*
X117576786Y-112092825D01*
X117576787Y-112092821D01*
X117578563Y-112086975D01*
X117608622Y-111858649D01*
X117610300Y-111790000D01*
X117597518Y-111634526D01*
X117591931Y-111566567D01*
X117591930Y-111566562D01*
X117591430Y-111560478D01*
X117576931Y-111502756D01*
X117536816Y-111343050D01*
X117536814Y-111343045D01*
X117535326Y-111337120D01*
X117443496Y-111125924D01*
X117368272Y-111009645D01*
X117321726Y-110937696D01*
X117321724Y-110937693D01*
X117318405Y-110932563D01*
X117163412Y-110762229D01*
X117158621Y-110758445D01*
X117158611Y-110758436D01*
X117002797Y-110635381D01*
X116956703Y-110573542D01*
X116947705Y-110496940D01*
X116978213Y-110426103D01*
X117008620Y-110397147D01*
X117107075Y-110326920D01*
X117112062Y-110323363D01*
X117275190Y-110160803D01*
X117332973Y-110080389D01*
X117406009Y-109978749D01*
X117406011Y-109978745D01*
X117409577Y-109973783D01*
X117511615Y-109767325D01*
X117516430Y-109751478D01*
X117576786Y-109552825D01*
X117576787Y-109552821D01*
X117578563Y-109546975D01*
X117608622Y-109318649D01*
X117608866Y-109308697D01*
X117610203Y-109253957D01*
X117610300Y-109250000D01*
X117597947Y-109099744D01*
X117591931Y-109026567D01*
X117591930Y-109026562D01*
X117591430Y-109020478D01*
X117584483Y-108992820D01*
X117536816Y-108803050D01*
X117536814Y-108803045D01*
X117535326Y-108797120D01*
X117443496Y-108585924D01*
X117351624Y-108443912D01*
X117321726Y-108397696D01*
X117321724Y-108397693D01*
X117318405Y-108392563D01*
X117163412Y-108222229D01*
X117158621Y-108218445D01*
X117158611Y-108218436D01*
X117002797Y-108095381D01*
X116956703Y-108033542D01*
X116947705Y-107956940D01*
X116978213Y-107886103D01*
X117008620Y-107857147D01*
X117062183Y-107818941D01*
X117112062Y-107783363D01*
X117275190Y-107620803D01*
X117291137Y-107598610D01*
X117406009Y-107438749D01*
X117406011Y-107438745D01*
X117409577Y-107433783D01*
X117511615Y-107227325D01*
X117513393Y-107221474D01*
X117576786Y-107012825D01*
X117576787Y-107012821D01*
X117578563Y-107006975D01*
X117608622Y-106778649D01*
X117608760Y-106773029D01*
X117609750Y-106732516D01*
X117610300Y-106710000D01*
X117594737Y-106520702D01*
X117591931Y-106486567D01*
X117591930Y-106486562D01*
X117591430Y-106480478D01*
X117583596Y-106449290D01*
X117536816Y-106263050D01*
X117536814Y-106263045D01*
X117535326Y-106257120D01*
X117443496Y-106045924D01*
X117407129Y-105989709D01*
X117321726Y-105857696D01*
X117321724Y-105857693D01*
X117318405Y-105852563D01*
X117163412Y-105682229D01*
X117158621Y-105678445D01*
X117158611Y-105678436D01*
X117082841Y-105618596D01*
X124389089Y-105618596D01*
X124393103Y-105678436D01*
X124404782Y-105852563D01*
X124407422Y-105891928D01*
X124408435Y-105896867D01*
X124451008Y-106104439D01*
X124462462Y-106160288D01*
X124553204Y-106418769D01*
X124677989Y-106662644D01*
X124684610Y-106672152D01*
X124822017Y-106869479D01*
X124834534Y-106887455D01*
X124837950Y-106891169D01*
X125015895Y-107084651D01*
X125019978Y-107089091D01*
X125109357Y-107163142D01*
X125227048Y-107260650D01*
X125227052Y-107260653D01*
X125230929Y-107263865D01*
X125235207Y-107266527D01*
X125235209Y-107266528D01*
X125459253Y-107405920D01*
X125459260Y-107405924D01*
X125463531Y-107408581D01*
X125468129Y-107410641D01*
X125708925Y-107518531D01*
X125708929Y-107518532D01*
X125713530Y-107520594D01*
X125976356Y-107597854D01*
X125981331Y-107598609D01*
X125981336Y-107598610D01*
X126242217Y-107638194D01*
X126242223Y-107638194D01*
X126247202Y-107638950D01*
X126252239Y-107639027D01*
X126252241Y-107639027D01*
X126360274Y-107640676D01*
X126521116Y-107643130D01*
X126600585Y-107633542D01*
X126788087Y-107610921D01*
X126788093Y-107610920D01*
X126793090Y-107610317D01*
X127037189Y-107546585D01*
X127053272Y-107542386D01*
X127053274Y-107542385D01*
X127058151Y-107541112D01*
X127311451Y-107436780D01*
X127548361Y-107299229D01*
X127590378Y-107266528D01*
X127640748Y-107227325D01*
X127764547Y-107130973D01*
X127917407Y-106974622D01*
X127952535Y-106938692D01*
X127952539Y-106938688D01*
X127956057Y-106935089D01*
X128119389Y-106715160D01*
X128251556Y-106475205D01*
X128350143Y-106219614D01*
X128356039Y-106194752D01*
X128404656Y-105989709D01*
X128407399Y-105980433D01*
X128408631Y-105975896D01*
X128410564Y-105970470D01*
X128411504Y-105965524D01*
X128411585Y-105965289D01*
X128412061Y-105962636D01*
X128412336Y-105961147D01*
X128412712Y-105959168D01*
X128412871Y-105958332D01*
X128412880Y-105958066D01*
X128413765Y-105953128D01*
X128413897Y-105947383D01*
X128414047Y-105945886D01*
X128415194Y-105937099D01*
X128573950Y-104951035D01*
X128573951Y-104951029D01*
X128574132Y-104949904D01*
X128632911Y-104492127D01*
X128704043Y-103938153D01*
X128704046Y-103938127D01*
X128704191Y-103936997D01*
X128709987Y-103876673D01*
X128758255Y-103374249D01*
X128801852Y-102920455D01*
X128867015Y-101901314D01*
X128867079Y-101899335D01*
X128899574Y-100881805D01*
X128899574Y-100881797D01*
X128899612Y-100880611D01*
X128899612Y-99859389D01*
X128898656Y-99829455D01*
X128867054Y-98839897D01*
X128867053Y-98839877D01*
X128867015Y-98838686D01*
X128801852Y-97819545D01*
X128734694Y-97120505D01*
X128704304Y-96804176D01*
X128704302Y-96804157D01*
X128704191Y-96803003D01*
X128692183Y-96709479D01*
X128591961Y-95928949D01*
X128574132Y-95790096D01*
X128564541Y-95730523D01*
X128416110Y-94808589D01*
X128414926Y-94799001D01*
X128414880Y-94793858D01*
X128412871Y-94781668D01*
X128411073Y-94776203D01*
X128411071Y-94776195D01*
X128402019Y-94748684D01*
X128401502Y-94746921D01*
X128401062Y-94744449D01*
X128390779Y-94714480D01*
X128390177Y-94712689D01*
X128370424Y-94652648D01*
X128368067Y-94645483D01*
X128366458Y-94643143D01*
X128365586Y-94641053D01*
X128330048Y-94537477D01*
X128323771Y-94512135D01*
X128322376Y-94503210D01*
X128322375Y-94503206D01*
X128321487Y-94497526D01*
X128317724Y-94485758D01*
X128315148Y-94480610D01*
X128314280Y-94478478D01*
X128311610Y-94472601D01*
X128292167Y-94425150D01*
X128215085Y-94237036D01*
X128169386Y-94157803D01*
X128083172Y-94008328D01*
X128080674Y-94003997D01*
X127916275Y-93791051D01*
X127912718Y-93787538D01*
X127912712Y-93787532D01*
X127762887Y-93639592D01*
X127724848Y-93602031D01*
X127720854Y-93599027D01*
X127720850Y-93599024D01*
X127513838Y-93443346D01*
X127513835Y-93443344D01*
X127509839Y-93440339D01*
X127474347Y-93420462D01*
X127419430Y-93389707D01*
X127275119Y-93308888D01*
X127110058Y-93243679D01*
X127029570Y-93211881D01*
X127029565Y-93211879D01*
X127024914Y-93210042D01*
X127020062Y-93208845D01*
X127020054Y-93208842D01*
X126768578Y-93146780D01*
X126768579Y-93146780D01*
X126763728Y-93145583D01*
X126698442Y-93138526D01*
X126501244Y-93117209D01*
X126501238Y-93117209D01*
X126496263Y-93116671D01*
X126491257Y-93116804D01*
X126491253Y-93116804D01*
X126309162Y-93121648D01*
X126227336Y-93123825D01*
X125961787Y-93166918D01*
X125704398Y-93245173D01*
X125582919Y-93300802D01*
X125467570Y-93353624D01*
X125459802Y-93357181D01*
X125455568Y-93359858D01*
X125455567Y-93359858D01*
X125242172Y-93494752D01*
X125232403Y-93500927D01*
X125026295Y-93673822D01*
X125022921Y-93677528D01*
X125022920Y-93677529D01*
X124886757Y-93827094D01*
X124845189Y-93872753D01*
X124692345Y-94094139D01*
X124690077Y-94098603D01*
X124690077Y-94098604D01*
X124663950Y-94150041D01*
X124570514Y-94333994D01*
X124481891Y-94588000D01*
X124428071Y-94851584D01*
X124427736Y-94856567D01*
X124427735Y-94856574D01*
X124411671Y-95095488D01*
X124411052Y-95101056D01*
X124411024Y-95103330D01*
X124409391Y-95113823D01*
X124410083Y-95119112D01*
X124410023Y-95120000D01*
X124410199Y-95120000D01*
X124411733Y-95131732D01*
X124411733Y-95131734D01*
X124413242Y-95143271D01*
X124414500Y-95162590D01*
X124414500Y-95300558D01*
X124414246Y-95304786D01*
X124412989Y-95309469D01*
X124413225Y-95320081D01*
X124413225Y-95320083D01*
X124414463Y-95375699D01*
X124414500Y-95379014D01*
X124414500Y-95405940D01*
X124415120Y-95410274D01*
X124415334Y-95414847D01*
X124416179Y-95452801D01*
X124421656Y-95470094D01*
X124427104Y-95493954D01*
X124427318Y-95495444D01*
X124429677Y-95511918D01*
X124431286Y-95515455D01*
X124432054Y-95518863D01*
X124578888Y-96434723D01*
X124579632Y-96439955D01*
X124701163Y-97419016D01*
X124701721Y-97424272D01*
X124788451Y-98407032D01*
X124788822Y-98412305D01*
X124840642Y-99397508D01*
X124840826Y-99402790D01*
X124841595Y-99447835D01*
X124857395Y-100372960D01*
X124857672Y-100389206D01*
X124857669Y-100394471D01*
X124839866Y-101362017D01*
X124839518Y-101380913D01*
X124839328Y-101386172D01*
X124787031Y-102356001D01*
X124786204Y-102371330D01*
X124785828Y-102376578D01*
X124698578Y-103350523D01*
X124697796Y-103359247D01*
X124697234Y-103364475D01*
X124576736Y-104324830D01*
X124574406Y-104343398D01*
X124573656Y-104348622D01*
X124503891Y-104780115D01*
X124423408Y-105277902D01*
X124417158Y-105302753D01*
X124411832Y-105318178D01*
X124411506Y-105324966D01*
X124410922Y-105327513D01*
X124409204Y-105333013D01*
X124407379Y-105345232D01*
X124407415Y-105350935D01*
X124407387Y-105351340D01*
X124407387Y-105351341D01*
X124407307Y-105352507D01*
X124407281Y-105352882D01*
X124407043Y-105356226D01*
X124407035Y-105356487D01*
X124389433Y-105613564D01*
X124389433Y-105613572D01*
X124389089Y-105618596D01*
X117082841Y-105618596D01*
X117002797Y-105555381D01*
X116956703Y-105493542D01*
X116947705Y-105416940D01*
X116978213Y-105346103D01*
X117008620Y-105317147D01*
X117077230Y-105268208D01*
X117112062Y-105243363D01*
X117275190Y-105080803D01*
X117329941Y-105004609D01*
X117406009Y-104898749D01*
X117406011Y-104898745D01*
X117409577Y-104893783D01*
X117511615Y-104687325D01*
X117522441Y-104651694D01*
X117576786Y-104472825D01*
X117576787Y-104472821D01*
X117578563Y-104466975D01*
X117608622Y-104238649D01*
X117610300Y-104170000D01*
X117601708Y-104065495D01*
X117591931Y-103946567D01*
X117591930Y-103946562D01*
X117591430Y-103940478D01*
X117585424Y-103916567D01*
X117536816Y-103723050D01*
X117536814Y-103723045D01*
X117535326Y-103717120D01*
X117443496Y-103505924D01*
X117368272Y-103389645D01*
X117321726Y-103317696D01*
X117321724Y-103317693D01*
X117318405Y-103312563D01*
X117163412Y-103142229D01*
X117158621Y-103138445D01*
X117158611Y-103138436D01*
X117002797Y-103015381D01*
X116956703Y-102953542D01*
X116947705Y-102876940D01*
X116978213Y-102806103D01*
X117008620Y-102777147D01*
X117050679Y-102747147D01*
X117112062Y-102703363D01*
X117275190Y-102540803D01*
X117329941Y-102464609D01*
X117406009Y-102358749D01*
X117406011Y-102358745D01*
X117409577Y-102353783D01*
X117511615Y-102147325D01*
X117520730Y-102117325D01*
X117576786Y-101932825D01*
X117576787Y-101932821D01*
X117578563Y-101926975D01*
X117608622Y-101698649D01*
X117610300Y-101630000D01*
X117593216Y-101422197D01*
X117591931Y-101406567D01*
X117591930Y-101406562D01*
X117591430Y-101400478D01*
X117589942Y-101394553D01*
X117536816Y-101183050D01*
X117536814Y-101183045D01*
X117535326Y-101177120D01*
X117443496Y-100965924D01*
X117389077Y-100881805D01*
X117321726Y-100777696D01*
X117321724Y-100777693D01*
X117318405Y-100772563D01*
X117163412Y-100602229D01*
X117158621Y-100598445D01*
X117158611Y-100598436D01*
X117002797Y-100475381D01*
X116956703Y-100413542D01*
X116947705Y-100336940D01*
X116978213Y-100266103D01*
X117008620Y-100237147D01*
X117107075Y-100166920D01*
X117112062Y-100163363D01*
X117275190Y-100000803D01*
X117326019Y-99930067D01*
X117406009Y-99818749D01*
X117406011Y-99818745D01*
X117409577Y-99813783D01*
X117511615Y-99607325D01*
X117520730Y-99577325D01*
X117576786Y-99392825D01*
X117576787Y-99392821D01*
X117578563Y-99386975D01*
X117608622Y-99158649D01*
X117610300Y-99090000D01*
X117600352Y-98968998D01*
X117591931Y-98866567D01*
X117591930Y-98866562D01*
X117591430Y-98860478D01*
X117589942Y-98854553D01*
X117536816Y-98643050D01*
X117536814Y-98643045D01*
X117535326Y-98637120D01*
X117443496Y-98425924D01*
X117368272Y-98309645D01*
X117321726Y-98237696D01*
X117321724Y-98237693D01*
X117318405Y-98232563D01*
X117163412Y-98062229D01*
X117158621Y-98058445D01*
X117158611Y-98058436D01*
X117002797Y-97935381D01*
X116956703Y-97873542D01*
X116947705Y-97796940D01*
X116978213Y-97726103D01*
X117008620Y-97697147D01*
X117107075Y-97626920D01*
X117112062Y-97623363D01*
X117275190Y-97460803D01*
X117329941Y-97384609D01*
X117406009Y-97278749D01*
X117406011Y-97278745D01*
X117409577Y-97273783D01*
X117511615Y-97067325D01*
X117513393Y-97061474D01*
X117576786Y-96852825D01*
X117576787Y-96852821D01*
X117578563Y-96846975D01*
X117608622Y-96618649D01*
X117610300Y-96550000D01*
X117599511Y-96418769D01*
X117591931Y-96326567D01*
X117591930Y-96326562D01*
X117591430Y-96320478D01*
X117585424Y-96296567D01*
X117536816Y-96103050D01*
X117536814Y-96103045D01*
X117535326Y-96097120D01*
X117443496Y-95885924D01*
X117368272Y-95769645D01*
X117321726Y-95697696D01*
X117321724Y-95697693D01*
X117318405Y-95692563D01*
X117163412Y-95522229D01*
X117037288Y-95422622D01*
X116982837Y-95379619D01*
X116936743Y-95317779D01*
X116927745Y-95241178D01*
X116958252Y-95170340D01*
X116988655Y-95141388D01*
X117112062Y-95053363D01*
X117275190Y-94890803D01*
X117303372Y-94851584D01*
X117406009Y-94708749D01*
X117406011Y-94708745D01*
X117409577Y-94703783D01*
X117511615Y-94497325D01*
X117513463Y-94491244D01*
X117576786Y-94282825D01*
X117576787Y-94282821D01*
X117578563Y-94276975D01*
X117608622Y-94048649D01*
X117610300Y-93980000D01*
X117601340Y-93871019D01*
X117591931Y-93756567D01*
X117591930Y-93756562D01*
X117591430Y-93750478D01*
X117582939Y-93716673D01*
X117536816Y-93533050D01*
X117536814Y-93533045D01*
X117535326Y-93527120D01*
X117443496Y-93315924D01*
X117413671Y-93269821D01*
X117321726Y-93127696D01*
X117321723Y-93127692D01*
X117318405Y-93122563D01*
X117163412Y-92952229D01*
X117158621Y-92948445D01*
X117158611Y-92948436D01*
X117022756Y-92841144D01*
X116976662Y-92779305D01*
X116967664Y-92702704D01*
X116998172Y-92631866D01*
X117028573Y-92602915D01*
X117112062Y-92543363D01*
X117275190Y-92380803D01*
X117328723Y-92306304D01*
X117406009Y-92198749D01*
X117406011Y-92198745D01*
X117409577Y-92193783D01*
X117511615Y-91987325D01*
X117578563Y-91766975D01*
X117608622Y-91538649D01*
X117610300Y-91470000D01*
X117591430Y-91240478D01*
X117589942Y-91234553D01*
X117536816Y-91023050D01*
X117536814Y-91023045D01*
X117535326Y-91017120D01*
X117443496Y-90805924D01*
X117424049Y-90775863D01*
X117321726Y-90617696D01*
X117321724Y-90617693D01*
X117318405Y-90612563D01*
X117163412Y-90442229D01*
X117158621Y-90438445D01*
X117158611Y-90438436D01*
X117002797Y-90315381D01*
X116956703Y-90253542D01*
X116947705Y-90176940D01*
X116978213Y-90106103D01*
X117008620Y-90077147D01*
X117025662Y-90064991D01*
X117112062Y-90003363D01*
X117275190Y-89840803D01*
X117300314Y-89805839D01*
X117406009Y-89658749D01*
X117406011Y-89658745D01*
X117409577Y-89653783D01*
X117511615Y-89447325D01*
X117520730Y-89417325D01*
X117576786Y-89232825D01*
X117576787Y-89232821D01*
X117578563Y-89226975D01*
X117608622Y-88998649D01*
X117610300Y-88930000D01*
X117591430Y-88700478D01*
X117585424Y-88676567D01*
X117536816Y-88483050D01*
X117536814Y-88483045D01*
X117535326Y-88477120D01*
X117443496Y-88265924D01*
X117358491Y-88134526D01*
X117321726Y-88077696D01*
X117321724Y-88077693D01*
X117318405Y-88072563D01*
X117163412Y-87902229D01*
X116982681Y-87759496D01*
X116977328Y-87756541D01*
X116977325Y-87756539D01*
X116881873Y-87703847D01*
X116781065Y-87648198D01*
X116657683Y-87604506D01*
X116569748Y-87573366D01*
X116569745Y-87573365D01*
X116563978Y-87571323D01*
X116557957Y-87570250D01*
X116557955Y-87570250D01*
X116343274Y-87532010D01*
X116337250Y-87530937D01*
X116331136Y-87530862D01*
X116331133Y-87530862D01*
X116238007Y-87529724D01*
X116106971Y-87528123D01*
X116062971Y-87534856D01*
X115885362Y-87562034D01*
X115885360Y-87562035D01*
X115879325Y-87562958D01*
X115660424Y-87634506D01*
X115655009Y-87637325D01*
X115461569Y-87738023D01*
X115461564Y-87738026D01*
X115456149Y-87740845D01*
X115271984Y-87879119D01*
X115270111Y-87881079D01*
X115202113Y-87915131D01*
X115125121Y-87910558D01*
X115060730Y-87868102D01*
X115032631Y-87821477D01*
X115012252Y-87767115D01*
X115012252Y-87767114D01*
X115008526Y-87757176D01*
X114922546Y-87642454D01*
X114807824Y-87556474D01*
X114673580Y-87506149D01*
X114664295Y-87505140D01*
X114664294Y-87505140D01*
X114638399Y-87502327D01*
X114612377Y-87499500D01*
X114608338Y-87499500D01*
X113663591Y-87499501D01*
X112717624Y-87499501D01*
X112691607Y-87502327D01*
X112665706Y-87505140D01*
X112665703Y-87505141D01*
X112656420Y-87506149D01*
X112522176Y-87556474D01*
X112407454Y-87642454D01*
X112321474Y-87757176D01*
X112271149Y-87891420D01*
X112264500Y-87952623D01*
X112264500Y-87956662D01*
X112264501Y-88901410D01*
X112264501Y-89847376D01*
X112271149Y-89908580D01*
X112321474Y-90042824D01*
X112407454Y-90157546D01*
X112522176Y-90243526D01*
X112532115Y-90247252D01*
X112532117Y-90247253D01*
X112567693Y-90260590D01*
X112630444Y-90305433D01*
X112662367Y-90375645D01*
X112654907Y-90452412D01*
X112623111Y-90503048D01*
X112572877Y-90555616D01*
X112569434Y-90560664D01*
X112569431Y-90560667D01*
X112534030Y-90612563D01*
X112443099Y-90745863D01*
X112440529Y-90751400D01*
X112440526Y-90751405D01*
X112412616Y-90811532D01*
X112346136Y-90954752D01*
X112284592Y-91176673D01*
X112260119Y-91405665D01*
X112273376Y-91635580D01*
X112324006Y-91860242D01*
X112326304Y-91865901D01*
X112337893Y-91894441D01*
X112347427Y-91970978D01*
X112317415Y-92042027D01*
X112255900Y-92088552D01*
X112199841Y-92099500D01*
X105979152Y-92099500D01*
X105968584Y-92099002D01*
X105960702Y-92097240D01*
X105951334Y-92097534D01*
X105951330Y-92097534D01*
X105891136Y-92099426D01*
X105886456Y-92099500D01*
X105858073Y-92099500D01*
X105853435Y-92100086D01*
X105849090Y-92100359D01*
X105840882Y-92101005D01*
X105832112Y-92101280D01*
X105805802Y-92102107D01*
X105805799Y-92102107D01*
X105796429Y-92102402D01*
X105787426Y-92105018D01*
X105787423Y-92105018D01*
X105777933Y-92107775D01*
X105755046Y-92112515D01*
X105735940Y-92114929D01*
X105727231Y-92118377D01*
X105727224Y-92118379D01*
X105694594Y-92131299D01*
X105681310Y-92135847D01*
X105647604Y-92145639D01*
X105647603Y-92145639D01*
X105638600Y-92148255D01*
X105630531Y-92153027D01*
X105630529Y-92153028D01*
X105622024Y-92158058D01*
X105601028Y-92168345D01*
X105583127Y-92175432D01*
X105547137Y-92201580D01*
X105535419Y-92209276D01*
X105505203Y-92227146D01*
X105505201Y-92227147D01*
X105497133Y-92231919D01*
X105483518Y-92245534D01*
X105465739Y-92260719D01*
X105457743Y-92266528D01*
X105457741Y-92266530D01*
X105450161Y-92272037D01*
X105421917Y-92306179D01*
X105421813Y-92306304D01*
X105412365Y-92316687D01*
X104893701Y-92835351D01*
X104885879Y-92842469D01*
X104879060Y-92846796D01*
X104872643Y-92853630D01*
X104872640Y-92853632D01*
X104831428Y-92897519D01*
X104828171Y-92900881D01*
X104808089Y-92920963D01*
X104805223Y-92924657D01*
X104802352Y-92927914D01*
X104796995Y-92934186D01*
X104780052Y-92952229D01*
X104766552Y-92966605D01*
X104757274Y-92983483D01*
X104744443Y-93003015D01*
X104732638Y-93018234D01*
X104728914Y-93026839D01*
X104728912Y-93026843D01*
X104714977Y-93059047D01*
X104708805Y-93071646D01*
X104687373Y-93110630D01*
X104685042Y-93119709D01*
X104682583Y-93129286D01*
X104675011Y-93151404D01*
X104667365Y-93169072D01*
X104665899Y-93178328D01*
X104665898Y-93178331D01*
X104660409Y-93212988D01*
X104657563Y-93226732D01*
X104652829Y-93245173D01*
X104646500Y-93269821D01*
X104646500Y-93289077D01*
X104644665Y-93312387D01*
X104643217Y-93321532D01*
X104641653Y-93331403D01*
X104642535Y-93340732D01*
X104645839Y-93375684D01*
X104646500Y-93389707D01*
X104646500Y-106156836D01*
X104626538Y-106231336D01*
X104602859Y-106262195D01*
X104189195Y-106675859D01*
X104122400Y-106714423D01*
X104083836Y-106719500D01*
X89995153Y-106719500D01*
X89984585Y-106719002D01*
X89976703Y-106717240D01*
X89909121Y-106719364D01*
X89907150Y-106719426D01*
X89902469Y-106719500D01*
X89874075Y-106719500D01*
X89869442Y-106720085D01*
X89865118Y-106720357D01*
X89856871Y-106721006D01*
X89821801Y-106722108D01*
X89821797Y-106722109D01*
X89812431Y-106722403D01*
X89793942Y-106727775D01*
X89771047Y-106732516D01*
X89767478Y-106732967D01*
X89761243Y-106733754D01*
X89761242Y-106733754D01*
X89751942Y-106734929D01*
X89743226Y-106738380D01*
X89710592Y-106751301D01*
X89697308Y-106755849D01*
X89654601Y-106768256D01*
X89646534Y-106773027D01*
X89646529Y-106773029D01*
X89638024Y-106778059D01*
X89617033Y-106788342D01*
X89607853Y-106791977D01*
X89607847Y-106791980D01*
X89599129Y-106795432D01*
X89591547Y-106800941D01*
X89591539Y-106800945D01*
X89563142Y-106821577D01*
X89551418Y-106829278D01*
X89513135Y-106851919D01*
X89499520Y-106865534D01*
X89481741Y-106880719D01*
X89473745Y-106886528D01*
X89473743Y-106886530D01*
X89466163Y-106892037D01*
X89437919Y-106926179D01*
X89437815Y-106926304D01*
X89428367Y-106936687D01*
X87511701Y-108853353D01*
X87503879Y-108860471D01*
X87497060Y-108864798D01*
X87490643Y-108871632D01*
X87490640Y-108871634D01*
X87449428Y-108915521D01*
X87446171Y-108918883D01*
X87426089Y-108938965D01*
X87423223Y-108942659D01*
X87420352Y-108945916D01*
X87414995Y-108952188D01*
X87410784Y-108956673D01*
X87384552Y-108984607D01*
X87375274Y-109001485D01*
X87362443Y-109021017D01*
X87350638Y-109036236D01*
X87346914Y-109044841D01*
X87346912Y-109044845D01*
X87332977Y-109077049D01*
X87326805Y-109089648D01*
X87305373Y-109128632D01*
X87303042Y-109137711D01*
X87300583Y-109147288D01*
X87293014Y-109169399D01*
X87286777Y-109183810D01*
X87238874Y-109244253D01*
X87167162Y-109272647D01*
X87090861Y-109261382D01*
X87030415Y-109213476D01*
X87018904Y-109195389D01*
X86993643Y-109148574D01*
X86981420Y-109125920D01*
X86922710Y-109046432D01*
X86828854Y-108919360D01*
X86828849Y-108919354D01*
X86825726Y-108915126D01*
X86822035Y-108911377D01*
X86822032Y-108911373D01*
X86715396Y-108803050D01*
X86641884Y-108728374D01*
X86597057Y-108694163D01*
X86437750Y-108572584D01*
X86437748Y-108572583D01*
X86433562Y-108569388D01*
X86204917Y-108441340D01*
X86200006Y-108439440D01*
X85965429Y-108348689D01*
X85965426Y-108348688D01*
X85960512Y-108346787D01*
X85705221Y-108287614D01*
X85699973Y-108287159D01*
X85699970Y-108287159D01*
X85449398Y-108265457D01*
X85449394Y-108265457D01*
X85444141Y-108265002D01*
X85182478Y-108279402D01*
X85177320Y-108280428D01*
X85177312Y-108280429D01*
X84930623Y-108329499D01*
X84930620Y-108329500D01*
X84925456Y-108330527D01*
X84678201Y-108417357D01*
X84673538Y-108419779D01*
X84673534Y-108419781D01*
X84577542Y-108469645D01*
X84445647Y-108538159D01*
X84232434Y-108690523D01*
X84042816Y-108871409D01*
X84039554Y-108875546D01*
X84039552Y-108875549D01*
X83884236Y-109072568D01*
X83880578Y-109077208D01*
X83877936Y-109081757D01*
X83877935Y-109081758D01*
X83815500Y-109189248D01*
X83748955Y-109303813D01*
X83706156Y-109409479D01*
X83652920Y-109540912D01*
X83650574Y-109546703D01*
X83649308Y-109551800D01*
X83649306Y-109551806D01*
X83613224Y-109697066D01*
X83587399Y-109801032D01*
X83560688Y-110061726D01*
X63415500Y-110061726D01*
X63415500Y-100902777D01*
X64873304Y-100902777D01*
X64873342Y-100903963D01*
X64873342Y-100903971D01*
X64905347Y-101906093D01*
X64905902Y-101923480D01*
X64971065Y-102942621D01*
X65012532Y-103374249D01*
X65066707Y-103938153D01*
X65068725Y-103959163D01*
X65068870Y-103960293D01*
X65068873Y-103960319D01*
X65141059Y-104522504D01*
X65198784Y-104972070D01*
X65198965Y-104973196D01*
X65198966Y-104973201D01*
X65356808Y-105953592D01*
X65357991Y-105963176D01*
X65358037Y-105968308D01*
X65360046Y-105980498D01*
X65361844Y-105985963D01*
X65370894Y-106013471D01*
X65371416Y-106015248D01*
X65371855Y-106017717D01*
X65382161Y-106047756D01*
X65382720Y-106049421D01*
X65404849Y-106116683D01*
X65406460Y-106119027D01*
X65407334Y-106121120D01*
X65425404Y-106173787D01*
X65442868Y-106224686D01*
X65449145Y-106250030D01*
X65451429Y-106264638D01*
X65455193Y-106276406D01*
X65457772Y-106281560D01*
X65458622Y-106283646D01*
X65461328Y-106289604D01*
X65513395Y-106416673D01*
X65557835Y-106525128D01*
X65560330Y-106529454D01*
X65560334Y-106529462D01*
X65668810Y-106717535D01*
X65692245Y-106758167D01*
X65856644Y-106971113D01*
X65860192Y-106974617D01*
X65860197Y-106974622D01*
X65886822Y-107000912D01*
X66048071Y-107160134D01*
X66263080Y-107321826D01*
X66267447Y-107324272D01*
X66267449Y-107324273D01*
X66493439Y-107450836D01*
X66493443Y-107450838D01*
X66497800Y-107453278D01*
X66748005Y-107552124D01*
X66752850Y-107553320D01*
X66752857Y-107553322D01*
X67004332Y-107615385D01*
X67004335Y-107615385D01*
X67009191Y-107616584D01*
X67124418Y-107629040D01*
X67271674Y-107644958D01*
X67271680Y-107644958D01*
X67276655Y-107645496D01*
X67281661Y-107645363D01*
X67281665Y-107645363D01*
X67463889Y-107640515D01*
X67545583Y-107638342D01*
X67811132Y-107595250D01*
X67815912Y-107593797D01*
X67815915Y-107593796D01*
X67940744Y-107555843D01*
X68068521Y-107516994D01*
X68218170Y-107448465D01*
X68308560Y-107407073D01*
X68308563Y-107407072D01*
X68313117Y-107404986D01*
X68449405Y-107318834D01*
X68536280Y-107263918D01*
X68536283Y-107263916D01*
X68540516Y-107261240D01*
X68657459Y-107163142D01*
X68742793Y-107091559D01*
X68742796Y-107091556D01*
X68746624Y-107088345D01*
X68927730Y-106889413D01*
X68933166Y-106881540D01*
X68956910Y-106847147D01*
X69080574Y-106668027D01*
X69202404Y-106428172D01*
X69208473Y-106410779D01*
X69289377Y-106178895D01*
X69289378Y-106178891D01*
X69291027Y-106174165D01*
X69292690Y-106166023D01*
X69321861Y-106023152D01*
X69344846Y-105910581D01*
X69360668Y-105675281D01*
X69362397Y-105660557D01*
X69362458Y-105660195D01*
X69363413Y-105654519D01*
X69363564Y-105642165D01*
X69359922Y-105616734D01*
X69358417Y-105595611D01*
X69358417Y-105461608D01*
X69358671Y-105457380D01*
X69359928Y-105452697D01*
X69359679Y-105441478D01*
X69358454Y-105386467D01*
X69358417Y-105383152D01*
X69358417Y-105356226D01*
X69357797Y-105351892D01*
X69357582Y-105347302D01*
X69357578Y-105347096D01*
X69356738Y-105309365D01*
X69351260Y-105292068D01*
X69345812Y-105268208D01*
X69344653Y-105260117D01*
X69343240Y-105250248D01*
X69341630Y-105246707D01*
X69340863Y-105243305D01*
X69335370Y-105209040D01*
X69276603Y-104842495D01*
X69194028Y-104327442D01*
X69193284Y-104322210D01*
X69166404Y-104105665D01*
X76700119Y-104105665D01*
X76703601Y-104166051D01*
X76711759Y-104307530D01*
X76713376Y-104335580D01*
X76714719Y-104341538D01*
X76714719Y-104341540D01*
X76716317Y-104348630D01*
X76764006Y-104560242D01*
X76850649Y-104773618D01*
X76853843Y-104778830D01*
X76853845Y-104778834D01*
X76960776Y-104953329D01*
X76970979Y-104969978D01*
X76974987Y-104974605D01*
X76974990Y-104974609D01*
X77068157Y-105082164D01*
X77121763Y-105144048D01*
X77126473Y-105147958D01*
X77294127Y-105287147D01*
X77298953Y-105291154D01*
X77304222Y-105294233D01*
X77304225Y-105294235D01*
X77492510Y-105404260D01*
X77492514Y-105404262D01*
X77497790Y-105407345D01*
X77503507Y-105409528D01*
X77707219Y-105487319D01*
X77707223Y-105487320D01*
X77712934Y-105489501D01*
X77938607Y-105535414D01*
X77991320Y-105537347D01*
X78162632Y-105543629D01*
X78162636Y-105543629D01*
X78168749Y-105543853D01*
X78174822Y-105543075D01*
X78174823Y-105543075D01*
X78244143Y-105534195D01*
X78397178Y-105514591D01*
X78453839Y-105497592D01*
X78611909Y-105450169D01*
X78611912Y-105450168D01*
X78617761Y-105448413D01*
X78824574Y-105347096D01*
X78829549Y-105343547D01*
X78829553Y-105343545D01*
X78960351Y-105250248D01*
X79012062Y-105213363D01*
X79102197Y-105123542D01*
X79170858Y-105055120D01*
X79170858Y-105055119D01*
X79175190Y-105050803D01*
X79252289Y-104943508D01*
X79311973Y-104894657D01*
X79388087Y-104882193D01*
X79460236Y-104909455D01*
X79500331Y-104952602D01*
X79510979Y-104969978D01*
X79514987Y-104974605D01*
X79514990Y-104974609D01*
X79608157Y-105082164D01*
X79661763Y-105144048D01*
X79666473Y-105147958D01*
X79834127Y-105287147D01*
X79838953Y-105291154D01*
X79844222Y-105294233D01*
X79844225Y-105294235D01*
X80032510Y-105404260D01*
X80032514Y-105404262D01*
X80037790Y-105407345D01*
X80043507Y-105409528D01*
X80247219Y-105487319D01*
X80247223Y-105487320D01*
X80252934Y-105489501D01*
X80478607Y-105535414D01*
X80531320Y-105537347D01*
X80702632Y-105543629D01*
X80702636Y-105543629D01*
X80708749Y-105543853D01*
X80714822Y-105543075D01*
X80714823Y-105543075D01*
X80784143Y-105534195D01*
X80937178Y-105514591D01*
X80993839Y-105497592D01*
X81151909Y-105450169D01*
X81151912Y-105450168D01*
X81157761Y-105448413D01*
X81364574Y-105347096D01*
X81369549Y-105343547D01*
X81369553Y-105343545D01*
X81500351Y-105250248D01*
X81552062Y-105213363D01*
X81642197Y-105123542D01*
X81710858Y-105055120D01*
X81710858Y-105055119D01*
X81715190Y-105050803D01*
X81751711Y-104999978D01*
X81846009Y-104868749D01*
X81846011Y-104868745D01*
X81849577Y-104863783D01*
X81951615Y-104657325D01*
X81953393Y-104651474D01*
X82016786Y-104442825D01*
X82016787Y-104442821D01*
X82018563Y-104436975D01*
X82048622Y-104208649D01*
X82050300Y-104140000D01*
X82040421Y-104019839D01*
X82031931Y-103916567D01*
X82031930Y-103916562D01*
X82031430Y-103910478D01*
X82022939Y-103876673D01*
X81976816Y-103693050D01*
X81976814Y-103693045D01*
X81975326Y-103687120D01*
X81883496Y-103475924D01*
X81820024Y-103377811D01*
X81761726Y-103287696D01*
X81761723Y-103287692D01*
X81758405Y-103282563D01*
X81603412Y-103112229D01*
X81598621Y-103108445D01*
X81598611Y-103108436D01*
X81442797Y-102985381D01*
X81396703Y-102923542D01*
X81387705Y-102846940D01*
X81418213Y-102776103D01*
X81448620Y-102747147D01*
X81479270Y-102725285D01*
X81552062Y-102673363D01*
X81715190Y-102510803D01*
X81751711Y-102459978D01*
X81846009Y-102328749D01*
X81846011Y-102328745D01*
X81849577Y-102323783D01*
X81951615Y-102117325D01*
X81953393Y-102111474D01*
X82016786Y-101902825D01*
X82016787Y-101902821D01*
X82018563Y-101896975D01*
X82048622Y-101668649D01*
X82050300Y-101600000D01*
X82034397Y-101406567D01*
X82031931Y-101376567D01*
X82031930Y-101376562D01*
X82031430Y-101370478D01*
X82029305Y-101362017D01*
X81976816Y-101153050D01*
X81976814Y-101153045D01*
X81975326Y-101147120D01*
X81883496Y-100935924D01*
X81819299Y-100836691D01*
X81761726Y-100747696D01*
X81761723Y-100747692D01*
X81758405Y-100742563D01*
X81603412Y-100572229D01*
X81598621Y-100568445D01*
X81598611Y-100568436D01*
X81442797Y-100445381D01*
X81396703Y-100383542D01*
X81387705Y-100306940D01*
X81418213Y-100236103D01*
X81448620Y-100207147D01*
X81463433Y-100196581D01*
X81552062Y-100133363D01*
X81690067Y-99995839D01*
X81710858Y-99975120D01*
X81710858Y-99975119D01*
X81715190Y-99970803D01*
X81755322Y-99914953D01*
X81846009Y-99788749D01*
X81846011Y-99788745D01*
X81849577Y-99783783D01*
X81951615Y-99577325D01*
X81953393Y-99571474D01*
X82016786Y-99362825D01*
X82016787Y-99362821D01*
X82018563Y-99356975D01*
X82048622Y-99128649D01*
X82049133Y-99107764D01*
X82050203Y-99063957D01*
X82050300Y-99060000D01*
X82037883Y-98908966D01*
X82031931Y-98836567D01*
X82031930Y-98836562D01*
X82031430Y-98830478D01*
X82022939Y-98796673D01*
X81976816Y-98613050D01*
X81976814Y-98613045D01*
X81975326Y-98607120D01*
X81883496Y-98395924D01*
X81822278Y-98301295D01*
X81761726Y-98207696D01*
X81761723Y-98207692D01*
X81758405Y-98202563D01*
X81603412Y-98032229D01*
X81598621Y-98028445D01*
X81598611Y-98028436D01*
X81442797Y-97905381D01*
X81396703Y-97843542D01*
X81387705Y-97766940D01*
X81418213Y-97696103D01*
X81448620Y-97667147D01*
X81463433Y-97656581D01*
X81552062Y-97593363D01*
X81715190Y-97430803D01*
X81751711Y-97379978D01*
X81846009Y-97248749D01*
X81846011Y-97248745D01*
X81849577Y-97243783D01*
X81951615Y-97037325D01*
X81953393Y-97031474D01*
X82016786Y-96822825D01*
X82016787Y-96822821D01*
X82018563Y-96816975D01*
X82048622Y-96588649D01*
X82050300Y-96520000D01*
X82034397Y-96326567D01*
X82031931Y-96296567D01*
X82031930Y-96296562D01*
X82031430Y-96290478D01*
X82022939Y-96256673D01*
X81976816Y-96073050D01*
X81976814Y-96073045D01*
X81975326Y-96067120D01*
X81883496Y-95855924D01*
X81824946Y-95765420D01*
X81761726Y-95667696D01*
X81761723Y-95667692D01*
X81758405Y-95662563D01*
X81603412Y-95492229D01*
X81598621Y-95488445D01*
X81598611Y-95488436D01*
X81442797Y-95365381D01*
X81396703Y-95303542D01*
X81387705Y-95226940D01*
X81418213Y-95156103D01*
X81448620Y-95127147D01*
X81489024Y-95098327D01*
X81552062Y-95053363D01*
X81715190Y-94890803D01*
X81743372Y-94851584D01*
X81846009Y-94708749D01*
X81846011Y-94708745D01*
X81849577Y-94703783D01*
X81951615Y-94497325D01*
X81953463Y-94491244D01*
X82016786Y-94282825D01*
X82016787Y-94282821D01*
X82018563Y-94276975D01*
X82048622Y-94048649D01*
X82050300Y-93980000D01*
X82041340Y-93871019D01*
X82031931Y-93756567D01*
X82031930Y-93756562D01*
X82031430Y-93750478D01*
X82022939Y-93716673D01*
X81976816Y-93533050D01*
X81976814Y-93533045D01*
X81975326Y-93527120D01*
X81883496Y-93315924D01*
X81853671Y-93269821D01*
X81761726Y-93127696D01*
X81761723Y-93127692D01*
X81758405Y-93122563D01*
X81603412Y-92952229D01*
X81598621Y-92948445D01*
X81598611Y-92948436D01*
X81446455Y-92828270D01*
X81400361Y-92766431D01*
X81391363Y-92689829D01*
X81423829Y-92616564D01*
X81439061Y-92598086D01*
X81436186Y-92590397D01*
X80658871Y-91813081D01*
X80645000Y-91805073D01*
X80631129Y-91813081D01*
X79856243Y-92587968D01*
X79848235Y-92601839D01*
X79866051Y-92632698D01*
X79865838Y-92632821D01*
X79885859Y-92659053D01*
X79895727Y-92735548D01*
X79866026Y-92806728D01*
X79837515Y-92834868D01*
X79716878Y-92925444D01*
X79716874Y-92925447D01*
X79711984Y-92929119D01*
X79552877Y-93095616D01*
X79549429Y-93100670D01*
X79549427Y-93100673D01*
X79498639Y-93175125D01*
X79440165Y-93225420D01*
X79364378Y-93239741D01*
X79291585Y-93214249D01*
X79250448Y-93172094D01*
X79218405Y-93122563D01*
X79063412Y-92952229D01*
X79058621Y-92948445D01*
X79058611Y-92948436D01*
X78906455Y-92828270D01*
X78860361Y-92766431D01*
X78851363Y-92689829D01*
X78883829Y-92616564D01*
X78899061Y-92598086D01*
X78896186Y-92590397D01*
X78118871Y-91813081D01*
X78105000Y-91805073D01*
X78091129Y-91813081D01*
X77316243Y-92587968D01*
X77308235Y-92601839D01*
X77326051Y-92632698D01*
X77325838Y-92632821D01*
X77345859Y-92659053D01*
X77355727Y-92735548D01*
X77326026Y-92806728D01*
X77297515Y-92834868D01*
X77176878Y-92925444D01*
X77176874Y-92925447D01*
X77171984Y-92929119D01*
X77012877Y-93095616D01*
X77009434Y-93100664D01*
X77009431Y-93100667D01*
X76956453Y-93178331D01*
X76883099Y-93285863D01*
X76880529Y-93291400D01*
X76880526Y-93291405D01*
X76852602Y-93351563D01*
X76786136Y-93494752D01*
X76724592Y-93716673D01*
X76723942Y-93722756D01*
X76707700Y-93874734D01*
X76700119Y-93945665D01*
X76703732Y-94008328D01*
X76708938Y-94098604D01*
X76713376Y-94175580D01*
X76764006Y-94400242D01*
X76850649Y-94613618D01*
X76853843Y-94618830D01*
X76853845Y-94618834D01*
X76966695Y-94802987D01*
X76970979Y-94809978D01*
X76974987Y-94814605D01*
X76974990Y-94814609D01*
X77044731Y-94895120D01*
X77121763Y-94984048D01*
X77158451Y-95014507D01*
X77294127Y-95127147D01*
X77298953Y-95131154D01*
X77299421Y-95131428D01*
X77347865Y-95189159D01*
X77361259Y-95265115D01*
X77334881Y-95337592D01*
X77302289Y-95371284D01*
X77171984Y-95469119D01*
X77012877Y-95635616D01*
X77009434Y-95640664D01*
X77009431Y-95640667D01*
X76953934Y-95722023D01*
X76883099Y-95825863D01*
X76880529Y-95831400D01*
X76880526Y-95831405D01*
X76852616Y-95891532D01*
X76786136Y-96034752D01*
X76724592Y-96256673D01*
X76723942Y-96262756D01*
X76707828Y-96413537D01*
X76700119Y-96485665D01*
X76713376Y-96715580D01*
X76764006Y-96940242D01*
X76850649Y-97153618D01*
X76853843Y-97158830D01*
X76853845Y-97158834D01*
X76963220Y-97337317D01*
X76970979Y-97349978D01*
X76974987Y-97354605D01*
X76974990Y-97354609D01*
X77070718Y-97465120D01*
X77121763Y-97524048D01*
X77126473Y-97527958D01*
X77294127Y-97667147D01*
X77298953Y-97671154D01*
X77299421Y-97671428D01*
X77347865Y-97729159D01*
X77361259Y-97805115D01*
X77334881Y-97877592D01*
X77302289Y-97911284D01*
X77171984Y-98009119D01*
X77012877Y-98175616D01*
X77009434Y-98180664D01*
X77009431Y-98180667D01*
X76953934Y-98262023D01*
X76883099Y-98365863D01*
X76880529Y-98371400D01*
X76880526Y-98371405D01*
X76852616Y-98431532D01*
X76786136Y-98574752D01*
X76724592Y-98796673D01*
X76723942Y-98802756D01*
X76703734Y-98991842D01*
X76700119Y-99025665D01*
X76713376Y-99255580D01*
X76764006Y-99480242D01*
X76850649Y-99693618D01*
X76853843Y-99698830D01*
X76853845Y-99698834D01*
X76962065Y-99875432D01*
X76970979Y-99889978D01*
X76974987Y-99894605D01*
X76974990Y-99894609D01*
X77070718Y-100005120D01*
X77121763Y-100064048D01*
X77126473Y-100067958D01*
X77294127Y-100207147D01*
X77298953Y-100211154D01*
X77299421Y-100211428D01*
X77347865Y-100269159D01*
X77361259Y-100345115D01*
X77334881Y-100417592D01*
X77302289Y-100451284D01*
X77171984Y-100549119D01*
X77012877Y-100715616D01*
X77009434Y-100720664D01*
X77009431Y-100720667D01*
X76953934Y-100802023D01*
X76883099Y-100905863D01*
X76880529Y-100911400D01*
X76880526Y-100911405D01*
X76852616Y-100971532D01*
X76786136Y-101114752D01*
X76724592Y-101336673D01*
X76700119Y-101565665D01*
X76713376Y-101795580D01*
X76714719Y-101801538D01*
X76714719Y-101801540D01*
X76726407Y-101853401D01*
X76764006Y-102020242D01*
X76850649Y-102233618D01*
X76853843Y-102238830D01*
X76853845Y-102238834D01*
X76960776Y-102413329D01*
X76970979Y-102429978D01*
X76974987Y-102434605D01*
X76974990Y-102434609D01*
X77100761Y-102579803D01*
X77121763Y-102604048D01*
X77126473Y-102607958D01*
X77294127Y-102747147D01*
X77298953Y-102751154D01*
X77299421Y-102751428D01*
X77347865Y-102809159D01*
X77361259Y-102885115D01*
X77334881Y-102957592D01*
X77302289Y-102991284D01*
X77171984Y-103089119D01*
X77012877Y-103255616D01*
X77009434Y-103260664D01*
X77009431Y-103260667D01*
X76956751Y-103337894D01*
X76883099Y-103445863D01*
X76880529Y-103451400D01*
X76880526Y-103451405D01*
X76852616Y-103511532D01*
X76786136Y-103654752D01*
X76724592Y-103876673D01*
X76723942Y-103882756D01*
X76715653Y-103960319D01*
X76700119Y-104105665D01*
X69166404Y-104105665D01*
X69071753Y-103343150D01*
X69071195Y-103337894D01*
X68984465Y-102355134D01*
X68984094Y-102349861D01*
X68932274Y-101364658D01*
X68932090Y-101359376D01*
X68923557Y-100859741D01*
X68915244Y-100372939D01*
X68915247Y-100367675D01*
X68915361Y-100361478D01*
X68933399Y-99381230D01*
X68933589Y-99375971D01*
X68934298Y-99362825D01*
X68986715Y-98390789D01*
X68987090Y-98385564D01*
X69075124Y-97402892D01*
X69075686Y-97397664D01*
X69077325Y-97384609D01*
X69198512Y-96418761D01*
X69199262Y-96413537D01*
X69249463Y-96103050D01*
X69303368Y-95769645D01*
X69349512Y-95484250D01*
X69355762Y-95459401D01*
X69357620Y-95454021D01*
X69357621Y-95454017D01*
X69361084Y-95443988D01*
X69361410Y-95437206D01*
X69361999Y-95434638D01*
X69363715Y-95429142D01*
X69365539Y-95416922D01*
X69365503Y-95411158D01*
X69365855Y-95406216D01*
X69365881Y-95405380D01*
X69383800Y-95143560D01*
X69373360Y-94987958D01*
X69365800Y-94875265D01*
X69365799Y-94875258D01*
X69365462Y-94870234D01*
X69313217Y-94615526D01*
X69311432Y-94606824D01*
X69311432Y-94606823D01*
X69310418Y-94601881D01*
X69307265Y-94592898D01*
X69221344Y-94348164D01*
X69219674Y-94343407D01*
X69217276Y-94338720D01*
X69097185Y-94104026D01*
X69097181Y-94104020D01*
X69094888Y-94099538D01*
X68938343Y-93874734D01*
X68752901Y-93673104D01*
X68749025Y-93669893D01*
X68749021Y-93669889D01*
X68545835Y-93501552D01*
X68545833Y-93501551D01*
X68541953Y-93498336D01*
X68309355Y-93353624D01*
X68102048Y-93260741D01*
X68063967Y-93243679D01*
X68063965Y-93243678D01*
X68059360Y-93241615D01*
X67833174Y-93175125D01*
X67801388Y-93165781D01*
X67801386Y-93165781D01*
X67796540Y-93164356D01*
X67640264Y-93140644D01*
X67530684Y-93124017D01*
X67530678Y-93124017D01*
X67525699Y-93123261D01*
X67520662Y-93123184D01*
X67520660Y-93123184D01*
X67405935Y-93121433D01*
X67251791Y-93119081D01*
X67246785Y-93119685D01*
X67246784Y-93119685D01*
X66984828Y-93151287D01*
X66984825Y-93151288D01*
X66979823Y-93151891D01*
X66714767Y-93221093D01*
X66461471Y-93325421D01*
X66457109Y-93327953D01*
X66457108Y-93327954D01*
X66267747Y-93437896D01*
X66224565Y-93462967D01*
X66220578Y-93466070D01*
X66220575Y-93466072D01*
X66113380Y-93549499D01*
X66008381Y-93631217D01*
X65816872Y-93827094D01*
X65813868Y-93831139D01*
X65813867Y-93831140D01*
X65784250Y-93871019D01*
X65653540Y-94047016D01*
X65651109Y-94051429D01*
X65651106Y-94051434D01*
X65585929Y-94169760D01*
X65521370Y-94286963D01*
X65519557Y-94291663D01*
X65424736Y-94537477D01*
X65422780Y-94542547D01*
X65421616Y-94547455D01*
X65421614Y-94547462D01*
X65368258Y-94772466D01*
X65365513Y-94781750D01*
X65364287Y-94786268D01*
X65362353Y-94791696D01*
X65361416Y-94796628D01*
X65361334Y-94796865D01*
X65360839Y-94799626D01*
X65360610Y-94800865D01*
X65360046Y-94803834D01*
X65360037Y-94804099D01*
X65359154Y-94809026D01*
X65359022Y-94814785D01*
X65358874Y-94816260D01*
X65357726Y-94825050D01*
X65205647Y-95769645D01*
X65198786Y-95812262D01*
X65161448Y-96103050D01*
X65070557Y-96810912D01*
X65068726Y-96825169D01*
X65068615Y-96826323D01*
X65068613Y-96826342D01*
X65035812Y-97167766D01*
X64971065Y-97841711D01*
X64970990Y-97842882D01*
X64970989Y-97842896D01*
X64908224Y-98824553D01*
X64905903Y-98860852D01*
X64905865Y-98862055D01*
X64905864Y-98862067D01*
X64873440Y-99877317D01*
X64873305Y-99881555D01*
X64873304Y-100902777D01*
X63415500Y-100902777D01*
X63415500Y-91411581D01*
X76692948Y-91411581D01*
X76705572Y-91630524D01*
X76707268Y-91642590D01*
X76755479Y-91856523D01*
X76759125Y-91868161D01*
X76841634Y-92071353D01*
X76847123Y-92082220D01*
X76934314Y-92224503D01*
X76945931Y-92235527D01*
X76952085Y-92233704D01*
X77731919Y-91453871D01*
X77739927Y-91440000D01*
X78470073Y-91440000D01*
X78478081Y-91453871D01*
X79250244Y-92226033D01*
X79264115Y-92234041D01*
X79294974Y-92216225D01*
X79295875Y-92217786D01*
X79326347Y-92196726D01*
X79403221Y-92190472D01*
X79472923Y-92223493D01*
X79479016Y-92228966D01*
X79485930Y-92235527D01*
X79492085Y-92233704D01*
X80271919Y-91453871D01*
X80279927Y-91440000D01*
X81010073Y-91440000D01*
X81018081Y-91453871D01*
X81790244Y-92226033D01*
X81804115Y-92234041D01*
X81811314Y-92229885D01*
X81852460Y-92172625D01*
X81858738Y-92162175D01*
X81955902Y-91965579D01*
X81960390Y-91954245D01*
X82024142Y-91744415D01*
X82026717Y-91732502D01*
X82055621Y-91512948D01*
X82056236Y-91505060D01*
X82057729Y-91443957D01*
X82057501Y-91436051D01*
X82039356Y-91215338D01*
X82037367Y-91203324D01*
X81983941Y-90990628D01*
X81980012Y-90979085D01*
X81892563Y-90777969D01*
X81886812Y-90767242D01*
X81815038Y-90656296D01*
X81803155Y-90645559D01*
X81796504Y-90647707D01*
X81018081Y-91426129D01*
X81010073Y-91440000D01*
X80279927Y-91440000D01*
X80271919Y-91426129D01*
X79499925Y-90654136D01*
X79486054Y-90646128D01*
X79455195Y-90663944D01*
X79454520Y-90662775D01*
X79424906Y-90683781D01*
X79348114Y-90690971D01*
X79273198Y-90654634D01*
X79263155Y-90645559D01*
X79256504Y-90647707D01*
X78478081Y-91426129D01*
X78470073Y-91440000D01*
X77739927Y-91440000D01*
X77731919Y-91426129D01*
X76959925Y-90654136D01*
X76946054Y-90646128D01*
X76939456Y-90649937D01*
X76880000Y-90737096D01*
X76873982Y-90747689D01*
X76781648Y-90946607D01*
X76777439Y-90958048D01*
X76718831Y-91169377D01*
X76716550Y-91181340D01*
X76693246Y-91399404D01*
X76692948Y-91411581D01*
X63415500Y-91411581D01*
X63415500Y-89500452D01*
X63435462Y-89425952D01*
X63490000Y-89371414D01*
X63564500Y-89351452D01*
X66370500Y-89351452D01*
X66370500Y-87956662D01*
X76704500Y-87956662D01*
X76704501Y-88901410D01*
X76704501Y-89847376D01*
X76711149Y-89908580D01*
X76761474Y-90042824D01*
X76847454Y-90157546D01*
X76962176Y-90243526D01*
X76972114Y-90247252D01*
X76972115Y-90247252D01*
X76988894Y-90253542D01*
X77096420Y-90293851D01*
X77105705Y-90294860D01*
X77105706Y-90294860D01*
X77124925Y-90296948D01*
X77157623Y-90300500D01*
X77262993Y-90300500D01*
X77337493Y-90320462D01*
X77368352Y-90344141D01*
X78091129Y-91066919D01*
X78105000Y-91074927D01*
X78118871Y-91066919D01*
X78841649Y-90344140D01*
X78908444Y-90305576D01*
X78947008Y-90300499D01*
X79052376Y-90300499D01*
X79082178Y-90297262D01*
X79104294Y-90294860D01*
X79104297Y-90294859D01*
X79113580Y-90293851D01*
X79221106Y-90253542D01*
X79237885Y-90247252D01*
X79237886Y-90247252D01*
X79247824Y-90243526D01*
X79362546Y-90157546D01*
X79448526Y-90042824D01*
X79465286Y-89998116D01*
X79510129Y-89935363D01*
X79580341Y-89903440D01*
X79657107Y-89910899D01*
X79699982Y-89935778D01*
X79838954Y-90051155D01*
X79838219Y-90052041D01*
X79883700Y-90106248D01*
X79897090Y-90182205D01*
X79870708Y-90254681D01*
X79865910Y-90261153D01*
X79850278Y-90281089D01*
X79853624Y-90289413D01*
X80631129Y-91066919D01*
X80645000Y-91074927D01*
X80658871Y-91066919D01*
X81432931Y-90292858D01*
X81440939Y-90278987D01*
X81423123Y-90248128D01*
X81424060Y-90247587D01*
X81399931Y-90210920D01*
X81395428Y-90133923D01*
X81430026Y-90064991D01*
X81454826Y-90042720D01*
X81552062Y-89973363D01*
X81715190Y-89810803D01*
X81758136Y-89751037D01*
X81846009Y-89628749D01*
X81846011Y-89628745D01*
X81849577Y-89623783D01*
X81951615Y-89417325D01*
X81971629Y-89351452D01*
X82016786Y-89202825D01*
X82016787Y-89202821D01*
X82018563Y-89196975D01*
X82048622Y-88968649D01*
X82050300Y-88900000D01*
X82034397Y-88706567D01*
X82031931Y-88676567D01*
X82031930Y-88676562D01*
X82031430Y-88670478D01*
X81981869Y-88473167D01*
X81976816Y-88453050D01*
X81976814Y-88453045D01*
X81975326Y-88447120D01*
X81883496Y-88235924D01*
X81786452Y-88085917D01*
X81761726Y-88047696D01*
X81761724Y-88047693D01*
X81758405Y-88042563D01*
X81603412Y-87872229D01*
X81422681Y-87729496D01*
X81417328Y-87726541D01*
X81417325Y-87726539D01*
X81321873Y-87673847D01*
X81221065Y-87618198D01*
X81070433Y-87564856D01*
X81009748Y-87543366D01*
X81009745Y-87543365D01*
X81003978Y-87541323D01*
X80997957Y-87540250D01*
X80997955Y-87540250D01*
X80783274Y-87502010D01*
X80777250Y-87500937D01*
X80771136Y-87500862D01*
X80771133Y-87500862D01*
X80678007Y-87499724D01*
X80546971Y-87498123D01*
X80537966Y-87499501D01*
X80325362Y-87532034D01*
X80325360Y-87532035D01*
X80319325Y-87532958D01*
X80100424Y-87604506D01*
X80095009Y-87607325D01*
X79901569Y-87708023D01*
X79901564Y-87708026D01*
X79896149Y-87710845D01*
X79891260Y-87714516D01*
X79891258Y-87714517D01*
X79716878Y-87845444D01*
X79716874Y-87845447D01*
X79711984Y-87849119D01*
X79707757Y-87853543D01*
X79703187Y-87857600D01*
X79701522Y-87855725D01*
X79645493Y-87889758D01*
X79568384Y-87891475D01*
X79500747Y-87854407D01*
X79464216Y-87799030D01*
X79452253Y-87767117D01*
X79452252Y-87767115D01*
X79448526Y-87757176D01*
X79362546Y-87642454D01*
X79247824Y-87556474D01*
X79113580Y-87506149D01*
X79104295Y-87505140D01*
X79104294Y-87505140D01*
X79078399Y-87502327D01*
X79052377Y-87499500D01*
X79048338Y-87499500D01*
X78103591Y-87499501D01*
X77157624Y-87499501D01*
X77131607Y-87502327D01*
X77105706Y-87505140D01*
X77105703Y-87505141D01*
X77096420Y-87506149D01*
X76962176Y-87556474D01*
X76847454Y-87642454D01*
X76761474Y-87757176D01*
X76711149Y-87891420D01*
X76704500Y-87952623D01*
X76704500Y-87956662D01*
X66370500Y-87956662D01*
X66370500Y-86561726D01*
X83560688Y-86561726D01*
X83570977Y-86823582D01*
X83618058Y-87081376D01*
X83619726Y-87086377D01*
X83619728Y-87086383D01*
X83699324Y-87324961D01*
X83699327Y-87324968D01*
X83700994Y-87329965D01*
X83735252Y-87398526D01*
X83801377Y-87530862D01*
X83818128Y-87564387D01*
X83821117Y-87568712D01*
X83821119Y-87568715D01*
X83955595Y-87763286D01*
X83967124Y-87779967D01*
X84145010Y-87972402D01*
X84149086Y-87975720D01*
X84149092Y-87975726D01*
X84288039Y-88088846D01*
X84348235Y-88137853D01*
X84572745Y-88273019D01*
X84814060Y-88375203D01*
X84819159Y-88376555D01*
X84819162Y-88376556D01*
X85062262Y-88441013D01*
X85067365Y-88442366D01*
X85327607Y-88473167D01*
X85589592Y-88466993D01*
X85745681Y-88441013D01*
X85842905Y-88424831D01*
X85842909Y-88424830D01*
X85848094Y-88423967D01*
X86008788Y-88373146D01*
X86092941Y-88346532D01*
X86092944Y-88346531D01*
X86097955Y-88344946D01*
X86102689Y-88342673D01*
X86102696Y-88342670D01*
X86253399Y-88270303D01*
X86334188Y-88231509D01*
X86552082Y-88085917D01*
X86747287Y-87911076D01*
X86783411Y-87868102D01*
X86912519Y-87714509D01*
X86915910Y-87710475D01*
X86918698Y-87706005D01*
X87051802Y-87492581D01*
X87051806Y-87492574D01*
X87054586Y-87488116D01*
X87090800Y-87406202D01*
X87158417Y-87253255D01*
X87158419Y-87253250D01*
X87160547Y-87248436D01*
X87231681Y-86996216D01*
X87260476Y-86781830D01*
X87266060Y-86740260D01*
X87266060Y-86740255D01*
X87266566Y-86736491D01*
X87270227Y-86620000D01*
X87265730Y-86556478D01*
X87252091Y-86363850D01*
X87251719Y-86358596D01*
X87249157Y-86346692D01*
X87200350Y-86120000D01*
X87989532Y-86120000D01*
X87990099Y-86126481D01*
X88005829Y-86306273D01*
X88009365Y-86346692D01*
X88011046Y-86352966D01*
X88011047Y-86352971D01*
X88048796Y-86493850D01*
X88068261Y-86566496D01*
X88071009Y-86572389D01*
X88161683Y-86766840D01*
X88161684Y-86766841D01*
X88164432Y-86772734D01*
X88294953Y-86959139D01*
X88455861Y-87120047D01*
X88642266Y-87250568D01*
X88648155Y-87253314D01*
X88648160Y-87253317D01*
X88812532Y-87329965D01*
X88848504Y-87346739D01*
X88854785Y-87348422D01*
X89062029Y-87403953D01*
X89062034Y-87403954D01*
X89068308Y-87405635D01*
X89074779Y-87406201D01*
X89074784Y-87406202D01*
X89288519Y-87424901D01*
X89295000Y-87425468D01*
X89301481Y-87424901D01*
X89515216Y-87406202D01*
X89515221Y-87406201D01*
X89521692Y-87405635D01*
X89527966Y-87403954D01*
X89527971Y-87403953D01*
X89735215Y-87348422D01*
X89741496Y-87346739D01*
X89777468Y-87329965D01*
X89941840Y-87253317D01*
X89941845Y-87253314D01*
X89947734Y-87250568D01*
X90134139Y-87120047D01*
X90295047Y-86959139D01*
X90425568Y-86772734D01*
X90428317Y-86766839D01*
X90431571Y-86761203D01*
X90433928Y-86762564D01*
X90475288Y-86713182D01*
X90547741Y-86686737D01*
X90623709Y-86700061D01*
X90682838Y-86749584D01*
X90691773Y-86765043D01*
X90691908Y-86764965D01*
X90701645Y-86781830D01*
X90736649Y-86831820D01*
X90748919Y-86842115D01*
X90756397Y-86839393D01*
X91461919Y-86133871D01*
X91469927Y-86120000D01*
X91461919Y-86106129D01*
X90761772Y-85405982D01*
X90747901Y-85397974D01*
X90741010Y-85401952D01*
X90701645Y-85458170D01*
X90691908Y-85475035D01*
X90690517Y-85474232D01*
X90646320Y-85526899D01*
X90573842Y-85553276D01*
X90497886Y-85539879D01*
X90438805Y-85490300D01*
X90432021Y-85478537D01*
X90431571Y-85478797D01*
X90428316Y-85473159D01*
X90425568Y-85467266D01*
X90295047Y-85280861D01*
X90134139Y-85119953D01*
X90128818Y-85116227D01*
X90128813Y-85116223D01*
X90011269Y-85033919D01*
X91112885Y-85033919D01*
X91115607Y-85041397D01*
X92088851Y-86014641D01*
X92127415Y-86081436D01*
X92127415Y-86158564D01*
X92088851Y-86225359D01*
X91120982Y-87193228D01*
X91112974Y-87207099D01*
X91116952Y-87213990D01*
X91173170Y-87253355D01*
X91184398Y-87259838D01*
X91380036Y-87351065D01*
X91392210Y-87355496D01*
X91600722Y-87411367D01*
X91613477Y-87413616D01*
X91828519Y-87432429D01*
X91841481Y-87432429D01*
X92056523Y-87413616D01*
X92069277Y-87411367D01*
X92266936Y-87358404D01*
X92344064Y-87358404D01*
X92410859Y-87396968D01*
X92449423Y-87463763D01*
X92454500Y-87502327D01*
X92454500Y-98494205D01*
X92434538Y-98568705D01*
X92422686Y-98585019D01*
X92422955Y-98585215D01*
X92418362Y-98591536D01*
X92413141Y-98597335D01*
X92409240Y-98604091D01*
X92409239Y-98604093D01*
X92390171Y-98637120D01*
X92323750Y-98752165D01*
X92268503Y-98922197D01*
X92249815Y-99100000D01*
X92250631Y-99107764D01*
X92256393Y-99162581D01*
X92268503Y-99277803D01*
X92323750Y-99447835D01*
X92345727Y-99485900D01*
X92401677Y-99582808D01*
X92413141Y-99602665D01*
X92418363Y-99608465D01*
X92418367Y-99608470D01*
X92470705Y-99666596D01*
X92532770Y-99735526D01*
X92677407Y-99840612D01*
X92840733Y-99913329D01*
X93015609Y-99950500D01*
X93194391Y-99950500D01*
X93202029Y-99948877D01*
X93202034Y-99948876D01*
X93290524Y-99930067D01*
X93367546Y-99934104D01*
X93432231Y-99976111D01*
X93467246Y-100044833D01*
X93470502Y-100075811D01*
X93470502Y-103534205D01*
X93450540Y-103608705D01*
X93438688Y-103625019D01*
X93438957Y-103625215D01*
X93434364Y-103631536D01*
X93429143Y-103637335D01*
X93425242Y-103644091D01*
X93425241Y-103644093D01*
X93415687Y-103660641D01*
X93339752Y-103792165D01*
X93284505Y-103962197D01*
X93283689Y-103969957D01*
X93283689Y-103969959D01*
X93269426Y-104105665D01*
X93265817Y-104140000D01*
X93266633Y-104147764D01*
X93276186Y-104238649D01*
X93284505Y-104317803D01*
X93339752Y-104487835D01*
X93378561Y-104555054D01*
X93421968Y-104630237D01*
X93429143Y-104642665D01*
X93434365Y-104648465D01*
X93434369Y-104648470D01*
X93482989Y-104702467D01*
X93548772Y-104775526D01*
X93555087Y-104780114D01*
X93555088Y-104780115D01*
X93631821Y-104835865D01*
X93693409Y-104880612D01*
X93856735Y-104953329D01*
X94031611Y-104990500D01*
X94210393Y-104990500D01*
X94385269Y-104953329D01*
X94548595Y-104880612D01*
X94610184Y-104835865D01*
X94686916Y-104780115D01*
X94686917Y-104780114D01*
X94693232Y-104775526D01*
X94759015Y-104702467D01*
X94807635Y-104648470D01*
X94807639Y-104648465D01*
X94812861Y-104642665D01*
X94820037Y-104630237D01*
X94863443Y-104555054D01*
X94902252Y-104487835D01*
X94957499Y-104317803D01*
X94965819Y-104238649D01*
X94975371Y-104147764D01*
X94976187Y-104140000D01*
X94972578Y-104105665D01*
X94958315Y-103969959D01*
X94958315Y-103969957D01*
X94957499Y-103962197D01*
X94902252Y-103792165D01*
X94826317Y-103660641D01*
X94816763Y-103644093D01*
X94816762Y-103644091D01*
X94812861Y-103637335D01*
X94807640Y-103631536D01*
X94803047Y-103625215D01*
X94804723Y-103623997D01*
X94774756Y-103565175D01*
X94771502Y-103534205D01*
X94771502Y-102484610D01*
X94791464Y-102410110D01*
X94846002Y-102355572D01*
X94920502Y-102335610D01*
X94981102Y-102348490D01*
X95126733Y-102413329D01*
X95301609Y-102450500D01*
X95480391Y-102450500D01*
X95655267Y-102413329D01*
X95818593Y-102340612D01*
X95963230Y-102235526D01*
X96042647Y-102147325D01*
X96077633Y-102108470D01*
X96077637Y-102108465D01*
X96082859Y-102102665D01*
X96106573Y-102061592D01*
X96130446Y-102020242D01*
X96172250Y-101947835D01*
X96227497Y-101777803D01*
X96235817Y-101698649D01*
X96245369Y-101607764D01*
X96246185Y-101600000D01*
X96242576Y-101565665D01*
X96228313Y-101429959D01*
X96228313Y-101429957D01*
X96227497Y-101422197D01*
X96172250Y-101252165D01*
X96082859Y-101097335D01*
X96077638Y-101091536D01*
X96073045Y-101085215D01*
X96074721Y-101083997D01*
X96044754Y-101025175D01*
X96041500Y-100994205D01*
X96041500Y-98689166D01*
X96061462Y-98614666D01*
X96085141Y-98583807D01*
X97318299Y-97350649D01*
X97326121Y-97343531D01*
X97332940Y-97339204D01*
X97339357Y-97332370D01*
X97339360Y-97332368D01*
X97380572Y-97288481D01*
X97383829Y-97285119D01*
X97403911Y-97265037D01*
X97406777Y-97261343D01*
X97409648Y-97258086D01*
X97415005Y-97251814D01*
X97439031Y-97226229D01*
X97439033Y-97226227D01*
X97445448Y-97219395D01*
X97454726Y-97202517D01*
X97467557Y-97182985D01*
X97479362Y-97167766D01*
X97483227Y-97158834D01*
X97497023Y-97126955D01*
X97503191Y-97114362D01*
X97524627Y-97075370D01*
X97526957Y-97066294D01*
X97526959Y-97066290D01*
X97529417Y-97056716D01*
X97536988Y-97034600D01*
X97544635Y-97016929D01*
X97551592Y-96973006D01*
X97554438Y-96959265D01*
X97563169Y-96925260D01*
X97563169Y-96925256D01*
X97565500Y-96916179D01*
X97565500Y-96896924D01*
X97567334Y-96873615D01*
X97568881Y-96863850D01*
X97568881Y-96863847D01*
X97570346Y-96854598D01*
X97566161Y-96810324D01*
X97565500Y-96796303D01*
X97565500Y-87329697D01*
X97585462Y-87255197D01*
X97629038Y-87207643D01*
X97748813Y-87123777D01*
X97748818Y-87123773D01*
X97754139Y-87120047D01*
X97915047Y-86959139D01*
X98045568Y-86772734D01*
X98049960Y-86763316D01*
X98051214Y-86761821D01*
X98051571Y-86761203D01*
X98051680Y-86761266D01*
X98099535Y-86704232D01*
X98172012Y-86677852D01*
X98247968Y-86691244D01*
X98307053Y-86740820D01*
X98320040Y-86763315D01*
X98324432Y-86772734D01*
X98454953Y-86959139D01*
X98615861Y-87120047D01*
X98802266Y-87250568D01*
X98808155Y-87253314D01*
X98808160Y-87253317D01*
X98972532Y-87329965D01*
X99008504Y-87346739D01*
X99014785Y-87348422D01*
X99222029Y-87403953D01*
X99222034Y-87403954D01*
X99228308Y-87405635D01*
X99234779Y-87406201D01*
X99234784Y-87406202D01*
X99448519Y-87424901D01*
X99455000Y-87425468D01*
X99461481Y-87424901D01*
X99675214Y-87406202D01*
X99675217Y-87406202D01*
X99681692Y-87405635D01*
X99708224Y-87398526D01*
X99785347Y-87398526D01*
X99852144Y-87437090D01*
X100284859Y-87869805D01*
X100323423Y-87936600D01*
X100328500Y-87975164D01*
X100328500Y-101796205D01*
X100308538Y-101870705D01*
X100296686Y-101887019D01*
X100296955Y-101887215D01*
X100292362Y-101893536D01*
X100287141Y-101899335D01*
X100283240Y-101906091D01*
X100283239Y-101906093D01*
X100259140Y-101947835D01*
X100197750Y-102054165D01*
X100142503Y-102224197D01*
X100141687Y-102231957D01*
X100141687Y-102231959D01*
X100140830Y-102240115D01*
X100123815Y-102402000D01*
X100124631Y-102409764D01*
X100138858Y-102545120D01*
X100142503Y-102579803D01*
X100197750Y-102749835D01*
X100230810Y-102807096D01*
X100282915Y-102897345D01*
X100287141Y-102904665D01*
X100292363Y-102910465D01*
X100292367Y-102910470D01*
X100384256Y-103012521D01*
X100406770Y-103037526D01*
X100413085Y-103042114D01*
X100413086Y-103042115D01*
X100515809Y-103116748D01*
X100551407Y-103142612D01*
X100714733Y-103215329D01*
X100889609Y-103252500D01*
X101068391Y-103252500D01*
X101164521Y-103232067D01*
X101241544Y-103236104D01*
X101306229Y-103278111D01*
X101341244Y-103346832D01*
X101344500Y-103377811D01*
X101344500Y-104353846D01*
X101344002Y-104364414D01*
X101342240Y-104372296D01*
X101342535Y-104381668D01*
X101344426Y-104441849D01*
X101344500Y-104446530D01*
X101344500Y-104474925D01*
X101345085Y-104479558D01*
X101345357Y-104483884D01*
X101346006Y-104492127D01*
X101346961Y-104522504D01*
X101347403Y-104536569D01*
X101350018Y-104545568D01*
X101352774Y-104555054D01*
X101357516Y-104577953D01*
X101359929Y-104597058D01*
X101363380Y-104605774D01*
X101376302Y-104638410D01*
X101380850Y-104651693D01*
X101393256Y-104694398D01*
X101398028Y-104702467D01*
X101403059Y-104710974D01*
X101413342Y-104731963D01*
X101420432Y-104749871D01*
X101446575Y-104785854D01*
X101454275Y-104797576D01*
X101459261Y-104806006D01*
X101476919Y-104835865D01*
X101490534Y-104849480D01*
X101505719Y-104867259D01*
X101506802Y-104868749D01*
X101517037Y-104882837D01*
X101548016Y-104908465D01*
X101551304Y-104911185D01*
X101561687Y-104920633D01*
X102106110Y-105465056D01*
X102144674Y-105531851D01*
X102148935Y-105554839D01*
X102153221Y-105595611D01*
X102154502Y-105607802D01*
X102209749Y-105777834D01*
X102240257Y-105830675D01*
X102294730Y-105925025D01*
X102299140Y-105932664D01*
X102304362Y-105938464D01*
X102304366Y-105938469D01*
X102368024Y-106009167D01*
X102418769Y-106065525D01*
X102425084Y-106070113D01*
X102425085Y-106070114D01*
X102544447Y-106156836D01*
X102563406Y-106170611D01*
X102726732Y-106243328D01*
X102901608Y-106280499D01*
X103080390Y-106280499D01*
X103255266Y-106243328D01*
X103418592Y-106170611D01*
X103437552Y-106156836D01*
X103556913Y-106070114D01*
X103556914Y-106070113D01*
X103563229Y-106065525D01*
X103613974Y-106009167D01*
X103677632Y-105938469D01*
X103677636Y-105938464D01*
X103682858Y-105932664D01*
X103687269Y-105925025D01*
X103741741Y-105830675D01*
X103772249Y-105777834D01*
X103827496Y-105607802D01*
X103828778Y-105595611D01*
X103845368Y-105437763D01*
X103846184Y-105429999D01*
X103841260Y-105383152D01*
X103828312Y-105259958D01*
X103828312Y-105259956D01*
X103827496Y-105252196D01*
X103772249Y-105082164D01*
X103708029Y-104970931D01*
X103686763Y-104934097D01*
X103686761Y-104934094D01*
X103682858Y-104927334D01*
X103677636Y-104921534D01*
X103677632Y-104921529D01*
X103568453Y-104800275D01*
X103563229Y-104794473D01*
X103478709Y-104733065D01*
X103424907Y-104693975D01*
X103424906Y-104693974D01*
X103418592Y-104689387D01*
X103411461Y-104686212D01*
X103408970Y-104684774D01*
X103354432Y-104630237D01*
X103334469Y-104555737D01*
X103354431Y-104481237D01*
X103408968Y-104426699D01*
X103422849Y-104419625D01*
X103438593Y-104412616D01*
X103533863Y-104343398D01*
X103576914Y-104312119D01*
X103576915Y-104312118D01*
X103583230Y-104307530D01*
X103668723Y-104212581D01*
X103697633Y-104180474D01*
X103697637Y-104180469D01*
X103702859Y-104174669D01*
X103792250Y-104019839D01*
X103847497Y-103849807D01*
X103853556Y-103792165D01*
X103865369Y-103679768D01*
X103866185Y-103672004D01*
X103847497Y-103494201D01*
X103792250Y-103324169D01*
X103702859Y-103169339D01*
X103697638Y-103163540D01*
X103693045Y-103157219D01*
X103694721Y-103156001D01*
X103664754Y-103097179D01*
X103661500Y-103066209D01*
X103661500Y-87975164D01*
X103681462Y-87900664D01*
X103705141Y-87869805D01*
X104137856Y-87437090D01*
X104204651Y-87398526D01*
X104281776Y-87398526D01*
X104308308Y-87405635D01*
X104314783Y-87406202D01*
X104314786Y-87406202D01*
X104528519Y-87424901D01*
X104535000Y-87425468D01*
X104541481Y-87424901D01*
X104755216Y-87406202D01*
X104755221Y-87406201D01*
X104761692Y-87405635D01*
X104767966Y-87403954D01*
X104767971Y-87403953D01*
X104975215Y-87348422D01*
X104981496Y-87346739D01*
X105017468Y-87329965D01*
X105181840Y-87253317D01*
X105181845Y-87253314D01*
X105187734Y-87250568D01*
X105374139Y-87120047D01*
X105535047Y-86959139D01*
X105665568Y-86772734D01*
X105668316Y-86766841D01*
X105668317Y-86766840D01*
X105758991Y-86572389D01*
X105761739Y-86566496D01*
X105763017Y-86561726D01*
X106560688Y-86561726D01*
X106570977Y-86823582D01*
X106618058Y-87081376D01*
X106619726Y-87086377D01*
X106619728Y-87086383D01*
X106699324Y-87324961D01*
X106699327Y-87324968D01*
X106700994Y-87329965D01*
X106735252Y-87398526D01*
X106801377Y-87530862D01*
X106818128Y-87564387D01*
X106821117Y-87568712D01*
X106821119Y-87568715D01*
X106955595Y-87763286D01*
X106967124Y-87779967D01*
X107145010Y-87972402D01*
X107149086Y-87975720D01*
X107149092Y-87975726D01*
X107288039Y-88088846D01*
X107348235Y-88137853D01*
X107572745Y-88273019D01*
X107814060Y-88375203D01*
X107819159Y-88376555D01*
X107819162Y-88376556D01*
X108062262Y-88441013D01*
X108067365Y-88442366D01*
X108327607Y-88473167D01*
X108589592Y-88466993D01*
X108745681Y-88441013D01*
X108842905Y-88424831D01*
X108842909Y-88424830D01*
X108848094Y-88423967D01*
X109008788Y-88373146D01*
X109092941Y-88346532D01*
X109092944Y-88346531D01*
X109097955Y-88344946D01*
X109102689Y-88342673D01*
X109102696Y-88342670D01*
X109253399Y-88270303D01*
X109334188Y-88231509D01*
X109552082Y-88085917D01*
X109747287Y-87911076D01*
X109783411Y-87868102D01*
X109912519Y-87714509D01*
X109915910Y-87710475D01*
X109918698Y-87706005D01*
X110051802Y-87492581D01*
X110051806Y-87492574D01*
X110054586Y-87488116D01*
X110090800Y-87406202D01*
X110158417Y-87253255D01*
X110158419Y-87253250D01*
X110160547Y-87248436D01*
X110231681Y-86996216D01*
X110260476Y-86781830D01*
X110266060Y-86740260D01*
X110266060Y-86740255D01*
X110266566Y-86736491D01*
X110270227Y-86620000D01*
X110265730Y-86556478D01*
X110252091Y-86363850D01*
X110251719Y-86358596D01*
X110249157Y-86346692D01*
X110197672Y-86107560D01*
X110196563Y-86102408D01*
X110177895Y-86051806D01*
X110107685Y-85861493D01*
X110107683Y-85861489D01*
X110105860Y-85856547D01*
X110007095Y-85673504D01*
X109983919Y-85630551D01*
X109983917Y-85630548D01*
X109981420Y-85625920D01*
X109924426Y-85548756D01*
X109828854Y-85419360D01*
X109828849Y-85419354D01*
X109825726Y-85415126D01*
X109822035Y-85411377D01*
X109822032Y-85411373D01*
X109693553Y-85280861D01*
X109641884Y-85228374D01*
X109588271Y-85187458D01*
X109437750Y-85072584D01*
X109437748Y-85072583D01*
X109433562Y-85069388D01*
X109204917Y-84941340D01*
X109172105Y-84928646D01*
X108965429Y-84848689D01*
X108965426Y-84848688D01*
X108960512Y-84846787D01*
X108705221Y-84787614D01*
X108699973Y-84787159D01*
X108699970Y-84787159D01*
X108449398Y-84765457D01*
X108449394Y-84765457D01*
X108444141Y-84765002D01*
X108182478Y-84779402D01*
X108177320Y-84780428D01*
X108177312Y-84780429D01*
X107930623Y-84829499D01*
X107930620Y-84829500D01*
X107925456Y-84830527D01*
X107678201Y-84917357D01*
X107673538Y-84919779D01*
X107673534Y-84919781D01*
X107627080Y-84943912D01*
X107445647Y-85038159D01*
X107232434Y-85190523D01*
X107042816Y-85371409D01*
X107039554Y-85375546D01*
X107039552Y-85375549D01*
X106899444Y-85553276D01*
X106880578Y-85577208D01*
X106748955Y-85803813D01*
X106725592Y-85861493D01*
X106663561Y-86014641D01*
X106650574Y-86046703D01*
X106649308Y-86051800D01*
X106649306Y-86051806D01*
X106622788Y-86158564D01*
X106587399Y-86301032D01*
X106560688Y-86561726D01*
X105763017Y-86561726D01*
X105781204Y-86493850D01*
X105818953Y-86352971D01*
X105818954Y-86352966D01*
X105820635Y-86346692D01*
X105824172Y-86306273D01*
X105839901Y-86126481D01*
X105840468Y-86120000D01*
X105820635Y-85893308D01*
X105812111Y-85861493D01*
X105763422Y-85679785D01*
X105761739Y-85673504D01*
X105714908Y-85573075D01*
X105668317Y-85473160D01*
X105668314Y-85473155D01*
X105665568Y-85467266D01*
X105535047Y-85280861D01*
X105374139Y-85119953D01*
X105187734Y-84989432D01*
X105181845Y-84986686D01*
X105181840Y-84986683D01*
X104987389Y-84896009D01*
X104981496Y-84893261D01*
X104956909Y-84886673D01*
X104767971Y-84836047D01*
X104767966Y-84836046D01*
X104761692Y-84834365D01*
X104755221Y-84833799D01*
X104755216Y-84833798D01*
X104644783Y-84824137D01*
X104535519Y-84814577D01*
X104463044Y-84788199D01*
X104413467Y-84729115D01*
X104400074Y-84653159D01*
X104426453Y-84580682D01*
X104485537Y-84531105D01*
X104496204Y-84526627D01*
X104547881Y-84507254D01*
X104547884Y-84507252D01*
X104557824Y-84503526D01*
X104672546Y-84417546D01*
X104758526Y-84302824D01*
X104808851Y-84168580D01*
X104815500Y-84107377D01*
X104815499Y-82212624D01*
X104808851Y-82151420D01*
X104758526Y-82017176D01*
X104672546Y-81902454D01*
X104557824Y-81816474D01*
X104547884Y-81812748D01*
X104547881Y-81812746D01*
X104513852Y-81799989D01*
X104451100Y-81755146D01*
X104419177Y-81684934D01*
X104426637Y-81608168D01*
X104460978Y-81554931D01*
X104485190Y-81530803D01*
X104493312Y-81519500D01*
X104616009Y-81348749D01*
X104616011Y-81348745D01*
X104619577Y-81343783D01*
X104721615Y-81137325D01*
X104728819Y-81113615D01*
X104786786Y-80922825D01*
X104786787Y-80922821D01*
X104788563Y-80916975D01*
X104818622Y-80688649D01*
X104819374Y-80657905D01*
X104820203Y-80623957D01*
X104820300Y-80620000D01*
X104807985Y-80470205D01*
X104801931Y-80396567D01*
X104801930Y-80396562D01*
X104801430Y-80390478D01*
X104792939Y-80356673D01*
X104746816Y-80173050D01*
X104746814Y-80173045D01*
X104745326Y-80167120D01*
X104653496Y-79955924D01*
X104630785Y-79920818D01*
X104531726Y-79767696D01*
X104531724Y-79767693D01*
X104528405Y-79762563D01*
X104373412Y-79592229D01*
X104368621Y-79588445D01*
X104368611Y-79588436D01*
X104212797Y-79465381D01*
X104166703Y-79403542D01*
X104157705Y-79326940D01*
X104188213Y-79256103D01*
X104218620Y-79227147D01*
X104317075Y-79156920D01*
X104322062Y-79153363D01*
X104485190Y-78990803D01*
X104539941Y-78914609D01*
X104616009Y-78808749D01*
X104616011Y-78808745D01*
X104619577Y-78803783D01*
X104721615Y-78597325D01*
X104723393Y-78591474D01*
X104786786Y-78382825D01*
X104786787Y-78382821D01*
X104788563Y-78376975D01*
X104818622Y-78148649D01*
X104820300Y-78080000D01*
X104801430Y-77850478D01*
X104792939Y-77816673D01*
X104746816Y-77633050D01*
X104746814Y-77633045D01*
X104745326Y-77627120D01*
X104653496Y-77415924D01*
X104528405Y-77222563D01*
X104373412Y-77052229D01*
X104192681Y-76909496D01*
X104187328Y-76906541D01*
X104187325Y-76906539D01*
X104091873Y-76853847D01*
X103991065Y-76798198D01*
X103882522Y-76759761D01*
X103779748Y-76723366D01*
X103779745Y-76723365D01*
X103773978Y-76721323D01*
X103767957Y-76720250D01*
X103767955Y-76720250D01*
X103553274Y-76682010D01*
X103547250Y-76680937D01*
X103541136Y-76680862D01*
X103541133Y-76680862D01*
X103448007Y-76679724D01*
X103316971Y-76678123D01*
X103310932Y-76679047D01*
X103310933Y-76679047D01*
X103095362Y-76712034D01*
X103095360Y-76712035D01*
X103089325Y-76712958D01*
X102870424Y-76784506D01*
X102865009Y-76787325D01*
X102671569Y-76888023D01*
X102671564Y-76888026D01*
X102666149Y-76890845D01*
X102661260Y-76894516D01*
X102661258Y-76894517D01*
X102486878Y-77025444D01*
X102486874Y-77025447D01*
X102481984Y-77029119D01*
X102322877Y-77195616D01*
X102193099Y-77385863D01*
X102190529Y-77391400D01*
X102190526Y-77391405D01*
X102179145Y-77415924D01*
X102096136Y-77594752D01*
X102034592Y-77816673D01*
X102010119Y-78045665D01*
X102023376Y-78275580D01*
X102074006Y-78500242D01*
X102160649Y-78713618D01*
X102163843Y-78718830D01*
X102163845Y-78718834D01*
X102277777Y-78904753D01*
X102280979Y-78909978D01*
X102284987Y-78914605D01*
X102284990Y-78914609D01*
X102354731Y-78995120D01*
X102431763Y-79084048D01*
X102436473Y-79087958D01*
X102604127Y-79227147D01*
X102608953Y-79231154D01*
X102609421Y-79231428D01*
X102657865Y-79289159D01*
X102671259Y-79365115D01*
X102644881Y-79437592D01*
X102612289Y-79471284D01*
X102481984Y-79569119D01*
X102322877Y-79735616D01*
X102193099Y-79925863D01*
X102190529Y-79931400D01*
X102190526Y-79931405D01*
X102141057Y-80037977D01*
X102096136Y-80134752D01*
X102034592Y-80356673D01*
X102033942Y-80362756D01*
X102023012Y-80465026D01*
X101995246Y-80536983D01*
X101935222Y-80585416D01*
X101859022Y-80597348D01*
X101787065Y-80569582D01*
X101769497Y-80554551D01*
X101431647Y-80216701D01*
X101424529Y-80208879D01*
X101420202Y-80202060D01*
X101413368Y-80195643D01*
X101413366Y-80195640D01*
X101369479Y-80154428D01*
X101366117Y-80151171D01*
X101346035Y-80131089D01*
X101342341Y-80128223D01*
X101339084Y-80125352D01*
X101332812Y-80119995D01*
X101307227Y-80095969D01*
X101307225Y-80095967D01*
X101300393Y-80089552D01*
X101283515Y-80080274D01*
X101263983Y-80067443D01*
X101248764Y-80055638D01*
X101240159Y-80051914D01*
X101240155Y-80051912D01*
X101207951Y-80037977D01*
X101195352Y-80031805D01*
X101156368Y-80010373D01*
X101146959Y-80007957D01*
X101137712Y-80005583D01*
X101115594Y-79998011D01*
X101097926Y-79990365D01*
X101088670Y-79988899D01*
X101088667Y-79988898D01*
X101054010Y-79983409D01*
X101040266Y-79980563D01*
X101006257Y-79971831D01*
X101006254Y-79971831D01*
X100997177Y-79969500D01*
X100977921Y-79969500D01*
X100954611Y-79967665D01*
X100944853Y-79966119D01*
X100944850Y-79966119D01*
X100935595Y-79964653D01*
X100903733Y-79967665D01*
X100891314Y-79968839D01*
X100877291Y-79969500D01*
X100314000Y-79969500D01*
X100239500Y-79949538D01*
X100184962Y-79895000D01*
X100165000Y-79820500D01*
X100165000Y-75620000D01*
X93665000Y-75620000D01*
X93665000Y-80611514D01*
X93645038Y-80686014D01*
X93590500Y-80740552D01*
X93532092Y-80759642D01*
X93513713Y-80761639D01*
X93513708Y-80761640D01*
X93504420Y-80762649D01*
X93417426Y-80795261D01*
X93390367Y-80805405D01*
X93370176Y-80812974D01*
X93255454Y-80898954D01*
X93169474Y-81013676D01*
X93119149Y-81147920D01*
X93112500Y-81209123D01*
X93112500Y-81213162D01*
X93112501Y-81918335D01*
X93092539Y-81992835D01*
X93068860Y-82023694D01*
X92724359Y-82368195D01*
X92657564Y-82406759D01*
X92580436Y-82406759D01*
X92513641Y-82368195D01*
X92475077Y-82301400D01*
X92470000Y-82262836D01*
X92470000Y-82228616D01*
X92465855Y-82213145D01*
X92450384Y-82209000D01*
X91791116Y-82209000D01*
X91775645Y-82213145D01*
X91771500Y-82228616D01*
X91771500Y-83141883D01*
X91775645Y-83157354D01*
X91791116Y-83161499D01*
X92006060Y-83161499D01*
X92014091Y-83161064D01*
X92062923Y-83155760D01*
X92080953Y-83151473D01*
X92198520Y-83107399D01*
X92226267Y-83092208D01*
X92227007Y-83093559D01*
X92287727Y-83069211D01*
X92364076Y-83080144D01*
X92424730Y-83127787D01*
X92453436Y-83199374D01*
X92454500Y-83217147D01*
X92454500Y-84737673D01*
X92434538Y-84812173D01*
X92380000Y-84866711D01*
X92305500Y-84886673D01*
X92266936Y-84881596D01*
X92069277Y-84828633D01*
X92056523Y-84826384D01*
X91841481Y-84807571D01*
X91828519Y-84807571D01*
X91613477Y-84826384D01*
X91600722Y-84828633D01*
X91392210Y-84884504D01*
X91380036Y-84888935D01*
X91184398Y-84980162D01*
X91173170Y-84986645D01*
X91123180Y-85021649D01*
X91112885Y-85033919D01*
X90011269Y-85033919D01*
X90009038Y-85032357D01*
X89959460Y-84973274D01*
X89945500Y-84910303D01*
X89945500Y-84191164D01*
X89965462Y-84116664D01*
X89989141Y-84085805D01*
X90015793Y-84059153D01*
X90023619Y-84052031D01*
X90030440Y-84047702D01*
X90078087Y-83996963D01*
X90081344Y-83993601D01*
X90101411Y-83973534D01*
X90104284Y-83969830D01*
X90107189Y-83966535D01*
X90112487Y-83960331D01*
X90142948Y-83927893D01*
X90152227Y-83911015D01*
X90165060Y-83891480D01*
X90171114Y-83883676D01*
X90171118Y-83883669D01*
X90176863Y-83876263D01*
X90183901Y-83860000D01*
X90194524Y-83835450D01*
X90200702Y-83822839D01*
X90217612Y-83792081D01*
X90217613Y-83792079D01*
X90222127Y-83783868D01*
X90224458Y-83774790D01*
X90226915Y-83765221D01*
X90234489Y-83743098D01*
X90238412Y-83734033D01*
X90238413Y-83734029D01*
X90242136Y-83725426D01*
X90249094Y-83681499D01*
X90251939Y-83667758D01*
X90256846Y-83648646D01*
X90263000Y-83624677D01*
X90263000Y-83605421D01*
X90264833Y-83582124D01*
X90267847Y-83563095D01*
X90263661Y-83518814D01*
X90263000Y-83504791D01*
X90263000Y-83199156D01*
X90282962Y-83124656D01*
X90322640Y-83079926D01*
X90414546Y-83011046D01*
X90441083Y-82975638D01*
X90501737Y-82927994D01*
X90578086Y-82917061D01*
X90649673Y-82945766D01*
X90679546Y-82975640D01*
X90703729Y-83007908D01*
X90718593Y-83022772D01*
X90818041Y-83097304D01*
X90836480Y-83107399D01*
X90954044Y-83151472D01*
X90972079Y-83155761D01*
X91020912Y-83161066D01*
X91028938Y-83161500D01*
X91243884Y-83161500D01*
X91259355Y-83157355D01*
X91263500Y-83141884D01*
X91263500Y-81681384D01*
X91771500Y-81681384D01*
X91775645Y-81696855D01*
X91791116Y-81701000D01*
X92450383Y-81701000D01*
X92465854Y-81696855D01*
X92469999Y-81681384D01*
X92469999Y-81212440D01*
X92469564Y-81204409D01*
X92464260Y-81155577D01*
X92459973Y-81137547D01*
X92415899Y-81019980D01*
X92405804Y-81001541D01*
X92331272Y-80902093D01*
X92316407Y-80887228D01*
X92216959Y-80812696D01*
X92198520Y-80802601D01*
X92080956Y-80758528D01*
X92062921Y-80754239D01*
X92014088Y-80748934D01*
X92006062Y-80748500D01*
X91791116Y-80748500D01*
X91775645Y-80752645D01*
X91771500Y-80768116D01*
X91771500Y-81681384D01*
X91263500Y-81681384D01*
X91263500Y-80768117D01*
X91259355Y-80752646D01*
X91243884Y-80748501D01*
X91028940Y-80748501D01*
X91020909Y-80748936D01*
X90972077Y-80754240D01*
X90954047Y-80758527D01*
X90836480Y-80802601D01*
X90818041Y-80812696D01*
X90718593Y-80887228D01*
X90703729Y-80902092D01*
X90679546Y-80934360D01*
X90618893Y-80982005D01*
X90542544Y-80992940D01*
X90470957Y-80964235D01*
X90441083Y-80934362D01*
X90420912Y-80907448D01*
X90414546Y-80898954D01*
X90299824Y-80812974D01*
X90279634Y-80805405D01*
X90174324Y-80765927D01*
X90174325Y-80765927D01*
X90165580Y-80762649D01*
X90156295Y-80761640D01*
X90156294Y-80761640D01*
X90134541Y-80759277D01*
X90104377Y-80756000D01*
X90100338Y-80756000D01*
X89611769Y-80756001D01*
X89120624Y-80756001D01*
X89090822Y-80759238D01*
X89068706Y-80761640D01*
X89068703Y-80761641D01*
X89059420Y-80762649D01*
X88972426Y-80795261D01*
X88945367Y-80805405D01*
X88925176Y-80812974D01*
X88810454Y-80898954D01*
X88724474Y-81013676D01*
X88674149Y-81147920D01*
X88667500Y-81209123D01*
X88667501Y-82700876D01*
X88674149Y-82762080D01*
X88724474Y-82896324D01*
X88810454Y-83011046D01*
X88902360Y-83079926D01*
X88950002Y-83140578D01*
X88962000Y-83199156D01*
X88962000Y-83211336D01*
X88942038Y-83285836D01*
X88918359Y-83316695D01*
X88891701Y-83343353D01*
X88883879Y-83350471D01*
X88877060Y-83354798D01*
X88870643Y-83361632D01*
X88870640Y-83361634D01*
X88829428Y-83405521D01*
X88826171Y-83408883D01*
X88806089Y-83428965D01*
X88803223Y-83432659D01*
X88800352Y-83435916D01*
X88794995Y-83442188D01*
X88774556Y-83463954D01*
X88764552Y-83474607D01*
X88755274Y-83491485D01*
X88742443Y-83511017D01*
X88730638Y-83526236D01*
X88726914Y-83534841D01*
X88726912Y-83534845D01*
X88712977Y-83567049D01*
X88706805Y-83579648D01*
X88685373Y-83618632D01*
X88683042Y-83627711D01*
X88680583Y-83637288D01*
X88673011Y-83659406D01*
X88665365Y-83677074D01*
X88663899Y-83686330D01*
X88663898Y-83686333D01*
X88658409Y-83720990D01*
X88655563Y-83734734D01*
X88647736Y-83765221D01*
X88644500Y-83777823D01*
X88644500Y-83797079D01*
X88642665Y-83820389D01*
X88639653Y-83839405D01*
X88640535Y-83848734D01*
X88643839Y-83883686D01*
X88644500Y-83897709D01*
X88644500Y-84910303D01*
X88624538Y-84984803D01*
X88580962Y-85032357D01*
X88461187Y-85116223D01*
X88461182Y-85116227D01*
X88455861Y-85119953D01*
X88294953Y-85280861D01*
X88164432Y-85467266D01*
X88161686Y-85473155D01*
X88161683Y-85473160D01*
X88115092Y-85573075D01*
X88068261Y-85673504D01*
X88066578Y-85679785D01*
X88017890Y-85861493D01*
X88009365Y-85893308D01*
X87989532Y-86120000D01*
X87200350Y-86120000D01*
X87197672Y-86107560D01*
X87196563Y-86102408D01*
X87177895Y-86051806D01*
X87107685Y-85861493D01*
X87107683Y-85861489D01*
X87105860Y-85856547D01*
X87007095Y-85673504D01*
X86983919Y-85630551D01*
X86983917Y-85630548D01*
X86981420Y-85625920D01*
X86924426Y-85548756D01*
X86828854Y-85419360D01*
X86828849Y-85419354D01*
X86825726Y-85415126D01*
X86822035Y-85411377D01*
X86822032Y-85411373D01*
X86693553Y-85280861D01*
X86641884Y-85228374D01*
X86588271Y-85187458D01*
X86437750Y-85072584D01*
X86437748Y-85072583D01*
X86433562Y-85069388D01*
X86204917Y-84941340D01*
X86172105Y-84928646D01*
X85965429Y-84848689D01*
X85965426Y-84848688D01*
X85960512Y-84846787D01*
X85705221Y-84787614D01*
X85699973Y-84787159D01*
X85699970Y-84787159D01*
X85449398Y-84765457D01*
X85449394Y-84765457D01*
X85444141Y-84765002D01*
X85182478Y-84779402D01*
X85177320Y-84780428D01*
X85177312Y-84780429D01*
X84930623Y-84829499D01*
X84930620Y-84829500D01*
X84925456Y-84830527D01*
X84678201Y-84917357D01*
X84673538Y-84919779D01*
X84673534Y-84919781D01*
X84627080Y-84943912D01*
X84445647Y-85038159D01*
X84232434Y-85190523D01*
X84042816Y-85371409D01*
X84039554Y-85375546D01*
X84039552Y-85375549D01*
X83899444Y-85553276D01*
X83880578Y-85577208D01*
X83748955Y-85803813D01*
X83725592Y-85861493D01*
X83663561Y-86014641D01*
X83650574Y-86046703D01*
X83649308Y-86051800D01*
X83649306Y-86051806D01*
X83622788Y-86158564D01*
X83587399Y-86301032D01*
X83560688Y-86561726D01*
X66370500Y-86561726D01*
X66370500Y-81519500D01*
X66390462Y-81445000D01*
X66445000Y-81390462D01*
X66519500Y-81370500D01*
X68906450Y-81370500D01*
X68907360Y-81370503D01*
X68976218Y-81370924D01*
X68976221Y-81370924D01*
X68983624Y-81370969D01*
X68986152Y-81370246D01*
X68989765Y-81370000D01*
X69415000Y-81370000D01*
X69415000Y-80946253D01*
X69415112Y-80944741D01*
X69415093Y-80944741D01*
X69415156Y-80934362D01*
X69415301Y-80910683D01*
X69415325Y-80910117D01*
X69415500Y-80908991D01*
X69415500Y-80878550D01*
X69415503Y-80877640D01*
X69415788Y-80831009D01*
X69415969Y-80801376D01*
X69415576Y-80800001D01*
X69415500Y-80798884D01*
X69415500Y-70019500D01*
X69435462Y-69945000D01*
X69490000Y-69890462D01*
X69564500Y-69870500D01*
X77406450Y-69870500D01*
X77407360Y-69870503D01*
X77476218Y-69870924D01*
X77476221Y-69870924D01*
X77483624Y-69870969D01*
X77486152Y-69870246D01*
X77489765Y-69870000D01*
X77915000Y-69870000D01*
X77915000Y-69446253D01*
X77915112Y-69444741D01*
X77915093Y-69444741D01*
X77915301Y-69410692D01*
X77915325Y-69410117D01*
X77915500Y-69408991D01*
X77915500Y-69378550D01*
X77915503Y-69377640D01*
X77915788Y-69331009D01*
X77915969Y-69301376D01*
X77915576Y-69300001D01*
X77915500Y-69298884D01*
X77915500Y-67019500D01*
X77935462Y-66945000D01*
X77990000Y-66890462D01*
X78064500Y-66870500D01*
X103255976Y-66870500D01*
X103330476Y-66890462D01*
G37*
G04 #@! TD.AperFunction*
M02*
