G04 #@! TF.GenerationSoftware,KiCad,Pcbnew,5.0.2-bee76a0~70~ubuntu18.04.1*
G04 #@! TF.CreationDate,2018-12-27T21:02:31+01:00*
G04 #@! TF.ProjectId,switch_3pole_5x,73776974-6368-45f3-9370-6f6c655f3578,B*
G04 #@! TF.SameCoordinates,Original*
G04 #@! TF.FileFunction,Profile,NP*
%FSLAX46Y46*%
G04 Gerber Fmt 4.6, Leading zero omitted, Abs format (unit mm)*
G04 Created by KiCad (PCBNEW 5.0.2-bee76a0~70~ubuntu18.04.1) date Do 27 Dez 2018 21:02:31 CET*
%MOMM*%
%LPD*%
G01*
G04 APERTURE LIST*
%ADD10C,0.150000*%
G04 APERTURE END LIST*
D10*
X135000000Y-53500000D02*
X135000000Y-62000000D01*
X137000000Y-53500000D02*
G75*
G03X135000000Y-53500000I-1000000J0D01*
G01*
X135000000Y-62000000D02*
G75*
G03X137000000Y-62000000I1000000J0D01*
G01*
X137000000Y-62000000D02*
X137000000Y-53500000D01*
X135000000Y-66500000D02*
X135000000Y-75000000D01*
X137000000Y-66500000D02*
G75*
G03X135000000Y-66500000I-1000000J0D01*
G01*
X135000000Y-75000000D02*
G75*
G03X137000000Y-75000000I1000000J0D01*
G01*
X137000000Y-75000000D02*
X137000000Y-66500000D01*
X135000000Y-79500000D02*
X135000000Y-88000000D01*
X137000000Y-79500000D02*
G75*
G03X135000000Y-79500000I-1000000J0D01*
G01*
X135000000Y-88000000D02*
G75*
G03X137000000Y-88000000I1000000J0D01*
G01*
X137000000Y-88000000D02*
X137000000Y-79500000D01*
X135000000Y-101000000D02*
G75*
G03X137000000Y-101000000I1000000J0D01*
G01*
X135000000Y-92500000D02*
X135000000Y-101000000D01*
X137000000Y-92500000D02*
G75*
G03X135000000Y-92500000I-1000000J0D01*
G01*
X137000000Y-101000000D02*
X137000000Y-92500000D01*
X137000000Y-105500000D02*
G75*
G03X135000000Y-105500000I-1000000J0D01*
G01*
X135000000Y-114000000D02*
G75*
G03X137000000Y-114000000I1000000J0D01*
G01*
X137000000Y-114000000D02*
X137000000Y-105500000D01*
X135000000Y-105500000D02*
X135000000Y-114000000D01*
X100000000Y-117000000D02*
X100000000Y-50000000D01*
X193000000Y-117000000D02*
X100000000Y-117000000D01*
X193000000Y-50000000D02*
X193000000Y-117000000D01*
X100000000Y-50000000D02*
X193000000Y-50000000D01*
M02*
