G04 #@! TF.GenerationSoftware,KiCad,Pcbnew,5.0.2-bee76a0~70~ubuntu18.04.1*
G04 #@! TF.CreationDate,2018-12-27T21:02:31+01:00*
G04 #@! TF.ProjectId,switch_3pole_5x,73776974-6368-45f3-9370-6f6c655f3578,B*
G04 #@! TF.SameCoordinates,Original*
G04 #@! TF.FileFunction,Legend,Bot*
G04 #@! TF.FilePolarity,Positive*
%FSLAX46Y46*%
G04 Gerber Fmt 4.6, Leading zero omitted, Abs format (unit mm)*
G04 Created by KiCad (PCBNEW 5.0.2-bee76a0~70~ubuntu18.04.1) date Do 27 Dez 2018 21:02:31 CET*
%MOMM*%
%LPD*%
G01*
G04 APERTURE LIST*
%ADD10C,0.150000*%
G04 APERTURE END LIST*
D10*
G04 #@! TO.C,U3*
X164084000Y-79756000D02*
X164084000Y-80264000D01*
X165354000Y-79756000D02*
X164084000Y-79756000D01*
X165354000Y-80264000D02*
X165354000Y-79756000D01*
X162306000Y-80264000D02*
X166878000Y-80264000D01*
X162306000Y-75184000D02*
X162306000Y-80264000D01*
X166878000Y-75184000D02*
X162306000Y-75184000D01*
X166878000Y-80264000D02*
X166878000Y-75184000D01*
G04 #@! TO.C,U6*
X177927000Y-101092000D02*
X177927000Y-101600000D01*
X179197000Y-101092000D02*
X177927000Y-101092000D01*
X179197000Y-101600000D02*
X179197000Y-101092000D01*
X176149000Y-101600000D02*
X180721000Y-101600000D01*
X176149000Y-96520000D02*
X176149000Y-101600000D01*
X180721000Y-96520000D02*
X176149000Y-96520000D01*
X180721000Y-101600000D02*
X180721000Y-96520000D01*
G04 #@! TO.C,D11*
X173736000Y-55245000D02*
X173736000Y-56007000D01*
X176784000Y-55245000D02*
X173736000Y-55245000D01*
X176784000Y-56007000D02*
X176784000Y-55245000D01*
X173736000Y-56007000D02*
X176784000Y-56007000D01*
G04 #@! TO.C,D12*
X173736000Y-60325000D02*
X173736000Y-61087000D01*
X176784000Y-60325000D02*
X173736000Y-60325000D01*
X176784000Y-61087000D02*
X176784000Y-60325000D01*
X173736000Y-61087000D02*
X176784000Y-61087000D01*
G04 #@! TO.C,D13*
X173736000Y-66675000D02*
X173736000Y-67437000D01*
X176784000Y-66675000D02*
X173736000Y-66675000D01*
X176784000Y-67437000D02*
X176784000Y-66675000D01*
X173736000Y-67437000D02*
X176784000Y-67437000D01*
G04 #@! TO.C,D14*
X173736000Y-71755000D02*
X173736000Y-72517000D01*
X176784000Y-71755000D02*
X173736000Y-71755000D01*
X176784000Y-72517000D02*
X176784000Y-71755000D01*
X173736000Y-72517000D02*
X176784000Y-72517000D01*
G04 #@! TO.C,D15*
X173736000Y-78105000D02*
X173736000Y-78867000D01*
X176784000Y-78105000D02*
X173736000Y-78105000D01*
X176784000Y-78867000D02*
X176784000Y-78105000D01*
X173736000Y-78867000D02*
X176784000Y-78867000D01*
G04 #@! TO.C,D22*
X187975000Y-103100000D02*
X186675000Y-103100000D01*
X187975000Y-100100000D02*
X186675000Y-100100000D01*
G04 #@! TO.C,F2*
X182165600Y-109067600D02*
X180082800Y-109067600D01*
X182165600Y-105587800D02*
X182165600Y-109067600D01*
X180082800Y-105587800D02*
X182165600Y-105587800D01*
X175079000Y-109067600D02*
X177161800Y-109067600D01*
X175079000Y-105587800D02*
X175079000Y-109067600D01*
X177161800Y-105587800D02*
X175079000Y-105587800D01*
G04 #@! TO.C,Q1*
X145415000Y-54610000D02*
X146177000Y-54610000D01*
X145415000Y-51562000D02*
X145415000Y-54610000D01*
X146177000Y-51562000D02*
X145415000Y-51562000D01*
X146177000Y-54610000D02*
X146177000Y-51562000D01*
G04 #@! TO.C,Q2*
X145415000Y-67564000D02*
X146177000Y-67564000D01*
X145415000Y-64516000D02*
X145415000Y-67564000D01*
X146177000Y-64516000D02*
X145415000Y-64516000D01*
X146177000Y-67564000D02*
X146177000Y-64516000D01*
G04 #@! TO.C,Q3*
X145415000Y-80264000D02*
X146177000Y-80264000D01*
X145415000Y-77216000D02*
X145415000Y-80264000D01*
X146177000Y-77216000D02*
X145415000Y-77216000D01*
X146177000Y-80264000D02*
X146177000Y-77216000D01*
G04 #@! TO.C,Q4*
X145415000Y-92964000D02*
X146177000Y-92964000D01*
X145415000Y-89916000D02*
X145415000Y-92964000D01*
X146177000Y-89916000D02*
X145415000Y-89916000D01*
X146177000Y-92964000D02*
X146177000Y-89916000D01*
G04 #@! TO.C,Q5*
X145415000Y-105664000D02*
X146177000Y-105664000D01*
X145415000Y-102616000D02*
X145415000Y-105664000D01*
X146177000Y-102616000D02*
X145415000Y-102616000D01*
X146177000Y-105664000D02*
X146177000Y-102616000D01*
G04 #@! TO.C,C3*
X161861500Y-104013000D02*
X160845500Y-104013000D01*
X161861500Y-105537000D02*
X161861500Y-104013000D01*
X160845500Y-105537000D02*
X161861500Y-105537000D01*
X158813500Y-105537000D02*
X159829500Y-105537000D01*
X158813500Y-104013000D02*
X158813500Y-105537000D01*
X159829500Y-104013000D02*
X158813500Y-104013000D01*
G04 #@! TO.C,C4*
X160821000Y-74097000D02*
X161837000Y-74097000D01*
X160821000Y-72573000D02*
X160821000Y-74097000D01*
X161837000Y-72573000D02*
X160821000Y-72573000D01*
X163869000Y-72573000D02*
X162853000Y-72573000D01*
X163869000Y-74097000D02*
X163869000Y-72573000D01*
X162853000Y-74097000D02*
X163869000Y-74097000D01*
G04 #@! TO.C,C5*
X157607000Y-106299000D02*
X157607000Y-105283000D01*
X156083000Y-106299000D02*
X157607000Y-106299000D01*
X156083000Y-105283000D02*
X156083000Y-106299000D01*
X156083000Y-103251000D02*
X156083000Y-104267000D01*
X157607000Y-103251000D02*
X156083000Y-103251000D01*
X157607000Y-104267000D02*
X157607000Y-103251000D01*
G04 #@! TO.C,C6*
X156083000Y-85471000D02*
X156083000Y-86487000D01*
X157607000Y-85471000D02*
X156083000Y-85471000D01*
X157607000Y-86487000D02*
X157607000Y-85471000D01*
X157607000Y-88519000D02*
X157607000Y-87503000D01*
X156083000Y-88519000D02*
X157607000Y-88519000D01*
X156083000Y-87503000D02*
X156083000Y-88519000D01*
G04 #@! TO.C,C7*
X180276500Y-91313000D02*
X179260500Y-91313000D01*
X180276500Y-92837000D02*
X180276500Y-91313000D01*
X179260500Y-92837000D02*
X180276500Y-92837000D01*
X177228500Y-92837000D02*
X178244500Y-92837000D01*
X177228500Y-91313000D02*
X177228500Y-92837000D01*
X178244500Y-91313000D02*
X177228500Y-91313000D01*
G04 #@! TO.C,C8*
X170561000Y-108458000D02*
X168910000Y-108458000D01*
X173990000Y-106172000D02*
X172339000Y-106172000D01*
X173990000Y-108458000D02*
X173990000Y-106172000D01*
X172339000Y-108458000D02*
X173990000Y-108458000D01*
X168910000Y-106172000D02*
X170561000Y-106172000D01*
X168910000Y-108458000D02*
X168910000Y-106172000D01*
G04 #@! TO.C,C9*
X182030000Y-102108000D02*
X181014000Y-102108000D01*
X182030000Y-103632000D02*
X182030000Y-102108000D01*
X181014000Y-103632000D02*
X182030000Y-103632000D01*
X178982000Y-103632000D02*
X179998000Y-103632000D01*
X178982000Y-102108000D02*
X178982000Y-103632000D01*
X179998000Y-102108000D02*
X178982000Y-102108000D01*
G04 #@! TO.C,D1*
X143880840Y-56555640D02*
X145679160Y-56555640D01*
X145679160Y-55204360D02*
X143880840Y-55204360D01*
X144429480Y-55204360D02*
X144429480Y-56555640D01*
G04 #@! TO.C,D2*
X143880840Y-69255640D02*
X145679160Y-69255640D01*
X145679160Y-67904360D02*
X143880840Y-67904360D01*
X144429480Y-67904360D02*
X144429480Y-69255640D01*
G04 #@! TO.C,D3*
X143880840Y-81955640D02*
X145679160Y-81955640D01*
X145679160Y-80604360D02*
X143880840Y-80604360D01*
X144429480Y-80604360D02*
X144429480Y-81955640D01*
G04 #@! TO.C,D4*
X143880840Y-94869182D02*
X145679160Y-94869182D01*
X145679160Y-93517902D02*
X143880840Y-93517902D01*
X144429480Y-93517902D02*
X144429480Y-94869182D01*
G04 #@! TO.C,D5*
X143880840Y-107355640D02*
X145679160Y-107355640D01*
X145679160Y-106004360D02*
X143880840Y-106004360D01*
X144429480Y-106004360D02*
X144429480Y-107355640D01*
G04 #@! TO.C,D21*
X177800000Y-88900000D02*
X179197000Y-87884000D01*
X179197000Y-89916000D02*
X177800000Y-88900000D01*
X179197000Y-87884000D02*
X179197000Y-89916000D01*
X177800000Y-87884000D02*
X177800000Y-89916000D01*
X175641000Y-87376000D02*
X175641000Y-90424000D01*
X181229000Y-90424000D02*
X181229000Y-87376000D01*
X181229000Y-87376000D02*
X175641000Y-87376000D01*
X175641000Y-90424000D02*
X181229000Y-90424000D01*
G04 #@! TO.C,R1*
X149772000Y-54539000D02*
X149772000Y-53523000D01*
X148248000Y-54539000D02*
X149772000Y-54539000D01*
X148248000Y-53523000D02*
X148248000Y-54539000D01*
X148248000Y-51491000D02*
X148248000Y-52507000D01*
X149772000Y-51491000D02*
X148248000Y-51491000D01*
X149772000Y-52507000D02*
X149772000Y-51491000D01*
G04 #@! TO.C,R2*
X149772000Y-67564000D02*
X149772000Y-66548000D01*
X148248000Y-67564000D02*
X149772000Y-67564000D01*
X148248000Y-66548000D02*
X148248000Y-67564000D01*
X148248000Y-64516000D02*
X148248000Y-65532000D01*
X149772000Y-64516000D02*
X148248000Y-64516000D01*
X149772000Y-65532000D02*
X149772000Y-64516000D01*
G04 #@! TO.C,R3*
X149772000Y-80264000D02*
X149772000Y-79248000D01*
X148248000Y-80264000D02*
X149772000Y-80264000D01*
X148248000Y-79248000D02*
X148248000Y-80264000D01*
X148248000Y-77216000D02*
X148248000Y-78232000D01*
X149772000Y-77216000D02*
X148248000Y-77216000D01*
X149772000Y-78232000D02*
X149772000Y-77216000D01*
G04 #@! TO.C,R4*
X149772000Y-92964000D02*
X149772000Y-91948000D01*
X148248000Y-92964000D02*
X149772000Y-92964000D01*
X148248000Y-91948000D02*
X148248000Y-92964000D01*
X148248000Y-89916000D02*
X148248000Y-90932000D01*
X149772000Y-89916000D02*
X148248000Y-89916000D01*
X149772000Y-90932000D02*
X149772000Y-89916000D01*
G04 #@! TO.C,R5*
X149772000Y-105664000D02*
X149772000Y-104648000D01*
X148248000Y-105664000D02*
X149772000Y-105664000D01*
X148248000Y-104648000D02*
X148248000Y-105664000D01*
X148248000Y-102616000D02*
X148248000Y-103632000D01*
X149772000Y-102616000D02*
X148248000Y-102616000D01*
X149772000Y-103632000D02*
X149772000Y-102616000D01*
G04 #@! TO.C,R7*
X152312000Y-54539000D02*
X152312000Y-53523000D01*
X150788000Y-54539000D02*
X152312000Y-54539000D01*
X150788000Y-53523000D02*
X150788000Y-54539000D01*
X150788000Y-51491000D02*
X150788000Y-52507000D01*
X152312000Y-51491000D02*
X150788000Y-51491000D01*
X152312000Y-52507000D02*
X152312000Y-51491000D01*
G04 #@! TO.C,R8*
X152312000Y-67564000D02*
X152312000Y-66548000D01*
X150788000Y-67564000D02*
X152312000Y-67564000D01*
X150788000Y-66548000D02*
X150788000Y-67564000D01*
X150788000Y-64516000D02*
X150788000Y-65532000D01*
X152312000Y-64516000D02*
X150788000Y-64516000D01*
X152312000Y-65532000D02*
X152312000Y-64516000D01*
G04 #@! TO.C,R9*
X152312000Y-80264000D02*
X152312000Y-79248000D01*
X150788000Y-80264000D02*
X152312000Y-80264000D01*
X150788000Y-79248000D02*
X150788000Y-80264000D01*
X150788000Y-77216000D02*
X150788000Y-78232000D01*
X152312000Y-77216000D02*
X150788000Y-77216000D01*
X152312000Y-78232000D02*
X152312000Y-77216000D01*
G04 #@! TO.C,R10*
X152312000Y-92964000D02*
X152312000Y-91948000D01*
X150788000Y-92964000D02*
X152312000Y-92964000D01*
X150788000Y-91948000D02*
X150788000Y-92964000D01*
X150788000Y-89916000D02*
X150788000Y-90932000D01*
X152312000Y-89916000D02*
X150788000Y-89916000D01*
X152312000Y-90932000D02*
X152312000Y-89916000D01*
G04 #@! TO.C,R11*
X152312000Y-105664000D02*
X152312000Y-104648000D01*
X150788000Y-105664000D02*
X152312000Y-105664000D01*
X150788000Y-104648000D02*
X150788000Y-105664000D01*
X150788000Y-102616000D02*
X150788000Y-103632000D01*
X152312000Y-102616000D02*
X150788000Y-102616000D01*
X152312000Y-103632000D02*
X152312000Y-102616000D01*
G04 #@! TO.C,R21*
X180594000Y-53848000D02*
X179578000Y-53848000D01*
X180594000Y-55372000D02*
X180594000Y-53848000D01*
X179578000Y-55372000D02*
X180594000Y-55372000D01*
X177546000Y-55372000D02*
X178562000Y-55372000D01*
X177546000Y-53848000D02*
X177546000Y-55372000D01*
X178562000Y-53848000D02*
X177546000Y-53848000D01*
G04 #@! TO.C,R22*
X180594000Y-58928000D02*
X179578000Y-58928000D01*
X180594000Y-60452000D02*
X180594000Y-58928000D01*
X179578000Y-60452000D02*
X180594000Y-60452000D01*
X177546000Y-60452000D02*
X178562000Y-60452000D01*
X177546000Y-58928000D02*
X177546000Y-60452000D01*
X178562000Y-58928000D02*
X177546000Y-58928000D01*
G04 #@! TO.C,R23*
X180594000Y-65278000D02*
X179578000Y-65278000D01*
X180594000Y-66802000D02*
X180594000Y-65278000D01*
X179578000Y-66802000D02*
X180594000Y-66802000D01*
X177546000Y-66802000D02*
X178562000Y-66802000D01*
X177546000Y-65278000D02*
X177546000Y-66802000D01*
X178562000Y-65278000D02*
X177546000Y-65278000D01*
G04 #@! TO.C,R24*
X180594000Y-70358000D02*
X179578000Y-70358000D01*
X180594000Y-71882000D02*
X180594000Y-70358000D01*
X179578000Y-71882000D02*
X180594000Y-71882000D01*
X177546000Y-71882000D02*
X178562000Y-71882000D01*
X177546000Y-70358000D02*
X177546000Y-71882000D01*
X178562000Y-70358000D02*
X177546000Y-70358000D01*
G04 #@! TO.C,R25*
X180594000Y-76708000D02*
X179578000Y-76708000D01*
X180594000Y-78232000D02*
X180594000Y-76708000D01*
X179578000Y-78232000D02*
X180594000Y-78232000D01*
X177546000Y-78232000D02*
X178562000Y-78232000D01*
X177546000Y-76708000D02*
X177546000Y-78232000D01*
X178562000Y-76708000D02*
X177546000Y-76708000D01*
G04 #@! TO.C,R31*
X168314000Y-70033000D02*
X167298000Y-70033000D01*
X168314000Y-71557000D02*
X168314000Y-70033000D01*
X167298000Y-71557000D02*
X168314000Y-71557000D01*
X165266000Y-71557000D02*
X166282000Y-71557000D01*
X165266000Y-70033000D02*
X165266000Y-71557000D01*
X166282000Y-70033000D02*
X165266000Y-70033000D01*
G04 #@! TO.C,R32*
X164123000Y-84836000D02*
X164123000Y-85852000D01*
X165647000Y-84836000D02*
X164123000Y-84836000D01*
X165647000Y-85852000D02*
X165647000Y-84836000D01*
X165647000Y-87884000D02*
X165647000Y-86868000D01*
X164123000Y-87884000D02*
X165647000Y-87884000D01*
X164123000Y-86868000D02*
X164123000Y-87884000D01*
G04 #@! TO.C,R33*
X161583000Y-84836000D02*
X161583000Y-85852000D01*
X163107000Y-84836000D02*
X161583000Y-84836000D01*
X163107000Y-85852000D02*
X163107000Y-84836000D01*
X163107000Y-87884000D02*
X163107000Y-86868000D01*
X161583000Y-87884000D02*
X163107000Y-87884000D01*
X161583000Y-86868000D02*
X161583000Y-87884000D01*
G04 #@! TO.C,R34*
X166663000Y-84836000D02*
X166663000Y-85852000D01*
X168187000Y-84836000D02*
X166663000Y-84836000D01*
X168187000Y-85852000D02*
X168187000Y-84836000D01*
X168187000Y-87884000D02*
X168187000Y-86868000D01*
X166663000Y-87884000D02*
X168187000Y-87884000D01*
X166663000Y-86868000D02*
X166663000Y-87884000D01*
G04 #@! TO.C,R35*
X168314000Y-72573000D02*
X167298000Y-72573000D01*
X168314000Y-74097000D02*
X168314000Y-72573000D01*
X167298000Y-74097000D02*
X168314000Y-74097000D01*
X165266000Y-74097000D02*
X166282000Y-74097000D01*
X165266000Y-72573000D02*
X165266000Y-74097000D01*
X166282000Y-72573000D02*
X165266000Y-72573000D01*
G04 #@! TO.C,R36*
X177228500Y-95377000D02*
X178244500Y-95377000D01*
X177228500Y-93853000D02*
X177228500Y-95377000D01*
X178244500Y-93853000D02*
X177228500Y-93853000D01*
X180276500Y-93853000D02*
X179260500Y-93853000D01*
X180276500Y-95377000D02*
X180276500Y-93853000D01*
X179260500Y-95377000D02*
X180276500Y-95377000D01*
G04 #@! TO.C,U5*
X159245300Y-89984580D02*
X159245300Y-101785420D01*
X154444700Y-101785420D02*
X154444700Y-89984580D01*
X154444700Y-89984580D02*
X155445460Y-89984580D01*
X159245300Y-89984580D02*
X158244540Y-89984580D01*
X159245300Y-101785420D02*
X158244540Y-101785420D01*
X154444700Y-101785420D02*
X155445460Y-101785420D01*
G04 #@! TO.C,R6*
X153328000Y-51491000D02*
X153328000Y-52507000D01*
X154852000Y-51491000D02*
X153328000Y-51491000D01*
X154852000Y-52507000D02*
X154852000Y-51491000D01*
X154852000Y-54539000D02*
X154852000Y-53523000D01*
X153328000Y-54539000D02*
X154852000Y-54539000D01*
X153328000Y-53523000D02*
X153328000Y-54539000D01*
G04 #@! TO.C,R12*
X153328000Y-64508500D02*
X153328000Y-65524500D01*
X154852000Y-64508500D02*
X153328000Y-64508500D01*
X154852000Y-65524500D02*
X154852000Y-64508500D01*
X154852000Y-67556500D02*
X154852000Y-66540500D01*
X153328000Y-67556500D02*
X154852000Y-67556500D01*
X153328000Y-66540500D02*
X153328000Y-67556500D01*
G04 #@! TO.C,R13*
X153328000Y-77208500D02*
X153328000Y-78224500D01*
X154852000Y-77208500D02*
X153328000Y-77208500D01*
X154852000Y-78224500D02*
X154852000Y-77208500D01*
X154852000Y-80256500D02*
X154852000Y-79240500D01*
X153328000Y-80256500D02*
X154852000Y-80256500D01*
X153328000Y-79240500D02*
X153328000Y-80256500D01*
G04 #@! TO.C,R14*
X153582000Y-101846500D02*
X153582000Y-100830500D01*
X152058000Y-101846500D02*
X153582000Y-101846500D01*
X152058000Y-100830500D02*
X152058000Y-101846500D01*
X152058000Y-98798500D02*
X152058000Y-99814500D01*
X153582000Y-98798500D02*
X152058000Y-98798500D01*
X153582000Y-99814500D02*
X153582000Y-98798500D01*
G04 #@! TO.C,R15*
X153328000Y-102608500D02*
X153328000Y-103624500D01*
X154852000Y-102608500D02*
X153328000Y-102608500D01*
X154852000Y-103624500D02*
X154852000Y-102608500D01*
X154852000Y-105656500D02*
X154852000Y-104640500D01*
X153328000Y-105656500D02*
X154852000Y-105656500D01*
X153328000Y-104640500D02*
X153328000Y-105656500D01*
G04 #@! TO.C,U4*
X162911000Y-100074000D02*
X162911000Y-99749000D01*
X170161000Y-100074000D02*
X170161000Y-99749000D01*
X170161000Y-92824000D02*
X170161000Y-93149000D01*
X162911000Y-92824000D02*
X162911000Y-93149000D01*
X162911000Y-100074000D02*
X163236000Y-100074000D01*
X162911000Y-92824000D02*
X163236000Y-92824000D01*
X170161000Y-92824000D02*
X169836000Y-92824000D01*
X170161000Y-100074000D02*
X169836000Y-100074000D01*
X162911000Y-99749000D02*
X161486000Y-99749000D01*
G04 #@! TO.C,U3*
X159779523Y-75436904D02*
X159779523Y-76084523D01*
X159741428Y-76160714D01*
X159703333Y-76198809D01*
X159627142Y-76236904D01*
X159474761Y-76236904D01*
X159398571Y-76198809D01*
X159360476Y-76160714D01*
X159322380Y-76084523D01*
X159322380Y-75436904D01*
X159017619Y-75436904D02*
X158522380Y-75436904D01*
X158789047Y-75741666D01*
X158674761Y-75741666D01*
X158598571Y-75779761D01*
X158560476Y-75817857D01*
X158522380Y-75894047D01*
X158522380Y-76084523D01*
X158560476Y-76160714D01*
X158598571Y-76198809D01*
X158674761Y-76236904D01*
X158903333Y-76236904D01*
X158979523Y-76198809D01*
X159017619Y-76160714D01*
G04 #@! TO.C,U6*
X176504523Y-95446904D02*
X176504523Y-96094523D01*
X176466428Y-96170714D01*
X176428333Y-96208809D01*
X176352142Y-96246904D01*
X176199761Y-96246904D01*
X176123571Y-96208809D01*
X176085476Y-96170714D01*
X176047380Y-96094523D01*
X176047380Y-95446904D01*
X175323571Y-95446904D02*
X175475952Y-95446904D01*
X175552142Y-95485000D01*
X175590238Y-95523095D01*
X175666428Y-95637380D01*
X175704523Y-95789761D01*
X175704523Y-96094523D01*
X175666428Y-96170714D01*
X175628333Y-96208809D01*
X175552142Y-96246904D01*
X175399761Y-96246904D01*
X175323571Y-96208809D01*
X175285476Y-96170714D01*
X175247380Y-96094523D01*
X175247380Y-95904047D01*
X175285476Y-95827857D01*
X175323571Y-95789761D01*
X175399761Y-95751666D01*
X175552142Y-95751666D01*
X175628333Y-95789761D01*
X175666428Y-95827857D01*
X175704523Y-95904047D01*
G04 #@! TO.C,D11*
X173056428Y-55916904D02*
X173056428Y-55116904D01*
X172865952Y-55116904D01*
X172751666Y-55155000D01*
X172675476Y-55231190D01*
X172637380Y-55307380D01*
X172599285Y-55459761D01*
X172599285Y-55574047D01*
X172637380Y-55726428D01*
X172675476Y-55802619D01*
X172751666Y-55878809D01*
X172865952Y-55916904D01*
X173056428Y-55916904D01*
X171837380Y-55916904D02*
X172294523Y-55916904D01*
X172065952Y-55916904D02*
X172065952Y-55116904D01*
X172142142Y-55231190D01*
X172218333Y-55307380D01*
X172294523Y-55345476D01*
X171075476Y-55916904D02*
X171532619Y-55916904D01*
X171304047Y-55916904D02*
X171304047Y-55116904D01*
X171380238Y-55231190D01*
X171456428Y-55307380D01*
X171532619Y-55345476D01*
G04 #@! TO.C,D12*
X173056428Y-60996904D02*
X173056428Y-60196904D01*
X172865952Y-60196904D01*
X172751666Y-60235000D01*
X172675476Y-60311190D01*
X172637380Y-60387380D01*
X172599285Y-60539761D01*
X172599285Y-60654047D01*
X172637380Y-60806428D01*
X172675476Y-60882619D01*
X172751666Y-60958809D01*
X172865952Y-60996904D01*
X173056428Y-60996904D01*
X171837380Y-60996904D02*
X172294523Y-60996904D01*
X172065952Y-60996904D02*
X172065952Y-60196904D01*
X172142142Y-60311190D01*
X172218333Y-60387380D01*
X172294523Y-60425476D01*
X171532619Y-60273095D02*
X171494523Y-60235000D01*
X171418333Y-60196904D01*
X171227857Y-60196904D01*
X171151666Y-60235000D01*
X171113571Y-60273095D01*
X171075476Y-60349285D01*
X171075476Y-60425476D01*
X171113571Y-60539761D01*
X171570714Y-60996904D01*
X171075476Y-60996904D01*
G04 #@! TO.C,D13*
X173056428Y-67346904D02*
X173056428Y-66546904D01*
X172865952Y-66546904D01*
X172751666Y-66585000D01*
X172675476Y-66661190D01*
X172637380Y-66737380D01*
X172599285Y-66889761D01*
X172599285Y-67004047D01*
X172637380Y-67156428D01*
X172675476Y-67232619D01*
X172751666Y-67308809D01*
X172865952Y-67346904D01*
X173056428Y-67346904D01*
X171837380Y-67346904D02*
X172294523Y-67346904D01*
X172065952Y-67346904D02*
X172065952Y-66546904D01*
X172142142Y-66661190D01*
X172218333Y-66737380D01*
X172294523Y-66775476D01*
X171570714Y-66546904D02*
X171075476Y-66546904D01*
X171342142Y-66851666D01*
X171227857Y-66851666D01*
X171151666Y-66889761D01*
X171113571Y-66927857D01*
X171075476Y-67004047D01*
X171075476Y-67194523D01*
X171113571Y-67270714D01*
X171151666Y-67308809D01*
X171227857Y-67346904D01*
X171456428Y-67346904D01*
X171532619Y-67308809D01*
X171570714Y-67270714D01*
G04 #@! TO.C,D14*
X173056428Y-72426904D02*
X173056428Y-71626904D01*
X172865952Y-71626904D01*
X172751666Y-71665000D01*
X172675476Y-71741190D01*
X172637380Y-71817380D01*
X172599285Y-71969761D01*
X172599285Y-72084047D01*
X172637380Y-72236428D01*
X172675476Y-72312619D01*
X172751666Y-72388809D01*
X172865952Y-72426904D01*
X173056428Y-72426904D01*
X171837380Y-72426904D02*
X172294523Y-72426904D01*
X172065952Y-72426904D02*
X172065952Y-71626904D01*
X172142142Y-71741190D01*
X172218333Y-71817380D01*
X172294523Y-71855476D01*
X171151666Y-71893571D02*
X171151666Y-72426904D01*
X171342142Y-71588809D02*
X171532619Y-72160238D01*
X171037380Y-72160238D01*
G04 #@! TO.C,D15*
X173056428Y-78776904D02*
X173056428Y-77976904D01*
X172865952Y-77976904D01*
X172751666Y-78015000D01*
X172675476Y-78091190D01*
X172637380Y-78167380D01*
X172599285Y-78319761D01*
X172599285Y-78434047D01*
X172637380Y-78586428D01*
X172675476Y-78662619D01*
X172751666Y-78738809D01*
X172865952Y-78776904D01*
X173056428Y-78776904D01*
X171837380Y-78776904D02*
X172294523Y-78776904D01*
X172065952Y-78776904D02*
X172065952Y-77976904D01*
X172142142Y-78091190D01*
X172218333Y-78167380D01*
X172294523Y-78205476D01*
X171113571Y-77976904D02*
X171494523Y-77976904D01*
X171532619Y-78357857D01*
X171494523Y-78319761D01*
X171418333Y-78281666D01*
X171227857Y-78281666D01*
X171151666Y-78319761D01*
X171113571Y-78357857D01*
X171075476Y-78434047D01*
X171075476Y-78624523D01*
X171113571Y-78700714D01*
X171151666Y-78738809D01*
X171227857Y-78776904D01*
X171418333Y-78776904D01*
X171494523Y-78738809D01*
X171532619Y-78700714D01*
G04 #@! TO.C,D22*
X190011904Y-100628571D02*
X189211904Y-100628571D01*
X189211904Y-100819047D01*
X189250000Y-100933333D01*
X189326190Y-101009523D01*
X189402380Y-101047619D01*
X189554761Y-101085714D01*
X189669047Y-101085714D01*
X189821428Y-101047619D01*
X189897619Y-101009523D01*
X189973809Y-100933333D01*
X190011904Y-100819047D01*
X190011904Y-100628571D01*
X189288095Y-101390476D02*
X189250000Y-101428571D01*
X189211904Y-101504761D01*
X189211904Y-101695238D01*
X189250000Y-101771428D01*
X189288095Y-101809523D01*
X189364285Y-101847619D01*
X189440476Y-101847619D01*
X189554761Y-101809523D01*
X190011904Y-101352380D01*
X190011904Y-101847619D01*
X189288095Y-102152380D02*
X189250000Y-102190476D01*
X189211904Y-102266666D01*
X189211904Y-102457142D01*
X189250000Y-102533333D01*
X189288095Y-102571428D01*
X189364285Y-102609523D01*
X189440476Y-102609523D01*
X189554761Y-102571428D01*
X190011904Y-102114285D01*
X190011904Y-102609523D01*
G04 #@! TO.C,F2*
X178701666Y-104717857D02*
X178968333Y-104717857D01*
X178968333Y-105136904D02*
X178968333Y-104336904D01*
X178587380Y-104336904D01*
X178320714Y-104413095D02*
X178282619Y-104375000D01*
X178206428Y-104336904D01*
X178015952Y-104336904D01*
X177939761Y-104375000D01*
X177901666Y-104413095D01*
X177863571Y-104489285D01*
X177863571Y-104565476D01*
X177901666Y-104679761D01*
X178358809Y-105136904D01*
X177863571Y-105136904D01*
G04 #@! TO.C,Q1*
X145364190Y-51238095D02*
X145440380Y-51200000D01*
X145516571Y-51123809D01*
X145630857Y-51009523D01*
X145707047Y-50971428D01*
X145783238Y-50971428D01*
X145745142Y-51161904D02*
X145821333Y-51123809D01*
X145897523Y-51047619D01*
X145935619Y-50895238D01*
X145935619Y-50628571D01*
X145897523Y-50476190D01*
X145821333Y-50400000D01*
X145745142Y-50361904D01*
X145592761Y-50361904D01*
X145516571Y-50400000D01*
X145440380Y-50476190D01*
X145402285Y-50628571D01*
X145402285Y-50895238D01*
X145440380Y-51047619D01*
X145516571Y-51123809D01*
X145592761Y-51161904D01*
X145745142Y-51161904D01*
X144640380Y-51161904D02*
X145097523Y-51161904D01*
X144868952Y-51161904D02*
X144868952Y-50361904D01*
X144945142Y-50476190D01*
X145021333Y-50552380D01*
X145097523Y-50590476D01*
G04 #@! TO.C,Q2*
X143713190Y-64827095D02*
X143789380Y-64789000D01*
X143865571Y-64712809D01*
X143979857Y-64598523D01*
X144056047Y-64560428D01*
X144132238Y-64560428D01*
X144094142Y-64750904D02*
X144170333Y-64712809D01*
X144246523Y-64636619D01*
X144284619Y-64484238D01*
X144284619Y-64217571D01*
X144246523Y-64065190D01*
X144170333Y-63989000D01*
X144094142Y-63950904D01*
X143941761Y-63950904D01*
X143865571Y-63989000D01*
X143789380Y-64065190D01*
X143751285Y-64217571D01*
X143751285Y-64484238D01*
X143789380Y-64636619D01*
X143865571Y-64712809D01*
X143941761Y-64750904D01*
X144094142Y-64750904D01*
X143446523Y-64027095D02*
X143408428Y-63989000D01*
X143332238Y-63950904D01*
X143141761Y-63950904D01*
X143065571Y-63989000D01*
X143027476Y-64027095D01*
X142989380Y-64103285D01*
X142989380Y-64179476D01*
X143027476Y-64293761D01*
X143484619Y-64750904D01*
X142989380Y-64750904D01*
G04 #@! TO.C,Q3*
X143713190Y-77654095D02*
X143789380Y-77616000D01*
X143865571Y-77539809D01*
X143979857Y-77425523D01*
X144056047Y-77387428D01*
X144132238Y-77387428D01*
X144094142Y-77577904D02*
X144170333Y-77539809D01*
X144246523Y-77463619D01*
X144284619Y-77311238D01*
X144284619Y-77044571D01*
X144246523Y-76892190D01*
X144170333Y-76816000D01*
X144094142Y-76777904D01*
X143941761Y-76777904D01*
X143865571Y-76816000D01*
X143789380Y-76892190D01*
X143751285Y-77044571D01*
X143751285Y-77311238D01*
X143789380Y-77463619D01*
X143865571Y-77539809D01*
X143941761Y-77577904D01*
X144094142Y-77577904D01*
X143484619Y-76777904D02*
X142989380Y-76777904D01*
X143256047Y-77082666D01*
X143141761Y-77082666D01*
X143065571Y-77120761D01*
X143027476Y-77158857D01*
X142989380Y-77235047D01*
X142989380Y-77425523D01*
X143027476Y-77501714D01*
X143065571Y-77539809D01*
X143141761Y-77577904D01*
X143370333Y-77577904D01*
X143446523Y-77539809D01*
X143484619Y-77501714D01*
G04 #@! TO.C,Q4*
X143713190Y-90354095D02*
X143789380Y-90316000D01*
X143865571Y-90239809D01*
X143979857Y-90125523D01*
X144056047Y-90087428D01*
X144132238Y-90087428D01*
X144094142Y-90277904D02*
X144170333Y-90239809D01*
X144246523Y-90163619D01*
X144284619Y-90011238D01*
X144284619Y-89744571D01*
X144246523Y-89592190D01*
X144170333Y-89516000D01*
X144094142Y-89477904D01*
X143941761Y-89477904D01*
X143865571Y-89516000D01*
X143789380Y-89592190D01*
X143751285Y-89744571D01*
X143751285Y-90011238D01*
X143789380Y-90163619D01*
X143865571Y-90239809D01*
X143941761Y-90277904D01*
X144094142Y-90277904D01*
X143065571Y-89744571D02*
X143065571Y-90277904D01*
X143256047Y-89439809D02*
X143446523Y-90011238D01*
X142951285Y-90011238D01*
G04 #@! TO.C,Q5*
X143713190Y-103054095D02*
X143789380Y-103016000D01*
X143865571Y-102939809D01*
X143979857Y-102825523D01*
X144056047Y-102787428D01*
X144132238Y-102787428D01*
X144094142Y-102977904D02*
X144170333Y-102939809D01*
X144246523Y-102863619D01*
X144284619Y-102711238D01*
X144284619Y-102444571D01*
X144246523Y-102292190D01*
X144170333Y-102216000D01*
X144094142Y-102177904D01*
X143941761Y-102177904D01*
X143865571Y-102216000D01*
X143789380Y-102292190D01*
X143751285Y-102444571D01*
X143751285Y-102711238D01*
X143789380Y-102863619D01*
X143865571Y-102939809D01*
X143941761Y-102977904D01*
X144094142Y-102977904D01*
X143027476Y-102177904D02*
X143408428Y-102177904D01*
X143446523Y-102558857D01*
X143408428Y-102520761D01*
X143332238Y-102482666D01*
X143141761Y-102482666D01*
X143065571Y-102520761D01*
X143027476Y-102558857D01*
X142989380Y-102635047D01*
X142989380Y-102825523D01*
X143027476Y-102901714D01*
X143065571Y-102939809D01*
X143141761Y-102977904D01*
X143332238Y-102977904D01*
X143408428Y-102939809D01*
X143446523Y-102901714D01*
G04 #@! TO.C,C3*
X160573333Y-106640714D02*
X160611428Y-106678809D01*
X160725714Y-106716904D01*
X160801904Y-106716904D01*
X160916190Y-106678809D01*
X160992380Y-106602619D01*
X161030476Y-106526428D01*
X161068571Y-106374047D01*
X161068571Y-106259761D01*
X161030476Y-106107380D01*
X160992380Y-106031190D01*
X160916190Y-105955000D01*
X160801904Y-105916904D01*
X160725714Y-105916904D01*
X160611428Y-105955000D01*
X160573333Y-105993095D01*
X160306666Y-105916904D02*
X159811428Y-105916904D01*
X160078095Y-106221666D01*
X159963809Y-106221666D01*
X159887619Y-106259761D01*
X159849523Y-106297857D01*
X159811428Y-106374047D01*
X159811428Y-106564523D01*
X159849523Y-106640714D01*
X159887619Y-106678809D01*
X159963809Y-106716904D01*
X160192380Y-106716904D01*
X160268571Y-106678809D01*
X160306666Y-106640714D01*
G04 #@! TO.C,C4*
X159303333Y-73620714D02*
X159341428Y-73658809D01*
X159455714Y-73696904D01*
X159531904Y-73696904D01*
X159646190Y-73658809D01*
X159722380Y-73582619D01*
X159760476Y-73506428D01*
X159798571Y-73354047D01*
X159798571Y-73239761D01*
X159760476Y-73087380D01*
X159722380Y-73011190D01*
X159646190Y-72935000D01*
X159531904Y-72896904D01*
X159455714Y-72896904D01*
X159341428Y-72935000D01*
X159303333Y-72973095D01*
X158617619Y-73163571D02*
X158617619Y-73696904D01*
X158808095Y-72858809D02*
X158998571Y-73430238D01*
X158503333Y-73430238D01*
G04 #@! TO.C,C5*
X157017333Y-107656714D02*
X157055428Y-107694809D01*
X157169714Y-107732904D01*
X157245904Y-107732904D01*
X157360190Y-107694809D01*
X157436380Y-107618619D01*
X157474476Y-107542428D01*
X157512571Y-107390047D01*
X157512571Y-107275761D01*
X157474476Y-107123380D01*
X157436380Y-107047190D01*
X157360190Y-106971000D01*
X157245904Y-106932904D01*
X157169714Y-106932904D01*
X157055428Y-106971000D01*
X157017333Y-107009095D01*
X156293523Y-106932904D02*
X156674476Y-106932904D01*
X156712571Y-107313857D01*
X156674476Y-107275761D01*
X156598285Y-107237666D01*
X156407809Y-107237666D01*
X156331619Y-107275761D01*
X156293523Y-107313857D01*
X156255428Y-107390047D01*
X156255428Y-107580523D01*
X156293523Y-107656714D01*
X156331619Y-107694809D01*
X156407809Y-107732904D01*
X156598285Y-107732904D01*
X156674476Y-107694809D01*
X156712571Y-107656714D01*
G04 #@! TO.C,C6*
X156978333Y-84415714D02*
X157016428Y-84453809D01*
X157130714Y-84491904D01*
X157206904Y-84491904D01*
X157321190Y-84453809D01*
X157397380Y-84377619D01*
X157435476Y-84301428D01*
X157473571Y-84149047D01*
X157473571Y-84034761D01*
X157435476Y-83882380D01*
X157397380Y-83806190D01*
X157321190Y-83730000D01*
X157206904Y-83691904D01*
X157130714Y-83691904D01*
X157016428Y-83730000D01*
X156978333Y-83768095D01*
X156292619Y-83691904D02*
X156445000Y-83691904D01*
X156521190Y-83730000D01*
X156559285Y-83768095D01*
X156635476Y-83882380D01*
X156673571Y-84034761D01*
X156673571Y-84339523D01*
X156635476Y-84415714D01*
X156597380Y-84453809D01*
X156521190Y-84491904D01*
X156368809Y-84491904D01*
X156292619Y-84453809D01*
X156254523Y-84415714D01*
X156216428Y-84339523D01*
X156216428Y-84149047D01*
X156254523Y-84072857D01*
X156292619Y-84034761D01*
X156368809Y-83996666D01*
X156521190Y-83996666D01*
X156597380Y-84034761D01*
X156635476Y-84072857D01*
X156673571Y-84149047D01*
G04 #@! TO.C,C7*
X176028333Y-92035714D02*
X176066428Y-92073809D01*
X176180714Y-92111904D01*
X176256904Y-92111904D01*
X176371190Y-92073809D01*
X176447380Y-91997619D01*
X176485476Y-91921428D01*
X176523571Y-91769047D01*
X176523571Y-91654761D01*
X176485476Y-91502380D01*
X176447380Y-91426190D01*
X176371190Y-91350000D01*
X176256904Y-91311904D01*
X176180714Y-91311904D01*
X176066428Y-91350000D01*
X176028333Y-91388095D01*
X175761666Y-91311904D02*
X175228333Y-91311904D01*
X175571190Y-92111904D01*
G04 #@! TO.C,C8*
X171583333Y-105060714D02*
X171621428Y-105098809D01*
X171735714Y-105136904D01*
X171811904Y-105136904D01*
X171926190Y-105098809D01*
X172002380Y-105022619D01*
X172040476Y-104946428D01*
X172078571Y-104794047D01*
X172078571Y-104679761D01*
X172040476Y-104527380D01*
X172002380Y-104451190D01*
X171926190Y-104375000D01*
X171811904Y-104336904D01*
X171735714Y-104336904D01*
X171621428Y-104375000D01*
X171583333Y-104413095D01*
X171126190Y-104679761D02*
X171202380Y-104641666D01*
X171240476Y-104603571D01*
X171278571Y-104527380D01*
X171278571Y-104489285D01*
X171240476Y-104413095D01*
X171202380Y-104375000D01*
X171126190Y-104336904D01*
X170973809Y-104336904D01*
X170897619Y-104375000D01*
X170859523Y-104413095D01*
X170821428Y-104489285D01*
X170821428Y-104527380D01*
X170859523Y-104603571D01*
X170897619Y-104641666D01*
X170973809Y-104679761D01*
X171126190Y-104679761D01*
X171202380Y-104717857D01*
X171240476Y-104755952D01*
X171278571Y-104832142D01*
X171278571Y-104984523D01*
X171240476Y-105060714D01*
X171202380Y-105098809D01*
X171126190Y-105136904D01*
X170973809Y-105136904D01*
X170897619Y-105098809D01*
X170859523Y-105060714D01*
X170821428Y-104984523D01*
X170821428Y-104832142D01*
X170859523Y-104755952D01*
X170897619Y-104717857D01*
X170973809Y-104679761D01*
G04 #@! TO.C,C9*
X183433333Y-103155714D02*
X183471428Y-103193809D01*
X183585714Y-103231904D01*
X183661904Y-103231904D01*
X183776190Y-103193809D01*
X183852380Y-103117619D01*
X183890476Y-103041428D01*
X183928571Y-102889047D01*
X183928571Y-102774761D01*
X183890476Y-102622380D01*
X183852380Y-102546190D01*
X183776190Y-102470000D01*
X183661904Y-102431904D01*
X183585714Y-102431904D01*
X183471428Y-102470000D01*
X183433333Y-102508095D01*
X183052380Y-103231904D02*
X182900000Y-103231904D01*
X182823809Y-103193809D01*
X182785714Y-103155714D01*
X182709523Y-103041428D01*
X182671428Y-102889047D01*
X182671428Y-102584285D01*
X182709523Y-102508095D01*
X182747619Y-102470000D01*
X182823809Y-102431904D01*
X182976190Y-102431904D01*
X183052380Y-102470000D01*
X183090476Y-102508095D01*
X183128571Y-102584285D01*
X183128571Y-102774761D01*
X183090476Y-102850952D01*
X183052380Y-102889047D01*
X182976190Y-102927142D01*
X182823809Y-102927142D01*
X182747619Y-102889047D01*
X182709523Y-102850952D01*
X182671428Y-102774761D01*
G04 #@! TO.C,D1*
X142101496Y-56241904D02*
X142101496Y-55441904D01*
X141911020Y-55441904D01*
X141796734Y-55480000D01*
X141720543Y-55556190D01*
X141682448Y-55632380D01*
X141644353Y-55784761D01*
X141644353Y-55899047D01*
X141682448Y-56051428D01*
X141720543Y-56127619D01*
X141796734Y-56203809D01*
X141911020Y-56241904D01*
X142101496Y-56241904D01*
X140882448Y-56241904D02*
X141339591Y-56241904D01*
X141111020Y-56241904D02*
X141111020Y-55441904D01*
X141187210Y-55556190D01*
X141263400Y-55632380D01*
X141339591Y-55670476D01*
G04 #@! TO.C,D2*
X142101496Y-68941904D02*
X142101496Y-68141904D01*
X141911020Y-68141904D01*
X141796734Y-68180000D01*
X141720543Y-68256190D01*
X141682448Y-68332380D01*
X141644353Y-68484761D01*
X141644353Y-68599047D01*
X141682448Y-68751428D01*
X141720543Y-68827619D01*
X141796734Y-68903809D01*
X141911020Y-68941904D01*
X142101496Y-68941904D01*
X141339591Y-68218095D02*
X141301496Y-68180000D01*
X141225305Y-68141904D01*
X141034829Y-68141904D01*
X140958639Y-68180000D01*
X140920543Y-68218095D01*
X140882448Y-68294285D01*
X140882448Y-68370476D01*
X140920543Y-68484761D01*
X141377686Y-68941904D01*
X140882448Y-68941904D01*
G04 #@! TO.C,D3*
X142101496Y-81641904D02*
X142101496Y-80841904D01*
X141911020Y-80841904D01*
X141796734Y-80880000D01*
X141720543Y-80956190D01*
X141682448Y-81032380D01*
X141644353Y-81184761D01*
X141644353Y-81299047D01*
X141682448Y-81451428D01*
X141720543Y-81527619D01*
X141796734Y-81603809D01*
X141911020Y-81641904D01*
X142101496Y-81641904D01*
X141377686Y-80841904D02*
X140882448Y-80841904D01*
X141149115Y-81146666D01*
X141034829Y-81146666D01*
X140958639Y-81184761D01*
X140920543Y-81222857D01*
X140882448Y-81299047D01*
X140882448Y-81489523D01*
X140920543Y-81565714D01*
X140958639Y-81603809D01*
X141034829Y-81641904D01*
X141263400Y-81641904D01*
X141339591Y-81603809D01*
X141377686Y-81565714D01*
G04 #@! TO.C,D4*
X142101496Y-94555446D02*
X142101496Y-93755446D01*
X141911020Y-93755446D01*
X141796734Y-93793542D01*
X141720543Y-93869732D01*
X141682448Y-93945922D01*
X141644353Y-94098303D01*
X141644353Y-94212589D01*
X141682448Y-94364970D01*
X141720543Y-94441161D01*
X141796734Y-94517351D01*
X141911020Y-94555446D01*
X142101496Y-94555446D01*
X140958639Y-94022113D02*
X140958639Y-94555446D01*
X141149115Y-93717351D02*
X141339591Y-94288780D01*
X140844353Y-94288780D01*
G04 #@! TO.C,D5*
X142195476Y-107041904D02*
X142195476Y-106241904D01*
X142005000Y-106241904D01*
X141890714Y-106280000D01*
X141814523Y-106356190D01*
X141776428Y-106432380D01*
X141738333Y-106584761D01*
X141738333Y-106699047D01*
X141776428Y-106851428D01*
X141814523Y-106927619D01*
X141890714Y-107003809D01*
X142005000Y-107041904D01*
X142195476Y-107041904D01*
X141014523Y-106241904D02*
X141395476Y-106241904D01*
X141433571Y-106622857D01*
X141395476Y-106584761D01*
X141319285Y-106546666D01*
X141128809Y-106546666D01*
X141052619Y-106584761D01*
X141014523Y-106622857D01*
X140976428Y-106699047D01*
X140976428Y-106889523D01*
X141014523Y-106965714D01*
X141052619Y-107003809D01*
X141128809Y-107041904D01*
X141319285Y-107041904D01*
X141395476Y-107003809D01*
X141433571Y-106965714D01*
G04 #@! TO.C,D21*
X174961428Y-88626904D02*
X174961428Y-87826904D01*
X174770952Y-87826904D01*
X174656666Y-87865000D01*
X174580476Y-87941190D01*
X174542380Y-88017380D01*
X174504285Y-88169761D01*
X174504285Y-88284047D01*
X174542380Y-88436428D01*
X174580476Y-88512619D01*
X174656666Y-88588809D01*
X174770952Y-88626904D01*
X174961428Y-88626904D01*
X174199523Y-87903095D02*
X174161428Y-87865000D01*
X174085238Y-87826904D01*
X173894761Y-87826904D01*
X173818571Y-87865000D01*
X173780476Y-87903095D01*
X173742380Y-87979285D01*
X173742380Y-88055476D01*
X173780476Y-88169761D01*
X174237619Y-88626904D01*
X173742380Y-88626904D01*
X172980476Y-88626904D02*
X173437619Y-88626904D01*
X173209047Y-88626904D02*
X173209047Y-87826904D01*
X173285238Y-87941190D01*
X173361428Y-88017380D01*
X173437619Y-88055476D01*
G04 #@! TO.C,R1*
X149143333Y-51154404D02*
X149410000Y-50773452D01*
X149600476Y-51154404D02*
X149600476Y-50354404D01*
X149295714Y-50354404D01*
X149219523Y-50392500D01*
X149181428Y-50430595D01*
X149143333Y-50506785D01*
X149143333Y-50621071D01*
X149181428Y-50697261D01*
X149219523Y-50735357D01*
X149295714Y-50773452D01*
X149600476Y-50773452D01*
X148381428Y-51154404D02*
X148838571Y-51154404D01*
X148610000Y-51154404D02*
X148610000Y-50354404D01*
X148686190Y-50468690D01*
X148762380Y-50544880D01*
X148838571Y-50582976D01*
G04 #@! TO.C,R2*
X149143333Y-63861904D02*
X149410000Y-63480952D01*
X149600476Y-63861904D02*
X149600476Y-63061904D01*
X149295714Y-63061904D01*
X149219523Y-63100000D01*
X149181428Y-63138095D01*
X149143333Y-63214285D01*
X149143333Y-63328571D01*
X149181428Y-63404761D01*
X149219523Y-63442857D01*
X149295714Y-63480952D01*
X149600476Y-63480952D01*
X148838571Y-63138095D02*
X148800476Y-63100000D01*
X148724285Y-63061904D01*
X148533809Y-63061904D01*
X148457619Y-63100000D01*
X148419523Y-63138095D01*
X148381428Y-63214285D01*
X148381428Y-63290476D01*
X148419523Y-63404761D01*
X148876666Y-63861904D01*
X148381428Y-63861904D01*
G04 #@! TO.C,R3*
X149143333Y-76561904D02*
X149410000Y-76180952D01*
X149600476Y-76561904D02*
X149600476Y-75761904D01*
X149295714Y-75761904D01*
X149219523Y-75800000D01*
X149181428Y-75838095D01*
X149143333Y-75914285D01*
X149143333Y-76028571D01*
X149181428Y-76104761D01*
X149219523Y-76142857D01*
X149295714Y-76180952D01*
X149600476Y-76180952D01*
X148876666Y-75761904D02*
X148381428Y-75761904D01*
X148648095Y-76066666D01*
X148533809Y-76066666D01*
X148457619Y-76104761D01*
X148419523Y-76142857D01*
X148381428Y-76219047D01*
X148381428Y-76409523D01*
X148419523Y-76485714D01*
X148457619Y-76523809D01*
X148533809Y-76561904D01*
X148762380Y-76561904D01*
X148838571Y-76523809D01*
X148876666Y-76485714D01*
G04 #@! TO.C,R4*
X149143333Y-89261904D02*
X149410000Y-88880952D01*
X149600476Y-89261904D02*
X149600476Y-88461904D01*
X149295714Y-88461904D01*
X149219523Y-88500000D01*
X149181428Y-88538095D01*
X149143333Y-88614285D01*
X149143333Y-88728571D01*
X149181428Y-88804761D01*
X149219523Y-88842857D01*
X149295714Y-88880952D01*
X149600476Y-88880952D01*
X148457619Y-88728571D02*
X148457619Y-89261904D01*
X148648095Y-88423809D02*
X148838571Y-88995238D01*
X148343333Y-88995238D01*
G04 #@! TO.C,R5*
X145333333Y-101636904D02*
X145600000Y-101255952D01*
X145790476Y-101636904D02*
X145790476Y-100836904D01*
X145485714Y-100836904D01*
X145409523Y-100875000D01*
X145371428Y-100913095D01*
X145333333Y-100989285D01*
X145333333Y-101103571D01*
X145371428Y-101179761D01*
X145409523Y-101217857D01*
X145485714Y-101255952D01*
X145790476Y-101255952D01*
X144609523Y-100836904D02*
X144990476Y-100836904D01*
X145028571Y-101217857D01*
X144990476Y-101179761D01*
X144914285Y-101141666D01*
X144723809Y-101141666D01*
X144647619Y-101179761D01*
X144609523Y-101217857D01*
X144571428Y-101294047D01*
X144571428Y-101484523D01*
X144609523Y-101560714D01*
X144647619Y-101598809D01*
X144723809Y-101636904D01*
X144914285Y-101636904D01*
X144990476Y-101598809D01*
X145028571Y-101560714D01*
G04 #@! TO.C,R7*
X151683333Y-51154404D02*
X151950000Y-50773452D01*
X152140476Y-51154404D02*
X152140476Y-50354404D01*
X151835714Y-50354404D01*
X151759523Y-50392500D01*
X151721428Y-50430595D01*
X151683333Y-50506785D01*
X151683333Y-50621071D01*
X151721428Y-50697261D01*
X151759523Y-50735357D01*
X151835714Y-50773452D01*
X152140476Y-50773452D01*
X151416666Y-50354404D02*
X150883333Y-50354404D01*
X151226190Y-51154404D01*
G04 #@! TO.C,R8*
X151683333Y-63861904D02*
X151950000Y-63480952D01*
X152140476Y-63861904D02*
X152140476Y-63061904D01*
X151835714Y-63061904D01*
X151759523Y-63100000D01*
X151721428Y-63138095D01*
X151683333Y-63214285D01*
X151683333Y-63328571D01*
X151721428Y-63404761D01*
X151759523Y-63442857D01*
X151835714Y-63480952D01*
X152140476Y-63480952D01*
X151226190Y-63404761D02*
X151302380Y-63366666D01*
X151340476Y-63328571D01*
X151378571Y-63252380D01*
X151378571Y-63214285D01*
X151340476Y-63138095D01*
X151302380Y-63100000D01*
X151226190Y-63061904D01*
X151073809Y-63061904D01*
X150997619Y-63100000D01*
X150959523Y-63138095D01*
X150921428Y-63214285D01*
X150921428Y-63252380D01*
X150959523Y-63328571D01*
X150997619Y-63366666D01*
X151073809Y-63404761D01*
X151226190Y-63404761D01*
X151302380Y-63442857D01*
X151340476Y-63480952D01*
X151378571Y-63557142D01*
X151378571Y-63709523D01*
X151340476Y-63785714D01*
X151302380Y-63823809D01*
X151226190Y-63861904D01*
X151073809Y-63861904D01*
X150997619Y-63823809D01*
X150959523Y-63785714D01*
X150921428Y-63709523D01*
X150921428Y-63557142D01*
X150959523Y-63480952D01*
X150997619Y-63442857D01*
X151073809Y-63404761D01*
G04 #@! TO.C,R9*
X151683333Y-76561904D02*
X151950000Y-76180952D01*
X152140476Y-76561904D02*
X152140476Y-75761904D01*
X151835714Y-75761904D01*
X151759523Y-75800000D01*
X151721428Y-75838095D01*
X151683333Y-75914285D01*
X151683333Y-76028571D01*
X151721428Y-76104761D01*
X151759523Y-76142857D01*
X151835714Y-76180952D01*
X152140476Y-76180952D01*
X151302380Y-76561904D02*
X151150000Y-76561904D01*
X151073809Y-76523809D01*
X151035714Y-76485714D01*
X150959523Y-76371428D01*
X150921428Y-76219047D01*
X150921428Y-75914285D01*
X150959523Y-75838095D01*
X150997619Y-75800000D01*
X151073809Y-75761904D01*
X151226190Y-75761904D01*
X151302380Y-75800000D01*
X151340476Y-75838095D01*
X151378571Y-75914285D01*
X151378571Y-76104761D01*
X151340476Y-76180952D01*
X151302380Y-76219047D01*
X151226190Y-76257142D01*
X151073809Y-76257142D01*
X150997619Y-76219047D01*
X150959523Y-76180952D01*
X150921428Y-76104761D01*
G04 #@! TO.C,R10*
X152064285Y-89261904D02*
X152330952Y-88880952D01*
X152521428Y-89261904D02*
X152521428Y-88461904D01*
X152216666Y-88461904D01*
X152140476Y-88500000D01*
X152102380Y-88538095D01*
X152064285Y-88614285D01*
X152064285Y-88728571D01*
X152102380Y-88804761D01*
X152140476Y-88842857D01*
X152216666Y-88880952D01*
X152521428Y-88880952D01*
X151302380Y-89261904D02*
X151759523Y-89261904D01*
X151530952Y-89261904D02*
X151530952Y-88461904D01*
X151607142Y-88576190D01*
X151683333Y-88652380D01*
X151759523Y-88690476D01*
X150807142Y-88461904D02*
X150730952Y-88461904D01*
X150654761Y-88500000D01*
X150616666Y-88538095D01*
X150578571Y-88614285D01*
X150540476Y-88766666D01*
X150540476Y-88957142D01*
X150578571Y-89109523D01*
X150616666Y-89185714D01*
X150654761Y-89223809D01*
X150730952Y-89261904D01*
X150807142Y-89261904D01*
X150883333Y-89223809D01*
X150921428Y-89185714D01*
X150959523Y-89109523D01*
X150997619Y-88957142D01*
X150997619Y-88766666D01*
X150959523Y-88614285D01*
X150921428Y-88538095D01*
X150883333Y-88500000D01*
X150807142Y-88461904D01*
G04 #@! TO.C,R11*
X148254285Y-101636904D02*
X148520952Y-101255952D01*
X148711428Y-101636904D02*
X148711428Y-100836904D01*
X148406666Y-100836904D01*
X148330476Y-100875000D01*
X148292380Y-100913095D01*
X148254285Y-100989285D01*
X148254285Y-101103571D01*
X148292380Y-101179761D01*
X148330476Y-101217857D01*
X148406666Y-101255952D01*
X148711428Y-101255952D01*
X147492380Y-101636904D02*
X147949523Y-101636904D01*
X147720952Y-101636904D02*
X147720952Y-100836904D01*
X147797142Y-100951190D01*
X147873333Y-101027380D01*
X147949523Y-101065476D01*
X146730476Y-101636904D02*
X147187619Y-101636904D01*
X146959047Y-101636904D02*
X146959047Y-100836904D01*
X147035238Y-100951190D01*
X147111428Y-101027380D01*
X147187619Y-101065476D01*
G04 #@! TO.C,R21*
X179584285Y-53376904D02*
X179850952Y-52995952D01*
X180041428Y-53376904D02*
X180041428Y-52576904D01*
X179736666Y-52576904D01*
X179660476Y-52615000D01*
X179622380Y-52653095D01*
X179584285Y-52729285D01*
X179584285Y-52843571D01*
X179622380Y-52919761D01*
X179660476Y-52957857D01*
X179736666Y-52995952D01*
X180041428Y-52995952D01*
X179279523Y-52653095D02*
X179241428Y-52615000D01*
X179165238Y-52576904D01*
X178974761Y-52576904D01*
X178898571Y-52615000D01*
X178860476Y-52653095D01*
X178822380Y-52729285D01*
X178822380Y-52805476D01*
X178860476Y-52919761D01*
X179317619Y-53376904D01*
X178822380Y-53376904D01*
X178060476Y-53376904D02*
X178517619Y-53376904D01*
X178289047Y-53376904D02*
X178289047Y-52576904D01*
X178365238Y-52691190D01*
X178441428Y-52767380D01*
X178517619Y-52805476D01*
G04 #@! TO.C,R22*
X179584285Y-58456904D02*
X179850952Y-58075952D01*
X180041428Y-58456904D02*
X180041428Y-57656904D01*
X179736666Y-57656904D01*
X179660476Y-57695000D01*
X179622380Y-57733095D01*
X179584285Y-57809285D01*
X179584285Y-57923571D01*
X179622380Y-57999761D01*
X179660476Y-58037857D01*
X179736666Y-58075952D01*
X180041428Y-58075952D01*
X179279523Y-57733095D02*
X179241428Y-57695000D01*
X179165238Y-57656904D01*
X178974761Y-57656904D01*
X178898571Y-57695000D01*
X178860476Y-57733095D01*
X178822380Y-57809285D01*
X178822380Y-57885476D01*
X178860476Y-57999761D01*
X179317619Y-58456904D01*
X178822380Y-58456904D01*
X178517619Y-57733095D02*
X178479523Y-57695000D01*
X178403333Y-57656904D01*
X178212857Y-57656904D01*
X178136666Y-57695000D01*
X178098571Y-57733095D01*
X178060476Y-57809285D01*
X178060476Y-57885476D01*
X178098571Y-57999761D01*
X178555714Y-58456904D01*
X178060476Y-58456904D01*
G04 #@! TO.C,R23*
X179584285Y-64806904D02*
X179850952Y-64425952D01*
X180041428Y-64806904D02*
X180041428Y-64006904D01*
X179736666Y-64006904D01*
X179660476Y-64045000D01*
X179622380Y-64083095D01*
X179584285Y-64159285D01*
X179584285Y-64273571D01*
X179622380Y-64349761D01*
X179660476Y-64387857D01*
X179736666Y-64425952D01*
X180041428Y-64425952D01*
X179279523Y-64083095D02*
X179241428Y-64045000D01*
X179165238Y-64006904D01*
X178974761Y-64006904D01*
X178898571Y-64045000D01*
X178860476Y-64083095D01*
X178822380Y-64159285D01*
X178822380Y-64235476D01*
X178860476Y-64349761D01*
X179317619Y-64806904D01*
X178822380Y-64806904D01*
X178555714Y-64006904D02*
X178060476Y-64006904D01*
X178327142Y-64311666D01*
X178212857Y-64311666D01*
X178136666Y-64349761D01*
X178098571Y-64387857D01*
X178060476Y-64464047D01*
X178060476Y-64654523D01*
X178098571Y-64730714D01*
X178136666Y-64768809D01*
X178212857Y-64806904D01*
X178441428Y-64806904D01*
X178517619Y-64768809D01*
X178555714Y-64730714D01*
G04 #@! TO.C,R24*
X179584285Y-69886904D02*
X179850952Y-69505952D01*
X180041428Y-69886904D02*
X180041428Y-69086904D01*
X179736666Y-69086904D01*
X179660476Y-69125000D01*
X179622380Y-69163095D01*
X179584285Y-69239285D01*
X179584285Y-69353571D01*
X179622380Y-69429761D01*
X179660476Y-69467857D01*
X179736666Y-69505952D01*
X180041428Y-69505952D01*
X179279523Y-69163095D02*
X179241428Y-69125000D01*
X179165238Y-69086904D01*
X178974761Y-69086904D01*
X178898571Y-69125000D01*
X178860476Y-69163095D01*
X178822380Y-69239285D01*
X178822380Y-69315476D01*
X178860476Y-69429761D01*
X179317619Y-69886904D01*
X178822380Y-69886904D01*
X178136666Y-69353571D02*
X178136666Y-69886904D01*
X178327142Y-69048809D02*
X178517619Y-69620238D01*
X178022380Y-69620238D01*
G04 #@! TO.C,R25*
X179584285Y-76236904D02*
X179850952Y-75855952D01*
X180041428Y-76236904D02*
X180041428Y-75436904D01*
X179736666Y-75436904D01*
X179660476Y-75475000D01*
X179622380Y-75513095D01*
X179584285Y-75589285D01*
X179584285Y-75703571D01*
X179622380Y-75779761D01*
X179660476Y-75817857D01*
X179736666Y-75855952D01*
X180041428Y-75855952D01*
X179279523Y-75513095D02*
X179241428Y-75475000D01*
X179165238Y-75436904D01*
X178974761Y-75436904D01*
X178898571Y-75475000D01*
X178860476Y-75513095D01*
X178822380Y-75589285D01*
X178822380Y-75665476D01*
X178860476Y-75779761D01*
X179317619Y-76236904D01*
X178822380Y-76236904D01*
X178098571Y-75436904D02*
X178479523Y-75436904D01*
X178517619Y-75817857D01*
X178479523Y-75779761D01*
X178403333Y-75741666D01*
X178212857Y-75741666D01*
X178136666Y-75779761D01*
X178098571Y-75817857D01*
X178060476Y-75894047D01*
X178060476Y-76084523D01*
X178098571Y-76160714D01*
X178136666Y-76198809D01*
X178212857Y-76236904D01*
X178403333Y-76236904D01*
X178479523Y-76198809D01*
X178517619Y-76160714D01*
G04 #@! TO.C,R31*
X167304285Y-67346904D02*
X167570952Y-66965952D01*
X167761428Y-67346904D02*
X167761428Y-66546904D01*
X167456666Y-66546904D01*
X167380476Y-66585000D01*
X167342380Y-66623095D01*
X167304285Y-66699285D01*
X167304285Y-66813571D01*
X167342380Y-66889761D01*
X167380476Y-66927857D01*
X167456666Y-66965952D01*
X167761428Y-66965952D01*
X167037619Y-66546904D02*
X166542380Y-66546904D01*
X166809047Y-66851666D01*
X166694761Y-66851666D01*
X166618571Y-66889761D01*
X166580476Y-66927857D01*
X166542380Y-67004047D01*
X166542380Y-67194523D01*
X166580476Y-67270714D01*
X166618571Y-67308809D01*
X166694761Y-67346904D01*
X166923333Y-67346904D01*
X166999523Y-67308809D01*
X167037619Y-67270714D01*
X165780476Y-67346904D02*
X166237619Y-67346904D01*
X166009047Y-67346904D02*
X166009047Y-66546904D01*
X166085238Y-66661190D01*
X166161428Y-66737380D01*
X166237619Y-66775476D01*
G04 #@! TO.C,R32*
X171596904Y-85520714D02*
X171215952Y-85254047D01*
X171596904Y-85063571D02*
X170796904Y-85063571D01*
X170796904Y-85368333D01*
X170835000Y-85444523D01*
X170873095Y-85482619D01*
X170949285Y-85520714D01*
X171063571Y-85520714D01*
X171139761Y-85482619D01*
X171177857Y-85444523D01*
X171215952Y-85368333D01*
X171215952Y-85063571D01*
X170796904Y-85787380D02*
X170796904Y-86282619D01*
X171101666Y-86015952D01*
X171101666Y-86130238D01*
X171139761Y-86206428D01*
X171177857Y-86244523D01*
X171254047Y-86282619D01*
X171444523Y-86282619D01*
X171520714Y-86244523D01*
X171558809Y-86206428D01*
X171596904Y-86130238D01*
X171596904Y-85901666D01*
X171558809Y-85825476D01*
X171520714Y-85787380D01*
X170873095Y-86587380D02*
X170835000Y-86625476D01*
X170796904Y-86701666D01*
X170796904Y-86892142D01*
X170835000Y-86968333D01*
X170873095Y-87006428D01*
X170949285Y-87044523D01*
X171025476Y-87044523D01*
X171139761Y-87006428D01*
X171596904Y-86549285D01*
X171596904Y-87044523D01*
G04 #@! TO.C,R33*
X170326904Y-85520714D02*
X169945952Y-85254047D01*
X170326904Y-85063571D02*
X169526904Y-85063571D01*
X169526904Y-85368333D01*
X169565000Y-85444523D01*
X169603095Y-85482619D01*
X169679285Y-85520714D01*
X169793571Y-85520714D01*
X169869761Y-85482619D01*
X169907857Y-85444523D01*
X169945952Y-85368333D01*
X169945952Y-85063571D01*
X169526904Y-85787380D02*
X169526904Y-86282619D01*
X169831666Y-86015952D01*
X169831666Y-86130238D01*
X169869761Y-86206428D01*
X169907857Y-86244523D01*
X169984047Y-86282619D01*
X170174523Y-86282619D01*
X170250714Y-86244523D01*
X170288809Y-86206428D01*
X170326904Y-86130238D01*
X170326904Y-85901666D01*
X170288809Y-85825476D01*
X170250714Y-85787380D01*
X169526904Y-86549285D02*
X169526904Y-87044523D01*
X169831666Y-86777857D01*
X169831666Y-86892142D01*
X169869761Y-86968333D01*
X169907857Y-87006428D01*
X169984047Y-87044523D01*
X170174523Y-87044523D01*
X170250714Y-87006428D01*
X170288809Y-86968333D01*
X170326904Y-86892142D01*
X170326904Y-86663571D01*
X170288809Y-86587380D01*
X170250714Y-86549285D01*
G04 #@! TO.C,R34*
X172866904Y-85520714D02*
X172485952Y-85254047D01*
X172866904Y-85063571D02*
X172066904Y-85063571D01*
X172066904Y-85368333D01*
X172105000Y-85444523D01*
X172143095Y-85482619D01*
X172219285Y-85520714D01*
X172333571Y-85520714D01*
X172409761Y-85482619D01*
X172447857Y-85444523D01*
X172485952Y-85368333D01*
X172485952Y-85063571D01*
X172066904Y-85787380D02*
X172066904Y-86282619D01*
X172371666Y-86015952D01*
X172371666Y-86130238D01*
X172409761Y-86206428D01*
X172447857Y-86244523D01*
X172524047Y-86282619D01*
X172714523Y-86282619D01*
X172790714Y-86244523D01*
X172828809Y-86206428D01*
X172866904Y-86130238D01*
X172866904Y-85901666D01*
X172828809Y-85825476D01*
X172790714Y-85787380D01*
X172333571Y-86968333D02*
X172866904Y-86968333D01*
X172028809Y-86777857D02*
X172600238Y-86587380D01*
X172600238Y-87082619D01*
G04 #@! TO.C,R35*
X167304285Y-68616904D02*
X167570952Y-68235952D01*
X167761428Y-68616904D02*
X167761428Y-67816904D01*
X167456666Y-67816904D01*
X167380476Y-67855000D01*
X167342380Y-67893095D01*
X167304285Y-67969285D01*
X167304285Y-68083571D01*
X167342380Y-68159761D01*
X167380476Y-68197857D01*
X167456666Y-68235952D01*
X167761428Y-68235952D01*
X167037619Y-67816904D02*
X166542380Y-67816904D01*
X166809047Y-68121666D01*
X166694761Y-68121666D01*
X166618571Y-68159761D01*
X166580476Y-68197857D01*
X166542380Y-68274047D01*
X166542380Y-68464523D01*
X166580476Y-68540714D01*
X166618571Y-68578809D01*
X166694761Y-68616904D01*
X166923333Y-68616904D01*
X166999523Y-68578809D01*
X167037619Y-68540714D01*
X165818571Y-67816904D02*
X166199523Y-67816904D01*
X166237619Y-68197857D01*
X166199523Y-68159761D01*
X166123333Y-68121666D01*
X165932857Y-68121666D01*
X165856666Y-68159761D01*
X165818571Y-68197857D01*
X165780476Y-68274047D01*
X165780476Y-68464523D01*
X165818571Y-68540714D01*
X165856666Y-68578809D01*
X165932857Y-68616904D01*
X166123333Y-68616904D01*
X166199523Y-68578809D01*
X166237619Y-68540714D01*
G04 #@! TO.C,R36*
X176409285Y-94651904D02*
X176675952Y-94270952D01*
X176866428Y-94651904D02*
X176866428Y-93851904D01*
X176561666Y-93851904D01*
X176485476Y-93890000D01*
X176447380Y-93928095D01*
X176409285Y-94004285D01*
X176409285Y-94118571D01*
X176447380Y-94194761D01*
X176485476Y-94232857D01*
X176561666Y-94270952D01*
X176866428Y-94270952D01*
X176142619Y-93851904D02*
X175647380Y-93851904D01*
X175914047Y-94156666D01*
X175799761Y-94156666D01*
X175723571Y-94194761D01*
X175685476Y-94232857D01*
X175647380Y-94309047D01*
X175647380Y-94499523D01*
X175685476Y-94575714D01*
X175723571Y-94613809D01*
X175799761Y-94651904D01*
X176028333Y-94651904D01*
X176104523Y-94613809D01*
X176142619Y-94575714D01*
X174961666Y-93851904D02*
X175114047Y-93851904D01*
X175190238Y-93890000D01*
X175228333Y-93928095D01*
X175304523Y-94042380D01*
X175342619Y-94194761D01*
X175342619Y-94499523D01*
X175304523Y-94575714D01*
X175266428Y-94613809D01*
X175190238Y-94651904D01*
X175037857Y-94651904D01*
X174961666Y-94613809D01*
X174923571Y-94575714D01*
X174885476Y-94499523D01*
X174885476Y-94309047D01*
X174923571Y-94232857D01*
X174961666Y-94194761D01*
X175037857Y-94156666D01*
X175190238Y-94156666D01*
X175266428Y-94194761D01*
X175304523Y-94232857D01*
X175342619Y-94309047D01*
G04 #@! TO.C,U5*
X155549523Y-88136904D02*
X155549523Y-88784523D01*
X155511428Y-88860714D01*
X155473333Y-88898809D01*
X155397142Y-88936904D01*
X155244761Y-88936904D01*
X155168571Y-88898809D01*
X155130476Y-88860714D01*
X155092380Y-88784523D01*
X155092380Y-88136904D01*
X154330476Y-88136904D02*
X154711428Y-88136904D01*
X154749523Y-88517857D01*
X154711428Y-88479761D01*
X154635238Y-88441666D01*
X154444761Y-88441666D01*
X154368571Y-88479761D01*
X154330476Y-88517857D01*
X154292380Y-88594047D01*
X154292380Y-88784523D01*
X154330476Y-88860714D01*
X154368571Y-88898809D01*
X154444761Y-88936904D01*
X154635238Y-88936904D01*
X154711428Y-88898809D01*
X154749523Y-88860714D01*
G04 #@! TO.C,J6*
X148006666Y-60196904D02*
X148006666Y-60768333D01*
X148044761Y-60882619D01*
X148120952Y-60958809D01*
X148235238Y-60996904D01*
X148311428Y-60996904D01*
X147282857Y-60196904D02*
X147435238Y-60196904D01*
X147511428Y-60235000D01*
X147549523Y-60273095D01*
X147625714Y-60387380D01*
X147663809Y-60539761D01*
X147663809Y-60844523D01*
X147625714Y-60920714D01*
X147587619Y-60958809D01*
X147511428Y-60996904D01*
X147359047Y-60996904D01*
X147282857Y-60958809D01*
X147244761Y-60920714D01*
X147206666Y-60844523D01*
X147206666Y-60654047D01*
X147244761Y-60577857D01*
X147282857Y-60539761D01*
X147359047Y-60501666D01*
X147511428Y-60501666D01*
X147587619Y-60539761D01*
X147625714Y-60577857D01*
X147663809Y-60654047D01*
G04 #@! TO.C,J10*
X148387619Y-72896904D02*
X148387619Y-73468333D01*
X148425714Y-73582619D01*
X148501904Y-73658809D01*
X148616190Y-73696904D01*
X148692380Y-73696904D01*
X147587619Y-73696904D02*
X148044761Y-73696904D01*
X147816190Y-73696904D02*
X147816190Y-72896904D01*
X147892380Y-73011190D01*
X147968571Y-73087380D01*
X148044761Y-73125476D01*
X147092380Y-72896904D02*
X147016190Y-72896904D01*
X146940000Y-72935000D01*
X146901904Y-72973095D01*
X146863809Y-73049285D01*
X146825714Y-73201666D01*
X146825714Y-73392142D01*
X146863809Y-73544523D01*
X146901904Y-73620714D01*
X146940000Y-73658809D01*
X147016190Y-73696904D01*
X147092380Y-73696904D01*
X147168571Y-73658809D01*
X147206666Y-73620714D01*
X147244761Y-73544523D01*
X147282857Y-73392142D01*
X147282857Y-73201666D01*
X147244761Y-73049285D01*
X147206666Y-72973095D01*
X147168571Y-72935000D01*
X147092380Y-72896904D01*
G04 #@! TO.C,J11*
X148387619Y-85596904D02*
X148387619Y-86168333D01*
X148425714Y-86282619D01*
X148501904Y-86358809D01*
X148616190Y-86396904D01*
X148692380Y-86396904D01*
X147587619Y-86396904D02*
X148044761Y-86396904D01*
X147816190Y-86396904D02*
X147816190Y-85596904D01*
X147892380Y-85711190D01*
X147968571Y-85787380D01*
X148044761Y-85825476D01*
X146825714Y-86396904D02*
X147282857Y-86396904D01*
X147054285Y-86396904D02*
X147054285Y-85596904D01*
X147130476Y-85711190D01*
X147206666Y-85787380D01*
X147282857Y-85825476D01*
G04 #@! TO.C,J17*
X148387619Y-98347704D02*
X148387619Y-98919133D01*
X148425714Y-99033419D01*
X148501904Y-99109609D01*
X148616190Y-99147704D01*
X148692380Y-99147704D01*
X147587619Y-99147704D02*
X148044761Y-99147704D01*
X147816190Y-99147704D02*
X147816190Y-98347704D01*
X147892380Y-98461990D01*
X147968571Y-98538180D01*
X148044761Y-98576276D01*
X147320952Y-98347704D02*
X146787619Y-98347704D01*
X147130476Y-99147704D01*
G04 #@! TO.C,J18*
X148362219Y-111022304D02*
X148362219Y-111593733D01*
X148400314Y-111708019D01*
X148476504Y-111784209D01*
X148590790Y-111822304D01*
X148666980Y-111822304D01*
X147562219Y-111822304D02*
X148019361Y-111822304D01*
X147790790Y-111822304D02*
X147790790Y-111022304D01*
X147866980Y-111136590D01*
X147943171Y-111212780D01*
X148019361Y-111250876D01*
X147105076Y-111365161D02*
X147181266Y-111327066D01*
X147219361Y-111288971D01*
X147257457Y-111212780D01*
X147257457Y-111174685D01*
X147219361Y-111098495D01*
X147181266Y-111060400D01*
X147105076Y-111022304D01*
X146952695Y-111022304D01*
X146876504Y-111060400D01*
X146838409Y-111098495D01*
X146800314Y-111174685D01*
X146800314Y-111212780D01*
X146838409Y-111288971D01*
X146876504Y-111327066D01*
X146952695Y-111365161D01*
X147105076Y-111365161D01*
X147181266Y-111403257D01*
X147219361Y-111441352D01*
X147257457Y-111517542D01*
X147257457Y-111669923D01*
X147219361Y-111746114D01*
X147181266Y-111784209D01*
X147105076Y-111822304D01*
X146952695Y-111822304D01*
X146876504Y-111784209D01*
X146838409Y-111746114D01*
X146800314Y-111669923D01*
X146800314Y-111517542D01*
X146838409Y-111441352D01*
X146876504Y-111403257D01*
X146952695Y-111365161D01*
G04 #@! TO.C,J19*
X175057619Y-52576904D02*
X175057619Y-53148333D01*
X175095714Y-53262619D01*
X175171904Y-53338809D01*
X175286190Y-53376904D01*
X175362380Y-53376904D01*
X174257619Y-53376904D02*
X174714761Y-53376904D01*
X174486190Y-53376904D02*
X174486190Y-52576904D01*
X174562380Y-52691190D01*
X174638571Y-52767380D01*
X174714761Y-52805476D01*
X173876666Y-53376904D02*
X173724285Y-53376904D01*
X173648095Y-53338809D01*
X173610000Y-53300714D01*
X173533809Y-53186428D01*
X173495714Y-53034047D01*
X173495714Y-52729285D01*
X173533809Y-52653095D01*
X173571904Y-52615000D01*
X173648095Y-52576904D01*
X173800476Y-52576904D01*
X173876666Y-52615000D01*
X173914761Y-52653095D01*
X173952857Y-52729285D01*
X173952857Y-52919761D01*
X173914761Y-52995952D01*
X173876666Y-53034047D01*
X173800476Y-53072142D01*
X173648095Y-53072142D01*
X173571904Y-53034047D01*
X173533809Y-52995952D01*
X173495714Y-52919761D01*
G04 #@! TO.C,J20*
X175057619Y-57656904D02*
X175057619Y-58228333D01*
X175095714Y-58342619D01*
X175171904Y-58418809D01*
X175286190Y-58456904D01*
X175362380Y-58456904D01*
X174714761Y-57733095D02*
X174676666Y-57695000D01*
X174600476Y-57656904D01*
X174410000Y-57656904D01*
X174333809Y-57695000D01*
X174295714Y-57733095D01*
X174257619Y-57809285D01*
X174257619Y-57885476D01*
X174295714Y-57999761D01*
X174752857Y-58456904D01*
X174257619Y-58456904D01*
X173762380Y-57656904D02*
X173686190Y-57656904D01*
X173610000Y-57695000D01*
X173571904Y-57733095D01*
X173533809Y-57809285D01*
X173495714Y-57961666D01*
X173495714Y-58152142D01*
X173533809Y-58304523D01*
X173571904Y-58380714D01*
X173610000Y-58418809D01*
X173686190Y-58456904D01*
X173762380Y-58456904D01*
X173838571Y-58418809D01*
X173876666Y-58380714D01*
X173914761Y-58304523D01*
X173952857Y-58152142D01*
X173952857Y-57961666D01*
X173914761Y-57809285D01*
X173876666Y-57733095D01*
X173838571Y-57695000D01*
X173762380Y-57656904D01*
G04 #@! TO.C,J21*
X175057619Y-64006904D02*
X175057619Y-64578333D01*
X175095714Y-64692619D01*
X175171904Y-64768809D01*
X175286190Y-64806904D01*
X175362380Y-64806904D01*
X174714761Y-64083095D02*
X174676666Y-64045000D01*
X174600476Y-64006904D01*
X174410000Y-64006904D01*
X174333809Y-64045000D01*
X174295714Y-64083095D01*
X174257619Y-64159285D01*
X174257619Y-64235476D01*
X174295714Y-64349761D01*
X174752857Y-64806904D01*
X174257619Y-64806904D01*
X173495714Y-64806904D02*
X173952857Y-64806904D01*
X173724285Y-64806904D02*
X173724285Y-64006904D01*
X173800476Y-64121190D01*
X173876666Y-64197380D01*
X173952857Y-64235476D01*
G04 #@! TO.C,J22*
X175057619Y-69086904D02*
X175057619Y-69658333D01*
X175095714Y-69772619D01*
X175171904Y-69848809D01*
X175286190Y-69886904D01*
X175362380Y-69886904D01*
X174714761Y-69163095D02*
X174676666Y-69125000D01*
X174600476Y-69086904D01*
X174410000Y-69086904D01*
X174333809Y-69125000D01*
X174295714Y-69163095D01*
X174257619Y-69239285D01*
X174257619Y-69315476D01*
X174295714Y-69429761D01*
X174752857Y-69886904D01*
X174257619Y-69886904D01*
X173952857Y-69163095D02*
X173914761Y-69125000D01*
X173838571Y-69086904D01*
X173648095Y-69086904D01*
X173571904Y-69125000D01*
X173533809Y-69163095D01*
X173495714Y-69239285D01*
X173495714Y-69315476D01*
X173533809Y-69429761D01*
X173990952Y-69886904D01*
X173495714Y-69886904D01*
G04 #@! TO.C,J23*
X175057619Y-75436904D02*
X175057619Y-76008333D01*
X175095714Y-76122619D01*
X175171904Y-76198809D01*
X175286190Y-76236904D01*
X175362380Y-76236904D01*
X174714761Y-75513095D02*
X174676666Y-75475000D01*
X174600476Y-75436904D01*
X174410000Y-75436904D01*
X174333809Y-75475000D01*
X174295714Y-75513095D01*
X174257619Y-75589285D01*
X174257619Y-75665476D01*
X174295714Y-75779761D01*
X174752857Y-76236904D01*
X174257619Y-76236904D01*
X173990952Y-75436904D02*
X173495714Y-75436904D01*
X173762380Y-75741666D01*
X173648095Y-75741666D01*
X173571904Y-75779761D01*
X173533809Y-75817857D01*
X173495714Y-75894047D01*
X173495714Y-76084523D01*
X173533809Y-76160714D01*
X173571904Y-76198809D01*
X173648095Y-76236904D01*
X173876666Y-76236904D01*
X173952857Y-76198809D01*
X173990952Y-76160714D01*
G04 #@! TO.C,J24*
X157277619Y-80516904D02*
X157277619Y-81088333D01*
X157315714Y-81202619D01*
X157391904Y-81278809D01*
X157506190Y-81316904D01*
X157582380Y-81316904D01*
X156934761Y-80593095D02*
X156896666Y-80555000D01*
X156820476Y-80516904D01*
X156630000Y-80516904D01*
X156553809Y-80555000D01*
X156515714Y-80593095D01*
X156477619Y-80669285D01*
X156477619Y-80745476D01*
X156515714Y-80859761D01*
X156972857Y-81316904D01*
X156477619Y-81316904D01*
X155791904Y-80783571D02*
X155791904Y-81316904D01*
X155982380Y-80478809D02*
X156172857Y-81050238D01*
X155677619Y-81050238D01*
G04 #@! TO.C,J25*
X159817619Y-80516904D02*
X159817619Y-81088333D01*
X159855714Y-81202619D01*
X159931904Y-81278809D01*
X160046190Y-81316904D01*
X160122380Y-81316904D01*
X159474761Y-80593095D02*
X159436666Y-80555000D01*
X159360476Y-80516904D01*
X159170000Y-80516904D01*
X159093809Y-80555000D01*
X159055714Y-80593095D01*
X159017619Y-80669285D01*
X159017619Y-80745476D01*
X159055714Y-80859761D01*
X159512857Y-81316904D01*
X159017619Y-81316904D01*
X158293809Y-80516904D02*
X158674761Y-80516904D01*
X158712857Y-80897857D01*
X158674761Y-80859761D01*
X158598571Y-80821666D01*
X158408095Y-80821666D01*
X158331904Y-80859761D01*
X158293809Y-80897857D01*
X158255714Y-80974047D01*
X158255714Y-81164523D01*
X158293809Y-81240714D01*
X158331904Y-81278809D01*
X158408095Y-81316904D01*
X158598571Y-81316904D01*
X158674761Y-81278809D01*
X158712857Y-81240714D01*
G04 #@! TO.C,J26*
X158547619Y-81786904D02*
X158547619Y-82358333D01*
X158585714Y-82472619D01*
X158661904Y-82548809D01*
X158776190Y-82586904D01*
X158852380Y-82586904D01*
X158204761Y-81863095D02*
X158166666Y-81825000D01*
X158090476Y-81786904D01*
X157900000Y-81786904D01*
X157823809Y-81825000D01*
X157785714Y-81863095D01*
X157747619Y-81939285D01*
X157747619Y-82015476D01*
X157785714Y-82129761D01*
X158242857Y-82586904D01*
X157747619Y-82586904D01*
X157061904Y-81786904D02*
X157214285Y-81786904D01*
X157290476Y-81825000D01*
X157328571Y-81863095D01*
X157404761Y-81977380D01*
X157442857Y-82129761D01*
X157442857Y-82434523D01*
X157404761Y-82510714D01*
X157366666Y-82548809D01*
X157290476Y-82586904D01*
X157138095Y-82586904D01*
X157061904Y-82548809D01*
X157023809Y-82510714D01*
X156985714Y-82434523D01*
X156985714Y-82244047D01*
X157023809Y-82167857D01*
X157061904Y-82129761D01*
X157138095Y-82091666D01*
X157290476Y-82091666D01*
X157366666Y-82129761D01*
X157404761Y-82167857D01*
X157442857Y-82244047D01*
G04 #@! TO.C,J27*
X161087619Y-81786904D02*
X161087619Y-82358333D01*
X161125714Y-82472619D01*
X161201904Y-82548809D01*
X161316190Y-82586904D01*
X161392380Y-82586904D01*
X160744761Y-81863095D02*
X160706666Y-81825000D01*
X160630476Y-81786904D01*
X160440000Y-81786904D01*
X160363809Y-81825000D01*
X160325714Y-81863095D01*
X160287619Y-81939285D01*
X160287619Y-82015476D01*
X160325714Y-82129761D01*
X160782857Y-82586904D01*
X160287619Y-82586904D01*
X160020952Y-81786904D02*
X159487619Y-81786904D01*
X159830476Y-82586904D01*
G04 #@! TO.C,J28*
X178232619Y-112901904D02*
X178232619Y-113473333D01*
X178270714Y-113587619D01*
X178346904Y-113663809D01*
X178461190Y-113701904D01*
X178537380Y-113701904D01*
X177889761Y-112978095D02*
X177851666Y-112940000D01*
X177775476Y-112901904D01*
X177585000Y-112901904D01*
X177508809Y-112940000D01*
X177470714Y-112978095D01*
X177432619Y-113054285D01*
X177432619Y-113130476D01*
X177470714Y-113244761D01*
X177927857Y-113701904D01*
X177432619Y-113701904D01*
X176975476Y-113244761D02*
X177051666Y-113206666D01*
X177089761Y-113168571D01*
X177127857Y-113092380D01*
X177127857Y-113054285D01*
X177089761Y-112978095D01*
X177051666Y-112940000D01*
X176975476Y-112901904D01*
X176823095Y-112901904D01*
X176746904Y-112940000D01*
X176708809Y-112978095D01*
X176670714Y-113054285D01*
X176670714Y-113092380D01*
X176708809Y-113168571D01*
X176746904Y-113206666D01*
X176823095Y-113244761D01*
X176975476Y-113244761D01*
X177051666Y-113282857D01*
X177089761Y-113320952D01*
X177127857Y-113397142D01*
X177127857Y-113549523D01*
X177089761Y-113625714D01*
X177051666Y-113663809D01*
X176975476Y-113701904D01*
X176823095Y-113701904D01*
X176746904Y-113663809D01*
X176708809Y-113625714D01*
X176670714Y-113549523D01*
X176670714Y-113397142D01*
X176708809Y-113320952D01*
X176746904Y-113282857D01*
X176823095Y-113244761D01*
G04 #@! TO.C,J29*
X179502619Y-111631904D02*
X179502619Y-112203333D01*
X179540714Y-112317619D01*
X179616904Y-112393809D01*
X179731190Y-112431904D01*
X179807380Y-112431904D01*
X179159761Y-111708095D02*
X179121666Y-111670000D01*
X179045476Y-111631904D01*
X178855000Y-111631904D01*
X178778809Y-111670000D01*
X178740714Y-111708095D01*
X178702619Y-111784285D01*
X178702619Y-111860476D01*
X178740714Y-111974761D01*
X179197857Y-112431904D01*
X178702619Y-112431904D01*
X178321666Y-112431904D02*
X178169285Y-112431904D01*
X178093095Y-112393809D01*
X178055000Y-112355714D01*
X177978809Y-112241428D01*
X177940714Y-112089047D01*
X177940714Y-111784285D01*
X177978809Y-111708095D01*
X178016904Y-111670000D01*
X178093095Y-111631904D01*
X178245476Y-111631904D01*
X178321666Y-111670000D01*
X178359761Y-111708095D01*
X178397857Y-111784285D01*
X178397857Y-111974761D01*
X178359761Y-112050952D01*
X178321666Y-112089047D01*
X178245476Y-112127142D01*
X178093095Y-112127142D01*
X178016904Y-112089047D01*
X177978809Y-112050952D01*
X177940714Y-111974761D01*
G04 #@! TO.C,J30*
X176962619Y-111631904D02*
X176962619Y-112203333D01*
X177000714Y-112317619D01*
X177076904Y-112393809D01*
X177191190Y-112431904D01*
X177267380Y-112431904D01*
X176657857Y-111631904D02*
X176162619Y-111631904D01*
X176429285Y-111936666D01*
X176315000Y-111936666D01*
X176238809Y-111974761D01*
X176200714Y-112012857D01*
X176162619Y-112089047D01*
X176162619Y-112279523D01*
X176200714Y-112355714D01*
X176238809Y-112393809D01*
X176315000Y-112431904D01*
X176543571Y-112431904D01*
X176619761Y-112393809D01*
X176657857Y-112355714D01*
X175667380Y-111631904D02*
X175591190Y-111631904D01*
X175515000Y-111670000D01*
X175476904Y-111708095D01*
X175438809Y-111784285D01*
X175400714Y-111936666D01*
X175400714Y-112127142D01*
X175438809Y-112279523D01*
X175476904Y-112355714D01*
X175515000Y-112393809D01*
X175591190Y-112431904D01*
X175667380Y-112431904D01*
X175743571Y-112393809D01*
X175781666Y-112355714D01*
X175819761Y-112279523D01*
X175857857Y-112127142D01*
X175857857Y-111936666D01*
X175819761Y-111784285D01*
X175781666Y-111708095D01*
X175743571Y-111670000D01*
X175667380Y-111631904D01*
G04 #@! TO.C,J31*
X164262619Y-105916904D02*
X164262619Y-106488333D01*
X164300714Y-106602619D01*
X164376904Y-106678809D01*
X164491190Y-106716904D01*
X164567380Y-106716904D01*
X163957857Y-105916904D02*
X163462619Y-105916904D01*
X163729285Y-106221666D01*
X163615000Y-106221666D01*
X163538809Y-106259761D01*
X163500714Y-106297857D01*
X163462619Y-106374047D01*
X163462619Y-106564523D01*
X163500714Y-106640714D01*
X163538809Y-106678809D01*
X163615000Y-106716904D01*
X163843571Y-106716904D01*
X163919761Y-106678809D01*
X163957857Y-106640714D01*
X162700714Y-106716904D02*
X163157857Y-106716904D01*
X162929285Y-106716904D02*
X162929285Y-105916904D01*
X163005476Y-106031190D01*
X163081666Y-106107380D01*
X163157857Y-106145476D01*
G04 #@! TO.C,J32*
X167614619Y-105916904D02*
X167614619Y-106488333D01*
X167652714Y-106602619D01*
X167728904Y-106678809D01*
X167843190Y-106716904D01*
X167919380Y-106716904D01*
X167309857Y-105916904D02*
X166814619Y-105916904D01*
X167081285Y-106221666D01*
X166967000Y-106221666D01*
X166890809Y-106259761D01*
X166852714Y-106297857D01*
X166814619Y-106374047D01*
X166814619Y-106564523D01*
X166852714Y-106640714D01*
X166890809Y-106678809D01*
X166967000Y-106716904D01*
X167195571Y-106716904D01*
X167271761Y-106678809D01*
X167309857Y-106640714D01*
X166509857Y-105993095D02*
X166471761Y-105955000D01*
X166395571Y-105916904D01*
X166205095Y-105916904D01*
X166128904Y-105955000D01*
X166090809Y-105993095D01*
X166052714Y-106069285D01*
X166052714Y-106145476D01*
X166090809Y-106259761D01*
X166547952Y-106716904D01*
X166052714Y-106716904D01*
G04 #@! TO.C,R6*
X154223333Y-51154404D02*
X154490000Y-50773452D01*
X154680476Y-51154404D02*
X154680476Y-50354404D01*
X154375714Y-50354404D01*
X154299523Y-50392500D01*
X154261428Y-50430595D01*
X154223333Y-50506785D01*
X154223333Y-50621071D01*
X154261428Y-50697261D01*
X154299523Y-50735357D01*
X154375714Y-50773452D01*
X154680476Y-50773452D01*
X153537619Y-50354404D02*
X153690000Y-50354404D01*
X153766190Y-50392500D01*
X153804285Y-50430595D01*
X153880476Y-50544880D01*
X153918571Y-50697261D01*
X153918571Y-51002023D01*
X153880476Y-51078214D01*
X153842380Y-51116309D01*
X153766190Y-51154404D01*
X153613809Y-51154404D01*
X153537619Y-51116309D01*
X153499523Y-51078214D01*
X153461428Y-51002023D01*
X153461428Y-50811547D01*
X153499523Y-50735357D01*
X153537619Y-50697261D01*
X153613809Y-50659166D01*
X153766190Y-50659166D01*
X153842380Y-50697261D01*
X153880476Y-50735357D01*
X153918571Y-50811547D01*
G04 #@! TO.C,R12*
X154604285Y-63854404D02*
X154870952Y-63473452D01*
X155061428Y-63854404D02*
X155061428Y-63054404D01*
X154756666Y-63054404D01*
X154680476Y-63092500D01*
X154642380Y-63130595D01*
X154604285Y-63206785D01*
X154604285Y-63321071D01*
X154642380Y-63397261D01*
X154680476Y-63435357D01*
X154756666Y-63473452D01*
X155061428Y-63473452D01*
X153842380Y-63854404D02*
X154299523Y-63854404D01*
X154070952Y-63854404D02*
X154070952Y-63054404D01*
X154147142Y-63168690D01*
X154223333Y-63244880D01*
X154299523Y-63282976D01*
X153537619Y-63130595D02*
X153499523Y-63092500D01*
X153423333Y-63054404D01*
X153232857Y-63054404D01*
X153156666Y-63092500D01*
X153118571Y-63130595D01*
X153080476Y-63206785D01*
X153080476Y-63282976D01*
X153118571Y-63397261D01*
X153575714Y-63854404D01*
X153080476Y-63854404D01*
G04 #@! TO.C,R13*
X154604285Y-76617904D02*
X154870952Y-76236952D01*
X155061428Y-76617904D02*
X155061428Y-75817904D01*
X154756666Y-75817904D01*
X154680476Y-75856000D01*
X154642380Y-75894095D01*
X154604285Y-75970285D01*
X154604285Y-76084571D01*
X154642380Y-76160761D01*
X154680476Y-76198857D01*
X154756666Y-76236952D01*
X155061428Y-76236952D01*
X153842380Y-76617904D02*
X154299523Y-76617904D01*
X154070952Y-76617904D02*
X154070952Y-75817904D01*
X154147142Y-75932190D01*
X154223333Y-76008380D01*
X154299523Y-76046476D01*
X153575714Y-75817904D02*
X153080476Y-75817904D01*
X153347142Y-76122666D01*
X153232857Y-76122666D01*
X153156666Y-76160761D01*
X153118571Y-76198857D01*
X153080476Y-76275047D01*
X153080476Y-76465523D01*
X153118571Y-76541714D01*
X153156666Y-76579809D01*
X153232857Y-76617904D01*
X153461428Y-76617904D01*
X153537619Y-76579809D01*
X153575714Y-76541714D01*
G04 #@! TO.C,R14*
X150794285Y-100620904D02*
X151060952Y-100239952D01*
X151251428Y-100620904D02*
X151251428Y-99820904D01*
X150946666Y-99820904D01*
X150870476Y-99859000D01*
X150832380Y-99897095D01*
X150794285Y-99973285D01*
X150794285Y-100087571D01*
X150832380Y-100163761D01*
X150870476Y-100201857D01*
X150946666Y-100239952D01*
X151251428Y-100239952D01*
X150032380Y-100620904D02*
X150489523Y-100620904D01*
X150260952Y-100620904D02*
X150260952Y-99820904D01*
X150337142Y-99935190D01*
X150413333Y-100011380D01*
X150489523Y-100049476D01*
X149346666Y-100087571D02*
X149346666Y-100620904D01*
X149537142Y-99782809D02*
X149727619Y-100354238D01*
X149232380Y-100354238D01*
G04 #@! TO.C,R15*
X150794285Y-101636904D02*
X151060952Y-101255952D01*
X151251428Y-101636904D02*
X151251428Y-100836904D01*
X150946666Y-100836904D01*
X150870476Y-100875000D01*
X150832380Y-100913095D01*
X150794285Y-100989285D01*
X150794285Y-101103571D01*
X150832380Y-101179761D01*
X150870476Y-101217857D01*
X150946666Y-101255952D01*
X151251428Y-101255952D01*
X150032380Y-101636904D02*
X150489523Y-101636904D01*
X150260952Y-101636904D02*
X150260952Y-100836904D01*
X150337142Y-100951190D01*
X150413333Y-101027380D01*
X150489523Y-101065476D01*
X149308571Y-100836904D02*
X149689523Y-100836904D01*
X149727619Y-101217857D01*
X149689523Y-101179761D01*
X149613333Y-101141666D01*
X149422857Y-101141666D01*
X149346666Y-101179761D01*
X149308571Y-101217857D01*
X149270476Y-101294047D01*
X149270476Y-101484523D01*
X149308571Y-101560714D01*
X149346666Y-101598809D01*
X149422857Y-101636904D01*
X149613333Y-101636904D01*
X149689523Y-101598809D01*
X149727619Y-101560714D01*
G04 #@! TO.C,U4*
X167145523Y-102060904D02*
X167145523Y-102708523D01*
X167107428Y-102784714D01*
X167069333Y-102822809D01*
X166993142Y-102860904D01*
X166840761Y-102860904D01*
X166764571Y-102822809D01*
X166726476Y-102784714D01*
X166688380Y-102708523D01*
X166688380Y-102060904D01*
X165964571Y-102327571D02*
X165964571Y-102860904D01*
X166155047Y-102022809D02*
X166345523Y-102594238D01*
X165850285Y-102594238D01*
G04 #@! TD*
M02*
