G04 #@! TF.GenerationSoftware,KiCad,Pcbnew,5.0.2-bee76a0~70~ubuntu18.04.1*
G04 #@! TF.CreationDate,2018-12-27T21:02:31+01:00*
G04 #@! TF.ProjectId,switch_3pole_5x,73776974-6368-45f3-9370-6f6c655f3578,B*
G04 #@! TF.SameCoordinates,Original*
G04 #@! TF.FileFunction,Copper,L1,Top*
G04 #@! TF.FilePolarity,Positive*
%FSLAX46Y46*%
G04 Gerber Fmt 4.6, Leading zero omitted, Abs format (unit mm)*
G04 Created by KiCad (PCBNEW 5.0.2-bee76a0~70~ubuntu18.04.1) date Do 27 Dez 2018 21:02:31 CET*
%MOMM*%
%LPD*%
G01*
G04 APERTURE LIST*
G04 #@! TA.AperFunction,NonConductor*
%ADD10C,0.200000*%
G04 #@! TD*
G04 #@! TA.AperFunction,EtchedComponent*
%ADD11C,0.381000*%
G04 #@! TD*
G04 #@! TA.AperFunction,ComponentPad*
%ADD12C,1.600000*%
G04 #@! TD*
G04 #@! TA.AperFunction,ComponentPad*
%ADD13R,1.600000X1.600000*%
G04 #@! TD*
G04 #@! TA.AperFunction,ComponentPad*
%ADD14C,3.000000*%
G04 #@! TD*
G04 #@! TA.AperFunction,ComponentPad*
%ADD15C,2.000000*%
G04 #@! TD*
G04 #@! TA.AperFunction,ComponentPad*
%ADD16R,1.800000X1.800000*%
G04 #@! TD*
G04 #@! TA.AperFunction,ComponentPad*
%ADD17C,1.800000*%
G04 #@! TD*
G04 #@! TA.AperFunction,ComponentPad*
%ADD18O,2.000000X1.200000*%
G04 #@! TD*
G04 #@! TA.AperFunction,ComponentPad*
%ADD19C,2.200000*%
G04 #@! TD*
G04 #@! TA.AperFunction,ViaPad*
%ADD20C,1.000000*%
G04 #@! TD*
G04 #@! TA.AperFunction,ViaPad*
%ADD21C,0.700000*%
G04 #@! TD*
G04 #@! TA.AperFunction,Conductor*
%ADD22C,0.400000*%
G04 #@! TD*
G04 #@! TA.AperFunction,Conductor*
%ADD23C,0.200000*%
G04 #@! TD*
G04 APERTURE END LIST*
D10*
X142414761Y-115355714D02*
X142795714Y-115355714D01*
X142557619Y-115022380D02*
X142557619Y-115879523D01*
X142605238Y-115974761D01*
X142700476Y-116022380D01*
X142795714Y-116022380D01*
X143271904Y-116022380D02*
X143176666Y-115974761D01*
X143129047Y-115927142D01*
X143081428Y-115831904D01*
X143081428Y-115546190D01*
X143129047Y-115450952D01*
X143176666Y-115403333D01*
X143271904Y-115355714D01*
X143414761Y-115355714D01*
X143510000Y-115403333D01*
X143557619Y-115450952D01*
X143605238Y-115546190D01*
X143605238Y-115831904D01*
X143557619Y-115927142D01*
X143510000Y-115974761D01*
X143414761Y-116022380D01*
X143271904Y-116022380D01*
X144033809Y-115355714D02*
X144033809Y-116355714D01*
X144033809Y-115403333D02*
X144129047Y-115355714D01*
X144319523Y-115355714D01*
X144414761Y-115403333D01*
X144462380Y-115450952D01*
X144510000Y-115546190D01*
X144510000Y-115831904D01*
X144462380Y-115927142D01*
X144414761Y-115974761D01*
X144319523Y-116022380D01*
X144129047Y-116022380D01*
X144033809Y-115974761D01*
X191587380Y-115201904D02*
X190587380Y-115201904D01*
X191206428Y-115106666D02*
X191587380Y-114820952D01*
X190920714Y-114820952D02*
X191301666Y-115201904D01*
X191587380Y-114249523D02*
X191539761Y-114344761D01*
X191492142Y-114392380D01*
X191396904Y-114440000D01*
X191111190Y-114440000D01*
X191015952Y-114392380D01*
X190968333Y-114344761D01*
X190920714Y-114249523D01*
X190920714Y-114106666D01*
X190968333Y-114011428D01*
X191015952Y-113963809D01*
X191111190Y-113916190D01*
X191396904Y-113916190D01*
X191492142Y-113963809D01*
X191539761Y-114011428D01*
X191587380Y-114106666D01*
X191587380Y-114249523D01*
X191539761Y-113106666D02*
X191587380Y-113201904D01*
X191587380Y-113392380D01*
X191539761Y-113487619D01*
X191444523Y-113535238D01*
X191063571Y-113535238D01*
X190968333Y-113487619D01*
X190920714Y-113392380D01*
X190920714Y-113201904D01*
X190968333Y-113106666D01*
X191063571Y-113059047D01*
X191158809Y-113059047D01*
X191254047Y-113535238D01*
X190920714Y-112725714D02*
X191587380Y-112535238D01*
X191111190Y-112344761D01*
X191587380Y-112154285D01*
X190920714Y-111963809D01*
X191587380Y-111582857D02*
X190920714Y-111582857D01*
X190587380Y-111582857D02*
X190635000Y-111630476D01*
X190682619Y-111582857D01*
X190635000Y-111535238D01*
X190587380Y-111582857D01*
X190682619Y-111582857D01*
X191587380Y-111106666D02*
X190587380Y-111106666D01*
X190968333Y-111106666D02*
X190920714Y-111011428D01*
X190920714Y-110820952D01*
X190968333Y-110725714D01*
X191015952Y-110678095D01*
X191111190Y-110630476D01*
X191396904Y-110630476D01*
X191492142Y-110678095D01*
X191539761Y-110725714D01*
X191587380Y-110820952D01*
X191587380Y-111011428D01*
X191539761Y-111106666D01*
X191587380Y-109773333D02*
X191063571Y-109773333D01*
X190968333Y-109820952D01*
X190920714Y-109916190D01*
X190920714Y-110106666D01*
X190968333Y-110201904D01*
X191539761Y-109773333D02*
X191587380Y-109868571D01*
X191587380Y-110106666D01*
X191539761Y-110201904D01*
X191444523Y-110249523D01*
X191349285Y-110249523D01*
X191254047Y-110201904D01*
X191206428Y-110106666D01*
X191206428Y-109868571D01*
X191158809Y-109773333D01*
X173703571Y-51839761D02*
X173798809Y-51887380D01*
X173989285Y-51887380D01*
X174084523Y-51839761D01*
X174132142Y-51744523D01*
X174132142Y-51696904D01*
X174084523Y-51601666D01*
X173989285Y-51554047D01*
X173846428Y-51554047D01*
X173751190Y-51506428D01*
X173703571Y-51411190D01*
X173703571Y-51363571D01*
X173751190Y-51268333D01*
X173846428Y-51220714D01*
X173989285Y-51220714D01*
X174084523Y-51268333D01*
X174465476Y-51220714D02*
X174655952Y-51887380D01*
X174846428Y-51411190D01*
X175036904Y-51887380D01*
X175227380Y-51220714D01*
X175608333Y-51887380D02*
X175608333Y-51220714D01*
X175608333Y-50887380D02*
X175560714Y-50935000D01*
X175608333Y-50982619D01*
X175655952Y-50935000D01*
X175608333Y-50887380D01*
X175608333Y-50982619D01*
X175941666Y-51220714D02*
X176322619Y-51220714D01*
X176084523Y-50887380D02*
X176084523Y-51744523D01*
X176132142Y-51839761D01*
X176227380Y-51887380D01*
X176322619Y-51887380D01*
X177084523Y-51839761D02*
X176989285Y-51887380D01*
X176798809Y-51887380D01*
X176703571Y-51839761D01*
X176655952Y-51792142D01*
X176608333Y-51696904D01*
X176608333Y-51411190D01*
X176655952Y-51315952D01*
X176703571Y-51268333D01*
X176798809Y-51220714D01*
X176989285Y-51220714D01*
X177084523Y-51268333D01*
X177513095Y-51887380D02*
X177513095Y-50887380D01*
X177941666Y-51887380D02*
X177941666Y-51363571D01*
X177894047Y-51268333D01*
X177798809Y-51220714D01*
X177655952Y-51220714D01*
X177560714Y-51268333D01*
X177513095Y-51315952D01*
X179084523Y-50887380D02*
X179703571Y-50887380D01*
X179370238Y-51268333D01*
X179513095Y-51268333D01*
X179608333Y-51315952D01*
X179655952Y-51363571D01*
X179703571Y-51458809D01*
X179703571Y-51696904D01*
X179655952Y-51792142D01*
X179608333Y-51839761D01*
X179513095Y-51887380D01*
X179227380Y-51887380D01*
X179132142Y-51839761D01*
X179084523Y-51792142D01*
X180132142Y-51220714D02*
X180132142Y-52220714D01*
X180132142Y-51268333D02*
X180227380Y-51220714D01*
X180417857Y-51220714D01*
X180513095Y-51268333D01*
X180560714Y-51315952D01*
X180608333Y-51411190D01*
X180608333Y-51696904D01*
X180560714Y-51792142D01*
X180513095Y-51839761D01*
X180417857Y-51887380D01*
X180227380Y-51887380D01*
X180132142Y-51839761D01*
X181179761Y-51887380D02*
X181084523Y-51839761D01*
X181036904Y-51792142D01*
X180989285Y-51696904D01*
X180989285Y-51411190D01*
X181036904Y-51315952D01*
X181084523Y-51268333D01*
X181179761Y-51220714D01*
X181322619Y-51220714D01*
X181417857Y-51268333D01*
X181465476Y-51315952D01*
X181513095Y-51411190D01*
X181513095Y-51696904D01*
X181465476Y-51792142D01*
X181417857Y-51839761D01*
X181322619Y-51887380D01*
X181179761Y-51887380D01*
X182084523Y-51887380D02*
X181989285Y-51839761D01*
X181941666Y-51744523D01*
X181941666Y-50887380D01*
X182846428Y-51839761D02*
X182751190Y-51887380D01*
X182560714Y-51887380D01*
X182465476Y-51839761D01*
X182417857Y-51744523D01*
X182417857Y-51363571D01*
X182465476Y-51268333D01*
X182560714Y-51220714D01*
X182751190Y-51220714D01*
X182846428Y-51268333D01*
X182894047Y-51363571D01*
X182894047Y-51458809D01*
X182417857Y-51554047D01*
X184560714Y-50887380D02*
X184084523Y-50887380D01*
X184036904Y-51363571D01*
X184084523Y-51315952D01*
X184179761Y-51268333D01*
X184417857Y-51268333D01*
X184513095Y-51315952D01*
X184560714Y-51363571D01*
X184608333Y-51458809D01*
X184608333Y-51696904D01*
X184560714Y-51792142D01*
X184513095Y-51839761D01*
X184417857Y-51887380D01*
X184179761Y-51887380D01*
X184084523Y-51839761D01*
X184036904Y-51792142D01*
X184941666Y-51887380D02*
X185465476Y-51220714D01*
X184941666Y-51220714D02*
X185465476Y-51887380D01*
X188703571Y-51887380D02*
X188370238Y-51411190D01*
X188132142Y-51887380D02*
X188132142Y-50887380D01*
X188513095Y-50887380D01*
X188608333Y-50935000D01*
X188655952Y-50982619D01*
X188703571Y-51077857D01*
X188703571Y-51220714D01*
X188655952Y-51315952D01*
X188608333Y-51363571D01*
X188513095Y-51411190D01*
X188132142Y-51411190D01*
X189513095Y-51839761D02*
X189417857Y-51887380D01*
X189227380Y-51887380D01*
X189132142Y-51839761D01*
X189084523Y-51744523D01*
X189084523Y-51363571D01*
X189132142Y-51268333D01*
X189227380Y-51220714D01*
X189417857Y-51220714D01*
X189513095Y-51268333D01*
X189560714Y-51363571D01*
X189560714Y-51458809D01*
X189084523Y-51554047D01*
X189894047Y-51220714D02*
X190132142Y-51887380D01*
X190370238Y-51220714D01*
X191846428Y-51363571D02*
X191989285Y-51411190D01*
X192036904Y-51458809D01*
X192084523Y-51554047D01*
X192084523Y-51696904D01*
X192036904Y-51792142D01*
X191989285Y-51839761D01*
X191894047Y-51887380D01*
X191513095Y-51887380D01*
X191513095Y-50887380D01*
X191846428Y-50887380D01*
X191941666Y-50935000D01*
X191989285Y-50982619D01*
X192036904Y-51077857D01*
X192036904Y-51173095D01*
X191989285Y-51268333D01*
X191941666Y-51315952D01*
X191846428Y-51363571D01*
X191513095Y-51363571D01*
D11*
G04 #@! TO.C,LOGO1*
X160155520Y-109794160D02*
X160554300Y-110794920D01*
X159454480Y-109794160D02*
X159103960Y-110794920D01*
X159103960Y-109596040D02*
X159454480Y-109794160D01*
X158855040Y-109293780D02*
X159103960Y-109596040D01*
X158804240Y-108795940D02*
X158855040Y-109293780D01*
X158954100Y-108343820D02*
X158804240Y-108795940D01*
X159355420Y-107995840D02*
X158954100Y-108343820D01*
X159754200Y-107894240D02*
X159355420Y-107995840D01*
X160203780Y-107945040D02*
X159754200Y-107894240D01*
X160655900Y-108295560D02*
X160203780Y-107945040D01*
X160805760Y-108646080D02*
X160655900Y-108295560D01*
X160805760Y-109044860D02*
X160805760Y-108646080D01*
X160655900Y-109446180D02*
X160805760Y-109044860D01*
X160455240Y-109644300D02*
X160655900Y-109446180D01*
X160155520Y-109794160D02*
X160455240Y-109644300D01*
X157874600Y-109415700D02*
X158014300Y-109814480D01*
X157315800Y-109215040D02*
X157874600Y-109415700D01*
X157325960Y-108514000D02*
X157315800Y-109215040D01*
X157874600Y-108414940D02*
X157325960Y-108514000D01*
X158044780Y-107934880D02*
X157874600Y-108414940D01*
X157795860Y-107393860D02*
X158044780Y-107934880D01*
X158314020Y-106865540D02*
X157795860Y-107393860D01*
X158865200Y-107134780D02*
X158314020Y-106865540D01*
X159284300Y-106964600D02*
X158865200Y-107134780D01*
X159495120Y-106415960D02*
X159284300Y-106964600D01*
X160186000Y-106433740D02*
X159495120Y-106415960D01*
X160356180Y-106974760D02*
X160186000Y-106433740D01*
X160826080Y-107175420D02*
X160356180Y-106974760D01*
X161344240Y-106913800D02*
X160826080Y-107175420D01*
X161814140Y-107424340D02*
X161344240Y-106913800D01*
X161544900Y-107894240D02*
X161814140Y-107424340D01*
X161745560Y-108465740D02*
X161544900Y-107894240D01*
X162304360Y-108605440D02*
X161745560Y-108465740D01*
X162304360Y-109286160D02*
X162304360Y-108605440D01*
X161694760Y-109474120D02*
X162304360Y-109286160D01*
X161504260Y-109944020D02*
X161694760Y-109474120D01*
X161786200Y-110424080D02*
X161504260Y-109944020D01*
X161313760Y-110914300D02*
X161786200Y-110424080D01*
X160874340Y-110584100D02*
X161313760Y-110914300D01*
X160544140Y-110774600D02*
X160874340Y-110584100D01*
X158824560Y-110634900D02*
X159103960Y-110794920D01*
X158303860Y-110904140D02*
X158824560Y-110634900D01*
X157765380Y-110385980D02*
X158303860Y-110904140D01*
X158024460Y-109824640D02*
X157765380Y-110385980D01*
X157765380Y-111683920D02*
X157404700Y-111554380D01*
X157874600Y-111965860D02*
X157765380Y-111683920D01*
X157925400Y-112374800D02*
X157874600Y-111965860D01*
X157854280Y-112834540D02*
X157925400Y-112374800D01*
X157635840Y-113014880D02*
X157854280Y-112834540D01*
X157325960Y-113086000D02*
X157635840Y-113014880D01*
X157074500Y-112964080D02*
X157325960Y-113086000D01*
X156873840Y-112644040D02*
X157074500Y-112964080D01*
X156845900Y-112296060D02*
X156873840Y-112644040D01*
X156934800Y-111805840D02*
X156845900Y-112296060D01*
X157176100Y-111564540D02*
X156934800Y-111805840D01*
X157425020Y-111544220D02*
X157176100Y-111564540D01*
X158814400Y-113103780D02*
X158463880Y-112994560D01*
X159134440Y-113075840D02*
X158814400Y-113103780D01*
X159365580Y-112854860D02*
X159134440Y-113075840D01*
X159324940Y-112555140D02*
X159365580Y-112854860D01*
X159144600Y-112395120D02*
X159324940Y-112555140D01*
X158755980Y-112265580D02*
X159144600Y-112395120D01*
X158514680Y-112024280D02*
X158755980Y-112265580D01*
X158545160Y-111755040D02*
X158514680Y-112024280D01*
X158783920Y-111554380D02*
X158545160Y-111755040D01*
X159103960Y-111564540D02*
X158783920Y-111554380D01*
X159454480Y-111645820D02*
X159103960Y-111564540D01*
X160005660Y-113113940D02*
X160015820Y-113103780D01*
X160005660Y-111544220D02*
X160005660Y-113113940D01*
X160894660Y-111554380D02*
X160894660Y-113096160D01*
X160854020Y-112275740D02*
X160854020Y-112265580D01*
X160843860Y-112265580D02*
X160854020Y-112275740D01*
X160053920Y-112275740D02*
X160843860Y-112265580D01*
X162423740Y-113065680D02*
X162764100Y-111615340D01*
X162113860Y-111993800D02*
X162423740Y-113065680D01*
X161834460Y-113055520D02*
X162113860Y-111993800D01*
X161473780Y-111584860D02*
X161834460Y-113055520D01*
G04 #@! TD*
D12*
G04 #@! TO.P,U7,4*
G04 #@! TO.N,+5V*
X165100000Y-111125000D03*
G04 #@! TO.P,U7,3*
G04 #@! TO.N,GND*
X167640000Y-111125000D03*
G04 #@! TO.P,U7,2*
G04 #@! TO.N,+24V*
X170180000Y-111125000D03*
D13*
G04 #@! TO.P,U7,1*
G04 #@! TO.N,GND*
X172720000Y-111125000D03*
G04 #@! TD*
D14*
G04 #@! TO.P,REL5,5*
G04 #@! TO.N,/Relays/RELAY_4_NO*
X121685000Y-109220000D03*
G04 #@! TO.P,REL5,4*
G04 #@! TO.N,/Relays/RELAY_4_COM*
X126685000Y-109220000D03*
G04 #@! TO.P,REL5,3*
G04 #@! TO.N,/Relays/RELAY_4_NC*
X131685000Y-109220000D03*
D15*
G04 #@! TO.P,REL5,2*
G04 #@! TO.N,+24V*
X142935000Y-109220000D03*
G04 #@! TO.P,REL5,1*
G04 #@! TO.N,Net-(D10-Pad2)*
X146685000Y-109220000D03*
G04 #@! TD*
D14*
G04 #@! TO.P,REL1,5*
G04 #@! TO.N,/Relays/RELAY_0_NO*
X121685000Y-58420000D03*
G04 #@! TO.P,REL1,4*
G04 #@! TO.N,/Relays/RELAY_0_COM*
X126685000Y-58420000D03*
G04 #@! TO.P,REL1,3*
G04 #@! TO.N,/Relays/RELAY_0_NC*
X131685000Y-58420000D03*
D15*
G04 #@! TO.P,REL1,2*
G04 #@! TO.N,+24V*
X142935000Y-58420000D03*
G04 #@! TO.P,REL1,1*
G04 #@! TO.N,Net-(D1-Pad1)*
X146685000Y-58420000D03*
G04 #@! TD*
D14*
G04 #@! TO.P,REL2,5*
G04 #@! TO.N,/Relays/RELAY_1_NO*
X121685000Y-71120000D03*
G04 #@! TO.P,REL2,4*
G04 #@! TO.N,/Relays/RELAY_1_COM*
X126685000Y-71120000D03*
G04 #@! TO.P,REL2,3*
G04 #@! TO.N,/Relays/RELAY_1_NC*
X131685000Y-71120000D03*
D15*
G04 #@! TO.P,REL2,2*
G04 #@! TO.N,+24V*
X142935000Y-71120000D03*
G04 #@! TO.P,REL2,1*
G04 #@! TO.N,Net-(D2-Pad1)*
X146685000Y-71120000D03*
G04 #@! TD*
D14*
G04 #@! TO.P,REL3,5*
G04 #@! TO.N,/Relays/RELAY_2_NO*
X121685000Y-83820000D03*
G04 #@! TO.P,REL3,4*
G04 #@! TO.N,/Relays/RELAY_2_COM*
X126685000Y-83820000D03*
G04 #@! TO.P,REL3,3*
G04 #@! TO.N,/Relays/RELAY_2_NC*
X131685000Y-83820000D03*
D15*
G04 #@! TO.P,REL3,2*
G04 #@! TO.N,+24V*
X142935000Y-83820000D03*
G04 #@! TO.P,REL3,1*
G04 #@! TO.N,Net-(D3-Pad1)*
X146685000Y-83820000D03*
G04 #@! TD*
D14*
G04 #@! TO.P,REL4,5*
G04 #@! TO.N,/Relays/RELAY_3_NO*
X121685000Y-96733542D03*
G04 #@! TO.P,REL4,4*
G04 #@! TO.N,/Relays/RELAY_3_COM*
X126685000Y-96733542D03*
G04 #@! TO.P,REL4,3*
G04 #@! TO.N,/Relays/RELAY_3_NC*
X131685000Y-96733542D03*
D15*
G04 #@! TO.P,REL4,2*
G04 #@! TO.N,+24V*
X142935000Y-96733542D03*
G04 #@! TO.P,REL4,1*
G04 #@! TO.N,Net-(D4-Pad1)*
X146685000Y-96733542D03*
G04 #@! TD*
D12*
G04 #@! TO.P,D6,2*
G04 #@! TO.N,Net-(D1-Pad1)*
X150280000Y-58730000D03*
G04 #@! TO.P,D6,1*
G04 #@! TO.N,Net-(D6-Pad1)*
X152820000Y-58730000D03*
G04 #@! TD*
G04 #@! TO.P,D7,2*
G04 #@! TO.N,Net-(D2-Pad1)*
X150280000Y-71430000D03*
G04 #@! TO.P,D7,1*
G04 #@! TO.N,Net-(D7-Pad1)*
X152820000Y-71430000D03*
G04 #@! TD*
G04 #@! TO.P,D8,2*
G04 #@! TO.N,Net-(D3-Pad1)*
X150280000Y-84130000D03*
G04 #@! TO.P,D8,1*
G04 #@! TO.N,Net-(D8-Pad1)*
X152820000Y-84130000D03*
G04 #@! TD*
G04 #@! TO.P,D9,2*
G04 #@! TO.N,Net-(D4-Pad1)*
X150280000Y-96830000D03*
G04 #@! TO.P,D9,1*
G04 #@! TO.N,Net-(D9-Pad1)*
X152820000Y-96830000D03*
G04 #@! TD*
G04 #@! TO.P,D10,2*
G04 #@! TO.N,Net-(D10-Pad2)*
X150280000Y-109530000D03*
G04 #@! TO.P,D10,1*
G04 #@! TO.N,Net-(D10-Pad1)*
X152820000Y-109530000D03*
G04 #@! TD*
D15*
G04 #@! TO.P,J16,1*
G04 #@! TO.N,GND*
X184150000Y-93345000D03*
G04 #@! TD*
G04 #@! TO.P,J13,1*
G04 #@! TO.N,Net-(F2-Pad2)*
X184150000Y-110490000D03*
G04 #@! TD*
G04 #@! TO.P,J14,1*
G04 #@! TO.N,/bus_atmega328_basic/A*
X184150000Y-104775000D03*
G04 #@! TD*
G04 #@! TO.P,J15,1*
G04 #@! TO.N,/bus_atmega328_basic/B*
X184150000Y-99060000D03*
G04 #@! TD*
D16*
G04 #@! TO.P,J12,1*
G04 #@! TO.N,/bus_atmega328_basic/PB4_MISO*
X161290000Y-57150000D03*
D17*
G04 #@! TO.P,J12,2*
G04 #@! TO.N,+5V*
X161290000Y-54610000D03*
G04 #@! TO.P,J12,3*
G04 #@! TO.N,/bus_atmega328_basic/PB5_SCK*
X163830000Y-57150000D03*
G04 #@! TO.P,J12,4*
G04 #@! TO.N,/bus_atmega328_basic/PB3_MOSI*
X163830000Y-54610000D03*
G04 #@! TO.P,J12,5*
G04 #@! TO.N,/bus_atmega328_basic//RESET*
X166370000Y-57150000D03*
G04 #@! TO.P,J12,6*
G04 #@! TO.N,GND*
X166370000Y-54610000D03*
G04 #@! TD*
D18*
G04 #@! TO.P,J7,4*
G04 #@! TO.N,GND*
X182626000Y-61976000D03*
G04 #@! TO.P,J7,3*
G04 #@! TO.N,Net-(J7-Pad3)*
X182626000Y-59436000D03*
G04 #@! TO.P,J7,2*
G04 #@! TO.N,GND*
X182626000Y-56896000D03*
G04 #@! TO.P,J7,1*
G04 #@! TO.N,Net-(J7-Pad1)*
X182626000Y-54356000D03*
G04 #@! TO.P,J7,4*
G04 #@! TO.N,GND*
X187706000Y-61976000D03*
G04 #@! TO.P,J7,3*
G04 #@! TO.N,Net-(J7-Pad3)*
X187706000Y-59436000D03*
G04 #@! TO.P,J7,1*
G04 #@! TO.N,Net-(J7-Pad1)*
X187706000Y-54356000D03*
G04 #@! TO.P,J7,2*
G04 #@! TO.N,GND*
X187706000Y-56896000D03*
G04 #@! TD*
G04 #@! TO.P,J8,4*
G04 #@! TO.N,GND*
X182626000Y-73406000D03*
G04 #@! TO.P,J8,3*
G04 #@! TO.N,Net-(J8-Pad3)*
X182626000Y-70866000D03*
G04 #@! TO.P,J8,2*
G04 #@! TO.N,GND*
X182626000Y-68326000D03*
G04 #@! TO.P,J8,1*
G04 #@! TO.N,Net-(J8-Pad1)*
X182626000Y-65786000D03*
G04 #@! TO.P,J8,4*
G04 #@! TO.N,GND*
X187706000Y-73406000D03*
G04 #@! TO.P,J8,3*
G04 #@! TO.N,Net-(J8-Pad3)*
X187706000Y-70866000D03*
G04 #@! TO.P,J8,1*
G04 #@! TO.N,Net-(J8-Pad1)*
X187706000Y-65786000D03*
G04 #@! TO.P,J8,2*
G04 #@! TO.N,GND*
X187706000Y-68326000D03*
G04 #@! TD*
G04 #@! TO.P,J9,4*
G04 #@! TO.N,N/C*
X182626000Y-84836000D03*
G04 #@! TO.P,J9,3*
X182626000Y-82296000D03*
G04 #@! TO.P,J9,2*
G04 #@! TO.N,GND*
X182626000Y-79756000D03*
G04 #@! TO.P,J9,1*
G04 #@! TO.N,Net-(J9-Pad1)*
X182626000Y-77216000D03*
G04 #@! TO.P,J9,4*
G04 #@! TO.N,N/C*
X187706000Y-84836000D03*
G04 #@! TO.P,J9,3*
X187706000Y-82296000D03*
G04 #@! TO.P,J9,1*
G04 #@! TO.N,Net-(J9-Pad1)*
X187706000Y-77216000D03*
G04 #@! TO.P,J9,2*
G04 #@! TO.N,GND*
X187706000Y-79756000D03*
G04 #@! TD*
D19*
G04 #@! TO.P,J1,2*
G04 #@! TO.N,/Relays/RELAY_0_NO*
X105640000Y-58420000D03*
G04 #@! TO.P,J1,3*
G04 #@! TO.N,/Relays/RELAY_0_COM*
X111140000Y-61920000D03*
G04 #@! TO.P,J1,1*
G04 #@! TO.N,/Relays/RELAY_0_NC*
X111140000Y-54920000D03*
G04 #@! TD*
G04 #@! TO.P,J2,2*
G04 #@! TO.N,/Relays/RELAY_1_NO*
X105640000Y-71120000D03*
G04 #@! TO.P,J2,3*
G04 #@! TO.N,/Relays/RELAY_1_COM*
X111140000Y-74620000D03*
G04 #@! TO.P,J2,1*
G04 #@! TO.N,/Relays/RELAY_1_NC*
X111140000Y-67620000D03*
G04 #@! TD*
G04 #@! TO.P,J3,2*
G04 #@! TO.N,/Relays/RELAY_2_NO*
X105640000Y-83820000D03*
G04 #@! TO.P,J3,3*
G04 #@! TO.N,/Relays/RELAY_2_COM*
X111140000Y-87320000D03*
G04 #@! TO.P,J3,1*
G04 #@! TO.N,/Relays/RELAY_2_NC*
X111140000Y-80320000D03*
G04 #@! TD*
G04 #@! TO.P,J4,2*
G04 #@! TO.N,/Relays/RELAY_3_NO*
X105640000Y-96520000D03*
G04 #@! TO.P,J4,3*
G04 #@! TO.N,/Relays/RELAY_3_COM*
X111140000Y-100020000D03*
G04 #@! TO.P,J4,1*
G04 #@! TO.N,/Relays/RELAY_3_NC*
X111140000Y-93020000D03*
G04 #@! TD*
G04 #@! TO.P,J5,2*
G04 #@! TO.N,/Relays/RELAY_4_NO*
X105640000Y-109220000D03*
G04 #@! TO.P,J5,3*
G04 #@! TO.N,/Relays/RELAY_4_COM*
X111140000Y-112720000D03*
G04 #@! TO.P,J5,1*
G04 #@! TO.N,/Relays/RELAY_4_NC*
X111140000Y-105720000D03*
G04 #@! TD*
D20*
G04 #@! TO.N,GND*
X156845000Y-107315000D03*
X162560000Y-104775000D03*
X184785000Y-102235000D03*
X182245000Y-88900000D03*
X156846153Y-84447541D03*
X149010000Y-106482000D03*
X147486000Y-81336000D03*
X149010000Y-55174000D03*
X149010000Y-68382002D03*
X149010000Y-93528000D03*
X178220000Y-102926000D03*
D21*
X161456000Y-74732000D03*
D20*
X168695000Y-95814000D03*
X164377000Y-96068000D03*
X164377000Y-97846000D03*
D21*
G04 #@! TO.N,/bus_atmega328_basic/PB4_MISO*
X165113985Y-88922212D03*
G04 #@! TO.N,/bus_atmega328_basic/PB5_SCK*
X166663000Y-88829000D03*
G04 #@! TO.N,/bus_atmega328_basic/PB3_MOSI*
X163895996Y-88864004D03*
G04 #@! TO.N,/bus_atmega328_basic/TXD0*
X176950000Y-104577000D03*
X173267000Y-103942000D03*
G04 #@! TO.N,/bus_atmega328_basic//RESET*
X166155000Y-99370000D03*
G04 #@! TO.N,//button_1*
X172885010Y-59690000D03*
X168729253Y-96863454D03*
G04 #@! TO.N,//button_2*
X173520010Y-66040000D03*
X168706990Y-97870664D03*
G04 #@! TO.N,//button_3*
X174017010Y-71176000D03*
X168106979Y-98662422D03*
G04 #@! TO.N,//button_4*
X175325010Y-76200000D03*
X167506968Y-99377084D03*
G04 #@! TO.N,/relay_0*
X151549996Y-55174000D03*
X165658011Y-93781717D03*
G04 #@! TO.N,/relay_1*
X151550000Y-68382000D03*
X164758000Y-94163012D03*
G04 #@! TO.N,/relay_2*
X151550000Y-80955000D03*
X163804993Y-93799854D03*
G04 #@! TO.N,/relay_3*
X160440000Y-98481000D03*
X151550000Y-93655000D03*
G04 #@! TO.N,/relay_4*
X151550000Y-106482000D03*
X160452637Y-99380923D03*
G04 #@! TO.N,/bus_atmega328_basic/MOSI*
X164250000Y-78542000D03*
X164250000Y-81082000D03*
G04 #@! TD*
D22*
G04 #@! TO.N,/bus_atmega328_basic/PB4_MISO*
X166013934Y-88022263D02*
X165113985Y-88922212D01*
X166013934Y-63922934D02*
X166013934Y-88022263D01*
X161290000Y-57150000D02*
X161290000Y-59199000D01*
X161290000Y-59199000D02*
X166013934Y-63922934D01*
G04 #@! TO.N,/bus_atmega328_basic/PB5_SCK*
X166663000Y-59983000D02*
X166663000Y-88829000D01*
X163830000Y-57150000D02*
X166663000Y-59983000D01*
G04 #@! TO.N,/bus_atmega328_basic/PB3_MOSI*
X165266000Y-87494000D02*
X163895996Y-88864004D01*
X159682936Y-58496650D02*
X165266000Y-64079714D01*
X165266000Y-64079714D02*
X165266000Y-87494000D01*
X163830000Y-54610000D02*
X162236833Y-53016833D01*
X159682936Y-53941120D02*
X159682936Y-58496650D01*
X162236833Y-53016833D02*
X160607223Y-53016833D01*
X160607223Y-53016833D02*
X159682936Y-53941120D01*
G04 #@! TO.N,/bus_atmega328_basic/TXD0*
X176950000Y-104577000D02*
X173902000Y-104577000D01*
X173902000Y-104577000D02*
X173267000Y-103942000D01*
G04 #@! TO.N,/bus_atmega328_basic//RESET*
X167413002Y-98111998D02*
X167413002Y-58193002D01*
X167413002Y-58193002D02*
X166370000Y-57150000D01*
X166155000Y-99370000D02*
X167413002Y-98111998D01*
G04 #@! TO.N,//button_1*
X172885010Y-59690000D02*
X172228967Y-60346043D01*
X172228967Y-60346043D02*
X172228967Y-93858714D01*
X169224227Y-96863454D02*
X168729253Y-96863454D01*
X172228967Y-93858714D02*
X169224227Y-96863454D01*
G04 #@! TO.N,//button_2*
X169199881Y-97870664D02*
X168706990Y-97870664D01*
X172828978Y-66731032D02*
X172828978Y-94241567D01*
X173520010Y-66040000D02*
X172828978Y-66731032D01*
X172828978Y-94241567D02*
X169199881Y-97870664D01*
G04 #@! TO.N,//button_3*
X169256666Y-98662422D02*
X168106979Y-98662422D01*
X173428989Y-94490099D02*
X169256666Y-98662422D01*
X173428989Y-71764021D02*
X173428989Y-94490099D01*
X174017010Y-71176000D02*
X173428989Y-71764021D01*
G04 #@! TO.N,//button_4*
X167856967Y-99727083D02*
X167506968Y-99377084D01*
X169040548Y-99727083D02*
X167856967Y-99727083D01*
X174029000Y-94738631D02*
X169040548Y-99727083D01*
X174029000Y-77496010D02*
X174029000Y-94738631D01*
X175325010Y-76200000D02*
X174029000Y-77496010D01*
G04 #@! TO.N,/relay_0*
X165658011Y-93158011D02*
X165658011Y-93781717D01*
X162529022Y-90029022D02*
X165658011Y-93158011D01*
X162529022Y-66153026D02*
X162529022Y-90029022D01*
X151549996Y-55174000D02*
X162529022Y-66153026D01*
G04 #@! TO.N,/relay_1*
X164758000Y-93149013D02*
X164758000Y-94163012D01*
X161929011Y-78761011D02*
X161929011Y-90320024D01*
X151550000Y-68382000D02*
X161929011Y-78761011D01*
X161929011Y-90320024D02*
X164758000Y-93149013D01*
G04 #@! TO.N,/relay_2*
X163804993Y-93209993D02*
X163804993Y-93799854D01*
X151550000Y-80955000D02*
X163804993Y-93209993D01*
G04 #@! TO.N,/relay_3*
X160440000Y-98481000D02*
X155614000Y-93655000D01*
X155614000Y-93655000D02*
X151550000Y-93655000D01*
G04 #@! TO.N,/relay_4*
X151550000Y-106482000D02*
X158651077Y-99380923D01*
X158651077Y-99380923D02*
X160452637Y-99380923D01*
G04 #@! TO.N,/bus_atmega328_basic/MOSI*
X164250000Y-78542000D02*
X164250000Y-81082000D01*
G04 #@! TD*
D23*
G04 #@! TO.N,GND*
G36*
X173043095Y-52765000D02*
X191670000Y-52765000D01*
X191670000Y-109065238D01*
X189965000Y-109065238D01*
X189965000Y-115970000D01*
X190593578Y-115970000D01*
X190458578Y-116105000D01*
X145200476Y-116105000D01*
X145200476Y-114400000D01*
X141819524Y-114400000D01*
X141819524Y-116105000D01*
X141011422Y-116105000D01*
X139800000Y-114893578D01*
X139800000Y-112285351D01*
X156252640Y-112285351D01*
X156255802Y-112324737D01*
X156257477Y-112423510D01*
X156265152Y-112441186D01*
X156282654Y-112659161D01*
X156280182Y-112744312D01*
X156312798Y-112830007D01*
X156337827Y-112918220D01*
X156390675Y-112985039D01*
X156569560Y-113270349D01*
X156624511Y-113364072D01*
X156678854Y-113405196D01*
X156725623Y-113454762D01*
X156824734Y-113499227D01*
X156986766Y-113577789D01*
X157006254Y-113596169D01*
X157091718Y-113628675D01*
X157120670Y-113642712D01*
X157145976Y-113649311D01*
X157225824Y-113679681D01*
X157258740Y-113678718D01*
X157290606Y-113687028D01*
X157375234Y-113675310D01*
X157401368Y-113674545D01*
X157432718Y-113667350D01*
X157523301Y-113654807D01*
X157546413Y-113641256D01*
X157732063Y-113598648D01*
X157812294Y-113590509D01*
X157897030Y-113544898D01*
X157984829Y-113505483D01*
X158040163Y-113446813D01*
X158058147Y-113431966D01*
X158078437Y-113457073D01*
X158232691Y-113541024D01*
X158582202Y-113649930D01*
X158633249Y-113677948D01*
X158693240Y-113684530D01*
X158694256Y-113684846D01*
X158751139Y-113690882D01*
X158807821Y-113697100D01*
X158808877Y-113697008D01*
X158868896Y-113703376D01*
X158924747Y-113686892D01*
X159095117Y-113672018D01*
X159120914Y-113677755D01*
X159211332Y-113661873D01*
X159243731Y-113659044D01*
X159268491Y-113651832D01*
X159352286Y-113637113D01*
X159380377Y-113619243D01*
X159412344Y-113609932D01*
X159478705Y-113556692D01*
X159500464Y-113542850D01*
X159523973Y-113520374D01*
X159552013Y-113497879D01*
X159579934Y-113539666D01*
X159677792Y-113605052D01*
X159775260Y-113670178D01*
X160005660Y-113716008D01*
X160236061Y-113670178D01*
X160374903Y-113577407D01*
X160382084Y-113572609D01*
X160382085Y-113572608D01*
X160431386Y-113539666D01*
X160456101Y-113502678D01*
X160468935Y-113521886D01*
X160664260Y-113652398D01*
X160894660Y-113698228D01*
X161125061Y-113652398D01*
X161320386Y-113521886D01*
X161376937Y-113437251D01*
X161412837Y-113470114D01*
X161470087Y-113534808D01*
X161498814Y-113548815D01*
X161522391Y-113570397D01*
X161603589Y-113599903D01*
X161681238Y-113637764D01*
X161713140Y-113639712D01*
X161743181Y-113650628D01*
X161829488Y-113646815D01*
X161915716Y-113652079D01*
X161945935Y-113641670D01*
X161977867Y-113640259D01*
X162056145Y-113603708D01*
X162119810Y-113581778D01*
X162132997Y-113592893D01*
X162211348Y-113617786D01*
X162286187Y-113651824D01*
X162322379Y-113653060D01*
X162356884Y-113664023D01*
X162438794Y-113657038D01*
X162520963Y-113659845D01*
X162554869Y-113647139D01*
X162590950Y-113644062D01*
X162663956Y-113606260D01*
X162740940Y-113577411D01*
X162767405Y-113552694D01*
X162799558Y-113536046D01*
X162852538Y-113473187D01*
X162912626Y-113417070D01*
X162927618Y-113384108D01*
X162950953Y-113356422D01*
X162975845Y-113278073D01*
X162985335Y-113257208D01*
X162993421Y-113222752D01*
X163022084Y-113132534D01*
X163020087Y-113109121D01*
X163352268Y-111693634D01*
X163358265Y-111518116D01*
X163275831Y-111298140D01*
X163115490Y-111126454D01*
X162901653Y-111029196D01*
X162666876Y-111021175D01*
X162446899Y-111103609D01*
X162275214Y-111263950D01*
X162211022Y-111405085D01*
X162180715Y-111395456D01*
X162106725Y-111401766D01*
X162035814Y-111397437D01*
X162033432Y-111387726D01*
X161959128Y-111228600D01*
X161891026Y-111166261D01*
X162160828Y-110886305D01*
X163900000Y-110886305D01*
X163900000Y-111363695D01*
X164082689Y-111804745D01*
X164420255Y-112142311D01*
X164861305Y-112325000D01*
X165338695Y-112325000D01*
X165779745Y-112142311D01*
X165787087Y-112134969D01*
X166847820Y-112134969D01*
X166925643Y-112370229D01*
X167456548Y-112548815D01*
X168015382Y-112510637D01*
X168354357Y-112370229D01*
X168432180Y-112134969D01*
X167640000Y-111342789D01*
X166847820Y-112134969D01*
X165787087Y-112134969D01*
X166117311Y-111804745D01*
X166252808Y-111477626D01*
X166254363Y-111500382D01*
X166394771Y-111839357D01*
X166630031Y-111917180D01*
X167422211Y-111125000D01*
X167857789Y-111125000D01*
X168649969Y-111917180D01*
X168885229Y-111839357D01*
X169015998Y-111450603D01*
X169162689Y-111804745D01*
X169500255Y-112142311D01*
X169941305Y-112325000D01*
X170418695Y-112325000D01*
X170859745Y-112142311D01*
X171197311Y-111804745D01*
X171312000Y-111527861D01*
X171312000Y-112045938D01*
X171404562Y-112269404D01*
X171575595Y-112440437D01*
X171799061Y-112533000D01*
X172414000Y-112533000D01*
X172566000Y-112381000D01*
X172566000Y-111279000D01*
X172874000Y-111279000D01*
X172874000Y-112381000D01*
X173026000Y-112533000D01*
X173640939Y-112533000D01*
X173864405Y-112440437D01*
X174035438Y-112269404D01*
X174128000Y-112045938D01*
X174128000Y-111431000D01*
X173976000Y-111279000D01*
X172874000Y-111279000D01*
X172566000Y-111279000D01*
X172546000Y-111279000D01*
X172546000Y-110971000D01*
X172566000Y-110971000D01*
X172566000Y-109869000D01*
X172874000Y-109869000D01*
X172874000Y-110971000D01*
X173976000Y-110971000D01*
X174128000Y-110819000D01*
X174128000Y-110211523D01*
X182750000Y-110211523D01*
X182750000Y-110768477D01*
X182963137Y-111283037D01*
X183356963Y-111676863D01*
X183871523Y-111890000D01*
X184428477Y-111890000D01*
X184943037Y-111676863D01*
X185336863Y-111283037D01*
X185550000Y-110768477D01*
X185550000Y-110211523D01*
X185336863Y-109696963D01*
X184943037Y-109303137D01*
X184428477Y-109090000D01*
X183871523Y-109090000D01*
X183356963Y-109303137D01*
X182963137Y-109696963D01*
X182750000Y-110211523D01*
X174128000Y-110211523D01*
X174128000Y-110204062D01*
X174035438Y-109980596D01*
X173864405Y-109809563D01*
X173640939Y-109717000D01*
X173026000Y-109717000D01*
X172874000Y-109869000D01*
X172566000Y-109869000D01*
X172414000Y-109717000D01*
X171799061Y-109717000D01*
X171575595Y-109809563D01*
X171404562Y-109980596D01*
X171312000Y-110204062D01*
X171312000Y-110722139D01*
X171197311Y-110445255D01*
X170859745Y-110107689D01*
X170418695Y-109925000D01*
X169941305Y-109925000D01*
X169500255Y-110107689D01*
X169162689Y-110445255D01*
X169027192Y-110772374D01*
X169025637Y-110749618D01*
X168885229Y-110410643D01*
X168649969Y-110332820D01*
X167857789Y-111125000D01*
X167422211Y-111125000D01*
X166630031Y-110332820D01*
X166394771Y-110410643D01*
X166264002Y-110799397D01*
X166117311Y-110445255D01*
X165787087Y-110115031D01*
X166847820Y-110115031D01*
X167640000Y-110907211D01*
X168432180Y-110115031D01*
X168354357Y-109879771D01*
X167823452Y-109701185D01*
X167264618Y-109739363D01*
X166925643Y-109879771D01*
X166847820Y-110115031D01*
X165787087Y-110115031D01*
X165779745Y-110107689D01*
X165338695Y-109925000D01*
X164861305Y-109925000D01*
X164420255Y-110107689D01*
X164082689Y-110445255D01*
X163900000Y-110886305D01*
X162160828Y-110886305D01*
X162195717Y-110850103D01*
X162266562Y-110787036D01*
X162302291Y-110713207D01*
X162346597Y-110644171D01*
X162353038Y-110608344D01*
X162368894Y-110575580D01*
X162373650Y-110493696D01*
X162388165Y-110412962D01*
X162380405Y-110377397D01*
X162382516Y-110341060D01*
X162355573Y-110263585D01*
X162338088Y-110183446D01*
X162283943Y-110105565D01*
X162186889Y-109940312D01*
X162449341Y-109859389D01*
X162534760Y-109842398D01*
X162609424Y-109792510D01*
X162688425Y-109749818D01*
X162706397Y-109727715D01*
X162730086Y-109711886D01*
X162779980Y-109637215D01*
X162836624Y-109567548D01*
X162844769Y-109540251D01*
X162860598Y-109516561D01*
X162878120Y-109428475D01*
X162903790Y-109342440D01*
X162894860Y-109255821D01*
X162894860Y-108619770D01*
X162899870Y-108516825D01*
X162874990Y-108447389D01*
X162860598Y-108375039D01*
X162835727Y-108337817D01*
X162820628Y-108295679D01*
X162771069Y-108241050D01*
X162730086Y-108179714D01*
X162692864Y-108154843D01*
X162662789Y-108121691D01*
X162596095Y-108090184D01*
X162534761Y-108049202D01*
X162433657Y-108029091D01*
X162197345Y-107970013D01*
X162191532Y-107953457D01*
X162310315Y-107746146D01*
X162360358Y-107677580D01*
X162382025Y-107588179D01*
X162411311Y-107500963D01*
X162409508Y-107474780D01*
X162415690Y-107449274D01*
X162401494Y-107358378D01*
X162395176Y-107266602D01*
X162383492Y-107243104D01*
X162379442Y-107217172D01*
X162331535Y-107138615D01*
X162290583Y-107056256D01*
X162226584Y-107000501D01*
X161794733Y-106531303D01*
X161736932Y-106457426D01*
X161664591Y-106416563D01*
X161597480Y-106367582D01*
X161563150Y-106359262D01*
X161532393Y-106341888D01*
X161449916Y-106331819D01*
X161369174Y-106312250D01*
X161334276Y-106317700D01*
X161299209Y-106313419D01*
X161219155Y-106335679D01*
X161137073Y-106348498D01*
X161057000Y-106397330D01*
X160829674Y-106512107D01*
X160761189Y-106294386D01*
X160747981Y-106217726D01*
X160695071Y-106133953D01*
X160647472Y-106047052D01*
X160632675Y-106035160D01*
X160622537Y-106019108D01*
X160541590Y-105961955D01*
X160464365Y-105899889D01*
X160446145Y-105894565D01*
X160430635Y-105883614D01*
X160333972Y-105861787D01*
X160238879Y-105834000D01*
X160161549Y-105842416D01*
X159553114Y-105826758D01*
X159479567Y-105814094D01*
X159379854Y-105836621D01*
X159279106Y-105853979D01*
X159265790Y-105862389D01*
X159250427Y-105865860D01*
X159166919Y-105924835D01*
X159080488Y-105979423D01*
X159071404Y-105992288D01*
X159058539Y-106001374D01*
X159003952Y-106087823D01*
X158944994Y-106171326D01*
X158928557Y-106244120D01*
X158843007Y-106466755D01*
X158606382Y-106351168D01*
X158539010Y-106307092D01*
X158444322Y-106289211D01*
X158351138Y-106264618D01*
X158329566Y-106267541D01*
X158308174Y-106263501D01*
X158213846Y-106283218D01*
X158118350Y-106296156D01*
X158099537Y-106307112D01*
X158078229Y-106311566D01*
X157998618Y-106365885D01*
X157915350Y-106414378D01*
X157866584Y-106478429D01*
X157408993Y-106944994D01*
X157354057Y-106984844D01*
X157297069Y-107077682D01*
X157237412Y-107168870D01*
X157235776Y-107177536D01*
X157231163Y-107185050D01*
X157214041Y-107292630D01*
X157193821Y-107399705D01*
X157195626Y-107408338D01*
X157194240Y-107417044D01*
X157219595Y-107523011D01*
X157241886Y-107629650D01*
X157280137Y-107685712D01*
X157380610Y-107904085D01*
X157335653Y-107912202D01*
X157334684Y-107911995D01*
X157220178Y-107933052D01*
X157163808Y-107943230D01*
X157162911Y-107943583D01*
X157103644Y-107954482D01*
X157054674Y-107986186D01*
X157000392Y-108007552D01*
X156957034Y-108049400D01*
X156906449Y-108082150D01*
X156873339Y-108130180D01*
X156831365Y-108170693D01*
X156807321Y-108225949D01*
X156773120Y-108275563D01*
X156760911Y-108332607D01*
X156737635Y-108386099D01*
X156736567Y-108446347D01*
X156736365Y-108447293D01*
X156735531Y-108504809D01*
X156733473Y-108620976D01*
X156733835Y-108621895D01*
X156725936Y-109166895D01*
X156714425Y-109243896D01*
X156738374Y-109339969D01*
X156756282Y-109437356D01*
X156766637Y-109453350D01*
X156771245Y-109471837D01*
X156830139Y-109551436D01*
X156883950Y-109634552D01*
X156899636Y-109645365D01*
X156910969Y-109660682D01*
X156995846Y-109711687D01*
X157077363Y-109767880D01*
X157153491Y-109784173D01*
X157358758Y-109857883D01*
X157246257Y-110101636D01*
X157204816Y-110166316D01*
X157187187Y-110264803D01*
X157163788Y-110362079D01*
X157166594Y-110379846D01*
X157163424Y-110397556D01*
X157184828Y-110495297D01*
X157200435Y-110594117D01*
X157209828Y-110609460D01*
X157213676Y-110627033D01*
X157270853Y-110709143D01*
X157323090Y-110794470D01*
X157385216Y-110839649D01*
X157509865Y-110959594D01*
X157434938Y-110950947D01*
X157387839Y-110954792D01*
X157375878Y-110953003D01*
X157359378Y-110957115D01*
X157210331Y-110969282D01*
X157176100Y-110962473D01*
X157094216Y-110978761D01*
X157070093Y-110980730D01*
X157037297Y-110990083D01*
X156945698Y-111008303D01*
X156925066Y-111022089D01*
X156901207Y-111028893D01*
X156828039Y-111086920D01*
X156799677Y-111105871D01*
X156782560Y-111122988D01*
X156717148Y-111174864D01*
X156700184Y-111205364D01*
X156596634Y-111308913D01*
X156591872Y-111310981D01*
X156513756Y-111391791D01*
X156476131Y-111429416D01*
X156473323Y-111433619D01*
X156428601Y-111479883D01*
X156408695Y-111530342D01*
X156378563Y-111575439D01*
X156366010Y-111638546D01*
X156364154Y-111643251D01*
X156354654Y-111695634D01*
X156332733Y-111805840D01*
X156333746Y-111810931D01*
X156282396Y-112094089D01*
X156273007Y-112110917D01*
X156261550Y-112209039D01*
X156254500Y-112247916D01*
X156254818Y-112266694D01*
X156252640Y-112285351D01*
X139800000Y-112285351D01*
X139800000Y-108941523D01*
X141535000Y-108941523D01*
X141535000Y-109498477D01*
X141748137Y-110013037D01*
X142141963Y-110406863D01*
X142656523Y-110620000D01*
X143213477Y-110620000D01*
X143728037Y-110406863D01*
X144121863Y-110013037D01*
X144335000Y-109498477D01*
X144335000Y-108941523D01*
X145285000Y-108941523D01*
X145285000Y-109498477D01*
X145498137Y-110013037D01*
X145891963Y-110406863D01*
X146406523Y-110620000D01*
X146963477Y-110620000D01*
X147478037Y-110406863D01*
X147871863Y-110013037D01*
X148085000Y-109498477D01*
X148085000Y-109291305D01*
X149080000Y-109291305D01*
X149080000Y-109768695D01*
X149262689Y-110209745D01*
X149600255Y-110547311D01*
X150041305Y-110730000D01*
X150518695Y-110730000D01*
X150959745Y-110547311D01*
X151297311Y-110209745D01*
X151480000Y-109768695D01*
X151480000Y-109291305D01*
X151620000Y-109291305D01*
X151620000Y-109768695D01*
X151802689Y-110209745D01*
X152140255Y-110547311D01*
X152581305Y-110730000D01*
X153058695Y-110730000D01*
X153499745Y-110547311D01*
X153837311Y-110209745D01*
X154020000Y-109768695D01*
X154020000Y-109291305D01*
X153837311Y-108850255D01*
X153499745Y-108512689D01*
X153058695Y-108330000D01*
X152581305Y-108330000D01*
X152140255Y-108512689D01*
X151802689Y-108850255D01*
X151620000Y-109291305D01*
X151480000Y-109291305D01*
X151297311Y-108850255D01*
X150959745Y-108512689D01*
X150518695Y-108330000D01*
X150041305Y-108330000D01*
X149600255Y-108512689D01*
X149262689Y-108850255D01*
X149080000Y-109291305D01*
X148085000Y-109291305D01*
X148085000Y-108941523D01*
X147871863Y-108426963D01*
X147478037Y-108033137D01*
X146963477Y-107820000D01*
X146406523Y-107820000D01*
X145891963Y-108033137D01*
X145498137Y-108426963D01*
X145285000Y-108941523D01*
X144335000Y-108941523D01*
X144121863Y-108426963D01*
X143728037Y-108033137D01*
X143213477Y-107820000D01*
X142656523Y-107820000D01*
X142141963Y-108033137D01*
X141748137Y-108426963D01*
X141535000Y-108941523D01*
X139800000Y-108941523D01*
X139800000Y-96455065D01*
X141535000Y-96455065D01*
X141535000Y-97012019D01*
X141748137Y-97526579D01*
X142141963Y-97920405D01*
X142656523Y-98133542D01*
X143213477Y-98133542D01*
X143728037Y-97920405D01*
X144121863Y-97526579D01*
X144335000Y-97012019D01*
X144335000Y-96455065D01*
X145285000Y-96455065D01*
X145285000Y-97012019D01*
X145498137Y-97526579D01*
X145891963Y-97920405D01*
X146406523Y-98133542D01*
X146963477Y-98133542D01*
X147478037Y-97920405D01*
X147871863Y-97526579D01*
X148085000Y-97012019D01*
X148085000Y-96591305D01*
X149080000Y-96591305D01*
X149080000Y-97068695D01*
X149262689Y-97509745D01*
X149600255Y-97847311D01*
X150041305Y-98030000D01*
X150518695Y-98030000D01*
X150959745Y-97847311D01*
X151297311Y-97509745D01*
X151480000Y-97068695D01*
X151480000Y-96591305D01*
X151620000Y-96591305D01*
X151620000Y-97068695D01*
X151802689Y-97509745D01*
X152140255Y-97847311D01*
X152581305Y-98030000D01*
X153058695Y-98030000D01*
X153499745Y-97847311D01*
X153837311Y-97509745D01*
X154020000Y-97068695D01*
X154020000Y-96591305D01*
X153837311Y-96150255D01*
X153499745Y-95812689D01*
X153058695Y-95630000D01*
X152581305Y-95630000D01*
X152140255Y-95812689D01*
X151802689Y-96150255D01*
X151620000Y-96591305D01*
X151480000Y-96591305D01*
X151297311Y-96150255D01*
X150959745Y-95812689D01*
X150518695Y-95630000D01*
X150041305Y-95630000D01*
X149600255Y-95812689D01*
X149262689Y-96150255D01*
X149080000Y-96591305D01*
X148085000Y-96591305D01*
X148085000Y-96455065D01*
X147871863Y-95940505D01*
X147478037Y-95546679D01*
X146963477Y-95333542D01*
X146406523Y-95333542D01*
X145891963Y-95546679D01*
X145498137Y-95940505D01*
X145285000Y-96455065D01*
X144335000Y-96455065D01*
X144121863Y-95940505D01*
X143728037Y-95546679D01*
X143213477Y-95333542D01*
X142656523Y-95333542D01*
X142141963Y-95546679D01*
X141748137Y-95940505D01*
X141535000Y-96455065D01*
X139800000Y-96455065D01*
X139800000Y-93505816D01*
X150800000Y-93505816D01*
X150800000Y-93804184D01*
X150914181Y-94079841D01*
X151125159Y-94290819D01*
X151400816Y-94405000D01*
X151699184Y-94405000D01*
X151974841Y-94290819D01*
X152010660Y-94255000D01*
X155365473Y-94255000D01*
X159690000Y-98579528D01*
X159690000Y-98630184D01*
X159752438Y-98780923D01*
X158710162Y-98780923D01*
X158651076Y-98769170D01*
X158591990Y-98780923D01*
X158591986Y-98780923D01*
X158416969Y-98815736D01*
X158416967Y-98815737D01*
X158416968Y-98815737D01*
X158274342Y-98911037D01*
X158218502Y-98948348D01*
X158185030Y-98998442D01*
X151451473Y-105732000D01*
X151400816Y-105732000D01*
X151125159Y-105846181D01*
X150914181Y-106057159D01*
X150800000Y-106332816D01*
X150800000Y-106631184D01*
X150914181Y-106906841D01*
X151125159Y-107117819D01*
X151400816Y-107232000D01*
X151699184Y-107232000D01*
X151974841Y-107117819D01*
X152185819Y-106906841D01*
X152300000Y-106631184D01*
X152300000Y-106580527D01*
X155087711Y-103792816D01*
X172517000Y-103792816D01*
X172517000Y-104091184D01*
X172631181Y-104366841D01*
X172842159Y-104577819D01*
X173117816Y-104692000D01*
X173168472Y-104692000D01*
X173435953Y-104959481D01*
X173469425Y-105009575D01*
X173667892Y-105142187D01*
X173842909Y-105177000D01*
X173842912Y-105177000D01*
X173902000Y-105188753D01*
X173961088Y-105177000D01*
X176489340Y-105177000D01*
X176525159Y-105212819D01*
X176800816Y-105327000D01*
X177099184Y-105327000D01*
X177374841Y-105212819D01*
X177585819Y-105001841D01*
X177700000Y-104726184D01*
X177700000Y-104496523D01*
X182750000Y-104496523D01*
X182750000Y-105053477D01*
X182963137Y-105568037D01*
X183356963Y-105961863D01*
X183871523Y-106175000D01*
X184428477Y-106175000D01*
X184943037Y-105961863D01*
X185336863Y-105568037D01*
X185550000Y-105053477D01*
X185550000Y-104496523D01*
X185336863Y-103981963D01*
X184943037Y-103588137D01*
X184428477Y-103375000D01*
X183871523Y-103375000D01*
X183356963Y-103588137D01*
X182963137Y-103981963D01*
X182750000Y-104496523D01*
X177700000Y-104496523D01*
X177700000Y-104427816D01*
X177585819Y-104152159D01*
X177374841Y-103941181D01*
X177099184Y-103827000D01*
X176800816Y-103827000D01*
X176525159Y-103941181D01*
X176489340Y-103977000D01*
X174150528Y-103977000D01*
X174017000Y-103843472D01*
X174017000Y-103792816D01*
X173902819Y-103517159D01*
X173691841Y-103306181D01*
X173416184Y-103192000D01*
X173117816Y-103192000D01*
X172842159Y-103306181D01*
X172631181Y-103517159D01*
X172517000Y-103792816D01*
X155087711Y-103792816D01*
X158899605Y-99980923D01*
X159991977Y-99980923D01*
X160027796Y-100016742D01*
X160303453Y-100130923D01*
X160601821Y-100130923D01*
X160877478Y-100016742D01*
X161088456Y-99805764D01*
X161202637Y-99530107D01*
X161202637Y-99231739D01*
X161088456Y-98956082D01*
X161057017Y-98924643D01*
X161075819Y-98905841D01*
X161190000Y-98630184D01*
X161190000Y-98331816D01*
X161075819Y-98056159D01*
X160864841Y-97845181D01*
X160589184Y-97731000D01*
X160538528Y-97731000D01*
X156080049Y-93272522D01*
X156046575Y-93222425D01*
X155848108Y-93089813D01*
X155673091Y-93055000D01*
X155673086Y-93055000D01*
X155614000Y-93043247D01*
X155554914Y-93055000D01*
X152010660Y-93055000D01*
X151974841Y-93019181D01*
X151699184Y-92905000D01*
X151400816Y-92905000D01*
X151125159Y-93019181D01*
X150914181Y-93230159D01*
X150800000Y-93505816D01*
X139800000Y-93505816D01*
X139800000Y-83541523D01*
X141535000Y-83541523D01*
X141535000Y-84098477D01*
X141748137Y-84613037D01*
X142141963Y-85006863D01*
X142656523Y-85220000D01*
X143213477Y-85220000D01*
X143728037Y-85006863D01*
X144121863Y-84613037D01*
X144335000Y-84098477D01*
X144335000Y-83541523D01*
X145285000Y-83541523D01*
X145285000Y-84098477D01*
X145498137Y-84613037D01*
X145891963Y-85006863D01*
X146406523Y-85220000D01*
X146963477Y-85220000D01*
X147478037Y-85006863D01*
X147871863Y-84613037D01*
X148085000Y-84098477D01*
X148085000Y-83891305D01*
X149080000Y-83891305D01*
X149080000Y-84368695D01*
X149262689Y-84809745D01*
X149600255Y-85147311D01*
X150041305Y-85330000D01*
X150518695Y-85330000D01*
X150959745Y-85147311D01*
X151297311Y-84809745D01*
X151480000Y-84368695D01*
X151480000Y-83891305D01*
X151297311Y-83450255D01*
X150959745Y-83112689D01*
X150518695Y-82930000D01*
X150041305Y-82930000D01*
X149600255Y-83112689D01*
X149262689Y-83450255D01*
X149080000Y-83891305D01*
X148085000Y-83891305D01*
X148085000Y-83541523D01*
X147871863Y-83026963D01*
X147478037Y-82633137D01*
X146963477Y-82420000D01*
X146406523Y-82420000D01*
X145891963Y-82633137D01*
X145498137Y-83026963D01*
X145285000Y-83541523D01*
X144335000Y-83541523D01*
X144121863Y-83026963D01*
X143728037Y-82633137D01*
X143213477Y-82420000D01*
X142656523Y-82420000D01*
X142141963Y-82633137D01*
X141748137Y-83026963D01*
X141535000Y-83541523D01*
X139800000Y-83541523D01*
X139800000Y-70841523D01*
X141535000Y-70841523D01*
X141535000Y-71398477D01*
X141748137Y-71913037D01*
X142141963Y-72306863D01*
X142656523Y-72520000D01*
X143213477Y-72520000D01*
X143728037Y-72306863D01*
X144121863Y-71913037D01*
X144335000Y-71398477D01*
X144335000Y-70841523D01*
X145285000Y-70841523D01*
X145285000Y-71398477D01*
X145498137Y-71913037D01*
X145891963Y-72306863D01*
X146406523Y-72520000D01*
X146963477Y-72520000D01*
X147478037Y-72306863D01*
X147871863Y-71913037D01*
X148085000Y-71398477D01*
X148085000Y-71191305D01*
X149080000Y-71191305D01*
X149080000Y-71668695D01*
X149262689Y-72109745D01*
X149600255Y-72447311D01*
X150041305Y-72630000D01*
X150518695Y-72630000D01*
X150959745Y-72447311D01*
X151297311Y-72109745D01*
X151480000Y-71668695D01*
X151480000Y-71191305D01*
X151297311Y-70750255D01*
X150959745Y-70412689D01*
X150518695Y-70230000D01*
X150041305Y-70230000D01*
X149600255Y-70412689D01*
X149262689Y-70750255D01*
X149080000Y-71191305D01*
X148085000Y-71191305D01*
X148085000Y-70841523D01*
X147871863Y-70326963D01*
X147478037Y-69933137D01*
X146963477Y-69720000D01*
X146406523Y-69720000D01*
X145891963Y-69933137D01*
X145498137Y-70326963D01*
X145285000Y-70841523D01*
X144335000Y-70841523D01*
X144121863Y-70326963D01*
X143728037Y-69933137D01*
X143213477Y-69720000D01*
X142656523Y-69720000D01*
X142141963Y-69933137D01*
X141748137Y-70326963D01*
X141535000Y-70841523D01*
X139800000Y-70841523D01*
X139800000Y-58141523D01*
X141535000Y-58141523D01*
X141535000Y-58698477D01*
X141748137Y-59213037D01*
X142141963Y-59606863D01*
X142656523Y-59820000D01*
X143213477Y-59820000D01*
X143728037Y-59606863D01*
X144121863Y-59213037D01*
X144335000Y-58698477D01*
X144335000Y-58141523D01*
X145285000Y-58141523D01*
X145285000Y-58698477D01*
X145498137Y-59213037D01*
X145891963Y-59606863D01*
X146406523Y-59820000D01*
X146963477Y-59820000D01*
X147478037Y-59606863D01*
X147871863Y-59213037D01*
X148085000Y-58698477D01*
X148085000Y-58491305D01*
X149080000Y-58491305D01*
X149080000Y-58968695D01*
X149262689Y-59409745D01*
X149600255Y-59747311D01*
X150041305Y-59930000D01*
X150518695Y-59930000D01*
X150959745Y-59747311D01*
X151297311Y-59409745D01*
X151480000Y-58968695D01*
X151480000Y-58491305D01*
X151297311Y-58050255D01*
X150959745Y-57712689D01*
X150518695Y-57530000D01*
X150041305Y-57530000D01*
X149600255Y-57712689D01*
X149262689Y-58050255D01*
X149080000Y-58491305D01*
X148085000Y-58491305D01*
X148085000Y-58141523D01*
X147871863Y-57626963D01*
X147478037Y-57233137D01*
X146963477Y-57020000D01*
X146406523Y-57020000D01*
X145891963Y-57233137D01*
X145498137Y-57626963D01*
X145285000Y-58141523D01*
X144335000Y-58141523D01*
X144121863Y-57626963D01*
X143728037Y-57233137D01*
X143213477Y-57020000D01*
X142656523Y-57020000D01*
X142141963Y-57233137D01*
X141748137Y-57626963D01*
X141535000Y-58141523D01*
X139800000Y-58141523D01*
X139800000Y-55024816D01*
X150799996Y-55024816D01*
X150799996Y-55323184D01*
X150914177Y-55598841D01*
X151125155Y-55809819D01*
X151400812Y-55924000D01*
X151451469Y-55924000D01*
X153057469Y-57530000D01*
X152581305Y-57530000D01*
X152140255Y-57712689D01*
X151802689Y-58050255D01*
X151620000Y-58491305D01*
X151620000Y-58968695D01*
X151802689Y-59409745D01*
X152140255Y-59747311D01*
X152581305Y-59930000D01*
X153058695Y-59930000D01*
X153499745Y-59747311D01*
X153837311Y-59409745D01*
X154020000Y-58968695D01*
X154020000Y-58492531D01*
X161929022Y-66401554D01*
X161929022Y-77912495D01*
X152300000Y-68283473D01*
X152300000Y-68232816D01*
X152185819Y-67957159D01*
X151974841Y-67746181D01*
X151699184Y-67632000D01*
X151400816Y-67632000D01*
X151125159Y-67746181D01*
X150914181Y-67957159D01*
X150800000Y-68232816D01*
X150800000Y-68531184D01*
X150914181Y-68806841D01*
X151125159Y-69017819D01*
X151400816Y-69132000D01*
X151451473Y-69132000D01*
X152558796Y-70239323D01*
X152140255Y-70412689D01*
X151802689Y-70750255D01*
X151620000Y-71191305D01*
X151620000Y-71668695D01*
X151802689Y-72109745D01*
X152140255Y-72447311D01*
X152581305Y-72630000D01*
X153058695Y-72630000D01*
X153499745Y-72447311D01*
X153837311Y-72109745D01*
X154010677Y-71691204D01*
X161329011Y-79009539D01*
X161329012Y-89885484D01*
X152300000Y-80856473D01*
X152300000Y-80805816D01*
X152185819Y-80530159D01*
X151974841Y-80319181D01*
X151699184Y-80205000D01*
X151400816Y-80205000D01*
X151125159Y-80319181D01*
X150914181Y-80530159D01*
X150800000Y-80805816D01*
X150800000Y-81104184D01*
X150914181Y-81379841D01*
X151125159Y-81590819D01*
X151400816Y-81705000D01*
X151451473Y-81705000D01*
X152676473Y-82930000D01*
X152581305Y-82930000D01*
X152140255Y-83112689D01*
X151802689Y-83450255D01*
X151620000Y-83891305D01*
X151620000Y-84368695D01*
X151802689Y-84809745D01*
X152140255Y-85147311D01*
X152581305Y-85330000D01*
X153058695Y-85330000D01*
X153499745Y-85147311D01*
X153837311Y-84809745D01*
X154020000Y-84368695D01*
X154020000Y-84273527D01*
X163155206Y-93408734D01*
X163054993Y-93650670D01*
X163054993Y-93949038D01*
X163169174Y-94224695D01*
X163380152Y-94435673D01*
X163655809Y-94549854D01*
X163954177Y-94549854D01*
X164084143Y-94496020D01*
X164122181Y-94587853D01*
X164333159Y-94798831D01*
X164608816Y-94913012D01*
X164907184Y-94913012D01*
X165182841Y-94798831D01*
X165393819Y-94587853D01*
X165430509Y-94499276D01*
X165508827Y-94531717D01*
X165807195Y-94531717D01*
X166082852Y-94417536D01*
X166293830Y-94206558D01*
X166408011Y-93930901D01*
X166408011Y-93632533D01*
X166293830Y-93356876D01*
X166258011Y-93321057D01*
X166258011Y-93217099D01*
X166269764Y-93158011D01*
X166258011Y-93098921D01*
X166258011Y-93098920D01*
X166223198Y-92923903D01*
X166158791Y-92827512D01*
X166124058Y-92775530D01*
X166090586Y-92725436D01*
X166040493Y-92691965D01*
X163129022Y-89780495D01*
X163129022Y-66212111D01*
X163140775Y-66153025D01*
X163129022Y-66093939D01*
X163129022Y-66093935D01*
X163094209Y-65918918D01*
X162961597Y-65720451D01*
X162911504Y-65686980D01*
X152299996Y-55075473D01*
X152299996Y-55024816D01*
X152185815Y-54749159D01*
X151974837Y-54538181D01*
X151699180Y-54424000D01*
X151400812Y-54424000D01*
X151125155Y-54538181D01*
X150914177Y-54749159D01*
X150799996Y-55024816D01*
X139800000Y-55024816D01*
X139800000Y-53941120D01*
X159071183Y-53941120D01*
X159082936Y-54000206D01*
X159082937Y-58437559D01*
X159071183Y-58496650D01*
X159082937Y-58555741D01*
X159117750Y-58730758D01*
X159250362Y-58929225D01*
X159300456Y-58962697D01*
X164666000Y-64328242D01*
X164666001Y-77902519D01*
X164399184Y-77792000D01*
X164100816Y-77792000D01*
X163825159Y-77906181D01*
X163614181Y-78117159D01*
X163500000Y-78392816D01*
X163500000Y-78691184D01*
X163614181Y-78966841D01*
X163650000Y-79002660D01*
X163650001Y-80621339D01*
X163614181Y-80657159D01*
X163500000Y-80932816D01*
X163500000Y-81231184D01*
X163614181Y-81506841D01*
X163825159Y-81717819D01*
X164100816Y-81832000D01*
X164399184Y-81832000D01*
X164666001Y-81721481D01*
X164666001Y-87245471D01*
X163797469Y-88114004D01*
X163746812Y-88114004D01*
X163471155Y-88228185D01*
X163260177Y-88439163D01*
X163145996Y-88714820D01*
X163145996Y-89013188D01*
X163260177Y-89288845D01*
X163471155Y-89499823D01*
X163746812Y-89614004D01*
X164045180Y-89614004D01*
X164320837Y-89499823D01*
X164476831Y-89343829D01*
X164478166Y-89347053D01*
X164689144Y-89558031D01*
X164964801Y-89672212D01*
X165263169Y-89672212D01*
X165538826Y-89558031D01*
X165749804Y-89347053D01*
X165863985Y-89071396D01*
X165863985Y-89020739D01*
X165913000Y-88971724D01*
X165913000Y-88978184D01*
X166027181Y-89253841D01*
X166238159Y-89464819D01*
X166513816Y-89579000D01*
X166812184Y-89579000D01*
X166813002Y-89578661D01*
X166813002Y-97863470D01*
X166056473Y-98620000D01*
X166005816Y-98620000D01*
X165730159Y-98734181D01*
X165519181Y-98945159D01*
X165405000Y-99220816D01*
X165405000Y-99519184D01*
X165519181Y-99794841D01*
X165730159Y-100005819D01*
X166005816Y-100120000D01*
X166304184Y-100120000D01*
X166579841Y-100005819D01*
X166790819Y-99794841D01*
X166829517Y-99701416D01*
X166871149Y-99801925D01*
X167082127Y-100012903D01*
X167357784Y-100127084D01*
X167402627Y-100127084D01*
X167424392Y-100159658D01*
X167622859Y-100292270D01*
X167797876Y-100327083D01*
X167797880Y-100327083D01*
X167856966Y-100338836D01*
X167916052Y-100327083D01*
X168981462Y-100327083D01*
X169040548Y-100338836D01*
X169099634Y-100327083D01*
X169099639Y-100327083D01*
X169274656Y-100292270D01*
X169473123Y-100159658D01*
X169506597Y-100109561D01*
X170834635Y-98781523D01*
X182750000Y-98781523D01*
X182750000Y-99338477D01*
X182963137Y-99853037D01*
X183356963Y-100246863D01*
X183871523Y-100460000D01*
X184428477Y-100460000D01*
X184943037Y-100246863D01*
X185336863Y-99853037D01*
X185550000Y-99338477D01*
X185550000Y-98781523D01*
X185336863Y-98266963D01*
X184943037Y-97873137D01*
X184428477Y-97660000D01*
X183871523Y-97660000D01*
X183356963Y-97873137D01*
X182963137Y-98266963D01*
X182750000Y-98781523D01*
X170834635Y-98781523D01*
X174411481Y-95204678D01*
X174461575Y-95171206D01*
X174594187Y-94972739D01*
X174629000Y-94797722D01*
X174629000Y-94797718D01*
X174640753Y-94738632D01*
X174629000Y-94679546D01*
X174629000Y-94500066D01*
X183212723Y-94500066D01*
X183315174Y-94756040D01*
X183918703Y-94968105D01*
X184557445Y-94933067D01*
X184984826Y-94756040D01*
X185087277Y-94500066D01*
X184150000Y-93562789D01*
X183212723Y-94500066D01*
X174629000Y-94500066D01*
X174629000Y-93113703D01*
X182526895Y-93113703D01*
X182561933Y-93752445D01*
X182738960Y-94179826D01*
X182994934Y-94282277D01*
X183932211Y-93345000D01*
X184367789Y-93345000D01*
X185305066Y-94282277D01*
X185561040Y-94179826D01*
X185773105Y-93576297D01*
X185738067Y-92937555D01*
X185561040Y-92510174D01*
X185305066Y-92407723D01*
X184367789Y-93345000D01*
X183932211Y-93345000D01*
X182994934Y-92407723D01*
X182738960Y-92510174D01*
X182526895Y-93113703D01*
X174629000Y-93113703D01*
X174629000Y-92189934D01*
X183212723Y-92189934D01*
X184150000Y-93127211D01*
X185087277Y-92189934D01*
X184984826Y-91933960D01*
X184381297Y-91721895D01*
X183742555Y-91756933D01*
X183315174Y-91933960D01*
X183212723Y-92189934D01*
X174629000Y-92189934D01*
X174629000Y-84836000D01*
X181206409Y-84836000D01*
X181284021Y-85226181D01*
X181505040Y-85556960D01*
X181835819Y-85777979D01*
X182127510Y-85836000D01*
X183124490Y-85836000D01*
X183416181Y-85777979D01*
X183746960Y-85556960D01*
X183967979Y-85226181D01*
X184045591Y-84836000D01*
X186286409Y-84836000D01*
X186364021Y-85226181D01*
X186585040Y-85556960D01*
X186915819Y-85777979D01*
X187207510Y-85836000D01*
X188204490Y-85836000D01*
X188496181Y-85777979D01*
X188826960Y-85556960D01*
X189047979Y-85226181D01*
X189125591Y-84836000D01*
X189047979Y-84445819D01*
X188826960Y-84115040D01*
X188496181Y-83894021D01*
X188204490Y-83836000D01*
X187207510Y-83836000D01*
X186915819Y-83894021D01*
X186585040Y-84115040D01*
X186364021Y-84445819D01*
X186286409Y-84836000D01*
X184045591Y-84836000D01*
X183967979Y-84445819D01*
X183746960Y-84115040D01*
X183416181Y-83894021D01*
X183124490Y-83836000D01*
X182127510Y-83836000D01*
X181835819Y-83894021D01*
X181505040Y-84115040D01*
X181284021Y-84445819D01*
X181206409Y-84836000D01*
X174629000Y-84836000D01*
X174629000Y-82296000D01*
X181206409Y-82296000D01*
X181284021Y-82686181D01*
X181505040Y-83016960D01*
X181835819Y-83237979D01*
X182127510Y-83296000D01*
X183124490Y-83296000D01*
X183416181Y-83237979D01*
X183746960Y-83016960D01*
X183967979Y-82686181D01*
X184045591Y-82296000D01*
X186286409Y-82296000D01*
X186364021Y-82686181D01*
X186585040Y-83016960D01*
X186915819Y-83237979D01*
X187207510Y-83296000D01*
X188204490Y-83296000D01*
X188496181Y-83237979D01*
X188826960Y-83016960D01*
X189047979Y-82686181D01*
X189125591Y-82296000D01*
X189047979Y-81905819D01*
X188826960Y-81575040D01*
X188496181Y-81354021D01*
X188204490Y-81296000D01*
X187207510Y-81296000D01*
X186915819Y-81354021D01*
X186585040Y-81575040D01*
X186364021Y-81905819D01*
X186286409Y-82296000D01*
X184045591Y-82296000D01*
X183967979Y-81905819D01*
X183746960Y-81575040D01*
X183416181Y-81354021D01*
X183124490Y-81296000D01*
X182127510Y-81296000D01*
X181835819Y-81354021D01*
X181505040Y-81575040D01*
X181284021Y-81905819D01*
X181206409Y-82296000D01*
X174629000Y-82296000D01*
X174629000Y-80095535D01*
X181066698Y-80095535D01*
X181262921Y-80501290D01*
X181621441Y-80813113D01*
X182072000Y-80964000D01*
X182472000Y-80964000D01*
X182472000Y-79910000D01*
X182780000Y-79910000D01*
X182780000Y-80964000D01*
X183180000Y-80964000D01*
X183630559Y-80813113D01*
X183989079Y-80501290D01*
X184185302Y-80095535D01*
X186146698Y-80095535D01*
X186342921Y-80501290D01*
X186701441Y-80813113D01*
X187152000Y-80964000D01*
X187552000Y-80964000D01*
X187552000Y-79910000D01*
X187860000Y-79910000D01*
X187860000Y-80964000D01*
X188260000Y-80964000D01*
X188710559Y-80813113D01*
X189069079Y-80501290D01*
X189265302Y-80095535D01*
X189150710Y-79910000D01*
X187860000Y-79910000D01*
X187552000Y-79910000D01*
X186261290Y-79910000D01*
X186146698Y-80095535D01*
X184185302Y-80095535D01*
X184070710Y-79910000D01*
X182780000Y-79910000D01*
X182472000Y-79910000D01*
X181181290Y-79910000D01*
X181066698Y-80095535D01*
X174629000Y-80095535D01*
X174629000Y-79416465D01*
X181066698Y-79416465D01*
X181181290Y-79602000D01*
X182472000Y-79602000D01*
X182472000Y-78548000D01*
X182780000Y-78548000D01*
X182780000Y-79602000D01*
X184070710Y-79602000D01*
X184185302Y-79416465D01*
X186146698Y-79416465D01*
X186261290Y-79602000D01*
X187552000Y-79602000D01*
X187552000Y-78548000D01*
X187860000Y-78548000D01*
X187860000Y-79602000D01*
X189150710Y-79602000D01*
X189265302Y-79416465D01*
X189069079Y-79010710D01*
X188710559Y-78698887D01*
X188260000Y-78548000D01*
X187860000Y-78548000D01*
X187552000Y-78548000D01*
X187152000Y-78548000D01*
X186701441Y-78698887D01*
X186342921Y-79010710D01*
X186146698Y-79416465D01*
X184185302Y-79416465D01*
X183989079Y-79010710D01*
X183630559Y-78698887D01*
X183180000Y-78548000D01*
X182780000Y-78548000D01*
X182472000Y-78548000D01*
X182072000Y-78548000D01*
X181621441Y-78698887D01*
X181262921Y-79010710D01*
X181066698Y-79416465D01*
X174629000Y-79416465D01*
X174629000Y-77744537D01*
X175157537Y-77216000D01*
X181206409Y-77216000D01*
X181284021Y-77606181D01*
X181505040Y-77936960D01*
X181835819Y-78157979D01*
X182127510Y-78216000D01*
X183124490Y-78216000D01*
X183416181Y-78157979D01*
X183746960Y-77936960D01*
X183967979Y-77606181D01*
X184045591Y-77216000D01*
X186286409Y-77216000D01*
X186364021Y-77606181D01*
X186585040Y-77936960D01*
X186915819Y-78157979D01*
X187207510Y-78216000D01*
X188204490Y-78216000D01*
X188496181Y-78157979D01*
X188826960Y-77936960D01*
X189047979Y-77606181D01*
X189125591Y-77216000D01*
X189047979Y-76825819D01*
X188826960Y-76495040D01*
X188496181Y-76274021D01*
X188204490Y-76216000D01*
X187207510Y-76216000D01*
X186915819Y-76274021D01*
X186585040Y-76495040D01*
X186364021Y-76825819D01*
X186286409Y-77216000D01*
X184045591Y-77216000D01*
X183967979Y-76825819D01*
X183746960Y-76495040D01*
X183416181Y-76274021D01*
X183124490Y-76216000D01*
X182127510Y-76216000D01*
X181835819Y-76274021D01*
X181505040Y-76495040D01*
X181284021Y-76825819D01*
X181206409Y-77216000D01*
X175157537Y-77216000D01*
X175423538Y-76950000D01*
X175474194Y-76950000D01*
X175749851Y-76835819D01*
X175960829Y-76624841D01*
X176075010Y-76349184D01*
X176075010Y-76050816D01*
X175960829Y-75775159D01*
X175749851Y-75564181D01*
X175474194Y-75450000D01*
X175175826Y-75450000D01*
X174900169Y-75564181D01*
X174689191Y-75775159D01*
X174575010Y-76050816D01*
X174575010Y-76101472D01*
X174028989Y-76647494D01*
X174028989Y-73745535D01*
X181066698Y-73745535D01*
X181262921Y-74151290D01*
X181621441Y-74463113D01*
X182072000Y-74614000D01*
X182472000Y-74614000D01*
X182472000Y-73560000D01*
X182780000Y-73560000D01*
X182780000Y-74614000D01*
X183180000Y-74614000D01*
X183630559Y-74463113D01*
X183989079Y-74151290D01*
X184185302Y-73745535D01*
X186146698Y-73745535D01*
X186342921Y-74151290D01*
X186701441Y-74463113D01*
X187152000Y-74614000D01*
X187552000Y-74614000D01*
X187552000Y-73560000D01*
X187860000Y-73560000D01*
X187860000Y-74614000D01*
X188260000Y-74614000D01*
X188710559Y-74463113D01*
X189069079Y-74151290D01*
X189265302Y-73745535D01*
X189150710Y-73560000D01*
X187860000Y-73560000D01*
X187552000Y-73560000D01*
X186261290Y-73560000D01*
X186146698Y-73745535D01*
X184185302Y-73745535D01*
X184070710Y-73560000D01*
X182780000Y-73560000D01*
X182472000Y-73560000D01*
X181181290Y-73560000D01*
X181066698Y-73745535D01*
X174028989Y-73745535D01*
X174028989Y-73066465D01*
X181066698Y-73066465D01*
X181181290Y-73252000D01*
X182472000Y-73252000D01*
X182472000Y-72198000D01*
X182780000Y-72198000D01*
X182780000Y-73252000D01*
X184070710Y-73252000D01*
X184185302Y-73066465D01*
X186146698Y-73066465D01*
X186261290Y-73252000D01*
X187552000Y-73252000D01*
X187552000Y-72198000D01*
X187860000Y-72198000D01*
X187860000Y-73252000D01*
X189150710Y-73252000D01*
X189265302Y-73066465D01*
X189069079Y-72660710D01*
X188710559Y-72348887D01*
X188260000Y-72198000D01*
X187860000Y-72198000D01*
X187552000Y-72198000D01*
X187152000Y-72198000D01*
X186701441Y-72348887D01*
X186342921Y-72660710D01*
X186146698Y-73066465D01*
X184185302Y-73066465D01*
X183989079Y-72660710D01*
X183630559Y-72348887D01*
X183180000Y-72198000D01*
X182780000Y-72198000D01*
X182472000Y-72198000D01*
X182072000Y-72198000D01*
X181621441Y-72348887D01*
X181262921Y-72660710D01*
X181066698Y-73066465D01*
X174028989Y-73066465D01*
X174028989Y-72012548D01*
X174115537Y-71926000D01*
X174166194Y-71926000D01*
X174441851Y-71811819D01*
X174652829Y-71600841D01*
X174767010Y-71325184D01*
X174767010Y-71026816D01*
X174700398Y-70866000D01*
X181206409Y-70866000D01*
X181284021Y-71256181D01*
X181505040Y-71586960D01*
X181835819Y-71807979D01*
X182127510Y-71866000D01*
X183124490Y-71866000D01*
X183416181Y-71807979D01*
X183746960Y-71586960D01*
X183967979Y-71256181D01*
X184045591Y-70866000D01*
X186286409Y-70866000D01*
X186364021Y-71256181D01*
X186585040Y-71586960D01*
X186915819Y-71807979D01*
X187207510Y-71866000D01*
X188204490Y-71866000D01*
X188496181Y-71807979D01*
X188826960Y-71586960D01*
X189047979Y-71256181D01*
X189125591Y-70866000D01*
X189047979Y-70475819D01*
X188826960Y-70145040D01*
X188496181Y-69924021D01*
X188204490Y-69866000D01*
X187207510Y-69866000D01*
X186915819Y-69924021D01*
X186585040Y-70145040D01*
X186364021Y-70475819D01*
X186286409Y-70866000D01*
X184045591Y-70866000D01*
X183967979Y-70475819D01*
X183746960Y-70145040D01*
X183416181Y-69924021D01*
X183124490Y-69866000D01*
X182127510Y-69866000D01*
X181835819Y-69924021D01*
X181505040Y-70145040D01*
X181284021Y-70475819D01*
X181206409Y-70866000D01*
X174700398Y-70866000D01*
X174652829Y-70751159D01*
X174441851Y-70540181D01*
X174166194Y-70426000D01*
X173867826Y-70426000D01*
X173592169Y-70540181D01*
X173428978Y-70703372D01*
X173428978Y-68665535D01*
X181066698Y-68665535D01*
X181262921Y-69071290D01*
X181621441Y-69383113D01*
X182072000Y-69534000D01*
X182472000Y-69534000D01*
X182472000Y-68480000D01*
X182780000Y-68480000D01*
X182780000Y-69534000D01*
X183180000Y-69534000D01*
X183630559Y-69383113D01*
X183989079Y-69071290D01*
X184185302Y-68665535D01*
X186146698Y-68665535D01*
X186342921Y-69071290D01*
X186701441Y-69383113D01*
X187152000Y-69534000D01*
X187552000Y-69534000D01*
X187552000Y-68480000D01*
X187860000Y-68480000D01*
X187860000Y-69534000D01*
X188260000Y-69534000D01*
X188710559Y-69383113D01*
X189069079Y-69071290D01*
X189265302Y-68665535D01*
X189150710Y-68480000D01*
X187860000Y-68480000D01*
X187552000Y-68480000D01*
X186261290Y-68480000D01*
X186146698Y-68665535D01*
X184185302Y-68665535D01*
X184070710Y-68480000D01*
X182780000Y-68480000D01*
X182472000Y-68480000D01*
X181181290Y-68480000D01*
X181066698Y-68665535D01*
X173428978Y-68665535D01*
X173428978Y-67986465D01*
X181066698Y-67986465D01*
X181181290Y-68172000D01*
X182472000Y-68172000D01*
X182472000Y-67118000D01*
X182780000Y-67118000D01*
X182780000Y-68172000D01*
X184070710Y-68172000D01*
X184185302Y-67986465D01*
X186146698Y-67986465D01*
X186261290Y-68172000D01*
X187552000Y-68172000D01*
X187552000Y-67118000D01*
X187860000Y-67118000D01*
X187860000Y-68172000D01*
X189150710Y-68172000D01*
X189265302Y-67986465D01*
X189069079Y-67580710D01*
X188710559Y-67268887D01*
X188260000Y-67118000D01*
X187860000Y-67118000D01*
X187552000Y-67118000D01*
X187152000Y-67118000D01*
X186701441Y-67268887D01*
X186342921Y-67580710D01*
X186146698Y-67986465D01*
X184185302Y-67986465D01*
X183989079Y-67580710D01*
X183630559Y-67268887D01*
X183180000Y-67118000D01*
X182780000Y-67118000D01*
X182472000Y-67118000D01*
X182072000Y-67118000D01*
X181621441Y-67268887D01*
X181262921Y-67580710D01*
X181066698Y-67986465D01*
X173428978Y-67986465D01*
X173428978Y-66979559D01*
X173618538Y-66790000D01*
X173669194Y-66790000D01*
X173944851Y-66675819D01*
X174155829Y-66464841D01*
X174270010Y-66189184D01*
X174270010Y-65890816D01*
X174226594Y-65786000D01*
X181206409Y-65786000D01*
X181284021Y-66176181D01*
X181505040Y-66506960D01*
X181835819Y-66727979D01*
X182127510Y-66786000D01*
X183124490Y-66786000D01*
X183416181Y-66727979D01*
X183746960Y-66506960D01*
X183967979Y-66176181D01*
X184045591Y-65786000D01*
X186286409Y-65786000D01*
X186364021Y-66176181D01*
X186585040Y-66506960D01*
X186915819Y-66727979D01*
X187207510Y-66786000D01*
X188204490Y-66786000D01*
X188496181Y-66727979D01*
X188826960Y-66506960D01*
X189047979Y-66176181D01*
X189125591Y-65786000D01*
X189047979Y-65395819D01*
X188826960Y-65065040D01*
X188496181Y-64844021D01*
X188204490Y-64786000D01*
X187207510Y-64786000D01*
X186915819Y-64844021D01*
X186585040Y-65065040D01*
X186364021Y-65395819D01*
X186286409Y-65786000D01*
X184045591Y-65786000D01*
X183967979Y-65395819D01*
X183746960Y-65065040D01*
X183416181Y-64844021D01*
X183124490Y-64786000D01*
X182127510Y-64786000D01*
X181835819Y-64844021D01*
X181505040Y-65065040D01*
X181284021Y-65395819D01*
X181206409Y-65786000D01*
X174226594Y-65786000D01*
X174155829Y-65615159D01*
X173944851Y-65404181D01*
X173669194Y-65290000D01*
X173370826Y-65290000D01*
X173095169Y-65404181D01*
X172884191Y-65615159D01*
X172828967Y-65748481D01*
X172828967Y-62315535D01*
X181066698Y-62315535D01*
X181262921Y-62721290D01*
X181621441Y-63033113D01*
X182072000Y-63184000D01*
X182472000Y-63184000D01*
X182472000Y-62130000D01*
X182780000Y-62130000D01*
X182780000Y-63184000D01*
X183180000Y-63184000D01*
X183630559Y-63033113D01*
X183989079Y-62721290D01*
X184185302Y-62315535D01*
X186146698Y-62315535D01*
X186342921Y-62721290D01*
X186701441Y-63033113D01*
X187152000Y-63184000D01*
X187552000Y-63184000D01*
X187552000Y-62130000D01*
X187860000Y-62130000D01*
X187860000Y-63184000D01*
X188260000Y-63184000D01*
X188710559Y-63033113D01*
X189069079Y-62721290D01*
X189265302Y-62315535D01*
X189150710Y-62130000D01*
X187860000Y-62130000D01*
X187552000Y-62130000D01*
X186261290Y-62130000D01*
X186146698Y-62315535D01*
X184185302Y-62315535D01*
X184070710Y-62130000D01*
X182780000Y-62130000D01*
X182472000Y-62130000D01*
X181181290Y-62130000D01*
X181066698Y-62315535D01*
X172828967Y-62315535D01*
X172828967Y-61636465D01*
X181066698Y-61636465D01*
X181181290Y-61822000D01*
X182472000Y-61822000D01*
X182472000Y-60768000D01*
X182780000Y-60768000D01*
X182780000Y-61822000D01*
X184070710Y-61822000D01*
X184185302Y-61636465D01*
X186146698Y-61636465D01*
X186261290Y-61822000D01*
X187552000Y-61822000D01*
X187552000Y-60768000D01*
X187860000Y-60768000D01*
X187860000Y-61822000D01*
X189150710Y-61822000D01*
X189265302Y-61636465D01*
X189069079Y-61230710D01*
X188710559Y-60918887D01*
X188260000Y-60768000D01*
X187860000Y-60768000D01*
X187552000Y-60768000D01*
X187152000Y-60768000D01*
X186701441Y-60918887D01*
X186342921Y-61230710D01*
X186146698Y-61636465D01*
X184185302Y-61636465D01*
X183989079Y-61230710D01*
X183630559Y-60918887D01*
X183180000Y-60768000D01*
X182780000Y-60768000D01*
X182472000Y-60768000D01*
X182072000Y-60768000D01*
X181621441Y-60918887D01*
X181262921Y-61230710D01*
X181066698Y-61636465D01*
X172828967Y-61636465D01*
X172828967Y-60594570D01*
X172983538Y-60440000D01*
X173034194Y-60440000D01*
X173309851Y-60325819D01*
X173520829Y-60114841D01*
X173635010Y-59839184D01*
X173635010Y-59540816D01*
X173591594Y-59436000D01*
X181206409Y-59436000D01*
X181284021Y-59826181D01*
X181505040Y-60156960D01*
X181835819Y-60377979D01*
X182127510Y-60436000D01*
X183124490Y-60436000D01*
X183416181Y-60377979D01*
X183746960Y-60156960D01*
X183967979Y-59826181D01*
X184045591Y-59436000D01*
X186286409Y-59436000D01*
X186364021Y-59826181D01*
X186585040Y-60156960D01*
X186915819Y-60377979D01*
X187207510Y-60436000D01*
X188204490Y-60436000D01*
X188496181Y-60377979D01*
X188826960Y-60156960D01*
X189047979Y-59826181D01*
X189125591Y-59436000D01*
X189047979Y-59045819D01*
X188826960Y-58715040D01*
X188496181Y-58494021D01*
X188204490Y-58436000D01*
X187207510Y-58436000D01*
X186915819Y-58494021D01*
X186585040Y-58715040D01*
X186364021Y-59045819D01*
X186286409Y-59436000D01*
X184045591Y-59436000D01*
X183967979Y-59045819D01*
X183746960Y-58715040D01*
X183416181Y-58494021D01*
X183124490Y-58436000D01*
X182127510Y-58436000D01*
X181835819Y-58494021D01*
X181505040Y-58715040D01*
X181284021Y-59045819D01*
X181206409Y-59436000D01*
X173591594Y-59436000D01*
X173520829Y-59265159D01*
X173309851Y-59054181D01*
X173034194Y-58940000D01*
X172735826Y-58940000D01*
X172460169Y-59054181D01*
X172249191Y-59265159D01*
X172135010Y-59540816D01*
X172135010Y-59591472D01*
X171846488Y-59879995D01*
X171796392Y-59913468D01*
X171663780Y-60111936D01*
X171628967Y-60286953D01*
X171628967Y-60286957D01*
X171617214Y-60346043D01*
X171628967Y-60405129D01*
X171628968Y-93610185D01*
X169053278Y-96185876D01*
X168878437Y-96113454D01*
X168580069Y-96113454D01*
X168304412Y-96227635D01*
X168093434Y-96438613D01*
X168013002Y-96632793D01*
X168013002Y-58252090D01*
X168024755Y-58193002D01*
X168013002Y-58133914D01*
X168013002Y-58133911D01*
X167978189Y-57958894D01*
X167928746Y-57884897D01*
X167879050Y-57810521D01*
X167879047Y-57810518D01*
X167845577Y-57760427D01*
X167795486Y-57726957D01*
X167613505Y-57544977D01*
X167670000Y-57408586D01*
X167670000Y-57235535D01*
X181066698Y-57235535D01*
X181262921Y-57641290D01*
X181621441Y-57953113D01*
X182072000Y-58104000D01*
X182472000Y-58104000D01*
X182472000Y-57050000D01*
X182780000Y-57050000D01*
X182780000Y-58104000D01*
X183180000Y-58104000D01*
X183630559Y-57953113D01*
X183989079Y-57641290D01*
X184185302Y-57235535D01*
X186146698Y-57235535D01*
X186342921Y-57641290D01*
X186701441Y-57953113D01*
X187152000Y-58104000D01*
X187552000Y-58104000D01*
X187552000Y-57050000D01*
X187860000Y-57050000D01*
X187860000Y-58104000D01*
X188260000Y-58104000D01*
X188710559Y-57953113D01*
X189069079Y-57641290D01*
X189265302Y-57235535D01*
X189150710Y-57050000D01*
X187860000Y-57050000D01*
X187552000Y-57050000D01*
X186261290Y-57050000D01*
X186146698Y-57235535D01*
X184185302Y-57235535D01*
X184070710Y-57050000D01*
X182780000Y-57050000D01*
X182472000Y-57050000D01*
X181181290Y-57050000D01*
X181066698Y-57235535D01*
X167670000Y-57235535D01*
X167670000Y-56891414D01*
X167531260Y-56556465D01*
X181066698Y-56556465D01*
X181181290Y-56742000D01*
X182472000Y-56742000D01*
X182472000Y-55688000D01*
X182780000Y-55688000D01*
X182780000Y-56742000D01*
X184070710Y-56742000D01*
X184185302Y-56556465D01*
X186146698Y-56556465D01*
X186261290Y-56742000D01*
X187552000Y-56742000D01*
X187552000Y-55688000D01*
X187860000Y-55688000D01*
X187860000Y-56742000D01*
X189150710Y-56742000D01*
X189265302Y-56556465D01*
X189069079Y-56150710D01*
X188710559Y-55838887D01*
X188260000Y-55688000D01*
X187860000Y-55688000D01*
X187552000Y-55688000D01*
X187152000Y-55688000D01*
X186701441Y-55838887D01*
X186342921Y-56150710D01*
X186146698Y-56556465D01*
X184185302Y-56556465D01*
X183989079Y-56150710D01*
X183630559Y-55838887D01*
X183180000Y-55688000D01*
X182780000Y-55688000D01*
X182472000Y-55688000D01*
X182072000Y-55688000D01*
X181621441Y-55838887D01*
X181262921Y-56150710D01*
X181066698Y-56556465D01*
X167531260Y-56556465D01*
X167472087Y-56413609D01*
X167106391Y-56047913D01*
X166993021Y-56000953D01*
X167144612Y-55938162D01*
X167234762Y-55692551D01*
X166370000Y-54827789D01*
X165505238Y-55692551D01*
X165595388Y-55938162D01*
X165760939Y-55995171D01*
X165633609Y-56047913D01*
X165267913Y-56413609D01*
X165100000Y-56818987D01*
X164932087Y-56413609D01*
X164566391Y-56047913D01*
X164161013Y-55880000D01*
X164566391Y-55712087D01*
X164932087Y-55346391D01*
X164979047Y-55233021D01*
X165041838Y-55384612D01*
X165287449Y-55474762D01*
X166152211Y-54610000D01*
X166587789Y-54610000D01*
X167452551Y-55474762D01*
X167698162Y-55384612D01*
X167893493Y-54817382D01*
X167865287Y-54356000D01*
X181206409Y-54356000D01*
X181284021Y-54746181D01*
X181505040Y-55076960D01*
X181835819Y-55297979D01*
X182127510Y-55356000D01*
X183124490Y-55356000D01*
X183416181Y-55297979D01*
X183746960Y-55076960D01*
X183967979Y-54746181D01*
X184045591Y-54356000D01*
X186286409Y-54356000D01*
X186364021Y-54746181D01*
X186585040Y-55076960D01*
X186915819Y-55297979D01*
X187207510Y-55356000D01*
X188204490Y-55356000D01*
X188496181Y-55297979D01*
X188826960Y-55076960D01*
X189047979Y-54746181D01*
X189125591Y-54356000D01*
X189047979Y-53965819D01*
X188826960Y-53635040D01*
X188496181Y-53414021D01*
X188204490Y-53356000D01*
X187207510Y-53356000D01*
X186915819Y-53414021D01*
X186585040Y-53635040D01*
X186364021Y-53965819D01*
X186286409Y-54356000D01*
X184045591Y-54356000D01*
X183967979Y-53965819D01*
X183746960Y-53635040D01*
X183416181Y-53414021D01*
X183124490Y-53356000D01*
X182127510Y-53356000D01*
X181835819Y-53414021D01*
X181505040Y-53635040D01*
X181284021Y-53965819D01*
X181206409Y-54356000D01*
X167865287Y-54356000D01*
X167856886Y-54218580D01*
X167698162Y-53835388D01*
X167452551Y-53745238D01*
X166587789Y-54610000D01*
X166152211Y-54610000D01*
X165287449Y-53745238D01*
X165041838Y-53835388D01*
X164984829Y-54000939D01*
X164932087Y-53873609D01*
X164585927Y-53527449D01*
X165505238Y-53527449D01*
X166370000Y-54392211D01*
X167234762Y-53527449D01*
X167144612Y-53281838D01*
X166577382Y-53086507D01*
X165978580Y-53123114D01*
X165595388Y-53281838D01*
X165505238Y-53527449D01*
X164585927Y-53527449D01*
X164566391Y-53507913D01*
X164088586Y-53310000D01*
X163571414Y-53310000D01*
X163435023Y-53366495D01*
X162702882Y-52634355D01*
X162669408Y-52584258D01*
X162470941Y-52451646D01*
X162295924Y-52416833D01*
X162295919Y-52416833D01*
X162236833Y-52405080D01*
X162177747Y-52416833D01*
X160666309Y-52416833D01*
X160607222Y-52405080D01*
X160548136Y-52416833D01*
X160548132Y-52416833D01*
X160373115Y-52451646D01*
X160174648Y-52584258D01*
X160141176Y-52634352D01*
X159300457Y-53475071D01*
X159250361Y-53508545D01*
X159117749Y-53707013D01*
X159082936Y-53882030D01*
X159082936Y-53882034D01*
X159071183Y-53941120D01*
X139800000Y-53941120D01*
X139800000Y-52111422D01*
X141011422Y-50900000D01*
X173043095Y-50900000D01*
X173043095Y-52765000D01*
X173043095Y-52765000D01*
G37*
X173043095Y-52765000D02*
X191670000Y-52765000D01*
X191670000Y-109065238D01*
X189965000Y-109065238D01*
X189965000Y-115970000D01*
X190593578Y-115970000D01*
X190458578Y-116105000D01*
X145200476Y-116105000D01*
X145200476Y-114400000D01*
X141819524Y-114400000D01*
X141819524Y-116105000D01*
X141011422Y-116105000D01*
X139800000Y-114893578D01*
X139800000Y-112285351D01*
X156252640Y-112285351D01*
X156255802Y-112324737D01*
X156257477Y-112423510D01*
X156265152Y-112441186D01*
X156282654Y-112659161D01*
X156280182Y-112744312D01*
X156312798Y-112830007D01*
X156337827Y-112918220D01*
X156390675Y-112985039D01*
X156569560Y-113270349D01*
X156624511Y-113364072D01*
X156678854Y-113405196D01*
X156725623Y-113454762D01*
X156824734Y-113499227D01*
X156986766Y-113577789D01*
X157006254Y-113596169D01*
X157091718Y-113628675D01*
X157120670Y-113642712D01*
X157145976Y-113649311D01*
X157225824Y-113679681D01*
X157258740Y-113678718D01*
X157290606Y-113687028D01*
X157375234Y-113675310D01*
X157401368Y-113674545D01*
X157432718Y-113667350D01*
X157523301Y-113654807D01*
X157546413Y-113641256D01*
X157732063Y-113598648D01*
X157812294Y-113590509D01*
X157897030Y-113544898D01*
X157984829Y-113505483D01*
X158040163Y-113446813D01*
X158058147Y-113431966D01*
X158078437Y-113457073D01*
X158232691Y-113541024D01*
X158582202Y-113649930D01*
X158633249Y-113677948D01*
X158693240Y-113684530D01*
X158694256Y-113684846D01*
X158751139Y-113690882D01*
X158807821Y-113697100D01*
X158808877Y-113697008D01*
X158868896Y-113703376D01*
X158924747Y-113686892D01*
X159095117Y-113672018D01*
X159120914Y-113677755D01*
X159211332Y-113661873D01*
X159243731Y-113659044D01*
X159268491Y-113651832D01*
X159352286Y-113637113D01*
X159380377Y-113619243D01*
X159412344Y-113609932D01*
X159478705Y-113556692D01*
X159500464Y-113542850D01*
X159523973Y-113520374D01*
X159552013Y-113497879D01*
X159579934Y-113539666D01*
X159677792Y-113605052D01*
X159775260Y-113670178D01*
X160005660Y-113716008D01*
X160236061Y-113670178D01*
X160374903Y-113577407D01*
X160382084Y-113572609D01*
X160382085Y-113572608D01*
X160431386Y-113539666D01*
X160456101Y-113502678D01*
X160468935Y-113521886D01*
X160664260Y-113652398D01*
X160894660Y-113698228D01*
X161125061Y-113652398D01*
X161320386Y-113521886D01*
X161376937Y-113437251D01*
X161412837Y-113470114D01*
X161470087Y-113534808D01*
X161498814Y-113548815D01*
X161522391Y-113570397D01*
X161603589Y-113599903D01*
X161681238Y-113637764D01*
X161713140Y-113639712D01*
X161743181Y-113650628D01*
X161829488Y-113646815D01*
X161915716Y-113652079D01*
X161945935Y-113641670D01*
X161977867Y-113640259D01*
X162056145Y-113603708D01*
X162119810Y-113581778D01*
X162132997Y-113592893D01*
X162211348Y-113617786D01*
X162286187Y-113651824D01*
X162322379Y-113653060D01*
X162356884Y-113664023D01*
X162438794Y-113657038D01*
X162520963Y-113659845D01*
X162554869Y-113647139D01*
X162590950Y-113644062D01*
X162663956Y-113606260D01*
X162740940Y-113577411D01*
X162767405Y-113552694D01*
X162799558Y-113536046D01*
X162852538Y-113473187D01*
X162912626Y-113417070D01*
X162927618Y-113384108D01*
X162950953Y-113356422D01*
X162975845Y-113278073D01*
X162985335Y-113257208D01*
X162993421Y-113222752D01*
X163022084Y-113132534D01*
X163020087Y-113109121D01*
X163352268Y-111693634D01*
X163358265Y-111518116D01*
X163275831Y-111298140D01*
X163115490Y-111126454D01*
X162901653Y-111029196D01*
X162666876Y-111021175D01*
X162446899Y-111103609D01*
X162275214Y-111263950D01*
X162211022Y-111405085D01*
X162180715Y-111395456D01*
X162106725Y-111401766D01*
X162035814Y-111397437D01*
X162033432Y-111387726D01*
X161959128Y-111228600D01*
X161891026Y-111166261D01*
X162160828Y-110886305D01*
X163900000Y-110886305D01*
X163900000Y-111363695D01*
X164082689Y-111804745D01*
X164420255Y-112142311D01*
X164861305Y-112325000D01*
X165338695Y-112325000D01*
X165779745Y-112142311D01*
X165787087Y-112134969D01*
X166847820Y-112134969D01*
X166925643Y-112370229D01*
X167456548Y-112548815D01*
X168015382Y-112510637D01*
X168354357Y-112370229D01*
X168432180Y-112134969D01*
X167640000Y-111342789D01*
X166847820Y-112134969D01*
X165787087Y-112134969D01*
X166117311Y-111804745D01*
X166252808Y-111477626D01*
X166254363Y-111500382D01*
X166394771Y-111839357D01*
X166630031Y-111917180D01*
X167422211Y-111125000D01*
X167857789Y-111125000D01*
X168649969Y-111917180D01*
X168885229Y-111839357D01*
X169015998Y-111450603D01*
X169162689Y-111804745D01*
X169500255Y-112142311D01*
X169941305Y-112325000D01*
X170418695Y-112325000D01*
X170859745Y-112142311D01*
X171197311Y-111804745D01*
X171312000Y-111527861D01*
X171312000Y-112045938D01*
X171404562Y-112269404D01*
X171575595Y-112440437D01*
X171799061Y-112533000D01*
X172414000Y-112533000D01*
X172566000Y-112381000D01*
X172566000Y-111279000D01*
X172874000Y-111279000D01*
X172874000Y-112381000D01*
X173026000Y-112533000D01*
X173640939Y-112533000D01*
X173864405Y-112440437D01*
X174035438Y-112269404D01*
X174128000Y-112045938D01*
X174128000Y-111431000D01*
X173976000Y-111279000D01*
X172874000Y-111279000D01*
X172566000Y-111279000D01*
X172546000Y-111279000D01*
X172546000Y-110971000D01*
X172566000Y-110971000D01*
X172566000Y-109869000D01*
X172874000Y-109869000D01*
X172874000Y-110971000D01*
X173976000Y-110971000D01*
X174128000Y-110819000D01*
X174128000Y-110211523D01*
X182750000Y-110211523D01*
X182750000Y-110768477D01*
X182963137Y-111283037D01*
X183356963Y-111676863D01*
X183871523Y-111890000D01*
X184428477Y-111890000D01*
X184943037Y-111676863D01*
X185336863Y-111283037D01*
X185550000Y-110768477D01*
X185550000Y-110211523D01*
X185336863Y-109696963D01*
X184943037Y-109303137D01*
X184428477Y-109090000D01*
X183871523Y-109090000D01*
X183356963Y-109303137D01*
X182963137Y-109696963D01*
X182750000Y-110211523D01*
X174128000Y-110211523D01*
X174128000Y-110204062D01*
X174035438Y-109980596D01*
X173864405Y-109809563D01*
X173640939Y-109717000D01*
X173026000Y-109717000D01*
X172874000Y-109869000D01*
X172566000Y-109869000D01*
X172414000Y-109717000D01*
X171799061Y-109717000D01*
X171575595Y-109809563D01*
X171404562Y-109980596D01*
X171312000Y-110204062D01*
X171312000Y-110722139D01*
X171197311Y-110445255D01*
X170859745Y-110107689D01*
X170418695Y-109925000D01*
X169941305Y-109925000D01*
X169500255Y-110107689D01*
X169162689Y-110445255D01*
X169027192Y-110772374D01*
X169025637Y-110749618D01*
X168885229Y-110410643D01*
X168649969Y-110332820D01*
X167857789Y-111125000D01*
X167422211Y-111125000D01*
X166630031Y-110332820D01*
X166394771Y-110410643D01*
X166264002Y-110799397D01*
X166117311Y-110445255D01*
X165787087Y-110115031D01*
X166847820Y-110115031D01*
X167640000Y-110907211D01*
X168432180Y-110115031D01*
X168354357Y-109879771D01*
X167823452Y-109701185D01*
X167264618Y-109739363D01*
X166925643Y-109879771D01*
X166847820Y-110115031D01*
X165787087Y-110115031D01*
X165779745Y-110107689D01*
X165338695Y-109925000D01*
X164861305Y-109925000D01*
X164420255Y-110107689D01*
X164082689Y-110445255D01*
X163900000Y-110886305D01*
X162160828Y-110886305D01*
X162195717Y-110850103D01*
X162266562Y-110787036D01*
X162302291Y-110713207D01*
X162346597Y-110644171D01*
X162353038Y-110608344D01*
X162368894Y-110575580D01*
X162373650Y-110493696D01*
X162388165Y-110412962D01*
X162380405Y-110377397D01*
X162382516Y-110341060D01*
X162355573Y-110263585D01*
X162338088Y-110183446D01*
X162283943Y-110105565D01*
X162186889Y-109940312D01*
X162449341Y-109859389D01*
X162534760Y-109842398D01*
X162609424Y-109792510D01*
X162688425Y-109749818D01*
X162706397Y-109727715D01*
X162730086Y-109711886D01*
X162779980Y-109637215D01*
X162836624Y-109567548D01*
X162844769Y-109540251D01*
X162860598Y-109516561D01*
X162878120Y-109428475D01*
X162903790Y-109342440D01*
X162894860Y-109255821D01*
X162894860Y-108619770D01*
X162899870Y-108516825D01*
X162874990Y-108447389D01*
X162860598Y-108375039D01*
X162835727Y-108337817D01*
X162820628Y-108295679D01*
X162771069Y-108241050D01*
X162730086Y-108179714D01*
X162692864Y-108154843D01*
X162662789Y-108121691D01*
X162596095Y-108090184D01*
X162534761Y-108049202D01*
X162433657Y-108029091D01*
X162197345Y-107970013D01*
X162191532Y-107953457D01*
X162310315Y-107746146D01*
X162360358Y-107677580D01*
X162382025Y-107588179D01*
X162411311Y-107500963D01*
X162409508Y-107474780D01*
X162415690Y-107449274D01*
X162401494Y-107358378D01*
X162395176Y-107266602D01*
X162383492Y-107243104D01*
X162379442Y-107217172D01*
X162331535Y-107138615D01*
X162290583Y-107056256D01*
X162226584Y-107000501D01*
X161794733Y-106531303D01*
X161736932Y-106457426D01*
X161664591Y-106416563D01*
X161597480Y-106367582D01*
X161563150Y-106359262D01*
X161532393Y-106341888D01*
X161449916Y-106331819D01*
X161369174Y-106312250D01*
X161334276Y-106317700D01*
X161299209Y-106313419D01*
X161219155Y-106335679D01*
X161137073Y-106348498D01*
X161057000Y-106397330D01*
X160829674Y-106512107D01*
X160761189Y-106294386D01*
X160747981Y-106217726D01*
X160695071Y-106133953D01*
X160647472Y-106047052D01*
X160632675Y-106035160D01*
X160622537Y-106019108D01*
X160541590Y-105961955D01*
X160464365Y-105899889D01*
X160446145Y-105894565D01*
X160430635Y-105883614D01*
X160333972Y-105861787D01*
X160238879Y-105834000D01*
X160161549Y-105842416D01*
X159553114Y-105826758D01*
X159479567Y-105814094D01*
X159379854Y-105836621D01*
X159279106Y-105853979D01*
X159265790Y-105862389D01*
X159250427Y-105865860D01*
X159166919Y-105924835D01*
X159080488Y-105979423D01*
X159071404Y-105992288D01*
X159058539Y-106001374D01*
X159003952Y-106087823D01*
X158944994Y-106171326D01*
X158928557Y-106244120D01*
X158843007Y-106466755D01*
X158606382Y-106351168D01*
X158539010Y-106307092D01*
X158444322Y-106289211D01*
X158351138Y-106264618D01*
X158329566Y-106267541D01*
X158308174Y-106263501D01*
X158213846Y-106283218D01*
X158118350Y-106296156D01*
X158099537Y-106307112D01*
X158078229Y-106311566D01*
X157998618Y-106365885D01*
X157915350Y-106414378D01*
X157866584Y-106478429D01*
X157408993Y-106944994D01*
X157354057Y-106984844D01*
X157297069Y-107077682D01*
X157237412Y-107168870D01*
X157235776Y-107177536D01*
X157231163Y-107185050D01*
X157214041Y-107292630D01*
X157193821Y-107399705D01*
X157195626Y-107408338D01*
X157194240Y-107417044D01*
X157219595Y-107523011D01*
X157241886Y-107629650D01*
X157280137Y-107685712D01*
X157380610Y-107904085D01*
X157335653Y-107912202D01*
X157334684Y-107911995D01*
X157220178Y-107933052D01*
X157163808Y-107943230D01*
X157162911Y-107943583D01*
X157103644Y-107954482D01*
X157054674Y-107986186D01*
X157000392Y-108007552D01*
X156957034Y-108049400D01*
X156906449Y-108082150D01*
X156873339Y-108130180D01*
X156831365Y-108170693D01*
X156807321Y-108225949D01*
X156773120Y-108275563D01*
X156760911Y-108332607D01*
X156737635Y-108386099D01*
X156736567Y-108446347D01*
X156736365Y-108447293D01*
X156735531Y-108504809D01*
X156733473Y-108620976D01*
X156733835Y-108621895D01*
X156725936Y-109166895D01*
X156714425Y-109243896D01*
X156738374Y-109339969D01*
X156756282Y-109437356D01*
X156766637Y-109453350D01*
X156771245Y-109471837D01*
X156830139Y-109551436D01*
X156883950Y-109634552D01*
X156899636Y-109645365D01*
X156910969Y-109660682D01*
X156995846Y-109711687D01*
X157077363Y-109767880D01*
X157153491Y-109784173D01*
X157358758Y-109857883D01*
X157246257Y-110101636D01*
X157204816Y-110166316D01*
X157187187Y-110264803D01*
X157163788Y-110362079D01*
X157166594Y-110379846D01*
X157163424Y-110397556D01*
X157184828Y-110495297D01*
X157200435Y-110594117D01*
X157209828Y-110609460D01*
X157213676Y-110627033D01*
X157270853Y-110709143D01*
X157323090Y-110794470D01*
X157385216Y-110839649D01*
X157509865Y-110959594D01*
X157434938Y-110950947D01*
X157387839Y-110954792D01*
X157375878Y-110953003D01*
X157359378Y-110957115D01*
X157210331Y-110969282D01*
X157176100Y-110962473D01*
X157094216Y-110978761D01*
X157070093Y-110980730D01*
X157037297Y-110990083D01*
X156945698Y-111008303D01*
X156925066Y-111022089D01*
X156901207Y-111028893D01*
X156828039Y-111086920D01*
X156799677Y-111105871D01*
X156782560Y-111122988D01*
X156717148Y-111174864D01*
X156700184Y-111205364D01*
X156596634Y-111308913D01*
X156591872Y-111310981D01*
X156513756Y-111391791D01*
X156476131Y-111429416D01*
X156473323Y-111433619D01*
X156428601Y-111479883D01*
X156408695Y-111530342D01*
X156378563Y-111575439D01*
X156366010Y-111638546D01*
X156364154Y-111643251D01*
X156354654Y-111695634D01*
X156332733Y-111805840D01*
X156333746Y-111810931D01*
X156282396Y-112094089D01*
X156273007Y-112110917D01*
X156261550Y-112209039D01*
X156254500Y-112247916D01*
X156254818Y-112266694D01*
X156252640Y-112285351D01*
X139800000Y-112285351D01*
X139800000Y-108941523D01*
X141535000Y-108941523D01*
X141535000Y-109498477D01*
X141748137Y-110013037D01*
X142141963Y-110406863D01*
X142656523Y-110620000D01*
X143213477Y-110620000D01*
X143728037Y-110406863D01*
X144121863Y-110013037D01*
X144335000Y-109498477D01*
X144335000Y-108941523D01*
X145285000Y-108941523D01*
X145285000Y-109498477D01*
X145498137Y-110013037D01*
X145891963Y-110406863D01*
X146406523Y-110620000D01*
X146963477Y-110620000D01*
X147478037Y-110406863D01*
X147871863Y-110013037D01*
X148085000Y-109498477D01*
X148085000Y-109291305D01*
X149080000Y-109291305D01*
X149080000Y-109768695D01*
X149262689Y-110209745D01*
X149600255Y-110547311D01*
X150041305Y-110730000D01*
X150518695Y-110730000D01*
X150959745Y-110547311D01*
X151297311Y-110209745D01*
X151480000Y-109768695D01*
X151480000Y-109291305D01*
X151620000Y-109291305D01*
X151620000Y-109768695D01*
X151802689Y-110209745D01*
X152140255Y-110547311D01*
X152581305Y-110730000D01*
X153058695Y-110730000D01*
X153499745Y-110547311D01*
X153837311Y-110209745D01*
X154020000Y-109768695D01*
X154020000Y-109291305D01*
X153837311Y-108850255D01*
X153499745Y-108512689D01*
X153058695Y-108330000D01*
X152581305Y-108330000D01*
X152140255Y-108512689D01*
X151802689Y-108850255D01*
X151620000Y-109291305D01*
X151480000Y-109291305D01*
X151297311Y-108850255D01*
X150959745Y-108512689D01*
X150518695Y-108330000D01*
X150041305Y-108330000D01*
X149600255Y-108512689D01*
X149262689Y-108850255D01*
X149080000Y-109291305D01*
X148085000Y-109291305D01*
X148085000Y-108941523D01*
X147871863Y-108426963D01*
X147478037Y-108033137D01*
X146963477Y-107820000D01*
X146406523Y-107820000D01*
X145891963Y-108033137D01*
X145498137Y-108426963D01*
X145285000Y-108941523D01*
X144335000Y-108941523D01*
X144121863Y-108426963D01*
X143728037Y-108033137D01*
X143213477Y-107820000D01*
X142656523Y-107820000D01*
X142141963Y-108033137D01*
X141748137Y-108426963D01*
X141535000Y-108941523D01*
X139800000Y-108941523D01*
X139800000Y-96455065D01*
X141535000Y-96455065D01*
X141535000Y-97012019D01*
X141748137Y-97526579D01*
X142141963Y-97920405D01*
X142656523Y-98133542D01*
X143213477Y-98133542D01*
X143728037Y-97920405D01*
X144121863Y-97526579D01*
X144335000Y-97012019D01*
X144335000Y-96455065D01*
X145285000Y-96455065D01*
X145285000Y-97012019D01*
X145498137Y-97526579D01*
X145891963Y-97920405D01*
X146406523Y-98133542D01*
X146963477Y-98133542D01*
X147478037Y-97920405D01*
X147871863Y-97526579D01*
X148085000Y-97012019D01*
X148085000Y-96591305D01*
X149080000Y-96591305D01*
X149080000Y-97068695D01*
X149262689Y-97509745D01*
X149600255Y-97847311D01*
X150041305Y-98030000D01*
X150518695Y-98030000D01*
X150959745Y-97847311D01*
X151297311Y-97509745D01*
X151480000Y-97068695D01*
X151480000Y-96591305D01*
X151620000Y-96591305D01*
X151620000Y-97068695D01*
X151802689Y-97509745D01*
X152140255Y-97847311D01*
X152581305Y-98030000D01*
X153058695Y-98030000D01*
X153499745Y-97847311D01*
X153837311Y-97509745D01*
X154020000Y-97068695D01*
X154020000Y-96591305D01*
X153837311Y-96150255D01*
X153499745Y-95812689D01*
X153058695Y-95630000D01*
X152581305Y-95630000D01*
X152140255Y-95812689D01*
X151802689Y-96150255D01*
X151620000Y-96591305D01*
X151480000Y-96591305D01*
X151297311Y-96150255D01*
X150959745Y-95812689D01*
X150518695Y-95630000D01*
X150041305Y-95630000D01*
X149600255Y-95812689D01*
X149262689Y-96150255D01*
X149080000Y-96591305D01*
X148085000Y-96591305D01*
X148085000Y-96455065D01*
X147871863Y-95940505D01*
X147478037Y-95546679D01*
X146963477Y-95333542D01*
X146406523Y-95333542D01*
X145891963Y-95546679D01*
X145498137Y-95940505D01*
X145285000Y-96455065D01*
X144335000Y-96455065D01*
X144121863Y-95940505D01*
X143728037Y-95546679D01*
X143213477Y-95333542D01*
X142656523Y-95333542D01*
X142141963Y-95546679D01*
X141748137Y-95940505D01*
X141535000Y-96455065D01*
X139800000Y-96455065D01*
X139800000Y-93505816D01*
X150800000Y-93505816D01*
X150800000Y-93804184D01*
X150914181Y-94079841D01*
X151125159Y-94290819D01*
X151400816Y-94405000D01*
X151699184Y-94405000D01*
X151974841Y-94290819D01*
X152010660Y-94255000D01*
X155365473Y-94255000D01*
X159690000Y-98579528D01*
X159690000Y-98630184D01*
X159752438Y-98780923D01*
X158710162Y-98780923D01*
X158651076Y-98769170D01*
X158591990Y-98780923D01*
X158591986Y-98780923D01*
X158416969Y-98815736D01*
X158416967Y-98815737D01*
X158416968Y-98815737D01*
X158274342Y-98911037D01*
X158218502Y-98948348D01*
X158185030Y-98998442D01*
X151451473Y-105732000D01*
X151400816Y-105732000D01*
X151125159Y-105846181D01*
X150914181Y-106057159D01*
X150800000Y-106332816D01*
X150800000Y-106631184D01*
X150914181Y-106906841D01*
X151125159Y-107117819D01*
X151400816Y-107232000D01*
X151699184Y-107232000D01*
X151974841Y-107117819D01*
X152185819Y-106906841D01*
X152300000Y-106631184D01*
X152300000Y-106580527D01*
X155087711Y-103792816D01*
X172517000Y-103792816D01*
X172517000Y-104091184D01*
X172631181Y-104366841D01*
X172842159Y-104577819D01*
X173117816Y-104692000D01*
X173168472Y-104692000D01*
X173435953Y-104959481D01*
X173469425Y-105009575D01*
X173667892Y-105142187D01*
X173842909Y-105177000D01*
X173842912Y-105177000D01*
X173902000Y-105188753D01*
X173961088Y-105177000D01*
X176489340Y-105177000D01*
X176525159Y-105212819D01*
X176800816Y-105327000D01*
X177099184Y-105327000D01*
X177374841Y-105212819D01*
X177585819Y-105001841D01*
X177700000Y-104726184D01*
X177700000Y-104496523D01*
X182750000Y-104496523D01*
X182750000Y-105053477D01*
X182963137Y-105568037D01*
X183356963Y-105961863D01*
X183871523Y-106175000D01*
X184428477Y-106175000D01*
X184943037Y-105961863D01*
X185336863Y-105568037D01*
X185550000Y-105053477D01*
X185550000Y-104496523D01*
X185336863Y-103981963D01*
X184943037Y-103588137D01*
X184428477Y-103375000D01*
X183871523Y-103375000D01*
X183356963Y-103588137D01*
X182963137Y-103981963D01*
X182750000Y-104496523D01*
X177700000Y-104496523D01*
X177700000Y-104427816D01*
X177585819Y-104152159D01*
X177374841Y-103941181D01*
X177099184Y-103827000D01*
X176800816Y-103827000D01*
X176525159Y-103941181D01*
X176489340Y-103977000D01*
X174150528Y-103977000D01*
X174017000Y-103843472D01*
X174017000Y-103792816D01*
X173902819Y-103517159D01*
X173691841Y-103306181D01*
X173416184Y-103192000D01*
X173117816Y-103192000D01*
X172842159Y-103306181D01*
X172631181Y-103517159D01*
X172517000Y-103792816D01*
X155087711Y-103792816D01*
X158899605Y-99980923D01*
X159991977Y-99980923D01*
X160027796Y-100016742D01*
X160303453Y-100130923D01*
X160601821Y-100130923D01*
X160877478Y-100016742D01*
X161088456Y-99805764D01*
X161202637Y-99530107D01*
X161202637Y-99231739D01*
X161088456Y-98956082D01*
X161057017Y-98924643D01*
X161075819Y-98905841D01*
X161190000Y-98630184D01*
X161190000Y-98331816D01*
X161075819Y-98056159D01*
X160864841Y-97845181D01*
X160589184Y-97731000D01*
X160538528Y-97731000D01*
X156080049Y-93272522D01*
X156046575Y-93222425D01*
X155848108Y-93089813D01*
X155673091Y-93055000D01*
X155673086Y-93055000D01*
X155614000Y-93043247D01*
X155554914Y-93055000D01*
X152010660Y-93055000D01*
X151974841Y-93019181D01*
X151699184Y-92905000D01*
X151400816Y-92905000D01*
X151125159Y-93019181D01*
X150914181Y-93230159D01*
X150800000Y-93505816D01*
X139800000Y-93505816D01*
X139800000Y-83541523D01*
X141535000Y-83541523D01*
X141535000Y-84098477D01*
X141748137Y-84613037D01*
X142141963Y-85006863D01*
X142656523Y-85220000D01*
X143213477Y-85220000D01*
X143728037Y-85006863D01*
X144121863Y-84613037D01*
X144335000Y-84098477D01*
X144335000Y-83541523D01*
X145285000Y-83541523D01*
X145285000Y-84098477D01*
X145498137Y-84613037D01*
X145891963Y-85006863D01*
X146406523Y-85220000D01*
X146963477Y-85220000D01*
X147478037Y-85006863D01*
X147871863Y-84613037D01*
X148085000Y-84098477D01*
X148085000Y-83891305D01*
X149080000Y-83891305D01*
X149080000Y-84368695D01*
X149262689Y-84809745D01*
X149600255Y-85147311D01*
X150041305Y-85330000D01*
X150518695Y-85330000D01*
X150959745Y-85147311D01*
X151297311Y-84809745D01*
X151480000Y-84368695D01*
X151480000Y-83891305D01*
X151297311Y-83450255D01*
X150959745Y-83112689D01*
X150518695Y-82930000D01*
X150041305Y-82930000D01*
X149600255Y-83112689D01*
X149262689Y-83450255D01*
X149080000Y-83891305D01*
X148085000Y-83891305D01*
X148085000Y-83541523D01*
X147871863Y-83026963D01*
X147478037Y-82633137D01*
X146963477Y-82420000D01*
X146406523Y-82420000D01*
X145891963Y-82633137D01*
X145498137Y-83026963D01*
X145285000Y-83541523D01*
X144335000Y-83541523D01*
X144121863Y-83026963D01*
X143728037Y-82633137D01*
X143213477Y-82420000D01*
X142656523Y-82420000D01*
X142141963Y-82633137D01*
X141748137Y-83026963D01*
X141535000Y-83541523D01*
X139800000Y-83541523D01*
X139800000Y-70841523D01*
X141535000Y-70841523D01*
X141535000Y-71398477D01*
X141748137Y-71913037D01*
X142141963Y-72306863D01*
X142656523Y-72520000D01*
X143213477Y-72520000D01*
X143728037Y-72306863D01*
X144121863Y-71913037D01*
X144335000Y-71398477D01*
X144335000Y-70841523D01*
X145285000Y-70841523D01*
X145285000Y-71398477D01*
X145498137Y-71913037D01*
X145891963Y-72306863D01*
X146406523Y-72520000D01*
X146963477Y-72520000D01*
X147478037Y-72306863D01*
X147871863Y-71913037D01*
X148085000Y-71398477D01*
X148085000Y-71191305D01*
X149080000Y-71191305D01*
X149080000Y-71668695D01*
X149262689Y-72109745D01*
X149600255Y-72447311D01*
X150041305Y-72630000D01*
X150518695Y-72630000D01*
X150959745Y-72447311D01*
X151297311Y-72109745D01*
X151480000Y-71668695D01*
X151480000Y-71191305D01*
X151297311Y-70750255D01*
X150959745Y-70412689D01*
X150518695Y-70230000D01*
X150041305Y-70230000D01*
X149600255Y-70412689D01*
X149262689Y-70750255D01*
X149080000Y-71191305D01*
X148085000Y-71191305D01*
X148085000Y-70841523D01*
X147871863Y-70326963D01*
X147478037Y-69933137D01*
X146963477Y-69720000D01*
X146406523Y-69720000D01*
X145891963Y-69933137D01*
X145498137Y-70326963D01*
X145285000Y-70841523D01*
X144335000Y-70841523D01*
X144121863Y-70326963D01*
X143728037Y-69933137D01*
X143213477Y-69720000D01*
X142656523Y-69720000D01*
X142141963Y-69933137D01*
X141748137Y-70326963D01*
X141535000Y-70841523D01*
X139800000Y-70841523D01*
X139800000Y-58141523D01*
X141535000Y-58141523D01*
X141535000Y-58698477D01*
X141748137Y-59213037D01*
X142141963Y-59606863D01*
X142656523Y-59820000D01*
X143213477Y-59820000D01*
X143728037Y-59606863D01*
X144121863Y-59213037D01*
X144335000Y-58698477D01*
X144335000Y-58141523D01*
X145285000Y-58141523D01*
X145285000Y-58698477D01*
X145498137Y-59213037D01*
X145891963Y-59606863D01*
X146406523Y-59820000D01*
X146963477Y-59820000D01*
X147478037Y-59606863D01*
X147871863Y-59213037D01*
X148085000Y-58698477D01*
X148085000Y-58491305D01*
X149080000Y-58491305D01*
X149080000Y-58968695D01*
X149262689Y-59409745D01*
X149600255Y-59747311D01*
X150041305Y-59930000D01*
X150518695Y-59930000D01*
X150959745Y-59747311D01*
X151297311Y-59409745D01*
X151480000Y-58968695D01*
X151480000Y-58491305D01*
X151297311Y-58050255D01*
X150959745Y-57712689D01*
X150518695Y-57530000D01*
X150041305Y-57530000D01*
X149600255Y-57712689D01*
X149262689Y-58050255D01*
X149080000Y-58491305D01*
X148085000Y-58491305D01*
X148085000Y-58141523D01*
X147871863Y-57626963D01*
X147478037Y-57233137D01*
X146963477Y-57020000D01*
X146406523Y-57020000D01*
X145891963Y-57233137D01*
X145498137Y-57626963D01*
X145285000Y-58141523D01*
X144335000Y-58141523D01*
X144121863Y-57626963D01*
X143728037Y-57233137D01*
X143213477Y-57020000D01*
X142656523Y-57020000D01*
X142141963Y-57233137D01*
X141748137Y-57626963D01*
X141535000Y-58141523D01*
X139800000Y-58141523D01*
X139800000Y-55024816D01*
X150799996Y-55024816D01*
X150799996Y-55323184D01*
X150914177Y-55598841D01*
X151125155Y-55809819D01*
X151400812Y-55924000D01*
X151451469Y-55924000D01*
X153057469Y-57530000D01*
X152581305Y-57530000D01*
X152140255Y-57712689D01*
X151802689Y-58050255D01*
X151620000Y-58491305D01*
X151620000Y-58968695D01*
X151802689Y-59409745D01*
X152140255Y-59747311D01*
X152581305Y-59930000D01*
X153058695Y-59930000D01*
X153499745Y-59747311D01*
X153837311Y-59409745D01*
X154020000Y-58968695D01*
X154020000Y-58492531D01*
X161929022Y-66401554D01*
X161929022Y-77912495D01*
X152300000Y-68283473D01*
X152300000Y-68232816D01*
X152185819Y-67957159D01*
X151974841Y-67746181D01*
X151699184Y-67632000D01*
X151400816Y-67632000D01*
X151125159Y-67746181D01*
X150914181Y-67957159D01*
X150800000Y-68232816D01*
X150800000Y-68531184D01*
X150914181Y-68806841D01*
X151125159Y-69017819D01*
X151400816Y-69132000D01*
X151451473Y-69132000D01*
X152558796Y-70239323D01*
X152140255Y-70412689D01*
X151802689Y-70750255D01*
X151620000Y-71191305D01*
X151620000Y-71668695D01*
X151802689Y-72109745D01*
X152140255Y-72447311D01*
X152581305Y-72630000D01*
X153058695Y-72630000D01*
X153499745Y-72447311D01*
X153837311Y-72109745D01*
X154010677Y-71691204D01*
X161329011Y-79009539D01*
X161329012Y-89885484D01*
X152300000Y-80856473D01*
X152300000Y-80805816D01*
X152185819Y-80530159D01*
X151974841Y-80319181D01*
X151699184Y-80205000D01*
X151400816Y-80205000D01*
X151125159Y-80319181D01*
X150914181Y-80530159D01*
X150800000Y-80805816D01*
X150800000Y-81104184D01*
X150914181Y-81379841D01*
X151125159Y-81590819D01*
X151400816Y-81705000D01*
X151451473Y-81705000D01*
X152676473Y-82930000D01*
X152581305Y-82930000D01*
X152140255Y-83112689D01*
X151802689Y-83450255D01*
X151620000Y-83891305D01*
X151620000Y-84368695D01*
X151802689Y-84809745D01*
X152140255Y-85147311D01*
X152581305Y-85330000D01*
X153058695Y-85330000D01*
X153499745Y-85147311D01*
X153837311Y-84809745D01*
X154020000Y-84368695D01*
X154020000Y-84273527D01*
X163155206Y-93408734D01*
X163054993Y-93650670D01*
X163054993Y-93949038D01*
X163169174Y-94224695D01*
X163380152Y-94435673D01*
X163655809Y-94549854D01*
X163954177Y-94549854D01*
X164084143Y-94496020D01*
X164122181Y-94587853D01*
X164333159Y-94798831D01*
X164608816Y-94913012D01*
X164907184Y-94913012D01*
X165182841Y-94798831D01*
X165393819Y-94587853D01*
X165430509Y-94499276D01*
X165508827Y-94531717D01*
X165807195Y-94531717D01*
X166082852Y-94417536D01*
X166293830Y-94206558D01*
X166408011Y-93930901D01*
X166408011Y-93632533D01*
X166293830Y-93356876D01*
X166258011Y-93321057D01*
X166258011Y-93217099D01*
X166269764Y-93158011D01*
X166258011Y-93098921D01*
X166258011Y-93098920D01*
X166223198Y-92923903D01*
X166158791Y-92827512D01*
X166124058Y-92775530D01*
X166090586Y-92725436D01*
X166040493Y-92691965D01*
X163129022Y-89780495D01*
X163129022Y-66212111D01*
X163140775Y-66153025D01*
X163129022Y-66093939D01*
X163129022Y-66093935D01*
X163094209Y-65918918D01*
X162961597Y-65720451D01*
X162911504Y-65686980D01*
X152299996Y-55075473D01*
X152299996Y-55024816D01*
X152185815Y-54749159D01*
X151974837Y-54538181D01*
X151699180Y-54424000D01*
X151400812Y-54424000D01*
X151125155Y-54538181D01*
X150914177Y-54749159D01*
X150799996Y-55024816D01*
X139800000Y-55024816D01*
X139800000Y-53941120D01*
X159071183Y-53941120D01*
X159082936Y-54000206D01*
X159082937Y-58437559D01*
X159071183Y-58496650D01*
X159082937Y-58555741D01*
X159117750Y-58730758D01*
X159250362Y-58929225D01*
X159300456Y-58962697D01*
X164666000Y-64328242D01*
X164666001Y-77902519D01*
X164399184Y-77792000D01*
X164100816Y-77792000D01*
X163825159Y-77906181D01*
X163614181Y-78117159D01*
X163500000Y-78392816D01*
X163500000Y-78691184D01*
X163614181Y-78966841D01*
X163650000Y-79002660D01*
X163650001Y-80621339D01*
X163614181Y-80657159D01*
X163500000Y-80932816D01*
X163500000Y-81231184D01*
X163614181Y-81506841D01*
X163825159Y-81717819D01*
X164100816Y-81832000D01*
X164399184Y-81832000D01*
X164666001Y-81721481D01*
X164666001Y-87245471D01*
X163797469Y-88114004D01*
X163746812Y-88114004D01*
X163471155Y-88228185D01*
X163260177Y-88439163D01*
X163145996Y-88714820D01*
X163145996Y-89013188D01*
X163260177Y-89288845D01*
X163471155Y-89499823D01*
X163746812Y-89614004D01*
X164045180Y-89614004D01*
X164320837Y-89499823D01*
X164476831Y-89343829D01*
X164478166Y-89347053D01*
X164689144Y-89558031D01*
X164964801Y-89672212D01*
X165263169Y-89672212D01*
X165538826Y-89558031D01*
X165749804Y-89347053D01*
X165863985Y-89071396D01*
X165863985Y-89020739D01*
X165913000Y-88971724D01*
X165913000Y-88978184D01*
X166027181Y-89253841D01*
X166238159Y-89464819D01*
X166513816Y-89579000D01*
X166812184Y-89579000D01*
X166813002Y-89578661D01*
X166813002Y-97863470D01*
X166056473Y-98620000D01*
X166005816Y-98620000D01*
X165730159Y-98734181D01*
X165519181Y-98945159D01*
X165405000Y-99220816D01*
X165405000Y-99519184D01*
X165519181Y-99794841D01*
X165730159Y-100005819D01*
X166005816Y-100120000D01*
X166304184Y-100120000D01*
X166579841Y-100005819D01*
X166790819Y-99794841D01*
X166829517Y-99701416D01*
X166871149Y-99801925D01*
X167082127Y-100012903D01*
X167357784Y-100127084D01*
X167402627Y-100127084D01*
X167424392Y-100159658D01*
X167622859Y-100292270D01*
X167797876Y-100327083D01*
X167797880Y-100327083D01*
X167856966Y-100338836D01*
X167916052Y-100327083D01*
X168981462Y-100327083D01*
X169040548Y-100338836D01*
X169099634Y-100327083D01*
X169099639Y-100327083D01*
X169274656Y-100292270D01*
X169473123Y-100159658D01*
X169506597Y-100109561D01*
X170834635Y-98781523D01*
X182750000Y-98781523D01*
X182750000Y-99338477D01*
X182963137Y-99853037D01*
X183356963Y-100246863D01*
X183871523Y-100460000D01*
X184428477Y-100460000D01*
X184943037Y-100246863D01*
X185336863Y-99853037D01*
X185550000Y-99338477D01*
X185550000Y-98781523D01*
X185336863Y-98266963D01*
X184943037Y-97873137D01*
X184428477Y-97660000D01*
X183871523Y-97660000D01*
X183356963Y-97873137D01*
X182963137Y-98266963D01*
X182750000Y-98781523D01*
X170834635Y-98781523D01*
X174411481Y-95204678D01*
X174461575Y-95171206D01*
X174594187Y-94972739D01*
X174629000Y-94797722D01*
X174629000Y-94797718D01*
X174640753Y-94738632D01*
X174629000Y-94679546D01*
X174629000Y-94500066D01*
X183212723Y-94500066D01*
X183315174Y-94756040D01*
X183918703Y-94968105D01*
X184557445Y-94933067D01*
X184984826Y-94756040D01*
X185087277Y-94500066D01*
X184150000Y-93562789D01*
X183212723Y-94500066D01*
X174629000Y-94500066D01*
X174629000Y-93113703D01*
X182526895Y-93113703D01*
X182561933Y-93752445D01*
X182738960Y-94179826D01*
X182994934Y-94282277D01*
X183932211Y-93345000D01*
X184367789Y-93345000D01*
X185305066Y-94282277D01*
X185561040Y-94179826D01*
X185773105Y-93576297D01*
X185738067Y-92937555D01*
X185561040Y-92510174D01*
X185305066Y-92407723D01*
X184367789Y-93345000D01*
X183932211Y-93345000D01*
X182994934Y-92407723D01*
X182738960Y-92510174D01*
X182526895Y-93113703D01*
X174629000Y-93113703D01*
X174629000Y-92189934D01*
X183212723Y-92189934D01*
X184150000Y-93127211D01*
X185087277Y-92189934D01*
X184984826Y-91933960D01*
X184381297Y-91721895D01*
X183742555Y-91756933D01*
X183315174Y-91933960D01*
X183212723Y-92189934D01*
X174629000Y-92189934D01*
X174629000Y-84836000D01*
X181206409Y-84836000D01*
X181284021Y-85226181D01*
X181505040Y-85556960D01*
X181835819Y-85777979D01*
X182127510Y-85836000D01*
X183124490Y-85836000D01*
X183416181Y-85777979D01*
X183746960Y-85556960D01*
X183967979Y-85226181D01*
X184045591Y-84836000D01*
X186286409Y-84836000D01*
X186364021Y-85226181D01*
X186585040Y-85556960D01*
X186915819Y-85777979D01*
X187207510Y-85836000D01*
X188204490Y-85836000D01*
X188496181Y-85777979D01*
X188826960Y-85556960D01*
X189047979Y-85226181D01*
X189125591Y-84836000D01*
X189047979Y-84445819D01*
X188826960Y-84115040D01*
X188496181Y-83894021D01*
X188204490Y-83836000D01*
X187207510Y-83836000D01*
X186915819Y-83894021D01*
X186585040Y-84115040D01*
X186364021Y-84445819D01*
X186286409Y-84836000D01*
X184045591Y-84836000D01*
X183967979Y-84445819D01*
X183746960Y-84115040D01*
X183416181Y-83894021D01*
X183124490Y-83836000D01*
X182127510Y-83836000D01*
X181835819Y-83894021D01*
X181505040Y-84115040D01*
X181284021Y-84445819D01*
X181206409Y-84836000D01*
X174629000Y-84836000D01*
X174629000Y-82296000D01*
X181206409Y-82296000D01*
X181284021Y-82686181D01*
X181505040Y-83016960D01*
X181835819Y-83237979D01*
X182127510Y-83296000D01*
X183124490Y-83296000D01*
X183416181Y-83237979D01*
X183746960Y-83016960D01*
X183967979Y-82686181D01*
X184045591Y-82296000D01*
X186286409Y-82296000D01*
X186364021Y-82686181D01*
X186585040Y-83016960D01*
X186915819Y-83237979D01*
X187207510Y-83296000D01*
X188204490Y-83296000D01*
X188496181Y-83237979D01*
X188826960Y-83016960D01*
X189047979Y-82686181D01*
X189125591Y-82296000D01*
X189047979Y-81905819D01*
X188826960Y-81575040D01*
X188496181Y-81354021D01*
X188204490Y-81296000D01*
X187207510Y-81296000D01*
X186915819Y-81354021D01*
X186585040Y-81575040D01*
X186364021Y-81905819D01*
X186286409Y-82296000D01*
X184045591Y-82296000D01*
X183967979Y-81905819D01*
X183746960Y-81575040D01*
X183416181Y-81354021D01*
X183124490Y-81296000D01*
X182127510Y-81296000D01*
X181835819Y-81354021D01*
X181505040Y-81575040D01*
X181284021Y-81905819D01*
X181206409Y-82296000D01*
X174629000Y-82296000D01*
X174629000Y-80095535D01*
X181066698Y-80095535D01*
X181262921Y-80501290D01*
X181621441Y-80813113D01*
X182072000Y-80964000D01*
X182472000Y-80964000D01*
X182472000Y-79910000D01*
X182780000Y-79910000D01*
X182780000Y-80964000D01*
X183180000Y-80964000D01*
X183630559Y-80813113D01*
X183989079Y-80501290D01*
X184185302Y-80095535D01*
X186146698Y-80095535D01*
X186342921Y-80501290D01*
X186701441Y-80813113D01*
X187152000Y-80964000D01*
X187552000Y-80964000D01*
X187552000Y-79910000D01*
X187860000Y-79910000D01*
X187860000Y-80964000D01*
X188260000Y-80964000D01*
X188710559Y-80813113D01*
X189069079Y-80501290D01*
X189265302Y-80095535D01*
X189150710Y-79910000D01*
X187860000Y-79910000D01*
X187552000Y-79910000D01*
X186261290Y-79910000D01*
X186146698Y-80095535D01*
X184185302Y-80095535D01*
X184070710Y-79910000D01*
X182780000Y-79910000D01*
X182472000Y-79910000D01*
X181181290Y-79910000D01*
X181066698Y-80095535D01*
X174629000Y-80095535D01*
X174629000Y-79416465D01*
X181066698Y-79416465D01*
X181181290Y-79602000D01*
X182472000Y-79602000D01*
X182472000Y-78548000D01*
X182780000Y-78548000D01*
X182780000Y-79602000D01*
X184070710Y-79602000D01*
X184185302Y-79416465D01*
X186146698Y-79416465D01*
X186261290Y-79602000D01*
X187552000Y-79602000D01*
X187552000Y-78548000D01*
X187860000Y-78548000D01*
X187860000Y-79602000D01*
X189150710Y-79602000D01*
X189265302Y-79416465D01*
X189069079Y-79010710D01*
X188710559Y-78698887D01*
X188260000Y-78548000D01*
X187860000Y-78548000D01*
X187552000Y-78548000D01*
X187152000Y-78548000D01*
X186701441Y-78698887D01*
X186342921Y-79010710D01*
X186146698Y-79416465D01*
X184185302Y-79416465D01*
X183989079Y-79010710D01*
X183630559Y-78698887D01*
X183180000Y-78548000D01*
X182780000Y-78548000D01*
X182472000Y-78548000D01*
X182072000Y-78548000D01*
X181621441Y-78698887D01*
X181262921Y-79010710D01*
X181066698Y-79416465D01*
X174629000Y-79416465D01*
X174629000Y-77744537D01*
X175157537Y-77216000D01*
X181206409Y-77216000D01*
X181284021Y-77606181D01*
X181505040Y-77936960D01*
X181835819Y-78157979D01*
X182127510Y-78216000D01*
X183124490Y-78216000D01*
X183416181Y-78157979D01*
X183746960Y-77936960D01*
X183967979Y-77606181D01*
X184045591Y-77216000D01*
X186286409Y-77216000D01*
X186364021Y-77606181D01*
X186585040Y-77936960D01*
X186915819Y-78157979D01*
X187207510Y-78216000D01*
X188204490Y-78216000D01*
X188496181Y-78157979D01*
X188826960Y-77936960D01*
X189047979Y-77606181D01*
X189125591Y-77216000D01*
X189047979Y-76825819D01*
X188826960Y-76495040D01*
X188496181Y-76274021D01*
X188204490Y-76216000D01*
X187207510Y-76216000D01*
X186915819Y-76274021D01*
X186585040Y-76495040D01*
X186364021Y-76825819D01*
X186286409Y-77216000D01*
X184045591Y-77216000D01*
X183967979Y-76825819D01*
X183746960Y-76495040D01*
X183416181Y-76274021D01*
X183124490Y-76216000D01*
X182127510Y-76216000D01*
X181835819Y-76274021D01*
X181505040Y-76495040D01*
X181284021Y-76825819D01*
X181206409Y-77216000D01*
X175157537Y-77216000D01*
X175423538Y-76950000D01*
X175474194Y-76950000D01*
X175749851Y-76835819D01*
X175960829Y-76624841D01*
X176075010Y-76349184D01*
X176075010Y-76050816D01*
X175960829Y-75775159D01*
X175749851Y-75564181D01*
X175474194Y-75450000D01*
X175175826Y-75450000D01*
X174900169Y-75564181D01*
X174689191Y-75775159D01*
X174575010Y-76050816D01*
X174575010Y-76101472D01*
X174028989Y-76647494D01*
X174028989Y-73745535D01*
X181066698Y-73745535D01*
X181262921Y-74151290D01*
X181621441Y-74463113D01*
X182072000Y-74614000D01*
X182472000Y-74614000D01*
X182472000Y-73560000D01*
X182780000Y-73560000D01*
X182780000Y-74614000D01*
X183180000Y-74614000D01*
X183630559Y-74463113D01*
X183989079Y-74151290D01*
X184185302Y-73745535D01*
X186146698Y-73745535D01*
X186342921Y-74151290D01*
X186701441Y-74463113D01*
X187152000Y-74614000D01*
X187552000Y-74614000D01*
X187552000Y-73560000D01*
X187860000Y-73560000D01*
X187860000Y-74614000D01*
X188260000Y-74614000D01*
X188710559Y-74463113D01*
X189069079Y-74151290D01*
X189265302Y-73745535D01*
X189150710Y-73560000D01*
X187860000Y-73560000D01*
X187552000Y-73560000D01*
X186261290Y-73560000D01*
X186146698Y-73745535D01*
X184185302Y-73745535D01*
X184070710Y-73560000D01*
X182780000Y-73560000D01*
X182472000Y-73560000D01*
X181181290Y-73560000D01*
X181066698Y-73745535D01*
X174028989Y-73745535D01*
X174028989Y-73066465D01*
X181066698Y-73066465D01*
X181181290Y-73252000D01*
X182472000Y-73252000D01*
X182472000Y-72198000D01*
X182780000Y-72198000D01*
X182780000Y-73252000D01*
X184070710Y-73252000D01*
X184185302Y-73066465D01*
X186146698Y-73066465D01*
X186261290Y-73252000D01*
X187552000Y-73252000D01*
X187552000Y-72198000D01*
X187860000Y-72198000D01*
X187860000Y-73252000D01*
X189150710Y-73252000D01*
X189265302Y-73066465D01*
X189069079Y-72660710D01*
X188710559Y-72348887D01*
X188260000Y-72198000D01*
X187860000Y-72198000D01*
X187552000Y-72198000D01*
X187152000Y-72198000D01*
X186701441Y-72348887D01*
X186342921Y-72660710D01*
X186146698Y-73066465D01*
X184185302Y-73066465D01*
X183989079Y-72660710D01*
X183630559Y-72348887D01*
X183180000Y-72198000D01*
X182780000Y-72198000D01*
X182472000Y-72198000D01*
X182072000Y-72198000D01*
X181621441Y-72348887D01*
X181262921Y-72660710D01*
X181066698Y-73066465D01*
X174028989Y-73066465D01*
X174028989Y-72012548D01*
X174115537Y-71926000D01*
X174166194Y-71926000D01*
X174441851Y-71811819D01*
X174652829Y-71600841D01*
X174767010Y-71325184D01*
X174767010Y-71026816D01*
X174700398Y-70866000D01*
X181206409Y-70866000D01*
X181284021Y-71256181D01*
X181505040Y-71586960D01*
X181835819Y-71807979D01*
X182127510Y-71866000D01*
X183124490Y-71866000D01*
X183416181Y-71807979D01*
X183746960Y-71586960D01*
X183967979Y-71256181D01*
X184045591Y-70866000D01*
X186286409Y-70866000D01*
X186364021Y-71256181D01*
X186585040Y-71586960D01*
X186915819Y-71807979D01*
X187207510Y-71866000D01*
X188204490Y-71866000D01*
X188496181Y-71807979D01*
X188826960Y-71586960D01*
X189047979Y-71256181D01*
X189125591Y-70866000D01*
X189047979Y-70475819D01*
X188826960Y-70145040D01*
X188496181Y-69924021D01*
X188204490Y-69866000D01*
X187207510Y-69866000D01*
X186915819Y-69924021D01*
X186585040Y-70145040D01*
X186364021Y-70475819D01*
X186286409Y-70866000D01*
X184045591Y-70866000D01*
X183967979Y-70475819D01*
X183746960Y-70145040D01*
X183416181Y-69924021D01*
X183124490Y-69866000D01*
X182127510Y-69866000D01*
X181835819Y-69924021D01*
X181505040Y-70145040D01*
X181284021Y-70475819D01*
X181206409Y-70866000D01*
X174700398Y-70866000D01*
X174652829Y-70751159D01*
X174441851Y-70540181D01*
X174166194Y-70426000D01*
X173867826Y-70426000D01*
X173592169Y-70540181D01*
X173428978Y-70703372D01*
X173428978Y-68665535D01*
X181066698Y-68665535D01*
X181262921Y-69071290D01*
X181621441Y-69383113D01*
X182072000Y-69534000D01*
X182472000Y-69534000D01*
X182472000Y-68480000D01*
X182780000Y-68480000D01*
X182780000Y-69534000D01*
X183180000Y-69534000D01*
X183630559Y-69383113D01*
X183989079Y-69071290D01*
X184185302Y-68665535D01*
X186146698Y-68665535D01*
X186342921Y-69071290D01*
X186701441Y-69383113D01*
X187152000Y-69534000D01*
X187552000Y-69534000D01*
X187552000Y-68480000D01*
X187860000Y-68480000D01*
X187860000Y-69534000D01*
X188260000Y-69534000D01*
X188710559Y-69383113D01*
X189069079Y-69071290D01*
X189265302Y-68665535D01*
X189150710Y-68480000D01*
X187860000Y-68480000D01*
X187552000Y-68480000D01*
X186261290Y-68480000D01*
X186146698Y-68665535D01*
X184185302Y-68665535D01*
X184070710Y-68480000D01*
X182780000Y-68480000D01*
X182472000Y-68480000D01*
X181181290Y-68480000D01*
X181066698Y-68665535D01*
X173428978Y-68665535D01*
X173428978Y-67986465D01*
X181066698Y-67986465D01*
X181181290Y-68172000D01*
X182472000Y-68172000D01*
X182472000Y-67118000D01*
X182780000Y-67118000D01*
X182780000Y-68172000D01*
X184070710Y-68172000D01*
X184185302Y-67986465D01*
X186146698Y-67986465D01*
X186261290Y-68172000D01*
X187552000Y-68172000D01*
X187552000Y-67118000D01*
X187860000Y-67118000D01*
X187860000Y-68172000D01*
X189150710Y-68172000D01*
X189265302Y-67986465D01*
X189069079Y-67580710D01*
X188710559Y-67268887D01*
X188260000Y-67118000D01*
X187860000Y-67118000D01*
X187552000Y-67118000D01*
X187152000Y-67118000D01*
X186701441Y-67268887D01*
X186342921Y-67580710D01*
X186146698Y-67986465D01*
X184185302Y-67986465D01*
X183989079Y-67580710D01*
X183630559Y-67268887D01*
X183180000Y-67118000D01*
X182780000Y-67118000D01*
X182472000Y-67118000D01*
X182072000Y-67118000D01*
X181621441Y-67268887D01*
X181262921Y-67580710D01*
X181066698Y-67986465D01*
X173428978Y-67986465D01*
X173428978Y-66979559D01*
X173618538Y-66790000D01*
X173669194Y-66790000D01*
X173944851Y-66675819D01*
X174155829Y-66464841D01*
X174270010Y-66189184D01*
X174270010Y-65890816D01*
X174226594Y-65786000D01*
X181206409Y-65786000D01*
X181284021Y-66176181D01*
X181505040Y-66506960D01*
X181835819Y-66727979D01*
X182127510Y-66786000D01*
X183124490Y-66786000D01*
X183416181Y-66727979D01*
X183746960Y-66506960D01*
X183967979Y-66176181D01*
X184045591Y-65786000D01*
X186286409Y-65786000D01*
X186364021Y-66176181D01*
X186585040Y-66506960D01*
X186915819Y-66727979D01*
X187207510Y-66786000D01*
X188204490Y-66786000D01*
X188496181Y-66727979D01*
X188826960Y-66506960D01*
X189047979Y-66176181D01*
X189125591Y-65786000D01*
X189047979Y-65395819D01*
X188826960Y-65065040D01*
X188496181Y-64844021D01*
X188204490Y-64786000D01*
X187207510Y-64786000D01*
X186915819Y-64844021D01*
X186585040Y-65065040D01*
X186364021Y-65395819D01*
X186286409Y-65786000D01*
X184045591Y-65786000D01*
X183967979Y-65395819D01*
X183746960Y-65065040D01*
X183416181Y-64844021D01*
X183124490Y-64786000D01*
X182127510Y-64786000D01*
X181835819Y-64844021D01*
X181505040Y-65065040D01*
X181284021Y-65395819D01*
X181206409Y-65786000D01*
X174226594Y-65786000D01*
X174155829Y-65615159D01*
X173944851Y-65404181D01*
X173669194Y-65290000D01*
X173370826Y-65290000D01*
X173095169Y-65404181D01*
X172884191Y-65615159D01*
X172828967Y-65748481D01*
X172828967Y-62315535D01*
X181066698Y-62315535D01*
X181262921Y-62721290D01*
X181621441Y-63033113D01*
X182072000Y-63184000D01*
X182472000Y-63184000D01*
X182472000Y-62130000D01*
X182780000Y-62130000D01*
X182780000Y-63184000D01*
X183180000Y-63184000D01*
X183630559Y-63033113D01*
X183989079Y-62721290D01*
X184185302Y-62315535D01*
X186146698Y-62315535D01*
X186342921Y-62721290D01*
X186701441Y-63033113D01*
X187152000Y-63184000D01*
X187552000Y-63184000D01*
X187552000Y-62130000D01*
X187860000Y-62130000D01*
X187860000Y-63184000D01*
X188260000Y-63184000D01*
X188710559Y-63033113D01*
X189069079Y-62721290D01*
X189265302Y-62315535D01*
X189150710Y-62130000D01*
X187860000Y-62130000D01*
X187552000Y-62130000D01*
X186261290Y-62130000D01*
X186146698Y-62315535D01*
X184185302Y-62315535D01*
X184070710Y-62130000D01*
X182780000Y-62130000D01*
X182472000Y-62130000D01*
X181181290Y-62130000D01*
X181066698Y-62315535D01*
X172828967Y-62315535D01*
X172828967Y-61636465D01*
X181066698Y-61636465D01*
X181181290Y-61822000D01*
X182472000Y-61822000D01*
X182472000Y-60768000D01*
X182780000Y-60768000D01*
X182780000Y-61822000D01*
X184070710Y-61822000D01*
X184185302Y-61636465D01*
X186146698Y-61636465D01*
X186261290Y-61822000D01*
X187552000Y-61822000D01*
X187552000Y-60768000D01*
X187860000Y-60768000D01*
X187860000Y-61822000D01*
X189150710Y-61822000D01*
X189265302Y-61636465D01*
X189069079Y-61230710D01*
X188710559Y-60918887D01*
X188260000Y-60768000D01*
X187860000Y-60768000D01*
X187552000Y-60768000D01*
X187152000Y-60768000D01*
X186701441Y-60918887D01*
X186342921Y-61230710D01*
X186146698Y-61636465D01*
X184185302Y-61636465D01*
X183989079Y-61230710D01*
X183630559Y-60918887D01*
X183180000Y-60768000D01*
X182780000Y-60768000D01*
X182472000Y-60768000D01*
X182072000Y-60768000D01*
X181621441Y-60918887D01*
X181262921Y-61230710D01*
X181066698Y-61636465D01*
X172828967Y-61636465D01*
X172828967Y-60594570D01*
X172983538Y-60440000D01*
X173034194Y-60440000D01*
X173309851Y-60325819D01*
X173520829Y-60114841D01*
X173635010Y-59839184D01*
X173635010Y-59540816D01*
X173591594Y-59436000D01*
X181206409Y-59436000D01*
X181284021Y-59826181D01*
X181505040Y-60156960D01*
X181835819Y-60377979D01*
X182127510Y-60436000D01*
X183124490Y-60436000D01*
X183416181Y-60377979D01*
X183746960Y-60156960D01*
X183967979Y-59826181D01*
X184045591Y-59436000D01*
X186286409Y-59436000D01*
X186364021Y-59826181D01*
X186585040Y-60156960D01*
X186915819Y-60377979D01*
X187207510Y-60436000D01*
X188204490Y-60436000D01*
X188496181Y-60377979D01*
X188826960Y-60156960D01*
X189047979Y-59826181D01*
X189125591Y-59436000D01*
X189047979Y-59045819D01*
X188826960Y-58715040D01*
X188496181Y-58494021D01*
X188204490Y-58436000D01*
X187207510Y-58436000D01*
X186915819Y-58494021D01*
X186585040Y-58715040D01*
X186364021Y-59045819D01*
X186286409Y-59436000D01*
X184045591Y-59436000D01*
X183967979Y-59045819D01*
X183746960Y-58715040D01*
X183416181Y-58494021D01*
X183124490Y-58436000D01*
X182127510Y-58436000D01*
X181835819Y-58494021D01*
X181505040Y-58715040D01*
X181284021Y-59045819D01*
X181206409Y-59436000D01*
X173591594Y-59436000D01*
X173520829Y-59265159D01*
X173309851Y-59054181D01*
X173034194Y-58940000D01*
X172735826Y-58940000D01*
X172460169Y-59054181D01*
X172249191Y-59265159D01*
X172135010Y-59540816D01*
X172135010Y-59591472D01*
X171846488Y-59879995D01*
X171796392Y-59913468D01*
X171663780Y-60111936D01*
X171628967Y-60286953D01*
X171628967Y-60286957D01*
X171617214Y-60346043D01*
X171628967Y-60405129D01*
X171628968Y-93610185D01*
X169053278Y-96185876D01*
X168878437Y-96113454D01*
X168580069Y-96113454D01*
X168304412Y-96227635D01*
X168093434Y-96438613D01*
X168013002Y-96632793D01*
X168013002Y-58252090D01*
X168024755Y-58193002D01*
X168013002Y-58133914D01*
X168013002Y-58133911D01*
X167978189Y-57958894D01*
X167928746Y-57884897D01*
X167879050Y-57810521D01*
X167879047Y-57810518D01*
X167845577Y-57760427D01*
X167795486Y-57726957D01*
X167613505Y-57544977D01*
X167670000Y-57408586D01*
X167670000Y-57235535D01*
X181066698Y-57235535D01*
X181262921Y-57641290D01*
X181621441Y-57953113D01*
X182072000Y-58104000D01*
X182472000Y-58104000D01*
X182472000Y-57050000D01*
X182780000Y-57050000D01*
X182780000Y-58104000D01*
X183180000Y-58104000D01*
X183630559Y-57953113D01*
X183989079Y-57641290D01*
X184185302Y-57235535D01*
X186146698Y-57235535D01*
X186342921Y-57641290D01*
X186701441Y-57953113D01*
X187152000Y-58104000D01*
X187552000Y-58104000D01*
X187552000Y-57050000D01*
X187860000Y-57050000D01*
X187860000Y-58104000D01*
X188260000Y-58104000D01*
X188710559Y-57953113D01*
X189069079Y-57641290D01*
X189265302Y-57235535D01*
X189150710Y-57050000D01*
X187860000Y-57050000D01*
X187552000Y-57050000D01*
X186261290Y-57050000D01*
X186146698Y-57235535D01*
X184185302Y-57235535D01*
X184070710Y-57050000D01*
X182780000Y-57050000D01*
X182472000Y-57050000D01*
X181181290Y-57050000D01*
X181066698Y-57235535D01*
X167670000Y-57235535D01*
X167670000Y-56891414D01*
X167531260Y-56556465D01*
X181066698Y-56556465D01*
X181181290Y-56742000D01*
X182472000Y-56742000D01*
X182472000Y-55688000D01*
X182780000Y-55688000D01*
X182780000Y-56742000D01*
X184070710Y-56742000D01*
X184185302Y-56556465D01*
X186146698Y-56556465D01*
X186261290Y-56742000D01*
X187552000Y-56742000D01*
X187552000Y-55688000D01*
X187860000Y-55688000D01*
X187860000Y-56742000D01*
X189150710Y-56742000D01*
X189265302Y-56556465D01*
X189069079Y-56150710D01*
X188710559Y-55838887D01*
X188260000Y-55688000D01*
X187860000Y-55688000D01*
X187552000Y-55688000D01*
X187152000Y-55688000D01*
X186701441Y-55838887D01*
X186342921Y-56150710D01*
X186146698Y-56556465D01*
X184185302Y-56556465D01*
X183989079Y-56150710D01*
X183630559Y-55838887D01*
X183180000Y-55688000D01*
X182780000Y-55688000D01*
X182472000Y-55688000D01*
X182072000Y-55688000D01*
X181621441Y-55838887D01*
X181262921Y-56150710D01*
X181066698Y-56556465D01*
X167531260Y-56556465D01*
X167472087Y-56413609D01*
X167106391Y-56047913D01*
X166993021Y-56000953D01*
X167144612Y-55938162D01*
X167234762Y-55692551D01*
X166370000Y-54827789D01*
X165505238Y-55692551D01*
X165595388Y-55938162D01*
X165760939Y-55995171D01*
X165633609Y-56047913D01*
X165267913Y-56413609D01*
X165100000Y-56818987D01*
X164932087Y-56413609D01*
X164566391Y-56047913D01*
X164161013Y-55880000D01*
X164566391Y-55712087D01*
X164932087Y-55346391D01*
X164979047Y-55233021D01*
X165041838Y-55384612D01*
X165287449Y-55474762D01*
X166152211Y-54610000D01*
X166587789Y-54610000D01*
X167452551Y-55474762D01*
X167698162Y-55384612D01*
X167893493Y-54817382D01*
X167865287Y-54356000D01*
X181206409Y-54356000D01*
X181284021Y-54746181D01*
X181505040Y-55076960D01*
X181835819Y-55297979D01*
X182127510Y-55356000D01*
X183124490Y-55356000D01*
X183416181Y-55297979D01*
X183746960Y-55076960D01*
X183967979Y-54746181D01*
X184045591Y-54356000D01*
X186286409Y-54356000D01*
X186364021Y-54746181D01*
X186585040Y-55076960D01*
X186915819Y-55297979D01*
X187207510Y-55356000D01*
X188204490Y-55356000D01*
X188496181Y-55297979D01*
X188826960Y-55076960D01*
X189047979Y-54746181D01*
X189125591Y-54356000D01*
X189047979Y-53965819D01*
X188826960Y-53635040D01*
X188496181Y-53414021D01*
X188204490Y-53356000D01*
X187207510Y-53356000D01*
X186915819Y-53414021D01*
X186585040Y-53635040D01*
X186364021Y-53965819D01*
X186286409Y-54356000D01*
X184045591Y-54356000D01*
X183967979Y-53965819D01*
X183746960Y-53635040D01*
X183416181Y-53414021D01*
X183124490Y-53356000D01*
X182127510Y-53356000D01*
X181835819Y-53414021D01*
X181505040Y-53635040D01*
X181284021Y-53965819D01*
X181206409Y-54356000D01*
X167865287Y-54356000D01*
X167856886Y-54218580D01*
X167698162Y-53835388D01*
X167452551Y-53745238D01*
X166587789Y-54610000D01*
X166152211Y-54610000D01*
X165287449Y-53745238D01*
X165041838Y-53835388D01*
X164984829Y-54000939D01*
X164932087Y-53873609D01*
X164585927Y-53527449D01*
X165505238Y-53527449D01*
X166370000Y-54392211D01*
X167234762Y-53527449D01*
X167144612Y-53281838D01*
X166577382Y-53086507D01*
X165978580Y-53123114D01*
X165595388Y-53281838D01*
X165505238Y-53527449D01*
X164585927Y-53527449D01*
X164566391Y-53507913D01*
X164088586Y-53310000D01*
X163571414Y-53310000D01*
X163435023Y-53366495D01*
X162702882Y-52634355D01*
X162669408Y-52584258D01*
X162470941Y-52451646D01*
X162295924Y-52416833D01*
X162295919Y-52416833D01*
X162236833Y-52405080D01*
X162177747Y-52416833D01*
X160666309Y-52416833D01*
X160607222Y-52405080D01*
X160548136Y-52416833D01*
X160548132Y-52416833D01*
X160373115Y-52451646D01*
X160174648Y-52584258D01*
X160141176Y-52634352D01*
X159300457Y-53475071D01*
X159250361Y-53508545D01*
X159117749Y-53707013D01*
X159082936Y-53882030D01*
X159082936Y-53882034D01*
X159071183Y-53941120D01*
X139800000Y-53941120D01*
X139800000Y-52111422D01*
X141011422Y-50900000D01*
X173043095Y-50900000D01*
X173043095Y-52765000D01*
G04 #@! TD*
M02*
