%FSLAX45Y45*%
G04 Gerber Fmt 4.5, Leading zero omitted, Abs format (unit mm)*
G04 Created by KiCad (PCBNEW 4.1.0-alpha+201608281546+7098~46~ubuntu14.04.1-product) date Mon Sep  5 14:38:34 2016*
%MOMM*%
%LPD*%
G01*
G04 APERTURE LIST*
%ADD10C,0.127000*%
%ADD11C,0.100000*%
%ADD12C,0.200000*%
%ADD13C,0.300000*%
G04 APERTURE END LIST*
D10*
D11*
X12500000Y-10000000D02*
G75*
G03X12500000Y-10000000I-2500000J0D01*
G01*
D12*
X9479600Y-7765100D02*
X9519600Y-7805100D01*
X9519600Y-7765100D02*
X9479600Y-7805100D01*
X9987600Y-7765100D02*
X10027600Y-7805100D01*
X10027600Y-7765100D02*
X9987600Y-7805100D01*
X10019031Y-11126175D02*
X10059031Y-11166175D01*
X10059031Y-11126175D02*
X10019031Y-11166175D01*
X10026303Y-11348598D02*
X10066303Y-11388598D01*
X10066303Y-11348598D02*
X10026303Y-11388598D01*
X10276685Y-10193352D02*
X10316685Y-10233352D01*
X10316685Y-10193352D02*
X10276685Y-10233352D01*
X10352884Y-10128592D02*
X10392884Y-10168592D01*
X10392884Y-10128592D02*
X10352884Y-10168592D01*
X10444800Y-10089200D02*
X10484800Y-10129200D01*
X10484800Y-10089200D02*
X10444800Y-10129200D01*
X10480000Y-10980000D02*
X10520000Y-11020000D01*
X10520000Y-10980000D02*
X10480000Y-11020000D01*
X10495600Y-7777800D02*
X10535600Y-7817800D01*
X10535600Y-7777800D02*
X10495600Y-7817800D01*
X10686100Y-10127300D02*
X10726100Y-10167300D01*
X10726100Y-10127300D02*
X10686100Y-10167300D01*
X10980000Y-11180000D02*
X11020000Y-11220000D01*
X11020000Y-11180000D02*
X10980000Y-11220000D01*
X11009950Y-9943150D02*
X11049950Y-9983150D01*
X11049950Y-9943150D02*
X11009950Y-9983150D01*
X11873550Y-9543100D02*
X11913550Y-9583100D01*
X11913550Y-9543100D02*
X11873550Y-9583100D01*
X8991200Y-8001000D02*
G75*
G03X8991200Y-8001000I-25000J0D01*
G01*
X10375000Y-10600000D02*
G75*
G03X10375000Y-10600000I-25000J0D01*
G01*
X10419950Y-9131300D02*
G75*
G03X10419950Y-9131300I-25000J0D01*
G01*
X10525000Y-11150000D02*
G75*
G03X10525000Y-11150000I-25000J0D01*
G01*
X10525000Y-11400000D02*
G75*
G03X10525000Y-11400000I-25000J0D01*
G01*
X10525000Y-11650000D02*
G75*
G03X10525000Y-11650000I-25000J0D01*
G01*
X10805216Y-10360544D02*
G75*
G03X10805216Y-10360544I-25000J0D01*
G01*
X10851847Y-10577316D02*
G75*
G03X10851847Y-10577316I-25000J0D01*
G01*
X10975000Y-11650000D02*
G75*
G03X10975000Y-11650000I-25000J0D01*
G01*
X11061300Y-9779000D02*
G75*
G03X11061300Y-9779000I-25000J0D01*
G01*
X11125000Y-11950000D02*
G75*
G03X11125000Y-11950000I-25000J0D01*
G01*
X11350280Y-11648191D02*
G75*
G03X11350280Y-11648191I-25000J0D01*
G01*
X11378800Y-9594850D02*
G75*
G03X11378800Y-9594850I-25000J0D01*
G01*
X11893150Y-11474450D02*
G75*
G03X11893150Y-11474450I-25000J0D01*
G01*
X11943950Y-9137650D02*
G75*
G03X11943950Y-9137650I-25000J0D01*
G01*
X12331300Y-9664700D02*
G75*
G03X12331300Y-9664700I-25000J0D01*
G01*
X8496300Y-8740700D02*
X8496300Y-8810700D01*
X8461300Y-8775700D02*
X8531300Y-8775700D01*
X8496300Y-8994700D02*
X8496300Y-9064700D01*
X8461300Y-9029700D02*
X8531300Y-9029700D01*
X8496300Y-9248700D02*
X8496300Y-9318700D01*
X8461300Y-9283700D02*
X8531300Y-9283700D01*
X8496300Y-9502700D02*
X8496300Y-9572700D01*
X8461300Y-9537700D02*
X8531300Y-9537700D01*
X9074220Y-9379020D02*
X9074220Y-9315380D01*
X9010580Y-9315380D01*
X9010580Y-9379020D01*
X9074220Y-9379020D01*
X9074220Y-9754020D02*
X9074220Y-9690380D01*
X9010580Y-9690380D01*
X9010580Y-9754020D01*
X9074220Y-9754020D01*
X9391720Y-8236020D02*
X9391720Y-8172380D01*
X9328080Y-8172380D01*
X9328080Y-8236020D01*
X9391720Y-8236020D01*
X9391720Y-8744020D02*
X9391720Y-8680380D01*
X9328080Y-8680380D01*
X9328080Y-8744020D01*
X9391720Y-8744020D01*
X9620320Y-9379020D02*
X9620320Y-9315380D01*
X9556680Y-9315380D01*
X9556680Y-9379020D01*
X9620320Y-9379020D01*
X9620320Y-9754020D02*
X9620320Y-9690380D01*
X9556680Y-9690380D01*
X9556680Y-9754020D01*
X9620320Y-9754020D01*
X9645720Y-8236020D02*
X9645720Y-8172380D01*
X9582080Y-8172380D01*
X9582080Y-8236020D01*
X9645720Y-8236020D01*
X9645720Y-8744020D02*
X9645720Y-8680380D01*
X9582080Y-8680380D01*
X9582080Y-8744020D01*
X9645720Y-8744020D01*
X9899720Y-8236020D02*
X9899720Y-8172380D01*
X9836080Y-8172380D01*
X9836080Y-8236020D01*
X9899720Y-8236020D01*
X9899720Y-8744020D02*
X9899720Y-8680380D01*
X9836080Y-8680380D01*
X9836080Y-8744020D01*
X9899720Y-8744020D01*
X10153720Y-8236020D02*
X10153720Y-8172380D01*
X10090080Y-8172380D01*
X10090080Y-8236020D01*
X10153720Y-8236020D01*
X10153720Y-8744020D02*
X10153720Y-8680380D01*
X10090080Y-8680380D01*
X10090080Y-8744020D01*
X10153720Y-8744020D01*
X10229920Y-11982520D02*
X10229920Y-11918880D01*
X10166280Y-11918880D01*
X10166280Y-11982520D01*
X10229920Y-11982520D01*
X10229920Y-12236520D02*
X10229920Y-12172880D01*
X10166280Y-12172880D01*
X10166280Y-12236520D01*
X10229920Y-12236520D01*
X10407720Y-8236020D02*
X10407720Y-8172380D01*
X10344080Y-8172380D01*
X10344080Y-8236020D01*
X10407720Y-8236020D01*
X10407720Y-8744020D02*
X10407720Y-8680380D01*
X10344080Y-8680380D01*
X10344080Y-8744020D01*
X10407720Y-8744020D01*
X10483920Y-11982520D02*
X10483920Y-11918880D01*
X10420280Y-11918880D01*
X10420280Y-11982520D01*
X10483920Y-11982520D01*
X10483920Y-12236520D02*
X10483920Y-12172880D01*
X10420280Y-12172880D01*
X10420280Y-12236520D01*
X10483920Y-12236520D01*
X10661720Y-8236020D02*
X10661720Y-8172380D01*
X10598080Y-8172380D01*
X10598080Y-8236020D01*
X10661720Y-8236020D01*
X10661720Y-8744020D02*
X10661720Y-8680380D01*
X10598080Y-8680380D01*
X10598080Y-8744020D01*
X10661720Y-8744020D01*
X10737920Y-11982520D02*
X10737920Y-11918880D01*
X10674280Y-11918880D01*
X10674280Y-11982520D01*
X10737920Y-11982520D01*
X10737920Y-12236520D02*
X10737920Y-12172880D01*
X10674280Y-12172880D01*
X10674280Y-12236520D01*
X10737920Y-12236520D01*
X7848600Y-10043400D02*
X7898600Y-9993400D01*
X7848600Y-9943400D01*
X7798600Y-9993400D01*
X7848600Y-10043400D01*
X7848600Y-10743400D02*
X7898600Y-10693400D01*
X7848600Y-10643400D01*
X7798600Y-10693400D01*
X7848600Y-10743400D01*
X8398600Y-10393400D02*
X8448600Y-10343400D01*
X8398600Y-10293400D01*
X8348600Y-10343400D01*
X8398600Y-10393400D01*
X11498580Y-9257500D02*
X11548580Y-9207500D01*
X11498580Y-9157500D01*
X11448580Y-9207500D01*
X11498580Y-9257500D01*
X11498580Y-9829000D02*
X11548580Y-9779000D01*
X11498580Y-9729000D01*
X11448580Y-9779000D01*
X11498580Y-9829000D01*
X11498580Y-10400500D02*
X11548580Y-10350500D01*
X11498580Y-10300500D01*
X11448580Y-10350500D01*
X11498580Y-10400500D01*
X11498580Y-10972000D02*
X11548580Y-10922000D01*
X11498580Y-10872000D01*
X11448580Y-10922000D01*
X11498580Y-10972000D01*
X8977400Y-10782200D02*
X9107400Y-10912200D01*
X9107400Y-10782200D02*
X8977400Y-10912200D01*
X9107400Y-10847200D02*
G75*
G03X9107400Y-10847200I-65000J0D01*
G01*
X8977400Y-11282200D02*
X9107400Y-11412200D01*
X9107400Y-11282200D02*
X8977400Y-11412200D01*
X9107400Y-11347200D02*
G75*
G03X9107400Y-11347200I-65000J0D01*
G01*
X8977400Y-11782200D02*
X9107400Y-11912200D01*
X9107400Y-11782200D02*
X8977400Y-11912200D01*
X9107400Y-11847200D02*
G75*
G03X9107400Y-11847200I-65000J0D01*
G01*
X9523500Y-10782200D02*
X9653500Y-10912200D01*
X9653500Y-10782200D02*
X9523500Y-10912200D01*
X9653500Y-10847200D02*
G75*
G03X9653500Y-10847200I-65000J0D01*
G01*
X9523500Y-11282200D02*
X9653500Y-11412200D01*
X9653500Y-11282200D02*
X9523500Y-11412200D01*
X9653500Y-11347200D02*
G75*
G03X9653500Y-11347200I-65000J0D01*
G01*
X9523500Y-11782200D02*
X9653500Y-11912200D01*
X9653500Y-11782200D02*
X9523500Y-11912200D01*
X9653500Y-11847200D02*
G75*
G03X9653500Y-11847200I-65000J0D01*
G01*
X8125000Y-11075000D02*
X8375000Y-11325000D01*
X8375000Y-11075000D02*
X8125000Y-11325000D01*
X8250000Y-11075000D02*
X8250000Y-11325000D01*
X8125000Y-11200000D02*
X8375000Y-11200000D01*
X11275000Y-8275000D02*
X11525000Y-8525000D01*
X11525000Y-8275000D02*
X11275000Y-8525000D01*
X11400000Y-8275000D02*
X11400000Y-8525000D01*
X11275000Y-8400000D02*
X11525000Y-8400000D01*
D13*
X7781428Y-12970714D02*
X7781428Y-12670714D01*
X7852857Y-12670714D01*
X7895714Y-12685000D01*
X7924286Y-12713571D01*
X7938571Y-12742143D01*
X7952857Y-12799286D01*
X7952857Y-12842143D01*
X7938571Y-12899286D01*
X7924286Y-12927857D01*
X7895714Y-12956429D01*
X7852857Y-12970714D01*
X7781428Y-12970714D01*
X8081428Y-12970714D02*
X8081428Y-12770714D01*
X8081428Y-12827857D02*
X8095714Y-12799286D01*
X8110000Y-12785000D01*
X8138571Y-12770714D01*
X8167143Y-12770714D01*
X8267143Y-12970714D02*
X8267143Y-12770714D01*
X8267143Y-12670714D02*
X8252857Y-12685000D01*
X8267143Y-12699286D01*
X8281428Y-12685000D01*
X8267143Y-12670714D01*
X8267143Y-12699286D01*
X8452857Y-12970714D02*
X8424286Y-12956429D01*
X8410000Y-12927857D01*
X8410000Y-12670714D01*
X8610000Y-12970714D02*
X8581428Y-12956429D01*
X8567143Y-12927857D01*
X8567143Y-12670714D01*
X8952857Y-12970714D02*
X8952857Y-12670714D01*
X9052857Y-12885000D01*
X9152857Y-12670714D01*
X9152857Y-12970714D01*
X9424286Y-12970714D02*
X9424286Y-12813571D01*
X9410000Y-12785000D01*
X9381428Y-12770714D01*
X9324286Y-12770714D01*
X9295714Y-12785000D01*
X9424286Y-12956429D02*
X9395714Y-12970714D01*
X9324286Y-12970714D01*
X9295714Y-12956429D01*
X9281428Y-12927857D01*
X9281428Y-12899286D01*
X9295714Y-12870714D01*
X9324286Y-12856429D01*
X9395714Y-12856429D01*
X9424286Y-12842143D01*
X9567143Y-12770714D02*
X9567143Y-13070714D01*
X9567143Y-12785000D02*
X9595714Y-12770714D01*
X9652857Y-12770714D01*
X9681428Y-12785000D01*
X9695714Y-12799286D01*
X9710000Y-12827857D01*
X9710000Y-12913571D01*
X9695714Y-12942143D01*
X9681428Y-12956429D01*
X9652857Y-12970714D01*
X9595714Y-12970714D01*
X9567143Y-12956429D01*
X9838571Y-12942143D02*
X9852857Y-12956429D01*
X9838571Y-12970714D01*
X9824286Y-12956429D01*
X9838571Y-12942143D01*
X9838571Y-12970714D01*
X9838571Y-12785000D02*
X9852857Y-12799286D01*
X9838571Y-12813571D01*
X9824286Y-12799286D01*
X9838571Y-12785000D01*
X9838571Y-12813571D01*
X7455000Y-13445000D02*
X7495000Y-13485000D01*
X7495000Y-13445000D02*
X7455000Y-13485000D01*
X7838571Y-13300714D02*
X7867143Y-13300714D01*
X7895714Y-13315000D01*
X7910000Y-13329286D01*
X7924286Y-13357857D01*
X7938571Y-13415000D01*
X7938571Y-13486429D01*
X7924286Y-13543571D01*
X7910000Y-13572143D01*
X7895714Y-13586429D01*
X7867143Y-13600714D01*
X7838571Y-13600714D01*
X7810000Y-13586429D01*
X7795714Y-13572143D01*
X7781428Y-13543571D01*
X7767143Y-13486429D01*
X7767143Y-13415000D01*
X7781428Y-13357857D01*
X7795714Y-13329286D01*
X7810000Y-13315000D01*
X7838571Y-13300714D01*
X8067143Y-13572143D02*
X8081428Y-13586429D01*
X8067143Y-13600714D01*
X8052857Y-13586429D01*
X8067143Y-13572143D01*
X8067143Y-13600714D01*
X8338571Y-13400714D02*
X8338571Y-13600714D01*
X8267143Y-13286429D02*
X8195714Y-13500714D01*
X8381428Y-13500714D01*
X8552857Y-13300714D02*
X8581428Y-13300714D01*
X8610000Y-13315000D01*
X8624286Y-13329286D01*
X8638571Y-13357857D01*
X8652857Y-13415000D01*
X8652857Y-13486429D01*
X8638571Y-13543571D01*
X8624286Y-13572143D01*
X8610000Y-13586429D01*
X8581428Y-13600714D01*
X8552857Y-13600714D01*
X8524286Y-13586429D01*
X8510000Y-13572143D01*
X8495714Y-13543571D01*
X8481428Y-13486429D01*
X8481428Y-13415000D01*
X8495714Y-13357857D01*
X8510000Y-13329286D01*
X8524286Y-13315000D01*
X8552857Y-13300714D01*
X8781428Y-13600714D02*
X8781428Y-13400714D01*
X8781428Y-13429286D02*
X8795714Y-13415000D01*
X8824286Y-13400714D01*
X8867143Y-13400714D01*
X8895714Y-13415000D01*
X8910000Y-13443571D01*
X8910000Y-13600714D01*
X8910000Y-13443571D02*
X8924286Y-13415000D01*
X8952857Y-13400714D01*
X8995714Y-13400714D01*
X9024286Y-13415000D01*
X9038571Y-13443571D01*
X9038571Y-13600714D01*
X9181428Y-13600714D02*
X9181428Y-13400714D01*
X9181428Y-13429286D02*
X9195714Y-13415000D01*
X9224286Y-13400714D01*
X9267143Y-13400714D01*
X9295714Y-13415000D01*
X9310000Y-13443571D01*
X9310000Y-13600714D01*
X9310000Y-13443571D02*
X9324286Y-13415000D01*
X9352857Y-13400714D01*
X9395714Y-13400714D01*
X9424286Y-13415000D01*
X9438571Y-13443571D01*
X9438571Y-13600714D01*
X10024286Y-13286429D02*
X9767143Y-13672143D01*
X10410000Y-13300714D02*
X10438571Y-13300714D01*
X10467143Y-13315000D01*
X10481428Y-13329286D01*
X10495714Y-13357857D01*
X10510000Y-13415000D01*
X10510000Y-13486429D01*
X10495714Y-13543571D01*
X10481428Y-13572143D01*
X10467143Y-13586429D01*
X10438571Y-13600714D01*
X10410000Y-13600714D01*
X10381428Y-13586429D01*
X10367143Y-13572143D01*
X10352857Y-13543571D01*
X10338571Y-13486429D01*
X10338571Y-13415000D01*
X10352857Y-13357857D01*
X10367143Y-13329286D01*
X10381428Y-13315000D01*
X10410000Y-13300714D01*
X10638571Y-13572143D02*
X10652857Y-13586429D01*
X10638571Y-13600714D01*
X10624286Y-13586429D01*
X10638571Y-13572143D01*
X10638571Y-13600714D01*
X10838571Y-13300714D02*
X10867143Y-13300714D01*
X10895714Y-13315000D01*
X10910000Y-13329286D01*
X10924286Y-13357857D01*
X10938571Y-13415000D01*
X10938571Y-13486429D01*
X10924286Y-13543571D01*
X10910000Y-13572143D01*
X10895714Y-13586429D01*
X10867143Y-13600714D01*
X10838571Y-13600714D01*
X10810000Y-13586429D01*
X10795714Y-13572143D01*
X10781428Y-13543571D01*
X10767143Y-13486429D01*
X10767143Y-13415000D01*
X10781428Y-13357857D01*
X10795714Y-13329286D01*
X10810000Y-13315000D01*
X10838571Y-13300714D01*
X11224286Y-13600714D02*
X11052857Y-13600714D01*
X11138571Y-13600714D02*
X11138571Y-13300714D01*
X11110000Y-13343571D01*
X11081428Y-13372143D01*
X11052857Y-13386429D01*
X11481428Y-13300714D02*
X11424286Y-13300714D01*
X11395714Y-13315000D01*
X11381428Y-13329286D01*
X11352857Y-13372143D01*
X11338571Y-13429286D01*
X11338571Y-13543571D01*
X11352857Y-13572143D01*
X11367143Y-13586429D01*
X11395714Y-13600714D01*
X11452857Y-13600714D01*
X11481428Y-13586429D01*
X11495714Y-13572143D01*
X11510000Y-13543571D01*
X11510000Y-13472143D01*
X11495714Y-13443571D01*
X11481428Y-13429286D01*
X11452857Y-13415000D01*
X11395714Y-13415000D01*
X11367143Y-13429286D01*
X11352857Y-13443571D01*
X11338571Y-13472143D01*
X11624286Y-13300714D02*
X11624286Y-13357857D01*
X11738571Y-13300714D02*
X11738571Y-13357857D01*
X12181428Y-13715000D02*
X12167143Y-13700714D01*
X12138571Y-13657857D01*
X12124286Y-13629286D01*
X12110000Y-13586429D01*
X12095714Y-13515000D01*
X12095714Y-13457857D01*
X12110000Y-13386429D01*
X12124286Y-13343571D01*
X12138571Y-13315000D01*
X12167143Y-13272143D01*
X12181428Y-13257857D01*
X12452857Y-13600714D02*
X12281428Y-13600714D01*
X12367143Y-13600714D02*
X12367143Y-13300714D01*
X12338571Y-13343571D01*
X12310000Y-13372143D01*
X12281428Y-13386429D01*
X12552857Y-13300714D02*
X12738571Y-13300714D01*
X12638571Y-13415000D01*
X12681428Y-13415000D01*
X12710000Y-13429286D01*
X12724286Y-13443571D01*
X12738571Y-13472143D01*
X12738571Y-13543571D01*
X12724286Y-13572143D01*
X12710000Y-13586429D01*
X12681428Y-13600714D01*
X12595714Y-13600714D01*
X12567143Y-13586429D01*
X12552857Y-13572143D01*
X13095714Y-13600714D02*
X13095714Y-13300714D01*
X13224286Y-13600714D02*
X13224286Y-13443571D01*
X13210000Y-13415000D01*
X13181428Y-13400714D01*
X13138571Y-13400714D01*
X13110000Y-13415000D01*
X13095714Y-13429286D01*
X13410000Y-13600714D02*
X13381428Y-13586429D01*
X13367143Y-13572143D01*
X13352857Y-13543571D01*
X13352857Y-13457857D01*
X13367143Y-13429286D01*
X13381428Y-13415000D01*
X13410000Y-13400714D01*
X13452857Y-13400714D01*
X13481428Y-13415000D01*
X13495714Y-13429286D01*
X13510000Y-13457857D01*
X13510000Y-13543571D01*
X13495714Y-13572143D01*
X13481428Y-13586429D01*
X13452857Y-13600714D01*
X13410000Y-13600714D01*
X13681428Y-13600714D02*
X13652857Y-13586429D01*
X13638571Y-13557857D01*
X13638571Y-13300714D01*
X13910000Y-13586429D02*
X13881428Y-13600714D01*
X13824286Y-13600714D01*
X13795714Y-13586429D01*
X13781428Y-13557857D01*
X13781428Y-13443571D01*
X13795714Y-13415000D01*
X13824286Y-13400714D01*
X13881428Y-13400714D01*
X13910000Y-13415000D01*
X13924286Y-13443571D01*
X13924286Y-13472143D01*
X13781428Y-13500714D01*
X14038571Y-13586429D02*
X14067143Y-13600714D01*
X14124286Y-13600714D01*
X14152857Y-13586429D01*
X14167143Y-13557857D01*
X14167143Y-13543571D01*
X14152857Y-13515000D01*
X14124286Y-13500714D01*
X14081428Y-13500714D01*
X14052857Y-13486429D01*
X14038571Y-13457857D01*
X14038571Y-13443571D01*
X14052857Y-13415000D01*
X14081428Y-13400714D01*
X14124286Y-13400714D01*
X14152857Y-13415000D01*
X14267143Y-13715000D02*
X14281428Y-13700714D01*
X14310000Y-13657857D01*
X14324286Y-13629286D01*
X14338571Y-13586429D01*
X14352857Y-13515000D01*
X14352857Y-13457857D01*
X14338571Y-13386429D01*
X14324286Y-13343571D01*
X14310000Y-13315000D01*
X14281428Y-13272143D01*
X14267143Y-13257857D01*
X7495000Y-13861000D02*
G75*
G03X7495000Y-13861000I-25000J0D01*
G01*
X7838571Y-13696714D02*
X7867143Y-13696714D01*
X7895714Y-13711000D01*
X7910000Y-13725286D01*
X7924286Y-13753857D01*
X7938571Y-13811000D01*
X7938571Y-13882429D01*
X7924286Y-13939571D01*
X7910000Y-13968143D01*
X7895714Y-13982429D01*
X7867143Y-13996714D01*
X7838571Y-13996714D01*
X7810000Y-13982429D01*
X7795714Y-13968143D01*
X7781428Y-13939571D01*
X7767143Y-13882429D01*
X7767143Y-13811000D01*
X7781428Y-13753857D01*
X7795714Y-13725286D01*
X7810000Y-13711000D01*
X7838571Y-13696714D01*
X8067143Y-13968143D02*
X8081428Y-13982429D01*
X8067143Y-13996714D01*
X8052857Y-13982429D01*
X8067143Y-13968143D01*
X8067143Y-13996714D01*
X8352857Y-13696714D02*
X8210000Y-13696714D01*
X8195714Y-13839571D01*
X8210000Y-13825286D01*
X8238571Y-13811000D01*
X8310000Y-13811000D01*
X8338571Y-13825286D01*
X8352857Y-13839571D01*
X8367143Y-13868143D01*
X8367143Y-13939571D01*
X8352857Y-13968143D01*
X8338571Y-13982429D01*
X8310000Y-13996714D01*
X8238571Y-13996714D01*
X8210000Y-13982429D01*
X8195714Y-13968143D01*
X8552857Y-13696714D02*
X8581428Y-13696714D01*
X8610000Y-13711000D01*
X8624286Y-13725286D01*
X8638571Y-13753857D01*
X8652857Y-13811000D01*
X8652857Y-13882429D01*
X8638571Y-13939571D01*
X8624286Y-13968143D01*
X8610000Y-13982429D01*
X8581428Y-13996714D01*
X8552857Y-13996714D01*
X8524286Y-13982429D01*
X8510000Y-13968143D01*
X8495714Y-13939571D01*
X8481428Y-13882429D01*
X8481428Y-13811000D01*
X8495714Y-13753857D01*
X8510000Y-13725286D01*
X8524286Y-13711000D01*
X8552857Y-13696714D01*
X8781428Y-13996714D02*
X8781428Y-13796714D01*
X8781428Y-13825286D02*
X8795714Y-13811000D01*
X8824286Y-13796714D01*
X8867143Y-13796714D01*
X8895714Y-13811000D01*
X8910000Y-13839571D01*
X8910000Y-13996714D01*
X8910000Y-13839571D02*
X8924286Y-13811000D01*
X8952857Y-13796714D01*
X8995714Y-13796714D01*
X9024286Y-13811000D01*
X9038571Y-13839571D01*
X9038571Y-13996714D01*
X9181428Y-13996714D02*
X9181428Y-13796714D01*
X9181428Y-13825286D02*
X9195714Y-13811000D01*
X9224286Y-13796714D01*
X9267143Y-13796714D01*
X9295714Y-13811000D01*
X9310000Y-13839571D01*
X9310000Y-13996714D01*
X9310000Y-13839571D02*
X9324286Y-13811000D01*
X9352857Y-13796714D01*
X9395714Y-13796714D01*
X9424286Y-13811000D01*
X9438571Y-13839571D01*
X9438571Y-13996714D01*
X10024286Y-13682429D02*
X9767143Y-14068143D01*
X10410000Y-13696714D02*
X10438571Y-13696714D01*
X10467143Y-13711000D01*
X10481428Y-13725286D01*
X10495714Y-13753857D01*
X10510000Y-13811000D01*
X10510000Y-13882429D01*
X10495714Y-13939571D01*
X10481428Y-13968143D01*
X10467143Y-13982429D01*
X10438571Y-13996714D01*
X10410000Y-13996714D01*
X10381428Y-13982429D01*
X10367143Y-13968143D01*
X10352857Y-13939571D01*
X10338571Y-13882429D01*
X10338571Y-13811000D01*
X10352857Y-13753857D01*
X10367143Y-13725286D01*
X10381428Y-13711000D01*
X10410000Y-13696714D01*
X10638571Y-13968143D02*
X10652857Y-13982429D01*
X10638571Y-13996714D01*
X10624286Y-13982429D01*
X10638571Y-13968143D01*
X10638571Y-13996714D01*
X10838571Y-13696714D02*
X10867143Y-13696714D01*
X10895714Y-13711000D01*
X10910000Y-13725286D01*
X10924286Y-13753857D01*
X10938571Y-13811000D01*
X10938571Y-13882429D01*
X10924286Y-13939571D01*
X10910000Y-13968143D01*
X10895714Y-13982429D01*
X10867143Y-13996714D01*
X10838571Y-13996714D01*
X10810000Y-13982429D01*
X10795714Y-13968143D01*
X10781428Y-13939571D01*
X10767143Y-13882429D01*
X10767143Y-13811000D01*
X10781428Y-13753857D01*
X10795714Y-13725286D01*
X10810000Y-13711000D01*
X10838571Y-13696714D01*
X11052857Y-13725286D02*
X11067143Y-13711000D01*
X11095714Y-13696714D01*
X11167143Y-13696714D01*
X11195714Y-13711000D01*
X11210000Y-13725286D01*
X11224286Y-13753857D01*
X11224286Y-13782429D01*
X11210000Y-13825286D01*
X11038571Y-13996714D01*
X11224286Y-13996714D01*
X11410000Y-13696714D02*
X11438571Y-13696714D01*
X11467143Y-13711000D01*
X11481428Y-13725286D01*
X11495714Y-13753857D01*
X11510000Y-13811000D01*
X11510000Y-13882429D01*
X11495714Y-13939571D01*
X11481428Y-13968143D01*
X11467143Y-13982429D01*
X11438571Y-13996714D01*
X11410000Y-13996714D01*
X11381428Y-13982429D01*
X11367143Y-13968143D01*
X11352857Y-13939571D01*
X11338571Y-13882429D01*
X11338571Y-13811000D01*
X11352857Y-13753857D01*
X11367143Y-13725286D01*
X11381428Y-13711000D01*
X11410000Y-13696714D01*
X11624286Y-13696714D02*
X11624286Y-13753857D01*
X11738571Y-13696714D02*
X11738571Y-13753857D01*
X12181428Y-14111000D02*
X12167143Y-14096714D01*
X12138571Y-14053857D01*
X12124286Y-14025286D01*
X12110000Y-13982429D01*
X12095714Y-13911000D01*
X12095714Y-13853857D01*
X12110000Y-13782429D01*
X12124286Y-13739571D01*
X12138571Y-13711000D01*
X12167143Y-13668143D01*
X12181428Y-13653857D01*
X12452857Y-13996714D02*
X12281428Y-13996714D01*
X12367143Y-13996714D02*
X12367143Y-13696714D01*
X12338571Y-13739571D01*
X12310000Y-13768143D01*
X12281428Y-13782429D01*
X12710000Y-13696714D02*
X12652857Y-13696714D01*
X12624286Y-13711000D01*
X12610000Y-13725286D01*
X12581428Y-13768143D01*
X12567143Y-13825286D01*
X12567143Y-13939571D01*
X12581428Y-13968143D01*
X12595714Y-13982429D01*
X12624286Y-13996714D01*
X12681428Y-13996714D01*
X12710000Y-13982429D01*
X12724286Y-13968143D01*
X12738571Y-13939571D01*
X12738571Y-13868143D01*
X12724286Y-13839571D01*
X12710000Y-13825286D01*
X12681428Y-13811000D01*
X12624286Y-13811000D01*
X12595714Y-13825286D01*
X12581428Y-13839571D01*
X12567143Y-13868143D01*
X13095714Y-13996714D02*
X13095714Y-13696714D01*
X13224286Y-13996714D02*
X13224286Y-13839571D01*
X13210000Y-13811000D01*
X13181428Y-13796714D01*
X13138571Y-13796714D01*
X13110000Y-13811000D01*
X13095714Y-13825286D01*
X13410000Y-13996714D02*
X13381428Y-13982429D01*
X13367143Y-13968143D01*
X13352857Y-13939571D01*
X13352857Y-13853857D01*
X13367143Y-13825286D01*
X13381428Y-13811000D01*
X13410000Y-13796714D01*
X13452857Y-13796714D01*
X13481428Y-13811000D01*
X13495714Y-13825286D01*
X13510000Y-13853857D01*
X13510000Y-13939571D01*
X13495714Y-13968143D01*
X13481428Y-13982429D01*
X13452857Y-13996714D01*
X13410000Y-13996714D01*
X13681428Y-13996714D02*
X13652857Y-13982429D01*
X13638571Y-13953857D01*
X13638571Y-13696714D01*
X13910000Y-13982429D02*
X13881428Y-13996714D01*
X13824286Y-13996714D01*
X13795714Y-13982429D01*
X13781428Y-13953857D01*
X13781428Y-13839571D01*
X13795714Y-13811000D01*
X13824286Y-13796714D01*
X13881428Y-13796714D01*
X13910000Y-13811000D01*
X13924286Y-13839571D01*
X13924286Y-13868143D01*
X13781428Y-13896714D01*
X14038571Y-13982429D02*
X14067143Y-13996714D01*
X14124286Y-13996714D01*
X14152857Y-13982429D01*
X14167143Y-13953857D01*
X14167143Y-13939571D01*
X14152857Y-13911000D01*
X14124286Y-13896714D01*
X14081428Y-13896714D01*
X14052857Y-13882429D01*
X14038571Y-13853857D01*
X14038571Y-13839571D01*
X14052857Y-13811000D01*
X14081428Y-13796714D01*
X14124286Y-13796714D01*
X14152857Y-13811000D01*
X14267143Y-14111000D02*
X14281428Y-14096714D01*
X14310000Y-14053857D01*
X14324286Y-14025286D01*
X14338571Y-13982429D01*
X14352857Y-13911000D01*
X14352857Y-13853857D01*
X14338571Y-13782429D01*
X14324286Y-13739571D01*
X14310000Y-13711000D01*
X14281428Y-13668143D01*
X14267143Y-13653857D01*
X7460000Y-14222000D02*
X7460000Y-14292000D01*
X7425000Y-14257000D02*
X7495000Y-14257000D01*
X7838571Y-14092714D02*
X7867143Y-14092714D01*
X7895714Y-14107000D01*
X7910000Y-14121286D01*
X7924286Y-14149857D01*
X7938571Y-14207000D01*
X7938571Y-14278429D01*
X7924286Y-14335571D01*
X7910000Y-14364143D01*
X7895714Y-14378429D01*
X7867143Y-14392714D01*
X7838571Y-14392714D01*
X7810000Y-14378429D01*
X7795714Y-14364143D01*
X7781428Y-14335571D01*
X7767143Y-14278429D01*
X7767143Y-14207000D01*
X7781428Y-14149857D01*
X7795714Y-14121286D01*
X7810000Y-14107000D01*
X7838571Y-14092714D01*
X8067143Y-14364143D02*
X8081428Y-14378429D01*
X8067143Y-14392714D01*
X8052857Y-14378429D01*
X8067143Y-14364143D01*
X8067143Y-14392714D01*
X8181428Y-14092714D02*
X8381428Y-14092714D01*
X8252857Y-14392714D01*
X8552857Y-14092714D02*
X8581428Y-14092714D01*
X8610000Y-14107000D01*
X8624286Y-14121286D01*
X8638571Y-14149857D01*
X8652857Y-14207000D01*
X8652857Y-14278429D01*
X8638571Y-14335571D01*
X8624286Y-14364143D01*
X8610000Y-14378429D01*
X8581428Y-14392714D01*
X8552857Y-14392714D01*
X8524286Y-14378429D01*
X8510000Y-14364143D01*
X8495714Y-14335571D01*
X8481428Y-14278429D01*
X8481428Y-14207000D01*
X8495714Y-14149857D01*
X8510000Y-14121286D01*
X8524286Y-14107000D01*
X8552857Y-14092714D01*
X8781428Y-14392714D02*
X8781428Y-14192714D01*
X8781428Y-14221286D02*
X8795714Y-14207000D01*
X8824286Y-14192714D01*
X8867143Y-14192714D01*
X8895714Y-14207000D01*
X8910000Y-14235571D01*
X8910000Y-14392714D01*
X8910000Y-14235571D02*
X8924286Y-14207000D01*
X8952857Y-14192714D01*
X8995714Y-14192714D01*
X9024286Y-14207000D01*
X9038571Y-14235571D01*
X9038571Y-14392714D01*
X9181428Y-14392714D02*
X9181428Y-14192714D01*
X9181428Y-14221286D02*
X9195714Y-14207000D01*
X9224286Y-14192714D01*
X9267143Y-14192714D01*
X9295714Y-14207000D01*
X9310000Y-14235571D01*
X9310000Y-14392714D01*
X9310000Y-14235571D02*
X9324286Y-14207000D01*
X9352857Y-14192714D01*
X9395714Y-14192714D01*
X9424286Y-14207000D01*
X9438571Y-14235571D01*
X9438571Y-14392714D01*
X10024286Y-14078429D02*
X9767143Y-14464143D01*
X10410000Y-14092714D02*
X10438571Y-14092714D01*
X10467143Y-14107000D01*
X10481428Y-14121286D01*
X10495714Y-14149857D01*
X10510000Y-14207000D01*
X10510000Y-14278429D01*
X10495714Y-14335571D01*
X10481428Y-14364143D01*
X10467143Y-14378429D01*
X10438571Y-14392714D01*
X10410000Y-14392714D01*
X10381428Y-14378429D01*
X10367143Y-14364143D01*
X10352857Y-14335571D01*
X10338571Y-14278429D01*
X10338571Y-14207000D01*
X10352857Y-14149857D01*
X10367143Y-14121286D01*
X10381428Y-14107000D01*
X10410000Y-14092714D01*
X10638571Y-14364143D02*
X10652857Y-14378429D01*
X10638571Y-14392714D01*
X10624286Y-14378429D01*
X10638571Y-14364143D01*
X10638571Y-14392714D01*
X10838571Y-14092714D02*
X10867143Y-14092714D01*
X10895714Y-14107000D01*
X10910000Y-14121286D01*
X10924286Y-14149857D01*
X10938571Y-14207000D01*
X10938571Y-14278429D01*
X10924286Y-14335571D01*
X10910000Y-14364143D01*
X10895714Y-14378429D01*
X10867143Y-14392714D01*
X10838571Y-14392714D01*
X10810000Y-14378429D01*
X10795714Y-14364143D01*
X10781428Y-14335571D01*
X10767143Y-14278429D01*
X10767143Y-14207000D01*
X10781428Y-14149857D01*
X10795714Y-14121286D01*
X10810000Y-14107000D01*
X10838571Y-14092714D01*
X11052857Y-14121286D02*
X11067143Y-14107000D01*
X11095714Y-14092714D01*
X11167143Y-14092714D01*
X11195714Y-14107000D01*
X11210000Y-14121286D01*
X11224286Y-14149857D01*
X11224286Y-14178429D01*
X11210000Y-14221286D01*
X11038571Y-14392714D01*
X11224286Y-14392714D01*
X11395714Y-14221286D02*
X11367143Y-14207000D01*
X11352857Y-14192714D01*
X11338571Y-14164143D01*
X11338571Y-14149857D01*
X11352857Y-14121286D01*
X11367143Y-14107000D01*
X11395714Y-14092714D01*
X11452857Y-14092714D01*
X11481428Y-14107000D01*
X11495714Y-14121286D01*
X11510000Y-14149857D01*
X11510000Y-14164143D01*
X11495714Y-14192714D01*
X11481428Y-14207000D01*
X11452857Y-14221286D01*
X11395714Y-14221286D01*
X11367143Y-14235571D01*
X11352857Y-14249857D01*
X11338571Y-14278429D01*
X11338571Y-14335571D01*
X11352857Y-14364143D01*
X11367143Y-14378429D01*
X11395714Y-14392714D01*
X11452857Y-14392714D01*
X11481428Y-14378429D01*
X11495714Y-14364143D01*
X11510000Y-14335571D01*
X11510000Y-14278429D01*
X11495714Y-14249857D01*
X11481428Y-14235571D01*
X11452857Y-14221286D01*
X11624286Y-14092714D02*
X11624286Y-14149857D01*
X11738571Y-14092714D02*
X11738571Y-14149857D01*
X12181428Y-14507000D02*
X12167143Y-14492714D01*
X12138571Y-14449857D01*
X12124286Y-14421286D01*
X12110000Y-14378429D01*
X12095714Y-14307000D01*
X12095714Y-14249857D01*
X12110000Y-14178429D01*
X12124286Y-14135571D01*
X12138571Y-14107000D01*
X12167143Y-14064143D01*
X12181428Y-14049857D01*
X12424286Y-14192714D02*
X12424286Y-14392714D01*
X12352857Y-14078429D02*
X12281428Y-14292714D01*
X12467143Y-14292714D01*
X12810000Y-14392714D02*
X12810000Y-14092714D01*
X12938571Y-14392714D02*
X12938571Y-14235571D01*
X12924286Y-14207000D01*
X12895714Y-14192714D01*
X12852857Y-14192714D01*
X12824286Y-14207000D01*
X12810000Y-14221286D01*
X13124286Y-14392714D02*
X13095714Y-14378429D01*
X13081428Y-14364143D01*
X13067143Y-14335571D01*
X13067143Y-14249857D01*
X13081428Y-14221286D01*
X13095714Y-14207000D01*
X13124286Y-14192714D01*
X13167143Y-14192714D01*
X13195714Y-14207000D01*
X13210000Y-14221286D01*
X13224286Y-14249857D01*
X13224286Y-14335571D01*
X13210000Y-14364143D01*
X13195714Y-14378429D01*
X13167143Y-14392714D01*
X13124286Y-14392714D01*
X13395714Y-14392714D02*
X13367143Y-14378429D01*
X13352857Y-14349857D01*
X13352857Y-14092714D01*
X13624286Y-14378429D02*
X13595714Y-14392714D01*
X13538571Y-14392714D01*
X13510000Y-14378429D01*
X13495714Y-14349857D01*
X13495714Y-14235571D01*
X13510000Y-14207000D01*
X13538571Y-14192714D01*
X13595714Y-14192714D01*
X13624286Y-14207000D01*
X13638571Y-14235571D01*
X13638571Y-14264143D01*
X13495714Y-14292714D01*
X13752857Y-14378429D02*
X13781428Y-14392714D01*
X13838571Y-14392714D01*
X13867143Y-14378429D01*
X13881428Y-14349857D01*
X13881428Y-14335571D01*
X13867143Y-14307000D01*
X13838571Y-14292714D01*
X13795714Y-14292714D01*
X13767143Y-14278429D01*
X13752857Y-14249857D01*
X13752857Y-14235571D01*
X13767143Y-14207000D01*
X13795714Y-14192714D01*
X13838571Y-14192714D01*
X13867143Y-14207000D01*
X13981428Y-14507000D02*
X13995714Y-14492714D01*
X14024286Y-14449857D01*
X14038571Y-14421286D01*
X14052857Y-14378429D01*
X14067143Y-14307000D01*
X14067143Y-14249857D01*
X14052857Y-14178429D01*
X14038571Y-14135571D01*
X14024286Y-14107000D01*
X13995714Y-14064143D01*
X13981428Y-14049857D01*
X7481820Y-14684820D02*
X7481820Y-14621180D01*
X7418180Y-14621180D01*
X7418180Y-14684820D01*
X7481820Y-14684820D01*
X7838571Y-14488714D02*
X7867143Y-14488714D01*
X7895714Y-14503000D01*
X7910000Y-14517286D01*
X7924286Y-14545857D01*
X7938571Y-14603000D01*
X7938571Y-14674429D01*
X7924286Y-14731571D01*
X7910000Y-14760143D01*
X7895714Y-14774429D01*
X7867143Y-14788714D01*
X7838571Y-14788714D01*
X7810000Y-14774429D01*
X7795714Y-14760143D01*
X7781428Y-14731571D01*
X7767143Y-14674429D01*
X7767143Y-14603000D01*
X7781428Y-14545857D01*
X7795714Y-14517286D01*
X7810000Y-14503000D01*
X7838571Y-14488714D01*
X8067143Y-14760143D02*
X8081428Y-14774429D01*
X8067143Y-14788714D01*
X8052857Y-14774429D01*
X8067143Y-14760143D01*
X8067143Y-14788714D01*
X8224286Y-14788714D02*
X8281428Y-14788714D01*
X8310000Y-14774429D01*
X8324286Y-14760143D01*
X8352857Y-14717286D01*
X8367143Y-14660143D01*
X8367143Y-14545857D01*
X8352857Y-14517286D01*
X8338571Y-14503000D01*
X8310000Y-14488714D01*
X8252857Y-14488714D01*
X8224286Y-14503000D01*
X8210000Y-14517286D01*
X8195714Y-14545857D01*
X8195714Y-14617286D01*
X8210000Y-14645857D01*
X8224286Y-14660143D01*
X8252857Y-14674429D01*
X8310000Y-14674429D01*
X8338571Y-14660143D01*
X8352857Y-14645857D01*
X8367143Y-14617286D01*
X8552857Y-14488714D02*
X8581428Y-14488714D01*
X8610000Y-14503000D01*
X8624286Y-14517286D01*
X8638571Y-14545857D01*
X8652857Y-14603000D01*
X8652857Y-14674429D01*
X8638571Y-14731571D01*
X8624286Y-14760143D01*
X8610000Y-14774429D01*
X8581428Y-14788714D01*
X8552857Y-14788714D01*
X8524286Y-14774429D01*
X8510000Y-14760143D01*
X8495714Y-14731571D01*
X8481428Y-14674429D01*
X8481428Y-14603000D01*
X8495714Y-14545857D01*
X8510000Y-14517286D01*
X8524286Y-14503000D01*
X8552857Y-14488714D01*
X8781428Y-14788714D02*
X8781428Y-14588714D01*
X8781428Y-14617286D02*
X8795714Y-14603000D01*
X8824286Y-14588714D01*
X8867143Y-14588714D01*
X8895714Y-14603000D01*
X8910000Y-14631571D01*
X8910000Y-14788714D01*
X8910000Y-14631571D02*
X8924286Y-14603000D01*
X8952857Y-14588714D01*
X8995714Y-14588714D01*
X9024286Y-14603000D01*
X9038571Y-14631571D01*
X9038571Y-14788714D01*
X9181428Y-14788714D02*
X9181428Y-14588714D01*
X9181428Y-14617286D02*
X9195714Y-14603000D01*
X9224286Y-14588714D01*
X9267143Y-14588714D01*
X9295714Y-14603000D01*
X9310000Y-14631571D01*
X9310000Y-14788714D01*
X9310000Y-14631571D02*
X9324286Y-14603000D01*
X9352857Y-14588714D01*
X9395714Y-14588714D01*
X9424286Y-14603000D01*
X9438571Y-14631571D01*
X9438571Y-14788714D01*
X10024286Y-14474429D02*
X9767143Y-14860143D01*
X10410000Y-14488714D02*
X10438571Y-14488714D01*
X10467143Y-14503000D01*
X10481428Y-14517286D01*
X10495714Y-14545857D01*
X10510000Y-14603000D01*
X10510000Y-14674429D01*
X10495714Y-14731571D01*
X10481428Y-14760143D01*
X10467143Y-14774429D01*
X10438571Y-14788714D01*
X10410000Y-14788714D01*
X10381428Y-14774429D01*
X10367143Y-14760143D01*
X10352857Y-14731571D01*
X10338571Y-14674429D01*
X10338571Y-14603000D01*
X10352857Y-14545857D01*
X10367143Y-14517286D01*
X10381428Y-14503000D01*
X10410000Y-14488714D01*
X10638571Y-14760143D02*
X10652857Y-14774429D01*
X10638571Y-14788714D01*
X10624286Y-14774429D01*
X10638571Y-14760143D01*
X10638571Y-14788714D01*
X10838571Y-14488714D02*
X10867143Y-14488714D01*
X10895714Y-14503000D01*
X10910000Y-14517286D01*
X10924286Y-14545857D01*
X10938571Y-14603000D01*
X10938571Y-14674429D01*
X10924286Y-14731571D01*
X10910000Y-14760143D01*
X10895714Y-14774429D01*
X10867143Y-14788714D01*
X10838571Y-14788714D01*
X10810000Y-14774429D01*
X10795714Y-14760143D01*
X10781428Y-14731571D01*
X10767143Y-14674429D01*
X10767143Y-14603000D01*
X10781428Y-14545857D01*
X10795714Y-14517286D01*
X10810000Y-14503000D01*
X10838571Y-14488714D01*
X11038571Y-14488714D02*
X11224286Y-14488714D01*
X11124286Y-14603000D01*
X11167143Y-14603000D01*
X11195714Y-14617286D01*
X11210000Y-14631571D01*
X11224286Y-14660143D01*
X11224286Y-14731571D01*
X11210000Y-14760143D01*
X11195714Y-14774429D01*
X11167143Y-14788714D01*
X11081428Y-14788714D01*
X11052857Y-14774429D01*
X11038571Y-14760143D01*
X11495714Y-14488714D02*
X11352857Y-14488714D01*
X11338571Y-14631571D01*
X11352857Y-14617286D01*
X11381428Y-14603000D01*
X11452857Y-14603000D01*
X11481428Y-14617286D01*
X11495714Y-14631571D01*
X11510000Y-14660143D01*
X11510000Y-14731571D01*
X11495714Y-14760143D01*
X11481428Y-14774429D01*
X11452857Y-14788714D01*
X11381428Y-14788714D01*
X11352857Y-14774429D01*
X11338571Y-14760143D01*
X11624286Y-14488714D02*
X11624286Y-14545857D01*
X11738571Y-14488714D02*
X11738571Y-14545857D01*
X12181428Y-14903000D02*
X12167143Y-14888714D01*
X12138571Y-14845857D01*
X12124286Y-14817286D01*
X12110000Y-14774429D01*
X12095714Y-14703000D01*
X12095714Y-14645857D01*
X12110000Y-14574429D01*
X12124286Y-14531571D01*
X12138571Y-14503000D01*
X12167143Y-14460143D01*
X12181428Y-14445857D01*
X12281428Y-14517286D02*
X12295714Y-14503000D01*
X12324286Y-14488714D01*
X12395714Y-14488714D01*
X12424286Y-14503000D01*
X12438571Y-14517286D01*
X12452857Y-14545857D01*
X12452857Y-14574429D01*
X12438571Y-14617286D01*
X12267143Y-14788714D01*
X12452857Y-14788714D01*
X12567143Y-14517286D02*
X12581428Y-14503000D01*
X12610000Y-14488714D01*
X12681428Y-14488714D01*
X12710000Y-14503000D01*
X12724286Y-14517286D01*
X12738571Y-14545857D01*
X12738571Y-14574429D01*
X12724286Y-14617286D01*
X12552857Y-14788714D01*
X12738571Y-14788714D01*
X13095714Y-14788714D02*
X13095714Y-14488714D01*
X13224286Y-14788714D02*
X13224286Y-14631571D01*
X13210000Y-14603000D01*
X13181428Y-14588714D01*
X13138571Y-14588714D01*
X13110000Y-14603000D01*
X13095714Y-14617286D01*
X13410000Y-14788714D02*
X13381428Y-14774429D01*
X13367143Y-14760143D01*
X13352857Y-14731571D01*
X13352857Y-14645857D01*
X13367143Y-14617286D01*
X13381428Y-14603000D01*
X13410000Y-14588714D01*
X13452857Y-14588714D01*
X13481428Y-14603000D01*
X13495714Y-14617286D01*
X13510000Y-14645857D01*
X13510000Y-14731571D01*
X13495714Y-14760143D01*
X13481428Y-14774429D01*
X13452857Y-14788714D01*
X13410000Y-14788714D01*
X13681428Y-14788714D02*
X13652857Y-14774429D01*
X13638571Y-14745857D01*
X13638571Y-14488714D01*
X13910000Y-14774429D02*
X13881428Y-14788714D01*
X13824286Y-14788714D01*
X13795714Y-14774429D01*
X13781428Y-14745857D01*
X13781428Y-14631571D01*
X13795714Y-14603000D01*
X13824286Y-14588714D01*
X13881428Y-14588714D01*
X13910000Y-14603000D01*
X13924286Y-14631571D01*
X13924286Y-14660143D01*
X13781428Y-14688714D01*
X14038571Y-14774429D02*
X14067143Y-14788714D01*
X14124286Y-14788714D01*
X14152857Y-14774429D01*
X14167143Y-14745857D01*
X14167143Y-14731571D01*
X14152857Y-14703000D01*
X14124286Y-14688714D01*
X14081428Y-14688714D01*
X14052857Y-14674429D01*
X14038571Y-14645857D01*
X14038571Y-14631571D01*
X14052857Y-14603000D01*
X14081428Y-14588714D01*
X14124286Y-14588714D01*
X14152857Y-14603000D01*
X14267143Y-14903000D02*
X14281428Y-14888714D01*
X14310000Y-14845857D01*
X14324286Y-14817286D01*
X14338571Y-14774429D01*
X14352857Y-14703000D01*
X14352857Y-14645857D01*
X14338571Y-14574429D01*
X14324286Y-14531571D01*
X14310000Y-14503000D01*
X14281428Y-14460143D01*
X14267143Y-14445857D01*
X7445000Y-15099000D02*
X7495000Y-15049000D01*
X7445000Y-14999000D01*
X7395000Y-15049000D01*
X7445000Y-15099000D01*
X7938571Y-15184714D02*
X7767143Y-15184714D01*
X7852857Y-15184714D02*
X7852857Y-14884714D01*
X7824286Y-14927571D01*
X7795714Y-14956143D01*
X7767143Y-14970429D01*
X8067143Y-15156143D02*
X8081428Y-15170429D01*
X8067143Y-15184714D01*
X8052857Y-15170429D01*
X8067143Y-15156143D01*
X8067143Y-15184714D01*
X8267143Y-14884714D02*
X8295714Y-14884714D01*
X8324286Y-14899000D01*
X8338571Y-14913286D01*
X8352857Y-14941857D01*
X8367143Y-14999000D01*
X8367143Y-15070429D01*
X8352857Y-15127571D01*
X8338571Y-15156143D01*
X8324286Y-15170429D01*
X8295714Y-15184714D01*
X8267143Y-15184714D01*
X8238571Y-15170429D01*
X8224286Y-15156143D01*
X8210000Y-15127571D01*
X8195714Y-15070429D01*
X8195714Y-14999000D01*
X8210000Y-14941857D01*
X8224286Y-14913286D01*
X8238571Y-14899000D01*
X8267143Y-14884714D01*
X8552857Y-14884714D02*
X8581428Y-14884714D01*
X8610000Y-14899000D01*
X8624286Y-14913286D01*
X8638571Y-14941857D01*
X8652857Y-14999000D01*
X8652857Y-15070429D01*
X8638571Y-15127571D01*
X8624286Y-15156143D01*
X8610000Y-15170429D01*
X8581428Y-15184714D01*
X8552857Y-15184714D01*
X8524286Y-15170429D01*
X8510000Y-15156143D01*
X8495714Y-15127571D01*
X8481428Y-15070429D01*
X8481428Y-14999000D01*
X8495714Y-14941857D01*
X8510000Y-14913286D01*
X8524286Y-14899000D01*
X8552857Y-14884714D01*
X8781428Y-15184714D02*
X8781428Y-14984714D01*
X8781428Y-15013286D02*
X8795714Y-14999000D01*
X8824286Y-14984714D01*
X8867143Y-14984714D01*
X8895714Y-14999000D01*
X8910000Y-15027571D01*
X8910000Y-15184714D01*
X8910000Y-15027571D02*
X8924286Y-14999000D01*
X8952857Y-14984714D01*
X8995714Y-14984714D01*
X9024286Y-14999000D01*
X9038571Y-15027571D01*
X9038571Y-15184714D01*
X9181428Y-15184714D02*
X9181428Y-14984714D01*
X9181428Y-15013286D02*
X9195714Y-14999000D01*
X9224286Y-14984714D01*
X9267143Y-14984714D01*
X9295714Y-14999000D01*
X9310000Y-15027571D01*
X9310000Y-15184714D01*
X9310000Y-15027571D02*
X9324286Y-14999000D01*
X9352857Y-14984714D01*
X9395714Y-14984714D01*
X9424286Y-14999000D01*
X9438571Y-15027571D01*
X9438571Y-15184714D01*
X10024286Y-14870429D02*
X9767143Y-15256143D01*
X10410000Y-14884714D02*
X10438571Y-14884714D01*
X10467143Y-14899000D01*
X10481428Y-14913286D01*
X10495714Y-14941857D01*
X10510000Y-14999000D01*
X10510000Y-15070429D01*
X10495714Y-15127571D01*
X10481428Y-15156143D01*
X10467143Y-15170429D01*
X10438571Y-15184714D01*
X10410000Y-15184714D01*
X10381428Y-15170429D01*
X10367143Y-15156143D01*
X10352857Y-15127571D01*
X10338571Y-15070429D01*
X10338571Y-14999000D01*
X10352857Y-14941857D01*
X10367143Y-14913286D01*
X10381428Y-14899000D01*
X10410000Y-14884714D01*
X10638571Y-15156143D02*
X10652857Y-15170429D01*
X10638571Y-15184714D01*
X10624286Y-15170429D01*
X10638571Y-15156143D01*
X10638571Y-15184714D01*
X10838571Y-14884714D02*
X10867143Y-14884714D01*
X10895714Y-14899000D01*
X10910000Y-14913286D01*
X10924286Y-14941857D01*
X10938571Y-14999000D01*
X10938571Y-15070429D01*
X10924286Y-15127571D01*
X10910000Y-15156143D01*
X10895714Y-15170429D01*
X10867143Y-15184714D01*
X10838571Y-15184714D01*
X10810000Y-15170429D01*
X10795714Y-15156143D01*
X10781428Y-15127571D01*
X10767143Y-15070429D01*
X10767143Y-14999000D01*
X10781428Y-14941857D01*
X10795714Y-14913286D01*
X10810000Y-14899000D01*
X10838571Y-14884714D01*
X11038571Y-14884714D02*
X11224286Y-14884714D01*
X11124286Y-14999000D01*
X11167143Y-14999000D01*
X11195714Y-15013286D01*
X11210000Y-15027571D01*
X11224286Y-15056143D01*
X11224286Y-15127571D01*
X11210000Y-15156143D01*
X11195714Y-15170429D01*
X11167143Y-15184714D01*
X11081428Y-15184714D01*
X11052857Y-15170429D01*
X11038571Y-15156143D01*
X11367143Y-15184714D02*
X11424286Y-15184714D01*
X11452857Y-15170429D01*
X11467143Y-15156143D01*
X11495714Y-15113286D01*
X11510000Y-15056143D01*
X11510000Y-14941857D01*
X11495714Y-14913286D01*
X11481428Y-14899000D01*
X11452857Y-14884714D01*
X11395714Y-14884714D01*
X11367143Y-14899000D01*
X11352857Y-14913286D01*
X11338571Y-14941857D01*
X11338571Y-15013286D01*
X11352857Y-15041857D01*
X11367143Y-15056143D01*
X11395714Y-15070429D01*
X11452857Y-15070429D01*
X11481428Y-15056143D01*
X11495714Y-15041857D01*
X11510000Y-15013286D01*
X11624286Y-14884714D02*
X11624286Y-14941857D01*
X11738571Y-14884714D02*
X11738571Y-14941857D01*
X12181428Y-15299000D02*
X12167143Y-15284714D01*
X12138571Y-15241857D01*
X12124286Y-15213286D01*
X12110000Y-15170429D01*
X12095714Y-15099000D01*
X12095714Y-15041857D01*
X12110000Y-14970429D01*
X12124286Y-14927571D01*
X12138571Y-14899000D01*
X12167143Y-14856143D01*
X12181428Y-14841857D01*
X12267143Y-14884714D02*
X12467143Y-14884714D01*
X12338571Y-15184714D01*
X12810000Y-15184714D02*
X12810000Y-14884714D01*
X12938571Y-15184714D02*
X12938571Y-15027571D01*
X12924286Y-14999000D01*
X12895714Y-14984714D01*
X12852857Y-14984714D01*
X12824286Y-14999000D01*
X12810000Y-15013286D01*
X13124286Y-15184714D02*
X13095714Y-15170429D01*
X13081428Y-15156143D01*
X13067143Y-15127571D01*
X13067143Y-15041857D01*
X13081428Y-15013286D01*
X13095714Y-14999000D01*
X13124286Y-14984714D01*
X13167143Y-14984714D01*
X13195714Y-14999000D01*
X13210000Y-15013286D01*
X13224286Y-15041857D01*
X13224286Y-15127571D01*
X13210000Y-15156143D01*
X13195714Y-15170429D01*
X13167143Y-15184714D01*
X13124286Y-15184714D01*
X13395714Y-15184714D02*
X13367143Y-15170429D01*
X13352857Y-15141857D01*
X13352857Y-14884714D01*
X13624286Y-15170429D02*
X13595714Y-15184714D01*
X13538571Y-15184714D01*
X13510000Y-15170429D01*
X13495714Y-15141857D01*
X13495714Y-15027571D01*
X13510000Y-14999000D01*
X13538571Y-14984714D01*
X13595714Y-14984714D01*
X13624286Y-14999000D01*
X13638571Y-15027571D01*
X13638571Y-15056143D01*
X13495714Y-15084714D01*
X13752857Y-15170429D02*
X13781428Y-15184714D01*
X13838571Y-15184714D01*
X13867143Y-15170429D01*
X13881428Y-15141857D01*
X13881428Y-15127571D01*
X13867143Y-15099000D01*
X13838571Y-15084714D01*
X13795714Y-15084714D01*
X13767143Y-15070429D01*
X13752857Y-15041857D01*
X13752857Y-15027571D01*
X13767143Y-14999000D01*
X13795714Y-14984714D01*
X13838571Y-14984714D01*
X13867143Y-14999000D01*
X13981428Y-15299000D02*
X13995714Y-15284714D01*
X14024286Y-15241857D01*
X14038571Y-15213286D01*
X14052857Y-15170429D01*
X14067143Y-15099000D01*
X14067143Y-15041857D01*
X14052857Y-14970429D01*
X14038571Y-14927571D01*
X14024286Y-14899000D01*
X13995714Y-14856143D01*
X13981428Y-14841857D01*
X7365000Y-15380000D02*
X7495000Y-15510000D01*
X7495000Y-15380000D02*
X7365000Y-15510000D01*
X7495000Y-15445000D02*
G75*
G03X7495000Y-15445000I-65000J0D01*
G01*
X7938571Y-15580714D02*
X7767143Y-15580714D01*
X7852857Y-15580714D02*
X7852857Y-15280714D01*
X7824286Y-15323571D01*
X7795714Y-15352143D01*
X7767143Y-15366429D01*
X8067143Y-15552143D02*
X8081428Y-15566429D01*
X8067143Y-15580714D01*
X8052857Y-15566429D01*
X8067143Y-15552143D01*
X8067143Y-15580714D01*
X8181428Y-15280714D02*
X8367143Y-15280714D01*
X8267143Y-15395000D01*
X8310000Y-15395000D01*
X8338571Y-15409286D01*
X8352857Y-15423571D01*
X8367143Y-15452143D01*
X8367143Y-15523571D01*
X8352857Y-15552143D01*
X8338571Y-15566429D01*
X8310000Y-15580714D01*
X8224286Y-15580714D01*
X8195714Y-15566429D01*
X8181428Y-15552143D01*
X8552857Y-15280714D02*
X8581428Y-15280714D01*
X8610000Y-15295000D01*
X8624286Y-15309286D01*
X8638571Y-15337857D01*
X8652857Y-15395000D01*
X8652857Y-15466429D01*
X8638571Y-15523571D01*
X8624286Y-15552143D01*
X8610000Y-15566429D01*
X8581428Y-15580714D01*
X8552857Y-15580714D01*
X8524286Y-15566429D01*
X8510000Y-15552143D01*
X8495714Y-15523571D01*
X8481428Y-15466429D01*
X8481428Y-15395000D01*
X8495714Y-15337857D01*
X8510000Y-15309286D01*
X8524286Y-15295000D01*
X8552857Y-15280714D01*
X8781428Y-15580714D02*
X8781428Y-15380714D01*
X8781428Y-15409286D02*
X8795714Y-15395000D01*
X8824286Y-15380714D01*
X8867143Y-15380714D01*
X8895714Y-15395000D01*
X8910000Y-15423571D01*
X8910000Y-15580714D01*
X8910000Y-15423571D02*
X8924286Y-15395000D01*
X8952857Y-15380714D01*
X8995714Y-15380714D01*
X9024286Y-15395000D01*
X9038571Y-15423571D01*
X9038571Y-15580714D01*
X9181428Y-15580714D02*
X9181428Y-15380714D01*
X9181428Y-15409286D02*
X9195714Y-15395000D01*
X9224286Y-15380714D01*
X9267143Y-15380714D01*
X9295714Y-15395000D01*
X9310000Y-15423571D01*
X9310000Y-15580714D01*
X9310000Y-15423571D02*
X9324286Y-15395000D01*
X9352857Y-15380714D01*
X9395714Y-15380714D01*
X9424286Y-15395000D01*
X9438571Y-15423571D01*
X9438571Y-15580714D01*
X10024286Y-15266429D02*
X9767143Y-15652143D01*
X10410000Y-15280714D02*
X10438571Y-15280714D01*
X10467143Y-15295000D01*
X10481428Y-15309286D01*
X10495714Y-15337857D01*
X10510000Y-15395000D01*
X10510000Y-15466429D01*
X10495714Y-15523571D01*
X10481428Y-15552143D01*
X10467143Y-15566429D01*
X10438571Y-15580714D01*
X10410000Y-15580714D01*
X10381428Y-15566429D01*
X10367143Y-15552143D01*
X10352857Y-15523571D01*
X10338571Y-15466429D01*
X10338571Y-15395000D01*
X10352857Y-15337857D01*
X10367143Y-15309286D01*
X10381428Y-15295000D01*
X10410000Y-15280714D01*
X10638571Y-15552143D02*
X10652857Y-15566429D01*
X10638571Y-15580714D01*
X10624286Y-15566429D01*
X10638571Y-15552143D01*
X10638571Y-15580714D01*
X10838571Y-15280714D02*
X10867143Y-15280714D01*
X10895714Y-15295000D01*
X10910000Y-15309286D01*
X10924286Y-15337857D01*
X10938571Y-15395000D01*
X10938571Y-15466429D01*
X10924286Y-15523571D01*
X10910000Y-15552143D01*
X10895714Y-15566429D01*
X10867143Y-15580714D01*
X10838571Y-15580714D01*
X10810000Y-15566429D01*
X10795714Y-15552143D01*
X10781428Y-15523571D01*
X10767143Y-15466429D01*
X10767143Y-15395000D01*
X10781428Y-15337857D01*
X10795714Y-15309286D01*
X10810000Y-15295000D01*
X10838571Y-15280714D01*
X11210000Y-15280714D02*
X11067143Y-15280714D01*
X11052857Y-15423571D01*
X11067143Y-15409286D01*
X11095714Y-15395000D01*
X11167143Y-15395000D01*
X11195714Y-15409286D01*
X11210000Y-15423571D01*
X11224286Y-15452143D01*
X11224286Y-15523571D01*
X11210000Y-15552143D01*
X11195714Y-15566429D01*
X11167143Y-15580714D01*
X11095714Y-15580714D01*
X11067143Y-15566429D01*
X11052857Y-15552143D01*
X11510000Y-15580714D02*
X11338571Y-15580714D01*
X11424286Y-15580714D02*
X11424286Y-15280714D01*
X11395714Y-15323571D01*
X11367143Y-15352143D01*
X11338571Y-15366429D01*
X11624286Y-15280714D02*
X11624286Y-15337857D01*
X11738571Y-15280714D02*
X11738571Y-15337857D01*
X12181428Y-15695000D02*
X12167143Y-15680714D01*
X12138571Y-15637857D01*
X12124286Y-15609286D01*
X12110000Y-15566429D01*
X12095714Y-15495000D01*
X12095714Y-15437857D01*
X12110000Y-15366429D01*
X12124286Y-15323571D01*
X12138571Y-15295000D01*
X12167143Y-15252143D01*
X12181428Y-15237857D01*
X12424286Y-15280714D02*
X12367143Y-15280714D01*
X12338571Y-15295000D01*
X12324286Y-15309286D01*
X12295714Y-15352143D01*
X12281428Y-15409286D01*
X12281428Y-15523571D01*
X12295714Y-15552143D01*
X12310000Y-15566429D01*
X12338571Y-15580714D01*
X12395714Y-15580714D01*
X12424286Y-15566429D01*
X12438571Y-15552143D01*
X12452857Y-15523571D01*
X12452857Y-15452143D01*
X12438571Y-15423571D01*
X12424286Y-15409286D01*
X12395714Y-15395000D01*
X12338571Y-15395000D01*
X12310000Y-15409286D01*
X12295714Y-15423571D01*
X12281428Y-15452143D01*
X12810000Y-15580714D02*
X12810000Y-15280714D01*
X12938571Y-15580714D02*
X12938571Y-15423571D01*
X12924286Y-15395000D01*
X12895714Y-15380714D01*
X12852857Y-15380714D01*
X12824286Y-15395000D01*
X12810000Y-15409286D01*
X13124286Y-15580714D02*
X13095714Y-15566429D01*
X13081428Y-15552143D01*
X13067143Y-15523571D01*
X13067143Y-15437857D01*
X13081428Y-15409286D01*
X13095714Y-15395000D01*
X13124286Y-15380714D01*
X13167143Y-15380714D01*
X13195714Y-15395000D01*
X13210000Y-15409286D01*
X13224286Y-15437857D01*
X13224286Y-15523571D01*
X13210000Y-15552143D01*
X13195714Y-15566429D01*
X13167143Y-15580714D01*
X13124286Y-15580714D01*
X13395714Y-15580714D02*
X13367143Y-15566429D01*
X13352857Y-15537857D01*
X13352857Y-15280714D01*
X13624286Y-15566429D02*
X13595714Y-15580714D01*
X13538571Y-15580714D01*
X13510000Y-15566429D01*
X13495714Y-15537857D01*
X13495714Y-15423571D01*
X13510000Y-15395000D01*
X13538571Y-15380714D01*
X13595714Y-15380714D01*
X13624286Y-15395000D01*
X13638571Y-15423571D01*
X13638571Y-15452143D01*
X13495714Y-15480714D01*
X13752857Y-15566429D02*
X13781428Y-15580714D01*
X13838571Y-15580714D01*
X13867143Y-15566429D01*
X13881428Y-15537857D01*
X13881428Y-15523571D01*
X13867143Y-15495000D01*
X13838571Y-15480714D01*
X13795714Y-15480714D01*
X13767143Y-15466429D01*
X13752857Y-15437857D01*
X13752857Y-15423571D01*
X13767143Y-15395000D01*
X13795714Y-15380714D01*
X13838571Y-15380714D01*
X13867143Y-15395000D01*
X13981428Y-15695000D02*
X13995714Y-15680714D01*
X14024286Y-15637857D01*
X14038571Y-15609286D01*
X14052857Y-15566429D01*
X14067143Y-15495000D01*
X14067143Y-15437857D01*
X14052857Y-15366429D01*
X14038571Y-15323571D01*
X14024286Y-15295000D01*
X13995714Y-15252143D01*
X13981428Y-15237857D01*
X7245000Y-15716000D02*
X7495000Y-15966000D01*
X7495000Y-15716000D02*
X7245000Y-15966000D01*
X7370000Y-15716000D02*
X7370000Y-15966000D01*
X7245000Y-15841000D02*
X7495000Y-15841000D01*
X7767143Y-15705286D02*
X7781428Y-15691000D01*
X7810000Y-15676714D01*
X7881428Y-15676714D01*
X7910000Y-15691000D01*
X7924286Y-15705286D01*
X7938571Y-15733857D01*
X7938571Y-15762429D01*
X7924286Y-15805286D01*
X7752857Y-15976714D01*
X7938571Y-15976714D01*
X8067143Y-15948143D02*
X8081428Y-15962429D01*
X8067143Y-15976714D01*
X8052857Y-15962429D01*
X8067143Y-15948143D01*
X8067143Y-15976714D01*
X8352857Y-15676714D02*
X8210000Y-15676714D01*
X8195714Y-15819571D01*
X8210000Y-15805286D01*
X8238571Y-15791000D01*
X8310000Y-15791000D01*
X8338571Y-15805286D01*
X8352857Y-15819571D01*
X8367143Y-15848143D01*
X8367143Y-15919571D01*
X8352857Y-15948143D01*
X8338571Y-15962429D01*
X8310000Y-15976714D01*
X8238571Y-15976714D01*
X8210000Y-15962429D01*
X8195714Y-15948143D01*
X8552857Y-15676714D02*
X8581428Y-15676714D01*
X8610000Y-15691000D01*
X8624286Y-15705286D01*
X8638571Y-15733857D01*
X8652857Y-15791000D01*
X8652857Y-15862429D01*
X8638571Y-15919571D01*
X8624286Y-15948143D01*
X8610000Y-15962429D01*
X8581428Y-15976714D01*
X8552857Y-15976714D01*
X8524286Y-15962429D01*
X8510000Y-15948143D01*
X8495714Y-15919571D01*
X8481428Y-15862429D01*
X8481428Y-15791000D01*
X8495714Y-15733857D01*
X8510000Y-15705286D01*
X8524286Y-15691000D01*
X8552857Y-15676714D01*
X8781428Y-15976714D02*
X8781428Y-15776714D01*
X8781428Y-15805286D02*
X8795714Y-15791000D01*
X8824286Y-15776714D01*
X8867143Y-15776714D01*
X8895714Y-15791000D01*
X8910000Y-15819571D01*
X8910000Y-15976714D01*
X8910000Y-15819571D02*
X8924286Y-15791000D01*
X8952857Y-15776714D01*
X8995714Y-15776714D01*
X9024286Y-15791000D01*
X9038571Y-15819571D01*
X9038571Y-15976714D01*
X9181428Y-15976714D02*
X9181428Y-15776714D01*
X9181428Y-15805286D02*
X9195714Y-15791000D01*
X9224286Y-15776714D01*
X9267143Y-15776714D01*
X9295714Y-15791000D01*
X9310000Y-15819571D01*
X9310000Y-15976714D01*
X9310000Y-15819571D02*
X9324286Y-15791000D01*
X9352857Y-15776714D01*
X9395714Y-15776714D01*
X9424286Y-15791000D01*
X9438571Y-15819571D01*
X9438571Y-15976714D01*
X10024286Y-15662429D02*
X9767143Y-16048143D01*
X10410000Y-15676714D02*
X10438571Y-15676714D01*
X10467143Y-15691000D01*
X10481428Y-15705286D01*
X10495714Y-15733857D01*
X10510000Y-15791000D01*
X10510000Y-15862429D01*
X10495714Y-15919571D01*
X10481428Y-15948143D01*
X10467143Y-15962429D01*
X10438571Y-15976714D01*
X10410000Y-15976714D01*
X10381428Y-15962429D01*
X10367143Y-15948143D01*
X10352857Y-15919571D01*
X10338571Y-15862429D01*
X10338571Y-15791000D01*
X10352857Y-15733857D01*
X10367143Y-15705286D01*
X10381428Y-15691000D01*
X10410000Y-15676714D01*
X10638571Y-15948143D02*
X10652857Y-15962429D01*
X10638571Y-15976714D01*
X10624286Y-15962429D01*
X10638571Y-15948143D01*
X10638571Y-15976714D01*
X10838571Y-15676714D02*
X10867143Y-15676714D01*
X10895714Y-15691000D01*
X10910000Y-15705286D01*
X10924286Y-15733857D01*
X10938571Y-15791000D01*
X10938571Y-15862429D01*
X10924286Y-15919571D01*
X10910000Y-15948143D01*
X10895714Y-15962429D01*
X10867143Y-15976714D01*
X10838571Y-15976714D01*
X10810000Y-15962429D01*
X10795714Y-15948143D01*
X10781428Y-15919571D01*
X10767143Y-15862429D01*
X10767143Y-15791000D01*
X10781428Y-15733857D01*
X10795714Y-15705286D01*
X10810000Y-15691000D01*
X10838571Y-15676714D01*
X11081428Y-15976714D02*
X11138571Y-15976714D01*
X11167143Y-15962429D01*
X11181428Y-15948143D01*
X11210000Y-15905286D01*
X11224286Y-15848143D01*
X11224286Y-15733857D01*
X11210000Y-15705286D01*
X11195714Y-15691000D01*
X11167143Y-15676714D01*
X11110000Y-15676714D01*
X11081428Y-15691000D01*
X11067143Y-15705286D01*
X11052857Y-15733857D01*
X11052857Y-15805286D01*
X11067143Y-15833857D01*
X11081428Y-15848143D01*
X11110000Y-15862429D01*
X11167143Y-15862429D01*
X11195714Y-15848143D01*
X11210000Y-15833857D01*
X11224286Y-15805286D01*
X11395714Y-15805286D02*
X11367143Y-15791000D01*
X11352857Y-15776714D01*
X11338571Y-15748143D01*
X11338571Y-15733857D01*
X11352857Y-15705286D01*
X11367143Y-15691000D01*
X11395714Y-15676714D01*
X11452857Y-15676714D01*
X11481428Y-15691000D01*
X11495714Y-15705286D01*
X11510000Y-15733857D01*
X11510000Y-15748143D01*
X11495714Y-15776714D01*
X11481428Y-15791000D01*
X11452857Y-15805286D01*
X11395714Y-15805286D01*
X11367143Y-15819571D01*
X11352857Y-15833857D01*
X11338571Y-15862429D01*
X11338571Y-15919571D01*
X11352857Y-15948143D01*
X11367143Y-15962429D01*
X11395714Y-15976714D01*
X11452857Y-15976714D01*
X11481428Y-15962429D01*
X11495714Y-15948143D01*
X11510000Y-15919571D01*
X11510000Y-15862429D01*
X11495714Y-15833857D01*
X11481428Y-15819571D01*
X11452857Y-15805286D01*
X11624286Y-15676714D02*
X11624286Y-15733857D01*
X11738571Y-15676714D02*
X11738571Y-15733857D01*
X12181428Y-16091000D02*
X12167143Y-16076714D01*
X12138571Y-16033857D01*
X12124286Y-16005286D01*
X12110000Y-15962429D01*
X12095714Y-15891000D01*
X12095714Y-15833857D01*
X12110000Y-15762429D01*
X12124286Y-15719571D01*
X12138571Y-15691000D01*
X12167143Y-15648143D01*
X12181428Y-15633857D01*
X12281428Y-15705286D02*
X12295714Y-15691000D01*
X12324286Y-15676714D01*
X12395714Y-15676714D01*
X12424286Y-15691000D01*
X12438571Y-15705286D01*
X12452857Y-15733857D01*
X12452857Y-15762429D01*
X12438571Y-15805286D01*
X12267143Y-15976714D01*
X12452857Y-15976714D01*
X12810000Y-15976714D02*
X12810000Y-15676714D01*
X12938571Y-15976714D02*
X12938571Y-15819571D01*
X12924286Y-15791000D01*
X12895714Y-15776714D01*
X12852857Y-15776714D01*
X12824286Y-15791000D01*
X12810000Y-15805286D01*
X13124286Y-15976714D02*
X13095714Y-15962429D01*
X13081428Y-15948143D01*
X13067143Y-15919571D01*
X13067143Y-15833857D01*
X13081428Y-15805286D01*
X13095714Y-15791000D01*
X13124286Y-15776714D01*
X13167143Y-15776714D01*
X13195714Y-15791000D01*
X13210000Y-15805286D01*
X13224286Y-15833857D01*
X13224286Y-15919571D01*
X13210000Y-15948143D01*
X13195714Y-15962429D01*
X13167143Y-15976714D01*
X13124286Y-15976714D01*
X13395714Y-15976714D02*
X13367143Y-15962429D01*
X13352857Y-15933857D01*
X13352857Y-15676714D01*
X13624286Y-15962429D02*
X13595714Y-15976714D01*
X13538571Y-15976714D01*
X13510000Y-15962429D01*
X13495714Y-15933857D01*
X13495714Y-15819571D01*
X13510000Y-15791000D01*
X13538571Y-15776714D01*
X13595714Y-15776714D01*
X13624286Y-15791000D01*
X13638571Y-15819571D01*
X13638571Y-15848143D01*
X13495714Y-15876714D01*
X13752857Y-15962429D02*
X13781428Y-15976714D01*
X13838571Y-15976714D01*
X13867143Y-15962429D01*
X13881428Y-15933857D01*
X13881428Y-15919571D01*
X13867143Y-15891000D01*
X13838571Y-15876714D01*
X13795714Y-15876714D01*
X13767143Y-15862429D01*
X13752857Y-15833857D01*
X13752857Y-15819571D01*
X13767143Y-15791000D01*
X13795714Y-15776714D01*
X13838571Y-15776714D01*
X13867143Y-15791000D01*
X13981428Y-16091000D02*
X13995714Y-16076714D01*
X14024286Y-16033857D01*
X14038571Y-16005286D01*
X14052857Y-15962429D01*
X14067143Y-15891000D01*
X14067143Y-15833857D01*
X14052857Y-15762429D01*
X14038571Y-15719571D01*
X14024286Y-15691000D01*
X13995714Y-15648143D01*
X13981428Y-15633857D01*
M02*
