%FSLAX45Y45*%
G04 Gerber Fmt 4.5, Leading zero omitted, Abs format (unit mm)*
G04 Created by KiCad (PCBNEW 4.1.0-alpha+201608281546+7098~46~ubuntu14.04.1-product) date Mon Sep  5 14:38:34 2016*
%MOMM*%
%LPD*%
G01*
G04 APERTURE LIST*
%ADD10C,0.127000*%
%ADD11C,0.100000*%
%ADD12C,0.200000*%
%ADD13C,0.300000*%
G04 APERTURE END LIST*
D10*
D11*
X12500000Y-10000000D02*
G75*
G03X12500000Y-10000000I-2500000J0D01*
G01*
D12*
D13*
X7781428Y-12970714D02*
X7781428Y-12670714D01*
X7852857Y-12670714D01*
X7895714Y-12685000D01*
X7924286Y-12713571D01*
X7938571Y-12742143D01*
X7952857Y-12799286D01*
X7952857Y-12842143D01*
X7938571Y-12899286D01*
X7924286Y-12927857D01*
X7895714Y-12956429D01*
X7852857Y-12970714D01*
X7781428Y-12970714D01*
X8081428Y-12970714D02*
X8081428Y-12770714D01*
X8081428Y-12827857D02*
X8095714Y-12799286D01*
X8110000Y-12785000D01*
X8138571Y-12770714D01*
X8167143Y-12770714D01*
X8267143Y-12970714D02*
X8267143Y-12770714D01*
X8267143Y-12670714D02*
X8252857Y-12685000D01*
X8267143Y-12699286D01*
X8281428Y-12685000D01*
X8267143Y-12670714D01*
X8267143Y-12699286D01*
X8452857Y-12970714D02*
X8424286Y-12956429D01*
X8410000Y-12927857D01*
X8410000Y-12670714D01*
X8610000Y-12970714D02*
X8581428Y-12956429D01*
X8567143Y-12927857D01*
X8567143Y-12670714D01*
X8952857Y-12970714D02*
X8952857Y-12670714D01*
X9052857Y-12885000D01*
X9152857Y-12670714D01*
X9152857Y-12970714D01*
X9424286Y-12970714D02*
X9424286Y-12813571D01*
X9410000Y-12785000D01*
X9381428Y-12770714D01*
X9324286Y-12770714D01*
X9295714Y-12785000D01*
X9424286Y-12956429D02*
X9395714Y-12970714D01*
X9324286Y-12970714D01*
X9295714Y-12956429D01*
X9281428Y-12927857D01*
X9281428Y-12899286D01*
X9295714Y-12870714D01*
X9324286Y-12856429D01*
X9395714Y-12856429D01*
X9424286Y-12842143D01*
X9567143Y-12770714D02*
X9567143Y-13070714D01*
X9567143Y-12785000D02*
X9595714Y-12770714D01*
X9652857Y-12770714D01*
X9681428Y-12785000D01*
X9695714Y-12799286D01*
X9710000Y-12827857D01*
X9710000Y-12913571D01*
X9695714Y-12942143D01*
X9681428Y-12956429D01*
X9652857Y-12970714D01*
X9595714Y-12970714D01*
X9567143Y-12956429D01*
X9838571Y-12942143D02*
X9852857Y-12956429D01*
X9838571Y-12970714D01*
X9824286Y-12956429D01*
X9838571Y-12942143D01*
X9838571Y-12970714D01*
X9838571Y-12785000D02*
X9852857Y-12799286D01*
X9838571Y-12813571D01*
X9824286Y-12799286D01*
X9838571Y-12785000D01*
X9838571Y-12813571D01*
M02*
