M48
METRIC,TZ
T1C0.400
T2C0.500
T3C0.700
T4C0.900
T5C1.000
T6C1.300
T7C2.500
%
G90
G05
T1
X94996Y-77851
X100076Y-77851
X100390Y-111462
X100463Y-113686
X102967Y-102134
X103729Y-101486
X104648Y-101092
X105000Y-110000
X105156Y-77978
X107061Y-101473
X110000Y-112000
X110299Y-99631
X118936Y-95631
T2
X90932Y-79248
X103500Y-106000
X103949Y-91313
X105000Y-111500
X105000Y-114000
X105000Y-116500
X107802Y-103605
X108268Y-105773
X109500Y-116500
X110363Y-97790
X111000Y-119500
X113253Y-116482
X113538Y-95948
X118682Y-114744
X119190Y-91376
X123063Y-96647
T3
X84963Y-87757
X84963Y-90297
X84963Y-92837
X84963Y-95377
T4
X90424Y-93472
X90424Y-97222
X93599Y-82042
X93599Y-87122
X95885Y-93472
X95885Y-97222
X96139Y-82042
X96139Y-87122
X98679Y-82042
X98679Y-87122
X101219Y-82042
X101219Y-87122
X101981Y-119507
X101981Y-122047
X103759Y-82042
X103759Y-87122
X104521Y-119507
X104521Y-122047
X106299Y-82042
X106299Y-87122
X107061Y-119507
X107061Y-122047
T5
X78486Y-99934
X78486Y-106934
X83986Y-103434
X114986Y-92075
X114986Y-97790
X114986Y-103505
X114986Y-109220
T6
X90424Y-108472
X90424Y-113472
X90424Y-118472
X95885Y-108472
X95885Y-113472
X95885Y-118472
T7
X82500Y-112000
X114000Y-84000
T0
M30
