M48
METRIC,TZ
T1C0.400
T2C0.600
T3C0.700
T4C0.900
T5C1.000
T6C1.300
T7C1.500
%
G90
G05
T1
X154102Y-116486
X158674Y-113438
X161279Y-121785
X161595Y-104040
X161658Y-116998
X161981Y-120203
X162503Y-116197
X162865Y-104040
X164003Y-116305
X164262Y-104040
X164643Y-57812
X164770Y-73052
X164775Y-117231
X165163Y-89308
X165405Y-104040
X165405Y-120169
X165532Y-84355
X165532Y-60352
X165590Y-115547
X166318Y-56542
X166318Y-71655
X166382Y-123215
X166675Y-104040
X166687Y-86895
X167056Y-85498
X167056Y-54002
X167068Y-75592
X167796Y-122862
X167818Y-55272
X167818Y-70385
X167818Y-104040
X167894Y-116459
X168568Y-105424
X169250Y-100330
X169747Y-118608
X170000Y-93980
X170750Y-82550
X171190Y-77470
X171500Y-88895
X172505Y-71621
X172590Y-66040
X172771Y-120931
X172869Y-123831
X173095Y-117075
X173238Y-118641
X173290Y-59712
X173743Y-115330
X173990Y-54610
X173990Y-117475
X174295Y-116105
X178740Y-127535
T2
X150482Y-82958
X150495Y-55018
X150495Y-61368
X150495Y-68988
X150495Y-75338
X150495Y-96928
X150495Y-103278
X150495Y-110898
X150495Y-117756
X150546Y-89308
X156210Y-130175
X156388Y-88038
X156388Y-95912
X156515Y-82450
X156515Y-90705
X156642Y-106580
X161468Y-54002
X161468Y-69242
X161468Y-84355
X162074Y-127676
X163513Y-90832
X163754Y-81307
X163754Y-66067
X170612Y-59082
X170612Y-74322
X183566Y-125249
T3
X149276Y-119280
X151816Y-119280
X149276Y-84292
X151816Y-84292
X149276Y-63146
X151816Y-63146
X164465Y-133985
X167005Y-133985
X169545Y-133985
X172085Y-133985
X149276Y-105056
X151816Y-105056
X149276Y-112422
X151816Y-112422
X149276Y-76862
X151816Y-76862
X149276Y-98452
X151816Y-98452
X149276Y-70440
X151816Y-70440
X149276Y-90832
X151816Y-90832
X149276Y-56440
X151816Y-56440
T4
X142935Y-83820
X146685Y-83820
X142935Y-104140
X146685Y-104140
X142935Y-76200
X146685Y-76200
X142935Y-55880
X146685Y-55880
X142935Y-118110
X146685Y-118110
X182626Y-100076
X182626Y-102616
X182626Y-105156
X182626Y-107696
X187706Y-100076
X187706Y-102616
X187706Y-105156
X187706Y-107696
X142935Y-111760
X146685Y-111760
X142935Y-90170
X146685Y-90170
X182626Y-65786
X182626Y-68326
X182626Y-70866
X182626Y-73406
X187706Y-65786
X187706Y-68326
X187706Y-70866
X187706Y-73406
X182626Y-77216
X182626Y-79756
X182626Y-82296
X182626Y-84836
X187706Y-77216
X187706Y-79756
X187706Y-82296
X187706Y-84836
X142935Y-97790
X146685Y-97790
X142935Y-69850
X146685Y-69850
X182626Y-88646
X182626Y-91186
X182626Y-93726
X182626Y-96266
X187706Y-88646
X187706Y-91186
X187706Y-93726
X187706Y-96266
X182626Y-54356
X182626Y-56896
X182626Y-59436
X182626Y-61976
X187706Y-54356
X187706Y-56896
X187706Y-59436
X187706Y-61976
X142935Y-62230
X146685Y-62230
X151130Y-132715
X151130Y-135255
X153670Y-132715
X153670Y-135255
X156210Y-132715
X156210Y-135255
T5
X183515Y-116205
X105710Y-86360
X111210Y-82860
X183515Y-133350
X105810Y-100020
X111310Y-96520
X105710Y-72110
X111210Y-68610
X183515Y-127635
X105710Y-114110
X111210Y-110610
X183515Y-121920
X105710Y-58110
X111210Y-54610
X105710Y-135890
X111210Y-132390
T6
X121685Y-111760
X126685Y-111760
X131685Y-111760
X121685Y-90170
X126685Y-90170
X131685Y-90170
X121685Y-97790
X126685Y-97790
X131685Y-97790
X121685Y-69850
X126685Y-69850
X131685Y-69850
X121685Y-62230
X126685Y-62230
X131685Y-62230
X121685Y-83820
X126685Y-83820
X131685Y-83820
X121685Y-104140
X126685Y-104140
X131685Y-104140
X121685Y-76200
X126685Y-76200
X131685Y-76200
X121685Y-55880
X126685Y-55880
X131685Y-55880
X121685Y-118110
X126685Y-118110
X131685Y-118110
T7
X121920Y-123825
X126919Y-123825
X121920Y-131445
X121920Y-136444
T0
M30
