G04 (created by PCBNEW-RS274X (2011-05-25)-stable) date Mo 06 Jan 2014 15:40:36 CET*
G01*
G70*
G90*
%MOIN*%
G04 Gerber Fmt 3.4, Leading zero omitted, Abs format*
%FSLAX34Y34*%
G04 APERTURE LIST*
%ADD10C,0.006000*%
%ADD11C,0.012000*%
%ADD12C,0.010000*%
%ADD13C,0.015000*%
%ADD14C,0.008000*%
%ADD15C,0.005000*%
%ADD16C,0.004000*%
G04 APERTURE END LIST*
G54D10*
X04000Y-04000D02*
X113000Y-04000D01*
X113000Y-78670D01*
X04000Y-78670D01*
X04000Y-04000D01*
X04700Y-04700D02*
X112300Y-04700D01*
X112300Y-77970D01*
X04700Y-77970D01*
X04700Y-04700D01*
X25800Y-04000D02*
X25800Y-04700D01*
X15043Y-04552D02*
X14757Y-04552D01*
X14900Y-04552D02*
X14900Y-04052D01*
X14852Y-04124D01*
X14805Y-04171D01*
X14757Y-04195D01*
X25800Y-78670D02*
X25800Y-77970D01*
X15043Y-78522D02*
X14757Y-78522D01*
X14900Y-78522D02*
X14900Y-78022D01*
X14852Y-78094D01*
X14805Y-78141D01*
X14757Y-78165D01*
X47600Y-04000D02*
X47600Y-04700D01*
X36557Y-04100D02*
X36581Y-04076D01*
X36629Y-04052D01*
X36748Y-04052D01*
X36795Y-04076D01*
X36819Y-04100D01*
X36843Y-04148D01*
X36843Y-04195D01*
X36819Y-04267D01*
X36533Y-04552D01*
X36843Y-04552D01*
X47600Y-78670D02*
X47600Y-77970D01*
X36557Y-78070D02*
X36581Y-78046D01*
X36629Y-78022D01*
X36748Y-78022D01*
X36795Y-78046D01*
X36819Y-78070D01*
X36843Y-78118D01*
X36843Y-78165D01*
X36819Y-78237D01*
X36533Y-78522D01*
X36843Y-78522D01*
X69400Y-04000D02*
X69400Y-04700D01*
X58333Y-04052D02*
X58643Y-04052D01*
X58476Y-04243D01*
X58548Y-04243D01*
X58595Y-04267D01*
X58619Y-04290D01*
X58643Y-04338D01*
X58643Y-04457D01*
X58619Y-04505D01*
X58595Y-04529D01*
X58548Y-04552D01*
X58405Y-04552D01*
X58357Y-04529D01*
X58333Y-04505D01*
X69400Y-78670D02*
X69400Y-77970D01*
X58333Y-78022D02*
X58643Y-78022D01*
X58476Y-78213D01*
X58548Y-78213D01*
X58595Y-78237D01*
X58619Y-78260D01*
X58643Y-78308D01*
X58643Y-78427D01*
X58619Y-78475D01*
X58595Y-78499D01*
X58548Y-78522D01*
X58405Y-78522D01*
X58357Y-78499D01*
X58333Y-78475D01*
X91200Y-04000D02*
X91200Y-04700D01*
X80395Y-04219D02*
X80395Y-04552D01*
X80276Y-04029D02*
X80157Y-04386D01*
X80467Y-04386D01*
X91200Y-78670D02*
X91200Y-77970D01*
X80395Y-78189D02*
X80395Y-78522D01*
X80276Y-77999D02*
X80157Y-78356D01*
X80467Y-78356D01*
X102219Y-04052D02*
X101981Y-04052D01*
X101957Y-04290D01*
X101981Y-04267D01*
X102029Y-04243D01*
X102148Y-04243D01*
X102195Y-04267D01*
X102219Y-04290D01*
X102243Y-04338D01*
X102243Y-04457D01*
X102219Y-04505D01*
X102195Y-04529D01*
X102148Y-04552D01*
X102029Y-04552D01*
X101981Y-04529D01*
X101957Y-04505D01*
X102219Y-78022D02*
X101981Y-78022D01*
X101957Y-78260D01*
X101981Y-78237D01*
X102029Y-78213D01*
X102148Y-78213D01*
X102195Y-78237D01*
X102219Y-78260D01*
X102243Y-78308D01*
X102243Y-78427D01*
X102219Y-78475D01*
X102195Y-78499D01*
X102148Y-78522D01*
X102029Y-78522D01*
X101981Y-78499D01*
X101957Y-78475D01*
X04000Y-28890D02*
X04700Y-28890D01*
X04231Y-16510D02*
X04469Y-16510D01*
X04184Y-16652D02*
X04350Y-16152D01*
X04517Y-16652D01*
X113000Y-28890D02*
X112300Y-28890D01*
X112531Y-16510D02*
X112769Y-16510D01*
X112484Y-16652D02*
X112650Y-16152D01*
X112817Y-16652D01*
X04000Y-53780D02*
X04700Y-53780D01*
X04386Y-41280D02*
X04457Y-41304D01*
X04481Y-41328D01*
X04505Y-41376D01*
X04505Y-41447D01*
X04481Y-41495D01*
X04457Y-41519D01*
X04410Y-41542D01*
X04219Y-41542D01*
X04219Y-41042D01*
X04386Y-41042D01*
X04433Y-41066D01*
X04457Y-41090D01*
X04481Y-41138D01*
X04481Y-41185D01*
X04457Y-41233D01*
X04433Y-41257D01*
X04386Y-41280D01*
X04219Y-41280D01*
X113000Y-53780D02*
X112300Y-53780D01*
X112686Y-41280D02*
X112757Y-41304D01*
X112781Y-41328D01*
X112805Y-41376D01*
X112805Y-41447D01*
X112781Y-41495D01*
X112757Y-41519D01*
X112710Y-41542D01*
X112519Y-41542D01*
X112519Y-41042D01*
X112686Y-41042D01*
X112733Y-41066D01*
X112757Y-41090D01*
X112781Y-41138D01*
X112781Y-41185D01*
X112757Y-41233D01*
X112733Y-41257D01*
X112686Y-41280D01*
X112519Y-41280D01*
X04505Y-66385D02*
X04481Y-66409D01*
X04410Y-66432D01*
X04362Y-66432D01*
X04290Y-66409D01*
X04243Y-66361D01*
X04219Y-66313D01*
X04195Y-66218D01*
X04195Y-66147D01*
X04219Y-66051D01*
X04243Y-66004D01*
X04290Y-65956D01*
X04362Y-65932D01*
X04410Y-65932D01*
X04481Y-65956D01*
X04505Y-65980D01*
X112805Y-66385D02*
X112781Y-66409D01*
X112710Y-66432D01*
X112662Y-66432D01*
X112590Y-66409D01*
X112543Y-66361D01*
X112519Y-66313D01*
X112495Y-66218D01*
X112495Y-66147D01*
X112519Y-66051D01*
X112543Y-66004D01*
X112590Y-65956D01*
X112662Y-65932D01*
X112710Y-65932D01*
X112781Y-65956D01*
X112805Y-65980D01*
G54D11*
X79443Y-76413D02*
X79443Y-75813D01*
X79586Y-75813D01*
X79671Y-75841D01*
X79729Y-75899D01*
X79757Y-75956D01*
X79786Y-76070D01*
X79786Y-76156D01*
X79757Y-76270D01*
X79729Y-76327D01*
X79671Y-76384D01*
X79586Y-76413D01*
X79443Y-76413D01*
X80300Y-76413D02*
X80300Y-76099D01*
X80271Y-76041D01*
X80214Y-76013D01*
X80100Y-76013D01*
X80043Y-76041D01*
X80300Y-76384D02*
X80243Y-76413D01*
X80100Y-76413D01*
X80043Y-76384D01*
X80014Y-76327D01*
X80014Y-76270D01*
X80043Y-76213D01*
X80100Y-76184D01*
X80243Y-76184D01*
X80300Y-76156D01*
X80500Y-76013D02*
X80729Y-76013D01*
X80586Y-75813D02*
X80586Y-76327D01*
X80614Y-76384D01*
X80672Y-76413D01*
X80729Y-76413D01*
X81157Y-76384D02*
X81100Y-76413D01*
X80986Y-76413D01*
X80929Y-76384D01*
X80900Y-76327D01*
X80900Y-76099D01*
X80929Y-76041D01*
X80986Y-76013D01*
X81100Y-76013D01*
X81157Y-76041D01*
X81186Y-76099D01*
X81186Y-76156D01*
X80900Y-76213D01*
X81443Y-76356D02*
X81471Y-76384D01*
X81443Y-76413D01*
X81414Y-76384D01*
X81443Y-76356D01*
X81443Y-76413D01*
X81443Y-76041D02*
X81471Y-76070D01*
X81443Y-76099D01*
X81414Y-76070D01*
X81443Y-76041D01*
X81443Y-76099D01*
X82443Y-75813D02*
X82329Y-75813D01*
X82272Y-75841D01*
X82243Y-75870D01*
X82186Y-75956D01*
X82157Y-76070D01*
X82157Y-76299D01*
X82186Y-76356D01*
X82214Y-76384D01*
X82272Y-76413D01*
X82386Y-76413D01*
X82443Y-76384D01*
X82472Y-76356D01*
X82500Y-76299D01*
X82500Y-76156D01*
X82472Y-76099D01*
X82443Y-76070D01*
X82386Y-76041D01*
X82272Y-76041D01*
X82214Y-76070D01*
X82186Y-76099D01*
X82157Y-76156D01*
X83214Y-76013D02*
X83214Y-76527D01*
X83185Y-76584D01*
X83128Y-76613D01*
X83100Y-76613D01*
X83214Y-75813D02*
X83185Y-75841D01*
X83214Y-75870D01*
X83242Y-75841D01*
X83214Y-75813D01*
X83214Y-75870D01*
X83757Y-76413D02*
X83757Y-76099D01*
X83728Y-76041D01*
X83671Y-76013D01*
X83557Y-76013D01*
X83500Y-76041D01*
X83757Y-76384D02*
X83700Y-76413D01*
X83557Y-76413D01*
X83500Y-76384D01*
X83471Y-76327D01*
X83471Y-76270D01*
X83500Y-76213D01*
X83557Y-76184D01*
X83700Y-76184D01*
X83757Y-76156D01*
X84043Y-76013D02*
X84043Y-76413D01*
X84043Y-76070D02*
X84071Y-76041D01*
X84129Y-76013D01*
X84214Y-76013D01*
X84271Y-76041D01*
X84300Y-76099D01*
X84300Y-76413D01*
X85014Y-75870D02*
X85043Y-75841D01*
X85100Y-75813D01*
X85243Y-75813D01*
X85300Y-75841D01*
X85329Y-75870D01*
X85357Y-75927D01*
X85357Y-75984D01*
X85329Y-76070D01*
X84986Y-76413D01*
X85357Y-76413D01*
X85728Y-75813D02*
X85785Y-75813D01*
X85842Y-75841D01*
X85871Y-75870D01*
X85900Y-75927D01*
X85928Y-76041D01*
X85928Y-76184D01*
X85900Y-76299D01*
X85871Y-76356D01*
X85842Y-76384D01*
X85785Y-76413D01*
X85728Y-76413D01*
X85671Y-76384D01*
X85642Y-76356D01*
X85614Y-76299D01*
X85585Y-76184D01*
X85585Y-76041D01*
X85614Y-75927D01*
X85642Y-75870D01*
X85671Y-75841D01*
X85728Y-75813D01*
X86499Y-76413D02*
X86156Y-76413D01*
X86328Y-76413D02*
X86328Y-75813D01*
X86271Y-75899D01*
X86213Y-75956D01*
X86156Y-75984D01*
X87013Y-76013D02*
X87013Y-76413D01*
X86870Y-75784D02*
X86727Y-76213D01*
X87099Y-76213D01*
G54D10*
X71043Y-77613D02*
X71043Y-77013D01*
X71386Y-77613D02*
X71129Y-77270D01*
X71386Y-77013D02*
X71043Y-77356D01*
X71643Y-77613D02*
X71643Y-77213D01*
X71643Y-77013D02*
X71614Y-77041D01*
X71643Y-77070D01*
X71671Y-77041D01*
X71643Y-77013D01*
X71643Y-77070D01*
X72272Y-77556D02*
X72243Y-77584D01*
X72157Y-77613D01*
X72100Y-77613D01*
X72015Y-77584D01*
X71957Y-77527D01*
X71929Y-77470D01*
X71900Y-77356D01*
X71900Y-77270D01*
X71929Y-77156D01*
X71957Y-77099D01*
X72015Y-77041D01*
X72100Y-77013D01*
X72157Y-77013D01*
X72243Y-77041D01*
X72272Y-77070D01*
X72786Y-77613D02*
X72786Y-77299D01*
X72757Y-77241D01*
X72700Y-77213D01*
X72586Y-77213D01*
X72529Y-77241D01*
X72786Y-77584D02*
X72729Y-77613D01*
X72586Y-77613D01*
X72529Y-77584D01*
X72500Y-77527D01*
X72500Y-77470D01*
X72529Y-77413D01*
X72586Y-77384D01*
X72729Y-77384D01*
X72786Y-77356D01*
X73329Y-77613D02*
X73329Y-77013D01*
X73329Y-77584D02*
X73272Y-77613D01*
X73158Y-77613D01*
X73100Y-77584D01*
X73072Y-77556D01*
X73043Y-77499D01*
X73043Y-77327D01*
X73072Y-77270D01*
X73100Y-77241D01*
X73158Y-77213D01*
X73272Y-77213D01*
X73329Y-77241D01*
X74072Y-77299D02*
X74272Y-77299D01*
X74358Y-77613D02*
X74072Y-77613D01*
X74072Y-77013D01*
X74358Y-77013D01*
X74615Y-77556D02*
X74643Y-77584D01*
X74615Y-77613D01*
X74586Y-77584D01*
X74615Y-77556D01*
X74615Y-77613D01*
X74901Y-77613D02*
X74901Y-77013D01*
X75044Y-77013D01*
X75129Y-77041D01*
X75187Y-77099D01*
X75215Y-77156D01*
X75244Y-77270D01*
X75244Y-77356D01*
X75215Y-77470D01*
X75187Y-77527D01*
X75129Y-77584D01*
X75044Y-77613D01*
X74901Y-77613D01*
X75501Y-77556D02*
X75529Y-77584D01*
X75501Y-77613D01*
X75472Y-77584D01*
X75501Y-77556D01*
X75501Y-77613D01*
X75758Y-77441D02*
X76044Y-77441D01*
X75701Y-77613D02*
X75901Y-77013D01*
X76101Y-77613D01*
X76301Y-77556D02*
X76329Y-77584D01*
X76301Y-77613D01*
X76272Y-77584D01*
X76301Y-77556D01*
X76301Y-77613D01*
G54D11*
X104586Y-76413D02*
X104386Y-76127D01*
X104243Y-76413D02*
X104243Y-75813D01*
X104471Y-75813D01*
X104529Y-75841D01*
X104557Y-75870D01*
X104586Y-75927D01*
X104586Y-76013D01*
X104557Y-76070D01*
X104529Y-76099D01*
X104471Y-76127D01*
X104243Y-76127D01*
X105071Y-76384D02*
X105014Y-76413D01*
X104900Y-76413D01*
X104843Y-76384D01*
X104814Y-76327D01*
X104814Y-76099D01*
X104843Y-76041D01*
X104900Y-76013D01*
X105014Y-76013D01*
X105071Y-76041D01*
X105100Y-76099D01*
X105100Y-76156D01*
X104814Y-76213D01*
X105300Y-76013D02*
X105443Y-76413D01*
X105585Y-76013D01*
X105814Y-76356D02*
X105842Y-76384D01*
X105814Y-76413D01*
X105785Y-76384D01*
X105814Y-76356D01*
X105814Y-76413D01*
X105814Y-76041D02*
X105842Y-76070D01*
X105814Y-76099D01*
X105785Y-76070D01*
X105814Y-76041D01*
X105814Y-76099D01*
X106528Y-76241D02*
X106814Y-76241D01*
X106471Y-76413D02*
X106671Y-75813D01*
X106871Y-76413D01*
G54D10*
X71014Y-76384D02*
X71100Y-76413D01*
X71243Y-76413D01*
X71300Y-76384D01*
X71329Y-76356D01*
X71357Y-76299D01*
X71357Y-76241D01*
X71329Y-76184D01*
X71300Y-76156D01*
X71243Y-76127D01*
X71129Y-76099D01*
X71071Y-76070D01*
X71043Y-76041D01*
X71014Y-75984D01*
X71014Y-75927D01*
X71043Y-75870D01*
X71071Y-75841D01*
X71129Y-75813D01*
X71271Y-75813D01*
X71357Y-75841D01*
X71614Y-76413D02*
X71614Y-76013D01*
X71614Y-75813D02*
X71585Y-75841D01*
X71614Y-75870D01*
X71642Y-75841D01*
X71614Y-75813D01*
X71614Y-75870D01*
X71843Y-76013D02*
X72157Y-76013D01*
X71843Y-76413D01*
X72157Y-76413D01*
X72614Y-76384D02*
X72557Y-76413D01*
X72443Y-76413D01*
X72386Y-76384D01*
X72357Y-76327D01*
X72357Y-76099D01*
X72386Y-76041D01*
X72443Y-76013D01*
X72557Y-76013D01*
X72614Y-76041D01*
X72643Y-76099D01*
X72643Y-76156D01*
X72357Y-76213D01*
X72900Y-76356D02*
X72928Y-76384D01*
X72900Y-76413D01*
X72871Y-76384D01*
X72900Y-76356D01*
X72900Y-76413D01*
X72900Y-76041D02*
X72928Y-76070D01*
X72900Y-76099D01*
X72871Y-76070D01*
X72900Y-76041D01*
X72900Y-76099D01*
X73614Y-76241D02*
X73900Y-76241D01*
X73557Y-76413D02*
X73757Y-75813D01*
X73957Y-76413D01*
X74414Y-76013D02*
X74414Y-76413D01*
X74271Y-75784D02*
X74128Y-76213D01*
X74500Y-76213D01*
X104243Y-77613D02*
X104243Y-77013D01*
X104786Y-77613D02*
X104786Y-77013D01*
X104786Y-77584D02*
X104729Y-77613D01*
X104615Y-77613D01*
X104557Y-77584D01*
X104529Y-77556D01*
X104500Y-77499D01*
X104500Y-77327D01*
X104529Y-77270D01*
X104557Y-77241D01*
X104615Y-77213D01*
X104729Y-77213D01*
X104786Y-77241D01*
X105072Y-77556D02*
X105100Y-77584D01*
X105072Y-77613D01*
X105043Y-77584D01*
X105072Y-77556D01*
X105072Y-77613D01*
X105072Y-77241D02*
X105100Y-77270D01*
X105072Y-77299D01*
X105043Y-77270D01*
X105072Y-77241D01*
X105072Y-77299D01*
X106129Y-77613D02*
X105786Y-77613D01*
X105958Y-77613D02*
X105958Y-77013D01*
X105901Y-77099D01*
X105843Y-77156D01*
X105786Y-77184D01*
X106814Y-76984D02*
X106300Y-77756D01*
X107329Y-77613D02*
X106986Y-77613D01*
X107158Y-77613D02*
X107158Y-77013D01*
X107101Y-77099D01*
X107043Y-77156D01*
X106986Y-77184D01*
G54D11*
X70957Y-74613D02*
X71300Y-74613D01*
X71129Y-75213D02*
X71129Y-74613D01*
X71500Y-75213D02*
X71500Y-74813D01*
X71500Y-74613D02*
X71471Y-74641D01*
X71500Y-74670D01*
X71528Y-74641D01*
X71500Y-74613D01*
X71500Y-74670D01*
X71700Y-74813D02*
X71929Y-74813D01*
X71786Y-74613D02*
X71786Y-75127D01*
X71814Y-75184D01*
X71872Y-75213D01*
X71929Y-75213D01*
X72215Y-75213D02*
X72157Y-75184D01*
X72129Y-75127D01*
X72129Y-74613D01*
X72671Y-75184D02*
X72614Y-75213D01*
X72500Y-75213D01*
X72443Y-75184D01*
X72414Y-75127D01*
X72414Y-74899D01*
X72443Y-74841D01*
X72500Y-74813D01*
X72614Y-74813D01*
X72671Y-74841D01*
X72700Y-74899D01*
X72700Y-74956D01*
X72414Y-75013D01*
X72957Y-75156D02*
X72985Y-75184D01*
X72957Y-75213D01*
X72928Y-75184D01*
X72957Y-75156D01*
X72957Y-75213D01*
X72957Y-74841D02*
X72985Y-74870D01*
X72957Y-74899D01*
X72928Y-74870D01*
X72957Y-74841D01*
X72957Y-74899D01*
X73700Y-75213D02*
X73700Y-74613D01*
X74043Y-75213D02*
X73786Y-74870D01*
X74043Y-74613D02*
X73700Y-74956D01*
X74414Y-74613D02*
X74528Y-74613D01*
X74586Y-74641D01*
X74643Y-74699D01*
X74671Y-74813D01*
X74671Y-75013D01*
X74643Y-75127D01*
X74586Y-75184D01*
X74528Y-75213D01*
X74414Y-75213D01*
X74357Y-75184D01*
X74300Y-75127D01*
X74271Y-75013D01*
X74271Y-74813D01*
X74300Y-74699D01*
X74357Y-74641D01*
X74414Y-74613D01*
X74929Y-74899D02*
X75129Y-74899D01*
X75215Y-75213D02*
X74929Y-75213D01*
X74929Y-74613D01*
X75215Y-74613D01*
X75415Y-74613D02*
X75558Y-75213D01*
X75672Y-74784D01*
X75786Y-75213D01*
X75929Y-74613D01*
X76158Y-75213D02*
X76158Y-74613D01*
X76644Y-74899D02*
X76730Y-74927D01*
X76758Y-74956D01*
X76787Y-75013D01*
X76787Y-75099D01*
X76758Y-75156D01*
X76730Y-75184D01*
X76672Y-75213D01*
X76444Y-75213D01*
X76444Y-74613D01*
X76644Y-74613D01*
X76701Y-74641D01*
X76730Y-74670D01*
X76758Y-74727D01*
X76758Y-74784D01*
X76730Y-74841D01*
X76701Y-74870D01*
X76644Y-74899D01*
X76444Y-74899D01*
X77015Y-75041D02*
X77301Y-75041D01*
X76958Y-75213D02*
X77158Y-74613D01*
X77358Y-75213D01*
X77558Y-74984D02*
X78015Y-74984D01*
X78301Y-75213D02*
X78301Y-74613D01*
X78529Y-74613D01*
X78587Y-74641D01*
X78615Y-74670D01*
X78644Y-74727D01*
X78644Y-74813D01*
X78615Y-74870D01*
X78587Y-74899D01*
X78529Y-74927D01*
X78301Y-74927D01*
X78901Y-75213D02*
X78901Y-74613D01*
G54D10*
X71243Y-72499D02*
X71043Y-72499D01*
X71043Y-72813D02*
X71043Y-72213D01*
X71329Y-72213D01*
X71557Y-72813D02*
X71557Y-72413D01*
X71557Y-72213D02*
X71528Y-72241D01*
X71557Y-72270D01*
X71585Y-72241D01*
X71557Y-72213D01*
X71557Y-72270D01*
X71929Y-72813D02*
X71871Y-72784D01*
X71843Y-72727D01*
X71843Y-72213D01*
X72385Y-72784D02*
X72328Y-72813D01*
X72214Y-72813D01*
X72157Y-72784D01*
X72128Y-72727D01*
X72128Y-72499D01*
X72157Y-72441D01*
X72214Y-72413D01*
X72328Y-72413D01*
X72385Y-72441D01*
X72414Y-72499D01*
X72414Y-72556D01*
X72128Y-72613D01*
X72671Y-72756D02*
X72699Y-72784D01*
X72671Y-72813D01*
X72642Y-72784D01*
X72671Y-72756D01*
X72671Y-72813D01*
X72671Y-72441D02*
X72699Y-72470D01*
X72671Y-72499D01*
X72642Y-72470D01*
X72671Y-72441D01*
X72671Y-72499D01*
X73414Y-72813D02*
X73414Y-72213D01*
X73471Y-72584D02*
X73642Y-72813D01*
X73642Y-72413D02*
X73414Y-72641D01*
X73986Y-72813D02*
X73928Y-72784D01*
X73900Y-72756D01*
X73871Y-72699D01*
X73871Y-72527D01*
X73900Y-72470D01*
X73928Y-72441D01*
X73986Y-72413D01*
X74071Y-72413D01*
X74128Y-72441D01*
X74157Y-72470D01*
X74186Y-72527D01*
X74186Y-72699D01*
X74157Y-72756D01*
X74128Y-72784D01*
X74071Y-72813D01*
X73986Y-72813D01*
X74671Y-72784D02*
X74614Y-72813D01*
X74500Y-72813D01*
X74443Y-72784D01*
X74414Y-72727D01*
X74414Y-72499D01*
X74443Y-72441D01*
X74500Y-72413D01*
X74614Y-72413D01*
X74671Y-72441D01*
X74700Y-72499D01*
X74700Y-72556D01*
X74414Y-72613D01*
X74900Y-72413D02*
X75014Y-72813D01*
X75128Y-72527D01*
X75243Y-72813D01*
X75357Y-72413D01*
X75586Y-72813D02*
X75586Y-72413D01*
X75586Y-72213D02*
X75557Y-72241D01*
X75586Y-72270D01*
X75614Y-72241D01*
X75586Y-72213D01*
X75586Y-72270D01*
X75872Y-72813D02*
X75872Y-72213D01*
X75872Y-72441D02*
X75929Y-72413D01*
X76043Y-72413D01*
X76100Y-72441D01*
X76129Y-72470D01*
X76158Y-72527D01*
X76158Y-72699D01*
X76129Y-72756D01*
X76100Y-72784D01*
X76043Y-72813D01*
X75929Y-72813D01*
X75872Y-72784D01*
X76672Y-72813D02*
X76672Y-72499D01*
X76643Y-72441D01*
X76586Y-72413D01*
X76472Y-72413D01*
X76415Y-72441D01*
X76672Y-72784D02*
X76615Y-72813D01*
X76472Y-72813D01*
X76415Y-72784D01*
X76386Y-72727D01*
X76386Y-72670D01*
X76415Y-72613D01*
X76472Y-72584D01*
X76615Y-72584D01*
X76672Y-72556D01*
X76958Y-72413D02*
X76958Y-73013D01*
X76958Y-72441D02*
X77015Y-72413D01*
X77129Y-72413D01*
X77186Y-72441D01*
X77215Y-72470D01*
X77244Y-72527D01*
X77244Y-72699D01*
X77215Y-72756D01*
X77186Y-72784D01*
X77129Y-72813D01*
X77015Y-72813D01*
X76958Y-72784D01*
X77501Y-72813D02*
X77501Y-72413D01*
X77501Y-72213D02*
X77472Y-72241D01*
X77501Y-72270D01*
X77529Y-72241D01*
X77501Y-72213D01*
X77501Y-72270D01*
X77787Y-72756D02*
X77815Y-72784D01*
X77787Y-72813D01*
X77758Y-72784D01*
X77787Y-72756D01*
X77787Y-72813D01*
X78073Y-72813D02*
X78073Y-72213D01*
X78073Y-72441D02*
X78130Y-72413D01*
X78244Y-72413D01*
X78301Y-72441D01*
X78330Y-72470D01*
X78359Y-72527D01*
X78359Y-72699D01*
X78330Y-72756D01*
X78301Y-72784D01*
X78244Y-72813D01*
X78130Y-72813D01*
X78073Y-72784D01*
X78616Y-72813D02*
X78616Y-72413D01*
X78616Y-72527D02*
X78644Y-72470D01*
X78673Y-72441D01*
X78730Y-72413D01*
X78787Y-72413D01*
X79244Y-72813D02*
X79244Y-72213D01*
X79244Y-72784D02*
X79187Y-72813D01*
X79073Y-72813D01*
X79015Y-72784D01*
X78987Y-72756D01*
X78958Y-72699D01*
X78958Y-72527D01*
X78987Y-72470D01*
X79015Y-72441D01*
X79073Y-72413D01*
X79187Y-72413D01*
X79244Y-72441D01*
X71014Y-73984D02*
X71100Y-74013D01*
X71243Y-74013D01*
X71300Y-73984D01*
X71329Y-73956D01*
X71357Y-73899D01*
X71357Y-73841D01*
X71329Y-73784D01*
X71300Y-73756D01*
X71243Y-73727D01*
X71129Y-73699D01*
X71071Y-73670D01*
X71043Y-73641D01*
X71014Y-73584D01*
X71014Y-73527D01*
X71043Y-73470D01*
X71071Y-73441D01*
X71129Y-73413D01*
X71271Y-73413D01*
X71357Y-73441D01*
X71614Y-74013D02*
X71614Y-73413D01*
X71871Y-74013D02*
X71871Y-73699D01*
X71842Y-73641D01*
X71785Y-73613D01*
X71700Y-73613D01*
X71642Y-73641D01*
X71614Y-73670D01*
X72385Y-73984D02*
X72328Y-74013D01*
X72214Y-74013D01*
X72157Y-73984D01*
X72128Y-73927D01*
X72128Y-73699D01*
X72157Y-73641D01*
X72214Y-73613D01*
X72328Y-73613D01*
X72385Y-73641D01*
X72414Y-73699D01*
X72414Y-73756D01*
X72128Y-73813D01*
X72899Y-73984D02*
X72842Y-74013D01*
X72728Y-74013D01*
X72671Y-73984D01*
X72642Y-73927D01*
X72642Y-73699D01*
X72671Y-73641D01*
X72728Y-73613D01*
X72842Y-73613D01*
X72899Y-73641D01*
X72928Y-73699D01*
X72928Y-73756D01*
X72642Y-73813D01*
X73099Y-73613D02*
X73328Y-73613D01*
X73185Y-73413D02*
X73185Y-73927D01*
X73213Y-73984D01*
X73271Y-74013D01*
X73328Y-74013D01*
X73528Y-73956D02*
X73556Y-73984D01*
X73528Y-74013D01*
X73499Y-73984D01*
X73528Y-73956D01*
X73528Y-74013D01*
X73528Y-73641D02*
X73556Y-73670D01*
X73528Y-73699D01*
X73499Y-73670D01*
X73528Y-73641D01*
X73528Y-73699D01*
X74585Y-74013D02*
X74242Y-74013D01*
X74414Y-74013D02*
X74414Y-73413D01*
X74357Y-73499D01*
X74299Y-73556D01*
X74242Y-73584D01*
X75270Y-73384D02*
X74756Y-74156D01*
X75785Y-74013D02*
X75442Y-74013D01*
X75614Y-74013D02*
X75614Y-73413D01*
X75557Y-73499D01*
X75499Y-73556D01*
X75442Y-73584D01*
X70300Y-71970D02*
X70300Y-77970D01*
X70300Y-71970D02*
X112300Y-71970D01*
X70300Y-71970D02*
X112300Y-71970D01*
X70300Y-74370D02*
X112300Y-74370D01*
X103500Y-75570D02*
X103500Y-77970D01*
X70300Y-76770D02*
X112300Y-76770D01*
X70300Y-75570D02*
X112300Y-75570D01*
X76900Y-75570D02*
X76900Y-76770D01*
G54D12*
X10607Y-62952D02*
X10607Y-62452D01*
X10893Y-62952D01*
X10893Y-62452D01*
X11417Y-62905D02*
X11393Y-62929D01*
X11322Y-62952D01*
X11274Y-62952D01*
X11202Y-62929D01*
X11155Y-62881D01*
X11131Y-62833D01*
X11107Y-62738D01*
X11107Y-62667D01*
X11131Y-62571D01*
X11155Y-62524D01*
X11202Y-62476D01*
X11274Y-62452D01*
X11322Y-62452D01*
X11393Y-62476D01*
X11417Y-62500D01*
X10595Y-63752D02*
X10595Y-63252D01*
X10881Y-63752D01*
X10881Y-63252D01*
X11214Y-63252D02*
X11310Y-63252D01*
X11357Y-63276D01*
X11405Y-63324D01*
X11429Y-63419D01*
X11429Y-63586D01*
X11405Y-63681D01*
X11357Y-63729D01*
X11310Y-63752D01*
X11214Y-63752D01*
X11167Y-63729D01*
X11119Y-63681D01*
X11095Y-63586D01*
X11095Y-63419D01*
X11119Y-63324D01*
X11167Y-63276D01*
X11214Y-63252D01*
X10608Y-64505D02*
X10584Y-64529D01*
X10513Y-64552D01*
X10465Y-64552D01*
X10393Y-64529D01*
X10346Y-64481D01*
X10322Y-64433D01*
X10298Y-64338D01*
X10298Y-64267D01*
X10322Y-64171D01*
X10346Y-64124D01*
X10393Y-64076D01*
X10465Y-64052D01*
X10513Y-64052D01*
X10584Y-64076D01*
X10608Y-64100D01*
X10917Y-64052D02*
X11013Y-64052D01*
X11060Y-64076D01*
X11108Y-64124D01*
X11132Y-64219D01*
X11132Y-64386D01*
X11108Y-64481D01*
X11060Y-64529D01*
X11013Y-64552D01*
X10917Y-64552D01*
X10870Y-64529D01*
X10822Y-64481D01*
X10798Y-64386D01*
X10798Y-64219D01*
X10822Y-64124D01*
X10870Y-64076D01*
X10917Y-64052D01*
X11346Y-64552D02*
X11346Y-64052D01*
X11513Y-64410D01*
X11679Y-64052D01*
X11679Y-64552D01*
X10607Y-56952D02*
X10607Y-56452D01*
X10893Y-56952D01*
X10893Y-56452D01*
X11417Y-56905D02*
X11393Y-56929D01*
X11322Y-56952D01*
X11274Y-56952D01*
X11202Y-56929D01*
X11155Y-56881D01*
X11131Y-56833D01*
X11107Y-56738D01*
X11107Y-56667D01*
X11131Y-56571D01*
X11155Y-56524D01*
X11202Y-56476D01*
X11274Y-56452D01*
X11322Y-56452D01*
X11393Y-56476D01*
X11417Y-56500D01*
X10595Y-57752D02*
X10595Y-57252D01*
X10881Y-57752D01*
X10881Y-57252D01*
X11214Y-57252D02*
X11310Y-57252D01*
X11357Y-57276D01*
X11405Y-57324D01*
X11429Y-57419D01*
X11429Y-57586D01*
X11405Y-57681D01*
X11357Y-57729D01*
X11310Y-57752D01*
X11214Y-57752D01*
X11167Y-57729D01*
X11119Y-57681D01*
X11095Y-57586D01*
X11095Y-57419D01*
X11119Y-57324D01*
X11167Y-57276D01*
X11214Y-57252D01*
X10608Y-58505D02*
X10584Y-58529D01*
X10513Y-58552D01*
X10465Y-58552D01*
X10393Y-58529D01*
X10346Y-58481D01*
X10322Y-58433D01*
X10298Y-58338D01*
X10298Y-58267D01*
X10322Y-58171D01*
X10346Y-58124D01*
X10393Y-58076D01*
X10465Y-58052D01*
X10513Y-58052D01*
X10584Y-58076D01*
X10608Y-58100D01*
X10917Y-58052D02*
X11013Y-58052D01*
X11060Y-58076D01*
X11108Y-58124D01*
X11132Y-58219D01*
X11132Y-58386D01*
X11108Y-58481D01*
X11060Y-58529D01*
X11013Y-58552D01*
X10917Y-58552D01*
X10870Y-58529D01*
X10822Y-58481D01*
X10798Y-58386D01*
X10798Y-58219D01*
X10822Y-58124D01*
X10870Y-58076D01*
X10917Y-58052D01*
X11346Y-58552D02*
X11346Y-58052D01*
X11513Y-58410D01*
X11679Y-58052D01*
X11679Y-58552D01*
X10607Y-68702D02*
X10607Y-68202D01*
X10893Y-68702D01*
X10893Y-68202D01*
X11417Y-68655D02*
X11393Y-68679D01*
X11322Y-68702D01*
X11274Y-68702D01*
X11202Y-68679D01*
X11155Y-68631D01*
X11131Y-68583D01*
X11107Y-68488D01*
X11107Y-68417D01*
X11131Y-68321D01*
X11155Y-68274D01*
X11202Y-68226D01*
X11274Y-68202D01*
X11322Y-68202D01*
X11393Y-68226D01*
X11417Y-68250D01*
X10595Y-69502D02*
X10595Y-69002D01*
X10881Y-69502D01*
X10881Y-69002D01*
X11214Y-69002D02*
X11310Y-69002D01*
X11357Y-69026D01*
X11405Y-69074D01*
X11429Y-69169D01*
X11429Y-69336D01*
X11405Y-69431D01*
X11357Y-69479D01*
X11310Y-69502D01*
X11214Y-69502D01*
X11167Y-69479D01*
X11119Y-69431D01*
X11095Y-69336D01*
X11095Y-69169D01*
X11119Y-69074D01*
X11167Y-69026D01*
X11214Y-69002D01*
X10608Y-70255D02*
X10584Y-70279D01*
X10513Y-70302D01*
X10465Y-70302D01*
X10393Y-70279D01*
X10346Y-70231D01*
X10322Y-70183D01*
X10298Y-70088D01*
X10298Y-70017D01*
X10322Y-69921D01*
X10346Y-69874D01*
X10393Y-69826D01*
X10465Y-69802D01*
X10513Y-69802D01*
X10584Y-69826D01*
X10608Y-69850D01*
X10917Y-69802D02*
X11013Y-69802D01*
X11060Y-69826D01*
X11108Y-69874D01*
X11132Y-69969D01*
X11132Y-70136D01*
X11108Y-70231D01*
X11060Y-70279D01*
X11013Y-70302D01*
X10917Y-70302D01*
X10870Y-70279D01*
X10822Y-70231D01*
X10798Y-70136D01*
X10798Y-69969D01*
X10822Y-69874D01*
X10870Y-69826D01*
X10917Y-69802D01*
X11346Y-70302D02*
X11346Y-69802D01*
X11513Y-70160D01*
X11679Y-69802D01*
X11679Y-70302D01*
X10607Y-50702D02*
X10607Y-50202D01*
X10893Y-50702D01*
X10893Y-50202D01*
X11417Y-50655D02*
X11393Y-50679D01*
X11322Y-50702D01*
X11274Y-50702D01*
X11202Y-50679D01*
X11155Y-50631D01*
X11131Y-50583D01*
X11107Y-50488D01*
X11107Y-50417D01*
X11131Y-50321D01*
X11155Y-50274D01*
X11202Y-50226D01*
X11274Y-50202D01*
X11322Y-50202D01*
X11393Y-50226D01*
X11417Y-50250D01*
X10595Y-51502D02*
X10595Y-51002D01*
X10881Y-51502D01*
X10881Y-51002D01*
X11214Y-51002D02*
X11310Y-51002D01*
X11357Y-51026D01*
X11405Y-51074D01*
X11429Y-51169D01*
X11429Y-51336D01*
X11405Y-51431D01*
X11357Y-51479D01*
X11310Y-51502D01*
X11214Y-51502D01*
X11167Y-51479D01*
X11119Y-51431D01*
X11095Y-51336D01*
X11095Y-51169D01*
X11119Y-51074D01*
X11167Y-51026D01*
X11214Y-51002D01*
X10608Y-52255D02*
X10584Y-52279D01*
X10513Y-52302D01*
X10465Y-52302D01*
X10393Y-52279D01*
X10346Y-52231D01*
X10322Y-52183D01*
X10298Y-52088D01*
X10298Y-52017D01*
X10322Y-51921D01*
X10346Y-51874D01*
X10393Y-51826D01*
X10465Y-51802D01*
X10513Y-51802D01*
X10584Y-51826D01*
X10608Y-51850D01*
X10917Y-51802D02*
X11013Y-51802D01*
X11060Y-51826D01*
X11108Y-51874D01*
X11132Y-51969D01*
X11132Y-52136D01*
X11108Y-52231D01*
X11060Y-52279D01*
X11013Y-52302D01*
X10917Y-52302D01*
X10870Y-52279D01*
X10822Y-52231D01*
X10798Y-52136D01*
X10798Y-51969D01*
X10822Y-51874D01*
X10870Y-51826D01*
X10917Y-51802D01*
X11346Y-52302D02*
X11346Y-51802D01*
X11513Y-52160D01*
X11679Y-51802D01*
X11679Y-52302D01*
X14334Y-42952D02*
X14334Y-42452D01*
X14620Y-42952D02*
X14405Y-42667D01*
X14620Y-42452D02*
X14334Y-42738D01*
X14929Y-42452D02*
X15025Y-42452D01*
X15072Y-42476D01*
X15120Y-42524D01*
X15144Y-42619D01*
X15144Y-42786D01*
X15120Y-42881D01*
X15072Y-42929D01*
X15025Y-42952D01*
X14929Y-42952D01*
X14882Y-42929D01*
X14834Y-42881D01*
X14810Y-42786D01*
X14810Y-42619D01*
X14834Y-42524D01*
X14882Y-42476D01*
X14929Y-42452D01*
X15358Y-42690D02*
X15525Y-42690D01*
X15596Y-42952D02*
X15358Y-42952D01*
X15358Y-42452D01*
X15596Y-42452D01*
X15762Y-42452D02*
X15881Y-42952D01*
X15977Y-42595D01*
X16072Y-42952D01*
X16191Y-42452D01*
X16381Y-42952D02*
X16381Y-42452D01*
X16786Y-42690D02*
X16857Y-42714D01*
X16881Y-42738D01*
X16905Y-42786D01*
X16905Y-42857D01*
X16881Y-42905D01*
X16857Y-42929D01*
X16810Y-42952D01*
X16619Y-42952D01*
X16619Y-42452D01*
X16786Y-42452D01*
X16833Y-42476D01*
X16857Y-42500D01*
X16881Y-42548D01*
X16881Y-42595D01*
X16857Y-42643D01*
X16833Y-42667D01*
X16786Y-42690D01*
X16619Y-42690D01*
X17095Y-42810D02*
X17333Y-42810D01*
X17048Y-42952D02*
X17214Y-42452D01*
X17381Y-42952D01*
X17548Y-42762D02*
X17929Y-42762D01*
X18167Y-42952D02*
X18167Y-42452D01*
X18358Y-42452D01*
X18405Y-42476D01*
X18429Y-42500D01*
X18453Y-42548D01*
X18453Y-42619D01*
X18429Y-42667D01*
X18405Y-42690D01*
X18358Y-42714D01*
X18167Y-42714D01*
X18667Y-42952D02*
X18667Y-42452D01*
X12810Y-43300D02*
X12834Y-43276D01*
X12882Y-43252D01*
X13001Y-43252D01*
X13048Y-43276D01*
X13072Y-43300D01*
X13096Y-43348D01*
X13096Y-43395D01*
X13072Y-43467D01*
X12786Y-43752D01*
X13096Y-43752D01*
X13405Y-43252D02*
X13453Y-43252D01*
X13501Y-43276D01*
X13524Y-43300D01*
X13548Y-43348D01*
X13572Y-43443D01*
X13572Y-43562D01*
X13548Y-43657D01*
X13524Y-43705D01*
X13501Y-43729D01*
X13453Y-43752D01*
X13405Y-43752D01*
X13358Y-43729D01*
X13334Y-43705D01*
X13310Y-43657D01*
X13286Y-43562D01*
X13286Y-43443D01*
X13310Y-43348D01*
X13334Y-43300D01*
X13358Y-43276D01*
X13405Y-43252D01*
X14048Y-43752D02*
X13762Y-43752D01*
X13905Y-43752D02*
X13905Y-43252D01*
X13857Y-43324D01*
X13810Y-43371D01*
X13762Y-43395D01*
X14214Y-43252D02*
X14524Y-43252D01*
X14357Y-43443D01*
X14429Y-43443D01*
X14476Y-43467D01*
X14500Y-43490D01*
X14524Y-43538D01*
X14524Y-43657D01*
X14500Y-43705D01*
X14476Y-43729D01*
X14429Y-43752D01*
X14286Y-43752D01*
X14238Y-43729D01*
X14214Y-43705D01*
X14738Y-43562D02*
X15119Y-43562D01*
X15619Y-43752D02*
X15333Y-43752D01*
X15476Y-43752D02*
X15476Y-43252D01*
X15428Y-43324D01*
X15381Y-43371D01*
X15333Y-43395D01*
X15809Y-43300D02*
X15833Y-43276D01*
X15881Y-43252D01*
X16000Y-43252D01*
X16047Y-43276D01*
X16071Y-43300D01*
X16095Y-43348D01*
X16095Y-43395D01*
X16071Y-43467D01*
X15785Y-43752D01*
X16095Y-43752D01*
X16309Y-43562D02*
X16690Y-43562D01*
X16904Y-43300D02*
X16928Y-43276D01*
X16976Y-43252D01*
X17095Y-43252D01*
X17142Y-43276D01*
X17166Y-43300D01*
X17190Y-43348D01*
X17190Y-43395D01*
X17166Y-43467D01*
X16880Y-43752D01*
X17190Y-43752D01*
X17428Y-43752D02*
X17523Y-43752D01*
X17571Y-43729D01*
X17595Y-43705D01*
X17642Y-43633D01*
X17666Y-43538D01*
X17666Y-43348D01*
X17642Y-43300D01*
X17618Y-43276D01*
X17571Y-43252D01*
X17475Y-43252D01*
X17428Y-43276D01*
X17404Y-43300D01*
X17380Y-43348D01*
X17380Y-43467D01*
X17404Y-43514D01*
X17428Y-43538D01*
X17475Y-43562D01*
X17571Y-43562D01*
X17618Y-43538D01*
X17642Y-43514D01*
X17666Y-43467D01*
X18261Y-43752D02*
X18261Y-43252D01*
X18261Y-43443D02*
X18309Y-43419D01*
X18404Y-43419D01*
X18452Y-43443D01*
X18475Y-43467D01*
X18499Y-43514D01*
X18499Y-43657D01*
X18475Y-43705D01*
X18452Y-43729D01*
X18404Y-43752D01*
X18309Y-43752D01*
X18261Y-43729D01*
X18665Y-43419D02*
X18784Y-43752D01*
X18904Y-43419D02*
X18784Y-43752D01*
X18737Y-43871D01*
X18713Y-43895D01*
X18665Y-43919D01*
X19761Y-43705D02*
X19737Y-43729D01*
X19666Y-43752D01*
X19618Y-43752D01*
X19546Y-43729D01*
X19499Y-43681D01*
X19475Y-43633D01*
X19451Y-43538D01*
X19451Y-43467D01*
X19475Y-43371D01*
X19499Y-43324D01*
X19546Y-43276D01*
X19618Y-43252D01*
X19666Y-43252D01*
X19737Y-43276D01*
X19761Y-43300D01*
X19904Y-43252D02*
X20070Y-43752D01*
X20237Y-43252D01*
X15726Y-44552D02*
X15559Y-44314D01*
X15440Y-44552D02*
X15440Y-44052D01*
X15631Y-44052D01*
X15678Y-44076D01*
X15702Y-44100D01*
X15726Y-44148D01*
X15726Y-44219D01*
X15702Y-44267D01*
X15678Y-44290D01*
X15631Y-44314D01*
X15440Y-44314D01*
X16131Y-44529D02*
X16083Y-44552D01*
X15988Y-44552D01*
X15940Y-44529D01*
X15916Y-44481D01*
X15916Y-44290D01*
X15940Y-44243D01*
X15988Y-44219D01*
X16083Y-44219D01*
X16131Y-44243D01*
X16154Y-44290D01*
X16154Y-44338D01*
X15916Y-44386D01*
X16321Y-44219D02*
X16440Y-44552D01*
X16560Y-44219D01*
X16750Y-44505D02*
X16774Y-44529D01*
X16750Y-44552D01*
X16726Y-44529D01*
X16750Y-44505D01*
X16750Y-44552D01*
X17345Y-44410D02*
X17583Y-44410D01*
X17298Y-44552D02*
X17464Y-44052D01*
X17631Y-44552D01*
X10083Y-12250D02*
X10107Y-12226D01*
X10155Y-12202D01*
X10274Y-12202D01*
X10321Y-12226D01*
X10345Y-12250D01*
X10369Y-12298D01*
X10369Y-12345D01*
X10345Y-12417D01*
X10059Y-12702D01*
X10369Y-12702D01*
X10797Y-12369D02*
X10797Y-12702D01*
X10678Y-12179D02*
X10559Y-12536D01*
X10869Y-12536D01*
X10988Y-12202D02*
X11154Y-12702D01*
X11321Y-12202D01*
X11869Y-12702D02*
X11869Y-12202D01*
X12107Y-12702D02*
X12107Y-12202D01*
X12393Y-12702D01*
X12393Y-12202D01*
X10869Y-13026D02*
X10821Y-13002D01*
X10750Y-13002D01*
X10678Y-13026D01*
X10631Y-13074D01*
X10607Y-13121D01*
X10583Y-13217D01*
X10583Y-13288D01*
X10607Y-13383D01*
X10631Y-13431D01*
X10678Y-13479D01*
X10750Y-13502D01*
X10798Y-13502D01*
X10869Y-13479D01*
X10893Y-13455D01*
X10893Y-13288D01*
X10798Y-13288D01*
X11107Y-13502D02*
X11107Y-13002D01*
X11393Y-13502D01*
X11393Y-13002D01*
X11631Y-13502D02*
X11631Y-13002D01*
X11750Y-13002D01*
X11822Y-13026D01*
X11869Y-13074D01*
X11893Y-13121D01*
X11917Y-13217D01*
X11917Y-13288D01*
X11893Y-13383D01*
X11869Y-13431D01*
X11822Y-13479D01*
X11750Y-13502D01*
X11631Y-13502D01*
X11155Y-15000D02*
X11179Y-14976D01*
X11227Y-14952D01*
X11346Y-14952D01*
X11393Y-14976D01*
X11417Y-15000D01*
X11441Y-15048D01*
X11441Y-15095D01*
X11417Y-15167D01*
X11131Y-15452D01*
X11441Y-15452D01*
X11869Y-15119D02*
X11869Y-15452D01*
X11750Y-14929D02*
X11631Y-15286D01*
X11941Y-15286D01*
X12060Y-14952D02*
X12226Y-15452D01*
X12393Y-14952D01*
X11631Y-17710D02*
X11869Y-17710D01*
X11584Y-17852D02*
X11750Y-17352D01*
X11917Y-17852D01*
X11786Y-19990D02*
X11857Y-20014D01*
X11881Y-20038D01*
X11905Y-20086D01*
X11905Y-20157D01*
X11881Y-20205D01*
X11857Y-20229D01*
X11810Y-20252D01*
X11619Y-20252D01*
X11619Y-19752D01*
X11786Y-19752D01*
X11833Y-19776D01*
X11857Y-19800D01*
X11881Y-19848D01*
X11881Y-19895D01*
X11857Y-19943D01*
X11833Y-19967D01*
X11786Y-19990D01*
X11619Y-19990D01*
X11369Y-22176D02*
X11321Y-22152D01*
X11250Y-22152D01*
X11178Y-22176D01*
X11131Y-22224D01*
X11107Y-22271D01*
X11083Y-22367D01*
X11083Y-22438D01*
X11107Y-22533D01*
X11131Y-22581D01*
X11178Y-22629D01*
X11250Y-22652D01*
X11298Y-22652D01*
X11369Y-22629D01*
X11393Y-22605D01*
X11393Y-22438D01*
X11298Y-22438D01*
X11607Y-22652D02*
X11607Y-22152D01*
X11893Y-22652D01*
X11893Y-22152D01*
X12131Y-22652D02*
X12131Y-22152D01*
X12250Y-22152D01*
X12322Y-22176D01*
X12369Y-22224D01*
X12393Y-22271D01*
X12417Y-22367D01*
X12417Y-22438D01*
X12393Y-22533D01*
X12369Y-22581D01*
X12322Y-22629D01*
X12250Y-22652D01*
X12131Y-22652D01*
G54D13*
X26772Y-57087D02*
X26772Y-23622D01*
X48819Y-57087D02*
X26772Y-57087D01*
X48819Y-23622D02*
X48819Y-57087D01*
X26772Y-23622D02*
X48819Y-23622D01*
X09843Y-72834D02*
X09843Y-09842D01*
X49213Y-72835D02*
X09843Y-72835D01*
X49213Y-09843D02*
X49213Y-72835D01*
X09843Y-09843D02*
X49213Y-09843D01*
G54D12*
X12880Y-23510D02*
X15420Y-23510D01*
X17000Y-23510D02*
X16410Y-23510D01*
X12880Y-21250D02*
X15420Y-21250D01*
X17000Y-21250D02*
X16410Y-21250D01*
X16410Y-23510D02*
X16610Y-23910D01*
X16610Y-23910D02*
X15220Y-23910D01*
X15220Y-23910D02*
X15420Y-23510D01*
X16410Y-21250D02*
X16610Y-21650D01*
X16610Y-21650D02*
X15220Y-21650D01*
X15220Y-21650D02*
X15420Y-21250D01*
X17000Y-21250D02*
X17000Y-23510D01*
X12880Y-23510D02*
X12880Y-21250D01*
X12880Y-21260D02*
X15420Y-21260D01*
X17000Y-21260D02*
X16410Y-21260D01*
X12880Y-19000D02*
X15420Y-19000D01*
X17000Y-19000D02*
X16410Y-19000D01*
X16410Y-21260D02*
X16610Y-21660D01*
X16610Y-21660D02*
X15220Y-21660D01*
X15220Y-21660D02*
X15420Y-21260D01*
X16410Y-19000D02*
X16610Y-19400D01*
X16610Y-19400D02*
X15220Y-19400D01*
X15220Y-19400D02*
X15420Y-19000D01*
X17000Y-19000D02*
X17000Y-21260D01*
X12880Y-21260D02*
X12880Y-19000D01*
X12880Y-19010D02*
X15420Y-19010D01*
X17000Y-19010D02*
X16410Y-19010D01*
X12880Y-16750D02*
X15420Y-16750D01*
X17000Y-16750D02*
X16410Y-16750D01*
X16410Y-19010D02*
X16610Y-19410D01*
X16610Y-19410D02*
X15220Y-19410D01*
X15220Y-19410D02*
X15420Y-19010D01*
X16410Y-16750D02*
X16610Y-17150D01*
X16610Y-17150D02*
X15220Y-17150D01*
X15220Y-17150D02*
X15420Y-16750D01*
X17000Y-16750D02*
X17000Y-19010D01*
X12880Y-19010D02*
X12880Y-16750D01*
X12880Y-16760D02*
X15420Y-16760D01*
X17000Y-16760D02*
X16410Y-16760D01*
X12880Y-14500D02*
X15420Y-14500D01*
X17000Y-14500D02*
X16410Y-14500D01*
X16410Y-16760D02*
X16610Y-17160D01*
X16610Y-17160D02*
X15220Y-17160D01*
X15220Y-17160D02*
X15420Y-16760D01*
X16410Y-14500D02*
X16610Y-14900D01*
X16610Y-14900D02*
X15220Y-14900D01*
X15220Y-14900D02*
X15420Y-14500D01*
X17000Y-14500D02*
X17000Y-16760D01*
X12880Y-16760D02*
X12880Y-14500D01*
G54D14*
X32150Y-10200D02*
X32150Y-14400D01*
X32150Y-14400D02*
X27350Y-14400D01*
X27350Y-14400D02*
X27350Y-10200D01*
X27350Y-10200D02*
X32150Y-10200D01*
G54D15*
X25600Y-70650D02*
X25599Y-70659D01*
X25596Y-70669D01*
X25591Y-70677D01*
X25585Y-70685D01*
X25577Y-70691D01*
X25569Y-70696D01*
X25560Y-70698D01*
X25550Y-70699D01*
X25541Y-70699D01*
X25532Y-70696D01*
X25523Y-70691D01*
X25516Y-70685D01*
X25509Y-70678D01*
X25505Y-70669D01*
X25502Y-70660D01*
X25501Y-70650D01*
X25501Y-70641D01*
X25504Y-70632D01*
X25508Y-70623D01*
X25515Y-70616D01*
X25522Y-70609D01*
X25530Y-70605D01*
X25540Y-70602D01*
X25549Y-70601D01*
X25558Y-70601D01*
X25568Y-70604D01*
X25576Y-70608D01*
X25584Y-70614D01*
X25590Y-70622D01*
X25595Y-70630D01*
X25598Y-70639D01*
X25599Y-70649D01*
X25600Y-70650D01*
X25550Y-70200D02*
X25550Y-70600D01*
X25550Y-70600D02*
X24950Y-70600D01*
X24950Y-70600D02*
X24950Y-70200D01*
X24950Y-69800D02*
X24950Y-69400D01*
X24950Y-69400D02*
X25550Y-69400D01*
X25550Y-69400D02*
X25550Y-69800D01*
X25600Y-56650D02*
X25599Y-56659D01*
X25596Y-56669D01*
X25591Y-56677D01*
X25585Y-56685D01*
X25577Y-56691D01*
X25569Y-56696D01*
X25560Y-56698D01*
X25550Y-56699D01*
X25541Y-56699D01*
X25532Y-56696D01*
X25523Y-56691D01*
X25516Y-56685D01*
X25509Y-56678D01*
X25505Y-56669D01*
X25502Y-56660D01*
X25501Y-56650D01*
X25501Y-56641D01*
X25504Y-56632D01*
X25508Y-56623D01*
X25515Y-56616D01*
X25522Y-56609D01*
X25530Y-56605D01*
X25540Y-56602D01*
X25549Y-56601D01*
X25558Y-56601D01*
X25568Y-56604D01*
X25576Y-56608D01*
X25584Y-56614D01*
X25590Y-56622D01*
X25595Y-56630D01*
X25598Y-56639D01*
X25599Y-56649D01*
X25600Y-56650D01*
X25550Y-56200D02*
X25550Y-56600D01*
X25550Y-56600D02*
X24950Y-56600D01*
X24950Y-56600D02*
X24950Y-56200D01*
X24950Y-55800D02*
X24950Y-55400D01*
X24950Y-55400D02*
X25550Y-55400D01*
X25550Y-55400D02*
X25550Y-55800D01*
X25600Y-49650D02*
X25599Y-49659D01*
X25596Y-49669D01*
X25591Y-49677D01*
X25585Y-49685D01*
X25577Y-49691D01*
X25569Y-49696D01*
X25560Y-49698D01*
X25550Y-49699D01*
X25541Y-49699D01*
X25532Y-49696D01*
X25523Y-49691D01*
X25516Y-49685D01*
X25509Y-49678D01*
X25505Y-49669D01*
X25502Y-49660D01*
X25501Y-49650D01*
X25501Y-49641D01*
X25504Y-49632D01*
X25508Y-49623D01*
X25515Y-49616D01*
X25522Y-49609D01*
X25530Y-49605D01*
X25540Y-49602D01*
X25549Y-49601D01*
X25558Y-49601D01*
X25568Y-49604D01*
X25576Y-49608D01*
X25584Y-49614D01*
X25590Y-49622D01*
X25595Y-49630D01*
X25598Y-49639D01*
X25599Y-49649D01*
X25600Y-49650D01*
X25550Y-49200D02*
X25550Y-49600D01*
X25550Y-49600D02*
X24950Y-49600D01*
X24950Y-49600D02*
X24950Y-49200D01*
X24950Y-48800D02*
X24950Y-48400D01*
X24950Y-48400D02*
X25550Y-48400D01*
X25550Y-48400D02*
X25550Y-48800D01*
X25600Y-63650D02*
X25599Y-63659D01*
X25596Y-63669D01*
X25591Y-63677D01*
X25585Y-63685D01*
X25577Y-63691D01*
X25569Y-63696D01*
X25560Y-63698D01*
X25550Y-63699D01*
X25541Y-63699D01*
X25532Y-63696D01*
X25523Y-63691D01*
X25516Y-63685D01*
X25509Y-63678D01*
X25505Y-63669D01*
X25502Y-63660D01*
X25501Y-63650D01*
X25501Y-63641D01*
X25504Y-63632D01*
X25508Y-63623D01*
X25515Y-63616D01*
X25522Y-63609D01*
X25530Y-63605D01*
X25540Y-63602D01*
X25549Y-63601D01*
X25558Y-63601D01*
X25568Y-63604D01*
X25576Y-63608D01*
X25584Y-63614D01*
X25590Y-63622D01*
X25595Y-63630D01*
X25598Y-63639D01*
X25599Y-63649D01*
X25600Y-63650D01*
X25550Y-63200D02*
X25550Y-63600D01*
X25550Y-63600D02*
X24950Y-63600D01*
X24950Y-63600D02*
X24950Y-63200D01*
X24950Y-62800D02*
X24950Y-62400D01*
X24950Y-62400D02*
X25550Y-62400D01*
X25550Y-62400D02*
X25550Y-62800D01*
X25000Y-63850D02*
X24999Y-63859D01*
X24996Y-63869D01*
X24991Y-63877D01*
X24985Y-63885D01*
X24977Y-63891D01*
X24969Y-63896D01*
X24960Y-63898D01*
X24950Y-63899D01*
X24941Y-63899D01*
X24932Y-63896D01*
X24923Y-63891D01*
X24916Y-63885D01*
X24909Y-63878D01*
X24905Y-63869D01*
X24902Y-63860D01*
X24901Y-63850D01*
X24901Y-63841D01*
X24904Y-63832D01*
X24908Y-63823D01*
X24915Y-63816D01*
X24922Y-63809D01*
X24930Y-63805D01*
X24940Y-63802D01*
X24949Y-63801D01*
X24958Y-63801D01*
X24968Y-63804D01*
X24976Y-63808D01*
X24984Y-63814D01*
X24990Y-63822D01*
X24995Y-63830D01*
X24998Y-63839D01*
X24999Y-63849D01*
X25000Y-63850D01*
X24950Y-64300D02*
X24950Y-63900D01*
X24950Y-63900D02*
X25550Y-63900D01*
X25550Y-63900D02*
X25550Y-64300D01*
X25550Y-64700D02*
X25550Y-65100D01*
X25550Y-65100D02*
X24950Y-65100D01*
X24950Y-65100D02*
X24950Y-64700D01*
X25000Y-56850D02*
X24999Y-56859D01*
X24996Y-56869D01*
X24991Y-56877D01*
X24985Y-56885D01*
X24977Y-56891D01*
X24969Y-56896D01*
X24960Y-56898D01*
X24950Y-56899D01*
X24941Y-56899D01*
X24932Y-56896D01*
X24923Y-56891D01*
X24916Y-56885D01*
X24909Y-56878D01*
X24905Y-56869D01*
X24902Y-56860D01*
X24901Y-56850D01*
X24901Y-56841D01*
X24904Y-56832D01*
X24908Y-56823D01*
X24915Y-56816D01*
X24922Y-56809D01*
X24930Y-56805D01*
X24940Y-56802D01*
X24949Y-56801D01*
X24958Y-56801D01*
X24968Y-56804D01*
X24976Y-56808D01*
X24984Y-56814D01*
X24990Y-56822D01*
X24995Y-56830D01*
X24998Y-56839D01*
X24999Y-56849D01*
X25000Y-56850D01*
X24950Y-57300D02*
X24950Y-56900D01*
X24950Y-56900D02*
X25550Y-56900D01*
X25550Y-56900D02*
X25550Y-57300D01*
X25550Y-57700D02*
X25550Y-58100D01*
X25550Y-58100D02*
X24950Y-58100D01*
X24950Y-58100D02*
X24950Y-57700D01*
X25000Y-49850D02*
X24999Y-49859D01*
X24996Y-49869D01*
X24991Y-49877D01*
X24985Y-49885D01*
X24977Y-49891D01*
X24969Y-49896D01*
X24960Y-49898D01*
X24950Y-49899D01*
X24941Y-49899D01*
X24932Y-49896D01*
X24923Y-49891D01*
X24916Y-49885D01*
X24909Y-49878D01*
X24905Y-49869D01*
X24902Y-49860D01*
X24901Y-49850D01*
X24901Y-49841D01*
X24904Y-49832D01*
X24908Y-49823D01*
X24915Y-49816D01*
X24922Y-49809D01*
X24930Y-49805D01*
X24940Y-49802D01*
X24949Y-49801D01*
X24958Y-49801D01*
X24968Y-49804D01*
X24976Y-49808D01*
X24984Y-49814D01*
X24990Y-49822D01*
X24995Y-49830D01*
X24998Y-49839D01*
X24999Y-49849D01*
X25000Y-49850D01*
X24950Y-50300D02*
X24950Y-49900D01*
X24950Y-49900D02*
X25550Y-49900D01*
X25550Y-49900D02*
X25550Y-50300D01*
X25550Y-50700D02*
X25550Y-51100D01*
X25550Y-51100D02*
X24950Y-51100D01*
X24950Y-51100D02*
X24950Y-50700D01*
X25000Y-70850D02*
X24999Y-70859D01*
X24996Y-70869D01*
X24991Y-70877D01*
X24985Y-70885D01*
X24977Y-70891D01*
X24969Y-70896D01*
X24960Y-70898D01*
X24950Y-70899D01*
X24941Y-70899D01*
X24932Y-70896D01*
X24923Y-70891D01*
X24916Y-70885D01*
X24909Y-70878D01*
X24905Y-70869D01*
X24902Y-70860D01*
X24901Y-70850D01*
X24901Y-70841D01*
X24904Y-70832D01*
X24908Y-70823D01*
X24915Y-70816D01*
X24922Y-70809D01*
X24930Y-70805D01*
X24940Y-70802D01*
X24949Y-70801D01*
X24958Y-70801D01*
X24968Y-70804D01*
X24976Y-70808D01*
X24984Y-70814D01*
X24990Y-70822D01*
X24995Y-70830D01*
X24998Y-70839D01*
X24999Y-70849D01*
X25000Y-70850D01*
X24950Y-71300D02*
X24950Y-70900D01*
X24950Y-70900D02*
X25550Y-70900D01*
X25550Y-70900D02*
X25550Y-71300D01*
X25550Y-71700D02*
X25550Y-72100D01*
X25550Y-72100D02*
X24950Y-72100D01*
X24950Y-72100D02*
X24950Y-71700D01*
G54D14*
X32642Y-14537D02*
X33626Y-15285D01*
X33626Y-12215D02*
X32642Y-12963D01*
X33627Y-15284D02*
X33771Y-15529D01*
X33937Y-15760D01*
X34122Y-15976D01*
X34325Y-16174D01*
X34544Y-16355D01*
X34779Y-16515D01*
X35026Y-16655D01*
X35285Y-16772D01*
X35553Y-16867D01*
X35829Y-16937D01*
X36109Y-16984D01*
X36392Y-17006D01*
X36676Y-17003D01*
X36959Y-16975D01*
X37238Y-16923D01*
X37512Y-16846D01*
X37778Y-16746D01*
X38034Y-16623D01*
X39335Y-15325D02*
X40358Y-14537D01*
X40358Y-12963D02*
X39335Y-12175D01*
X39333Y-12173D02*
X39185Y-11932D01*
X39016Y-11705D01*
X38828Y-11494D01*
X38623Y-11299D01*
X38401Y-11124D01*
X38165Y-10968D01*
X37916Y-10833D01*
X37656Y-10721D01*
X37388Y-10632D01*
X37113Y-10566D01*
X36833Y-10525D01*
X36550Y-10508D01*
X36269Y-10516D01*
X35988Y-10548D01*
X35710Y-10605D01*
X35439Y-10686D01*
X35176Y-10790D01*
X34923Y-10917D01*
X34923Y-16583D02*
X35176Y-16710D01*
X35439Y-16814D01*
X35710Y-16895D01*
X35988Y-16952D01*
X36269Y-16984D01*
X36550Y-16992D01*
X36833Y-16975D01*
X37113Y-16934D01*
X37388Y-16868D01*
X37656Y-16779D01*
X37916Y-16667D01*
X38165Y-16532D01*
X38401Y-16376D01*
X38623Y-16201D01*
X38828Y-16006D01*
X39016Y-15795D01*
X39185Y-15568D01*
X39333Y-15327D01*
X38034Y-10877D02*
X37778Y-10754D01*
X37512Y-10654D01*
X37238Y-10577D01*
X36959Y-10525D01*
X36676Y-10497D01*
X36392Y-10494D01*
X36109Y-10516D01*
X35829Y-10563D01*
X35553Y-10633D01*
X35285Y-10728D01*
X35026Y-10845D01*
X34779Y-10985D01*
X34544Y-11145D01*
X34325Y-11326D01*
X34122Y-11524D01*
X33937Y-11740D01*
X33771Y-11971D01*
X33627Y-12216D01*
X32642Y-14537D02*
X32642Y-12963D01*
X40358Y-14537D02*
X40358Y-12963D01*
X35672Y-16584D02*
X35922Y-16645D01*
X36176Y-16685D01*
X36434Y-16702D01*
X36690Y-16696D01*
X36946Y-16669D01*
X37199Y-16618D01*
X37446Y-16547D01*
X37686Y-16453D01*
X37918Y-16340D01*
X38138Y-16206D01*
X38346Y-16054D01*
X38540Y-15884D01*
X38718Y-15698D01*
X38879Y-15498D01*
X39023Y-15284D01*
X39147Y-15058D01*
X39251Y-14822D01*
X39334Y-14578D01*
X33666Y-14578D02*
X33749Y-14822D01*
X33853Y-15058D01*
X33977Y-15284D01*
X34121Y-15498D01*
X34282Y-15698D01*
X34460Y-15884D01*
X34654Y-16054D01*
X34862Y-16206D01*
X35082Y-16340D01*
X35314Y-16453D01*
X35554Y-16547D01*
X35801Y-16618D01*
X36054Y-16669D01*
X36310Y-16696D01*
X36566Y-16702D01*
X36824Y-16685D01*
X37078Y-16645D01*
X37328Y-16584D01*
X39334Y-12884D02*
X39248Y-12640D01*
X39140Y-12405D01*
X39013Y-12180D01*
X38867Y-11967D01*
X38702Y-11767D01*
X38521Y-11583D01*
X38324Y-11415D01*
X38114Y-11265D01*
X37891Y-11133D01*
X37658Y-11022D01*
X37415Y-10932D01*
X37166Y-10862D01*
X36912Y-10815D01*
X36655Y-10791D01*
X36397Y-10788D01*
X36139Y-10809D01*
X35884Y-10851D01*
X35634Y-10916D01*
X37328Y-10916D02*
X37078Y-10855D01*
X36824Y-10815D01*
X36566Y-10798D01*
X36310Y-10804D01*
X36054Y-10831D01*
X35801Y-10882D01*
X35554Y-10953D01*
X35314Y-11047D01*
X35082Y-11160D01*
X34862Y-11294D01*
X34654Y-11446D01*
X34460Y-11616D01*
X34282Y-11802D01*
X34121Y-12002D01*
X33977Y-12216D01*
X33853Y-12442D01*
X33749Y-12678D01*
X33666Y-12922D01*
G54D12*
X45402Y-11787D02*
X45402Y-11689D01*
X45402Y-11689D02*
X44614Y-11689D01*
X44614Y-11689D02*
X44614Y-11787D01*
X44614Y-11787D02*
X45402Y-11787D01*
X44024Y-11886D02*
X45992Y-11886D01*
X45992Y-11886D02*
X45992Y-10114D01*
X45992Y-10114D02*
X44024Y-10114D01*
X44024Y-10114D02*
X44024Y-11886D01*
X42402Y-11787D02*
X42402Y-11689D01*
X42402Y-11689D02*
X41614Y-11689D01*
X41614Y-11689D02*
X41614Y-11787D01*
X41614Y-11787D02*
X42402Y-11787D01*
X41024Y-11886D02*
X42992Y-11886D01*
X42992Y-11886D02*
X42992Y-10114D01*
X42992Y-10114D02*
X41024Y-10114D01*
X41024Y-10114D02*
X41024Y-11886D01*
X21902Y-11787D02*
X21902Y-11689D01*
X21902Y-11689D02*
X21114Y-11689D01*
X21114Y-11689D02*
X21114Y-11787D01*
X21114Y-11787D02*
X21902Y-11787D01*
X20524Y-11886D02*
X22492Y-11886D01*
X22492Y-11886D02*
X22492Y-10114D01*
X22492Y-10114D02*
X20524Y-10114D01*
X20524Y-10114D02*
X20524Y-11886D01*
X18902Y-11787D02*
X18902Y-11689D01*
X18902Y-11689D02*
X18114Y-11689D01*
X18114Y-11689D02*
X18114Y-11787D01*
X18114Y-11787D02*
X18902Y-11787D01*
X17524Y-11886D02*
X19492Y-11886D01*
X19492Y-11886D02*
X19492Y-10114D01*
X19492Y-10114D02*
X17524Y-10114D01*
X17524Y-10114D02*
X17524Y-11886D01*
X24287Y-55787D02*
X24287Y-54999D01*
X24543Y-52145D02*
X15803Y-52145D01*
X15803Y-52145D02*
X15803Y-58641D01*
X15803Y-58641D02*
X24543Y-58641D01*
X24543Y-58641D02*
X24543Y-52145D01*
X24287Y-48787D02*
X24287Y-47999D01*
X24543Y-45145D02*
X15803Y-45145D01*
X15803Y-45145D02*
X15803Y-51641D01*
X15803Y-51641D02*
X24543Y-51641D01*
X24543Y-51641D02*
X24543Y-45145D01*
X24287Y-69787D02*
X24287Y-68999D01*
X24543Y-66145D02*
X15803Y-66145D01*
X15803Y-66145D02*
X15803Y-72641D01*
X15803Y-72641D02*
X24543Y-72641D01*
X24543Y-72641D02*
X24543Y-66145D01*
X24287Y-62787D02*
X24287Y-61999D01*
X24543Y-59145D02*
X15803Y-59145D01*
X15803Y-59145D02*
X15803Y-65641D01*
X15803Y-65641D02*
X24543Y-65641D01*
X24543Y-65641D02*
X24543Y-59145D01*
X17500Y-19750D02*
X19500Y-19750D01*
X19500Y-19750D02*
X19500Y-20750D01*
X19500Y-20750D02*
X17500Y-20750D01*
X17500Y-20750D02*
X17500Y-19750D01*
X17500Y-18500D02*
X19500Y-18500D01*
X19500Y-18500D02*
X19500Y-19500D01*
X19500Y-19500D02*
X17500Y-19500D01*
X17500Y-19500D02*
X17500Y-18500D01*
X17500Y-21000D02*
X19500Y-21000D01*
X19500Y-21000D02*
X19500Y-22000D01*
X19500Y-22000D02*
X17500Y-22000D01*
X17500Y-22000D02*
X17500Y-21000D01*
X22000Y-44000D02*
X24000Y-44000D01*
X24000Y-44000D02*
X24000Y-45000D01*
X24000Y-45000D02*
X22000Y-45000D01*
X22000Y-45000D02*
X22000Y-44000D01*
X12750Y-24750D02*
X14750Y-24750D01*
X14750Y-24750D02*
X14750Y-25750D01*
X14750Y-25750D02*
X12750Y-25750D01*
X12750Y-25750D02*
X12750Y-24750D01*
X31500Y-60500D02*
X31500Y-59500D01*
X31500Y-59500D02*
X47500Y-59500D01*
X47500Y-59500D02*
X47500Y-60500D01*
X47500Y-60500D02*
X31500Y-60500D01*
X28500Y-59400D02*
X29500Y-59400D01*
X29500Y-59400D02*
X29500Y-69500D01*
X29500Y-69500D02*
X28500Y-69500D01*
X28500Y-69500D02*
X28500Y-59400D01*
X29500Y-69500D02*
X28500Y-69500D01*
X26100Y-24750D02*
X26100Y-25750D01*
X26100Y-25750D02*
X16000Y-25750D01*
X16000Y-25750D02*
X16000Y-24750D01*
X16000Y-24750D02*
X26100Y-24750D01*
X16000Y-25750D02*
X16000Y-24750D01*
G54D14*
X37228Y-51161D02*
X37228Y-53839D01*
X37228Y-51161D02*
X39709Y-51161D01*
X37228Y-53839D02*
X39709Y-53839D01*
X47819Y-52500D02*
X47746Y-53241D01*
X47530Y-53955D01*
X47180Y-54613D01*
X46709Y-55190D01*
X46135Y-55666D01*
X45479Y-56020D01*
X44767Y-56240D01*
X44026Y-56318D01*
X43285Y-56251D01*
X42570Y-56040D01*
X41909Y-55695D01*
X41328Y-55228D01*
X40849Y-54657D01*
X40490Y-54004D01*
X40265Y-53294D01*
X40182Y-52553D01*
X40244Y-51811D01*
X40450Y-51095D01*
X40790Y-50432D01*
X41253Y-49848D01*
X41821Y-49365D01*
X42472Y-49001D01*
X43180Y-48771D01*
X43921Y-48682D01*
X44663Y-48740D01*
X45381Y-48940D01*
X46046Y-49276D01*
X46633Y-49735D01*
X47120Y-50299D01*
X47488Y-50947D01*
X47724Y-51654D01*
X47817Y-52394D01*
X47819Y-52500D01*
X37583Y-53484D02*
X39591Y-53484D01*
X37583Y-53484D02*
X37583Y-51516D01*
X37583Y-51516D02*
X39591Y-51516D01*
X48500Y-52500D02*
X48414Y-53374D01*
X48160Y-54214D01*
X47748Y-54990D01*
X47193Y-55670D01*
X46516Y-56230D01*
X45743Y-56648D01*
X44904Y-56908D01*
X44031Y-56999D01*
X43157Y-56920D01*
X42315Y-56672D01*
X41536Y-56265D01*
X40852Y-55715D01*
X40287Y-55042D01*
X39864Y-54272D01*
X39599Y-53435D01*
X39501Y-52562D01*
X39574Y-51688D01*
X39817Y-50844D01*
X40218Y-50063D01*
X40763Y-49375D01*
X41432Y-48805D01*
X42199Y-48377D01*
X43034Y-48105D01*
X43906Y-48001D01*
X44781Y-48069D01*
X45627Y-48305D01*
X46411Y-48701D01*
X47103Y-49242D01*
X47677Y-49907D01*
X48110Y-50670D01*
X48388Y-51504D01*
X48498Y-52375D01*
X48500Y-52500D01*
X38472Y-50960D02*
X38472Y-50460D01*
X38722Y-50710D02*
X38222Y-50710D01*
X27675Y-18252D02*
X27281Y-18252D01*
X27478Y-18449D02*
X27478Y-18055D01*
X27911Y-18449D02*
X27911Y-18055D01*
X27911Y-18055D02*
X28305Y-17661D01*
X28305Y-17661D02*
X30589Y-17661D01*
X27911Y-19945D02*
X27911Y-19551D01*
X28305Y-20339D02*
X30589Y-20339D01*
X27911Y-19945D02*
X28305Y-20339D01*
X30589Y-19551D02*
X30589Y-20339D01*
X30589Y-17661D02*
X30589Y-18449D01*
X32494Y-17494D02*
X37022Y-17494D01*
X37022Y-17494D02*
X38006Y-18478D01*
X38006Y-18478D02*
X38006Y-19463D01*
X37022Y-23006D02*
X32494Y-23006D01*
X38006Y-21037D02*
X38006Y-22022D01*
X38006Y-22022D02*
X37022Y-23006D01*
X32494Y-19463D02*
X32494Y-17494D01*
X32494Y-21037D02*
X32494Y-23006D01*
X38400Y-21588D02*
X38794Y-21588D01*
X38597Y-21391D02*
X38597Y-21785D01*
G54D12*
X12600Y-53300D02*
X12600Y-52500D01*
X15600Y-48500D02*
X15600Y-54500D01*
X15600Y-54500D02*
X12600Y-54500D01*
X12600Y-54500D02*
X12600Y-53700D01*
X12600Y-51700D02*
X12600Y-52500D01*
X12600Y-49700D02*
X12600Y-51300D01*
X12600Y-48500D02*
X12600Y-49300D01*
X12600Y-48500D02*
X15600Y-48500D01*
X12600Y-59300D02*
X12600Y-58500D01*
X15600Y-54500D02*
X15600Y-60500D01*
X15600Y-60500D02*
X12600Y-60500D01*
X12600Y-60500D02*
X12600Y-59700D01*
X12600Y-57700D02*
X12600Y-58500D01*
X12600Y-55700D02*
X12600Y-57300D01*
X12600Y-54500D02*
X12600Y-55300D01*
X12600Y-54500D02*
X15600Y-54500D01*
X12600Y-65300D02*
X12600Y-64500D01*
X15600Y-60500D02*
X15600Y-66500D01*
X15600Y-66500D02*
X12600Y-66500D01*
X12600Y-66500D02*
X12600Y-65700D01*
X12600Y-63700D02*
X12600Y-64500D01*
X12600Y-61700D02*
X12600Y-63300D01*
X12600Y-60500D02*
X12600Y-61300D01*
X12600Y-60500D02*
X15600Y-60500D01*
X12600Y-71300D02*
X12600Y-70500D01*
X15600Y-66500D02*
X15600Y-72500D01*
X15600Y-72500D02*
X12600Y-72500D01*
X12600Y-72500D02*
X12600Y-71700D01*
X12600Y-69700D02*
X12600Y-70500D01*
X12600Y-67700D02*
X12600Y-69300D01*
X12600Y-66500D02*
X12600Y-67300D01*
X12600Y-66500D02*
X15600Y-66500D01*
X12850Y-11050D02*
X12850Y-10250D01*
X12850Y-13050D02*
X12850Y-11450D01*
X12850Y-14250D02*
X12850Y-13450D01*
X15850Y-10250D02*
X12850Y-10250D01*
X15850Y-14250D02*
X12850Y-14250D01*
X15850Y-10250D02*
X15850Y-14250D01*
X12850Y-26800D02*
X12850Y-26000D01*
X12850Y-28800D02*
X12850Y-27200D01*
X12850Y-30000D02*
X12850Y-29200D01*
X15850Y-26000D02*
X12850Y-26000D01*
X15850Y-30000D02*
X12850Y-30000D01*
X15850Y-26000D02*
X15850Y-30000D01*
X12850Y-30800D02*
X12850Y-30000D01*
X12850Y-32800D02*
X12850Y-31200D01*
X12850Y-34000D02*
X12850Y-33200D01*
X15850Y-30000D02*
X12850Y-30000D01*
X15850Y-34000D02*
X12850Y-34000D01*
X15850Y-30000D02*
X15850Y-34000D01*
X12850Y-34800D02*
X12850Y-34000D01*
X12850Y-36800D02*
X12850Y-35200D01*
X12850Y-38000D02*
X12850Y-37200D01*
X15850Y-34000D02*
X12850Y-34000D01*
X15850Y-38000D02*
X12850Y-38000D01*
X15850Y-34000D02*
X15850Y-38000D01*
X12850Y-38800D02*
X12850Y-38000D01*
X12850Y-40800D02*
X12850Y-39200D01*
X12850Y-42000D02*
X12850Y-41200D01*
X15850Y-38000D02*
X12850Y-38000D01*
X15850Y-42000D02*
X12850Y-42000D01*
X15850Y-38000D02*
X15850Y-42000D01*
X21350Y-26800D02*
X21350Y-26000D01*
X21350Y-28800D02*
X21350Y-27200D01*
X21350Y-30000D02*
X21350Y-29200D01*
X24350Y-26000D02*
X21350Y-26000D01*
X24350Y-30000D02*
X21350Y-30000D01*
X24350Y-26000D02*
X24350Y-30000D01*
X21350Y-30800D02*
X21350Y-30000D01*
X21350Y-32800D02*
X21350Y-31200D01*
X21350Y-34000D02*
X21350Y-33200D01*
X24350Y-30000D02*
X21350Y-30000D01*
X24350Y-34000D02*
X21350Y-34000D01*
X24350Y-30000D02*
X24350Y-34000D01*
X21350Y-34800D02*
X21350Y-34000D01*
X21350Y-36800D02*
X21350Y-35200D01*
X21350Y-38000D02*
X21350Y-37200D01*
X24350Y-34000D02*
X21350Y-34000D01*
X24350Y-38000D02*
X21350Y-38000D01*
X24350Y-34000D02*
X24350Y-38000D01*
X21350Y-38800D02*
X21350Y-38000D01*
X21350Y-40800D02*
X21350Y-39200D01*
X21350Y-42000D02*
X21350Y-41200D01*
X24350Y-38000D02*
X21350Y-38000D01*
X24350Y-42000D02*
X21350Y-42000D01*
X24350Y-38000D02*
X24350Y-42000D01*
X31000Y-58500D02*
X31000Y-51500D01*
X30750Y-51500D02*
X30750Y-58250D01*
X31000Y-49500D02*
X31000Y-42500D01*
X30750Y-42750D02*
X30750Y-49500D01*
X27250Y-58250D02*
X27250Y-42750D01*
X27000Y-42500D02*
X27000Y-58500D01*
X31000Y-51500D02*
X30750Y-51500D01*
X30750Y-58250D02*
X27250Y-58250D01*
X27250Y-42750D02*
X30750Y-42750D01*
X30750Y-49500D02*
X31000Y-49500D01*
X31000Y-42500D02*
X27000Y-42500D01*
X27000Y-58500D02*
X31000Y-58500D01*
X49031Y-70654D02*
X47031Y-70654D01*
X47031Y-70654D02*
X47031Y-72654D01*
X47031Y-72654D02*
X49031Y-72654D01*
X49031Y-72654D02*
X49031Y-70654D01*
X12024Y-70654D02*
X10024Y-70654D01*
X10024Y-70654D02*
X10024Y-72654D01*
X10024Y-72654D02*
X12024Y-72654D01*
X12024Y-72654D02*
X12024Y-70654D01*
X12024Y-10024D02*
X10024Y-10024D01*
X10024Y-10024D02*
X10024Y-12024D01*
X10024Y-12024D02*
X12024Y-12024D01*
X12024Y-12024D02*
X12024Y-10024D01*
X49031Y-10024D02*
X47031Y-10024D01*
X47031Y-10024D02*
X47031Y-12024D01*
X47031Y-12024D02*
X49031Y-12024D01*
X49031Y-12024D02*
X49031Y-10024D01*
X42732Y-46047D02*
X40732Y-46047D01*
X40732Y-46047D02*
X40732Y-48047D01*
X40732Y-48047D02*
X42732Y-48047D01*
X42732Y-48047D02*
X42732Y-46047D01*
X32693Y-24591D02*
X30693Y-24591D01*
X30693Y-24591D02*
X30693Y-26591D01*
X30693Y-26591D02*
X32693Y-26591D01*
X32693Y-26591D02*
X32693Y-24591D01*
X12024Y-40339D02*
X10024Y-40339D01*
X10024Y-40339D02*
X10024Y-42339D01*
X10024Y-42339D02*
X12024Y-42339D01*
X12024Y-42339D02*
X12024Y-40339D01*
G54D14*
X24120Y-14878D02*
X24120Y-14287D01*
X24120Y-12122D02*
X24120Y-12713D01*
X20478Y-12122D02*
X20478Y-12713D01*
X20478Y-14878D02*
X20478Y-14287D01*
X26974Y-14878D02*
X26974Y-12122D01*
X17526Y-12122D02*
X17526Y-14878D01*
X17526Y-12122D02*
X26974Y-12122D01*
X26974Y-14878D02*
X17526Y-14878D01*
X42130Y-20122D02*
X42130Y-20713D01*
X42130Y-22878D02*
X42130Y-22287D01*
X45772Y-22878D02*
X45772Y-22287D01*
X45772Y-20122D02*
X45772Y-20713D01*
X39276Y-20122D02*
X39276Y-22878D01*
X48724Y-22878D02*
X48724Y-20122D01*
X48724Y-22878D02*
X39276Y-22878D01*
X39276Y-20122D02*
X48724Y-20122D01*
X42130Y-16372D02*
X42130Y-16963D01*
X42130Y-19128D02*
X42130Y-18537D01*
X45772Y-19128D02*
X45772Y-18537D01*
X45772Y-16372D02*
X45772Y-16963D01*
X39276Y-16372D02*
X39276Y-19128D01*
X48724Y-19128D02*
X48724Y-16372D01*
X48724Y-19128D02*
X39276Y-19128D01*
X39276Y-16372D02*
X48724Y-16372D01*
X24120Y-18128D02*
X24120Y-17537D01*
X24120Y-15372D02*
X24120Y-15963D01*
X20478Y-15372D02*
X20478Y-15963D01*
X20478Y-18128D02*
X20478Y-17537D01*
X26974Y-18128D02*
X26974Y-15372D01*
X17526Y-15372D02*
X17526Y-18128D01*
X17526Y-15372D02*
X26974Y-15372D01*
X26974Y-18128D02*
X17526Y-18128D01*
X13262Y-22383D02*
X13548Y-22383D01*
X13605Y-22403D01*
X13643Y-22441D01*
X13662Y-22498D01*
X13662Y-22536D01*
X13262Y-22002D02*
X13262Y-22193D01*
X13452Y-22212D01*
X13433Y-22193D01*
X13414Y-22155D01*
X13414Y-22059D01*
X13433Y-22021D01*
X13452Y-22002D01*
X13490Y-21983D01*
X13586Y-21983D01*
X13624Y-22002D01*
X13643Y-22021D01*
X13662Y-22059D01*
X13662Y-22155D01*
X13643Y-22193D01*
X13624Y-22212D01*
X13262Y-20383D02*
X13548Y-20383D01*
X13605Y-20403D01*
X13643Y-20441D01*
X13662Y-20498D01*
X13662Y-20536D01*
X13395Y-20021D02*
X13662Y-20021D01*
X13243Y-20117D02*
X13529Y-20212D01*
X13529Y-19964D01*
X13262Y-18133D02*
X13548Y-18133D01*
X13605Y-18153D01*
X13643Y-18191D01*
X13662Y-18248D01*
X13662Y-18286D01*
X13262Y-17981D02*
X13262Y-17733D01*
X13414Y-17867D01*
X13414Y-17809D01*
X13433Y-17771D01*
X13452Y-17752D01*
X13490Y-17733D01*
X13586Y-17733D01*
X13624Y-17752D01*
X13643Y-17771D01*
X13662Y-17809D01*
X13662Y-17924D01*
X13643Y-17962D01*
X13624Y-17981D01*
X13262Y-15883D02*
X13548Y-15883D01*
X13605Y-15903D01*
X13643Y-15941D01*
X13662Y-15998D01*
X13662Y-16036D01*
X13300Y-15712D02*
X13281Y-15693D01*
X13262Y-15655D01*
X13262Y-15559D01*
X13281Y-15521D01*
X13300Y-15502D01*
X13338Y-15483D01*
X13376Y-15483D01*
X13433Y-15502D01*
X13662Y-15731D01*
X13662Y-15483D01*
X26195Y-10512D02*
X26195Y-10836D01*
X26214Y-10874D01*
X26233Y-10893D01*
X26271Y-10912D01*
X26348Y-10912D01*
X26386Y-10893D01*
X26405Y-10874D01*
X26424Y-10836D01*
X26424Y-10512D01*
X26824Y-10912D02*
X26595Y-10912D01*
X26709Y-10912D02*
X26709Y-10512D01*
X26671Y-10569D01*
X26633Y-10607D01*
X26595Y-10626D01*
G54D16*
X26097Y-70155D02*
X25983Y-70235D01*
X26097Y-70292D02*
X25857Y-70292D01*
X25857Y-70200D01*
X25869Y-70178D01*
X25880Y-70166D01*
X25903Y-70155D01*
X25937Y-70155D01*
X25960Y-70166D01*
X25971Y-70178D01*
X25983Y-70200D01*
X25983Y-70292D01*
X25857Y-70075D02*
X25857Y-69926D01*
X25949Y-70006D01*
X25949Y-69972D01*
X25960Y-69949D01*
X25971Y-69938D01*
X25994Y-69926D01*
X26051Y-69926D01*
X26074Y-69938D01*
X26086Y-69949D01*
X26097Y-69972D01*
X26097Y-70040D01*
X26086Y-70063D01*
X26074Y-70075D01*
X25857Y-69777D02*
X25857Y-69754D01*
X25869Y-69731D01*
X25880Y-69720D01*
X25903Y-69709D01*
X25949Y-69697D01*
X26006Y-69697D01*
X26051Y-69709D01*
X26074Y-69720D01*
X26086Y-69731D01*
X26097Y-69754D01*
X26097Y-69777D01*
X26086Y-69800D01*
X26074Y-69811D01*
X26051Y-69823D01*
X26006Y-69834D01*
X25949Y-69834D01*
X25903Y-69823D01*
X25880Y-69811D01*
X25869Y-69800D01*
X25857Y-69777D01*
X26097Y-56155D02*
X25983Y-56235D01*
X26097Y-56292D02*
X25857Y-56292D01*
X25857Y-56200D01*
X25869Y-56178D01*
X25880Y-56166D01*
X25903Y-56155D01*
X25937Y-56155D01*
X25960Y-56166D01*
X25971Y-56178D01*
X25983Y-56200D01*
X25983Y-56292D01*
X25857Y-56075D02*
X25857Y-55926D01*
X25949Y-56006D01*
X25949Y-55972D01*
X25960Y-55949D01*
X25971Y-55938D01*
X25994Y-55926D01*
X26051Y-55926D01*
X26074Y-55938D01*
X26086Y-55949D01*
X26097Y-55972D01*
X26097Y-56040D01*
X26086Y-56063D01*
X26074Y-56075D01*
X25857Y-55720D02*
X25857Y-55766D01*
X25869Y-55789D01*
X25880Y-55800D01*
X25914Y-55823D01*
X25960Y-55834D01*
X26051Y-55834D01*
X26074Y-55823D01*
X26086Y-55811D01*
X26097Y-55789D01*
X26097Y-55743D01*
X26086Y-55720D01*
X26074Y-55709D01*
X26051Y-55697D01*
X25994Y-55697D01*
X25971Y-55709D01*
X25960Y-55720D01*
X25949Y-55743D01*
X25949Y-55789D01*
X25960Y-55811D01*
X25971Y-55823D01*
X25994Y-55834D01*
X26097Y-49155D02*
X25983Y-49235D01*
X26097Y-49292D02*
X25857Y-49292D01*
X25857Y-49200D01*
X25869Y-49178D01*
X25880Y-49166D01*
X25903Y-49155D01*
X25937Y-49155D01*
X25960Y-49166D01*
X25971Y-49178D01*
X25983Y-49200D01*
X25983Y-49292D01*
X25857Y-49075D02*
X25857Y-48926D01*
X25949Y-49006D01*
X25949Y-48972D01*
X25960Y-48949D01*
X25971Y-48938D01*
X25994Y-48926D01*
X26051Y-48926D01*
X26074Y-48938D01*
X26086Y-48949D01*
X26097Y-48972D01*
X26097Y-49040D01*
X26086Y-49063D01*
X26074Y-49075D01*
X25857Y-48846D02*
X25857Y-48697D01*
X25949Y-48777D01*
X25949Y-48743D01*
X25960Y-48720D01*
X25971Y-48709D01*
X25994Y-48697D01*
X26051Y-48697D01*
X26074Y-48709D01*
X26086Y-48720D01*
X26097Y-48743D01*
X26097Y-48811D01*
X26086Y-48834D01*
X26074Y-48846D01*
X26097Y-63155D02*
X25983Y-63235D01*
X26097Y-63292D02*
X25857Y-63292D01*
X25857Y-63200D01*
X25869Y-63178D01*
X25880Y-63166D01*
X25903Y-63155D01*
X25937Y-63155D01*
X25960Y-63166D01*
X25971Y-63178D01*
X25983Y-63200D01*
X25983Y-63292D01*
X25880Y-63063D02*
X25869Y-63052D01*
X25857Y-63029D01*
X25857Y-62972D01*
X25869Y-62949D01*
X25880Y-62938D01*
X25903Y-62926D01*
X25926Y-62926D01*
X25960Y-62938D01*
X26097Y-63075D01*
X26097Y-62926D01*
X25857Y-62846D02*
X25857Y-62686D01*
X26097Y-62789D01*
X26097Y-64677D02*
X25857Y-64677D01*
X25857Y-64620D01*
X25869Y-64585D01*
X25891Y-64563D01*
X25914Y-64551D01*
X25960Y-64540D01*
X25994Y-64540D01*
X26040Y-64551D01*
X26063Y-64563D01*
X26086Y-64585D01*
X26097Y-64620D01*
X26097Y-64677D01*
X25960Y-64403D02*
X25949Y-64425D01*
X25937Y-64437D01*
X25914Y-64448D01*
X25903Y-64448D01*
X25880Y-64437D01*
X25869Y-64425D01*
X25857Y-64403D01*
X25857Y-64357D01*
X25869Y-64334D01*
X25880Y-64323D01*
X25903Y-64311D01*
X25914Y-64311D01*
X25937Y-64323D01*
X25949Y-64334D01*
X25960Y-64357D01*
X25960Y-64403D01*
X25971Y-64425D01*
X25983Y-64437D01*
X26006Y-64448D01*
X26051Y-64448D01*
X26074Y-64437D01*
X26086Y-64425D01*
X26097Y-64403D01*
X26097Y-64357D01*
X26086Y-64334D01*
X26074Y-64323D01*
X26051Y-64311D01*
X26006Y-64311D01*
X25983Y-64323D01*
X25971Y-64334D01*
X25960Y-64357D01*
X26097Y-57677D02*
X25857Y-57677D01*
X25857Y-57620D01*
X25869Y-57585D01*
X25891Y-57563D01*
X25914Y-57551D01*
X25960Y-57540D01*
X25994Y-57540D01*
X26040Y-57551D01*
X26063Y-57563D01*
X26086Y-57585D01*
X26097Y-57620D01*
X26097Y-57677D01*
X25857Y-57460D02*
X25857Y-57300D01*
X26097Y-57403D01*
X26097Y-50677D02*
X25857Y-50677D01*
X25857Y-50620D01*
X25869Y-50585D01*
X25891Y-50563D01*
X25914Y-50551D01*
X25960Y-50540D01*
X25994Y-50540D01*
X26040Y-50551D01*
X26063Y-50563D01*
X26086Y-50585D01*
X26097Y-50620D01*
X26097Y-50677D01*
X25857Y-50334D02*
X25857Y-50380D01*
X25869Y-50403D01*
X25880Y-50414D01*
X25914Y-50437D01*
X25960Y-50448D01*
X26051Y-50448D01*
X26074Y-50437D01*
X26086Y-50425D01*
X26097Y-50403D01*
X26097Y-50357D01*
X26086Y-50334D01*
X26074Y-50323D01*
X26051Y-50311D01*
X25994Y-50311D01*
X25971Y-50323D01*
X25960Y-50334D01*
X25949Y-50357D01*
X25949Y-50403D01*
X25960Y-50425D01*
X25971Y-50437D01*
X25994Y-50448D01*
X26097Y-71677D02*
X25857Y-71677D01*
X25857Y-71620D01*
X25869Y-71585D01*
X25891Y-71563D01*
X25914Y-71551D01*
X25960Y-71540D01*
X25994Y-71540D01*
X26040Y-71551D01*
X26063Y-71563D01*
X26086Y-71585D01*
X26097Y-71620D01*
X26097Y-71677D01*
X26097Y-71425D02*
X26097Y-71380D01*
X26086Y-71357D01*
X26074Y-71345D01*
X26040Y-71323D01*
X25994Y-71311D01*
X25903Y-71311D01*
X25880Y-71323D01*
X25869Y-71334D01*
X25857Y-71357D01*
X25857Y-71403D01*
X25869Y-71425D01*
X25880Y-71437D01*
X25903Y-71448D01*
X25960Y-71448D01*
X25983Y-71437D01*
X25994Y-71425D01*
X26006Y-71403D01*
X26006Y-71357D01*
X25994Y-71334D01*
X25983Y-71323D01*
X25960Y-71311D01*
G54D14*
X39934Y-12162D02*
X39743Y-12162D01*
X39743Y-11762D01*
X40277Y-12162D02*
X40048Y-12162D01*
X40162Y-12162D02*
X40162Y-11762D01*
X40124Y-11819D01*
X40086Y-11857D01*
X40048Y-11876D01*
X43893Y-11533D02*
X43912Y-11476D01*
X43912Y-11380D01*
X43893Y-11342D01*
X43874Y-11323D01*
X43836Y-11304D01*
X43798Y-11304D01*
X43760Y-11323D01*
X43740Y-11342D01*
X43721Y-11380D01*
X43702Y-11457D01*
X43683Y-11495D01*
X43664Y-11514D01*
X43626Y-11533D01*
X43588Y-11533D01*
X43550Y-11514D01*
X43531Y-11495D01*
X43512Y-11457D01*
X43512Y-11361D01*
X43531Y-11304D01*
X43512Y-11171D02*
X43912Y-11076D01*
X43626Y-10999D01*
X43912Y-10923D01*
X43512Y-10828D01*
X43645Y-10504D02*
X43912Y-10504D01*
X43493Y-10600D02*
X43779Y-10695D01*
X43779Y-10447D01*
X40893Y-11533D02*
X40912Y-11476D01*
X40912Y-11380D01*
X40893Y-11342D01*
X40874Y-11323D01*
X40836Y-11304D01*
X40798Y-11304D01*
X40760Y-11323D01*
X40740Y-11342D01*
X40721Y-11380D01*
X40702Y-11457D01*
X40683Y-11495D01*
X40664Y-11514D01*
X40626Y-11533D01*
X40588Y-11533D01*
X40550Y-11514D01*
X40531Y-11495D01*
X40512Y-11457D01*
X40512Y-11361D01*
X40531Y-11304D01*
X40512Y-11171D02*
X40912Y-11076D01*
X40626Y-10999D01*
X40912Y-10923D01*
X40512Y-10828D01*
X40512Y-10714D02*
X40512Y-10466D01*
X40664Y-10600D01*
X40664Y-10542D01*
X40683Y-10504D01*
X40702Y-10485D01*
X40740Y-10466D01*
X40836Y-10466D01*
X40874Y-10485D01*
X40893Y-10504D01*
X40912Y-10542D01*
X40912Y-10657D01*
X40893Y-10695D01*
X40874Y-10714D01*
X20393Y-11533D02*
X20412Y-11476D01*
X20412Y-11380D01*
X20393Y-11342D01*
X20374Y-11323D01*
X20336Y-11304D01*
X20298Y-11304D01*
X20260Y-11323D01*
X20240Y-11342D01*
X20221Y-11380D01*
X20202Y-11457D01*
X20183Y-11495D01*
X20164Y-11514D01*
X20126Y-11533D01*
X20088Y-11533D01*
X20050Y-11514D01*
X20031Y-11495D01*
X20012Y-11457D01*
X20012Y-11361D01*
X20031Y-11304D01*
X20012Y-11171D02*
X20412Y-11076D01*
X20126Y-10999D01*
X20412Y-10923D01*
X20012Y-10828D01*
X20050Y-10695D02*
X20031Y-10676D01*
X20012Y-10638D01*
X20012Y-10542D01*
X20031Y-10504D01*
X20050Y-10485D01*
X20088Y-10466D01*
X20126Y-10466D01*
X20183Y-10485D01*
X20412Y-10714D01*
X20412Y-10466D01*
X17393Y-11533D02*
X17412Y-11476D01*
X17412Y-11380D01*
X17393Y-11342D01*
X17374Y-11323D01*
X17336Y-11304D01*
X17298Y-11304D01*
X17260Y-11323D01*
X17240Y-11342D01*
X17221Y-11380D01*
X17202Y-11457D01*
X17183Y-11495D01*
X17164Y-11514D01*
X17126Y-11533D01*
X17088Y-11533D01*
X17050Y-11514D01*
X17031Y-11495D01*
X17012Y-11457D01*
X17012Y-11361D01*
X17031Y-11304D01*
X17012Y-11171D02*
X17412Y-11076D01*
X17126Y-10999D01*
X17412Y-10923D01*
X17012Y-10828D01*
X17412Y-10466D02*
X17412Y-10695D01*
X17412Y-10581D02*
X17012Y-10581D01*
X17069Y-10619D01*
X17107Y-10657D01*
X17126Y-10695D01*
X25162Y-53409D02*
X24971Y-53543D01*
X25162Y-53638D02*
X24762Y-53638D01*
X24762Y-53485D01*
X24781Y-53447D01*
X24800Y-53428D01*
X24838Y-53409D01*
X24895Y-53409D01*
X24933Y-53428D01*
X24952Y-53447D01*
X24971Y-53485D01*
X24971Y-53638D01*
X24952Y-53238D02*
X24952Y-53104D01*
X25162Y-53047D02*
X25162Y-53238D01*
X24762Y-53238D01*
X24762Y-53047D01*
X25162Y-52685D02*
X25162Y-52876D01*
X24762Y-52876D01*
X25162Y-52342D02*
X25162Y-52571D01*
X25162Y-52457D02*
X24762Y-52457D01*
X24819Y-52495D01*
X24857Y-52533D01*
X24876Y-52571D01*
X25162Y-46409D02*
X24971Y-46543D01*
X25162Y-46638D02*
X24762Y-46638D01*
X24762Y-46485D01*
X24781Y-46447D01*
X24800Y-46428D01*
X24838Y-46409D01*
X24895Y-46409D01*
X24933Y-46428D01*
X24952Y-46447D01*
X24971Y-46485D01*
X24971Y-46638D01*
X24952Y-46238D02*
X24952Y-46104D01*
X25162Y-46047D02*
X25162Y-46238D01*
X24762Y-46238D01*
X24762Y-46047D01*
X25162Y-45685D02*
X25162Y-45876D01*
X24762Y-45876D01*
X24762Y-45476D02*
X24762Y-45437D01*
X24781Y-45399D01*
X24800Y-45380D01*
X24838Y-45361D01*
X24914Y-45342D01*
X25010Y-45342D01*
X25086Y-45361D01*
X25124Y-45380D01*
X25143Y-45399D01*
X25162Y-45437D01*
X25162Y-45476D01*
X25143Y-45514D01*
X25124Y-45533D01*
X25086Y-45552D01*
X25010Y-45571D01*
X24914Y-45571D01*
X24838Y-45552D01*
X24800Y-45533D01*
X24781Y-45514D01*
X24762Y-45476D01*
X25162Y-67409D02*
X24971Y-67543D01*
X25162Y-67638D02*
X24762Y-67638D01*
X24762Y-67485D01*
X24781Y-67447D01*
X24800Y-67428D01*
X24838Y-67409D01*
X24895Y-67409D01*
X24933Y-67428D01*
X24952Y-67447D01*
X24971Y-67485D01*
X24971Y-67638D01*
X24952Y-67238D02*
X24952Y-67104D01*
X25162Y-67047D02*
X25162Y-67238D01*
X24762Y-67238D01*
X24762Y-67047D01*
X25162Y-66685D02*
X25162Y-66876D01*
X24762Y-66876D01*
X24762Y-66590D02*
X24762Y-66342D01*
X24914Y-66476D01*
X24914Y-66418D01*
X24933Y-66380D01*
X24952Y-66361D01*
X24990Y-66342D01*
X25086Y-66342D01*
X25124Y-66361D01*
X25143Y-66380D01*
X25162Y-66418D01*
X25162Y-66533D01*
X25143Y-66571D01*
X25124Y-66590D01*
X25162Y-60409D02*
X24971Y-60543D01*
X25162Y-60638D02*
X24762Y-60638D01*
X24762Y-60485D01*
X24781Y-60447D01*
X24800Y-60428D01*
X24838Y-60409D01*
X24895Y-60409D01*
X24933Y-60428D01*
X24952Y-60447D01*
X24971Y-60485D01*
X24971Y-60638D01*
X24952Y-60238D02*
X24952Y-60104D01*
X25162Y-60047D02*
X25162Y-60238D01*
X24762Y-60238D01*
X24762Y-60047D01*
X25162Y-59685D02*
X25162Y-59876D01*
X24762Y-59876D01*
X24800Y-59571D02*
X24781Y-59552D01*
X24762Y-59514D01*
X24762Y-59418D01*
X24781Y-59380D01*
X24800Y-59361D01*
X24838Y-59342D01*
X24876Y-59342D01*
X24933Y-59361D01*
X25162Y-59590D01*
X25162Y-59342D01*
X18677Y-22812D02*
X18677Y-23098D01*
X18657Y-23155D01*
X18619Y-23193D01*
X18562Y-23212D01*
X18524Y-23212D01*
X19077Y-23212D02*
X18848Y-23212D01*
X18962Y-23212D02*
X18962Y-22812D01*
X18924Y-22869D01*
X18886Y-22907D01*
X18848Y-22926D01*
X19305Y-22983D02*
X19267Y-22964D01*
X19248Y-22945D01*
X19229Y-22907D01*
X19229Y-22888D01*
X19248Y-22850D01*
X19267Y-22831D01*
X19305Y-22812D01*
X19382Y-22812D01*
X19420Y-22831D01*
X19439Y-22850D01*
X19458Y-22888D01*
X19458Y-22907D01*
X19439Y-22945D01*
X19420Y-22964D01*
X19382Y-22983D01*
X19305Y-22983D01*
X19267Y-23002D01*
X19248Y-23021D01*
X19229Y-23060D01*
X19229Y-23136D01*
X19248Y-23174D01*
X19267Y-23193D01*
X19305Y-23212D01*
X19382Y-23212D01*
X19420Y-23193D01*
X19439Y-23174D01*
X19458Y-23136D01*
X19458Y-23060D01*
X19439Y-23021D01*
X19420Y-23002D01*
X19382Y-22983D01*
X18677Y-22212D02*
X18677Y-22498D01*
X18657Y-22555D01*
X18619Y-22593D01*
X18562Y-22612D01*
X18524Y-22612D01*
X19077Y-22612D02*
X18848Y-22612D01*
X18962Y-22612D02*
X18962Y-22212D01*
X18924Y-22269D01*
X18886Y-22307D01*
X18848Y-22326D01*
X19267Y-22612D02*
X19343Y-22612D01*
X19382Y-22593D01*
X19401Y-22574D01*
X19439Y-22517D01*
X19458Y-22440D01*
X19458Y-22288D01*
X19439Y-22250D01*
X19420Y-22231D01*
X19382Y-22212D01*
X19305Y-22212D01*
X19267Y-22231D01*
X19248Y-22250D01*
X19229Y-22288D01*
X19229Y-22383D01*
X19248Y-22421D01*
X19267Y-22440D01*
X19305Y-22460D01*
X19382Y-22460D01*
X19420Y-22440D01*
X19439Y-22421D01*
X19458Y-22383D01*
X18677Y-23412D02*
X18677Y-23698D01*
X18657Y-23755D01*
X18619Y-23793D01*
X18562Y-23812D01*
X18524Y-23812D01*
X18848Y-23450D02*
X18867Y-23431D01*
X18905Y-23412D01*
X19001Y-23412D01*
X19039Y-23431D01*
X19058Y-23450D01*
X19077Y-23488D01*
X19077Y-23526D01*
X19058Y-23583D01*
X18829Y-23812D01*
X19077Y-23812D01*
X19324Y-23412D02*
X19363Y-23412D01*
X19401Y-23431D01*
X19420Y-23450D01*
X19439Y-23488D01*
X19458Y-23564D01*
X19458Y-23660D01*
X19439Y-23736D01*
X19420Y-23774D01*
X19401Y-23793D01*
X19363Y-23812D01*
X19324Y-23812D01*
X19286Y-23793D01*
X19267Y-23774D01*
X19248Y-23736D01*
X19229Y-23660D01*
X19229Y-23564D01*
X19248Y-23488D01*
X19267Y-23450D01*
X19286Y-23431D01*
X19324Y-23412D01*
X22177Y-43262D02*
X22177Y-43548D01*
X22157Y-43605D01*
X22119Y-43643D01*
X22062Y-43662D01*
X22024Y-43662D01*
X22348Y-43300D02*
X22367Y-43281D01*
X22405Y-43262D01*
X22501Y-43262D01*
X22539Y-43281D01*
X22558Y-43300D01*
X22577Y-43338D01*
X22577Y-43376D01*
X22558Y-43433D01*
X22329Y-43662D01*
X22577Y-43662D01*
X22958Y-43662D02*
X22729Y-43662D01*
X22843Y-43662D02*
X22843Y-43262D01*
X22805Y-43319D01*
X22767Y-43357D01*
X22729Y-43376D01*
X12927Y-24262D02*
X12927Y-24548D01*
X12907Y-24605D01*
X12869Y-24643D01*
X12812Y-24662D01*
X12774Y-24662D01*
X13098Y-24300D02*
X13117Y-24281D01*
X13155Y-24262D01*
X13251Y-24262D01*
X13289Y-24281D01*
X13308Y-24300D01*
X13327Y-24338D01*
X13327Y-24376D01*
X13308Y-24433D01*
X13079Y-24662D01*
X13327Y-24662D01*
X13479Y-24300D02*
X13498Y-24281D01*
X13536Y-24262D01*
X13632Y-24262D01*
X13670Y-24281D01*
X13689Y-24300D01*
X13708Y-24338D01*
X13708Y-24376D01*
X13689Y-24433D01*
X13460Y-24662D01*
X13708Y-24662D01*
X30427Y-59762D02*
X30427Y-60048D01*
X30407Y-60105D01*
X30369Y-60143D01*
X30312Y-60162D01*
X30274Y-60162D01*
X30598Y-59800D02*
X30617Y-59781D01*
X30655Y-59762D01*
X30751Y-59762D01*
X30789Y-59781D01*
X30808Y-59800D01*
X30827Y-59838D01*
X30827Y-59876D01*
X30808Y-59933D01*
X30579Y-60162D01*
X30827Y-60162D01*
X31189Y-59762D02*
X30998Y-59762D01*
X30979Y-59952D01*
X30998Y-59933D01*
X31036Y-59914D01*
X31132Y-59914D01*
X31170Y-59933D01*
X31189Y-59952D01*
X31208Y-59990D01*
X31208Y-60086D01*
X31189Y-60124D01*
X31170Y-60143D01*
X31132Y-60162D01*
X31036Y-60162D01*
X30998Y-60143D01*
X30979Y-60124D01*
X27762Y-69073D02*
X28048Y-69073D01*
X28105Y-69093D01*
X28143Y-69131D01*
X28162Y-69188D01*
X28162Y-69226D01*
X27800Y-68902D02*
X27781Y-68883D01*
X27762Y-68845D01*
X27762Y-68749D01*
X27781Y-68711D01*
X27800Y-68692D01*
X27838Y-68673D01*
X27876Y-68673D01*
X27933Y-68692D01*
X28162Y-68921D01*
X28162Y-68673D01*
X27762Y-68540D02*
X27762Y-68292D01*
X27914Y-68426D01*
X27914Y-68368D01*
X27933Y-68330D01*
X27952Y-68311D01*
X27990Y-68292D01*
X28086Y-68292D01*
X28124Y-68311D01*
X28143Y-68330D01*
X28162Y-68368D01*
X28162Y-68483D01*
X28143Y-68521D01*
X28124Y-68540D01*
X16177Y-24212D02*
X16177Y-24498D01*
X16157Y-24555D01*
X16119Y-24593D01*
X16062Y-24612D01*
X16024Y-24612D01*
X16348Y-24250D02*
X16367Y-24231D01*
X16405Y-24212D01*
X16501Y-24212D01*
X16539Y-24231D01*
X16558Y-24250D01*
X16577Y-24288D01*
X16577Y-24326D01*
X16558Y-24383D01*
X16329Y-24612D01*
X16577Y-24612D01*
X16920Y-24345D02*
X16920Y-24612D01*
X16824Y-24193D02*
X16729Y-24479D01*
X16977Y-24479D01*
X37862Y-49952D02*
X37919Y-49971D01*
X37938Y-49990D01*
X37957Y-50029D01*
X37957Y-50086D01*
X37938Y-50124D01*
X37919Y-50143D01*
X37881Y-50162D01*
X37728Y-50162D01*
X37728Y-49762D01*
X37862Y-49762D01*
X37900Y-49781D01*
X37919Y-49800D01*
X37938Y-49838D01*
X37938Y-49876D01*
X37919Y-49914D01*
X37900Y-49933D01*
X37862Y-49952D01*
X37728Y-49952D01*
X38109Y-50048D02*
X38300Y-50048D01*
X38071Y-50162D02*
X38204Y-49762D01*
X38338Y-50162D01*
X38414Y-49762D02*
X38643Y-49762D01*
X38528Y-50162D02*
X38528Y-49762D01*
X38719Y-49762D02*
X38948Y-49762D01*
X38833Y-50162D02*
X38833Y-49762D01*
X39291Y-50162D02*
X39062Y-50162D01*
X39176Y-50162D02*
X39176Y-49762D01*
X39138Y-49819D01*
X39100Y-49857D01*
X39062Y-49876D01*
X26934Y-19124D02*
X26915Y-19143D01*
X26858Y-19162D01*
X26820Y-19162D01*
X26762Y-19143D01*
X26724Y-19105D01*
X26705Y-19067D01*
X26686Y-18990D01*
X26686Y-18933D01*
X26705Y-18857D01*
X26724Y-18819D01*
X26762Y-18781D01*
X26820Y-18762D01*
X26858Y-18762D01*
X26915Y-18781D01*
X26934Y-18800D01*
X27315Y-19162D02*
X27086Y-19162D01*
X27200Y-19162D02*
X27200Y-18762D01*
X27162Y-18819D01*
X27124Y-18857D01*
X27086Y-18876D01*
X31934Y-21874D02*
X31915Y-21893D01*
X31858Y-21912D01*
X31820Y-21912D01*
X31762Y-21893D01*
X31724Y-21855D01*
X31705Y-21817D01*
X31686Y-21740D01*
X31686Y-21683D01*
X31705Y-21607D01*
X31724Y-21569D01*
X31762Y-21531D01*
X31820Y-21512D01*
X31858Y-21512D01*
X31915Y-21531D01*
X31934Y-21550D01*
X32296Y-21512D02*
X32105Y-21512D01*
X32086Y-21702D01*
X32105Y-21683D01*
X32143Y-21664D01*
X32239Y-21664D01*
X32277Y-21683D01*
X32296Y-21702D01*
X32315Y-21740D01*
X32315Y-21836D01*
X32296Y-21874D01*
X32277Y-21893D01*
X32239Y-21912D01*
X32143Y-21912D01*
X32105Y-21893D01*
X32086Y-21874D01*
X12012Y-51633D02*
X12298Y-51633D01*
X12355Y-51653D01*
X12393Y-51691D01*
X12412Y-51748D01*
X12412Y-51786D01*
X12012Y-51271D02*
X12012Y-51348D01*
X12031Y-51386D01*
X12050Y-51405D01*
X12107Y-51443D01*
X12183Y-51462D01*
X12336Y-51462D01*
X12374Y-51443D01*
X12393Y-51424D01*
X12412Y-51386D01*
X12412Y-51309D01*
X12393Y-51271D01*
X12374Y-51252D01*
X12336Y-51233D01*
X12240Y-51233D01*
X12202Y-51252D01*
X12183Y-51271D01*
X12164Y-51309D01*
X12164Y-51386D01*
X12183Y-51424D01*
X12202Y-51443D01*
X12240Y-51462D01*
G54D12*
X10739Y-49202D02*
X10572Y-48964D01*
X10453Y-49202D02*
X10453Y-48702D01*
X10644Y-48702D01*
X10691Y-48726D01*
X10715Y-48750D01*
X10739Y-48798D01*
X10739Y-48869D01*
X10715Y-48917D01*
X10691Y-48940D01*
X10644Y-48964D01*
X10453Y-48964D01*
X10953Y-48940D02*
X11120Y-48940D01*
X11191Y-49202D02*
X10953Y-49202D01*
X10953Y-48702D01*
X11191Y-48702D01*
X11643Y-49202D02*
X11405Y-49202D01*
X11405Y-48702D01*
X11905Y-48702D02*
X11953Y-48702D01*
X12001Y-48726D01*
X12024Y-48750D01*
X12048Y-48798D01*
X12072Y-48893D01*
X12072Y-49012D01*
X12048Y-49107D01*
X12024Y-49155D01*
X12001Y-49179D01*
X11953Y-49202D01*
X11905Y-49202D01*
X11858Y-49179D01*
X11834Y-49155D01*
X11810Y-49107D01*
X11786Y-49012D01*
X11786Y-48893D01*
X11810Y-48798D01*
X11834Y-48750D01*
X11858Y-48726D01*
X11905Y-48702D01*
G54D14*
X12012Y-57633D02*
X12298Y-57633D01*
X12355Y-57653D01*
X12393Y-57691D01*
X12412Y-57748D01*
X12412Y-57786D01*
X12012Y-57481D02*
X12012Y-57214D01*
X12412Y-57386D01*
G54D12*
X10739Y-55202D02*
X10572Y-54964D01*
X10453Y-55202D02*
X10453Y-54702D01*
X10644Y-54702D01*
X10691Y-54726D01*
X10715Y-54750D01*
X10739Y-54798D01*
X10739Y-54869D01*
X10715Y-54917D01*
X10691Y-54940D01*
X10644Y-54964D01*
X10453Y-54964D01*
X10953Y-54940D02*
X11120Y-54940D01*
X11191Y-55202D02*
X10953Y-55202D01*
X10953Y-54702D01*
X11191Y-54702D01*
X11643Y-55202D02*
X11405Y-55202D01*
X11405Y-54702D01*
X12072Y-55202D02*
X11786Y-55202D01*
X11929Y-55202D02*
X11929Y-54702D01*
X11881Y-54774D01*
X11834Y-54821D01*
X11786Y-54845D01*
G54D14*
X12012Y-63633D02*
X12298Y-63633D01*
X12355Y-63653D01*
X12393Y-63691D01*
X12412Y-63748D01*
X12412Y-63786D01*
X12183Y-63386D02*
X12164Y-63424D01*
X12145Y-63443D01*
X12107Y-63462D01*
X12088Y-63462D01*
X12050Y-63443D01*
X12031Y-63424D01*
X12012Y-63386D01*
X12012Y-63309D01*
X12031Y-63271D01*
X12050Y-63252D01*
X12088Y-63233D01*
X12107Y-63233D01*
X12145Y-63252D01*
X12164Y-63271D01*
X12183Y-63309D01*
X12183Y-63386D01*
X12202Y-63424D01*
X12221Y-63443D01*
X12260Y-63462D01*
X12336Y-63462D01*
X12374Y-63443D01*
X12393Y-63424D01*
X12412Y-63386D01*
X12412Y-63309D01*
X12393Y-63271D01*
X12374Y-63252D01*
X12336Y-63233D01*
X12260Y-63233D01*
X12221Y-63252D01*
X12202Y-63271D01*
X12183Y-63309D01*
G54D12*
X10739Y-61202D02*
X10572Y-60964D01*
X10453Y-61202D02*
X10453Y-60702D01*
X10644Y-60702D01*
X10691Y-60726D01*
X10715Y-60750D01*
X10739Y-60798D01*
X10739Y-60869D01*
X10715Y-60917D01*
X10691Y-60940D01*
X10644Y-60964D01*
X10453Y-60964D01*
X10953Y-60940D02*
X11120Y-60940D01*
X11191Y-61202D02*
X10953Y-61202D01*
X10953Y-60702D01*
X11191Y-60702D01*
X11643Y-61202D02*
X11405Y-61202D01*
X11405Y-60702D01*
X11786Y-60750D02*
X11810Y-60726D01*
X11858Y-60702D01*
X11977Y-60702D01*
X12024Y-60726D01*
X12048Y-60750D01*
X12072Y-60798D01*
X12072Y-60845D01*
X12048Y-60917D01*
X11762Y-61202D01*
X12072Y-61202D01*
G54D14*
X12012Y-69633D02*
X12298Y-69633D01*
X12355Y-69653D01*
X12393Y-69691D01*
X12412Y-69748D01*
X12412Y-69786D01*
X12412Y-69424D02*
X12412Y-69348D01*
X12393Y-69309D01*
X12374Y-69290D01*
X12317Y-69252D01*
X12240Y-69233D01*
X12088Y-69233D01*
X12050Y-69252D01*
X12031Y-69271D01*
X12012Y-69309D01*
X12012Y-69386D01*
X12031Y-69424D01*
X12050Y-69443D01*
X12088Y-69462D01*
X12183Y-69462D01*
X12221Y-69443D01*
X12240Y-69424D01*
X12260Y-69386D01*
X12260Y-69309D01*
X12240Y-69271D01*
X12221Y-69252D01*
X12183Y-69233D01*
G54D12*
X10739Y-67202D02*
X10572Y-66964D01*
X10453Y-67202D02*
X10453Y-66702D01*
X10644Y-66702D01*
X10691Y-66726D01*
X10715Y-66750D01*
X10739Y-66798D01*
X10739Y-66869D01*
X10715Y-66917D01*
X10691Y-66940D01*
X10644Y-66964D01*
X10453Y-66964D01*
X10953Y-66940D02*
X11120Y-66940D01*
X11191Y-67202D02*
X10953Y-67202D01*
X10953Y-66702D01*
X11191Y-66702D01*
X11643Y-67202D02*
X11405Y-67202D01*
X11405Y-66702D01*
X11762Y-66702D02*
X12072Y-66702D01*
X11905Y-66893D01*
X11977Y-66893D01*
X12024Y-66917D01*
X12048Y-66940D01*
X12072Y-66988D01*
X12072Y-67107D01*
X12048Y-67155D01*
X12024Y-67179D01*
X11977Y-67202D01*
X11834Y-67202D01*
X11786Y-67179D01*
X11762Y-67155D01*
G54D14*
X16012Y-13633D02*
X16298Y-13633D01*
X16355Y-13653D01*
X16393Y-13691D01*
X16412Y-13748D01*
X16412Y-13786D01*
X16412Y-13233D02*
X16412Y-13462D01*
X16412Y-13348D02*
X16012Y-13348D01*
X16069Y-13386D01*
X16107Y-13424D01*
X16126Y-13462D01*
X16012Y-28573D02*
X16298Y-28573D01*
X16355Y-28593D01*
X16393Y-28631D01*
X16412Y-28688D01*
X16412Y-28726D01*
X16412Y-28173D02*
X16412Y-28402D01*
X16412Y-28288D02*
X16012Y-28288D01*
X16069Y-28326D01*
X16107Y-28364D01*
X16126Y-28402D01*
X16012Y-27926D02*
X16012Y-27887D01*
X16031Y-27849D01*
X16050Y-27830D01*
X16088Y-27811D01*
X16164Y-27792D01*
X16260Y-27792D01*
X16336Y-27811D01*
X16374Y-27830D01*
X16393Y-27849D01*
X16412Y-27887D01*
X16412Y-27926D01*
X16393Y-27964D01*
X16374Y-27983D01*
X16336Y-28002D01*
X16260Y-28021D01*
X16164Y-28021D01*
X16088Y-28002D01*
X16050Y-27983D01*
X16031Y-27964D01*
X16012Y-27926D01*
G54D12*
X11500Y-27202D02*
X11500Y-26702D01*
X11738Y-27202D02*
X11738Y-26702D01*
X12024Y-27202D01*
X12024Y-26702D01*
X12357Y-26702D02*
X12405Y-26702D01*
X12453Y-26726D01*
X12476Y-26750D01*
X12500Y-26798D01*
X12524Y-26893D01*
X12524Y-27012D01*
X12500Y-27107D01*
X12476Y-27155D01*
X12453Y-27179D01*
X12405Y-27202D01*
X12357Y-27202D01*
X12310Y-27179D01*
X12286Y-27155D01*
X12262Y-27107D01*
X12238Y-27012D01*
X12238Y-26893D01*
X12262Y-26798D01*
X12286Y-26750D01*
X12310Y-26726D01*
X12357Y-26702D01*
G54D14*
X16012Y-32323D02*
X16298Y-32323D01*
X16355Y-32343D01*
X16393Y-32381D01*
X16412Y-32438D01*
X16412Y-32476D01*
X16412Y-31923D02*
X16412Y-32152D01*
X16412Y-32038D02*
X16012Y-32038D01*
X16069Y-32076D01*
X16107Y-32114D01*
X16126Y-32152D01*
X16412Y-31542D02*
X16412Y-31771D01*
X16412Y-31657D02*
X16012Y-31657D01*
X16069Y-31695D01*
X16107Y-31733D01*
X16126Y-31771D01*
G54D12*
X11500Y-31202D02*
X11500Y-30702D01*
X11738Y-31202D02*
X11738Y-30702D01*
X12024Y-31202D01*
X12024Y-30702D01*
X12524Y-31202D02*
X12238Y-31202D01*
X12381Y-31202D02*
X12381Y-30702D01*
X12333Y-30774D01*
X12286Y-30821D01*
X12238Y-30845D01*
G54D14*
X16012Y-36573D02*
X16298Y-36573D01*
X16355Y-36593D01*
X16393Y-36631D01*
X16412Y-36688D01*
X16412Y-36726D01*
X16412Y-36173D02*
X16412Y-36402D01*
X16412Y-36288D02*
X16012Y-36288D01*
X16069Y-36326D01*
X16107Y-36364D01*
X16126Y-36402D01*
X16050Y-36021D02*
X16031Y-36002D01*
X16012Y-35964D01*
X16012Y-35868D01*
X16031Y-35830D01*
X16050Y-35811D01*
X16088Y-35792D01*
X16126Y-35792D01*
X16183Y-35811D01*
X16412Y-36040D01*
X16412Y-35792D01*
G54D12*
X11500Y-35202D02*
X11500Y-34702D01*
X11738Y-35202D02*
X11738Y-34702D01*
X12024Y-35202D01*
X12024Y-34702D01*
X12238Y-34750D02*
X12262Y-34726D01*
X12310Y-34702D01*
X12429Y-34702D01*
X12476Y-34726D01*
X12500Y-34750D01*
X12524Y-34798D01*
X12524Y-34845D01*
X12500Y-34917D01*
X12214Y-35202D01*
X12524Y-35202D01*
G54D14*
X16012Y-40323D02*
X16298Y-40323D01*
X16355Y-40343D01*
X16393Y-40381D01*
X16412Y-40438D01*
X16412Y-40476D01*
X16412Y-39923D02*
X16412Y-40152D01*
X16412Y-40038D02*
X16012Y-40038D01*
X16069Y-40076D01*
X16107Y-40114D01*
X16126Y-40152D01*
X16012Y-39790D02*
X16012Y-39542D01*
X16164Y-39676D01*
X16164Y-39618D01*
X16183Y-39580D01*
X16202Y-39561D01*
X16240Y-39542D01*
X16336Y-39542D01*
X16374Y-39561D01*
X16393Y-39580D01*
X16412Y-39618D01*
X16412Y-39733D01*
X16393Y-39771D01*
X16374Y-39790D01*
G54D12*
X11500Y-39202D02*
X11500Y-38702D01*
X11738Y-39202D02*
X11738Y-38702D01*
X12024Y-39202D01*
X12024Y-38702D01*
X12214Y-38702D02*
X12524Y-38702D01*
X12357Y-38893D01*
X12429Y-38893D01*
X12476Y-38917D01*
X12500Y-38940D01*
X12524Y-38988D01*
X12524Y-39107D01*
X12500Y-39155D01*
X12476Y-39179D01*
X12429Y-39202D01*
X12286Y-39202D01*
X12238Y-39179D01*
X12214Y-39155D01*
G54D14*
X24512Y-28573D02*
X24798Y-28573D01*
X24855Y-28593D01*
X24893Y-28631D01*
X24912Y-28688D01*
X24912Y-28726D01*
X24912Y-28173D02*
X24912Y-28402D01*
X24912Y-28288D02*
X24512Y-28288D01*
X24569Y-28326D01*
X24607Y-28364D01*
X24626Y-28402D01*
X24645Y-27830D02*
X24912Y-27830D01*
X24493Y-27926D02*
X24779Y-28021D01*
X24779Y-27773D01*
G54D12*
X20000Y-27202D02*
X20000Y-26702D01*
X20238Y-27202D02*
X20238Y-26702D01*
X20524Y-27202D01*
X20524Y-26702D01*
X20976Y-26869D02*
X20976Y-27202D01*
X20857Y-26679D02*
X20738Y-27036D01*
X21048Y-27036D01*
G54D14*
X24512Y-32573D02*
X24798Y-32573D01*
X24855Y-32593D01*
X24893Y-32631D01*
X24912Y-32688D01*
X24912Y-32726D01*
X24912Y-32173D02*
X24912Y-32402D01*
X24912Y-32288D02*
X24512Y-32288D01*
X24569Y-32326D01*
X24607Y-32364D01*
X24626Y-32402D01*
X24512Y-31811D02*
X24512Y-32002D01*
X24702Y-32021D01*
X24683Y-32002D01*
X24664Y-31964D01*
X24664Y-31868D01*
X24683Y-31830D01*
X24702Y-31811D01*
X24740Y-31792D01*
X24836Y-31792D01*
X24874Y-31811D01*
X24893Y-31830D01*
X24912Y-31868D01*
X24912Y-31964D01*
X24893Y-32002D01*
X24874Y-32021D01*
G54D12*
X20000Y-31202D02*
X20000Y-30702D01*
X20238Y-31202D02*
X20238Y-30702D01*
X20524Y-31202D01*
X20524Y-30702D01*
X21000Y-30702D02*
X20762Y-30702D01*
X20738Y-30940D01*
X20762Y-30917D01*
X20810Y-30893D01*
X20929Y-30893D01*
X20976Y-30917D01*
X21000Y-30940D01*
X21024Y-30988D01*
X21024Y-31107D01*
X21000Y-31155D01*
X20976Y-31179D01*
X20929Y-31202D01*
X20810Y-31202D01*
X20762Y-31179D01*
X20738Y-31155D01*
G54D14*
X24512Y-36573D02*
X24798Y-36573D01*
X24855Y-36593D01*
X24893Y-36631D01*
X24912Y-36688D01*
X24912Y-36726D01*
X24912Y-36173D02*
X24912Y-36402D01*
X24912Y-36288D02*
X24512Y-36288D01*
X24569Y-36326D01*
X24607Y-36364D01*
X24626Y-36402D01*
X24512Y-35830D02*
X24512Y-35907D01*
X24531Y-35945D01*
X24550Y-35964D01*
X24607Y-36002D01*
X24683Y-36021D01*
X24836Y-36021D01*
X24874Y-36002D01*
X24893Y-35983D01*
X24912Y-35945D01*
X24912Y-35868D01*
X24893Y-35830D01*
X24874Y-35811D01*
X24836Y-35792D01*
X24740Y-35792D01*
X24702Y-35811D01*
X24683Y-35830D01*
X24664Y-35868D01*
X24664Y-35945D01*
X24683Y-35983D01*
X24702Y-36002D01*
X24740Y-36021D01*
G54D12*
X20000Y-35202D02*
X20000Y-34702D01*
X20238Y-35202D02*
X20238Y-34702D01*
X20524Y-35202D01*
X20524Y-34702D01*
X20976Y-34702D02*
X20881Y-34702D01*
X20833Y-34726D01*
X20810Y-34750D01*
X20762Y-34821D01*
X20738Y-34917D01*
X20738Y-35107D01*
X20762Y-35155D01*
X20786Y-35179D01*
X20833Y-35202D01*
X20929Y-35202D01*
X20976Y-35179D01*
X21000Y-35155D01*
X21024Y-35107D01*
X21024Y-34988D01*
X21000Y-34940D01*
X20976Y-34917D01*
X20929Y-34893D01*
X20833Y-34893D01*
X20786Y-34917D01*
X20762Y-34940D01*
X20738Y-34988D01*
G54D14*
X24512Y-40573D02*
X24798Y-40573D01*
X24855Y-40593D01*
X24893Y-40631D01*
X24912Y-40688D01*
X24912Y-40726D01*
X24912Y-40173D02*
X24912Y-40402D01*
X24912Y-40288D02*
X24512Y-40288D01*
X24569Y-40326D01*
X24607Y-40364D01*
X24626Y-40402D01*
X24512Y-40040D02*
X24512Y-39773D01*
X24912Y-39945D01*
G54D12*
X20000Y-39202D02*
X20000Y-38702D01*
X20238Y-39202D02*
X20238Y-38702D01*
X20524Y-39202D01*
X20524Y-38702D01*
X20714Y-38702D02*
X21048Y-38702D01*
X20833Y-39202D01*
G54D14*
X31512Y-50823D02*
X31798Y-50823D01*
X31855Y-50843D01*
X31893Y-50881D01*
X31912Y-50938D01*
X31912Y-50976D01*
X31550Y-50652D02*
X31531Y-50633D01*
X31512Y-50595D01*
X31512Y-50499D01*
X31531Y-50461D01*
X31550Y-50442D01*
X31588Y-50423D01*
X31626Y-50423D01*
X31683Y-50442D01*
X31912Y-50671D01*
X31912Y-50423D01*
X31512Y-50080D02*
X31512Y-50157D01*
X31531Y-50195D01*
X31550Y-50214D01*
X31607Y-50252D01*
X31683Y-50271D01*
X31836Y-50271D01*
X31874Y-50252D01*
X31893Y-50233D01*
X31912Y-50195D01*
X31912Y-50118D01*
X31893Y-50080D01*
X31874Y-50061D01*
X31836Y-50042D01*
X31740Y-50042D01*
X31702Y-50061D01*
X31683Y-50080D01*
X31664Y-50118D01*
X31664Y-50195D01*
X31683Y-50233D01*
X31702Y-50252D01*
X31740Y-50271D01*
X22117Y-15421D02*
X21983Y-15421D01*
X21983Y-15631D02*
X21983Y-15231D01*
X22174Y-15231D01*
X22307Y-15269D02*
X22326Y-15250D01*
X22364Y-15231D01*
X22460Y-15231D01*
X22498Y-15250D01*
X22517Y-15269D01*
X22536Y-15307D01*
X22536Y-15345D01*
X22517Y-15402D01*
X22288Y-15631D01*
X22536Y-15631D01*
X43867Y-19483D02*
X43733Y-19483D01*
X43733Y-19693D02*
X43733Y-19293D01*
X43924Y-19293D01*
X44038Y-19293D02*
X44286Y-19293D01*
X44152Y-19445D01*
X44210Y-19445D01*
X44248Y-19464D01*
X44267Y-19483D01*
X44286Y-19521D01*
X44286Y-19617D01*
X44267Y-19655D01*
X44248Y-19674D01*
X44210Y-19693D01*
X44095Y-19693D01*
X44057Y-19674D01*
X44038Y-19655D01*
X43867Y-15733D02*
X43733Y-15733D01*
X43733Y-15943D02*
X43733Y-15543D01*
X43924Y-15543D01*
X44248Y-15676D02*
X44248Y-15943D01*
X44152Y-15524D02*
X44057Y-15810D01*
X44305Y-15810D01*
X22117Y-18671D02*
X21983Y-18671D01*
X21983Y-18881D02*
X21983Y-18481D01*
X22174Y-18481D01*
X22536Y-18881D02*
X22307Y-18881D01*
X22421Y-18881D02*
X22421Y-18481D01*
X22383Y-18538D01*
X22345Y-18576D01*
X22307Y-18595D01*
M02*
