M48
INCH,TZ
T1C0.025
T2C0.035
T3C0.040
T4C0.050
T5C0.060
T6C0.138
%
G90
G05
T1
X20500Y27750
X20750Y31750
X21000Y35750
X21250Y39750
X22250Y20000
X24250Y34000
X24250Y41000
X24750Y33500
X24750Y41000
X25250Y28250
X25250Y33000
X25250Y41000
X25750Y32500
X25750Y41000
X28150Y29000
X28150Y29500
X28150Y31500
X28150Y32000
X30750Y31000
X30750Y31500
X30750Y32000
X30750Y32500
X30750Y33000
X30750Y33500
X30750Y34000
X30750Y34500
X35500Y23500
X35500Y49000
X36000Y24000
X36000Y50250
X36500Y23750
X36500Y49750
X36500Y50250
X36750Y27500
X37000Y27000
X37250Y53750
X39750Y54000
X43250Y55250
X43500Y54750
T2
X18250Y27000
X18250Y31000
X18250Y35000
X18250Y39000
X21000Y18750
X26550Y31000
X26750Y27000
X26750Y29000
X28000Y70000
X28000Y71000
X28000Y72000
X28250Y35500
X28250Y39000
X29000Y70000
X29000Y71000
X29000Y72000
X29080Y18240
X29500Y12500
X30000Y61000
X30000Y62000
X30000Y63000
X30000Y64000
X30000Y65000
X30000Y66000
X30000Y67000
X30000Y68000
X30000Y69000
X30000Y70000
X30000Y71000
X30000Y72000
X30500Y12500
X31000Y61000
X31000Y62000
X31000Y63000
X31000Y64000
X31000Y65000
X31000Y66000
X31000Y67000
X31000Y68000
X31000Y69000
X31000Y70000
X31000Y71000
X31000Y72000
X32000Y14750
X32000Y15500
X32000Y16250
X32000Y61000
X32000Y62000
X32000Y63000
X32000Y64000
X32000Y65000
X32000Y66000
X32000Y67000
X32000Y68000
X32000Y69000
X32000Y70000
X32000Y71000
X32000Y72000
X32250Y31250
X33000Y54000
X33000Y61000
X33000Y62000
X33000Y63000
X33000Y64000
X33000Y65000
X33000Y66000
X33000Y67000
X33000Y68000
X33000Y69000
X33000Y70000
X33000Y71000
X33000Y72000
X33500Y56250
X34000Y61000
X34000Y62000
X34000Y63000
X34000Y64000
X34000Y65000
X34000Y66000
X34000Y67000
X34000Y68000
X34000Y69000
X34000Y70000
X34000Y71000
X34000Y72000
X35000Y14000
X35000Y61000
X35000Y62000
X35000Y63000
X35000Y64000
X35000Y65000
X35000Y66000
X35000Y67000
X35000Y68000
X35000Y69000
X35000Y70000
X35000Y71000
X35000Y72000
X35750Y14000
X36000Y61000
X36000Y62000
X36000Y63000
X36000Y64000
X36000Y65000
X36000Y66000
X36000Y67000
X36000Y68000
X36000Y69000
X36000Y70000
X36000Y71000
X36000Y72000
X36500Y14000
X37000Y61000
X37000Y62000
X37000Y63000
X37000Y64000
X37000Y65000
X37000Y66000
X37000Y67000
X37000Y68000
X37000Y69000
X37000Y70000
X37000Y71000
X37000Y72000
X37750Y17500
X38000Y61000
X38000Y62000
X38000Y63000
X38000Y64000
X38000Y65000
X38000Y66000
X38000Y67000
X38000Y68000
X38000Y69000
X38000Y70000
X38000Y71000
X38000Y72000
X38250Y17250
X38750Y17500
X39000Y28000
X39000Y29000
X39000Y30000
X39000Y31000
X39000Y32000
X39000Y33000
X39000Y34000
X39000Y35000
X39000Y36000
X39000Y37000
X39000Y38000
X39000Y39000
X39000Y40000
X39000Y41000
X39000Y42000
X39000Y61000
X39000Y62000
X39000Y63000
X39000Y64000
X39000Y65000
X39000Y66000
X39000Y67000
X39000Y68000
X39000Y69000
X39000Y70000
X39000Y71000
X39000Y72000
X39250Y17250
X40000Y28000
X40000Y29000
X40000Y30000
X40000Y31000
X40000Y32000
X40000Y33000
X40000Y34000
X40000Y35000
X40000Y36000
X40000Y37000
X40000Y38000
X40000Y39000
X40000Y40000
X40000Y41000
X40000Y42000
X40000Y61000
X40000Y62000
X40000Y63000
X40000Y64000
X40000Y65000
X40000Y66000
X40000Y67000
X40000Y68000
X40000Y69000
X40000Y70000
X40000Y71000
X40000Y72000
X41000Y28000
X41000Y29000
X41000Y30000
X41000Y31000
X41000Y32000
X41000Y33000
X41000Y34000
X41000Y35000
X41000Y36000
X41000Y37000
X41000Y38000
X41000Y39000
X41000Y40000
X41000Y41000
X41000Y42000
X41000Y61000
X41000Y62000
X41000Y63000
X41000Y64000
X41000Y65000
X41000Y66000
X41000Y67000
X41000Y68000
X41000Y69000
X41000Y70000
X41000Y71000
X41000Y72000
X41750Y56250
X42000Y28000
X42000Y29000
X42000Y30000
X42000Y31000
X42000Y32000
X42000Y33000
X42000Y34000
X42000Y35000
X42000Y36000
X42000Y37000
X42000Y38000
X42000Y39000
X42000Y40000
X42000Y41000
X42000Y42000
X42000Y61000
X42000Y62000
X42000Y63000
X42000Y64000
X42000Y65000
X42000Y66000
X42000Y67000
X42000Y68000
X42000Y69000
X42000Y70000
X42000Y71000
X42000Y72000
X43000Y28000
X43000Y29000
X43000Y30000
X43000Y31000
X43000Y32000
X43000Y33000
X43000Y34000
X43000Y35000
X43000Y36000
X43000Y37000
X43000Y38000
X43000Y39000
X43000Y40000
X43000Y41000
X43000Y42000
X43000Y61000
X43000Y62000
X43000Y63000
X43000Y64000
X43000Y65000
X43000Y66000
X43000Y67000
X43000Y68000
X43000Y69000
X43000Y70000
X43000Y71000
X43000Y72000
X44000Y28000
X44000Y29000
X44000Y30000
X44000Y31000
X44000Y32000
X44000Y33000
X44000Y34000
X44000Y35000
X44000Y36000
X44000Y37000
X44000Y38000
X44000Y39000
X44000Y40000
X44000Y41000
X44000Y42000
X44000Y61000
X44000Y62000
X44000Y63000
X44000Y64000
X44000Y65000
X44000Y66000
X44000Y67000
X44000Y68000
X44000Y69000
X44000Y70000
X44000Y71000
X44000Y72000
X45000Y28000
X45000Y29000
X45000Y30000
X45000Y31000
X45000Y32000
X45000Y33000
X45000Y34000
X45000Y35000
X45000Y36000
X45000Y37000
X45000Y38000
X45000Y39000
X45000Y40000
X45000Y41000
X45000Y42000
X45000Y61000
X45000Y62000
X45000Y63000
X45000Y64000
X45000Y65000
X45000Y66000
X45000Y67000
X45000Y68000
X45000Y69000
X45000Y70000
X45000Y71000
X45000Y72000
X46000Y28000
X46000Y29000
X46000Y30000
X46000Y31000
X46000Y32000
X46000Y33000
X46000Y34000
X46000Y35000
X46000Y36000
X46000Y37000
X46000Y38000
X46000Y39000
X46000Y40000
X46000Y41000
X46000Y42000
X46000Y61000
X46000Y62000
X46000Y63000
X46000Y64000
X46000Y65000
X46000Y66000
X46000Y67000
X46000Y68000
X46000Y69000
X46000Y70000
X46000Y71000
X46000Y72000
X47000Y61000
X47000Y62000
X47000Y63000
X47000Y64000
X47000Y65000
X47000Y66000
X47000Y67000
X47000Y68000
X47000Y69000
X47000Y70000
X48000Y61000
X48000Y62000
X48000Y63000
X48000Y64000
X48000Y65000
X48000Y66000
X48000Y67000
X48000Y68000
X48000Y69000
X48000Y70000
T3
X13250Y25250
X14000Y49500
X14000Y51500
X14000Y53500
X14000Y55500
X14000Y57500
X14000Y59500
X14000Y61500
X14000Y63500
X14000Y65500
X14000Y67500
X14000Y69500
X14000Y71500
X14250Y11250
X14250Y13250
X14250Y25250
X14250Y27000
X14250Y29000
X14250Y31000
X14250Y33000
X14250Y35000
X14250Y37000
X14250Y39000
X14250Y41000
X15630Y15500
X15630Y17750
X15630Y20000
X15630Y22250
X16500Y25250
X17500Y25250
X18000Y19000
X18000Y20250
X18000Y21500
X18008Y11000
X18500Y25250
X19000Y19000
X19000Y20250
X19000Y21500
X19008Y11000
X19500Y25250
X20500Y25250
X21008Y11000
X21500Y25250
X22008Y11000
X22500Y25250
X22500Y44500
X22750Y27000
X22750Y29000
X22750Y31000
X22750Y33000
X22750Y35000
X22750Y37000
X22750Y39000
X22750Y41000
X23500Y25250
X23500Y44500
X24500Y25250
X25500Y25250
X28500Y44500
X28500Y45500
X28500Y46500
X28500Y47500
X28500Y48500
X28500Y49500
X28500Y50500
X28500Y51500
X28500Y52500
X28500Y53500
X28500Y54500
X28500Y55500
X28500Y56500
X29000Y60000
X29000Y61000
X29000Y62000
X29000Y63000
X29000Y64000
X29000Y65000
X29000Y66000
X29000Y67000
X29000Y68000
X29000Y69000
X29500Y44500
X29500Y45500
X29500Y46500
X29500Y47500
X29500Y48500
X29500Y49500
X29500Y50500
X29500Y51500
X29500Y52500
X29500Y53500
X29500Y54500
X29500Y55500
X29500Y56500
X32000Y60000
X33000Y60000
X34000Y60000
X35000Y60000
X36000Y60000
X37000Y60000
X38000Y60000
X38488Y47000
X39000Y60000
X40000Y60000
X41000Y60000
X41508Y11000
X42000Y60000
X42508Y11000
X43000Y60000
X44000Y60000
X44508Y11000
X45000Y60000
X45508Y11000
X46000Y60000
X46559Y47000
X47000Y60000
T4
X18250Y13500
X18250Y16750
X20250Y13500
X20250Y16750
X24250Y13500
X24250Y16750
X26250Y13500
X26250Y16750
X40000Y19250
X40000Y22250
X42000Y19250
X42000Y22250
X46000Y19250
X46000Y22250
X48000Y19250
X48000Y22250
T5
X17948Y46031
X17948Y50755
X17948Y53031
X17948Y57755
X17948Y60031
X17948Y64755
X17948Y67031
X17948Y71755
X22752Y46031
X22752Y50755
X22752Y53031
X22752Y57755
X22752Y60031
X22752Y64755
X22752Y67031
X22752Y71755
X23539Y48393
X23539Y55393
X23539Y62393
X23539Y69393
T6
X11024Y11024
X11024Y41339
X11024Y71654
X31693Y25591
X33858Y47047
X48031Y11024
X48031Y71654
T0
M30
