M48
INCH,TZ
T1C0.025
T2C0.035
T3C0.040
T4C0.050
T5C0.060
T6C0.138
%
G90
G05
T1
X20500Y-27750
X20750Y-31750
X21000Y-35750
X21250Y-39750
X22250Y-20000
X24250Y-34000
X24250Y-41000
X24750Y-33500
X24750Y-41000
X25250Y-28250
X25250Y-33000
X25250Y-41000
X25750Y-32500
X25750Y-41000
X28150Y-29000
X28150Y-29500
X28150Y-31500
X28150Y-32000
X30750Y-31000
X30750Y-31500
X30750Y-32000
X30750Y-32500
X30750Y-33000
X30750Y-33500
X30750Y-34000
X30750Y-34500
X35500Y-23500
X35500Y-49000
X36000Y-24000
X36000Y-50250
X36500Y-23750
X36500Y-49750
X36500Y-50250
X36750Y-27500
X37000Y-27000
X37250Y-53750
X41000Y-55250
X43250Y-55250
X43500Y-54750
T2
X18250Y-27000
X18250Y-31000
X18250Y-35000
X18250Y-39000
X21000Y-18750
X26550Y-31000
X26750Y-27000
X26750Y-29000
X27250Y-10750
X28000Y-70000
X28000Y-71000
X28000Y-72000
X28250Y-35500
X28250Y-39000
X29000Y-13500
X29000Y-70000
X29000Y-71000
X29000Y-72000
X29500Y-18250
X29750Y-13500
X29750Y-15250
X29750Y-16750
X30000Y-61000
X30000Y-62000
X30000Y-63000
X30000Y-64000
X30000Y-65000
X30000Y-66000
X30000Y-67000
X30000Y-68000
X30000Y-69000
X30000Y-70000
X30000Y-71000
X30000Y-72000
X30250Y-18250
X30500Y-13500
X31000Y-18250
X31000Y-61000
X31000Y-62000
X31000Y-63000
X31000Y-64000
X31000Y-65000
X31000Y-66000
X31000Y-67000
X31000Y-68000
X31000Y-69000
X31000Y-70000
X31000Y-71000
X31000Y-72000
X31250Y-15250
X31250Y-16750
X31500Y-19500
X31500Y-20250
X31500Y-21000
X32000Y-61000
X32000Y-62000
X32000Y-63000
X32000Y-64000
X32000Y-65000
X32000Y-66000
X32000Y-67000
X32000Y-68000
X32000Y-69000
X32000Y-70000
X32000Y-71000
X32000Y-72000
X32250Y-10750
X32250Y-31250
X33000Y-54000
X33000Y-61000
X33000Y-62000
X33000Y-63000
X33000Y-64000
X33000Y-65000
X33000Y-66000
X33000Y-67000
X33000Y-68000
X33000Y-69000
X33000Y-70000
X33000Y-71000
X33000Y-72000
X33500Y-56250
X34000Y-61000
X34000Y-62000
X34000Y-63000
X34000Y-64000
X34000Y-65000
X34000Y-66000
X34000Y-67000
X34000Y-68000
X34000Y-69000
X34000Y-70000
X34000Y-71000
X34000Y-72000
X34500Y-13000
X34500Y-13750
X34500Y-14500
X35000Y-61000
X35000Y-62000
X35000Y-63000
X35000Y-64000
X35000Y-65000
X35000Y-66000
X35000Y-67000
X35000Y-68000
X35000Y-69000
X35000Y-70000
X35000Y-71000
X35000Y-72000
X36000Y-61000
X36000Y-62000
X36000Y-63000
X36000Y-64000
X36000Y-65000
X36000Y-66000
X36000Y-67000
X36000Y-68000
X36000Y-69000
X36000Y-70000
X36000Y-71000
X36000Y-72000
X37000Y-61000
X37000Y-62000
X37000Y-63000
X37000Y-64000
X37000Y-65000
X37000Y-66000
X37000Y-67000
X37000Y-68000
X37000Y-69000
X37000Y-70000
X37000Y-71000
X37000Y-72000
X38000Y-61000
X38000Y-62000
X38000Y-63000
X38000Y-64000
X38000Y-65000
X38000Y-66000
X38000Y-67000
X38000Y-68000
X38000Y-69000
X38000Y-70000
X38000Y-71000
X38000Y-72000
X39000Y-28000
X39000Y-29000
X39000Y-30000
X39000Y-31000
X39000Y-32000
X39000Y-33000
X39000Y-34000
X39000Y-35000
X39000Y-36000
X39000Y-37000
X39000Y-38000
X39000Y-39000
X39000Y-40000
X39000Y-41000
X39000Y-42000
X39000Y-61000
X39000Y-62000
X39000Y-63000
X39000Y-64000
X39000Y-65000
X39000Y-66000
X39000Y-67000
X39000Y-68000
X39000Y-69000
X39000Y-70000
X39000Y-71000
X39000Y-72000
X40000Y-28000
X40000Y-29000
X40000Y-30000
X40000Y-31000
X40000Y-32000
X40000Y-33000
X40000Y-34000
X40000Y-35000
X40000Y-36000
X40000Y-37000
X40000Y-38000
X40000Y-39000
X40000Y-40000
X40000Y-41000
X40000Y-42000
X40000Y-61000
X40000Y-62000
X40000Y-63000
X40000Y-64000
X40000Y-65000
X40000Y-66000
X40000Y-67000
X40000Y-68000
X40000Y-69000
X40000Y-70000
X40000Y-71000
X40000Y-72000
X41000Y-28000
X41000Y-29000
X41000Y-30000
X41000Y-31000
X41000Y-32000
X41000Y-33000
X41000Y-34000
X41000Y-35000
X41000Y-36000
X41000Y-37000
X41000Y-38000
X41000Y-39000
X41000Y-40000
X41000Y-41000
X41000Y-42000
X41000Y-61000
X41000Y-62000
X41000Y-63000
X41000Y-64000
X41000Y-65000
X41000Y-66000
X41000Y-67000
X41000Y-68000
X41000Y-69000
X41000Y-70000
X41000Y-71000
X41000Y-72000
X41750Y-56250
X42000Y-28000
X42000Y-29000
X42000Y-30000
X42000Y-31000
X42000Y-32000
X42000Y-33000
X42000Y-34000
X42000Y-35000
X42000Y-36000
X42000Y-37000
X42000Y-38000
X42000Y-39000
X42000Y-40000
X42000Y-41000
X42000Y-42000
X42000Y-61000
X42000Y-62000
X42000Y-63000
X42000Y-64000
X42000Y-65000
X42000Y-66000
X42000Y-67000
X42000Y-68000
X42000Y-69000
X42000Y-70000
X42000Y-71000
X42000Y-72000
X43000Y-28000
X43000Y-29000
X43000Y-30000
X43000Y-31000
X43000Y-32000
X43000Y-33000
X43000Y-34000
X43000Y-35000
X43000Y-36000
X43000Y-37000
X43000Y-38000
X43000Y-39000
X43000Y-40000
X43000Y-41000
X43000Y-42000
X43000Y-61000
X43000Y-62000
X43000Y-63000
X43000Y-64000
X43000Y-65000
X43000Y-66000
X43000Y-67000
X43000Y-68000
X43000Y-69000
X43000Y-70000
X43000Y-71000
X43000Y-72000
X44000Y-28000
X44000Y-29000
X44000Y-30000
X44000Y-31000
X44000Y-32000
X44000Y-33000
X44000Y-34000
X44000Y-35000
X44000Y-36000
X44000Y-37000
X44000Y-38000
X44000Y-39000
X44000Y-40000
X44000Y-41000
X44000Y-42000
X44000Y-61000
X44000Y-62000
X44000Y-63000
X44000Y-64000
X44000Y-65000
X44000Y-66000
X44000Y-67000
X44000Y-68000
X44000Y-69000
X44000Y-70000
X44000Y-71000
X44000Y-72000
X45000Y-28000
X45000Y-29000
X45000Y-30000
X45000Y-31000
X45000Y-32000
X45000Y-33000
X45000Y-34000
X45000Y-35000
X45000Y-36000
X45000Y-37000
X45000Y-38000
X45000Y-39000
X45000Y-40000
X45000Y-41000
X45000Y-42000
X45000Y-61000
X45000Y-62000
X45000Y-63000
X45000Y-64000
X45000Y-65000
X45000Y-66000
X45000Y-67000
X45000Y-68000
X45000Y-69000
X45000Y-70000
X45000Y-71000
X45000Y-72000
X46000Y-28000
X46000Y-29000
X46000Y-30000
X46000Y-31000
X46000Y-32000
X46000Y-33000
X46000Y-34000
X46000Y-35000
X46000Y-36000
X46000Y-37000
X46000Y-38000
X46000Y-39000
X46000Y-40000
X46000Y-41000
X46000Y-42000
X46000Y-61000
X46000Y-62000
X46000Y-63000
X46000Y-64000
X46000Y-65000
X46000Y-66000
X46000Y-67000
X46000Y-68000
X46000Y-69000
X46000Y-70000
X46000Y-71000
X46000Y-72000
X47000Y-61000
X47000Y-62000
X47000Y-63000
X47000Y-64000
X47000Y-65000
X47000Y-66000
X47000Y-67000
X47000Y-68000
X47000Y-69000
X47000Y-70000
X48000Y-61000
X48000Y-62000
X48000Y-63000
X48000Y-64000
X48000Y-65000
X48000Y-66000
X48000Y-67000
X48000Y-68000
X48000Y-69000
X48000Y-70000
T3
X13250Y-25250
X14000Y-49500
X14000Y-51500
X14000Y-53500
X14000Y-55500
X14000Y-57500
X14000Y-59500
X14000Y-61500
X14000Y-63500
X14000Y-65500
X14000Y-67500
X14000Y-69500
X14000Y-71500
X14250Y-11250
X14250Y-13250
X14250Y-25250
X14250Y-27000
X14250Y-29000
X14250Y-31000
X14250Y-33000
X14250Y-35000
X14250Y-37000
X14250Y-39000
X14250Y-41000
X15630Y-15500
X15630Y-17750
X15630Y-20000
X15630Y-22250
X16500Y-25250
X17500Y-25250
X18000Y-19000
X18000Y-20250
X18000Y-21500
X18008Y-11000
X18500Y-25250
X19000Y-19000
X19000Y-20250
X19000Y-21500
X19008Y-11000
X19500Y-25250
X20500Y-25250
X21008Y-11000
X21500Y-25250
X22008Y-11000
X22500Y-25250
X22500Y-44500
X22750Y-27000
X22750Y-29000
X22750Y-31000
X22750Y-33000
X22750Y-35000
X22750Y-37000
X22750Y-39000
X22750Y-41000
X23500Y-25250
X23500Y-44500
X24500Y-25250
X25500Y-25250
X28500Y-44500
X28500Y-45500
X28500Y-46500
X28500Y-47500
X28500Y-48500
X28500Y-49500
X28500Y-50500
X28500Y-51500
X28500Y-52500
X28500Y-53500
X28500Y-54500
X28500Y-55500
X28500Y-56500
X29000Y-60000
X29000Y-61000
X29000Y-62000
X29000Y-63000
X29000Y-64000
X29000Y-65000
X29000Y-66000
X29000Y-67000
X29000Y-68000
X29000Y-69000
X29500Y-44500
X29500Y-45500
X29500Y-46500
X29500Y-47500
X29500Y-48500
X29500Y-49500
X29500Y-50500
X29500Y-51500
X29500Y-52500
X29500Y-53500
X29500Y-54500
X29500Y-55500
X29500Y-56500
X32000Y-60000
X33000Y-60000
X34000Y-60000
X35000Y-60000
X36000Y-60000
X37000Y-60000
X38000Y-60000
X38488Y-52500
X39000Y-60000
X40000Y-60000
X41000Y-60000
X41508Y-11000
X42000Y-60000
X42508Y-11000
X43000Y-60000
X44000Y-60000
X44508Y-11000
X45000Y-60000
X45508Y-11000
X46000Y-60000
X46559Y-52500
X47000Y-60000
T4
X18250Y-13500
X18250Y-16750
X20250Y-13500
X20250Y-16750
X24250Y-13500
X24250Y-16750
X26250Y-13500
X26250Y-16750
X40000Y-17750
X40000Y-21500
X42000Y-17750
X42000Y-21500
X46000Y-17750
X46000Y-21500
X48000Y-17750
X48000Y-21500
T5
X17948Y-46031
X17948Y-50755
X17948Y-53031
X17948Y-57755
X17948Y-60031
X17948Y-64755
X17948Y-67031
X17948Y-71755
X22752Y-46031
X22752Y-50755
X22752Y-53031
X22752Y-57755
X22752Y-60031
X22752Y-64755
X22752Y-67031
X22752Y-71755
X23539Y-48393
X23539Y-55393
X23539Y-62393
X23539Y-69393
T6
X11024Y-11024
X11024Y-41339
X11024Y-71654
X31693Y-25591
X41732Y-47047
X48031Y-11024
X48031Y-71654
T0
M30
