G04 (created by PCBNEW-RS274X (2011-05-25)-stable) date Mo 06 Jan 2014 15:40:36 CET*
G01*
G70*
G90*
%MOIN*%
G04 Gerber Fmt 3.4, Leading zero omitted, Abs format*
%FSLAX34Y34*%
G04 APERTURE LIST*
%ADD10C,0.006000*%
%ADD11C,0.012000*%
%ADD12C,0.015000*%
G04 APERTURE END LIST*
G54D10*
X04000Y-04000D02*
X113000Y-04000D01*
X113000Y-78670D01*
X04000Y-78670D01*
X04000Y-04000D01*
X04700Y-04700D02*
X112300Y-04700D01*
X112300Y-77970D01*
X04700Y-77970D01*
X04700Y-04700D01*
X25800Y-04000D02*
X25800Y-04700D01*
X15043Y-04552D02*
X14757Y-04552D01*
X14900Y-04552D02*
X14900Y-04052D01*
X14852Y-04124D01*
X14805Y-04171D01*
X14757Y-04195D01*
X25800Y-78670D02*
X25800Y-77970D01*
X15043Y-78522D02*
X14757Y-78522D01*
X14900Y-78522D02*
X14900Y-78022D01*
X14852Y-78094D01*
X14805Y-78141D01*
X14757Y-78165D01*
X47600Y-04000D02*
X47600Y-04700D01*
X36557Y-04100D02*
X36581Y-04076D01*
X36629Y-04052D01*
X36748Y-04052D01*
X36795Y-04076D01*
X36819Y-04100D01*
X36843Y-04148D01*
X36843Y-04195D01*
X36819Y-04267D01*
X36533Y-04552D01*
X36843Y-04552D01*
X47600Y-78670D02*
X47600Y-77970D01*
X36557Y-78070D02*
X36581Y-78046D01*
X36629Y-78022D01*
X36748Y-78022D01*
X36795Y-78046D01*
X36819Y-78070D01*
X36843Y-78118D01*
X36843Y-78165D01*
X36819Y-78237D01*
X36533Y-78522D01*
X36843Y-78522D01*
X69400Y-04000D02*
X69400Y-04700D01*
X58333Y-04052D02*
X58643Y-04052D01*
X58476Y-04243D01*
X58548Y-04243D01*
X58595Y-04267D01*
X58619Y-04290D01*
X58643Y-04338D01*
X58643Y-04457D01*
X58619Y-04505D01*
X58595Y-04529D01*
X58548Y-04552D01*
X58405Y-04552D01*
X58357Y-04529D01*
X58333Y-04505D01*
X69400Y-78670D02*
X69400Y-77970D01*
X58333Y-78022D02*
X58643Y-78022D01*
X58476Y-78213D01*
X58548Y-78213D01*
X58595Y-78237D01*
X58619Y-78260D01*
X58643Y-78308D01*
X58643Y-78427D01*
X58619Y-78475D01*
X58595Y-78499D01*
X58548Y-78522D01*
X58405Y-78522D01*
X58357Y-78499D01*
X58333Y-78475D01*
X91200Y-04000D02*
X91200Y-04700D01*
X80395Y-04219D02*
X80395Y-04552D01*
X80276Y-04029D02*
X80157Y-04386D01*
X80467Y-04386D01*
X91200Y-78670D02*
X91200Y-77970D01*
X80395Y-78189D02*
X80395Y-78522D01*
X80276Y-77999D02*
X80157Y-78356D01*
X80467Y-78356D01*
X102219Y-04052D02*
X101981Y-04052D01*
X101957Y-04290D01*
X101981Y-04267D01*
X102029Y-04243D01*
X102148Y-04243D01*
X102195Y-04267D01*
X102219Y-04290D01*
X102243Y-04338D01*
X102243Y-04457D01*
X102219Y-04505D01*
X102195Y-04529D01*
X102148Y-04552D01*
X102029Y-04552D01*
X101981Y-04529D01*
X101957Y-04505D01*
X102219Y-78022D02*
X101981Y-78022D01*
X101957Y-78260D01*
X101981Y-78237D01*
X102029Y-78213D01*
X102148Y-78213D01*
X102195Y-78237D01*
X102219Y-78260D01*
X102243Y-78308D01*
X102243Y-78427D01*
X102219Y-78475D01*
X102195Y-78499D01*
X102148Y-78522D01*
X102029Y-78522D01*
X101981Y-78499D01*
X101957Y-78475D01*
X04000Y-28890D02*
X04700Y-28890D01*
X04231Y-16510D02*
X04469Y-16510D01*
X04184Y-16652D02*
X04350Y-16152D01*
X04517Y-16652D01*
X113000Y-28890D02*
X112300Y-28890D01*
X112531Y-16510D02*
X112769Y-16510D01*
X112484Y-16652D02*
X112650Y-16152D01*
X112817Y-16652D01*
X04000Y-53780D02*
X04700Y-53780D01*
X04386Y-41280D02*
X04457Y-41304D01*
X04481Y-41328D01*
X04505Y-41376D01*
X04505Y-41447D01*
X04481Y-41495D01*
X04457Y-41519D01*
X04410Y-41542D01*
X04219Y-41542D01*
X04219Y-41042D01*
X04386Y-41042D01*
X04433Y-41066D01*
X04457Y-41090D01*
X04481Y-41138D01*
X04481Y-41185D01*
X04457Y-41233D01*
X04433Y-41257D01*
X04386Y-41280D01*
X04219Y-41280D01*
X113000Y-53780D02*
X112300Y-53780D01*
X112686Y-41280D02*
X112757Y-41304D01*
X112781Y-41328D01*
X112805Y-41376D01*
X112805Y-41447D01*
X112781Y-41495D01*
X112757Y-41519D01*
X112710Y-41542D01*
X112519Y-41542D01*
X112519Y-41042D01*
X112686Y-41042D01*
X112733Y-41066D01*
X112757Y-41090D01*
X112781Y-41138D01*
X112781Y-41185D01*
X112757Y-41233D01*
X112733Y-41257D01*
X112686Y-41280D01*
X112519Y-41280D01*
X04505Y-66385D02*
X04481Y-66409D01*
X04410Y-66432D01*
X04362Y-66432D01*
X04290Y-66409D01*
X04243Y-66361D01*
X04219Y-66313D01*
X04195Y-66218D01*
X04195Y-66147D01*
X04219Y-66051D01*
X04243Y-66004D01*
X04290Y-65956D01*
X04362Y-65932D01*
X04410Y-65932D01*
X04481Y-65956D01*
X04505Y-65980D01*
X112805Y-66385D02*
X112781Y-66409D01*
X112710Y-66432D01*
X112662Y-66432D01*
X112590Y-66409D01*
X112543Y-66361D01*
X112519Y-66313D01*
X112495Y-66218D01*
X112495Y-66147D01*
X112519Y-66051D01*
X112543Y-66004D01*
X112590Y-65956D01*
X112662Y-65932D01*
X112710Y-65932D01*
X112781Y-65956D01*
X112805Y-65980D01*
G54D11*
X79443Y-76413D02*
X79443Y-75813D01*
X79586Y-75813D01*
X79671Y-75841D01*
X79729Y-75899D01*
X79757Y-75956D01*
X79786Y-76070D01*
X79786Y-76156D01*
X79757Y-76270D01*
X79729Y-76327D01*
X79671Y-76384D01*
X79586Y-76413D01*
X79443Y-76413D01*
X80300Y-76413D02*
X80300Y-76099D01*
X80271Y-76041D01*
X80214Y-76013D01*
X80100Y-76013D01*
X80043Y-76041D01*
X80300Y-76384D02*
X80243Y-76413D01*
X80100Y-76413D01*
X80043Y-76384D01*
X80014Y-76327D01*
X80014Y-76270D01*
X80043Y-76213D01*
X80100Y-76184D01*
X80243Y-76184D01*
X80300Y-76156D01*
X80500Y-76013D02*
X80729Y-76013D01*
X80586Y-75813D02*
X80586Y-76327D01*
X80614Y-76384D01*
X80672Y-76413D01*
X80729Y-76413D01*
X81157Y-76384D02*
X81100Y-76413D01*
X80986Y-76413D01*
X80929Y-76384D01*
X80900Y-76327D01*
X80900Y-76099D01*
X80929Y-76041D01*
X80986Y-76013D01*
X81100Y-76013D01*
X81157Y-76041D01*
X81186Y-76099D01*
X81186Y-76156D01*
X80900Y-76213D01*
X81443Y-76356D02*
X81471Y-76384D01*
X81443Y-76413D01*
X81414Y-76384D01*
X81443Y-76356D01*
X81443Y-76413D01*
X81443Y-76041D02*
X81471Y-76070D01*
X81443Y-76099D01*
X81414Y-76070D01*
X81443Y-76041D01*
X81443Y-76099D01*
X82443Y-75813D02*
X82329Y-75813D01*
X82272Y-75841D01*
X82243Y-75870D01*
X82186Y-75956D01*
X82157Y-76070D01*
X82157Y-76299D01*
X82186Y-76356D01*
X82214Y-76384D01*
X82272Y-76413D01*
X82386Y-76413D01*
X82443Y-76384D01*
X82472Y-76356D01*
X82500Y-76299D01*
X82500Y-76156D01*
X82472Y-76099D01*
X82443Y-76070D01*
X82386Y-76041D01*
X82272Y-76041D01*
X82214Y-76070D01*
X82186Y-76099D01*
X82157Y-76156D01*
X83214Y-76013D02*
X83214Y-76527D01*
X83185Y-76584D01*
X83128Y-76613D01*
X83100Y-76613D01*
X83214Y-75813D02*
X83185Y-75841D01*
X83214Y-75870D01*
X83242Y-75841D01*
X83214Y-75813D01*
X83214Y-75870D01*
X83757Y-76413D02*
X83757Y-76099D01*
X83728Y-76041D01*
X83671Y-76013D01*
X83557Y-76013D01*
X83500Y-76041D01*
X83757Y-76384D02*
X83700Y-76413D01*
X83557Y-76413D01*
X83500Y-76384D01*
X83471Y-76327D01*
X83471Y-76270D01*
X83500Y-76213D01*
X83557Y-76184D01*
X83700Y-76184D01*
X83757Y-76156D01*
X84043Y-76013D02*
X84043Y-76413D01*
X84043Y-76070D02*
X84071Y-76041D01*
X84129Y-76013D01*
X84214Y-76013D01*
X84271Y-76041D01*
X84300Y-76099D01*
X84300Y-76413D01*
X85014Y-75870D02*
X85043Y-75841D01*
X85100Y-75813D01*
X85243Y-75813D01*
X85300Y-75841D01*
X85329Y-75870D01*
X85357Y-75927D01*
X85357Y-75984D01*
X85329Y-76070D01*
X84986Y-76413D01*
X85357Y-76413D01*
X85728Y-75813D02*
X85785Y-75813D01*
X85842Y-75841D01*
X85871Y-75870D01*
X85900Y-75927D01*
X85928Y-76041D01*
X85928Y-76184D01*
X85900Y-76299D01*
X85871Y-76356D01*
X85842Y-76384D01*
X85785Y-76413D01*
X85728Y-76413D01*
X85671Y-76384D01*
X85642Y-76356D01*
X85614Y-76299D01*
X85585Y-76184D01*
X85585Y-76041D01*
X85614Y-75927D01*
X85642Y-75870D01*
X85671Y-75841D01*
X85728Y-75813D01*
X86499Y-76413D02*
X86156Y-76413D01*
X86328Y-76413D02*
X86328Y-75813D01*
X86271Y-75899D01*
X86213Y-75956D01*
X86156Y-75984D01*
X87013Y-76013D02*
X87013Y-76413D01*
X86870Y-75784D02*
X86727Y-76213D01*
X87099Y-76213D01*
G54D10*
X71043Y-77613D02*
X71043Y-77013D01*
X71386Y-77613D02*
X71129Y-77270D01*
X71386Y-77013D02*
X71043Y-77356D01*
X71643Y-77613D02*
X71643Y-77213D01*
X71643Y-77013D02*
X71614Y-77041D01*
X71643Y-77070D01*
X71671Y-77041D01*
X71643Y-77013D01*
X71643Y-77070D01*
X72272Y-77556D02*
X72243Y-77584D01*
X72157Y-77613D01*
X72100Y-77613D01*
X72015Y-77584D01*
X71957Y-77527D01*
X71929Y-77470D01*
X71900Y-77356D01*
X71900Y-77270D01*
X71929Y-77156D01*
X71957Y-77099D01*
X72015Y-77041D01*
X72100Y-77013D01*
X72157Y-77013D01*
X72243Y-77041D01*
X72272Y-77070D01*
X72786Y-77613D02*
X72786Y-77299D01*
X72757Y-77241D01*
X72700Y-77213D01*
X72586Y-77213D01*
X72529Y-77241D01*
X72786Y-77584D02*
X72729Y-77613D01*
X72586Y-77613D01*
X72529Y-77584D01*
X72500Y-77527D01*
X72500Y-77470D01*
X72529Y-77413D01*
X72586Y-77384D01*
X72729Y-77384D01*
X72786Y-77356D01*
X73329Y-77613D02*
X73329Y-77013D01*
X73329Y-77584D02*
X73272Y-77613D01*
X73158Y-77613D01*
X73100Y-77584D01*
X73072Y-77556D01*
X73043Y-77499D01*
X73043Y-77327D01*
X73072Y-77270D01*
X73100Y-77241D01*
X73158Y-77213D01*
X73272Y-77213D01*
X73329Y-77241D01*
X74072Y-77299D02*
X74272Y-77299D01*
X74358Y-77613D02*
X74072Y-77613D01*
X74072Y-77013D01*
X74358Y-77013D01*
X74615Y-77556D02*
X74643Y-77584D01*
X74615Y-77613D01*
X74586Y-77584D01*
X74615Y-77556D01*
X74615Y-77613D01*
X74901Y-77613D02*
X74901Y-77013D01*
X75044Y-77013D01*
X75129Y-77041D01*
X75187Y-77099D01*
X75215Y-77156D01*
X75244Y-77270D01*
X75244Y-77356D01*
X75215Y-77470D01*
X75187Y-77527D01*
X75129Y-77584D01*
X75044Y-77613D01*
X74901Y-77613D01*
X75501Y-77556D02*
X75529Y-77584D01*
X75501Y-77613D01*
X75472Y-77584D01*
X75501Y-77556D01*
X75501Y-77613D01*
X75758Y-77441D02*
X76044Y-77441D01*
X75701Y-77613D02*
X75901Y-77013D01*
X76101Y-77613D01*
X76301Y-77556D02*
X76329Y-77584D01*
X76301Y-77613D01*
X76272Y-77584D01*
X76301Y-77556D01*
X76301Y-77613D01*
G54D11*
X104586Y-76413D02*
X104386Y-76127D01*
X104243Y-76413D02*
X104243Y-75813D01*
X104471Y-75813D01*
X104529Y-75841D01*
X104557Y-75870D01*
X104586Y-75927D01*
X104586Y-76013D01*
X104557Y-76070D01*
X104529Y-76099D01*
X104471Y-76127D01*
X104243Y-76127D01*
X105071Y-76384D02*
X105014Y-76413D01*
X104900Y-76413D01*
X104843Y-76384D01*
X104814Y-76327D01*
X104814Y-76099D01*
X104843Y-76041D01*
X104900Y-76013D01*
X105014Y-76013D01*
X105071Y-76041D01*
X105100Y-76099D01*
X105100Y-76156D01*
X104814Y-76213D01*
X105300Y-76013D02*
X105443Y-76413D01*
X105585Y-76013D01*
X105814Y-76356D02*
X105842Y-76384D01*
X105814Y-76413D01*
X105785Y-76384D01*
X105814Y-76356D01*
X105814Y-76413D01*
X105814Y-76041D02*
X105842Y-76070D01*
X105814Y-76099D01*
X105785Y-76070D01*
X105814Y-76041D01*
X105814Y-76099D01*
X106528Y-76241D02*
X106814Y-76241D01*
X106471Y-76413D02*
X106671Y-75813D01*
X106871Y-76413D01*
G54D10*
X71014Y-76384D02*
X71100Y-76413D01*
X71243Y-76413D01*
X71300Y-76384D01*
X71329Y-76356D01*
X71357Y-76299D01*
X71357Y-76241D01*
X71329Y-76184D01*
X71300Y-76156D01*
X71243Y-76127D01*
X71129Y-76099D01*
X71071Y-76070D01*
X71043Y-76041D01*
X71014Y-75984D01*
X71014Y-75927D01*
X71043Y-75870D01*
X71071Y-75841D01*
X71129Y-75813D01*
X71271Y-75813D01*
X71357Y-75841D01*
X71614Y-76413D02*
X71614Y-76013D01*
X71614Y-75813D02*
X71585Y-75841D01*
X71614Y-75870D01*
X71642Y-75841D01*
X71614Y-75813D01*
X71614Y-75870D01*
X71843Y-76013D02*
X72157Y-76013D01*
X71843Y-76413D01*
X72157Y-76413D01*
X72614Y-76384D02*
X72557Y-76413D01*
X72443Y-76413D01*
X72386Y-76384D01*
X72357Y-76327D01*
X72357Y-76099D01*
X72386Y-76041D01*
X72443Y-76013D01*
X72557Y-76013D01*
X72614Y-76041D01*
X72643Y-76099D01*
X72643Y-76156D01*
X72357Y-76213D01*
X72900Y-76356D02*
X72928Y-76384D01*
X72900Y-76413D01*
X72871Y-76384D01*
X72900Y-76356D01*
X72900Y-76413D01*
X72900Y-76041D02*
X72928Y-76070D01*
X72900Y-76099D01*
X72871Y-76070D01*
X72900Y-76041D01*
X72900Y-76099D01*
X73614Y-76241D02*
X73900Y-76241D01*
X73557Y-76413D02*
X73757Y-75813D01*
X73957Y-76413D01*
X74414Y-76013D02*
X74414Y-76413D01*
X74271Y-75784D02*
X74128Y-76213D01*
X74500Y-76213D01*
X104243Y-77613D02*
X104243Y-77013D01*
X104786Y-77613D02*
X104786Y-77013D01*
X104786Y-77584D02*
X104729Y-77613D01*
X104615Y-77613D01*
X104557Y-77584D01*
X104529Y-77556D01*
X104500Y-77499D01*
X104500Y-77327D01*
X104529Y-77270D01*
X104557Y-77241D01*
X104615Y-77213D01*
X104729Y-77213D01*
X104786Y-77241D01*
X105072Y-77556D02*
X105100Y-77584D01*
X105072Y-77613D01*
X105043Y-77584D01*
X105072Y-77556D01*
X105072Y-77613D01*
X105072Y-77241D02*
X105100Y-77270D01*
X105072Y-77299D01*
X105043Y-77270D01*
X105072Y-77241D01*
X105072Y-77299D01*
X106129Y-77613D02*
X105786Y-77613D01*
X105958Y-77613D02*
X105958Y-77013D01*
X105901Y-77099D01*
X105843Y-77156D01*
X105786Y-77184D01*
X106814Y-76984D02*
X106300Y-77756D01*
X107329Y-77613D02*
X106986Y-77613D01*
X107158Y-77613D02*
X107158Y-77013D01*
X107101Y-77099D01*
X107043Y-77156D01*
X106986Y-77184D01*
G54D11*
X70957Y-74613D02*
X71300Y-74613D01*
X71129Y-75213D02*
X71129Y-74613D01*
X71500Y-75213D02*
X71500Y-74813D01*
X71500Y-74613D02*
X71471Y-74641D01*
X71500Y-74670D01*
X71528Y-74641D01*
X71500Y-74613D01*
X71500Y-74670D01*
X71700Y-74813D02*
X71929Y-74813D01*
X71786Y-74613D02*
X71786Y-75127D01*
X71814Y-75184D01*
X71872Y-75213D01*
X71929Y-75213D01*
X72215Y-75213D02*
X72157Y-75184D01*
X72129Y-75127D01*
X72129Y-74613D01*
X72671Y-75184D02*
X72614Y-75213D01*
X72500Y-75213D01*
X72443Y-75184D01*
X72414Y-75127D01*
X72414Y-74899D01*
X72443Y-74841D01*
X72500Y-74813D01*
X72614Y-74813D01*
X72671Y-74841D01*
X72700Y-74899D01*
X72700Y-74956D01*
X72414Y-75013D01*
X72957Y-75156D02*
X72985Y-75184D01*
X72957Y-75213D01*
X72928Y-75184D01*
X72957Y-75156D01*
X72957Y-75213D01*
X72957Y-74841D02*
X72985Y-74870D01*
X72957Y-74899D01*
X72928Y-74870D01*
X72957Y-74841D01*
X72957Y-74899D01*
X73700Y-75213D02*
X73700Y-74613D01*
X74043Y-75213D02*
X73786Y-74870D01*
X74043Y-74613D02*
X73700Y-74956D01*
X74414Y-74613D02*
X74528Y-74613D01*
X74586Y-74641D01*
X74643Y-74699D01*
X74671Y-74813D01*
X74671Y-75013D01*
X74643Y-75127D01*
X74586Y-75184D01*
X74528Y-75213D01*
X74414Y-75213D01*
X74357Y-75184D01*
X74300Y-75127D01*
X74271Y-75013D01*
X74271Y-74813D01*
X74300Y-74699D01*
X74357Y-74641D01*
X74414Y-74613D01*
X74929Y-74899D02*
X75129Y-74899D01*
X75215Y-75213D02*
X74929Y-75213D01*
X74929Y-74613D01*
X75215Y-74613D01*
X75415Y-74613D02*
X75558Y-75213D01*
X75672Y-74784D01*
X75786Y-75213D01*
X75929Y-74613D01*
X76158Y-75213D02*
X76158Y-74613D01*
X76644Y-74899D02*
X76730Y-74927D01*
X76758Y-74956D01*
X76787Y-75013D01*
X76787Y-75099D01*
X76758Y-75156D01*
X76730Y-75184D01*
X76672Y-75213D01*
X76444Y-75213D01*
X76444Y-74613D01*
X76644Y-74613D01*
X76701Y-74641D01*
X76730Y-74670D01*
X76758Y-74727D01*
X76758Y-74784D01*
X76730Y-74841D01*
X76701Y-74870D01*
X76644Y-74899D01*
X76444Y-74899D01*
X77015Y-75041D02*
X77301Y-75041D01*
X76958Y-75213D02*
X77158Y-74613D01*
X77358Y-75213D01*
X77558Y-74984D02*
X78015Y-74984D01*
X78301Y-75213D02*
X78301Y-74613D01*
X78529Y-74613D01*
X78587Y-74641D01*
X78615Y-74670D01*
X78644Y-74727D01*
X78644Y-74813D01*
X78615Y-74870D01*
X78587Y-74899D01*
X78529Y-74927D01*
X78301Y-74927D01*
X78901Y-75213D02*
X78901Y-74613D01*
G54D10*
X71243Y-72499D02*
X71043Y-72499D01*
X71043Y-72813D02*
X71043Y-72213D01*
X71329Y-72213D01*
X71557Y-72813D02*
X71557Y-72413D01*
X71557Y-72213D02*
X71528Y-72241D01*
X71557Y-72270D01*
X71585Y-72241D01*
X71557Y-72213D01*
X71557Y-72270D01*
X71929Y-72813D02*
X71871Y-72784D01*
X71843Y-72727D01*
X71843Y-72213D01*
X72385Y-72784D02*
X72328Y-72813D01*
X72214Y-72813D01*
X72157Y-72784D01*
X72128Y-72727D01*
X72128Y-72499D01*
X72157Y-72441D01*
X72214Y-72413D01*
X72328Y-72413D01*
X72385Y-72441D01*
X72414Y-72499D01*
X72414Y-72556D01*
X72128Y-72613D01*
X72671Y-72756D02*
X72699Y-72784D01*
X72671Y-72813D01*
X72642Y-72784D01*
X72671Y-72756D01*
X72671Y-72813D01*
X72671Y-72441D02*
X72699Y-72470D01*
X72671Y-72499D01*
X72642Y-72470D01*
X72671Y-72441D01*
X72671Y-72499D01*
X73414Y-72813D02*
X73414Y-72213D01*
X73471Y-72584D02*
X73642Y-72813D01*
X73642Y-72413D02*
X73414Y-72641D01*
X73986Y-72813D02*
X73928Y-72784D01*
X73900Y-72756D01*
X73871Y-72699D01*
X73871Y-72527D01*
X73900Y-72470D01*
X73928Y-72441D01*
X73986Y-72413D01*
X74071Y-72413D01*
X74128Y-72441D01*
X74157Y-72470D01*
X74186Y-72527D01*
X74186Y-72699D01*
X74157Y-72756D01*
X74128Y-72784D01*
X74071Y-72813D01*
X73986Y-72813D01*
X74671Y-72784D02*
X74614Y-72813D01*
X74500Y-72813D01*
X74443Y-72784D01*
X74414Y-72727D01*
X74414Y-72499D01*
X74443Y-72441D01*
X74500Y-72413D01*
X74614Y-72413D01*
X74671Y-72441D01*
X74700Y-72499D01*
X74700Y-72556D01*
X74414Y-72613D01*
X74900Y-72413D02*
X75014Y-72813D01*
X75128Y-72527D01*
X75243Y-72813D01*
X75357Y-72413D01*
X75586Y-72813D02*
X75586Y-72413D01*
X75586Y-72213D02*
X75557Y-72241D01*
X75586Y-72270D01*
X75614Y-72241D01*
X75586Y-72213D01*
X75586Y-72270D01*
X75872Y-72813D02*
X75872Y-72213D01*
X75872Y-72441D02*
X75929Y-72413D01*
X76043Y-72413D01*
X76100Y-72441D01*
X76129Y-72470D01*
X76158Y-72527D01*
X76158Y-72699D01*
X76129Y-72756D01*
X76100Y-72784D01*
X76043Y-72813D01*
X75929Y-72813D01*
X75872Y-72784D01*
X76672Y-72813D02*
X76672Y-72499D01*
X76643Y-72441D01*
X76586Y-72413D01*
X76472Y-72413D01*
X76415Y-72441D01*
X76672Y-72784D02*
X76615Y-72813D01*
X76472Y-72813D01*
X76415Y-72784D01*
X76386Y-72727D01*
X76386Y-72670D01*
X76415Y-72613D01*
X76472Y-72584D01*
X76615Y-72584D01*
X76672Y-72556D01*
X76958Y-72413D02*
X76958Y-73013D01*
X76958Y-72441D02*
X77015Y-72413D01*
X77129Y-72413D01*
X77186Y-72441D01*
X77215Y-72470D01*
X77244Y-72527D01*
X77244Y-72699D01*
X77215Y-72756D01*
X77186Y-72784D01*
X77129Y-72813D01*
X77015Y-72813D01*
X76958Y-72784D01*
X77501Y-72813D02*
X77501Y-72413D01*
X77501Y-72213D02*
X77472Y-72241D01*
X77501Y-72270D01*
X77529Y-72241D01*
X77501Y-72213D01*
X77501Y-72270D01*
X77787Y-72756D02*
X77815Y-72784D01*
X77787Y-72813D01*
X77758Y-72784D01*
X77787Y-72756D01*
X77787Y-72813D01*
X78073Y-72813D02*
X78073Y-72213D01*
X78073Y-72441D02*
X78130Y-72413D01*
X78244Y-72413D01*
X78301Y-72441D01*
X78330Y-72470D01*
X78359Y-72527D01*
X78359Y-72699D01*
X78330Y-72756D01*
X78301Y-72784D01*
X78244Y-72813D01*
X78130Y-72813D01*
X78073Y-72784D01*
X78616Y-72813D02*
X78616Y-72413D01*
X78616Y-72527D02*
X78644Y-72470D01*
X78673Y-72441D01*
X78730Y-72413D01*
X78787Y-72413D01*
X79244Y-72813D02*
X79244Y-72213D01*
X79244Y-72784D02*
X79187Y-72813D01*
X79073Y-72813D01*
X79015Y-72784D01*
X78987Y-72756D01*
X78958Y-72699D01*
X78958Y-72527D01*
X78987Y-72470D01*
X79015Y-72441D01*
X79073Y-72413D01*
X79187Y-72413D01*
X79244Y-72441D01*
X71014Y-73984D02*
X71100Y-74013D01*
X71243Y-74013D01*
X71300Y-73984D01*
X71329Y-73956D01*
X71357Y-73899D01*
X71357Y-73841D01*
X71329Y-73784D01*
X71300Y-73756D01*
X71243Y-73727D01*
X71129Y-73699D01*
X71071Y-73670D01*
X71043Y-73641D01*
X71014Y-73584D01*
X71014Y-73527D01*
X71043Y-73470D01*
X71071Y-73441D01*
X71129Y-73413D01*
X71271Y-73413D01*
X71357Y-73441D01*
X71614Y-74013D02*
X71614Y-73413D01*
X71871Y-74013D02*
X71871Y-73699D01*
X71842Y-73641D01*
X71785Y-73613D01*
X71700Y-73613D01*
X71642Y-73641D01*
X71614Y-73670D01*
X72385Y-73984D02*
X72328Y-74013D01*
X72214Y-74013D01*
X72157Y-73984D01*
X72128Y-73927D01*
X72128Y-73699D01*
X72157Y-73641D01*
X72214Y-73613D01*
X72328Y-73613D01*
X72385Y-73641D01*
X72414Y-73699D01*
X72414Y-73756D01*
X72128Y-73813D01*
X72899Y-73984D02*
X72842Y-74013D01*
X72728Y-74013D01*
X72671Y-73984D01*
X72642Y-73927D01*
X72642Y-73699D01*
X72671Y-73641D01*
X72728Y-73613D01*
X72842Y-73613D01*
X72899Y-73641D01*
X72928Y-73699D01*
X72928Y-73756D01*
X72642Y-73813D01*
X73099Y-73613D02*
X73328Y-73613D01*
X73185Y-73413D02*
X73185Y-73927D01*
X73213Y-73984D01*
X73271Y-74013D01*
X73328Y-74013D01*
X73528Y-73956D02*
X73556Y-73984D01*
X73528Y-74013D01*
X73499Y-73984D01*
X73528Y-73956D01*
X73528Y-74013D01*
X73528Y-73641D02*
X73556Y-73670D01*
X73528Y-73699D01*
X73499Y-73670D01*
X73528Y-73641D01*
X73528Y-73699D01*
X74585Y-74013D02*
X74242Y-74013D01*
X74414Y-74013D02*
X74414Y-73413D01*
X74357Y-73499D01*
X74299Y-73556D01*
X74242Y-73584D01*
X75270Y-73384D02*
X74756Y-74156D01*
X75785Y-74013D02*
X75442Y-74013D01*
X75614Y-74013D02*
X75614Y-73413D01*
X75557Y-73499D01*
X75499Y-73556D01*
X75442Y-73584D01*
X70300Y-71970D02*
X70300Y-77970D01*
X70300Y-71970D02*
X112300Y-71970D01*
X70300Y-71970D02*
X112300Y-71970D01*
X70300Y-74370D02*
X112300Y-74370D01*
X103500Y-75570D02*
X103500Y-77970D01*
X70300Y-76770D02*
X112300Y-76770D01*
X70300Y-75570D02*
X112300Y-75570D01*
X76900Y-75570D02*
X76900Y-76770D01*
G54D11*
X43134Y-75573D02*
X42791Y-75573D01*
X42963Y-75573D02*
X42961Y-74773D01*
X42904Y-74887D01*
X42847Y-74963D01*
X42790Y-75001D01*
X43476Y-75115D02*
X43418Y-75077D01*
X43390Y-75038D01*
X43361Y-74962D01*
X43360Y-74924D01*
X43389Y-74848D01*
X43417Y-74810D01*
X43475Y-74772D01*
X43589Y-74772D01*
X43646Y-74810D01*
X43675Y-74848D01*
X43703Y-74924D01*
X43704Y-74962D01*
X43676Y-75038D01*
X43647Y-75077D01*
X43590Y-75115D01*
X43476Y-75115D01*
X43418Y-75153D01*
X43390Y-75191D01*
X43361Y-75267D01*
X43361Y-75419D01*
X43390Y-75496D01*
X43419Y-75534D01*
X43477Y-75572D01*
X43591Y-75572D01*
X43648Y-75534D01*
X43676Y-75496D01*
X43704Y-75419D01*
X43704Y-75267D01*
X43676Y-75191D01*
X43647Y-75153D01*
X43590Y-75115D01*
X43990Y-75533D02*
X43990Y-75571D01*
X43962Y-75647D01*
X43933Y-75685D01*
X44360Y-74771D02*
X44417Y-74770D01*
X44474Y-74808D01*
X44503Y-74846D01*
X44532Y-74922D01*
X44561Y-75075D01*
X44561Y-75265D01*
X44533Y-75417D01*
X44504Y-75494D01*
X44476Y-75532D01*
X44419Y-75570D01*
X44362Y-75571D01*
X44305Y-75533D01*
X44275Y-75495D01*
X44247Y-75418D01*
X44218Y-75266D01*
X44218Y-75076D01*
X44246Y-74923D01*
X44274Y-74847D01*
X44303Y-74809D01*
X44360Y-74771D01*
X44931Y-74770D02*
X44988Y-74769D01*
X45045Y-74807D01*
X45074Y-74845D01*
X45103Y-74921D01*
X45132Y-75074D01*
X45132Y-75264D01*
X45104Y-75416D01*
X45075Y-75493D01*
X45046Y-75531D01*
X44990Y-75569D01*
X44933Y-75570D01*
X44875Y-75532D01*
X44846Y-75494D01*
X44818Y-75417D01*
X44789Y-75265D01*
X44789Y-75075D01*
X44817Y-74922D01*
X44845Y-74846D01*
X44874Y-74808D01*
X44931Y-74770D01*
X45704Y-75568D02*
X45361Y-75569D01*
X45533Y-75569D02*
X45531Y-74769D01*
X45474Y-74883D01*
X45417Y-74959D01*
X45360Y-74997D01*
X46418Y-75567D02*
X46417Y-75033D01*
X46417Y-75110D02*
X46445Y-75072D01*
X46503Y-75033D01*
X46588Y-75033D01*
X46645Y-75072D01*
X46674Y-75148D01*
X46675Y-75567D01*
X46674Y-75148D02*
X46703Y-75072D01*
X46760Y-75032D01*
X46845Y-75032D01*
X46903Y-75071D01*
X46931Y-75147D01*
X46932Y-75566D01*
X47218Y-75566D02*
X47217Y-75032D01*
X47217Y-75109D02*
X47245Y-75071D01*
X47303Y-75031D01*
X47388Y-75031D01*
X47445Y-75070D01*
X47474Y-75146D01*
X47475Y-75565D01*
X47474Y-75146D02*
X47503Y-75070D01*
X47560Y-75031D01*
X47645Y-75031D01*
X47703Y-75070D01*
X47731Y-75146D01*
X47732Y-75565D01*
X48819Y-74605D02*
X41732Y-74605D01*
X48819Y-47047D02*
X48819Y-75885D01*
X41732Y-47047D02*
X41732Y-75885D01*
X41732Y-74605D02*
X42175Y-74375D01*
X41732Y-74605D02*
X42175Y-74835D01*
X48819Y-74605D02*
X48376Y-74375D01*
X48819Y-74605D02*
X48376Y-74835D01*
X46395Y-07743D02*
X46766Y-07743D01*
X46566Y-08048D01*
X46652Y-08048D01*
X46709Y-08086D01*
X46738Y-08124D01*
X46766Y-08200D01*
X46766Y-08390D01*
X46738Y-08467D01*
X46709Y-08505D01*
X46652Y-08543D01*
X46480Y-08543D01*
X46423Y-08505D01*
X46395Y-08467D01*
X47051Y-08505D02*
X47051Y-08543D01*
X47023Y-08619D01*
X46994Y-08657D01*
X47423Y-07743D02*
X47480Y-07743D01*
X47537Y-07781D01*
X47566Y-07819D01*
X47595Y-07895D01*
X47623Y-08048D01*
X47623Y-08238D01*
X47595Y-08390D01*
X47566Y-08467D01*
X47537Y-08505D01*
X47480Y-08543D01*
X47423Y-08543D01*
X47366Y-08505D01*
X47337Y-08467D01*
X47309Y-08390D01*
X47280Y-08238D01*
X47280Y-08048D01*
X47309Y-07895D01*
X47337Y-07819D01*
X47366Y-07781D01*
X47423Y-07743D01*
X47994Y-07743D02*
X48051Y-07743D01*
X48108Y-07781D01*
X48137Y-07819D01*
X48166Y-07895D01*
X48194Y-08048D01*
X48194Y-08238D01*
X48166Y-08390D01*
X48137Y-08467D01*
X48108Y-08505D01*
X48051Y-08543D01*
X47994Y-08543D01*
X47937Y-08505D01*
X47908Y-08467D01*
X47880Y-08390D01*
X47851Y-08238D01*
X47851Y-08048D01*
X47880Y-07895D01*
X47908Y-07819D01*
X47937Y-07781D01*
X47994Y-07743D01*
X48422Y-07819D02*
X48451Y-07781D01*
X48508Y-07743D01*
X48651Y-07743D01*
X48708Y-07781D01*
X48737Y-07819D01*
X48765Y-07895D01*
X48765Y-07971D01*
X48737Y-08086D01*
X48394Y-08543D01*
X48765Y-08543D01*
X49479Y-08543D02*
X49479Y-08009D01*
X49479Y-08086D02*
X49507Y-08048D01*
X49565Y-08009D01*
X49650Y-08009D01*
X49707Y-08048D01*
X49736Y-08124D01*
X49736Y-08543D01*
X49736Y-08124D02*
X49765Y-08048D01*
X49822Y-08009D01*
X49907Y-08009D01*
X49965Y-08048D01*
X49993Y-08124D01*
X49993Y-08543D01*
X50279Y-08543D02*
X50279Y-08009D01*
X50279Y-08086D02*
X50307Y-08048D01*
X50365Y-08009D01*
X50450Y-08009D01*
X50507Y-08048D01*
X50536Y-08124D01*
X50536Y-08543D01*
X50536Y-08124D02*
X50565Y-08048D01*
X50622Y-08009D01*
X50707Y-08009D01*
X50765Y-08048D01*
X50793Y-08124D01*
X50793Y-08543D01*
X48031Y-08859D02*
X49213Y-08859D01*
X48031Y-09843D02*
X48031Y-07579D01*
X49213Y-09843D02*
X49213Y-07579D01*
X49213Y-08859D02*
X48770Y-09089D01*
X49213Y-08859D02*
X48770Y-08629D01*
X48031Y-08859D02*
X48474Y-09089D01*
X48031Y-08859D02*
X48474Y-08629D01*
X06380Y-23221D02*
X06418Y-23163D01*
X06457Y-23135D01*
X06533Y-23106D01*
X06571Y-23105D01*
X06647Y-23134D01*
X06685Y-23162D01*
X06723Y-23220D01*
X06723Y-23334D01*
X06685Y-23391D01*
X06647Y-23420D01*
X06571Y-23448D01*
X06533Y-23449D01*
X06457Y-23421D01*
X06418Y-23392D01*
X06380Y-23335D01*
X06380Y-23221D01*
X06342Y-23163D01*
X06304Y-23135D01*
X06228Y-23106D01*
X06076Y-23106D01*
X05999Y-23135D01*
X05961Y-23164D01*
X05923Y-23222D01*
X05923Y-23336D01*
X05961Y-23393D01*
X05999Y-23421D01*
X06076Y-23449D01*
X06228Y-23449D01*
X06304Y-23421D01*
X06342Y-23392D01*
X06380Y-23335D01*
X06724Y-23819D02*
X06724Y-23876D01*
X06686Y-23933D01*
X06648Y-23962D01*
X06572Y-23991D01*
X06419Y-24020D01*
X06229Y-24020D01*
X06077Y-23992D01*
X06000Y-23963D01*
X05962Y-23935D01*
X05924Y-23878D01*
X05924Y-23821D01*
X05962Y-23764D01*
X06000Y-23734D01*
X06077Y-23706D01*
X06229Y-23677D01*
X06419Y-23677D01*
X06572Y-23705D01*
X06648Y-23733D01*
X06686Y-23762D01*
X06724Y-23819D01*
X05963Y-24306D02*
X05925Y-24306D01*
X05849Y-24278D01*
X05811Y-24249D01*
X06725Y-24676D02*
X06726Y-24733D01*
X06688Y-24790D01*
X06650Y-24819D01*
X06574Y-24848D01*
X06421Y-24877D01*
X06231Y-24877D01*
X06079Y-24849D01*
X06002Y-24820D01*
X05964Y-24792D01*
X05926Y-24735D01*
X05925Y-24678D01*
X05963Y-24621D01*
X06001Y-24591D01*
X06078Y-24563D01*
X06230Y-24534D01*
X06420Y-24534D01*
X06573Y-24562D01*
X06649Y-24590D01*
X06687Y-24619D01*
X06725Y-24676D01*
X06726Y-25247D02*
X06727Y-25304D01*
X06689Y-25361D01*
X06651Y-25390D01*
X06575Y-25419D01*
X06422Y-25448D01*
X06232Y-25448D01*
X06080Y-25420D01*
X06003Y-25391D01*
X05965Y-25362D01*
X05927Y-25306D01*
X05926Y-25249D01*
X05964Y-25191D01*
X06002Y-25162D01*
X06079Y-25134D01*
X06231Y-25105D01*
X06421Y-25105D01*
X06574Y-25133D01*
X06650Y-25161D01*
X06688Y-25190D01*
X06726Y-25247D01*
X06727Y-25818D02*
X06727Y-25875D01*
X06690Y-25932D01*
X06652Y-25961D01*
X06576Y-25990D01*
X06423Y-26019D01*
X06233Y-26019D01*
X06081Y-25991D01*
X06004Y-25962D01*
X05966Y-25933D01*
X05927Y-25877D01*
X05927Y-25820D01*
X05965Y-25762D01*
X06003Y-25733D01*
X06080Y-25705D01*
X06232Y-25676D01*
X06422Y-25676D01*
X06575Y-25704D01*
X06651Y-25732D01*
X06689Y-25761D01*
X06727Y-25818D01*
X05929Y-26734D02*
X06463Y-26733D01*
X06386Y-26733D02*
X06424Y-26761D01*
X06463Y-26819D01*
X06463Y-26904D01*
X06424Y-26961D01*
X06348Y-26990D01*
X05929Y-26991D01*
X06348Y-26990D02*
X06424Y-27019D01*
X06464Y-27076D01*
X06464Y-27161D01*
X06425Y-27219D01*
X06349Y-27247D01*
X05930Y-27248D01*
X05930Y-27534D02*
X06464Y-27533D01*
X06387Y-27533D02*
X06425Y-27561D01*
X06465Y-27619D01*
X06465Y-27704D01*
X06426Y-27761D01*
X06350Y-27790D01*
X05931Y-27791D01*
X06350Y-27790D02*
X06426Y-27819D01*
X06465Y-27876D01*
X06465Y-27961D01*
X06426Y-28019D01*
X06350Y-28047D01*
X05931Y-28048D01*
X06891Y-09843D02*
X06891Y-41339D01*
X09843Y-09843D02*
X05611Y-09843D01*
X09843Y-41339D02*
X05611Y-41339D01*
X06891Y-41339D02*
X06661Y-40896D01*
X06891Y-41339D02*
X07121Y-40896D01*
X06891Y-09843D02*
X06661Y-10286D01*
X06891Y-09843D02*
X07121Y-10286D01*
X08888Y-08205D02*
X08889Y-08576D01*
X08583Y-08377D01*
X08584Y-08463D01*
X08546Y-08520D01*
X08508Y-08549D01*
X08432Y-08577D01*
X08242Y-08577D01*
X08165Y-08549D01*
X08127Y-08521D01*
X08089Y-08464D01*
X08088Y-08292D01*
X08126Y-08235D01*
X08164Y-08206D01*
X08127Y-08863D02*
X08089Y-08863D01*
X08013Y-08835D01*
X07975Y-08806D01*
X08890Y-09233D02*
X08890Y-09290D01*
X08852Y-09347D01*
X08814Y-09376D01*
X08738Y-09405D01*
X08585Y-09434D01*
X08395Y-09434D01*
X08243Y-09406D01*
X08166Y-09377D01*
X08128Y-09349D01*
X08090Y-09292D01*
X08090Y-09235D01*
X08128Y-09178D01*
X08166Y-09148D01*
X08243Y-09120D01*
X08395Y-09091D01*
X08585Y-09091D01*
X08738Y-09119D01*
X08814Y-09147D01*
X08852Y-09176D01*
X08890Y-09233D01*
X08891Y-09804D02*
X08891Y-09861D01*
X08853Y-09918D01*
X08815Y-09947D01*
X08739Y-09976D01*
X08586Y-10005D01*
X08396Y-10005D01*
X08244Y-09977D01*
X08167Y-09948D01*
X08129Y-09919D01*
X08091Y-09863D01*
X08091Y-09806D01*
X08129Y-09749D01*
X08167Y-09719D01*
X08244Y-09691D01*
X08396Y-09662D01*
X08586Y-09662D01*
X08739Y-09690D01*
X08815Y-09718D01*
X08853Y-09747D01*
X08891Y-09804D01*
X08892Y-10375D02*
X08892Y-10432D01*
X08854Y-10489D01*
X08816Y-10518D01*
X08740Y-10547D01*
X08587Y-10576D01*
X08397Y-10576D01*
X08245Y-10548D01*
X08168Y-10519D01*
X08130Y-10490D01*
X08092Y-10434D01*
X08092Y-10377D01*
X08130Y-10319D01*
X08168Y-10290D01*
X08245Y-10262D01*
X08397Y-10233D01*
X08587Y-10233D01*
X08740Y-10261D01*
X08816Y-10289D01*
X08854Y-10318D01*
X08892Y-10375D01*
X08093Y-11291D02*
X08627Y-11290D01*
X08550Y-11290D02*
X08589Y-11318D01*
X08628Y-11376D01*
X08628Y-11461D01*
X08589Y-11518D01*
X08513Y-11547D01*
X08094Y-11548D01*
X08513Y-11547D02*
X08589Y-11576D01*
X08628Y-11633D01*
X08628Y-11718D01*
X08589Y-11776D01*
X08513Y-11804D01*
X08094Y-11805D01*
X08095Y-12091D02*
X08629Y-12090D01*
X08552Y-12090D02*
X08590Y-12118D01*
X08629Y-12176D01*
X08629Y-12261D01*
X08590Y-12318D01*
X08514Y-12347D01*
X08095Y-12348D01*
X08514Y-12347D02*
X08590Y-12376D01*
X08629Y-12433D01*
X08630Y-12518D01*
X08591Y-12576D01*
X08515Y-12604D01*
X08096Y-12605D01*
X09056Y-09843D02*
X09056Y-11024D01*
X09843Y-09843D02*
X07776Y-09843D01*
X09843Y-11024D02*
X07776Y-11024D01*
X09056Y-11024D02*
X08826Y-10581D01*
X09056Y-11024D02*
X09286Y-10581D01*
X09056Y-09843D02*
X08826Y-10286D01*
X09056Y-09843D02*
X09286Y-10286D01*
X51538Y-74470D02*
X51539Y-74099D01*
X51843Y-74300D01*
X51844Y-74214D01*
X51882Y-74157D01*
X51920Y-74128D01*
X51996Y-74100D01*
X52186Y-74100D01*
X52263Y-74128D01*
X52301Y-74157D01*
X52339Y-74215D01*
X52338Y-74387D01*
X52300Y-74443D01*
X52262Y-74471D01*
X52301Y-73815D02*
X52339Y-73816D01*
X52415Y-73844D01*
X52453Y-73873D01*
X51540Y-73442D02*
X51540Y-73385D01*
X51578Y-73328D01*
X51616Y-73299D01*
X51692Y-73270D01*
X51845Y-73243D01*
X52035Y-73243D01*
X52187Y-73271D01*
X52264Y-73300D01*
X52302Y-73329D01*
X52340Y-73387D01*
X52340Y-73444D01*
X52302Y-73500D01*
X52264Y-73529D01*
X52187Y-73557D01*
X52035Y-73586D01*
X51845Y-73586D01*
X51692Y-73556D01*
X51616Y-73528D01*
X51578Y-73499D01*
X51540Y-73442D01*
X51541Y-72871D02*
X51541Y-72814D01*
X51579Y-72757D01*
X51617Y-72728D01*
X51693Y-72699D01*
X51846Y-72672D01*
X52036Y-72672D01*
X52188Y-72700D01*
X52265Y-72729D01*
X52303Y-72758D01*
X52341Y-72816D01*
X52341Y-72873D01*
X52303Y-72929D01*
X52265Y-72958D01*
X52188Y-72986D01*
X52036Y-73015D01*
X51846Y-73015D01*
X51693Y-72985D01*
X51617Y-72957D01*
X51579Y-72928D01*
X51541Y-72871D01*
X51542Y-72300D02*
X51542Y-72243D01*
X51580Y-72186D01*
X51618Y-72157D01*
X51694Y-72128D01*
X51847Y-72101D01*
X52037Y-72101D01*
X52189Y-72129D01*
X52266Y-72158D01*
X52304Y-72187D01*
X52342Y-72245D01*
X52342Y-72302D01*
X52304Y-72358D01*
X52266Y-72387D01*
X52189Y-72415D01*
X52037Y-72444D01*
X51847Y-72444D01*
X51694Y-72414D01*
X51618Y-72386D01*
X51580Y-72357D01*
X51542Y-72300D01*
X52343Y-71388D02*
X51809Y-71387D01*
X51886Y-71387D02*
X51849Y-71359D01*
X51810Y-71301D01*
X51810Y-71216D01*
X51849Y-71159D01*
X51925Y-71130D01*
X52344Y-71131D01*
X51925Y-71130D02*
X51849Y-71101D01*
X51810Y-71044D01*
X51810Y-70959D01*
X51849Y-70901D01*
X51925Y-70873D01*
X52344Y-70874D01*
X52345Y-70588D02*
X51811Y-70587D01*
X51888Y-70587D02*
X51850Y-70559D01*
X51811Y-70501D01*
X51811Y-70416D01*
X51850Y-70359D01*
X51926Y-70330D01*
X52345Y-70331D01*
X51926Y-70330D02*
X51850Y-70301D01*
X51811Y-70244D01*
X51812Y-70159D01*
X51851Y-70101D01*
X51927Y-70073D01*
X52346Y-70074D01*
X51378Y-72835D02*
X51378Y-71654D01*
X49213Y-72835D02*
X52658Y-72835D01*
X49213Y-71654D02*
X52658Y-71654D01*
X51378Y-71654D02*
X51608Y-72097D01*
X51378Y-71654D02*
X51148Y-72097D01*
X51378Y-72835D02*
X51608Y-72392D01*
X51378Y-72835D02*
X51148Y-72392D01*
X55748Y-54551D02*
X55710Y-54522D01*
X55672Y-54465D01*
X55672Y-54322D01*
X55710Y-54265D01*
X55748Y-54236D01*
X55824Y-54208D01*
X55900Y-54209D01*
X56015Y-54237D01*
X56472Y-54581D01*
X56472Y-54210D01*
X55673Y-53665D02*
X55673Y-53951D01*
X56054Y-53981D01*
X56016Y-53952D01*
X55978Y-53895D01*
X55978Y-53752D01*
X56016Y-53695D01*
X56054Y-53666D01*
X56130Y-53638D01*
X56320Y-53638D01*
X56397Y-53666D01*
X56435Y-53695D01*
X56473Y-53753D01*
X56473Y-53896D01*
X56435Y-53952D01*
X56397Y-53981D01*
X56436Y-53353D02*
X56474Y-53354D01*
X56550Y-53382D01*
X56588Y-53411D01*
X55675Y-52808D02*
X55674Y-53094D01*
X56055Y-53124D01*
X56017Y-53095D01*
X55979Y-53038D01*
X55980Y-52895D01*
X56018Y-52838D01*
X56056Y-52809D01*
X56132Y-52781D01*
X56322Y-52781D01*
X56399Y-52809D01*
X56437Y-52838D01*
X56475Y-52896D01*
X56474Y-53039D01*
X56436Y-53095D01*
X56398Y-53124D01*
X55675Y-52409D02*
X55676Y-52352D01*
X55714Y-52295D01*
X55752Y-52266D01*
X55828Y-52237D01*
X55981Y-52210D01*
X56171Y-52210D01*
X56323Y-52238D01*
X56400Y-52267D01*
X56438Y-52296D01*
X56476Y-52354D01*
X56475Y-52411D01*
X56437Y-52467D01*
X56399Y-52496D01*
X56322Y-52524D01*
X56170Y-52553D01*
X55980Y-52553D01*
X55827Y-52523D01*
X55751Y-52495D01*
X55713Y-52466D01*
X55675Y-52409D01*
X55752Y-51981D02*
X55714Y-51952D01*
X55676Y-51895D01*
X55677Y-51752D01*
X55715Y-51695D01*
X55753Y-51666D01*
X55829Y-51638D01*
X55905Y-51639D01*
X56020Y-51667D01*
X56476Y-52011D01*
X56477Y-51640D01*
X56478Y-50926D02*
X55944Y-50925D01*
X56021Y-50925D02*
X55983Y-50897D01*
X55944Y-50839D01*
X55944Y-50754D01*
X55983Y-50697D01*
X56059Y-50668D01*
X56478Y-50669D01*
X56059Y-50668D02*
X55983Y-50639D01*
X55945Y-50582D01*
X55945Y-50497D01*
X55984Y-50439D01*
X56060Y-50411D01*
X56479Y-50412D01*
X56479Y-50126D02*
X55945Y-50125D01*
X56022Y-50125D02*
X55984Y-50097D01*
X55946Y-50039D01*
X55946Y-49954D01*
X55985Y-49897D01*
X56061Y-49868D01*
X56480Y-49869D01*
X56061Y-49868D02*
X55985Y-49839D01*
X55946Y-49782D01*
X55946Y-49697D01*
X55985Y-49639D01*
X56061Y-49611D01*
X56480Y-49612D01*
X55512Y-57087D02*
X55512Y-47047D01*
X26772Y-57087D02*
X56792Y-57087D01*
X26772Y-47047D02*
X56792Y-47047D01*
X55512Y-47047D02*
X55742Y-47490D01*
X55512Y-47047D02*
X55282Y-47490D01*
X55512Y-57087D02*
X55742Y-56644D01*
X55512Y-57087D02*
X55282Y-56644D01*
X27090Y-06575D02*
X26747Y-06575D01*
X26919Y-06575D02*
X26919Y-05775D01*
X26862Y-05889D01*
X26804Y-05965D01*
X26747Y-06003D01*
X27318Y-05851D02*
X27347Y-05813D01*
X27404Y-05775D01*
X27547Y-05775D01*
X27604Y-05813D01*
X27633Y-05851D01*
X27661Y-05927D01*
X27661Y-06003D01*
X27633Y-06118D01*
X27290Y-06575D01*
X27661Y-06575D01*
X27946Y-06537D02*
X27946Y-06575D01*
X27918Y-06651D01*
X27889Y-06689D01*
X28461Y-06041D02*
X28461Y-06575D01*
X28318Y-05737D02*
X28175Y-06308D01*
X28547Y-06308D01*
X28803Y-06575D02*
X28918Y-06575D01*
X28975Y-06537D01*
X29003Y-06499D01*
X29061Y-06384D01*
X29089Y-06232D01*
X29089Y-05927D01*
X29061Y-05851D01*
X29032Y-05813D01*
X28975Y-05775D01*
X28861Y-05775D01*
X28803Y-05813D01*
X28775Y-05851D01*
X28746Y-05927D01*
X28746Y-06118D01*
X28775Y-06194D01*
X28803Y-06232D01*
X28861Y-06270D01*
X28975Y-06270D01*
X29032Y-06232D01*
X29061Y-06194D01*
X29089Y-06118D01*
X29374Y-06575D02*
X29489Y-06575D01*
X29546Y-06537D01*
X29574Y-06499D01*
X29632Y-06384D01*
X29660Y-06232D01*
X29660Y-05927D01*
X29632Y-05851D01*
X29603Y-05813D01*
X29546Y-05775D01*
X29432Y-05775D01*
X29374Y-05813D01*
X29346Y-05851D01*
X29317Y-05927D01*
X29317Y-06118D01*
X29346Y-06194D01*
X29374Y-06232D01*
X29432Y-06270D01*
X29546Y-06270D01*
X29603Y-06232D01*
X29632Y-06194D01*
X29660Y-06118D01*
X30374Y-06575D02*
X30374Y-06041D01*
X30374Y-06118D02*
X30402Y-06080D01*
X30460Y-06041D01*
X30545Y-06041D01*
X30602Y-06080D01*
X30631Y-06156D01*
X30631Y-06575D01*
X30631Y-06156D02*
X30660Y-06080D01*
X30717Y-06041D01*
X30802Y-06041D01*
X30860Y-06080D01*
X30888Y-06156D01*
X30888Y-06575D01*
X31174Y-06575D02*
X31174Y-06041D01*
X31174Y-06118D02*
X31202Y-06080D01*
X31260Y-06041D01*
X31345Y-06041D01*
X31402Y-06080D01*
X31431Y-06156D01*
X31431Y-06575D01*
X31431Y-06156D02*
X31460Y-06080D01*
X31517Y-06041D01*
X31602Y-06041D01*
X31660Y-06080D01*
X31688Y-06156D01*
X31688Y-06575D01*
X26772Y-06891D02*
X31693Y-06891D01*
X26772Y-25591D02*
X26772Y-05611D01*
X31693Y-25591D02*
X31693Y-05611D01*
X31693Y-06891D02*
X31250Y-07121D01*
X31693Y-06891D02*
X31250Y-06661D01*
X26772Y-06891D02*
X27215Y-07121D01*
X26772Y-06891D02*
X27215Y-06661D01*
X55049Y-22721D02*
X55048Y-22435D01*
X54667Y-22407D01*
X54705Y-22436D01*
X54743Y-22493D01*
X54744Y-22636D01*
X54706Y-22693D01*
X54668Y-22722D01*
X54592Y-22750D01*
X54402Y-22750D01*
X54325Y-22722D01*
X54287Y-22694D01*
X54249Y-22637D01*
X54248Y-22494D01*
X54286Y-22437D01*
X54324Y-22407D01*
X54287Y-23036D02*
X54249Y-23036D01*
X54173Y-23008D01*
X54135Y-22979D01*
X55050Y-23406D02*
X55050Y-23463D01*
X55012Y-23520D01*
X54974Y-23549D01*
X54898Y-23578D01*
X54745Y-23607D01*
X54555Y-23607D01*
X54403Y-23579D01*
X54326Y-23550D01*
X54288Y-23522D01*
X54250Y-23465D01*
X54250Y-23408D01*
X54288Y-23351D01*
X54326Y-23321D01*
X54403Y-23293D01*
X54555Y-23264D01*
X54745Y-23264D01*
X54898Y-23292D01*
X54974Y-23320D01*
X55012Y-23349D01*
X55050Y-23406D01*
X55051Y-23977D02*
X55051Y-24034D01*
X55013Y-24091D01*
X54975Y-24120D01*
X54899Y-24149D01*
X54746Y-24178D01*
X54556Y-24178D01*
X54404Y-24150D01*
X54327Y-24121D01*
X54289Y-24092D01*
X54251Y-24036D01*
X54251Y-23979D01*
X54289Y-23922D01*
X54327Y-23892D01*
X54404Y-23864D01*
X54556Y-23835D01*
X54746Y-23835D01*
X54899Y-23863D01*
X54975Y-23891D01*
X55013Y-23920D01*
X55051Y-23977D01*
X54252Y-24750D02*
X54252Y-24407D01*
X54252Y-24579D02*
X55052Y-24577D01*
X54938Y-24520D01*
X54862Y-24463D01*
X54824Y-24406D01*
X54253Y-25464D02*
X54787Y-25463D01*
X54710Y-25463D02*
X54749Y-25491D01*
X54788Y-25549D01*
X54788Y-25634D01*
X54749Y-25691D01*
X54673Y-25720D01*
X54254Y-25721D01*
X54673Y-25720D02*
X54749Y-25749D01*
X54788Y-25806D01*
X54788Y-25891D01*
X54749Y-25949D01*
X54673Y-25977D01*
X54254Y-25978D01*
X54255Y-26264D02*
X54789Y-26263D01*
X54712Y-26263D02*
X54750Y-26291D01*
X54789Y-26349D01*
X54789Y-26434D01*
X54750Y-26491D01*
X54674Y-26520D01*
X54255Y-26521D01*
X54674Y-26520D02*
X54750Y-26549D01*
X54789Y-26606D01*
X54790Y-26691D01*
X54751Y-26749D01*
X54675Y-26777D01*
X54256Y-26778D01*
X53936Y-23622D02*
X53936Y-25591D01*
X26772Y-23622D02*
X55216Y-23622D01*
X26772Y-25591D02*
X55216Y-25591D01*
X53936Y-25591D02*
X53706Y-25148D01*
X53936Y-25591D02*
X54166Y-25148D01*
X53936Y-23622D02*
X53706Y-24065D01*
X53936Y-23622D02*
X54166Y-24065D01*
G54D12*
X09843Y-72834D02*
X09843Y-09842D01*
X49213Y-72835D02*
X09843Y-72835D01*
X49213Y-09843D02*
X49213Y-72835D01*
X09843Y-09843D02*
X49213Y-09843D01*
M02*
