G04 #@! TF.GenerationSoftware,KiCad,Pcbnew,no-vcs-found*
G04 #@! TF.CreationDate,2016-12-03T15:59:49+01:00*
G04 #@! TF.ProjectId,motor_switch_3pole,6D6F746F725F7377697463685F33706F,2*
G04 #@! TF.FileFunction,Drawing*
%FSLAX46Y46*%
G04 Gerber Fmt 4.6, Leading zero omitted, Abs format (unit mm)*
G04 Created by KiCad (PCBNEW no-vcs-found) date Sat Dec  3 15:59:49 2016*
%MOMM*%
%LPD*%
G01*
G04 APERTURE LIST*
%ADD10C,0.100000*%
%ADD11C,0.300000*%
%ADD12C,0.150000*%
G04 APERTURE END LIST*
D10*
D11*
X94571428Y-67328571D02*
X93857142Y-67328571D01*
X93785714Y-68042857D01*
X93857142Y-67971428D01*
X94000000Y-67900000D01*
X94357142Y-67900000D01*
X94500000Y-67971428D01*
X94571428Y-68042857D01*
X94642857Y-68185714D01*
X94642857Y-68542857D01*
X94571428Y-68685714D01*
X94500000Y-68757142D01*
X94357142Y-68828571D01*
X94000000Y-68828571D01*
X93857142Y-68757142D01*
X93785714Y-68685714D01*
X95571428Y-67328571D02*
X95714285Y-67328571D01*
X95857142Y-67400000D01*
X95928571Y-67471428D01*
X96000000Y-67614285D01*
X96071428Y-67900000D01*
X96071428Y-68257142D01*
X96000000Y-68542857D01*
X95928571Y-68685714D01*
X95857142Y-68757142D01*
X95714285Y-68828571D01*
X95571428Y-68828571D01*
X95428571Y-68757142D01*
X95357142Y-68685714D01*
X95285714Y-68542857D01*
X95214285Y-68257142D01*
X95214285Y-67900000D01*
X95285714Y-67614285D01*
X95357142Y-67471428D01*
X95428571Y-67400000D01*
X95571428Y-67328571D01*
X96785714Y-68757142D02*
X96785714Y-68828571D01*
X96714285Y-68971428D01*
X96642857Y-69042857D01*
X97714285Y-67328571D02*
X97857142Y-67328571D01*
X98000000Y-67400000D01*
X98071428Y-67471428D01*
X98142857Y-67614285D01*
X98214285Y-67900000D01*
X98214285Y-68257142D01*
X98142857Y-68542857D01*
X98071428Y-68685714D01*
X98000000Y-68757142D01*
X97857142Y-68828571D01*
X97714285Y-68828571D01*
X97571428Y-68757142D01*
X97500000Y-68685714D01*
X97428571Y-68542857D01*
X97357142Y-68257142D01*
X97357142Y-67900000D01*
X97428571Y-67614285D01*
X97500000Y-67471428D01*
X97571428Y-67400000D01*
X97714285Y-67328571D01*
X99142857Y-67328571D02*
X99285714Y-67328571D01*
X99428571Y-67400000D01*
X99500000Y-67471428D01*
X99571428Y-67614285D01*
X99642857Y-67900000D01*
X99642857Y-68257142D01*
X99571428Y-68542857D01*
X99500000Y-68685714D01*
X99428571Y-68757142D01*
X99285714Y-68828571D01*
X99142857Y-68828571D01*
X99000000Y-68757142D01*
X98928571Y-68685714D01*
X98857142Y-68542857D01*
X98785714Y-68257142D01*
X98785714Y-67900000D01*
X98857142Y-67614285D01*
X98928571Y-67471428D01*
X99000000Y-67400000D01*
X99142857Y-67328571D01*
X100571428Y-67328571D02*
X100714285Y-67328571D01*
X100857142Y-67400000D01*
X100928571Y-67471428D01*
X101000000Y-67614285D01*
X101071428Y-67900000D01*
X101071428Y-68257142D01*
X101000000Y-68542857D01*
X100928571Y-68685714D01*
X100857142Y-68757142D01*
X100714285Y-68828571D01*
X100571428Y-68828571D01*
X100428571Y-68757142D01*
X100357142Y-68685714D01*
X100285714Y-68542857D01*
X100214285Y-68257142D01*
X100214285Y-67900000D01*
X100285714Y-67614285D01*
X100357142Y-67471428D01*
X100428571Y-67400000D01*
X100571428Y-67328571D01*
X102857142Y-68828571D02*
X102857142Y-67828571D01*
X102857142Y-67971428D02*
X102928571Y-67900000D01*
X103071428Y-67828571D01*
X103285714Y-67828571D01*
X103428571Y-67900000D01*
X103500000Y-68042857D01*
X103500000Y-68828571D01*
X103500000Y-68042857D02*
X103571428Y-67900000D01*
X103714285Y-67828571D01*
X103928571Y-67828571D01*
X104071428Y-67900000D01*
X104142857Y-68042857D01*
X104142857Y-68828571D01*
X104857142Y-68828571D02*
X104857142Y-67828571D01*
X104857142Y-67971428D02*
X104928571Y-67900000D01*
X105071428Y-67828571D01*
X105285714Y-67828571D01*
X105428571Y-67900000D01*
X105500000Y-68042857D01*
X105500000Y-68828571D01*
X105500000Y-68042857D02*
X105571428Y-67900000D01*
X105714285Y-67828571D01*
X105928571Y-67828571D01*
X106071428Y-67900000D01*
X106142857Y-68042857D01*
X106142857Y-68828571D01*
X75000000Y-69500000D02*
X125000000Y-69500000D01*
X75000000Y-74000000D02*
X75000000Y-66800000D01*
X125000000Y-74000000D02*
X125000000Y-66800000D01*
X125000000Y-69500000D02*
X123873496Y-70086421D01*
X125000000Y-69500000D02*
X123873496Y-68913579D01*
X75000000Y-69500000D02*
X76126504Y-70086421D01*
X75000000Y-69500000D02*
X76126504Y-68913579D01*
X130528571Y-97357142D02*
X130528571Y-98214285D01*
X130528571Y-97785714D02*
X129028571Y-97785714D01*
X129242857Y-97928571D01*
X129385714Y-98071428D01*
X129457142Y-98214285D01*
X129028571Y-96071428D02*
X129028571Y-96357142D01*
X129100000Y-96500000D01*
X129171428Y-96571428D01*
X129385714Y-96714285D01*
X129671428Y-96785714D01*
X130242857Y-96785714D01*
X130385714Y-96714285D01*
X130457142Y-96642857D01*
X130528571Y-96500000D01*
X130528571Y-96214285D01*
X130457142Y-96071428D01*
X130385714Y-96000000D01*
X130242857Y-95928571D01*
X129885714Y-95928571D01*
X129742857Y-96000000D01*
X129671428Y-96071428D01*
X129600000Y-96214285D01*
X129600000Y-96500000D01*
X129671428Y-96642857D01*
X129742857Y-96714285D01*
X129885714Y-96785714D01*
X130457142Y-95214285D02*
X130528571Y-95214285D01*
X130671428Y-95285714D01*
X130742857Y-95357142D01*
X129028571Y-94285714D02*
X129028571Y-94142857D01*
X129100000Y-94000000D01*
X129171428Y-93928571D01*
X129314285Y-93857142D01*
X129600000Y-93785714D01*
X129957142Y-93785714D01*
X130242857Y-93857142D01*
X130385714Y-93928571D01*
X130457142Y-94000000D01*
X130528571Y-94142857D01*
X130528571Y-94285714D01*
X130457142Y-94428571D01*
X130385714Y-94500000D01*
X130242857Y-94571428D01*
X129957142Y-94642857D01*
X129600000Y-94642857D01*
X129314285Y-94571428D01*
X129171428Y-94500000D01*
X129100000Y-94428571D01*
X129028571Y-94285714D01*
X129028571Y-92857142D02*
X129028571Y-92714285D01*
X129100000Y-92571428D01*
X129171428Y-92500000D01*
X129314285Y-92428571D01*
X129600000Y-92357142D01*
X129957142Y-92357142D01*
X130242857Y-92428571D01*
X130385714Y-92500000D01*
X130457142Y-92571428D01*
X130528571Y-92714285D01*
X130528571Y-92857142D01*
X130457142Y-93000000D01*
X130385714Y-93071428D01*
X130242857Y-93142857D01*
X129957142Y-93214285D01*
X129600000Y-93214285D01*
X129314285Y-93142857D01*
X129171428Y-93071428D01*
X129100000Y-93000000D01*
X129028571Y-92857142D01*
X129028571Y-91428571D02*
X129028571Y-91285714D01*
X129100000Y-91142857D01*
X129171428Y-91071428D01*
X129314285Y-91000000D01*
X129600000Y-90928571D01*
X129957142Y-90928571D01*
X130242857Y-91000000D01*
X130385714Y-91071428D01*
X130457142Y-91142857D01*
X130528571Y-91285714D01*
X130528571Y-91428571D01*
X130457142Y-91571428D01*
X130385714Y-91642857D01*
X130242857Y-91714285D01*
X129957142Y-91785714D01*
X129600000Y-91785714D01*
X129314285Y-91714285D01*
X129171428Y-91642857D01*
X129100000Y-91571428D01*
X129028571Y-91428571D01*
X130528571Y-89142857D02*
X129528571Y-89142857D01*
X129671428Y-89142857D02*
X129600000Y-89071428D01*
X129528571Y-88928571D01*
X129528571Y-88714285D01*
X129600000Y-88571428D01*
X129742857Y-88500000D01*
X130528571Y-88500000D01*
X129742857Y-88500000D02*
X129600000Y-88428571D01*
X129528571Y-88285714D01*
X129528571Y-88071428D01*
X129600000Y-87928571D01*
X129742857Y-87857142D01*
X130528571Y-87857142D01*
X130528571Y-87142857D02*
X129528571Y-87142857D01*
X129671428Y-87142857D02*
X129600000Y-87071428D01*
X129528571Y-86928571D01*
X129528571Y-86714285D01*
X129600000Y-86571428D01*
X129742857Y-86500000D01*
X130528571Y-86500000D01*
X129742857Y-86500000D02*
X129600000Y-86428571D01*
X129528571Y-86285714D01*
X129528571Y-86071428D01*
X129600000Y-85928571D01*
X129742857Y-85857142D01*
X130528571Y-85857142D01*
X128500000Y-100000000D02*
X128500000Y-84000000D01*
X126000000Y-100000000D02*
X131200000Y-100000000D01*
X126000000Y-84000000D02*
X131200000Y-84000000D01*
X128500000Y-84000000D02*
X129086421Y-85126504D01*
X128500000Y-84000000D02*
X127913579Y-85126504D01*
X128500000Y-100000000D02*
X129086421Y-98873496D01*
X128500000Y-100000000D02*
X127913579Y-98873496D01*
X101642857Y-72328571D02*
X100785714Y-72328571D01*
X101214285Y-72328571D02*
X101214285Y-70828571D01*
X101071428Y-71042857D01*
X100928571Y-71185714D01*
X100785714Y-71257142D01*
X102928571Y-71328571D02*
X102928571Y-72328571D01*
X102571428Y-70757142D02*
X102214285Y-71828571D01*
X103142857Y-71828571D01*
X103785714Y-72257142D02*
X103785714Y-72328571D01*
X103714285Y-72471428D01*
X103642857Y-72542857D01*
X104714285Y-70828571D02*
X104857142Y-70828571D01*
X105000000Y-70900000D01*
X105071428Y-70971428D01*
X105142857Y-71114285D01*
X105214285Y-71400000D01*
X105214285Y-71757142D01*
X105142857Y-72042857D01*
X105071428Y-72185714D01*
X105000000Y-72257142D01*
X104857142Y-72328571D01*
X104714285Y-72328571D01*
X104571428Y-72257142D01*
X104500000Y-72185714D01*
X104428571Y-72042857D01*
X104357142Y-71757142D01*
X104357142Y-71400000D01*
X104428571Y-71114285D01*
X104500000Y-70971428D01*
X104571428Y-70900000D01*
X104714285Y-70828571D01*
X106142857Y-70828571D02*
X106285714Y-70828571D01*
X106428571Y-70900000D01*
X106500000Y-70971428D01*
X106571428Y-71114285D01*
X106642857Y-71400000D01*
X106642857Y-71757142D01*
X106571428Y-72042857D01*
X106500000Y-72185714D01*
X106428571Y-72257142D01*
X106285714Y-72328571D01*
X106142857Y-72328571D01*
X106000000Y-72257142D01*
X105928571Y-72185714D01*
X105857142Y-72042857D01*
X105785714Y-71757142D01*
X105785714Y-71400000D01*
X105857142Y-71114285D01*
X105928571Y-70971428D01*
X106000000Y-70900000D01*
X106142857Y-70828571D01*
X107571428Y-70828571D02*
X107714285Y-70828571D01*
X107857142Y-70900000D01*
X107928571Y-70971428D01*
X108000000Y-71114285D01*
X108071428Y-71400000D01*
X108071428Y-71757142D01*
X108000000Y-72042857D01*
X107928571Y-72185714D01*
X107857142Y-72257142D01*
X107714285Y-72328571D01*
X107571428Y-72328571D01*
X107428571Y-72257142D01*
X107357142Y-72185714D01*
X107285714Y-72042857D01*
X107214285Y-71757142D01*
X107214285Y-71400000D01*
X107285714Y-71114285D01*
X107357142Y-70971428D01*
X107428571Y-70900000D01*
X107571428Y-70828571D01*
X109857142Y-72328571D02*
X109857142Y-71328571D01*
X109857142Y-71471428D02*
X109928571Y-71400000D01*
X110071428Y-71328571D01*
X110285714Y-71328571D01*
X110428571Y-71400000D01*
X110500000Y-71542857D01*
X110500000Y-72328571D01*
X110500000Y-71542857D02*
X110571428Y-71400000D01*
X110714285Y-71328571D01*
X110928571Y-71328571D01*
X111071428Y-71400000D01*
X111142857Y-71542857D01*
X111142857Y-72328571D01*
X111857142Y-72328571D02*
X111857142Y-71328571D01*
X111857142Y-71471428D02*
X111928571Y-71400000D01*
X112071428Y-71328571D01*
X112285714Y-71328571D01*
X112428571Y-71400000D01*
X112500000Y-71542857D01*
X112500000Y-72328571D01*
X112500000Y-71542857D02*
X112571428Y-71400000D01*
X112714285Y-71328571D01*
X112928571Y-71328571D01*
X113071428Y-71400000D01*
X113142857Y-71542857D01*
X113142857Y-72328571D01*
X100000000Y-73000000D02*
X114000000Y-73000000D01*
X100000000Y-74000000D02*
X100000000Y-70300000D01*
X114000000Y-74000000D02*
X114000000Y-70300000D01*
X114000000Y-73000000D02*
X112873496Y-73586421D01*
X114000000Y-73000000D02*
X112873496Y-72413579D01*
X100000000Y-73000000D02*
X101126504Y-73586421D01*
X100000000Y-73000000D02*
X101126504Y-72413579D01*
D12*
X114000000Y-81000000D02*
X114000000Y-74500000D01*
X117000000Y-84000000D02*
X125500000Y-84000000D01*
D11*
X85892857Y-134028571D02*
X85035714Y-134028571D01*
X85464285Y-134028571D02*
X85464285Y-132528571D01*
X85321428Y-132742857D01*
X85178571Y-132885714D01*
X85035714Y-132957142D01*
X86392857Y-132528571D02*
X87392857Y-132528571D01*
X86750000Y-134028571D01*
X88035714Y-133957142D02*
X88035714Y-134028571D01*
X87964285Y-134171428D01*
X87892857Y-134242857D01*
X89392857Y-132528571D02*
X88678571Y-132528571D01*
X88607142Y-133242857D01*
X88678571Y-133171428D01*
X88821428Y-133100000D01*
X89178571Y-133100000D01*
X89321428Y-133171428D01*
X89392857Y-133242857D01*
X89464285Y-133385714D01*
X89464285Y-133742857D01*
X89392857Y-133885714D01*
X89321428Y-133957142D01*
X89178571Y-134028571D01*
X88821428Y-134028571D01*
X88678571Y-133957142D01*
X88607142Y-133885714D01*
X90392857Y-132528571D02*
X90535714Y-132528571D01*
X90678571Y-132600000D01*
X90750000Y-132671428D01*
X90821428Y-132814285D01*
X90892857Y-133100000D01*
X90892857Y-133457142D01*
X90821428Y-133742857D01*
X90750000Y-133885714D01*
X90678571Y-133957142D01*
X90535714Y-134028571D01*
X90392857Y-134028571D01*
X90250000Y-133957142D01*
X90178571Y-133885714D01*
X90107142Y-133742857D01*
X90035714Y-133457142D01*
X90035714Y-133100000D01*
X90107142Y-132814285D01*
X90178571Y-132671428D01*
X90250000Y-132600000D01*
X90392857Y-132528571D01*
X91821428Y-132528571D02*
X91964285Y-132528571D01*
X92107142Y-132600000D01*
X92178571Y-132671428D01*
X92250000Y-132814285D01*
X92321428Y-133100000D01*
X92321428Y-133457142D01*
X92250000Y-133742857D01*
X92178571Y-133885714D01*
X92107142Y-133957142D01*
X91964285Y-134028571D01*
X91821428Y-134028571D01*
X91678571Y-133957142D01*
X91607142Y-133885714D01*
X91535714Y-133742857D01*
X91464285Y-133457142D01*
X91464285Y-133100000D01*
X91535714Y-132814285D01*
X91607142Y-132671428D01*
X91678571Y-132600000D01*
X91821428Y-132528571D01*
X94107142Y-134028571D02*
X94107142Y-133028571D01*
X94107142Y-133171428D02*
X94178571Y-133100000D01*
X94321428Y-133028571D01*
X94535714Y-133028571D01*
X94678571Y-133100000D01*
X94750000Y-133242857D01*
X94750000Y-134028571D01*
X94750000Y-133242857D02*
X94821428Y-133100000D01*
X94964285Y-133028571D01*
X95178571Y-133028571D01*
X95321428Y-133100000D01*
X95392857Y-133242857D01*
X95392857Y-134028571D01*
X96107142Y-134028571D02*
X96107142Y-133028571D01*
X96107142Y-133171428D02*
X96178571Y-133100000D01*
X96321428Y-133028571D01*
X96535714Y-133028571D01*
X96678571Y-133100000D01*
X96750000Y-133242857D01*
X96750000Y-134028571D01*
X96750000Y-133242857D02*
X96821428Y-133100000D01*
X96964285Y-133028571D01*
X97178571Y-133028571D01*
X97321428Y-133100000D01*
X97392857Y-133242857D01*
X97392857Y-134028571D01*
X82500000Y-132000000D02*
X100000000Y-132000000D01*
X82500000Y-126000000D02*
X82500000Y-134700000D01*
X100000000Y-126000000D02*
X100000000Y-134700000D01*
X100000000Y-132000000D02*
X98873496Y-132586421D01*
X100000000Y-132000000D02*
X98873496Y-131413579D01*
X82500000Y-132000000D02*
X83626504Y-132586421D01*
X82500000Y-132000000D02*
X83626504Y-131413579D01*
D12*
X82500000Y-115000000D02*
X82500000Y-125500000D01*
D11*
X69971428Y-100642857D02*
X69971428Y-99785714D01*
X69971428Y-100214285D02*
X71471428Y-100214285D01*
X71257142Y-100071428D01*
X71114285Y-99928571D01*
X71042857Y-99785714D01*
X71328571Y-101214285D02*
X71400000Y-101285714D01*
X71471428Y-101428571D01*
X71471428Y-101785714D01*
X71400000Y-101928571D01*
X71328571Y-102000000D01*
X71185714Y-102071428D01*
X71042857Y-102071428D01*
X70828571Y-102000000D01*
X69971428Y-101142857D01*
X69971428Y-102071428D01*
X70042857Y-102785714D02*
X69971428Y-102785714D01*
X69828571Y-102714285D01*
X69757142Y-102642857D01*
X71471428Y-103714285D02*
X71471428Y-103857142D01*
X71400000Y-104000000D01*
X71328571Y-104071428D01*
X71185714Y-104142857D01*
X70900000Y-104214285D01*
X70542857Y-104214285D01*
X70257142Y-104142857D01*
X70114285Y-104071428D01*
X70042857Y-104000000D01*
X69971428Y-103857142D01*
X69971428Y-103714285D01*
X70042857Y-103571428D01*
X70114285Y-103500000D01*
X70257142Y-103428571D01*
X70542857Y-103357142D01*
X70900000Y-103357142D01*
X71185714Y-103428571D01*
X71328571Y-103500000D01*
X71400000Y-103571428D01*
X71471428Y-103714285D01*
X71471428Y-105142857D02*
X71471428Y-105285714D01*
X71400000Y-105428571D01*
X71328571Y-105500000D01*
X71185714Y-105571428D01*
X70900000Y-105642857D01*
X70542857Y-105642857D01*
X70257142Y-105571428D01*
X70114285Y-105500000D01*
X70042857Y-105428571D01*
X69971428Y-105285714D01*
X69971428Y-105142857D01*
X70042857Y-105000000D01*
X70114285Y-104928571D01*
X70257142Y-104857142D01*
X70542857Y-104785714D01*
X70900000Y-104785714D01*
X71185714Y-104857142D01*
X71328571Y-104928571D01*
X71400000Y-105000000D01*
X71471428Y-105142857D01*
X71471428Y-106571428D02*
X71471428Y-106714285D01*
X71400000Y-106857142D01*
X71328571Y-106928571D01*
X71185714Y-107000000D01*
X70900000Y-107071428D01*
X70542857Y-107071428D01*
X70257142Y-107000000D01*
X70114285Y-106928571D01*
X70042857Y-106857142D01*
X69971428Y-106714285D01*
X69971428Y-106571428D01*
X70042857Y-106428571D01*
X70114285Y-106357142D01*
X70257142Y-106285714D01*
X70542857Y-106214285D01*
X70900000Y-106214285D01*
X71185714Y-106285714D01*
X71328571Y-106357142D01*
X71400000Y-106428571D01*
X71471428Y-106571428D01*
X69971428Y-108857142D02*
X70971428Y-108857142D01*
X70828571Y-108857142D02*
X70900000Y-108928571D01*
X70971428Y-109071428D01*
X70971428Y-109285714D01*
X70900000Y-109428571D01*
X70757142Y-109500000D01*
X69971428Y-109500000D01*
X70757142Y-109500000D02*
X70900000Y-109571428D01*
X70971428Y-109714285D01*
X70971428Y-109928571D01*
X70900000Y-110071428D01*
X70757142Y-110142857D01*
X69971428Y-110142857D01*
X69971428Y-110857142D02*
X70971428Y-110857142D01*
X70828571Y-110857142D02*
X70900000Y-110928571D01*
X70971428Y-111071428D01*
X70971428Y-111285714D01*
X70900000Y-111428571D01*
X70757142Y-111500000D01*
X69971428Y-111500000D01*
X70757142Y-111500000D02*
X70900000Y-111571428D01*
X70971428Y-111714285D01*
X70971428Y-111928571D01*
X70900000Y-112071428D01*
X70757142Y-112142857D01*
X69971428Y-112142857D01*
X72000000Y-100000000D02*
X72000000Y-112000000D01*
X73405619Y-100000000D02*
X69300000Y-100000000D01*
X73405619Y-112000000D02*
X69300000Y-112000000D01*
X72000000Y-112000000D02*
X71413579Y-110873496D01*
X72000000Y-112000000D02*
X72586421Y-110873496D01*
X72000000Y-100000000D02*
X71413579Y-101126504D01*
X72000000Y-100000000D02*
X72586421Y-101126504D01*
D12*
X79500000Y-112000000D02*
X74500000Y-112000000D01*
X99000000Y-100000000D02*
X101000000Y-100000000D01*
X100000000Y-99000000D02*
X100000000Y-101000000D01*
X125500000Y-100000000D02*
X74500000Y-100000000D01*
X100000000Y-75000000D02*
X100000000Y-125000000D01*
M02*
