G04 #@! TF.GenerationSoftware,KiCad,Pcbnew,no-vcs-found*
G04 #@! TF.CreationDate,2016-12-03T15:59:49+01:00*
G04 #@! TF.ProjectId,motor_switch_3pole,6D6F746F725F7377697463685F33706F,2*
G04 #@! TF.FileFunction,Copper,L1,Top,Signal*
G04 #@! TF.FilePolarity,Positive*
%FSLAX46Y46*%
G04 Gerber Fmt 4.6, Leading zero omitted, Abs format (unit mm)*
G04 Created by KiCad (PCBNEW no-vcs-found) date Sat Dec  3 15:59:49 2016*
%MOMM*%
%LPD*%
G01*
G04 APERTURE LIST*
%ADD10C,0.100000*%
%ADD11C,0.150000*%
%ADD12C,2.000000*%
%ADD13C,3.000000*%
%ADD14R,1.600000X1.600000*%
%ADD15C,1.600000*%
%ADD16R,1.800000X1.800000*%
%ADD17C,1.800000*%
%ADD18C,2.700000*%
%ADD19O,1.200000X2.000000*%
%ADD20C,2.500000*%
%ADD21C,1.000000*%
%ADD22C,0.800000*%
%ADD23C,0.800000*%
%ADD24C,0.300000*%
%ADD25C,0.200000*%
G04 APERTURE END LIST*
D10*
D11*
X82442071Y-85051790D02*
X82442071Y-84747028D01*
X82175404Y-84937504D02*
X82861119Y-84937504D01*
X82937309Y-84899409D01*
X82975404Y-84823219D01*
X82975404Y-84747028D01*
X82975404Y-84366076D02*
X82937309Y-84442266D01*
X82899214Y-84480361D01*
X82823023Y-84518457D01*
X82594452Y-84518457D01*
X82518261Y-84480361D01*
X82480166Y-84442266D01*
X82442071Y-84366076D01*
X82442071Y-84251790D01*
X82480166Y-84175600D01*
X82518261Y-84137504D01*
X82594452Y-84099409D01*
X82823023Y-84099409D01*
X82899214Y-84137504D01*
X82937309Y-84175600D01*
X82975404Y-84251790D01*
X82975404Y-84366076D01*
X82442071Y-83756552D02*
X83242071Y-83756552D01*
X82480166Y-83756552D02*
X82442071Y-83680361D01*
X82442071Y-83527980D01*
X82480166Y-83451790D01*
X82518261Y-83413695D01*
X82594452Y-83375600D01*
X82823023Y-83375600D01*
X82899214Y-83413695D01*
X82937309Y-83451790D01*
X82975404Y-83527980D01*
X82975404Y-83680361D01*
X82937309Y-83756552D01*
D12*
X114985800Y-92075000D03*
X114985800Y-97790000D03*
X114985800Y-103505000D03*
X114985800Y-109220000D03*
X95885000Y-93472000D03*
X95885000Y-97222000D03*
D13*
X95885000Y-108472000D03*
X95885000Y-113472000D03*
X95885000Y-118472000D03*
D12*
X90424000Y-93472000D03*
X90424000Y-97222000D03*
D13*
X90424000Y-108472000D03*
X90424000Y-113472000D03*
X90424000Y-118472000D03*
D14*
X84963000Y-95377000D03*
D15*
X84963000Y-92837000D03*
X84963000Y-90297000D03*
X84963000Y-87757000D03*
D16*
X101981000Y-122047000D03*
D17*
X101981000Y-119507000D03*
X104521000Y-122047000D03*
X104521000Y-119507000D03*
X107061000Y-122047000D03*
X107061000Y-119507000D03*
D18*
X78486000Y-106934000D03*
X78486000Y-99934000D03*
X83986000Y-103434000D03*
D19*
X96139000Y-82042000D03*
X93599000Y-82042000D03*
X98679000Y-82042000D03*
X101219000Y-82042000D03*
X103759000Y-82042000D03*
X106299000Y-82042000D03*
X93599000Y-87122000D03*
X96139000Y-87122000D03*
X98679000Y-87122000D03*
X101219000Y-87122000D03*
X103759000Y-87122000D03*
X106299000Y-87122000D03*
D20*
X82500000Y-112000000D03*
X114000000Y-84000000D03*
D21*
X103949500Y-91313000D03*
X90932000Y-79248000D03*
X107802159Y-103605437D03*
X108268472Y-105773160D03*
X110363000Y-97790000D03*
X111000000Y-119500000D03*
X105000000Y-116500000D03*
X105000000Y-111500000D03*
X105000000Y-114000000D03*
X103500000Y-106000000D03*
X118681500Y-114744500D03*
X123063000Y-96647000D03*
X113252801Y-116481906D03*
X113538000Y-95948500D03*
X109500000Y-116500000D03*
D22*
X107061000Y-101473000D03*
X110299500Y-99631500D03*
D21*
X119189500Y-91376500D03*
D22*
X100390312Y-111461748D03*
X100463032Y-113685979D03*
X118935500Y-95631000D03*
X110000000Y-112000000D03*
X105000000Y-110000000D03*
X104648000Y-101092000D03*
X94996000Y-77851000D03*
X103728844Y-101485924D03*
X100076000Y-77851000D03*
X102966847Y-102133523D03*
X105156000Y-77978000D03*
D23*
X103949500Y-91313000D02*
X101794000Y-91313000D01*
X101794000Y-91313000D02*
X95885000Y-97222000D01*
X90424000Y-97222000D02*
X95885000Y-97222000D01*
X84963000Y-92837000D02*
X86039000Y-92837000D01*
X86039000Y-92837000D02*
X90424000Y-97222000D01*
X123063000Y-96647000D02*
X123063000Y-97354106D01*
X123063000Y-97354106D02*
X123253500Y-97544606D01*
X123253500Y-97544606D02*
X123253500Y-106784146D01*
X123253500Y-106784146D02*
X120430218Y-109607428D01*
X120430218Y-109607428D02*
X120430218Y-112995782D01*
X120430218Y-112995782D02*
X118681500Y-114744500D01*
D24*
X113234707Y-116500000D02*
X113252801Y-116481906D01*
X109500000Y-116500000D02*
X113234707Y-116500000D01*
D23*
X114985800Y-92075000D02*
X114985800Y-94500700D01*
X114985800Y-94500700D02*
X113538000Y-95948500D01*
X114985800Y-92075000D02*
X110852000Y-92075000D01*
X106299000Y-87522000D02*
X106299000Y-87122000D01*
X110852000Y-92075000D02*
X106299000Y-87522000D01*
D24*
X109500000Y-116500000D02*
X109500000Y-118500000D01*
X109500000Y-118500000D02*
X108493000Y-119507000D01*
X108493000Y-119507000D02*
X107061000Y-119507000D01*
X107061000Y-122047000D02*
X110539221Y-122047000D01*
X110539221Y-122047000D02*
X114990759Y-117595462D01*
X110299500Y-110237998D02*
X110299500Y-99631500D01*
X114990759Y-117595462D02*
X114990759Y-114929257D01*
X114990759Y-114929257D02*
X110299500Y-110237998D01*
X107061000Y-101473000D02*
X108902500Y-99631500D01*
X108902500Y-99631500D02*
X110299500Y-99631500D01*
D23*
X119935501Y-92122501D02*
X119189500Y-91376500D01*
X119935501Y-104270299D02*
X119935501Y-92122501D01*
X114985800Y-109220000D02*
X119935501Y-104270299D01*
D24*
X100463032Y-111534468D02*
X100390312Y-111461748D01*
X100463032Y-113685979D02*
X100463032Y-111534468D01*
X118935500Y-95631000D02*
X118935500Y-99555300D01*
X118935500Y-99555300D02*
X114985800Y-103505000D01*
X107000000Y-112000000D02*
X110000000Y-112000000D01*
X105000000Y-110000000D02*
X107000000Y-112000000D01*
X94996000Y-77851000D02*
X94869000Y-77978000D01*
X94869000Y-77978000D02*
X94869000Y-88138000D01*
X104955405Y-90477405D02*
X104955405Y-100784595D01*
X104955405Y-100784595D02*
X104648000Y-101092000D01*
X94869000Y-88138000D02*
X95862882Y-89131882D01*
X95862882Y-89131882D02*
X103609882Y-89131882D01*
X103609882Y-89131882D02*
X104955405Y-90477405D01*
X100076000Y-88265000D02*
X100383010Y-88572010D01*
X104964081Y-101885923D02*
X104128843Y-101885923D01*
X104128843Y-101885923D02*
X103728844Y-101485924D01*
X105455416Y-101394588D02*
X104964081Y-101885923D01*
X100383010Y-88572010D02*
X103757132Y-88572010D01*
X100076000Y-77851000D02*
X100076000Y-88265000D01*
X103757132Y-88572010D02*
X105455416Y-90270294D01*
X105455416Y-90270294D02*
X105455416Y-101394588D01*
X103366846Y-102533522D02*
X102966847Y-102133523D01*
X105023604Y-102533522D02*
X103366846Y-102533522D01*
X105955426Y-101601700D02*
X105023604Y-102533522D01*
X105156000Y-89263756D02*
X105955426Y-90063184D01*
X105955426Y-90063184D02*
X105955426Y-101601700D01*
X105156000Y-77978000D02*
X105156000Y-89263756D01*
D25*
G36*
X109414012Y-77272564D02*
X117394827Y-82605173D01*
X122727436Y-90585988D01*
X123886953Y-96415272D01*
X123784015Y-96166143D01*
X123545115Y-95926826D01*
X123232817Y-95797148D01*
X122894666Y-95796853D01*
X122582143Y-95925985D01*
X122342826Y-96164885D01*
X122213148Y-96477183D01*
X122212853Y-96815334D01*
X122313000Y-97057708D01*
X122313000Y-97354106D01*
X122370090Y-97641119D01*
X122503500Y-97840780D01*
X122503500Y-106473486D01*
X119899888Y-109077098D01*
X119737308Y-109320415D01*
X119680218Y-109607428D01*
X119680218Y-112685122D01*
X118441287Y-113924053D01*
X118200643Y-114023485D01*
X117961326Y-114262385D01*
X117831648Y-114574683D01*
X117831353Y-114912834D01*
X117960485Y-115225357D01*
X118199385Y-115464674D01*
X118511683Y-115594352D01*
X118597815Y-115594427D01*
X117394827Y-117394827D01*
X112885395Y-120407933D01*
X115344312Y-117949016D01*
X115452699Y-117786804D01*
X115490759Y-117595462D01*
X115490759Y-114929257D01*
X115452699Y-114737915D01*
X115344312Y-114575704D01*
X110799500Y-110030892D01*
X110799500Y-103772353D01*
X113635566Y-103772353D01*
X113840658Y-104268715D01*
X114220088Y-104648807D01*
X114716090Y-104854765D01*
X115253153Y-104855234D01*
X115749515Y-104650142D01*
X116129607Y-104270712D01*
X116335565Y-103774710D01*
X116336034Y-103237647D01*
X116226165Y-102971742D01*
X119185501Y-100012406D01*
X119185501Y-103959639D01*
X115269214Y-107875926D01*
X115255510Y-107870235D01*
X114718447Y-107869766D01*
X114222085Y-108074858D01*
X113841993Y-108454288D01*
X113636035Y-108950290D01*
X113635566Y-109487353D01*
X113840658Y-109983715D01*
X114220088Y-110363807D01*
X114716090Y-110569765D01*
X115253153Y-110570234D01*
X115749515Y-110365142D01*
X116129607Y-109985712D01*
X116335565Y-109489710D01*
X116336034Y-108952647D01*
X116329537Y-108936923D01*
X120465831Y-104800629D01*
X120628411Y-104557312D01*
X120685501Y-104270299D01*
X120685501Y-92122501D01*
X120628411Y-91835488D01*
X120465831Y-91592171D01*
X120009947Y-91136287D01*
X119910515Y-90895643D01*
X119671615Y-90656326D01*
X119359317Y-90526648D01*
X119021166Y-90526353D01*
X118708643Y-90655485D01*
X118469326Y-90894385D01*
X118339648Y-91206683D01*
X118339353Y-91544834D01*
X118468485Y-91857357D01*
X118707385Y-92096674D01*
X118949584Y-92197244D01*
X119185501Y-92433161D01*
X119185501Y-94922722D01*
X119085339Y-94881131D01*
X118786970Y-94880870D01*
X118511214Y-94994811D01*
X118300052Y-95205605D01*
X118185631Y-95481161D01*
X118185370Y-95779530D01*
X118299311Y-96055286D01*
X118435500Y-96191713D01*
X118435500Y-99348193D01*
X115519034Y-102264660D01*
X115255510Y-102155235D01*
X114718447Y-102154766D01*
X114222085Y-102359858D01*
X113841993Y-102739288D01*
X113636035Y-103235290D01*
X113635566Y-103772353D01*
X110799500Y-103772353D01*
X110799500Y-100192107D01*
X110934948Y-100056895D01*
X111049369Y-99781339D01*
X111049630Y-99482970D01*
X110935689Y-99207214D01*
X110724895Y-98996052D01*
X110449339Y-98881631D01*
X110150970Y-98881370D01*
X109875214Y-98995311D01*
X109738787Y-99131500D01*
X108902500Y-99131500D01*
X108711158Y-99169560D01*
X108548946Y-99277947D01*
X107103856Y-100723037D01*
X106912470Y-100722870D01*
X106636714Y-100836811D01*
X106455426Y-101017783D01*
X106455426Y-98057353D01*
X113635566Y-98057353D01*
X113840658Y-98553715D01*
X114220088Y-98933807D01*
X114716090Y-99139765D01*
X115253153Y-99140234D01*
X115749515Y-98935142D01*
X116129607Y-98555712D01*
X116335565Y-98059710D01*
X116336034Y-97522647D01*
X116130942Y-97026285D01*
X115751512Y-96646193D01*
X115255510Y-96440235D01*
X114718447Y-96439766D01*
X114222085Y-96644858D01*
X113841993Y-97024288D01*
X113636035Y-97520290D01*
X113635566Y-98057353D01*
X106455426Y-98057353D01*
X106455426Y-90063184D01*
X106426297Y-89916740D01*
X106417367Y-89871843D01*
X106308980Y-89709631D01*
X105656000Y-89056649D01*
X105656000Y-88239410D01*
X105935451Y-88426134D01*
X106193878Y-88477538D01*
X110321670Y-92605330D01*
X110564987Y-92767910D01*
X110852000Y-92825000D01*
X113834991Y-92825000D01*
X113840658Y-92838715D01*
X114220088Y-93218807D01*
X114235800Y-93225331D01*
X114235800Y-94190040D01*
X113297787Y-95128053D01*
X113057143Y-95227485D01*
X112817826Y-95466385D01*
X112688148Y-95778683D01*
X112687853Y-96116834D01*
X112816985Y-96429357D01*
X113055885Y-96668674D01*
X113368183Y-96798352D01*
X113706334Y-96798647D01*
X114018857Y-96669515D01*
X114258174Y-96430615D01*
X114358744Y-96188416D01*
X115516130Y-95031030D01*
X115678710Y-94787713D01*
X115735800Y-94500700D01*
X115735800Y-93225809D01*
X115749515Y-93220142D01*
X116129607Y-92840712D01*
X116335565Y-92344710D01*
X116336034Y-91807647D01*
X116130942Y-91311285D01*
X115751512Y-90931193D01*
X115255510Y-90725235D01*
X114718447Y-90724766D01*
X114222085Y-90929858D01*
X113841993Y-91309288D01*
X113835469Y-91325000D01*
X111162660Y-91325000D01*
X107249000Y-87411340D01*
X107249000Y-86695552D01*
X107176686Y-86332003D01*
X106970751Y-86023801D01*
X106662549Y-85817866D01*
X106299000Y-85745552D01*
X105935451Y-85817866D01*
X105656000Y-86004590D01*
X105656000Y-84316863D01*
X112399723Y-84316863D01*
X112642795Y-84905143D01*
X113092489Y-85355623D01*
X113680344Y-85599722D01*
X114316863Y-85600277D01*
X114905143Y-85357205D01*
X115355623Y-84907511D01*
X115599722Y-84319656D01*
X115600277Y-83683137D01*
X115357205Y-83094857D01*
X114907511Y-82644377D01*
X114319656Y-82400278D01*
X113683137Y-82399723D01*
X113094857Y-82642795D01*
X112644377Y-83092489D01*
X112400278Y-83680344D01*
X112399723Y-84316863D01*
X105656000Y-84316863D01*
X105656000Y-83159410D01*
X105935451Y-83346134D01*
X106299000Y-83418448D01*
X106662549Y-83346134D01*
X106970751Y-83140199D01*
X107176686Y-82831997D01*
X107249000Y-82468448D01*
X107249000Y-81615552D01*
X107176686Y-81252003D01*
X106970751Y-80943801D01*
X106662549Y-80737866D01*
X106299000Y-80665552D01*
X105935451Y-80737866D01*
X105656000Y-80924590D01*
X105656000Y-78538607D01*
X105791448Y-78403395D01*
X105905869Y-78127839D01*
X105906130Y-77829470D01*
X105792189Y-77553714D01*
X105581395Y-77342552D01*
X105305839Y-77228131D01*
X105007470Y-77227870D01*
X104731714Y-77341811D01*
X104520552Y-77552605D01*
X104406131Y-77828161D01*
X104405870Y-78126530D01*
X104519811Y-78402286D01*
X104656000Y-78538713D01*
X104656000Y-81349102D01*
X104636686Y-81252003D01*
X104430751Y-80943801D01*
X104122549Y-80737866D01*
X103759000Y-80665552D01*
X103395451Y-80737866D01*
X103087249Y-80943801D01*
X102881314Y-81252003D01*
X102809000Y-81615552D01*
X102809000Y-82468448D01*
X102881314Y-82831997D01*
X103087249Y-83140199D01*
X103395451Y-83346134D01*
X103759000Y-83418448D01*
X104122549Y-83346134D01*
X104430751Y-83140199D01*
X104636686Y-82831997D01*
X104656000Y-82734898D01*
X104656000Y-86429102D01*
X104636686Y-86332003D01*
X104430751Y-86023801D01*
X104122549Y-85817866D01*
X103759000Y-85745552D01*
X103395451Y-85817866D01*
X103087249Y-86023801D01*
X102881314Y-86332003D01*
X102809000Y-86695552D01*
X102809000Y-87548448D01*
X102881314Y-87911997D01*
X102988232Y-88072010D01*
X101989768Y-88072010D01*
X102096686Y-87911997D01*
X102169000Y-87548448D01*
X102169000Y-86695552D01*
X102096686Y-86332003D01*
X101890751Y-86023801D01*
X101582549Y-85817866D01*
X101219000Y-85745552D01*
X100855451Y-85817866D01*
X100576000Y-86004590D01*
X100576000Y-83159410D01*
X100855451Y-83346134D01*
X101219000Y-83418448D01*
X101582549Y-83346134D01*
X101890751Y-83140199D01*
X102096686Y-82831997D01*
X102169000Y-82468448D01*
X102169000Y-81615552D01*
X102096686Y-81252003D01*
X101890751Y-80943801D01*
X101582549Y-80737866D01*
X101219000Y-80665552D01*
X100855451Y-80737866D01*
X100576000Y-80924590D01*
X100576000Y-78411607D01*
X100711448Y-78276395D01*
X100825869Y-78000839D01*
X100826130Y-77702470D01*
X100712189Y-77426714D01*
X100501395Y-77215552D01*
X100225839Y-77101131D01*
X99927470Y-77100870D01*
X99651714Y-77214811D01*
X99440552Y-77425605D01*
X99326131Y-77701161D01*
X99325870Y-77999530D01*
X99439811Y-78275286D01*
X99576000Y-78411713D01*
X99576000Y-81349102D01*
X99556686Y-81252003D01*
X99350751Y-80943801D01*
X99042549Y-80737866D01*
X98679000Y-80665552D01*
X98315451Y-80737866D01*
X98007249Y-80943801D01*
X97801314Y-81252003D01*
X97729000Y-81615552D01*
X97729000Y-82468448D01*
X97801314Y-82831997D01*
X98007249Y-83140199D01*
X98315451Y-83346134D01*
X98679000Y-83418448D01*
X99042549Y-83346134D01*
X99350751Y-83140199D01*
X99556686Y-82831997D01*
X99576000Y-82734898D01*
X99576000Y-86429102D01*
X99556686Y-86332003D01*
X99350751Y-86023801D01*
X99042549Y-85817866D01*
X98679000Y-85745552D01*
X98315451Y-85817866D01*
X98007249Y-86023801D01*
X97801314Y-86332003D01*
X97729000Y-86695552D01*
X97729000Y-87548448D01*
X97801314Y-87911997D01*
X98007249Y-88220199D01*
X98315451Y-88426134D01*
X98679000Y-88498448D01*
X99042549Y-88426134D01*
X99350751Y-88220199D01*
X99556686Y-87911997D01*
X99576000Y-87814898D01*
X99576000Y-88265000D01*
X99614060Y-88456342D01*
X99722447Y-88618553D01*
X99735776Y-88631882D01*
X96069989Y-88631882D01*
X95886287Y-88448181D01*
X96139000Y-88498448D01*
X96502549Y-88426134D01*
X96810751Y-88220199D01*
X97016686Y-87911997D01*
X97089000Y-87548448D01*
X97089000Y-86695552D01*
X97016686Y-86332003D01*
X96810751Y-86023801D01*
X96502549Y-85817866D01*
X96139000Y-85745552D01*
X95775451Y-85817866D01*
X95467249Y-86023801D01*
X95369000Y-86170840D01*
X95369000Y-82993160D01*
X95467249Y-83140199D01*
X95775451Y-83346134D01*
X96139000Y-83418448D01*
X96502549Y-83346134D01*
X96810751Y-83140199D01*
X97016686Y-82831997D01*
X97089000Y-82468448D01*
X97089000Y-81615552D01*
X97016686Y-81252003D01*
X96810751Y-80943801D01*
X96502549Y-80737866D01*
X96139000Y-80665552D01*
X95775451Y-80737866D01*
X95467249Y-80943801D01*
X95369000Y-81090840D01*
X95369000Y-78508380D01*
X95420286Y-78487189D01*
X95631448Y-78276395D01*
X95745869Y-78000839D01*
X95746130Y-77702470D01*
X95632189Y-77426714D01*
X95421395Y-77215552D01*
X95145839Y-77101131D01*
X94847470Y-77100870D01*
X94571714Y-77214811D01*
X94360552Y-77425605D01*
X94246131Y-77701161D01*
X94245870Y-77999530D01*
X94359811Y-78275286D01*
X94369000Y-78284491D01*
X94369000Y-81090840D01*
X94270751Y-80943801D01*
X93962549Y-80737866D01*
X93599000Y-80665552D01*
X93235451Y-80737866D01*
X92927249Y-80943801D01*
X92721314Y-81252003D01*
X92649000Y-81615552D01*
X92649000Y-82468448D01*
X92721314Y-82831997D01*
X92927249Y-83140199D01*
X93235451Y-83346134D01*
X93599000Y-83418448D01*
X93962549Y-83346134D01*
X94270751Y-83140199D01*
X94369000Y-82993160D01*
X94369000Y-86170840D01*
X94270751Y-86023801D01*
X93962549Y-85817866D01*
X93599000Y-85745552D01*
X93235451Y-85817866D01*
X92927249Y-86023801D01*
X92721314Y-86332003D01*
X92649000Y-86695552D01*
X92649000Y-87548448D01*
X92721314Y-87911997D01*
X92927249Y-88220199D01*
X93235451Y-88426134D01*
X93599000Y-88498448D01*
X93962549Y-88426134D01*
X94270751Y-88220199D01*
X94369000Y-88073160D01*
X94369000Y-88138000D01*
X94394262Y-88265000D01*
X94407060Y-88329342D01*
X94515447Y-88491553D01*
X95509328Y-89485435D01*
X95625687Y-89563184D01*
X95671540Y-89593822D01*
X95862882Y-89631882D01*
X103402776Y-89631882D01*
X104315508Y-90544614D01*
X104119317Y-90463148D01*
X103781166Y-90462853D01*
X103538792Y-90563000D01*
X101794000Y-90563000D01*
X101506987Y-90620090D01*
X101282193Y-90770293D01*
X101263670Y-90782670D01*
X96168414Y-95877926D01*
X96154710Y-95872235D01*
X95617647Y-95871766D01*
X95121285Y-96076858D01*
X94741193Y-96456288D01*
X94734669Y-96472000D01*
X91574809Y-96472000D01*
X91569142Y-96458285D01*
X91189712Y-96078193D01*
X90693710Y-95872235D01*
X90156647Y-95871766D01*
X90140923Y-95878263D01*
X88002013Y-93739353D01*
X89073766Y-93739353D01*
X89278858Y-94235715D01*
X89658288Y-94615807D01*
X90154290Y-94821765D01*
X90691353Y-94822234D01*
X91187715Y-94617142D01*
X91567807Y-94237712D01*
X91773765Y-93741710D01*
X91773767Y-93739353D01*
X94534766Y-93739353D01*
X94739858Y-94235715D01*
X95119288Y-94615807D01*
X95615290Y-94821765D01*
X96152353Y-94822234D01*
X96648715Y-94617142D01*
X97028807Y-94237712D01*
X97234765Y-93741710D01*
X97235234Y-93204647D01*
X97030142Y-92708285D01*
X96650712Y-92328193D01*
X96154710Y-92122235D01*
X95617647Y-92121766D01*
X95121285Y-92326858D01*
X94741193Y-92706288D01*
X94535235Y-93202290D01*
X94534766Y-93739353D01*
X91773767Y-93739353D01*
X91774234Y-93204647D01*
X91569142Y-92708285D01*
X91189712Y-92328193D01*
X90693710Y-92122235D01*
X90156647Y-92121766D01*
X89660285Y-92326858D01*
X89280193Y-92706288D01*
X89074235Y-93202290D01*
X89073766Y-93739353D01*
X88002013Y-93739353D01*
X86569330Y-92306670D01*
X86326013Y-92144090D01*
X86039000Y-92087000D01*
X85839236Y-92087000D01*
X85615273Y-91862646D01*
X85192753Y-91687200D01*
X84735254Y-91686801D01*
X84312428Y-91861509D01*
X83988646Y-92184727D01*
X83813200Y-92607247D01*
X83812801Y-93064746D01*
X83987509Y-93487572D01*
X84310727Y-93811354D01*
X84733247Y-93986800D01*
X85190746Y-93987199D01*
X85613572Y-93812491D01*
X85783850Y-93642510D01*
X89079926Y-96938586D01*
X89074235Y-96952290D01*
X89073766Y-97489353D01*
X89278858Y-97985715D01*
X89658288Y-98365807D01*
X90154290Y-98571765D01*
X90691353Y-98572234D01*
X91187715Y-98367142D01*
X91567807Y-97987712D01*
X91574331Y-97972000D01*
X94734191Y-97972000D01*
X94739858Y-97985715D01*
X95119288Y-98365807D01*
X95615290Y-98571765D01*
X96152353Y-98572234D01*
X96648715Y-98367142D01*
X97028807Y-97987712D01*
X97234765Y-97491710D01*
X97235234Y-96954647D01*
X97228737Y-96938923D01*
X102104660Y-92063000D01*
X103539214Y-92063000D01*
X103779683Y-92162852D01*
X104117834Y-92163147D01*
X104430357Y-92034015D01*
X104455405Y-92009011D01*
X104455405Y-100360077D01*
X104223714Y-100455811D01*
X104012552Y-100666605D01*
X103968267Y-100773254D01*
X103878683Y-100736055D01*
X103580314Y-100735794D01*
X103304558Y-100849735D01*
X103093396Y-101060529D01*
X102978975Y-101336085D01*
X102978933Y-101383534D01*
X102818317Y-101383393D01*
X102542561Y-101497334D01*
X102331399Y-101708128D01*
X102216978Y-101983684D01*
X102216717Y-102282053D01*
X102330658Y-102557809D01*
X102541452Y-102768971D01*
X102817008Y-102883392D01*
X103009779Y-102883561D01*
X103013293Y-102887075D01*
X103175504Y-102995462D01*
X103366846Y-103033522D01*
X105023604Y-103033522D01*
X105214946Y-102995462D01*
X105377157Y-102887075D01*
X106308979Y-101955254D01*
X106395351Y-101825989D01*
X106424811Y-101897286D01*
X106635605Y-102108448D01*
X106911161Y-102222869D01*
X107209530Y-102223130D01*
X107485286Y-102109189D01*
X107696448Y-101898395D01*
X107810869Y-101622839D01*
X107811038Y-101430069D01*
X109109607Y-100131500D01*
X109738893Y-100131500D01*
X109799500Y-100192213D01*
X109799500Y-110237998D01*
X109831669Y-110399723D01*
X109837560Y-110429340D01*
X109945947Y-110591551D01*
X114490759Y-115136363D01*
X114490759Y-117388355D01*
X110332115Y-121547000D01*
X108206906Y-121547000D01*
X108121316Y-121339857D01*
X107769993Y-120987919D01*
X107310731Y-120797217D01*
X106813450Y-120796783D01*
X106353857Y-120986684D01*
X106001919Y-121338007D01*
X105811217Y-121797269D01*
X105810783Y-122294550D01*
X106000684Y-122754143D01*
X106352007Y-123106081D01*
X106727203Y-123261876D01*
X101005468Y-124400000D01*
X100541422Y-124400000D01*
X100100000Y-123958578D01*
X100100000Y-121147000D01*
X100724144Y-121147000D01*
X100724144Y-122947000D01*
X100751308Y-123083563D01*
X100828665Y-123199335D01*
X100944437Y-123276692D01*
X101081000Y-123303856D01*
X102881000Y-123303856D01*
X103017563Y-123276692D01*
X103133335Y-123199335D01*
X103210692Y-123083563D01*
X103237856Y-122947000D01*
X103237856Y-122294550D01*
X103270783Y-122294550D01*
X103460684Y-122754143D01*
X103812007Y-123106081D01*
X104271269Y-123296783D01*
X104768550Y-123297217D01*
X105228143Y-123107316D01*
X105580081Y-122755993D01*
X105770783Y-122296731D01*
X105771217Y-121799450D01*
X105581316Y-121339857D01*
X105229993Y-120987919D01*
X104770731Y-120797217D01*
X104273450Y-120796783D01*
X103813857Y-120986684D01*
X103461919Y-121338007D01*
X103271217Y-121797269D01*
X103270783Y-122294550D01*
X103237856Y-122294550D01*
X103237856Y-121147000D01*
X103210692Y-121010437D01*
X103133335Y-120894665D01*
X103017563Y-120817308D01*
X102881000Y-120790144D01*
X102249163Y-120790144D01*
X102339048Y-120783193D01*
X102630226Y-120662584D01*
X102731773Y-120475562D01*
X101981000Y-119724789D01*
X101230227Y-120475562D01*
X101331774Y-120662584D01*
X101722553Y-120790144D01*
X101081000Y-120790144D01*
X100944437Y-120817308D01*
X100828665Y-120894665D01*
X100751308Y-121010437D01*
X100724144Y-121147000D01*
X100100000Y-121147000D01*
X100100000Y-119349416D01*
X100664932Y-119349416D01*
X100704807Y-119865048D01*
X100825416Y-120156226D01*
X101012438Y-120257773D01*
X101763211Y-119507000D01*
X102198789Y-119507000D01*
X102949562Y-120257773D01*
X103136584Y-120156226D01*
X103270791Y-119745083D01*
X103270783Y-119754550D01*
X103460684Y-120214143D01*
X103812007Y-120566081D01*
X104271269Y-120756783D01*
X104768550Y-120757217D01*
X105228143Y-120567316D01*
X105580081Y-120215993D01*
X105770783Y-119756731D01*
X105770784Y-119754550D01*
X105810783Y-119754550D01*
X106000684Y-120214143D01*
X106352007Y-120566081D01*
X106811269Y-120756783D01*
X107308550Y-120757217D01*
X107768143Y-120567316D01*
X108120081Y-120215993D01*
X108206862Y-120007000D01*
X108493000Y-120007000D01*
X108684342Y-119968940D01*
X108846553Y-119860553D01*
X109853553Y-118853553D01*
X109961940Y-118691342D01*
X110000000Y-118500000D01*
X110000000Y-117201905D01*
X110202258Y-117000000D01*
X112568958Y-117000000D01*
X112770686Y-117202080D01*
X113082984Y-117331758D01*
X113421135Y-117332053D01*
X113733658Y-117202921D01*
X113972975Y-116964021D01*
X114102653Y-116651723D01*
X114102948Y-116313572D01*
X113973816Y-116001049D01*
X113734916Y-115761732D01*
X113422618Y-115632054D01*
X113084467Y-115631759D01*
X112771944Y-115760891D01*
X112532627Y-115999791D01*
X112532540Y-116000000D01*
X110201905Y-116000000D01*
X109982115Y-115779826D01*
X109669817Y-115650148D01*
X109331666Y-115649853D01*
X109019143Y-115778985D01*
X108779826Y-116017885D01*
X108650148Y-116330183D01*
X108649853Y-116668334D01*
X108778985Y-116980857D01*
X109000000Y-117202258D01*
X109000000Y-118292894D01*
X108285894Y-119007000D01*
X108206906Y-119007000D01*
X108121316Y-118799857D01*
X107769993Y-118447919D01*
X107310731Y-118257217D01*
X106813450Y-118256783D01*
X106353857Y-118446684D01*
X106001919Y-118798007D01*
X105811217Y-119257269D01*
X105810783Y-119754550D01*
X105770784Y-119754550D01*
X105771217Y-119259450D01*
X105581316Y-118799857D01*
X105229993Y-118447919D01*
X104770731Y-118257217D01*
X104273450Y-118256783D01*
X103813857Y-118446684D01*
X103461919Y-118798007D01*
X103271217Y-119257269D01*
X103271154Y-119329484D01*
X103257193Y-119148952D01*
X103136584Y-118857774D01*
X102949562Y-118756227D01*
X102198789Y-119507000D01*
X101763211Y-119507000D01*
X101012438Y-118756227D01*
X100825416Y-118857774D01*
X100664932Y-119349416D01*
X100100000Y-119349416D01*
X100100000Y-118538438D01*
X101230227Y-118538438D01*
X101981000Y-119289211D01*
X102731773Y-118538438D01*
X102630226Y-118351416D01*
X102138584Y-118190932D01*
X101622952Y-118230807D01*
X101331774Y-118351416D01*
X101230227Y-118538438D01*
X100100000Y-118538438D01*
X100100000Y-114347322D01*
X100313193Y-114435848D01*
X100611562Y-114436109D01*
X100887318Y-114322168D01*
X101098480Y-114111374D01*
X101212901Y-113835818D01*
X101213162Y-113537449D01*
X101099221Y-113261693D01*
X100963032Y-113125266D01*
X100963032Y-111949762D01*
X101025760Y-111887143D01*
X101140181Y-111611587D01*
X101140442Y-111313218D01*
X101026501Y-111037462D01*
X100815707Y-110826300D01*
X100540151Y-110711879D01*
X100241782Y-110711618D01*
X100100000Y-110770202D01*
X100100000Y-110148530D01*
X104249870Y-110148530D01*
X104363811Y-110424286D01*
X104574605Y-110635448D01*
X104850161Y-110749869D01*
X105042932Y-110750038D01*
X106646447Y-112353553D01*
X106808658Y-112461940D01*
X107000000Y-112500000D01*
X109439393Y-112500000D01*
X109574605Y-112635448D01*
X109850161Y-112749869D01*
X110148530Y-112750130D01*
X110424286Y-112636189D01*
X110635448Y-112425395D01*
X110749869Y-112149839D01*
X110750130Y-111851470D01*
X110636189Y-111575714D01*
X110425395Y-111364552D01*
X110149839Y-111250131D01*
X109851470Y-111249870D01*
X109575714Y-111363811D01*
X109439287Y-111500000D01*
X107207106Y-111500000D01*
X105749963Y-110042857D01*
X105750130Y-109851470D01*
X105636189Y-109575714D01*
X105425395Y-109364552D01*
X105149839Y-109250131D01*
X104851470Y-109249870D01*
X104575714Y-109363811D01*
X104364552Y-109574605D01*
X104250131Y-109850161D01*
X104249870Y-110148530D01*
X100100000Y-110148530D01*
X100100000Y-102500000D01*
X100092388Y-102461732D01*
X100070711Y-102429289D01*
X99570711Y-101929289D01*
X99538268Y-101907612D01*
X99500000Y-101900000D01*
X95041422Y-101900000D01*
X93070711Y-99929289D01*
X93038268Y-99907612D01*
X93000000Y-99900000D01*
X90541422Y-99900000D01*
X88070711Y-97429289D01*
X88038268Y-97407612D01*
X88000000Y-97400000D01*
X76041422Y-97400000D01*
X75937787Y-97296365D01*
X76478702Y-94577000D01*
X83806144Y-94577000D01*
X83806144Y-96177000D01*
X83833308Y-96313563D01*
X83910665Y-96429335D01*
X84026437Y-96506692D01*
X84163000Y-96533856D01*
X85763000Y-96533856D01*
X85899563Y-96506692D01*
X86015335Y-96429335D01*
X86092692Y-96313563D01*
X86119856Y-96177000D01*
X86119856Y-94577000D01*
X86092692Y-94440437D01*
X86015335Y-94324665D01*
X85899563Y-94247308D01*
X85763000Y-94220144D01*
X84163000Y-94220144D01*
X84026437Y-94247308D01*
X83910665Y-94324665D01*
X83833308Y-94440437D01*
X83806144Y-94577000D01*
X76478702Y-94577000D01*
X77272564Y-90585988D01*
X77313484Y-90524746D01*
X83812801Y-90524746D01*
X83987509Y-90947572D01*
X84310727Y-91271354D01*
X84733247Y-91446800D01*
X85190746Y-91447199D01*
X85613572Y-91272491D01*
X85937354Y-90949273D01*
X86112800Y-90526753D01*
X86113199Y-90069254D01*
X85938491Y-89646428D01*
X85615273Y-89322646D01*
X85192753Y-89147200D01*
X84735254Y-89146801D01*
X84312428Y-89321509D01*
X83988646Y-89644727D01*
X83813200Y-90067247D01*
X83812801Y-90524746D01*
X77313484Y-90524746D01*
X78564253Y-88652837D01*
X84284952Y-88652837D01*
X84374148Y-88829487D01*
X84829394Y-88973192D01*
X85304981Y-88931743D01*
X85551852Y-88829487D01*
X85641048Y-88652837D01*
X84963000Y-87974789D01*
X84284952Y-88652837D01*
X78564253Y-88652837D01*
X79252105Y-87623394D01*
X83746808Y-87623394D01*
X83788257Y-88098981D01*
X83890513Y-88345852D01*
X84067163Y-88435048D01*
X84745211Y-87757000D01*
X85180789Y-87757000D01*
X85858837Y-88435048D01*
X86035487Y-88345852D01*
X86179192Y-87890606D01*
X86137743Y-87415019D01*
X86035487Y-87168148D01*
X85858837Y-87078952D01*
X85180789Y-87757000D01*
X84745211Y-87757000D01*
X84067163Y-87078952D01*
X83890513Y-87168148D01*
X83746808Y-87623394D01*
X79252105Y-87623394D01*
X79761411Y-86861163D01*
X84284952Y-86861163D01*
X84963000Y-87539211D01*
X85641048Y-86861163D01*
X85551852Y-86684513D01*
X85096606Y-86540808D01*
X84621019Y-86582257D01*
X84374148Y-86684513D01*
X84284952Y-86861163D01*
X79761411Y-86861163D01*
X81650000Y-84034691D01*
X81650000Y-85552981D01*
X83700000Y-85552981D01*
X83700000Y-82798219D01*
X82476184Y-82798219D01*
X82605173Y-82605173D01*
X90585988Y-77272564D01*
X98994532Y-75600000D01*
X101005468Y-75600000D01*
X109414012Y-77272564D01*
X109414012Y-77272564D01*
G37*
X109414012Y-77272564D02*
X117394827Y-82605173D01*
X122727436Y-90585988D01*
X123886953Y-96415272D01*
X123784015Y-96166143D01*
X123545115Y-95926826D01*
X123232817Y-95797148D01*
X122894666Y-95796853D01*
X122582143Y-95925985D01*
X122342826Y-96164885D01*
X122213148Y-96477183D01*
X122212853Y-96815334D01*
X122313000Y-97057708D01*
X122313000Y-97354106D01*
X122370090Y-97641119D01*
X122503500Y-97840780D01*
X122503500Y-106473486D01*
X119899888Y-109077098D01*
X119737308Y-109320415D01*
X119680218Y-109607428D01*
X119680218Y-112685122D01*
X118441287Y-113924053D01*
X118200643Y-114023485D01*
X117961326Y-114262385D01*
X117831648Y-114574683D01*
X117831353Y-114912834D01*
X117960485Y-115225357D01*
X118199385Y-115464674D01*
X118511683Y-115594352D01*
X118597815Y-115594427D01*
X117394827Y-117394827D01*
X112885395Y-120407933D01*
X115344312Y-117949016D01*
X115452699Y-117786804D01*
X115490759Y-117595462D01*
X115490759Y-114929257D01*
X115452699Y-114737915D01*
X115344312Y-114575704D01*
X110799500Y-110030892D01*
X110799500Y-103772353D01*
X113635566Y-103772353D01*
X113840658Y-104268715D01*
X114220088Y-104648807D01*
X114716090Y-104854765D01*
X115253153Y-104855234D01*
X115749515Y-104650142D01*
X116129607Y-104270712D01*
X116335565Y-103774710D01*
X116336034Y-103237647D01*
X116226165Y-102971742D01*
X119185501Y-100012406D01*
X119185501Y-103959639D01*
X115269214Y-107875926D01*
X115255510Y-107870235D01*
X114718447Y-107869766D01*
X114222085Y-108074858D01*
X113841993Y-108454288D01*
X113636035Y-108950290D01*
X113635566Y-109487353D01*
X113840658Y-109983715D01*
X114220088Y-110363807D01*
X114716090Y-110569765D01*
X115253153Y-110570234D01*
X115749515Y-110365142D01*
X116129607Y-109985712D01*
X116335565Y-109489710D01*
X116336034Y-108952647D01*
X116329537Y-108936923D01*
X120465831Y-104800629D01*
X120628411Y-104557312D01*
X120685501Y-104270299D01*
X120685501Y-92122501D01*
X120628411Y-91835488D01*
X120465831Y-91592171D01*
X120009947Y-91136287D01*
X119910515Y-90895643D01*
X119671615Y-90656326D01*
X119359317Y-90526648D01*
X119021166Y-90526353D01*
X118708643Y-90655485D01*
X118469326Y-90894385D01*
X118339648Y-91206683D01*
X118339353Y-91544834D01*
X118468485Y-91857357D01*
X118707385Y-92096674D01*
X118949584Y-92197244D01*
X119185501Y-92433161D01*
X119185501Y-94922722D01*
X119085339Y-94881131D01*
X118786970Y-94880870D01*
X118511214Y-94994811D01*
X118300052Y-95205605D01*
X118185631Y-95481161D01*
X118185370Y-95779530D01*
X118299311Y-96055286D01*
X118435500Y-96191713D01*
X118435500Y-99348193D01*
X115519034Y-102264660D01*
X115255510Y-102155235D01*
X114718447Y-102154766D01*
X114222085Y-102359858D01*
X113841993Y-102739288D01*
X113636035Y-103235290D01*
X113635566Y-103772353D01*
X110799500Y-103772353D01*
X110799500Y-100192107D01*
X110934948Y-100056895D01*
X111049369Y-99781339D01*
X111049630Y-99482970D01*
X110935689Y-99207214D01*
X110724895Y-98996052D01*
X110449339Y-98881631D01*
X110150970Y-98881370D01*
X109875214Y-98995311D01*
X109738787Y-99131500D01*
X108902500Y-99131500D01*
X108711158Y-99169560D01*
X108548946Y-99277947D01*
X107103856Y-100723037D01*
X106912470Y-100722870D01*
X106636714Y-100836811D01*
X106455426Y-101017783D01*
X106455426Y-98057353D01*
X113635566Y-98057353D01*
X113840658Y-98553715D01*
X114220088Y-98933807D01*
X114716090Y-99139765D01*
X115253153Y-99140234D01*
X115749515Y-98935142D01*
X116129607Y-98555712D01*
X116335565Y-98059710D01*
X116336034Y-97522647D01*
X116130942Y-97026285D01*
X115751512Y-96646193D01*
X115255510Y-96440235D01*
X114718447Y-96439766D01*
X114222085Y-96644858D01*
X113841993Y-97024288D01*
X113636035Y-97520290D01*
X113635566Y-98057353D01*
X106455426Y-98057353D01*
X106455426Y-90063184D01*
X106426297Y-89916740D01*
X106417367Y-89871843D01*
X106308980Y-89709631D01*
X105656000Y-89056649D01*
X105656000Y-88239410D01*
X105935451Y-88426134D01*
X106193878Y-88477538D01*
X110321670Y-92605330D01*
X110564987Y-92767910D01*
X110852000Y-92825000D01*
X113834991Y-92825000D01*
X113840658Y-92838715D01*
X114220088Y-93218807D01*
X114235800Y-93225331D01*
X114235800Y-94190040D01*
X113297787Y-95128053D01*
X113057143Y-95227485D01*
X112817826Y-95466385D01*
X112688148Y-95778683D01*
X112687853Y-96116834D01*
X112816985Y-96429357D01*
X113055885Y-96668674D01*
X113368183Y-96798352D01*
X113706334Y-96798647D01*
X114018857Y-96669515D01*
X114258174Y-96430615D01*
X114358744Y-96188416D01*
X115516130Y-95031030D01*
X115678710Y-94787713D01*
X115735800Y-94500700D01*
X115735800Y-93225809D01*
X115749515Y-93220142D01*
X116129607Y-92840712D01*
X116335565Y-92344710D01*
X116336034Y-91807647D01*
X116130942Y-91311285D01*
X115751512Y-90931193D01*
X115255510Y-90725235D01*
X114718447Y-90724766D01*
X114222085Y-90929858D01*
X113841993Y-91309288D01*
X113835469Y-91325000D01*
X111162660Y-91325000D01*
X107249000Y-87411340D01*
X107249000Y-86695552D01*
X107176686Y-86332003D01*
X106970751Y-86023801D01*
X106662549Y-85817866D01*
X106299000Y-85745552D01*
X105935451Y-85817866D01*
X105656000Y-86004590D01*
X105656000Y-84316863D01*
X112399723Y-84316863D01*
X112642795Y-84905143D01*
X113092489Y-85355623D01*
X113680344Y-85599722D01*
X114316863Y-85600277D01*
X114905143Y-85357205D01*
X115355623Y-84907511D01*
X115599722Y-84319656D01*
X115600277Y-83683137D01*
X115357205Y-83094857D01*
X114907511Y-82644377D01*
X114319656Y-82400278D01*
X113683137Y-82399723D01*
X113094857Y-82642795D01*
X112644377Y-83092489D01*
X112400278Y-83680344D01*
X112399723Y-84316863D01*
X105656000Y-84316863D01*
X105656000Y-83159410D01*
X105935451Y-83346134D01*
X106299000Y-83418448D01*
X106662549Y-83346134D01*
X106970751Y-83140199D01*
X107176686Y-82831997D01*
X107249000Y-82468448D01*
X107249000Y-81615552D01*
X107176686Y-81252003D01*
X106970751Y-80943801D01*
X106662549Y-80737866D01*
X106299000Y-80665552D01*
X105935451Y-80737866D01*
X105656000Y-80924590D01*
X105656000Y-78538607D01*
X105791448Y-78403395D01*
X105905869Y-78127839D01*
X105906130Y-77829470D01*
X105792189Y-77553714D01*
X105581395Y-77342552D01*
X105305839Y-77228131D01*
X105007470Y-77227870D01*
X104731714Y-77341811D01*
X104520552Y-77552605D01*
X104406131Y-77828161D01*
X104405870Y-78126530D01*
X104519811Y-78402286D01*
X104656000Y-78538713D01*
X104656000Y-81349102D01*
X104636686Y-81252003D01*
X104430751Y-80943801D01*
X104122549Y-80737866D01*
X103759000Y-80665552D01*
X103395451Y-80737866D01*
X103087249Y-80943801D01*
X102881314Y-81252003D01*
X102809000Y-81615552D01*
X102809000Y-82468448D01*
X102881314Y-82831997D01*
X103087249Y-83140199D01*
X103395451Y-83346134D01*
X103759000Y-83418448D01*
X104122549Y-83346134D01*
X104430751Y-83140199D01*
X104636686Y-82831997D01*
X104656000Y-82734898D01*
X104656000Y-86429102D01*
X104636686Y-86332003D01*
X104430751Y-86023801D01*
X104122549Y-85817866D01*
X103759000Y-85745552D01*
X103395451Y-85817866D01*
X103087249Y-86023801D01*
X102881314Y-86332003D01*
X102809000Y-86695552D01*
X102809000Y-87548448D01*
X102881314Y-87911997D01*
X102988232Y-88072010D01*
X101989768Y-88072010D01*
X102096686Y-87911997D01*
X102169000Y-87548448D01*
X102169000Y-86695552D01*
X102096686Y-86332003D01*
X101890751Y-86023801D01*
X101582549Y-85817866D01*
X101219000Y-85745552D01*
X100855451Y-85817866D01*
X100576000Y-86004590D01*
X100576000Y-83159410D01*
X100855451Y-83346134D01*
X101219000Y-83418448D01*
X101582549Y-83346134D01*
X101890751Y-83140199D01*
X102096686Y-82831997D01*
X102169000Y-82468448D01*
X102169000Y-81615552D01*
X102096686Y-81252003D01*
X101890751Y-80943801D01*
X101582549Y-80737866D01*
X101219000Y-80665552D01*
X100855451Y-80737866D01*
X100576000Y-80924590D01*
X100576000Y-78411607D01*
X100711448Y-78276395D01*
X100825869Y-78000839D01*
X100826130Y-77702470D01*
X100712189Y-77426714D01*
X100501395Y-77215552D01*
X100225839Y-77101131D01*
X99927470Y-77100870D01*
X99651714Y-77214811D01*
X99440552Y-77425605D01*
X99326131Y-77701161D01*
X99325870Y-77999530D01*
X99439811Y-78275286D01*
X99576000Y-78411713D01*
X99576000Y-81349102D01*
X99556686Y-81252003D01*
X99350751Y-80943801D01*
X99042549Y-80737866D01*
X98679000Y-80665552D01*
X98315451Y-80737866D01*
X98007249Y-80943801D01*
X97801314Y-81252003D01*
X97729000Y-81615552D01*
X97729000Y-82468448D01*
X97801314Y-82831997D01*
X98007249Y-83140199D01*
X98315451Y-83346134D01*
X98679000Y-83418448D01*
X99042549Y-83346134D01*
X99350751Y-83140199D01*
X99556686Y-82831997D01*
X99576000Y-82734898D01*
X99576000Y-86429102D01*
X99556686Y-86332003D01*
X99350751Y-86023801D01*
X99042549Y-85817866D01*
X98679000Y-85745552D01*
X98315451Y-85817866D01*
X98007249Y-86023801D01*
X97801314Y-86332003D01*
X97729000Y-86695552D01*
X97729000Y-87548448D01*
X97801314Y-87911997D01*
X98007249Y-88220199D01*
X98315451Y-88426134D01*
X98679000Y-88498448D01*
X99042549Y-88426134D01*
X99350751Y-88220199D01*
X99556686Y-87911997D01*
X99576000Y-87814898D01*
X99576000Y-88265000D01*
X99614060Y-88456342D01*
X99722447Y-88618553D01*
X99735776Y-88631882D01*
X96069989Y-88631882D01*
X95886287Y-88448181D01*
X96139000Y-88498448D01*
X96502549Y-88426134D01*
X96810751Y-88220199D01*
X97016686Y-87911997D01*
X97089000Y-87548448D01*
X97089000Y-86695552D01*
X97016686Y-86332003D01*
X96810751Y-86023801D01*
X96502549Y-85817866D01*
X96139000Y-85745552D01*
X95775451Y-85817866D01*
X95467249Y-86023801D01*
X95369000Y-86170840D01*
X95369000Y-82993160D01*
X95467249Y-83140199D01*
X95775451Y-83346134D01*
X96139000Y-83418448D01*
X96502549Y-83346134D01*
X96810751Y-83140199D01*
X97016686Y-82831997D01*
X97089000Y-82468448D01*
X97089000Y-81615552D01*
X97016686Y-81252003D01*
X96810751Y-80943801D01*
X96502549Y-80737866D01*
X96139000Y-80665552D01*
X95775451Y-80737866D01*
X95467249Y-80943801D01*
X95369000Y-81090840D01*
X95369000Y-78508380D01*
X95420286Y-78487189D01*
X95631448Y-78276395D01*
X95745869Y-78000839D01*
X95746130Y-77702470D01*
X95632189Y-77426714D01*
X95421395Y-77215552D01*
X95145839Y-77101131D01*
X94847470Y-77100870D01*
X94571714Y-77214811D01*
X94360552Y-77425605D01*
X94246131Y-77701161D01*
X94245870Y-77999530D01*
X94359811Y-78275286D01*
X94369000Y-78284491D01*
X94369000Y-81090840D01*
X94270751Y-80943801D01*
X93962549Y-80737866D01*
X93599000Y-80665552D01*
X93235451Y-80737866D01*
X92927249Y-80943801D01*
X92721314Y-81252003D01*
X92649000Y-81615552D01*
X92649000Y-82468448D01*
X92721314Y-82831997D01*
X92927249Y-83140199D01*
X93235451Y-83346134D01*
X93599000Y-83418448D01*
X93962549Y-83346134D01*
X94270751Y-83140199D01*
X94369000Y-82993160D01*
X94369000Y-86170840D01*
X94270751Y-86023801D01*
X93962549Y-85817866D01*
X93599000Y-85745552D01*
X93235451Y-85817866D01*
X92927249Y-86023801D01*
X92721314Y-86332003D01*
X92649000Y-86695552D01*
X92649000Y-87548448D01*
X92721314Y-87911997D01*
X92927249Y-88220199D01*
X93235451Y-88426134D01*
X93599000Y-88498448D01*
X93962549Y-88426134D01*
X94270751Y-88220199D01*
X94369000Y-88073160D01*
X94369000Y-88138000D01*
X94394262Y-88265000D01*
X94407060Y-88329342D01*
X94515447Y-88491553D01*
X95509328Y-89485435D01*
X95625687Y-89563184D01*
X95671540Y-89593822D01*
X95862882Y-89631882D01*
X103402776Y-89631882D01*
X104315508Y-90544614D01*
X104119317Y-90463148D01*
X103781166Y-90462853D01*
X103538792Y-90563000D01*
X101794000Y-90563000D01*
X101506987Y-90620090D01*
X101282193Y-90770293D01*
X101263670Y-90782670D01*
X96168414Y-95877926D01*
X96154710Y-95872235D01*
X95617647Y-95871766D01*
X95121285Y-96076858D01*
X94741193Y-96456288D01*
X94734669Y-96472000D01*
X91574809Y-96472000D01*
X91569142Y-96458285D01*
X91189712Y-96078193D01*
X90693710Y-95872235D01*
X90156647Y-95871766D01*
X90140923Y-95878263D01*
X88002013Y-93739353D01*
X89073766Y-93739353D01*
X89278858Y-94235715D01*
X89658288Y-94615807D01*
X90154290Y-94821765D01*
X90691353Y-94822234D01*
X91187715Y-94617142D01*
X91567807Y-94237712D01*
X91773765Y-93741710D01*
X91773767Y-93739353D01*
X94534766Y-93739353D01*
X94739858Y-94235715D01*
X95119288Y-94615807D01*
X95615290Y-94821765D01*
X96152353Y-94822234D01*
X96648715Y-94617142D01*
X97028807Y-94237712D01*
X97234765Y-93741710D01*
X97235234Y-93204647D01*
X97030142Y-92708285D01*
X96650712Y-92328193D01*
X96154710Y-92122235D01*
X95617647Y-92121766D01*
X95121285Y-92326858D01*
X94741193Y-92706288D01*
X94535235Y-93202290D01*
X94534766Y-93739353D01*
X91773767Y-93739353D01*
X91774234Y-93204647D01*
X91569142Y-92708285D01*
X91189712Y-92328193D01*
X90693710Y-92122235D01*
X90156647Y-92121766D01*
X89660285Y-92326858D01*
X89280193Y-92706288D01*
X89074235Y-93202290D01*
X89073766Y-93739353D01*
X88002013Y-93739353D01*
X86569330Y-92306670D01*
X86326013Y-92144090D01*
X86039000Y-92087000D01*
X85839236Y-92087000D01*
X85615273Y-91862646D01*
X85192753Y-91687200D01*
X84735254Y-91686801D01*
X84312428Y-91861509D01*
X83988646Y-92184727D01*
X83813200Y-92607247D01*
X83812801Y-93064746D01*
X83987509Y-93487572D01*
X84310727Y-93811354D01*
X84733247Y-93986800D01*
X85190746Y-93987199D01*
X85613572Y-93812491D01*
X85783850Y-93642510D01*
X89079926Y-96938586D01*
X89074235Y-96952290D01*
X89073766Y-97489353D01*
X89278858Y-97985715D01*
X89658288Y-98365807D01*
X90154290Y-98571765D01*
X90691353Y-98572234D01*
X91187715Y-98367142D01*
X91567807Y-97987712D01*
X91574331Y-97972000D01*
X94734191Y-97972000D01*
X94739858Y-97985715D01*
X95119288Y-98365807D01*
X95615290Y-98571765D01*
X96152353Y-98572234D01*
X96648715Y-98367142D01*
X97028807Y-97987712D01*
X97234765Y-97491710D01*
X97235234Y-96954647D01*
X97228737Y-96938923D01*
X102104660Y-92063000D01*
X103539214Y-92063000D01*
X103779683Y-92162852D01*
X104117834Y-92163147D01*
X104430357Y-92034015D01*
X104455405Y-92009011D01*
X104455405Y-100360077D01*
X104223714Y-100455811D01*
X104012552Y-100666605D01*
X103968267Y-100773254D01*
X103878683Y-100736055D01*
X103580314Y-100735794D01*
X103304558Y-100849735D01*
X103093396Y-101060529D01*
X102978975Y-101336085D01*
X102978933Y-101383534D01*
X102818317Y-101383393D01*
X102542561Y-101497334D01*
X102331399Y-101708128D01*
X102216978Y-101983684D01*
X102216717Y-102282053D01*
X102330658Y-102557809D01*
X102541452Y-102768971D01*
X102817008Y-102883392D01*
X103009779Y-102883561D01*
X103013293Y-102887075D01*
X103175504Y-102995462D01*
X103366846Y-103033522D01*
X105023604Y-103033522D01*
X105214946Y-102995462D01*
X105377157Y-102887075D01*
X106308979Y-101955254D01*
X106395351Y-101825989D01*
X106424811Y-101897286D01*
X106635605Y-102108448D01*
X106911161Y-102222869D01*
X107209530Y-102223130D01*
X107485286Y-102109189D01*
X107696448Y-101898395D01*
X107810869Y-101622839D01*
X107811038Y-101430069D01*
X109109607Y-100131500D01*
X109738893Y-100131500D01*
X109799500Y-100192213D01*
X109799500Y-110237998D01*
X109831669Y-110399723D01*
X109837560Y-110429340D01*
X109945947Y-110591551D01*
X114490759Y-115136363D01*
X114490759Y-117388355D01*
X110332115Y-121547000D01*
X108206906Y-121547000D01*
X108121316Y-121339857D01*
X107769993Y-120987919D01*
X107310731Y-120797217D01*
X106813450Y-120796783D01*
X106353857Y-120986684D01*
X106001919Y-121338007D01*
X105811217Y-121797269D01*
X105810783Y-122294550D01*
X106000684Y-122754143D01*
X106352007Y-123106081D01*
X106727203Y-123261876D01*
X101005468Y-124400000D01*
X100541422Y-124400000D01*
X100100000Y-123958578D01*
X100100000Y-121147000D01*
X100724144Y-121147000D01*
X100724144Y-122947000D01*
X100751308Y-123083563D01*
X100828665Y-123199335D01*
X100944437Y-123276692D01*
X101081000Y-123303856D01*
X102881000Y-123303856D01*
X103017563Y-123276692D01*
X103133335Y-123199335D01*
X103210692Y-123083563D01*
X103237856Y-122947000D01*
X103237856Y-122294550D01*
X103270783Y-122294550D01*
X103460684Y-122754143D01*
X103812007Y-123106081D01*
X104271269Y-123296783D01*
X104768550Y-123297217D01*
X105228143Y-123107316D01*
X105580081Y-122755993D01*
X105770783Y-122296731D01*
X105771217Y-121799450D01*
X105581316Y-121339857D01*
X105229993Y-120987919D01*
X104770731Y-120797217D01*
X104273450Y-120796783D01*
X103813857Y-120986684D01*
X103461919Y-121338007D01*
X103271217Y-121797269D01*
X103270783Y-122294550D01*
X103237856Y-122294550D01*
X103237856Y-121147000D01*
X103210692Y-121010437D01*
X103133335Y-120894665D01*
X103017563Y-120817308D01*
X102881000Y-120790144D01*
X102249163Y-120790144D01*
X102339048Y-120783193D01*
X102630226Y-120662584D01*
X102731773Y-120475562D01*
X101981000Y-119724789D01*
X101230227Y-120475562D01*
X101331774Y-120662584D01*
X101722553Y-120790144D01*
X101081000Y-120790144D01*
X100944437Y-120817308D01*
X100828665Y-120894665D01*
X100751308Y-121010437D01*
X100724144Y-121147000D01*
X100100000Y-121147000D01*
X100100000Y-119349416D01*
X100664932Y-119349416D01*
X100704807Y-119865048D01*
X100825416Y-120156226D01*
X101012438Y-120257773D01*
X101763211Y-119507000D01*
X102198789Y-119507000D01*
X102949562Y-120257773D01*
X103136584Y-120156226D01*
X103270791Y-119745083D01*
X103270783Y-119754550D01*
X103460684Y-120214143D01*
X103812007Y-120566081D01*
X104271269Y-120756783D01*
X104768550Y-120757217D01*
X105228143Y-120567316D01*
X105580081Y-120215993D01*
X105770783Y-119756731D01*
X105770784Y-119754550D01*
X105810783Y-119754550D01*
X106000684Y-120214143D01*
X106352007Y-120566081D01*
X106811269Y-120756783D01*
X107308550Y-120757217D01*
X107768143Y-120567316D01*
X108120081Y-120215993D01*
X108206862Y-120007000D01*
X108493000Y-120007000D01*
X108684342Y-119968940D01*
X108846553Y-119860553D01*
X109853553Y-118853553D01*
X109961940Y-118691342D01*
X110000000Y-118500000D01*
X110000000Y-117201905D01*
X110202258Y-117000000D01*
X112568958Y-117000000D01*
X112770686Y-117202080D01*
X113082984Y-117331758D01*
X113421135Y-117332053D01*
X113733658Y-117202921D01*
X113972975Y-116964021D01*
X114102653Y-116651723D01*
X114102948Y-116313572D01*
X113973816Y-116001049D01*
X113734916Y-115761732D01*
X113422618Y-115632054D01*
X113084467Y-115631759D01*
X112771944Y-115760891D01*
X112532627Y-115999791D01*
X112532540Y-116000000D01*
X110201905Y-116000000D01*
X109982115Y-115779826D01*
X109669817Y-115650148D01*
X109331666Y-115649853D01*
X109019143Y-115778985D01*
X108779826Y-116017885D01*
X108650148Y-116330183D01*
X108649853Y-116668334D01*
X108778985Y-116980857D01*
X109000000Y-117202258D01*
X109000000Y-118292894D01*
X108285894Y-119007000D01*
X108206906Y-119007000D01*
X108121316Y-118799857D01*
X107769993Y-118447919D01*
X107310731Y-118257217D01*
X106813450Y-118256783D01*
X106353857Y-118446684D01*
X106001919Y-118798007D01*
X105811217Y-119257269D01*
X105810783Y-119754550D01*
X105770784Y-119754550D01*
X105771217Y-119259450D01*
X105581316Y-118799857D01*
X105229993Y-118447919D01*
X104770731Y-118257217D01*
X104273450Y-118256783D01*
X103813857Y-118446684D01*
X103461919Y-118798007D01*
X103271217Y-119257269D01*
X103271154Y-119329484D01*
X103257193Y-119148952D01*
X103136584Y-118857774D01*
X102949562Y-118756227D01*
X102198789Y-119507000D01*
X101763211Y-119507000D01*
X101012438Y-118756227D01*
X100825416Y-118857774D01*
X100664932Y-119349416D01*
X100100000Y-119349416D01*
X100100000Y-118538438D01*
X101230227Y-118538438D01*
X101981000Y-119289211D01*
X102731773Y-118538438D01*
X102630226Y-118351416D01*
X102138584Y-118190932D01*
X101622952Y-118230807D01*
X101331774Y-118351416D01*
X101230227Y-118538438D01*
X100100000Y-118538438D01*
X100100000Y-114347322D01*
X100313193Y-114435848D01*
X100611562Y-114436109D01*
X100887318Y-114322168D01*
X101098480Y-114111374D01*
X101212901Y-113835818D01*
X101213162Y-113537449D01*
X101099221Y-113261693D01*
X100963032Y-113125266D01*
X100963032Y-111949762D01*
X101025760Y-111887143D01*
X101140181Y-111611587D01*
X101140442Y-111313218D01*
X101026501Y-111037462D01*
X100815707Y-110826300D01*
X100540151Y-110711879D01*
X100241782Y-110711618D01*
X100100000Y-110770202D01*
X100100000Y-110148530D01*
X104249870Y-110148530D01*
X104363811Y-110424286D01*
X104574605Y-110635448D01*
X104850161Y-110749869D01*
X105042932Y-110750038D01*
X106646447Y-112353553D01*
X106808658Y-112461940D01*
X107000000Y-112500000D01*
X109439393Y-112500000D01*
X109574605Y-112635448D01*
X109850161Y-112749869D01*
X110148530Y-112750130D01*
X110424286Y-112636189D01*
X110635448Y-112425395D01*
X110749869Y-112149839D01*
X110750130Y-111851470D01*
X110636189Y-111575714D01*
X110425395Y-111364552D01*
X110149839Y-111250131D01*
X109851470Y-111249870D01*
X109575714Y-111363811D01*
X109439287Y-111500000D01*
X107207106Y-111500000D01*
X105749963Y-110042857D01*
X105750130Y-109851470D01*
X105636189Y-109575714D01*
X105425395Y-109364552D01*
X105149839Y-109250131D01*
X104851470Y-109249870D01*
X104575714Y-109363811D01*
X104364552Y-109574605D01*
X104250131Y-109850161D01*
X104249870Y-110148530D01*
X100100000Y-110148530D01*
X100100000Y-102500000D01*
X100092388Y-102461732D01*
X100070711Y-102429289D01*
X99570711Y-101929289D01*
X99538268Y-101907612D01*
X99500000Y-101900000D01*
X95041422Y-101900000D01*
X93070711Y-99929289D01*
X93038268Y-99907612D01*
X93000000Y-99900000D01*
X90541422Y-99900000D01*
X88070711Y-97429289D01*
X88038268Y-97407612D01*
X88000000Y-97400000D01*
X76041422Y-97400000D01*
X75937787Y-97296365D01*
X76478702Y-94577000D01*
X83806144Y-94577000D01*
X83806144Y-96177000D01*
X83833308Y-96313563D01*
X83910665Y-96429335D01*
X84026437Y-96506692D01*
X84163000Y-96533856D01*
X85763000Y-96533856D01*
X85899563Y-96506692D01*
X86015335Y-96429335D01*
X86092692Y-96313563D01*
X86119856Y-96177000D01*
X86119856Y-94577000D01*
X86092692Y-94440437D01*
X86015335Y-94324665D01*
X85899563Y-94247308D01*
X85763000Y-94220144D01*
X84163000Y-94220144D01*
X84026437Y-94247308D01*
X83910665Y-94324665D01*
X83833308Y-94440437D01*
X83806144Y-94577000D01*
X76478702Y-94577000D01*
X77272564Y-90585988D01*
X77313484Y-90524746D01*
X83812801Y-90524746D01*
X83987509Y-90947572D01*
X84310727Y-91271354D01*
X84733247Y-91446800D01*
X85190746Y-91447199D01*
X85613572Y-91272491D01*
X85937354Y-90949273D01*
X86112800Y-90526753D01*
X86113199Y-90069254D01*
X85938491Y-89646428D01*
X85615273Y-89322646D01*
X85192753Y-89147200D01*
X84735254Y-89146801D01*
X84312428Y-89321509D01*
X83988646Y-89644727D01*
X83813200Y-90067247D01*
X83812801Y-90524746D01*
X77313484Y-90524746D01*
X78564253Y-88652837D01*
X84284952Y-88652837D01*
X84374148Y-88829487D01*
X84829394Y-88973192D01*
X85304981Y-88931743D01*
X85551852Y-88829487D01*
X85641048Y-88652837D01*
X84963000Y-87974789D01*
X84284952Y-88652837D01*
X78564253Y-88652837D01*
X79252105Y-87623394D01*
X83746808Y-87623394D01*
X83788257Y-88098981D01*
X83890513Y-88345852D01*
X84067163Y-88435048D01*
X84745211Y-87757000D01*
X85180789Y-87757000D01*
X85858837Y-88435048D01*
X86035487Y-88345852D01*
X86179192Y-87890606D01*
X86137743Y-87415019D01*
X86035487Y-87168148D01*
X85858837Y-87078952D01*
X85180789Y-87757000D01*
X84745211Y-87757000D01*
X84067163Y-87078952D01*
X83890513Y-87168148D01*
X83746808Y-87623394D01*
X79252105Y-87623394D01*
X79761411Y-86861163D01*
X84284952Y-86861163D01*
X84963000Y-87539211D01*
X85641048Y-86861163D01*
X85551852Y-86684513D01*
X85096606Y-86540808D01*
X84621019Y-86582257D01*
X84374148Y-86684513D01*
X84284952Y-86861163D01*
X79761411Y-86861163D01*
X81650000Y-84034691D01*
X81650000Y-85552981D01*
X83700000Y-85552981D01*
X83700000Y-82798219D01*
X82476184Y-82798219D01*
X82605173Y-82605173D01*
X90585988Y-77272564D01*
X98994532Y-75600000D01*
X101005468Y-75600000D01*
X109414012Y-77272564D01*
M02*
