M48
; DRILL file {KiCad 6.0.11-2627ca5db0~126~ubuntu22.04.1} date Mi 06 Dez 2023 09:32:15 CET
; FORMAT={-:-/ absolute / metric / decimal}
; #@! TF.CreationDate,2023-12-06T09:32:15+01:00
; #@! TF.GenerationSoftware,Kicad,Pcbnew,6.0.11-2627ca5db0~126~ubuntu22.04.1
; #@! TF.FileFunction,Plated,1,2,PTH
FMAT,2
METRIC
; #@! TA.AperFunction,Plated,PTH,ComponentDrill
T1C0.700
; #@! TA.AperFunction,Plated,PTH,ViaDrill
T2C0.750
; #@! TA.AperFunction,Plated,PTH,ComponentDrill
T3C0.900
; #@! TA.AperFunction,Plated,PTH,ComponentDrill
T4C1.000
; #@! TA.AperFunction,Plated,PTH,ComponentDrill
T5C2.500
%
G90
G05
T1
X118.618Y-83.566
X118.618Y-86.106
X118.618Y-88.646
X118.618Y-91.186
T2
X133.604Y-96.52
X133.604Y-101.854
T3
X108.585Y-95.25
X108.585Y-97.79
X108.585Y-100.33
X108.585Y-102.87
X108.585Y-105.41
X108.585Y-107.95
X118.872Y-96.52
X118.872Y-99.06
X118.872Y-101.6
X118.872Y-104.14
X118.872Y-106.68
X121.412Y-96.52
X121.412Y-99.06
X121.412Y-101.6
X121.412Y-104.14
X121.412Y-106.68
X122.565Y-82.55
X122.565Y-85.09
X122.565Y-118.11
X122.565Y-120.65
X125.105Y-82.55
X125.105Y-85.09
X125.105Y-118.11
X125.105Y-120.65
X127.645Y-82.55
X127.645Y-85.09
X127.645Y-118.11
X127.645Y-120.65
X130.185Y-82.55
X130.185Y-85.09
X130.185Y-118.11
X130.185Y-120.65
X132.715Y-82.55
X132.715Y-85.09
X132.715Y-118.11
X132.715Y-120.65
T4
X138.54Y-96.576
X138.54Y-105.147
X143.54Y-100.076
X143.54Y-108.647
T5
X131.201Y-109.474
T0
M30
