%TF.GenerationSoftware,KiCad,Pcbnew,6.0.11-2627ca5db0~126~ubuntu22.04.1*%
%TF.CreationDate,2023-12-06T09:34:45+01:00*%
%TF.ProjectId,heatervalve-interface,68656174-6572-4766-916c-76652d696e74,A*%
%TF.SameCoordinates,Original*%
%TF.FileFunction,Legend,Top*%
%TF.FilePolarity,Positive*%
%FSLAX46Y46*%
G04 Gerber Fmt 4.6, Leading zero omitted, Abs format (unit mm)*
G04 Created by KiCad (PCBNEW 6.0.11-2627ca5db0~126~ubuntu22.04.1) date 2023-12-06 09:34:45*
%MOMM*%
%LPD*%
G01*
G04 APERTURE LIST*
%ADD10C,0.150000*%
%ADD11R,1.800000X1.800000*%
%ADD12C,1.800000*%
%ADD13R,1.600000X1.600000*%
%ADD14C,1.600000*%
G04 APERTURE END LIST*
D10*
%TO.C,J6*%
X123618666Y-106132380D02*
X123618666Y-106846666D01*
X123571047Y-106989523D01*
X123475809Y-107084761D01*
X123332952Y-107132380D01*
X123237714Y-107132380D01*
X124523428Y-106132380D02*
X124332952Y-106132380D01*
X124237714Y-106180000D01*
X124190095Y-106227619D01*
X124094857Y-106370476D01*
X124047238Y-106560952D01*
X124047238Y-106941904D01*
X124094857Y-107037142D01*
X124142476Y-107084761D01*
X124237714Y-107132380D01*
X124428190Y-107132380D01*
X124523428Y-107084761D01*
X124571047Y-107037142D01*
X124618666Y-106941904D01*
X124618666Y-106703809D01*
X124571047Y-106608571D01*
X124523428Y-106560952D01*
X124428190Y-106513333D01*
X124237714Y-106513333D01*
X124142476Y-106560952D01*
X124094857Y-106608571D01*
X124047238Y-106703809D01*
%TO.C,D2*%
X135426523Y-101707904D02*
X135426523Y-100907904D01*
X135617000Y-100907904D01*
X135731285Y-100946000D01*
X135807476Y-101022190D01*
X135845571Y-101098380D01*
X135883666Y-101250761D01*
X135883666Y-101365047D01*
X135845571Y-101517428D01*
X135807476Y-101593619D01*
X135731285Y-101669809D01*
X135617000Y-101707904D01*
X135426523Y-101707904D01*
X136188428Y-100984095D02*
X136226523Y-100946000D01*
X136302714Y-100907904D01*
X136493190Y-100907904D01*
X136569380Y-100946000D01*
X136607476Y-100984095D01*
X136645571Y-101060285D01*
X136645571Y-101136476D01*
X136607476Y-101250761D01*
X136150333Y-101707904D01*
X136645571Y-101707904D01*
%TO.C,C2*%
X109251714Y-90938333D02*
X109289809Y-90976428D01*
X109327904Y-91090714D01*
X109327904Y-91166904D01*
X109289809Y-91281190D01*
X109213619Y-91357380D01*
X109137428Y-91395476D01*
X108985047Y-91433571D01*
X108870761Y-91433571D01*
X108718380Y-91395476D01*
X108642190Y-91357380D01*
X108566000Y-91281190D01*
X108527904Y-91166904D01*
X108527904Y-91090714D01*
X108566000Y-90976428D01*
X108604095Y-90938333D01*
X108604095Y-90633571D02*
X108566000Y-90595476D01*
X108527904Y-90519285D01*
X108527904Y-90328809D01*
X108566000Y-90252619D01*
X108604095Y-90214523D01*
X108680285Y-90176428D01*
X108756476Y-90176428D01*
X108870761Y-90214523D01*
X109327904Y-90671666D01*
X109327904Y-90176428D01*
%TO.C,R2*%
X130676666Y-98913904D02*
X130410000Y-98532952D01*
X130219523Y-98913904D02*
X130219523Y-98113904D01*
X130524285Y-98113904D01*
X130600476Y-98152000D01*
X130638571Y-98190095D01*
X130676666Y-98266285D01*
X130676666Y-98380571D01*
X130638571Y-98456761D01*
X130600476Y-98494857D01*
X130524285Y-98532952D01*
X130219523Y-98532952D01*
X130981428Y-98190095D02*
X131019523Y-98152000D01*
X131095714Y-98113904D01*
X131286190Y-98113904D01*
X131362380Y-98152000D01*
X131400476Y-98190095D01*
X131438571Y-98266285D01*
X131438571Y-98342476D01*
X131400476Y-98456761D01*
X130943333Y-98913904D01*
X131438571Y-98913904D01*
%TO.C,C1*%
X122713714Y-94367333D02*
X122751809Y-94405428D01*
X122789904Y-94519714D01*
X122789904Y-94595904D01*
X122751809Y-94710190D01*
X122675619Y-94786380D01*
X122599428Y-94824476D01*
X122447047Y-94862571D01*
X122332761Y-94862571D01*
X122180380Y-94824476D01*
X122104190Y-94786380D01*
X122028000Y-94710190D01*
X121989904Y-94595904D01*
X121989904Y-94519714D01*
X122028000Y-94405428D01*
X122066095Y-94367333D01*
X122789904Y-93605428D02*
X122789904Y-94062571D01*
X122789904Y-93834000D02*
X121989904Y-93834000D01*
X122104190Y-93910190D01*
X122180380Y-93986380D01*
X122218476Y-94062571D01*
%TO.C,D1*%
X132505523Y-106279904D02*
X132505523Y-105479904D01*
X132696000Y-105479904D01*
X132810285Y-105518000D01*
X132886476Y-105594190D01*
X132924571Y-105670380D01*
X132962666Y-105822761D01*
X132962666Y-105937047D01*
X132924571Y-106089428D01*
X132886476Y-106165619D01*
X132810285Y-106241809D01*
X132696000Y-106279904D01*
X132505523Y-106279904D01*
X133724571Y-106279904D02*
X133267428Y-106279904D01*
X133496000Y-106279904D02*
X133496000Y-105479904D01*
X133419809Y-105594190D01*
X133343619Y-105670380D01*
X133267428Y-105708476D01*
%TO.C,J5*%
X110664666Y-107656380D02*
X110664666Y-108370666D01*
X110617047Y-108513523D01*
X110521809Y-108608761D01*
X110378952Y-108656380D01*
X110283714Y-108656380D01*
X111617047Y-107656380D02*
X111140857Y-107656380D01*
X111093238Y-108132571D01*
X111140857Y-108084952D01*
X111236095Y-108037333D01*
X111474190Y-108037333D01*
X111569428Y-108084952D01*
X111617047Y-108132571D01*
X111664666Y-108227809D01*
X111664666Y-108465904D01*
X111617047Y-108561142D01*
X111569428Y-108608761D01*
X111474190Y-108656380D01*
X111236095Y-108656380D01*
X111140857Y-108608761D01*
X111093238Y-108561142D01*
%TO.C,R1*%
X130676666Y-105263904D02*
X130410000Y-104882952D01*
X130219523Y-105263904D02*
X130219523Y-104463904D01*
X130524285Y-104463904D01*
X130600476Y-104502000D01*
X130638571Y-104540095D01*
X130676666Y-104616285D01*
X130676666Y-104730571D01*
X130638571Y-104806761D01*
X130600476Y-104844857D01*
X130524285Y-104882952D01*
X130219523Y-104882952D01*
X131438571Y-105263904D02*
X130981428Y-105263904D01*
X131210000Y-105263904D02*
X131210000Y-104463904D01*
X131133809Y-104578190D01*
X131057619Y-104654380D01*
X130981428Y-104692476D01*
%TO.C,R4*%
X116198666Y-105517904D02*
X115932000Y-105136952D01*
X115741523Y-105517904D02*
X115741523Y-104717904D01*
X116046285Y-104717904D01*
X116122476Y-104756000D01*
X116160571Y-104794095D01*
X116198666Y-104870285D01*
X116198666Y-104984571D01*
X116160571Y-105060761D01*
X116122476Y-105098857D01*
X116046285Y-105136952D01*
X115741523Y-105136952D01*
X116884380Y-104984571D02*
X116884380Y-105517904D01*
X116693904Y-104679809D02*
X116503428Y-105251238D01*
X116998666Y-105251238D01*
%TO.C,U1*%
X120396095Y-90638380D02*
X120396095Y-91447904D01*
X120443714Y-91543142D01*
X120491333Y-91590761D01*
X120586571Y-91638380D01*
X120777047Y-91638380D01*
X120872285Y-91590761D01*
X120919904Y-91543142D01*
X120967523Y-91447904D01*
X120967523Y-90638380D01*
X121967523Y-91638380D02*
X121396095Y-91638380D01*
X121681809Y-91638380D02*
X121681809Y-90638380D01*
X121586571Y-90781238D01*
X121491333Y-90876476D01*
X121396095Y-90924095D01*
%TO.C,R3*%
X116198666Y-108057904D02*
X115932000Y-107676952D01*
X115741523Y-108057904D02*
X115741523Y-107257904D01*
X116046285Y-107257904D01*
X116122476Y-107296000D01*
X116160571Y-107334095D01*
X116198666Y-107410285D01*
X116198666Y-107524571D01*
X116160571Y-107600761D01*
X116122476Y-107638857D01*
X116046285Y-107676952D01*
X115741523Y-107676952D01*
X116465333Y-107257904D02*
X116960571Y-107257904D01*
X116693904Y-107562666D01*
X116808190Y-107562666D01*
X116884380Y-107600761D01*
X116922476Y-107638857D01*
X116960571Y-107715047D01*
X116960571Y-107905523D01*
X116922476Y-107981714D01*
X116884380Y-108019809D01*
X116808190Y-108057904D01*
X116579619Y-108057904D01*
X116503428Y-108019809D01*
X116465333Y-107981714D01*
%TO.C,J6*%
X122682000Y-107950000D02*
X117602000Y-107950000D01*
X117602000Y-107950000D02*
X117602000Y-95250000D01*
X117602000Y-95250000D02*
X122682000Y-95250000D01*
X122682000Y-95250000D02*
X122682000Y-107950000D01*
%TO.C,D2*%
X136144000Y-98679000D02*
X136144000Y-99441000D01*
X136144000Y-99441000D02*
X133096000Y-99441000D01*
X133096000Y-99441000D02*
X133096000Y-98679000D01*
X133096000Y-98679000D02*
X136144000Y-98679000D01*
%TO.C,C2*%
X112395000Y-89789000D02*
X112395000Y-88138000D01*
X110109000Y-93218000D02*
X110109000Y-91567000D01*
X110109000Y-87884000D02*
X110109000Y-88138000D01*
X112395000Y-91567000D02*
X112395000Y-93218000D01*
X112395000Y-87884000D02*
X110109000Y-87884000D01*
X110109000Y-88138000D02*
X110109000Y-89789000D01*
X112395000Y-88138000D02*
X110109000Y-88138000D01*
X112395000Y-88138000D02*
X112395000Y-87884000D01*
X112395000Y-93218000D02*
X110109000Y-93218000D01*
%TO.C,R2*%
X129286000Y-100838000D02*
X129286000Y-99314000D01*
X131318000Y-99314000D02*
X132334000Y-99314000D01*
X132334000Y-100838000D02*
X131318000Y-100838000D01*
X132334000Y-99314000D02*
X132334000Y-100838000D01*
X130302000Y-100838000D02*
X129286000Y-100838000D01*
X129286000Y-99314000D02*
X130302000Y-99314000D01*
%TO.C,C1*%
X123571000Y-88138000D02*
X123571000Y-87884000D01*
X123571000Y-88138000D02*
X121285000Y-88138000D01*
X123571000Y-89789000D02*
X123571000Y-88138000D01*
X121285000Y-87884000D02*
X121285000Y-88138000D01*
X121285000Y-88138000D02*
X121285000Y-89789000D01*
X123571000Y-93218000D02*
X121285000Y-93218000D01*
X123571000Y-91567000D02*
X123571000Y-93218000D01*
X123571000Y-87884000D02*
X121285000Y-87884000D01*
X121285000Y-93218000D02*
X121285000Y-91567000D01*
%TO.C,D1*%
X133096000Y-104775000D02*
X133096000Y-104013000D01*
X136144000Y-104013000D02*
X136144000Y-104775000D01*
X136144000Y-104775000D02*
X133096000Y-104775000D01*
X133096000Y-104013000D02*
X136144000Y-104013000D01*
%TO.C,J5*%
X107315000Y-93980000D02*
X109855000Y-93980000D01*
X109855000Y-93980000D02*
X109855000Y-109220000D01*
X107315000Y-109220000D02*
X107315000Y-93980000D01*
X109855000Y-109220000D02*
X107315000Y-109220000D01*
%TO.C,R1*%
X131318000Y-102616000D02*
X132334000Y-102616000D01*
X129286000Y-104140000D02*
X129286000Y-102616000D01*
X132334000Y-102616000D02*
X132334000Y-104140000D01*
X130302000Y-104140000D02*
X129286000Y-104140000D01*
X129286000Y-102616000D02*
X130302000Y-102616000D01*
X132334000Y-104140000D02*
X131318000Y-104140000D01*
%TO.C,R4*%
X112268000Y-104394000D02*
X113284000Y-104394000D01*
X114300000Y-104394000D02*
X115316000Y-104394000D01*
X112268000Y-105918000D02*
X112268000Y-104394000D01*
X115316000Y-105918000D02*
X114300000Y-105918000D01*
X115316000Y-104394000D02*
X115316000Y-105918000D01*
X113284000Y-105918000D02*
X112268000Y-105918000D01*
%TO.C,U1*%
X119888000Y-81534000D02*
X113792000Y-81534000D01*
X113792000Y-93218000D02*
X119888000Y-93218000D01*
X113792000Y-81534000D02*
X113792000Y-93218000D01*
X119888000Y-93218000D02*
X119888000Y-81534000D01*
%TO.C,R3*%
X114300000Y-106934000D02*
X115316000Y-106934000D01*
X115316000Y-106934000D02*
X115316000Y-108458000D01*
X115316000Y-108458000D02*
X114300000Y-108458000D01*
X112268000Y-106934000D02*
X113284000Y-106934000D01*
X112268000Y-108458000D02*
X112268000Y-106934000D01*
X113284000Y-108458000D02*
X112268000Y-108458000D01*
%TD*%
D11*
%TO.C,J6*%
X121412000Y-106680000D03*
D12*
X118872000Y-106680000D03*
X121412000Y-104140000D03*
X118872000Y-104140000D03*
X121412000Y-101600000D03*
X118872000Y-101600000D03*
X121412000Y-99060000D03*
X118872000Y-99060000D03*
X121412000Y-96520000D03*
X118872000Y-96520000D03*
%TD*%
D11*
%TO.C,J5*%
X108585000Y-107950000D03*
D12*
X108585000Y-105410000D03*
X108585000Y-102870000D03*
X108585000Y-100330000D03*
X108585000Y-97790000D03*
X108585000Y-95250000D03*
%TD*%
D13*
%TO.C,U1*%
X118618000Y-91186000D03*
D14*
X118618000Y-88646000D03*
X118618000Y-86106000D03*
X118618000Y-83566000D03*
%TD*%
M02*
