%TF.GenerationSoftware,KiCad,Pcbnew,6.0.11-2627ca5db0~126~ubuntu22.04.1*%
%TF.CreationDate,2023-12-06T09:34:45+01:00*%
%TF.ProjectId,heatervalve-interface,68656174-6572-4766-916c-76652d696e74,A*%
%TF.SameCoordinates,Original*%
%TF.FileFunction,Soldermask,Bot*%
%TF.FilePolarity,Negative*%
%FSLAX46Y46*%
G04 Gerber Fmt 4.6, Leading zero omitted, Abs format (unit mm)*
G04 Created by KiCad (PCBNEW 6.0.11-2627ca5db0~126~ubuntu22.04.1) date 2023-12-06 09:34:45*
%MOMM*%
%LPD*%
G01*
G04 APERTURE LIST*
%ADD10R,1.800000X1.800000*%
%ADD11C,1.800000*%
%ADD12R,1.600000X1.600000*%
%ADD13C,1.600000*%
%ADD14C,3.500000*%
%ADD15C,3.000000*%
G04 APERTURE END LIST*
D10*
%TO.C,J6*%
X121412000Y-106680000D03*
D11*
X118872000Y-106680000D03*
X121412000Y-104140000D03*
X118872000Y-104140000D03*
X121412000Y-101600000D03*
X118872000Y-101600000D03*
X121412000Y-99060000D03*
X118872000Y-99060000D03*
X121412000Y-96520000D03*
X118872000Y-96520000D03*
%TD*%
D10*
%TO.C,J5*%
X108585000Y-107950000D03*
D11*
X108585000Y-105410000D03*
X108585000Y-102870000D03*
X108585000Y-100330000D03*
X108585000Y-97790000D03*
X108585000Y-95250000D03*
%TD*%
D12*
%TO.C,U1*%
X118618000Y-91186000D03*
D13*
X118618000Y-88646000D03*
X118618000Y-86106000D03*
X118618000Y-83566000D03*
%TD*%
D10*
%TO.C,MOD1*%
X122565000Y-85090000D03*
D11*
X122565000Y-82550000D03*
X125105000Y-85090000D03*
X125105000Y-82550000D03*
X127645000Y-85090000D03*
X127645000Y-82550000D03*
X130185000Y-85090000D03*
X130185000Y-82550000D03*
X132715000Y-85090000D03*
X132715000Y-82550000D03*
D10*
X122565000Y-120650000D03*
D11*
X122565000Y-118110000D03*
X125105000Y-120650000D03*
X125105000Y-118110000D03*
X127645000Y-120650000D03*
X127645000Y-118110000D03*
X130185000Y-120650000D03*
X130185000Y-118110000D03*
X132715000Y-120650000D03*
X132715000Y-118110000D03*
D14*
X131201000Y-109474000D03*
%TD*%
D15*
%TO.C,J1*%
X143540000Y-108647000D03*
X138540000Y-105147000D03*
%TD*%
%TO.C,J2*%
X143540000Y-100076000D03*
X138540000Y-96576000D03*
%TD*%
M02*
