%TF.GenerationSoftware,KiCad,Pcbnew,6.0.11-2627ca5db0~126~ubuntu22.04.1*%
%TF.CreationDate,2023-12-06T09:34:45+01:00*%
%TF.ProjectId,heatervalve-interface,68656174-6572-4766-916c-76652d696e74,A*%
%TF.SameCoordinates,Original*%
%TF.FileFunction,Copper,L1,Top*%
%TF.FilePolarity,Positive*%
%FSLAX46Y46*%
G04 Gerber Fmt 4.6, Leading zero omitted, Abs format (unit mm)*
G04 Created by KiCad (PCBNEW 6.0.11-2627ca5db0~126~ubuntu22.04.1) date 2023-12-06 09:34:45*
%MOMM*%
%LPD*%
G01*
G04 APERTURE LIST*
%ADD10C,0.300000*%
%TA.AperFunction,NonConductor*%
%ADD11C,0.300000*%
%TD*%
%TA.AperFunction,ComponentPad*%
%ADD12R,1.800000X1.800000*%
%TD*%
%TA.AperFunction,ComponentPad*%
%ADD13C,1.800000*%
%TD*%
%TA.AperFunction,SMDPad,CuDef*%
%ADD14R,0.914400X0.914400*%
%TD*%
%TA.AperFunction,SMDPad,CuDef*%
%ADD15R,2.032000X1.524000*%
%TD*%
%TA.AperFunction,SMDPad,CuDef*%
%ADD16R,0.889000X1.397000*%
%TD*%
%TA.AperFunction,ComponentPad*%
%ADD17R,1.600000X1.600000*%
%TD*%
%TA.AperFunction,ComponentPad*%
%ADD18C,1.600000*%
%TD*%
%TA.AperFunction,ComponentPad*%
%ADD19C,3.500000*%
%TD*%
%TA.AperFunction,ComponentPad*%
%ADD20C,3.000000*%
%TD*%
%TA.AperFunction,ViaPad*%
%ADD21C,1.500000*%
%TD*%
%TA.AperFunction,Conductor*%
%ADD22C,0.800000*%
%TD*%
%TA.AperFunction,Conductor*%
%ADD23C,0.300000*%
%TD*%
G04 APERTURE END LIST*
D10*
D11*
X129099714Y-125138571D02*
X128599714Y-124424285D01*
X128242571Y-125138571D02*
X128242571Y-123638571D01*
X128814000Y-123638571D01*
X128956857Y-123710000D01*
X129028285Y-123781428D01*
X129099714Y-123924285D01*
X129099714Y-124138571D01*
X129028285Y-124281428D01*
X128956857Y-124352857D01*
X128814000Y-124424285D01*
X128242571Y-124424285D01*
X130314000Y-125067142D02*
X130171142Y-125138571D01*
X129885428Y-125138571D01*
X129742571Y-125067142D01*
X129671142Y-124924285D01*
X129671142Y-124352857D01*
X129742571Y-124210000D01*
X129885428Y-124138571D01*
X130171142Y-124138571D01*
X130314000Y-124210000D01*
X130385428Y-124352857D01*
X130385428Y-124495714D01*
X129671142Y-124638571D01*
X130885428Y-124138571D02*
X131242571Y-125138571D01*
X131599714Y-124138571D01*
X133242571Y-124710000D02*
X133956857Y-124710000D01*
X133099714Y-125138571D02*
X133599714Y-123638571D01*
X134099714Y-125138571D01*
D10*
D11*
X148014571Y-104389714D02*
X148014571Y-103818285D01*
X149014571Y-104175428D02*
X147728857Y-104175428D01*
X147586000Y-104104000D01*
X147514571Y-103961142D01*
X147514571Y-103818285D01*
X149014571Y-103318285D02*
X148014571Y-103318285D01*
X148300285Y-103318285D02*
X148157428Y-103246857D01*
X148086000Y-103175428D01*
X148014571Y-103032571D01*
X148014571Y-102889714D01*
X149014571Y-102175428D02*
X148943142Y-102318285D01*
X148871714Y-102389714D01*
X148728857Y-102461142D01*
X148300285Y-102461142D01*
X148157428Y-102389714D01*
X148086000Y-102318285D01*
X148014571Y-102175428D01*
X148014571Y-101961142D01*
X148086000Y-101818285D01*
X148157428Y-101746857D01*
X148300285Y-101675428D01*
X148728857Y-101675428D01*
X148871714Y-101746857D01*
X148943142Y-101818285D01*
X149014571Y-101961142D01*
X149014571Y-102175428D01*
X148014571Y-101032571D02*
X149014571Y-101032571D01*
X148157428Y-101032571D02*
X148086000Y-100961142D01*
X148014571Y-100818285D01*
X148014571Y-100604000D01*
X148086000Y-100461142D01*
X148228857Y-100389714D01*
X149014571Y-100389714D01*
X148014571Y-99889714D02*
X148014571Y-99318285D01*
X147514571Y-99675428D02*
X148800285Y-99675428D01*
X148943142Y-99604000D01*
X149014571Y-99461142D01*
X149014571Y-99318285D01*
D10*
D11*
X106065714Y-114787071D02*
X106065714Y-113287071D01*
X106708571Y-114787071D02*
X106708571Y-114001357D01*
X106637142Y-113858500D01*
X106494285Y-113787071D01*
X106280000Y-113787071D01*
X106137142Y-113858500D01*
X106065714Y-113929928D01*
X107994285Y-114715642D02*
X107851428Y-114787071D01*
X107565714Y-114787071D01*
X107422857Y-114715642D01*
X107351428Y-114572785D01*
X107351428Y-114001357D01*
X107422857Y-113858500D01*
X107565714Y-113787071D01*
X107851428Y-113787071D01*
X107994285Y-113858500D01*
X108065714Y-114001357D01*
X108065714Y-114144214D01*
X107351428Y-114287071D01*
X109351428Y-114787071D02*
X109351428Y-114001357D01*
X109280000Y-113858500D01*
X109137142Y-113787071D01*
X108851428Y-113787071D01*
X108708571Y-113858500D01*
X109351428Y-114715642D02*
X109208571Y-114787071D01*
X108851428Y-114787071D01*
X108708571Y-114715642D01*
X108637142Y-114572785D01*
X108637142Y-114429928D01*
X108708571Y-114287071D01*
X108851428Y-114215642D01*
X109208571Y-114215642D01*
X109351428Y-114144214D01*
X109851428Y-113787071D02*
X110422857Y-113787071D01*
X110065714Y-113287071D02*
X110065714Y-114572785D01*
X110137142Y-114715642D01*
X110280000Y-114787071D01*
X110422857Y-114787071D01*
X111494285Y-114715642D02*
X111351428Y-114787071D01*
X111065714Y-114787071D01*
X110922857Y-114715642D01*
X110851428Y-114572785D01*
X110851428Y-114001357D01*
X110922857Y-113858500D01*
X111065714Y-113787071D01*
X111351428Y-113787071D01*
X111494285Y-113858500D01*
X111565714Y-114001357D01*
X111565714Y-114144214D01*
X110851428Y-114287071D01*
X112208571Y-114787071D02*
X112208571Y-113787071D01*
X112208571Y-114072785D02*
X112280000Y-113929928D01*
X112351428Y-113858500D01*
X112494285Y-113787071D01*
X112637142Y-113787071D01*
X112994285Y-113787071D02*
X113351428Y-114787071D01*
X113708571Y-113787071D01*
X114922857Y-114787071D02*
X114922857Y-114001357D01*
X114851428Y-113858500D01*
X114708571Y-113787071D01*
X114422857Y-113787071D01*
X114280000Y-113858500D01*
X114922857Y-114715642D02*
X114780000Y-114787071D01*
X114422857Y-114787071D01*
X114280000Y-114715642D01*
X114208571Y-114572785D01*
X114208571Y-114429928D01*
X114280000Y-114287071D01*
X114422857Y-114215642D01*
X114780000Y-114215642D01*
X114922857Y-114144214D01*
X115851428Y-114787071D02*
X115708571Y-114715642D01*
X115637142Y-114572785D01*
X115637142Y-113287071D01*
X116280000Y-113787071D02*
X116637142Y-114787071D01*
X116994285Y-113787071D01*
X118137142Y-114715642D02*
X117994285Y-114787071D01*
X117708571Y-114787071D01*
X117565714Y-114715642D01*
X117494285Y-114572785D01*
X117494285Y-114001357D01*
X117565714Y-113858500D01*
X117708571Y-113787071D01*
X117994285Y-113787071D01*
X118137142Y-113858500D01*
X118208571Y-114001357D01*
X118208571Y-114144214D01*
X117494285Y-114287071D01*
X118851428Y-114215642D02*
X119994285Y-114215642D01*
X108422857Y-117202071D02*
X108422857Y-116202071D01*
X108422857Y-115702071D02*
X108351428Y-115773500D01*
X108422857Y-115844928D01*
X108494285Y-115773500D01*
X108422857Y-115702071D01*
X108422857Y-115844928D01*
X109137142Y-116202071D02*
X109137142Y-117202071D01*
X109137142Y-116344928D02*
X109208571Y-116273500D01*
X109351428Y-116202071D01*
X109565714Y-116202071D01*
X109708571Y-116273500D01*
X109780000Y-116416357D01*
X109780000Y-117202071D01*
X110280000Y-116202071D02*
X110851428Y-116202071D01*
X110494285Y-115702071D02*
X110494285Y-116987785D01*
X110565714Y-117130642D01*
X110708571Y-117202071D01*
X110851428Y-117202071D01*
X111922857Y-117130642D02*
X111780000Y-117202071D01*
X111494285Y-117202071D01*
X111351428Y-117130642D01*
X111280000Y-116987785D01*
X111280000Y-116416357D01*
X111351428Y-116273500D01*
X111494285Y-116202071D01*
X111780000Y-116202071D01*
X111922857Y-116273500D01*
X111994285Y-116416357D01*
X111994285Y-116559214D01*
X111280000Y-116702071D01*
X112637142Y-117202071D02*
X112637142Y-116202071D01*
X112637142Y-116487785D02*
X112708571Y-116344928D01*
X112780000Y-116273500D01*
X112922857Y-116202071D01*
X113065714Y-116202071D01*
X113351428Y-116202071D02*
X113922857Y-116202071D01*
X113565714Y-117202071D02*
X113565714Y-115916357D01*
X113637142Y-115773500D01*
X113780000Y-115702071D01*
X113922857Y-115702071D01*
X115065714Y-117202071D02*
X115065714Y-116416357D01*
X114994285Y-116273500D01*
X114851428Y-116202071D01*
X114565714Y-116202071D01*
X114422857Y-116273500D01*
X115065714Y-117130642D02*
X114922857Y-117202071D01*
X114565714Y-117202071D01*
X114422857Y-117130642D01*
X114351428Y-116987785D01*
X114351428Y-116844928D01*
X114422857Y-116702071D01*
X114565714Y-116630642D01*
X114922857Y-116630642D01*
X115065714Y-116559214D01*
X116422857Y-117130642D02*
X116280000Y-117202071D01*
X115994285Y-117202071D01*
X115851428Y-117130642D01*
X115780000Y-117059214D01*
X115708571Y-116916357D01*
X115708571Y-116487785D01*
X115780000Y-116344928D01*
X115851428Y-116273500D01*
X115994285Y-116202071D01*
X116280000Y-116202071D01*
X116422857Y-116273500D01*
X117637142Y-117130642D02*
X117494285Y-117202071D01*
X117208571Y-117202071D01*
X117065714Y-117130642D01*
X116994285Y-116987785D01*
X116994285Y-116416357D01*
X117065714Y-116273500D01*
X117208571Y-116202071D01*
X117494285Y-116202071D01*
X117637142Y-116273500D01*
X117708571Y-116416357D01*
X117708571Y-116559214D01*
X116994285Y-116702071D01*
D12*
%TO.P,J6,1,1*%
%TO.N,/STM8_RST*%
X121412000Y-106680000D03*
D13*
%TO.P,J6,2,2*%
%TO.N,unconnected-(J6-Pad2)*%
X118872000Y-106680000D03*
%TO.P,J6,3,3*%
%TO.N,GND*%
X121412000Y-104140000D03*
%TO.P,J6,4,4*%
X118872000Y-104140000D03*
%TO.P,J6,5,5*%
%TO.N,Net-(J5-Pad6)*%
X121412000Y-101600000D03*
%TO.P,J6,6,6*%
%TO.N,unconnected-(J6-Pad6)*%
X118872000Y-101600000D03*
%TO.P,J6,7,7*%
%TO.N,unconnected-(J6-Pad7)*%
X121412000Y-99060000D03*
%TO.P,J6,8,8*%
%TO.N,unconnected-(J6-Pad8)*%
X118872000Y-99060000D03*
%TO.P,J6,9,9*%
%TO.N,unconnected-(J6-Pad9)*%
X121412000Y-96520000D03*
%TO.P,J6,10,10*%
%TO.N,unconnected-(J6-Pad10)*%
X118872000Y-96520000D03*
%TD*%
D14*
%TO.P,D2,1,1*%
%TO.N,GND*%
X135509000Y-98044000D03*
%TO.P,D2,2,2*%
%TO.N,+5V*%
X133731000Y-98044000D03*
%TO.P,D2,3,3*%
%TO.N,Net-(D2-Pad3)*%
X134620000Y-100076000D03*
%TD*%
D15*
%TO.P,C2,1,1*%
%TO.N,+3.3V*%
X111252000Y-89027000D03*
%TO.P,C2,2,2*%
%TO.N,GND*%
X111252000Y-92329000D03*
%TD*%
D16*
%TO.P,R2,1,1*%
%TO.N,Net-(D2-Pad3)*%
X131762500Y-100076000D03*
%TO.P,R2,2,2*%
%TO.N,Net-(MOD1-Pad7)*%
X129857500Y-100076000D03*
%TD*%
D15*
%TO.P,C1,1,1*%
%TO.N,+24V*%
X122428000Y-89027000D03*
%TO.P,C1,2,2*%
%TO.N,GND*%
X122428000Y-92329000D03*
%TD*%
D14*
%TO.P,D1,1,1*%
%TO.N,GND*%
X135509000Y-103378000D03*
%TO.P,D1,2,2*%
%TO.N,+5V*%
X133731000Y-103378000D03*
%TO.P,D1,3,3*%
%TO.N,Net-(D1-Pad3)*%
X134620000Y-105410000D03*
%TD*%
D12*
%TO.P,J5,1,1*%
%TO.N,/RXD*%
X108585000Y-107950000D03*
D13*
%TO.P,J5,2,2*%
%TO.N,Net-(J5-Pad2)*%
X108585000Y-105410000D03*
%TO.P,J5,3,3*%
%TO.N,GND*%
X108585000Y-102870000D03*
%TO.P,J5,4,4*%
%TO.N,+3.3V*%
X108585000Y-100330000D03*
%TO.P,J5,5,5*%
%TO.N,/STM8_RST*%
X108585000Y-97790000D03*
%TO.P,J5,6,6*%
%TO.N,Net-(J5-Pad6)*%
X108585000Y-95250000D03*
%TD*%
D16*
%TO.P,R1,1,1*%
%TO.N,Net-(D1-Pad3)*%
X131762500Y-103378000D03*
%TO.P,R1,2,2*%
%TO.N,Net-(MOD1-Pad6)*%
X129857500Y-103378000D03*
%TD*%
%TO.P,R4,1,1*%
%TO.N,GND*%
X112839500Y-105156000D03*
%TO.P,R4,2,2*%
%TO.N,Net-(J5-Pad2)*%
X114744500Y-105156000D03*
%TD*%
D17*
%TO.P,U1,1,VIN-*%
%TO.N,GND*%
X118618000Y-91186000D03*
D18*
%TO.P,U1,2,VIN+*%
%TO.N,+24V*%
X118618000Y-88646000D03*
%TO.P,U1,3,VOUT-*%
%TO.N,GND*%
X118618000Y-86106000D03*
%TO.P,U1,4,VOUT+*%
%TO.N,+3.3V*%
X118618000Y-83566000D03*
%TD*%
D16*
%TO.P,R3,1,1*%
%TO.N,/TXD*%
X112839500Y-107696000D03*
%TO.P,R3,2,2*%
%TO.N,Net-(J5-Pad2)*%
X114744500Y-107696000D03*
%TD*%
D12*
%TO.P,MOD1,1,GND*%
%TO.N,GND*%
X122565000Y-85090000D03*
D13*
%TO.P,MOD1,2,GND*%
X122565000Y-82550000D03*
%TO.P,MOD1,3,24V*%
%TO.N,+24V*%
X125105000Y-85090000D03*
%TO.P,MOD1,4,24V*%
X125105000Y-82550000D03*
%TO.P,MOD1,5,PA0_AREF*%
%TO.N,unconnected-(MOD1-Pad5)*%
X127645000Y-85090000D03*
%TO.P,MOD1,6,PA1*%
%TO.N,Net-(MOD1-Pad6)*%
X127645000Y-82550000D03*
%TO.P,MOD1,7,PA2*%
%TO.N,Net-(MOD1-Pad7)*%
X130185000Y-85090000D03*
%TO.P,MOD1,8,PA3*%
%TO.N,unconnected-(MOD1-Pad8)*%
X130185000Y-82550000D03*
%TO.P,MOD1,9,PA4*%
%TO.N,unconnected-(MOD1-Pad9)*%
X132715000Y-85090000D03*
%TO.P,MOD1,10,PA5*%
%TO.N,unconnected-(MOD1-Pad10)*%
X132715000Y-82550000D03*
D12*
%TO.P,MOD1,11,GND*%
%TO.N,GND*%
X122565000Y-120650000D03*
D13*
%TO.P,MOD1,12,GND*%
X122565000Y-118110000D03*
%TO.P,MOD1,13,VCC*%
%TO.N,+5V*%
X125105000Y-120650000D03*
%TO.P,MOD1,14,VCC*%
X125105000Y-118110000D03*
%TO.P,MOD1,15,/RESET*%
%TO.N,unconnected-(MOD1-Pad15)*%
X127645000Y-120650000D03*
%TO.P,MOD1,16,PC2_INT0*%
%TO.N,unconnected-(MOD1-Pad16)*%
X127645000Y-118110000D03*
%TO.P,MOD1,17,MISO*%
%TO.N,/RXD*%
X130185000Y-120650000D03*
%TO.P,MOD1,18,MOSI*%
%TO.N,/TXD*%
X130185000Y-118110000D03*
%TO.P,MOD1,19,PB3*%
%TO.N,unconnected-(MOD1-Pad19)*%
X132715000Y-120650000D03*
%TO.P,MOD1,20,SCK*%
%TO.N,unconnected-(MOD1-Pad20)*%
X132715000Y-118110000D03*
D19*
%TO.P,MOD1,21*%
%TO.N,N/C*%
X131201000Y-109474000D03*
%TD*%
D20*
%TO.P,J1,1,1*%
%TO.N,Net-(D1-Pad3)*%
X143540000Y-108647000D03*
%TO.P,J1,2,2*%
%TO.N,GND*%
X138540000Y-105147000D03*
%TD*%
%TO.P,J2,1,1*%
%TO.N,Net-(D2-Pad3)*%
X143540000Y-100076000D03*
%TO.P,J2,2,2*%
%TO.N,GND*%
X138540000Y-96576000D03*
%TD*%
D21*
%TO.N,+5V*%
X133604000Y-101854000D03*
X133604000Y-96520000D03*
%TD*%
D22*
%TO.N,+24V*%
X124079000Y-89027000D02*
X125105000Y-88001000D01*
X120523000Y-89027000D02*
X120142000Y-88646000D01*
X120142000Y-88646000D02*
X118618000Y-88646000D01*
X122428000Y-89027000D02*
X120523000Y-89027000D01*
X125105000Y-88001000D02*
X125105000Y-85090000D01*
X122428000Y-89027000D02*
X124079000Y-89027000D01*
X125105000Y-82550000D02*
X125105000Y-85090000D01*
%TO.N,+3.3V*%
X111252000Y-89027000D02*
X109855000Y-89027000D01*
X109855000Y-89027000D02*
X106934000Y-91948000D01*
X106934000Y-91948000D02*
X106934000Y-98679000D01*
X106934000Y-98679000D02*
X108585000Y-100330000D01*
X118618000Y-83566000D02*
X115824000Y-83566000D01*
X115824000Y-83566000D02*
X111252000Y-88138000D01*
X111252000Y-88138000D02*
X111252000Y-89027000D01*
%TO.N,+5V*%
X133731000Y-98044000D02*
X133731000Y-96647000D01*
X133731000Y-103378000D02*
X133604000Y-103251000D01*
X133731000Y-101981000D02*
X133604000Y-101854000D01*
X133731000Y-103378000D02*
X133731000Y-101981000D01*
X133731000Y-96647000D02*
X133604000Y-96520000D01*
D23*
%TO.N,Net-(D1-Pad3)*%
X134620000Y-105410000D02*
X133794500Y-105410000D01*
X133794500Y-105410000D02*
X131762500Y-103378000D01*
X137857000Y-108647000D02*
X134620000Y-105410000D01*
X143540000Y-108647000D02*
X137857000Y-108647000D01*
%TO.N,Net-(D2-Pad3)*%
X131762500Y-100076000D02*
X134620000Y-100076000D01*
X134620000Y-100076000D02*
X143540000Y-100076000D01*
%TO.N,/RXD*%
X111125000Y-110490000D02*
X125984000Y-110490000D01*
X108585000Y-107950000D02*
X111125000Y-110490000D01*
X125984000Y-110490000D02*
X128910489Y-113416489D01*
X128910489Y-113416489D02*
X128910489Y-119375489D01*
X128910489Y-119375489D02*
X130185000Y-120650000D01*
%TO.N,Net-(J5-Pad2)*%
X114744500Y-106362500D02*
X114744500Y-107696000D01*
X114681000Y-106426000D02*
X114744500Y-106362500D01*
X114744500Y-105156000D02*
X114744500Y-106362500D01*
X109601000Y-106426000D02*
X114681000Y-106426000D01*
X108585000Y-105410000D02*
X109601000Y-106426000D01*
%TO.N,/STM8_RST*%
X115336489Y-102890489D02*
X110236000Y-97790000D01*
X110236000Y-97790000D02*
X108585000Y-97790000D01*
X121412000Y-106680000D02*
X120121511Y-105389511D01*
X120121511Y-105389511D02*
X120121511Y-103622435D01*
X119389565Y-102890489D02*
X115336489Y-102890489D01*
X120121511Y-103622435D02*
X119389565Y-102890489D01*
%TO.N,Net-(J5-Pad6)*%
X120121511Y-100309511D02*
X113644511Y-100309511D01*
X121412000Y-101600000D02*
X120121511Y-100309511D01*
X113644511Y-100309511D02*
X108585000Y-95250000D01*
%TO.N,Net-(MOD1-Pad6)*%
X129857500Y-103378000D02*
X128894511Y-102415011D01*
X128894511Y-102415011D02*
X128894511Y-83799511D01*
X128894511Y-83799511D02*
X127645000Y-82550000D01*
%TO.N,Net-(MOD1-Pad7)*%
X129857500Y-86493396D02*
X130185000Y-86165896D01*
X129857500Y-100076000D02*
X129857500Y-86493396D01*
X130185000Y-86165896D02*
X130185000Y-85090000D01*
%TO.N,/TXD*%
X130185000Y-118110000D02*
X130185000Y-113675000D01*
X130185000Y-113675000D02*
X126238000Y-109728000D01*
X126238000Y-109728000D02*
X113538000Y-109728000D01*
X112839500Y-109029500D02*
X112839500Y-107696000D01*
X113538000Y-109728000D02*
X112839500Y-109029500D01*
%TD*%
%TA.AperFunction,Conductor*%
%TO.N,GND*%
G36*
X132638163Y-78124501D02*
G01*
X132784201Y-78124501D01*
X132811534Y-78127501D01*
X134521334Y-78507455D01*
X134583493Y-78541759D01*
X134617239Y-78604222D01*
X134620000Y-78630455D01*
X134620000Y-91186000D01*
X135382000Y-91948000D01*
X148245184Y-91948000D01*
X148313305Y-91968002D01*
X148359798Y-92021658D01*
X148364718Y-92034155D01*
X149345534Y-94976602D01*
X149352000Y-95016447D01*
X149352000Y-98498928D01*
X149331998Y-98567049D01*
X149278342Y-98613542D01*
X149226000Y-98624928D01*
X146503000Y-98624928D01*
X146503000Y-105083071D01*
X149226000Y-105083071D01*
X149294121Y-105103073D01*
X149340614Y-105156729D01*
X149352000Y-105209071D01*
X149352000Y-108186353D01*
X149347152Y-108220968D01*
X148362110Y-111668615D01*
X148324163Y-111728620D01*
X148259800Y-111758583D01*
X148240958Y-111760000D01*
X135382000Y-111760000D01*
X134620000Y-112522000D01*
X134620000Y-122501000D01*
X134599998Y-122569121D01*
X134546342Y-122615614D01*
X134494000Y-122627000D01*
X127334929Y-122627000D01*
X127334929Y-125350000D01*
X127314927Y-125418121D01*
X127261271Y-125464614D01*
X127208929Y-125476000D01*
X120916476Y-125476000D01*
X120891765Y-125473553D01*
X119641692Y-125223538D01*
X119626558Y-125219519D01*
X119018699Y-125016900D01*
X118410813Y-124814271D01*
X118408148Y-124813349D01*
X118191848Y-124735724D01*
X118187303Y-124733993D01*
X117305047Y-124378349D01*
X117300569Y-124376443D01*
X116432667Y-123986978D01*
X116428267Y-123984900D01*
X116062412Y-123803440D01*
X115657520Y-123602618D01*
X115651014Y-123599151D01*
X114690255Y-123050146D01*
X114049756Y-122684146D01*
X114042378Y-122679585D01*
X112525835Y-121668557D01*
X112518371Y-121663177D01*
X112430289Y-121594669D01*
X121157001Y-121594669D01*
X121157371Y-121601490D01*
X121162895Y-121652352D01*
X121166521Y-121667604D01*
X121211676Y-121788054D01*
X121220214Y-121803649D01*
X121296715Y-121905724D01*
X121309276Y-121918285D01*
X121411351Y-121994786D01*
X121426946Y-122003324D01*
X121547394Y-122048478D01*
X121562649Y-122052105D01*
X121613514Y-122057631D01*
X121620328Y-122058000D01*
X122292885Y-122058000D01*
X122308124Y-122053525D01*
X122309329Y-122052135D01*
X122311000Y-122044452D01*
X122311000Y-120922115D01*
X122306525Y-120906876D01*
X122305135Y-120905671D01*
X122297452Y-120904000D01*
X121175116Y-120904000D01*
X121159877Y-120908475D01*
X121158672Y-120909865D01*
X121157001Y-120917548D01*
X121157001Y-121594669D01*
X112430289Y-121594669D01*
X110923767Y-120422930D01*
X110920707Y-120420473D01*
X110837192Y-120351237D01*
X110833507Y-120348060D01*
X110147620Y-119733252D01*
X110125179Y-119713136D01*
X110121654Y-119709853D01*
X109808548Y-119406589D01*
X109802053Y-119399810D01*
X109783556Y-119379000D01*
X109359074Y-118901458D01*
X109061076Y-118566210D01*
X109030769Y-118502007D01*
X109039984Y-118431611D01*
X109085795Y-118377372D01*
X109155250Y-118356500D01*
X120901929Y-118356500D01*
X120901929Y-118102228D01*
X120907023Y-118084880D01*
X120903945Y-118078742D01*
X120903725Y-118076292D01*
X121150482Y-118076292D01*
X121153720Y-118094975D01*
X121165627Y-118301468D01*
X121167061Y-118311670D01*
X121215685Y-118527439D01*
X121218773Y-118537292D01*
X121301986Y-118742220D01*
X121306634Y-118751421D01*
X121395097Y-118895781D01*
X121405553Y-118905242D01*
X121414331Y-118901458D01*
X122192979Y-118122811D01*
X122200592Y-118108868D01*
X122200461Y-118107034D01*
X122196210Y-118100420D01*
X121418862Y-117323073D01*
X121407330Y-117316776D01*
X121395048Y-117326399D01*
X121339467Y-117407877D01*
X121334379Y-117416833D01*
X121241252Y-117617459D01*
X121237689Y-117627146D01*
X121178581Y-117840280D01*
X121176650Y-117850400D01*
X121153216Y-118069680D01*
X121150482Y-118076292D01*
X120903725Y-118076292D01*
X120901929Y-118056291D01*
X120901929Y-116950711D01*
X121770508Y-116950711D01*
X121777251Y-116963040D01*
X122552189Y-117737979D01*
X122566132Y-117745592D01*
X122567966Y-117745461D01*
X122574580Y-117741210D01*
X123353994Y-116961795D01*
X123361011Y-116948944D01*
X123353237Y-116938274D01*
X123350902Y-116936430D01*
X123342320Y-116930729D01*
X123148678Y-116823833D01*
X123139272Y-116819606D01*
X122930772Y-116745772D01*
X122920809Y-116743140D01*
X122703047Y-116704350D01*
X122692796Y-116703381D01*
X122471616Y-116700679D01*
X122461332Y-116701399D01*
X122242693Y-116734855D01*
X122232666Y-116737244D01*
X122022426Y-116805961D01*
X122012916Y-116809958D01*
X121816725Y-116912089D01*
X121808007Y-116917578D01*
X121778961Y-116939386D01*
X121770508Y-116950711D01*
X120901929Y-116950711D01*
X120901929Y-112275500D01*
X105158072Y-112275500D01*
X105158072Y-112284809D01*
X105125578Y-112344317D01*
X105063266Y-112378342D01*
X104992450Y-112373277D01*
X104935615Y-112330730D01*
X104923785Y-112311570D01*
X104395653Y-111255306D01*
X104392539Y-111248591D01*
X103642188Y-109497772D01*
X103632000Y-109448138D01*
X103632000Y-105410000D01*
X107279532Y-105410000D01*
X107299365Y-105636692D01*
X107300788Y-105642004D01*
X107300789Y-105642007D01*
X107355281Y-105845373D01*
X107358261Y-105856496D01*
X107360583Y-105861476D01*
X107360584Y-105861478D01*
X107440216Y-106032247D01*
X107454432Y-106062734D01*
X107584953Y-106249139D01*
X107745861Y-106410047D01*
X107760489Y-106420290D01*
X107804816Y-106475744D01*
X107812126Y-106546363D01*
X107780095Y-106609724D01*
X107718894Y-106645709D01*
X107688217Y-106649501D01*
X107653482Y-106649501D01*
X107648589Y-106650276D01*
X107648588Y-106650276D01*
X107569494Y-106662802D01*
X107569492Y-106662803D01*
X107559696Y-106664354D01*
X107550859Y-106668857D01*
X107550858Y-106668857D01*
X107539734Y-106674525D01*
X107446658Y-106721950D01*
X107356950Y-106811658D01*
X107299354Y-106924696D01*
X107284500Y-107018481D01*
X107284501Y-108881518D01*
X107285276Y-108886411D01*
X107285276Y-108886412D01*
X107289750Y-108914659D01*
X107299354Y-108975304D01*
X107356950Y-109088342D01*
X107446658Y-109178050D01*
X107559696Y-109235646D01*
X107569485Y-109237196D01*
X107569487Y-109237197D01*
X107591770Y-109240726D01*
X107653481Y-109250500D01*
X107779466Y-109250500D01*
X109054784Y-109250499D01*
X109122905Y-109270501D01*
X109143879Y-109287404D01*
X110725130Y-110868655D01*
X110728783Y-110872464D01*
X110770799Y-110918156D01*
X110807797Y-110941095D01*
X110817548Y-110947797D01*
X110852216Y-110974112D01*
X110866193Y-110979646D01*
X110886202Y-110989709D01*
X110891688Y-110993111D01*
X110891692Y-110993113D01*
X110898986Y-110997635D01*
X110907228Y-111000029D01*
X110907231Y-111000031D01*
X110940784Y-111009779D01*
X110951997Y-111013618D01*
X110992453Y-111029635D01*
X111000996Y-111030533D01*
X111000997Y-111030533D01*
X111007402Y-111031206D01*
X111029380Y-111035518D01*
X111043825Y-111039715D01*
X111050408Y-111040198D01*
X111050411Y-111040199D01*
X111052208Y-111040331D01*
X111052219Y-111040331D01*
X111054515Y-111040500D01*
X111089219Y-111040500D01*
X111102390Y-111041190D01*
X111142454Y-111045401D01*
X111150919Y-111043969D01*
X111150928Y-111043969D01*
X111161000Y-111042265D01*
X111182013Y-111040500D01*
X125703785Y-111040500D01*
X125771906Y-111060502D01*
X125792880Y-111077405D01*
X128323084Y-113607609D01*
X128357110Y-113669921D01*
X128359989Y-113696704D01*
X128359989Y-116810681D01*
X128339987Y-116878802D01*
X128286331Y-116925295D01*
X128216057Y-116935399D01*
X128180739Y-116924876D01*
X128096478Y-116885584D01*
X128096476Y-116885583D01*
X128091496Y-116883261D01*
X128086188Y-116881839D01*
X128086186Y-116881838D01*
X127877007Y-116825789D01*
X127877005Y-116825789D01*
X127871692Y-116824365D01*
X127645000Y-116804532D01*
X127418308Y-116824365D01*
X127412995Y-116825789D01*
X127412993Y-116825789D01*
X127203814Y-116881838D01*
X127203812Y-116881839D01*
X127198504Y-116883261D01*
X127193524Y-116885583D01*
X127193522Y-116885584D01*
X126997247Y-116977109D01*
X126997244Y-116977111D01*
X126992266Y-116979432D01*
X126805861Y-117109953D01*
X126644953Y-117270861D01*
X126514432Y-117457266D01*
X126512111Y-117462244D01*
X126512109Y-117462247D01*
X126489195Y-117511387D01*
X126442278Y-117564672D01*
X126374000Y-117584133D01*
X126306041Y-117563591D01*
X126260805Y-117511387D01*
X126237891Y-117462247D01*
X126237889Y-117462244D01*
X126235568Y-117457266D01*
X126105047Y-117270861D01*
X125944139Y-117109953D01*
X125757734Y-116979432D01*
X125752756Y-116977111D01*
X125752753Y-116977109D01*
X125556478Y-116885584D01*
X125556476Y-116885583D01*
X125551496Y-116883261D01*
X125546188Y-116881839D01*
X125546186Y-116881838D01*
X125337007Y-116825789D01*
X125337005Y-116825789D01*
X125331692Y-116824365D01*
X125105000Y-116804532D01*
X124878308Y-116824365D01*
X124872995Y-116825789D01*
X124872993Y-116825789D01*
X124663814Y-116881838D01*
X124663812Y-116881839D01*
X124658504Y-116883261D01*
X124653524Y-116885583D01*
X124653522Y-116885584D01*
X124457247Y-116977109D01*
X124457244Y-116977111D01*
X124452266Y-116979432D01*
X124265861Y-117109953D01*
X124104953Y-117270861D01*
X124101794Y-117275373D01*
X124001388Y-117418768D01*
X123945931Y-117463097D01*
X123875312Y-117470406D01*
X123811951Y-117438376D01*
X123792383Y-117414938D01*
X123734224Y-117325038D01*
X123723538Y-117315835D01*
X123713973Y-117320238D01*
X122937021Y-118097189D01*
X122929408Y-118111132D01*
X122929539Y-118112966D01*
X122933790Y-118119580D01*
X123711307Y-118897096D01*
X123723313Y-118903652D01*
X123735052Y-118894684D01*
X123773010Y-118841859D01*
X123778321Y-118833019D01*
X123785622Y-118818248D01*
X123833737Y-118766042D01*
X123902438Y-118748136D01*
X123969914Y-118770216D01*
X124001791Y-118801807D01*
X124104953Y-118949139D01*
X124265861Y-119110047D01*
X124452266Y-119240568D01*
X124457244Y-119242889D01*
X124457247Y-119242891D01*
X124475757Y-119251522D01*
X124499246Y-119262475D01*
X124506387Y-119265805D01*
X124559672Y-119312722D01*
X124579133Y-119381000D01*
X124558591Y-119448959D01*
X124506387Y-119494195D01*
X124457247Y-119517109D01*
X124457244Y-119517111D01*
X124452266Y-119519432D01*
X124265861Y-119649953D01*
X124182562Y-119733252D01*
X124120250Y-119767278D01*
X124049435Y-119762213D01*
X123992599Y-119719666D01*
X123968204Y-119657765D01*
X123967105Y-119647647D01*
X123963479Y-119632396D01*
X123918324Y-119511946D01*
X123909786Y-119496351D01*
X123833285Y-119394276D01*
X123820724Y-119381715D01*
X123718649Y-119305214D01*
X123703054Y-119296676D01*
X123582606Y-119251522D01*
X123567351Y-119247895D01*
X123516486Y-119242369D01*
X123509672Y-119242000D01*
X123498896Y-119242000D01*
X123448158Y-119256898D01*
X123447068Y-119253187D01*
X123424642Y-119262475D01*
X123354774Y-119249868D01*
X123322081Y-119226292D01*
X122577811Y-118482021D01*
X122563868Y-118474408D01*
X122562034Y-118474539D01*
X122555420Y-118478790D01*
X121804643Y-119229568D01*
X121742330Y-119263593D01*
X121671515Y-119258529D01*
X121655161Y-119251060D01*
X121638571Y-119242001D01*
X121620331Y-119242001D01*
X121613510Y-119242371D01*
X121562648Y-119247895D01*
X121547396Y-119251521D01*
X121426946Y-119296676D01*
X121411351Y-119305214D01*
X121309276Y-119381715D01*
X121296715Y-119394276D01*
X121220214Y-119496351D01*
X121211676Y-119511946D01*
X121166522Y-119632394D01*
X121162895Y-119647649D01*
X121157369Y-119698514D01*
X121157000Y-119705328D01*
X121157000Y-120377885D01*
X121161475Y-120393124D01*
X121162865Y-120394329D01*
X121170548Y-120396000D01*
X122693000Y-120396000D01*
X122761121Y-120416002D01*
X122807614Y-120469658D01*
X122819000Y-120522000D01*
X122819000Y-122039884D01*
X122823475Y-122055123D01*
X122824865Y-122056328D01*
X122832548Y-122057999D01*
X123509669Y-122057999D01*
X123516490Y-122057629D01*
X123567352Y-122052105D01*
X123582604Y-122048479D01*
X123703054Y-122003324D01*
X123718649Y-121994786D01*
X123820724Y-121918285D01*
X123833285Y-121905724D01*
X123909786Y-121803649D01*
X123918324Y-121788054D01*
X123963478Y-121667606D01*
X123967106Y-121652350D01*
X123968204Y-121642238D01*
X123995444Y-121576675D01*
X124053807Y-121536248D01*
X124124761Y-121533791D01*
X124182562Y-121566748D01*
X124265861Y-121650047D01*
X124452266Y-121780568D01*
X124457244Y-121782889D01*
X124457247Y-121782891D01*
X124653522Y-121874416D01*
X124658504Y-121876739D01*
X124663812Y-121878161D01*
X124663814Y-121878162D01*
X124872993Y-121934211D01*
X124872995Y-121934211D01*
X124878308Y-121935635D01*
X125105000Y-121955468D01*
X125331692Y-121935635D01*
X125337005Y-121934211D01*
X125337007Y-121934211D01*
X125546186Y-121878162D01*
X125546188Y-121878161D01*
X125551496Y-121876739D01*
X125556478Y-121874416D01*
X125752753Y-121782891D01*
X125752756Y-121782889D01*
X125757734Y-121780568D01*
X125944139Y-121650047D01*
X126105047Y-121489139D01*
X126235568Y-121302734D01*
X126260805Y-121248613D01*
X126307722Y-121195328D01*
X126376000Y-121175867D01*
X126443959Y-121196409D01*
X126489195Y-121248612D01*
X126514432Y-121302734D01*
X126644953Y-121489139D01*
X126805861Y-121650047D01*
X126992266Y-121780568D01*
X126997244Y-121782889D01*
X126997247Y-121782891D01*
X127193522Y-121874416D01*
X127198504Y-121876739D01*
X127203812Y-121878161D01*
X127203814Y-121878162D01*
X127412993Y-121934211D01*
X127412995Y-121934211D01*
X127418308Y-121935635D01*
X127645000Y-121955468D01*
X127871692Y-121935635D01*
X127877005Y-121934211D01*
X127877007Y-121934211D01*
X128086186Y-121878162D01*
X128086188Y-121878161D01*
X128091496Y-121876739D01*
X128096478Y-121874416D01*
X128292753Y-121782891D01*
X128292756Y-121782889D01*
X128297734Y-121780568D01*
X128484139Y-121650047D01*
X128645047Y-121489139D01*
X128775568Y-121302734D01*
X128800805Y-121248613D01*
X128847722Y-121195328D01*
X128916000Y-121175867D01*
X128983959Y-121196409D01*
X129029195Y-121248612D01*
X129054432Y-121302734D01*
X129184953Y-121489139D01*
X129345861Y-121650047D01*
X129532266Y-121780568D01*
X129537244Y-121782889D01*
X129537247Y-121782891D01*
X129733522Y-121874416D01*
X129738504Y-121876739D01*
X129743812Y-121878161D01*
X129743814Y-121878162D01*
X129952993Y-121934211D01*
X129952995Y-121934211D01*
X129958308Y-121935635D01*
X130185000Y-121955468D01*
X130411692Y-121935635D01*
X130417005Y-121934211D01*
X130417007Y-121934211D01*
X130626186Y-121878162D01*
X130626188Y-121878161D01*
X130631496Y-121876739D01*
X130636478Y-121874416D01*
X130832753Y-121782891D01*
X130832756Y-121782889D01*
X130837734Y-121780568D01*
X131024139Y-121650047D01*
X131185047Y-121489139D01*
X131315568Y-121302734D01*
X131335805Y-121259336D01*
X131382723Y-121206051D01*
X131451000Y-121186590D01*
X131518960Y-121207132D01*
X131564195Y-121259336D01*
X131584432Y-121302734D01*
X131714953Y-121489139D01*
X131875861Y-121650047D01*
X132062266Y-121780568D01*
X132067244Y-121782889D01*
X132067247Y-121782891D01*
X132263522Y-121874416D01*
X132268504Y-121876739D01*
X132273812Y-121878161D01*
X132273814Y-121878162D01*
X132482993Y-121934211D01*
X132482995Y-121934211D01*
X132488308Y-121935635D01*
X132715000Y-121955468D01*
X132941692Y-121935635D01*
X132947005Y-121934211D01*
X132947007Y-121934211D01*
X133156186Y-121878162D01*
X133156188Y-121878161D01*
X133161496Y-121876739D01*
X133166478Y-121874416D01*
X133362753Y-121782891D01*
X133362756Y-121782889D01*
X133367734Y-121780568D01*
X133554139Y-121650047D01*
X133715047Y-121489139D01*
X133845568Y-121302734D01*
X133890653Y-121206051D01*
X133939416Y-121101478D01*
X133939417Y-121101476D01*
X133941739Y-121096496D01*
X133991747Y-120909865D01*
X133999211Y-120882007D01*
X133999211Y-120882005D01*
X134000635Y-120876692D01*
X134020468Y-120650000D01*
X134000635Y-120423308D01*
X133999211Y-120417993D01*
X133943162Y-120208814D01*
X133943161Y-120208812D01*
X133941739Y-120203504D01*
X133939416Y-120198522D01*
X133847891Y-120002247D01*
X133847889Y-120002244D01*
X133845568Y-119997266D01*
X133715047Y-119810861D01*
X133554139Y-119649953D01*
X133367734Y-119519432D01*
X133362756Y-119517111D01*
X133362753Y-119517109D01*
X133313613Y-119494195D01*
X133260328Y-119447278D01*
X133240867Y-119379000D01*
X133261409Y-119311041D01*
X133313613Y-119265805D01*
X133320755Y-119262475D01*
X133344243Y-119251522D01*
X133362753Y-119242891D01*
X133362756Y-119242889D01*
X133367734Y-119240568D01*
X133554139Y-119110047D01*
X133715047Y-118949139D01*
X133845568Y-118762734D01*
X133850844Y-118751421D01*
X133939416Y-118561478D01*
X133939417Y-118561476D01*
X133941739Y-118556496D01*
X133961695Y-118482021D01*
X133999211Y-118342007D01*
X133999211Y-118342005D01*
X134000635Y-118336692D01*
X134020468Y-118110000D01*
X134000635Y-117883308D01*
X133999211Y-117877993D01*
X133943162Y-117668814D01*
X133943161Y-117668812D01*
X133941739Y-117663504D01*
X133920268Y-117617459D01*
X133847891Y-117462247D01*
X133847889Y-117462244D01*
X133845568Y-117457266D01*
X133715047Y-117270861D01*
X133554139Y-117109953D01*
X133367734Y-116979432D01*
X133362756Y-116977111D01*
X133362753Y-116977109D01*
X133166478Y-116885584D01*
X133166476Y-116885583D01*
X133161496Y-116883261D01*
X133156188Y-116881839D01*
X133156186Y-116881838D01*
X132947007Y-116825789D01*
X132947005Y-116825789D01*
X132941692Y-116824365D01*
X132715000Y-116804532D01*
X132488308Y-116824365D01*
X132482995Y-116825789D01*
X132482993Y-116825789D01*
X132273814Y-116881838D01*
X132273812Y-116881839D01*
X132268504Y-116883261D01*
X132263524Y-116885583D01*
X132263522Y-116885584D01*
X132067247Y-116977109D01*
X132067244Y-116977111D01*
X132062266Y-116979432D01*
X131875861Y-117109953D01*
X131714953Y-117270861D01*
X131584432Y-117457266D01*
X131582111Y-117462244D01*
X131582109Y-117462247D01*
X131564195Y-117500664D01*
X131517277Y-117553949D01*
X131449000Y-117573410D01*
X131381040Y-117552868D01*
X131335805Y-117500664D01*
X131317891Y-117462247D01*
X131317889Y-117462244D01*
X131315568Y-117457266D01*
X131185047Y-117270861D01*
X131024139Y-117109953D01*
X130837734Y-116979432D01*
X130832757Y-116977111D01*
X130832748Y-116977106D01*
X130808249Y-116965682D01*
X130754964Y-116918765D01*
X130735500Y-116851488D01*
X130735500Y-113689993D01*
X130735611Y-113684717D01*
X130737850Y-113631291D01*
X130738210Y-113622706D01*
X130734669Y-113607609D01*
X130728273Y-113580338D01*
X130726110Y-113568667D01*
X130721372Y-113534081D01*
X130720206Y-113525568D01*
X130714235Y-113511770D01*
X130707201Y-113490501D01*
X130705729Y-113484225D01*
X130703768Y-113475864D01*
X130699631Y-113468339D01*
X130699630Y-113468336D01*
X130682805Y-113437732D01*
X130677589Y-113427087D01*
X130660305Y-113387145D01*
X130650842Y-113375459D01*
X130638354Y-113356874D01*
X130634290Y-113349482D01*
X130631107Y-113343692D01*
X130624103Y-113335578D01*
X130599567Y-113311042D01*
X130590742Y-113301241D01*
X130570794Y-113276608D01*
X130570793Y-113276607D01*
X130565386Y-113269930D01*
X130558388Y-113264957D01*
X130558383Y-113264952D01*
X130550052Y-113259032D01*
X130533946Y-113245421D01*
X126739952Y-109451428D01*
X129045593Y-109451428D01*
X129062472Y-109744159D01*
X129063297Y-109748364D01*
X129063298Y-109748372D01*
X129103343Y-109952481D01*
X129118923Y-110031891D01*
X129213901Y-110309300D01*
X129232570Y-110346419D01*
X129335082Y-110550240D01*
X129345649Y-110571251D01*
X129511729Y-110812900D01*
X129709068Y-111029772D01*
X129712357Y-111032522D01*
X129930722Y-111215104D01*
X129930727Y-111215108D01*
X129934014Y-111217856D01*
X129983010Y-111248591D01*
X130178765Y-111371389D01*
X130178769Y-111371391D01*
X130182405Y-111373672D01*
X130186315Y-111375437D01*
X130186316Y-111375438D01*
X130445732Y-111492569D01*
X130445736Y-111492571D01*
X130449644Y-111494335D01*
X130453764Y-111495555D01*
X130453763Y-111495555D01*
X130726674Y-111576395D01*
X130726678Y-111576396D01*
X130730787Y-111577613D01*
X130735021Y-111578261D01*
X130735026Y-111578262D01*
X131016388Y-111621316D01*
X131016390Y-111621316D01*
X131020630Y-111621965D01*
X131169874Y-111624310D01*
X131309520Y-111626504D01*
X131309526Y-111626504D01*
X131313811Y-111626571D01*
X131604905Y-111591345D01*
X131888525Y-111516939D01*
X132159422Y-111404729D01*
X132412585Y-111256793D01*
X132459332Y-111220139D01*
X132639956Y-111078511D01*
X132643328Y-111075867D01*
X132686608Y-111031206D01*
X132796160Y-110918156D01*
X132847381Y-110865300D01*
X133020970Y-110628988D01*
X133067567Y-110543167D01*
X133158831Y-110375080D01*
X133158832Y-110375078D01*
X133160881Y-110371304D01*
X133264526Y-110097015D01*
X133323778Y-109838309D01*
X133329030Y-109815378D01*
X133329031Y-109815373D01*
X133329987Y-109811198D01*
X133356052Y-109519142D01*
X133356525Y-109474000D01*
X133353382Y-109427892D01*
X133336874Y-109185739D01*
X133336873Y-109185733D01*
X133336582Y-109181462D01*
X133334424Y-109171039D01*
X133295719Y-108984142D01*
X133277121Y-108894337D01*
X133179243Y-108617938D01*
X133044759Y-108357380D01*
X132876158Y-108117484D01*
X132873233Y-108114336D01*
X132679479Y-107905833D01*
X132679476Y-107905831D01*
X132676558Y-107902690D01*
X132449655Y-107716972D01*
X132199646Y-107563766D01*
X132159416Y-107546106D01*
X131935090Y-107447634D01*
X131931158Y-107445908D01*
X131904707Y-107438373D01*
X131653287Y-107366754D01*
X131653288Y-107366754D01*
X131649159Y-107365578D01*
X131418381Y-107332734D01*
X131363119Y-107324869D01*
X131363117Y-107324869D01*
X131358867Y-107324264D01*
X131354578Y-107324242D01*
X131354571Y-107324241D01*
X131069939Y-107322750D01*
X131069932Y-107322750D01*
X131065653Y-107322728D01*
X131061408Y-107323287D01*
X131061406Y-107323287D01*
X130996086Y-107331887D01*
X130774945Y-107361001D01*
X130492120Y-107438373D01*
X130222412Y-107553413D01*
X130218731Y-107555616D01*
X129974495Y-107701788D01*
X129974491Y-107701791D01*
X129970813Y-107703992D01*
X129741977Y-107887324D01*
X129648842Y-107985468D01*
X129543477Y-108096500D01*
X129540139Y-108100017D01*
X129369035Y-108338134D01*
X129231830Y-108597269D01*
X129131063Y-108872628D01*
X129068599Y-109159114D01*
X129045593Y-109451428D01*
X126739952Y-109451428D01*
X126637882Y-109349358D01*
X126634229Y-109345549D01*
X126598015Y-109306167D01*
X126592201Y-109299844D01*
X126555198Y-109276901D01*
X126545448Y-109270200D01*
X126510783Y-109243888D01*
X126496804Y-109238354D01*
X126476801Y-109228293D01*
X126464014Y-109220365D01*
X126455763Y-109217968D01*
X126455761Y-109217967D01*
X126422228Y-109208225D01*
X126410995Y-109204379D01*
X126370547Y-109188364D01*
X126362006Y-109187466D01*
X126362005Y-109187466D01*
X126355592Y-109186792D01*
X126333617Y-109182480D01*
X126319175Y-109178285D01*
X126311692Y-109177735D01*
X126310792Y-109177669D01*
X126310781Y-109177669D01*
X126308485Y-109177500D01*
X126273783Y-109177500D01*
X126260613Y-109176810D01*
X126250384Y-109175735D01*
X126220546Y-109172599D01*
X126212081Y-109174031D01*
X126212072Y-109174031D01*
X126202000Y-109175735D01*
X126180987Y-109177500D01*
X113818216Y-109177500D01*
X113750095Y-109157498D01*
X113729121Y-109140595D01*
X113503185Y-108914659D01*
X113469159Y-108852347D01*
X113474224Y-108781532D01*
X113516949Y-108725298D01*
X113522342Y-108722550D01*
X113612050Y-108632842D01*
X113669646Y-108519804D01*
X113671197Y-108510011D01*
X113672167Y-108507026D01*
X113712240Y-108448420D01*
X113777637Y-108420783D01*
X113847593Y-108432890D01*
X113899900Y-108480896D01*
X113911833Y-108507026D01*
X113912803Y-108510012D01*
X113914354Y-108519804D01*
X113971950Y-108632842D01*
X114061658Y-108722550D01*
X114174696Y-108780146D01*
X114184485Y-108781696D01*
X114184487Y-108781697D01*
X114211849Y-108786030D01*
X114268481Y-108795000D01*
X114744403Y-108795000D01*
X115220518Y-108794999D01*
X115225412Y-108794224D01*
X115304506Y-108781698D01*
X115304508Y-108781697D01*
X115314304Y-108780146D01*
X115427342Y-108722550D01*
X115517050Y-108632842D01*
X115574646Y-108519804D01*
X115589500Y-108426019D01*
X115589499Y-106965982D01*
X115583034Y-106925159D01*
X115576198Y-106881994D01*
X115576197Y-106881992D01*
X115574646Y-106872196D01*
X115517050Y-106759158D01*
X115427342Y-106669450D01*
X115363797Y-106637072D01*
X115312182Y-106588323D01*
X115295000Y-106524805D01*
X115295000Y-106398290D01*
X115295690Y-106385119D01*
X115299004Y-106353590D01*
X115299004Y-106353589D01*
X115299902Y-106345045D01*
X115298468Y-106336569D01*
X115298247Y-106329534D01*
X115316097Y-106260818D01*
X115366982Y-106213305D01*
X115402417Y-106195250D01*
X115427342Y-106182550D01*
X115517050Y-106092842D01*
X115574646Y-105979804D01*
X115577479Y-105961921D01*
X115582570Y-105929775D01*
X115589500Y-105886019D01*
X115589499Y-104425982D01*
X115587416Y-104412828D01*
X115576198Y-104341994D01*
X115576197Y-104341992D01*
X115574646Y-104332196D01*
X115562480Y-104308318D01*
X115548151Y-104280197D01*
X115517050Y-104219158D01*
X115427342Y-104129450D01*
X115314304Y-104071854D01*
X115304515Y-104070304D01*
X115304513Y-104070303D01*
X115277151Y-104065970D01*
X115220519Y-104057000D01*
X114744597Y-104057000D01*
X114268482Y-104057001D01*
X114263589Y-104057776D01*
X114263588Y-104057776D01*
X114184494Y-104070302D01*
X114184492Y-104070303D01*
X114174696Y-104071854D01*
X114165859Y-104076357D01*
X114165858Y-104076357D01*
X114147255Y-104085836D01*
X114061658Y-104129450D01*
X113971950Y-104219158D01*
X113967451Y-104227988D01*
X113967445Y-104227996D01*
X113966562Y-104229730D01*
X113964931Y-104231457D01*
X113961617Y-104236018D01*
X113961028Y-104235590D01*
X113917813Y-104281345D01*
X113848898Y-104298409D01*
X113781697Y-104275507D01*
X113743631Y-104226224D01*
X113741634Y-104227318D01*
X113728786Y-104203851D01*
X113652285Y-104101776D01*
X113639724Y-104089215D01*
X113537649Y-104012714D01*
X113522054Y-104004176D01*
X113401606Y-103959022D01*
X113386351Y-103955395D01*
X113335486Y-103949869D01*
X113328672Y-103949500D01*
X113111615Y-103949500D01*
X113096376Y-103953975D01*
X113095171Y-103955365D01*
X113093500Y-103963048D01*
X113093500Y-105284000D01*
X113073498Y-105352121D01*
X113019842Y-105398614D01*
X112967500Y-105410000D01*
X111905116Y-105410000D01*
X111889877Y-105414475D01*
X111888672Y-105415865D01*
X111887001Y-105423548D01*
X111887001Y-105749500D01*
X111866999Y-105817621D01*
X111813343Y-105864114D01*
X111761001Y-105875500D01*
X109970853Y-105875500D01*
X109902732Y-105855498D01*
X109856239Y-105801842D01*
X109846135Y-105731568D01*
X109849144Y-105716898D01*
X109870635Y-105636692D01*
X109890468Y-105410000D01*
X109870635Y-105183308D01*
X109860112Y-105144035D01*
X109813162Y-104968814D01*
X109813161Y-104968812D01*
X109811739Y-104963504D01*
X109794361Y-104926237D01*
X109774612Y-104883885D01*
X111887000Y-104883885D01*
X111891475Y-104899124D01*
X111892865Y-104900329D01*
X111900548Y-104902000D01*
X112567385Y-104902000D01*
X112582624Y-104897525D01*
X112583829Y-104896135D01*
X112585500Y-104888452D01*
X112585500Y-103967616D01*
X112581025Y-103952377D01*
X112579635Y-103951172D01*
X112571952Y-103949501D01*
X112350331Y-103949501D01*
X112343510Y-103949871D01*
X112292648Y-103955395D01*
X112277396Y-103959021D01*
X112156946Y-104004176D01*
X112141351Y-104012714D01*
X112039276Y-104089215D01*
X112026715Y-104101776D01*
X111950214Y-104203851D01*
X111941676Y-104219446D01*
X111896522Y-104339894D01*
X111892895Y-104355149D01*
X111887369Y-104406014D01*
X111887000Y-104412828D01*
X111887000Y-104883885D01*
X109774612Y-104883885D01*
X109717891Y-104762247D01*
X109717889Y-104762244D01*
X109715568Y-104757266D01*
X109585047Y-104570861D01*
X109424139Y-104409953D01*
X109324696Y-104340323D01*
X109277123Y-104307012D01*
X109232794Y-104251555D01*
X109225485Y-104180936D01*
X109257515Y-104117576D01*
X109293960Y-104090648D01*
X109303782Y-104085836D01*
X109312636Y-104080559D01*
X109370097Y-104039572D01*
X109378497Y-104028874D01*
X109371510Y-104015721D01*
X108597811Y-103242021D01*
X108583868Y-103234408D01*
X108582034Y-103234539D01*
X108575420Y-103238790D01*
X107795180Y-104019031D01*
X107788423Y-104031406D01*
X107793705Y-104038462D01*
X107887043Y-104093004D01*
X107935767Y-104144642D01*
X107948838Y-104214425D01*
X107922107Y-104280197D01*
X107895743Y-104305005D01*
X107824130Y-104355149D01*
X107745861Y-104409953D01*
X107584953Y-104570861D01*
X107454432Y-104757266D01*
X107452111Y-104762244D01*
X107452109Y-104762247D01*
X107375639Y-104926237D01*
X107358261Y-104963504D01*
X107356839Y-104968812D01*
X107356838Y-104968814D01*
X107309888Y-105144035D01*
X107299365Y-105183308D01*
X107279532Y-105410000D01*
X103632000Y-105410000D01*
X103632000Y-102840638D01*
X107172893Y-102840638D01*
X107185627Y-103061468D01*
X107187061Y-103071670D01*
X107235685Y-103287439D01*
X107238773Y-103297292D01*
X107321986Y-103502220D01*
X107326634Y-103511421D01*
X107415097Y-103655781D01*
X107425553Y-103665242D01*
X107434331Y-103661458D01*
X108212979Y-102882811D01*
X108219356Y-102871132D01*
X108949408Y-102871132D01*
X108949539Y-102872966D01*
X108953790Y-102879580D01*
X109731307Y-103657096D01*
X109743313Y-103663652D01*
X109755052Y-103654684D01*
X109793010Y-103601859D01*
X109798321Y-103593020D01*
X109896318Y-103394737D01*
X109900117Y-103385142D01*
X109964415Y-103173517D01*
X109966594Y-103163436D01*
X109995702Y-102942338D01*
X109996221Y-102935663D01*
X109997744Y-102873364D01*
X109997550Y-102866646D01*
X109979279Y-102644400D01*
X109977596Y-102634238D01*
X109923710Y-102419708D01*
X109920389Y-102409953D01*
X109832193Y-102207118D01*
X109827315Y-102198020D01*
X109754224Y-102085038D01*
X109743538Y-102075835D01*
X109733973Y-102080238D01*
X108957021Y-102857189D01*
X108949408Y-102871132D01*
X108219356Y-102871132D01*
X108220592Y-102868868D01*
X108220461Y-102867034D01*
X108216210Y-102860420D01*
X107438862Y-102083073D01*
X107427330Y-102076776D01*
X107415048Y-102086399D01*
X107359467Y-102167877D01*
X107354379Y-102176833D01*
X107261252Y-102377459D01*
X107257689Y-102387146D01*
X107198581Y-102600280D01*
X107196650Y-102610400D01*
X107173145Y-102830342D01*
X107172893Y-102840638D01*
X103632000Y-102840638D01*
X103632000Y-98760407D01*
X106132559Y-98760407D01*
X106139751Y-98793672D01*
X106141615Y-98802292D01*
X106143676Y-98814874D01*
X106145744Y-98833308D01*
X106148454Y-98857472D01*
X106159350Y-98888759D01*
X106163511Y-98903563D01*
X106170511Y-98935942D01*
X106188630Y-98974799D01*
X106193414Y-98986582D01*
X106207515Y-99027073D01*
X106211249Y-99033048D01*
X106225070Y-99055167D01*
X106232408Y-99068682D01*
X106246409Y-99098707D01*
X106250728Y-99104274D01*
X106250728Y-99104275D01*
X106272674Y-99132567D01*
X106279969Y-99143024D01*
X106298950Y-99173400D01*
X106302684Y-99179375D01*
X106307646Y-99184372D01*
X106307647Y-99184373D01*
X106331003Y-99207893D01*
X106331585Y-99208515D01*
X106332099Y-99209177D01*
X106357959Y-99235037D01*
X106429230Y-99306807D01*
X106430257Y-99307459D01*
X106431465Y-99308543D01*
X107251934Y-100129012D01*
X107285960Y-100191324D01*
X107288360Y-100229088D01*
X107279532Y-100330000D01*
X107299365Y-100556692D01*
X107300789Y-100562005D01*
X107300789Y-100562007D01*
X107355281Y-100765373D01*
X107358261Y-100776496D01*
X107360583Y-100781476D01*
X107360584Y-100781478D01*
X107449123Y-100971348D01*
X107454432Y-100982734D01*
X107584953Y-101169139D01*
X107745861Y-101330047D01*
X107894705Y-101434268D01*
X107939032Y-101489722D01*
X107946341Y-101560342D01*
X107914311Y-101623702D01*
X107880613Y-101649242D01*
X107836725Y-101672089D01*
X107828007Y-101677578D01*
X107798961Y-101699386D01*
X107790508Y-101710711D01*
X107797251Y-101723040D01*
X108572189Y-102497979D01*
X108586132Y-102505592D01*
X108587966Y-102505461D01*
X108594580Y-102501210D01*
X109373994Y-101721795D01*
X109381011Y-101708944D01*
X109373237Y-101698274D01*
X109370902Y-101696430D01*
X109362316Y-101690726D01*
X109285730Y-101648448D01*
X109235760Y-101598016D01*
X109220988Y-101528573D01*
X109246104Y-101462168D01*
X109274354Y-101434927D01*
X109419627Y-101333206D01*
X109424139Y-101330047D01*
X109585047Y-101169139D01*
X109715568Y-100982734D01*
X109720878Y-100971348D01*
X109809416Y-100781478D01*
X109809417Y-100781476D01*
X109811739Y-100776496D01*
X109814720Y-100765373D01*
X109869211Y-100562007D01*
X109869211Y-100562005D01*
X109870635Y-100556692D01*
X109890468Y-100330000D01*
X109870635Y-100103308D01*
X109816972Y-99903034D01*
X109813162Y-99888814D01*
X109813161Y-99888812D01*
X109811739Y-99883504D01*
X109773050Y-99800535D01*
X109717891Y-99682247D01*
X109717889Y-99682244D01*
X109715568Y-99677266D01*
X109585047Y-99490861D01*
X109424139Y-99329953D01*
X109237734Y-99199432D01*
X109232756Y-99197111D01*
X109232753Y-99197109D01*
X109183613Y-99174195D01*
X109130328Y-99127278D01*
X109110867Y-99059000D01*
X109131409Y-98991041D01*
X109183613Y-98945805D01*
X109232753Y-98922891D01*
X109232756Y-98922889D01*
X109237734Y-98920568D01*
X109424139Y-98790047D01*
X109585047Y-98629139D01*
X109715568Y-98442734D01*
X109717889Y-98437757D01*
X109717894Y-98437748D01*
X109729318Y-98413249D01*
X109776235Y-98359964D01*
X109843512Y-98340500D01*
X109955785Y-98340500D01*
X110023906Y-98360502D01*
X110044880Y-98377405D01*
X114936619Y-103269144D01*
X114940272Y-103272953D01*
X114982288Y-103318645D01*
X115004484Y-103332407D01*
X115019272Y-103341576D01*
X115029054Y-103348299D01*
X115063706Y-103374601D01*
X115077684Y-103380135D01*
X115097688Y-103390196D01*
X115110475Y-103398124D01*
X115118726Y-103400521D01*
X115118728Y-103400522D01*
X115152261Y-103410264D01*
X115163491Y-103414109D01*
X115203942Y-103430125D01*
X115212483Y-103431023D01*
X115212484Y-103431023D01*
X115218897Y-103431697D01*
X115240872Y-103436009D01*
X115255314Y-103440204D01*
X115262797Y-103440753D01*
X115263697Y-103440820D01*
X115263708Y-103440820D01*
X115266004Y-103440989D01*
X115300706Y-103440989D01*
X115313876Y-103441679D01*
X115353943Y-103445890D01*
X115362408Y-103444458D01*
X115362417Y-103444458D01*
X115372489Y-103442754D01*
X115393502Y-103440989D01*
X117446692Y-103440989D01*
X117514813Y-103460991D01*
X117561306Y-103514647D01*
X117571410Y-103584921D01*
X117560980Y-103620039D01*
X117548253Y-103647458D01*
X117544689Y-103657146D01*
X117485581Y-103870280D01*
X117483650Y-103880400D01*
X117460145Y-104100349D01*
X117459893Y-104110638D01*
X117472627Y-104331468D01*
X117474061Y-104341670D01*
X117522685Y-104557439D01*
X117525773Y-104567292D01*
X117608986Y-104772220D01*
X117613634Y-104781421D01*
X117702097Y-104925781D01*
X117712553Y-104935242D01*
X117721331Y-104931458D01*
X118782905Y-103869885D01*
X118845217Y-103835859D01*
X118916033Y-103840924D01*
X118961095Y-103869885D01*
X119142115Y-104050905D01*
X119176141Y-104113217D01*
X119171076Y-104184032D01*
X119142115Y-104229095D01*
X118082184Y-105289027D01*
X118075424Y-105301407D01*
X118080705Y-105308462D01*
X118174043Y-105363004D01*
X118222767Y-105414642D01*
X118235838Y-105484425D01*
X118209107Y-105550197D01*
X118182743Y-105575005D01*
X118102471Y-105631212D01*
X118032861Y-105679953D01*
X117871953Y-105840861D01*
X117741432Y-106027266D01*
X117739111Y-106032244D01*
X117739109Y-106032247D01*
X117663099Y-106195250D01*
X117645261Y-106233504D01*
X117643839Y-106238812D01*
X117643838Y-106238814D01*
X117610496Y-106363250D01*
X117586365Y-106453308D01*
X117566532Y-106680000D01*
X117586365Y-106906692D01*
X117587789Y-106912005D01*
X117587789Y-106912007D01*
X117625384Y-107052312D01*
X117645261Y-107126496D01*
X117647583Y-107131476D01*
X117647584Y-107131478D01*
X117737472Y-107324241D01*
X117741432Y-107332734D01*
X117871953Y-107519139D01*
X118032861Y-107680047D01*
X118219266Y-107810568D01*
X118224244Y-107812889D01*
X118224247Y-107812891D01*
X118413280Y-107901039D01*
X118425504Y-107906739D01*
X118430812Y-107908161D01*
X118430814Y-107908162D01*
X118639993Y-107964211D01*
X118639995Y-107964211D01*
X118645308Y-107965635D01*
X118872000Y-107985468D01*
X119098692Y-107965635D01*
X119104005Y-107964211D01*
X119104007Y-107964211D01*
X119313186Y-107908162D01*
X119313188Y-107908161D01*
X119318496Y-107906739D01*
X119330720Y-107901039D01*
X119519753Y-107812891D01*
X119519756Y-107812889D01*
X119524734Y-107810568D01*
X119711139Y-107680047D01*
X119872047Y-107519139D01*
X119882290Y-107504511D01*
X119937744Y-107460184D01*
X120008363Y-107452874D01*
X120071724Y-107484905D01*
X120107709Y-107546106D01*
X120111501Y-107576783D01*
X120111501Y-107611518D01*
X120126354Y-107705304D01*
X120183950Y-107818342D01*
X120273658Y-107908050D01*
X120386696Y-107965646D01*
X120396485Y-107967196D01*
X120396487Y-107967197D01*
X120423849Y-107971530D01*
X120480481Y-107980500D01*
X121411811Y-107980500D01*
X122343518Y-107980499D01*
X122348412Y-107979724D01*
X122427506Y-107967198D01*
X122427508Y-107967197D01*
X122437304Y-107965646D01*
X122550342Y-107908050D01*
X122640050Y-107818342D01*
X122697646Y-107705304D01*
X122712500Y-107611519D01*
X122712499Y-105748482D01*
X122708708Y-105724544D01*
X122699198Y-105664494D01*
X122699197Y-105664492D01*
X122697646Y-105654696D01*
X122688473Y-105636692D01*
X122650955Y-105563061D01*
X122640050Y-105541658D01*
X122550342Y-105451950D01*
X122437304Y-105394354D01*
X122427515Y-105392804D01*
X122427513Y-105392803D01*
X122400151Y-105388470D01*
X122343519Y-105379500D01*
X122324068Y-105379500D01*
X122255947Y-105359498D01*
X122212794Y-105312611D01*
X122198509Y-105285720D01*
X121141885Y-104229095D01*
X121107859Y-104166783D01*
X121109694Y-104141132D01*
X121776408Y-104141132D01*
X121776539Y-104142966D01*
X121780790Y-104149580D01*
X122558307Y-104927096D01*
X122570313Y-104933652D01*
X122582052Y-104924684D01*
X122620010Y-104871859D01*
X122625321Y-104863020D01*
X122723318Y-104664737D01*
X122727117Y-104655142D01*
X122791415Y-104443517D01*
X122793594Y-104433436D01*
X122822702Y-104212338D01*
X122823221Y-104205663D01*
X122824744Y-104143364D01*
X122824550Y-104136646D01*
X122806279Y-103914400D01*
X122804596Y-103904238D01*
X122750710Y-103689708D01*
X122747389Y-103679953D01*
X122659193Y-103477118D01*
X122654315Y-103468020D01*
X122581224Y-103355038D01*
X122570538Y-103345835D01*
X122560973Y-103350238D01*
X121784021Y-104127189D01*
X121776408Y-104141132D01*
X121109694Y-104141132D01*
X121112924Y-104095967D01*
X121141885Y-104050905D01*
X121412000Y-103780790D01*
X122200990Y-102991799D01*
X122208010Y-102978943D01*
X122200236Y-102968273D01*
X122197902Y-102966430D01*
X122189316Y-102960726D01*
X122112730Y-102918448D01*
X122062760Y-102868016D01*
X122047988Y-102798573D01*
X122073104Y-102732168D01*
X122101354Y-102704927D01*
X122214674Y-102625580D01*
X122251139Y-102600047D01*
X122412047Y-102439139D01*
X122542568Y-102252734D01*
X122552736Y-102230930D01*
X122636416Y-102051478D01*
X122636417Y-102051476D01*
X122638739Y-102046496D01*
X122665237Y-101947606D01*
X122696211Y-101832007D01*
X122696211Y-101832005D01*
X122697635Y-101826692D01*
X122717468Y-101600000D01*
X122697635Y-101373308D01*
X122663433Y-101245662D01*
X122640162Y-101158814D01*
X122640161Y-101158812D01*
X122638739Y-101153504D01*
X122630152Y-101135089D01*
X122544891Y-100952247D01*
X122544889Y-100952244D01*
X122542568Y-100947266D01*
X122412047Y-100760861D01*
X122251139Y-100599953D01*
X122064734Y-100469432D01*
X122059756Y-100467111D01*
X122059753Y-100467109D01*
X122010613Y-100444195D01*
X121957328Y-100397278D01*
X121937867Y-100329000D01*
X121958409Y-100261041D01*
X122010613Y-100215805D01*
X122059753Y-100192891D01*
X122059756Y-100192889D01*
X122064734Y-100190568D01*
X122251139Y-100060047D01*
X122412047Y-99899139D01*
X122542568Y-99712734D01*
X122556785Y-99682247D01*
X122636416Y-99511478D01*
X122636417Y-99511476D01*
X122638739Y-99506496D01*
X122641720Y-99495373D01*
X122696211Y-99292007D01*
X122696211Y-99292005D01*
X122697635Y-99286692D01*
X122717468Y-99060000D01*
X122697635Y-98833308D01*
X122689324Y-98802292D01*
X122640162Y-98618814D01*
X122640161Y-98618812D01*
X122638739Y-98613504D01*
X122625642Y-98585418D01*
X122544891Y-98412247D01*
X122544889Y-98412244D01*
X122542568Y-98407266D01*
X122412047Y-98220861D01*
X122251139Y-98059953D01*
X122064734Y-97929432D01*
X122059756Y-97927111D01*
X122059753Y-97927109D01*
X122010613Y-97904195D01*
X121957328Y-97857278D01*
X121937867Y-97789000D01*
X121958409Y-97721041D01*
X122010613Y-97675805D01*
X122059753Y-97652891D01*
X122059756Y-97652889D01*
X122064734Y-97650568D01*
X122251139Y-97520047D01*
X122412047Y-97359139D01*
X122542568Y-97172734D01*
X122560875Y-97133476D01*
X122636416Y-96971478D01*
X122636417Y-96971476D01*
X122638739Y-96966496D01*
X122687635Y-96784015D01*
X122696211Y-96752007D01*
X122696211Y-96752005D01*
X122697635Y-96746692D01*
X122717468Y-96520000D01*
X122697635Y-96293308D01*
X122682000Y-96234957D01*
X122640162Y-96078814D01*
X122640161Y-96078812D01*
X122638739Y-96073504D01*
X122618783Y-96030709D01*
X122544891Y-95872247D01*
X122544889Y-95872244D01*
X122542568Y-95867266D01*
X122412047Y-95680861D01*
X122251139Y-95519953D01*
X122064734Y-95389432D01*
X122059756Y-95387111D01*
X122059753Y-95387109D01*
X121863478Y-95295584D01*
X121863476Y-95295583D01*
X121858496Y-95293261D01*
X121853188Y-95291839D01*
X121853186Y-95291838D01*
X121644007Y-95235789D01*
X121644005Y-95235789D01*
X121638692Y-95234365D01*
X121412000Y-95214532D01*
X121185308Y-95234365D01*
X121179995Y-95235789D01*
X121179993Y-95235789D01*
X120970814Y-95291838D01*
X120970812Y-95291839D01*
X120965504Y-95293261D01*
X120960524Y-95295583D01*
X120960522Y-95295584D01*
X120764247Y-95387109D01*
X120764244Y-95387111D01*
X120759266Y-95389432D01*
X120572861Y-95519953D01*
X120411953Y-95680861D01*
X120281432Y-95867266D01*
X120279111Y-95872244D01*
X120279109Y-95872247D01*
X120256195Y-95921387D01*
X120209278Y-95974672D01*
X120141000Y-95994133D01*
X120073041Y-95973591D01*
X120027805Y-95921387D01*
X120004891Y-95872247D01*
X120004889Y-95872244D01*
X120002568Y-95867266D01*
X119872047Y-95680861D01*
X119711139Y-95519953D01*
X119524734Y-95389432D01*
X119519756Y-95387111D01*
X119519753Y-95387109D01*
X119323478Y-95295584D01*
X119323476Y-95295583D01*
X119318496Y-95293261D01*
X119313188Y-95291839D01*
X119313186Y-95291838D01*
X119104007Y-95235789D01*
X119104005Y-95235789D01*
X119098692Y-95234365D01*
X118872000Y-95214532D01*
X118645308Y-95234365D01*
X118639995Y-95235789D01*
X118639993Y-95235789D01*
X118430814Y-95291838D01*
X118430812Y-95291839D01*
X118425504Y-95293261D01*
X118420524Y-95295583D01*
X118420522Y-95295584D01*
X118224247Y-95387109D01*
X118224244Y-95387111D01*
X118219266Y-95389432D01*
X118032861Y-95519953D01*
X117871953Y-95680861D01*
X117741432Y-95867266D01*
X117739111Y-95872244D01*
X117739109Y-95872247D01*
X117665217Y-96030709D01*
X117645261Y-96073504D01*
X117643839Y-96078812D01*
X117643838Y-96078814D01*
X117602000Y-96234957D01*
X117586365Y-96293308D01*
X117566532Y-96520000D01*
X117586365Y-96746692D01*
X117587789Y-96752005D01*
X117587789Y-96752007D01*
X117596366Y-96784015D01*
X117645261Y-96966496D01*
X117647583Y-96971476D01*
X117647584Y-96971478D01*
X117723126Y-97133476D01*
X117741432Y-97172734D01*
X117871953Y-97359139D01*
X118032861Y-97520047D01*
X118219266Y-97650568D01*
X118224244Y-97652889D01*
X118224247Y-97652891D01*
X118273387Y-97675805D01*
X118326672Y-97722722D01*
X118346133Y-97791000D01*
X118325591Y-97858959D01*
X118273387Y-97904195D01*
X118224247Y-97927109D01*
X118224244Y-97927111D01*
X118219266Y-97929432D01*
X118032861Y-98059953D01*
X117871953Y-98220861D01*
X117741432Y-98407266D01*
X117739111Y-98412244D01*
X117739109Y-98412247D01*
X117658358Y-98585418D01*
X117645261Y-98613504D01*
X117643839Y-98618812D01*
X117643838Y-98618814D01*
X117594676Y-98802292D01*
X117586365Y-98833308D01*
X117566532Y-99060000D01*
X117586365Y-99286692D01*
X117587789Y-99292005D01*
X117587789Y-99292007D01*
X117642281Y-99495373D01*
X117645261Y-99506496D01*
X117647583Y-99511476D01*
X117647584Y-99511478D01*
X117679425Y-99579761D01*
X117690086Y-99649953D01*
X117661106Y-99714765D01*
X117601686Y-99753622D01*
X117565230Y-99759011D01*
X113924726Y-99759011D01*
X113856605Y-99739009D01*
X113835631Y-99722106D01*
X109862815Y-95749291D01*
X109828789Y-95686979D01*
X109830203Y-95627587D01*
X109870635Y-95476692D01*
X109890468Y-95250000D01*
X109870635Y-95023308D01*
X109846480Y-94933160D01*
X109813162Y-94808814D01*
X109813161Y-94808812D01*
X109811739Y-94803504D01*
X109801244Y-94780997D01*
X109717891Y-94602247D01*
X109717889Y-94602244D01*
X109715568Y-94597266D01*
X109585047Y-94410861D01*
X109424139Y-94249953D01*
X109237734Y-94119432D01*
X109232756Y-94117111D01*
X109232753Y-94117109D01*
X109036478Y-94025584D01*
X109036476Y-94025583D01*
X109031496Y-94023261D01*
X109026188Y-94021839D01*
X109026186Y-94021838D01*
X108817007Y-93965789D01*
X108817005Y-93965789D01*
X108811692Y-93964365D01*
X108585000Y-93944532D01*
X108358308Y-93964365D01*
X108352995Y-93965789D01*
X108352993Y-93965789D01*
X108143814Y-94021838D01*
X108143812Y-94021839D01*
X108138504Y-94023261D01*
X108133524Y-94025583D01*
X108133522Y-94025584D01*
X107937247Y-94117109D01*
X107937244Y-94117111D01*
X107932266Y-94119432D01*
X107927761Y-94122586D01*
X107923503Y-94125045D01*
X107854509Y-94141785D01*
X107787416Y-94118567D01*
X107743527Y-94062761D01*
X107734500Y-94015928D01*
X107734500Y-93135669D01*
X109728001Y-93135669D01*
X109728371Y-93142490D01*
X109733895Y-93193352D01*
X109737521Y-93208604D01*
X109782676Y-93329054D01*
X109791214Y-93344649D01*
X109867715Y-93446724D01*
X109880276Y-93459285D01*
X109982351Y-93535786D01*
X109997946Y-93544324D01*
X110118394Y-93589478D01*
X110133649Y-93593105D01*
X110184514Y-93598631D01*
X110191328Y-93599000D01*
X110979885Y-93599000D01*
X110995124Y-93594525D01*
X110996329Y-93593135D01*
X110998000Y-93585452D01*
X110998000Y-93580884D01*
X111506000Y-93580884D01*
X111510475Y-93596123D01*
X111511865Y-93597328D01*
X111519548Y-93598999D01*
X112312669Y-93598999D01*
X112319490Y-93598629D01*
X112370352Y-93593105D01*
X112385604Y-93589479D01*
X112506054Y-93544324D01*
X112521649Y-93535786D01*
X112623724Y-93459285D01*
X112636285Y-93446724D01*
X112712786Y-93344649D01*
X112721324Y-93329054D01*
X112766478Y-93208606D01*
X112770105Y-93193351D01*
X112775631Y-93142486D01*
X112776000Y-93135672D01*
X112776000Y-93135669D01*
X120904001Y-93135669D01*
X120904371Y-93142490D01*
X120909895Y-93193352D01*
X120913521Y-93208604D01*
X120958676Y-93329054D01*
X120967214Y-93344649D01*
X121043715Y-93446724D01*
X121056276Y-93459285D01*
X121158351Y-93535786D01*
X121173946Y-93544324D01*
X121294394Y-93589478D01*
X121309649Y-93593105D01*
X121360514Y-93598631D01*
X121367328Y-93599000D01*
X122155885Y-93599000D01*
X122171124Y-93594525D01*
X122172329Y-93593135D01*
X122174000Y-93585452D01*
X122174000Y-93580884D01*
X122682000Y-93580884D01*
X122686475Y-93596123D01*
X122687865Y-93597328D01*
X122695548Y-93598999D01*
X123488669Y-93598999D01*
X123495490Y-93598629D01*
X123546352Y-93593105D01*
X123561604Y-93589479D01*
X123682054Y-93544324D01*
X123697649Y-93535786D01*
X123799724Y-93459285D01*
X123812285Y-93446724D01*
X123888786Y-93344649D01*
X123897324Y-93329054D01*
X123942478Y-93208606D01*
X123946105Y-93193351D01*
X123951631Y-93142486D01*
X123952000Y-93135672D01*
X123952000Y-92601115D01*
X123947525Y-92585876D01*
X123946135Y-92584671D01*
X123938452Y-92583000D01*
X122700115Y-92583000D01*
X122684876Y-92587475D01*
X122683671Y-92588865D01*
X122682000Y-92596548D01*
X122682000Y-93580884D01*
X122174000Y-93580884D01*
X122174000Y-92601115D01*
X122169525Y-92585876D01*
X122168135Y-92584671D01*
X122160452Y-92583000D01*
X120922116Y-92583000D01*
X120906877Y-92587475D01*
X120905672Y-92588865D01*
X120904001Y-92596548D01*
X120904001Y-93135669D01*
X112776000Y-93135669D01*
X112776000Y-92601115D01*
X112771525Y-92585876D01*
X112770135Y-92584671D01*
X112762452Y-92583000D01*
X111524115Y-92583000D01*
X111508876Y-92587475D01*
X111507671Y-92588865D01*
X111506000Y-92596548D01*
X111506000Y-93580884D01*
X110998000Y-93580884D01*
X110998000Y-92601115D01*
X110993525Y-92585876D01*
X110992135Y-92584671D01*
X110984452Y-92583000D01*
X109746116Y-92583000D01*
X109730877Y-92587475D01*
X109729672Y-92588865D01*
X109728001Y-92596548D01*
X109728001Y-93135669D01*
X107734500Y-93135669D01*
X107734500Y-92331768D01*
X107754502Y-92263647D01*
X107771405Y-92242673D01*
X107957193Y-92056885D01*
X109728000Y-92056885D01*
X109732475Y-92072124D01*
X109733865Y-92073329D01*
X109741548Y-92075000D01*
X110979885Y-92075000D01*
X110995124Y-92070525D01*
X110996329Y-92069135D01*
X110998000Y-92061452D01*
X110998000Y-92056885D01*
X111506000Y-92056885D01*
X111510475Y-92072124D01*
X111511865Y-92073329D01*
X111519548Y-92075000D01*
X112757884Y-92075000D01*
X112773123Y-92070525D01*
X112774328Y-92069135D01*
X112775999Y-92061452D01*
X112775999Y-92030669D01*
X117310001Y-92030669D01*
X117310371Y-92037490D01*
X117315895Y-92088352D01*
X117319521Y-92103604D01*
X117364676Y-92224054D01*
X117373214Y-92239649D01*
X117449715Y-92341724D01*
X117462276Y-92354285D01*
X117564351Y-92430786D01*
X117579946Y-92439324D01*
X117700394Y-92484478D01*
X117715649Y-92488105D01*
X117766514Y-92493631D01*
X117773328Y-92494000D01*
X118345885Y-92494000D01*
X118361124Y-92489525D01*
X118362329Y-92488135D01*
X118364000Y-92480452D01*
X118364000Y-92475884D01*
X118872000Y-92475884D01*
X118876475Y-92491123D01*
X118877865Y-92492328D01*
X118885548Y-92493999D01*
X119462669Y-92493999D01*
X119469490Y-92493629D01*
X119520352Y-92488105D01*
X119535604Y-92484479D01*
X119656054Y-92439324D01*
X119671649Y-92430786D01*
X119773724Y-92354285D01*
X119786285Y-92341724D01*
X119862786Y-92239649D01*
X119871324Y-92224054D01*
X119916478Y-92103606D01*
X119920105Y-92088351D01*
X119923523Y-92056885D01*
X120904000Y-92056885D01*
X120908475Y-92072124D01*
X120909865Y-92073329D01*
X120917548Y-92075000D01*
X122155885Y-92075000D01*
X122171124Y-92070525D01*
X122172329Y-92069135D01*
X122174000Y-92061452D01*
X122174000Y-92056885D01*
X122682000Y-92056885D01*
X122686475Y-92072124D01*
X122687865Y-92073329D01*
X122695548Y-92075000D01*
X123933884Y-92075000D01*
X123949123Y-92070525D01*
X123950328Y-92069135D01*
X123951999Y-92061452D01*
X123951999Y-91522331D01*
X123951629Y-91515510D01*
X123946105Y-91464648D01*
X123942479Y-91449396D01*
X123897324Y-91328946D01*
X123888786Y-91313351D01*
X123812285Y-91211276D01*
X123799724Y-91198715D01*
X123697649Y-91122214D01*
X123682054Y-91113676D01*
X123561606Y-91068522D01*
X123546351Y-91064895D01*
X123495486Y-91059369D01*
X123488672Y-91059000D01*
X122700115Y-91059000D01*
X122684876Y-91063475D01*
X122683671Y-91064865D01*
X122682000Y-91072548D01*
X122682000Y-92056885D01*
X122174000Y-92056885D01*
X122174000Y-91077116D01*
X122169525Y-91061877D01*
X122168135Y-91060672D01*
X122160452Y-91059001D01*
X121367331Y-91059001D01*
X121360510Y-91059371D01*
X121309648Y-91064895D01*
X121294396Y-91068521D01*
X121173946Y-91113676D01*
X121158351Y-91122214D01*
X121056276Y-91198715D01*
X121043715Y-91211276D01*
X120967214Y-91313351D01*
X120958676Y-91328946D01*
X120913522Y-91449394D01*
X120909895Y-91464649D01*
X120904369Y-91515514D01*
X120904000Y-91522328D01*
X120904000Y-92056885D01*
X119923523Y-92056885D01*
X119925631Y-92037486D01*
X119926000Y-92030672D01*
X119926000Y-91458115D01*
X119921525Y-91442876D01*
X119920135Y-91441671D01*
X119912452Y-91440000D01*
X118890115Y-91440000D01*
X118874876Y-91444475D01*
X118873671Y-91445865D01*
X118872000Y-91453548D01*
X118872000Y-92475884D01*
X118364000Y-92475884D01*
X118364000Y-91458115D01*
X118359525Y-91442876D01*
X118358135Y-91441671D01*
X118350452Y-91440000D01*
X117328116Y-91440000D01*
X117312877Y-91444475D01*
X117311672Y-91445865D01*
X117310001Y-91453548D01*
X117310001Y-92030669D01*
X112775999Y-92030669D01*
X112775999Y-91522331D01*
X112775629Y-91515510D01*
X112770105Y-91464648D01*
X112766479Y-91449396D01*
X112721324Y-91328946D01*
X112712786Y-91313351D01*
X112636285Y-91211276D01*
X112623724Y-91198715D01*
X112521649Y-91122214D01*
X112506054Y-91113676D01*
X112385606Y-91068522D01*
X112370351Y-91064895D01*
X112319486Y-91059369D01*
X112312672Y-91059000D01*
X111524115Y-91059000D01*
X111508876Y-91063475D01*
X111507671Y-91064865D01*
X111506000Y-91072548D01*
X111506000Y-92056885D01*
X110998000Y-92056885D01*
X110998000Y-91077116D01*
X110993525Y-91061877D01*
X110992135Y-91060672D01*
X110984452Y-91059001D01*
X110191331Y-91059001D01*
X110184510Y-91059371D01*
X110133648Y-91064895D01*
X110118396Y-91068521D01*
X109997946Y-91113676D01*
X109982351Y-91122214D01*
X109880276Y-91198715D01*
X109867715Y-91211276D01*
X109791214Y-91313351D01*
X109782676Y-91328946D01*
X109737522Y-91449394D01*
X109733895Y-91464649D01*
X109728369Y-91515514D01*
X109728000Y-91522328D01*
X109728000Y-92056885D01*
X107957193Y-92056885D01*
X109100193Y-90913885D01*
X117310000Y-90913885D01*
X117314475Y-90929124D01*
X117315865Y-90930329D01*
X117323548Y-90932000D01*
X119907884Y-90932000D01*
X119923123Y-90927525D01*
X119924328Y-90926135D01*
X119925999Y-90918452D01*
X119925999Y-90341331D01*
X119925629Y-90334510D01*
X119920105Y-90283648D01*
X119916479Y-90268396D01*
X119871324Y-90147946D01*
X119862786Y-90132351D01*
X119786285Y-90030276D01*
X119773724Y-90017715D01*
X119671649Y-89941214D01*
X119656054Y-89932676D01*
X119535606Y-89887522D01*
X119520351Y-89883895D01*
X119469486Y-89878369D01*
X119462672Y-89878000D01*
X119358050Y-89878000D01*
X119289929Y-89857998D01*
X119243436Y-89804342D01*
X119233332Y-89734068D01*
X119262826Y-89669488D01*
X119291426Y-89646186D01*
X119291087Y-89645693D01*
X119295840Y-89642427D01*
X119300884Y-89639602D01*
X119313751Y-89628901D01*
X119466078Y-89502211D01*
X119466080Y-89502209D01*
X119470518Y-89498518D01*
X119475995Y-89491933D01*
X119477093Y-89491195D01*
X119478294Y-89489994D01*
X119478530Y-89490230D01*
X119534930Y-89452348D01*
X119572870Y-89446500D01*
X119758232Y-89446500D01*
X119826353Y-89466502D01*
X119847327Y-89483405D01*
X119950481Y-89586559D01*
X119951410Y-89587497D01*
X120013859Y-89651268D01*
X120049904Y-89674498D01*
X120060229Y-89681917D01*
X120093734Y-89708663D01*
X120100074Y-89711728D01*
X120123553Y-89723079D01*
X120136964Y-89730605D01*
X120158893Y-89744737D01*
X120158898Y-89744739D01*
X120164817Y-89748554D01*
X120171437Y-89750964D01*
X120171438Y-89750964D01*
X120182406Y-89754956D01*
X120205099Y-89763216D01*
X120216829Y-89768170D01*
X120255422Y-89786827D01*
X120262283Y-89788411D01*
X120262286Y-89788412D01*
X120287700Y-89794279D01*
X120302444Y-89798646D01*
X120333578Y-89809978D01*
X120376120Y-89815352D01*
X120388636Y-89817582D01*
X120430410Y-89827226D01*
X120437451Y-89827251D01*
X120437454Y-89827251D01*
X120470582Y-89827367D01*
X120471455Y-89827396D01*
X120472283Y-89827500D01*
X120508737Y-89827500D01*
X120509177Y-89827501D01*
X120606507Y-89827841D01*
X120606510Y-89827841D01*
X120610000Y-89827853D01*
X120611188Y-89827587D01*
X120612800Y-89827500D01*
X120908236Y-89827500D01*
X120976357Y-89847502D01*
X121022850Y-89901158D01*
X121025247Y-89907315D01*
X121026354Y-89914304D01*
X121030854Y-89923135D01*
X121030855Y-89923139D01*
X121040065Y-89941214D01*
X121083950Y-90027342D01*
X121173658Y-90117050D01*
X121286696Y-90174646D01*
X121296485Y-90176196D01*
X121296487Y-90176197D01*
X121323849Y-90180530D01*
X121380481Y-90189500D01*
X122427788Y-90189500D01*
X123475518Y-90189499D01*
X123480412Y-90188724D01*
X123559506Y-90176198D01*
X123559508Y-90176197D01*
X123569304Y-90174646D01*
X123682342Y-90117050D01*
X123772050Y-90027342D01*
X123815935Y-89941214D01*
X123825145Y-89923139D01*
X123825146Y-89923135D01*
X123829646Y-89914304D01*
X123830110Y-89911377D01*
X123868005Y-89855957D01*
X123933402Y-89828321D01*
X123947764Y-89827500D01*
X124069917Y-89827500D01*
X124071238Y-89827507D01*
X124160407Y-89828441D01*
X124202296Y-89819384D01*
X124214870Y-89817325D01*
X124229477Y-89815686D01*
X124250476Y-89813331D01*
X124250478Y-89813330D01*
X124257472Y-89812546D01*
X124288759Y-89801650D01*
X124303564Y-89797489D01*
X124329061Y-89791977D01*
X124329064Y-89791976D01*
X124335942Y-89790489D01*
X124374799Y-89772370D01*
X124386582Y-89767586D01*
X124427073Y-89753485D01*
X124455167Y-89735930D01*
X124468682Y-89728592D01*
X124498707Y-89714591D01*
X124532567Y-89688326D01*
X124543024Y-89681031D01*
X124573400Y-89662050D01*
X124573403Y-89662048D01*
X124579375Y-89658316D01*
X124584373Y-89653353D01*
X124607893Y-89629997D01*
X124608515Y-89629415D01*
X124609177Y-89628901D01*
X124635037Y-89603041D01*
X124706807Y-89531770D01*
X124707459Y-89530743D01*
X124708543Y-89529535D01*
X125664559Y-88573519D01*
X125665497Y-88572590D01*
X125680509Y-88557889D01*
X125729268Y-88510141D01*
X125733083Y-88504221D01*
X125733088Y-88504215D01*
X125752490Y-88474109D01*
X125759930Y-88463755D01*
X125782267Y-88435774D01*
X125786664Y-88430266D01*
X125801082Y-88400441D01*
X125808611Y-88387025D01*
X125822735Y-88365109D01*
X125826554Y-88359183D01*
X125841213Y-88318909D01*
X125846172Y-88307169D01*
X125861763Y-88274916D01*
X125864827Y-88268578D01*
X125868575Y-88252347D01*
X125872278Y-88236304D01*
X125876648Y-88221554D01*
X125885568Y-88197045D01*
X125885569Y-88197041D01*
X125887978Y-88190422D01*
X125893352Y-88147882D01*
X125895582Y-88135363D01*
X125905226Y-88093589D01*
X125905255Y-88085503D01*
X125905367Y-88053418D01*
X125905396Y-88052545D01*
X125905500Y-88051717D01*
X125905500Y-88015108D01*
X125905739Y-87946565D01*
X125905841Y-87917493D01*
X125905841Y-87917490D01*
X125905853Y-87914000D01*
X125905587Y-87912812D01*
X125905500Y-87911200D01*
X125905500Y-86180597D01*
X125925502Y-86112476D01*
X125944730Y-86090638D01*
X125944139Y-86090047D01*
X126105047Y-85929139D01*
X126235568Y-85742734D01*
X126260805Y-85688613D01*
X126307722Y-85635328D01*
X126376000Y-85615867D01*
X126443959Y-85636409D01*
X126489195Y-85688612D01*
X126514432Y-85742734D01*
X126644953Y-85929139D01*
X126805861Y-86090047D01*
X126992266Y-86220568D01*
X126997244Y-86222889D01*
X126997247Y-86222891D01*
X127193130Y-86314233D01*
X127198504Y-86316739D01*
X127203812Y-86318161D01*
X127203814Y-86318162D01*
X127412993Y-86374211D01*
X127412995Y-86374211D01*
X127418308Y-86375635D01*
X127645000Y-86395468D01*
X127871692Y-86375635D01*
X127877005Y-86374211D01*
X127877007Y-86374211D01*
X128086186Y-86318162D01*
X128086188Y-86318161D01*
X128091496Y-86316739D01*
X128096870Y-86314233D01*
X128164761Y-86282575D01*
X128234953Y-86271914D01*
X128299765Y-86300894D01*
X128338622Y-86360314D01*
X128344011Y-86396770D01*
X128344011Y-102400018D01*
X128343900Y-102405294D01*
X128341301Y-102467305D01*
X128343263Y-102475670D01*
X128351238Y-102509673D01*
X128353401Y-102521344D01*
X128359305Y-102564443D01*
X128362717Y-102572327D01*
X128362717Y-102572328D01*
X128365276Y-102578241D01*
X128372310Y-102599510D01*
X128375743Y-102614147D01*
X128379880Y-102621672D01*
X128379881Y-102621675D01*
X128396706Y-102652279D01*
X128401922Y-102662924D01*
X128419206Y-102702866D01*
X128428669Y-102714552D01*
X128441156Y-102733136D01*
X128448404Y-102746319D01*
X128455408Y-102754433D01*
X128479944Y-102778969D01*
X128488769Y-102788770D01*
X128508717Y-102813403D01*
X128514125Y-102820081D01*
X128521123Y-102825054D01*
X128521128Y-102825059D01*
X128529459Y-102830979D01*
X128545565Y-102844590D01*
X128975595Y-103274620D01*
X129009621Y-103336932D01*
X129012500Y-103363715D01*
X129012501Y-103780790D01*
X129012501Y-104108018D01*
X129013276Y-104112911D01*
X129013276Y-104112912D01*
X129021808Y-104166783D01*
X129027354Y-104201804D01*
X129031855Y-104210637D01*
X129031857Y-104210642D01*
X129041583Y-104229730D01*
X129084950Y-104314842D01*
X129174658Y-104404550D01*
X129287696Y-104462146D01*
X129297485Y-104463696D01*
X129297487Y-104463697D01*
X129324849Y-104468030D01*
X129381481Y-104477000D01*
X129857403Y-104477000D01*
X130333518Y-104476999D01*
X130338412Y-104476224D01*
X130417506Y-104463698D01*
X130417508Y-104463697D01*
X130427304Y-104462146D01*
X130449582Y-104450795D01*
X130483650Y-104433436D01*
X130540342Y-104404550D01*
X130630050Y-104314842D01*
X130687646Y-104201804D01*
X130689197Y-104192011D01*
X130690167Y-104189026D01*
X130730240Y-104130420D01*
X130795637Y-104102783D01*
X130865593Y-104114890D01*
X130917900Y-104162896D01*
X130929833Y-104189026D01*
X130930803Y-104192012D01*
X130932354Y-104201804D01*
X130989950Y-104314842D01*
X131079658Y-104404550D01*
X131192696Y-104462146D01*
X131202485Y-104463696D01*
X131202487Y-104463697D01*
X131229849Y-104468030D01*
X131286481Y-104477000D01*
X131355519Y-104477000D01*
X132030785Y-104476999D01*
X132098906Y-104497001D01*
X132119880Y-104513904D01*
X133394618Y-105788642D01*
X133398271Y-105792451D01*
X133440299Y-105838156D01*
X133477302Y-105861099D01*
X133487052Y-105867800D01*
X133521717Y-105894112D01*
X133535695Y-105899646D01*
X133555699Y-105909707D01*
X133568486Y-105917635D01*
X133576737Y-105920032D01*
X133576739Y-105920033D01*
X133610272Y-105929775D01*
X133621502Y-105933620D01*
X133661953Y-105949636D01*
X133670494Y-105950534D01*
X133670495Y-105950534D01*
X133676908Y-105951208D01*
X133698883Y-105955520D01*
X133713325Y-105959715D01*
X133713327Y-105959715D01*
X133712686Y-105961921D01*
X133766742Y-105988940D01*
X133793205Y-106024006D01*
X133834750Y-106105542D01*
X133924458Y-106195250D01*
X134037496Y-106252846D01*
X134047285Y-106254396D01*
X134047287Y-106254397D01*
X134074649Y-106258730D01*
X134131281Y-106267700D01*
X134180505Y-106267700D01*
X134646985Y-106267699D01*
X134715106Y-106287701D01*
X134736080Y-106304604D01*
X137457118Y-109025642D01*
X137460771Y-109029451D01*
X137502799Y-109075156D01*
X137510099Y-109079682D01*
X137510100Y-109079683D01*
X137539783Y-109098087D01*
X137549553Y-109104801D01*
X137584216Y-109131112D01*
X137598193Y-109136646D01*
X137618202Y-109146709D01*
X137623688Y-109150111D01*
X137623692Y-109150113D01*
X137630986Y-109154635D01*
X137639228Y-109157029D01*
X137639231Y-109157031D01*
X137672784Y-109166779D01*
X137683997Y-109170618D01*
X137724453Y-109186635D01*
X137732996Y-109187533D01*
X137732997Y-109187533D01*
X137739402Y-109188206D01*
X137761380Y-109192518D01*
X137775825Y-109196715D01*
X137782408Y-109197198D01*
X137782411Y-109197199D01*
X137784208Y-109197331D01*
X137784219Y-109197331D01*
X137786515Y-109197500D01*
X137821219Y-109197500D01*
X137834390Y-109198190D01*
X137874454Y-109202401D01*
X137882919Y-109200969D01*
X137882928Y-109200969D01*
X137893000Y-109199265D01*
X137914013Y-109197500D01*
X141629289Y-109197500D01*
X141697410Y-109217502D01*
X141743903Y-109271158D01*
X141748812Y-109283623D01*
X141776687Y-109367172D01*
X141779682Y-109376148D01*
X141781674Y-109380135D01*
X141781675Y-109380137D01*
X141894442Y-109605819D01*
X141899981Y-109616905D01*
X142053003Y-109838309D01*
X142056025Y-109841578D01*
X142232679Y-110032682D01*
X142232684Y-110032687D01*
X142235695Y-110035944D01*
X142444411Y-110205866D01*
X142448229Y-110208165D01*
X142448231Y-110208166D01*
X142609477Y-110305244D01*
X142674987Y-110344684D01*
X142679082Y-110346418D01*
X142679084Y-110346419D01*
X142918721Y-110447892D01*
X142918728Y-110447894D01*
X142922822Y-110449628D01*
X143018710Y-110475052D01*
X143178675Y-110517467D01*
X143178680Y-110517468D01*
X143182972Y-110518606D01*
X143187381Y-110519128D01*
X143187387Y-110519129D01*
X143336289Y-110536752D01*
X143450245Y-110550240D01*
X143719310Y-110543899D01*
X143759720Y-110537173D01*
X143980406Y-110500441D01*
X143980410Y-110500440D01*
X143984796Y-110499710D01*
X143989037Y-110498369D01*
X143989040Y-110498368D01*
X144237162Y-110419897D01*
X144237164Y-110419896D01*
X144241408Y-110418554D01*
X144245419Y-110416628D01*
X144245424Y-110416626D01*
X144480006Y-110303981D01*
X144480007Y-110303980D01*
X144484025Y-110302051D01*
X144553760Y-110255456D01*
X144704098Y-110155004D01*
X144704102Y-110155001D01*
X144707806Y-110152526D01*
X144711123Y-110149555D01*
X144711127Y-110149552D01*
X144904970Y-109975931D01*
X144908286Y-109972961D01*
X144936683Y-109939179D01*
X145078601Y-109770348D01*
X145078606Y-109770342D01*
X145081465Y-109766940D01*
X145223887Y-109538572D01*
X145332712Y-109292416D01*
X145405767Y-109033382D01*
X145414884Y-108965506D01*
X145441168Y-108769820D01*
X145441169Y-108769812D01*
X145441595Y-108766638D01*
X145445355Y-108647000D01*
X145443584Y-108621979D01*
X145426662Y-108382982D01*
X145426347Y-108378533D01*
X145421037Y-108353866D01*
X145370636Y-108119771D01*
X145369700Y-108115423D01*
X145365301Y-108103497D01*
X145278090Y-107867101D01*
X145278089Y-107867099D01*
X145276547Y-107862919D01*
X145252495Y-107818342D01*
X145150857Y-107629976D01*
X145148744Y-107626060D01*
X145058968Y-107504513D01*
X144991492Y-107413157D01*
X144991489Y-107413154D01*
X144988843Y-107409571D01*
X144800034Y-107217772D01*
X144586083Y-107054490D01*
X144530629Y-107023434D01*
X144355147Y-106925159D01*
X144355144Y-106925158D01*
X144351261Y-106922983D01*
X144347122Y-106921382D01*
X144347114Y-106921378D01*
X144161566Y-106849596D01*
X144100251Y-106825875D01*
X144095926Y-106824872D01*
X144095921Y-106824871D01*
X143951864Y-106791481D01*
X143838063Y-106765103D01*
X143569928Y-106741880D01*
X143565493Y-106742124D01*
X143565489Y-106742124D01*
X143456324Y-106748132D01*
X143301196Y-106756669D01*
X143296833Y-106757537D01*
X143296832Y-106757537D01*
X143041596Y-106808307D01*
X143041594Y-106808308D01*
X143037228Y-106809176D01*
X142783292Y-106898352D01*
X142544455Y-107022418D01*
X142540840Y-107025001D01*
X142540834Y-107025005D01*
X142497947Y-107055653D01*
X142325481Y-107178899D01*
X142322254Y-107181977D01*
X142322252Y-107181979D01*
X142164220Y-107332734D01*
X142130740Y-107364672D01*
X141964118Y-107576032D01*
X141932785Y-107629976D01*
X141831173Y-107804913D01*
X141831170Y-107804919D01*
X141828939Y-107808760D01*
X141827269Y-107812883D01*
X141744268Y-108017802D01*
X141700155Y-108073432D01*
X141627484Y-108096500D01*
X138137214Y-108096500D01*
X138069093Y-108076498D01*
X138048119Y-108059595D01*
X136725178Y-106736654D01*
X137315618Y-106736654D01*
X137322673Y-106746627D01*
X137353679Y-106772551D01*
X137360598Y-106777579D01*
X137585272Y-106918515D01*
X137592807Y-106922556D01*
X137834520Y-107031694D01*
X137842551Y-107034680D01*
X138096832Y-107110002D01*
X138105184Y-107111869D01*
X138367340Y-107151984D01*
X138375874Y-107152700D01*
X138641045Y-107156867D01*
X138649596Y-107156418D01*
X138912883Y-107124557D01*
X138921284Y-107122955D01*
X139177824Y-107055653D01*
X139185926Y-107052926D01*
X139430949Y-106951434D01*
X139438617Y-106947628D01*
X139667598Y-106813822D01*
X139674679Y-106809009D01*
X139754655Y-106746301D01*
X139763125Y-106734442D01*
X139756608Y-106722818D01*
X138552812Y-105519022D01*
X138538868Y-105511408D01*
X138537035Y-105511539D01*
X138530420Y-105515790D01*
X137322910Y-106723300D01*
X137315618Y-106736654D01*
X136725178Y-106736654D01*
X135514605Y-105526081D01*
X135480579Y-105463769D01*
X135477700Y-105436986D01*
X135477699Y-105130204D01*
X136527665Y-105130204D01*
X136542932Y-105394969D01*
X136544005Y-105403470D01*
X136595065Y-105663722D01*
X136597276Y-105671974D01*
X136683184Y-105922894D01*
X136686499Y-105930779D01*
X136805664Y-106167713D01*
X136810020Y-106175079D01*
X136939347Y-106363250D01*
X136949601Y-106371594D01*
X136963342Y-106364448D01*
X138167978Y-105159812D01*
X138174356Y-105148132D01*
X138904408Y-105148132D01*
X138904539Y-105149965D01*
X138908790Y-105156580D01*
X140115730Y-106363520D01*
X140127939Y-106370187D01*
X140139439Y-106361497D01*
X140236831Y-106228913D01*
X140241418Y-106221685D01*
X140367962Y-105988621D01*
X140371530Y-105980827D01*
X140465271Y-105732750D01*
X140467748Y-105724544D01*
X140526954Y-105466038D01*
X140528294Y-105457577D01*
X140552031Y-105191616D01*
X140552277Y-105186677D01*
X140552666Y-105149485D01*
X140552523Y-105144519D01*
X140534362Y-104878123D01*
X140533201Y-104869649D01*
X140479419Y-104609944D01*
X140477120Y-104601709D01*
X140388588Y-104351705D01*
X140385191Y-104343854D01*
X140263550Y-104108178D01*
X140259122Y-104100866D01*
X140140031Y-103931417D01*
X140129509Y-103923037D01*
X140116121Y-103930089D01*
X138912022Y-105134188D01*
X138904408Y-105148132D01*
X138174356Y-105148132D01*
X138175592Y-105145868D01*
X138175461Y-105144035D01*
X138171210Y-105137420D01*
X136963814Y-103930024D01*
X136951804Y-103923466D01*
X136940064Y-103932434D01*
X136831935Y-104082911D01*
X136827418Y-104090196D01*
X136703325Y-104324567D01*
X136699839Y-104332395D01*
X136608700Y-104581446D01*
X136606311Y-104589670D01*
X136549812Y-104848795D01*
X136548563Y-104857250D01*
X136527754Y-105121653D01*
X136527665Y-105130204D01*
X135477699Y-105130204D01*
X135477699Y-104926237D01*
X135477699Y-104921282D01*
X135473937Y-104897525D01*
X135464398Y-104837294D01*
X135464397Y-104837292D01*
X135462846Y-104827496D01*
X135405250Y-104714458D01*
X135315542Y-104624750D01*
X135306711Y-104620250D01*
X135306709Y-104620249D01*
X135218604Y-104575357D01*
X135166989Y-104526608D01*
X135149923Y-104457693D01*
X135172824Y-104390492D01*
X135228422Y-104346340D01*
X135240310Y-104342193D01*
X135252125Y-104338724D01*
X135253329Y-104337335D01*
X135255000Y-104329652D01*
X135255000Y-104325084D01*
X135763000Y-104325084D01*
X135767475Y-104340323D01*
X135768865Y-104341528D01*
X135776548Y-104343199D01*
X136010869Y-104343199D01*
X136017690Y-104342829D01*
X136068552Y-104337305D01*
X136083804Y-104333679D01*
X136204254Y-104288524D01*
X136219849Y-104279986D01*
X136321924Y-104203485D01*
X136334485Y-104190924D01*
X136410986Y-104088849D01*
X136419524Y-104073254D01*
X136464678Y-103952806D01*
X136468305Y-103937551D01*
X136473831Y-103886686D01*
X136474200Y-103879872D01*
X136474200Y-103650115D01*
X136469725Y-103634876D01*
X136468335Y-103633671D01*
X136460652Y-103632000D01*
X135781115Y-103632000D01*
X135765876Y-103636475D01*
X135764671Y-103637865D01*
X135763000Y-103645548D01*
X135763000Y-104325084D01*
X135255000Y-104325084D01*
X135255000Y-103559500D01*
X137316584Y-103559500D01*
X137322980Y-103570770D01*
X138527188Y-104774978D01*
X138541132Y-104782592D01*
X138542965Y-104782461D01*
X138549580Y-104778210D01*
X139756604Y-103571186D01*
X139763795Y-103558017D01*
X139756473Y-103547780D01*
X139709233Y-103509115D01*
X139702261Y-103504160D01*
X139476122Y-103365582D01*
X139468552Y-103361624D01*
X139225704Y-103255022D01*
X139217644Y-103252120D01*
X138962592Y-103179467D01*
X138954214Y-103177685D01*
X138691656Y-103140318D01*
X138683111Y-103139691D01*
X138417908Y-103138302D01*
X138409374Y-103138839D01*
X138146433Y-103173456D01*
X138138035Y-103175149D01*
X137882238Y-103245127D01*
X137874143Y-103247946D01*
X137630199Y-103351997D01*
X137622577Y-103355881D01*
X137395013Y-103492075D01*
X137387981Y-103496962D01*
X137325053Y-103547377D01*
X137316584Y-103559500D01*
X135255000Y-103559500D01*
X135255000Y-103105885D01*
X135763000Y-103105885D01*
X135767475Y-103121124D01*
X135768865Y-103122329D01*
X135776548Y-103124000D01*
X136456084Y-103124000D01*
X136471323Y-103119525D01*
X136472528Y-103118135D01*
X136474199Y-103110452D01*
X136474199Y-102876131D01*
X136473829Y-102869310D01*
X136468305Y-102818448D01*
X136464679Y-102803196D01*
X136419524Y-102682746D01*
X136410986Y-102667151D01*
X136334485Y-102565076D01*
X136321924Y-102552515D01*
X136219849Y-102476014D01*
X136204254Y-102467476D01*
X136083806Y-102422322D01*
X136068551Y-102418695D01*
X136017686Y-102413169D01*
X136010872Y-102412800D01*
X135781115Y-102412800D01*
X135765876Y-102417275D01*
X135764671Y-102418665D01*
X135763000Y-102426348D01*
X135763000Y-103105885D01*
X135255000Y-103105885D01*
X135255000Y-102430916D01*
X135250525Y-102415677D01*
X135249135Y-102414472D01*
X135241452Y-102412801D01*
X135007131Y-102412801D01*
X135000310Y-102413171D01*
X134949448Y-102418695D01*
X134934196Y-102422321D01*
X134830260Y-102461285D01*
X134759452Y-102466468D01*
X134697083Y-102432547D01*
X134662954Y-102370292D01*
X134666717Y-102302804D01*
X134727504Y-102123730D01*
X134733115Y-102085038D01*
X134757314Y-101918140D01*
X134757314Y-101918138D01*
X134757846Y-101914470D01*
X134759429Y-101854000D01*
X134740081Y-101643440D01*
X134734515Y-101623702D01*
X134696728Y-101489722D01*
X134682686Y-101439931D01*
X134671553Y-101417354D01*
X134591719Y-101255469D01*
X134589165Y-101250290D01*
X134503140Y-101135088D01*
X134478408Y-101068539D01*
X134493582Y-100999183D01*
X134543844Y-100949041D01*
X134604098Y-100933700D01*
X135095710Y-100933699D01*
X135108718Y-100933699D01*
X135113612Y-100932924D01*
X135192706Y-100920398D01*
X135192708Y-100920397D01*
X135202504Y-100918846D01*
X135315542Y-100861250D01*
X135405250Y-100771542D01*
X135444099Y-100695297D01*
X135492848Y-100643682D01*
X135556366Y-100626500D01*
X141629289Y-100626500D01*
X141697410Y-100646502D01*
X141743903Y-100700158D01*
X141748812Y-100712623D01*
X141768351Y-100771186D01*
X141779682Y-100805148D01*
X141781674Y-100809135D01*
X141781675Y-100809137D01*
X141886964Y-101019853D01*
X141899981Y-101045905D01*
X142053003Y-101267309D01*
X142056025Y-101270578D01*
X142232679Y-101461682D01*
X142232684Y-101461687D01*
X142235695Y-101464944D01*
X142444411Y-101634866D01*
X142448229Y-101637165D01*
X142448231Y-101637166D01*
X142671170Y-101771386D01*
X142674987Y-101773684D01*
X142679082Y-101775418D01*
X142679084Y-101775419D01*
X142918721Y-101876892D01*
X142918728Y-101876894D01*
X142922822Y-101878628D01*
X143018710Y-101904052D01*
X143178675Y-101946467D01*
X143178680Y-101946468D01*
X143182972Y-101947606D01*
X143187381Y-101948128D01*
X143187387Y-101948129D01*
X143336289Y-101965752D01*
X143450245Y-101979240D01*
X143719310Y-101972899D01*
X143723708Y-101972167D01*
X143980406Y-101929441D01*
X143980410Y-101929440D01*
X143984796Y-101928710D01*
X143989037Y-101927369D01*
X143989040Y-101927368D01*
X144237162Y-101848897D01*
X144237164Y-101848896D01*
X144241408Y-101847554D01*
X144245419Y-101845628D01*
X144245424Y-101845626D01*
X144480006Y-101732981D01*
X144480007Y-101732980D01*
X144484025Y-101731051D01*
X144487731Y-101728575D01*
X144704098Y-101584004D01*
X144704102Y-101584001D01*
X144707806Y-101581526D01*
X144711123Y-101578555D01*
X144711127Y-101578552D01*
X144904970Y-101404931D01*
X144908286Y-101401961D01*
X145013508Y-101276785D01*
X145078601Y-101199348D01*
X145078606Y-101199342D01*
X145081465Y-101195940D01*
X145223887Y-100967572D01*
X145232865Y-100947266D01*
X145285406Y-100828420D01*
X145332712Y-100721416D01*
X145405767Y-100462382D01*
X145417664Y-100373808D01*
X145441168Y-100198820D01*
X145441169Y-100198812D01*
X145441595Y-100195638D01*
X145441754Y-100190568D01*
X145445254Y-100079222D01*
X145445254Y-100079217D01*
X145445355Y-100076000D01*
X145444226Y-100060047D01*
X145426662Y-99811982D01*
X145426347Y-99807533D01*
X145424841Y-99800535D01*
X145370636Y-99548771D01*
X145369700Y-99544423D01*
X145356381Y-99508318D01*
X145278090Y-99296101D01*
X145278089Y-99296099D01*
X145276547Y-99291919D01*
X145255114Y-99252196D01*
X145150857Y-99058976D01*
X145148744Y-99055060D01*
X145037764Y-98904805D01*
X144991492Y-98842157D01*
X144991489Y-98842154D01*
X144988843Y-98838571D01*
X144800034Y-98646772D01*
X144785058Y-98635342D01*
X144667823Y-98545872D01*
X144586083Y-98483490D01*
X144550710Y-98463680D01*
X144355147Y-98354159D01*
X144355144Y-98354158D01*
X144351261Y-98351983D01*
X144347122Y-98350382D01*
X144347114Y-98350378D01*
X144161566Y-98278596D01*
X144100251Y-98254875D01*
X144095926Y-98253872D01*
X144095921Y-98253871D01*
X143951864Y-98220481D01*
X143838063Y-98194103D01*
X143569928Y-98170880D01*
X143565493Y-98171124D01*
X143565489Y-98171124D01*
X143456324Y-98177132D01*
X143301196Y-98185669D01*
X143296833Y-98186537D01*
X143296832Y-98186537D01*
X143041596Y-98237307D01*
X143041594Y-98237308D01*
X143037228Y-98238176D01*
X142783292Y-98327352D01*
X142544455Y-98451418D01*
X142540840Y-98454001D01*
X142540834Y-98454005D01*
X142437620Y-98527763D01*
X142325481Y-98607899D01*
X142322254Y-98610977D01*
X142322252Y-98610979D01*
X142162939Y-98762956D01*
X142130740Y-98793672D01*
X141964118Y-99005032D01*
X141934246Y-99056461D01*
X141831173Y-99233913D01*
X141831170Y-99233919D01*
X141828939Y-99237760D01*
X141827269Y-99241883D01*
X141744268Y-99446802D01*
X141700155Y-99502432D01*
X141627484Y-99525500D01*
X135556366Y-99525500D01*
X135488245Y-99505498D01*
X135444099Y-99456703D01*
X135414952Y-99399500D01*
X135405250Y-99380458D01*
X135315542Y-99290750D01*
X135306711Y-99286250D01*
X135306709Y-99286249D01*
X135218604Y-99241357D01*
X135166989Y-99192608D01*
X135149923Y-99123693D01*
X135172824Y-99056492D01*
X135228422Y-99012340D01*
X135240310Y-99008193D01*
X135252125Y-99004724D01*
X135253329Y-99003335D01*
X135255000Y-98995652D01*
X135255000Y-98991084D01*
X135763000Y-98991084D01*
X135767475Y-99006323D01*
X135768865Y-99007528D01*
X135776548Y-99009199D01*
X136010869Y-99009199D01*
X136017690Y-99008829D01*
X136068552Y-99003305D01*
X136083804Y-98999679D01*
X136204254Y-98954524D01*
X136219849Y-98945986D01*
X136321924Y-98869485D01*
X136334485Y-98856924D01*
X136410986Y-98754849D01*
X136419524Y-98739254D01*
X136464678Y-98618806D01*
X136468305Y-98603551D01*
X136473831Y-98552686D01*
X136474200Y-98545872D01*
X136474200Y-98316115D01*
X136469725Y-98300876D01*
X136468335Y-98299671D01*
X136460652Y-98298000D01*
X135781115Y-98298000D01*
X135765876Y-98302475D01*
X135764671Y-98303865D01*
X135763000Y-98311548D01*
X135763000Y-98991084D01*
X135255000Y-98991084D01*
X135255000Y-98165654D01*
X137315618Y-98165654D01*
X137322673Y-98175627D01*
X137353679Y-98201551D01*
X137360598Y-98206579D01*
X137585272Y-98347515D01*
X137592807Y-98351556D01*
X137834520Y-98460694D01*
X137842551Y-98463680D01*
X138096832Y-98539002D01*
X138105184Y-98540869D01*
X138367340Y-98580984D01*
X138375874Y-98581700D01*
X138641045Y-98585867D01*
X138649596Y-98585418D01*
X138912883Y-98553557D01*
X138921284Y-98551955D01*
X139177824Y-98484653D01*
X139185926Y-98481926D01*
X139430949Y-98380434D01*
X139438617Y-98376628D01*
X139667598Y-98242822D01*
X139674679Y-98238009D01*
X139754655Y-98175301D01*
X139763125Y-98163442D01*
X139756608Y-98151818D01*
X138552812Y-96948022D01*
X138538868Y-96940408D01*
X138537035Y-96940539D01*
X138530420Y-96944790D01*
X137322910Y-98152300D01*
X137315618Y-98165654D01*
X135255000Y-98165654D01*
X135255000Y-97771885D01*
X135763000Y-97771885D01*
X135767475Y-97787124D01*
X135768865Y-97788329D01*
X135776548Y-97790000D01*
X136456084Y-97790000D01*
X136471323Y-97785525D01*
X136472528Y-97784135D01*
X136474199Y-97776452D01*
X136474199Y-97542131D01*
X136473829Y-97535310D01*
X136468305Y-97484448D01*
X136465960Y-97474584D01*
X136469663Y-97403684D01*
X136476132Y-97394687D01*
X136422267Y-97352036D01*
X136414629Y-97339803D01*
X136410990Y-97333157D01*
X136334485Y-97231076D01*
X136321924Y-97218515D01*
X136219849Y-97142014D01*
X136204254Y-97133476D01*
X136083806Y-97088322D01*
X136068551Y-97084695D01*
X136017686Y-97079169D01*
X136010872Y-97078800D01*
X135781115Y-97078800D01*
X135765876Y-97083275D01*
X135764671Y-97084665D01*
X135763000Y-97092348D01*
X135763000Y-97771885D01*
X135255000Y-97771885D01*
X135255000Y-97096916D01*
X135250525Y-97081677D01*
X135249135Y-97080472D01*
X135241452Y-97078801D01*
X135007131Y-97078801D01*
X135000310Y-97079171D01*
X134949448Y-97084695D01*
X134934196Y-97088321D01*
X134830260Y-97127285D01*
X134759452Y-97132468D01*
X134697083Y-97098547D01*
X134662954Y-97036292D01*
X134666717Y-96968804D01*
X134727504Y-96789730D01*
X134733745Y-96746692D01*
X134757314Y-96584140D01*
X134757314Y-96584138D01*
X134757846Y-96580470D01*
X134758403Y-96559204D01*
X136527665Y-96559204D01*
X136542932Y-96823969D01*
X136544005Y-96832470D01*
X136595065Y-97092722D01*
X136597275Y-97100970D01*
X136644354Y-97238477D01*
X136647496Y-97309405D01*
X136634739Y-97331332D01*
X136646792Y-97333713D01*
X136701108Y-97388826D01*
X136805664Y-97596713D01*
X136810020Y-97604079D01*
X136939347Y-97792250D01*
X136949601Y-97800594D01*
X136963342Y-97793448D01*
X138167978Y-96588812D01*
X138174356Y-96577132D01*
X138904408Y-96577132D01*
X138904539Y-96578965D01*
X138908790Y-96585580D01*
X140115730Y-97792520D01*
X140127939Y-97799187D01*
X140139439Y-97790497D01*
X140236831Y-97657913D01*
X140241418Y-97650685D01*
X140367962Y-97417621D01*
X140371530Y-97409827D01*
X140465271Y-97161750D01*
X140467748Y-97153544D01*
X140526954Y-96895038D01*
X140528294Y-96886577D01*
X140552031Y-96620616D01*
X140552277Y-96615677D01*
X140552666Y-96578485D01*
X140552523Y-96573519D01*
X140534362Y-96307123D01*
X140533201Y-96298649D01*
X140479419Y-96038944D01*
X140477120Y-96030709D01*
X140388588Y-95780705D01*
X140385191Y-95772854D01*
X140263550Y-95537178D01*
X140259122Y-95529866D01*
X140140031Y-95360417D01*
X140129509Y-95352037D01*
X140116121Y-95359089D01*
X138912022Y-96563188D01*
X138904408Y-96577132D01*
X138174356Y-96577132D01*
X138175592Y-96574868D01*
X138175461Y-96573035D01*
X138171210Y-96566420D01*
X136963814Y-95359024D01*
X136951804Y-95352466D01*
X136940064Y-95361434D01*
X136831935Y-95511911D01*
X136827418Y-95519196D01*
X136703325Y-95753567D01*
X136699839Y-95761395D01*
X136608700Y-96010446D01*
X136606311Y-96018670D01*
X136549812Y-96277795D01*
X136548563Y-96286250D01*
X136527754Y-96550653D01*
X136527665Y-96559204D01*
X134758403Y-96559204D01*
X134759429Y-96520000D01*
X134740081Y-96309440D01*
X134735532Y-96293308D01*
X134684255Y-96111496D01*
X134682686Y-96105931D01*
X134671553Y-96083354D01*
X134591719Y-95921469D01*
X134589165Y-95916290D01*
X134462651Y-95746867D01*
X134362286Y-95654090D01*
X134311622Y-95607257D01*
X134311620Y-95607255D01*
X134307381Y-95603337D01*
X134128554Y-95490505D01*
X133932160Y-95412152D01*
X133926503Y-95411027D01*
X133926497Y-95411025D01*
X133730442Y-95372028D01*
X133730440Y-95372028D01*
X133724775Y-95370901D01*
X133719000Y-95370825D01*
X133718996Y-95370825D01*
X133612976Y-95369437D01*
X133513346Y-95368133D01*
X133507649Y-95369112D01*
X133507648Y-95369112D01*
X133310650Y-95402962D01*
X133310649Y-95402962D01*
X133304953Y-95403941D01*
X133106575Y-95477127D01*
X133101614Y-95480079D01*
X133101613Y-95480079D01*
X133084089Y-95490505D01*
X132924856Y-95585238D01*
X132765881Y-95724655D01*
X132634976Y-95890708D01*
X132632287Y-95895819D01*
X132632285Y-95895822D01*
X132618835Y-95921387D01*
X132536523Y-96077836D01*
X132473820Y-96279773D01*
X132448967Y-96489754D01*
X132462796Y-96700749D01*
X132464217Y-96706345D01*
X132464218Y-96706350D01*
X132494090Y-96823969D01*
X132514845Y-96905690D01*
X132603369Y-97097714D01*
X132725405Y-97270391D01*
X132729539Y-97274418D01*
X132729544Y-97274424D01*
X132845888Y-97387761D01*
X132880726Y-97449622D01*
X132882416Y-97497725D01*
X132873300Y-97555281D01*
X132873301Y-98532718D01*
X132874076Y-98537611D01*
X132874076Y-98537612D01*
X132885208Y-98607899D01*
X132888154Y-98626504D01*
X132945750Y-98739542D01*
X133035458Y-98829250D01*
X133148496Y-98886846D01*
X133158285Y-98888396D01*
X133158287Y-98888397D01*
X133185649Y-98892730D01*
X133242281Y-98901700D01*
X133730901Y-98901700D01*
X134219718Y-98901699D01*
X134224612Y-98900924D01*
X134303706Y-98888398D01*
X134303708Y-98888397D01*
X134313504Y-98886846D01*
X134426542Y-98829250D01*
X134458810Y-98796982D01*
X134521122Y-98762956D01*
X134591937Y-98768021D01*
X134648731Y-98810512D01*
X134683515Y-98856924D01*
X134696076Y-98869485D01*
X134798151Y-98945986D01*
X134813748Y-98954525D01*
X134866546Y-98974318D01*
X134923311Y-99016959D01*
X134948011Y-99083521D01*
X134932804Y-99152870D01*
X134882518Y-99202988D01*
X134822317Y-99218300D01*
X134147905Y-99218301D01*
X134131282Y-99218301D01*
X134126389Y-99219076D01*
X134126388Y-99219076D01*
X134047294Y-99231602D01*
X134047292Y-99231603D01*
X134037496Y-99233154D01*
X134028659Y-99237657D01*
X134028658Y-99237657D01*
X134017460Y-99243363D01*
X133924458Y-99290750D01*
X133834750Y-99380458D01*
X133825048Y-99399500D01*
X133795901Y-99456703D01*
X133747152Y-99508318D01*
X133683634Y-99525500D01*
X132733499Y-99525500D01*
X132665378Y-99505498D01*
X132618885Y-99451842D01*
X132607499Y-99399500D01*
X132607499Y-99345982D01*
X132605577Y-99333848D01*
X132594198Y-99261994D01*
X132594197Y-99261992D01*
X132592646Y-99252196D01*
X132585291Y-99237760D01*
X132565761Y-99199432D01*
X132535050Y-99139158D01*
X132445342Y-99049450D01*
X132332304Y-98991854D01*
X132322515Y-98990304D01*
X132322513Y-98990303D01*
X132295151Y-98985970D01*
X132238519Y-98977000D01*
X131762597Y-98977000D01*
X131286482Y-98977001D01*
X131281589Y-98977776D01*
X131281588Y-98977776D01*
X131202494Y-98990302D01*
X131202492Y-98990303D01*
X131192696Y-98991854D01*
X131183859Y-98996357D01*
X131183858Y-98996357D01*
X131173694Y-99001536D01*
X131079658Y-99049450D01*
X130989950Y-99139158D01*
X130932354Y-99252196D01*
X130930803Y-99261989D01*
X130929833Y-99264974D01*
X130889760Y-99323580D01*
X130824363Y-99351217D01*
X130754407Y-99339110D01*
X130702100Y-99291104D01*
X130690167Y-99264974D01*
X130689197Y-99261988D01*
X130687646Y-99252196D01*
X130630050Y-99139158D01*
X130540342Y-99049450D01*
X130476797Y-99017072D01*
X130425182Y-98968323D01*
X130408000Y-98904805D01*
X130408000Y-94988500D01*
X137316584Y-94988500D01*
X137322980Y-94999770D01*
X138527188Y-96203978D01*
X138541132Y-96211592D01*
X138542965Y-96211461D01*
X138549580Y-96207210D01*
X139756604Y-95000186D01*
X139763795Y-94987017D01*
X139756473Y-94976780D01*
X139709233Y-94938115D01*
X139702261Y-94933160D01*
X139476122Y-94794582D01*
X139468552Y-94790624D01*
X139225704Y-94684022D01*
X139217644Y-94681120D01*
X138962592Y-94608467D01*
X138954214Y-94606685D01*
X138691656Y-94569318D01*
X138683111Y-94568691D01*
X138417908Y-94567302D01*
X138409374Y-94567839D01*
X138146433Y-94602456D01*
X138138035Y-94604149D01*
X137882238Y-94674127D01*
X137874143Y-94676946D01*
X137630199Y-94780997D01*
X137622577Y-94784881D01*
X137395013Y-94921075D01*
X137387981Y-94925962D01*
X137325053Y-94976377D01*
X137316584Y-94988500D01*
X130408000Y-94988500D01*
X130408000Y-86773610D01*
X130428002Y-86705489D01*
X130444905Y-86684515D01*
X130563643Y-86565777D01*
X130567452Y-86562124D01*
X130606833Y-86525911D01*
X130613156Y-86520097D01*
X130636099Y-86483094D01*
X130642800Y-86473344D01*
X130669112Y-86438679D01*
X130674646Y-86424700D01*
X130684707Y-86404697D01*
X130692635Y-86391910D01*
X130697364Y-86375635D01*
X130704775Y-86350124D01*
X130708618Y-86338900D01*
X130718384Y-86314233D01*
X130762060Y-86258260D01*
X130782279Y-86246427D01*
X130837734Y-86220568D01*
X131024139Y-86090047D01*
X131185047Y-85929139D01*
X131315568Y-85742734D01*
X131335805Y-85699336D01*
X131382723Y-85646051D01*
X131451000Y-85626590D01*
X131518960Y-85647132D01*
X131564195Y-85699336D01*
X131584432Y-85742734D01*
X131714953Y-85929139D01*
X131875861Y-86090047D01*
X132062266Y-86220568D01*
X132067244Y-86222889D01*
X132067247Y-86222891D01*
X132263130Y-86314233D01*
X132268504Y-86316739D01*
X132273812Y-86318161D01*
X132273814Y-86318162D01*
X132482993Y-86374211D01*
X132482995Y-86374211D01*
X132488308Y-86375635D01*
X132715000Y-86395468D01*
X132941692Y-86375635D01*
X132947005Y-86374211D01*
X132947007Y-86374211D01*
X133156186Y-86318162D01*
X133156188Y-86318161D01*
X133161496Y-86316739D01*
X133166870Y-86314233D01*
X133362753Y-86222891D01*
X133362756Y-86222889D01*
X133367734Y-86220568D01*
X133554139Y-86090047D01*
X133715047Y-85929139D01*
X133845568Y-85742734D01*
X133890653Y-85646051D01*
X133939416Y-85541478D01*
X133939417Y-85541476D01*
X133941739Y-85536496D01*
X133991747Y-85349865D01*
X133999211Y-85322007D01*
X133999211Y-85322005D01*
X134000635Y-85316692D01*
X134020468Y-85090000D01*
X134000635Y-84863308D01*
X133999211Y-84857993D01*
X133943162Y-84648814D01*
X133943161Y-84648812D01*
X133941739Y-84643504D01*
X133933362Y-84625540D01*
X133847891Y-84442247D01*
X133847889Y-84442244D01*
X133845568Y-84437266D01*
X133715047Y-84250861D01*
X133554139Y-84089953D01*
X133367734Y-83959432D01*
X133362756Y-83957111D01*
X133362753Y-83957109D01*
X133313613Y-83934195D01*
X133260328Y-83887278D01*
X133240867Y-83819000D01*
X133261409Y-83751041D01*
X133313613Y-83705805D01*
X133320755Y-83702475D01*
X133344243Y-83691522D01*
X133362753Y-83682891D01*
X133362756Y-83682889D01*
X133367734Y-83680568D01*
X133554139Y-83550047D01*
X133715047Y-83389139D01*
X133845568Y-83202734D01*
X133850844Y-83191421D01*
X133939416Y-83001478D01*
X133939417Y-83001476D01*
X133941739Y-82996496D01*
X133950714Y-82963003D01*
X133999211Y-82782007D01*
X133999211Y-82782005D01*
X134000635Y-82776692D01*
X134020468Y-82550000D01*
X134000635Y-82323308D01*
X133999211Y-82317993D01*
X133943162Y-82108814D01*
X133943161Y-82108812D01*
X133941739Y-82103504D01*
X133920268Y-82057459D01*
X133847891Y-81902247D01*
X133847889Y-81902244D01*
X133845568Y-81897266D01*
X133715047Y-81710861D01*
X133554139Y-81549953D01*
X133367734Y-81419432D01*
X133362756Y-81417111D01*
X133362753Y-81417109D01*
X133166478Y-81325584D01*
X133166476Y-81325583D01*
X133161496Y-81323261D01*
X133156188Y-81321839D01*
X133156186Y-81321838D01*
X132947007Y-81265789D01*
X132947005Y-81265789D01*
X132941692Y-81264365D01*
X132715000Y-81244532D01*
X132488308Y-81264365D01*
X132482995Y-81265789D01*
X132482993Y-81265789D01*
X132273814Y-81321838D01*
X132273812Y-81321839D01*
X132268504Y-81323261D01*
X132263524Y-81325583D01*
X132263522Y-81325584D01*
X132067247Y-81417109D01*
X132067244Y-81417111D01*
X132062266Y-81419432D01*
X131875861Y-81549953D01*
X131714953Y-81710861D01*
X131584432Y-81897266D01*
X131582111Y-81902244D01*
X131582109Y-81902247D01*
X131564195Y-81940664D01*
X131517277Y-81993949D01*
X131449000Y-82013410D01*
X131381040Y-81992868D01*
X131335805Y-81940664D01*
X131317891Y-81902247D01*
X131317889Y-81902244D01*
X131315568Y-81897266D01*
X131185047Y-81710861D01*
X131024139Y-81549953D01*
X130837734Y-81419432D01*
X130832756Y-81417111D01*
X130832753Y-81417109D01*
X130636478Y-81325584D01*
X130636476Y-81325583D01*
X130631496Y-81323261D01*
X130626188Y-81321839D01*
X130626186Y-81321838D01*
X130417007Y-81265789D01*
X130417005Y-81265789D01*
X130411692Y-81264365D01*
X130185000Y-81244532D01*
X129958308Y-81264365D01*
X129952995Y-81265789D01*
X129952993Y-81265789D01*
X129743814Y-81321838D01*
X129743812Y-81321839D01*
X129738504Y-81323261D01*
X129733524Y-81325583D01*
X129733522Y-81325584D01*
X129537247Y-81417109D01*
X129537244Y-81417111D01*
X129532266Y-81419432D01*
X129345861Y-81549953D01*
X129184953Y-81710861D01*
X129054432Y-81897266D01*
X129052111Y-81902244D01*
X129052109Y-81902247D01*
X129029195Y-81951387D01*
X128982278Y-82004672D01*
X128914000Y-82024133D01*
X128846041Y-82003591D01*
X128800805Y-81951387D01*
X128777891Y-81902247D01*
X128777889Y-81902244D01*
X128775568Y-81897266D01*
X128645047Y-81710861D01*
X128484139Y-81549953D01*
X128297734Y-81419432D01*
X128292756Y-81417111D01*
X128292753Y-81417109D01*
X128096478Y-81325584D01*
X128096476Y-81325583D01*
X128091496Y-81323261D01*
X128086188Y-81321839D01*
X128086186Y-81321838D01*
X127877007Y-81265789D01*
X127877005Y-81265789D01*
X127871692Y-81264365D01*
X127645000Y-81244532D01*
X127418308Y-81264365D01*
X127412995Y-81265789D01*
X127412993Y-81265789D01*
X127203814Y-81321838D01*
X127203812Y-81321839D01*
X127198504Y-81323261D01*
X127193524Y-81325583D01*
X127193522Y-81325584D01*
X126997247Y-81417109D01*
X126997244Y-81417111D01*
X126992266Y-81419432D01*
X126805861Y-81549953D01*
X126644953Y-81710861D01*
X126514432Y-81897266D01*
X126512111Y-81902244D01*
X126512109Y-81902247D01*
X126489195Y-81951387D01*
X126442278Y-82004672D01*
X126374000Y-82024133D01*
X126306041Y-82003591D01*
X126260805Y-81951387D01*
X126237891Y-81902247D01*
X126237889Y-81902244D01*
X126235568Y-81897266D01*
X126105047Y-81710861D01*
X125944139Y-81549953D01*
X125757734Y-81419432D01*
X125752756Y-81417111D01*
X125752753Y-81417109D01*
X125556478Y-81325584D01*
X125556476Y-81325583D01*
X125551496Y-81323261D01*
X125546188Y-81321839D01*
X125546186Y-81321838D01*
X125337007Y-81265789D01*
X125337005Y-81265789D01*
X125331692Y-81264365D01*
X125105000Y-81244532D01*
X124878308Y-81264365D01*
X124872995Y-81265789D01*
X124872993Y-81265789D01*
X124663814Y-81321838D01*
X124663812Y-81321839D01*
X124658504Y-81323261D01*
X124653524Y-81325583D01*
X124653522Y-81325584D01*
X124457247Y-81417109D01*
X124457244Y-81417111D01*
X124452266Y-81419432D01*
X124265861Y-81549953D01*
X124104953Y-81710861D01*
X124101794Y-81715373D01*
X124001388Y-81858768D01*
X123945931Y-81903097D01*
X123875312Y-81910406D01*
X123811951Y-81878376D01*
X123792383Y-81854938D01*
X123734224Y-81765038D01*
X123723538Y-81755835D01*
X123713973Y-81760238D01*
X122937021Y-82537189D01*
X122929408Y-82551132D01*
X122929539Y-82552966D01*
X122933790Y-82559580D01*
X123711307Y-83337096D01*
X123723313Y-83343652D01*
X123735052Y-83334684D01*
X123773010Y-83281859D01*
X123778321Y-83273019D01*
X123785622Y-83258248D01*
X123833737Y-83206042D01*
X123902438Y-83188136D01*
X123969914Y-83210216D01*
X124001791Y-83241807D01*
X124104953Y-83389139D01*
X124265861Y-83550047D01*
X124264422Y-83551486D01*
X124298818Y-83603185D01*
X124304500Y-83640597D01*
X124304500Y-83999403D01*
X124284498Y-84067524D01*
X124265270Y-84089362D01*
X124265861Y-84089953D01*
X124182562Y-84173252D01*
X124120250Y-84207278D01*
X124049435Y-84202213D01*
X123992599Y-84159666D01*
X123968204Y-84097765D01*
X123967105Y-84087647D01*
X123963479Y-84072396D01*
X123918324Y-83951946D01*
X123909786Y-83936351D01*
X123833285Y-83834276D01*
X123820724Y-83821715D01*
X123718649Y-83745214D01*
X123703054Y-83736676D01*
X123582606Y-83691522D01*
X123567351Y-83687895D01*
X123516486Y-83682369D01*
X123509672Y-83682000D01*
X123498896Y-83682000D01*
X123448158Y-83696898D01*
X123447068Y-83693187D01*
X123424642Y-83702475D01*
X123354774Y-83689868D01*
X123322081Y-83666292D01*
X122577811Y-82922021D01*
X122563868Y-82914408D01*
X122562034Y-82914539D01*
X122555420Y-82918790D01*
X121804643Y-83669568D01*
X121742330Y-83703593D01*
X121671515Y-83698529D01*
X121655161Y-83691060D01*
X121638571Y-83682001D01*
X121620331Y-83682001D01*
X121613510Y-83682371D01*
X121562648Y-83687895D01*
X121547396Y-83691521D01*
X121426946Y-83736676D01*
X121411351Y-83745214D01*
X121309276Y-83821715D01*
X121296715Y-83834276D01*
X121220214Y-83936351D01*
X121211676Y-83951946D01*
X121166522Y-84072394D01*
X121162895Y-84087649D01*
X121157369Y-84138514D01*
X121157000Y-84145328D01*
X121157000Y-84817885D01*
X121161475Y-84833124D01*
X121162865Y-84834329D01*
X121170548Y-84836000D01*
X122693000Y-84836000D01*
X122761121Y-84856002D01*
X122807614Y-84909658D01*
X122819000Y-84962000D01*
X122819000Y-86479884D01*
X122823475Y-86495123D01*
X122824865Y-86496328D01*
X122832548Y-86497999D01*
X123509669Y-86497999D01*
X123516490Y-86497629D01*
X123567352Y-86492105D01*
X123582604Y-86488479D01*
X123703054Y-86443324D01*
X123718649Y-86434786D01*
X123820724Y-86358285D01*
X123833285Y-86345724D01*
X123909786Y-86243649D01*
X123918324Y-86228054D01*
X123963478Y-86107606D01*
X123967106Y-86092350D01*
X123968204Y-86082238D01*
X123995444Y-86016675D01*
X124053807Y-85976248D01*
X124124761Y-85973791D01*
X124182562Y-86006748D01*
X124265861Y-86090047D01*
X124264422Y-86091486D01*
X124298818Y-86143185D01*
X124304500Y-86180597D01*
X124304500Y-87617232D01*
X124284498Y-87685353D01*
X124267595Y-87706327D01*
X123948752Y-88025170D01*
X123886440Y-88059196D01*
X123815625Y-88054131D01*
X123770562Y-88025170D01*
X123682342Y-87936950D01*
X123569304Y-87879354D01*
X123559515Y-87877804D01*
X123559513Y-87877803D01*
X123532151Y-87873470D01*
X123475519Y-87864500D01*
X122428212Y-87864500D01*
X121380482Y-87864501D01*
X121375589Y-87865276D01*
X121375588Y-87865276D01*
X121296494Y-87877802D01*
X121296492Y-87877803D01*
X121286696Y-87879354D01*
X121277859Y-87883857D01*
X121277858Y-87883857D01*
X121255473Y-87895263D01*
X121173658Y-87936950D01*
X121083950Y-88026658D01*
X121070315Y-88053418D01*
X121030855Y-88130861D01*
X121030854Y-88130864D01*
X121026354Y-88139696D01*
X121025890Y-88142623D01*
X120987995Y-88198043D01*
X120922598Y-88225679D01*
X120908236Y-88226500D01*
X120906768Y-88226500D01*
X120838647Y-88206498D01*
X120817673Y-88189595D01*
X120714519Y-88086441D01*
X120713590Y-88085503D01*
X120682170Y-88053418D01*
X120651141Y-88021732D01*
X120645221Y-88017917D01*
X120645215Y-88017912D01*
X120615109Y-87998510D01*
X120604755Y-87991070D01*
X120576774Y-87968733D01*
X120571266Y-87964336D01*
X120541441Y-87949918D01*
X120528025Y-87942389D01*
X120506109Y-87928265D01*
X120500183Y-87924446D01*
X120459909Y-87909787D01*
X120448169Y-87904828D01*
X120415916Y-87889237D01*
X120415917Y-87889237D01*
X120409578Y-87886173D01*
X120402723Y-87884590D01*
X120402719Y-87884589D01*
X120380042Y-87879354D01*
X120377302Y-87878721D01*
X120362554Y-87874352D01*
X120338045Y-87865432D01*
X120338041Y-87865431D01*
X120331422Y-87863022D01*
X120288882Y-87857648D01*
X120276363Y-87855418D01*
X120234589Y-87845774D01*
X120227548Y-87845749D01*
X120227545Y-87845749D01*
X120194418Y-87845633D01*
X120193545Y-87845604D01*
X120192717Y-87845500D01*
X120156262Y-87845500D01*
X120155822Y-87845499D01*
X120058493Y-87845159D01*
X120058490Y-87845159D01*
X120055000Y-87845147D01*
X120053812Y-87845413D01*
X120052200Y-87845500D01*
X119570026Y-87845500D01*
X119501905Y-87825498D01*
X119484497Y-87812025D01*
X119356189Y-87693418D01*
X119356186Y-87693416D01*
X119351949Y-87689499D01*
X119165350Y-87571764D01*
X119150865Y-87565985D01*
X119115082Y-87551709D01*
X119059222Y-87507888D01*
X119035922Y-87440824D01*
X119052578Y-87371809D01*
X119108522Y-87320484D01*
X119269511Y-87245414D01*
X119279006Y-87239931D01*
X119331048Y-87203491D01*
X119339424Y-87193012D01*
X119332356Y-87179566D01*
X118630812Y-86478022D01*
X118616868Y-86470408D01*
X118615035Y-86470539D01*
X118608420Y-86474790D01*
X117902923Y-87180287D01*
X117896493Y-87192062D01*
X117905789Y-87204077D01*
X117956994Y-87239931D01*
X117966489Y-87245414D01*
X118125020Y-87319338D01*
X118178305Y-87366255D01*
X118197766Y-87434533D01*
X118177224Y-87502493D01*
X118123201Y-87548558D01*
X118115380Y-87551745D01*
X118108646Y-87554230D01*
X118098957Y-87557804D01*
X118093996Y-87560756D01*
X118093995Y-87560756D01*
X117979525Y-87628859D01*
X117909341Y-87670614D01*
X117743457Y-87816090D01*
X117606863Y-87989360D01*
X117504131Y-88184620D01*
X117438703Y-88395333D01*
X117412770Y-88614440D01*
X117427200Y-88834604D01*
X117481511Y-89048452D01*
X117573883Y-89248821D01*
X117701222Y-89429002D01*
X117859264Y-89582961D01*
X117864060Y-89586166D01*
X117864063Y-89586168D01*
X117889316Y-89603041D01*
X117953888Y-89646186D01*
X117955459Y-89647236D01*
X118000986Y-89701712D01*
X118009835Y-89772156D01*
X117979194Y-89836200D01*
X117918792Y-89873511D01*
X117885457Y-89878001D01*
X117773331Y-89878001D01*
X117766510Y-89878371D01*
X117715648Y-89883895D01*
X117700396Y-89887521D01*
X117579946Y-89932676D01*
X117564351Y-89941214D01*
X117462276Y-90017715D01*
X117449715Y-90030276D01*
X117373214Y-90132351D01*
X117364676Y-90147946D01*
X117319522Y-90268394D01*
X117315895Y-90283649D01*
X117310369Y-90334514D01*
X117310000Y-90341328D01*
X117310000Y-90913885D01*
X109100193Y-90913885D01*
X109866263Y-90147815D01*
X109928575Y-90113789D01*
X109999390Y-90118854D01*
X110012561Y-90124644D01*
X110101858Y-90170144D01*
X110101865Y-90170146D01*
X110110696Y-90174646D01*
X110120485Y-90176196D01*
X110120487Y-90176197D01*
X110147849Y-90180530D01*
X110204481Y-90189500D01*
X111251788Y-90189500D01*
X112299518Y-90189499D01*
X112304412Y-90188724D01*
X112383506Y-90176198D01*
X112383508Y-90176197D01*
X112393304Y-90174646D01*
X112506342Y-90117050D01*
X112596050Y-90027342D01*
X112653646Y-89914304D01*
X112668500Y-89820519D01*
X112668499Y-88233482D01*
X112663754Y-88203518D01*
X112655198Y-88149494D01*
X112655197Y-88149492D01*
X112653646Y-88139696D01*
X112649142Y-88130857D01*
X112649141Y-88130853D01*
X112603644Y-88041561D01*
X112590539Y-87971785D01*
X112617239Y-87906000D01*
X112626815Y-87895263D01*
X114410603Y-86111475D01*
X117305483Y-86111475D01*
X117324472Y-86328519D01*
X117326375Y-86339312D01*
X117382764Y-86549761D01*
X117386510Y-86560053D01*
X117478586Y-86757511D01*
X117484069Y-86767006D01*
X117520509Y-86819048D01*
X117530988Y-86827424D01*
X117544434Y-86820356D01*
X118245978Y-86118812D01*
X118252356Y-86107132D01*
X118982408Y-86107132D01*
X118982539Y-86108965D01*
X118986790Y-86115580D01*
X119692287Y-86821077D01*
X119704062Y-86827507D01*
X119716077Y-86818211D01*
X119751931Y-86767006D01*
X119757414Y-86757511D01*
X119849490Y-86560053D01*
X119853236Y-86549761D01*
X119909625Y-86339312D01*
X119911528Y-86328519D01*
X119930517Y-86111475D01*
X119930517Y-86100525D01*
X119924755Y-86034669D01*
X121157001Y-86034669D01*
X121157371Y-86041490D01*
X121162895Y-86092352D01*
X121166521Y-86107604D01*
X121211676Y-86228054D01*
X121220214Y-86243649D01*
X121296715Y-86345724D01*
X121309276Y-86358285D01*
X121411351Y-86434786D01*
X121426946Y-86443324D01*
X121547394Y-86488478D01*
X121562649Y-86492105D01*
X121613514Y-86497631D01*
X121620328Y-86498000D01*
X122292885Y-86498000D01*
X122308124Y-86493525D01*
X122309329Y-86492135D01*
X122311000Y-86484452D01*
X122311000Y-85362115D01*
X122306525Y-85346876D01*
X122305135Y-85345671D01*
X122297452Y-85344000D01*
X121175116Y-85344000D01*
X121159877Y-85348475D01*
X121158672Y-85349865D01*
X121157001Y-85357548D01*
X121157001Y-86034669D01*
X119924755Y-86034669D01*
X119911528Y-85883481D01*
X119909625Y-85872688D01*
X119853236Y-85662239D01*
X119849490Y-85651947D01*
X119757414Y-85454489D01*
X119751931Y-85444994D01*
X119715491Y-85392952D01*
X119705012Y-85384576D01*
X119691566Y-85391644D01*
X118990022Y-86093188D01*
X118982408Y-86107132D01*
X118252356Y-86107132D01*
X118253592Y-86104868D01*
X118253461Y-86103035D01*
X118249210Y-86096420D01*
X117543713Y-85390923D01*
X117531938Y-85384493D01*
X117519923Y-85393789D01*
X117484069Y-85444994D01*
X117478586Y-85454489D01*
X117386510Y-85651947D01*
X117382764Y-85662239D01*
X117326375Y-85872688D01*
X117324472Y-85883481D01*
X117305483Y-86100525D01*
X117305483Y-86111475D01*
X114410603Y-86111475D01*
X116118673Y-84403405D01*
X116180985Y-84369379D01*
X116207768Y-84366500D01*
X117667956Y-84366500D01*
X117736077Y-84386502D01*
X117755878Y-84402246D01*
X117859264Y-84502961D01*
X117864060Y-84506166D01*
X117864063Y-84506168D01*
X118010226Y-84603830D01*
X118042717Y-84625540D01*
X118048019Y-84627818D01*
X118048032Y-84627825D01*
X118125200Y-84660979D01*
X118179893Y-84706247D01*
X118201430Y-84773898D01*
X118182973Y-84842453D01*
X118128712Y-84890941D01*
X117966489Y-84966586D01*
X117956994Y-84972069D01*
X117904952Y-85008509D01*
X117896576Y-85018988D01*
X117903644Y-85032434D01*
X118605188Y-85733978D01*
X118619132Y-85741592D01*
X118620965Y-85741461D01*
X118627580Y-85737210D01*
X119333077Y-85031713D01*
X119339507Y-85019938D01*
X119330211Y-85007923D01*
X119279006Y-84972069D01*
X119269511Y-84966586D01*
X119112539Y-84893389D01*
X119059254Y-84846472D01*
X119039793Y-84778194D01*
X119060335Y-84710234D01*
X119109109Y-84668714D01*
X119108379Y-84667410D01*
X119119862Y-84660979D01*
X119300884Y-84559602D01*
X119318836Y-84544672D01*
X119466086Y-84422204D01*
X119470518Y-84418518D01*
X119513781Y-84366500D01*
X119607908Y-84253326D01*
X119607910Y-84253323D01*
X119611602Y-84248884D01*
X119710441Y-84072394D01*
X119716586Y-84061422D01*
X119716587Y-84061420D01*
X119719410Y-84056379D01*
X119721266Y-84050912D01*
X119721268Y-84050907D01*
X119788475Y-83852921D01*
X119788476Y-83852916D01*
X119790331Y-83847452D01*
X119791159Y-83841743D01*
X119791160Y-83841738D01*
X119814320Y-83682001D01*
X119821991Y-83629098D01*
X119823643Y-83566000D01*
X119803454Y-83346289D01*
X119800862Y-83337096D01*
X119745134Y-83139500D01*
X119743565Y-83133936D01*
X119645980Y-82936053D01*
X119576678Y-82843246D01*
X119517420Y-82763891D01*
X119517420Y-82763890D01*
X119513967Y-82759267D01*
X119351949Y-82609499D01*
X119211113Y-82520638D01*
X121152893Y-82520638D01*
X121165627Y-82741468D01*
X121167061Y-82751670D01*
X121215685Y-82967439D01*
X121218773Y-82977292D01*
X121301986Y-83182220D01*
X121306634Y-83191421D01*
X121395097Y-83335781D01*
X121405553Y-83345242D01*
X121414331Y-83341458D01*
X122192979Y-82562811D01*
X122200592Y-82548868D01*
X122200461Y-82547034D01*
X122196210Y-82540420D01*
X121418862Y-81763073D01*
X121407330Y-81756776D01*
X121395048Y-81766399D01*
X121339467Y-81847877D01*
X121334379Y-81856833D01*
X121241252Y-82057459D01*
X121237689Y-82067146D01*
X121178581Y-82280280D01*
X121176650Y-82290400D01*
X121153145Y-82510349D01*
X121152893Y-82520638D01*
X119211113Y-82520638D01*
X119165350Y-82491764D01*
X118960421Y-82410006D01*
X118954761Y-82408880D01*
X118954757Y-82408879D01*
X118749691Y-82368089D01*
X118749688Y-82368089D01*
X118744024Y-82366962D01*
X118738249Y-82366886D01*
X118738245Y-82366886D01*
X118627504Y-82365437D01*
X118523406Y-82364074D01*
X118517709Y-82365053D01*
X118517708Y-82365053D01*
X118311654Y-82400459D01*
X118311653Y-82400459D01*
X118305957Y-82401438D01*
X118098957Y-82477804D01*
X118093996Y-82480756D01*
X118093995Y-82480756D01*
X117956074Y-82562811D01*
X117909341Y-82590614D01*
X117745574Y-82734233D01*
X117681172Y-82764109D01*
X117662499Y-82765500D01*
X115833083Y-82765500D01*
X115831763Y-82765493D01*
X115830425Y-82765479D01*
X115742593Y-82764559D01*
X115700704Y-82773616D01*
X115688130Y-82775675D01*
X115679067Y-82776692D01*
X115652524Y-82779669D01*
X115652522Y-82779670D01*
X115645528Y-82780454D01*
X115614241Y-82791350D01*
X115599436Y-82795511D01*
X115573944Y-82801022D01*
X115573942Y-82801023D01*
X115567058Y-82802511D01*
X115560676Y-82805487D01*
X115560670Y-82805489D01*
X115528219Y-82820621D01*
X115516408Y-82825417D01*
X115482580Y-82837197D01*
X115482571Y-82837201D01*
X115475927Y-82839515D01*
X115447824Y-82857075D01*
X115434323Y-82864406D01*
X115404292Y-82878410D01*
X115377264Y-82899376D01*
X115370429Y-82904677D01*
X115359973Y-82911971D01*
X115343890Y-82922021D01*
X115323625Y-82934684D01*
X115318628Y-82939646D01*
X115318627Y-82939647D01*
X115295107Y-82963003D01*
X115294485Y-82963585D01*
X115293823Y-82964099D01*
X115267963Y-82989959D01*
X115196193Y-83061230D01*
X115195541Y-83062257D01*
X115194457Y-83063465D01*
X110692441Y-87565481D01*
X110691503Y-87566410D01*
X110627732Y-87628859D01*
X110623917Y-87634779D01*
X110623912Y-87634785D01*
X110604510Y-87664891D01*
X110597070Y-87675245D01*
X110585691Y-87689499D01*
X110570336Y-87708734D01*
X110567269Y-87715079D01*
X110555918Y-87738559D01*
X110548389Y-87751974D01*
X110530446Y-87779817D01*
X110528035Y-87786440D01*
X110524904Y-87792748D01*
X110522480Y-87791545D01*
X110487679Y-87838786D01*
X110421352Y-87864107D01*
X110411397Y-87864501D01*
X110204482Y-87864501D01*
X110199589Y-87865276D01*
X110199588Y-87865276D01*
X110120494Y-87877802D01*
X110120492Y-87877803D01*
X110110696Y-87879354D01*
X110101859Y-87883857D01*
X110101858Y-87883857D01*
X110079473Y-87895263D01*
X109997658Y-87936950D01*
X109907950Y-88026658D01*
X109850354Y-88139696D01*
X109849298Y-88146362D01*
X109810214Y-88203518D01*
X109757086Y-88229128D01*
X109731698Y-88234617D01*
X109719130Y-88236675D01*
X109704523Y-88238314D01*
X109683524Y-88240669D01*
X109683522Y-88240670D01*
X109676528Y-88241454D01*
X109645241Y-88252350D01*
X109630436Y-88256511D01*
X109604939Y-88262023D01*
X109604936Y-88262024D01*
X109598058Y-88263511D01*
X109559201Y-88281630D01*
X109547418Y-88286414D01*
X109506927Y-88300515D01*
X109487089Y-88312911D01*
X109478833Y-88318070D01*
X109465318Y-88325408D01*
X109435293Y-88339409D01*
X109429726Y-88343728D01*
X109429725Y-88343728D01*
X109401433Y-88365674D01*
X109390976Y-88372969D01*
X109360600Y-88391950D01*
X109360597Y-88391952D01*
X109354625Y-88395684D01*
X109349628Y-88400646D01*
X109349627Y-88400647D01*
X109326107Y-88424003D01*
X109325485Y-88424585D01*
X109324823Y-88425099D01*
X109298963Y-88450959D01*
X109227193Y-88522230D01*
X109226541Y-88523257D01*
X109225457Y-88524465D01*
X106374441Y-91375481D01*
X106373503Y-91376410D01*
X106309732Y-91438859D01*
X106305917Y-91444779D01*
X106305912Y-91444785D01*
X106286510Y-91474891D01*
X106279070Y-91485245D01*
X106252336Y-91518734D01*
X106249269Y-91525079D01*
X106237918Y-91548559D01*
X106230389Y-91561974D01*
X106212446Y-91589817D01*
X106210036Y-91596437D01*
X106210036Y-91596438D01*
X106197788Y-91630089D01*
X106192828Y-91641831D01*
X106174173Y-91680422D01*
X106172590Y-91687277D01*
X106172589Y-91687281D01*
X106166722Y-91712696D01*
X106162352Y-91727446D01*
X106153432Y-91751955D01*
X106153431Y-91751959D01*
X106151022Y-91758578D01*
X106145648Y-91801118D01*
X106143418Y-91813637D01*
X106133774Y-91855411D01*
X106133749Y-91862452D01*
X106133749Y-91862455D01*
X106133633Y-91895582D01*
X106133604Y-91896455D01*
X106133500Y-91897283D01*
X106133500Y-91933738D01*
X106133499Y-91934178D01*
X106133194Y-92021658D01*
X106133147Y-92035000D01*
X106133413Y-92036188D01*
X106133500Y-92037800D01*
X106133500Y-98669917D01*
X106133493Y-98671237D01*
X106132559Y-98760407D01*
X103632000Y-98760407D01*
X103632000Y-94007674D01*
X103643597Y-93954873D01*
X103809174Y-93596123D01*
X105153473Y-90683474D01*
X105159039Y-90672790D01*
X105386038Y-90283649D01*
X106929338Y-87637993D01*
X106939783Y-87622771D01*
X106999154Y-87548558D01*
X108961644Y-85095445D01*
X108970938Y-85085062D01*
X111496428Y-82559572D01*
X111517388Y-82542679D01*
X111591797Y-82494845D01*
X113309339Y-81390711D01*
X121770508Y-81390711D01*
X121777251Y-81403040D01*
X122552189Y-82177979D01*
X122566132Y-82185592D01*
X122567966Y-82185461D01*
X122574580Y-82181210D01*
X123353994Y-81401795D01*
X123361011Y-81388944D01*
X123353237Y-81378274D01*
X123350902Y-81376430D01*
X123342320Y-81370729D01*
X123148678Y-81263833D01*
X123139272Y-81259606D01*
X122930772Y-81185772D01*
X122920809Y-81183140D01*
X122703047Y-81144350D01*
X122692796Y-81143381D01*
X122471616Y-81140679D01*
X122461332Y-81141399D01*
X122242693Y-81174855D01*
X122232666Y-81177244D01*
X122022426Y-81245961D01*
X122012916Y-81249958D01*
X121816725Y-81352089D01*
X121808007Y-81357578D01*
X121778961Y-81379386D01*
X121770508Y-81390711D01*
X113309339Y-81390711D01*
X115054622Y-80268743D01*
X115069956Y-80260328D01*
X118355167Y-78744077D01*
X118373353Y-78737328D01*
X120139984Y-78232576D01*
X120144040Y-78231490D01*
X120556952Y-78128262D01*
X120587510Y-78124500D01*
X132638163Y-78124501D01*
G37*
%TD.AperFunction*%
%TD*%
M02*
