%TF.GenerationSoftware,KiCad,Pcbnew,6.0.11-2627ca5db0~126~ubuntu22.04.1*%
%TF.CreationDate,2023-12-06T09:34:45+01:00*%
%TF.ProjectId,heatervalve-interface,68656174-6572-4766-916c-76652d696e74,A*%
%TF.SameCoordinates,Original*%
%TF.FileFunction,Soldermask,Top*%
%TF.FilePolarity,Negative*%
%FSLAX46Y46*%
G04 Gerber Fmt 4.6, Leading zero omitted, Abs format (unit mm)*
G04 Created by KiCad (PCBNEW 6.0.11-2627ca5db0~126~ubuntu22.04.1) date 2023-12-06 09:34:45*
%MOMM*%
%LPD*%
G01*
G04 APERTURE LIST*
%ADD10R,1.800000X1.800000*%
%ADD11C,1.800000*%
%ADD12R,0.914400X0.914400*%
%ADD13R,2.032000X1.524000*%
%ADD14R,0.889000X1.397000*%
%ADD15R,1.600000X1.600000*%
%ADD16C,1.600000*%
%ADD17C,3.500000*%
%ADD18C,3.000000*%
G04 APERTURE END LIST*
D10*
%TO.C,J6*%
X121412000Y-106680000D03*
D11*
X118872000Y-106680000D03*
X121412000Y-104140000D03*
X118872000Y-104140000D03*
X121412000Y-101600000D03*
X118872000Y-101600000D03*
X121412000Y-99060000D03*
X118872000Y-99060000D03*
X121412000Y-96520000D03*
X118872000Y-96520000D03*
%TD*%
D12*
%TO.C,D2*%
X135509000Y-98044000D03*
X133731000Y-98044000D03*
X134620000Y-100076000D03*
%TD*%
D13*
%TO.C,C2*%
X111252000Y-89027000D03*
X111252000Y-92329000D03*
%TD*%
D14*
%TO.C,R2*%
X131762500Y-100076000D03*
X129857500Y-100076000D03*
%TD*%
D13*
%TO.C,C1*%
X122428000Y-89027000D03*
X122428000Y-92329000D03*
%TD*%
D12*
%TO.C,D1*%
X135509000Y-103378000D03*
X133731000Y-103378000D03*
X134620000Y-105410000D03*
%TD*%
D10*
%TO.C,J5*%
X108585000Y-107950000D03*
D11*
X108585000Y-105410000D03*
X108585000Y-102870000D03*
X108585000Y-100330000D03*
X108585000Y-97790000D03*
X108585000Y-95250000D03*
%TD*%
D14*
%TO.C,R1*%
X131762500Y-103378000D03*
X129857500Y-103378000D03*
%TD*%
%TO.C,R4*%
X112839500Y-105156000D03*
X114744500Y-105156000D03*
%TD*%
D15*
%TO.C,U1*%
X118618000Y-91186000D03*
D16*
X118618000Y-88646000D03*
X118618000Y-86106000D03*
X118618000Y-83566000D03*
%TD*%
D14*
%TO.C,R3*%
X112839500Y-107696000D03*
X114744500Y-107696000D03*
%TD*%
D10*
%TO.C,MOD1*%
X122565000Y-85090000D03*
D11*
X122565000Y-82550000D03*
X125105000Y-85090000D03*
X125105000Y-82550000D03*
X127645000Y-85090000D03*
X127645000Y-82550000D03*
X130185000Y-85090000D03*
X130185000Y-82550000D03*
X132715000Y-85090000D03*
X132715000Y-82550000D03*
D10*
X122565000Y-120650000D03*
D11*
X122565000Y-118110000D03*
X125105000Y-120650000D03*
X125105000Y-118110000D03*
X127645000Y-120650000D03*
X127645000Y-118110000D03*
X130185000Y-120650000D03*
X130185000Y-118110000D03*
X132715000Y-120650000D03*
X132715000Y-118110000D03*
D17*
X131201000Y-109474000D03*
%TD*%
D18*
%TO.C,J1*%
X143540000Y-108647000D03*
X138540000Y-105147000D03*
%TD*%
%TO.C,J2*%
X143540000Y-100076000D03*
X138540000Y-96576000D03*
%TD*%
M02*
