%FSLAX45Y45*%
G04 Gerber Fmt 4.5, Leading zero omitted, Abs format (unit mm)*
G04 Created by KiCad (PCBNEW 5.0.0-fee4fd1~66~ubuntu16.04.1) date Wed Sep 19 21:28:37 2018*
%MOMM*%
%LPD*%
G01*
G04 APERTURE LIST*
%ADD10C,0.150000*%
%ADD11C,0.200000*%
%ADD12C,0.300000*%
G04 APERTURE END LIST*
D10*
X13700000Y-11650000D02*
G75*
G03X13500000Y-11650000I-100000J0D01*
G01*
X13700000Y-11650000D02*
X13700000Y-11850000D01*
X13500000Y-11850000D02*
G75*
G03X13700000Y-11850000I100000J0D01*
G01*
X13500000Y-11650000D02*
X13500000Y-11850000D01*
X13700000Y-10250000D02*
G75*
G03X13500000Y-10250000I-100000J0D01*
G01*
X13500000Y-10450000D02*
G75*
G03X13700000Y-10450000I100000J0D01*
G01*
X13500000Y-10250000D02*
X13500000Y-10450000D01*
X13700000Y-10800000D02*
G75*
G03X13500000Y-10800000I-100000J0D01*
G01*
X13500000Y-10800000D02*
X13500000Y-11250000D01*
X13500000Y-11250000D02*
G75*
G03X13700000Y-11250000I100000J0D01*
G01*
X13700000Y-10800000D02*
X13700000Y-11250000D01*
X13700000Y-10250000D02*
X13700000Y-10450000D01*
X13700000Y-8850000D02*
G75*
G03X13500000Y-8850000I-100000J0D01*
G01*
X13500000Y-9050000D02*
G75*
G03X13700000Y-9050000I100000J0D01*
G01*
X13500000Y-8850000D02*
X13500000Y-9050000D01*
X13700000Y-9400000D02*
G75*
G03X13500000Y-9400000I-100000J0D01*
G01*
X13500000Y-9400000D02*
X13500000Y-9850000D01*
X13500000Y-9850000D02*
G75*
G03X13700000Y-9850000I100000J0D01*
G01*
X13700000Y-9400000D02*
X13700000Y-9850000D01*
X13700000Y-8850000D02*
X13700000Y-9050000D01*
X12900000Y-12800000D02*
G75*
G03X12800000Y-12700000I-100000J0D01*
G01*
X12700000Y-13750000D02*
G75*
G03X12900000Y-13750000I100000J0D01*
G01*
X11400000Y-12700000D02*
G75*
G03X11400000Y-12900000I0J-100000D01*
G01*
X13700000Y-7450000D02*
G75*
G03X13500000Y-7450000I-100000J0D01*
G01*
X13700000Y-7450000D02*
X13700000Y-7650000D01*
X13700000Y-8000000D02*
G75*
G03X13500000Y-8000000I-100000J0D01*
G01*
X13700000Y-8000000D02*
X13700000Y-8450000D01*
X13500000Y-7650000D02*
G75*
G03X13700000Y-7650000I100000J0D01*
G01*
X13500000Y-7450000D02*
X13500000Y-7650000D01*
X13500000Y-8000000D02*
X13500000Y-8450000D01*
X13500000Y-8450000D02*
G75*
G03X13700000Y-8450000I100000J0D01*
G01*
X13700000Y-6050000D02*
G75*
G03X13500000Y-6050000I-100000J0D01*
G01*
X13500000Y-6250000D02*
G75*
G03X13700000Y-6250000I100000J0D01*
G01*
X13700000Y-6050000D02*
X13700000Y-6250000D01*
X13500000Y-6050000D02*
X13500000Y-6250000D01*
X13700000Y-6600000D02*
X13700000Y-7050000D01*
X13500000Y-6600000D02*
X13500000Y-7050000D01*
X13500000Y-7050000D02*
G75*
G03X13700000Y-7050000I100000J0D01*
G01*
X13700000Y-6600000D02*
G75*
G03X13500000Y-6600000I-100000J0D01*
G01*
X13700000Y-5200000D02*
X13700000Y-5650000D01*
X13500000Y-5200000D02*
X13500000Y-5650000D01*
X13500000Y-5650000D02*
G75*
G03X13700000Y-5650000I100000J0D01*
G01*
X13700000Y-5200000D02*
G75*
G03X13500000Y-5200000I-100000J0D01*
G01*
X12800000Y-12700000D02*
X11400000Y-12700000D01*
X12900000Y-13750000D02*
X12900000Y-12800000D01*
X12700000Y-12900000D02*
X12700000Y-13750000D01*
X11400000Y-12900000D02*
X12700000Y-12900000D01*
X10000000Y-13960000D02*
X10000000Y-5000000D01*
X19300000Y-13960000D02*
X10000000Y-13960000D01*
X19300000Y-5000000D02*
X19300000Y-13960000D01*
X10000000Y-5000000D02*
X19300000Y-5000000D01*
D11*
D12*
X10278928Y-14433214D02*
X10278928Y-14133214D01*
X10350357Y-14133214D01*
X10393214Y-14147500D01*
X10421786Y-14176071D01*
X10436071Y-14204643D01*
X10450357Y-14261786D01*
X10450357Y-14304643D01*
X10436071Y-14361786D01*
X10421786Y-14390357D01*
X10393214Y-14418929D01*
X10350357Y-14433214D01*
X10278928Y-14433214D01*
X10578928Y-14433214D02*
X10578928Y-14233214D01*
X10578928Y-14290357D02*
X10593214Y-14261786D01*
X10607500Y-14247500D01*
X10636071Y-14233214D01*
X10664643Y-14233214D01*
X10764643Y-14433214D02*
X10764643Y-14233214D01*
X10764643Y-14133214D02*
X10750357Y-14147500D01*
X10764643Y-14161786D01*
X10778928Y-14147500D01*
X10764643Y-14133214D01*
X10764643Y-14161786D01*
X10950357Y-14433214D02*
X10921786Y-14418929D01*
X10907500Y-14390357D01*
X10907500Y-14133214D01*
X11107500Y-14433214D02*
X11078928Y-14418929D01*
X11064643Y-14390357D01*
X11064643Y-14133214D01*
X11450357Y-14433214D02*
X11450357Y-14133214D01*
X11550357Y-14347500D01*
X11650357Y-14133214D01*
X11650357Y-14433214D01*
X11921786Y-14433214D02*
X11921786Y-14276071D01*
X11907500Y-14247500D01*
X11878928Y-14233214D01*
X11821786Y-14233214D01*
X11793214Y-14247500D01*
X11921786Y-14418929D02*
X11893214Y-14433214D01*
X11821786Y-14433214D01*
X11793214Y-14418929D01*
X11778928Y-14390357D01*
X11778928Y-14361786D01*
X11793214Y-14333214D01*
X11821786Y-14318929D01*
X11893214Y-14318929D01*
X11921786Y-14304643D01*
X12064643Y-14233214D02*
X12064643Y-14533214D01*
X12064643Y-14247500D02*
X12093214Y-14233214D01*
X12150357Y-14233214D01*
X12178928Y-14247500D01*
X12193214Y-14261786D01*
X12207500Y-14290357D01*
X12207500Y-14376071D01*
X12193214Y-14404643D01*
X12178928Y-14418929D01*
X12150357Y-14433214D01*
X12093214Y-14433214D01*
X12064643Y-14418929D01*
X12336071Y-14404643D02*
X12350357Y-14418929D01*
X12336071Y-14433214D01*
X12321786Y-14418929D01*
X12336071Y-14404643D01*
X12336071Y-14433214D01*
X12336071Y-14247500D02*
X12350357Y-14261786D01*
X12336071Y-14276071D01*
X12321786Y-14261786D01*
X12336071Y-14247500D01*
X12336071Y-14276071D01*
M02*
