G04 #@! TF.GenerationSoftware,KiCad,Pcbnew,5.0.0-fee4fd1~66~ubuntu16.04.1*
G04 #@! TF.CreationDate,2018-09-19T21:28:41+02:00*
G04 #@! TF.ProjectId,motor_switch_3pole_5x,6D6F746F725F7377697463685F33706F,1*
G04 #@! TF.SameCoordinates,Original*
G04 #@! TF.FileFunction,Soldermask,Bot*
G04 #@! TF.FilePolarity,Negative*
%FSLAX46Y46*%
G04 Gerber Fmt 4.6, Leading zero omitted, Abs format (unit mm)*
G04 Created by KiCad (PCBNEW 5.0.0-fee4fd1~66~ubuntu16.04.1) date Wed Sep 19 21:28:41 2018*
%MOMM*%
%LPD*%
G01*
G04 APERTURE LIST*
%ADD10R,1.543000X0.908000*%
%ADD11C,2.400000*%
%ADD12C,2.000000*%
%ADD13R,2.000000X2.000000*%
%ADD14R,2.200000X2.200000*%
%ADD15C,2.200000*%
%ADD16C,3.400000*%
%ADD17C,2.600000*%
%ADD18R,1.797000X1.289000*%
%ADD19R,1.314400X1.314400*%
%ADD20C,1.250000*%
%ADD21C,0.100000*%
%ADD22R,1.250000X1.250000*%
%ADD23R,1.250000X1.600000*%
%ADD24R,2.180540X3.600400*%
%ADD25O,2.200000X1.400000*%
%ADD26R,1.289000X1.797000*%
%ADD27R,1.924000X2.432000*%
%ADD28R,1.901140X2.899360*%
%ADD29R,2.398980X4.900880*%
%ADD30R,0.950000X1.900000*%
%ADD31R,1.900000X0.950000*%
%ADD32R,3.300000X3.300000*%
%ADD33C,1.400000*%
G04 APERTURE END LIST*
D10*
G04 #@! TO.C,U1*
X169215000Y-61595000D03*
X162865000Y-62865000D03*
X162865000Y-61595000D03*
X162865000Y-60325000D03*
X162865000Y-59055000D03*
X162865000Y-57785000D03*
X162865000Y-56515000D03*
X162865000Y-55245000D03*
X162865000Y-53975000D03*
X169215000Y-53975000D03*
X169215000Y-55245000D03*
X169215000Y-56515000D03*
X169215000Y-57785000D03*
X169215000Y-59055000D03*
X169215000Y-60325000D03*
X169215000Y-62865000D03*
G04 #@! TD*
G04 #@! TO.C,U2*
X169215000Y-76835000D03*
X162865000Y-78105000D03*
X162865000Y-76835000D03*
X162865000Y-75565000D03*
X162865000Y-74295000D03*
X162865000Y-73025000D03*
X162865000Y-71755000D03*
X162865000Y-70485000D03*
X162865000Y-69215000D03*
X169215000Y-69215000D03*
X169215000Y-70485000D03*
X169215000Y-71755000D03*
X169215000Y-73025000D03*
X169215000Y-74295000D03*
X169215000Y-75565000D03*
X169215000Y-78105000D03*
G04 #@! TD*
G04 #@! TO.C,U3*
X162865000Y-88165000D03*
X162865000Y-86895000D03*
X162865000Y-85625000D03*
X162865000Y-84355000D03*
X169215000Y-84355000D03*
X169215000Y-85625000D03*
X169215000Y-86895000D03*
X169215000Y-88165000D03*
G04 #@! TD*
G04 #@! TO.C,U6*
X174625000Y-123825000D03*
X174625000Y-122555000D03*
X174625000Y-121285000D03*
X174625000Y-120015000D03*
X180975000Y-120015000D03*
X180975000Y-121285000D03*
X180975000Y-122555000D03*
X180975000Y-123825000D03*
G04 #@! TD*
D11*
G04 #@! TO.C,J13*
X183515000Y-133350000D03*
G04 #@! TD*
G04 #@! TO.C,J14*
X183515000Y-127635000D03*
G04 #@! TD*
G04 #@! TO.C,J15*
X183515000Y-121920000D03*
G04 #@! TD*
G04 #@! TO.C,J16*
X183515000Y-116205000D03*
G04 #@! TD*
D12*
G04 #@! TO.C,U7*
X164465000Y-133985000D03*
X167005000Y-133985000D03*
X169545000Y-133985000D03*
D13*
X172085000Y-133985000D03*
G04 #@! TD*
D14*
G04 #@! TO.C,J12*
X151130000Y-135255000D03*
D15*
X151130000Y-132715000D03*
X153670000Y-135255000D03*
X153670000Y-132715000D03*
X156210000Y-135255000D03*
X156210000Y-132715000D03*
G04 #@! TD*
D12*
G04 #@! TO.C,D23*
X149276000Y-56440000D03*
X151816000Y-56440000D03*
G04 #@! TD*
G04 #@! TO.C,D24*
X149276000Y-63146000D03*
X151816000Y-63146000D03*
G04 #@! TD*
G04 #@! TO.C,D25*
X149276000Y-70440000D03*
X151816000Y-70440000D03*
G04 #@! TD*
G04 #@! TO.C,D26*
X149276000Y-76862000D03*
X151816000Y-76862000D03*
G04 #@! TD*
G04 #@! TO.C,D27*
X149276000Y-84291500D03*
X151816000Y-84291500D03*
G04 #@! TD*
G04 #@! TO.C,D28*
X149276000Y-90832000D03*
X151816000Y-90832000D03*
G04 #@! TD*
G04 #@! TO.C,D29*
X149276000Y-98452000D03*
X151816000Y-98452000D03*
G04 #@! TD*
G04 #@! TO.C,D30*
X149276000Y-105056000D03*
X151816000Y-105056000D03*
G04 #@! TD*
G04 #@! TO.C,D31*
X149276000Y-112422000D03*
X151816000Y-112422000D03*
G04 #@! TD*
G04 #@! TO.C,D32*
X149276000Y-119280000D03*
X151816000Y-119280000D03*
G04 #@! TD*
D16*
G04 #@! TO.C,REL5*
X121685000Y-83820000D03*
X126685000Y-83820000D03*
X131685000Y-83820000D03*
D11*
X142935000Y-83820000D03*
X146685000Y-83820000D03*
G04 #@! TD*
D16*
G04 #@! TO.C,REL1*
X121685000Y-55880000D03*
X126685000Y-55880000D03*
X131685000Y-55880000D03*
D11*
X142935000Y-55880000D03*
X146685000Y-55880000D03*
G04 #@! TD*
D16*
G04 #@! TO.C,REL2*
X121685000Y-62230000D03*
X126685000Y-62230000D03*
X131685000Y-62230000D03*
D11*
X142935000Y-62230000D03*
X146685000Y-62230000D03*
G04 #@! TD*
D16*
G04 #@! TO.C,REL3*
X121685000Y-69850000D03*
X126685000Y-69850000D03*
X131685000Y-69850000D03*
D11*
X142935000Y-69850000D03*
X146685000Y-69850000D03*
G04 #@! TD*
D16*
G04 #@! TO.C,REL4*
X121685000Y-76200000D03*
X126685000Y-76200000D03*
X131685000Y-76200000D03*
D11*
X142935000Y-76200000D03*
X146685000Y-76200000D03*
G04 #@! TD*
D16*
G04 #@! TO.C,REL6*
X121685000Y-90170000D03*
X126685000Y-90170000D03*
X131685000Y-90170000D03*
D11*
X142935000Y-90170000D03*
X146685000Y-90170000D03*
G04 #@! TD*
D16*
G04 #@! TO.C,REL7*
X121685000Y-97790000D03*
X126685000Y-97790000D03*
X131685000Y-97790000D03*
D11*
X142935000Y-97790000D03*
X146685000Y-97790000D03*
G04 #@! TD*
D16*
G04 #@! TO.C,REL8*
X121685000Y-104140000D03*
X126685000Y-104140000D03*
X131685000Y-104140000D03*
D11*
X142935000Y-104140000D03*
X146685000Y-104140000D03*
G04 #@! TD*
D16*
G04 #@! TO.C,REL9*
X121685000Y-111760000D03*
X126685000Y-111760000D03*
X131685000Y-111760000D03*
D11*
X142935000Y-111760000D03*
X146685000Y-111760000D03*
G04 #@! TD*
D16*
G04 #@! TO.C,REL10*
X121685000Y-118110000D03*
X126685000Y-118110000D03*
X131685000Y-118110000D03*
D11*
X142935000Y-118110000D03*
X146685000Y-118110000D03*
G04 #@! TD*
D17*
G04 #@! TO.C,J2*
X105710000Y-58110000D03*
X111210000Y-54610000D03*
G04 #@! TD*
D18*
G04 #@! TO.C,R20*
X152578000Y-116522500D03*
X152578000Y-114617500D03*
G04 #@! TD*
G04 #@! TO.C,R15*
X150546000Y-109818500D03*
X150546000Y-107913500D03*
G04 #@! TD*
D19*
G04 #@! TO.C,Q7*
X146558000Y-94742000D03*
X148590000Y-93853000D03*
X148590000Y-95631000D03*
G04 #@! TD*
G04 #@! TO.C,D11*
X175260000Y-54610000D03*
X176149000Y-56642000D03*
X174371000Y-56642000D03*
G04 #@! TD*
G04 #@! TO.C,D12*
X175260000Y-59690000D03*
X176149000Y-61722000D03*
X174371000Y-61722000D03*
G04 #@! TD*
G04 #@! TO.C,D13*
X175260000Y-66040000D03*
X176149000Y-68072000D03*
X174371000Y-68072000D03*
G04 #@! TD*
G04 #@! TO.C,D14*
X175260000Y-71120000D03*
X176149000Y-73152000D03*
X174371000Y-73152000D03*
G04 #@! TD*
G04 #@! TO.C,D15*
X175260000Y-77470000D03*
X176149000Y-79502000D03*
X174371000Y-79502000D03*
G04 #@! TD*
G04 #@! TO.C,D16*
X175260000Y-82550000D03*
X176149000Y-84582000D03*
X174371000Y-84582000D03*
G04 #@! TD*
G04 #@! TO.C,D17*
X175260000Y-88900000D03*
X176149000Y-90932000D03*
X174371000Y-90932000D03*
G04 #@! TD*
G04 #@! TO.C,D18*
X175260000Y-93980000D03*
X176149000Y-96012000D03*
X174371000Y-96012000D03*
G04 #@! TD*
G04 #@! TO.C,D19*
X175260000Y-100330000D03*
X176149000Y-102362000D03*
X174371000Y-102362000D03*
G04 #@! TD*
G04 #@! TO.C,D20*
X175260000Y-105410000D03*
X176149000Y-107442000D03*
X174371000Y-107442000D03*
G04 #@! TD*
D20*
G04 #@! TO.C,D22*
X187640000Y-125410000D03*
D21*
G36*
X188265000Y-126035000D02*
X187015000Y-126035000D01*
X187015000Y-124785000D01*
X188265000Y-124785000D01*
X188265000Y-126035000D01*
X188265000Y-126035000D01*
G37*
D22*
X187640000Y-123510000D03*
X185740000Y-123510000D03*
D23*
X185740000Y-125229620D03*
G04 #@! TD*
D24*
G04 #@! TO.C,F2*
X180489200Y-130175000D03*
X175485400Y-130175000D03*
G04 #@! TD*
D17*
G04 #@! TO.C,J1*
X105710000Y-135890000D03*
X111210000Y-132390000D03*
G04 #@! TD*
G04 #@! TO.C,J3*
X105710000Y-72110000D03*
X111210000Y-68610000D03*
G04 #@! TD*
G04 #@! TO.C,J4*
X105710000Y-86360000D03*
X111210000Y-82860000D03*
G04 #@! TD*
G04 #@! TO.C,J5*
X105810000Y-100020000D03*
X111310000Y-96520000D03*
G04 #@! TD*
G04 #@! TO.C,J6*
X105710000Y-114110000D03*
X111210000Y-110610000D03*
G04 #@! TD*
D25*
G04 #@! TO.C,J7*
X182626000Y-61976000D03*
X182626000Y-59436000D03*
X182626000Y-56896000D03*
X182626000Y-54356000D03*
X187706000Y-61976000D03*
X187706000Y-59436000D03*
X187706000Y-54356000D03*
X187706000Y-56896000D03*
G04 #@! TD*
G04 #@! TO.C,J8*
X182626000Y-73406000D03*
X182626000Y-70866000D03*
X182626000Y-68326000D03*
X182626000Y-65786000D03*
X187706000Y-73406000D03*
X187706000Y-70866000D03*
X187706000Y-65786000D03*
X187706000Y-68326000D03*
G04 #@! TD*
G04 #@! TO.C,J9*
X182626000Y-84836000D03*
X182626000Y-82296000D03*
X182626000Y-79756000D03*
X182626000Y-77216000D03*
X187706000Y-84836000D03*
X187706000Y-82296000D03*
X187706000Y-77216000D03*
X187706000Y-79756000D03*
G04 #@! TD*
G04 #@! TO.C,J10*
X182626000Y-96266000D03*
X182626000Y-93726000D03*
X182626000Y-91186000D03*
X182626000Y-88646000D03*
X187706000Y-96266000D03*
X187706000Y-93726000D03*
X187706000Y-88646000D03*
X187706000Y-91186000D03*
G04 #@! TD*
G04 #@! TO.C,J11*
X182626000Y-107696000D03*
X182626000Y-105156000D03*
X182626000Y-102616000D03*
X182626000Y-100076000D03*
X187706000Y-107696000D03*
X187706000Y-105156000D03*
X187706000Y-100076000D03*
X187706000Y-102616000D03*
G04 #@! TD*
D19*
G04 #@! TO.C,Q1*
X146558000Y-53086000D03*
X148590000Y-52197000D03*
X148590000Y-53975000D03*
G04 #@! TD*
G04 #@! TO.C,Q2*
X146558000Y-59436000D03*
X148590000Y-58547000D03*
X148590000Y-60325000D03*
G04 #@! TD*
G04 #@! TO.C,Q3*
X146558000Y-66929000D03*
X148590000Y-66040000D03*
X148590000Y-67818000D03*
G04 #@! TD*
G04 #@! TO.C,Q4*
X146558000Y-73279000D03*
X148590000Y-72390000D03*
X148590000Y-74168000D03*
G04 #@! TD*
G04 #@! TO.C,Q5*
X146558000Y-80899000D03*
X148590000Y-80010000D03*
X148590000Y-81788000D03*
G04 #@! TD*
G04 #@! TO.C,Q6*
X146558000Y-87149000D03*
X148590000Y-86260000D03*
X148590000Y-88038000D03*
G04 #@! TD*
G04 #@! TO.C,Q8*
X146558000Y-101219000D03*
X148590000Y-100330000D03*
X148590000Y-102108000D03*
G04 #@! TD*
G04 #@! TO.C,Q9*
X146558000Y-108966000D03*
X148590000Y-108077000D03*
X148590000Y-109855000D03*
G04 #@! TD*
G04 #@! TO.C,Q10*
X146558000Y-115570000D03*
X148590000Y-114681000D03*
X148590000Y-116459000D03*
G04 #@! TD*
D26*
G04 #@! TO.C,C1*
X165087500Y-66040000D03*
X166992500Y-66040000D03*
G04 #@! TD*
G04 #@! TO.C,C2*
X165087500Y-81280000D03*
X166992500Y-81280000D03*
G04 #@! TD*
G04 #@! TO.C,C3*
X160655000Y-127635000D03*
X158750000Y-127635000D03*
G04 #@! TD*
G04 #@! TO.C,C4*
X165087500Y-90805000D03*
X166992500Y-90805000D03*
G04 #@! TD*
D18*
G04 #@! TO.C,C5*
X156210000Y-128587500D03*
X156210000Y-126682500D03*
G04 #@! TD*
G04 #@! TO.C,C6*
X156642000Y-107913500D03*
X156642000Y-109818500D03*
G04 #@! TD*
D26*
G04 #@! TO.C,C7*
X179070000Y-114935000D03*
X177165000Y-114935000D03*
G04 #@! TD*
D27*
G04 #@! TO.C,C8*
X172466000Y-130175000D03*
X169164000Y-130175000D03*
G04 #@! TD*
D26*
G04 #@! TO.C,C9*
X180645000Y-125730000D03*
X178740000Y-125730000D03*
G04 #@! TD*
D19*
G04 #@! TO.C,D1*
X141792960Y-53340000D03*
X144145000Y-53340000D03*
G04 #@! TD*
G04 #@! TO.C,D2*
X141792960Y-59690000D03*
X144145000Y-59690000D03*
G04 #@! TD*
G04 #@! TO.C,D3*
X141792960Y-67310000D03*
X144145000Y-67310000D03*
G04 #@! TD*
G04 #@! TO.C,D4*
X141792960Y-73660000D03*
X144145000Y-73660000D03*
G04 #@! TD*
G04 #@! TO.C,D5*
X141698980Y-81280000D03*
X144051020Y-81280000D03*
G04 #@! TD*
G04 #@! TO.C,D6*
X141792960Y-87630000D03*
X144145000Y-87630000D03*
G04 #@! TD*
G04 #@! TO.C,D7*
X141792960Y-95250000D03*
X144145000Y-95250000D03*
G04 #@! TD*
G04 #@! TO.C,D8*
X141792960Y-101600000D03*
X144145000Y-101600000D03*
G04 #@! TD*
G04 #@! TO.C,D9*
X141792960Y-109220000D03*
X144145000Y-109220000D03*
G04 #@! TD*
G04 #@! TO.C,D10*
X141792960Y-115570000D03*
X144145000Y-115570000D03*
G04 #@! TD*
D28*
G04 #@! TO.C,D21*
X175895000Y-111760000D03*
X179705000Y-111760000D03*
G04 #@! TD*
D18*
G04 #@! TO.C,R1*
X150546000Y-53938500D03*
X150546000Y-52033500D03*
G04 #@! TD*
G04 #@! TO.C,R2*
X150546000Y-60325000D03*
X150546000Y-58420000D03*
G04 #@! TD*
G04 #@! TO.C,R3*
X150495000Y-67908500D03*
X150495000Y-66003500D03*
G04 #@! TD*
G04 #@! TO.C,R4*
X150546000Y-74258500D03*
X150546000Y-72353500D03*
G04 #@! TD*
G04 #@! TO.C,R5*
X150495000Y-81915000D03*
X150495000Y-80010000D03*
G04 #@! TD*
G04 #@! TO.C,R6*
X150546000Y-88101500D03*
X150546000Y-86196500D03*
G04 #@! TD*
G04 #@! TO.C,R7*
X152578000Y-53938500D03*
X152578000Y-52033500D03*
G04 #@! TD*
G04 #@! TO.C,R8*
X152578000Y-60325000D03*
X152578000Y-58420000D03*
G04 #@! TD*
G04 #@! TO.C,R9*
X152578000Y-67908500D03*
X152578000Y-66003500D03*
G04 #@! TD*
G04 #@! TO.C,R10*
X152578000Y-74258500D03*
X152578000Y-72353500D03*
G04 #@! TD*
G04 #@! TO.C,R11*
X152578000Y-81915000D03*
X152578000Y-80010000D03*
G04 #@! TD*
G04 #@! TO.C,R12*
X152578000Y-88101500D03*
X152578000Y-86196500D03*
G04 #@! TD*
G04 #@! TO.C,R13*
X150546000Y-95848500D03*
X150546000Y-93943500D03*
G04 #@! TD*
G04 #@! TO.C,R14*
X150546000Y-102198500D03*
X150546000Y-100293500D03*
G04 #@! TD*
G04 #@! TO.C,R16*
X150546000Y-116522500D03*
X150546000Y-114617500D03*
G04 #@! TD*
G04 #@! TO.C,R17*
X152578000Y-95848500D03*
X152578000Y-93943500D03*
G04 #@! TD*
G04 #@! TO.C,R18*
X152578000Y-102198500D03*
X152578000Y-100293500D03*
G04 #@! TD*
G04 #@! TO.C,R19*
X152578000Y-109818500D03*
X152578000Y-107913500D03*
G04 #@! TD*
D26*
G04 #@! TO.C,R21*
X180022500Y-54610000D03*
X178117500Y-54610000D03*
G04 #@! TD*
G04 #@! TO.C,R22*
X180022500Y-59690000D03*
X178117500Y-59690000D03*
G04 #@! TD*
G04 #@! TO.C,R23*
X180022500Y-66040000D03*
X178117500Y-66040000D03*
G04 #@! TD*
G04 #@! TO.C,R24*
X180022500Y-71120000D03*
X178117500Y-71120000D03*
G04 #@! TD*
G04 #@! TO.C,R25*
X180022500Y-77470000D03*
X178117500Y-77470000D03*
G04 #@! TD*
G04 #@! TO.C,R26*
X180022500Y-82550000D03*
X178117500Y-82550000D03*
G04 #@! TD*
G04 #@! TO.C,R27*
X180022500Y-88900000D03*
X178117500Y-88900000D03*
G04 #@! TD*
G04 #@! TO.C,R28*
X180022500Y-93980000D03*
X178117500Y-93980000D03*
G04 #@! TD*
G04 #@! TO.C,R29*
X180022500Y-100330000D03*
X178117500Y-100330000D03*
G04 #@! TD*
G04 #@! TO.C,R30*
X180022500Y-105410000D03*
X178117500Y-105410000D03*
G04 #@! TD*
G04 #@! TO.C,R31*
X165087500Y-95885000D03*
X166992500Y-95885000D03*
G04 #@! TD*
D18*
G04 #@! TO.C,R32*
X163830000Y-108267500D03*
X163830000Y-110172500D03*
G04 #@! TD*
G04 #@! TO.C,R33*
X161290000Y-108267500D03*
X161290000Y-110172500D03*
G04 #@! TD*
G04 #@! TO.C,R34*
X166370000Y-108267500D03*
X166370000Y-110172500D03*
G04 #@! TD*
D26*
G04 #@! TO.C,R35*
X165087500Y-93345000D03*
X166992500Y-93345000D03*
G04 #@! TD*
G04 #@! TO.C,R36*
X177165000Y-117475000D03*
X179070000Y-117475000D03*
G04 #@! TD*
D29*
G04 #@! TO.C,U5*
X156210000Y-114495580D03*
X156210000Y-122994420D03*
G04 #@! TD*
D30*
G04 #@! TO.C,U4*
X161595000Y-125080000D03*
X162395000Y-125080000D03*
X163195000Y-125080000D03*
X163995000Y-125080000D03*
X164795000Y-125080000D03*
X165595000Y-125080000D03*
X166395000Y-125080000D03*
X167195000Y-125080000D03*
X167995000Y-125080000D03*
X168795000Y-125080000D03*
X169595000Y-125080000D03*
D31*
X171295000Y-123380000D03*
X171295000Y-122580000D03*
X171295000Y-121780000D03*
X171295000Y-120980000D03*
X171295000Y-120180000D03*
X171295000Y-119380000D03*
X171295000Y-118580000D03*
X171295000Y-117780000D03*
X171295000Y-116980000D03*
X171295000Y-116180000D03*
X171295000Y-115380000D03*
D30*
X169595000Y-113680000D03*
X168795000Y-113680000D03*
X167995000Y-113680000D03*
X167195000Y-113680000D03*
X166395000Y-113680000D03*
X165595000Y-113680000D03*
X164795000Y-113680000D03*
X163995000Y-113680000D03*
X163195000Y-113680000D03*
X162395000Y-113680000D03*
X161595000Y-113680000D03*
D31*
X159895000Y-115380000D03*
X159895000Y-116180000D03*
X159895000Y-116980000D03*
X159895000Y-117780000D03*
X159895000Y-118580000D03*
X159895000Y-119380000D03*
X159895000Y-120180000D03*
X159895000Y-120980000D03*
X159895000Y-121780000D03*
X159895000Y-122580000D03*
X159895000Y-123380000D03*
G04 #@! TD*
D32*
G04 #@! TO.C,J17*
X121920000Y-131445000D03*
X121920000Y-136443720D03*
G04 #@! TD*
G04 #@! TO.C,J18*
X126918720Y-123825000D03*
X121920000Y-123825000D03*
G04 #@! TD*
D18*
G04 #@! TO.C,R37*
X154610000Y-52033500D03*
X154610000Y-53938500D03*
G04 #@! TD*
G04 #@! TO.C,R38*
X154610000Y-58383500D03*
X154610000Y-60288500D03*
G04 #@! TD*
G04 #@! TO.C,R39*
X154610000Y-66003500D03*
X154610000Y-67908500D03*
G04 #@! TD*
G04 #@! TO.C,R40*
X154610000Y-72353500D03*
X154610000Y-74258500D03*
G04 #@! TD*
G04 #@! TO.C,R41*
X154610000Y-79973500D03*
X154610000Y-81878500D03*
G04 #@! TD*
G04 #@! TO.C,R42*
X154610000Y-86196500D03*
X154610000Y-88101500D03*
G04 #@! TD*
G04 #@! TO.C,R43*
X154610000Y-93943500D03*
X154610000Y-95848500D03*
G04 #@! TD*
G04 #@! TO.C,R44*
X154610000Y-100293500D03*
X154610000Y-102198500D03*
G04 #@! TD*
G04 #@! TO.C,R45*
X154610000Y-107913500D03*
X154610000Y-109818500D03*
G04 #@! TD*
G04 #@! TO.C,R46*
X152578000Y-123788500D03*
X152578000Y-121883500D03*
G04 #@! TD*
D33*
G04 #@! TO.C,J19*
X144908000Y-57304000D03*
G04 #@! TD*
G04 #@! TO.C,J20*
X144908000Y-63654000D03*
G04 #@! TD*
G04 #@! TO.C,J21*
X144908000Y-71274000D03*
G04 #@! TD*
G04 #@! TO.C,J22*
X144908000Y-77624000D03*
G04 #@! TD*
G04 #@! TO.C,J23*
X144908000Y-85244000D03*
G04 #@! TD*
G04 #@! TO.C,J24*
X144959000Y-91594000D03*
G04 #@! TD*
G04 #@! TO.C,J25*
X144958000Y-99214000D03*
G04 #@! TD*
G04 #@! TO.C,J26*
X144908000Y-105564000D03*
G04 #@! TD*
G04 #@! TO.C,J27*
X144958000Y-113184000D03*
G04 #@! TD*
G04 #@! TO.C,J28*
X144908000Y-119534000D03*
G04 #@! TD*
G04 #@! TO.C,J29*
X162180000Y-106580000D03*
G04 #@! TD*
G04 #@! TO.C,J30*
X164466000Y-131599000D03*
G04 #@! TD*
G04 #@! TO.C,J31*
X167006000Y-131599000D03*
G04 #@! TD*
G04 #@! TO.C,J32*
X176708000Y-53494000D03*
G04 #@! TD*
G04 #@! TO.C,J33*
X176708000Y-58574000D03*
G04 #@! TD*
G04 #@! TO.C,J34*
X176658000Y-64924000D03*
G04 #@! TD*
G04 #@! TO.C,J35*
X176658000Y-70004000D03*
G04 #@! TD*
G04 #@! TO.C,J36*
X176658000Y-76354000D03*
G04 #@! TD*
G04 #@! TO.C,J37*
X176658000Y-81434000D03*
G04 #@! TD*
G04 #@! TO.C,J38*
X176658000Y-87784000D03*
G04 #@! TD*
G04 #@! TO.C,J39*
X176658000Y-92864000D03*
G04 #@! TD*
G04 #@! TO.C,J40*
X176658000Y-99214000D03*
G04 #@! TD*
G04 #@! TO.C,J41*
X176658000Y-104294000D03*
G04 #@! TD*
G04 #@! TO.C,J42*
X160910000Y-105310000D03*
G04 #@! TD*
G04 #@! TO.C,J43*
X163450000Y-105310000D03*
G04 #@! TD*
G04 #@! TO.C,J44*
X165990000Y-105310000D03*
G04 #@! TD*
G04 #@! TO.C,J45*
X167260000Y-106580000D03*
G04 #@! TD*
G04 #@! TO.C,J46*
X164720000Y-106580000D03*
G04 #@! TD*
G04 #@! TO.C,J47*
X175565000Y-126900000D03*
G04 #@! TD*
G04 #@! TO.C,J48*
X176785000Y-125630000D03*
G04 #@! TD*
G04 #@! TO.C,J49*
X174295000Y-125630000D03*
G04 #@! TD*
M02*
