%FSLAX45Y45*%
G04 Gerber Fmt 4.5, Leading zero omitted, Abs format (unit mm)*
G04 Created by KiCad (PCBNEW 5.0.0-fee4fd1~66~ubuntu16.04.1) date Wed Sep 19 21:28:37 2018*
%MOMM*%
%LPD*%
G01*
G04 APERTURE LIST*
%ADD10C,0.150000*%
%ADD11C,0.200000*%
%ADD12C,0.300000*%
G04 APERTURE END LIST*
D10*
X13700000Y-11650000D02*
G75*
G03X13500000Y-11650000I-100000J0D01*
G01*
X13700000Y-11650000D02*
X13700000Y-11850000D01*
X13500000Y-11850000D02*
G75*
G03X13700000Y-11850000I100000J0D01*
G01*
X13500000Y-11650000D02*
X13500000Y-11850000D01*
X13700000Y-10250000D02*
G75*
G03X13500000Y-10250000I-100000J0D01*
G01*
X13500000Y-10450000D02*
G75*
G03X13700000Y-10450000I100000J0D01*
G01*
X13500000Y-10250000D02*
X13500000Y-10450000D01*
X13700000Y-10800000D02*
G75*
G03X13500000Y-10800000I-100000J0D01*
G01*
X13500000Y-10800000D02*
X13500000Y-11250000D01*
X13500000Y-11250000D02*
G75*
G03X13700000Y-11250000I100000J0D01*
G01*
X13700000Y-10800000D02*
X13700000Y-11250000D01*
X13700000Y-10250000D02*
X13700000Y-10450000D01*
X13700000Y-8850000D02*
G75*
G03X13500000Y-8850000I-100000J0D01*
G01*
X13500000Y-9050000D02*
G75*
G03X13700000Y-9050000I100000J0D01*
G01*
X13500000Y-8850000D02*
X13500000Y-9050000D01*
X13700000Y-9400000D02*
G75*
G03X13500000Y-9400000I-100000J0D01*
G01*
X13500000Y-9400000D02*
X13500000Y-9850000D01*
X13500000Y-9850000D02*
G75*
G03X13700000Y-9850000I100000J0D01*
G01*
X13700000Y-9400000D02*
X13700000Y-9850000D01*
X13700000Y-8850000D02*
X13700000Y-9050000D01*
X12900000Y-12800000D02*
G75*
G03X12800000Y-12700000I-100000J0D01*
G01*
X12700000Y-13750000D02*
G75*
G03X12900000Y-13750000I100000J0D01*
G01*
X11400000Y-12700000D02*
G75*
G03X11400000Y-12900000I0J-100000D01*
G01*
X13700000Y-7450000D02*
G75*
G03X13500000Y-7450000I-100000J0D01*
G01*
X13700000Y-7450000D02*
X13700000Y-7650000D01*
X13700000Y-8000000D02*
G75*
G03X13500000Y-8000000I-100000J0D01*
G01*
X13700000Y-8000000D02*
X13700000Y-8450000D01*
X13500000Y-7650000D02*
G75*
G03X13700000Y-7650000I100000J0D01*
G01*
X13500000Y-7450000D02*
X13500000Y-7650000D01*
X13500000Y-8000000D02*
X13500000Y-8450000D01*
X13500000Y-8450000D02*
G75*
G03X13700000Y-8450000I100000J0D01*
G01*
X13700000Y-6050000D02*
G75*
G03X13500000Y-6050000I-100000J0D01*
G01*
X13500000Y-6250000D02*
G75*
G03X13700000Y-6250000I100000J0D01*
G01*
X13700000Y-6050000D02*
X13700000Y-6250000D01*
X13500000Y-6050000D02*
X13500000Y-6250000D01*
X13700000Y-6600000D02*
X13700000Y-7050000D01*
X13500000Y-6600000D02*
X13500000Y-7050000D01*
X13500000Y-7050000D02*
G75*
G03X13700000Y-7050000I100000J0D01*
G01*
X13700000Y-6600000D02*
G75*
G03X13500000Y-6600000I-100000J0D01*
G01*
X13700000Y-5200000D02*
X13700000Y-5650000D01*
X13500000Y-5200000D02*
X13500000Y-5650000D01*
X13500000Y-5650000D02*
G75*
G03X13700000Y-5650000I100000J0D01*
G01*
X13700000Y-5200000D02*
G75*
G03X13500000Y-5200000I-100000J0D01*
G01*
X12800000Y-12700000D02*
X11400000Y-12700000D01*
X12900000Y-13750000D02*
X12900000Y-12800000D01*
X12700000Y-12900000D02*
X12700000Y-13750000D01*
X11400000Y-12900000D02*
X12700000Y-12900000D01*
X10000000Y-13960000D02*
X10000000Y-5000000D01*
X19300000Y-13960000D02*
X10000000Y-13960000D01*
X19300000Y-5000000D02*
X19300000Y-13960000D01*
X10000000Y-5000000D02*
X19300000Y-5000000D01*
D11*
X15390200Y-11628600D02*
X15430200Y-11668600D01*
X15430200Y-11628600D02*
X15390200Y-11668600D01*
X15847400Y-11323800D02*
X15887400Y-11363800D01*
X15887400Y-11323800D02*
X15847400Y-11363800D01*
X16107907Y-12158486D02*
X16147907Y-12198486D01*
X16147907Y-12158486D02*
X16107907Y-12198486D01*
X16139500Y-10384000D02*
X16179500Y-10424000D01*
X16179500Y-10384000D02*
X16139500Y-10424000D01*
X16145788Y-11679817D02*
X16185788Y-11719817D01*
X16185788Y-11679817D02*
X16145788Y-11719817D01*
X16178094Y-12000339D02*
X16218094Y-12040339D01*
X16218094Y-12000339D02*
X16178094Y-12040339D01*
X16230294Y-11599689D02*
X16270294Y-11639689D01*
X16270294Y-11599689D02*
X16230294Y-11639689D01*
X16266500Y-10384000D02*
X16306500Y-10424000D01*
X16306500Y-10384000D02*
X16266500Y-10424000D01*
X16380295Y-11610517D02*
X16420295Y-11650517D01*
X16420295Y-11610517D02*
X16380295Y-11650517D01*
X16406200Y-10384000D02*
X16446200Y-10424000D01*
X16446200Y-10384000D02*
X16406200Y-10424000D01*
X16444300Y-5761200D02*
X16484300Y-5801200D01*
X16484300Y-5761200D02*
X16444300Y-5801200D01*
X16457000Y-7285200D02*
X16497000Y-7325200D01*
X16497000Y-7285200D02*
X16457000Y-7325200D01*
X16457547Y-11703120D02*
X16497547Y-11743120D01*
X16497547Y-11703120D02*
X16457547Y-11743120D01*
X16496299Y-8910800D02*
X16536299Y-8950800D01*
X16536299Y-8910800D02*
X16496299Y-8950800D01*
X16520500Y-10384000D02*
X16560500Y-10424000D01*
X16560500Y-10384000D02*
X16520500Y-10424000D01*
X16520500Y-11996900D02*
X16560500Y-12036900D01*
X16560500Y-11996900D02*
X16520500Y-12036900D01*
X16533200Y-8415500D02*
X16573200Y-8455500D01*
X16573200Y-8415500D02*
X16533200Y-8455500D01*
X16533200Y-6015200D02*
X16573200Y-6055200D01*
X16573200Y-6015200D02*
X16533200Y-6055200D01*
X16539027Y-11534679D02*
X16579027Y-11574679D01*
X16579027Y-11534679D02*
X16539027Y-11574679D01*
X16611799Y-5634200D02*
X16651799Y-5674200D01*
X16651799Y-5634200D02*
X16611799Y-5674200D01*
X16611799Y-7145500D02*
X16651799Y-7185500D01*
X16651799Y-7145500D02*
X16611799Y-7185500D01*
X16618234Y-12301500D02*
X16658234Y-12341500D01*
X16658234Y-12301500D02*
X16618234Y-12341500D01*
X16647500Y-10384000D02*
X16687500Y-10424000D01*
X16687500Y-10384000D02*
X16647500Y-10424000D01*
X16648699Y-8669500D02*
X16688699Y-8709500D01*
X16688699Y-8669500D02*
X16648699Y-8709500D01*
X16685599Y-8529800D02*
X16725599Y-8569800D01*
X16725599Y-8529800D02*
X16685599Y-8569800D01*
X16685600Y-5380200D02*
X16725600Y-5420200D01*
X16725600Y-5380200D02*
X16685600Y-5420200D01*
X16686800Y-7539200D02*
X16726800Y-7579200D01*
X16726800Y-7539200D02*
X16686800Y-7579200D01*
X16759625Y-12266176D02*
X16799625Y-12306176D01*
X16799625Y-12266176D02*
X16759625Y-12306176D01*
X16761800Y-5507200D02*
X16801800Y-5547200D01*
X16801800Y-5507200D02*
X16761800Y-5547200D01*
X16761800Y-7018500D02*
X16801800Y-7058500D01*
X16801800Y-7018500D02*
X16761800Y-7058500D01*
X16761800Y-10384000D02*
X16801800Y-10424000D01*
X16801800Y-10384000D02*
X16761800Y-10424000D01*
X16769400Y-11625900D02*
X16809400Y-11665900D01*
X16809400Y-11625900D02*
X16769400Y-11665900D01*
X16836801Y-10522444D02*
X16876801Y-10562444D01*
X16876801Y-10522444D02*
X16836801Y-10562444D01*
X16904998Y-10013000D02*
X16944998Y-10053000D01*
X16944998Y-10013000D02*
X16904998Y-10053000D01*
X16954721Y-11840789D02*
X16994721Y-11880789D01*
X16994721Y-11840789D02*
X16954721Y-11880789D01*
X16979999Y-9378000D02*
X17019999Y-9418000D01*
X17019999Y-9378000D02*
X16979999Y-9418000D01*
X17055000Y-8235000D02*
X17095000Y-8275000D01*
X17095000Y-8235000D02*
X17055000Y-8275000D01*
X17098996Y-7727000D02*
X17138996Y-7767000D01*
X17138996Y-7727000D02*
X17098996Y-7767000D01*
X17130001Y-8869481D02*
X17170001Y-8909481D01*
X17170001Y-8869481D02*
X17130001Y-8909481D01*
X17230501Y-7142087D02*
X17270501Y-7182087D01*
X17270501Y-7142087D02*
X17230501Y-7182087D01*
X17238998Y-6584000D02*
X17278998Y-6624000D01*
X17278998Y-6584000D02*
X17238998Y-6624000D01*
X17257100Y-12073100D02*
X17297100Y-12113100D01*
X17297100Y-12073100D02*
X17257100Y-12113100D01*
X17266852Y-12363130D02*
X17306852Y-12403130D01*
X17306852Y-12363130D02*
X17266852Y-12403130D01*
X17289457Y-11687524D02*
X17329457Y-11727524D01*
X17329457Y-11687524D02*
X17289457Y-11727524D01*
X17303819Y-11844113D02*
X17343819Y-11884113D01*
X17343819Y-11844113D02*
X17303819Y-11884113D01*
X17308999Y-5951220D02*
X17348999Y-5991220D01*
X17348999Y-5951220D02*
X17308999Y-5991220D01*
X17354347Y-11512975D02*
X17394347Y-11552975D01*
X17394347Y-11512975D02*
X17354347Y-11552975D01*
X17379000Y-5441000D02*
X17419000Y-5481000D01*
X17419000Y-5441000D02*
X17379000Y-5481000D01*
X17379000Y-11727500D02*
X17419000Y-11767500D01*
X17419000Y-11727500D02*
X17379000Y-11767500D01*
X17409500Y-11590500D02*
X17449500Y-11630500D01*
X17449500Y-11590500D02*
X17409500Y-11630500D01*
X17854000Y-12733500D02*
X17894000Y-12773500D01*
X17894000Y-12733500D02*
X17854000Y-12773500D01*
X15078250Y-8295800D02*
G75*
G03X15078250Y-8295800I-30000J0D01*
G01*
X15079500Y-5501800D02*
G75*
G03X15079500Y-5501800I-30000J0D01*
G01*
X15079500Y-6136800D02*
G75*
G03X15079500Y-6136800I-30000J0D01*
G01*
X15079500Y-6898800D02*
G75*
G03X15079500Y-6898800I-30000J0D01*
G01*
X15079500Y-7533800D02*
G75*
G03X15079500Y-7533800I-30000J0D01*
G01*
X15079500Y-9692800D02*
G75*
G03X15079500Y-9692800I-30000J0D01*
G01*
X15079500Y-10327800D02*
G75*
G03X15079500Y-10327800I-30000J0D01*
G01*
X15079500Y-11089800D02*
G75*
G03X15079500Y-11089800I-30000J0D01*
G01*
X15079500Y-11775600D02*
G75*
G03X15079500Y-11775600I-30000J0D01*
G01*
X15084600Y-8930800D02*
G75*
G03X15084600Y-8930800I-30000J0D01*
G01*
X15651000Y-13017500D02*
G75*
G03X15651000Y-13017500I-30000J0D01*
G01*
X15668800Y-8803800D02*
G75*
G03X15668800Y-8803800I-30000J0D01*
G01*
X15668800Y-9591200D02*
G75*
G03X15668800Y-9591200I-30000J0D01*
G01*
X15681500Y-8245000D02*
G75*
G03X15681500Y-8245000I-30000J0D01*
G01*
X15681500Y-9070500D02*
G75*
G03X15681500Y-9070500I-30000J0D01*
G01*
X15694200Y-10658000D02*
G75*
G03X15694200Y-10658000I-30000J0D01*
G01*
X16176800Y-5400200D02*
G75*
G03X16176800Y-5400200I-30000J0D01*
G01*
X16176800Y-6924200D02*
G75*
G03X16176800Y-6924200I-30000J0D01*
G01*
X16176800Y-8435500D02*
G75*
G03X16176800Y-8435500I-30000J0D01*
G01*
X16237422Y-12767592D02*
G75*
G03X16237422Y-12767592I-30000J0D01*
G01*
X16381298Y-9083200D02*
G75*
G03X16381298Y-9083200I-30000J0D01*
G01*
X16405400Y-8130700D02*
G75*
G03X16405400Y-8130700I-30000J0D01*
G01*
X16405400Y-6606700D02*
G75*
G03X16405400Y-6606700I-30000J0D01*
G01*
X17091200Y-5908200D02*
G75*
G03X17091200Y-5908200I-30000J0D01*
G01*
X17091200Y-7432200D02*
G75*
G03X17091200Y-7432200I-30000J0D01*
G01*
X18386600Y-12524900D02*
G75*
G03X18386600Y-12524900I-30000J0D01*
G01*
X14927600Y-11893000D02*
X14927600Y-11963000D01*
X14892600Y-11928000D02*
X14962600Y-11928000D01*
X15181600Y-11893000D02*
X15181600Y-11963000D01*
X15146600Y-11928000D02*
X15216600Y-11928000D01*
X14927600Y-5609000D02*
X14927600Y-5679000D01*
X14892600Y-5644000D02*
X14962600Y-5644000D01*
X15181600Y-5609000D02*
X15181600Y-5679000D01*
X15146600Y-5644000D02*
X15216600Y-5644000D01*
X14927600Y-9810200D02*
X14927600Y-9880200D01*
X14892600Y-9845200D02*
X14962600Y-9845200D01*
X15181600Y-9810200D02*
X15181600Y-9880200D01*
X15146600Y-9845200D02*
X15216600Y-9845200D01*
X14927600Y-10470600D02*
X14927600Y-10540600D01*
X14892600Y-10505600D02*
X14962600Y-10505600D01*
X15181600Y-10470600D02*
X15181600Y-10540600D01*
X15146600Y-10505600D02*
X15216600Y-10505600D01*
X14927600Y-8394150D02*
X14927600Y-8464150D01*
X14892600Y-8429150D02*
X14962600Y-8429150D01*
X15181600Y-8394150D02*
X15181600Y-8464150D01*
X15146600Y-8429150D02*
X15216600Y-8429150D01*
X14927600Y-11207200D02*
X14927600Y-11277200D01*
X14892600Y-11242200D02*
X14962600Y-11242200D01*
X15181600Y-11207200D02*
X15181600Y-11277200D01*
X15146600Y-11242200D02*
X15216600Y-11242200D01*
X14927600Y-7651200D02*
X14927600Y-7721200D01*
X14892600Y-7686200D02*
X14962600Y-7686200D01*
X15181600Y-7651200D02*
X15181600Y-7721200D01*
X15146600Y-7686200D02*
X15216600Y-7686200D01*
X16446500Y-13363500D02*
X16446500Y-13433500D01*
X16411500Y-13398500D02*
X16481500Y-13398500D01*
X16700500Y-13363500D02*
X16700500Y-13433500D01*
X16665500Y-13398500D02*
X16735500Y-13398500D01*
X16954500Y-13363500D02*
X16954500Y-13433500D01*
X16919500Y-13398500D02*
X16989500Y-13398500D01*
X17208500Y-13363500D02*
X17208500Y-13433500D01*
X17173500Y-13398500D02*
X17243500Y-13398500D01*
X14927600Y-9048200D02*
X14927600Y-9118200D01*
X14892600Y-9083200D02*
X14962600Y-9083200D01*
X15181600Y-9048200D02*
X15181600Y-9118200D01*
X15146600Y-9083200D02*
X15216600Y-9083200D01*
X14927600Y-7009000D02*
X14927600Y-7079000D01*
X14892600Y-7044000D02*
X14962600Y-7044000D01*
X15181600Y-7009000D02*
X15181600Y-7079000D01*
X15146600Y-7044000D02*
X15216600Y-7044000D01*
X14927600Y-6279600D02*
X14927600Y-6349600D01*
X14892600Y-6314600D02*
X14962600Y-6314600D01*
X15181600Y-6279600D02*
X15181600Y-6349600D01*
X15146600Y-6314600D02*
X15216600Y-6314600D01*
X18294420Y-8896420D02*
X18294420Y-8832780D01*
X18230780Y-8832780D01*
X18230780Y-8896420D01*
X18294420Y-8896420D01*
X18294420Y-9150420D02*
X18294420Y-9086780D01*
X18230780Y-9086780D01*
X18230780Y-9150420D01*
X18294420Y-9150420D01*
X18294420Y-9404420D02*
X18294420Y-9340780D01*
X18230780Y-9340780D01*
X18230780Y-9404420D01*
X18294420Y-9404420D01*
X18294420Y-9658420D02*
X18294420Y-9594780D01*
X18230780Y-9594780D01*
X18230780Y-9658420D01*
X18294420Y-9658420D01*
X18802420Y-8896420D02*
X18802420Y-8832780D01*
X18738780Y-8832780D01*
X18738780Y-8896420D01*
X18802420Y-8896420D01*
X18802420Y-9150420D02*
X18802420Y-9086780D01*
X18738780Y-9086780D01*
X18738780Y-9150420D01*
X18802420Y-9150420D01*
X18802420Y-9404420D02*
X18802420Y-9340780D01*
X18738780Y-9340780D01*
X18738780Y-9404420D01*
X18802420Y-9404420D01*
X18802420Y-9658420D02*
X18802420Y-9594780D01*
X18738780Y-9594780D01*
X18738780Y-9658420D01*
X18802420Y-9658420D01*
X14325320Y-5619820D02*
X14325320Y-5556180D01*
X14261680Y-5556180D01*
X14261680Y-5619820D01*
X14325320Y-5619820D01*
X14700320Y-5619820D02*
X14700320Y-5556180D01*
X14636680Y-5556180D01*
X14636680Y-5619820D01*
X14700320Y-5619820D01*
X14325320Y-8413820D02*
X14325320Y-8350180D01*
X14261680Y-8350180D01*
X14261680Y-8413820D01*
X14325320Y-8413820D01*
X14700320Y-8413820D02*
X14700320Y-8350180D01*
X14636680Y-8350180D01*
X14636680Y-8413820D01*
X14700320Y-8413820D01*
X14325320Y-11207820D02*
X14325320Y-11144180D01*
X14261680Y-11144180D01*
X14261680Y-11207820D01*
X14325320Y-11207820D01*
X14700320Y-11207820D02*
X14700320Y-11144180D01*
X14636680Y-11144180D01*
X14636680Y-11207820D01*
X14700320Y-11207820D01*
X18294420Y-10039420D02*
X18294420Y-9975780D01*
X18230780Y-9975780D01*
X18230780Y-10039420D01*
X18294420Y-10039420D01*
X18294420Y-10293420D02*
X18294420Y-10229780D01*
X18230780Y-10229780D01*
X18230780Y-10293420D01*
X18294420Y-10293420D01*
X18294420Y-10547420D02*
X18294420Y-10483780D01*
X18230780Y-10483780D01*
X18230780Y-10547420D01*
X18294420Y-10547420D01*
X18294420Y-10801420D02*
X18294420Y-10737780D01*
X18230780Y-10737780D01*
X18230780Y-10801420D01*
X18294420Y-10801420D01*
X18802420Y-10039420D02*
X18802420Y-9975780D01*
X18738780Y-9975780D01*
X18738780Y-10039420D01*
X18802420Y-10039420D01*
X18802420Y-10293420D02*
X18802420Y-10229780D01*
X18738780Y-10229780D01*
X18738780Y-10293420D01*
X18802420Y-10293420D01*
X18802420Y-10547420D02*
X18802420Y-10483780D01*
X18738780Y-10483780D01*
X18738780Y-10547420D01*
X18802420Y-10547420D01*
X18802420Y-10801420D02*
X18802420Y-10737780D01*
X18738780Y-10737780D01*
X18738780Y-10801420D01*
X18802420Y-10801420D01*
X18294420Y-6610420D02*
X18294420Y-6546780D01*
X18230780Y-6546780D01*
X18230780Y-6610420D01*
X18294420Y-6610420D01*
X18294420Y-6864420D02*
X18294420Y-6800780D01*
X18230780Y-6800780D01*
X18230780Y-6864420D01*
X18294420Y-6864420D01*
X18294420Y-7118420D02*
X18294420Y-7054780D01*
X18230780Y-7054780D01*
X18230780Y-7118420D01*
X18294420Y-7118420D01*
X18294420Y-7372420D02*
X18294420Y-7308780D01*
X18230780Y-7308780D01*
X18230780Y-7372420D01*
X18294420Y-7372420D01*
X18802420Y-6610420D02*
X18802420Y-6546780D01*
X18738780Y-6546780D01*
X18738780Y-6610420D01*
X18802420Y-6610420D01*
X18802420Y-6864420D02*
X18802420Y-6800780D01*
X18738780Y-6800780D01*
X18738780Y-6864420D01*
X18802420Y-6864420D01*
X18802420Y-7118420D02*
X18802420Y-7054780D01*
X18738780Y-7054780D01*
X18738780Y-7118420D01*
X18802420Y-7118420D01*
X18802420Y-7372420D02*
X18802420Y-7308780D01*
X18738780Y-7308780D01*
X18738780Y-7372420D01*
X18802420Y-7372420D01*
X14325320Y-11842820D02*
X14325320Y-11779180D01*
X14261680Y-11779180D01*
X14261680Y-11842820D01*
X14325320Y-11842820D01*
X14700320Y-11842820D02*
X14700320Y-11779180D01*
X14636680Y-11779180D01*
X14636680Y-11842820D01*
X14700320Y-11842820D01*
X18294420Y-7753420D02*
X18294420Y-7689780D01*
X18230780Y-7689780D01*
X18230780Y-7753420D01*
X18294420Y-7753420D01*
X18294420Y-8007420D02*
X18294420Y-7943780D01*
X18230780Y-7943780D01*
X18230780Y-8007420D01*
X18294420Y-8007420D01*
X18294420Y-8261420D02*
X18294420Y-8197780D01*
X18230780Y-8197780D01*
X18230780Y-8261420D01*
X18294420Y-8261420D01*
X18294420Y-8515420D02*
X18294420Y-8451780D01*
X18230780Y-8451780D01*
X18230780Y-8515420D01*
X18294420Y-8515420D01*
X18802420Y-7753420D02*
X18802420Y-7689780D01*
X18738780Y-7689780D01*
X18738780Y-7753420D01*
X18802420Y-7753420D01*
X18802420Y-8007420D02*
X18802420Y-7943780D01*
X18738780Y-7943780D01*
X18738780Y-8007420D01*
X18802420Y-8007420D01*
X18802420Y-8261420D02*
X18802420Y-8197780D01*
X18738780Y-8197780D01*
X18738780Y-8261420D01*
X18802420Y-8261420D01*
X18802420Y-8515420D02*
X18802420Y-8451780D01*
X18738780Y-8451780D01*
X18738780Y-8515420D01*
X18802420Y-8515420D01*
X15144820Y-13303320D02*
X15144820Y-13239680D01*
X15081180Y-13239680D01*
X15081180Y-13303320D01*
X15144820Y-13303320D01*
X15144820Y-13557320D02*
X15144820Y-13493680D01*
X15081180Y-13493680D01*
X15081180Y-13557320D01*
X15144820Y-13557320D01*
X15398820Y-13303320D02*
X15398820Y-13239680D01*
X15335180Y-13239680D01*
X15335180Y-13303320D01*
X15398820Y-13303320D01*
X15398820Y-13557320D02*
X15398820Y-13493680D01*
X15335180Y-13493680D01*
X15335180Y-13557320D01*
X15398820Y-13557320D01*
X15652820Y-13303320D02*
X15652820Y-13239680D01*
X15589180Y-13239680D01*
X15589180Y-13303320D01*
X15652820Y-13303320D01*
X15652820Y-13557320D02*
X15652820Y-13493680D01*
X15589180Y-13493680D01*
X15589180Y-13557320D01*
X15652820Y-13557320D01*
X14325320Y-7651820D02*
X14325320Y-7588180D01*
X14261680Y-7588180D01*
X14261680Y-7651820D01*
X14325320Y-7651820D01*
X14700320Y-7651820D02*
X14700320Y-7588180D01*
X14636680Y-7588180D01*
X14636680Y-7651820D01*
X14700320Y-7651820D01*
X14325320Y-10445820D02*
X14325320Y-10382180D01*
X14261680Y-10382180D01*
X14261680Y-10445820D01*
X14325320Y-10445820D01*
X14700320Y-10445820D02*
X14700320Y-10382180D01*
X14636680Y-10382180D01*
X14636680Y-10445820D01*
X14700320Y-10445820D01*
X18294420Y-5467420D02*
X18294420Y-5403780D01*
X18230780Y-5403780D01*
X18230780Y-5467420D01*
X18294420Y-5467420D01*
X18294420Y-5721420D02*
X18294420Y-5657780D01*
X18230780Y-5657780D01*
X18230780Y-5721420D01*
X18294420Y-5721420D01*
X18294420Y-5975420D02*
X18294420Y-5911780D01*
X18230780Y-5911780D01*
X18230780Y-5975420D01*
X18294420Y-5975420D01*
X18294420Y-6229420D02*
X18294420Y-6165780D01*
X18230780Y-6165780D01*
X18230780Y-6229420D01*
X18294420Y-6229420D01*
X18802420Y-5467420D02*
X18802420Y-5403780D01*
X18738780Y-5403780D01*
X18738780Y-5467420D01*
X18802420Y-5467420D01*
X18802420Y-5721420D02*
X18802420Y-5657780D01*
X18738780Y-5657780D01*
X18738780Y-5721420D01*
X18802420Y-5721420D01*
X18802420Y-5975420D02*
X18802420Y-5911780D01*
X18738780Y-5911780D01*
X18738780Y-5975420D01*
X18802420Y-5975420D01*
X18802420Y-6229420D02*
X18802420Y-6165780D01*
X18738780Y-6165780D01*
X18738780Y-6229420D01*
X18802420Y-6229420D01*
X14325320Y-9048820D02*
X14325320Y-8985180D01*
X14261680Y-8985180D01*
X14261680Y-9048820D01*
X14325320Y-9048820D01*
X14700320Y-9048820D02*
X14700320Y-8985180D01*
X14636680Y-8985180D01*
X14636680Y-9048820D01*
X14700320Y-9048820D01*
X14325320Y-7016820D02*
X14325320Y-6953180D01*
X14261680Y-6953180D01*
X14261680Y-7016820D01*
X14325320Y-7016820D01*
X14700320Y-7016820D02*
X14700320Y-6953180D01*
X14636680Y-6953180D01*
X14636680Y-7016820D01*
X14700320Y-7016820D01*
X14325320Y-9810820D02*
X14325320Y-9747180D01*
X14261680Y-9747180D01*
X14261680Y-9810820D01*
X14325320Y-9810820D01*
X14700320Y-9810820D02*
X14700320Y-9747180D01*
X14636680Y-9747180D01*
X14636680Y-9810820D01*
X14700320Y-9810820D01*
X14325320Y-6254820D02*
X14325320Y-6191180D01*
X14261680Y-6191180D01*
X14261680Y-6254820D01*
X14325320Y-6254820D01*
X14700320Y-6254820D02*
X14700320Y-6191180D01*
X14636680Y-6191180D01*
X14636680Y-6254820D01*
X14700320Y-6254820D01*
X18351500Y-13385000D02*
X18401500Y-13335000D01*
X18351500Y-13285000D01*
X18301500Y-13335000D01*
X18351500Y-13385000D01*
X10571000Y-5861000D02*
X10621000Y-5811000D01*
X10571000Y-5761000D01*
X10521000Y-5811000D01*
X10571000Y-5861000D01*
X11121000Y-5511000D02*
X11171000Y-5461000D01*
X11121000Y-5411000D01*
X11071000Y-5461000D01*
X11121000Y-5511000D01*
X10571000Y-13639000D02*
X10621000Y-13589000D01*
X10571000Y-13539000D01*
X10521000Y-13589000D01*
X10571000Y-13639000D01*
X11121000Y-13289000D02*
X11171000Y-13239000D01*
X11121000Y-13189000D01*
X11071000Y-13239000D01*
X11121000Y-13289000D01*
X18351500Y-12242000D02*
X18401500Y-12192000D01*
X18351500Y-12142000D01*
X18301500Y-12192000D01*
X18351500Y-12242000D01*
X10571000Y-11461000D02*
X10621000Y-11411000D01*
X10571000Y-11361000D01*
X10521000Y-11411000D01*
X10571000Y-11461000D01*
X11121000Y-11111000D02*
X11171000Y-11061000D01*
X11121000Y-11011000D01*
X11071000Y-11061000D01*
X11121000Y-11111000D01*
X18351500Y-11670500D02*
X18401500Y-11620500D01*
X18351500Y-11570500D01*
X18301500Y-11620500D01*
X18351500Y-11670500D01*
X18351500Y-12813500D02*
X18401500Y-12763500D01*
X18351500Y-12713500D01*
X18301500Y-12763500D01*
X18351500Y-12813500D01*
X10571000Y-7261000D02*
X10621000Y-7211000D01*
X10571000Y-7161000D01*
X10521000Y-7211000D01*
X10571000Y-7261000D01*
X11121000Y-6911000D02*
X11171000Y-6861000D01*
X11121000Y-6811000D01*
X11071000Y-6861000D01*
X11121000Y-6911000D01*
X10581000Y-10052000D02*
X10631000Y-10002000D01*
X10581000Y-9952000D01*
X10531000Y-10002000D01*
X10581000Y-10052000D01*
X11131000Y-9702000D02*
X11181000Y-9652000D01*
X11131000Y-9602000D01*
X11081000Y-9652000D01*
X11131000Y-9702000D01*
X10571000Y-8686000D02*
X10621000Y-8636000D01*
X10571000Y-8586000D01*
X10521000Y-8636000D01*
X10571000Y-8686000D01*
X11121000Y-8336000D02*
X11171000Y-8286000D01*
X11121000Y-8236000D01*
X11071000Y-8286000D01*
X11121000Y-8336000D01*
X12103500Y-9714000D02*
X12233500Y-9844000D01*
X12233500Y-9714000D02*
X12103500Y-9844000D01*
X12233500Y-9779000D02*
G75*
G03X12233500Y-9779000I-65000J0D01*
G01*
X12603500Y-9714000D02*
X12733500Y-9844000D01*
X12733500Y-9714000D02*
X12603500Y-9844000D01*
X12733500Y-9779000D02*
G75*
G03X12733500Y-9779000I-65000J0D01*
G01*
X13103500Y-9714000D02*
X13233500Y-9844000D01*
X13233500Y-9714000D02*
X13103500Y-9844000D01*
X13233500Y-9779000D02*
G75*
G03X13233500Y-9779000I-65000J0D01*
G01*
X12103500Y-6158000D02*
X12233500Y-6288000D01*
X12233500Y-6158000D02*
X12103500Y-6288000D01*
X12233500Y-6223000D02*
G75*
G03X12233500Y-6223000I-65000J0D01*
G01*
X12603500Y-6158000D02*
X12733500Y-6288000D01*
X12733500Y-6158000D02*
X12603500Y-6288000D01*
X12733500Y-6223000D02*
G75*
G03X12733500Y-6223000I-65000J0D01*
G01*
X13103500Y-6158000D02*
X13233500Y-6288000D01*
X13233500Y-6158000D02*
X13103500Y-6288000D01*
X13233500Y-6223000D02*
G75*
G03X13233500Y-6223000I-65000J0D01*
G01*
X12103500Y-5523000D02*
X12233500Y-5653000D01*
X12233500Y-5523000D02*
X12103500Y-5653000D01*
X12233500Y-5588000D02*
G75*
G03X12233500Y-5588000I-65000J0D01*
G01*
X12603500Y-5523000D02*
X12733500Y-5653000D01*
X12733500Y-5523000D02*
X12603500Y-5653000D01*
X12733500Y-5588000D02*
G75*
G03X12733500Y-5588000I-65000J0D01*
G01*
X13103500Y-5523000D02*
X13233500Y-5653000D01*
X13233500Y-5523000D02*
X13103500Y-5653000D01*
X13233500Y-5588000D02*
G75*
G03X13233500Y-5588000I-65000J0D01*
G01*
X12103500Y-8317000D02*
X12233500Y-8447000D01*
X12233500Y-8317000D02*
X12103500Y-8447000D01*
X12233500Y-8382000D02*
G75*
G03X12233500Y-8382000I-65000J0D01*
G01*
X12603500Y-8317000D02*
X12733500Y-8447000D01*
X12733500Y-8317000D02*
X12603500Y-8447000D01*
X12733500Y-8382000D02*
G75*
G03X12733500Y-8382000I-65000J0D01*
G01*
X13103500Y-8317000D02*
X13233500Y-8447000D01*
X13233500Y-8317000D02*
X13103500Y-8447000D01*
X13233500Y-8382000D02*
G75*
G03X13233500Y-8382000I-65000J0D01*
G01*
X12103500Y-11111000D02*
X12233500Y-11241000D01*
X12233500Y-11111000D02*
X12103500Y-11241000D01*
X12233500Y-11176000D02*
G75*
G03X12233500Y-11176000I-65000J0D01*
G01*
X12603500Y-11111000D02*
X12733500Y-11241000D01*
X12733500Y-11111000D02*
X12603500Y-11241000D01*
X12733500Y-11176000D02*
G75*
G03X12733500Y-11176000I-65000J0D01*
G01*
X13103500Y-11111000D02*
X13233500Y-11241000D01*
X13233500Y-11111000D02*
X13103500Y-11241000D01*
X13233500Y-11176000D02*
G75*
G03X13233500Y-11176000I-65000J0D01*
G01*
X12103500Y-11746000D02*
X12233500Y-11876000D01*
X12233500Y-11746000D02*
X12103500Y-11876000D01*
X12233500Y-11811000D02*
G75*
G03X12233500Y-11811000I-65000J0D01*
G01*
X12603500Y-11746000D02*
X12733500Y-11876000D01*
X12733500Y-11746000D02*
X12603500Y-11876000D01*
X12733500Y-11811000D02*
G75*
G03X12733500Y-11811000I-65000J0D01*
G01*
X13103500Y-11746000D02*
X13233500Y-11876000D01*
X13233500Y-11746000D02*
X13103500Y-11876000D01*
X13233500Y-11811000D02*
G75*
G03X13233500Y-11811000I-65000J0D01*
G01*
X12103500Y-7555000D02*
X12233500Y-7685000D01*
X12233500Y-7555000D02*
X12103500Y-7685000D01*
X12233500Y-7620000D02*
G75*
G03X12233500Y-7620000I-65000J0D01*
G01*
X12603500Y-7555000D02*
X12733500Y-7685000D01*
X12733500Y-7555000D02*
X12603500Y-7685000D01*
X12733500Y-7620000D02*
G75*
G03X12733500Y-7620000I-65000J0D01*
G01*
X13103500Y-7555000D02*
X13233500Y-7685000D01*
X13233500Y-7555000D02*
X13103500Y-7685000D01*
X13233500Y-7620000D02*
G75*
G03X13233500Y-7620000I-65000J0D01*
G01*
X12103500Y-10349000D02*
X12233500Y-10479000D01*
X12233500Y-10349000D02*
X12103500Y-10479000D01*
X12233500Y-10414000D02*
G75*
G03X12233500Y-10414000I-65000J0D01*
G01*
X12603500Y-10349000D02*
X12733500Y-10479000D01*
X12733500Y-10349000D02*
X12603500Y-10479000D01*
X12733500Y-10414000D02*
G75*
G03X12733500Y-10414000I-65000J0D01*
G01*
X13103500Y-10349000D02*
X13233500Y-10479000D01*
X13233500Y-10349000D02*
X13103500Y-10479000D01*
X13233500Y-10414000D02*
G75*
G03X13233500Y-10414000I-65000J0D01*
G01*
X12103500Y-8952000D02*
X12233500Y-9082000D01*
X12233500Y-8952000D02*
X12103500Y-9082000D01*
X12233500Y-9017000D02*
G75*
G03X12233500Y-9017000I-65000J0D01*
G01*
X12603500Y-8952000D02*
X12733500Y-9082000D01*
X12733500Y-8952000D02*
X12603500Y-9082000D01*
X12733500Y-9017000D02*
G75*
G03X12733500Y-9017000I-65000J0D01*
G01*
X13103500Y-8952000D02*
X13233500Y-9082000D01*
X13233500Y-8952000D02*
X13103500Y-9082000D01*
X13233500Y-9017000D02*
G75*
G03X13233500Y-9017000I-65000J0D01*
G01*
X12103500Y-6920000D02*
X12233500Y-7050000D01*
X12233500Y-6920000D02*
X12103500Y-7050000D01*
X12233500Y-6985000D02*
G75*
G03X12233500Y-6985000I-65000J0D01*
G01*
X12603500Y-6920000D02*
X12733500Y-7050000D01*
X12733500Y-6920000D02*
X12603500Y-7050000D01*
X12733500Y-6985000D02*
G75*
G03X12733500Y-6985000I-65000J0D01*
G01*
X13103500Y-6920000D02*
X13233500Y-7050000D01*
X13233500Y-6920000D02*
X13103500Y-7050000D01*
X13233500Y-6985000D02*
G75*
G03X13233500Y-6985000I-65000J0D01*
G01*
X12117000Y-13069500D02*
X12267000Y-13219500D01*
X12267000Y-13069500D02*
X12117000Y-13219500D01*
X12192000Y-13069500D02*
X12192000Y-13219500D01*
X12117000Y-13144500D02*
X12267000Y-13144500D01*
X12117000Y-13569372D02*
X12267000Y-13719372D01*
X12267000Y-13569372D02*
X12117000Y-13719372D01*
X12192000Y-13569372D02*
X12192000Y-13719372D01*
X12117000Y-13644372D02*
X12267000Y-13644372D01*
X12117000Y-12307500D02*
X12267000Y-12457500D01*
X12267000Y-12307500D02*
X12117000Y-12457500D01*
X12192000Y-12307500D02*
X12192000Y-12457500D01*
X12117000Y-12382500D02*
X12267000Y-12382500D01*
X12616872Y-12307500D02*
X12766872Y-12457500D01*
X12766872Y-12307500D02*
X12616872Y-12457500D01*
X12691872Y-12307500D02*
X12691872Y-12457500D01*
X12616872Y-12382500D02*
X12766872Y-12382500D01*
D12*
X10278928Y-14433214D02*
X10278928Y-14133214D01*
X10350357Y-14133214D01*
X10393214Y-14147500D01*
X10421786Y-14176071D01*
X10436071Y-14204643D01*
X10450357Y-14261786D01*
X10450357Y-14304643D01*
X10436071Y-14361786D01*
X10421786Y-14390357D01*
X10393214Y-14418929D01*
X10350357Y-14433214D01*
X10278928Y-14433214D01*
X10578928Y-14433214D02*
X10578928Y-14233214D01*
X10578928Y-14290357D02*
X10593214Y-14261786D01*
X10607500Y-14247500D01*
X10636071Y-14233214D01*
X10664643Y-14233214D01*
X10764643Y-14433214D02*
X10764643Y-14233214D01*
X10764643Y-14133214D02*
X10750357Y-14147500D01*
X10764643Y-14161786D01*
X10778928Y-14147500D01*
X10764643Y-14133214D01*
X10764643Y-14161786D01*
X10950357Y-14433214D02*
X10921786Y-14418929D01*
X10907500Y-14390357D01*
X10907500Y-14133214D01*
X11107500Y-14433214D02*
X11078928Y-14418929D01*
X11064643Y-14390357D01*
X11064643Y-14133214D01*
X11450357Y-14433214D02*
X11450357Y-14133214D01*
X11550357Y-14347500D01*
X11650357Y-14133214D01*
X11650357Y-14433214D01*
X11921786Y-14433214D02*
X11921786Y-14276071D01*
X11907500Y-14247500D01*
X11878928Y-14233214D01*
X11821786Y-14233214D01*
X11793214Y-14247500D01*
X11921786Y-14418929D02*
X11893214Y-14433214D01*
X11821786Y-14433214D01*
X11793214Y-14418929D01*
X11778928Y-14390357D01*
X11778928Y-14361786D01*
X11793214Y-14333214D01*
X11821786Y-14318929D01*
X11893214Y-14318929D01*
X11921786Y-14304643D01*
X12064643Y-14233214D02*
X12064643Y-14533214D01*
X12064643Y-14247500D02*
X12093214Y-14233214D01*
X12150357Y-14233214D01*
X12178928Y-14247500D01*
X12193214Y-14261786D01*
X12207500Y-14290357D01*
X12207500Y-14376071D01*
X12193214Y-14404643D01*
X12178928Y-14418929D01*
X12150357Y-14433214D01*
X12093214Y-14433214D01*
X12064643Y-14418929D01*
X12336071Y-14404643D02*
X12350357Y-14418929D01*
X12336071Y-14433214D01*
X12321786Y-14418929D01*
X12336071Y-14404643D01*
X12336071Y-14433214D01*
X12336071Y-14247500D02*
X12350357Y-14261786D01*
X12336071Y-14276071D01*
X12321786Y-14261786D01*
X12336071Y-14247500D01*
X12336071Y-14276071D01*
X9952500Y-14907500D02*
X9992500Y-14947500D01*
X9992500Y-14907500D02*
X9952500Y-14947500D01*
X10336071Y-14763214D02*
X10364643Y-14763214D01*
X10393214Y-14777500D01*
X10407500Y-14791786D01*
X10421786Y-14820357D01*
X10436071Y-14877500D01*
X10436071Y-14948929D01*
X10421786Y-15006071D01*
X10407500Y-15034643D01*
X10393214Y-15048929D01*
X10364643Y-15063214D01*
X10336071Y-15063214D01*
X10307500Y-15048929D01*
X10293214Y-15034643D01*
X10278928Y-15006071D01*
X10264643Y-14948929D01*
X10264643Y-14877500D01*
X10278928Y-14820357D01*
X10293214Y-14791786D01*
X10307500Y-14777500D01*
X10336071Y-14763214D01*
X10564643Y-15034643D02*
X10578928Y-15048929D01*
X10564643Y-15063214D01*
X10550357Y-15048929D01*
X10564643Y-15034643D01*
X10564643Y-15063214D01*
X10836071Y-14863214D02*
X10836071Y-15063214D01*
X10764643Y-14748929D02*
X10693214Y-14963214D01*
X10878928Y-14963214D01*
X11050357Y-14763214D02*
X11078928Y-14763214D01*
X11107500Y-14777500D01*
X11121786Y-14791786D01*
X11136071Y-14820357D01*
X11150357Y-14877500D01*
X11150357Y-14948929D01*
X11136071Y-15006071D01*
X11121786Y-15034643D01*
X11107500Y-15048929D01*
X11078928Y-15063214D01*
X11050357Y-15063214D01*
X11021786Y-15048929D01*
X11007500Y-15034643D01*
X10993214Y-15006071D01*
X10978928Y-14948929D01*
X10978928Y-14877500D01*
X10993214Y-14820357D01*
X11007500Y-14791786D01*
X11021786Y-14777500D01*
X11050357Y-14763214D01*
X11278928Y-15063214D02*
X11278928Y-14863214D01*
X11278928Y-14891786D02*
X11293214Y-14877500D01*
X11321786Y-14863214D01*
X11364643Y-14863214D01*
X11393214Y-14877500D01*
X11407500Y-14906071D01*
X11407500Y-15063214D01*
X11407500Y-14906071D02*
X11421786Y-14877500D01*
X11450357Y-14863214D01*
X11493214Y-14863214D01*
X11521786Y-14877500D01*
X11536071Y-14906071D01*
X11536071Y-15063214D01*
X11678928Y-15063214D02*
X11678928Y-14863214D01*
X11678928Y-14891786D02*
X11693214Y-14877500D01*
X11721786Y-14863214D01*
X11764643Y-14863214D01*
X11793214Y-14877500D01*
X11807500Y-14906071D01*
X11807500Y-15063214D01*
X11807500Y-14906071D02*
X11821786Y-14877500D01*
X11850357Y-14863214D01*
X11893214Y-14863214D01*
X11921786Y-14877500D01*
X11936071Y-14906071D01*
X11936071Y-15063214D01*
X12521786Y-14748929D02*
X12264643Y-15134643D01*
X12907500Y-14763214D02*
X12936071Y-14763214D01*
X12964643Y-14777500D01*
X12978928Y-14791786D01*
X12993214Y-14820357D01*
X13007500Y-14877500D01*
X13007500Y-14948929D01*
X12993214Y-15006071D01*
X12978928Y-15034643D01*
X12964643Y-15048929D01*
X12936071Y-15063214D01*
X12907500Y-15063214D01*
X12878928Y-15048929D01*
X12864643Y-15034643D01*
X12850357Y-15006071D01*
X12836071Y-14948929D01*
X12836071Y-14877500D01*
X12850357Y-14820357D01*
X12864643Y-14791786D01*
X12878928Y-14777500D01*
X12907500Y-14763214D01*
X13136071Y-15034643D02*
X13150357Y-15048929D01*
X13136071Y-15063214D01*
X13121786Y-15048929D01*
X13136071Y-15034643D01*
X13136071Y-15063214D01*
X13336071Y-14763214D02*
X13364643Y-14763214D01*
X13393214Y-14777500D01*
X13407500Y-14791786D01*
X13421786Y-14820357D01*
X13436071Y-14877500D01*
X13436071Y-14948929D01*
X13421786Y-15006071D01*
X13407500Y-15034643D01*
X13393214Y-15048929D01*
X13364643Y-15063214D01*
X13336071Y-15063214D01*
X13307500Y-15048929D01*
X13293214Y-15034643D01*
X13278928Y-15006071D01*
X13264643Y-14948929D01*
X13264643Y-14877500D01*
X13278928Y-14820357D01*
X13293214Y-14791786D01*
X13307500Y-14777500D01*
X13336071Y-14763214D01*
X13721786Y-15063214D02*
X13550357Y-15063214D01*
X13636071Y-15063214D02*
X13636071Y-14763214D01*
X13607500Y-14806071D01*
X13578928Y-14834643D01*
X13550357Y-14848929D01*
X13978928Y-14763214D02*
X13921786Y-14763214D01*
X13893214Y-14777500D01*
X13878928Y-14791786D01*
X13850357Y-14834643D01*
X13836071Y-14891786D01*
X13836071Y-15006071D01*
X13850357Y-15034643D01*
X13864643Y-15048929D01*
X13893214Y-15063214D01*
X13950357Y-15063214D01*
X13978928Y-15048929D01*
X13993214Y-15034643D01*
X14007500Y-15006071D01*
X14007500Y-14934643D01*
X13993214Y-14906071D01*
X13978928Y-14891786D01*
X13950357Y-14877500D01*
X13893214Y-14877500D01*
X13864643Y-14891786D01*
X13850357Y-14906071D01*
X13836071Y-14934643D01*
X14121786Y-14763214D02*
X14121786Y-14820357D01*
X14236071Y-14763214D02*
X14236071Y-14820357D01*
X14678928Y-15177500D02*
X14664643Y-15163214D01*
X14636071Y-15120357D01*
X14621786Y-15091786D01*
X14607500Y-15048929D01*
X14593214Y-14977500D01*
X14593214Y-14920357D01*
X14607500Y-14848929D01*
X14621786Y-14806071D01*
X14636071Y-14777500D01*
X14664643Y-14734643D01*
X14678928Y-14720357D01*
X14936071Y-14763214D02*
X14793214Y-14763214D01*
X14778928Y-14906071D01*
X14793214Y-14891786D01*
X14821786Y-14877500D01*
X14893214Y-14877500D01*
X14921786Y-14891786D01*
X14936071Y-14906071D01*
X14950357Y-14934643D01*
X14950357Y-15006071D01*
X14936071Y-15034643D01*
X14921786Y-15048929D01*
X14893214Y-15063214D01*
X14821786Y-15063214D01*
X14793214Y-15048929D01*
X14778928Y-15034643D01*
X15236071Y-15063214D02*
X15064643Y-15063214D01*
X15150357Y-15063214D02*
X15150357Y-14763214D01*
X15121786Y-14806071D01*
X15093214Y-14834643D01*
X15064643Y-14848929D01*
X15593214Y-15063214D02*
X15593214Y-14763214D01*
X15721786Y-15063214D02*
X15721786Y-14906071D01*
X15707500Y-14877500D01*
X15678928Y-14863214D01*
X15636071Y-14863214D01*
X15607500Y-14877500D01*
X15593214Y-14891786D01*
X15907500Y-15063214D02*
X15878928Y-15048929D01*
X15864643Y-15034643D01*
X15850357Y-15006071D01*
X15850357Y-14920357D01*
X15864643Y-14891786D01*
X15878928Y-14877500D01*
X15907500Y-14863214D01*
X15950357Y-14863214D01*
X15978928Y-14877500D01*
X15993214Y-14891786D01*
X16007500Y-14920357D01*
X16007500Y-15006071D01*
X15993214Y-15034643D01*
X15978928Y-15048929D01*
X15950357Y-15063214D01*
X15907500Y-15063214D01*
X16178928Y-15063214D02*
X16150357Y-15048929D01*
X16136071Y-15020357D01*
X16136071Y-14763214D01*
X16407500Y-15048929D02*
X16378928Y-15063214D01*
X16321786Y-15063214D01*
X16293214Y-15048929D01*
X16278928Y-15020357D01*
X16278928Y-14906071D01*
X16293214Y-14877500D01*
X16321786Y-14863214D01*
X16378928Y-14863214D01*
X16407500Y-14877500D01*
X16421786Y-14906071D01*
X16421786Y-14934643D01*
X16278928Y-14963214D01*
X16536071Y-15048929D02*
X16564643Y-15063214D01*
X16621786Y-15063214D01*
X16650357Y-15048929D01*
X16664643Y-15020357D01*
X16664643Y-15006071D01*
X16650357Y-14977500D01*
X16621786Y-14963214D01*
X16578928Y-14963214D01*
X16550357Y-14948929D01*
X16536071Y-14920357D01*
X16536071Y-14906071D01*
X16550357Y-14877500D01*
X16578928Y-14863214D01*
X16621786Y-14863214D01*
X16650357Y-14877500D01*
X16764643Y-15177500D02*
X16778928Y-15163214D01*
X16807500Y-15120357D01*
X16821786Y-15091786D01*
X16836071Y-15048929D01*
X16850357Y-14977500D01*
X16850357Y-14920357D01*
X16836071Y-14848929D01*
X16821786Y-14806071D01*
X16807500Y-14777500D01*
X16778928Y-14734643D01*
X16764643Y-14720357D01*
X9992500Y-15323500D02*
G75*
G03X9992500Y-15323500I-30000J0D01*
G01*
X10336071Y-15159214D02*
X10364643Y-15159214D01*
X10393214Y-15173500D01*
X10407500Y-15187786D01*
X10421786Y-15216357D01*
X10436071Y-15273500D01*
X10436071Y-15344929D01*
X10421786Y-15402071D01*
X10407500Y-15430643D01*
X10393214Y-15444929D01*
X10364643Y-15459214D01*
X10336071Y-15459214D01*
X10307500Y-15444929D01*
X10293214Y-15430643D01*
X10278928Y-15402071D01*
X10264643Y-15344929D01*
X10264643Y-15273500D01*
X10278928Y-15216357D01*
X10293214Y-15187786D01*
X10307500Y-15173500D01*
X10336071Y-15159214D01*
X10564643Y-15430643D02*
X10578928Y-15444929D01*
X10564643Y-15459214D01*
X10550357Y-15444929D01*
X10564643Y-15430643D01*
X10564643Y-15459214D01*
X10836071Y-15159214D02*
X10778928Y-15159214D01*
X10750357Y-15173500D01*
X10736071Y-15187786D01*
X10707500Y-15230643D01*
X10693214Y-15287786D01*
X10693214Y-15402071D01*
X10707500Y-15430643D01*
X10721786Y-15444929D01*
X10750357Y-15459214D01*
X10807500Y-15459214D01*
X10836071Y-15444929D01*
X10850357Y-15430643D01*
X10864643Y-15402071D01*
X10864643Y-15330643D01*
X10850357Y-15302071D01*
X10836071Y-15287786D01*
X10807500Y-15273500D01*
X10750357Y-15273500D01*
X10721786Y-15287786D01*
X10707500Y-15302071D01*
X10693214Y-15330643D01*
X11050357Y-15159214D02*
X11078928Y-15159214D01*
X11107500Y-15173500D01*
X11121786Y-15187786D01*
X11136071Y-15216357D01*
X11150357Y-15273500D01*
X11150357Y-15344929D01*
X11136071Y-15402071D01*
X11121786Y-15430643D01*
X11107500Y-15444929D01*
X11078928Y-15459214D01*
X11050357Y-15459214D01*
X11021786Y-15444929D01*
X11007500Y-15430643D01*
X10993214Y-15402071D01*
X10978928Y-15344929D01*
X10978928Y-15273500D01*
X10993214Y-15216357D01*
X11007500Y-15187786D01*
X11021786Y-15173500D01*
X11050357Y-15159214D01*
X11278928Y-15459214D02*
X11278928Y-15259214D01*
X11278928Y-15287786D02*
X11293214Y-15273500D01*
X11321786Y-15259214D01*
X11364643Y-15259214D01*
X11393214Y-15273500D01*
X11407500Y-15302071D01*
X11407500Y-15459214D01*
X11407500Y-15302071D02*
X11421786Y-15273500D01*
X11450357Y-15259214D01*
X11493214Y-15259214D01*
X11521786Y-15273500D01*
X11536071Y-15302071D01*
X11536071Y-15459214D01*
X11678928Y-15459214D02*
X11678928Y-15259214D01*
X11678928Y-15287786D02*
X11693214Y-15273500D01*
X11721786Y-15259214D01*
X11764643Y-15259214D01*
X11793214Y-15273500D01*
X11807500Y-15302071D01*
X11807500Y-15459214D01*
X11807500Y-15302071D02*
X11821786Y-15273500D01*
X11850357Y-15259214D01*
X11893214Y-15259214D01*
X11921786Y-15273500D01*
X11936071Y-15302071D01*
X11936071Y-15459214D01*
X12521786Y-15144929D02*
X12264643Y-15530643D01*
X12907500Y-15159214D02*
X12936071Y-15159214D01*
X12964643Y-15173500D01*
X12978928Y-15187786D01*
X12993214Y-15216357D01*
X13007500Y-15273500D01*
X13007500Y-15344929D01*
X12993214Y-15402071D01*
X12978928Y-15430643D01*
X12964643Y-15444929D01*
X12936071Y-15459214D01*
X12907500Y-15459214D01*
X12878928Y-15444929D01*
X12864643Y-15430643D01*
X12850357Y-15402071D01*
X12836071Y-15344929D01*
X12836071Y-15273500D01*
X12850357Y-15216357D01*
X12864643Y-15187786D01*
X12878928Y-15173500D01*
X12907500Y-15159214D01*
X13136071Y-15430643D02*
X13150357Y-15444929D01*
X13136071Y-15459214D01*
X13121786Y-15444929D01*
X13136071Y-15430643D01*
X13136071Y-15459214D01*
X13336071Y-15159214D02*
X13364643Y-15159214D01*
X13393214Y-15173500D01*
X13407500Y-15187786D01*
X13421786Y-15216357D01*
X13436071Y-15273500D01*
X13436071Y-15344929D01*
X13421786Y-15402071D01*
X13407500Y-15430643D01*
X13393214Y-15444929D01*
X13364643Y-15459214D01*
X13336071Y-15459214D01*
X13307500Y-15444929D01*
X13293214Y-15430643D01*
X13278928Y-15402071D01*
X13264643Y-15344929D01*
X13264643Y-15273500D01*
X13278928Y-15216357D01*
X13293214Y-15187786D01*
X13307500Y-15173500D01*
X13336071Y-15159214D01*
X13550357Y-15187786D02*
X13564643Y-15173500D01*
X13593214Y-15159214D01*
X13664643Y-15159214D01*
X13693214Y-15173500D01*
X13707500Y-15187786D01*
X13721786Y-15216357D01*
X13721786Y-15244929D01*
X13707500Y-15287786D01*
X13536071Y-15459214D01*
X13721786Y-15459214D01*
X13978928Y-15259214D02*
X13978928Y-15459214D01*
X13907500Y-15144929D02*
X13836071Y-15359214D01*
X14021786Y-15359214D01*
X14121786Y-15159214D02*
X14121786Y-15216357D01*
X14236071Y-15159214D02*
X14236071Y-15216357D01*
X14678928Y-15573500D02*
X14664643Y-15559214D01*
X14636071Y-15516357D01*
X14621786Y-15487786D01*
X14607500Y-15444929D01*
X14593214Y-15373500D01*
X14593214Y-15316357D01*
X14607500Y-15244929D01*
X14621786Y-15202071D01*
X14636071Y-15173500D01*
X14664643Y-15130643D01*
X14678928Y-15116357D01*
X14778928Y-15187786D02*
X14793214Y-15173500D01*
X14821786Y-15159214D01*
X14893214Y-15159214D01*
X14921786Y-15173500D01*
X14936071Y-15187786D01*
X14950357Y-15216357D01*
X14950357Y-15244929D01*
X14936071Y-15287786D01*
X14764643Y-15459214D01*
X14950357Y-15459214D01*
X15207500Y-15159214D02*
X15150357Y-15159214D01*
X15121786Y-15173500D01*
X15107500Y-15187786D01*
X15078928Y-15230643D01*
X15064643Y-15287786D01*
X15064643Y-15402071D01*
X15078928Y-15430643D01*
X15093214Y-15444929D01*
X15121786Y-15459214D01*
X15178928Y-15459214D01*
X15207500Y-15444929D01*
X15221786Y-15430643D01*
X15236071Y-15402071D01*
X15236071Y-15330643D01*
X15221786Y-15302071D01*
X15207500Y-15287786D01*
X15178928Y-15273500D01*
X15121786Y-15273500D01*
X15093214Y-15287786D01*
X15078928Y-15302071D01*
X15064643Y-15330643D01*
X15593214Y-15459214D02*
X15593214Y-15159214D01*
X15721786Y-15459214D02*
X15721786Y-15302071D01*
X15707500Y-15273500D01*
X15678928Y-15259214D01*
X15636071Y-15259214D01*
X15607500Y-15273500D01*
X15593214Y-15287786D01*
X15907500Y-15459214D02*
X15878928Y-15444929D01*
X15864643Y-15430643D01*
X15850357Y-15402071D01*
X15850357Y-15316357D01*
X15864643Y-15287786D01*
X15878928Y-15273500D01*
X15907500Y-15259214D01*
X15950357Y-15259214D01*
X15978928Y-15273500D01*
X15993214Y-15287786D01*
X16007500Y-15316357D01*
X16007500Y-15402071D01*
X15993214Y-15430643D01*
X15978928Y-15444929D01*
X15950357Y-15459214D01*
X15907500Y-15459214D01*
X16178928Y-15459214D02*
X16150357Y-15444929D01*
X16136071Y-15416357D01*
X16136071Y-15159214D01*
X16407500Y-15444929D02*
X16378928Y-15459214D01*
X16321786Y-15459214D01*
X16293214Y-15444929D01*
X16278928Y-15416357D01*
X16278928Y-15302071D01*
X16293214Y-15273500D01*
X16321786Y-15259214D01*
X16378928Y-15259214D01*
X16407500Y-15273500D01*
X16421786Y-15302071D01*
X16421786Y-15330643D01*
X16278928Y-15359214D01*
X16536071Y-15444929D02*
X16564643Y-15459214D01*
X16621786Y-15459214D01*
X16650357Y-15444929D01*
X16664643Y-15416357D01*
X16664643Y-15402071D01*
X16650357Y-15373500D01*
X16621786Y-15359214D01*
X16578928Y-15359214D01*
X16550357Y-15344929D01*
X16536071Y-15316357D01*
X16536071Y-15302071D01*
X16550357Y-15273500D01*
X16578928Y-15259214D01*
X16621786Y-15259214D01*
X16650357Y-15273500D01*
X16764643Y-15573500D02*
X16778928Y-15559214D01*
X16807500Y-15516357D01*
X16821786Y-15487786D01*
X16836071Y-15444929D01*
X16850357Y-15373500D01*
X16850357Y-15316357D01*
X16836071Y-15244929D01*
X16821786Y-15202071D01*
X16807500Y-15173500D01*
X16778928Y-15130643D01*
X16764643Y-15116357D01*
X9957500Y-15684500D02*
X9957500Y-15754500D01*
X9922500Y-15719500D02*
X9992500Y-15719500D01*
X10336071Y-15555214D02*
X10364643Y-15555214D01*
X10393214Y-15569500D01*
X10407500Y-15583786D01*
X10421786Y-15612357D01*
X10436071Y-15669500D01*
X10436071Y-15740929D01*
X10421786Y-15798071D01*
X10407500Y-15826643D01*
X10393214Y-15840929D01*
X10364643Y-15855214D01*
X10336071Y-15855214D01*
X10307500Y-15840929D01*
X10293214Y-15826643D01*
X10278928Y-15798071D01*
X10264643Y-15740929D01*
X10264643Y-15669500D01*
X10278928Y-15612357D01*
X10293214Y-15583786D01*
X10307500Y-15569500D01*
X10336071Y-15555214D01*
X10564643Y-15826643D02*
X10578928Y-15840929D01*
X10564643Y-15855214D01*
X10550357Y-15840929D01*
X10564643Y-15826643D01*
X10564643Y-15855214D01*
X10678928Y-15555214D02*
X10878928Y-15555214D01*
X10750357Y-15855214D01*
X11050357Y-15555214D02*
X11078928Y-15555214D01*
X11107500Y-15569500D01*
X11121786Y-15583786D01*
X11136071Y-15612357D01*
X11150357Y-15669500D01*
X11150357Y-15740929D01*
X11136071Y-15798071D01*
X11121786Y-15826643D01*
X11107500Y-15840929D01*
X11078928Y-15855214D01*
X11050357Y-15855214D01*
X11021786Y-15840929D01*
X11007500Y-15826643D01*
X10993214Y-15798071D01*
X10978928Y-15740929D01*
X10978928Y-15669500D01*
X10993214Y-15612357D01*
X11007500Y-15583786D01*
X11021786Y-15569500D01*
X11050357Y-15555214D01*
X11278928Y-15855214D02*
X11278928Y-15655214D01*
X11278928Y-15683786D02*
X11293214Y-15669500D01*
X11321786Y-15655214D01*
X11364643Y-15655214D01*
X11393214Y-15669500D01*
X11407500Y-15698071D01*
X11407500Y-15855214D01*
X11407500Y-15698071D02*
X11421786Y-15669500D01*
X11450357Y-15655214D01*
X11493214Y-15655214D01*
X11521786Y-15669500D01*
X11536071Y-15698071D01*
X11536071Y-15855214D01*
X11678928Y-15855214D02*
X11678928Y-15655214D01*
X11678928Y-15683786D02*
X11693214Y-15669500D01*
X11721786Y-15655214D01*
X11764643Y-15655214D01*
X11793214Y-15669500D01*
X11807500Y-15698071D01*
X11807500Y-15855214D01*
X11807500Y-15698071D02*
X11821786Y-15669500D01*
X11850357Y-15655214D01*
X11893214Y-15655214D01*
X11921786Y-15669500D01*
X11936071Y-15698071D01*
X11936071Y-15855214D01*
X12521786Y-15540929D02*
X12264643Y-15926643D01*
X12907500Y-15555214D02*
X12936071Y-15555214D01*
X12964643Y-15569500D01*
X12978928Y-15583786D01*
X12993214Y-15612357D01*
X13007500Y-15669500D01*
X13007500Y-15740929D01*
X12993214Y-15798071D01*
X12978928Y-15826643D01*
X12964643Y-15840929D01*
X12936071Y-15855214D01*
X12907500Y-15855214D01*
X12878928Y-15840929D01*
X12864643Y-15826643D01*
X12850357Y-15798071D01*
X12836071Y-15740929D01*
X12836071Y-15669500D01*
X12850357Y-15612357D01*
X12864643Y-15583786D01*
X12878928Y-15569500D01*
X12907500Y-15555214D01*
X13136071Y-15826643D02*
X13150357Y-15840929D01*
X13136071Y-15855214D01*
X13121786Y-15840929D01*
X13136071Y-15826643D01*
X13136071Y-15855214D01*
X13336071Y-15555214D02*
X13364643Y-15555214D01*
X13393214Y-15569500D01*
X13407500Y-15583786D01*
X13421786Y-15612357D01*
X13436071Y-15669500D01*
X13436071Y-15740929D01*
X13421786Y-15798071D01*
X13407500Y-15826643D01*
X13393214Y-15840929D01*
X13364643Y-15855214D01*
X13336071Y-15855214D01*
X13307500Y-15840929D01*
X13293214Y-15826643D01*
X13278928Y-15798071D01*
X13264643Y-15740929D01*
X13264643Y-15669500D01*
X13278928Y-15612357D01*
X13293214Y-15583786D01*
X13307500Y-15569500D01*
X13336071Y-15555214D01*
X13550357Y-15583786D02*
X13564643Y-15569500D01*
X13593214Y-15555214D01*
X13664643Y-15555214D01*
X13693214Y-15569500D01*
X13707500Y-15583786D01*
X13721786Y-15612357D01*
X13721786Y-15640929D01*
X13707500Y-15683786D01*
X13536071Y-15855214D01*
X13721786Y-15855214D01*
X13893214Y-15683786D02*
X13864643Y-15669500D01*
X13850357Y-15655214D01*
X13836071Y-15626643D01*
X13836071Y-15612357D01*
X13850357Y-15583786D01*
X13864643Y-15569500D01*
X13893214Y-15555214D01*
X13950357Y-15555214D01*
X13978928Y-15569500D01*
X13993214Y-15583786D01*
X14007500Y-15612357D01*
X14007500Y-15626643D01*
X13993214Y-15655214D01*
X13978928Y-15669500D01*
X13950357Y-15683786D01*
X13893214Y-15683786D01*
X13864643Y-15698071D01*
X13850357Y-15712357D01*
X13836071Y-15740929D01*
X13836071Y-15798071D01*
X13850357Y-15826643D01*
X13864643Y-15840929D01*
X13893214Y-15855214D01*
X13950357Y-15855214D01*
X13978928Y-15840929D01*
X13993214Y-15826643D01*
X14007500Y-15798071D01*
X14007500Y-15740929D01*
X13993214Y-15712357D01*
X13978928Y-15698071D01*
X13950357Y-15683786D01*
X14121786Y-15555214D02*
X14121786Y-15612357D01*
X14236071Y-15555214D02*
X14236071Y-15612357D01*
X14678928Y-15969500D02*
X14664643Y-15955214D01*
X14636071Y-15912357D01*
X14621786Y-15883786D01*
X14607500Y-15840929D01*
X14593214Y-15769500D01*
X14593214Y-15712357D01*
X14607500Y-15640929D01*
X14621786Y-15598071D01*
X14636071Y-15569500D01*
X14664643Y-15526643D01*
X14678928Y-15512357D01*
X14778928Y-15583786D02*
X14793214Y-15569500D01*
X14821786Y-15555214D01*
X14893214Y-15555214D01*
X14921786Y-15569500D01*
X14936071Y-15583786D01*
X14950357Y-15612357D01*
X14950357Y-15640929D01*
X14936071Y-15683786D01*
X14764643Y-15855214D01*
X14950357Y-15855214D01*
X15207500Y-15655214D02*
X15207500Y-15855214D01*
X15136071Y-15540929D02*
X15064643Y-15755214D01*
X15250357Y-15755214D01*
X15593214Y-15855214D02*
X15593214Y-15555214D01*
X15721786Y-15855214D02*
X15721786Y-15698071D01*
X15707500Y-15669500D01*
X15678928Y-15655214D01*
X15636071Y-15655214D01*
X15607500Y-15669500D01*
X15593214Y-15683786D01*
X15907500Y-15855214D02*
X15878928Y-15840929D01*
X15864643Y-15826643D01*
X15850357Y-15798071D01*
X15850357Y-15712357D01*
X15864643Y-15683786D01*
X15878928Y-15669500D01*
X15907500Y-15655214D01*
X15950357Y-15655214D01*
X15978928Y-15669500D01*
X15993214Y-15683786D01*
X16007500Y-15712357D01*
X16007500Y-15798071D01*
X15993214Y-15826643D01*
X15978928Y-15840929D01*
X15950357Y-15855214D01*
X15907500Y-15855214D01*
X16178928Y-15855214D02*
X16150357Y-15840929D01*
X16136071Y-15812357D01*
X16136071Y-15555214D01*
X16407500Y-15840929D02*
X16378928Y-15855214D01*
X16321786Y-15855214D01*
X16293214Y-15840929D01*
X16278928Y-15812357D01*
X16278928Y-15698071D01*
X16293214Y-15669500D01*
X16321786Y-15655214D01*
X16378928Y-15655214D01*
X16407500Y-15669500D01*
X16421786Y-15698071D01*
X16421786Y-15726643D01*
X16278928Y-15755214D01*
X16536071Y-15840929D02*
X16564643Y-15855214D01*
X16621786Y-15855214D01*
X16650357Y-15840929D01*
X16664643Y-15812357D01*
X16664643Y-15798071D01*
X16650357Y-15769500D01*
X16621786Y-15755214D01*
X16578928Y-15755214D01*
X16550357Y-15740929D01*
X16536071Y-15712357D01*
X16536071Y-15698071D01*
X16550357Y-15669500D01*
X16578928Y-15655214D01*
X16621786Y-15655214D01*
X16650357Y-15669500D01*
X16764643Y-15969500D02*
X16778928Y-15955214D01*
X16807500Y-15912357D01*
X16821786Y-15883786D01*
X16836071Y-15840929D01*
X16850357Y-15769500D01*
X16850357Y-15712357D01*
X16836071Y-15640929D01*
X16821786Y-15598071D01*
X16807500Y-15569500D01*
X16778928Y-15526643D01*
X16764643Y-15512357D01*
X9979320Y-16147320D02*
X9979320Y-16083680D01*
X9915680Y-16083680D01*
X9915680Y-16147320D01*
X9979320Y-16147320D01*
X10336071Y-15951214D02*
X10364643Y-15951214D01*
X10393214Y-15965500D01*
X10407500Y-15979786D01*
X10421786Y-16008357D01*
X10436071Y-16065500D01*
X10436071Y-16136929D01*
X10421786Y-16194071D01*
X10407500Y-16222643D01*
X10393214Y-16236929D01*
X10364643Y-16251214D01*
X10336071Y-16251214D01*
X10307500Y-16236929D01*
X10293214Y-16222643D01*
X10278928Y-16194071D01*
X10264643Y-16136929D01*
X10264643Y-16065500D01*
X10278928Y-16008357D01*
X10293214Y-15979786D01*
X10307500Y-15965500D01*
X10336071Y-15951214D01*
X10564643Y-16222643D02*
X10578928Y-16236929D01*
X10564643Y-16251214D01*
X10550357Y-16236929D01*
X10564643Y-16222643D01*
X10564643Y-16251214D01*
X10721786Y-16251214D02*
X10778928Y-16251214D01*
X10807500Y-16236929D01*
X10821786Y-16222643D01*
X10850357Y-16179786D01*
X10864643Y-16122643D01*
X10864643Y-16008357D01*
X10850357Y-15979786D01*
X10836071Y-15965500D01*
X10807500Y-15951214D01*
X10750357Y-15951214D01*
X10721786Y-15965500D01*
X10707500Y-15979786D01*
X10693214Y-16008357D01*
X10693214Y-16079786D01*
X10707500Y-16108357D01*
X10721786Y-16122643D01*
X10750357Y-16136929D01*
X10807500Y-16136929D01*
X10836071Y-16122643D01*
X10850357Y-16108357D01*
X10864643Y-16079786D01*
X11050357Y-15951214D02*
X11078928Y-15951214D01*
X11107500Y-15965500D01*
X11121786Y-15979786D01*
X11136071Y-16008357D01*
X11150357Y-16065500D01*
X11150357Y-16136929D01*
X11136071Y-16194071D01*
X11121786Y-16222643D01*
X11107500Y-16236929D01*
X11078928Y-16251214D01*
X11050357Y-16251214D01*
X11021786Y-16236929D01*
X11007500Y-16222643D01*
X10993214Y-16194071D01*
X10978928Y-16136929D01*
X10978928Y-16065500D01*
X10993214Y-16008357D01*
X11007500Y-15979786D01*
X11021786Y-15965500D01*
X11050357Y-15951214D01*
X11278928Y-16251214D02*
X11278928Y-16051214D01*
X11278928Y-16079786D02*
X11293214Y-16065500D01*
X11321786Y-16051214D01*
X11364643Y-16051214D01*
X11393214Y-16065500D01*
X11407500Y-16094071D01*
X11407500Y-16251214D01*
X11407500Y-16094071D02*
X11421786Y-16065500D01*
X11450357Y-16051214D01*
X11493214Y-16051214D01*
X11521786Y-16065500D01*
X11536071Y-16094071D01*
X11536071Y-16251214D01*
X11678928Y-16251214D02*
X11678928Y-16051214D01*
X11678928Y-16079786D02*
X11693214Y-16065500D01*
X11721786Y-16051214D01*
X11764643Y-16051214D01*
X11793214Y-16065500D01*
X11807500Y-16094071D01*
X11807500Y-16251214D01*
X11807500Y-16094071D02*
X11821786Y-16065500D01*
X11850357Y-16051214D01*
X11893214Y-16051214D01*
X11921786Y-16065500D01*
X11936071Y-16094071D01*
X11936071Y-16251214D01*
X12521786Y-15936929D02*
X12264643Y-16322643D01*
X12907500Y-15951214D02*
X12936071Y-15951214D01*
X12964643Y-15965500D01*
X12978928Y-15979786D01*
X12993214Y-16008357D01*
X13007500Y-16065500D01*
X13007500Y-16136929D01*
X12993214Y-16194071D01*
X12978928Y-16222643D01*
X12964643Y-16236929D01*
X12936071Y-16251214D01*
X12907500Y-16251214D01*
X12878928Y-16236929D01*
X12864643Y-16222643D01*
X12850357Y-16194071D01*
X12836071Y-16136929D01*
X12836071Y-16065500D01*
X12850357Y-16008357D01*
X12864643Y-15979786D01*
X12878928Y-15965500D01*
X12907500Y-15951214D01*
X13136071Y-16222643D02*
X13150357Y-16236929D01*
X13136071Y-16251214D01*
X13121786Y-16236929D01*
X13136071Y-16222643D01*
X13136071Y-16251214D01*
X13336071Y-15951214D02*
X13364643Y-15951214D01*
X13393214Y-15965500D01*
X13407500Y-15979786D01*
X13421786Y-16008357D01*
X13436071Y-16065500D01*
X13436071Y-16136929D01*
X13421786Y-16194071D01*
X13407500Y-16222643D01*
X13393214Y-16236929D01*
X13364643Y-16251214D01*
X13336071Y-16251214D01*
X13307500Y-16236929D01*
X13293214Y-16222643D01*
X13278928Y-16194071D01*
X13264643Y-16136929D01*
X13264643Y-16065500D01*
X13278928Y-16008357D01*
X13293214Y-15979786D01*
X13307500Y-15965500D01*
X13336071Y-15951214D01*
X13536071Y-15951214D02*
X13721786Y-15951214D01*
X13621786Y-16065500D01*
X13664643Y-16065500D01*
X13693214Y-16079786D01*
X13707500Y-16094071D01*
X13721786Y-16122643D01*
X13721786Y-16194071D01*
X13707500Y-16222643D01*
X13693214Y-16236929D01*
X13664643Y-16251214D01*
X13578928Y-16251214D01*
X13550357Y-16236929D01*
X13536071Y-16222643D01*
X13993214Y-15951214D02*
X13850357Y-15951214D01*
X13836071Y-16094071D01*
X13850357Y-16079786D01*
X13878928Y-16065500D01*
X13950357Y-16065500D01*
X13978928Y-16079786D01*
X13993214Y-16094071D01*
X14007500Y-16122643D01*
X14007500Y-16194071D01*
X13993214Y-16222643D01*
X13978928Y-16236929D01*
X13950357Y-16251214D01*
X13878928Y-16251214D01*
X13850357Y-16236929D01*
X13836071Y-16222643D01*
X14121786Y-15951214D02*
X14121786Y-16008357D01*
X14236071Y-15951214D02*
X14236071Y-16008357D01*
X14678928Y-16365500D02*
X14664643Y-16351214D01*
X14636071Y-16308357D01*
X14621786Y-16279786D01*
X14607500Y-16236929D01*
X14593214Y-16165500D01*
X14593214Y-16108357D01*
X14607500Y-16036929D01*
X14621786Y-15994071D01*
X14636071Y-15965500D01*
X14664643Y-15922643D01*
X14678928Y-15908357D01*
X14921786Y-15951214D02*
X14864643Y-15951214D01*
X14836071Y-15965500D01*
X14821786Y-15979786D01*
X14793214Y-16022643D01*
X14778928Y-16079786D01*
X14778928Y-16194071D01*
X14793214Y-16222643D01*
X14807500Y-16236929D01*
X14836071Y-16251214D01*
X14893214Y-16251214D01*
X14921786Y-16236929D01*
X14936071Y-16222643D01*
X14950357Y-16194071D01*
X14950357Y-16122643D01*
X14936071Y-16094071D01*
X14921786Y-16079786D01*
X14893214Y-16065500D01*
X14836071Y-16065500D01*
X14807500Y-16079786D01*
X14793214Y-16094071D01*
X14778928Y-16122643D01*
X15207500Y-15951214D02*
X15150357Y-15951214D01*
X15121786Y-15965500D01*
X15107500Y-15979786D01*
X15078928Y-16022643D01*
X15064643Y-16079786D01*
X15064643Y-16194071D01*
X15078928Y-16222643D01*
X15093214Y-16236929D01*
X15121786Y-16251214D01*
X15178928Y-16251214D01*
X15207500Y-16236929D01*
X15221786Y-16222643D01*
X15236071Y-16194071D01*
X15236071Y-16122643D01*
X15221786Y-16094071D01*
X15207500Y-16079786D01*
X15178928Y-16065500D01*
X15121786Y-16065500D01*
X15093214Y-16079786D01*
X15078928Y-16094071D01*
X15064643Y-16122643D01*
X15593214Y-16251214D02*
X15593214Y-15951214D01*
X15721786Y-16251214D02*
X15721786Y-16094071D01*
X15707500Y-16065500D01*
X15678928Y-16051214D01*
X15636071Y-16051214D01*
X15607500Y-16065500D01*
X15593214Y-16079786D01*
X15907500Y-16251214D02*
X15878928Y-16236929D01*
X15864643Y-16222643D01*
X15850357Y-16194071D01*
X15850357Y-16108357D01*
X15864643Y-16079786D01*
X15878928Y-16065500D01*
X15907500Y-16051214D01*
X15950357Y-16051214D01*
X15978928Y-16065500D01*
X15993214Y-16079786D01*
X16007500Y-16108357D01*
X16007500Y-16194071D01*
X15993214Y-16222643D01*
X15978928Y-16236929D01*
X15950357Y-16251214D01*
X15907500Y-16251214D01*
X16178928Y-16251214D02*
X16150357Y-16236929D01*
X16136071Y-16208357D01*
X16136071Y-15951214D01*
X16407500Y-16236929D02*
X16378928Y-16251214D01*
X16321786Y-16251214D01*
X16293214Y-16236929D01*
X16278928Y-16208357D01*
X16278928Y-16094071D01*
X16293214Y-16065500D01*
X16321786Y-16051214D01*
X16378928Y-16051214D01*
X16407500Y-16065500D01*
X16421786Y-16094071D01*
X16421786Y-16122643D01*
X16278928Y-16151214D01*
X16536071Y-16236929D02*
X16564643Y-16251214D01*
X16621786Y-16251214D01*
X16650357Y-16236929D01*
X16664643Y-16208357D01*
X16664643Y-16194071D01*
X16650357Y-16165500D01*
X16621786Y-16151214D01*
X16578928Y-16151214D01*
X16550357Y-16136929D01*
X16536071Y-16108357D01*
X16536071Y-16094071D01*
X16550357Y-16065500D01*
X16578928Y-16051214D01*
X16621786Y-16051214D01*
X16650357Y-16065500D01*
X16764643Y-16365500D02*
X16778928Y-16351214D01*
X16807500Y-16308357D01*
X16821786Y-16279786D01*
X16836071Y-16236929D01*
X16850357Y-16165500D01*
X16850357Y-16108357D01*
X16836071Y-16036929D01*
X16821786Y-15994071D01*
X16807500Y-15965500D01*
X16778928Y-15922643D01*
X16764643Y-15908357D01*
X9942500Y-16561500D02*
X9992500Y-16511500D01*
X9942500Y-16461500D01*
X9892500Y-16511500D01*
X9942500Y-16561500D01*
X10436071Y-16647214D02*
X10264643Y-16647214D01*
X10350357Y-16647214D02*
X10350357Y-16347214D01*
X10321786Y-16390071D01*
X10293214Y-16418643D01*
X10264643Y-16432929D01*
X10564643Y-16618643D02*
X10578928Y-16632929D01*
X10564643Y-16647214D01*
X10550357Y-16632929D01*
X10564643Y-16618643D01*
X10564643Y-16647214D01*
X10764643Y-16347214D02*
X10793214Y-16347214D01*
X10821786Y-16361500D01*
X10836071Y-16375786D01*
X10850357Y-16404357D01*
X10864643Y-16461500D01*
X10864643Y-16532929D01*
X10850357Y-16590071D01*
X10836071Y-16618643D01*
X10821786Y-16632929D01*
X10793214Y-16647214D01*
X10764643Y-16647214D01*
X10736071Y-16632929D01*
X10721786Y-16618643D01*
X10707500Y-16590071D01*
X10693214Y-16532929D01*
X10693214Y-16461500D01*
X10707500Y-16404357D01*
X10721786Y-16375786D01*
X10736071Y-16361500D01*
X10764643Y-16347214D01*
X11050357Y-16347214D02*
X11078928Y-16347214D01*
X11107500Y-16361500D01*
X11121786Y-16375786D01*
X11136071Y-16404357D01*
X11150357Y-16461500D01*
X11150357Y-16532929D01*
X11136071Y-16590071D01*
X11121786Y-16618643D01*
X11107500Y-16632929D01*
X11078928Y-16647214D01*
X11050357Y-16647214D01*
X11021786Y-16632929D01*
X11007500Y-16618643D01*
X10993214Y-16590071D01*
X10978928Y-16532929D01*
X10978928Y-16461500D01*
X10993214Y-16404357D01*
X11007500Y-16375786D01*
X11021786Y-16361500D01*
X11050357Y-16347214D01*
X11278928Y-16647214D02*
X11278928Y-16447214D01*
X11278928Y-16475786D02*
X11293214Y-16461500D01*
X11321786Y-16447214D01*
X11364643Y-16447214D01*
X11393214Y-16461500D01*
X11407500Y-16490071D01*
X11407500Y-16647214D01*
X11407500Y-16490071D02*
X11421786Y-16461500D01*
X11450357Y-16447214D01*
X11493214Y-16447214D01*
X11521786Y-16461500D01*
X11536071Y-16490071D01*
X11536071Y-16647214D01*
X11678928Y-16647214D02*
X11678928Y-16447214D01*
X11678928Y-16475786D02*
X11693214Y-16461500D01*
X11721786Y-16447214D01*
X11764643Y-16447214D01*
X11793214Y-16461500D01*
X11807500Y-16490071D01*
X11807500Y-16647214D01*
X11807500Y-16490071D02*
X11821786Y-16461500D01*
X11850357Y-16447214D01*
X11893214Y-16447214D01*
X11921786Y-16461500D01*
X11936071Y-16490071D01*
X11936071Y-16647214D01*
X12521786Y-16332929D02*
X12264643Y-16718643D01*
X12907500Y-16347214D02*
X12936071Y-16347214D01*
X12964643Y-16361500D01*
X12978928Y-16375786D01*
X12993214Y-16404357D01*
X13007500Y-16461500D01*
X13007500Y-16532929D01*
X12993214Y-16590071D01*
X12978928Y-16618643D01*
X12964643Y-16632929D01*
X12936071Y-16647214D01*
X12907500Y-16647214D01*
X12878928Y-16632929D01*
X12864643Y-16618643D01*
X12850357Y-16590071D01*
X12836071Y-16532929D01*
X12836071Y-16461500D01*
X12850357Y-16404357D01*
X12864643Y-16375786D01*
X12878928Y-16361500D01*
X12907500Y-16347214D01*
X13136071Y-16618643D02*
X13150357Y-16632929D01*
X13136071Y-16647214D01*
X13121786Y-16632929D01*
X13136071Y-16618643D01*
X13136071Y-16647214D01*
X13336071Y-16347214D02*
X13364643Y-16347214D01*
X13393214Y-16361500D01*
X13407500Y-16375786D01*
X13421786Y-16404357D01*
X13436071Y-16461500D01*
X13436071Y-16532929D01*
X13421786Y-16590071D01*
X13407500Y-16618643D01*
X13393214Y-16632929D01*
X13364643Y-16647214D01*
X13336071Y-16647214D01*
X13307500Y-16632929D01*
X13293214Y-16618643D01*
X13278928Y-16590071D01*
X13264643Y-16532929D01*
X13264643Y-16461500D01*
X13278928Y-16404357D01*
X13293214Y-16375786D01*
X13307500Y-16361500D01*
X13336071Y-16347214D01*
X13536071Y-16347214D02*
X13721786Y-16347214D01*
X13621786Y-16461500D01*
X13664643Y-16461500D01*
X13693214Y-16475786D01*
X13707500Y-16490071D01*
X13721786Y-16518643D01*
X13721786Y-16590071D01*
X13707500Y-16618643D01*
X13693214Y-16632929D01*
X13664643Y-16647214D01*
X13578928Y-16647214D01*
X13550357Y-16632929D01*
X13536071Y-16618643D01*
X13864643Y-16647214D02*
X13921786Y-16647214D01*
X13950357Y-16632929D01*
X13964643Y-16618643D01*
X13993214Y-16575786D01*
X14007500Y-16518643D01*
X14007500Y-16404357D01*
X13993214Y-16375786D01*
X13978928Y-16361500D01*
X13950357Y-16347214D01*
X13893214Y-16347214D01*
X13864643Y-16361500D01*
X13850357Y-16375786D01*
X13836071Y-16404357D01*
X13836071Y-16475786D01*
X13850357Y-16504357D01*
X13864643Y-16518643D01*
X13893214Y-16532929D01*
X13950357Y-16532929D01*
X13978928Y-16518643D01*
X13993214Y-16504357D01*
X14007500Y-16475786D01*
X14121786Y-16347214D02*
X14121786Y-16404357D01*
X14236071Y-16347214D02*
X14236071Y-16404357D01*
X14678928Y-16761500D02*
X14664643Y-16747214D01*
X14636071Y-16704357D01*
X14621786Y-16675786D01*
X14607500Y-16632929D01*
X14593214Y-16561500D01*
X14593214Y-16504357D01*
X14607500Y-16432929D01*
X14621786Y-16390071D01*
X14636071Y-16361500D01*
X14664643Y-16318643D01*
X14678928Y-16304357D01*
X14950357Y-16647214D02*
X14778928Y-16647214D01*
X14864643Y-16647214D02*
X14864643Y-16347214D01*
X14836071Y-16390071D01*
X14807500Y-16418643D01*
X14778928Y-16432929D01*
X15207500Y-16347214D02*
X15150357Y-16347214D01*
X15121786Y-16361500D01*
X15107500Y-16375786D01*
X15078928Y-16418643D01*
X15064643Y-16475786D01*
X15064643Y-16590071D01*
X15078928Y-16618643D01*
X15093214Y-16632929D01*
X15121786Y-16647214D01*
X15178928Y-16647214D01*
X15207500Y-16632929D01*
X15221786Y-16618643D01*
X15236071Y-16590071D01*
X15236071Y-16518643D01*
X15221786Y-16490071D01*
X15207500Y-16475786D01*
X15178928Y-16461500D01*
X15121786Y-16461500D01*
X15093214Y-16475786D01*
X15078928Y-16490071D01*
X15064643Y-16518643D01*
X15593214Y-16647214D02*
X15593214Y-16347214D01*
X15721786Y-16647214D02*
X15721786Y-16490071D01*
X15707500Y-16461500D01*
X15678928Y-16447214D01*
X15636071Y-16447214D01*
X15607500Y-16461500D01*
X15593214Y-16475786D01*
X15907500Y-16647214D02*
X15878928Y-16632929D01*
X15864643Y-16618643D01*
X15850357Y-16590071D01*
X15850357Y-16504357D01*
X15864643Y-16475786D01*
X15878928Y-16461500D01*
X15907500Y-16447214D01*
X15950357Y-16447214D01*
X15978928Y-16461500D01*
X15993214Y-16475786D01*
X16007500Y-16504357D01*
X16007500Y-16590071D01*
X15993214Y-16618643D01*
X15978928Y-16632929D01*
X15950357Y-16647214D01*
X15907500Y-16647214D01*
X16178928Y-16647214D02*
X16150357Y-16632929D01*
X16136071Y-16604357D01*
X16136071Y-16347214D01*
X16407500Y-16632929D02*
X16378928Y-16647214D01*
X16321786Y-16647214D01*
X16293214Y-16632929D01*
X16278928Y-16604357D01*
X16278928Y-16490071D01*
X16293214Y-16461500D01*
X16321786Y-16447214D01*
X16378928Y-16447214D01*
X16407500Y-16461500D01*
X16421786Y-16490071D01*
X16421786Y-16518643D01*
X16278928Y-16547214D01*
X16536071Y-16632929D02*
X16564643Y-16647214D01*
X16621786Y-16647214D01*
X16650357Y-16632929D01*
X16664643Y-16604357D01*
X16664643Y-16590071D01*
X16650357Y-16561500D01*
X16621786Y-16547214D01*
X16578928Y-16547214D01*
X16550357Y-16532929D01*
X16536071Y-16504357D01*
X16536071Y-16490071D01*
X16550357Y-16461500D01*
X16578928Y-16447214D01*
X16621786Y-16447214D01*
X16650357Y-16461500D01*
X16764643Y-16761500D02*
X16778928Y-16747214D01*
X16807500Y-16704357D01*
X16821786Y-16675786D01*
X16836071Y-16632929D01*
X16850357Y-16561500D01*
X16850357Y-16504357D01*
X16836071Y-16432929D01*
X16821786Y-16390071D01*
X16807500Y-16361500D01*
X16778928Y-16318643D01*
X16764643Y-16304357D01*
X9862500Y-16842500D02*
X9992500Y-16972500D01*
X9992500Y-16842500D02*
X9862500Y-16972500D01*
X9992500Y-16907500D02*
G75*
G03X9992500Y-16907500I-65000J0D01*
G01*
X10436071Y-17043214D02*
X10264643Y-17043214D01*
X10350357Y-17043214D02*
X10350357Y-16743214D01*
X10321786Y-16786072D01*
X10293214Y-16814643D01*
X10264643Y-16828929D01*
X10564643Y-17014643D02*
X10578928Y-17028929D01*
X10564643Y-17043214D01*
X10550357Y-17028929D01*
X10564643Y-17014643D01*
X10564643Y-17043214D01*
X10678928Y-16743214D02*
X10864643Y-16743214D01*
X10764643Y-16857500D01*
X10807500Y-16857500D01*
X10836071Y-16871786D01*
X10850357Y-16886072D01*
X10864643Y-16914643D01*
X10864643Y-16986072D01*
X10850357Y-17014643D01*
X10836071Y-17028929D01*
X10807500Y-17043214D01*
X10721786Y-17043214D01*
X10693214Y-17028929D01*
X10678928Y-17014643D01*
X11050357Y-16743214D02*
X11078928Y-16743214D01*
X11107500Y-16757500D01*
X11121786Y-16771786D01*
X11136071Y-16800357D01*
X11150357Y-16857500D01*
X11150357Y-16928929D01*
X11136071Y-16986072D01*
X11121786Y-17014643D01*
X11107500Y-17028929D01*
X11078928Y-17043214D01*
X11050357Y-17043214D01*
X11021786Y-17028929D01*
X11007500Y-17014643D01*
X10993214Y-16986072D01*
X10978928Y-16928929D01*
X10978928Y-16857500D01*
X10993214Y-16800357D01*
X11007500Y-16771786D01*
X11021786Y-16757500D01*
X11050357Y-16743214D01*
X11278928Y-17043214D02*
X11278928Y-16843214D01*
X11278928Y-16871786D02*
X11293214Y-16857500D01*
X11321786Y-16843214D01*
X11364643Y-16843214D01*
X11393214Y-16857500D01*
X11407500Y-16886072D01*
X11407500Y-17043214D01*
X11407500Y-16886072D02*
X11421786Y-16857500D01*
X11450357Y-16843214D01*
X11493214Y-16843214D01*
X11521786Y-16857500D01*
X11536071Y-16886072D01*
X11536071Y-17043214D01*
X11678928Y-17043214D02*
X11678928Y-16843214D01*
X11678928Y-16871786D02*
X11693214Y-16857500D01*
X11721786Y-16843214D01*
X11764643Y-16843214D01*
X11793214Y-16857500D01*
X11807500Y-16886072D01*
X11807500Y-17043214D01*
X11807500Y-16886072D02*
X11821786Y-16857500D01*
X11850357Y-16843214D01*
X11893214Y-16843214D01*
X11921786Y-16857500D01*
X11936071Y-16886072D01*
X11936071Y-17043214D01*
X12521786Y-16728929D02*
X12264643Y-17114643D01*
X12907500Y-16743214D02*
X12936071Y-16743214D01*
X12964643Y-16757500D01*
X12978928Y-16771786D01*
X12993214Y-16800357D01*
X13007500Y-16857500D01*
X13007500Y-16928929D01*
X12993214Y-16986072D01*
X12978928Y-17014643D01*
X12964643Y-17028929D01*
X12936071Y-17043214D01*
X12907500Y-17043214D01*
X12878928Y-17028929D01*
X12864643Y-17014643D01*
X12850357Y-16986072D01*
X12836071Y-16928929D01*
X12836071Y-16857500D01*
X12850357Y-16800357D01*
X12864643Y-16771786D01*
X12878928Y-16757500D01*
X12907500Y-16743214D01*
X13136071Y-17014643D02*
X13150357Y-17028929D01*
X13136071Y-17043214D01*
X13121786Y-17028929D01*
X13136071Y-17014643D01*
X13136071Y-17043214D01*
X13336071Y-16743214D02*
X13364643Y-16743214D01*
X13393214Y-16757500D01*
X13407500Y-16771786D01*
X13421786Y-16800357D01*
X13436071Y-16857500D01*
X13436071Y-16928929D01*
X13421786Y-16986072D01*
X13407500Y-17014643D01*
X13393214Y-17028929D01*
X13364643Y-17043214D01*
X13336071Y-17043214D01*
X13307500Y-17028929D01*
X13293214Y-17014643D01*
X13278928Y-16986072D01*
X13264643Y-16928929D01*
X13264643Y-16857500D01*
X13278928Y-16800357D01*
X13293214Y-16771786D01*
X13307500Y-16757500D01*
X13336071Y-16743214D01*
X13707500Y-16743214D02*
X13564643Y-16743214D01*
X13550357Y-16886072D01*
X13564643Y-16871786D01*
X13593214Y-16857500D01*
X13664643Y-16857500D01*
X13693214Y-16871786D01*
X13707500Y-16886072D01*
X13721786Y-16914643D01*
X13721786Y-16986072D01*
X13707500Y-17014643D01*
X13693214Y-17028929D01*
X13664643Y-17043214D01*
X13593214Y-17043214D01*
X13564643Y-17028929D01*
X13550357Y-17014643D01*
X14007500Y-17043214D02*
X13836071Y-17043214D01*
X13921786Y-17043214D02*
X13921786Y-16743214D01*
X13893214Y-16786072D01*
X13864643Y-16814643D01*
X13836071Y-16828929D01*
X14121786Y-16743214D02*
X14121786Y-16800357D01*
X14236071Y-16743214D02*
X14236071Y-16800357D01*
X14678928Y-17157500D02*
X14664643Y-17143214D01*
X14636071Y-17100357D01*
X14621786Y-17071786D01*
X14607500Y-17028929D01*
X14593214Y-16957500D01*
X14593214Y-16900357D01*
X14607500Y-16828929D01*
X14621786Y-16786072D01*
X14636071Y-16757500D01*
X14664643Y-16714643D01*
X14678928Y-16700357D01*
X14764643Y-16743214D02*
X14950357Y-16743214D01*
X14850357Y-16857500D01*
X14893214Y-16857500D01*
X14921786Y-16871786D01*
X14936071Y-16886072D01*
X14950357Y-16914643D01*
X14950357Y-16986072D01*
X14936071Y-17014643D01*
X14921786Y-17028929D01*
X14893214Y-17043214D01*
X14807500Y-17043214D01*
X14778928Y-17028929D01*
X14764643Y-17014643D01*
X15136071Y-16743214D02*
X15164643Y-16743214D01*
X15193214Y-16757500D01*
X15207500Y-16771786D01*
X15221786Y-16800357D01*
X15236071Y-16857500D01*
X15236071Y-16928929D01*
X15221786Y-16986072D01*
X15207500Y-17014643D01*
X15193214Y-17028929D01*
X15164643Y-17043214D01*
X15136071Y-17043214D01*
X15107500Y-17028929D01*
X15093214Y-17014643D01*
X15078928Y-16986072D01*
X15064643Y-16928929D01*
X15064643Y-16857500D01*
X15078928Y-16800357D01*
X15093214Y-16771786D01*
X15107500Y-16757500D01*
X15136071Y-16743214D01*
X15593214Y-17043214D02*
X15593214Y-16743214D01*
X15721786Y-17043214D02*
X15721786Y-16886072D01*
X15707500Y-16857500D01*
X15678928Y-16843214D01*
X15636071Y-16843214D01*
X15607500Y-16857500D01*
X15593214Y-16871786D01*
X15907500Y-17043214D02*
X15878928Y-17028929D01*
X15864643Y-17014643D01*
X15850357Y-16986072D01*
X15850357Y-16900357D01*
X15864643Y-16871786D01*
X15878928Y-16857500D01*
X15907500Y-16843214D01*
X15950357Y-16843214D01*
X15978928Y-16857500D01*
X15993214Y-16871786D01*
X16007500Y-16900357D01*
X16007500Y-16986072D01*
X15993214Y-17014643D01*
X15978928Y-17028929D01*
X15950357Y-17043214D01*
X15907500Y-17043214D01*
X16178928Y-17043214D02*
X16150357Y-17028929D01*
X16136071Y-17000357D01*
X16136071Y-16743214D01*
X16407500Y-17028929D02*
X16378928Y-17043214D01*
X16321786Y-17043214D01*
X16293214Y-17028929D01*
X16278928Y-17000357D01*
X16278928Y-16886072D01*
X16293214Y-16857500D01*
X16321786Y-16843214D01*
X16378928Y-16843214D01*
X16407500Y-16857500D01*
X16421786Y-16886072D01*
X16421786Y-16914643D01*
X16278928Y-16943214D01*
X16536071Y-17028929D02*
X16564643Y-17043214D01*
X16621786Y-17043214D01*
X16650357Y-17028929D01*
X16664643Y-17000357D01*
X16664643Y-16986072D01*
X16650357Y-16957500D01*
X16621786Y-16943214D01*
X16578928Y-16943214D01*
X16550357Y-16928929D01*
X16536071Y-16900357D01*
X16536071Y-16886072D01*
X16550357Y-16857500D01*
X16578928Y-16843214D01*
X16621786Y-16843214D01*
X16650357Y-16857500D01*
X16764643Y-17157500D02*
X16778928Y-17143214D01*
X16807500Y-17100357D01*
X16821786Y-17071786D01*
X16836071Y-17028929D01*
X16850357Y-16957500D01*
X16850357Y-16900357D01*
X16836071Y-16828929D01*
X16821786Y-16786072D01*
X16807500Y-16757500D01*
X16778928Y-16714643D01*
X16764643Y-16700357D01*
X9842500Y-17228500D02*
X9992500Y-17378500D01*
X9992500Y-17228500D02*
X9842500Y-17378500D01*
X9917500Y-17228500D02*
X9917500Y-17378500D01*
X9842500Y-17303500D02*
X9992500Y-17303500D01*
X10436071Y-17439214D02*
X10264643Y-17439214D01*
X10350357Y-17439214D02*
X10350357Y-17139214D01*
X10321786Y-17182072D01*
X10293214Y-17210643D01*
X10264643Y-17224929D01*
X10564643Y-17410643D02*
X10578928Y-17424929D01*
X10564643Y-17439214D01*
X10550357Y-17424929D01*
X10564643Y-17410643D01*
X10564643Y-17439214D01*
X10850357Y-17139214D02*
X10707500Y-17139214D01*
X10693214Y-17282072D01*
X10707500Y-17267786D01*
X10736071Y-17253500D01*
X10807500Y-17253500D01*
X10836071Y-17267786D01*
X10850357Y-17282072D01*
X10864643Y-17310643D01*
X10864643Y-17382072D01*
X10850357Y-17410643D01*
X10836071Y-17424929D01*
X10807500Y-17439214D01*
X10736071Y-17439214D01*
X10707500Y-17424929D01*
X10693214Y-17410643D01*
X11050357Y-17139214D02*
X11078928Y-17139214D01*
X11107500Y-17153500D01*
X11121786Y-17167786D01*
X11136071Y-17196357D01*
X11150357Y-17253500D01*
X11150357Y-17324929D01*
X11136071Y-17382072D01*
X11121786Y-17410643D01*
X11107500Y-17424929D01*
X11078928Y-17439214D01*
X11050357Y-17439214D01*
X11021786Y-17424929D01*
X11007500Y-17410643D01*
X10993214Y-17382072D01*
X10978928Y-17324929D01*
X10978928Y-17253500D01*
X10993214Y-17196357D01*
X11007500Y-17167786D01*
X11021786Y-17153500D01*
X11050357Y-17139214D01*
X11278928Y-17439214D02*
X11278928Y-17239214D01*
X11278928Y-17267786D02*
X11293214Y-17253500D01*
X11321786Y-17239214D01*
X11364643Y-17239214D01*
X11393214Y-17253500D01*
X11407500Y-17282072D01*
X11407500Y-17439214D01*
X11407500Y-17282072D02*
X11421786Y-17253500D01*
X11450357Y-17239214D01*
X11493214Y-17239214D01*
X11521786Y-17253500D01*
X11536071Y-17282072D01*
X11536071Y-17439214D01*
X11678928Y-17439214D02*
X11678928Y-17239214D01*
X11678928Y-17267786D02*
X11693214Y-17253500D01*
X11721786Y-17239214D01*
X11764643Y-17239214D01*
X11793214Y-17253500D01*
X11807500Y-17282072D01*
X11807500Y-17439214D01*
X11807500Y-17282072D02*
X11821786Y-17253500D01*
X11850357Y-17239214D01*
X11893214Y-17239214D01*
X11921786Y-17253500D01*
X11936071Y-17282072D01*
X11936071Y-17439214D01*
X12521786Y-17124929D02*
X12264643Y-17510643D01*
X12907500Y-17139214D02*
X12936071Y-17139214D01*
X12964643Y-17153500D01*
X12978928Y-17167786D01*
X12993214Y-17196357D01*
X13007500Y-17253500D01*
X13007500Y-17324929D01*
X12993214Y-17382072D01*
X12978928Y-17410643D01*
X12964643Y-17424929D01*
X12936071Y-17439214D01*
X12907500Y-17439214D01*
X12878928Y-17424929D01*
X12864643Y-17410643D01*
X12850357Y-17382072D01*
X12836071Y-17324929D01*
X12836071Y-17253500D01*
X12850357Y-17196357D01*
X12864643Y-17167786D01*
X12878928Y-17153500D01*
X12907500Y-17139214D01*
X13136071Y-17410643D02*
X13150357Y-17424929D01*
X13136071Y-17439214D01*
X13121786Y-17424929D01*
X13136071Y-17410643D01*
X13136071Y-17439214D01*
X13336071Y-17139214D02*
X13364643Y-17139214D01*
X13393214Y-17153500D01*
X13407500Y-17167786D01*
X13421786Y-17196357D01*
X13436071Y-17253500D01*
X13436071Y-17324929D01*
X13421786Y-17382072D01*
X13407500Y-17410643D01*
X13393214Y-17424929D01*
X13364643Y-17439214D01*
X13336071Y-17439214D01*
X13307500Y-17424929D01*
X13293214Y-17410643D01*
X13278928Y-17382072D01*
X13264643Y-17324929D01*
X13264643Y-17253500D01*
X13278928Y-17196357D01*
X13293214Y-17167786D01*
X13307500Y-17153500D01*
X13336071Y-17139214D01*
X13707500Y-17139214D02*
X13564643Y-17139214D01*
X13550357Y-17282072D01*
X13564643Y-17267786D01*
X13593214Y-17253500D01*
X13664643Y-17253500D01*
X13693214Y-17267786D01*
X13707500Y-17282072D01*
X13721786Y-17310643D01*
X13721786Y-17382072D01*
X13707500Y-17410643D01*
X13693214Y-17424929D01*
X13664643Y-17439214D01*
X13593214Y-17439214D01*
X13564643Y-17424929D01*
X13550357Y-17410643D01*
X13864643Y-17439214D02*
X13921786Y-17439214D01*
X13950357Y-17424929D01*
X13964643Y-17410643D01*
X13993214Y-17367786D01*
X14007500Y-17310643D01*
X14007500Y-17196357D01*
X13993214Y-17167786D01*
X13978928Y-17153500D01*
X13950357Y-17139214D01*
X13893214Y-17139214D01*
X13864643Y-17153500D01*
X13850357Y-17167786D01*
X13836071Y-17196357D01*
X13836071Y-17267786D01*
X13850357Y-17296357D01*
X13864643Y-17310643D01*
X13893214Y-17324929D01*
X13950357Y-17324929D01*
X13978928Y-17310643D01*
X13993214Y-17296357D01*
X14007500Y-17267786D01*
X14121786Y-17139214D02*
X14121786Y-17196357D01*
X14236071Y-17139214D02*
X14236071Y-17196357D01*
X14678928Y-17553500D02*
X14664643Y-17539214D01*
X14636071Y-17496357D01*
X14621786Y-17467786D01*
X14607500Y-17424929D01*
X14593214Y-17353500D01*
X14593214Y-17296357D01*
X14607500Y-17224929D01*
X14621786Y-17182072D01*
X14636071Y-17153500D01*
X14664643Y-17110643D01*
X14678928Y-17096357D01*
X14921786Y-17239214D02*
X14921786Y-17439214D01*
X14850357Y-17124929D02*
X14778928Y-17339214D01*
X14964643Y-17339214D01*
X15307500Y-17439214D02*
X15307500Y-17139214D01*
X15436071Y-17439214D02*
X15436071Y-17282072D01*
X15421786Y-17253500D01*
X15393214Y-17239214D01*
X15350357Y-17239214D01*
X15321786Y-17253500D01*
X15307500Y-17267786D01*
X15621786Y-17439214D02*
X15593214Y-17424929D01*
X15578928Y-17410643D01*
X15564643Y-17382072D01*
X15564643Y-17296357D01*
X15578928Y-17267786D01*
X15593214Y-17253500D01*
X15621786Y-17239214D01*
X15664643Y-17239214D01*
X15693214Y-17253500D01*
X15707500Y-17267786D01*
X15721786Y-17296357D01*
X15721786Y-17382072D01*
X15707500Y-17410643D01*
X15693214Y-17424929D01*
X15664643Y-17439214D01*
X15621786Y-17439214D01*
X15893214Y-17439214D02*
X15864643Y-17424929D01*
X15850357Y-17396357D01*
X15850357Y-17139214D01*
X16121786Y-17424929D02*
X16093214Y-17439214D01*
X16036071Y-17439214D01*
X16007500Y-17424929D01*
X15993214Y-17396357D01*
X15993214Y-17282072D01*
X16007500Y-17253500D01*
X16036071Y-17239214D01*
X16093214Y-17239214D01*
X16121786Y-17253500D01*
X16136071Y-17282072D01*
X16136071Y-17310643D01*
X15993214Y-17339214D01*
X16250357Y-17424929D02*
X16278928Y-17439214D01*
X16336071Y-17439214D01*
X16364643Y-17424929D01*
X16378928Y-17396357D01*
X16378928Y-17382072D01*
X16364643Y-17353500D01*
X16336071Y-17339214D01*
X16293214Y-17339214D01*
X16264643Y-17324929D01*
X16250357Y-17296357D01*
X16250357Y-17282072D01*
X16264643Y-17253500D01*
X16293214Y-17239214D01*
X16336071Y-17239214D01*
X16364643Y-17253500D01*
X16478928Y-17553500D02*
X16493214Y-17539214D01*
X16521786Y-17496357D01*
X16536071Y-17467786D01*
X16550357Y-17424929D01*
X16564643Y-17353500D01*
X16564643Y-17296357D01*
X16550357Y-17224929D01*
X16536071Y-17182072D01*
X16521786Y-17153500D01*
X16493214Y-17110643D01*
X16478928Y-17096357D01*
M02*
